<?xml version="1.0" encoding="us-ascii" standalone="no"?><svg xmlns="http://www.w3.org/2000/svg" xmlns:xlink="http://www.w3.org/1999/xlink" contentStyleType="text/css" height="1842px" preserveAspectRatio="none" style="width:2186px;height:1842px;background:#FFFFFF;" version="1.1" viewBox="0 0 2186 1842" width="2186px" zoomAndPan="magnify"><defs/><g><!--cluster UI--><g id="cluster_UI"><path d="M1288.5,6.0137 L1303.5,6.0137 A3.75,3.75 0 0 1 1306,8.5137 L1313,30.6348 L1493.5,30.6348 A2.5,2.5 0 0 1 1496,33.1348 L1496,104.5137 A2.5,2.5 0 0 1 1493.5,107.0137 L1288.5,107.0137 A2.5,2.5 0 0 1 1286,104.5137 L1286,8.5137 A2.5,2.5 0 0 1 1288.5,6.0137 " fill="none" style="stroke:#000000;stroke-width:1.5;"/><line style="stroke:#000000;stroke-width:1.5;" x1="1286" x2="1313" y1="30.6348" y2="30.6348"/><text fill="#000000" font-family="sans-serif" font-size="14" font-weight="bold" lengthAdjust="spacing" textLength="14" x="1290" y="23.1211">UI</text></g><!--cluster Controller--><g id="cluster_Controller"><path d="M1116.5,140.0137 L1188.5,140.0137 A3.75,3.75 0 0 1 1191,142.5137 L1198,164.6348 L1665.5,164.6348 A2.5,2.5 0 0 1 1668,167.1348 L1668,294.5137 A2.5,2.5 0 0 1 1665.5,297.0137 L1116.5,297.0137 A2.5,2.5 0 0 1 1114,294.5137 L1114,142.5137 A2.5,2.5 0 0 1 1116.5,140.0137 " fill="none" style="stroke:#000000;stroke-width:1.5;"/><line style="stroke:#000000;stroke-width:1.5;" x1="1114" x2="1198" y1="164.6348" y2="164.6348"/><text fill="#000000" font-family="sans-serif" font-size="14" font-weight="bold" lengthAdjust="spacing" textLength="71" x="1118" y="157.1211">Controller</text></g><!--cluster Domain--><g id="cluster_Domain"><path d="M8.5,348.0137 L61.5,348.0137 A3.75,3.75 0 0 1 64,350.5137 L71,372.6348 L2176.5,372.6348 A2.5,2.5 0 0 1 2179,375.1348 L2179,1832.5137 A2.5,2.5 0 0 1 2176.5,1835.0137 L8.5,1835.0137 A2.5,2.5 0 0 1 6,1832.5137 L6,350.5137 A2.5,2.5 0 0 1 8.5,348.0137 " fill="none" style="stroke:#000000;stroke-width:1.5;"/><line style="stroke:#000000;stroke-width:1.5;" x1="6" x2="71" y1="372.6348" y2="372.6348"/><text fill="#000000" font-family="sans-serif" font-size="14" font-weight="bold" lengthAdjust="spacing" textLength="52" x="10" y="365.1211">Domain</text></g><!--cluster Application--><g id="cluster_Application"><path d="M1490.5,411.5137 L1569.5,411.5137 A3.75,3.75 0 0 1 1572,414.0137 L1579,436.1348 L1748.5,436.1348 A2.5,2.5 0 0 1 1751,438.6348 L1751,711.5137 A2.5,2.5 0 0 1 1748.5,714.0137 L1490.5,714.0137 A2.5,2.5 0 0 1 1488,711.5137 L1488,414.0137 A2.5,2.5 0 0 1 1490.5,411.5137 " fill="none" style="stroke:#000000;stroke-width:1.5;"/><line style="stroke:#000000;stroke-width:1.5;" x1="1488" x2="1579" y1="436.1348" y2="436.1348"/><text fill="#000000" font-family="sans-serif" font-size="14" font-weight="bold" lengthAdjust="spacing" textLength="78" x="1492" y="428.6211">Application</text></g><!--cluster Model--><g id="cluster_Model"><path d="M32.5,932.0137 L77.5,932.0137 A3.75,3.75 0 0 1 80,934.5137 L87,956.6348 L2152.5,956.6348 A2.5,2.5 0 0 1 2155,959.1348 L2155,1808.5137 A2.5,2.5 0 0 1 2152.5,1811.0137 L32.5,1811.0137 A2.5,2.5 0 0 1 30,1808.5137 L30,934.5137 A2.5,2.5 0 0 1 32.5,932.0137 " fill="none" style="stroke:#000000;stroke-width:1.5;"/><line style="stroke:#000000;stroke-width:1.5;" x1="30" x2="87" y1="956.6348" y2="956.6348"/><text fill="#000000" font-family="sans-serif" font-size="14" font-weight="bold" lengthAdjust="spacing" textLength="44" x="34" y="949.1211">Model</text></g><!--cluster Repository--><g id="cluster_Repository"><path d="M698.5,393.0137 L775.5,393.0137 A3.75,3.75 0 0 1 778,395.5137 L785,417.6348 L1461.5,417.6348 A2.5,2.5 0 0 1 1464,420.1348 L1464,878.5137 A2.5,2.5 0 0 1 1461.5,881.0137 L698.5,881.0137 A2.5,2.5 0 0 1 696,878.5137 L696,395.5137 A2.5,2.5 0 0 1 698.5,393.0137 " fill="none" style="stroke:#000000;stroke-width:1.5;"/><line style="stroke:#000000;stroke-width:1.5;" x1="696" x2="785" y1="417.6348" y2="417.6348"/><text fill="#000000" font-family="sans-serif" font-size="14" font-weight="bold" lengthAdjust="spacing" textLength="76" x="700" y="410.1211">Repository</text></g><!--class RegisterGreenSpaceUI--><g id="elem_RegisterGreenSpaceUI"><rect codeLine="11" fill="#F1F1F1" height="48" id="RegisterGreenSpaceUI" rx="2.5" ry="2.5" style="stroke:#181818;stroke-width:0.5;" width="177" x="1302.5" y="43.0137"/><ellipse cx="1317.5" cy="59.0137" fill="#ADD1B2" rx="11" ry="11" style="stroke:#181818;stroke-width:1.0;"/><path d="M1320.2656,54.8887 Q1320.4219,54.6699 1320.6094,54.5605 Q1320.7969,54.4512 1321.0156,54.4512 Q1321.3906,54.4512 1321.625,54.7168 Q1321.8594,54.9668 1321.8594,55.5762 L1321.8594,57.0293 Q1321.8594,57.6387 1321.625,57.9043 Q1321.3906,58.1699 1321.0156,58.1699 Q1320.6719,58.1699 1320.4688,57.9668 Q1320.2656,57.7793 1320.1563,57.2637 Q1320.1094,56.9043 1319.9219,56.7168 Q1319.5938,56.3418 1318.9844,56.123 Q1318.375,55.9043 1317.75,55.9043 Q1316.9844,55.9043 1316.3438,56.2324 Q1315.7188,56.5605 1315.2188,57.3105 Q1314.7344,58.0605 1314.7344,59.0918 L1314.7344,60.1855 Q1314.7344,61.4199 1315.625,62.248 Q1316.5156,63.0605 1318.1094,63.0605 Q1319.0469,63.0605 1319.7031,62.8105 Q1320.0938,62.6543 1320.5156,62.2168 Q1320.7813,61.9512 1320.9219,61.873 Q1321.0781,61.7949 1321.2813,61.7949 Q1321.6094,61.7949 1321.8594,62.0605 Q1322.125,62.3105 1322.125,62.6543 Q1322.125,62.998 1321.7813,63.4043 Q1321.2813,63.9824 1320.4844,64.3105 Q1319.4063,64.7637 1318.1094,64.7637 Q1316.5938,64.7637 1315.3906,64.1387 Q1314.4063,63.6387 1313.7188,62.5762 Q1313.0313,61.498 1313.0313,60.2168 L1313.0313,59.0605 Q1313.0313,57.7324 1313.6406,56.5918 Q1314.2656,55.4355 1315.3594,54.8262 Q1316.4531,54.2012 1317.6875,54.2012 Q1318.4219,54.2012 1319.0625,54.373 Q1319.7188,54.5293 1320.2656,54.8887 Z " fill="#000000"/><text fill="#000000" font-family="sans-serif" font-size="14" lengthAdjust="spacing" textLength="145" x="1331.5" y="64.8105">RegisterGreenSpaceUI</text><line style="stroke:#181818;stroke-width:0.5;" x1="1303.5" x2="1478.5" y1="75.0137" y2="75.0137"/><line style="stroke:#181818;stroke-width:0.5;" x1="1303.5" x2="1478.5" y1="83.0137" y2="83.0137"/></g><!--class RegisterGreenSpaceController--><g id="elem_RegisterGreenSpaceController"><rect codeLine="16" fill="#F1F1F1" height="103.8633" id="RegisterGreenSpaceController" rx="2.5" ry="2.5" style="stroke:#181818;stroke-width:0.5;" width="521" x="1130.5" y="177.0137"/><ellipse cx="1289.25" cy="193.0137" fill="#ADD1B2" rx="11" ry="11" style="stroke:#181818;stroke-width:1.0;"/><path d="M1292.0156,188.8887 Q1292.1719,188.6699 1292.3594,188.5605 Q1292.5469,188.4512 1292.7656,188.4512 Q1293.1406,188.4512 1293.375,188.7168 Q1293.6094,188.9668 1293.6094,189.5762 L1293.6094,191.0293 Q1293.6094,191.6387 1293.375,191.9043 Q1293.1406,192.1699 1292.7656,192.1699 Q1292.4219,192.1699 1292.2188,191.9668 Q1292.0156,191.7793 1291.9063,191.2637 Q1291.8594,190.9043 1291.6719,190.7168 Q1291.3438,190.3418 1290.7344,190.123 Q1290.125,189.9043 1289.5,189.9043 Q1288.7344,189.9043 1288.0938,190.2324 Q1287.4688,190.5605 1286.9688,191.3105 Q1286.4844,192.0605 1286.4844,193.0918 L1286.4844,194.1855 Q1286.4844,195.4199 1287.375,196.248 Q1288.2656,197.0605 1289.8594,197.0605 Q1290.7969,197.0605 1291.4531,196.8105 Q1291.8438,196.6543 1292.2656,196.2168 Q1292.5313,195.9512 1292.6719,195.873 Q1292.8281,195.7949 1293.0313,195.7949 Q1293.3594,195.7949 1293.6094,196.0605 Q1293.875,196.3105 1293.875,196.6543 Q1293.875,196.998 1293.5313,197.4043 Q1293.0313,197.9824 1292.2344,198.3105 Q1291.1563,198.7637 1289.8594,198.7637 Q1288.3438,198.7637 1287.1406,198.1387 Q1286.1563,197.6387 1285.4688,196.5762 Q1284.7813,195.498 1284.7813,194.2168 L1284.7813,193.0605 Q1284.7813,191.7324 1285.3906,190.5918 Q1286.0156,189.4355 1287.1094,188.8262 Q1288.2031,188.2012 1289.4375,188.2012 Q1290.1719,188.2012 1290.8125,188.373 Q1291.4688,188.5293 1292.0156,188.8887 Z " fill="#000000"/><text fill="#000000" font-family="sans-serif" font-size="14" lengthAdjust="spacing" textLength="195" x="1309.75" y="198.8105">RegisterGreenSpaceController</text><line style="stroke:#181818;stroke-width:0.5;" x1="1131.5" x2="1650.5" y1="209.0137" y2="209.0137"/><line style="stroke:#181818;stroke-width:0.5;" x1="1131.5" x2="1650.5" y1="217.0137" y2="217.0137"/><text fill="#000000" font-family="sans-serif" font-size="14" lengthAdjust="spacing" textLength="509" x="1136.5" y="236.1211">+RegisterGreenSpaceController(greenSpaceRepository, collaboratorRepository)</text><text fill="#000000" font-family="sans-serif" font-size="14" lengthAdjust="spacing" textLength="508" x="1136.5" y="254.7422">+registerGreenSpace(type,name,area,streetName,postCodeNumber,localization)</text><text fill="#000000" font-family="sans-serif" font-size="14" lengthAdjust="spacing" textLength="149" x="1136.5" y="273.3633">-getGSMFromSession()</text></g><!--class ApplicationSession--><g id="elem_ApplicationSession"><rect codeLine="26" fill="#F1F1F1" height="85.2422" id="ApplicationSession" rx="2.5" ry="2.5" style="stroke:#181818;stroke-width:0.5;" width="151" x="1504.5" y="448.5137"/><ellipse cx="1519.5" cy="464.5137" fill="#ADD1B2" rx="11" ry="11" style="stroke:#181818;stroke-width:1.0;"/><path d="M1522.2656,460.3887 Q1522.4219,460.1699 1522.6094,460.0605 Q1522.7969,459.9512 1523.0156,459.9512 Q1523.3906,459.9512 1523.625,460.2168 Q1523.8594,460.4668 1523.8594,461.0762 L1523.8594,462.5293 Q1523.8594,463.1387 1523.625,463.4043 Q1523.3906,463.6699 1523.0156,463.6699 Q1522.6719,463.6699 1522.4688,463.4668 Q1522.2656,463.2793 1522.1563,462.7637 Q1522.1094,462.4043 1521.9219,462.2168 Q1521.5938,461.8418 1520.9844,461.623 Q1520.375,461.4043 1519.75,461.4043 Q1518.9844,461.4043 1518.3438,461.7324 Q1517.7188,462.0605 1517.2188,462.8105 Q1516.7344,463.5605 1516.7344,464.5918 L1516.7344,465.6855 Q1516.7344,466.9199 1517.625,467.748 Q1518.5156,468.5605 1520.1094,468.5605 Q1521.0469,468.5605 1521.7031,468.3105 Q1522.0938,468.1543 1522.5156,467.7168 Q1522.7813,467.4512 1522.9219,467.373 Q1523.0781,467.2949 1523.2813,467.2949 Q1523.6094,467.2949 1523.8594,467.5605 Q1524.125,467.8105 1524.125,468.1543 Q1524.125,468.498 1523.7813,468.9043 Q1523.2813,469.4824 1522.4844,469.8105 Q1521.4063,470.2637 1520.1094,470.2637 Q1518.5938,470.2637 1517.3906,469.6387 Q1516.4063,469.1387 1515.7188,468.0762 Q1515.0313,466.998 1515.0313,465.7168 L1515.0313,464.5605 Q1515.0313,463.2324 1515.6406,462.0918 Q1516.2656,460.9355 1517.3594,460.3262 Q1518.4531,459.7012 1519.6875,459.7012 Q1520.4219,459.7012 1521.0625,459.873 Q1521.7188,460.0293 1522.2656,460.3887 Z " fill="#000000"/><text fill="#000000" font-family="sans-serif" font-size="14" lengthAdjust="spacing" textLength="119" x="1533.5" y="470.3105">ApplicationSession</text><line style="stroke:#181818;stroke-width:0.5;" x1="1505.5" x2="1654.5" y1="480.5137" y2="480.5137"/><line style="stroke:#181818;stroke-width:0.5;" x1="1505.5" x2="1654.5" y1="488.5137" y2="488.5137"/><text fill="#000000" font-family="sans-serif" font-size="14" lengthAdjust="spacing" textLength="128" x="1510.5" y="507.6211">+static getInstance()</text><text fill="#000000" font-family="sans-serif" font-size="14" lengthAdjust="spacing" textLength="136" x="1510.5" y="526.2422">+getCurrentSession()</text></g><!--class UserSession--><g id="elem_UserSession"><rect codeLine="32" fill="#F1F1F1" height="66.6211" id="UserSession" rx="2.5" ry="2.5" style="stroke:#181818;stroke-width:0.5;" width="113" x="1513.5" y="631.0137"/><ellipse cx="1529.4" cy="647.0137" fill="#ADD1B2" rx="11" ry="11" style="stroke:#181818;stroke-width:1.0;"/><path d="M1532.1656,642.8887 Q1532.3219,642.6699 1532.5094,642.5605 Q1532.6969,642.4512 1532.9156,642.4512 Q1533.2906,642.4512 1533.525,642.7168 Q1533.7594,642.9668 1533.7594,643.5762 L1533.7594,645.0293 Q1533.7594,645.6387 1533.525,645.9043 Q1533.2906,646.1699 1532.9156,646.1699 Q1532.5719,646.1699 1532.3688,645.9668 Q1532.1656,645.7793 1532.0563,645.2637 Q1532.0094,644.9043 1531.8219,644.7168 Q1531.4938,644.3418 1530.8844,644.123 Q1530.275,643.9043 1529.65,643.9043 Q1528.8844,643.9043 1528.2438,644.2324 Q1527.6188,644.5605 1527.1188,645.3105 Q1526.6344,646.0605 1526.6344,647.0918 L1526.6344,648.1855 Q1526.6344,649.4199 1527.525,650.248 Q1528.4156,651.0605 1530.0094,651.0605 Q1530.9469,651.0605 1531.6031,650.8105 Q1531.9938,650.6543 1532.4156,650.2168 Q1532.6813,649.9512 1532.8219,649.873 Q1532.9781,649.7949 1533.1813,649.7949 Q1533.5094,649.7949 1533.7594,650.0605 Q1534.025,650.3105 1534.025,650.6543 Q1534.025,650.998 1533.6813,651.4043 Q1533.1813,651.9824 1532.3844,652.3105 Q1531.3063,652.7637 1530.0094,652.7637 Q1528.4938,652.7637 1527.2906,652.1387 Q1526.3063,651.6387 1525.6188,650.5762 Q1524.9313,649.498 1524.9313,648.2168 L1524.9313,647.0605 Q1524.9313,645.7324 1525.5406,644.5918 Q1526.1656,643.4355 1527.2594,642.8262 Q1528.3531,642.2012 1529.5875,642.2012 Q1530.3219,642.2012 1530.9625,642.373 Q1531.6188,642.5293 1532.1656,642.8887 Z " fill="#000000"/><text fill="#000000" font-family="sans-serif" font-size="14" lengthAdjust="spacing" textLength="79" x="1543.6" y="652.8105">UserSession</text><line style="stroke:#181818;stroke-width:0.5;" x1="1514.5" x2="1625.5" y1="663.0137" y2="663.0137"/><line style="stroke:#181818;stroke-width:0.5;" x1="1514.5" x2="1625.5" y1="671.0137" y2="671.0137"/><text fill="#000000" font-family="sans-serif" font-size="14" lengthAdjust="spacing" textLength="101" x="1519.5" y="690.1211">+getUserEmail()</text></g><!--class GreenSpace--><g id="elem_GreenSpace"><rect codeLine="39" fill="#F1F1F1" height="116.4453" id="GreenSpace" rx="2.5" ry="2.5" style="stroke:#181818;stroke-width:0.5;" width="112" x="836" y="1403.0137"/><ellipse cx="851" cy="1425.3047" fill="#B4A7E5" rx="11" ry="11" style="stroke:#181818;stroke-width:1.0;"/><path d="M851.9531,1421.9453 L851.9531,1428.6016 L853.6719,1428.6016 Q854.2813,1428.6016 854.5469,1428.8359 Q854.8125,1429.0703 854.8125,1429.4609 Q854.8125,1429.8359 854.5469,1430.0703 Q854.2813,1430.3047 853.6719,1430.3047 L848.5313,1430.3047 Q847.9219,1430.3047 847.6563,1430.0703 Q847.3906,1429.8359 847.3906,1429.4453 Q847.3906,1429.0703 847.6563,1428.8359 Q847.9219,1428.6016 848.5313,1428.6016 L850.25,1428.6016 L850.25,1421.9453 L848.5313,1421.9453 Q847.9219,1421.9453 847.6563,1421.7109 Q847.3906,1421.4766 847.3906,1421.0859 Q847.3906,1420.7109 847.6563,1420.4766 Q847.9219,1420.2422 848.5313,1420.2422 L853.6719,1420.2422 Q854.2813,1420.2422 854.5469,1420.4766 Q854.8125,1420.7109 854.8125,1421.0859 Q854.8125,1421.4766 854.5469,1421.7109 Q854.2813,1421.9453 853.6719,1421.9453 L851.9531,1421.9453 Z " fill="#000000"/><text fill="#000000" font-family="sans-serif" font-size="12" font-style="italic" lengthAdjust="spacing" textLength="62" x="874" y="1420.9629">&#171;Interface&#187;</text><text fill="#000000" font-family="sans-serif" font-size="14" font-style="italic" lengthAdjust="spacing" textLength="80" x="865" y="1439.082">GreenSpace</text><line style="stroke:#181818;stroke-width:0.5;" x1="837" x2="947" y1="1447.5957" y2="1447.5957"/><line style="stroke:#181818;stroke-width:0.5;" x1="837" x2="947" y1="1455.5957" y2="1455.5957"/><text fill="#000000" font-family="sans-serif" font-size="14" lengthAdjust="spacing" textLength="74" x="842" y="1474.7031">+getName()</text><text fill="#000000" font-family="sans-serif" font-size="14" lengthAdjust="spacing" textLength="68" x="842" y="1493.3242">+getArea()</text><text fill="#000000" font-family="sans-serif" font-size="14" lengthAdjust="spacing" textLength="90" x="842" y="1511.9453">+getAddress()</text></g><!--class GreenSpaces--><g id="elem_GreenSpaces"><rect codeLine="47" fill="#F1F1F1" height="66.6211" id="GreenSpaces" rx="2.5" ry="2.5" style="stroke:#181818;stroke-width:0.5;" width="240" x="469" y="1427.5137"/><ellipse cx="541.25" cy="1443.5137" fill="#ADD1B2" rx="11" ry="11" style="stroke:#181818;stroke-width:1.0;"/><path d="M544.0156,1439.3887 Q544.1719,1439.1699 544.3594,1439.0605 Q544.5469,1438.9512 544.7656,1438.9512 Q545.1406,1438.9512 545.375,1439.2168 Q545.6094,1439.4668 545.6094,1440.0762 L545.6094,1441.5293 Q545.6094,1442.1387 545.375,1442.4043 Q545.1406,1442.6699 544.7656,1442.6699 Q544.4219,1442.6699 544.2188,1442.4668 Q544.0156,1442.2793 543.9063,1441.7637 Q543.8594,1441.4043 543.6719,1441.2168 Q543.3438,1440.8418 542.7344,1440.623 Q542.125,1440.4043 541.5,1440.4043 Q540.7344,1440.4043 540.0938,1440.7324 Q539.4688,1441.0605 538.9688,1441.8105 Q538.4844,1442.5605 538.4844,1443.5918 L538.4844,1444.6855 Q538.4844,1445.9199 539.375,1446.748 Q540.2656,1447.5605 541.8594,1447.5605 Q542.7969,1447.5605 543.4531,1447.3105 Q543.8438,1447.1543 544.2656,1446.7168 Q544.5313,1446.4512 544.6719,1446.373 Q544.8281,1446.2949 545.0313,1446.2949 Q545.3594,1446.2949 545.6094,1446.5605 Q545.875,1446.8105 545.875,1447.1543 Q545.875,1447.498 545.5313,1447.9043 Q545.0313,1448.4824 544.2344,1448.8105 Q543.1563,1449.2637 541.8594,1449.2637 Q540.3438,1449.2637 539.1406,1448.6387 Q538.1563,1448.1387 537.4688,1447.0762 Q536.7813,1445.998 536.7813,1444.7168 L536.7813,1443.5605 Q536.7813,1442.2324 537.3906,1441.0918 Q538.0156,1439.9355 539.1094,1439.3262 Q540.2031,1438.7012 541.4375,1438.7012 Q542.1719,1438.7012 542.8125,1438.873 Q543.4688,1439.0293 544.0156,1439.3887 Z " fill="#000000"/><text fill="#000000" font-family="sans-serif" font-size="14" lengthAdjust="spacing" textLength="87" x="561.75" y="1449.3105">GreenSpaces</text><line style="stroke:#181818;stroke-width:0.5;" x1="470" x2="708" y1="1459.5137" y2="1459.5137"/><line style="stroke:#181818;stroke-width:0.5;" x1="470" x2="708" y1="1467.5137" y2="1467.5137"/><text fill="#000000" font-family="sans-serif" font-size="14" lengthAdjust="spacing" textLength="228" x="475" y="1486.6211">+addListGreenSpaces(greenSpace)</text></g><!--class Garden--><g id="elem_Garden"><rect codeLine="51" fill="#F1F1F1" height="196.9688" id="Garden" rx="2.5" ry="2.5" style="stroke:#181818;stroke-width:0.5;" width="409" x="508.5" y="1598.0137"/><ellipse cx="684.75" cy="1614.0137" fill="#ADD1B2" rx="11" ry="11" style="stroke:#181818;stroke-width:1.0;"/><path d="M687.5156,1609.8887 Q687.6719,1609.6699 687.8594,1609.5605 Q688.0469,1609.4512 688.2656,1609.4512 Q688.6406,1609.4512 688.875,1609.7168 Q689.1094,1609.9668 689.1094,1610.5762 L689.1094,1612.0293 Q689.1094,1612.6387 688.875,1612.9043 Q688.6406,1613.1699 688.2656,1613.1699 Q687.9219,1613.1699 687.7188,1612.9668 Q687.5156,1612.7793 687.4063,1612.2637 Q687.3594,1611.9043 687.1719,1611.7168 Q686.8438,1611.3418 686.2344,1611.123 Q685.625,1610.9043 685,1610.9043 Q684.2344,1610.9043 683.5938,1611.2324 Q682.9688,1611.5605 682.4688,1612.3105 Q681.9844,1613.0605 681.9844,1614.0918 L681.9844,1615.1855 Q681.9844,1616.4199 682.875,1617.248 Q683.7656,1618.0605 685.3594,1618.0605 Q686.2969,1618.0605 686.9531,1617.8105 Q687.3438,1617.6543 687.7656,1617.2168 Q688.0313,1616.9512 688.1719,1616.873 Q688.3281,1616.7949 688.5313,1616.7949 Q688.8594,1616.7949 689.1094,1617.0605 Q689.375,1617.3105 689.375,1617.6543 Q689.375,1617.998 689.0313,1618.4043 Q688.5313,1618.9824 687.7344,1619.3105 Q686.6563,1619.7637 685.3594,1619.7637 Q683.8438,1619.7637 682.6406,1619.1387 Q681.6563,1618.6387 680.9688,1617.5762 Q680.2813,1616.498 680.2813,1615.2168 L680.2813,1614.0605 Q680.2813,1612.7324 680.8906,1611.5918 Q681.5156,1610.4355 682.6094,1609.8262 Q683.7031,1609.2012 684.9375,1609.2012 Q685.6719,1609.2012 686.3125,1609.373 Q686.9688,1609.5293 687.5156,1609.8887 Z " fill="#000000"/><text fill="#000000" font-family="sans-serif" font-size="14" lengthAdjust="spacing" textLength="48" x="705.25" y="1619.8105">Garden</text><line style="stroke:#181818;stroke-width:0.5;" x1="509.5" x2="916.5" y1="1630.0137" y2="1630.0137"/><text fill="#000000" font-family="sans-serif" font-size="14" lengthAdjust="spacing" textLength="81" x="514.5" y="1649.1211">-String name</text><text fill="#000000" font-family="sans-serif" font-size="14" lengthAdjust="spacing" textLength="53" x="514.5" y="1667.7422">-int area</text><text fill="#000000" font-family="sans-serif" font-size="14" lengthAdjust="spacing" textLength="57" x="514.5" y="1686.3633">-Address</text><line style="stroke:#181818;stroke-width:0.5;" x1="509.5" x2="916.5" y1="1693.877" y2="1693.877"/><text fill="#000000" font-family="sans-serif" font-size="14" lengthAdjust="spacing" textLength="397" x="514.5" y="1712.9844">+Garden(name,area,streetName,postCodeNumber,localization)</text><text fill="#000000" font-family="sans-serif" font-size="14" lengthAdjust="spacing" textLength="74" x="514.5" y="1731.6055">+getName()</text><text fill="#000000" font-family="sans-serif" font-size="14" lengthAdjust="spacing" textLength="68" x="514.5" y="1750.2266">+getArea()</text><text fill="#000000" font-family="sans-serif" font-size="14" lengthAdjust="spacing" textLength="90" x="514.5" y="1768.8477">+getAddress()</text><text fill="#000000" font-family="sans-serif" font-size="14" lengthAdjust="spacing" textLength="155" x="514.5" y="1787.4688">-validationGreenSpace()</text></g><!--class MediumPark--><g id="elem_MediumPark"><rect codeLine="63" fill="#F1F1F1" height="196.9688" id="MediumPark" rx="2.5" ry="2.5" style="stroke:#181818;stroke-width:0.5;" width="439" x="952.5" y="1598.0137"/><ellipse cx="1128.75" cy="1614.0137" fill="#ADD1B2" rx="11" ry="11" style="stroke:#181818;stroke-width:1.0;"/><path d="M1131.5156,1609.8887 Q1131.6719,1609.6699 1131.8594,1609.5605 Q1132.0469,1609.4512 1132.2656,1609.4512 Q1132.6406,1609.4512 1132.875,1609.7168 Q1133.1094,1609.9668 1133.1094,1610.5762 L1133.1094,1612.0293 Q1133.1094,1612.6387 1132.875,1612.9043 Q1132.6406,1613.1699 1132.2656,1613.1699 Q1131.9219,1613.1699 1131.7188,1612.9668 Q1131.5156,1612.7793 1131.4063,1612.2637 Q1131.3594,1611.9043 1131.1719,1611.7168 Q1130.8438,1611.3418 1130.2344,1611.123 Q1129.625,1610.9043 1129,1610.9043 Q1128.2344,1610.9043 1127.5938,1611.2324 Q1126.9688,1611.5605 1126.4688,1612.3105 Q1125.9844,1613.0605 1125.9844,1614.0918 L1125.9844,1615.1855 Q1125.9844,1616.4199 1126.875,1617.248 Q1127.7656,1618.0605 1129.3594,1618.0605 Q1130.2969,1618.0605 1130.9531,1617.8105 Q1131.3438,1617.6543 1131.7656,1617.2168 Q1132.0313,1616.9512 1132.1719,1616.873 Q1132.3281,1616.7949 1132.5313,1616.7949 Q1132.8594,1616.7949 1133.1094,1617.0605 Q1133.375,1617.3105 1133.375,1617.6543 Q1133.375,1617.998 1133.0313,1618.4043 Q1132.5313,1618.9824 1131.7344,1619.3105 Q1130.6563,1619.7637 1129.3594,1619.7637 Q1127.8438,1619.7637 1126.6406,1619.1387 Q1125.6563,1618.6387 1124.9688,1617.5762 Q1124.2813,1616.498 1124.2813,1615.2168 L1124.2813,1614.0605 Q1124.2813,1612.7324 1124.8906,1611.5918 Q1125.5156,1610.4355 1126.6094,1609.8262 Q1127.7031,1609.2012 1128.9375,1609.2012 Q1129.6719,1609.2012 1130.3125,1609.373 Q1130.9688,1609.5293 1131.5156,1609.8887 Z " fill="#000000"/><text fill="#000000" font-family="sans-serif" font-size="14" lengthAdjust="spacing" textLength="78" x="1149.25" y="1619.8105">MediumPark</text><line style="stroke:#181818;stroke-width:0.5;" x1="953.5" x2="1390.5" y1="1630.0137" y2="1630.0137"/><text fill="#000000" font-family="sans-serif" font-size="14" lengthAdjust="spacing" textLength="81" x="958.5" y="1649.1211">-String name</text><text fill="#000000" font-family="sans-serif" font-size="14" lengthAdjust="spacing" textLength="53" x="958.5" y="1667.7422">-int area</text><text fill="#000000" font-family="sans-serif" font-size="14" lengthAdjust="spacing" textLength="57" x="958.5" y="1686.3633">-Address</text><line style="stroke:#181818;stroke-width:0.5;" x1="953.5" x2="1390.5" y1="1693.877" y2="1693.877"/><text fill="#000000" font-family="sans-serif" font-size="14" lengthAdjust="spacing" textLength="74" x="958.5" y="1712.9844">+getName()</text><text fill="#000000" font-family="sans-serif" font-size="14" lengthAdjust="spacing" textLength="68" x="958.5" y="1731.6055">+getArea()</text><text fill="#000000" font-family="sans-serif" font-size="14" lengthAdjust="spacing" textLength="90" x="958.5" y="1750.2266">+getAddress()</text><text fill="#000000" font-family="sans-serif" font-size="14" lengthAdjust="spacing" textLength="427" x="958.5" y="1768.8477">+MediumPark(name,area,streetName,postCodeNumber,localization)</text><text fill="#000000" font-family="sans-serif" font-size="14" lengthAdjust="spacing" textLength="155" x="958.5" y="1787.4688">-validationGreenSpace()</text></g><!--class LargePark--><g id="elem_LargePark"><rect codeLine="75" fill="#F1F1F1" height="196.9688" id="LargePark" rx="2.5" ry="2.5" style="stroke:#181818;stroke-width:0.5;" width="427" x="46.5" y="1598.0137"/><ellipse cx="222.75" cy="1614.0137" fill="#ADD1B2" rx="11" ry="11" style="stroke:#181818;stroke-width:1.0;"/><path d="M225.5156,1609.8887 Q225.6719,1609.6699 225.8594,1609.5605 Q226.0469,1609.4512 226.2656,1609.4512 Q226.6406,1609.4512 226.875,1609.7168 Q227.1094,1609.9668 227.1094,1610.5762 L227.1094,1612.0293 Q227.1094,1612.6387 226.875,1612.9043 Q226.6406,1613.1699 226.2656,1613.1699 Q225.9219,1613.1699 225.7188,1612.9668 Q225.5156,1612.7793 225.4063,1612.2637 Q225.3594,1611.9043 225.1719,1611.7168 Q224.8438,1611.3418 224.2344,1611.123 Q223.625,1610.9043 223,1610.9043 Q222.2344,1610.9043 221.5938,1611.2324 Q220.9688,1611.5605 220.4688,1612.3105 Q219.9844,1613.0605 219.9844,1614.0918 L219.9844,1615.1855 Q219.9844,1616.4199 220.875,1617.248 Q221.7656,1618.0605 223.3594,1618.0605 Q224.2969,1618.0605 224.9531,1617.8105 Q225.3438,1617.6543 225.7656,1617.2168 Q226.0313,1616.9512 226.1719,1616.873 Q226.3281,1616.7949 226.5313,1616.7949 Q226.8594,1616.7949 227.1094,1617.0605 Q227.375,1617.3105 227.375,1617.6543 Q227.375,1617.998 227.0313,1618.4043 Q226.5313,1618.9824 225.7344,1619.3105 Q224.6563,1619.7637 223.3594,1619.7637 Q221.8438,1619.7637 220.6406,1619.1387 Q219.6563,1618.6387 218.9688,1617.5762 Q218.2813,1616.498 218.2813,1615.2168 L218.2813,1614.0605 Q218.2813,1612.7324 218.8906,1611.5918 Q219.5156,1610.4355 220.6094,1609.8262 Q221.7031,1609.2012 222.9375,1609.2012 Q223.6719,1609.2012 224.3125,1609.373 Q224.9688,1609.5293 225.5156,1609.8887 Z " fill="#000000"/><text fill="#000000" font-family="sans-serif" font-size="14" lengthAdjust="spacing" textLength="66" x="243.25" y="1619.8105">LargePark</text><line style="stroke:#181818;stroke-width:0.5;" x1="47.5" x2="472.5" y1="1630.0137" y2="1630.0137"/><text fill="#000000" font-family="sans-serif" font-size="14" lengthAdjust="spacing" textLength="81" x="52.5" y="1649.1211">-String name</text><text fill="#000000" font-family="sans-serif" font-size="14" lengthAdjust="spacing" textLength="53" x="52.5" y="1667.7422">-int area</text><text fill="#000000" font-family="sans-serif" font-size="14" lengthAdjust="spacing" textLength="57" x="52.5" y="1686.3633">-Address</text><line style="stroke:#181818;stroke-width:0.5;" x1="47.5" x2="472.5" y1="1693.877" y2="1693.877"/><text fill="#000000" font-family="sans-serif" font-size="14" lengthAdjust="spacing" textLength="74" x="52.5" y="1712.9844">+getName()</text><text fill="#000000" font-family="sans-serif" font-size="14" lengthAdjust="spacing" textLength="68" x="52.5" y="1731.6055">+getArea()</text><text fill="#000000" font-family="sans-serif" font-size="14" lengthAdjust="spacing" textLength="90" x="52.5" y="1750.2266">+getAddress()</text><text fill="#000000" font-family="sans-serif" font-size="14" lengthAdjust="spacing" textLength="415" x="52.5" y="1768.8477">+LargePark(name,area,streetName,postCodeNumber,localization)</text><text fill="#000000" font-family="sans-serif" font-size="14" lengthAdjust="spacing" textLength="155" x="52.5" y="1787.4688">-validationGreenSpace()</text></g><!--class ICollaborator--><g id="elem_ICollaborator"><rect codeLine="88" fill="#F1F1F1" height="116.4453" id="ICollaborator" rx="2.5" ry="2.5" style="stroke:#181818;stroke-width:0.5;" width="120" x="758" y="969.0137"/><ellipse cx="775.7" cy="991.3047" fill="#B4A7E5" rx="11" ry="11" style="stroke:#181818;stroke-width:1.0;"/><path d="M776.6531,987.9453 L776.6531,994.6016 L778.3719,994.6016 Q778.9813,994.6016 779.2469,994.8359 Q779.5125,995.0703 779.5125,995.4609 Q779.5125,995.8359 779.2469,996.0703 Q778.9813,996.3047 778.3719,996.3047 L773.2313,996.3047 Q772.6219,996.3047 772.3563,996.0703 Q772.0906,995.8359 772.0906,995.4453 Q772.0906,995.0703 772.3563,994.8359 Q772.6219,994.6016 773.2313,994.6016 L774.95,994.6016 L774.95,987.9453 L773.2313,987.9453 Q772.6219,987.9453 772.3563,987.7109 Q772.0906,987.4766 772.0906,987.0859 Q772.0906,986.7109 772.3563,986.4766 Q772.6219,986.2422 773.2313,986.2422 L778.3719,986.2422 Q778.9813,986.2422 779.2469,986.4766 Q779.5125,986.7109 779.5125,987.0859 Q779.5125,987.4766 779.2469,987.7109 Q778.9813,987.9453 778.3719,987.9453 L776.6531,987.9453 Z " fill="#000000"/><text fill="#000000" font-family="sans-serif" font-size="12" font-style="italic" lengthAdjust="spacing" textLength="62" x="800.3" y="986.9629">&#171;Interface&#187;</text><text fill="#000000" font-family="sans-serif" font-size="14" font-style="italic" lengthAdjust="spacing" textLength="82" x="790.3" y="1005.082">ICollaborator</text><line style="stroke:#181818;stroke-width:0.5;" x1="759" x2="877" y1="1013.5957" y2="1013.5957"/><line style="stroke:#181818;stroke-width:0.5;" x1="759" x2="877" y1="1021.5957" y2="1021.5957"/><text fill="#000000" font-family="sans-serif" font-size="14" lengthAdjust="spacing" textLength="74" x="764" y="1040.7031">+getName()</text><text fill="#000000" font-family="sans-serif" font-size="14" lengthAdjust="spacing" textLength="72" x="764" y="1059.3242">+getEmail()</text><text fill="#000000" font-family="sans-serif" font-size="14" lengthAdjust="spacing" textLength="108" x="764" y="1077.9453">+hasEmail(email)</text></g><!--class GreenSpaceManager--><g id="elem_GreenSpaceManager"><rect codeLine="95" fill="#F1F1F1" height="159.7266" id="GreenSpaceManager" rx="2.5" ry="2.5" style="stroke:#181818;stroke-width:0.5;" width="292" x="573" y="1164.0137"/><ellipse cx="646.75" cy="1180.0137" fill="#ADD1B2" rx="11" ry="11" style="stroke:#181818;stroke-width:1.0;"/><path d="M649.5156,1175.8887 Q649.6719,1175.6699 649.8594,1175.5605 Q650.0469,1175.4512 650.2656,1175.4512 Q650.6406,1175.4512 650.875,1175.7168 Q651.1094,1175.9668 651.1094,1176.5762 L651.1094,1178.0293 Q651.1094,1178.6387 650.875,1178.9043 Q650.6406,1179.1699 650.2656,1179.1699 Q649.9219,1179.1699 649.7188,1178.9668 Q649.5156,1178.7793 649.4063,1178.2637 Q649.3594,1177.9043 649.1719,1177.7168 Q648.8438,1177.3418 648.2344,1177.123 Q647.625,1176.9043 647,1176.9043 Q646.2344,1176.9043 645.5938,1177.2324 Q644.9688,1177.5605 644.4688,1178.3105 Q643.9844,1179.0605 643.9844,1180.0918 L643.9844,1181.1855 Q643.9844,1182.4199 644.875,1183.248 Q645.7656,1184.0605 647.3594,1184.0605 Q648.2969,1184.0605 648.9531,1183.8105 Q649.3438,1183.6543 649.7656,1183.2168 Q650.0313,1182.9512 650.1719,1182.873 Q650.3281,1182.7949 650.5313,1182.7949 Q650.8594,1182.7949 651.1094,1183.0605 Q651.375,1183.3105 651.375,1183.6543 Q651.375,1183.998 651.0313,1184.4043 Q650.5313,1184.9824 649.7344,1185.3105 Q648.6563,1185.7637 647.3594,1185.7637 Q645.8438,1185.7637 644.6406,1185.1387 Q643.6563,1184.6387 642.9688,1183.5762 Q642.2813,1182.498 642.2813,1181.2168 L642.2813,1180.0605 Q642.2813,1178.7324 642.8906,1177.5918 Q643.5156,1176.4355 644.6094,1175.8262 Q645.7031,1175.2012 646.9375,1175.2012 Q647.6719,1175.2012 648.3125,1175.373 Q648.9688,1175.5293 649.5156,1175.8887 Z " fill="#000000"/><text fill="#000000" font-family="sans-serif" font-size="14" lengthAdjust="spacing" textLength="136" x="667.25" y="1185.8105">GreenSpaceManager</text><line style="stroke:#181818;stroke-width:0.5;" x1="574" x2="864" y1="1196.0137" y2="1196.0137"/><text fill="#000000" font-family="sans-serif" font-size="14" lengthAdjust="spacing" textLength="81" x="579" y="1215.1211">-String name</text><text fill="#000000" font-family="sans-serif" font-size="14" lengthAdjust="spacing" textLength="111" x="579" y="1233.7422">-Date dateOfBirth</text><text fill="#000000" font-family="sans-serif" font-size="14" lengthAdjust="spacing" textLength="132" x="579" y="1252.3633">-Date admissionDate</text><text fill="#000000" font-family="sans-serif" font-size="14" lengthAdjust="spacing" textLength="79" x="579" y="1270.9844">-String email</text><text fill="#000000" font-family="sans-serif" font-size="14" lengthAdjust="spacing" textLength="78" x="579" y="1289.6055">-int taxpayer</text><line style="stroke:#181818;stroke-width:0.5;" x1="574" x2="864" y1="1297.1191" y2="1297.1191"/><text fill="#000000" font-family="sans-serif" font-size="14" lengthAdjust="spacing" textLength="280" x="579" y="1316.2266">+addListManagerGreenSpace(GreenSpace)</text></g><!--class Address--><g id="elem_Address"><rect codeLine="105" fill="#F1F1F1" height="122.4844" id="Address" rx="2.5" ry="2.5" style="stroke:#181818;stroke-width:0.5;" width="345" x="1426.5" y="1635.5137"/><ellipse cx="1568.75" cy="1651.5137" fill="#ADD1B2" rx="11" ry="11" style="stroke:#181818;stroke-width:1.0;"/><path d="M1571.5156,1647.3887 Q1571.6719,1647.1699 1571.8594,1647.0605 Q1572.0469,1646.9512 1572.2656,1646.9512 Q1572.6406,1646.9512 1572.875,1647.2168 Q1573.1094,1647.4668 1573.1094,1648.0762 L1573.1094,1649.5293 Q1573.1094,1650.1387 1572.875,1650.4043 Q1572.6406,1650.6699 1572.2656,1650.6699 Q1571.9219,1650.6699 1571.7188,1650.4668 Q1571.5156,1650.2793 1571.4063,1649.7637 Q1571.3594,1649.4043 1571.1719,1649.2168 Q1570.8438,1648.8418 1570.2344,1648.623 Q1569.625,1648.4043 1569,1648.4043 Q1568.2344,1648.4043 1567.5938,1648.7324 Q1566.9688,1649.0605 1566.4688,1649.8105 Q1565.9844,1650.5605 1565.9844,1651.5918 L1565.9844,1652.6855 Q1565.9844,1653.9199 1566.875,1654.748 Q1567.7656,1655.5605 1569.3594,1655.5605 Q1570.2969,1655.5605 1570.9531,1655.3105 Q1571.3438,1655.1543 1571.7656,1654.7168 Q1572.0313,1654.4512 1572.1719,1654.373 Q1572.3281,1654.2949 1572.5313,1654.2949 Q1572.8594,1654.2949 1573.1094,1654.5605 Q1573.375,1654.8105 1573.375,1655.1543 Q1573.375,1655.498 1573.0313,1655.9043 Q1572.5313,1656.4824 1571.7344,1656.8105 Q1570.6563,1657.2637 1569.3594,1657.2637 Q1567.8438,1657.2637 1566.6406,1656.6387 Q1565.6563,1656.1387 1564.9688,1655.0762 Q1564.2813,1653.998 1564.2813,1652.7168 L1564.2813,1651.5605 Q1564.2813,1650.2324 1564.8906,1649.0918 Q1565.5156,1647.9355 1566.6094,1647.3262 Q1567.7031,1646.7012 1568.9375,1646.7012 Q1569.6719,1646.7012 1570.3125,1646.873 Q1570.9688,1647.0293 1571.5156,1647.3887 Z " fill="#000000"/><text fill="#000000" font-family="sans-serif" font-size="14" lengthAdjust="spacing" textLength="52" x="1589.25" y="1657.3105">Address</text><line style="stroke:#181818;stroke-width:0.5;" x1="1427.5" x2="1770.5" y1="1667.5137" y2="1667.5137"/><text fill="#000000" font-family="sans-serif" font-size="14" lengthAdjust="spacing" textLength="118" x="1432.5" y="1686.6211">-String streetName</text><text fill="#000000" font-family="sans-serif" font-size="14" lengthAdjust="spacing" textLength="102" x="1432.5" y="1705.2422">-int doorNumber</text><line style="stroke:#181818;stroke-width:0.5;" x1="1427.5" x2="1770.5" y1="1712.7559" y2="1712.7559"/><text fill="#000000" font-family="sans-serif" font-size="14" lengthAdjust="spacing" textLength="333" x="1432.5" y="1731.8633">+Address(streetName, postCodeNumber,localization)</text><text fill="#000000" font-family="sans-serif" font-size="14" lengthAdjust="spacing" textLength="75" x="1432.5" y="1750.4844">-validation()</text></g><!--class PostCode--><g id="elem_PostCode"><rect codeLine="113" fill="#F1F1F1" height="122.4844" id="PostCode" rx="2.5" ry="2.5" style="stroke:#181818;stroke-width:0.5;" width="275" x="1863.5" y="1635.5137"/><ellipse cx="1965.75" cy="1651.5137" fill="#ADD1B2" rx="11" ry="11" style="stroke:#181818;stroke-width:1.0;"/><path d="M1968.5156,1647.3887 Q1968.6719,1647.1699 1968.8594,1647.0605 Q1969.0469,1646.9512 1969.2656,1646.9512 Q1969.6406,1646.9512 1969.875,1647.2168 Q1970.1094,1647.4668 1970.1094,1648.0762 L1970.1094,1649.5293 Q1970.1094,1650.1387 1969.875,1650.4043 Q1969.6406,1650.6699 1969.2656,1650.6699 Q1968.9219,1650.6699 1968.7188,1650.4668 Q1968.5156,1650.2793 1968.4063,1649.7637 Q1968.3594,1649.4043 1968.1719,1649.2168 Q1967.8438,1648.8418 1967.2344,1648.623 Q1966.625,1648.4043 1966,1648.4043 Q1965.2344,1648.4043 1964.5938,1648.7324 Q1963.9688,1649.0605 1963.4688,1649.8105 Q1962.9844,1650.5605 1962.9844,1651.5918 L1962.9844,1652.6855 Q1962.9844,1653.9199 1963.875,1654.748 Q1964.7656,1655.5605 1966.3594,1655.5605 Q1967.2969,1655.5605 1967.9531,1655.3105 Q1968.3438,1655.1543 1968.7656,1654.7168 Q1969.0313,1654.4512 1969.1719,1654.373 Q1969.3281,1654.2949 1969.5313,1654.2949 Q1969.8594,1654.2949 1970.1094,1654.5605 Q1970.375,1654.8105 1970.375,1655.1543 Q1970.375,1655.498 1970.0313,1655.9043 Q1969.5313,1656.4824 1968.7344,1656.8105 Q1967.6563,1657.2637 1966.3594,1657.2637 Q1964.8438,1657.2637 1963.6406,1656.6387 Q1962.6563,1656.1387 1961.9688,1655.0762 Q1961.2813,1653.998 1961.2813,1652.7168 L1961.2813,1651.5605 Q1961.2813,1650.2324 1961.8906,1649.0918 Q1962.5156,1647.9355 1963.6094,1647.3262 Q1964.7031,1646.7012 1965.9375,1646.7012 Q1966.6719,1646.7012 1967.3125,1646.873 Q1967.9688,1647.0293 1968.5156,1647.3887 Z " fill="#000000"/><text fill="#000000" font-family="sans-serif" font-size="14" lengthAdjust="spacing" textLength="62" x="1986.25" y="1657.3105">PostCode</text><line style="stroke:#181818;stroke-width:0.5;" x1="1864.5" x2="2137.5" y1="1667.5137" y2="1667.5137"/><text fill="#000000" font-family="sans-serif" font-size="14" lengthAdjust="spacing" textLength="156" x="1869.5" y="1686.6211">-String postCodeNumber</text><text fill="#000000" font-family="sans-serif" font-size="14" lengthAdjust="spacing" textLength="115" x="1869.5" y="1705.2422">-String localization</text><line style="stroke:#181818;stroke-width:0.5;" x1="1864.5" x2="2137.5" y1="1712.7559" y2="1712.7559"/><text fill="#000000" font-family="sans-serif" font-size="14" lengthAdjust="spacing" textLength="263" x="1869.5" y="1731.8633">+PostCode(postCodeNumber,localization)</text><text fill="#000000" font-family="sans-serif" font-size="14" lengthAdjust="spacing" textLength="75" x="1869.5" y="1750.4844">-validation()</text></g><!--class Repositories--><g id="elem_Repositories"><rect codeLine="123" fill="#F1F1F1" height="122.4844" id="Repositories" rx="2.5" ry="2.5" style="stroke:#181818;stroke-width:0.5;" width="198" x="1104" y="430.0137"/><ellipse cx="1159.25" cy="446.0137" fill="#ADD1B2" rx="11" ry="11" style="stroke:#181818;stroke-width:1.0;"/><path d="M1162.0156,441.8887 Q1162.1719,441.6699 1162.3594,441.5605 Q1162.5469,441.4512 1162.7656,441.4512 Q1163.1406,441.4512 1163.375,441.7168 Q1163.6094,441.9668 1163.6094,442.5762 L1163.6094,444.0293 Q1163.6094,444.6387 1163.375,444.9043 Q1163.1406,445.1699 1162.7656,445.1699 Q1162.4219,445.1699 1162.2188,444.9668 Q1162.0156,444.7793 1161.9063,444.2637 Q1161.8594,443.9043 1161.6719,443.7168 Q1161.3438,443.3418 1160.7344,443.123 Q1160.125,442.9043 1159.5,442.9043 Q1158.7344,442.9043 1158.0938,443.2324 Q1157.4688,443.5605 1156.9688,444.3105 Q1156.4844,445.0605 1156.4844,446.0918 L1156.4844,447.1855 Q1156.4844,448.4199 1157.375,449.248 Q1158.2656,450.0605 1159.8594,450.0605 Q1160.7969,450.0605 1161.4531,449.8105 Q1161.8438,449.6543 1162.2656,449.2168 Q1162.5313,448.9512 1162.6719,448.873 Q1162.8281,448.7949 1163.0313,448.7949 Q1163.3594,448.7949 1163.6094,449.0605 Q1163.875,449.3105 1163.875,449.6543 Q1163.875,449.998 1163.5313,450.4043 Q1163.0313,450.9824 1162.2344,451.3105 Q1161.1563,451.7637 1159.8594,451.7637 Q1158.3438,451.7637 1157.1406,451.1387 Q1156.1563,450.6387 1155.4688,449.5762 Q1154.7813,448.498 1154.7813,447.2168 L1154.7813,446.0605 Q1154.7813,444.7324 1155.3906,443.5918 Q1156.0156,442.4355 1157.1094,441.8262 Q1158.2031,441.2012 1159.4375,441.2012 Q1160.1719,441.2012 1160.8125,441.373 Q1161.4688,441.5293 1162.0156,441.8887 Z " fill="#000000"/><text fill="#000000" font-family="sans-serif" font-size="14" lengthAdjust="spacing" textLength="79" x="1179.75" y="451.8105">Repositories</text><line style="stroke:#181818;stroke-width:0.5;" x1="1105" x2="1301" y1="462.0137" y2="462.0137"/><line style="stroke:#181818;stroke-width:0.5;" x1="1105" x2="1301" y1="470.0137" y2="470.0137"/><text fill="#000000" font-family="sans-serif" font-size="14" lengthAdjust="spacing" textLength="94" x="1110" y="489.1211">-Repositories()</text><text fill="#000000" font-family="sans-serif" font-size="14" lengthAdjust="spacing" textLength="182" x="1110" y="507.7422">+getInstance() : Repositories</text><text fill="#000000" font-family="sans-serif" font-size="14" lengthAdjust="spacing" textLength="186" x="1110" y="526.3633">+getGreenSpaceRepository()</text><text fill="#000000" font-family="sans-serif" font-size="14" lengthAdjust="spacing" textLength="184" x="1110" y="544.9844">+getCollaboratorRepository()</text></g><!--class CollaboratorRepository--><g id="elem_CollaboratorRepository"><rect codeLine="131" fill="#F1F1F1" height="66.6211" id="CollaboratorRepository" rx="2.5" ry="2.5" style="stroke:#181818;stroke-width:0.5;" width="211" x="712.5" y="779.5137"/><ellipse cx="742.35" cy="795.5137" fill="#ADD1B2" rx="11" ry="11" style="stroke:#181818;stroke-width:1.0;"/><path d="M745.1156,791.3887 Q745.2719,791.1699 745.4594,791.0605 Q745.6469,790.9512 745.8656,790.9512 Q746.2406,790.9512 746.475,791.2168 Q746.7094,791.4668 746.7094,792.0762 L746.7094,793.5293 Q746.7094,794.1387 746.475,794.4043 Q746.2406,794.6699 745.8656,794.6699 Q745.5219,794.6699 745.3188,794.4668 Q745.1156,794.2793 745.0063,793.7637 Q744.9594,793.4043 744.7719,793.2168 Q744.4438,792.8418 743.8344,792.623 Q743.225,792.4043 742.6,792.4043 Q741.8344,792.4043 741.1938,792.7324 Q740.5688,793.0605 740.0688,793.8105 Q739.5844,794.5605 739.5844,795.5918 L739.5844,796.6855 Q739.5844,797.9199 740.475,798.748 Q741.3656,799.5605 742.9594,799.5605 Q743.8969,799.5605 744.5531,799.3105 Q744.9438,799.1543 745.3656,798.7168 Q745.6313,798.4512 745.7719,798.373 Q745.9281,798.2949 746.1313,798.2949 Q746.4594,798.2949 746.7094,798.5605 Q746.975,798.8105 746.975,799.1543 Q746.975,799.498 746.6313,799.9043 Q746.1313,800.4824 745.3344,800.8105 Q744.2563,801.2637 742.9594,801.2637 Q741.4438,801.2637 740.2406,800.6387 Q739.2563,800.1387 738.5688,799.0762 Q737.8813,797.998 737.8813,796.7168 L737.8813,795.5605 Q737.8813,794.2324 738.4906,793.0918 Q739.1156,791.9355 740.2094,791.3262 Q741.3031,790.7012 742.5375,790.7012 Q743.2719,790.7012 743.9125,790.873 Q744.5688,791.0293 745.1156,791.3887 Z " fill="#000000"/><text fill="#000000" font-family="sans-serif" font-size="14" lengthAdjust="spacing" textLength="146" x="759.65" y="801.3105">CollaboratorRepository</text><line style="stroke:#181818;stroke-width:0.5;" x1="713.5" x2="922.5" y1="811.5137" y2="811.5137"/><line style="stroke:#181818;stroke-width:0.5;" x1="713.5" x2="922.5" y1="819.5137" y2="819.5137"/><text fill="#000000" font-family="sans-serif" font-size="14" lengthAdjust="spacing" textLength="199" x="718.5" y="838.6211">+getCollaboratorByEmail(email)</text></g><!--class GreenSpaceRepository--><g id="elem_GreenSpaceRepository"><rect codeLine="135" fill="#F1F1F1" height="103.8633" id="GreenSpaceRepository" rx="2.5" ry="2.5" style="stroke:#181818;stroke-width:0.5;" width="489" x="958.5" y="761.0137"/><ellipse cx="1124.75" cy="777.0137" fill="#ADD1B2" rx="11" ry="11" style="stroke:#181818;stroke-width:1.0;"/><path d="M1127.5156,772.8887 Q1127.6719,772.6699 1127.8594,772.5605 Q1128.0469,772.4512 1128.2656,772.4512 Q1128.6406,772.4512 1128.875,772.7168 Q1129.1094,772.9668 1129.1094,773.5762 L1129.1094,775.0293 Q1129.1094,775.6387 1128.875,775.9043 Q1128.6406,776.1699 1128.2656,776.1699 Q1127.9219,776.1699 1127.7188,775.9668 Q1127.5156,775.7793 1127.4063,775.2637 Q1127.3594,774.9043 1127.1719,774.7168 Q1126.8438,774.3418 1126.2344,774.123 Q1125.625,773.9043 1125,773.9043 Q1124.2344,773.9043 1123.5938,774.2324 Q1122.9688,774.5605 1122.4688,775.3105 Q1121.9844,776.0605 1121.9844,777.0918 L1121.9844,778.1855 Q1121.9844,779.4199 1122.875,780.248 Q1123.7656,781.0605 1125.3594,781.0605 Q1126.2969,781.0605 1126.9531,780.8105 Q1127.3438,780.6543 1127.7656,780.2168 Q1128.0313,779.9512 1128.1719,779.873 Q1128.3281,779.7949 1128.5313,779.7949 Q1128.8594,779.7949 1129.1094,780.0605 Q1129.375,780.3105 1129.375,780.6543 Q1129.375,780.998 1129.0313,781.4043 Q1128.5313,781.9824 1127.7344,782.3105 Q1126.6563,782.7637 1125.3594,782.7637 Q1123.8438,782.7637 1122.6406,782.1387 Q1121.6563,781.6387 1120.9688,780.5762 Q1120.2813,779.498 1120.2813,778.2168 L1120.2813,777.0605 Q1120.2813,775.7324 1120.8906,774.5918 Q1121.5156,773.4355 1122.6094,772.8262 Q1123.7031,772.2012 1124.9375,772.2012 Q1125.6719,772.2012 1126.3125,772.373 Q1126.9688,772.5293 1127.5156,772.8887 Z " fill="#000000"/><text fill="#000000" font-family="sans-serif" font-size="14" lengthAdjust="spacing" textLength="148" x="1145.25" y="782.8105">GreenSpaceRepository</text><line style="stroke:#181818;stroke-width:0.5;" x1="959.5" x2="1446.5" y1="793.0137" y2="793.0137"/><line style="stroke:#181818;stroke-width:0.5;" x1="959.5" x2="1446.5" y1="801.0137" y2="801.0137"/><text fill="#000000" font-family="sans-serif" font-size="14" lengthAdjust="spacing" textLength="196" x="964.5" y="820.1211">-addGreenSpace(greenSpace)</text><text fill="#000000" font-family="sans-serif" font-size="14" lengthAdjust="spacing" textLength="197" x="964.5" y="838.7422">-validationAllData(greenSpace)</text><text fill="#000000" font-family="sans-serif" font-size="14" lengthAdjust="spacing" textLength="477" x="964.5" y="857.3633">+registerGreenSpace(name,area,streetName,postCodeNumber,localization)</text></g><!--reverse link GreenSpace to Garden--><g id="link_GreenSpace_Garden"><path d="M837.2606,1533.4204 C819.1506,1557.0504 808.57,1570.8437 788.08,1597.5737 " fill="none" id="GreenSpace-backto-Garden" style="stroke:#181818;stroke-width:1.0;stroke-dasharray:7.0,7.0;"/><polygon fill="none" points="848.21,1519.1337,832.4984,1529.7706,842.0229,1537.0702,848.21,1519.1337" style="stroke:#181818;stroke-width:1.0;"/></g><!--reverse link GreenSpace to MediumPark--><g id="link_GreenSpace_MediumPark"><path d="M961.6305,1524.5626 C992.0205,1551.8626 1010,1568.0137 1010,1568.0137 C1010,1568.0137 1026.02,1580.6237 1047.98,1597.9037 " fill="none" id="GreenSpace-backto-MediumPark" style="stroke:#181818;stroke-width:1.0;stroke-dasharray:7.0,7.0;"/><polygon fill="none" points="948.24,1512.5337,957.6208,1529.0261,965.6401,1520.0991,948.24,1512.5337" style="stroke:#181818;stroke-width:1.0;"/></g><!--reverse link GreenSpace to LargePark--><g id="link_GreenSpace_LargePark"><path d="M818.6663,1487.3502 C770.8663,1503.8602 727,1519.0137 727,1519.0137 C727,1519.0137 491,1598.0137 491,1598.0137 C491,1598.0137 484.48,1600.7637 473.64,1605.3437 " fill="none" id="GreenSpace-backto-LargePark" style="stroke:#181818;stroke-width:1.0;stroke-dasharray:7.0,7.0;"/><polygon fill="none" points="835.68,1481.4737,816.7074,1481.6789,820.6251,1493.0214,835.68,1481.4737" style="stroke:#181818;stroke-width:1.0;"/></g><!--reverse link ICollaborator to GreenSpaceManager--><g id="link_ICollaborator_GreenSpaceManager"><path d="M784.2046,1101.4151 C773.0946,1125.5551 767.48,1137.7237 755.46,1163.8437 " fill="none" id="ICollaborator-backto-GreenSpaceManager" style="stroke:#181818;stroke-width:1.0;stroke-dasharray:7.0,7.0;"/><polygon fill="none" points="791.73,1085.0637,778.7541,1098.9066,789.655,1103.9235,791.73,1085.0637" style="stroke:#181818;stroke-width:1.0;"/></g><!--link Repositories to Repositories--><g id="link_Repositories_Repositories"><path codeLine="144" d="M1302.05,472.9537 C1322.4,474.8837 1337,480.9037 1337,491.0137 C1337,501.1237 1328.3732,506.5772 1308.0232,508.5072 " fill="none" id="Repositories-to-Repositories" style="stroke:#181818;stroke-width:1.0;"/><polygon fill="#181818" points="1302.05,509.0737,1311.3875,512.2061,1307.0277,508.6016,1310.6321,504.2418,1302.05,509.0737" style="stroke:#181818;stroke-width:1.0;"/><text fill="#000000" font-family="sans-serif" font-size="13" lengthAdjust="spacing" textLength="49" x="1343" y="496.542">instance</text></g><!--link ApplicationSession to ApplicationSession--><g id="link_ApplicationSession_ApplicationSession"><path codeLine="145" d="M1655.66,472.4437 C1675.5,473.5437 1690.5,479.7337 1690.5,491.0137 C1690.5,502.2937 1681.4908,508.1515 1661.6508,509.2515 " fill="none" id="ApplicationSession-to-ApplicationSession" style="stroke:#181818;stroke-width:1.0;"/><polygon fill="#181818" points="1655.66,509.5837,1664.8676,513.0793,1660.6523,509.3069,1664.4248,505.0916,1655.66,509.5837" style="stroke:#181818;stroke-width:1.0;"/><text fill="#000000" font-family="sans-serif" font-size="13" lengthAdjust="spacing" textLength="49" x="1696.5" y="496.542">instance</text></g><!--link RegisterGreenSpaceUI to RegisterGreenSpaceController--><g id="link_RegisterGreenSpaceUI_RegisterGreenSpaceController"><path codeLine="148" d="M1391,91.2837 C1391,113.6437 1391,142.1837 1391,170.9537 " fill="none" id="RegisterGreenSpaceUI-to-RegisterGreenSpaceController" style="stroke:#181818;stroke-width:1.0;stroke-dasharray:7.0,7.0;"/><polygon fill="#181818" points="1391,176.9537,1395,167.9537,1391,171.9537,1387,167.9537,1391,176.9537" style="stroke:#181818;stroke-width:1.0;"/></g><!--link RegisterGreenSpaceController to Repositories--><g id="link_RegisterGreenSpaceController_Repositories"><path codeLine="151" d="M1354.08,281.0737 C1323.18,323.8137 1282.5459,380.0118 1249.9459,425.0918 " fill="none" id="RegisterGreenSpaceController-to-Repositories" style="stroke:#181818;stroke-width:1.0;stroke-dasharray:7.0,7.0;"/><polygon fill="#181818" points="1246.43,429.9537,1254.9452,425.0048,1249.3599,425.9021,1248.4626,420.3168,1246.43,429.9537" style="stroke:#181818;stroke-width:1.0;"/><text fill="#000000" font-family="sans-serif" font-size="13" lengthAdjust="spacing" textLength="67" x="1331" y="328.042">repositories</text></g><!--link RegisterGreenSpaceController to ApplicationSession--><g id="link_RegisterGreenSpaceController_ApplicationSession"><path codeLine="152" d="M1428.11,281.0737 C1463.7,330.0237 1513.2219,398.1506 1546.2919,443.6406 " fill="none" id="RegisterGreenSpaceController-to-ApplicationSession" style="stroke:#181818;stroke-width:1.0;stroke-dasharray:7.0,7.0;"/><polygon fill="#181818" points="1549.82,448.4937,1547.7633,438.862,1546.8799,444.4494,1541.2925,443.5661,1549.82,448.4937" style="stroke:#181818;stroke-width:1.0;"/></g><!--link RegisterGreenSpaceController to UserSession--><g id="link_RegisterGreenSpaceController_UserSession"><path codeLine="153" d="M1130.23,271.2837 C933.02,302.5037 696,340.0137 696,340.0137 C696,340.0137 696,552.0137 696,552.0137 C696,552.0137 1464,631.0137 1464,631.0137 C1464,631.0137 1482.3336,636.6348 1507.5436,644.3648 " fill="none" id="RegisterGreenSpaceController-to-UserSession" style="stroke:#181818;stroke-width:1.0;stroke-dasharray:7.0,7.0;"/><polygon fill="#181818" points="1513.28,646.1237,1505.848,639.661,1508.4997,644.6579,1503.5028,647.3096,1513.28,646.1237" style="stroke:#181818;stroke-width:1.0;"/></g><!--link RegisterGreenSpaceController to GreenSpaceRepository--><g id="link_RegisterGreenSpaceController_GreenSpaceRepository"><path codeLine="154" d="M1651.06,281.0437 C1738.37,298.1737 1814,313.0137 1814,313.0137 C1814,313.0137 1814,731.0137 1814,731.0137 C1814,731.0137 1623.5879,756.2551 1453.5079,778.8051 " fill="none" id="RegisterGreenSpaceController-to-GreenSpaceRepository" style="stroke:#181818;stroke-width:1.0;stroke-dasharray:7.0,7.0;"/><polygon fill="#181818" points="1447.56,779.5937,1457.0077,782.3761,1452.5166,778.9365,1455.9562,774.4455,1447.56,779.5937" style="stroke:#181818;stroke-width:1.0;"/></g><!--link RegisterGreenSpaceController to GreenSpaceManager--><g id="link_RegisterGreenSpaceController_GreenSpaceManager"><path codeLine="155" d="M1130.03,263.2337 C948.53,286.3437 739,313.0137 739,313.0137 C739,313.0137 688,340.0137 688,340.0137 C688,340.0137 591,490.0137 591,490.0137 C591,490.0137 591,490.0137 591,1028.0137 C591,1028.0137 632.3213,1097.4078 668.8113,1158.7178 " fill="none" id="RegisterGreenSpaceController-to-GreenSpaceManager" style="stroke:#181818;stroke-width:1.0;stroke-dasharray:7.0,7.0;"/><polygon fill="#181818" points="671.88,1163.8737,670.7143,1154.094,669.3228,1159.5771,663.8398,1158.1856,671.88,1163.8737" style="stroke:#181818;stroke-width:1.0;"/></g><!--link RegisterGreenSpaceController to CollaboratorRepository--><g id="link_RegisterGreenSpaceController_CollaboratorRepository"><path codeLine="156" d="M1558.09,281.0737 C1652.18,309.8237 1751,340.0137 1751,340.0137 C1751,340.0137 1751,722.0137 1751,722.0137 C1751,722.0137 941,761.0137 941,761.0137 C941,761.0137 926.243,767.1369 902.133,777.1269 " fill="none" id="RegisterGreenSpaceController-to-CollaboratorRepository" style="stroke:#181818;stroke-width:1.0;stroke-dasharray:7.0,7.0;"/><polygon fill="#181818" points="896.59,779.4237,906.4357,779.6739,901.2092,777.5097,903.3733,772.2832,896.59,779.4237" style="stroke:#181818;stroke-width:1.0;"/></g><!--link RegisterGreenSpaceController to GreenSpace--><g id="link_RegisterGreenSpaceController_GreenSpace"><path codeLine="157" d="M1130.23,261.1537 C933.02,284.7037 696,313.0137 696,313.0137 C696,313.0137 583,340.0137 583,340.0137 C583,340.0137 520,490.0137 520,490.0137 C520,490.0137 520,490.0137 520,1245.0137 C520,1245.0137 556,1324.0137 556,1324.0137 C556,1324.0137 634,1373.0137 634,1373.0137 C634,1373.0137 727,1403.0137 727,1403.0137 C727,1403.0137 782.2088,1422.0848 830.0088,1438.5948 " fill="none" id="RegisterGreenSpaceController-to-GreenSpace" style="stroke:#181818;stroke-width:1.0;stroke-dasharray:7.0,7.0;"/><polygon fill="#181818" points="835.68,1440.5537,828.479,1433.8346,830.954,1438.9213,825.8673,1441.3963,835.68,1440.5537" style="stroke:#181818;stroke-width:1.0;"/></g><!--link RegisterGreenSpaceController to Address--><g id="link_RegisterGreenSpaceController_Address"><path codeLine="158" d="M1651.54,278.1737 C1750.57,296.4837 1840,313.0137 1840,313.0137 C1840,313.0137 1930,490.0137 1930,490.0137 C1930,490.0137 1930,490.0137 1930,1462.0137 C1930,1462.0137 1787.2127,1562.7348 1689.1427,1631.9248 " fill="none" id="RegisterGreenSpaceController-to-Address" style="stroke:#181818;stroke-width:1.0;stroke-dasharray:7.0,7.0;"/><polygon fill="#181818" points="1684.24,1635.3837,1693.8999,1633.4638,1688.3255,1632.5013,1689.288,1626.9269,1684.24,1635.3837" style="stroke:#181818;stroke-width:1.0;"/></g><!--link RegisterGreenSpaceController to PostCode--><g id="link_RegisterGreenSpaceController_PostCode"><path codeLine="159" d="M1651.53,275.1537 C1763.87,294.6237 1870,313.0137 1870,313.0137 C1870,313.0137 1918,340.0137 1918,340.0137 C1918,340.0137 2001,490.0137 2001,490.0137 C2001,490.0137 2001,490.0137 2001,1462.0137 C2001,1462.0137 2001,1560.1937 2001,1629.3837 " fill="none" id="RegisterGreenSpaceController-to-PostCode" style="stroke:#181818;stroke-width:1.0;stroke-dasharray:7.0,7.0;"/><polygon fill="#181818" points="2001,1635.3837,2005,1626.3837,2001,1630.3837,1997,1626.3837,2001,1635.3837" style="stroke:#181818;stroke-width:1.0;"/></g><!--link RegisterGreenSpaceController to GreenSpaces--><g id="link_RegisterGreenSpaceController_GreenSpaces"><path codeLine="160" d="M1130.46,257.7337 C903.67,281.8737 611,313.0137 611,313.0137 C611,313.0137 512,340.0137 512,340.0137 C512,340.0137 449,490.0137 449,490.0137 C449,490.0137 449,490.0137 449,1245.0137 C449,1245.0137 494,1324.0137 494,1324.0137 C494,1324.0137 534.7034,1382.2854 562.8134,1422.5154 " fill="none" id="RegisterGreenSpaceController-to-GreenSpaces" style="stroke:#181818;stroke-width:1.0;stroke-dasharray:7.0,7.0;"/><polygon fill="#181818" points="566.25,1427.4337,564.374,1417.7651,563.3862,1423.3351,557.8162,1422.3473,566.25,1427.4337" style="stroke:#181818;stroke-width:1.0;"/></g><!--link ApplicationSession to UserSession--><g id="link_ApplicationSession_UserSession"><path codeLine="163" d="M1577.58,533.5337 C1575.83,563.4637 1573.8588,597.3238 1572.2488,624.9738 " fill="none" id="ApplicationSession-to-UserSession" style="stroke:#181818;stroke-width:1.0;"/><polygon fill="#181818" points="1571.9,630.9637,1576.4164,622.2114,1572.1906,625.9721,1568.4299,621.7464,1571.9,630.9637" style="stroke:#181818;stroke-width:1.0;"/><text fill="#000000" font-family="sans-serif" font-size="13" lengthAdjust="spacing" textLength="72" x="1575" y="597.042">userSession</text><text fill="#000000" font-family="sans-serif" font-size="13" lengthAdjust="spacing" textLength="7" x="1564.585" y="619.7793">1</text></g><!--link Repositories to GreenSpaceRepository--><g id="link_Repositories_GreenSpaceRepository"><path codeLine="166" d="M1203,552.2037 C1203,612.4037 1203,697.9837 1203,754.8037 " fill="none" id="Repositories-to-GreenSpaceRepository" style="stroke:#181818;stroke-width:1.0;"/><polygon fill="#181818" points="1203,760.8037,1207,751.8037,1203,755.8037,1199,751.8037,1203,760.8037" style="stroke:#181818;stroke-width:1.0;"/><text fill="#000000" font-family="sans-serif" font-size="13" lengthAdjust="spacing" textLength="134" x="1204" y="670.042">GreenSpaceRepository</text><text fill="#000000" font-family="sans-serif" font-size="13" lengthAdjust="spacing" textLength="7" x="1195.5297" y="749.7028">1</text></g><!--link Repositories to CollaboratorRepository--><g id="link_Repositories_CollaboratorRepository"><path codeLine="167" d="M1130.58,552.2037 C1049.55,619.5537 925.8742,722.3484 861.7742,775.6284 " fill="none" id="Repositories-to-CollaboratorRepository" style="stroke:#181818;stroke-width:1.0;"/><polygon fill="#181818" points="857.16,779.4637,866.6381,776.7868,861.0051,776.2676,861.5244,770.6346,857.16,779.4637" style="stroke:#181818;stroke-width:1.0;"/><text fill="#000000" font-family="sans-serif" font-size="13" lengthAdjust="spacing" textLength="131" x="1035" y="670.042">CollaboratorRepository</text><text fill="#000000" font-family="sans-serif" font-size="13" lengthAdjust="spacing" textLength="7" x="857.1806" y="768.2793">1</text></g><!--link CollaboratorRepository to ICollaborator--><g id="link_CollaboratorRepository_ICollaborator"><path codeLine="170" d="M818,846.6737 C818,879.1937 818,923.7837 818,962.9537 " fill="none" id="CollaboratorRepository-to-ICollaborator" style="stroke:#181818;stroke-width:1.0;"/><polygon fill="#181818" points="818,968.9537,822,959.9537,818,963.9537,814,959.9537,818,968.9537" style="stroke:#181818;stroke-width:1.0;"/><text fill="#000000" font-family="sans-serif" font-size="13" lengthAdjust="spacing" textLength="88" x="819" y="912.042">collaboratorList</text><text fill="#000000" font-family="sans-serif" font-size="13" lengthAdjust="spacing" textLength="7" x="810.3766" y="868.2714">1</text><text fill="#000000" font-family="sans-serif" font-size="13" lengthAdjust="spacing" textLength="5" x="812.6953" y="957.8606">*</text></g><!--link GreenSpaceRepository to GreenSpace--><g id="link_GreenSpaceRepository_GreenSpace"><path codeLine="173" d="M1201.45,865.1037 C1197.25,1003.1037 1186,1373.0137 1186,1373.0137 C1186,1373.0137 1039.4634,1416.3813 954.0934,1441.6413 " fill="none" id="GreenSpaceRepository-to-GreenSpace" style="stroke:#181818;stroke-width:1.0;"/><polygon fill="#181818" points="948.34,1443.3437,958.1051,1444.6257,953.1345,1441.925,955.8352,1436.9545,948.34,1443.3437" style="stroke:#181818;stroke-width:1.0;"/><text fill="#000000" font-family="sans-serif" font-size="13" lengthAdjust="spacing" textLength="90" x="1194" y="1130.042">greenSpaceList</text><text fill="#000000" font-family="sans-serif" font-size="13" lengthAdjust="spacing" textLength="7" x="1193.803" y="886.9225">1</text><text fill="#000000" font-family="sans-serif" font-size="13" lengthAdjust="spacing" textLength="5" x="955.8789" y="1437.0091">*</text></g><!--link GreenSpaceManager to GreenSpaces--><g id="link_GreenSpaceManager_GreenSpaces"><path codeLine="176" d="M671.15,1324.1537 C649.57,1359.8337 628.3835,1394.8687 611.8535,1422.2187 " fill="none" id="GreenSpaceManager-to-GreenSpaces" style="stroke:#181818;stroke-width:1.0;"/><polygon fill="#181818" points="608.75,1427.3537,616.8286,1421.7202,611.3363,1423.0745,609.982,1417.5822,608.75,1427.3537" style="stroke:#181818;stroke-width:1.0;"/><text fill="#000000" font-family="sans-serif" font-size="13" lengthAdjust="spacing" textLength="76" x="651" y="1369.042">greenSpaces</text><text fill="#000000" font-family="sans-serif" font-size="13" lengthAdjust="spacing" textLength="7" x="659.7371" y="1345.8237">1</text><text fill="#000000" font-family="sans-serif" font-size="13" lengthAdjust="spacing" textLength="7" x="604.9492" y="1416.1477">1</text></g><!--link GreenSpaces to GreenSpace--><g id="link_GreenSpaces_GreenSpace"><path codeLine="179" d="M709.19,1461.0137 C752.97,1461.0137 794.41,1461.0137 829.98,1461.0137 " fill="none" id="GreenSpaces-to-GreenSpace" style="stroke:#181818;stroke-width:1.0;"/><polygon fill="#181818" points="835.98,1461.0137,826.98,1457.0137,830.98,1461.0137,826.98,1465.0137,835.98,1461.0137" style="stroke:#181818;stroke-width:1.0;"/><text fill="#000000" font-family="sans-serif" font-size="13" lengthAdjust="spacing" textLength="90" x="727.5" y="1454.042">greenSpaceList</text><text fill="#000000" font-family="sans-serif" font-size="13" lengthAdjust="spacing" textLength="7" x="717.1139" y="1457.5189">1</text><text fill="#000000" font-family="sans-serif" font-size="13" lengthAdjust="spacing" textLength="5" x="823.1164" y="1456.8894">*</text></g><!--reverse link GreenSpace to Address--><g id="link_GreenSpace_Address"><path codeLine="180" d="M958.4601,1500.7219 C1011.9401,1531.8619 1074,1568.0137 1074,1568.0137 C1074,1568.0137 1409,1598.0137 1409,1598.0137 C1409,1598.0137 1442.82,1615.3637 1481.92,1635.4337 " fill="none" id="GreenSpace-backto-Address" style="stroke:#181818;stroke-width:1.0;"/><polygon fill="#181818" points="948.09,1494.6837,951.2623,1501.1595,958.4601,1500.7219,955.2878,1494.2461,948.09,1494.6837" style="stroke:#181818;stroke-width:1.0;"/><text fill="#000000" font-family="sans-serif" font-size="13" lengthAdjust="spacing" textLength="46" x="1075" y="1564.042">address</text><text fill="#000000" font-family="sans-serif" font-size="13" lengthAdjust="spacing" textLength="7" x="956.0974" y="1495.0838">1</text><text fill="#000000" font-family="sans-serif" font-size="13" lengthAdjust="spacing" textLength="7" x="1460.9779" y="1624.4056">1</text></g><!--reverse link Address to PostCode--><g id="link_Address_PostCode"><path codeLine="183" d="M1783.53,1696.5137 C1814.19,1696.5137 1833.76,1696.5137 1863.3,1696.5137 " fill="none" id="Address-backto-PostCode" style="stroke:#181818;stroke-width:1.0;"/><polygon fill="#181818" points="1771.53,1696.5137,1777.53,1700.5137,1783.53,1696.5137,1777.53,1692.5137,1771.53,1696.5137" style="stroke:#181818;stroke-width:1.0;"/><text fill="#000000" font-family="sans-serif" font-size="13" lengthAdjust="spacing" textLength="55" x="1790" y="1689.542">postCode</text><text fill="#000000" font-family="sans-serif" font-size="13" lengthAdjust="spacing" textLength="20" x="1779.2305" y="1710.8965">1..*</text><text fill="#000000" font-family="sans-serif" font-size="13" lengthAdjust="spacing" textLength="7" x="1848.5781" y="1693.0719">1</text></g><!--reverse link ICollaborator to Address--><g id="link_ICollaborator_Address"><path codeLine="184" d="M887.4322,1087.3602 C1029.7422,1208.9902 1376.76,1505.5737 1528.62,1635.3637 " fill="none" id="ICollaborator-backto-Address" style="stroke:#181818;stroke-width:1.0;"/><polygon fill="#181818" points="878.31,1079.5637,880.2722,1086.5027,887.4322,1087.3602,885.4699,1080.4212,878.31,1079.5637" style="stroke:#181818;stroke-width:1.0;"/><text fill="#000000" font-family="sans-serif" font-size="13" lengthAdjust="spacing" textLength="46" x="1218" y="1369.042">address</text><text fill="#000000" font-family="sans-serif" font-size="13" lengthAdjust="spacing" textLength="20" x="886.0002" y="1081.4015">1..*</text><text fill="#000000" font-family="sans-serif" font-size="13" lengthAdjust="spacing" textLength="7" x="1513.0776" y="1624.3275">1</text></g><!--SRC=[rLZRRjiu47tNLn1-YPFQHljg50RIT6iOQBf5ZNm08qri8XGfa7HttIB_laFhHj4ZsKwx2wmUaaXpEDSper6kxBDG1JSyPxbMEjqQdGDpPWT9Aobu-imti7Px2Sn0whZQo11WjppJVmcrOKzSsb0YXGAtBu0LMkxzJN952BLnEWbEfP9RU-kS4Oyx1wjKgxNu0Unjabn9U7BCQMR4PkjO9hmxGgkayf6D7bOZzlxz9oqpC8i5-vaml0uAsJVO2El0B0s0MkC9U5XLW9Va9Mbrt6dbZ9OIp0MwsaCLq5zl1e7ZJVFm6nJQ2gVDVi9I5F97RJZUji-l0wNcIEdO9tAYU0uJRe1Fh4EH- -BlKO6xqnbysUMFO2PIfroA7zodhTKvPHjmo_Nz9oJ06gn5uVWwQNBJfEQZphbGKLeEi0WokoqAATA36IABRIO3N6Mu0RJGCcph49PwJrSA_rOOzdK4GTdTpXXGhesYbhuaaUa72-QKJLJeONzWJBAZAz0OXtwFsPOzGGk5TNl2Yh6sU8XSrOyNYv_9iGk-a5IijrXhydcM6GoiBY4PVMlVna7pBFkC10iG0LK74hha9WF5H5v8oB46eP6kZIbROtlZnF2KZIIO8kP973skOegpKzeSlvxwlo79NKU_ev7iO2Jepu6itKCcTlbNRfx_sypzjf3V127yOY4kpzvdRZRmlqvU4y6_bJigUUqSMjq5xvju59qTT3mWIy6Msr80_kTvq-YUAnoc9YndnyNpA_gHEs2O3_ZpwOCmRak9UPQBmnl0tz6Q3xuJP77yxuBlmT33imeZACGo6A7zYQXOmdh2R8b1U9HfRKgQn7IjkHVmYhsAM4Ej-BLIsEDwrnwD2Ps8OwZLZt_TyO6NTxjn3Quj3Ko0PT4hUzgHKjtIxYzitW4VGvV4ZaYkFUJME5Gk-WIr0ON83_jEHv_HqBswfxvNWWQXTeouZBTIOgVoNYov7Bz-hZPKUKckfiTNNKT2b7GOCbrq6JF7VYsF9iSBi4SJJuCpf3CFAzeDugjdDbiCVfdG1bhvUOQ2JwBIO2S19gJzoSF4PyA9CtWeNF1Feod6NdIi6lbddA5Rxo9ZPu3hrUKqiXwj5tbWQPOSLufY2yLwfFtetIYi6j9a5zIGj1VIwdGVraR8yJJlum2beMTyplkAszDI59OAeyUSzwJCtCqeMkNcdVya-9s4ze6AcVA0J9ctNviFlcZdh1tG9oopyaJLFCE6wzsmiTgffEsOjQUY7JPbIoDnP4U11K7x0pVJmwzwYvlxLrpv_K3sIYaa6wJIC7etczqqUkj6HSNr-olfLht1uzNdoZy0]--></g></svg>