<?xml version="1.0" encoding="us-ascii" standalone="no"?><svg xmlns="http://www.w3.org/2000/svg" xmlns:xlink="http://www.w3.org/1999/xlink" contentStyleType="text/css" height="1475px" preserveAspectRatio="none" style="width:2021px;height:1475px;background:#FFFFFF;" version="1.1" viewBox="0 0 2021 1475" width="2021px" zoomAndPan="magnify"><defs/><g><!--cluster UI--><g id="cluster_UI"><path d="M1295.5,6.0137 L1310.5,6.0137 A3.75,3.75 0 0 1 1313,8.5137 L1320,30.6348 L1500.5,30.6348 A2.5,2.5 0 0 1 1503,33.1348 L1503,104.5137 A2.5,2.5 0 0 1 1500.5,107.0137 L1295.5,107.0137 A2.5,2.5 0 0 1 1293,104.5137 L1293,8.5137 A2.5,2.5 0 0 1 1295.5,6.0137 " fill="none" style="stroke:#000000;stroke-width:1.5;"/><line style="stroke:#000000;stroke-width:1.5;" x1="1293" x2="1320" y1="30.6348" y2="30.6348"/><text fill="#000000" font-family="sans-serif" font-size="14" font-weight="bold" lengthAdjust="spacing" textLength="14" x="1297" y="23.1211">UI</text></g><!--cluster Controller--><g id="cluster_Controller"><path d="M1120.5,140.0137 L1192.5,140.0137 A3.75,3.75 0 0 1 1195,142.5137 L1202,164.6348 L1675.5,164.6348 A2.5,2.5 0 0 1 1678,167.1348 L1678,294.5137 A2.5,2.5 0 0 1 1675.5,297.0137 L1120.5,297.0137 A2.5,2.5 0 0 1 1118,294.5137 L1118,142.5137 A2.5,2.5 0 0 1 1120.5,140.0137 " fill="none" style="stroke:#000000;stroke-width:1.5;"/><line style="stroke:#000000;stroke-width:1.5;" x1="1118" x2="1202" y1="164.6348" y2="164.6348"/><text fill="#000000" font-family="sans-serif" font-size="14" font-weight="bold" lengthAdjust="spacing" textLength="71" x="1122" y="157.1211">Controller</text></g><!--cluster Domain--><g id="cluster_Domain"><path d="M8.5,410.0137 L61.5,410.0137 A3.75,3.75 0 0 1 64,412.5137 L71,434.6348 L1927.5,434.6348 A2.5,2.5 0 0 1 1930,437.1348 L1930,1465.5137 A2.5,2.5 0 0 1 1927.5,1468.0137 L8.5,1468.0137 A2.5,2.5 0 0 1 6,1465.5137 L6,412.5137 A2.5,2.5 0 0 1 8.5,410.0137 " fill="none" style="stroke:#000000;stroke-width:1.5;"/><line style="stroke:#000000;stroke-width:1.5;" x1="6" x2="71" y1="434.6348" y2="434.6348"/><text fill="#000000" font-family="sans-serif" font-size="14" font-weight="bold" lengthAdjust="spacing" textLength="52" x="10" y="427.1211">Domain</text></g><!--cluster Application--><g id="cluster_Application"><path d="M1643.5,473.5137 L1722.5,473.5137 A3.75,3.75 0 0 1 1725,476.0137 L1732,498.1348 L1903.5,498.1348 A2.5,2.5 0 0 1 1906,500.6348 L1906,889.5137 A2.5,2.5 0 0 1 1903.5,892.0137 L1643.5,892.0137 A2.5,2.5 0 0 1 1641,889.5137 L1641,476.0137 A2.5,2.5 0 0 1 1643.5,473.5137 " fill="none" style="stroke:#000000;stroke-width:1.5;"/><line style="stroke:#000000;stroke-width:1.5;" x1="1641" x2="1732" y1="498.1348" y2="498.1348"/><text fill="#000000" font-family="sans-serif" font-size="14" font-weight="bold" lengthAdjust="spacing" textLength="78" x="1645" y="490.6211">Application</text></g><!--cluster Model--><g id="cluster_Model"><path d="M32.5,679.0137 L77.5,679.0137 A3.75,3.75 0 0 1 80,681.5137 L87,703.6348 L888.5,703.6348 A2.5,2.5 0 0 1 891,706.1348 L891,1441.5137 A2.5,2.5 0 0 1 888.5,1444.0137 L32.5,1444.0137 A2.5,2.5 0 0 1 30,1441.5137 L30,681.5137 A2.5,2.5 0 0 1 32.5,679.0137 " fill="none" style="stroke:#000000;stroke-width:1.5;"/><line style="stroke:#000000;stroke-width:1.5;" x1="30" x2="87" y1="703.6348" y2="703.6348"/><text fill="#000000" font-family="sans-serif" font-size="14" font-weight="bold" lengthAdjust="spacing" textLength="44" x="34" y="696.1211">Model</text></g><!--cluster Repository--><g id="cluster_Repository"><path d="M917.5,455.0137 L994.5,455.0137 A3.75,3.75 0 0 1 997,457.5137 L1004,479.6348 L1614.5,479.6348 A2.5,2.5 0 0 1 1617,482.1348 L1617,917.0137 A2.5,2.5 0 0 1 1614.5,919.5137 L917.5,919.5137 A2.5,2.5 0 0 1 915,917.0137 L915,457.5137 A2.5,2.5 0 0 1 917.5,455.0137 " fill="none" style="stroke:#000000;stroke-width:1.5;"/><line style="stroke:#000000;stroke-width:1.5;" x1="915" x2="1004" y1="479.6348" y2="479.6348"/><text fill="#000000" font-family="sans-serif" font-size="14" font-weight="bold" lengthAdjust="spacing" textLength="76" x="919" y="472.1211">Repository</text></g><!--class RegisterGreenSpaceUI--><g id="elem_RegisterGreenSpaceUI"><rect codeLine="9" fill="#F1F1F1" height="48" id="RegisterGreenSpaceUI" rx="2.5" ry="2.5" style="stroke:#181818;stroke-width:0.5;" width="177" x="1309.5" y="43.0137"/><ellipse cx="1324.5" cy="59.0137" fill="#ADD1B2" rx="11" ry="11" style="stroke:#181818;stroke-width:1.0;"/><path d="M1327.2656,54.8887 Q1327.4219,54.6699 1327.6094,54.5605 Q1327.7969,54.4512 1328.0156,54.4512 Q1328.3906,54.4512 1328.625,54.7168 Q1328.8594,54.9668 1328.8594,55.5762 L1328.8594,57.0293 Q1328.8594,57.6387 1328.625,57.9043 Q1328.3906,58.1699 1328.0156,58.1699 Q1327.6719,58.1699 1327.4688,57.9668 Q1327.2656,57.7793 1327.1563,57.2637 Q1327.1094,56.9043 1326.9219,56.7168 Q1326.5938,56.3418 1325.9844,56.123 Q1325.375,55.9043 1324.75,55.9043 Q1323.9844,55.9043 1323.3438,56.2324 Q1322.7188,56.5605 1322.2188,57.3105 Q1321.7344,58.0605 1321.7344,59.0918 L1321.7344,60.1855 Q1321.7344,61.4199 1322.625,62.248 Q1323.5156,63.0605 1325.1094,63.0605 Q1326.0469,63.0605 1326.7031,62.8105 Q1327.0938,62.6543 1327.5156,62.2168 Q1327.7813,61.9512 1327.9219,61.873 Q1328.0781,61.7949 1328.2813,61.7949 Q1328.6094,61.7949 1328.8594,62.0605 Q1329.125,62.3105 1329.125,62.6543 Q1329.125,62.998 1328.7813,63.4043 Q1328.2813,63.9824 1327.4844,64.3105 Q1326.4063,64.7637 1325.1094,64.7637 Q1323.5938,64.7637 1322.3906,64.1387 Q1321.4063,63.6387 1320.7188,62.5762 Q1320.0313,61.498 1320.0313,60.2168 L1320.0313,59.0605 Q1320.0313,57.7324 1320.6406,56.5918 Q1321.2656,55.4355 1322.3594,54.8262 Q1323.4531,54.2012 1324.6875,54.2012 Q1325.4219,54.2012 1326.0625,54.373 Q1326.7188,54.5293 1327.2656,54.8887 Z " fill="#000000"/><text fill="#000000" font-family="sans-serif" font-size="14" lengthAdjust="spacing" textLength="145" x="1338.5" y="64.8105">RegisterGreenSpaceUI</text><line style="stroke:#181818;stroke-width:0.5;" x1="1310.5" x2="1485.5" y1="75.0137" y2="75.0137"/><line style="stroke:#181818;stroke-width:0.5;" x1="1310.5" x2="1485.5" y1="83.0137" y2="83.0137"/></g><!--class RegisterGreenSpaceController--><g id="elem_RegisterGreenSpaceController"><rect codeLine="16" fill="#F1F1F1" height="103.8633" id="RegisterGreenSpaceController" rx="2.5" ry="2.5" style="stroke:#181818;stroke-width:0.5;" width="527" x="1134.5" y="177.0137"/><ellipse cx="1296.25" cy="193.0137" fill="#ADD1B2" rx="11" ry="11" style="stroke:#181818;stroke-width:1.0;"/><path d="M1299.0156,188.8887 Q1299.1719,188.6699 1299.3594,188.5605 Q1299.5469,188.4512 1299.7656,188.4512 Q1300.1406,188.4512 1300.375,188.7168 Q1300.6094,188.9668 1300.6094,189.5762 L1300.6094,191.0293 Q1300.6094,191.6387 1300.375,191.9043 Q1300.1406,192.1699 1299.7656,192.1699 Q1299.4219,192.1699 1299.2188,191.9668 Q1299.0156,191.7793 1298.9063,191.2637 Q1298.8594,190.9043 1298.6719,190.7168 Q1298.3438,190.3418 1297.7344,190.123 Q1297.125,189.9043 1296.5,189.9043 Q1295.7344,189.9043 1295.0938,190.2324 Q1294.4688,190.5605 1293.9688,191.3105 Q1293.4844,192.0605 1293.4844,193.0918 L1293.4844,194.1855 Q1293.4844,195.4199 1294.375,196.248 Q1295.2656,197.0605 1296.8594,197.0605 Q1297.7969,197.0605 1298.4531,196.8105 Q1298.8438,196.6543 1299.2656,196.2168 Q1299.5313,195.9512 1299.6719,195.873 Q1299.8281,195.7949 1300.0313,195.7949 Q1300.3594,195.7949 1300.6094,196.0605 Q1300.875,196.3105 1300.875,196.6543 Q1300.875,196.998 1300.5313,197.4043 Q1300.0313,197.9824 1299.2344,198.3105 Q1298.1563,198.7637 1296.8594,198.7637 Q1295.3438,198.7637 1294.1406,198.1387 Q1293.1563,197.6387 1292.4688,196.5762 Q1291.7813,195.498 1291.7813,194.2168 L1291.7813,193.0605 Q1291.7813,191.7324 1292.3906,190.5918 Q1293.0156,189.4355 1294.1094,188.8262 Q1295.2031,188.2012 1296.4375,188.2012 Q1297.1719,188.2012 1297.8125,188.373 Q1298.4688,188.5293 1299.0156,188.8887 Z " fill="#000000"/><text fill="#000000" font-family="sans-serif" font-size="14" lengthAdjust="spacing" textLength="195" x="1316.75" y="198.8105">RegisterGreenSpaceController</text><line style="stroke:#181818;stroke-width:0.5;" x1="1135.5" x2="1660.5" y1="209.0137" y2="209.0137"/><line style="stroke:#181818;stroke-width:0.5;" x1="1135.5" x2="1660.5" y1="217.0137" y2="217.0137"/><ellipse cx="1145.5" cy="231.8242" fill="#84BE84" rx="3" ry="3" style="stroke:#038048;stroke-width:1.0;"/><text fill="#000000" font-family="sans-serif" font-size="14" lengthAdjust="spacing" textLength="501" x="1154.5" y="236.1211">RegisterGreenSpaceController(greenSpaceRepository, collaboratorRepository)</text><ellipse cx="1145.5" cy="250.4453" fill="#84BE84" rx="3" ry="3" style="stroke:#038048;stroke-width:1.0;"/><text fill="#000000" font-family="sans-serif" font-size="14" lengthAdjust="spacing" textLength="378" x="1154.5" y="254.7422">registerGreenSpace(type,name,area,streetName,postCode)</text><rect fill="#F24D5C" height="6" style="stroke:#C82930;stroke-width:1.0;" width="6" x="1142.5" y="266.0664"/><text fill="#000000" font-family="sans-serif" font-size="14" lengthAdjust="spacing" textLength="144" x="1154.5" y="273.3633">getGSMFromSession()</text></g><!--class ApplicationSession--><g id="elem_ApplicationSession"><rect codeLine="30" fill="#F1F1F1" height="85.2422" id="ApplicationSession" rx="2.5" ry="2.5" style="stroke:#181818;stroke-width:0.5;" width="154" x="1657" y="510.5137"/><ellipse cx="1673.35" cy="526.5137" fill="#ADD1B2" rx="11" ry="11" style="stroke:#181818;stroke-width:1.0;"/><path d="M1676.1156,522.3887 Q1676.2719,522.1699 1676.4594,522.0605 Q1676.6469,521.9512 1676.8656,521.9512 Q1677.2406,521.9512 1677.475,522.2168 Q1677.7094,522.4668 1677.7094,523.0762 L1677.7094,524.5293 Q1677.7094,525.1387 1677.475,525.4043 Q1677.2406,525.6699 1676.8656,525.6699 Q1676.5219,525.6699 1676.3188,525.4668 Q1676.1156,525.2793 1676.0063,524.7637 Q1675.9594,524.4043 1675.7719,524.2168 Q1675.4438,523.8418 1674.8344,523.623 Q1674.225,523.4043 1673.6,523.4043 Q1672.8344,523.4043 1672.1938,523.7324 Q1671.5688,524.0605 1671.0688,524.8105 Q1670.5844,525.5605 1670.5844,526.5918 L1670.5844,527.6855 Q1670.5844,528.9199 1671.475,529.748 Q1672.3656,530.5605 1673.9594,530.5605 Q1674.8969,530.5605 1675.5531,530.3105 Q1675.9438,530.1543 1676.3656,529.7168 Q1676.6313,529.4512 1676.7719,529.373 Q1676.9281,529.2949 1677.1313,529.2949 Q1677.4594,529.2949 1677.7094,529.5605 Q1677.975,529.8105 1677.975,530.1543 Q1677.975,530.498 1677.6313,530.9043 Q1677.1313,531.4824 1676.3344,531.8105 Q1675.2563,532.2637 1673.9594,532.2637 Q1672.4438,532.2637 1671.2406,531.6387 Q1670.2563,531.1387 1669.5688,530.0762 Q1668.8813,528.998 1668.8813,527.7168 L1668.8813,526.5605 Q1668.8813,525.2324 1669.4906,524.0918 Q1670.1156,522.9355 1671.2094,522.3262 Q1672.3031,521.7012 1673.5375,521.7012 Q1674.2719,521.7012 1674.9125,521.873 Q1675.5688,522.0293 1676.1156,522.3887 Z " fill="#000000"/><text fill="#000000" font-family="sans-serif" font-size="14" lengthAdjust="spacing" textLength="119" x="1687.65" y="532.3105">ApplicationSession</text><line style="stroke:#181818;stroke-width:0.5;" x1="1658" x2="1810" y1="542.5137" y2="542.5137"/><line style="stroke:#181818;stroke-width:0.5;" x1="1658" x2="1810" y1="550.5137" y2="550.5137"/><ellipse cx="1668" cy="565.3242" fill="#84BE84" rx="3" ry="3" style="stroke:#038048;stroke-width:1.0;"/><text fill="#000000" font-family="sans-serif" font-size="14" lengthAdjust="spacing" textLength="120" x="1677" y="569.6211">static getInstance()</text><ellipse cx="1668" cy="583.9453" fill="#84BE84" rx="3" ry="3" style="stroke:#038048;stroke-width:1.0;"/><text fill="#000000" font-family="sans-serif" font-size="14" lengthAdjust="spacing" textLength="128" x="1677" y="588.2422">getCurrentSession()</text></g><!--class UserSession--><g id="elem_UserSession"><rect codeLine="36" fill="#F1F1F1" height="66.6211" id="UserSession" rx="2.5" ry="2.5" style="stroke:#181818;stroke-width:0.5;" width="119" x="1746.5" y="809.0137"/><ellipse cx="1765.1" cy="825.0137" fill="#ADD1B2" rx="11" ry="11" style="stroke:#181818;stroke-width:1.0;"/><path d="M1767.8656,820.8887 Q1768.0219,820.6699 1768.2094,820.5605 Q1768.3969,820.4512 1768.6156,820.4512 Q1768.9906,820.4512 1769.225,820.7168 Q1769.4594,820.9668 1769.4594,821.5762 L1769.4594,823.0293 Q1769.4594,823.6387 1769.225,823.9043 Q1768.9906,824.1699 1768.6156,824.1699 Q1768.2719,824.1699 1768.0688,823.9668 Q1767.8656,823.7793 1767.7563,823.2637 Q1767.7094,822.9043 1767.5219,822.7168 Q1767.1938,822.3418 1766.5844,822.123 Q1765.975,821.9043 1765.35,821.9043 Q1764.5844,821.9043 1763.9438,822.2324 Q1763.3188,822.5605 1762.8188,823.3105 Q1762.3344,824.0605 1762.3344,825.0918 L1762.3344,826.1855 Q1762.3344,827.4199 1763.225,828.248 Q1764.1156,829.0605 1765.7094,829.0605 Q1766.6469,829.0605 1767.3031,828.8105 Q1767.6938,828.6543 1768.1156,828.2168 Q1768.3813,827.9512 1768.5219,827.873 Q1768.6781,827.7949 1768.8813,827.7949 Q1769.2094,827.7949 1769.4594,828.0605 Q1769.725,828.3105 1769.725,828.6543 Q1769.725,828.998 1769.3813,829.4043 Q1768.8813,829.9824 1768.0844,830.3105 Q1767.0063,830.7637 1765.7094,830.7637 Q1764.1938,830.7637 1762.9906,830.1387 Q1762.0063,829.6387 1761.3188,828.5762 Q1760.6313,827.498 1760.6313,826.2168 L1760.6313,825.0605 Q1760.6313,823.7324 1761.2406,822.5918 Q1761.8656,821.4355 1762.9594,820.8262 Q1764.0531,820.2012 1765.2875,820.2012 Q1766.0219,820.2012 1766.6625,820.373 Q1767.3188,820.5293 1767.8656,820.8887 Z " fill="#000000"/><text fill="#000000" font-family="sans-serif" font-size="14" lengthAdjust="spacing" textLength="79" x="1779.9" y="830.8105">UserSession</text><line style="stroke:#181818;stroke-width:0.5;" x1="1747.5" x2="1864.5" y1="841.0137" y2="841.0137"/><line style="stroke:#181818;stroke-width:0.5;" x1="1747.5" x2="1864.5" y1="849.0137" y2="849.0137"/><ellipse cx="1757.5" cy="863.8242" fill="#84BE84" rx="3" ry="3" style="stroke:#038048;stroke-width:1.0;"/><text fill="#000000" font-family="sans-serif" font-size="14" lengthAdjust="spacing" textLength="93" x="1766.5" y="868.1211">getUserEmail()</text></g><!--class GreenSpace--><g id="elem_GreenSpace"><rect codeLine="44" fill="#F1F1F1" height="141.1055" id="GreenSpace" rx="2.5" ry="2.5" style="stroke:#181818;stroke-width:0.5;" width="325" x="549.5" y="1048.0137"/><ellipse cx="667.75" cy="1064.0137" fill="#ADD1B2" rx="11" ry="11" style="stroke:#181818;stroke-width:1.0;"/><path d="M670.5156,1059.8887 Q670.6719,1059.6699 670.8594,1059.5605 Q671.0469,1059.4512 671.2656,1059.4512 Q671.6406,1059.4512 671.875,1059.7168 Q672.1094,1059.9668 672.1094,1060.5762 L672.1094,1062.0293 Q672.1094,1062.6387 671.875,1062.9043 Q671.6406,1063.1699 671.2656,1063.1699 Q670.9219,1063.1699 670.7188,1062.9668 Q670.5156,1062.7793 670.4063,1062.2637 Q670.3594,1061.9043 670.1719,1061.7168 Q669.8438,1061.3418 669.2344,1061.123 Q668.625,1060.9043 668,1060.9043 Q667.2344,1060.9043 666.5938,1061.2324 Q665.9688,1061.5605 665.4688,1062.3105 Q664.9844,1063.0605 664.9844,1064.0918 L664.9844,1065.1855 Q664.9844,1066.4199 665.875,1067.248 Q666.7656,1068.0605 668.3594,1068.0605 Q669.2969,1068.0605 669.9531,1067.8105 Q670.3438,1067.6543 670.7656,1067.2168 Q671.0313,1066.9512 671.1719,1066.873 Q671.3281,1066.7949 671.5313,1066.7949 Q671.8594,1066.7949 672.1094,1067.0605 Q672.375,1067.3105 672.375,1067.6543 Q672.375,1067.998 672.0313,1068.4043 Q671.5313,1068.9824 670.7344,1069.3105 Q669.6563,1069.7637 668.3594,1069.7637 Q666.8438,1069.7637 665.6406,1069.1387 Q664.6563,1068.6387 663.9688,1067.5762 Q663.2813,1066.498 663.2813,1065.2168 L663.2813,1064.0605 Q663.2813,1062.7324 663.8906,1061.5918 Q664.5156,1060.4355 665.6094,1059.8262 Q666.7031,1059.2012 667.9375,1059.2012 Q668.6719,1059.2012 669.3125,1059.373 Q669.9688,1059.5293 670.5156,1059.8887 Z " fill="#000000"/><text fill="#000000" font-family="sans-serif" font-size="14" lengthAdjust="spacing" textLength="80" x="688.25" y="1069.8105">GreenSpace</text><line style="stroke:#181818;stroke-width:0.5;" x1="550.5" x2="873.5" y1="1080.0137" y2="1080.0137"/><rect fill="none" height="6" style="stroke:#C82930;stroke-width:1.0;" width="6" x="557.5" y="1091.8242"/><text fill="#000000" font-family="sans-serif" font-size="14" lengthAdjust="spacing" textLength="76" x="569.5" y="1099.1211">String name</text><rect fill="none" height="6" style="stroke:#C82930;stroke-width:1.0;" width="6" x="557.5" y="1110.4453"/><text fill="#000000" font-family="sans-serif" font-size="14" lengthAdjust="spacing" textLength="48" x="569.5" y="1117.7422">int area</text><rect fill="none" height="6" style="stroke:#C82930;stroke-width:1.0;" width="6" x="557.5" y="1129.0664"/><text fill="#000000" font-family="sans-serif" font-size="14" lengthAdjust="spacing" textLength="52" x="569.5" y="1136.3633">Address</text><line style="stroke:#181818;stroke-width:0.5;" x1="550.5" x2="873.5" y1="1143.877" y2="1143.877"/><ellipse cx="560.5" cy="1158.6875" fill="#84BE84" rx="3" ry="3" style="stroke:#038048;stroke-width:1.0;"/><text fill="#000000" font-family="sans-serif" font-size="14" lengthAdjust="spacing" textLength="299" x="569.5" y="1162.9844">GreenSpace(name,area,streetName,postCode)</text><rect fill="#F24D5C" height="6" style="stroke:#C82930;stroke-width:1.0;" width="6" x="557.5" y="1174.3086"/><text fill="#000000" font-family="sans-serif" font-size="14" lengthAdjust="spacing" textLength="150" x="569.5" y="1181.6055">validationGreenSpace()</text></g><!--class Collaborator--><g id="elem_Collaborator"><rect codeLine="53" fill="#F1F1F1" height="252.832" id="Collaborator" rx="2.5" ry="2.5" style="stroke:#181818;stroke-width:0.5;" width="686" x="142" y="716.0137"/><ellipse cx="441.75" cy="732.0137" fill="#ADD1B2" rx="11" ry="11" style="stroke:#181818;stroke-width:1.0;"/><path d="M444.5156,727.8887 Q444.6719,727.6699 444.8594,727.5605 Q445.0469,727.4512 445.2656,727.4512 Q445.6406,727.4512 445.875,727.7168 Q446.1094,727.9668 446.1094,728.5762 L446.1094,730.0293 Q446.1094,730.6387 445.875,730.9043 Q445.6406,731.1699 445.2656,731.1699 Q444.9219,731.1699 444.7188,730.9668 Q444.5156,730.7793 444.4063,730.2637 Q444.3594,729.9043 444.1719,729.7168 Q443.8438,729.3418 443.2344,729.123 Q442.625,728.9043 442,728.9043 Q441.2344,728.9043 440.5938,729.2324 Q439.9688,729.5605 439.4688,730.3105 Q438.9844,731.0605 438.9844,732.0918 L438.9844,733.1855 Q438.9844,734.4199 439.875,735.248 Q440.7656,736.0605 442.3594,736.0605 Q443.2969,736.0605 443.9531,735.8105 Q444.3438,735.6543 444.7656,735.2168 Q445.0313,734.9512 445.1719,734.873 Q445.3281,734.7949 445.5313,734.7949 Q445.8594,734.7949 446.1094,735.0605 Q446.375,735.3105 446.375,735.6543 Q446.375,735.998 446.0313,736.4043 Q445.5313,736.9824 444.7344,737.3105 Q443.6563,737.7637 442.3594,737.7637 Q440.8438,737.7637 439.6406,737.1387 Q438.6563,736.6387 437.9688,735.5762 Q437.2813,734.498 437.2813,733.2168 L437.2813,732.0605 Q437.2813,730.7324 437.8906,729.5918 Q438.5156,728.4355 439.6094,727.8262 Q440.7031,727.2012 441.9375,727.2012 Q442.6719,727.2012 443.3125,727.373 Q443.9688,727.5293 444.5156,727.8887 Z " fill="#000000"/><text fill="#000000" font-family="sans-serif" font-size="14" lengthAdjust="spacing" textLength="78" x="462.25" y="737.8105">Collaborator</text><line style="stroke:#181818;stroke-width:0.5;" x1="143" x2="827" y1="748.0137" y2="748.0137"/><rect fill="none" height="6" style="stroke:#C82930;stroke-width:1.0;" width="6" x="150" y="759.8242"/><text fill="#000000" font-family="sans-serif" font-size="14" lengthAdjust="spacing" textLength="76" x="162" y="767.1211">String name</text><rect fill="none" height="6" style="stroke:#C82930;stroke-width:1.0;" width="6" x="150" y="778.4453"/><text fill="#000000" font-family="sans-serif" font-size="14" lengthAdjust="spacing" textLength="90" x="162" y="785.7422">List&lt;Skill&gt; skill</text><rect fill="none" height="6" style="stroke:#C82930;stroke-width:1.0;" width="6" x="150" y="797.0664"/><text fill="#000000" font-family="sans-serif" font-size="14" lengthAdjust="spacing" textLength="45" x="162" y="804.3633">Job job</text><rect fill="none" height="6" style="stroke:#C82930;stroke-width:1.0;" width="6" x="150" y="815.6875"/><text fill="#000000" font-family="sans-serif" font-size="14" lengthAdjust="spacing" textLength="106" x="162" y="822.9844">Date dateOfBirth</text><rect fill="none" height="6" style="stroke:#C82930;stroke-width:1.0;" width="6" x="150" y="834.3086"/><text fill="#000000" font-family="sans-serif" font-size="14" lengthAdjust="spacing" textLength="127" x="162" y="841.6055">Date admissionDate</text><rect fill="none" height="6" style="stroke:#C82930;stroke-width:1.0;" width="6" x="150" y="852.9297"/><text fill="#000000" font-family="sans-serif" font-size="14" lengthAdjust="spacing" textLength="107" x="162" y="860.2266">Address address</text><rect fill="none" height="6" style="stroke:#C82930;stroke-width:1.0;" width="6" x="150" y="871.5508"/><text fill="#000000" font-family="sans-serif" font-size="14" lengthAdjust="spacing" textLength="130" x="162" y="878.8477">Document document</text><rect fill="none" height="6" style="stroke:#C82930;stroke-width:1.0;" width="6" x="150" y="890.1719"/><text fill="#000000" font-family="sans-serif" font-size="14" lengthAdjust="spacing" textLength="130" x="162" y="897.4688">String phoneNumber</text><rect fill="none" height="6" style="stroke:#C82930;stroke-width:1.0;" width="6" x="150" y="908.793"/><text fill="#000000" font-family="sans-serif" font-size="14" lengthAdjust="spacing" textLength="74" x="162" y="916.0898">String email</text><rect fill="none" height="6" style="stroke:#C82930;stroke-width:1.0;" width="6" x="150" y="927.4141"/><text fill="#000000" font-family="sans-serif" font-size="14" lengthAdjust="spacing" textLength="73" x="162" y="934.7109">int taxpayer</text><line style="stroke:#181818;stroke-width:0.5;" x1="143" x2="827" y1="942.2246" y2="942.2246"/><ellipse cx="153" cy="957.0352" fill="#84BE84" rx="3" ry="3" style="stroke:#038048;stroke-width:1.0;"/><text fill="#000000" font-family="sans-serif" font-size="14" lengthAdjust="spacing" textLength="660" x="162" y="961.332">Collaborator(name, job, dateOfBirth, admissionDate, address, document, phoneNumber, email, taxpayer)</text></g><!--class Address--><g id="elem_Address"><rect codeLine="68" fill="#F1F1F1" height="159.7266" id="Address" rx="2.5" ry="2.5" style="stroke:#181818;stroke-width:0.5;" width="315" x="46.5" y="1268.0137"/><ellipse cx="173.75" cy="1284.0137" fill="#ADD1B2" rx="11" ry="11" style="stroke:#181818;stroke-width:1.0;"/><path d="M176.5156,1279.8887 Q176.6719,1279.6699 176.8594,1279.5605 Q177.0469,1279.4512 177.2656,1279.4512 Q177.6406,1279.4512 177.875,1279.7168 Q178.1094,1279.9668 178.1094,1280.5762 L178.1094,1282.0293 Q178.1094,1282.6387 177.875,1282.9043 Q177.6406,1283.1699 177.2656,1283.1699 Q176.9219,1283.1699 176.7188,1282.9668 Q176.5156,1282.7793 176.4063,1282.2637 Q176.3594,1281.9043 176.1719,1281.7168 Q175.8438,1281.3418 175.2344,1281.123 Q174.625,1280.9043 174,1280.9043 Q173.2344,1280.9043 172.5938,1281.2324 Q171.9688,1281.5605 171.4688,1282.3105 Q170.9844,1283.0605 170.9844,1284.0918 L170.9844,1285.1855 Q170.9844,1286.4199 171.875,1287.248 Q172.7656,1288.0605 174.3594,1288.0605 Q175.2969,1288.0605 175.9531,1287.8105 Q176.3438,1287.6543 176.7656,1287.2168 Q177.0313,1286.9512 177.1719,1286.873 Q177.3281,1286.7949 177.5313,1286.7949 Q177.8594,1286.7949 178.1094,1287.0605 Q178.375,1287.3105 178.375,1287.6543 Q178.375,1287.998 178.0313,1288.4043 Q177.5313,1288.9824 176.7344,1289.3105 Q175.6563,1289.7637 174.3594,1289.7637 Q172.8438,1289.7637 171.6406,1289.1387 Q170.6563,1288.6387 169.9688,1287.5762 Q169.2813,1286.498 169.2813,1285.2168 L169.2813,1284.0605 Q169.2813,1282.7324 169.8906,1281.5918 Q170.5156,1280.4355 171.6094,1279.8262 Q172.7031,1279.2012 173.9375,1279.2012 Q174.6719,1279.2012 175.3125,1279.373 Q175.9688,1279.5293 176.5156,1279.8887 Z " fill="#000000"/><text fill="#000000" font-family="sans-serif" font-size="14" lengthAdjust="spacing" textLength="52" x="194.25" y="1289.8105">Address</text><line style="stroke:#181818;stroke-width:0.5;" x1="47.5" x2="360.5" y1="1300.0137" y2="1300.0137"/><rect fill="none" height="6" style="stroke:#C82930;stroke-width:1.0;" width="6" x="54.5" y="1311.8242"/><text fill="#000000" font-family="sans-serif" font-size="14" lengthAdjust="spacing" textLength="113" x="66.5" y="1319.1211">String streetName</text><rect fill="none" height="6" style="stroke:#C82930;stroke-width:1.0;" width="6" x="54.5" y="1330.4453"/><text fill="#000000" font-family="sans-serif" font-size="14" lengthAdjust="spacing" textLength="80" x="66.5" y="1337.7422">int postCode</text><rect fill="none" height="6" style="stroke:#C82930;stroke-width:1.0;" width="6" x="54.5" y="1349.0664"/><text fill="#000000" font-family="sans-serif" font-size="14" lengthAdjust="spacing" textLength="97" x="66.5" y="1356.3633">int doorNumber</text><line style="stroke:#181818;stroke-width:0.5;" x1="47.5" x2="360.5" y1="1363.877" y2="1363.877"/><ellipse cx="57.5" cy="1378.6875" fill="#84BE84" rx="3" ry="3" style="stroke:#038048;stroke-width:1.0;"/><text fill="#000000" font-family="sans-serif" font-size="14" lengthAdjust="spacing" textLength="289" x="66.5" y="1382.9844">Address(streetName, postCode, doorNumber)</text><ellipse cx="57.5" cy="1397.3086" fill="#84BE84" rx="3" ry="3" style="stroke:#038048;stroke-width:1.0;"/><text fill="#000000" font-family="sans-serif" font-size="14" lengthAdjust="spacing" textLength="203" x="66.5" y="1401.6055">Address(streetName, postCode)</text><rect fill="#F24D5C" height="6" style="stroke:#C82930;stroke-width:1.0;" width="6" x="54.5" y="1412.9297"/><text fill="#000000" font-family="sans-serif" font-size="14" lengthAdjust="spacing" textLength="162" x="66.5" y="1420.2266">validateAddress(address)</text></g><!--class GreenSpaceManager--><g id="elem_GreenSpaceManager"><rect codeLine="78" fill="#F1F1F1" height="103.8633" id="GreenSpaceManager" rx="2.5" ry="2.5" style="stroke:#181818;stroke-width:0.5;" width="303" x="109.5" y="1066.5137"/><ellipse cx="188.75" cy="1082.5137" fill="#ADD1B2" rx="11" ry="11" style="stroke:#181818;stroke-width:1.0;"/><path d="M191.5156,1078.3887 Q191.6719,1078.1699 191.8594,1078.0605 Q192.0469,1077.9512 192.2656,1077.9512 Q192.6406,1077.9512 192.875,1078.2168 Q193.1094,1078.4668 193.1094,1079.0762 L193.1094,1080.5293 Q193.1094,1081.1387 192.875,1081.4043 Q192.6406,1081.6699 192.2656,1081.6699 Q191.9219,1081.6699 191.7188,1081.4668 Q191.5156,1081.2793 191.4063,1080.7637 Q191.3594,1080.4043 191.1719,1080.2168 Q190.8438,1079.8418 190.2344,1079.623 Q189.625,1079.4043 189,1079.4043 Q188.2344,1079.4043 187.5938,1079.7324 Q186.9688,1080.0605 186.4688,1080.8105 Q185.9844,1081.5605 185.9844,1082.5918 L185.9844,1083.6855 Q185.9844,1084.9199 186.875,1085.748 Q187.7656,1086.5605 189.3594,1086.5605 Q190.2969,1086.5605 190.9531,1086.3105 Q191.3438,1086.1543 191.7656,1085.7168 Q192.0313,1085.4512 192.1719,1085.373 Q192.3281,1085.2949 192.5313,1085.2949 Q192.8594,1085.2949 193.1094,1085.5605 Q193.375,1085.8105 193.375,1086.1543 Q193.375,1086.498 193.0313,1086.9043 Q192.5313,1087.4824 191.7344,1087.8105 Q190.6563,1088.2637 189.3594,1088.2637 Q187.8438,1088.2637 186.6406,1087.6387 Q185.6563,1087.1387 184.9688,1086.0762 Q184.2813,1084.998 184.2813,1083.7168 L184.2813,1082.5605 Q184.2813,1081.2324 184.8906,1080.0918 Q185.5156,1078.9355 186.6094,1078.3262 Q187.7031,1077.7012 188.9375,1077.7012 Q189.6719,1077.7012 190.3125,1077.873 Q190.9688,1078.0293 191.5156,1078.3887 Z " fill="#000000"/><text fill="#000000" font-family="sans-serif" font-size="14" lengthAdjust="spacing" textLength="136" x="209.25" y="1088.3105">GreenSpaceManager</text><line style="stroke:#181818;stroke-width:0.5;" x1="110.5" x2="411.5" y1="1098.5137" y2="1098.5137"/><rect fill="none" height="6" style="stroke:#C82930;stroke-width:1.0;" width="6" x="117.5" y="1110.3242"/><text fill="#000000" font-family="sans-serif" font-size="14" lengthAdjust="spacing" textLength="277" x="129.5" y="1117.6211">List&lt;GreenSpace&gt; managesGreenPlaceList</text><line style="stroke:#181818;stroke-width:0.5;" x1="110.5" x2="411.5" y1="1125.1348" y2="1125.1348"/><ellipse cx="120.5" cy="1139.9453" fill="#84BE84" rx="3" ry="3" style="stroke:#038048;stroke-width:1.0;"/><text fill="#000000" font-family="sans-serif" font-size="14" lengthAdjust="spacing" textLength="146" x="129.5" y="1144.2422">GreenSpaceManager()</text><ellipse cx="120.5" cy="1158.5664" fill="#84BE84" rx="3" ry="3" style="stroke:#038048;stroke-width:1.0;"/><text fill="#000000" font-family="sans-serif" font-size="14" lengthAdjust="spacing" textLength="272" x="129.5" y="1162.8633">addListManagerGreenSpace(GreenSpace)</text></g><!--class Garden--><g id="elem_Garden"><rect codeLine="86" fill="#F1F1F1" height="66.6211" id="Garden" rx="2.5" ry="2.5" style="stroke:#181818;stroke-width:0.5;" width="120" x="397" y="1314.5137"/><ellipse cx="430" cy="1330.5137" fill="#ADD1B2" rx="11" ry="11" style="stroke:#181818;stroke-width:1.0;"/><path d="M432.7656,1326.3887 Q432.9219,1326.1699 433.1094,1326.0605 Q433.2969,1325.9512 433.5156,1325.9512 Q433.8906,1325.9512 434.125,1326.2168 Q434.3594,1326.4668 434.3594,1327.0762 L434.3594,1328.5293 Q434.3594,1329.1387 434.125,1329.4043 Q433.8906,1329.6699 433.5156,1329.6699 Q433.1719,1329.6699 432.9688,1329.4668 Q432.7656,1329.2793 432.6563,1328.7637 Q432.6094,1328.4043 432.4219,1328.2168 Q432.0938,1327.8418 431.4844,1327.623 Q430.875,1327.4043 430.25,1327.4043 Q429.4844,1327.4043 428.8438,1327.7324 Q428.2188,1328.0605 427.7188,1328.8105 Q427.2344,1329.5605 427.2344,1330.5918 L427.2344,1331.6855 Q427.2344,1332.9199 428.125,1333.748 Q429.0156,1334.5605 430.6094,1334.5605 Q431.5469,1334.5605 432.2031,1334.3105 Q432.5938,1334.1543 433.0156,1333.7168 Q433.2813,1333.4512 433.4219,1333.373 Q433.5781,1333.2949 433.7813,1333.2949 Q434.1094,1333.2949 434.3594,1333.5605 Q434.625,1333.8105 434.625,1334.1543 Q434.625,1334.498 434.2813,1334.9043 Q433.7813,1335.4824 432.9844,1335.8105 Q431.9063,1336.2637 430.6094,1336.2637 Q429.0938,1336.2637 427.8906,1335.6387 Q426.9063,1335.1387 426.2188,1334.0762 Q425.5313,1332.998 425.5313,1331.7168 L425.5313,1330.5605 Q425.5313,1329.2324 426.1406,1328.0918 Q426.7656,1326.9355 427.8594,1326.3262 Q428.9531,1325.7012 430.1875,1325.7012 Q430.9219,1325.7012 431.5625,1325.873 Q432.2188,1326.0293 432.7656,1326.3887 Z " fill="#000000"/><text fill="#000000" font-family="sans-serif" font-size="14" lengthAdjust="spacing" textLength="48" x="448" y="1336.3105">Garden</text><line style="stroke:#181818;stroke-width:0.5;" x1="398" x2="516" y1="1346.5137" y2="1346.5137"/><line style="stroke:#181818;stroke-width:0.5;" x1="398" x2="516" y1="1354.5137" y2="1354.5137"/><ellipse cx="408" cy="1369.3242" fill="#84BE84" rx="3" ry="3" style="stroke:#038048;stroke-width:1.0;"/><text fill="#000000" font-family="sans-serif" font-size="14" lengthAdjust="spacing" textLength="94" x="417" y="1373.6211">Garden(super)</text></g><!--class MediumPark--><g id="elem_MediumPark"><rect codeLine="90" fill="#F1F1F1" height="66.6211" id="MediumPark" rx="2.5" ry="2.5" style="stroke:#181818;stroke-width:0.5;" width="150" x="552" y="1314.5137"/><ellipse cx="585" cy="1330.5137" fill="#ADD1B2" rx="11" ry="11" style="stroke:#181818;stroke-width:1.0;"/><path d="M587.7656,1326.3887 Q587.9219,1326.1699 588.1094,1326.0605 Q588.2969,1325.9512 588.5156,1325.9512 Q588.8906,1325.9512 589.125,1326.2168 Q589.3594,1326.4668 589.3594,1327.0762 L589.3594,1328.5293 Q589.3594,1329.1387 589.125,1329.4043 Q588.8906,1329.6699 588.5156,1329.6699 Q588.1719,1329.6699 587.9688,1329.4668 Q587.7656,1329.2793 587.6563,1328.7637 Q587.6094,1328.4043 587.4219,1328.2168 Q587.0938,1327.8418 586.4844,1327.623 Q585.875,1327.4043 585.25,1327.4043 Q584.4844,1327.4043 583.8438,1327.7324 Q583.2188,1328.0605 582.7188,1328.8105 Q582.2344,1329.5605 582.2344,1330.5918 L582.2344,1331.6855 Q582.2344,1332.9199 583.125,1333.748 Q584.0156,1334.5605 585.6094,1334.5605 Q586.5469,1334.5605 587.2031,1334.3105 Q587.5938,1334.1543 588.0156,1333.7168 Q588.2813,1333.4512 588.4219,1333.373 Q588.5781,1333.2949 588.7813,1333.2949 Q589.1094,1333.2949 589.3594,1333.5605 Q589.625,1333.8105 589.625,1334.1543 Q589.625,1334.498 589.2813,1334.9043 Q588.7813,1335.4824 587.9844,1335.8105 Q586.9063,1336.2637 585.6094,1336.2637 Q584.0938,1336.2637 582.8906,1335.6387 Q581.9063,1335.1387 581.2188,1334.0762 Q580.5313,1332.998 580.5313,1331.7168 L580.5313,1330.5605 Q580.5313,1329.2324 581.1406,1328.0918 Q581.7656,1326.9355 582.8594,1326.3262 Q583.9531,1325.7012 585.1875,1325.7012 Q585.9219,1325.7012 586.5625,1325.873 Q587.2188,1326.0293 587.7656,1326.3887 Z " fill="#000000"/><text fill="#000000" font-family="sans-serif" font-size="14" lengthAdjust="spacing" textLength="78" x="603" y="1336.3105">MediumPark</text><line style="stroke:#181818;stroke-width:0.5;" x1="553" x2="701" y1="1346.5137" y2="1346.5137"/><line style="stroke:#181818;stroke-width:0.5;" x1="553" x2="701" y1="1354.5137" y2="1354.5137"/><ellipse cx="563" cy="1369.3242" fill="#84BE84" rx="3" ry="3" style="stroke:#038048;stroke-width:1.0;"/><text fill="#000000" font-family="sans-serif" font-size="14" lengthAdjust="spacing" textLength="124" x="572" y="1373.6211">MediumPark(super)</text></g><!--class LargePark--><g id="elem_LargePark"><rect codeLine="94" fill="#F1F1F1" height="66.6211" id="LargePark" rx="2.5" ry="2.5" style="stroke:#181818;stroke-width:0.5;" width="138" x="737" y="1314.5137"/><ellipse cx="770" cy="1330.5137" fill="#ADD1B2" rx="11" ry="11" style="stroke:#181818;stroke-width:1.0;"/><path d="M772.7656,1326.3887 Q772.9219,1326.1699 773.1094,1326.0605 Q773.2969,1325.9512 773.5156,1325.9512 Q773.8906,1325.9512 774.125,1326.2168 Q774.3594,1326.4668 774.3594,1327.0762 L774.3594,1328.5293 Q774.3594,1329.1387 774.125,1329.4043 Q773.8906,1329.6699 773.5156,1329.6699 Q773.1719,1329.6699 772.9688,1329.4668 Q772.7656,1329.2793 772.6563,1328.7637 Q772.6094,1328.4043 772.4219,1328.2168 Q772.0938,1327.8418 771.4844,1327.623 Q770.875,1327.4043 770.25,1327.4043 Q769.4844,1327.4043 768.8438,1327.7324 Q768.2188,1328.0605 767.7188,1328.8105 Q767.2344,1329.5605 767.2344,1330.5918 L767.2344,1331.6855 Q767.2344,1332.9199 768.125,1333.748 Q769.0156,1334.5605 770.6094,1334.5605 Q771.5469,1334.5605 772.2031,1334.3105 Q772.5938,1334.1543 773.0156,1333.7168 Q773.2813,1333.4512 773.4219,1333.373 Q773.5781,1333.2949 773.7813,1333.2949 Q774.1094,1333.2949 774.3594,1333.5605 Q774.625,1333.8105 774.625,1334.1543 Q774.625,1334.498 774.2813,1334.9043 Q773.7813,1335.4824 772.9844,1335.8105 Q771.9063,1336.2637 770.6094,1336.2637 Q769.0938,1336.2637 767.8906,1335.6387 Q766.9063,1335.1387 766.2188,1334.0762 Q765.5313,1332.998 765.5313,1331.7168 L765.5313,1330.5605 Q765.5313,1329.2324 766.1406,1328.0918 Q766.7656,1326.9355 767.8594,1326.3262 Q768.9531,1325.7012 770.1875,1325.7012 Q770.9219,1325.7012 771.5625,1325.873 Q772.2188,1326.0293 772.7656,1326.3887 Z " fill="#000000"/><text fill="#000000" font-family="sans-serif" font-size="14" lengthAdjust="spacing" textLength="66" x="788" y="1336.3105">LargePark</text><line style="stroke:#181818;stroke-width:0.5;" x1="738" x2="874" y1="1346.5137" y2="1346.5137"/><line style="stroke:#181818;stroke-width:0.5;" x1="738" x2="874" y1="1354.5137" y2="1354.5137"/><ellipse cx="748" cy="1369.3242" fill="#84BE84" rx="3" ry="3" style="stroke:#038048;stroke-width:1.0;"/><text fill="#000000" font-family="sans-serif" font-size="14" lengthAdjust="spacing" textLength="112" x="757" y="1373.6211">LargePark(super)</text></g><!--class Repositories--><g id="elem_Repositories"><rect codeLine="101" fill="#F1F1F1" height="122.4844" id="Repositories" rx="2.5" ry="2.5" style="stroke:#181818;stroke-width:0.5;" width="204" x="1296" y="492.0137"/><ellipse cx="1354.25" cy="508.0137" fill="#ADD1B2" rx="11" ry="11" style="stroke:#181818;stroke-width:1.0;"/><path d="M1357.0156,503.8887 Q1357.1719,503.6699 1357.3594,503.5605 Q1357.5469,503.4512 1357.7656,503.4512 Q1358.1406,503.4512 1358.375,503.7168 Q1358.6094,503.9668 1358.6094,504.5762 L1358.6094,506.0293 Q1358.6094,506.6387 1358.375,506.9043 Q1358.1406,507.1699 1357.7656,507.1699 Q1357.4219,507.1699 1357.2188,506.9668 Q1357.0156,506.7793 1356.9063,506.2637 Q1356.8594,505.9043 1356.6719,505.7168 Q1356.3438,505.3418 1355.7344,505.123 Q1355.125,504.9043 1354.5,504.9043 Q1353.7344,504.9043 1353.0938,505.2324 Q1352.4688,505.5605 1351.9688,506.3105 Q1351.4844,507.0605 1351.4844,508.0918 L1351.4844,509.1855 Q1351.4844,510.4199 1352.375,511.248 Q1353.2656,512.0605 1354.8594,512.0605 Q1355.7969,512.0605 1356.4531,511.8105 Q1356.8438,511.6543 1357.2656,511.2168 Q1357.5313,510.9512 1357.6719,510.873 Q1357.8281,510.7949 1358.0313,510.7949 Q1358.3594,510.7949 1358.6094,511.0605 Q1358.875,511.3105 1358.875,511.6543 Q1358.875,511.998 1358.5313,512.4043 Q1358.0313,512.9824 1357.2344,513.3105 Q1356.1563,513.7637 1354.8594,513.7637 Q1353.3438,513.7637 1352.1406,513.1387 Q1351.1563,512.6387 1350.4688,511.5762 Q1349.7813,510.498 1349.7813,509.2168 L1349.7813,508.0605 Q1349.7813,506.7324 1350.3906,505.5918 Q1351.0156,504.4355 1352.1094,503.8262 Q1353.2031,503.2012 1354.4375,503.2012 Q1355.1719,503.2012 1355.8125,503.373 Q1356.4688,503.5293 1357.0156,503.8887 Z " fill="#000000"/><text fill="#000000" font-family="sans-serif" font-size="14" lengthAdjust="spacing" textLength="79" x="1374.75" y="513.8105">Repositories</text><line style="stroke:#181818;stroke-width:0.5;" x1="1297" x2="1499" y1="524.0137" y2="524.0137"/><line style="stroke:#181818;stroke-width:0.5;" x1="1297" x2="1499" y1="532.0137" y2="532.0137"/><rect fill="#F24D5C" height="6" style="stroke:#C82930;stroke-width:1.0;" width="6" x="1304" y="543.8242"/><text fill="#000000" font-family="sans-serif" font-size="14" lengthAdjust="spacing" textLength="89" x="1316" y="551.1211">Repositories()</text><ellipse cx="1307" cy="565.4453" fill="#84BE84" rx="3" ry="3" style="stroke:#038048;stroke-width:1.0;"/><text fill="#000000" font-family="sans-serif" font-size="14" lengthAdjust="spacing" textLength="174" x="1316" y="569.7422">getInstance() : Repositories</text><ellipse cx="1307" cy="584.0664" fill="#84BE84" rx="3" ry="3" style="stroke:#038048;stroke-width:1.0;"/><text fill="#000000" font-family="sans-serif" font-size="14" lengthAdjust="spacing" textLength="178" x="1316" y="588.3633">getGreenSpaceRepository()</text><ellipse cx="1307" cy="602.6875" fill="#84BE84" rx="3" ry="3" style="stroke:#038048;stroke-width:1.0;"/><text fill="#000000" font-family="sans-serif" font-size="14" lengthAdjust="spacing" textLength="176" x="1316" y="606.9844">getCollaboratorRepository()</text></g><!--class CollaboratorRepository--><g id="elem_CollaboratorRepository"><rect codeLine="109" fill="#F1F1F1" height="85.2422" id="CollaboratorRepository" rx="2.5" ry="2.5" style="stroke:#181818;stroke-width:0.5;" width="261" x="931.5" y="800.0137"/><ellipse cx="984.75" cy="816.0137" fill="#ADD1B2" rx="11" ry="11" style="stroke:#181818;stroke-width:1.0;"/><path d="M987.5156,811.8887 Q987.6719,811.6699 987.8594,811.5605 Q988.0469,811.4512 988.2656,811.4512 Q988.6406,811.4512 988.875,811.7168 Q989.1094,811.9668 989.1094,812.5762 L989.1094,814.0293 Q989.1094,814.6387 988.875,814.9043 Q988.6406,815.1699 988.2656,815.1699 Q987.9219,815.1699 987.7188,814.9668 Q987.5156,814.7793 987.4063,814.2637 Q987.3594,813.9043 987.1719,813.7168 Q986.8438,813.3418 986.2344,813.123 Q985.625,812.9043 985,812.9043 Q984.2344,812.9043 983.5938,813.2324 Q982.9688,813.5605 982.4688,814.3105 Q981.9844,815.0605 981.9844,816.0918 L981.9844,817.1855 Q981.9844,818.4199 982.875,819.248 Q983.7656,820.0605 985.3594,820.0605 Q986.2969,820.0605 986.9531,819.8105 Q987.3438,819.6543 987.7656,819.2168 Q988.0313,818.9512 988.1719,818.873 Q988.3281,818.7949 988.5313,818.7949 Q988.8594,818.7949 989.1094,819.0605 Q989.375,819.3105 989.375,819.6543 Q989.375,819.998 989.0313,820.4043 Q988.5313,820.9824 987.7344,821.3105 Q986.6563,821.7637 985.3594,821.7637 Q983.8438,821.7637 982.6406,821.1387 Q981.6563,820.6387 980.9688,819.5762 Q980.2813,818.498 980.2813,817.2168 L980.2813,816.0605 Q980.2813,814.7324 980.8906,813.5918 Q981.5156,812.4355 982.6094,811.8262 Q983.7031,811.2012 984.9375,811.2012 Q985.6719,811.2012 986.3125,811.373 Q986.9688,811.5293 987.5156,811.8887 Z " fill="#000000"/><text fill="#000000" font-family="sans-serif" font-size="14" lengthAdjust="spacing" textLength="146" x="1005.25" y="821.8105">CollaboratorRepository</text><line style="stroke:#181818;stroke-width:0.5;" x1="932.5" x2="1191.5" y1="832.0137" y2="832.0137"/><rect fill="none" height="6" style="stroke:#C82930;stroke-width:1.0;" width="6" x="939.5" y="843.8242"/><text fill="#000000" font-family="sans-serif" font-size="14" lengthAdjust="spacing" textLength="221" x="951.5" y="851.1211">List &lt;Collaborator&gt; collaboratorList</text><line style="stroke:#181818;stroke-width:0.5;" x1="932.5" x2="1191.5" y1="858.6348" y2="858.6348"/><ellipse cx="942.5" cy="873.4453" fill="#84BE84" rx="3" ry="3" style="stroke:#038048;stroke-width:1.0;"/><text fill="#000000" font-family="sans-serif" font-size="14" lengthAdjust="spacing" textLength="235" x="951.5" y="877.7422">getCollaboratorByEmail(greenSpace)</text></g><!--class GreenSpaceRepository--><g id="elem_GreenSpaceRepository"><rect codeLine="115" fill="#F1F1F1" height="122.4844" id="GreenSpaceRepository" rx="2.5" ry="2.5" style="stroke:#181818;stroke-width:0.5;" width="373" x="1227.5" y="781.5137"/><ellipse cx="1335.75" cy="797.5137" fill="#ADD1B2" rx="11" ry="11" style="stroke:#181818;stroke-width:1.0;"/><path d="M1338.5156,793.3887 Q1338.6719,793.1699 1338.8594,793.0605 Q1339.0469,792.9512 1339.2656,792.9512 Q1339.6406,792.9512 1339.875,793.2168 Q1340.1094,793.4668 1340.1094,794.0762 L1340.1094,795.5293 Q1340.1094,796.1387 1339.875,796.4043 Q1339.6406,796.6699 1339.2656,796.6699 Q1338.9219,796.6699 1338.7188,796.4668 Q1338.5156,796.2793 1338.4063,795.7637 Q1338.3594,795.4043 1338.1719,795.2168 Q1337.8438,794.8418 1337.2344,794.623 Q1336.625,794.4043 1336,794.4043 Q1335.2344,794.4043 1334.5938,794.7324 Q1333.9688,795.0605 1333.4688,795.8105 Q1332.9844,796.5605 1332.9844,797.5918 L1332.9844,798.6855 Q1332.9844,799.9199 1333.875,800.748 Q1334.7656,801.5605 1336.3594,801.5605 Q1337.2969,801.5605 1337.9531,801.3105 Q1338.3438,801.1543 1338.7656,800.7168 Q1339.0313,800.4512 1339.1719,800.373 Q1339.3281,800.2949 1339.5313,800.2949 Q1339.8594,800.2949 1340.1094,800.5605 Q1340.375,800.8105 1340.375,801.1543 Q1340.375,801.498 1340.0313,801.9043 Q1339.5313,802.4824 1338.7344,802.8105 Q1337.6563,803.2637 1336.3594,803.2637 Q1334.8438,803.2637 1333.6406,802.6387 Q1332.6563,802.1387 1331.9688,801.0762 Q1331.2813,799.998 1331.2813,798.7168 L1331.2813,797.5605 Q1331.2813,796.2324 1331.8906,795.0918 Q1332.5156,793.9355 1333.6094,793.3262 Q1334.7031,792.7012 1335.9375,792.7012 Q1336.6719,792.7012 1337.3125,792.873 Q1337.9688,793.0293 1338.5156,793.3887 Z " fill="#000000"/><text fill="#000000" font-family="sans-serif" font-size="14" lengthAdjust="spacing" textLength="148" x="1356.25" y="803.3105">GreenSpaceRepository</text><line style="stroke:#181818;stroke-width:0.5;" x1="1228.5" x2="1599.5" y1="813.5137" y2="813.5137"/><rect fill="none" height="6" style="stroke:#C82930;stroke-width:1.0;" width="6" x="1235.5" y="825.3242"/><text fill="#000000" font-family="sans-serif" font-size="14" lengthAdjust="spacing" textLength="225" x="1247.5" y="832.6211">List &lt;GreenSpace&gt; greenSpaceList</text><line style="stroke:#181818;stroke-width:0.5;" x1="1228.5" x2="1599.5" y1="840.1348" y2="840.1348"/><rect fill="#F24D5C" height="6" style="stroke:#C82930;stroke-width:1.0;" width="6" x="1235.5" y="851.9453"/><text fill="#000000" font-family="sans-serif" font-size="14" lengthAdjust="spacing" textLength="191" x="1247.5" y="859.2422">addGreenSpace(greenSpace)</text><rect fill="#F24D5C" height="6" style="stroke:#C82930;stroke-width:1.0;" width="6" x="1235.5" y="870.5664"/><text fill="#000000" font-family="sans-serif" font-size="14" lengthAdjust="spacing" textLength="242" x="1247.5" y="877.8633">validationAllGreenSpace(greenSpace)</text><ellipse cx="1238.5" cy="892.1875" fill="#84BE84" rx="3" ry="3" style="stroke:#038048;stroke-width:1.0;"/><text fill="#000000" font-family="sans-serif" font-size="14" lengthAdjust="spacing" textLength="347" x="1247.5" y="896.4844">registerGreenSpace(name,area,streetName,postCode)</text></g><!--link Repositories to Repositories--><g id="link_Repositories_Repositories"><path codeLine="126" d="M1500.17,535.0337 C1520.5,537.0637 1535,543.0537 1535,553.0137 C1535,562.9737 1526.4703,568.3675 1506.1403,570.3975 " fill="none" id="Repositories-to-Repositories" style="stroke:#181818;stroke-width:1.0;"/><polygon fill="#181818" points="1500.17,570.9937,1509.5229,574.0797,1505.1453,570.4969,1508.728,566.1192,1500.17,570.9937" style="stroke:#181818;stroke-width:1.0;"/><text fill="#000000" font-family="sans-serif" font-size="13" lengthAdjust="spacing" textLength="49" x="1541" y="558.542">instance</text></g><!--link ApplicationSession to ApplicationSession--><g id="link_ApplicationSession_ApplicationSession"><path codeLine="127" d="M1811.21,534.4737 C1831.06,535.6537 1846,541.8337 1846,553.0137 C1846,564.1937 1837.0494,570.0176 1817.1994,571.1976 " fill="none" id="ApplicationSession-to-ApplicationSession" style="stroke:#181818;stroke-width:1.0;"/><polygon fill="#181818" points="1811.21,571.5537,1820.4315,575.0126,1816.2012,571.257,1819.9568,567.0267,1811.21,571.5537" style="stroke:#181818;stroke-width:1.0;"/><text fill="#000000" font-family="sans-serif" font-size="13" lengthAdjust="spacing" textLength="49" x="1852" y="558.542">instance</text></g><!--link RegisterGreenSpaceUI to RegisterGreenSpaceController--><g id="link_RegisterGreenSpaceUI_RegisterGreenSpaceController"><path codeLine="130" d="M1398,91.2837 C1398,113.6437 1398,142.1837 1398,170.9537 " fill="none" id="RegisterGreenSpaceUI-to-RegisterGreenSpaceController" style="stroke:#181818;stroke-width:1.0;stroke-dasharray:7.0,7.0;"/><polygon fill="#181818" points="1398,176.9537,1402,167.9537,1398,171.9537,1394,167.9537,1398,176.9537" style="stroke:#181818;stroke-width:1.0;"/></g><!--link RegisterGreenSpaceController to Repositories--><g id="link_RegisterGreenSpaceController_Repositories"><path codeLine="133" d="M1398,281.0337 C1398,338.3137 1398,425.1637 1398,485.9137 " fill="none" id="RegisterGreenSpaceController-to-Repositories" style="stroke:#181818;stroke-width:1.0;stroke-dasharray:7.0,7.0;"/><polygon fill="#181818" points="1398,491.9137,1402,482.9137,1398,486.9137,1394,482.9137,1398,491.9137" style="stroke:#181818;stroke-width:1.0;"/><text fill="#000000" font-family="sans-serif" font-size="13" lengthAdjust="spacing" textLength="67" x="1399" y="359.042">repositories</text></g><!--link RegisterGreenSpaceController to ApplicationSession--><g id="link_RegisterGreenSpaceController_ApplicationSession"><path codeLine="134" d="M1471.93,281.0937 C1516.21,313.3337 1572.38,357.2437 1617,402.0137 C1650.57,435.7037 1679.9261,474.0616 1702.2161,505.4516 " fill="none" id="RegisterGreenSpaceController-to-ApplicationSession" style="stroke:#181818;stroke-width:1.0;stroke-dasharray:7.0,7.0;"/><polygon fill="#181818" points="1705.69,510.3437,1703.7406,500.6897,1702.7951,506.2669,1697.2178,505.3215,1705.69,510.3437" style="stroke:#181818;stroke-width:1.0;"/></g><!--link RegisterGreenSpaceController to UserSession--><g id="link_RegisterGreenSpaceController_UserSession"><path codeLine="135" d="M1661.59,255.8437 C1754.92,279.1637 1850.84,322.4137 1908,402.0137 C2000.52,530.8537 1886.233,725.9083 1833.003,803.8783 " fill="none" id="RegisterGreenSpaceController-to-UserSession" style="stroke:#181818;stroke-width:1.0;stroke-dasharray:7.0,7.0;"/><polygon fill="#181818" points="1829.62,808.8337,1837.9981,803.656,1832.4392,804.7042,1831.3909,799.1453,1829.62,808.8337" style="stroke:#181818;stroke-width:1.0;"/></g><!--link RegisterGreenSpaceController to GreenSpaceRepository--><g id="link_RegisterGreenSpaceController_GreenSpaceRepository"><path codeLine="136" d="M1351.15,281.0537 C1282.43,362.4137 1168.5,526.2937 1227,663.0137 C1247.22,710.2637 1282.1068,747.1659 1319.6368,777.7159 " fill="none" id="RegisterGreenSpaceController-to-GreenSpaceRepository" style="stroke:#181818;stroke-width:1.0;stroke-dasharray:7.0,7.0;"/><polygon fill="#181818" points="1324.29,781.5037,1319.8354,772.7198,1320.4123,778.3472,1314.785,778.9241,1324.29,781.5037" style="stroke:#181818;stroke-width:1.0;"/></g><!--link RegisterGreenSpaceController to CollaboratorRepository--><g id="link_RegisterGreenSpaceController_CollaboratorRepository"><path codeLine="137" d="M1321.87,281.1037 C1281.2,311.8737 1233.23,354.2837 1202,402.0137 C1116.82,532.1737 1081.2155,711.9239 1068.5555,793.9239 " fill="none" id="RegisterGreenSpaceController-to-CollaboratorRepository" style="stroke:#181818;stroke-width:1.0;stroke-dasharray:7.0,7.0;"/><polygon fill="#181818" points="1067.64,799.8537,1072.9664,791.5694,1068.4029,794.9122,1065.0601,790.3487,1067.64,799.8537" style="stroke:#181818;stroke-width:1.0;"/></g><!--link RegisterGreenSpaceController to Collaborator--><g id="link_RegisterGreenSpaceController_Collaborator"><path codeLine="138" d="M1191.16,281.0537 C1101.92,308.6437 998.97,348.2837 915,402.0137 C783.05,486.4437 664.8921,613.8704 584.8121,711.2004 " fill="none" id="RegisterGreenSpaceController-to-Collaborator" style="stroke:#181818;stroke-width:1.0;stroke-dasharray:7.0,7.0;"/><polygon fill="#181818" points="581,715.8337,589.8071,711.4251,584.1768,711.9726,583.6293,706.3423,581,715.8337" style="stroke:#181818;stroke-width:1.0;"/></g><!--link RegisterGreenSpaceController to GreenSpace--><g id="link_RegisterGreenSpaceController_GreenSpace"><path codeLine="139" d="M1661.92,235.6037 C1829.11,246.6037 2014,276.0537 2014,352.5137 C2014,352.5137 2014,352.5137 2014,843.5137 C2014,1073.8537 1229.7893,1111.5002 880.5893,1116.9402 " fill="none" id="RegisterGreenSpaceController-to-GreenSpace" style="stroke:#181818;stroke-width:1.0;stroke-dasharray:7.0,7.0;"/><polygon fill="#181818" points="874.59,1117.0337,883.6512,1120.893,879.5894,1116.9558,883.5266,1112.894,874.59,1117.0337" style="stroke:#181818;stroke-width:1.0;"/></g><!--link ApplicationSession to UserSession--><g id="link_ApplicationSession_UserSession"><path codeLine="142" d="M1744.47,595.8137 C1758.9,653.4437 1783.1522,750.2735 1796.3022,802.7735 " fill="none" id="ApplicationSession-to-UserSession" style="stroke:#181818;stroke-width:1.0;"/><polygon fill="#181818" points="1797.76,808.5937,1799.4534,798.8915,1796.5451,803.7435,1791.6931,800.8352,1797.76,808.5937" style="stroke:#181818;stroke-width:1.0;"/><text fill="#000000" font-family="sans-serif" font-size="13" lengthAdjust="spacing" textLength="72" x="1760" y="659.042">userSession</text><text fill="#000000" font-family="sans-serif" font-size="13" lengthAdjust="spacing" textLength="7" x="1788.5954" y="797.8626">1</text></g><!--link Repositories to GreenSpaceRepository--><g id="link_Repositories_GreenSpaceRepository"><path codeLine="145" d="M1401.35,614.2837 C1404.08,663.3537 1407.5866,726.2829 1410.3166,775.3329 " fill="none" id="Repositories-to-GreenSpaceRepository" style="stroke:#181818;stroke-width:1.0;"/><polygon fill="#181818" points="1410.65,781.3237,1414.1437,772.1153,1410.3721,776.3314,1406.156,772.5599,1410.65,781.3237" style="stroke:#181818;stroke-width:1.0;"/><text fill="#000000" font-family="sans-serif" font-size="13" lengthAdjust="spacing" textLength="134" x="1404" y="659.042">GreenSpaceRepository</text><text fill="#000000" font-family="sans-serif" font-size="13" lengthAdjust="spacing" textLength="7" x="1402.858" y="770.2829">1</text></g><!--link Repositories to CollaboratorRepository--><g id="link_Repositories_CollaboratorRepository"><path codeLine="146" d="M1295.6,610.0737 C1266.68,627.9037 1236.03,648.8037 1210,671.0137 C1164.38,709.9337 1124.0647,758.4675 1096.0847,795.0575 " fill="none" id="Repositories-to-CollaboratorRepository" style="stroke:#181818;stroke-width:1.0;"/><polygon fill="#181818" points="1092.44,799.8237,1101.0844,795.1042,1095.4772,795.8519,1094.7295,790.2446,1092.44,799.8237" style="stroke:#181818;stroke-width:1.0;"/><text fill="#000000" font-family="sans-serif" font-size="13" lengthAdjust="spacing" textLength="131" x="1244" y="659.042">CollaboratorRepository</text><text fill="#000000" font-family="sans-serif" font-size="13" lengthAdjust="spacing" textLength="7" x="1089.7336" y="788.6975">1</text></g><!--link CollaboratorRepository to Collaborator--><g id="link_CollaboratorRepository_Collaborator"><path codeLine="149" d="M931.35,842.5137 C899.78,842.5137 870.57,842.5137 834.14,842.5137 " fill="none" id="CollaboratorRepository-to-Collaborator" style="stroke:#181818;stroke-width:1.0;"/><polygon fill="#181818" points="828.14,842.5137,837.14,846.5137,833.14,842.5137,837.14,838.5137,828.14,842.5137" style="stroke:#181818;stroke-width:1.0;"/><text fill="#000000" font-family="sans-serif" font-size="13" lengthAdjust="spacing" textLength="67" x="846.25" y="835.542">collaborator</text><text fill="#000000" font-family="sans-serif" font-size="13" lengthAdjust="spacing" textLength="7" x="916.5945" y="839.052">1</text><text fill="#000000" font-family="sans-serif" font-size="13" lengthAdjust="spacing" textLength="5" x="836.2409" y="839.3482">*</text></g><!--link GreenSpaceRepository to GreenSpace--><g id="link_GreenSpaceRepository_GreenSpace"><path codeLine="152" d="M1327.4,903.7437 C1292.12,926.4037 1250.23,951.0137 1210,969.0137 C1101.91,1017.3737 979.5631,1053.6876 880.3231,1079.0576 " fill="none" id="GreenSpaceRepository-to-GreenSpace" style="stroke:#181818;stroke-width:1.0;"/><polygon fill="#181818" points="874.51,1080.5437,884.2203,1082.1899,879.3542,1079.3053,882.2389,1074.4392,874.51,1080.5437" style="stroke:#181818;stroke-width:1.0;"/><text fill="#000000" font-family="sans-serif" font-size="13" lengthAdjust="spacing" textLength="69" x="1132" y="1014.042">greenSpace</text><text fill="#000000" font-family="sans-serif" font-size="13" lengthAdjust="spacing" textLength="7" x="1309.9822" y="925.8233">1</text><text fill="#000000" font-family="sans-serif" font-size="13" lengthAdjust="spacing" textLength="5" x="882.5027" y="1075.3256">*</text></g><!--reverse link Collaborator to GreenSpaceManager--><g id="link_Collaborator_GreenSpaceManager"><path codeLine="155" d="M370.7886,983.2205 C342.7286,1017.5505 325.28,1038.8837 302.78,1066.4037 " fill="none" id="Collaborator-backto-GreenSpaceManager" style="stroke:#181818;stroke-width:1.0;"/><polygon fill="none" points="382.18,969.2837,366.143,979.4234,375.4342,987.0177,382.18,969.2837" style="stroke:#181818;stroke-width:1.0;"/></g><!--reverse link GreenSpaceManager to GreenSpace--><g id="link_GreenSpaceManager_GreenSpace"><path codeLine="158" d="M418.75,1118.5137 C462.62,1118.5137 504.67,1118.5137 549.19,1118.5137 " fill="none" id="GreenSpaceManager-backto-GreenSpace" style="stroke:#181818;stroke-width:1.0;"/><polygon fill="#181818" points="412.75,1118.5137,421.75,1122.5137,417.75,1118.5137,421.75,1114.5137,412.75,1118.5137" style="stroke:#181818;stroke-width:1.0;"/><text fill="#000000" font-family="sans-serif" font-size="13" lengthAdjust="spacing" textLength="100" x="431" y="1111.542">register/manages</text><text fill="#000000" font-family="sans-serif" font-size="13" lengthAdjust="spacing" textLength="5" x="536.6994" y="1115.161">*</text></g><!--reverse link GreenSpace to Garden--><g id="link_GreenSpace_Garden"><path codeLine="161" d="M611.6916,1200.8244 C582.4416,1225.1544 563.75,1241.5037 535,1268.0137 C518.99,1282.7737 501.92,1299.9037 487.84,1314.4237 " fill="none" id="GreenSpace-backto-Garden" style="stroke:#181818;stroke-width:1.0;"/><polygon fill="none" points="625.53,1189.3137,607.8546,1196.2116,615.5285,1205.4372,625.53,1189.3137" style="stroke:#181818;stroke-width:1.0;"/></g><!--reverse link GreenSpace to MediumPark--><g id="link_GreenSpace_MediumPark"><path codeLine="162" d="M679.6197,1206.1751 C664.0497,1247.8451 651.31,1281.9437 639.17,1314.4437 " fill="none" id="GreenSpace-backto-MediumPark" style="stroke:#181818;stroke-width:1.0;"/><polygon fill="none" points="685.92,1189.3137,673.9993,1204.075,685.2402,1208.2752,685.92,1189.3137" style="stroke:#181818;stroke-width:1.0;"/></g><!--reverse link GreenSpace to LargePark--><g id="link_GreenSpace_LargePark"><path codeLine="163" d="M747.7146,1205.9492 C764.9346,1247.6192 779.11,1281.9437 792.54,1314.4437 " fill="none" id="GreenSpace-backto-LargePark" style="stroke:#181818;stroke-width:1.0;"/><polygon fill="none" points="740.84,1189.3137,742.1694,1208.2407,753.2597,1203.6577,740.84,1189.3137" style="stroke:#181818;stroke-width:1.0;"/></g><!--reverse link GreenSpace to Address--><g id="link_GreenSpace_Address"><path codeLine="165" d="M545.2159,1194.0635 C489.6159,1218.9335 437.48,1242.2637 380,1268.0137 C374.04,1270.6837 367.97,1273.4037 361.83,1276.1537 " fill="none" id="GreenSpace-backto-Address" style="stroke:#181818;stroke-width:1.0;"/><polygon fill="#181818" points="556.17,1189.1637,549.0597,1187.9622,545.2159,1194.0635,552.3262,1195.2649,556.17,1189.1637" style="stroke:#181818;stroke-width:1.0;"/><text fill="#000000" font-family="sans-serif" font-size="13" lengthAdjust="spacing" textLength="70" x="481" y="1234.042">is located in</text><text fill="#000000" font-family="sans-serif" font-size="13" lengthAdjust="spacing" textLength="7" x="534.4818" y="1210.4972">1</text><text fill="#000000" font-family="sans-serif" font-size="13" lengthAdjust="spacing" textLength="7" x="369.6444" y="1269.3032">1</text></g><!--SRC=[bLVDRjiu4BxhAGXVOhTo5hqQXe4qRGCNJRUeaGUWfOdCXY85YjxMtSsxxr2YJKga95SNIvnl_Z-IuvlwXOcAAbgIKWgP7PGiWMXrXCH9Afgzq09s-iI1ACWq5GNt0VM1vl8d4mLvfhps9Pm9qASAY5HQ9fuWuxIkxxHMR7_KiCsasB7VG6RlPabY_P7PqtP6rkjFakUWDXloRqBmQJJ9ToXOhK4zA02nGmrusbh0Q_AQU4RkfT1ASWwgPspKcjEoLitpTXGuBowBtw6IDTDIdLAIeP3kfQBuwTONdb4L69sRcgM2bf1I1JIjDOhqL_ED1lIzpC4PM982zCFkyHFsRWTrpQIOBn9R2bEB6mxFccX952iEckJCz11HhaOVP4cPYDMd1xczgohECchKOt1NKWzeWxe0N47R_6kDiCnaiHNuBZ3_HG-2ilkZKY2qo_0iVUsxVgf1JVb4WmRs4PFY7LkUnNxkZrXsFfwrQs7FuvBiaEkuGqnJUn8cD35jxYtVvRd2B99Uv1vBhYH8Q-uVobdUzCEpC5B5Uu-tlMGQWqFvDC8lIEZrxeLnlY6r-GaXd-MU_93xKF21QY0OAVpz_9ufVHX0qBnaJO_DLuYnrKDOMyNGYCoE9HAAvFPbCCNg80LyFPPxK8COC4GAfQQrclwgw0br0_7RJf7RTfgQf7xwQJVJz9nHUWayzIDCsr3IYzkH5fzhrAEgJSbnAWboEfCibEHIAbkhBd6jixb7rOkPr5DRNA_MexXbE9nLRA562k1smYCLkDLLi6iR8ZlOXfGDi6wMld5SCeZXFMhj1WSQncOKhTZRaUvraOm4JbKEed-ejQlp-bYDjlqHSdOilr7rqZVW99D6lb1LGCp6HH2Q63bRtSquVi1US0ngNzfsovV6xX1tlv1L1nn27oANUVHQYbxlrnwiJYFAFBBsmPlEB17ZNI-UzwVsVYiyJbsn5oQ3ylU3inq6j3GqzxWTYwD_ETrnVeL6T6YwyZfyTLFYpJ9ypXo9Y98E-vQRBXjNU96tgaau_1XqPDNJYGRpj8s74Hb-Rsyte-Dft86JN-V8cujlMu-T2YX_JqrhHuR4QIL_l9j6nsXzXLfya_wXuX-55-zFMA5Ods9yGyBXloc_MjYVerUxg3-_dzCxmFg87XsheT9730mSYQkXDWnGEOQD9J7WpaHYzkdiJJSYZCC_UEFUOyd6V4ThPJnRnzu_Y9Ltk4wdF9KeMV-tN8QJoKWsf0t30iUJESzFwsMOnVce_ilEJbC57FTaysX6dM3P3J21w3AN9Bx8LFuDIitlUHp6GxacNE9-WXpFvmIV_m40]--></g></svg>