<?xml version="1.0" encoding="us-ascii" standalone="no"?><svg xmlns="http://www.w3.org/2000/svg" xmlns:xlink="http://www.w3.org/1999/xlink" contentStyleType="text/css" height="1605px" preserveAspectRatio="none" style="width:3033px;height:1605px;background:#FFFFFF;" version="1.1" viewBox="0 0 3033 1605" width="3033px" zoomAndPan="magnify"><defs/><g><text fill="#000000" font-family="sans-serif" font-size="14" font-weight="bold" lengthAdjust="spacing" textLength="420" x="1306.25" y="30.1074">UI Sequence Diagram (SSD) - US20 - Register a Green Space</text><rect fill="#FFFFFF" height="1371.291" style="stroke:#181818;stroke-width:1.0;" width="10" x="97.5" y="133.2422"/><rect fill="#FFFFFF" height="31.291" style="stroke:#181818;stroke-width:1.0;" width="10" x="527.5" y="156.5332"/><rect fill="#FFFFFF" height="31.291" style="stroke:#181818;stroke-width:1.0;" width="10" x="527.5" y="219.1152"/><rect fill="#FFFFFF" height="31.291" style="stroke:#181818;stroke-width:1.0;" width="10" x="527.5" y="281.6973"/><rect fill="#FFFFFF" height="1160.2539" style="stroke:#181818;stroke-width:1.0;" width="10" x="527.5" y="344.2793"/><rect fill="#FFFFFF" height="1097.6719" style="stroke:#181818;stroke-width:1.0;" width="10" x="1024.5" y="375.5703"/><rect fill="#FFFFFF" height="90.543" style="stroke:#181818;stroke-width:1.0;" width="10" x="1029.5" y="414.8613"/><rect fill="#FFFFFF" height="31.291" style="stroke:#181818;stroke-width:1.0;" width="10" x="1192.5" y="543.6953"/><rect fill="#FFFFFF" height="31.291" style="stroke:#181818;stroke-width:1.0;" width="10" x="1299.5" y="606.2773"/><rect fill="#FFFFFF" height="710.5098" style="stroke:#181818;stroke-width:1.0;" width="10" x="1624.5" y="668.8594"/><rect fill="#FFFFFF" height="130.873" style="stroke:#181818;stroke-width:1.0;" width="10" x="1629.5" y="1210.2051"/><rect fill="#FFFFFF" height="42.291" style="stroke:#181818;stroke-width:1.0;" width="10" x="1634.5" y="1254.4961"/><rect fill="#FFFFFF" height="460.7637" style="stroke:#181818;stroke-width:1.0;" width="10" x="2194.5" y="710.1504"/><rect fill="#FFFFFF" height="322.9395" style="stroke:#181818;stroke-width:1.0;" width="10" x="2625.5" y="772.3926"/><rect fill="#FFFFFF" height="42.291" style="stroke:#181818;stroke-width:1.0;" width="10" x="2630.5" y="1014.75"/><rect fill="#FFFFFF" height="31.291" style="stroke:#181818;stroke-width:1.0;" width="10" x="2747.5" y="1410.6602"/><rect fill="#FFFFFF" height="140.8242" style="stroke:#181818;stroke-width:1.0;" width="10" x="2925.5" y="834.6348"/><rect fill="#FFFFFF" height="42.291" style="stroke:#181818;stroke-width:1.0;" width="10" x="2930.5" y="894.877"/><line style="stroke:#181818;stroke-width:0.5;stroke-dasharray:5.0,5.0;" x1="102" x2="102" y1="123.2422" y2="1522.5332"/><line style="stroke:#181818;stroke-width:0.5;stroke-dasharray:5.0,5.0;" x1="532" x2="532" y1="123.2422" y2="1522.5332"/><line style="stroke:#181818;stroke-width:0.5;stroke-dasharray:5.0,5.0;" x1="1029" x2="1029" y1="123.2422" y2="1522.5332"/><line style="stroke:#181818;stroke-width:0.5;stroke-dasharray:5.0,5.0;" x1="1197" x2="1197" y1="123.2422" y2="1522.5332"/><line style="stroke:#181818;stroke-width:0.5;stroke-dasharray:5.0,5.0;" x1="1304" x2="1304" y1="123.2422" y2="1522.5332"/><line style="stroke:#181818;stroke-width:0.5;stroke-dasharray:5.0,5.0;" x1="1629.5" x2="1629.5" y1="123.2422" y2="1522.5332"/><line style="stroke:#181818;stroke-width:0.5;stroke-dasharray:5.0,5.0;" x1="2199.5" x2="2199.5" y1="717.9805" y2="1522.5332"/><line style="stroke:#181818;stroke-width:0.5;stroke-dasharray:5.0,5.0;" x1="2630.5" x2="2630.5" y1="780.2227" y2="1522.5332"/><line style="stroke:#181818;stroke-width:0.5;stroke-dasharray:5.0,5.0;" x1="2752.5" x2="2752.5" y1="123.2422" y2="1522.5332"/><line style="stroke:#181818;stroke-width:0.5;stroke-dasharray:5.0,5.0;" x1="2930.5" x2="2930.5" y1="842.4648" y2="1522.5332"/><text fill="#000000" font-family="sans-serif" font-size="14" lengthAdjust="spacing" textLength="189" x="5" y="119.7285">Green Space Manager (GSM)</text><ellipse cx="102.5" cy="53.1211" fill="#E3E3E3" rx="8" ry="8" style="stroke:#181818;stroke-width:0.5;"/><path d="M102.5,61.1211 L102.5,88.1211 M89.5,69.1211 L115.5,69.1211 M102.5,88.1211 L89.5,103.1211 M102.5,88.1211 L115.5,103.1211 " fill="none" style="stroke:#181818;stroke-width:0.5;"/><text fill="#000000" font-family="sans-serif" font-size="14" lengthAdjust="spacing" textLength="189" x="5" y="1536.6406">Green Space Manager (GSM)</text><ellipse cx="102.5" cy="1548.6543" fill="#E3E3E3" rx="8" ry="8" style="stroke:#181818;stroke-width:0.5;"/><path d="M102.5,1556.6543 L102.5,1583.6543 M89.5,1564.6543 L115.5,1564.6543 M102.5,1583.6543 L89.5,1598.6543 M102.5,1583.6543 L115.5,1598.6543 " fill="none" style="stroke:#181818;stroke-width:0.5;"/><rect fill="#E3E3E3" height="32.6211" rx="2.5" ry="2.5" style="stroke:#181818;stroke-width:0.5;" width="163" x="451" y="89.6211"/><text fill="#000000" font-family="sans-serif" font-size="14" lengthAdjust="spacing" textLength="149" x="458" y="111.7285">:RegisterGreenSpaceUI</text><rect fill="#E3E3E3" height="32.6211" rx="2.5" ry="2.5" style="stroke:#181818;stroke-width:0.5;" width="163" x="451" y="1521.5332"/><text fill="#000000" font-family="sans-serif" font-size="14" lengthAdjust="spacing" textLength="149" x="458" y="1543.6406">:RegisterGreenSpaceUI</text><rect fill="#E3E3E3" height="32.6211" rx="2.5" ry="2.5" style="stroke:#181818;stroke-width:0.5;" width="213" x="923" y="89.6211"/><text fill="#000000" font-family="sans-serif" font-size="14" lengthAdjust="spacing" textLength="199" x="930" y="111.7285">:RegisterGreenSpaceController</text><rect fill="#E3E3E3" height="32.6211" rx="2.5" ry="2.5" style="stroke:#181818;stroke-width:0.5;" width="213" x="923" y="1521.5332"/><text fill="#000000" font-family="sans-serif" font-size="14" lengthAdjust="spacing" textLength="199" x="930" y="1543.6406">:RegisterGreenSpaceController</text><rect fill="#E3E3E3" height="32.6211" rx="2.5" ry="2.5" style="stroke:#181818;stroke-width:0.5;" width="97" x="1149" y="89.6211"/><text fill="#000000" font-family="sans-serif" font-size="14" lengthAdjust="spacing" textLength="83" x="1156" y="111.7285">:Repositories</text><rect fill="#E3E3E3" height="32.6211" rx="2.5" ry="2.5" style="stroke:#181818;stroke-width:0.5;" width="97" x="1149" y="1521.5332"/><text fill="#000000" font-family="sans-serif" font-size="14" lengthAdjust="spacing" textLength="83" x="1156" y="1543.6406">:Repositories</text><rect fill="#E3E3E3" height="51.2422" rx="2.5" ry="2.5" style="stroke:#181818;stroke-width:0.5;" width="97" x="1256" y="71"/><text fill="#000000" font-family="sans-serif" font-size="14" lengthAdjust="spacing" textLength="74" x="1267.5" y="93.1074">repositories</text><text fill="#000000" font-family="sans-serif" font-size="14" lengthAdjust="spacing" textLength="83" x="1263" y="111.7285">:Repositories</text><rect fill="#E3E3E3" height="51.2422" rx="2.5" ry="2.5" style="stroke:#181818;stroke-width:0.5;" width="97" x="1256" y="1521.5332"/><text fill="#000000" font-family="sans-serif" font-size="14" lengthAdjust="spacing" textLength="74" x="1267.5" y="1543.6406">repositories</text><text fill="#000000" font-family="sans-serif" font-size="14" lengthAdjust="spacing" textLength="83" x="1263" y="1562.2617">:Repositories</text><rect fill="#E3E3E3" height="51.2422" rx="2.5" ry="2.5" style="stroke:#181818;stroke-width:0.5;" width="166" x="1546.5" y="71"/><text fill="#000000" font-family="sans-serif" font-size="14" lengthAdjust="spacing" textLength="145" x="1557" y="93.1074">greenSpaceRepository</text><text fill="#000000" font-family="sans-serif" font-size="14" lengthAdjust="spacing" textLength="152" x="1553.5" y="111.7285">:GreenSpaceRepository</text><rect fill="#E3E3E3" height="51.2422" rx="2.5" ry="2.5" style="stroke:#181818;stroke-width:0.5;" width="166" x="1546.5" y="1521.5332"/><text fill="#000000" font-family="sans-serif" font-size="14" lengthAdjust="spacing" textLength="145" x="1557" y="1543.6406">greenSpaceRepository</text><text fill="#000000" font-family="sans-serif" font-size="14" lengthAdjust="spacing" textLength="152" x="1553.5" y="1562.2617">:GreenSpaceRepository</text><rect fill="#E3E3E3" height="51.2422" rx="2.5" ry="2.5" style="stroke:#181818;stroke-width:0.5;" width="98" x="2150.5" y="1521.5332"/><text fill="#000000" font-family="sans-serif" font-size="14" lengthAdjust="spacing" textLength="77" x="2161" y="1543.6406">greenSpace</text><text fill="#000000" font-family="sans-serif" font-size="14" lengthAdjust="spacing" textLength="84" x="2157.5" y="1562.2617">:GreenSpace</text><rect fill="#E3E3E3" height="51.2422" rx="2.5" ry="2.5" style="stroke:#181818;stroke-width:0.5;" width="70" x="2595.5" y="1521.5332"/><text fill="#000000" font-family="sans-serif" font-size="14" lengthAdjust="spacing" textLength="51" x="2605" y="1543.6406">address</text><text fill="#000000" font-family="sans-serif" font-size="14" lengthAdjust="spacing" textLength="56" x="2602.5" y="1562.2617">:Address</text><rect fill="#E3E3E3" height="51.2422" rx="2.5" ry="2.5" style="stroke:#181818;stroke-width:0.5;" width="154" x="2675.5" y="71"/><text fill="#000000" font-family="sans-serif" font-size="14" lengthAdjust="spacing" textLength="133" x="2686" y="93.1074">greenSpaceManager</text><text fill="#000000" font-family="sans-serif" font-size="14" lengthAdjust="spacing" textLength="140" x="2682.5" y="111.7285">:GreenSpaceManager</text><rect fill="#E3E3E3" height="51.2422" rx="2.5" ry="2.5" style="stroke:#181818;stroke-width:0.5;" width="154" x="2675.5" y="1521.5332"/><text fill="#000000" font-family="sans-serif" font-size="14" lengthAdjust="spacing" textLength="133" x="2686" y="1543.6406">greenSpaceManager</text><text fill="#000000" font-family="sans-serif" font-size="14" lengthAdjust="spacing" textLength="140" x="2682.5" y="1562.2617">:GreenSpaceManager</text><rect fill="#E3E3E3" height="51.2422" rx="2.5" ry="2.5" style="stroke:#181818;stroke-width:0.5;" width="80" x="2890.5" y="1521.5332"/><text fill="#000000" font-family="sans-serif" font-size="14" lengthAdjust="spacing" textLength="61" x="2900" y="1543.6406">postCode</text><text fill="#000000" font-family="sans-serif" font-size="14" lengthAdjust="spacing" textLength="66" x="2897.5" y="1562.2617">:PostCode</text><rect fill="#FFFFFF" height="1371.291" style="stroke:#181818;stroke-width:1.0;" width="10" x="97.5" y="133.2422"/><rect fill="#FFFFFF" height="31.291" style="stroke:#181818;stroke-width:1.0;" width="10" x="527.5" y="156.5332"/><rect fill="#FFFFFF" height="31.291" style="stroke:#181818;stroke-width:1.0;" width="10" x="527.5" y="219.1152"/><rect fill="#FFFFFF" height="31.291" style="stroke:#181818;stroke-width:1.0;" width="10" x="527.5" y="281.6973"/><rect fill="#FFFFFF" height="1160.2539" style="stroke:#181818;stroke-width:1.0;" width="10" x="527.5" y="344.2793"/><rect fill="#FFFFFF" height="1097.6719" style="stroke:#181818;stroke-width:1.0;" width="10" x="1024.5" y="375.5703"/><rect fill="#FFFFFF" height="90.543" style="stroke:#181818;stroke-width:1.0;" width="10" x="1029.5" y="414.8613"/><rect fill="#FFFFFF" height="31.291" style="stroke:#181818;stroke-width:1.0;" width="10" x="1192.5" y="543.6953"/><rect fill="#FFFFFF" height="31.291" style="stroke:#181818;stroke-width:1.0;" width="10" x="1299.5" y="606.2773"/><rect fill="#FFFFFF" height="710.5098" style="stroke:#181818;stroke-width:1.0;" width="10" x="1624.5" y="668.8594"/><rect fill="#FFFFFF" height="130.873" style="stroke:#181818;stroke-width:1.0;" width="10" x="1629.5" y="1210.2051"/><rect fill="#FFFFFF" height="42.291" style="stroke:#181818;stroke-width:1.0;" width="10" x="1634.5" y="1254.4961"/><rect fill="#FFFFFF" height="460.7637" style="stroke:#181818;stroke-width:1.0;" width="10" x="2194.5" y="710.1504"/><rect fill="#FFFFFF" height="322.9395" style="stroke:#181818;stroke-width:1.0;" width="10" x="2625.5" y="772.3926"/><rect fill="#FFFFFF" height="42.291" style="stroke:#181818;stroke-width:1.0;" width="10" x="2630.5" y="1014.75"/><rect fill="#FFFFFF" height="31.291" style="stroke:#181818;stroke-width:1.0;" width="10" x="2747.5" y="1410.6602"/><rect fill="#FFFFFF" height="140.8242" style="stroke:#181818;stroke-width:1.0;" width="10" x="2925.5" y="834.6348"/><rect fill="#FFFFFF" height="42.291" style="stroke:#181818;stroke-width:1.0;" width="10" x="2930.5" y="894.877"/><polygon fill="#181818" points="515.5,152.5332,525.5,156.5332,515.5,160.5332,519.5,156.5332" style="stroke:#181818;stroke-width:1.0;"/><line style="stroke:#181818;stroke-width:1.0;" x1="107.5" x2="521.5" y1="156.5332" y2="156.5332"/><text fill="#000000" font-family="sans-serif" font-size="13" font-weight="bold" lengthAdjust="spacing" textLength="7" x="114.5" y="151.2705">1</text><text fill="#000000" font-family="sans-serif" font-size="13" lengthAdjust="spacing" textLength="205" x="125.5" y="151.2705">asks to register a new green Space</text><polygon fill="#181818" points="118.5,183.8242,108.5,187.8242,118.5,191.8242,114.5,187.8242" style="stroke:#181818;stroke-width:1.0;"/><line style="stroke:#181818;stroke-width:1.0;stroke-dasharray:2.0,2.0;" x1="112.5" x2="531.5" y1="187.8242" y2="187.8242"/><text fill="#000000" font-family="sans-serif" font-size="13" font-weight="bold" lengthAdjust="spacing" textLength="7" x="124.5" y="182.5615">2</text><text fill="#000000" font-family="sans-serif" font-size="13" lengthAdjust="spacing" textLength="270" x="135.5" y="182.5615">shows type green space and ask to select one</text><polygon fill="#181818" points="515.5,215.1152,525.5,219.1152,515.5,223.1152,519.5,219.1152" style="stroke:#181818;stroke-width:1.0;"/><line style="stroke:#181818;stroke-width:1.0;" x1="107.5" x2="521.5" y1="219.1152" y2="219.1152"/><text fill="#000000" font-family="sans-serif" font-size="13" font-weight="bold" lengthAdjust="spacing" textLength="7" x="114.5" y="213.8525">3</text><text fill="#000000" font-family="sans-serif" font-size="13" lengthAdjust="spacing" textLength="82" x="125.5" y="213.8525">selects a type</text><polygon fill="#181818" points="118.5,246.4063,108.5,250.4063,118.5,254.4063,114.5,250.4063" style="stroke:#181818;stroke-width:1.0;"/><line style="stroke:#181818;stroke-width:1.0;stroke-dasharray:2.0,2.0;" x1="112.5" x2="531.5" y1="250.4063" y2="250.4063"/><text fill="#000000" font-family="sans-serif" font-size="13" font-weight="bold" lengthAdjust="spacing" textLength="7" x="124.5" y="245.1436">4</text><text fill="#000000" font-family="sans-serif" font-size="13" lengthAdjust="spacing" textLength="385" x="135.5" y="245.1436">request data(name,area,streetName,postCodeNumber,localization)</text><polygon fill="#181818" points="515.5,277.6973,525.5,281.6973,515.5,285.6973,519.5,281.6973" style="stroke:#181818;stroke-width:1.0;"/><line style="stroke:#181818;stroke-width:1.0;" x1="107.5" x2="521.5" y1="281.6973" y2="281.6973"/><text fill="#000000" font-family="sans-serif" font-size="13" font-weight="bold" lengthAdjust="spacing" textLength="7" x="114.5" y="276.4346">5</text><text fill="#000000" font-family="sans-serif" font-size="13" lengthAdjust="spacing" textLength="108" x="125.5" y="276.4346">types request data</text><polygon fill="#181818" points="118.5,308.9883,108.5,312.9883,118.5,316.9883,114.5,312.9883" style="stroke:#181818;stroke-width:1.0;"/><line style="stroke:#181818;stroke-width:1.0;stroke-dasharray:2.0,2.0;" x1="112.5" x2="531.5" y1="312.9883" y2="312.9883"/><text fill="#000000" font-family="sans-serif" font-size="13" font-weight="bold" lengthAdjust="spacing" textLength="7" x="124.5" y="307.7256">6</text><text fill="#000000" font-family="sans-serif" font-size="13" lengthAdjust="spacing" textLength="238" x="135.5" y="307.7256">display the data and request confirmation</text><polygon fill="#181818" points="515.5,340.2793,525.5,344.2793,515.5,348.2793,519.5,344.2793" style="stroke:#181818;stroke-width:1.0;"/><line style="stroke:#181818;stroke-width:1.0;" x1="107.5" x2="521.5" y1="344.2793" y2="344.2793"/><text fill="#000000" font-family="sans-serif" font-size="13" font-weight="bold" lengthAdjust="spacing" textLength="7" x="114.5" y="339.0166">7</text><text fill="#000000" font-family="sans-serif" font-size="13" lengthAdjust="spacing" textLength="153" x="125.5" y="339.0166">confirms and submits data</text><polygon fill="#181818" points="1012.5,371.5703,1022.5,375.5703,1012.5,379.5703,1016.5,375.5703" style="stroke:#181818;stroke-width:1.0;"/><line style="stroke:#181818;stroke-width:1.0;" x1="537.5" x2="1018.5" y1="375.5703" y2="375.5703"/><text fill="#000000" font-family="sans-serif" font-size="13" font-weight="bold" lengthAdjust="spacing" textLength="7" x="544.5" y="370.3076">8</text><text fill="#000000" font-family="sans-serif" font-size="13" lengthAdjust="spacing" textLength="457" x="555.5" y="370.3076">registerGreenSpace(type,name,area,streetName,postCodeNumber,localization)</text><line style="stroke:#181818;stroke-width:1.0;" x1="1034.5" x2="1081.5" y1="401.8613" y2="401.8613"/><line style="stroke:#181818;stroke-width:1.0;" x1="1081.5" x2="1081.5" y1="401.8613" y2="414.8613"/><line style="stroke:#181818;stroke-width:1.0;" x1="1040.5" x2="1081.5" y1="414.8613" y2="414.8613"/><polygon fill="#181818" points="1050.5,410.8613,1040.5,414.8613,1050.5,418.8613,1046.5,414.8613" style="stroke:#181818;stroke-width:1.0;"/><text fill="#000000" font-family="sans-serif" font-size="13" font-weight="bold" lengthAdjust="spacing" textLength="7" x="1046.5" y="396.5986">9</text><text fill="#000000" font-family="sans-serif" font-size="13" lengthAdjust="spacing" textLength="133" x="1057.5" y="396.5986">getGSMFromSession()</text><rect fill="none" height="43.252" style="stroke:#000000;stroke-width:1.5;" width="219" x="920" y="427.8613"/><path d="M920,427.8613 L982,427.8613 L982,436.8613 L972,446.8613 L920,446.8613 L920,427.8613 " fill="#EEEEEE" style="stroke:#000000;stroke-width:2.0;"/><text fill="#000000" font-family="sans-serif" font-size="13" font-weight="bold" lengthAdjust="spacing" textLength="17" x="933" y="443.8896">ref</text><text fill="#000000" font-family="sans-serif" font-size="12" lengthAdjust="spacing" textLength="139" x="960" y="463.8105">Get GreenSpaceManager</text><line style="stroke:#181818;stroke-width:1.0;stroke-dasharray:2.0,2.0;" x1="1039.5" x2="1081.5" y1="504.4043" y2="504.4043"/><line style="stroke:#181818;stroke-width:1.0;stroke-dasharray:2.0,2.0;" x1="1081.5" x2="1081.5" y1="504.4043" y2="517.4043"/><line style="stroke:#181818;stroke-width:1.0;stroke-dasharray:2.0,2.0;" x1="1034.5" x2="1081.5" y1="517.4043" y2="517.4043"/><polygon fill="#181818" points="1044.5,513.4043,1034.5,517.4043,1044.5,521.4043,1040.5,517.4043" style="stroke:#181818;stroke-width:1.0;"/><text fill="#000000" font-family="sans-serif" font-size="13" font-weight="bold" lengthAdjust="spacing" textLength="14" x="1046.5" y="499.1416">10</text><text fill="#000000" font-family="sans-serif" font-size="13" lengthAdjust="spacing" textLength="119" x="1064.5" y="499.1416">greenSpaceManager</text><polygon fill="#181818" points="1180.5,539.6953,1190.5,543.6953,1180.5,547.6953,1184.5,543.6953" style="stroke:#181818;stroke-width:1.0;"/><line style="stroke:#181818;stroke-width:1.0;" x1="1034.5" x2="1186.5" y1="543.6953" y2="543.6953"/><text fill="#000000" font-family="sans-serif" font-size="13" font-weight="bold" lengthAdjust="spacing" textLength="14" x="1041.5" y="538.4326">11</text><text fill="#000000" font-family="sans-serif" font-size="13" lengthAdjust="spacing" textLength="75" x="1059.5" y="538.4326">getInstance()</text><polygon fill="#181818" points="1045.5,570.9863,1035.5,574.9863,1045.5,578.9863,1041.5,574.9863" style="stroke:#181818;stroke-width:1.0;"/><line style="stroke:#181818;stroke-width:1.0;stroke-dasharray:2.0,2.0;" x1="1039.5" x2="1196.5" y1="574.9863" y2="574.9863"/><text fill="#000000" font-family="sans-serif" font-size="13" font-weight="bold" lengthAdjust="spacing" textLength="14" x="1051.5" y="569.7236">12</text><text fill="#000000" font-family="sans-serif" font-size="13" lengthAdjust="spacing" textLength="67" x="1069.5" y="569.7236">repositories</text><polygon fill="#181818" points="1287.5,602.2773,1297.5,606.2773,1287.5,610.2773,1291.5,606.2773" style="stroke:#181818;stroke-width:1.0;"/><line style="stroke:#181818;stroke-width:1.0;" x1="1034.5" x2="1293.5" y1="606.2773" y2="606.2773"/><text fill="#000000" font-family="sans-serif" font-size="13" font-weight="bold" lengthAdjust="spacing" textLength="14" x="1041.5" y="601.0146">13</text><text fill="#000000" font-family="sans-serif" font-size="13" lengthAdjust="spacing" textLength="160" x="1059.5" y="601.0146">getGreenSpaceRepository()</text><polygon fill="#181818" points="1045.5,633.5684,1035.5,637.5684,1045.5,641.5684,1041.5,637.5684" style="stroke:#181818;stroke-width:1.0;"/><line style="stroke:#181818;stroke-width:1.0;stroke-dasharray:2.0,2.0;" x1="1039.5" x2="1303.5" y1="637.5684" y2="637.5684"/><text fill="#000000" font-family="sans-serif" font-size="13" font-weight="bold" lengthAdjust="spacing" textLength="14" x="1051.5" y="632.3057">14</text><text fill="#000000" font-family="sans-serif" font-size="13" lengthAdjust="spacing" textLength="131" x="1069.5" y="632.3057">greenSpaceRepository</text><polygon fill="#181818" points="1612.5,664.8594,1622.5,668.8594,1612.5,672.8594,1616.5,668.8594" style="stroke:#181818;stroke-width:1.0;"/><line style="stroke:#181818;stroke-width:1.0;" x1="1034.5" x2="1618.5" y1="668.8594" y2="668.8594"/><text fill="#000000" font-family="sans-serif" font-size="13" font-weight="bold" lengthAdjust="spacing" textLength="14" x="1041.5" y="663.5967">15</text><text fill="#000000" font-family="sans-serif" font-size="13" lengthAdjust="spacing" textLength="553" x="1059.5" y="663.5967">registerGreenSpace(name,area,Address(streetName, PostCode(postCodeNumber,localization)))</text><polygon fill="#181818" points="2138.5,696.1504,2148.5,700.1504,2138.5,704.1504,2142.5,700.1504" style="stroke:#181818;stroke-width:1.0;"/><line style="stroke:#181818;stroke-width:1.0;" x1="1634.5" x2="2144.5" y1="700.1504" y2="700.1504"/><text fill="#000000" font-family="sans-serif" font-size="13" font-weight="bold" lengthAdjust="spacing" textLength="14" x="1641.5" y="694.8877">16</text><text fill="#000000" font-family="sans-serif" font-size="13" lengthAdjust="spacing" textLength="474" x="1659.5" y="694.8877">create(name,area,Address(streetName, PostCode(postCodeNumber,localization)))</text><rect fill="#E3E3E3" height="51.2422" rx="2.5" ry="2.5" style="stroke:#181818;stroke-width:0.5;" width="98" x="2150.5" y="676.8594"/><text fill="#000000" font-family="sans-serif" font-size="14" lengthAdjust="spacing" textLength="77" x="2161" y="698.9668">greenSpace</text><text fill="#000000" font-family="sans-serif" font-size="14" lengthAdjust="spacing" textLength="84" x="2157.5" y="717.5879">:GreenSpace</text><polygon fill="#181818" points="2583.5,758.3926,2593.5,762.3926,2583.5,766.3926,2587.5,762.3926" style="stroke:#181818;stroke-width:1.0;"/><line style="stroke:#181818;stroke-width:1.0;" x1="2204.5" x2="2589.5" y1="762.3926" y2="762.3926"/><text fill="#000000" font-family="sans-serif" font-size="13" font-weight="bold" lengthAdjust="spacing" textLength="14" x="2211.5" y="757.1299">17</text><text fill="#000000" font-family="sans-serif" font-size="13" lengthAdjust="spacing" textLength="349" x="2229.5" y="757.1299">create(streetName,PostCode(postCodeNumber,localization))</text><rect fill="#E3E3E3" height="51.2422" rx="2.5" ry="2.5" style="stroke:#181818;stroke-width:0.5;" width="70" x="2595.5" y="739.1016"/><text fill="#000000" font-family="sans-serif" font-size="14" lengthAdjust="spacing" textLength="51" x="2605" y="761.209">address</text><text fill="#000000" font-family="sans-serif" font-size="14" lengthAdjust="spacing" textLength="56" x="2602.5" y="779.8301">:Address</text><polygon fill="#181818" points="2878.5,820.6348,2888.5,824.6348,2878.5,828.6348,2882.5,824.6348" style="stroke:#181818;stroke-width:1.0;"/><line style="stroke:#181818;stroke-width:1.0;" x1="2635.5" x2="2884.5" y1="824.6348" y2="824.6348"/><text fill="#000000" font-family="sans-serif" font-size="13" font-weight="bold" lengthAdjust="spacing" textLength="14" x="2642.5" y="819.3721">18</text><text fill="#000000" font-family="sans-serif" font-size="13" lengthAdjust="spacing" textLength="213" x="2660.5" y="819.3721">create(postCodeNumber,localization)</text><rect fill="#E3E3E3" height="51.2422" rx="2.5" ry="2.5" style="stroke:#181818;stroke-width:0.5;" width="80" x="2890.5" y="801.3438"/><text fill="#000000" font-family="sans-serif" font-size="14" lengthAdjust="spacing" textLength="61" x="2900" y="823.4512">postCode</text><text fill="#000000" font-family="sans-serif" font-size="14" lengthAdjust="spacing" textLength="66" x="2897.5" y="842.0723">:PostCode</text><line style="stroke:#181818;stroke-width:1.0;" x1="2935.5" x2="2982.5" y1="881.877" y2="881.877"/><line style="stroke:#181818;stroke-width:1.0;" x1="2982.5" x2="2982.5" y1="881.877" y2="894.877"/><line style="stroke:#181818;stroke-width:1.0;" x1="2941.5" x2="2982.5" y1="894.877" y2="894.877"/><polygon fill="#181818" points="2951.5,890.877,2941.5,894.877,2951.5,898.877,2947.5,894.877" style="stroke:#181818;stroke-width:1.0;"/><text fill="#000000" font-family="sans-serif" font-size="13" font-weight="bold" lengthAdjust="spacing" textLength="14" x="2947.5" y="876.6143">19</text><text fill="#000000" font-family="sans-serif" font-size="13" lengthAdjust="spacing" textLength="61" x="2965.5" y="876.6143">validation()</text><line style="stroke:#181818;stroke-width:1.0;stroke-dasharray:2.0,2.0;" x1="2940.5" x2="2982.5" y1="936.168" y2="936.168"/><line style="stroke:#181818;stroke-width:1.0;stroke-dasharray:2.0,2.0;" x1="2982.5" x2="2982.5" y1="936.168" y2="949.168"/><line style="stroke:#181818;stroke-width:1.0;stroke-dasharray:2.0,2.0;" x1="2935.5" x2="2982.5" y1="949.168" y2="949.168"/><polygon fill="#181818" points="2945.5,945.168,2935.5,949.168,2945.5,953.168,2941.5,949.168" style="stroke:#181818;stroke-width:1.0;"/><text fill="#000000" font-family="sans-serif" font-size="13" font-weight="bold" lengthAdjust="spacing" textLength="14" x="2947.5" y="930.9053">20</text><text fill="#000000" font-family="sans-serif" font-size="13" lengthAdjust="spacing" textLength="53" x="2965.5" y="930.9053">true/false</text><polygon fill="#181818" points="2646.5,971.459,2636.5,975.459,2646.5,979.459,2642.5,975.459" style="stroke:#181818;stroke-width:1.0;"/><line style="stroke:#181818;stroke-width:1.0;stroke-dasharray:2.0,2.0;" x1="2640.5" x2="2929.5" y1="975.459" y2="975.459"/><text fill="#000000" font-family="sans-serif" font-size="13" font-weight="bold" lengthAdjust="spacing" textLength="14" x="2652.5" y="970.1963">21</text><text fill="#000000" font-family="sans-serif" font-size="13" lengthAdjust="spacing" textLength="55" x="2670.5" y="970.1963">postCode</text><line style="stroke:#181818;stroke-width:1.0;" x1="2635.5" x2="2682.5" y1="1001.75" y2="1001.75"/><line style="stroke:#181818;stroke-width:1.0;" x1="2682.5" x2="2682.5" y1="1001.75" y2="1014.75"/><line style="stroke:#181818;stroke-width:1.0;" x1="2641.5" x2="2682.5" y1="1014.75" y2="1014.75"/><polygon fill="#181818" points="2651.5,1010.75,2641.5,1014.75,2651.5,1018.75,2647.5,1014.75" style="stroke:#181818;stroke-width:1.0;"/><text fill="#000000" font-family="sans-serif" font-size="13" font-weight="bold" lengthAdjust="spacing" textLength="14" x="2647.5" y="996.4873">22</text><text fill="#000000" font-family="sans-serif" font-size="13" lengthAdjust="spacing" textLength="61" x="2665.5" y="996.4873">validation()</text><line style="stroke:#181818;stroke-width:1.0;stroke-dasharray:2.0,2.0;" x1="2640.5" x2="2682.5" y1="1056.041" y2="1056.041"/><line style="stroke:#181818;stroke-width:1.0;stroke-dasharray:2.0,2.0;" x1="2682.5" x2="2682.5" y1="1056.041" y2="1069.041"/><line style="stroke:#181818;stroke-width:1.0;stroke-dasharray:2.0,2.0;" x1="2635.5" x2="2682.5" y1="1069.041" y2="1069.041"/><polygon fill="#181818" points="2645.5,1065.041,2635.5,1069.041,2645.5,1073.041,2641.5,1069.041" style="stroke:#181818;stroke-width:1.0;"/><text fill="#000000" font-family="sans-serif" font-size="13" font-weight="bold" lengthAdjust="spacing" textLength="14" x="2647.5" y="1050.7783">23</text><text fill="#000000" font-family="sans-serif" font-size="13" lengthAdjust="spacing" textLength="53" x="2665.5" y="1050.7783">true/false</text><polygon fill="#181818" points="2215.5,1091.332,2205.5,1095.332,2215.5,1099.332,2211.5,1095.332" style="stroke:#181818;stroke-width:1.0;"/><line style="stroke:#181818;stroke-width:1.0;stroke-dasharray:2.0,2.0;" x1="2209.5" x2="2629.5" y1="1095.332" y2="1095.332"/><text fill="#000000" font-family="sans-serif" font-size="13" font-weight="bold" lengthAdjust="spacing" textLength="14" x="2221.5" y="1090.0693">24</text><text fill="#000000" font-family="sans-serif" font-size="13" lengthAdjust="spacing" textLength="48" x="2239.5" y="1090.0693">Address</text><line style="stroke:#181818;stroke-width:1.0;" x1="2204.5" x2="2246.5" y1="1126.623" y2="1126.623"/><line style="stroke:#181818;stroke-width:1.0;" x1="2246.5" x2="2246.5" y1="1126.623" y2="1139.623"/><line style="stroke:#181818;stroke-width:1.0;" x1="2205.5" x2="2246.5" y1="1139.623" y2="1139.623"/><polygon fill="#181818" points="2215.5,1135.623,2205.5,1139.623,2215.5,1143.623,2211.5,1139.623" style="stroke:#181818;stroke-width:1.0;"/><text fill="#000000" font-family="sans-serif" font-size="13" font-weight="bold" lengthAdjust="spacing" textLength="14" x="2211.5" y="1121.3604">25</text><text fill="#000000" font-family="sans-serif" font-size="13" lengthAdjust="spacing" textLength="195" x="2229.5" y="1121.3604">validationGreenSpace(greeSpace)</text><polygon fill="#181818" points="1645.5,1166.9141,1635.5,1170.9141,1645.5,1174.9141,1641.5,1170.9141" style="stroke:#181818;stroke-width:1.0;"/><line style="stroke:#181818;stroke-width:1.0;stroke-dasharray:2.0,2.0;" x1="1639.5" x2="2198.5" y1="1170.9141" y2="1170.9141"/><text fill="#000000" font-family="sans-serif" font-size="13" font-weight="bold" lengthAdjust="spacing" textLength="14" x="1651.5" y="1165.6514">26</text><text fill="#000000" font-family="sans-serif" font-size="13" lengthAdjust="spacing" textLength="69" x="1669.5" y="1165.6514">greenSpace</text><line style="stroke:#181818;stroke-width:1.0;" x1="1634.5" x2="1681.5" y1="1197.2051" y2="1197.2051"/><line style="stroke:#181818;stroke-width:1.0;" x1="1681.5" x2="1681.5" y1="1197.2051" y2="1210.2051"/><line style="stroke:#181818;stroke-width:1.0;" x1="1640.5" x2="1681.5" y1="1210.2051" y2="1210.2051"/><polygon fill="#181818" points="1650.5,1206.2051,1640.5,1210.2051,1650.5,1214.2051,1646.5,1210.2051" style="stroke:#181818;stroke-width:1.0;"/><text fill="#000000" font-family="sans-serif" font-size="13" font-weight="bold" lengthAdjust="spacing" textLength="14" x="1646.5" y="1191.9424">27</text><text fill="#000000" font-family="sans-serif" font-size="13" lengthAdjust="spacing" textLength="170" x="1664.5" y="1191.9424">addGreenSpace(greenSpace)</text><line style="stroke:#181818;stroke-width:1.0;" x1="1639.5" x2="1686.5" y1="1241.4961" y2="1241.4961"/><line style="stroke:#181818;stroke-width:1.0;" x1="1686.5" x2="1686.5" y1="1241.4961" y2="1254.4961"/><line style="stroke:#181818;stroke-width:1.0;" x1="1645.5" x2="1686.5" y1="1254.4961" y2="1254.4961"/><polygon fill="#181818" points="1655.5,1250.4961,1645.5,1254.4961,1655.5,1258.4961,1651.5,1254.4961" style="stroke:#181818;stroke-width:1.0;"/><text fill="#000000" font-family="sans-serif" font-size="13" font-weight="bold" lengthAdjust="spacing" textLength="14" x="1651.5" y="1236.2334">28</text><text fill="#000000" font-family="sans-serif" font-size="13" lengthAdjust="spacing" textLength="172" x="1669.5" y="1236.2334">validationAllData(greenSpace)</text><line style="stroke:#181818;stroke-width:1.0;stroke-dasharray:2.0,2.0;" x1="1644.5" x2="1686.5" y1="1295.7871" y2="1295.7871"/><line style="stroke:#181818;stroke-width:1.0;stroke-dasharray:2.0,2.0;" x1="1686.5" x2="1686.5" y1="1295.7871" y2="1308.7871"/><line style="stroke:#181818;stroke-width:1.0;stroke-dasharray:2.0,2.0;" x1="1639.5" x2="1686.5" y1="1308.7871" y2="1308.7871"/><polygon fill="#181818" points="1649.5,1304.7871,1639.5,1308.7871,1649.5,1312.7871,1645.5,1308.7871" style="stroke:#181818;stroke-width:1.0;"/><text fill="#000000" font-family="sans-serif" font-size="13" font-weight="bold" lengthAdjust="spacing" textLength="14" x="1651.5" y="1290.5244">29</text><text fill="#000000" font-family="sans-serif" font-size="13" lengthAdjust="spacing" textLength="53" x="1669.5" y="1290.5244">true/false</text><line style="stroke:#181818;stroke-width:1.0;stroke-dasharray:2.0,2.0;" x1="1639.5" x2="1681.5" y1="1340.0781" y2="1340.0781"/><line style="stroke:#181818;stroke-width:1.0;stroke-dasharray:2.0,2.0;" x1="1681.5" x2="1681.5" y1="1340.0781" y2="1353.0781"/><line style="stroke:#181818;stroke-width:1.0;stroke-dasharray:2.0,2.0;" x1="1634.5" x2="1681.5" y1="1353.0781" y2="1353.0781"/><polygon fill="#181818" points="1644.5,1349.0781,1634.5,1353.0781,1644.5,1357.0781,1640.5,1353.0781" style="stroke:#181818;stroke-width:1.0;"/><text fill="#000000" font-family="sans-serif" font-size="13" font-weight="bold" lengthAdjust="spacing" textLength="14" x="1646.5" y="1334.8154">30</text><text fill="#000000" font-family="sans-serif" font-size="13" lengthAdjust="spacing" textLength="53" x="1664.5" y="1334.8154">true/false</text><polygon fill="#181818" points="1045.5,1375.3691,1035.5,1379.3691,1045.5,1383.3691,1041.5,1379.3691" style="stroke:#181818;stroke-width:1.0;"/><line style="stroke:#181818;stroke-width:1.0;stroke-dasharray:2.0,2.0;" x1="1039.5" x2="1628.5" y1="1379.3691" y2="1379.3691"/><text fill="#000000" font-family="sans-serif" font-size="13" font-weight="bold" lengthAdjust="spacing" textLength="14" x="1051.5" y="1374.1064">31</text><text fill="#000000" font-family="sans-serif" font-size="13" lengthAdjust="spacing" textLength="69" x="1069.5" y="1374.1064">greenSpace</text><polygon fill="#181818" points="2735.5,1406.6602,2745.5,1410.6602,2735.5,1414.6602,2739.5,1410.6602" style="stroke:#181818;stroke-width:1.0;"/><line style="stroke:#181818;stroke-width:1.0;" x1="1034.5" x2="2741.5" y1="1410.6602" y2="1410.6602"/><text fill="#000000" font-family="sans-serif" font-size="13" font-weight="bold" lengthAdjust="spacing" textLength="14" x="1041.5" y="1405.3975">32</text><text fill="#000000" font-family="sans-serif" font-size="13" lengthAdjust="spacing" textLength="245" x="1059.5" y="1405.3975">addListManagerGreenSpace(greenSpace))</text><polygon fill="#181818" points="1045.5,1437.9512,1035.5,1441.9512,1045.5,1445.9512,1041.5,1441.9512" style="stroke:#181818;stroke-width:1.0;"/><line style="stroke:#181818;stroke-width:1.0;stroke-dasharray:2.0,2.0;" x1="1039.5" x2="2751.5" y1="1441.9512" y2="1441.9512"/><text fill="#000000" font-family="sans-serif" font-size="13" font-weight="bold" lengthAdjust="spacing" textLength="14" x="1051.5" y="1436.6885">33</text><text fill="#000000" font-family="sans-serif" font-size="13" lengthAdjust="spacing" textLength="53" x="1069.5" y="1436.6885">true/false</text><polygon fill="#181818" points="548.5,1469.2422,538.5,1473.2422,548.5,1477.2422,544.5,1473.2422" style="stroke:#181818;stroke-width:1.0;"/><line style="stroke:#181818;stroke-width:1.0;stroke-dasharray:2.0,2.0;" x1="542.5" x2="1028.5" y1="1473.2422" y2="1473.2422"/><text fill="#000000" font-family="sans-serif" font-size="13" font-weight="bold" lengthAdjust="spacing" textLength="14" x="554.5" y="1467.9795">34</text><text fill="#000000" font-family="sans-serif" font-size="13" lengthAdjust="spacing" textLength="69" x="572.5" y="1467.9795">greenSpace</text><polygon fill="#181818" points="113.5,1500.5332,103.5,1504.5332,113.5,1508.5332,109.5,1504.5332" style="stroke:#181818;stroke-width:1.0;"/><line style="stroke:#181818;stroke-width:1.0;stroke-dasharray:2.0,2.0;" x1="107.5" x2="531.5" y1="1504.5332" y2="1504.5332"/><text fill="#000000" font-family="sans-serif" font-size="13" font-weight="bold" lengthAdjust="spacing" textLength="14" x="119.5" y="1499.2705">35</text><text fill="#000000" font-family="sans-serif" font-size="13" lengthAdjust="spacing" textLength="158" x="137.5" y="1499.2705">displays operation success</text><!--SRC=[hLPDRnen5BpxLrYvT8b0hNha40a1HKZvqcwuzUBiciNAObFR9AM_lizUhzVE6Xf5pO4OUFDc_3oUHRqmVY2IxF5US57kfDXJhEMH8kM_EP3oXTIqqAU6OabBJNZTX0LgHohnndYDjwHH527DD9HkrhYWluwKbnGl6AbDQLOKYn6Uu4tn_HlyosdDbAOI4xoIb79S01aq84Sj-77_J2L2NtQiedWhX7uMln4fjP3uAgZ6TuI3F8cpLN4tki94OLWWaAPPoGw4QtmrxOWipi8sQrkwMV-pSYwubg9fgBI8-LD-Ey0SX68WZ55bQ_m7fuAPOS5kOeWC43_viC7ZxUmfHjHUJzySaAl4nsu6-Ra64QmjpfVB- -9nDb_6659LaYgZSDQkRFLiiSYNHN6klJkFYCLzrftEGum5uNekAYFiqItRAHHFyuV54fbJPwz4Ktko25xmvCRuQmfLBmfh0RxqJkBq3TUHcpeq73O2r0J0fiSKd2lU07uwK8TGrb64LwQnwQje0ux7WbDKqQWHT9ZSRDPJLwA0sJIwH2VDTL0QLqIJZ9Cz7HD9oLXfuDRtvdqtYNjh_d4ZIjAmFqGpmKSeeS3FmL2hYE2Ia8gfGqDEME-ehRKxxi2bu5iczvRq8gShL1QjZizx1bCuGtrZxytKdrDlZSn87tzY6fx3taXaNZiU45TJ3Lf_GA0Lu5j0P4E8f5iiNi4qzYs6lnNLUE1QH7dLzGy81cN1gDh-NbCY3rg9QwuWJc48eRXKUg1KYq1D62YXa6IlJfP96JUgH8o09j_6vX6ozHD_bgb8YWpJeZesI2ISD41_zYvbii03k4k4x98RHgCm8tBZqzno-c2xlZQE1HBz_mdxz4Jzsj2xf0JkdZoW-XXJu8mkUP5Rs4DiGpBStmVlZOzNjmYwGQzNm5GMarq6HIZps-6h-naGEY65wZOnnPtWD2ROR0yv8w-RaCT4e3FgXcEDh0D0vvCaA3xo2DQB3EnkherTZM8iWDqTwIzM93FoMP7xAmLFwNVjUTS_VIaiAX0tQvg5UII5q0JIGuCnXl8-LJX8qq5bdnzt3-rkRo51NEYcDnxl77vk80iE-CuueItsKMyVSsbfRSAddgeAYmELTh3mL2pBTxw19s9C-1S0]--></g></svg>