<?xml version="1.0" encoding="us-ascii" standalone="no"?><svg xmlns="http://www.w3.org/2000/svg" xmlns:xlink="http://www.w3.org/1999/xlink" contentStyleType="text/css" height="952px" preserveAspectRatio="none" style="width:1895px;height:952px;background:#FFFFFF;" version="1.1" viewBox="0 0 1895 952" width="1895px" zoomAndPan="magnify"><defs/><g><rect fill="#FFFFFF" height="788.0918" style="stroke:#181818;stroke-width:1.0;" width="10" x="469" y="90.5332"/><rect fill="#FFFFFF" height="130.873" style="stroke:#181818;stroke-width:1.0;" width="10" x="474" y="702.4609"/><rect fill="#FFFFFF" height="42.291" style="stroke:#181818;stroke-width:1.0;" width="10" x="479" y="746.752"/><rect fill="#FFFFFF" height="505.0547" style="stroke:#181818;stroke-width:1.0;" width="10" x="1003" y="158.1152"/><rect fill="#FFFFFF" height="42.291" style="stroke:#181818;stroke-width:1.0;" width="10" x="1008" y="582.5879"/><rect fill="#FFFFFF" height="322.9395" style="stroke:#181818;stroke-width:1.0;" width="10" x="1454" y="220.3574"/><rect fill="#FFFFFF" height="42.291" style="stroke:#181818;stroke-width:1.0;" width="10" x="1459" y="462.7148"/><rect fill="#FFFFFF" height="140.8242" style="stroke:#181818;stroke-width:1.0;" width="10" x="1765" y="282.5996"/><rect fill="#FFFFFF" height="42.291" style="stroke:#181818;stroke-width:1.0;" width="10" x="1770" y="342.8418"/><rect fill="none" height="742.8008" style="stroke:#000000;stroke-width:1.5;" width="1508" x="381" y="105.5332"/><line style="stroke:#181818;stroke-width:0.5;stroke-dasharray:5.0,5.0;" x1="474" x2="474" y1="57.2422" y2="896.625"/><line style="stroke:#181818;stroke-width:0.5;stroke-dasharray:5.0,5.0;" x1="1008" x2="1008" y1="165.9453" y2="896.625"/><line style="stroke:#181818;stroke-width:0.5;stroke-dasharray:5.0,5.0;" x1="1459" x2="1459" y1="228.1875" y2="896.625"/><line style="stroke:#181818;stroke-width:0.5;stroke-dasharray:5.0,5.0;" x1="1770" x2="1770" y1="290.4297" y2="896.625"/><rect fill="#E3E3E3" height="51.2422" rx="2.5" ry="2.5" style="stroke:#181818;stroke-width:0.5;" width="166" x="391" y="5"/><text fill="#000000" font-family="sans-serif" font-size="14" lengthAdjust="spacing" textLength="145" x="401.5" y="27.1074">greenSpaceRepository</text><text fill="#000000" font-family="sans-serif" font-size="14" lengthAdjust="spacing" textLength="152" x="398" y="45.7285">:GreenSpaceRepository</text><rect fill="#E3E3E3" height="51.2422" rx="2.5" ry="2.5" style="stroke:#181818;stroke-width:0.5;" width="166" x="391" y="895.625"/><text fill="#000000" font-family="sans-serif" font-size="14" lengthAdjust="spacing" textLength="145" x="401.5" y="917.7324">greenSpaceRepository</text><text fill="#000000" font-family="sans-serif" font-size="14" lengthAdjust="spacing" textLength="152" x="398" y="936.3535">:GreenSpaceRepository</text><rect fill="#E3E3E3" height="51.2422" rx="2.5" ry="2.5" style="stroke:#181818;stroke-width:0.5;" width="98" x="959" y="895.625"/><text fill="#000000" font-family="sans-serif" font-size="14" lengthAdjust="spacing" textLength="77" x="969.5" y="917.7324">greenSpace</text><text fill="#000000" font-family="sans-serif" font-size="14" lengthAdjust="spacing" textLength="84" x="966" y="936.3535">:GreenSpace</text><rect fill="#E3E3E3" height="51.2422" rx="2.5" ry="2.5" style="stroke:#181818;stroke-width:0.5;" width="70" x="1424" y="895.625"/><text fill="#000000" font-family="sans-serif" font-size="14" lengthAdjust="spacing" textLength="51" x="1433.5" y="917.7324">address</text><text fill="#000000" font-family="sans-serif" font-size="14" lengthAdjust="spacing" textLength="56" x="1431" y="936.3535">:Address</text><rect fill="#E3E3E3" height="51.2422" rx="2.5" ry="2.5" style="stroke:#181818;stroke-width:0.5;" width="80" x="1730" y="895.625"/><text fill="#000000" font-family="sans-serif" font-size="14" lengthAdjust="spacing" textLength="61" x="1739.5" y="917.7324">postCode</text><text fill="#000000" font-family="sans-serif" font-size="14" lengthAdjust="spacing" textLength="66" x="1737" y="936.3535">:PostCode</text><rect fill="#FFFFFF" height="788.0918" style="stroke:#181818;stroke-width:1.0;" width="10" x="469" y="90.5332"/><rect fill="#FFFFFF" height="130.873" style="stroke:#181818;stroke-width:1.0;" width="10" x="474" y="702.4609"/><rect fill="#FFFFFF" height="42.291" style="stroke:#181818;stroke-width:1.0;" width="10" x="479" y="746.752"/><rect fill="#FFFFFF" height="505.0547" style="stroke:#181818;stroke-width:1.0;" width="10" x="1003" y="158.1152"/><rect fill="#FFFFFF" height="42.291" style="stroke:#181818;stroke-width:1.0;" width="10" x="1008" y="582.5879"/><rect fill="#FFFFFF" height="322.9395" style="stroke:#181818;stroke-width:1.0;" width="10" x="1454" y="220.3574"/><rect fill="#FFFFFF" height="42.291" style="stroke:#181818;stroke-width:1.0;" width="10" x="1459" y="462.7148"/><rect fill="#FFFFFF" height="140.8242" style="stroke:#181818;stroke-width:1.0;" width="10" x="1765" y="282.5996"/><rect fill="#FFFFFF" height="42.291" style="stroke:#181818;stroke-width:1.0;" width="10" x="1770" y="342.8418"/><polygon fill="#181818" points="457,86.5332,467,90.5332,457,94.5332,461,90.5332" style="stroke:#181818;stroke-width:1.0;"/><line style="stroke:#181818;stroke-width:1.0;stroke-dasharray:2.0,2.0;" x1="0" x2="463" y1="90.5332" y2="90.5332"/><text fill="#000000" font-family="sans-serif" font-size="13" font-weight="bold" lengthAdjust="spacing" textLength="14" x="7" y="85.2705">15</text><text fill="#000000" font-family="sans-serif" font-size="13" lengthAdjust="spacing" textLength="432" x="25" y="85.2705">registerGreenSpace(name,area,street, postCodeNumber,localization)</text><path d="M381,105.5332 L561,105.5332 L561,114.8242 L551,124.8242 L381,124.8242 L381,105.5332 " fill="#EEEEEE" style="stroke:#000000;stroke-width:1.5;"/><rect fill="none" height="742.8008" style="stroke:#000000;stroke-width:1.5;" width="1508" x="381" y="105.5332"/><text fill="#000000" font-family="sans-serif" font-size="13" font-weight="bold" lengthAdjust="spacing" textLength="135" x="396" y="120.5615">Register GreenSpace</text><polygon fill="#181818" points="947,144.1152,957,148.1152,947,152.1152,951,148.1152" style="stroke:#181818;stroke-width:1.0;"/><line style="stroke:#181818;stroke-width:1.0;" x1="479" x2="953" y1="148.1152" y2="148.1152"/><text fill="#000000" font-family="sans-serif" font-size="13" font-weight="bold" lengthAdjust="spacing" textLength="25" x="486" y="142.8525">15.1</text><text fill="#000000" font-family="sans-serif" font-size="13" lengthAdjust="spacing" textLength="427" x="515" y="142.8525">create(name,area,street,doorNumber, postCodeNumber,localization)</text><rect fill="#E3E3E3" height="51.2422" rx="2.5" ry="2.5" style="stroke:#181818;stroke-width:0.5;" width="98" x="959" y="124.8242"/><text fill="#000000" font-family="sans-serif" font-size="14" lengthAdjust="spacing" textLength="77" x="969.5" y="146.9316">greenSpace</text><text fill="#000000" font-family="sans-serif" font-size="14" lengthAdjust="spacing" textLength="84" x="966" y="165.5527">:GreenSpace</text><polygon fill="#181818" points="1412,206.3574,1422,210.3574,1412,214.3574,1416,210.3574" style="stroke:#181818;stroke-width:1.0;"/><line style="stroke:#181818;stroke-width:1.0;" x1="1013" x2="1418" y1="210.3574" y2="210.3574"/><text fill="#000000" font-family="sans-serif" font-size="13" font-weight="bold" lengthAdjust="spacing" textLength="25" x="1020" y="205.0947">15.2</text><text fill="#000000" font-family="sans-serif" font-size="13" lengthAdjust="spacing" textLength="358" x="1049" y="205.0947">create(street,doorNumber,postCodeNumber,localization)</text><rect fill="#E3E3E3" height="51.2422" rx="2.5" ry="2.5" style="stroke:#181818;stroke-width:0.5;" width="70" x="1424" y="187.0664"/><text fill="#000000" font-family="sans-serif" font-size="14" lengthAdjust="spacing" textLength="51" x="1433.5" y="209.1738">address</text><text fill="#000000" font-family="sans-serif" font-size="14" lengthAdjust="spacing" textLength="56" x="1431" y="227.7949">:Address</text><polygon fill="#181818" points="1718,268.5996,1728,272.5996,1718,276.5996,1722,272.5996" style="stroke:#181818;stroke-width:1.0;"/><line style="stroke:#181818;stroke-width:1.0;" x1="1464" x2="1724" y1="272.5996" y2="272.5996"/><text fill="#000000" font-family="sans-serif" font-size="13" font-weight="bold" lengthAdjust="spacing" textLength="25" x="1471" y="267.3369">15.3</text><text fill="#000000" font-family="sans-serif" font-size="13" lengthAdjust="spacing" textLength="213" x="1500" y="267.3369">create(postCodeNumber,localization)</text><rect fill="#E3E3E3" height="51.2422" rx="2.5" ry="2.5" style="stroke:#181818;stroke-width:0.5;" width="80" x="1730" y="249.3086"/><text fill="#000000" font-family="sans-serif" font-size="14" lengthAdjust="spacing" textLength="61" x="1739.5" y="271.416">postCode</text><text fill="#000000" font-family="sans-serif" font-size="14" lengthAdjust="spacing" textLength="66" x="1737" y="290.0371">:PostCode</text><line style="stroke:#181818;stroke-width:1.0;" x1="1775" x2="1822" y1="329.8418" y2="329.8418"/><line style="stroke:#181818;stroke-width:1.0;" x1="1822" x2="1822" y1="329.8418" y2="342.8418"/><line style="stroke:#181818;stroke-width:1.0;" x1="1781" x2="1822" y1="342.8418" y2="342.8418"/><polygon fill="#181818" points="1791,338.8418,1781,342.8418,1791,346.8418,1787,342.8418" style="stroke:#181818;stroke-width:1.0;"/><text fill="#000000" font-family="sans-serif" font-size="13" font-weight="bold" lengthAdjust="spacing" textLength="25" x="1787" y="324.5791">15.4</text><text fill="#000000" font-family="sans-serif" font-size="13" lengthAdjust="spacing" textLength="61" x="1816" y="324.5791">validation()</text><line style="stroke:#181818;stroke-width:1.0;stroke-dasharray:2.0,2.0;" x1="1780" x2="1822" y1="384.1328" y2="384.1328"/><line style="stroke:#181818;stroke-width:1.0;stroke-dasharray:2.0,2.0;" x1="1822" x2="1822" y1="384.1328" y2="397.1328"/><line style="stroke:#181818;stroke-width:1.0;stroke-dasharray:2.0,2.0;" x1="1775" x2="1822" y1="397.1328" y2="397.1328"/><polygon fill="#181818" points="1785,393.1328,1775,397.1328,1785,401.1328,1781,397.1328" style="stroke:#181818;stroke-width:1.0;"/><text fill="#000000" font-family="sans-serif" font-size="13" font-weight="bold" lengthAdjust="spacing" textLength="25" x="1787" y="378.8701">15.5</text><text fill="#000000" font-family="sans-serif" font-size="13" lengthAdjust="spacing" textLength="53" x="1816" y="378.8701">true/false</text><polygon fill="#181818" points="1475,419.4238,1465,423.4238,1475,427.4238,1471,423.4238" style="stroke:#181818;stroke-width:1.0;"/><line style="stroke:#181818;stroke-width:1.0;stroke-dasharray:2.0,2.0;" x1="1469" x2="1769" y1="423.4238" y2="423.4238"/><text fill="#000000" font-family="sans-serif" font-size="13" font-weight="bold" lengthAdjust="spacing" textLength="25" x="1481" y="418.1611">15.6</text><text fill="#000000" font-family="sans-serif" font-size="13" lengthAdjust="spacing" textLength="55" x="1510" y="418.1611">postCode</text><line style="stroke:#181818;stroke-width:1.0;" x1="1464" x2="1511" y1="449.7148" y2="449.7148"/><line style="stroke:#181818;stroke-width:1.0;" x1="1511" x2="1511" y1="449.7148" y2="462.7148"/><line style="stroke:#181818;stroke-width:1.0;" x1="1470" x2="1511" y1="462.7148" y2="462.7148"/><polygon fill="#181818" points="1480,458.7148,1470,462.7148,1480,466.7148,1476,462.7148" style="stroke:#181818;stroke-width:1.0;"/><text fill="#000000" font-family="sans-serif" font-size="13" font-weight="bold" lengthAdjust="spacing" textLength="25" x="1476" y="444.4521">15.7</text><text fill="#000000" font-family="sans-serif" font-size="13" lengthAdjust="spacing" textLength="61" x="1505" y="444.4521">validation()</text><line style="stroke:#181818;stroke-width:1.0;stroke-dasharray:2.0,2.0;" x1="1469" x2="1511" y1="504.0059" y2="504.0059"/><line style="stroke:#181818;stroke-width:1.0;stroke-dasharray:2.0,2.0;" x1="1511" x2="1511" y1="504.0059" y2="517.0059"/><line style="stroke:#181818;stroke-width:1.0;stroke-dasharray:2.0,2.0;" x1="1464" x2="1511" y1="517.0059" y2="517.0059"/><polygon fill="#181818" points="1474,513.0059,1464,517.0059,1474,521.0059,1470,517.0059" style="stroke:#181818;stroke-width:1.0;"/><text fill="#000000" font-family="sans-serif" font-size="13" font-weight="bold" lengthAdjust="spacing" textLength="25" x="1476" y="498.7432">15.8</text><text fill="#000000" font-family="sans-serif" font-size="13" lengthAdjust="spacing" textLength="53" x="1505" y="498.7432">true/false</text><polygon fill="#181818" points="1024,539.2969,1014,543.2969,1024,547.2969,1020,543.2969" style="stroke:#181818;stroke-width:1.0;"/><line style="stroke:#181818;stroke-width:1.0;stroke-dasharray:2.0,2.0;" x1="1018" x2="1458" y1="543.2969" y2="543.2969"/><text fill="#000000" font-family="sans-serif" font-size="13" font-weight="bold" lengthAdjust="spacing" textLength="25" x="1030" y="538.0342">15.9</text><text fill="#000000" font-family="sans-serif" font-size="13" lengthAdjust="spacing" textLength="48" x="1059" y="538.0342">Address</text><line style="stroke:#181818;stroke-width:1.0;" x1="1013" x2="1060" y1="569.5879" y2="569.5879"/><line style="stroke:#181818;stroke-width:1.0;" x1="1060" x2="1060" y1="569.5879" y2="582.5879"/><line style="stroke:#181818;stroke-width:1.0;" x1="1019" x2="1060" y1="582.5879" y2="582.5879"/><polygon fill="#181818" points="1029,578.5879,1019,582.5879,1029,586.5879,1025,582.5879" style="stroke:#181818;stroke-width:1.0;"/><text fill="#000000" font-family="sans-serif" font-size="13" font-weight="bold" lengthAdjust="spacing" textLength="32" x="1025" y="564.3252">15.10</text><text fill="#000000" font-family="sans-serif" font-size="13" lengthAdjust="spacing" textLength="133" x="1061" y="564.3252">validationGreenSpace()</text><line style="stroke:#181818;stroke-width:1.0;stroke-dasharray:2.0,2.0;" x1="1018" x2="1060" y1="623.8789" y2="623.8789"/><line style="stroke:#181818;stroke-width:1.0;stroke-dasharray:2.0,2.0;" x1="1060" x2="1060" y1="623.8789" y2="636.8789"/><line style="stroke:#181818;stroke-width:1.0;stroke-dasharray:2.0,2.0;" x1="1013" x2="1060" y1="636.8789" y2="636.8789"/><polygon fill="#181818" points="1023,632.8789,1013,636.8789,1023,640.8789,1019,636.8789" style="stroke:#181818;stroke-width:1.0;"/><text fill="#000000" font-family="sans-serif" font-size="13" font-weight="bold" lengthAdjust="spacing" textLength="32" x="1025" y="618.6162">15.11</text><text fill="#000000" font-family="sans-serif" font-size="13" lengthAdjust="spacing" textLength="53" x="1061" y="618.6162">true/false</text><polygon fill="#181818" points="490,659.1699,480,663.1699,490,667.1699,486,663.1699" style="stroke:#181818;stroke-width:1.0;"/><line style="stroke:#181818;stroke-width:1.0;stroke-dasharray:2.0,2.0;" x1="484" x2="1007" y1="663.1699" y2="663.1699"/><text fill="#000000" font-family="sans-serif" font-size="13" font-weight="bold" lengthAdjust="spacing" textLength="32" x="496" y="657.9072">15.12</text><text fill="#000000" font-family="sans-serif" font-size="13" lengthAdjust="spacing" textLength="69" x="532" y="657.9072">greenSpace</text><line style="stroke:#181818;stroke-width:1.0;" x1="479" x2="526" y1="689.4609" y2="689.4609"/><line style="stroke:#181818;stroke-width:1.0;" x1="526" x2="526" y1="689.4609" y2="702.4609"/><line style="stroke:#181818;stroke-width:1.0;" x1="485" x2="526" y1="702.4609" y2="702.4609"/><polygon fill="#181818" points="495,698.4609,485,702.4609,495,706.4609,491,702.4609" style="stroke:#181818;stroke-width:1.0;"/><text fill="#000000" font-family="sans-serif" font-size="13" font-weight="bold" lengthAdjust="spacing" textLength="32" x="491" y="684.1982">15.13</text><text fill="#000000" font-family="sans-serif" font-size="13" lengthAdjust="spacing" textLength="170" x="527" y="684.1982">addGreenSpace(greenSpace)</text><line style="stroke:#181818;stroke-width:1.0;" x1="484" x2="531" y1="733.752" y2="733.752"/><line style="stroke:#181818;stroke-width:1.0;" x1="531" x2="531" y1="733.752" y2="746.752"/><line style="stroke:#181818;stroke-width:1.0;" x1="490" x2="531" y1="746.752" y2="746.752"/><polygon fill="#181818" points="500,742.752,490,746.752,500,750.752,496,746.752" style="stroke:#181818;stroke-width:1.0;"/><text fill="#000000" font-family="sans-serif" font-size="13" font-weight="bold" lengthAdjust="spacing" textLength="32" x="496" y="728.4893">15.14</text><text fill="#000000" font-family="sans-serif" font-size="13" lengthAdjust="spacing" textLength="172" x="532" y="728.4893">validationAllData(greenSpace)</text><line style="stroke:#181818;stroke-width:1.0;stroke-dasharray:2.0,2.0;" x1="489" x2="531" y1="788.043" y2="788.043"/><line style="stroke:#181818;stroke-width:1.0;stroke-dasharray:2.0,2.0;" x1="531" x2="531" y1="788.043" y2="801.043"/><line style="stroke:#181818;stroke-width:1.0;stroke-dasharray:2.0,2.0;" x1="484" x2="531" y1="801.043" y2="801.043"/><polygon fill="#181818" points="494,797.043,484,801.043,494,805.043,490,801.043" style="stroke:#181818;stroke-width:1.0;"/><text fill="#000000" font-family="sans-serif" font-size="13" font-weight="bold" lengthAdjust="spacing" textLength="32" x="496" y="782.7803">15.15</text><text fill="#000000" font-family="sans-serif" font-size="13" lengthAdjust="spacing" textLength="53" x="532" y="782.7803">true/false</text><line style="stroke:#181818;stroke-width:1.0;stroke-dasharray:2.0,2.0;" x1="484" x2="526" y1="832.334" y2="832.334"/><line style="stroke:#181818;stroke-width:1.0;stroke-dasharray:2.0,2.0;" x1="526" x2="526" y1="832.334" y2="845.334"/><line style="stroke:#181818;stroke-width:1.0;stroke-dasharray:2.0,2.0;" x1="479" x2="526" y1="845.334" y2="845.334"/><polygon fill="#181818" points="489,841.334,479,845.334,489,849.334,485,845.334" style="stroke:#181818;stroke-width:1.0;"/><text fill="#000000" font-family="sans-serif" font-size="13" font-weight="bold" lengthAdjust="spacing" textLength="32" x="491" y="827.0713">15.16</text><text fill="#000000" font-family="sans-serif" font-size="13" lengthAdjust="spacing" textLength="53" x="527" y="827.0713">true/false</text><polygon fill="#181818" points="11,874.625,1,878.625,11,882.625,7,878.625" style="stroke:#181818;stroke-width:1.0;"/><line style="stroke:#181818;stroke-width:1.0;stroke-dasharray:2.0,2.0;" x1="5" x2="473" y1="878.625" y2="878.625"/><text fill="#000000" font-family="sans-serif" font-size="13" font-weight="bold" lengthAdjust="spacing" textLength="14" x="17" y="873.3623">16</text><text fill="#000000" font-family="sans-serif" font-size="13" lengthAdjust="spacing" textLength="69" x="35" y="873.3623">greenSpace</text><!--SRC=[bPHDRzim38Rl-XL2B_r0tA27xH0C0uB4w2qDx1rtuIpE4IfBhYHtw7xzP4Usf3HErnkZyE7xaX9zVR2sDQlbiXKWRTU8-qerIuCl7SeACyQXrj0Gyynb2owYZPAgEcZL8BMwm-YV5gfdgB6qRmAfnig2h4MSO0x0r1ykQ_eRX452tB7b5M-TChsgDQ8iNH4ii5M6MwNVVihLuvdZAmg6FfR5N844EoONURuhz-jDdZB0c4PZ7B0-HaFsUhijyh9CKvsutIZM5z_xS4ZUbpysJzkS4EYiabtp2pLz-498bdtlFT8LTSEekR6eWwaR2GqkG2CiZ7MdTjV_fgF6RYYp4Ae2mV-2vKhUdWZSFxY3ol9Ni3ZCWjHQTIqjl1ODOeJqFdexqnJkxfoloidR6IjCAUrTN7OLF8GHan3tidwSJZE8dfVweFzHQhmVueDUn5z3tDX_Lfikq0THDLVhrJ5iO6ukGmdLhyRIltA6bwcnYTKqwFDCr6n0PkoD4vgO19fnztwioPjne5-Iir1wvmaMJ4OR4DkTUpkdXMQCNy3z2ePlmonN5jF2kgz2P3ImjwShD-xLSSr3csiXjc3XGtHYeyPYVvzAHCdIRyHNGhvbsRi1d8B_0000]--></g></svg>