<?xml version="1.0" encoding="us-ascii" standalone="no"?><svg xmlns="http://www.w3.org/2000/svg" xmlns:xlink="http://www.w3.org/1999/xlink" contentStyleType="text/css" height="1423px" preserveAspectRatio="none" style="width:2169px;height:1423px;background:#FFFFFF;" version="1.1" viewBox="0 0 2169 1423" width="2169px" zoomAndPan="magnify"><defs/><g><text fill="#000000" font-family="sans-serif" font-size="14" font-weight="bold" lengthAdjust="spacing" textLength="420" x="873.75" y="30.1074">UI Sequence Diagram (SSD) - US20 - Register a Green Space</text><rect fill="#FFFFFF" height="1189.1758" style="stroke:#181818;stroke-width:1.0;" width="10" x="97.5" y="133.2422"/><rect fill="#FFFFFF" height="31.291" style="stroke:#181818;stroke-width:1.0;" width="10" x="413.5" y="156.5332"/><rect fill="#FFFFFF" height="31.291" style="stroke:#181818;stroke-width:1.0;" width="10" x="413.5" y="219.1152"/><rect fill="#FFFFFF" height="31.291" style="stroke:#181818;stroke-width:1.0;" width="10" x="413.5" y="281.6973"/><rect fill="#FFFFFF" height="978.1387" style="stroke:#181818;stroke-width:1.0;" width="10" x="413.5" y="344.2793"/><rect fill="#FFFFFF" height="915.5566" style="stroke:#181818;stroke-width:1.0;" width="10" x="796.5" y="375.5703"/><rect fill="#FFFFFF" height="90.543" style="stroke:#181818;stroke-width:1.0;" width="10" x="801.5" y="414.8613"/><rect fill="#FFFFFF" height="31.291" style="stroke:#181818;stroke-width:1.0;" width="10" x="964.5" y="543.6953"/><rect fill="#FFFFFF" height="31.291" style="stroke:#181818;stroke-width:1.0;" width="10" x="1071.5" y="606.2773"/><rect fill="#FFFFFF" height="528.3945" style="stroke:#181818;stroke-width:1.0;" width="10" x="1213.5" y="668.8594"/><rect fill="#FFFFFF" height="130.873" style="stroke:#181818;stroke-width:1.0;" width="10" x="1218.5" y="1028.0898"/><rect fill="#FFFFFF" height="42.291" style="stroke:#181818;stroke-width:1.0;" width="10" x="1223.5" y="1072.3809"/><rect fill="#FFFFFF" height="278.6484" style="stroke:#181818;stroke-width:1.0;" width="10" x="1600.5" y="710.1504"/><rect fill="#FFFFFF" height="140.8242" style="stroke:#181818;stroke-width:1.0;" width="10" x="1852.5" y="772.3926"/><rect fill="#FFFFFF" height="42.291" style="stroke:#181818;stroke-width:1.0;" width="10" x="1857.5" y="832.6348"/><rect fill="#FFFFFF" height="31.291" style="stroke:#181818;stroke-width:1.0;" width="10" x="2081.5" y="1228.5449"/><line style="stroke:#181818;stroke-width:0.5;stroke-dasharray:5.0,5.0;" x1="102" x2="102" y1="123.2422" y2="1340.418"/><line style="stroke:#181818;stroke-width:0.5;stroke-dasharray:5.0,5.0;" x1="418" x2="418" y1="123.2422" y2="1340.418"/><line style="stroke:#181818;stroke-width:0.5;stroke-dasharray:5.0,5.0;" x1="801" x2="801" y1="123.2422" y2="1340.418"/><line style="stroke:#181818;stroke-width:0.5;stroke-dasharray:5.0,5.0;" x1="969" x2="969" y1="123.2422" y2="1340.418"/><line style="stroke:#181818;stroke-width:0.5;stroke-dasharray:5.0,5.0;" x1="1076" x2="1076" y1="123.2422" y2="1340.418"/><line style="stroke:#181818;stroke-width:0.5;stroke-dasharray:5.0,5.0;" x1="1218.5" x2="1218.5" y1="123.2422" y2="1340.418"/><line style="stroke:#181818;stroke-width:0.5;stroke-dasharray:5.0,5.0;" x1="1605.5" x2="1605.5" y1="717.9805" y2="1340.418"/><line style="stroke:#181818;stroke-width:0.5;stroke-dasharray:5.0,5.0;" x1="1857.5" x2="1857.5" y1="780.2227" y2="1340.418"/><line style="stroke:#181818;stroke-width:0.5;stroke-dasharray:5.0,5.0;" x1="2086.5" x2="2086.5" y1="123.2422" y2="1340.418"/><text fill="#000000" font-family="sans-serif" font-size="14" lengthAdjust="spacing" textLength="189" x="5" y="119.7285">Green Space Manager (GSM)</text><ellipse cx="102.5" cy="53.1211" fill="#E3E3E3" rx="8" ry="8" style="stroke:#181818;stroke-width:0.5;"/><path d="M102.5,61.1211 L102.5,88.1211 M89.5,69.1211 L115.5,69.1211 M102.5,88.1211 L89.5,103.1211 M102.5,88.1211 L115.5,103.1211 " fill="none" style="stroke:#181818;stroke-width:0.5;"/><text fill="#000000" font-family="sans-serif" font-size="14" lengthAdjust="spacing" textLength="189" x="5" y="1354.5254">Green Space Manager (GSM)</text><ellipse cx="102.5" cy="1366.5391" fill="#E3E3E3" rx="8" ry="8" style="stroke:#181818;stroke-width:0.5;"/><path d="M102.5,1374.5391 L102.5,1401.5391 M89.5,1382.5391 L115.5,1382.5391 M102.5,1401.5391 L89.5,1416.5391 M102.5,1401.5391 L115.5,1416.5391 " fill="none" style="stroke:#181818;stroke-width:0.5;"/><rect fill="#E3E3E3" height="32.6211" rx="2.5" ry="2.5" style="stroke:#181818;stroke-width:0.5;" width="163" x="337" y="89.6211"/><text fill="#000000" font-family="sans-serif" font-size="14" lengthAdjust="spacing" textLength="149" x="344" y="111.7285">:RegisterGreenSpaceUI</text><rect fill="#E3E3E3" height="32.6211" rx="2.5" ry="2.5" style="stroke:#181818;stroke-width:0.5;" width="163" x="337" y="1339.418"/><text fill="#000000" font-family="sans-serif" font-size="14" lengthAdjust="spacing" textLength="149" x="344" y="1361.5254">:RegisterGreenSpaceUI</text><rect fill="#E3E3E3" height="32.6211" rx="2.5" ry="2.5" style="stroke:#181818;stroke-width:0.5;" width="213" x="695" y="89.6211"/><text fill="#000000" font-family="sans-serif" font-size="14" lengthAdjust="spacing" textLength="199" x="702" y="111.7285">:RegisterGreenSpaceController</text><rect fill="#E3E3E3" height="32.6211" rx="2.5" ry="2.5" style="stroke:#181818;stroke-width:0.5;" width="213" x="695" y="1339.418"/><text fill="#000000" font-family="sans-serif" font-size="14" lengthAdjust="spacing" textLength="199" x="702" y="1361.5254">:RegisterGreenSpaceController</text><rect fill="#E3E3E3" height="32.6211" rx="2.5" ry="2.5" style="stroke:#181818;stroke-width:0.5;" width="97" x="921" y="89.6211"/><text fill="#000000" font-family="sans-serif" font-size="14" lengthAdjust="spacing" textLength="83" x="928" y="111.7285">:Repositories</text><rect fill="#E3E3E3" height="32.6211" rx="2.5" ry="2.5" style="stroke:#181818;stroke-width:0.5;" width="97" x="921" y="1339.418"/><text fill="#000000" font-family="sans-serif" font-size="14" lengthAdjust="spacing" textLength="83" x="928" y="1361.5254">:Repositories</text><rect fill="#E3E3E3" height="51.2422" rx="2.5" ry="2.5" style="stroke:#181818;stroke-width:0.5;" width="97" x="1028" y="71"/><text fill="#000000" font-family="sans-serif" font-size="14" lengthAdjust="spacing" textLength="74" x="1039.5" y="93.1074">repositories</text><text fill="#000000" font-family="sans-serif" font-size="14" lengthAdjust="spacing" textLength="83" x="1035" y="111.7285">:Repositories</text><rect fill="#E3E3E3" height="51.2422" rx="2.5" ry="2.5" style="stroke:#181818;stroke-width:0.5;" width="97" x="1028" y="1339.418"/><text fill="#000000" font-family="sans-serif" font-size="14" lengthAdjust="spacing" textLength="74" x="1039.5" y="1361.5254">repositories</text><text fill="#000000" font-family="sans-serif" font-size="14" lengthAdjust="spacing" textLength="83" x="1035" y="1380.1465">:Repositories</text><rect fill="#E3E3E3" height="51.2422" rx="2.5" ry="2.5" style="stroke:#181818;stroke-width:0.5;" width="166" x="1135.5" y="71"/><text fill="#000000" font-family="sans-serif" font-size="14" lengthAdjust="spacing" textLength="145" x="1146" y="93.1074">greenSpaceRepository</text><text fill="#000000" font-family="sans-serif" font-size="14" lengthAdjust="spacing" textLength="152" x="1142.5" y="111.7285">:GreenSpaceRepository</text><rect fill="#E3E3E3" height="51.2422" rx="2.5" ry="2.5" style="stroke:#181818;stroke-width:0.5;" width="166" x="1135.5" y="1339.418"/><text fill="#000000" font-family="sans-serif" font-size="14" lengthAdjust="spacing" textLength="145" x="1146" y="1361.5254">greenSpaceRepository</text><text fill="#000000" font-family="sans-serif" font-size="14" lengthAdjust="spacing" textLength="152" x="1142.5" y="1380.1465">:GreenSpaceRepository</text><rect fill="#E3E3E3" height="51.2422" rx="2.5" ry="2.5" style="stroke:#181818;stroke-width:0.5;" width="98" x="1556.5" y="1339.418"/><text fill="#000000" font-family="sans-serif" font-size="14" lengthAdjust="spacing" textLength="77" x="1567" y="1361.5254">greenSpace</text><text fill="#000000" font-family="sans-serif" font-size="14" lengthAdjust="spacing" textLength="84" x="1563.5" y="1380.1465">:GreenSpace</text><rect fill="#E3E3E3" height="51.2422" rx="2.5" ry="2.5" style="stroke:#181818;stroke-width:0.5;" width="70" x="1822.5" y="1339.418"/><text fill="#000000" font-family="sans-serif" font-size="14" lengthAdjust="spacing" textLength="51" x="1832" y="1361.5254">address</text><text fill="#000000" font-family="sans-serif" font-size="14" lengthAdjust="spacing" textLength="56" x="1829.5" y="1380.1465">:Address</text><rect fill="#E3E3E3" height="51.2422" rx="2.5" ry="2.5" style="stroke:#181818;stroke-width:0.5;" width="154" x="2009.5" y="71"/><text fill="#000000" font-family="sans-serif" font-size="14" lengthAdjust="spacing" textLength="133" x="2020" y="93.1074">greenSpaceManager</text><text fill="#000000" font-family="sans-serif" font-size="14" lengthAdjust="spacing" textLength="140" x="2016.5" y="111.7285">:GreenSpaceManager</text><rect fill="#E3E3E3" height="51.2422" rx="2.5" ry="2.5" style="stroke:#181818;stroke-width:0.5;" width="154" x="2009.5" y="1339.418"/><text fill="#000000" font-family="sans-serif" font-size="14" lengthAdjust="spacing" textLength="133" x="2020" y="1361.5254">greenSpaceManager</text><text fill="#000000" font-family="sans-serif" font-size="14" lengthAdjust="spacing" textLength="140" x="2016.5" y="1380.1465">:GreenSpaceManager</text><rect fill="#FFFFFF" height="1189.1758" style="stroke:#181818;stroke-width:1.0;" width="10" x="97.5" y="133.2422"/><rect fill="#FFFFFF" height="31.291" style="stroke:#181818;stroke-width:1.0;" width="10" x="413.5" y="156.5332"/><rect fill="#FFFFFF" height="31.291" style="stroke:#181818;stroke-width:1.0;" width="10" x="413.5" y="219.1152"/><rect fill="#FFFFFF" height="31.291" style="stroke:#181818;stroke-width:1.0;" width="10" x="413.5" y="281.6973"/><rect fill="#FFFFFF" height="978.1387" style="stroke:#181818;stroke-width:1.0;" width="10" x="413.5" y="344.2793"/><rect fill="#FFFFFF" height="915.5566" style="stroke:#181818;stroke-width:1.0;" width="10" x="796.5" y="375.5703"/><rect fill="#FFFFFF" height="90.543" style="stroke:#181818;stroke-width:1.0;" width="10" x="801.5" y="414.8613"/><rect fill="#FFFFFF" height="31.291" style="stroke:#181818;stroke-width:1.0;" width="10" x="964.5" y="543.6953"/><rect fill="#FFFFFF" height="31.291" style="stroke:#181818;stroke-width:1.0;" width="10" x="1071.5" y="606.2773"/><rect fill="#FFFFFF" height="528.3945" style="stroke:#181818;stroke-width:1.0;" width="10" x="1213.5" y="668.8594"/><rect fill="#FFFFFF" height="130.873" style="stroke:#181818;stroke-width:1.0;" width="10" x="1218.5" y="1028.0898"/><rect fill="#FFFFFF" height="42.291" style="stroke:#181818;stroke-width:1.0;" width="10" x="1223.5" y="1072.3809"/><rect fill="#FFFFFF" height="278.6484" style="stroke:#181818;stroke-width:1.0;" width="10" x="1600.5" y="710.1504"/><rect fill="#FFFFFF" height="140.8242" style="stroke:#181818;stroke-width:1.0;" width="10" x="1852.5" y="772.3926"/><rect fill="#FFFFFF" height="42.291" style="stroke:#181818;stroke-width:1.0;" width="10" x="1857.5" y="832.6348"/><rect fill="#FFFFFF" height="31.291" style="stroke:#181818;stroke-width:1.0;" width="10" x="2081.5" y="1228.5449"/><polygon fill="#181818" points="401.5,152.5332,411.5,156.5332,401.5,160.5332,405.5,156.5332" style="stroke:#181818;stroke-width:1.0;"/><line style="stroke:#181818;stroke-width:1.0;" x1="107.5" x2="407.5" y1="156.5332" y2="156.5332"/><text fill="#000000" font-family="sans-serif" font-size="13" font-weight="bold" lengthAdjust="spacing" textLength="7" x="114.5" y="151.2705">1</text><text fill="#000000" font-family="sans-serif" font-size="13" lengthAdjust="spacing" textLength="205" x="125.5" y="151.2705">asks to register a new green Space</text><polygon fill="#181818" points="118.5,183.8242,108.5,187.8242,118.5,191.8242,114.5,187.8242" style="stroke:#181818;stroke-width:1.0;"/><line style="stroke:#181818;stroke-width:1.0;stroke-dasharray:2.0,2.0;" x1="112.5" x2="417.5" y1="187.8242" y2="187.8242"/><text fill="#000000" font-family="sans-serif" font-size="13" font-weight="bold" lengthAdjust="spacing" textLength="7" x="124.5" y="182.5615">2</text><text fill="#000000" font-family="sans-serif" font-size="13" lengthAdjust="spacing" textLength="270" x="135.5" y="182.5615">shows type green space and ask to select one</text><polygon fill="#181818" points="401.5,215.1152,411.5,219.1152,401.5,223.1152,405.5,219.1152" style="stroke:#181818;stroke-width:1.0;"/><line style="stroke:#181818;stroke-width:1.0;" x1="107.5" x2="407.5" y1="219.1152" y2="219.1152"/><text fill="#000000" font-family="sans-serif" font-size="13" font-weight="bold" lengthAdjust="spacing" textLength="7" x="114.5" y="213.8525">3</text><text fill="#000000" font-family="sans-serif" font-size="13" lengthAdjust="spacing" textLength="82" x="125.5" y="213.8525">selects a type</text><polygon fill="#181818" points="118.5,246.4063,108.5,250.4063,118.5,254.4063,114.5,250.4063" style="stroke:#181818;stroke-width:1.0;"/><line style="stroke:#181818;stroke-width:1.0;stroke-dasharray:2.0,2.0;" x1="112.5" x2="417.5" y1="250.4063" y2="250.4063"/><text fill="#000000" font-family="sans-serif" font-size="13" font-weight="bold" lengthAdjust="spacing" textLength="7" x="124.5" y="245.1436">4</text><text fill="#000000" font-family="sans-serif" font-size="13" lengthAdjust="spacing" textLength="271" x="135.5" y="245.1436">request data(name,area,streetName,postCode)</text><polygon fill="#181818" points="401.5,277.6973,411.5,281.6973,401.5,285.6973,405.5,281.6973" style="stroke:#181818;stroke-width:1.0;"/><line style="stroke:#181818;stroke-width:1.0;" x1="107.5" x2="407.5" y1="281.6973" y2="281.6973"/><text fill="#000000" font-family="sans-serif" font-size="13" font-weight="bold" lengthAdjust="spacing" textLength="7" x="114.5" y="276.4346">5</text><text fill="#000000" font-family="sans-serif" font-size="13" lengthAdjust="spacing" textLength="108" x="125.5" y="276.4346">types request data</text><polygon fill="#181818" points="118.5,308.9883,108.5,312.9883,118.5,316.9883,114.5,312.9883" style="stroke:#181818;stroke-width:1.0;"/><line style="stroke:#181818;stroke-width:1.0;stroke-dasharray:2.0,2.0;" x1="112.5" x2="417.5" y1="312.9883" y2="312.9883"/><text fill="#000000" font-family="sans-serif" font-size="13" font-weight="bold" lengthAdjust="spacing" textLength="7" x="124.5" y="307.7256">6</text><text fill="#000000" font-family="sans-serif" font-size="13" lengthAdjust="spacing" textLength="238" x="135.5" y="307.7256">display the data and request confirmation</text><polygon fill="#181818" points="401.5,340.2793,411.5,344.2793,401.5,348.2793,405.5,344.2793" style="stroke:#181818;stroke-width:1.0;"/><line style="stroke:#181818;stroke-width:1.0;" x1="107.5" x2="407.5" y1="344.2793" y2="344.2793"/><text fill="#000000" font-family="sans-serif" font-size="13" font-weight="bold" lengthAdjust="spacing" textLength="7" x="114.5" y="339.0166">7</text><text fill="#000000" font-family="sans-serif" font-size="13" lengthAdjust="spacing" textLength="153" x="125.5" y="339.0166">confirms and submits data</text><polygon fill="#181818" points="784.5,371.5703,794.5,375.5703,784.5,379.5703,788.5,375.5703" style="stroke:#181818;stroke-width:1.0;"/><line style="stroke:#181818;stroke-width:1.0;" x1="423.5" x2="790.5" y1="375.5703" y2="375.5703"/><text fill="#000000" font-family="sans-serif" font-size="13" font-weight="bold" lengthAdjust="spacing" textLength="7" x="430.5" y="370.3076">8</text><text fill="#000000" font-family="sans-serif" font-size="13" lengthAdjust="spacing" textLength="343" x="441.5" y="370.3076">registerGreenSpace(type,name,area,streetName,postCode)</text><line style="stroke:#181818;stroke-width:1.0;" x1="806.5" x2="853.5" y1="401.8613" y2="401.8613"/><line style="stroke:#181818;stroke-width:1.0;" x1="853.5" x2="853.5" y1="401.8613" y2="414.8613"/><line style="stroke:#181818;stroke-width:1.0;" x1="812.5" x2="853.5" y1="414.8613" y2="414.8613"/><polygon fill="#181818" points="822.5,410.8613,812.5,414.8613,822.5,418.8613,818.5,414.8613" style="stroke:#181818;stroke-width:1.0;"/><text fill="#000000" font-family="sans-serif" font-size="13" font-weight="bold" lengthAdjust="spacing" textLength="7" x="818.5" y="396.5986">9</text><text fill="#000000" font-family="sans-serif" font-size="13" lengthAdjust="spacing" textLength="133" x="829.5" y="396.5986">getGSMFromSession()</text><rect fill="none" height="43.252" style="stroke:#000000;stroke-width:1.5;" width="219" x="692" y="427.8613"/><path d="M692,427.8613 L754,427.8613 L754,436.8613 L744,446.8613 L692,446.8613 L692,427.8613 " fill="#EEEEEE" style="stroke:#000000;stroke-width:2.0;"/><text fill="#000000" font-family="sans-serif" font-size="13" font-weight="bold" lengthAdjust="spacing" textLength="17" x="705" y="443.8896">ref</text><text fill="#000000" font-family="sans-serif" font-size="12" lengthAdjust="spacing" textLength="139" x="732" y="463.8105">Get GreenSpaceManager</text><line style="stroke:#181818;stroke-width:1.0;stroke-dasharray:2.0,2.0;" x1="811.5" x2="853.5" y1="504.4043" y2="504.4043"/><line style="stroke:#181818;stroke-width:1.0;stroke-dasharray:2.0,2.0;" x1="853.5" x2="853.5" y1="504.4043" y2="517.4043"/><line style="stroke:#181818;stroke-width:1.0;stroke-dasharray:2.0,2.0;" x1="806.5" x2="853.5" y1="517.4043" y2="517.4043"/><polygon fill="#181818" points="816.5,513.4043,806.5,517.4043,816.5,521.4043,812.5,517.4043" style="stroke:#181818;stroke-width:1.0;"/><text fill="#000000" font-family="sans-serif" font-size="13" font-weight="bold" lengthAdjust="spacing" textLength="14" x="818.5" y="499.1416">10</text><text fill="#000000" font-family="sans-serif" font-size="13" lengthAdjust="spacing" textLength="119" x="836.5" y="499.1416">greenSpaceManager</text><polygon fill="#181818" points="952.5,539.6953,962.5,543.6953,952.5,547.6953,956.5,543.6953" style="stroke:#181818;stroke-width:1.0;"/><line style="stroke:#181818;stroke-width:1.0;" x1="806.5" x2="958.5" y1="543.6953" y2="543.6953"/><text fill="#000000" font-family="sans-serif" font-size="13" font-weight="bold" lengthAdjust="spacing" textLength="14" x="813.5" y="538.4326">11</text><text fill="#000000" font-family="sans-serif" font-size="13" lengthAdjust="spacing" textLength="75" x="831.5" y="538.4326">getInstance()</text><polygon fill="#181818" points="817.5,570.9863,807.5,574.9863,817.5,578.9863,813.5,574.9863" style="stroke:#181818;stroke-width:1.0;"/><line style="stroke:#181818;stroke-width:1.0;stroke-dasharray:2.0,2.0;" x1="811.5" x2="968.5" y1="574.9863" y2="574.9863"/><text fill="#000000" font-family="sans-serif" font-size="13" font-weight="bold" lengthAdjust="spacing" textLength="14" x="823.5" y="569.7236">12</text><text fill="#000000" font-family="sans-serif" font-size="13" lengthAdjust="spacing" textLength="67" x="841.5" y="569.7236">repositories</text><polygon fill="#181818" points="1059.5,602.2773,1069.5,606.2773,1059.5,610.2773,1063.5,606.2773" style="stroke:#181818;stroke-width:1.0;"/><line style="stroke:#181818;stroke-width:1.0;" x1="806.5" x2="1065.5" y1="606.2773" y2="606.2773"/><text fill="#000000" font-family="sans-serif" font-size="13" font-weight="bold" lengthAdjust="spacing" textLength="14" x="813.5" y="601.0146">13</text><text fill="#000000" font-family="sans-serif" font-size="13" lengthAdjust="spacing" textLength="160" x="831.5" y="601.0146">getGreenSpaceRepository()</text><polygon fill="#181818" points="817.5,633.5684,807.5,637.5684,817.5,641.5684,813.5,637.5684" style="stroke:#181818;stroke-width:1.0;"/><line style="stroke:#181818;stroke-width:1.0;stroke-dasharray:2.0,2.0;" x1="811.5" x2="1075.5" y1="637.5684" y2="637.5684"/><text fill="#000000" font-family="sans-serif" font-size="13" font-weight="bold" lengthAdjust="spacing" textLength="14" x="823.5" y="632.3057">14</text><text fill="#000000" font-family="sans-serif" font-size="13" lengthAdjust="spacing" textLength="131" x="841.5" y="632.3057">greenSpaceRepository</text><polygon fill="#181818" points="1201.5,664.8594,1211.5,668.8594,1201.5,672.8594,1205.5,668.8594" style="stroke:#181818;stroke-width:1.0;"/><line style="stroke:#181818;stroke-width:1.0;" x1="806.5" x2="1207.5" y1="668.8594" y2="668.8594"/><text fill="#000000" font-family="sans-serif" font-size="13" font-weight="bold" lengthAdjust="spacing" textLength="14" x="813.5" y="663.5967">15</text><text fill="#000000" font-family="sans-serif" font-size="13" lengthAdjust="spacing" textLength="370" x="831.5" y="663.5967">registerGreenSpace(name,area,Address(streetName,postCode))</text><polygon fill="#181818" points="1544.5,696.1504,1554.5,700.1504,1544.5,704.1504,1548.5,700.1504" style="stroke:#181818;stroke-width:1.0;"/><line style="stroke:#181818;stroke-width:1.0;" x1="1223.5" x2="1550.5" y1="700.1504" y2="700.1504"/><text fill="#000000" font-family="sans-serif" font-size="13" font-weight="bold" lengthAdjust="spacing" textLength="14" x="1230.5" y="694.8877">16</text><text fill="#000000" font-family="sans-serif" font-size="13" lengthAdjust="spacing" textLength="291" x="1248.5" y="694.8877">create(name,area,Address(streetName,postCode))</text><rect fill="#E3E3E3" height="51.2422" rx="2.5" ry="2.5" style="stroke:#181818;stroke-width:0.5;" width="98" x="1556.5" y="676.8594"/><text fill="#000000" font-family="sans-serif" font-size="14" lengthAdjust="spacing" textLength="77" x="1567" y="698.9668">greenSpace</text><text fill="#000000" font-family="sans-serif" font-size="14" lengthAdjust="spacing" textLength="84" x="1563.5" y="717.5879">:GreenSpace</text><polygon fill="#181818" points="1810.5,758.3926,1820.5,762.3926,1810.5,766.3926,1814.5,762.3926" style="stroke:#181818;stroke-width:1.0;"/><line style="stroke:#181818;stroke-width:1.0;" x1="1610.5" x2="1816.5" y1="762.3926" y2="762.3926"/><text fill="#000000" font-family="sans-serif" font-size="13" font-weight="bold" lengthAdjust="spacing" textLength="14" x="1617.5" y="757.1299">17</text><text fill="#000000" font-family="sans-serif" font-size="13" lengthAdjust="spacing" textLength="170" x="1635.5" y="757.1299">create(streetName,postCode)</text><rect fill="#E3E3E3" height="51.2422" rx="2.5" ry="2.5" style="stroke:#181818;stroke-width:0.5;" width="70" x="1822.5" y="739.1016"/><text fill="#000000" font-family="sans-serif" font-size="14" lengthAdjust="spacing" textLength="51" x="1832" y="761.209">address</text><text fill="#000000" font-family="sans-serif" font-size="14" lengthAdjust="spacing" textLength="56" x="1829.5" y="779.8301">:Address</text><line style="stroke:#181818;stroke-width:1.0;" x1="1862.5" x2="1909.5" y1="819.6348" y2="819.6348"/><line style="stroke:#181818;stroke-width:1.0;" x1="1909.5" x2="1909.5" y1="819.6348" y2="832.6348"/><line style="stroke:#181818;stroke-width:1.0;" x1="1868.5" x2="1909.5" y1="832.6348" y2="832.6348"/><polygon fill="#181818" points="1878.5,828.6348,1868.5,832.6348,1878.5,836.6348,1874.5,832.6348" style="stroke:#181818;stroke-width:1.0;"/><text fill="#000000" font-family="sans-serif" font-size="13" font-weight="bold" lengthAdjust="spacing" textLength="14" x="1874.5" y="814.3721">18</text><text fill="#000000" font-family="sans-serif" font-size="13" lengthAdjust="spacing" textLength="187" x="1892.5" y="814.3721">validation(streetName,postCode)</text><line style="stroke:#181818;stroke-width:1.0;stroke-dasharray:2.0,2.0;" x1="1867.5" x2="1909.5" y1="873.9258" y2="873.9258"/><line style="stroke:#181818;stroke-width:1.0;stroke-dasharray:2.0,2.0;" x1="1909.5" x2="1909.5" y1="873.9258" y2="886.9258"/><line style="stroke:#181818;stroke-width:1.0;stroke-dasharray:2.0,2.0;" x1="1862.5" x2="1909.5" y1="886.9258" y2="886.9258"/><polygon fill="#181818" points="1872.5,882.9258,1862.5,886.9258,1872.5,890.9258,1868.5,886.9258" style="stroke:#181818;stroke-width:1.0;"/><text fill="#000000" font-family="sans-serif" font-size="13" font-weight="bold" lengthAdjust="spacing" textLength="14" x="1874.5" y="868.6631">19</text><text fill="#000000" font-family="sans-serif" font-size="13" lengthAdjust="spacing" textLength="53" x="1892.5" y="868.6631">true/false</text><polygon fill="#181818" points="1621.5,909.2168,1611.5,913.2168,1621.5,917.2168,1617.5,913.2168" style="stroke:#181818;stroke-width:1.0;"/><line style="stroke:#181818;stroke-width:1.0;stroke-dasharray:2.0,2.0;" x1="1615.5" x2="1856.5" y1="913.2168" y2="913.2168"/><text fill="#000000" font-family="sans-serif" font-size="13" font-weight="bold" lengthAdjust="spacing" textLength="14" x="1627.5" y="907.9541">20</text><text fill="#000000" font-family="sans-serif" font-size="13" lengthAdjust="spacing" textLength="48" x="1645.5" y="907.9541">Address</text><line style="stroke:#181818;stroke-width:1.0;" x1="1610.5" x2="1652.5" y1="944.5078" y2="944.5078"/><line style="stroke:#181818;stroke-width:1.0;" x1="1652.5" x2="1652.5" y1="944.5078" y2="957.5078"/><line style="stroke:#181818;stroke-width:1.0;" x1="1611.5" x2="1652.5" y1="957.5078" y2="957.5078"/><polygon fill="#181818" points="1621.5,953.5078,1611.5,957.5078,1621.5,961.5078,1617.5,957.5078" style="stroke:#181818;stroke-width:1.0;"/><text fill="#000000" font-family="sans-serif" font-size="13" font-weight="bold" lengthAdjust="spacing" textLength="14" x="1617.5" y="939.2451">21</text><text fill="#000000" font-family="sans-serif" font-size="13" lengthAdjust="spacing" textLength="195" x="1635.5" y="939.2451">validationGreenSpace(greeSpace)</text><polygon fill="#181818" points="1234.5,984.7988,1224.5,988.7988,1234.5,992.7988,1230.5,988.7988" style="stroke:#181818;stroke-width:1.0;"/><line style="stroke:#181818;stroke-width:1.0;stroke-dasharray:2.0,2.0;" x1="1228.5" x2="1604.5" y1="988.7988" y2="988.7988"/><text fill="#000000" font-family="sans-serif" font-size="13" font-weight="bold" lengthAdjust="spacing" textLength="14" x="1240.5" y="983.5361">22</text><text fill="#000000" font-family="sans-serif" font-size="13" lengthAdjust="spacing" textLength="69" x="1258.5" y="983.5361">greenSpace</text><line style="stroke:#181818;stroke-width:1.0;" x1="1223.5" x2="1270.5" y1="1015.0898" y2="1015.0898"/><line style="stroke:#181818;stroke-width:1.0;" x1="1270.5" x2="1270.5" y1="1015.0898" y2="1028.0898"/><line style="stroke:#181818;stroke-width:1.0;" x1="1229.5" x2="1270.5" y1="1028.0898" y2="1028.0898"/><polygon fill="#181818" points="1239.5,1024.0898,1229.5,1028.0898,1239.5,1032.0898,1235.5,1028.0898" style="stroke:#181818;stroke-width:1.0;"/><text fill="#000000" font-family="sans-serif" font-size="13" font-weight="bold" lengthAdjust="spacing" textLength="14" x="1235.5" y="1009.8271">23</text><text fill="#000000" font-family="sans-serif" font-size="13" lengthAdjust="spacing" textLength="170" x="1253.5" y="1009.8271">addGreenSpace(greenSpace)</text><line style="stroke:#181818;stroke-width:1.0;" x1="1228.5" x2="1275.5" y1="1059.3809" y2="1059.3809"/><line style="stroke:#181818;stroke-width:1.0;" x1="1275.5" x2="1275.5" y1="1059.3809" y2="1072.3809"/><line style="stroke:#181818;stroke-width:1.0;" x1="1234.5" x2="1275.5" y1="1072.3809" y2="1072.3809"/><polygon fill="#181818" points="1244.5,1068.3809,1234.5,1072.3809,1244.5,1076.3809,1240.5,1072.3809" style="stroke:#181818;stroke-width:1.0;"/><text fill="#000000" font-family="sans-serif" font-size="13" font-weight="bold" lengthAdjust="spacing" textLength="14" x="1240.5" y="1054.1182">24</text><text fill="#000000" font-family="sans-serif" font-size="13" lengthAdjust="spacing" textLength="172" x="1258.5" y="1054.1182">validationAllData(greenSpace)</text><line style="stroke:#181818;stroke-width:1.0;stroke-dasharray:2.0,2.0;" x1="1233.5" x2="1275.5" y1="1113.6719" y2="1113.6719"/><line style="stroke:#181818;stroke-width:1.0;stroke-dasharray:2.0,2.0;" x1="1275.5" x2="1275.5" y1="1113.6719" y2="1126.6719"/><line style="stroke:#181818;stroke-width:1.0;stroke-dasharray:2.0,2.0;" x1="1228.5" x2="1275.5" y1="1126.6719" y2="1126.6719"/><polygon fill="#181818" points="1238.5,1122.6719,1228.5,1126.6719,1238.5,1130.6719,1234.5,1126.6719" style="stroke:#181818;stroke-width:1.0;"/><text fill="#000000" font-family="sans-serif" font-size="13" font-weight="bold" lengthAdjust="spacing" textLength="14" x="1240.5" y="1108.4092">25</text><text fill="#000000" font-family="sans-serif" font-size="13" lengthAdjust="spacing" textLength="53" x="1258.5" y="1108.4092">true/false</text><line style="stroke:#181818;stroke-width:1.0;stroke-dasharray:2.0,2.0;" x1="1228.5" x2="1270.5" y1="1157.9629" y2="1157.9629"/><line style="stroke:#181818;stroke-width:1.0;stroke-dasharray:2.0,2.0;" x1="1270.5" x2="1270.5" y1="1157.9629" y2="1170.9629"/><line style="stroke:#181818;stroke-width:1.0;stroke-dasharray:2.0,2.0;" x1="1223.5" x2="1270.5" y1="1170.9629" y2="1170.9629"/><polygon fill="#181818" points="1233.5,1166.9629,1223.5,1170.9629,1233.5,1174.9629,1229.5,1170.9629" style="stroke:#181818;stroke-width:1.0;"/><text fill="#000000" font-family="sans-serif" font-size="13" font-weight="bold" lengthAdjust="spacing" textLength="14" x="1235.5" y="1152.7002">26</text><text fill="#000000" font-family="sans-serif" font-size="13" lengthAdjust="spacing" textLength="53" x="1253.5" y="1152.7002">true/false</text><polygon fill="#181818" points="817.5,1193.2539,807.5,1197.2539,817.5,1201.2539,813.5,1197.2539" style="stroke:#181818;stroke-width:1.0;"/><line style="stroke:#181818;stroke-width:1.0;stroke-dasharray:2.0,2.0;" x1="811.5" x2="1217.5" y1="1197.2539" y2="1197.2539"/><text fill="#000000" font-family="sans-serif" font-size="13" font-weight="bold" lengthAdjust="spacing" textLength="14" x="823.5" y="1191.9912">27</text><text fill="#000000" font-family="sans-serif" font-size="13" lengthAdjust="spacing" textLength="69" x="841.5" y="1191.9912">greenSpace</text><polygon fill="#181818" points="2069.5,1224.5449,2079.5,1228.5449,2069.5,1232.5449,2073.5,1228.5449" style="stroke:#181818;stroke-width:1.0;"/><line style="stroke:#181818;stroke-width:1.0;" x1="806.5" x2="2075.5" y1="1228.5449" y2="1228.5449"/><text fill="#000000" font-family="sans-serif" font-size="13" font-weight="bold" lengthAdjust="spacing" textLength="14" x="813.5" y="1223.2822">28</text><text fill="#000000" font-family="sans-serif" font-size="13" lengthAdjust="spacing" textLength="245" x="831.5" y="1223.2822">addListManagerGreenSpace(greenSpace))</text><polygon fill="#181818" points="817.5,1255.8359,807.5,1259.8359,817.5,1263.8359,813.5,1259.8359" style="stroke:#181818;stroke-width:1.0;"/><line style="stroke:#181818;stroke-width:1.0;stroke-dasharray:2.0,2.0;" x1="811.5" x2="2085.5" y1="1259.8359" y2="1259.8359"/><text fill="#000000" font-family="sans-serif" font-size="13" font-weight="bold" lengthAdjust="spacing" textLength="14" x="823.5" y="1254.5732">29</text><text fill="#000000" font-family="sans-serif" font-size="13" lengthAdjust="spacing" textLength="53" x="841.5" y="1254.5732">true/false</text><polygon fill="#181818" points="434.5,1287.127,424.5,1291.127,434.5,1295.127,430.5,1291.127" style="stroke:#181818;stroke-width:1.0;"/><line style="stroke:#181818;stroke-width:1.0;stroke-dasharray:2.0,2.0;" x1="428.5" x2="800.5" y1="1291.127" y2="1291.127"/><text fill="#000000" font-family="sans-serif" font-size="13" font-weight="bold" lengthAdjust="spacing" textLength="14" x="440.5" y="1285.8643">30</text><text fill="#000000" font-family="sans-serif" font-size="13" lengthAdjust="spacing" textLength="69" x="458.5" y="1285.8643">greenSpace</text><polygon fill="#181818" points="113.5,1318.418,103.5,1322.418,113.5,1326.418,109.5,1322.418" style="stroke:#181818;stroke-width:1.0;"/><line style="stroke:#181818;stroke-width:1.0;stroke-dasharray:2.0,2.0;" x1="107.5" x2="417.5" y1="1322.418" y2="1322.418"/><text fill="#000000" font-family="sans-serif" font-size="13" font-weight="bold" lengthAdjust="spacing" textLength="14" x="119.5" y="1317.1553">31</text><text fill="#000000" font-family="sans-serif" font-size="13" lengthAdjust="spacing" textLength="158" x="137.5" y="1317.1553">displays operation success</text><!--SRC=[dLLDRnen4BtxLunoAKH1hNha40a1HKZvqcwuzUBi3ekLnQQsIPf_tx7tomucKPC3B9jvRzvutepDiv07hlaUzaggOgVL7i7g8pBJ_-V0YsTUOMxVQWIDXUMogiC0i-EbUXMoWYsl3J9cXQNGpHfo_7D4MI0i1AzSw2ZF5sEOm2R_-OE-Cgo4iQY1mqeZIiWf6H7merNok7z2pTYtdIWHjahP9_MNyS8g3HT1DDnoIV8qZ5RvxVW2k05wO2JDYa8SkBHmCUqIUPo7RTO-TBF-D7AkfDMghb5xnFmnkpd179GH94oWyJ7zYxTSkCEYQcA83X2_vId1mytiCKPKlPw1d92hnEls3B9p116i2SwMoxlyOJPVnXXUbXgDKpXhddpqRB78bdb-ZhxjHvIbVTTrvvwvHeeNRj4tYz47JAwTPQOKycp0Ah9QRmw9hr151kdGr3z6g0c17SUKpAXU2Vvsm1PXl4cuB1snupLOaub1IMGbHaJ4CBdUhATjYA7CZkYZTDevt5WekUKZoVTunJNoAsCfjxrplwahTgvA7BD4khvebyT4R1zbBOKvrFmDx0vzh2-l0nTAReNUSol8TH_bR0EDHvlZqrvGoMTINtlVJ_kc3AqTEUbNdvNU4_hnOUwp8oKb5LeIzeksJquc8zsZKuZ6BQWNieF_2VItGWid5cCeouu_I70I5fnBmzzhIWnl8t4j3Uq-gZWKbnfrbg88r8JJ7mf9SdMot4feZoenywIff_7BW_duIT-urFw8tD6WkcoqFY3PxQ7HxKeOfHe-3kSxSxRBF6k_PouldG69ndw5SbXNR7Xs2ThLHEm3_IU6xBPP-nsm4CKBhqNf9-c_QI8UTwL-Rs_7uCmxK8GAAff2Uo99K5nw11jq1wrp5l1FunXBuBRVWqaYcT5vvrbl3xeUtj7BZZ_TVeyAnCtgUk4MPmXD87jeS8oXl2y5dco6ayXX5cxlcsflQ1hQ1P8kFAxStNCU7EGxuuGck5zRVZ-dfJNRAdKT6507rFvWQPqNnJlVq2gF4_u3]--></g></svg>