<?xml version="1.0" encoding="us-ascii" standalone="no"?><svg xmlns="http://www.w3.org/2000/svg" xmlns:xlink="http://www.w3.org/1999/xlink" contentStyleType="text/css" height="1037px" preserveAspectRatio="none" style="width:2204px;height:1037px;background:#FFFFFF;" version="1.1" viewBox="0 0 2204 1037" width="2204px" zoomAndPan="magnify"><defs/><g><text fill="#000000" font-family="sans-serif" font-size="14" font-weight="bold" lengthAdjust="spacing" textLength="411" x="895.5" y="30.1074">UI Sequence Diagram (SD) - US20 - Register a Green Space</text><rect fill="#FFFFFF" height="802.9063" style="stroke:#181818;stroke-width:1.0;" width="10" x="97.5" y="133.2422"/><rect fill="#FFFFFF" height="31.291" style="stroke:#181818;stroke-width:1.0;" width="10" x="601.5" y="156.5332"/><rect fill="#FFFFFF" height="31.291" style="stroke:#181818;stroke-width:1.0;" width="10" x="601.5" y="219.1152"/><rect fill="#FFFFFF" height="31.291" style="stroke:#181818;stroke-width:1.0;" width="10" x="601.5" y="281.6973"/><rect fill="#FFFFFF" height="591.8691" style="stroke:#181818;stroke-width:1.0;" width="10" x="601.5" y="344.2793"/><rect fill="#FFFFFF" height="529.2871" style="stroke:#181818;stroke-width:1.0;" width="10" x="1172.5" y="375.5703"/><rect fill="#FFFFFF" height="90.543" style="stroke:#181818;stroke-width:1.0;" width="10" x="1177.5" y="414.8613"/><rect fill="#FFFFFF" height="31.291" style="stroke:#181818;stroke-width:1.0;" width="10" x="1340.5" y="543.6953"/><rect fill="#FFFFFF" height="31.291" style="stroke:#181818;stroke-width:1.0;" width="10" x="1447.5" y="606.2773"/><rect fill="#FFFFFF" height="79.543" style="stroke:#181818;stroke-width:1.0;" width="10" x="1725.5" y="668.8594"/><rect fill="#FFFFFF" height="93.873" style="stroke:#181818;stroke-width:1.0;" width="10" x="1895.5" y="779.6934"/><rect fill="#FFFFFF" height="31.291" style="stroke:#181818;stroke-width:1.0;" width="10" x="2140.5" y="810.9844"/><line style="stroke:#181818;stroke-width:0.5;stroke-dasharray:5.0,5.0;" x1="102" x2="102" y1="123.2422" y2="954.1484"/><line style="stroke:#181818;stroke-width:0.5;stroke-dasharray:5.0,5.0;" x1="606" x2="606" y1="123.2422" y2="954.1484"/><line style="stroke:#181818;stroke-width:0.5;stroke-dasharray:5.0,5.0;" x1="1177" x2="1177" y1="123.2422" y2="954.1484"/><line style="stroke:#181818;stroke-width:0.5;stroke-dasharray:5.0,5.0;" x1="1345" x2="1345" y1="123.2422" y2="954.1484"/><line style="stroke:#181818;stroke-width:0.5;stroke-dasharray:5.0,5.0;" x1="1452" x2="1452" y1="123.2422" y2="954.1484"/><line style="stroke:#181818;stroke-width:0.5;stroke-dasharray:5.0,5.0;" x1="1730.5" x2="1730.5" y1="123.2422" y2="954.1484"/><line style="stroke:#181818;stroke-width:0.5;stroke-dasharray:5.0,5.0;" x1="1900.5" x2="1900.5" y1="123.2422" y2="954.1484"/><line style="stroke:#181818;stroke-width:0.5;stroke-dasharray:5.0,5.0;" x1="2145" x2="2145" y1="123.2422" y2="954.1484"/><text fill="#000000" font-family="sans-serif" font-size="14" lengthAdjust="spacing" textLength="189" x="5" y="119.7285">Green Space Manager (GSM)</text><ellipse cx="102.5" cy="53.1211" fill="#E3E3E3" rx="8" ry="8" style="stroke:#181818;stroke-width:0.5;"/><path d="M102.5,61.1211 L102.5,88.1211 M89.5,69.1211 L115.5,69.1211 M102.5,88.1211 L89.5,103.1211 M102.5,88.1211 L115.5,103.1211 " fill="none" style="stroke:#181818;stroke-width:0.5;"/><text fill="#000000" font-family="sans-serif" font-size="14" lengthAdjust="spacing" textLength="189" x="5" y="968.2559">Green Space Manager (GSM)</text><ellipse cx="102.5" cy="980.2695" fill="#E3E3E3" rx="8" ry="8" style="stroke:#181818;stroke-width:0.5;"/><path d="M102.5,988.2695 L102.5,1015.2695 M89.5,996.2695 L115.5,996.2695 M102.5,1015.2695 L89.5,1030.2695 M102.5,1015.2695 L115.5,1030.2695 " fill="none" style="stroke:#181818;stroke-width:0.5;"/><rect fill="#E3E3E3" height="32.6211" rx="2.5" ry="2.5" style="stroke:#181818;stroke-width:0.5;" width="163" x="525" y="89.6211"/><text fill="#000000" font-family="sans-serif" font-size="14" lengthAdjust="spacing" textLength="149" x="532" y="111.7285">:RegisterGreenSpaceUI</text><rect fill="#E3E3E3" height="32.6211" rx="2.5" ry="2.5" style="stroke:#181818;stroke-width:0.5;" width="163" x="525" y="953.1484"/><text fill="#000000" font-family="sans-serif" font-size="14" lengthAdjust="spacing" textLength="149" x="532" y="975.2559">:RegisterGreenSpaceUI</text><rect fill="#E3E3E3" height="32.6211" rx="2.5" ry="2.5" style="stroke:#181818;stroke-width:0.5;" width="213" x="1071" y="89.6211"/><text fill="#000000" font-family="sans-serif" font-size="14" lengthAdjust="spacing" textLength="199" x="1078" y="111.7285">:RegisterGreenSpaceController</text><rect fill="#E3E3E3" height="32.6211" rx="2.5" ry="2.5" style="stroke:#181818;stroke-width:0.5;" width="213" x="1071" y="953.1484"/><text fill="#000000" font-family="sans-serif" font-size="14" lengthAdjust="spacing" textLength="199" x="1078" y="975.2559">:RegisterGreenSpaceController</text><rect fill="#E3E3E3" height="32.6211" rx="2.5" ry="2.5" style="stroke:#181818;stroke-width:0.5;" width="97" x="1297" y="89.6211"/><text fill="#000000" font-family="sans-serif" font-size="14" lengthAdjust="spacing" textLength="83" x="1304" y="111.7285">:Repositories</text><rect fill="#E3E3E3" height="32.6211" rx="2.5" ry="2.5" style="stroke:#181818;stroke-width:0.5;" width="97" x="1297" y="953.1484"/><text fill="#000000" font-family="sans-serif" font-size="14" lengthAdjust="spacing" textLength="83" x="1304" y="975.2559">:Repositories</text><rect fill="#E3E3E3" height="51.2422" rx="2.5" ry="2.5" style="stroke:#181818;stroke-width:0.5;" width="97" x="1404" y="71"/><text fill="#000000" font-family="sans-serif" font-size="14" lengthAdjust="spacing" textLength="74" x="1415.5" y="93.1074">repositories</text><text fill="#000000" font-family="sans-serif" font-size="14" lengthAdjust="spacing" textLength="83" x="1411" y="111.7285">:Repositories</text><rect fill="#E3E3E3" height="51.2422" rx="2.5" ry="2.5" style="stroke:#181818;stroke-width:0.5;" width="97" x="1404" y="953.1484"/><text fill="#000000" font-family="sans-serif" font-size="14" lengthAdjust="spacing" textLength="74" x="1415.5" y="975.2559">repositories</text><text fill="#000000" font-family="sans-serif" font-size="14" lengthAdjust="spacing" textLength="83" x="1411" y="993.877">:Repositories</text><rect fill="#E3E3E3" height="51.2422" rx="2.5" ry="2.5" style="stroke:#181818;stroke-width:0.5;" width="166" x="1647.5" y="71"/><text fill="#000000" font-family="sans-serif" font-size="14" lengthAdjust="spacing" textLength="145" x="1658" y="93.1074">greenSpaceRepository</text><text fill="#000000" font-family="sans-serif" font-size="14" lengthAdjust="spacing" textLength="152" x="1654.5" y="111.7285">:GreenSpaceRepository</text><rect fill="#E3E3E3" height="51.2422" rx="2.5" ry="2.5" style="stroke:#181818;stroke-width:0.5;" width="166" x="1647.5" y="953.1484"/><text fill="#000000" font-family="sans-serif" font-size="14" lengthAdjust="spacing" textLength="145" x="1658" y="975.2559">greenSpaceRepository</text><text fill="#000000" font-family="sans-serif" font-size="14" lengthAdjust="spacing" textLength="152" x="1654.5" y="993.877">:GreenSpaceRepository</text><rect fill="#E3E3E3" height="51.2422" rx="2.5" ry="2.5" style="stroke:#181818;stroke-width:0.5;" width="154" x="1823.5" y="71"/><text fill="#000000" font-family="sans-serif" font-size="14" lengthAdjust="spacing" textLength="133" x="1834" y="93.1074">greenSpaceManager</text><text fill="#000000" font-family="sans-serif" font-size="14" lengthAdjust="spacing" textLength="140" x="1830.5" y="111.7285">:GreenSpaceManager</text><rect fill="#E3E3E3" height="51.2422" rx="2.5" ry="2.5" style="stroke:#181818;stroke-width:0.5;" width="154" x="1823.5" y="953.1484"/><text fill="#000000" font-family="sans-serif" font-size="14" lengthAdjust="spacing" textLength="133" x="1834" y="975.2559">greenSpaceManager</text><text fill="#000000" font-family="sans-serif" font-size="14" lengthAdjust="spacing" textLength="140" x="1830.5" y="993.877">:GreenSpaceManager</text><rect fill="#E3E3E3" height="51.2422" rx="2.5" ry="2.5" style="stroke:#181818;stroke-width:0.5;" width="105" x="2093" y="71"/><text fill="#000000" font-family="sans-serif" font-size="14" lengthAdjust="spacing" textLength="84" x="2103.5" y="93.1074">greenSpaces</text><text fill="#000000" font-family="sans-serif" font-size="14" lengthAdjust="spacing" textLength="91" x="2100" y="111.7285">:GreenSpaces</text><rect fill="#E3E3E3" height="51.2422" rx="2.5" ry="2.5" style="stroke:#181818;stroke-width:0.5;" width="105" x="2093" y="953.1484"/><text fill="#000000" font-family="sans-serif" font-size="14" lengthAdjust="spacing" textLength="84" x="2103.5" y="975.2559">greenSpaces</text><text fill="#000000" font-family="sans-serif" font-size="14" lengthAdjust="spacing" textLength="91" x="2100" y="993.877">:GreenSpaces</text><rect fill="#FFFFFF" height="802.9063" style="stroke:#181818;stroke-width:1.0;" width="10" x="97.5" y="133.2422"/><rect fill="#FFFFFF" height="31.291" style="stroke:#181818;stroke-width:1.0;" width="10" x="601.5" y="156.5332"/><rect fill="#FFFFFF" height="31.291" style="stroke:#181818;stroke-width:1.0;" width="10" x="601.5" y="219.1152"/><rect fill="#FFFFFF" height="31.291" style="stroke:#181818;stroke-width:1.0;" width="10" x="601.5" y="281.6973"/><rect fill="#FFFFFF" height="591.8691" style="stroke:#181818;stroke-width:1.0;" width="10" x="601.5" y="344.2793"/><rect fill="#FFFFFF" height="529.2871" style="stroke:#181818;stroke-width:1.0;" width="10" x="1172.5" y="375.5703"/><rect fill="#FFFFFF" height="90.543" style="stroke:#181818;stroke-width:1.0;" width="10" x="1177.5" y="414.8613"/><rect fill="#FFFFFF" height="31.291" style="stroke:#181818;stroke-width:1.0;" width="10" x="1340.5" y="543.6953"/><rect fill="#FFFFFF" height="31.291" style="stroke:#181818;stroke-width:1.0;" width="10" x="1447.5" y="606.2773"/><rect fill="#FFFFFF" height="79.543" style="stroke:#181818;stroke-width:1.0;" width="10" x="1725.5" y="668.8594"/><rect fill="#FFFFFF" height="93.873" style="stroke:#181818;stroke-width:1.0;" width="10" x="1895.5" y="779.6934"/><rect fill="#FFFFFF" height="31.291" style="stroke:#181818;stroke-width:1.0;" width="10" x="2140.5" y="810.9844"/><polygon fill="#181818" points="589.5,152.5332,599.5,156.5332,589.5,160.5332,593.5,156.5332" style="stroke:#181818;stroke-width:1.0;"/><line style="stroke:#181818;stroke-width:1.0;" x1="107.5" x2="595.5" y1="156.5332" y2="156.5332"/><text fill="#000000" font-family="sans-serif" font-size="13" font-weight="bold" lengthAdjust="spacing" textLength="7" x="114.5" y="151.2705">1</text><text fill="#000000" font-family="sans-serif" font-size="13" lengthAdjust="spacing" textLength="205" x="125.5" y="151.2705">asks to register a new green Space</text><polygon fill="#181818" points="118.5,183.8242,108.5,187.8242,118.5,191.8242,114.5,187.8242" style="stroke:#181818;stroke-width:1.0;"/><line style="stroke:#181818;stroke-width:1.0;stroke-dasharray:2.0,2.0;" x1="112.5" x2="605.5" y1="187.8242" y2="187.8242"/><text fill="#000000" font-family="sans-serif" font-size="13" font-weight="bold" lengthAdjust="spacing" textLength="7" x="124.5" y="182.5615">2</text><text fill="#000000" font-family="sans-serif" font-size="13" lengthAdjust="spacing" textLength="270" x="135.5" y="182.5615">shows type green space and ask to select one</text><polygon fill="#181818" points="589.5,215.1152,599.5,219.1152,589.5,223.1152,593.5,219.1152" style="stroke:#181818;stroke-width:1.0;"/><line style="stroke:#181818;stroke-width:1.0;" x1="107.5" x2="595.5" y1="219.1152" y2="219.1152"/><text fill="#000000" font-family="sans-serif" font-size="13" font-weight="bold" lengthAdjust="spacing" textLength="7" x="114.5" y="213.8525">3</text><text fill="#000000" font-family="sans-serif" font-size="13" lengthAdjust="spacing" textLength="82" x="125.5" y="213.8525">selects a type</text><polygon fill="#181818" points="118.5,246.4063,108.5,250.4063,118.5,254.4063,114.5,250.4063" style="stroke:#181818;stroke-width:1.0;"/><line style="stroke:#181818;stroke-width:1.0;stroke-dasharray:2.0,2.0;" x1="112.5" x2="605.5" y1="250.4063" y2="250.4063"/><text fill="#000000" font-family="sans-serif" font-size="13" font-weight="bold" lengthAdjust="spacing" textLength="7" x="124.5" y="245.1436">4</text><text fill="#000000" font-family="sans-serif" font-size="13" lengthAdjust="spacing" textLength="459" x="135.5" y="245.1436">request data(name,area,streetName,doorNumber,postCodeNumber,localization)</text><polygon fill="#181818" points="589.5,277.6973,599.5,281.6973,589.5,285.6973,593.5,281.6973" style="stroke:#181818;stroke-width:1.0;"/><line style="stroke:#181818;stroke-width:1.0;" x1="107.5" x2="595.5" y1="281.6973" y2="281.6973"/><text fill="#000000" font-family="sans-serif" font-size="13" font-weight="bold" lengthAdjust="spacing" textLength="7" x="114.5" y="276.4346">5</text><text fill="#000000" font-family="sans-serif" font-size="13" lengthAdjust="spacing" textLength="108" x="125.5" y="276.4346">types request data</text><polygon fill="#181818" points="118.5,308.9883,108.5,312.9883,118.5,316.9883,114.5,312.9883" style="stroke:#181818;stroke-width:1.0;"/><line style="stroke:#181818;stroke-width:1.0;stroke-dasharray:2.0,2.0;" x1="112.5" x2="605.5" y1="312.9883" y2="312.9883"/><text fill="#000000" font-family="sans-serif" font-size="13" font-weight="bold" lengthAdjust="spacing" textLength="7" x="124.5" y="307.7256">6</text><text fill="#000000" font-family="sans-serif" font-size="13" lengthAdjust="spacing" textLength="238" x="135.5" y="307.7256">display the data and request confirmation</text><polygon fill="#181818" points="589.5,340.2793,599.5,344.2793,589.5,348.2793,593.5,344.2793" style="stroke:#181818;stroke-width:1.0;"/><line style="stroke:#181818;stroke-width:1.0;" x1="107.5" x2="595.5" y1="344.2793" y2="344.2793"/><text fill="#000000" font-family="sans-serif" font-size="13" font-weight="bold" lengthAdjust="spacing" textLength="7" x="114.5" y="339.0166">7</text><text fill="#000000" font-family="sans-serif" font-size="13" lengthAdjust="spacing" textLength="153" x="125.5" y="339.0166">confirms and submits data</text><polygon fill="#181818" points="1160.5,371.5703,1170.5,375.5703,1160.5,379.5703,1164.5,375.5703" style="stroke:#181818;stroke-width:1.0;"/><line style="stroke:#181818;stroke-width:1.0;" x1="611.5" x2="1166.5" y1="375.5703" y2="375.5703"/><text fill="#000000" font-family="sans-serif" font-size="13" font-weight="bold" lengthAdjust="spacing" textLength="7" x="618.5" y="370.3076">8</text><text fill="#000000" font-family="sans-serif" font-size="13" lengthAdjust="spacing" textLength="531" x="629.5" y="370.3076">registerGreenSpace(type,name,area,streetName,doorNumber,postCodeNumber,localization)</text><line style="stroke:#181818;stroke-width:1.0;" x1="1182.5" x2="1229.5" y1="401.8613" y2="401.8613"/><line style="stroke:#181818;stroke-width:1.0;" x1="1229.5" x2="1229.5" y1="401.8613" y2="414.8613"/><line style="stroke:#181818;stroke-width:1.0;" x1="1188.5" x2="1229.5" y1="414.8613" y2="414.8613"/><polygon fill="#181818" points="1198.5,410.8613,1188.5,414.8613,1198.5,418.8613,1194.5,414.8613" style="stroke:#181818;stroke-width:1.0;"/><text fill="#000000" font-family="sans-serif" font-size="13" font-weight="bold" lengthAdjust="spacing" textLength="7" x="1194.5" y="396.5986">9</text><text fill="#000000" font-family="sans-serif" font-size="13" lengthAdjust="spacing" textLength="133" x="1205.5" y="396.5986">getGSMFromSession()</text><rect fill="none" height="43.252" style="stroke:#000000;stroke-width:1.5;" width="219" x="1068" y="427.8613"/><path d="M1068,427.8613 L1130,427.8613 L1130,436.8613 L1120,446.8613 L1068,446.8613 L1068,427.8613 " fill="#EEEEEE" style="stroke:#000000;stroke-width:2.0;"/><text fill="#000000" font-family="sans-serif" font-size="13" font-weight="bold" lengthAdjust="spacing" textLength="17" x="1081" y="443.8896">ref</text><text fill="#000000" font-family="sans-serif" font-size="12" lengthAdjust="spacing" textLength="139" x="1108" y="463.8105">Get GreenSpaceManager</text><line style="stroke:#181818;stroke-width:1.0;stroke-dasharray:2.0,2.0;" x1="1187.5" x2="1229.5" y1="504.4043" y2="504.4043"/><line style="stroke:#181818;stroke-width:1.0;stroke-dasharray:2.0,2.0;" x1="1229.5" x2="1229.5" y1="504.4043" y2="517.4043"/><line style="stroke:#181818;stroke-width:1.0;stroke-dasharray:2.0,2.0;" x1="1182.5" x2="1229.5" y1="517.4043" y2="517.4043"/><polygon fill="#181818" points="1192.5,513.4043,1182.5,517.4043,1192.5,521.4043,1188.5,517.4043" style="stroke:#181818;stroke-width:1.0;"/><text fill="#000000" font-family="sans-serif" font-size="13" font-weight="bold" lengthAdjust="spacing" textLength="14" x="1194.5" y="499.1416">10</text><text fill="#000000" font-family="sans-serif" font-size="13" lengthAdjust="spacing" textLength="119" x="1212.5" y="499.1416">greenSpaceManager</text><polygon fill="#181818" points="1328.5,539.6953,1338.5,543.6953,1328.5,547.6953,1332.5,543.6953" style="stroke:#181818;stroke-width:1.0;"/><line style="stroke:#181818;stroke-width:1.0;" x1="1182.5" x2="1334.5" y1="543.6953" y2="543.6953"/><text fill="#000000" font-family="sans-serif" font-size="13" font-weight="bold" lengthAdjust="spacing" textLength="14" x="1189.5" y="538.4326">11</text><text fill="#000000" font-family="sans-serif" font-size="13" lengthAdjust="spacing" textLength="75" x="1207.5" y="538.4326">getInstance()</text><polygon fill="#181818" points="1193.5,570.9863,1183.5,574.9863,1193.5,578.9863,1189.5,574.9863" style="stroke:#181818;stroke-width:1.0;"/><line style="stroke:#181818;stroke-width:1.0;stroke-dasharray:2.0,2.0;" x1="1187.5" x2="1344.5" y1="574.9863" y2="574.9863"/><text fill="#000000" font-family="sans-serif" font-size="13" font-weight="bold" lengthAdjust="spacing" textLength="14" x="1199.5" y="569.7236">12</text><text fill="#000000" font-family="sans-serif" font-size="13" lengthAdjust="spacing" textLength="67" x="1217.5" y="569.7236">repositories</text><polygon fill="#181818" points="1435.5,602.2773,1445.5,606.2773,1435.5,610.2773,1439.5,606.2773" style="stroke:#181818;stroke-width:1.0;"/><line style="stroke:#181818;stroke-width:1.0;" x1="1182.5" x2="1441.5" y1="606.2773" y2="606.2773"/><text fill="#000000" font-family="sans-serif" font-size="13" font-weight="bold" lengthAdjust="spacing" textLength="14" x="1189.5" y="601.0146">13</text><text fill="#000000" font-family="sans-serif" font-size="13" lengthAdjust="spacing" textLength="160" x="1207.5" y="601.0146">getGreenSpaceRepository()</text><polygon fill="#181818" points="1193.5,633.5684,1183.5,637.5684,1193.5,641.5684,1189.5,637.5684" style="stroke:#181818;stroke-width:1.0;"/><line style="stroke:#181818;stroke-width:1.0;stroke-dasharray:2.0,2.0;" x1="1187.5" x2="1451.5" y1="637.5684" y2="637.5684"/><text fill="#000000" font-family="sans-serif" font-size="13" font-weight="bold" lengthAdjust="spacing" textLength="14" x="1199.5" y="632.3057">14</text><text fill="#000000" font-family="sans-serif" font-size="13" lengthAdjust="spacing" textLength="131" x="1217.5" y="632.3057">greenSpaceRepository</text><polygon fill="#181818" points="1713.5,664.8594,1723.5,668.8594,1713.5,672.8594,1717.5,668.8594" style="stroke:#181818;stroke-width:1.0;"/><line style="stroke:#181818;stroke-width:1.0;" x1="1182.5" x2="1719.5" y1="668.8594" y2="668.8594"/><text fill="#000000" font-family="sans-serif" font-size="13" font-weight="bold" lengthAdjust="spacing" textLength="14" x="1189.5" y="663.5967">15</text><text fill="#000000" font-family="sans-serif" font-size="13" lengthAdjust="spacing" textLength="506" x="1207.5" y="663.5967">registerGreenSpace(name,area,streetName,doorNumber, postCodeNumber,localization)</text><rect fill="none" height="43.252" style="stroke:#000000;stroke-width:1.5;" width="172" x="1644.5" y="676.8594"/><path d="M1644.5,676.8594 L1706.5,676.8594 L1706.5,685.8594 L1696.5,695.8594 L1644.5,695.8594 L1644.5,676.8594 " fill="#EEEEEE" style="stroke:#000000;stroke-width:2.0;"/><text fill="#000000" font-family="sans-serif" font-size="13" font-weight="bold" lengthAdjust="spacing" textLength="17" x="1657.5" y="692.8877">ref</text><text fill="#000000" font-family="sans-serif" font-size="12" lengthAdjust="spacing" textLength="119" x="1671" y="712.8086">Register GreenSpace</text><polygon fill="#181818" points="1193.5,744.4023,1183.5,748.4023,1193.5,752.4023,1189.5,748.4023" style="stroke:#181818;stroke-width:1.0;"/><line style="stroke:#181818;stroke-width:1.0;stroke-dasharray:2.0,2.0;" x1="1187.5" x2="1729.5" y1="748.4023" y2="748.4023"/><text fill="#000000" font-family="sans-serif" font-size="13" font-weight="bold" lengthAdjust="spacing" textLength="14" x="1199.5" y="743.1396">16</text><text fill="#000000" font-family="sans-serif" font-size="13" lengthAdjust="spacing" textLength="69" x="1217.5" y="743.1396">greenSpace</text><polygon fill="#181818" points="1883.5,775.6934,1893.5,779.6934,1883.5,783.6934,1887.5,779.6934" style="stroke:#181818;stroke-width:1.0;"/><line style="stroke:#181818;stroke-width:1.0;" x1="1182.5" x2="1889.5" y1="779.6934" y2="779.6934"/><text fill="#000000" font-family="sans-serif" font-size="13" font-weight="bold" lengthAdjust="spacing" textLength="14" x="1189.5" y="774.4307">17</text><text fill="#000000" font-family="sans-serif" font-size="13" lengthAdjust="spacing" textLength="245" x="1207.5" y="774.4307">addListManagerGreenSpace(greenSpace))</text><polygon fill="#181818" points="2128.5,806.9844,2138.5,810.9844,2128.5,814.9844,2132.5,810.9844" style="stroke:#181818;stroke-width:1.0;"/><line style="stroke:#181818;stroke-width:1.0;" x1="1905.5" x2="2134.5" y1="810.9844" y2="810.9844"/><text fill="#000000" font-family="sans-serif" font-size="13" font-weight="bold" lengthAdjust="spacing" textLength="14" x="1912.5" y="805.7217">18</text><text fill="#000000" font-family="sans-serif" font-size="13" lengthAdjust="spacing" textLength="198" x="1930.5" y="805.7217">addListGreenSpaces(greenSpace)</text><polygon fill="#181818" points="1916.5,838.2754,1906.5,842.2754,1916.5,846.2754,1912.5,842.2754" style="stroke:#181818;stroke-width:1.0;"/><line style="stroke:#181818;stroke-width:1.0;stroke-dasharray:2.0,2.0;" x1="1910.5" x2="2144.5" y1="842.2754" y2="842.2754"/><text fill="#000000" font-family="sans-serif" font-size="13" font-weight="bold" lengthAdjust="spacing" textLength="14" x="1922.5" y="837.0127">19</text><text fill="#000000" font-family="sans-serif" font-size="13" lengthAdjust="spacing" textLength="53" x="1940.5" y="837.0127">true/false</text><polygon fill="#181818" points="1193.5,869.5664,1183.5,873.5664,1193.5,877.5664,1189.5,873.5664" style="stroke:#181818;stroke-width:1.0;"/><line style="stroke:#181818;stroke-width:1.0;stroke-dasharray:2.0,2.0;" x1="1187.5" x2="1899.5" y1="873.5664" y2="873.5664"/><text fill="#000000" font-family="sans-serif" font-size="13" font-weight="bold" lengthAdjust="spacing" textLength="14" x="1199.5" y="868.3037">20</text><text fill="#000000" font-family="sans-serif" font-size="13" lengthAdjust="spacing" textLength="53" x="1217.5" y="868.3037">true/false</text><polygon fill="#181818" points="622.5,900.8574,612.5,904.8574,622.5,908.8574,618.5,904.8574" style="stroke:#181818;stroke-width:1.0;"/><line style="stroke:#181818;stroke-width:1.0;stroke-dasharray:2.0,2.0;" x1="616.5" x2="1176.5" y1="904.8574" y2="904.8574"/><text fill="#000000" font-family="sans-serif" font-size="13" font-weight="bold" lengthAdjust="spacing" textLength="14" x="628.5" y="899.5947">21</text><text fill="#000000" font-family="sans-serif" font-size="13" lengthAdjust="spacing" textLength="69" x="646.5" y="899.5947">greenSpace</text><polygon fill="#181818" points="113.5,932.1484,103.5,936.1484,113.5,940.1484,109.5,936.1484" style="stroke:#181818;stroke-width:1.0;"/><line style="stroke:#181818;stroke-width:1.0;stroke-dasharray:2.0,2.0;" x1="107.5" x2="605.5" y1="936.1484" y2="936.1484"/><text fill="#000000" font-family="sans-serif" font-size="13" font-weight="bold" lengthAdjust="spacing" textLength="14" x="119.5" y="930.8857">22</text><text fill="#000000" font-family="sans-serif" font-size="13" lengthAdjust="spacing" textLength="158" x="137.5" y="930.8857">displays operation success</text><!--SRC=[fLLBRzf04BxlhnZbKf10hNha4AaYAaBAIpZSUjdOWrbXxxgxIrBwwpixVgs38OVcGB2Pxx4puy_ke7GbhIoXDDgaUsjA16-FA5ptIoNJWymnyQS2mMBgfSwBkC3jPMRUbSvX9mk7GdZbgNIxXWH_7r6d27TAvg5qajnDOGxRvFit-hV1N3cF5YIiBAA6XBG8Bu_Uw6FvYbQ8BtkL8UoCyQ_cZv2fDnPkecfua9hSMPYiaeVf3KW7z4MGCwzILKdjuMRH2Z6EOTirbsxNdrOkZVRM50LQHYnVDlTdcCeuHSOKEgxfRfmI5Nf5fnb2R8JufSy9dkz_l0mHUUUd9oVaQkHsquFD9OAcOGDqSwzjtzCbh1kWQhEhJVASBCDer9lqoEqNz07psx032wevEF26TgSRjyPto0SZRz4q4K6eEO43nuAsoxmJ_5HXWt0yTgcpG1nu7HQqbM0qYWm7HCGmlzsk5qs98-L0T4tEXfLr7ZBfvKJB4cVIefmvJzh-CLndnjX7tiuPjTmlJORDPM5IMQY_qYkZfsB4JDUIuC8DjAvvofIh2da2lqUkvSEtuDJedR8bYrxLR0eTeztnjLJKa0lIjxpdYsva_SmdmVhi_nhJoV739C9dAqa-S_Ha-oT5KOBE4M9o3h6u0_D6gyING7yhz72spm9rrl970cTbKTTg_ixJoADSMrnhHq58_OZDZJtuOemYSXDdGMnabAkr5GAYQTL80f2dZeQZH73zl1lhM9eCTgT6jMeK9Z2w2v-j0LpTWoWnDj58mrMOQFTsw0NhUGOxe-ECJy2S_G4Uda8GPTazKJPJZyxHKqpZSN8I2WO74iwvdYRAmPWWnjV9A1hal7SINh5VcxTbRBe5i6H_n4lbxAzRRtxAnxjHR_LOg3Wm5LgU28L2IeTn7q9aAFWF]--></g></svg>