<?xml version="1.0" encoding="us-ascii" standalone="no"?><svg xmlns="http://www.w3.org/2000/svg" xmlns:xlink="http://www.w3.org/1999/xlink" contentStyleType="text/css" height="1818px" preserveAspectRatio="none" style="width:2216px;height:1818px;background:#FFFFFF;" version="1.1" viewBox="0 0 2216 1818" width="2216px" zoomAndPan="magnify"><defs/><g><!--cluster UI--><g id="cluster_UI"><path d="M1312.5,6.0137 L1327.5,6.0137 A3.75,3.75 0 0 1 1330,8.5137 L1337,30.6348 L1517.5,30.6348 A2.5,2.5 0 0 1 1520,33.1348 L1520,104.5137 A2.5,2.5 0 0 1 1517.5,107.0137 L1312.5,107.0137 A2.5,2.5 0 0 1 1310,104.5137 L1310,8.5137 A2.5,2.5 0 0 1 1312.5,6.0137 " fill="none" style="stroke:#000000;stroke-width:1.5;"/><line style="stroke:#000000;stroke-width:1.5;" x1="1310" x2="1337" y1="30.6348" y2="30.6348"/><text fill="#000000" font-family="sans-serif" font-size="14" font-weight="bold" lengthAdjust="spacing" textLength="14" x="1314" y="23.1211">UI</text></g><!--cluster Controller--><g id="cluster_Controller"><path d="M1137.5,140.0137 L1209.5,140.0137 A3.75,3.75 0 0 1 1212,142.5137 L1219,164.6348 L1692.5,164.6348 A2.5,2.5 0 0 1 1695,167.1348 L1695,294.5137 A2.5,2.5 0 0 1 1692.5,297.0137 L1137.5,297.0137 A2.5,2.5 0 0 1 1135,294.5137 L1135,142.5137 A2.5,2.5 0 0 1 1137.5,140.0137 " fill="none" style="stroke:#000000;stroke-width:1.5;"/><line style="stroke:#000000;stroke-width:1.5;" x1="1135" x2="1219" y1="164.6348" y2="164.6348"/><text fill="#000000" font-family="sans-serif" font-size="14" font-weight="bold" lengthAdjust="spacing" textLength="71" x="1139" y="157.1211">Controller</text></g><!--cluster Domain--><g id="cluster_Domain"><path d="M8.5,348.0137 L61.5,348.0137 A3.75,3.75 0 0 1 64,350.5137 L71,372.6348 L2206.5,372.6348 A2.5,2.5 0 0 1 2209,375.1348 L2209,1808.5137 A2.5,2.5 0 0 1 2206.5,1811.0137 L8.5,1811.0137 A2.5,2.5 0 0 1 6,1808.5137 L6,350.5137 A2.5,2.5 0 0 1 8.5,348.0137 " fill="none" style="stroke:#000000;stroke-width:1.5;"/><line style="stroke:#000000;stroke-width:1.5;" x1="6" x2="71" y1="372.6348" y2="372.6348"/><text fill="#000000" font-family="sans-serif" font-size="14" font-weight="bold" lengthAdjust="spacing" textLength="52" x="10" y="365.1211">Domain</text></g><!--cluster Application--><g id="cluster_Application"><path d="M1515.5,411.5137 L1594.5,411.5137 A3.75,3.75 0 0 1 1597,414.0137 L1604,436.1348 L1775.5,436.1348 A2.5,2.5 0 0 1 1778,438.6348 L1778,711.5137 A2.5,2.5 0 0 1 1775.5,714.0137 L1515.5,714.0137 A2.5,2.5 0 0 1 1513,711.5137 L1513,414.0137 A2.5,2.5 0 0 1 1515.5,411.5137 " fill="none" style="stroke:#000000;stroke-width:1.5;"/><line style="stroke:#000000;stroke-width:1.5;" x1="1513" x2="1604" y1="436.1348" y2="436.1348"/><text fill="#000000" font-family="sans-serif" font-size="14" font-weight="bold" lengthAdjust="spacing" textLength="78" x="1517" y="428.6211">Application</text></g><!--cluster Model--><g id="cluster_Model"><path d="M32.5,932.0137 L77.5,932.0137 A3.75,3.75 0 0 1 80,934.5137 L87,956.6348 L2182.5,956.6348 A2.5,2.5 0 0 1 2185,959.1348 L2185,1784.5137 A2.5,2.5 0 0 1 2182.5,1787.0137 L32.5,1787.0137 A2.5,2.5 0 0 1 30,1784.5137 L30,934.5137 A2.5,2.5 0 0 1 32.5,932.0137 " fill="none" style="stroke:#000000;stroke-width:1.5;"/><line style="stroke:#000000;stroke-width:1.5;" x1="30" x2="87" y1="956.6348" y2="956.6348"/><text fill="#000000" font-family="sans-serif" font-size="14" font-weight="bold" lengthAdjust="spacing" textLength="44" x="34" y="949.1211">Model</text></g><!--cluster Repository--><g id="cluster_Repository"><path d="M711.5,393.0137 L788.5,393.0137 A3.75,3.75 0 0 1 791,395.5137 L798,417.6348 L1486.5,417.6348 A2.5,2.5 0 0 1 1489,420.1348 L1489,878.5137 A2.5,2.5 0 0 1 1486.5,881.0137 L711.5,881.0137 A2.5,2.5 0 0 1 709,878.5137 L709,395.5137 A2.5,2.5 0 0 1 711.5,393.0137 " fill="none" style="stroke:#000000;stroke-width:1.5;"/><line style="stroke:#000000;stroke-width:1.5;" x1="709" x2="798" y1="417.6348" y2="417.6348"/><text fill="#000000" font-family="sans-serif" font-size="14" font-weight="bold" lengthAdjust="spacing" textLength="76" x="713" y="410.1211">Repository</text></g><!--class RegisterGreenSpaceUI--><g id="elem_RegisterGreenSpaceUI"><rect codeLine="10" fill="#F1F1F1" height="48" id="RegisterGreenSpaceUI" rx="2.5" ry="2.5" style="stroke:#181818;stroke-width:0.5;" width="177" x="1326.5" y="43.0137"/><ellipse cx="1341.5" cy="59.0137" fill="#ADD1B2" rx="11" ry="11" style="stroke:#181818;stroke-width:1.0;"/><path d="M1344.2656,54.8887 Q1344.4219,54.6699 1344.6094,54.5605 Q1344.7969,54.4512 1345.0156,54.4512 Q1345.3906,54.4512 1345.625,54.7168 Q1345.8594,54.9668 1345.8594,55.5762 L1345.8594,57.0293 Q1345.8594,57.6387 1345.625,57.9043 Q1345.3906,58.1699 1345.0156,58.1699 Q1344.6719,58.1699 1344.4688,57.9668 Q1344.2656,57.7793 1344.1563,57.2637 Q1344.1094,56.9043 1343.9219,56.7168 Q1343.5938,56.3418 1342.9844,56.123 Q1342.375,55.9043 1341.75,55.9043 Q1340.9844,55.9043 1340.3438,56.2324 Q1339.7188,56.5605 1339.2188,57.3105 Q1338.7344,58.0605 1338.7344,59.0918 L1338.7344,60.1855 Q1338.7344,61.4199 1339.625,62.248 Q1340.5156,63.0605 1342.1094,63.0605 Q1343.0469,63.0605 1343.7031,62.8105 Q1344.0938,62.6543 1344.5156,62.2168 Q1344.7813,61.9512 1344.9219,61.873 Q1345.0781,61.7949 1345.2813,61.7949 Q1345.6094,61.7949 1345.8594,62.0605 Q1346.125,62.3105 1346.125,62.6543 Q1346.125,62.998 1345.7813,63.4043 Q1345.2813,63.9824 1344.4844,64.3105 Q1343.4063,64.7637 1342.1094,64.7637 Q1340.5938,64.7637 1339.3906,64.1387 Q1338.4063,63.6387 1337.7188,62.5762 Q1337.0313,61.498 1337.0313,60.2168 L1337.0313,59.0605 Q1337.0313,57.7324 1337.6406,56.5918 Q1338.2656,55.4355 1339.3594,54.8262 Q1340.4531,54.2012 1341.6875,54.2012 Q1342.4219,54.2012 1343.0625,54.373 Q1343.7188,54.5293 1344.2656,54.8887 Z " fill="#000000"/><text fill="#000000" font-family="sans-serif" font-size="14" lengthAdjust="spacing" textLength="145" x="1355.5" y="64.8105">RegisterGreenSpaceUI</text><line style="stroke:#181818;stroke-width:0.5;" x1="1327.5" x2="1502.5" y1="75.0137" y2="75.0137"/><line style="stroke:#181818;stroke-width:0.5;" x1="1327.5" x2="1502.5" y1="83.0137" y2="83.0137"/></g><!--class RegisterGreenSpaceController--><g id="elem_RegisterGreenSpaceController"><rect codeLine="15" fill="#F1F1F1" height="103.8633" id="RegisterGreenSpaceController" rx="2.5" ry="2.5" style="stroke:#181818;stroke-width:0.5;" width="527" x="1151.5" y="177.0137"/><ellipse cx="1313.25" cy="193.0137" fill="#ADD1B2" rx="11" ry="11" style="stroke:#181818;stroke-width:1.0;"/><path d="M1316.0156,188.8887 Q1316.1719,188.6699 1316.3594,188.5605 Q1316.5469,188.4512 1316.7656,188.4512 Q1317.1406,188.4512 1317.375,188.7168 Q1317.6094,188.9668 1317.6094,189.5762 L1317.6094,191.0293 Q1317.6094,191.6387 1317.375,191.9043 Q1317.1406,192.1699 1316.7656,192.1699 Q1316.4219,192.1699 1316.2188,191.9668 Q1316.0156,191.7793 1315.9063,191.2637 Q1315.8594,190.9043 1315.6719,190.7168 Q1315.3438,190.3418 1314.7344,190.123 Q1314.125,189.9043 1313.5,189.9043 Q1312.7344,189.9043 1312.0938,190.2324 Q1311.4688,190.5605 1310.9688,191.3105 Q1310.4844,192.0605 1310.4844,193.0918 L1310.4844,194.1855 Q1310.4844,195.4199 1311.375,196.248 Q1312.2656,197.0605 1313.8594,197.0605 Q1314.7969,197.0605 1315.4531,196.8105 Q1315.8438,196.6543 1316.2656,196.2168 Q1316.5313,195.9512 1316.6719,195.873 Q1316.8281,195.7949 1317.0313,195.7949 Q1317.3594,195.7949 1317.6094,196.0605 Q1317.875,196.3105 1317.875,196.6543 Q1317.875,196.998 1317.5313,197.4043 Q1317.0313,197.9824 1316.2344,198.3105 Q1315.1563,198.7637 1313.8594,198.7637 Q1312.3438,198.7637 1311.1406,198.1387 Q1310.1563,197.6387 1309.4688,196.5762 Q1308.7813,195.498 1308.7813,194.2168 L1308.7813,193.0605 Q1308.7813,191.7324 1309.3906,190.5918 Q1310.0156,189.4355 1311.1094,188.8262 Q1312.2031,188.2012 1313.4375,188.2012 Q1314.1719,188.2012 1314.8125,188.373 Q1315.4688,188.5293 1316.0156,188.8887 Z " fill="#000000"/><text fill="#000000" font-family="sans-serif" font-size="14" lengthAdjust="spacing" textLength="195" x="1333.75" y="198.8105">RegisterGreenSpaceController</text><line style="stroke:#181818;stroke-width:0.5;" x1="1152.5" x2="1677.5" y1="209.0137" y2="209.0137"/><line style="stroke:#181818;stroke-width:0.5;" x1="1152.5" x2="1677.5" y1="217.0137" y2="217.0137"/><ellipse cx="1162.5" cy="231.8242" fill="#84BE84" rx="3" ry="3" style="stroke:#038048;stroke-width:1.0;"/><text fill="#000000" font-family="sans-serif" font-size="14" lengthAdjust="spacing" textLength="501" x="1171.5" y="236.1211">RegisterGreenSpaceController(greenSpaceRepository, collaboratorRepository)</text><ellipse cx="1162.5" cy="250.4453" fill="#84BE84" rx="3" ry="3" style="stroke:#038048;stroke-width:1.0;"/><text fill="#000000" font-family="sans-serif" font-size="14" lengthAdjust="spacing" textLength="500" x="1171.5" y="254.7422">registerGreenSpace(type,name,area,streetName,postCodeNumber,localization)</text><rect fill="#F24D5C" height="6" style="stroke:#C82930;stroke-width:1.0;" width="6" x="1159.5" y="266.0664"/><text fill="#000000" font-family="sans-serif" font-size="14" lengthAdjust="spacing" textLength="144" x="1171.5" y="273.3633">getGSMFromSession()</text></g><!--class ApplicationSession--><g id="elem_ApplicationSession"><rect codeLine="25" fill="#F1F1F1" height="85.2422" id="ApplicationSession" rx="2.5" ry="2.5" style="stroke:#181818;stroke-width:0.5;" width="154" x="1529" y="448.5137"/><ellipse cx="1545.35" cy="464.5137" fill="#ADD1B2" rx="11" ry="11" style="stroke:#181818;stroke-width:1.0;"/><path d="M1548.1156,460.3887 Q1548.2719,460.1699 1548.4594,460.0605 Q1548.6469,459.9512 1548.8656,459.9512 Q1549.2406,459.9512 1549.475,460.2168 Q1549.7094,460.4668 1549.7094,461.0762 L1549.7094,462.5293 Q1549.7094,463.1387 1549.475,463.4043 Q1549.2406,463.6699 1548.8656,463.6699 Q1548.5219,463.6699 1548.3188,463.4668 Q1548.1156,463.2793 1548.0063,462.7637 Q1547.9594,462.4043 1547.7719,462.2168 Q1547.4438,461.8418 1546.8344,461.623 Q1546.225,461.4043 1545.6,461.4043 Q1544.8344,461.4043 1544.1938,461.7324 Q1543.5688,462.0605 1543.0688,462.8105 Q1542.5844,463.5605 1542.5844,464.5918 L1542.5844,465.6855 Q1542.5844,466.9199 1543.475,467.748 Q1544.3656,468.5605 1545.9594,468.5605 Q1546.8969,468.5605 1547.5531,468.3105 Q1547.9438,468.1543 1548.3656,467.7168 Q1548.6313,467.4512 1548.7719,467.373 Q1548.9281,467.2949 1549.1313,467.2949 Q1549.4594,467.2949 1549.7094,467.5605 Q1549.975,467.8105 1549.975,468.1543 Q1549.975,468.498 1549.6313,468.9043 Q1549.1313,469.4824 1548.3344,469.8105 Q1547.2563,470.2637 1545.9594,470.2637 Q1544.4438,470.2637 1543.2406,469.6387 Q1542.2563,469.1387 1541.5688,468.0762 Q1540.8813,466.998 1540.8813,465.7168 L1540.8813,464.5605 Q1540.8813,463.2324 1541.4906,462.0918 Q1542.1156,460.9355 1543.2094,460.3262 Q1544.3031,459.7012 1545.5375,459.7012 Q1546.2719,459.7012 1546.9125,459.873 Q1547.5688,460.0293 1548.1156,460.3887 Z " fill="#000000"/><text fill="#000000" font-family="sans-serif" font-size="14" lengthAdjust="spacing" textLength="119" x="1559.65" y="470.3105">ApplicationSession</text><line style="stroke:#181818;stroke-width:0.5;" x1="1530" x2="1682" y1="480.5137" y2="480.5137"/><line style="stroke:#181818;stroke-width:0.5;" x1="1530" x2="1682" y1="488.5137" y2="488.5137"/><ellipse cx="1540" cy="503.3242" fill="#84BE84" rx="3" ry="3" style="stroke:#038048;stroke-width:1.0;"/><text fill="#000000" font-family="sans-serif" font-size="14" lengthAdjust="spacing" textLength="120" x="1549" y="507.6211">static getInstance()</text><ellipse cx="1540" cy="521.9453" fill="#84BE84" rx="3" ry="3" style="stroke:#038048;stroke-width:1.0;"/><text fill="#000000" font-family="sans-serif" font-size="14" lengthAdjust="spacing" textLength="128" x="1549" y="526.2422">getCurrentSession()</text></g><!--class UserSession--><g id="elem_UserSession"><rect codeLine="31" fill="#F1F1F1" height="66.6211" id="UserSession" rx="2.5" ry="2.5" style="stroke:#181818;stroke-width:0.5;" width="119" x="1537.5" y="631.0137"/><ellipse cx="1556.1" cy="647.0137" fill="#ADD1B2" rx="11" ry="11" style="stroke:#181818;stroke-width:1.0;"/><path d="M1558.8656,642.8887 Q1559.0219,642.6699 1559.2094,642.5605 Q1559.3969,642.4512 1559.6156,642.4512 Q1559.9906,642.4512 1560.225,642.7168 Q1560.4594,642.9668 1560.4594,643.5762 L1560.4594,645.0293 Q1560.4594,645.6387 1560.225,645.9043 Q1559.9906,646.1699 1559.6156,646.1699 Q1559.2719,646.1699 1559.0688,645.9668 Q1558.8656,645.7793 1558.7563,645.2637 Q1558.7094,644.9043 1558.5219,644.7168 Q1558.1938,644.3418 1557.5844,644.123 Q1556.975,643.9043 1556.35,643.9043 Q1555.5844,643.9043 1554.9438,644.2324 Q1554.3188,644.5605 1553.8188,645.3105 Q1553.3344,646.0605 1553.3344,647.0918 L1553.3344,648.1855 Q1553.3344,649.4199 1554.225,650.248 Q1555.1156,651.0605 1556.7094,651.0605 Q1557.6469,651.0605 1558.3031,650.8105 Q1558.6938,650.6543 1559.1156,650.2168 Q1559.3813,649.9512 1559.5219,649.873 Q1559.6781,649.7949 1559.8813,649.7949 Q1560.2094,649.7949 1560.4594,650.0605 Q1560.725,650.3105 1560.725,650.6543 Q1560.725,650.998 1560.3813,651.4043 Q1559.8813,651.9824 1559.0844,652.3105 Q1558.0063,652.7637 1556.7094,652.7637 Q1555.1938,652.7637 1553.9906,652.1387 Q1553.0063,651.6387 1552.3188,650.5762 Q1551.6313,649.498 1551.6313,648.2168 L1551.6313,647.0605 Q1551.6313,645.7324 1552.2406,644.5918 Q1552.8656,643.4355 1553.9594,642.8262 Q1555.0531,642.2012 1556.2875,642.2012 Q1557.0219,642.2012 1557.6625,642.373 Q1558.3188,642.5293 1558.8656,642.8887 Z " fill="#000000"/><text fill="#000000" font-family="sans-serif" font-size="14" lengthAdjust="spacing" textLength="79" x="1570.9" y="652.8105">UserSession</text><line style="stroke:#181818;stroke-width:0.5;" x1="1538.5" x2="1655.5" y1="663.0137" y2="663.0137"/><line style="stroke:#181818;stroke-width:0.5;" x1="1538.5" x2="1655.5" y1="671.0137" y2="671.0137"/><ellipse cx="1548.5" cy="685.8242" fill="#84BE84" rx="3" ry="3" style="stroke:#038048;stroke-width:1.0;"/><text fill="#000000" font-family="sans-serif" font-size="14" lengthAdjust="spacing" textLength="93" x="1557.5" y="690.1211">getUserEmail()</text></g><!--class GreenSpace--><g id="elem_GreenSpace"><rect codeLine="38" fill="#F1F1F1" height="103.8633" id="GreenSpace" rx="2.5" ry="2.5" style="stroke:#181818;stroke-width:0.5;" width="112" x="813" y="1391.0137"/><ellipse cx="828" cy="1407.0137" fill="#B4A7E5" rx="11" ry="11" style="stroke:#181818;stroke-width:1.0;"/><path d="M828.9531,1403.6543 L828.9531,1410.3105 L830.6719,1410.3105 Q831.2813,1410.3105 831.5469,1410.5449 Q831.8125,1410.7793 831.8125,1411.1699 Q831.8125,1411.5449 831.5469,1411.7793 Q831.2813,1412.0137 830.6719,1412.0137 L825.5313,1412.0137 Q824.9219,1412.0137 824.6563,1411.7793 Q824.3906,1411.5449 824.3906,1411.1543 Q824.3906,1410.7793 824.6563,1410.5449 Q824.9219,1410.3105 825.5313,1410.3105 L827.25,1410.3105 L827.25,1403.6543 L825.5313,1403.6543 Q824.9219,1403.6543 824.6563,1403.4199 Q824.3906,1403.1855 824.3906,1402.7949 Q824.3906,1402.4199 824.6563,1402.1855 Q824.9219,1401.9512 825.5313,1401.9512 L830.6719,1401.9512 Q831.2813,1401.9512 831.5469,1402.1855 Q831.8125,1402.4199 831.8125,1402.7949 Q831.8125,1403.1855 831.5469,1403.4199 Q831.2813,1403.6543 830.6719,1403.6543 L828.9531,1403.6543 Z " fill="#000000"/><text fill="#000000" font-family="sans-serif" font-size="14" font-style="italic" lengthAdjust="spacing" textLength="80" x="842" y="1412.8105">GreenSpace</text><line style="stroke:#181818;stroke-width:0.5;" x1="814" x2="924" y1="1423.0137" y2="1423.0137"/><line style="stroke:#181818;stroke-width:0.5;" x1="814" x2="924" y1="1431.0137" y2="1431.0137"/><ellipse cx="824" cy="1445.8242" fill="#84BE84" rx="3" ry="3" style="stroke:#038048;stroke-width:1.0;"/><text fill="#000000" font-family="sans-serif" font-size="14" lengthAdjust="spacing" textLength="66" x="833" y="1450.1211">getName()</text><ellipse cx="824" cy="1464.4453" fill="#84BE84" rx="3" ry="3" style="stroke:#038048;stroke-width:1.0;"/><text fill="#000000" font-family="sans-serif" font-size="14" lengthAdjust="spacing" textLength="60" x="833" y="1468.7422">getArea()</text><ellipse cx="824" cy="1483.0664" fill="#84BE84" rx="3" ry="3" style="stroke:#038048;stroke-width:1.0;"/><text fill="#000000" font-family="sans-serif" font-size="14" lengthAdjust="spacing" textLength="82" x="833" y="1487.3633">getAddress()</text></g><!--class GreenSpaces--><g id="elem_GreenSpaces"><rect codeLine="46" fill="#F1F1F1" height="66.6211" id="GreenSpaces" rx="2.5" ry="2.5" style="stroke:#181818;stroke-width:0.5;" width="246" x="440" y="1409.5137"/><ellipse cx="515.25" cy="1425.5137" fill="#ADD1B2" rx="11" ry="11" style="stroke:#181818;stroke-width:1.0;"/><path d="M518.0156,1421.3887 Q518.1719,1421.1699 518.3594,1421.0605 Q518.5469,1420.9512 518.7656,1420.9512 Q519.1406,1420.9512 519.375,1421.2168 Q519.6094,1421.4668 519.6094,1422.0762 L519.6094,1423.5293 Q519.6094,1424.1387 519.375,1424.4043 Q519.1406,1424.6699 518.7656,1424.6699 Q518.4219,1424.6699 518.2188,1424.4668 Q518.0156,1424.2793 517.9063,1423.7637 Q517.8594,1423.4043 517.6719,1423.2168 Q517.3438,1422.8418 516.7344,1422.623 Q516.125,1422.4043 515.5,1422.4043 Q514.7344,1422.4043 514.0938,1422.7324 Q513.4688,1423.0605 512.9688,1423.8105 Q512.4844,1424.5605 512.4844,1425.5918 L512.4844,1426.6855 Q512.4844,1427.9199 513.375,1428.748 Q514.2656,1429.5605 515.8594,1429.5605 Q516.7969,1429.5605 517.4531,1429.3105 Q517.8438,1429.1543 518.2656,1428.7168 Q518.5313,1428.4512 518.6719,1428.373 Q518.8281,1428.2949 519.0313,1428.2949 Q519.3594,1428.2949 519.6094,1428.5605 Q519.875,1428.8105 519.875,1429.1543 Q519.875,1429.498 519.5313,1429.9043 Q519.0313,1430.4824 518.2344,1430.8105 Q517.1563,1431.2637 515.8594,1431.2637 Q514.3438,1431.2637 513.1406,1430.6387 Q512.1563,1430.1387 511.4688,1429.0762 Q510.7813,1427.998 510.7813,1426.7168 L510.7813,1425.5605 Q510.7813,1424.2324 511.3906,1423.0918 Q512.0156,1421.9355 513.1094,1421.3262 Q514.2031,1420.7012 515.4375,1420.7012 Q516.1719,1420.7012 516.8125,1420.873 Q517.4688,1421.0293 518.0156,1421.3887 Z " fill="#000000"/><text fill="#000000" font-family="sans-serif" font-size="14" lengthAdjust="spacing" textLength="87" x="535.75" y="1431.3105">GreenSpaces</text><line style="stroke:#181818;stroke-width:0.5;" x1="441" x2="685" y1="1441.5137" y2="1441.5137"/><line style="stroke:#181818;stroke-width:0.5;" x1="441" x2="685" y1="1449.5137" y2="1449.5137"/><ellipse cx="451" cy="1464.3242" fill="#84BE84" rx="3" ry="3" style="stroke:#038048;stroke-width:1.0;"/><text fill="#000000" font-family="sans-serif" font-size="14" lengthAdjust="spacing" textLength="220" x="460" y="1468.6211">addListGreenSpaces(greenSpace)</text></g><!--class Garden--><g id="elem_Garden"><rect codeLine="50" fill="#F1F1F1" height="196.9688" id="Garden" rx="2.5" ry="2.5" style="stroke:#181818;stroke-width:0.5;" width="415" x="514.5" y="1574.0137"/><ellipse cx="693.75" cy="1590.0137" fill="#ADD1B2" rx="11" ry="11" style="stroke:#181818;stroke-width:1.0;"/><path d="M696.5156,1585.8887 Q696.6719,1585.6699 696.8594,1585.5605 Q697.0469,1585.4512 697.2656,1585.4512 Q697.6406,1585.4512 697.875,1585.7168 Q698.1094,1585.9668 698.1094,1586.5762 L698.1094,1588.0293 Q698.1094,1588.6387 697.875,1588.9043 Q697.6406,1589.1699 697.2656,1589.1699 Q696.9219,1589.1699 696.7188,1588.9668 Q696.5156,1588.7793 696.4063,1588.2637 Q696.3594,1587.9043 696.1719,1587.7168 Q695.8438,1587.3418 695.2344,1587.123 Q694.625,1586.9043 694,1586.9043 Q693.2344,1586.9043 692.5938,1587.2324 Q691.9688,1587.5605 691.4688,1588.3105 Q690.9844,1589.0605 690.9844,1590.0918 L690.9844,1591.1855 Q690.9844,1592.4199 691.875,1593.248 Q692.7656,1594.0605 694.3594,1594.0605 Q695.2969,1594.0605 695.9531,1593.8105 Q696.3438,1593.6543 696.7656,1593.2168 Q697.0313,1592.9512 697.1719,1592.873 Q697.3281,1592.7949 697.5313,1592.7949 Q697.8594,1592.7949 698.1094,1593.0605 Q698.375,1593.3105 698.375,1593.6543 Q698.375,1593.998 698.0313,1594.4043 Q697.5313,1594.9824 696.7344,1595.3105 Q695.6563,1595.7637 694.3594,1595.7637 Q692.8438,1595.7637 691.6406,1595.1387 Q690.6563,1594.6387 689.9688,1593.5762 Q689.2813,1592.498 689.2813,1591.2168 L689.2813,1590.0605 Q689.2813,1588.7324 689.8906,1587.5918 Q690.5156,1586.4355 691.6094,1585.8262 Q692.7031,1585.2012 693.9375,1585.2012 Q694.6719,1585.2012 695.3125,1585.373 Q695.9688,1585.5293 696.5156,1585.8887 Z " fill="#000000"/><text fill="#000000" font-family="sans-serif" font-size="14" lengthAdjust="spacing" textLength="48" x="714.25" y="1595.8105">Garden</text><line style="stroke:#181818;stroke-width:0.5;" x1="515.5" x2="928.5" y1="1606.0137" y2="1606.0137"/><rect fill="none" height="6" style="stroke:#C82930;stroke-width:1.0;" width="6" x="522.5" y="1617.8242"/><text fill="#000000" font-family="sans-serif" font-size="14" lengthAdjust="spacing" textLength="76" x="534.5" y="1625.1211">String name</text><rect fill="none" height="6" style="stroke:#C82930;stroke-width:1.0;" width="6" x="522.5" y="1636.4453"/><text fill="#000000" font-family="sans-serif" font-size="14" lengthAdjust="spacing" textLength="48" x="534.5" y="1643.7422">int area</text><rect fill="none" height="6" style="stroke:#C82930;stroke-width:1.0;" width="6" x="522.5" y="1655.0664"/><text fill="#000000" font-family="sans-serif" font-size="14" lengthAdjust="spacing" textLength="52" x="534.5" y="1662.3633">Address</text><line style="stroke:#181818;stroke-width:0.5;" x1="515.5" x2="928.5" y1="1669.877" y2="1669.877"/><ellipse cx="525.5" cy="1684.6875" fill="#84BE84" rx="3" ry="3" style="stroke:#038048;stroke-width:1.0;"/><text fill="#000000" font-family="sans-serif" font-size="14" lengthAdjust="spacing" textLength="389" x="534.5" y="1688.9844">Garden(name,area,streetName,postCodeNumber,localization)</text><ellipse cx="525.5" cy="1703.3086" fill="#84BE84" rx="3" ry="3" style="stroke:#038048;stroke-width:1.0;"/><text fill="#000000" font-family="sans-serif" font-size="14" lengthAdjust="spacing" textLength="66" x="534.5" y="1707.6055">getName()</text><ellipse cx="525.5" cy="1721.9297" fill="#84BE84" rx="3" ry="3" style="stroke:#038048;stroke-width:1.0;"/><text fill="#000000" font-family="sans-serif" font-size="14" lengthAdjust="spacing" textLength="60" x="534.5" y="1726.2266">getArea()</text><ellipse cx="525.5" cy="1740.5508" fill="#84BE84" rx="3" ry="3" style="stroke:#038048;stroke-width:1.0;"/><text fill="#000000" font-family="sans-serif" font-size="14" lengthAdjust="spacing" textLength="82" x="534.5" y="1744.8477">getAddress()</text><rect fill="#F24D5C" height="6" style="stroke:#C82930;stroke-width:1.0;" width="6" x="522.5" y="1756.1719"/><text fill="#000000" font-family="sans-serif" font-size="14" lengthAdjust="spacing" textLength="150" x="534.5" y="1763.4688">validationGreenSpace()</text></g><!--class MediumPark--><g id="elem_MediumPark"><rect codeLine="62" fill="#F1F1F1" height="196.9688" id="MediumPark" rx="2.5" ry="2.5" style="stroke:#181818;stroke-width:0.5;" width="445" x="964.5" y="1574.0137"/><ellipse cx="1143.75" cy="1590.0137" fill="#ADD1B2" rx="11" ry="11" style="stroke:#181818;stroke-width:1.0;"/><path d="M1146.5156,1585.8887 Q1146.6719,1585.6699 1146.8594,1585.5605 Q1147.0469,1585.4512 1147.2656,1585.4512 Q1147.6406,1585.4512 1147.875,1585.7168 Q1148.1094,1585.9668 1148.1094,1586.5762 L1148.1094,1588.0293 Q1148.1094,1588.6387 1147.875,1588.9043 Q1147.6406,1589.1699 1147.2656,1589.1699 Q1146.9219,1589.1699 1146.7188,1588.9668 Q1146.5156,1588.7793 1146.4063,1588.2637 Q1146.3594,1587.9043 1146.1719,1587.7168 Q1145.8438,1587.3418 1145.2344,1587.123 Q1144.625,1586.9043 1144,1586.9043 Q1143.2344,1586.9043 1142.5938,1587.2324 Q1141.9688,1587.5605 1141.4688,1588.3105 Q1140.9844,1589.0605 1140.9844,1590.0918 L1140.9844,1591.1855 Q1140.9844,1592.4199 1141.875,1593.248 Q1142.7656,1594.0605 1144.3594,1594.0605 Q1145.2969,1594.0605 1145.9531,1593.8105 Q1146.3438,1593.6543 1146.7656,1593.2168 Q1147.0313,1592.9512 1147.1719,1592.873 Q1147.3281,1592.7949 1147.5313,1592.7949 Q1147.8594,1592.7949 1148.1094,1593.0605 Q1148.375,1593.3105 1148.375,1593.6543 Q1148.375,1593.998 1148.0313,1594.4043 Q1147.5313,1594.9824 1146.7344,1595.3105 Q1145.6563,1595.7637 1144.3594,1595.7637 Q1142.8438,1595.7637 1141.6406,1595.1387 Q1140.6563,1594.6387 1139.9688,1593.5762 Q1139.2813,1592.498 1139.2813,1591.2168 L1139.2813,1590.0605 Q1139.2813,1588.7324 1139.8906,1587.5918 Q1140.5156,1586.4355 1141.6094,1585.8262 Q1142.7031,1585.2012 1143.9375,1585.2012 Q1144.6719,1585.2012 1145.3125,1585.373 Q1145.9688,1585.5293 1146.5156,1585.8887 Z " fill="#000000"/><text fill="#000000" font-family="sans-serif" font-size="14" lengthAdjust="spacing" textLength="78" x="1164.25" y="1595.8105">MediumPark</text><line style="stroke:#181818;stroke-width:0.5;" x1="965.5" x2="1408.5" y1="1606.0137" y2="1606.0137"/><rect fill="none" height="6" style="stroke:#C82930;stroke-width:1.0;" width="6" x="972.5" y="1617.8242"/><text fill="#000000" font-family="sans-serif" font-size="14" lengthAdjust="spacing" textLength="76" x="984.5" y="1625.1211">String name</text><rect fill="none" height="6" style="stroke:#C82930;stroke-width:1.0;" width="6" x="972.5" y="1636.4453"/><text fill="#000000" font-family="sans-serif" font-size="14" lengthAdjust="spacing" textLength="48" x="984.5" y="1643.7422">int area</text><rect fill="none" height="6" style="stroke:#C82930;stroke-width:1.0;" width="6" x="972.5" y="1655.0664"/><text fill="#000000" font-family="sans-serif" font-size="14" lengthAdjust="spacing" textLength="52" x="984.5" y="1662.3633">Address</text><line style="stroke:#181818;stroke-width:0.5;" x1="965.5" x2="1408.5" y1="1669.877" y2="1669.877"/><ellipse cx="975.5" cy="1684.6875" fill="#84BE84" rx="3" ry="3" style="stroke:#038048;stroke-width:1.0;"/><text fill="#000000" font-family="sans-serif" font-size="14" lengthAdjust="spacing" textLength="66" x="984.5" y="1688.9844">getName()</text><ellipse cx="975.5" cy="1703.3086" fill="#84BE84" rx="3" ry="3" style="stroke:#038048;stroke-width:1.0;"/><text fill="#000000" font-family="sans-serif" font-size="14" lengthAdjust="spacing" textLength="60" x="984.5" y="1707.6055">getArea()</text><ellipse cx="975.5" cy="1721.9297" fill="#84BE84" rx="3" ry="3" style="stroke:#038048;stroke-width:1.0;"/><text fill="#000000" font-family="sans-serif" font-size="14" lengthAdjust="spacing" textLength="82" x="984.5" y="1726.2266">getAddress()</text><ellipse cx="975.5" cy="1740.5508" fill="#84BE84" rx="3" ry="3" style="stroke:#038048;stroke-width:1.0;"/><text fill="#000000" font-family="sans-serif" font-size="14" lengthAdjust="spacing" textLength="419" x="984.5" y="1744.8477">MediumPark(name,area,streetName,postCodeNumber,localization)</text><rect fill="#F24D5C" height="6" style="stroke:#C82930;stroke-width:1.0;" width="6" x="972.5" y="1756.1719"/><text fill="#000000" font-family="sans-serif" font-size="14" lengthAdjust="spacing" textLength="150" x="984.5" y="1763.4688">validationGreenSpace()</text></g><!--class LargePark--><g id="elem_LargePark"><rect codeLine="74" fill="#F1F1F1" height="196.9688" id="LargePark" rx="2.5" ry="2.5" style="stroke:#181818;stroke-width:0.5;" width="433" x="46.5" y="1574.0137"/><ellipse cx="225.75" cy="1590.0137" fill="#ADD1B2" rx="11" ry="11" style="stroke:#181818;stroke-width:1.0;"/><path d="M228.5156,1585.8887 Q228.6719,1585.6699 228.8594,1585.5605 Q229.0469,1585.4512 229.2656,1585.4512 Q229.6406,1585.4512 229.875,1585.7168 Q230.1094,1585.9668 230.1094,1586.5762 L230.1094,1588.0293 Q230.1094,1588.6387 229.875,1588.9043 Q229.6406,1589.1699 229.2656,1589.1699 Q228.9219,1589.1699 228.7188,1588.9668 Q228.5156,1588.7793 228.4063,1588.2637 Q228.3594,1587.9043 228.1719,1587.7168 Q227.8438,1587.3418 227.2344,1587.123 Q226.625,1586.9043 226,1586.9043 Q225.2344,1586.9043 224.5938,1587.2324 Q223.9688,1587.5605 223.4688,1588.3105 Q222.9844,1589.0605 222.9844,1590.0918 L222.9844,1591.1855 Q222.9844,1592.4199 223.875,1593.248 Q224.7656,1594.0605 226.3594,1594.0605 Q227.2969,1594.0605 227.9531,1593.8105 Q228.3438,1593.6543 228.7656,1593.2168 Q229.0313,1592.9512 229.1719,1592.873 Q229.3281,1592.7949 229.5313,1592.7949 Q229.8594,1592.7949 230.1094,1593.0605 Q230.375,1593.3105 230.375,1593.6543 Q230.375,1593.998 230.0313,1594.4043 Q229.5313,1594.9824 228.7344,1595.3105 Q227.6563,1595.7637 226.3594,1595.7637 Q224.8438,1595.7637 223.6406,1595.1387 Q222.6563,1594.6387 221.9688,1593.5762 Q221.2813,1592.498 221.2813,1591.2168 L221.2813,1590.0605 Q221.2813,1588.7324 221.8906,1587.5918 Q222.5156,1586.4355 223.6094,1585.8262 Q224.7031,1585.2012 225.9375,1585.2012 Q226.6719,1585.2012 227.3125,1585.373 Q227.9688,1585.5293 228.5156,1585.8887 Z " fill="#000000"/><text fill="#000000" font-family="sans-serif" font-size="14" lengthAdjust="spacing" textLength="66" x="246.25" y="1595.8105">LargePark</text><line style="stroke:#181818;stroke-width:0.5;" x1="47.5" x2="478.5" y1="1606.0137" y2="1606.0137"/><rect fill="none" height="6" style="stroke:#C82930;stroke-width:1.0;" width="6" x="54.5" y="1617.8242"/><text fill="#000000" font-family="sans-serif" font-size="14" lengthAdjust="spacing" textLength="76" x="66.5" y="1625.1211">String name</text><rect fill="none" height="6" style="stroke:#C82930;stroke-width:1.0;" width="6" x="54.5" y="1636.4453"/><text fill="#000000" font-family="sans-serif" font-size="14" lengthAdjust="spacing" textLength="48" x="66.5" y="1643.7422">int area</text><rect fill="none" height="6" style="stroke:#C82930;stroke-width:1.0;" width="6" x="54.5" y="1655.0664"/><text fill="#000000" font-family="sans-serif" font-size="14" lengthAdjust="spacing" textLength="52" x="66.5" y="1662.3633">Address</text><line style="stroke:#181818;stroke-width:0.5;" x1="47.5" x2="478.5" y1="1669.877" y2="1669.877"/><ellipse cx="57.5" cy="1684.6875" fill="#84BE84" rx="3" ry="3" style="stroke:#038048;stroke-width:1.0;"/><text fill="#000000" font-family="sans-serif" font-size="14" lengthAdjust="spacing" textLength="66" x="66.5" y="1688.9844">getName()</text><ellipse cx="57.5" cy="1703.3086" fill="#84BE84" rx="3" ry="3" style="stroke:#038048;stroke-width:1.0;"/><text fill="#000000" font-family="sans-serif" font-size="14" lengthAdjust="spacing" textLength="60" x="66.5" y="1707.6055">getArea()</text><ellipse cx="57.5" cy="1721.9297" fill="#84BE84" rx="3" ry="3" style="stroke:#038048;stroke-width:1.0;"/><text fill="#000000" font-family="sans-serif" font-size="14" lengthAdjust="spacing" textLength="82" x="66.5" y="1726.2266">getAddress()</text><ellipse cx="57.5" cy="1740.5508" fill="#84BE84" rx="3" ry="3" style="stroke:#038048;stroke-width:1.0;"/><text fill="#000000" font-family="sans-serif" font-size="14" lengthAdjust="spacing" textLength="407" x="66.5" y="1744.8477">LargePark(name,area,streetName,postCodeNumber,localization)</text><rect fill="#F24D5C" height="6" style="stroke:#C82930;stroke-width:1.0;" width="6" x="54.5" y="1756.1719"/><text fill="#000000" font-family="sans-serif" font-size="14" lengthAdjust="spacing" textLength="150" x="66.5" y="1763.4688">validationGreenSpace()</text></g><!--class ICollaborator--><g id="elem_ICollaborator"><rect codeLine="87" fill="#F1F1F1" height="103.8633" id="ICollaborator" rx="2.5" ry="2.5" style="stroke:#181818;stroke-width:0.5;" width="126" x="771" y="969.0137"/><ellipse cx="791.4" cy="985.0137" fill="#B4A7E5" rx="11" ry="11" style="stroke:#181818;stroke-width:1.0;"/><path d="M792.3531,981.6543 L792.3531,988.3105 L794.0719,988.3105 Q794.6813,988.3105 794.9469,988.5449 Q795.2125,988.7793 795.2125,989.1699 Q795.2125,989.5449 794.9469,989.7793 Q794.6813,990.0137 794.0719,990.0137 L788.9313,990.0137 Q788.3219,990.0137 788.0563,989.7793 Q787.7906,989.5449 787.7906,989.1543 Q787.7906,988.7793 788.0563,988.5449 Q788.3219,988.3105 788.9313,988.3105 L790.65,988.3105 L790.65,981.6543 L788.9313,981.6543 Q788.3219,981.6543 788.0563,981.4199 Q787.7906,981.1855 787.7906,980.7949 Q787.7906,980.4199 788.0563,980.1855 Q788.3219,979.9512 788.9313,979.9512 L794.0719,979.9512 Q794.6813,979.9512 794.9469,980.1855 Q795.2125,980.4199 795.2125,980.7949 Q795.2125,981.1855 794.9469,981.4199 Q794.6813,981.6543 794.0719,981.6543 L792.3531,981.6543 Z " fill="#000000"/><text fill="#000000" font-family="sans-serif" font-size="14" font-style="italic" lengthAdjust="spacing" textLength="82" x="806.6" y="990.8105">ICollaborator</text><line style="stroke:#181818;stroke-width:0.5;" x1="772" x2="896" y1="1001.0137" y2="1001.0137"/><line style="stroke:#181818;stroke-width:0.5;" x1="772" x2="896" y1="1009.0137" y2="1009.0137"/><ellipse cx="782" cy="1023.8242" fill="#84BE84" rx="3" ry="3" style="stroke:#038048;stroke-width:1.0;"/><text fill="#000000" font-family="sans-serif" font-size="14" lengthAdjust="spacing" textLength="66" x="791" y="1028.1211">getName()</text><ellipse cx="782" cy="1042.4453" fill="#84BE84" rx="3" ry="3" style="stroke:#038048;stroke-width:1.0;"/><text fill="#000000" font-family="sans-serif" font-size="14" lengthAdjust="spacing" textLength="64" x="791" y="1046.7422">getEmail()</text><ellipse cx="782" cy="1061.0664" fill="#84BE84" rx="3" ry="3" style="stroke:#038048;stroke-width:1.0;"/><text fill="#000000" font-family="sans-serif" font-size="14" lengthAdjust="spacing" textLength="100" x="791" y="1065.3633">hasEmail(email)</text></g><!--class GreenSpaceManager--><g id="elem_GreenSpaceManager"><rect codeLine="94" fill="#F1F1F1" height="159.7266" id="GreenSpaceManager" rx="2.5" ry="2.5" style="stroke:#181818;stroke-width:0.5;" width="298" x="586" y="1152.0137"/><ellipse cx="662.75" cy="1168.0137" fill="#ADD1B2" rx="11" ry="11" style="stroke:#181818;stroke-width:1.0;"/><path d="M665.5156,1163.8887 Q665.6719,1163.6699 665.8594,1163.5605 Q666.0469,1163.4512 666.2656,1163.4512 Q666.6406,1163.4512 666.875,1163.7168 Q667.1094,1163.9668 667.1094,1164.5762 L667.1094,1166.0293 Q667.1094,1166.6387 666.875,1166.9043 Q666.6406,1167.1699 666.2656,1167.1699 Q665.9219,1167.1699 665.7188,1166.9668 Q665.5156,1166.7793 665.4063,1166.2637 Q665.3594,1165.9043 665.1719,1165.7168 Q664.8438,1165.3418 664.2344,1165.123 Q663.625,1164.9043 663,1164.9043 Q662.2344,1164.9043 661.5938,1165.2324 Q660.9688,1165.5605 660.4688,1166.3105 Q659.9844,1167.0605 659.9844,1168.0918 L659.9844,1169.1855 Q659.9844,1170.4199 660.875,1171.248 Q661.7656,1172.0605 663.3594,1172.0605 Q664.2969,1172.0605 664.9531,1171.8105 Q665.3438,1171.6543 665.7656,1171.2168 Q666.0313,1170.9512 666.1719,1170.873 Q666.3281,1170.7949 666.5313,1170.7949 Q666.8594,1170.7949 667.1094,1171.0605 Q667.375,1171.3105 667.375,1171.6543 Q667.375,1171.998 667.0313,1172.4043 Q666.5313,1172.9824 665.7344,1173.3105 Q664.6563,1173.7637 663.3594,1173.7637 Q661.8438,1173.7637 660.6406,1173.1387 Q659.6563,1172.6387 658.9688,1171.5762 Q658.2813,1170.498 658.2813,1169.2168 L658.2813,1168.0605 Q658.2813,1166.7324 658.8906,1165.5918 Q659.5156,1164.4355 660.6094,1163.8262 Q661.7031,1163.2012 662.9375,1163.2012 Q663.6719,1163.2012 664.3125,1163.373 Q664.9688,1163.5293 665.5156,1163.8887 Z " fill="#000000"/><text fill="#000000" font-family="sans-serif" font-size="14" lengthAdjust="spacing" textLength="136" x="683.25" y="1173.8105">GreenSpaceManager</text><line style="stroke:#181818;stroke-width:0.5;" x1="587" x2="883" y1="1184.0137" y2="1184.0137"/><rect fill="none" height="6" style="stroke:#C82930;stroke-width:1.0;" width="6" x="594" y="1195.8242"/><text fill="#000000" font-family="sans-serif" font-size="14" lengthAdjust="spacing" textLength="76" x="606" y="1203.1211">String name</text><rect fill="none" height="6" style="stroke:#C82930;stroke-width:1.0;" width="6" x="594" y="1214.4453"/><text fill="#000000" font-family="sans-serif" font-size="14" lengthAdjust="spacing" textLength="106" x="606" y="1221.7422">Date dateOfBirth</text><rect fill="none" height="6" style="stroke:#C82930;stroke-width:1.0;" width="6" x="594" y="1233.0664"/><text fill="#000000" font-family="sans-serif" font-size="14" lengthAdjust="spacing" textLength="127" x="606" y="1240.3633">Date admissionDate</text><rect fill="none" height="6" style="stroke:#C82930;stroke-width:1.0;" width="6" x="594" y="1251.6875"/><text fill="#000000" font-family="sans-serif" font-size="14" lengthAdjust="spacing" textLength="74" x="606" y="1258.9844">String email</text><rect fill="none" height="6" style="stroke:#C82930;stroke-width:1.0;" width="6" x="594" y="1270.3086"/><text fill="#000000" font-family="sans-serif" font-size="14" lengthAdjust="spacing" textLength="73" x="606" y="1277.6055">int taxpayer</text><line style="stroke:#181818;stroke-width:0.5;" x1="587" x2="883" y1="1285.1191" y2="1285.1191"/><ellipse cx="597" cy="1299.9297" fill="#84BE84" rx="3" ry="3" style="stroke:#038048;stroke-width:1.0;"/><text fill="#000000" font-family="sans-serif" font-size="14" lengthAdjust="spacing" textLength="272" x="606" y="1304.2266">addListManagerGreenSpace(GreenSpace)</text></g><!--class Address--><g id="elem_Address"><rect codeLine="104" fill="#F1F1F1" height="122.4844" id="Address" rx="2.5" ry="2.5" style="stroke:#181818;stroke-width:0.5;" width="351" x="1444.5" y="1611.5137"/><ellipse cx="1589.75" cy="1627.5137" fill="#ADD1B2" rx="11" ry="11" style="stroke:#181818;stroke-width:1.0;"/><path d="M1592.5156,1623.3887 Q1592.6719,1623.1699 1592.8594,1623.0605 Q1593.0469,1622.9512 1593.2656,1622.9512 Q1593.6406,1622.9512 1593.875,1623.2168 Q1594.1094,1623.4668 1594.1094,1624.0762 L1594.1094,1625.5293 Q1594.1094,1626.1387 1593.875,1626.4043 Q1593.6406,1626.6699 1593.2656,1626.6699 Q1592.9219,1626.6699 1592.7188,1626.4668 Q1592.5156,1626.2793 1592.4063,1625.7637 Q1592.3594,1625.4043 1592.1719,1625.2168 Q1591.8438,1624.8418 1591.2344,1624.623 Q1590.625,1624.4043 1590,1624.4043 Q1589.2344,1624.4043 1588.5938,1624.7324 Q1587.9688,1625.0605 1587.4688,1625.8105 Q1586.9844,1626.5605 1586.9844,1627.5918 L1586.9844,1628.6855 Q1586.9844,1629.9199 1587.875,1630.748 Q1588.7656,1631.5605 1590.3594,1631.5605 Q1591.2969,1631.5605 1591.9531,1631.3105 Q1592.3438,1631.1543 1592.7656,1630.7168 Q1593.0313,1630.4512 1593.1719,1630.373 Q1593.3281,1630.2949 1593.5313,1630.2949 Q1593.8594,1630.2949 1594.1094,1630.5605 Q1594.375,1630.8105 1594.375,1631.1543 Q1594.375,1631.498 1594.0313,1631.9043 Q1593.5313,1632.4824 1592.7344,1632.8105 Q1591.6563,1633.2637 1590.3594,1633.2637 Q1588.8438,1633.2637 1587.6406,1632.6387 Q1586.6563,1632.1387 1585.9688,1631.0762 Q1585.2813,1629.998 1585.2813,1628.7168 L1585.2813,1627.5605 Q1585.2813,1626.2324 1585.8906,1625.0918 Q1586.5156,1623.9355 1587.6094,1623.3262 Q1588.7031,1622.7012 1589.9375,1622.7012 Q1590.6719,1622.7012 1591.3125,1622.873 Q1591.9688,1623.0293 1592.5156,1623.3887 Z " fill="#000000"/><text fill="#000000" font-family="sans-serif" font-size="14" lengthAdjust="spacing" textLength="52" x="1610.25" y="1633.3105">Address</text><line style="stroke:#181818;stroke-width:0.5;" x1="1445.5" x2="1794.5" y1="1643.5137" y2="1643.5137"/><rect fill="none" height="6" style="stroke:#C82930;stroke-width:1.0;" width="6" x="1452.5" y="1655.3242"/><text fill="#000000" font-family="sans-serif" font-size="14" lengthAdjust="spacing" textLength="113" x="1464.5" y="1662.6211">String streetName</text><rect fill="none" height="6" style="stroke:#C82930;stroke-width:1.0;" width="6" x="1452.5" y="1673.9453"/><text fill="#000000" font-family="sans-serif" font-size="14" lengthAdjust="spacing" textLength="97" x="1464.5" y="1681.2422">int doorNumber</text><line style="stroke:#181818;stroke-width:0.5;" x1="1445.5" x2="1794.5" y1="1688.7559" y2="1688.7559"/><ellipse cx="1455.5" cy="1703.5664" fill="#84BE84" rx="3" ry="3" style="stroke:#038048;stroke-width:1.0;"/><text fill="#000000" font-family="sans-serif" font-size="14" lengthAdjust="spacing" textLength="325" x="1464.5" y="1707.8633">Address(streetName, postCodeNumber,localization)</text><rect fill="#F24D5C" height="6" style="stroke:#C82930;stroke-width:1.0;" width="6" x="1452.5" y="1719.1875"/><text fill="#000000" font-family="sans-serif" font-size="14" lengthAdjust="spacing" textLength="70" x="1464.5" y="1726.4844">validation()</text></g><!--class PostCode--><g id="elem_PostCode"><rect codeLine="112" fill="#F1F1F1" height="122.4844" id="PostCode" rx="2.5" ry="2.5" style="stroke:#181818;stroke-width:0.5;" width="281" x="1887.5" y="1611.5137"/><ellipse cx="1992.75" cy="1627.5137" fill="#ADD1B2" rx="11" ry="11" style="stroke:#181818;stroke-width:1.0;"/><path d="M1995.5156,1623.3887 Q1995.6719,1623.1699 1995.8594,1623.0605 Q1996.0469,1622.9512 1996.2656,1622.9512 Q1996.6406,1622.9512 1996.875,1623.2168 Q1997.1094,1623.4668 1997.1094,1624.0762 L1997.1094,1625.5293 Q1997.1094,1626.1387 1996.875,1626.4043 Q1996.6406,1626.6699 1996.2656,1626.6699 Q1995.9219,1626.6699 1995.7188,1626.4668 Q1995.5156,1626.2793 1995.4063,1625.7637 Q1995.3594,1625.4043 1995.1719,1625.2168 Q1994.8438,1624.8418 1994.2344,1624.623 Q1993.625,1624.4043 1993,1624.4043 Q1992.2344,1624.4043 1991.5938,1624.7324 Q1990.9688,1625.0605 1990.4688,1625.8105 Q1989.9844,1626.5605 1989.9844,1627.5918 L1989.9844,1628.6855 Q1989.9844,1629.9199 1990.875,1630.748 Q1991.7656,1631.5605 1993.3594,1631.5605 Q1994.2969,1631.5605 1994.9531,1631.3105 Q1995.3438,1631.1543 1995.7656,1630.7168 Q1996.0313,1630.4512 1996.1719,1630.373 Q1996.3281,1630.2949 1996.5313,1630.2949 Q1996.8594,1630.2949 1997.1094,1630.5605 Q1997.375,1630.8105 1997.375,1631.1543 Q1997.375,1631.498 1997.0313,1631.9043 Q1996.5313,1632.4824 1995.7344,1632.8105 Q1994.6563,1633.2637 1993.3594,1633.2637 Q1991.8438,1633.2637 1990.6406,1632.6387 Q1989.6563,1632.1387 1988.9688,1631.0762 Q1988.2813,1629.998 1988.2813,1628.7168 L1988.2813,1627.5605 Q1988.2813,1626.2324 1988.8906,1625.0918 Q1989.5156,1623.9355 1990.6094,1623.3262 Q1991.7031,1622.7012 1992.9375,1622.7012 Q1993.6719,1622.7012 1994.3125,1622.873 Q1994.9688,1623.0293 1995.5156,1623.3887 Z " fill="#000000"/><text fill="#000000" font-family="sans-serif" font-size="14" lengthAdjust="spacing" textLength="62" x="2013.25" y="1633.3105">PostCode</text><line style="stroke:#181818;stroke-width:0.5;" x1="1888.5" x2="2167.5" y1="1643.5137" y2="1643.5137"/><rect fill="none" height="6" style="stroke:#C82930;stroke-width:1.0;" width="6" x="1895.5" y="1655.3242"/><text fill="#000000" font-family="sans-serif" font-size="14" lengthAdjust="spacing" textLength="151" x="1907.5" y="1662.6211">String postCodeNumber</text><rect fill="none" height="6" style="stroke:#C82930;stroke-width:1.0;" width="6" x="1895.5" y="1673.9453"/><text fill="#000000" font-family="sans-serif" font-size="14" lengthAdjust="spacing" textLength="110" x="1907.5" y="1681.2422">String localization</text><line style="stroke:#181818;stroke-width:0.5;" x1="1888.5" x2="2167.5" y1="1688.7559" y2="1688.7559"/><ellipse cx="1898.5" cy="1703.5664" fill="#84BE84" rx="3" ry="3" style="stroke:#038048;stroke-width:1.0;"/><text fill="#000000" font-family="sans-serif" font-size="14" lengthAdjust="spacing" textLength="255" x="1907.5" y="1707.8633">PostCode(postCodeNumber,localization)</text><rect fill="#F24D5C" height="6" style="stroke:#C82930;stroke-width:1.0;" width="6" x="1895.5" y="1719.1875"/><text fill="#000000" font-family="sans-serif" font-size="14" lengthAdjust="spacing" textLength="70" x="1907.5" y="1726.4844">validation()</text></g><!--class Repositories--><g id="elem_Repositories"><rect codeLine="122" fill="#F1F1F1" height="122.4844" id="Repositories" rx="2.5" ry="2.5" style="stroke:#181818;stroke-width:0.5;" width="204" x="1123" y="430.0137"/><ellipse cx="1181.25" cy="446.0137" fill="#ADD1B2" rx="11" ry="11" style="stroke:#181818;stroke-width:1.0;"/><path d="M1184.0156,441.8887 Q1184.1719,441.6699 1184.3594,441.5605 Q1184.5469,441.4512 1184.7656,441.4512 Q1185.1406,441.4512 1185.375,441.7168 Q1185.6094,441.9668 1185.6094,442.5762 L1185.6094,444.0293 Q1185.6094,444.6387 1185.375,444.9043 Q1185.1406,445.1699 1184.7656,445.1699 Q1184.4219,445.1699 1184.2188,444.9668 Q1184.0156,444.7793 1183.9063,444.2637 Q1183.8594,443.9043 1183.6719,443.7168 Q1183.3438,443.3418 1182.7344,443.123 Q1182.125,442.9043 1181.5,442.9043 Q1180.7344,442.9043 1180.0938,443.2324 Q1179.4688,443.5605 1178.9688,444.3105 Q1178.4844,445.0605 1178.4844,446.0918 L1178.4844,447.1855 Q1178.4844,448.4199 1179.375,449.248 Q1180.2656,450.0605 1181.8594,450.0605 Q1182.7969,450.0605 1183.4531,449.8105 Q1183.8438,449.6543 1184.2656,449.2168 Q1184.5313,448.9512 1184.6719,448.873 Q1184.8281,448.7949 1185.0313,448.7949 Q1185.3594,448.7949 1185.6094,449.0605 Q1185.875,449.3105 1185.875,449.6543 Q1185.875,449.998 1185.5313,450.4043 Q1185.0313,450.9824 1184.2344,451.3105 Q1183.1563,451.7637 1181.8594,451.7637 Q1180.3438,451.7637 1179.1406,451.1387 Q1178.1563,450.6387 1177.4688,449.5762 Q1176.7813,448.498 1176.7813,447.2168 L1176.7813,446.0605 Q1176.7813,444.7324 1177.3906,443.5918 Q1178.0156,442.4355 1179.1094,441.8262 Q1180.2031,441.2012 1181.4375,441.2012 Q1182.1719,441.2012 1182.8125,441.373 Q1183.4688,441.5293 1184.0156,441.8887 Z " fill="#000000"/><text fill="#000000" font-family="sans-serif" font-size="14" lengthAdjust="spacing" textLength="79" x="1201.75" y="451.8105">Repositories</text><line style="stroke:#181818;stroke-width:0.5;" x1="1124" x2="1326" y1="462.0137" y2="462.0137"/><line style="stroke:#181818;stroke-width:0.5;" x1="1124" x2="1326" y1="470.0137" y2="470.0137"/><rect fill="#F24D5C" height="6" style="stroke:#C82930;stroke-width:1.0;" width="6" x="1131" y="481.8242"/><text fill="#000000" font-family="sans-serif" font-size="14" lengthAdjust="spacing" textLength="89" x="1143" y="489.1211">Repositories()</text><ellipse cx="1134" cy="503.4453" fill="#84BE84" rx="3" ry="3" style="stroke:#038048;stroke-width:1.0;"/><text fill="#000000" font-family="sans-serif" font-size="14" lengthAdjust="spacing" textLength="174" x="1143" y="507.7422">getInstance() : Repositories</text><ellipse cx="1134" cy="522.0664" fill="#84BE84" rx="3" ry="3" style="stroke:#038048;stroke-width:1.0;"/><text fill="#000000" font-family="sans-serif" font-size="14" lengthAdjust="spacing" textLength="178" x="1143" y="526.3633">getGreenSpaceRepository()</text><ellipse cx="1134" cy="540.6875" fill="#84BE84" rx="3" ry="3" style="stroke:#038048;stroke-width:1.0;"/><text fill="#000000" font-family="sans-serif" font-size="14" lengthAdjust="spacing" textLength="176" x="1143" y="544.9844">getCollaboratorRepository()</text></g><!--class CollaboratorRepository--><g id="elem_CollaboratorRepository"><rect codeLine="130" fill="#F1F1F1" height="66.6211" id="CollaboratorRepository" rx="2.5" ry="2.5" style="stroke:#181818;stroke-width:0.5;" width="217" x="725.5" y="779.5137"/><ellipse cx="758.05" cy="795.5137" fill="#ADD1B2" rx="11" ry="11" style="stroke:#181818;stroke-width:1.0;"/><path d="M760.8156,791.3887 Q760.9719,791.1699 761.1594,791.0605 Q761.3469,790.9512 761.5656,790.9512 Q761.9406,790.9512 762.175,791.2168 Q762.4094,791.4668 762.4094,792.0762 L762.4094,793.5293 Q762.4094,794.1387 762.175,794.4043 Q761.9406,794.6699 761.5656,794.6699 Q761.2219,794.6699 761.0188,794.4668 Q760.8156,794.2793 760.7063,793.7637 Q760.6594,793.4043 760.4719,793.2168 Q760.1438,792.8418 759.5344,792.623 Q758.925,792.4043 758.3,792.4043 Q757.5344,792.4043 756.8938,792.7324 Q756.2688,793.0605 755.7688,793.8105 Q755.2844,794.5605 755.2844,795.5918 L755.2844,796.6855 Q755.2844,797.9199 756.175,798.748 Q757.0656,799.5605 758.6594,799.5605 Q759.5969,799.5605 760.2531,799.3105 Q760.6438,799.1543 761.0656,798.7168 Q761.3313,798.4512 761.4719,798.373 Q761.6281,798.2949 761.8313,798.2949 Q762.1594,798.2949 762.4094,798.5605 Q762.675,798.8105 762.675,799.1543 Q762.675,799.498 762.3313,799.9043 Q761.8313,800.4824 761.0344,800.8105 Q759.9563,801.2637 758.6594,801.2637 Q757.1438,801.2637 755.9406,800.6387 Q754.9563,800.1387 754.2688,799.0762 Q753.5813,797.998 753.5813,796.7168 L753.5813,795.5605 Q753.5813,794.2324 754.1906,793.0918 Q754.8156,791.9355 755.9094,791.3262 Q757.0031,790.7012 758.2375,790.7012 Q758.9719,790.7012 759.6125,790.873 Q760.2688,791.0293 760.8156,791.3887 Z " fill="#000000"/><text fill="#000000" font-family="sans-serif" font-size="14" lengthAdjust="spacing" textLength="146" x="775.95" y="801.3105">CollaboratorRepository</text><line style="stroke:#181818;stroke-width:0.5;" x1="726.5" x2="941.5" y1="811.5137" y2="811.5137"/><line style="stroke:#181818;stroke-width:0.5;" x1="726.5" x2="941.5" y1="819.5137" y2="819.5137"/><ellipse cx="736.5" cy="834.3242" fill="#84BE84" rx="3" ry="3" style="stroke:#038048;stroke-width:1.0;"/><text fill="#000000" font-family="sans-serif" font-size="14" lengthAdjust="spacing" textLength="191" x="745.5" y="838.6211">getCollaboratorByEmail(email)</text></g><!--class GreenSpaceRepository--><g id="elem_GreenSpaceRepository"><rect codeLine="134" fill="#F1F1F1" height="103.8633" id="GreenSpaceRepository" rx="2.5" ry="2.5" style="stroke:#181818;stroke-width:0.5;" width="495" x="977.5" y="761.0137"/><ellipse cx="1146.75" cy="777.0137" fill="#ADD1B2" rx="11" ry="11" style="stroke:#181818;stroke-width:1.0;"/><path d="M1149.5156,772.8887 Q1149.6719,772.6699 1149.8594,772.5605 Q1150.0469,772.4512 1150.2656,772.4512 Q1150.6406,772.4512 1150.875,772.7168 Q1151.1094,772.9668 1151.1094,773.5762 L1151.1094,775.0293 Q1151.1094,775.6387 1150.875,775.9043 Q1150.6406,776.1699 1150.2656,776.1699 Q1149.9219,776.1699 1149.7188,775.9668 Q1149.5156,775.7793 1149.4063,775.2637 Q1149.3594,774.9043 1149.1719,774.7168 Q1148.8438,774.3418 1148.2344,774.123 Q1147.625,773.9043 1147,773.9043 Q1146.2344,773.9043 1145.5938,774.2324 Q1144.9688,774.5605 1144.4688,775.3105 Q1143.9844,776.0605 1143.9844,777.0918 L1143.9844,778.1855 Q1143.9844,779.4199 1144.875,780.248 Q1145.7656,781.0605 1147.3594,781.0605 Q1148.2969,781.0605 1148.9531,780.8105 Q1149.3438,780.6543 1149.7656,780.2168 Q1150.0313,779.9512 1150.1719,779.873 Q1150.3281,779.7949 1150.5313,779.7949 Q1150.8594,779.7949 1151.1094,780.0605 Q1151.375,780.3105 1151.375,780.6543 Q1151.375,780.998 1151.0313,781.4043 Q1150.5313,781.9824 1149.7344,782.3105 Q1148.6563,782.7637 1147.3594,782.7637 Q1145.8438,782.7637 1144.6406,782.1387 Q1143.6563,781.6387 1142.9688,780.5762 Q1142.2813,779.498 1142.2813,778.2168 L1142.2813,777.0605 Q1142.2813,775.7324 1142.8906,774.5918 Q1143.5156,773.4355 1144.6094,772.8262 Q1145.7031,772.2012 1146.9375,772.2012 Q1147.6719,772.2012 1148.3125,772.373 Q1148.9688,772.5293 1149.5156,772.8887 Z " fill="#000000"/><text fill="#000000" font-family="sans-serif" font-size="14" lengthAdjust="spacing" textLength="148" x="1167.25" y="782.8105">GreenSpaceRepository</text><line style="stroke:#181818;stroke-width:0.5;" x1="978.5" x2="1471.5" y1="793.0137" y2="793.0137"/><line style="stroke:#181818;stroke-width:0.5;" x1="978.5" x2="1471.5" y1="801.0137" y2="801.0137"/><rect fill="#F24D5C" height="6" style="stroke:#C82930;stroke-width:1.0;" width="6" x="985.5" y="812.8242"/><text fill="#000000" font-family="sans-serif" font-size="14" lengthAdjust="spacing" textLength="191" x="997.5" y="820.1211">addGreenSpace(greenSpace)</text><rect fill="#F24D5C" height="6" style="stroke:#C82930;stroke-width:1.0;" width="6" x="985.5" y="831.4453"/><text fill="#000000" font-family="sans-serif" font-size="14" lengthAdjust="spacing" textLength="192" x="997.5" y="838.7422">validationAllData(greenSpace)</text><ellipse cx="988.5" cy="853.0664" fill="#84BE84" rx="3" ry="3" style="stroke:#038048;stroke-width:1.0;"/><text fill="#000000" font-family="sans-serif" font-size="14" lengthAdjust="spacing" textLength="469" x="997.5" y="857.3633">registerGreenSpace(name,area,streetName,postCodeNumber,localization)</text></g><!--reverse link GreenSpace to Garden--><g id="link_GreenSpace_Garden"><path d="M826.2374,1510.1898 C811.1674,1533.4998 802.57,1546.8237 785.02,1573.9937 " fill="none" id="GreenSpace-backto-Garden" style="stroke:#181818;stroke-width:1.0;stroke-dasharray:7.0,7.0;"/><polygon fill="none" points="836.01,1495.0737,821.1987,1506.9322,831.2761,1513.4473,836.01,1495.0737" style="stroke:#181818;stroke-width:1.0;"/></g><!--reverse link GreenSpace to MediumPark--><g id="link_GreenSpace_MediumPark"><path d="M939.7593,1494.6371 C974.6193,1519.5771 1006.4,1542.3137 1050.47,1573.8337 " fill="none" id="GreenSpace-backto-MediumPark" style="stroke:#181818;stroke-width:1.0;stroke-dasharray:7.0,7.0;"/><polygon fill="none" points="925.12,1484.1637,936.2681,1499.5168,943.2504,1489.7573,925.12,1484.1637" style="stroke:#181818;stroke-width:1.0;"/></g><!--reverse link GreenSpace to LargePark--><g id="link_GreenSpace_LargePark"><path d="M795.7707,1468.1767 C722.6207,1492.5167 608.02,1531.5337 497,1574.0137 C491.25,1576.2137 485.42,1578.4737 479.55,1580.7637 " fill="none" id="GreenSpace-backto-LargePark" style="stroke:#181818;stroke-width:1.0;stroke-dasharray:7.0,7.0;"/><polygon fill="none" points="812.85,1462.4937,793.8763,1462.4836,797.665,1473.8698,812.85,1462.4937" style="stroke:#181818;stroke-width:1.0;"/></g><!--reverse link ICollaborator to GreenSpaceManager--><g id="link_ICollaborator_GreenSpaceManager"><path d="M802.0727,1089.4101 C790.8527,1113.0901 784.97,1125.5137 772.47,1151.9037 " fill="none" id="ICollaborator-backto-GreenSpaceManager" style="stroke:#181818;stroke-width:1.0;stroke-dasharray:7.0,7.0;"/><polygon fill="none" points="809.78,1073.1437,796.6505,1086.841,807.4948,1091.9792,809.78,1073.1437" style="stroke:#181818;stroke-width:1.0;"/></g><!--link Repositories to Repositories--><g id="link_Repositories_Repositories"><path codeLine="143" d="M1327.17,473.0337 C1347.5,475.0637 1362,481.0537 1362,491.0137 C1362,500.9737 1353.4703,506.3675 1333.1403,508.3975 " fill="none" id="Repositories-to-Repositories" style="stroke:#181818;stroke-width:1.0;"/><polygon fill="#181818" points="1327.17,508.9937,1336.5229,512.0797,1332.1453,508.4969,1335.728,504.1192,1327.17,508.9937" style="stroke:#181818;stroke-width:1.0;"/><text fill="#000000" font-family="sans-serif" font-size="13" lengthAdjust="spacing" textLength="49" x="1368" y="496.542">instance</text></g><!--link ApplicationSession to ApplicationSession--><g id="link_ApplicationSession_ApplicationSession"><path codeLine="144" d="M1683.21,472.4737 C1703.06,473.6537 1718,479.8337 1718,491.0137 C1718,502.1937 1709.0494,508.0176 1689.1994,509.1976 " fill="none" id="ApplicationSession-to-ApplicationSession" style="stroke:#181818;stroke-width:1.0;"/><polygon fill="#181818" points="1683.21,509.5537,1692.4315,513.0126,1688.2012,509.257,1691.9568,505.0267,1683.21,509.5537" style="stroke:#181818;stroke-width:1.0;"/><text fill="#000000" font-family="sans-serif" font-size="13" lengthAdjust="spacing" textLength="49" x="1724" y="496.542">instance</text></g><!--link RegisterGreenSpaceUI to RegisterGreenSpaceController--><g id="link_RegisterGreenSpaceUI_RegisterGreenSpaceController"><path codeLine="147" d="M1415,91.2837 C1415,113.6437 1415,142.1837 1415,170.9537 " fill="none" id="RegisterGreenSpaceUI-to-RegisterGreenSpaceController" style="stroke:#181818;stroke-width:1.0;stroke-dasharray:7.0,7.0;"/><polygon fill="#181818" points="1415,176.9537,1419,167.9537,1415,171.9537,1411,167.9537,1415,176.9537" style="stroke:#181818;stroke-width:1.0;"/></g><!--link RegisterGreenSpaceController to Repositories--><g id="link_RegisterGreenSpaceController_Repositories"><path codeLine="150" d="M1377.69,281.0737 C1346.46,323.8137 1305.3699,380.0292 1272.4299,425.1092 " fill="none" id="RegisterGreenSpaceController-to-Repositories" style="stroke:#181818;stroke-width:1.0;stroke-dasharray:7.0,7.0;"/><polygon fill="#181818" points="1268.89,429.9537,1277.4295,425.0468,1271.8399,425.9166,1270.9702,420.327,1268.89,429.9537" style="stroke:#181818;stroke-width:1.0;"/><text fill="#000000" font-family="sans-serif" font-size="13" lengthAdjust="spacing" textLength="67" x="1354" y="328.042">repositories</text></g><!--link RegisterGreenSpaceController to ApplicationSession--><g id="link_RegisterGreenSpaceController_ApplicationSession"><path codeLine="151" d="M1452.51,281.0737 C1488.47,330.0237 1538.5276,398.1683 1571.9476,443.6583 " fill="none" id="RegisterGreenSpaceController-to-ApplicationSession" style="stroke:#181818;stroke-width:1.0;stroke-dasharray:7.0,7.0;"/><polygon fill="#181818" points="1575.5,448.4937,1573.395,438.8724,1572.5397,444.4642,1566.9479,443.6089,1575.5,448.4937" style="stroke:#181818;stroke-width:1.0;"/></g><!--link RegisterGreenSpaceController to UserSession--><g id="link_RegisterGreenSpaceController_UserSession"><path codeLine="152" d="M1151.43,236.3637 C975.39,246.8237 766.03,273.4037 709,340.0137 C647.72,411.5837 645.82,482.1137 709,552.0137 C825.82,681.2637 1318.14,596.9737 1489,631.0137 C1504.84,634.1737 1515.9412,636.9457 1531.5012,641.5957 " fill="none" id="RegisterGreenSpaceController-to-UserSession" style="stroke:#181818;stroke-width:1.0;stroke-dasharray:7.0,7.0;"/><polygon fill="#181818" points="1537.25,643.3137,1529.7721,636.9042,1532.4593,641.882,1527.4815,644.5692,1537.25,643.3137" style="stroke:#181818;stroke-width:1.0;"/></g><!--link RegisterGreenSpaceController to GreenSpaceRepository--><g id="link_RegisterGreenSpaceController_GreenSpaceRepository"><path codeLine="153" d="M1678.69,253.9437 C1752,266.3537 1817.94,285.0237 1841,313.0137 C1900.07,384.7037 1902.25,661.1837 1841,731.0137 C1816.02,759.4937 1638.8881,780.6019 1478.7481,794.3119 " fill="none" id="RegisterGreenSpaceController-to-GreenSpaceRepository" style="stroke:#181818;stroke-width:1.0;stroke-dasharray:7.0,7.0;"/><polygon fill="#181818" points="1472.77,794.8237,1482.0784,798.0414,1477.7518,794.3972,1481.396,790.0705,1472.77,794.8237" style="stroke:#181818;stroke-width:1.0;"/></g><!--link RegisterGreenSpaceController to GreenSpaceManager--><g id="link_RegisterGreenSpaceController_GreenSpaceManager"><path codeLine="154" d="M1151.13,241.2637 C1017.54,251.9437 854.02,272.6937 712,313.0137 C684.65,320.7837 672.93,318.7937 654,340.0137 C607.22,392.4537 604,419.7437 604,490.0137 C604,490.0137 604,490.0137 604,1022.0137 C604,1069.5437 624.9806,1110.3911 652.8806,1146.8011 " fill="none" id="RegisterGreenSpaceController-to-GreenSpaceManager" style="stroke:#181818;stroke-width:1.0;stroke-dasharray:7.0,7.0;"/><polygon fill="#181818" points="656.53,1151.5637,654.2309,1141.9869,653.4888,1147.5949,647.8809,1146.8528,656.53,1151.5637" style="stroke:#181818;stroke-width:1.0;"/></g><!--link RegisterGreenSpaceController to CollaboratorRepository--><g id="link_RegisterGreenSpaceController_CollaboratorRepository"><path codeLine="155" d="M1660.31,281.0237 C1714.63,297.3937 1761.13,317.2737 1778,340.0137 C1828.58,408.1937 1836.58,660.5737 1778,722.0137 C1715.21,787.8737 1048.88,741.5037 960,761.0137 C940.75,765.2437 926.2277,769.8975 907.8777,777.2675 " fill="none" id="RegisterGreenSpaceController-to-CollaboratorRepository" style="stroke:#181818;stroke-width:1.0;stroke-dasharray:7.0,7.0;"/><polygon fill="#181818" points="902.31,779.5037,912.1524,779.8612,906.9498,777.6402,909.1708,772.4376,902.31,779.5037" style="stroke:#181818;stroke-width:1.0;"/></g><!--link RegisterGreenSpaceController to GreenSpace--><g id="link_RegisterGreenSpaceController_GreenSpace"><path codeLine="156" d="M1151.24,237.6037 C1002.91,247.1037 815.61,267.9137 654,313.0137 C562.22,338.6337 533,394.7237 533,490.0137 C533,490.0137 533,490.0137 533,1233.0137 C533,1303.0737 564.19,1326.2237 625,1361.0137 C641.66,1370.5437 740.3523,1402.0466 807.0823,1422.8666 " fill="none" id="RegisterGreenSpaceController-to-GreenSpace" style="stroke:#181818;stroke-width:1.0;stroke-dasharray:7.0,7.0;"/><polygon fill="#181818" points="812.81,1424.6537,805.4098,1418.1546,808.0369,1423.1645,803.0271,1425.7915,812.81,1424.6537" style="stroke:#181818;stroke-width:1.0;"/></g><!--link RegisterGreenSpaceController to Address--><g id="link_RegisterGreenSpaceController_Address"><path codeLine="157" d="M1678.64,248.3937 C1744.65,260.7837 1813.32,280.8237 1872,313.0137 C1934.51,347.3037 1957,466.3837 1957,490.0137 C1957,490.0137 1957,490.0137 1957,1444.0137 C1957,1495.9837 1850.8536,1560.7246 1756.1336,1608.6546 " fill="none" id="RegisterGreenSpaceController-to-Address" style="stroke:#181818;stroke-width:1.0;stroke-dasharray:7.0,7.0;"/><polygon fill="#181818" points="1750.78,1611.3637,1760.6164,1610.8692,1755.2413,1609.1062,1757.0044,1603.7311,1750.78,1611.3637" style="stroke:#181818;stroke-width:1.0;"/></g><!--link RegisterGreenSpaceController to PostCode--><g id="link_RegisterGreenSpaceController_PostCode"><path codeLine="158" d="M1678.69,256.6237 C1754.45,268.9837 1836.24,286.9537 1909,313.0137 C1998.24,344.9737 2028,395.2237 2028,490.0137 C2028,490.0137 2028,490.0137 2028,1444.0137 C2028,1500.6937 2028,1559.3137 2028,1605.1637 " fill="none" id="RegisterGreenSpaceController-to-PostCode" style="stroke:#181818;stroke-width:1.0;stroke-dasharray:7.0,7.0;"/><polygon fill="#181818" points="2028,1611.1637,2032,1602.1637,2028,1606.1637,2024,1602.1637,2028,1611.1637" style="stroke:#181818;stroke-width:1.0;"/></g><!--link RegisterGreenSpaceController to GreenSpaces--><g id="link_RegisterGreenSpaceController_GreenSpaces"><path codeLine="159" d="M1151.16,241.2037 C990.85,251.8737 782.88,272.6637 602,313.0137 C566.6,320.9137 551.41,315.1537 525,340.0137 C472.35,389.5737 462,417.7037 462,490.0137 C462,490.0137 462,490.0137 462,1233.0137 C462,1300.9137 502.1251,1365.2 532.0351,1404.48 " fill="none" id="RegisterGreenSpaceController-to-GreenSpaces" style="stroke:#181818;stroke-width:1.0;stroke-dasharray:7.0,7.0;"/><polygon fill="#181818" points="535.67,1409.2537,533.4001,1399.67,532.6409,1405.2757,527.0352,1404.5165,535.67,1409.2537" style="stroke:#181818;stroke-width:1.0;"/></g><!--link ApplicationSession to UserSession--><g id="link_ApplicationSession_UserSession"><path codeLine="162" d="M1603.82,533.5337 C1602.25,563.4637 1600.4742,597.3219 1599.0242,624.9719 " fill="none" id="ApplicationSession-to-UserSession" style="stroke:#181818;stroke-width:1.0;"/><polygon fill="#181818" points="1598.71,630.9637,1603.1758,622.1855,1598.9718,625.9705,1595.1868,621.7665,1598.71,630.9637" style="stroke:#181818;stroke-width:1.0;"/><text fill="#000000" font-family="sans-serif" font-size="13" lengthAdjust="spacing" textLength="72" x="1602" y="597.042">userSession</text><text fill="#000000" font-family="sans-serif" font-size="13" lengthAdjust="spacing" textLength="7" x="1591.3576" y="619.7793">1</text></g><!--link Repositories to GreenSpaceRepository--><g id="link_Repositories_GreenSpaceRepository"><path codeLine="165" d="M1225,552.2037 C1225,612.4037 1225,697.9837 1225,754.8037 " fill="none" id="Repositories-to-GreenSpaceRepository" style="stroke:#181818;stroke-width:1.0;"/><polygon fill="#181818" points="1225,760.8037,1229,751.8037,1225,755.8037,1221,751.8037,1225,760.8037" style="stroke:#181818;stroke-width:1.0;"/><text fill="#000000" font-family="sans-serif" font-size="13" lengthAdjust="spacing" textLength="134" x="1226" y="670.042">GreenSpaceRepository</text><text fill="#000000" font-family="sans-serif" font-size="13" lengthAdjust="spacing" textLength="7" x="1217.5297" y="749.7028">1</text></g><!--link Repositories to CollaboratorRepository--><g id="link_Repositories_CollaboratorRepository"><path codeLine="166" d="M1151.46,552.2037 C1069.16,619.5537 943.5132,722.3835 878.4132,775.6635 " fill="none" id="Repositories-to-CollaboratorRepository" style="stroke:#181818;stroke-width:1.0;"/><polygon fill="#181818" points="873.77,779.4637,883.2682,776.8589,877.6393,776.2969,878.2013,770.668,873.77,779.4637" style="stroke:#181818;stroke-width:1.0;"/><text fill="#000000" font-family="sans-serif" font-size="13" lengthAdjust="spacing" textLength="131" x="1054" y="670.042">CollaboratorRepository</text><text fill="#000000" font-family="sans-serif" font-size="13" lengthAdjust="spacing" textLength="7" x="873.9107" y="768.2793">1</text></g><!--link CollaboratorRepository to ICollaborator--><g id="link_CollaboratorRepository_ICollaborator"><path codeLine="169" d="M834,846.6537 C834,879.4437 834,924.4537 834,962.6637 " fill="none" id="CollaboratorRepository-to-ICollaborator" style="stroke:#181818;stroke-width:1.0;"/><polygon fill="#181818" points="834,968.6637,838,959.6637,834,963.6637,830,959.6637,834,968.6637" style="stroke:#181818;stroke-width:1.0;"/><text fill="#000000" font-family="sans-serif" font-size="13" lengthAdjust="spacing" textLength="88" x="835" y="912.042">collaboratorList</text><text fill="#000000" font-family="sans-serif" font-size="13" lengthAdjust="spacing" textLength="7" x="826.3766" y="868.2478">1</text><text fill="#000000" font-family="sans-serif" font-size="13" lengthAdjust="spacing" textLength="5" x="828.6797" y="957.923">*</text></g><!--link GreenSpaceRepository to GreenSpace--><g id="link_GreenSpaceRepository_GreenSpace"><path codeLine="172" d="M1241.79,865.0537 C1273.06,970.8037 1326.98,1216.0337 1209,1361.0137 C1173.62,1404.4937 1018.1955,1426.7612 931.0955,1436.1412 " fill="none" id="GreenSpaceRepository-to-GreenSpace" style="stroke:#181818;stroke-width:1.0;"/><polygon fill="#181818" points="925.13,1436.7837,934.5066,1439.797,930.1013,1436.2483,933.65,1431.843,925.13,1436.7837" style="stroke:#181818;stroke-width:1.0;"/><text fill="#000000" font-family="sans-serif" font-size="13" lengthAdjust="spacing" textLength="90" x="1282" y="1118.042">greenSpaceList</text><text fill="#000000" font-family="sans-serif" font-size="13" lengthAdjust="spacing" textLength="7" x="1236.4928" y="886.8661">1</text><text fill="#000000" font-family="sans-serif" font-size="13" lengthAdjust="spacing" textLength="5" x="933.0084" y="1431.8614">*</text></g><!--link GreenSpaceManager to GreenSpaces--><g id="link_GreenSpaceManager_GreenSpaces"><path codeLine="175" d="M669.97,1312.0237 C642.2,1345.7837 615.1234,1378.6814 593.7034,1404.7014 " fill="none" id="GreenSpaceManager-to-GreenSpaces" style="stroke:#181818;stroke-width:1.0;"/><polygon fill="#181818" points="589.89,1409.3337,598.6983,1404.9275,593.0678,1405.4734,592.5219,1399.843,589.89,1409.3337" style="stroke:#181818;stroke-width:1.0;"/><text fill="#000000" font-family="sans-serif" font-size="13" lengthAdjust="spacing" textLength="76" x="644" y="1357.042">greenSpaces</text><text fill="#000000" font-family="sans-serif" font-size="13" lengthAdjust="spacing" textLength="7" x="657.0807" y="1333.6826">1</text><text fill="#000000" font-family="sans-serif" font-size="13" lengthAdjust="spacing" textLength="7" x="587.4949" y="1398.1238">1</text></g><!--link GreenSpaces to GreenSpace--><g id="link_GreenSpaces_GreenSpace"><path codeLine="178" d="M686.14,1443.0137 C729.98,1443.0137 771.23,1443.0137 806.71,1443.0137 " fill="none" id="GreenSpaces-to-GreenSpace" style="stroke:#181818;stroke-width:1.0;"/><polygon fill="#181818" points="812.71,1443.0137,803.71,1439.0137,807.71,1443.0137,803.71,1447.0137,812.71,1443.0137" style="stroke:#181818;stroke-width:1.0;"/><text fill="#000000" font-family="sans-serif" font-size="13" lengthAdjust="spacing" textLength="90" x="704.5" y="1436.042">greenSpaceList</text><text fill="#000000" font-family="sans-serif" font-size="13" lengthAdjust="spacing" textLength="7" x="693.8571" y="1439.5444">1</text><text fill="#000000" font-family="sans-serif" font-size="13" lengthAdjust="spacing" textLength="5" x="800.1775" y="1438.9803">*</text></g><!--reverse link GreenSpace to Address--><g id="link_GreenSpace_Address"><path codeLine="179" d="M935.7426,1480.04 C981.0226,1503.21 1036.44,1528.2037 1098,1544.0137 C1240.22,1580.5337 1285.86,1533.5237 1427,1574.0137 C1458.03,1582.9137 1490,1596.8437 1518.76,1611.4037 " fill="none" id="GreenSpace-backto-Address" style="stroke:#181818;stroke-width:1.0;"/><polygon fill="#181818" points="925.06,1474.5737,928.5792,1480.8677,935.7426,1480.04,932.2234,1473.746,925.06,1474.5737" style="stroke:#181818;stroke-width:1.0;"/><text fill="#000000" font-family="sans-serif" font-size="13" lengthAdjust="spacing" textLength="46" x="1099" y="1540.042">address</text><text fill="#000000" font-family="sans-serif" font-size="13" lengthAdjust="spacing" textLength="7" x="933.0634" y="1474.7294">1</text><text fill="#000000" font-family="sans-serif" font-size="13" lengthAdjust="spacing" textLength="7" x="1499.6494" y="1600.3722">1</text></g><!--reverse link Address to PostCode--><g id="link_Address_PostCode"><path codeLine="182" d="M1807.69,1672.5137 C1838.34,1672.5137 1857.86,1672.5137 1887.4,1672.5137 " fill="none" id="Address-backto-PostCode" style="stroke:#181818;stroke-width:1.0;"/><polygon fill="#181818" points="1795.69,1672.5137,1801.69,1676.5137,1807.69,1672.5137,1801.69,1668.5137,1795.69,1672.5137" style="stroke:#181818;stroke-width:1.0;"/><text fill="#000000" font-family="sans-serif" font-size="13" lengthAdjust="spacing" textLength="55" x="1814" y="1665.542">postCode</text><text fill="#000000" font-family="sans-serif" font-size="13" lengthAdjust="spacing" textLength="20" x="1803.5238" y="1686.8965">1..*</text><text fill="#000000" font-family="sans-serif" font-size="13" lengthAdjust="spacing" textLength="7" x="1872.5195" y="1669.0719">1</text></g><!--reverse link ICollaborator to Address--><g id="link_ICollaborator_Address"><path codeLine="183" d="M905.2506,1080.8974 C1048.7106,1199.4374 1393.7,1484.5137 1547.17,1611.3237 " fill="none" id="ICollaborator-backto-Address" style="stroke:#181818;stroke-width:1.0;"/><polygon fill="#181818" points="896,1073.2537,898.0774,1080.1591,905.2506,1080.8974,903.1732,1073.992,896,1073.2537" style="stroke:#181818;stroke-width:1.0;"/><text fill="#000000" font-family="sans-serif" font-size="13" lengthAdjust="spacing" textLength="46" x="1237" y="1357.042">address</text><text fill="#000000" font-family="sans-serif" font-size="13" lengthAdjust="spacing" textLength="20" x="882.6625" y="1095.0917">1..*</text><text fill="#000000" font-family="sans-serif" font-size="13" lengthAdjust="spacing" textLength="7" x="1531.3443" y="1600.2829">1</text></g><!--SRC=[rLXjRzem4FwUNs7nfRG3f7v5KoNQRWXfTDDGVu2RNC6gOoFRR6CJ_trdykQ4Iu2kcxHyQ9lS-PwxvrvowOLz4MhD3KzPgfMELqQdm9pPG5H9rZn-uKjOkAq4PY1sN2rbg61NFD7VXLgoPovjA952WTkkWMdZT1G8OicjdJXdnDF6mIpMQY5-0kjTzwBeGiApOqup8vOhnnBXCOLMKUu8wptEUkpz-uzQ9c1kRjYlYE6rDyc-mb9O1sPg0DG2Jy3ZB5VOHRkeid6dbJDQIZ1dsAeEvOh-UjUfs5-M3x_2MblXjDaEM8n2_gGDnzlg-MLWr1mOxNig1ugdCE06-C0w5Ba7Vuy6t9rEu66JFe4PI1rpANvoJrjbSyYMuAQB-KVCyWAiHM7_CYgvAQcvroaNga7BNgsXCfgirrB4UnY2nOh9G2y7BXKgrIniwr0jzfxE5FwjCEpBXWhAxZR6W79L58Lq5pMW7osOOvXeqAjzm9XapLPWiHdw7DcMBK4BXNbxneonAda5XJLKdpigl0ccbtoU90PZAR961bn1scQSF4a-OKq56a5rTd0uvIO1nKIwbf0YxI587MF85jZJE0bybJOao0hpTTjudCVKP2V3xB- -sj-0vBgZtn0asOC4BTd1sXmIiKc_SFFoRvbxiv3V1I7yOIBEP-yJDqluhyah8_XRt57aLQDdTXUyOdwT7cPp2cQ25RUP0FpFq-RFd2kSc2PCO8TJNJcyvmuOCW2Vds-5SIjAp9DKxCUylwCjxtqdoiFn7sk-1KEFopoCWFffC3JRYSZhWhM4MPK2uL6YjSaAercWHRK5bSHULKfTpVSbDzZYUXsFrWcTQCPGcE__kUCTR-XghUhSJKer0RRvaXxMf5ItL4iA6zUK3rMdn298xZRaQjYLBle4jUQ4chVRMaUVqD2jjeU-Lu86eRQAPXedKcAdybPTSWD-_IGjIsKNNGmFhoAFX2YgLSZmfbunO-pNx6XqkELwRU9fS8Pqvd56kq5ysen6DvsV7pH09JyDAFZkoG1h19Ymx8yU9hu5Zfp1G-4MVroRgjYpZkKZ_uGpTEkT1NQ2Sh6i7DSiHkjP7bYwIWupHLKBLVLOzlWf7sODosGJv9342ylgU1yM8EHu6hVL06MXPNoEsvBRqbAKBXL62vpt96FkgbVVaz2JyDy5VYUXVQ1YfZmWAVFu1NpmsJfcrO0-Wioo4tdpT0CNks69MikahS7QOz5sGzaCf1dPGM11qFx0rN3_gzZYnluLbtqnaBsI2Sa6oItqhaUZgz9kqQXek7X_HVMib_fujRdo6m00]--></g></svg>