<?xml version="1.0" encoding="us-ascii" standalone="no"?><svg xmlns="http://www.w3.org/2000/svg" xmlns:xlink="http://www.w3.org/1999/xlink" contentStyleType="text/css" height="650px" preserveAspectRatio="none" style="width:1400px;height:650px;background:#FFFFFF;" version="1.1" viewBox="0 0 1400 650" width="1400px" zoomAndPan="magnify"><defs/><g><!--class Skill--><g id="elem_Skill"><rect codeLine="11" fill="#F1F1F1" height="103.8633" id="Skill" rx="2.5" ry="2.5" style="stroke:#181818;stroke-width:0.5;" width="126" x="652" y="540"/><ellipse cx="698.25" cy="556" fill="#ADD1B2" rx="11" ry="11" style="stroke:#181818;stroke-width:1.0;"/><path d="M701.0156,551.875 Q701.1719,551.6563 701.3594,551.5469 Q701.5469,551.4375 701.7656,551.4375 Q702.1406,551.4375 702.375,551.7031 Q702.6094,551.9531 702.6094,552.5625 L702.6094,554.0156 Q702.6094,554.625 702.375,554.8906 Q702.1406,555.1563 701.7656,555.1563 Q701.4219,555.1563 701.2188,554.9531 Q701.0156,554.7656 700.9063,554.25 Q700.8594,553.8906 700.6719,553.7031 Q700.3438,553.3281 699.7344,553.1094 Q699.125,552.8906 698.5,552.8906 Q697.7344,552.8906 697.0938,553.2188 Q696.4688,553.5469 695.9688,554.2969 Q695.4844,555.0469 695.4844,556.0781 L695.4844,557.1719 Q695.4844,558.4063 696.375,559.2344 Q697.2656,560.0469 698.8594,560.0469 Q699.7969,560.0469 700.4531,559.7969 Q700.8438,559.6406 701.2656,559.2031 Q701.5313,558.9375 701.6719,558.8594 Q701.8281,558.7813 702.0313,558.7813 Q702.3594,558.7813 702.6094,559.0469 Q702.875,559.2969 702.875,559.6406 Q702.875,559.9844 702.5313,560.3906 Q702.0313,560.9688 701.2344,561.2969 Q700.1563,561.75 698.8594,561.75 Q697.3438,561.75 696.1406,561.125 Q695.1563,560.625 694.4688,559.5625 Q693.7813,558.4844 693.7813,557.2031 L693.7813,556.0469 Q693.7813,554.7188 694.3906,553.5781 Q695.0156,552.4219 696.1094,551.8125 Q697.2031,551.1875 698.4375,551.1875 Q699.1719,551.1875 699.8125,551.3594 Q700.4688,551.5156 701.0156,551.875 Z " fill="#000000"/><text fill="#000000" font-family="sans-serif" font-size="14" lengthAdjust="spacing" textLength="25" x="718.75" y="561.7969">Skill</text><line style="stroke:#181818;stroke-width:0.5;" x1="653" x2="777" y1="572" y2="572"/><text fill="#000000" font-family="sans-serif" font-size="14" lengthAdjust="spacing" textLength="81" x="658" y="591.1074">-String name</text><line style="stroke:#181818;stroke-width:0.5;" x1="653" x2="777" y1="598.6211" y2="598.6211"/><text fill="#000000" font-family="sans-serif" font-size="14" lengthAdjust="spacing" textLength="114" x="658" y="617.7285">-validateSkill(Skill)</text><text fill="#000000" font-family="sans-serif" font-size="14" lengthAdjust="spacing" textLength="78" x="658" y="636.3496">+Skill(name)</text></g><!--class RegisterSkillController--><g id="elem_RegisterSkillController"><rect codeLine="18" fill="#F1F1F1" height="85.2422" id="RegisterSkillController" rx="2.5" ry="2.5" style="stroke:#181818;stroke-width:0.5;" width="172" x="827" y="91"/><ellipse cx="842" cy="107" fill="#ADD1B2" rx="11" ry="11" style="stroke:#181818;stroke-width:1.0;"/><path d="M844.7656,102.875 Q844.9219,102.6563 845.1094,102.5469 Q845.2969,102.4375 845.5156,102.4375 Q845.8906,102.4375 846.125,102.7031 Q846.3594,102.9531 846.3594,103.5625 L846.3594,105.0156 Q846.3594,105.625 846.125,105.8906 Q845.8906,106.1563 845.5156,106.1563 Q845.1719,106.1563 844.9688,105.9531 Q844.7656,105.7656 844.6563,105.25 Q844.6094,104.8906 844.4219,104.7031 Q844.0938,104.3281 843.4844,104.1094 Q842.875,103.8906 842.25,103.8906 Q841.4844,103.8906 840.8438,104.2188 Q840.2188,104.5469 839.7188,105.2969 Q839.2344,106.0469 839.2344,107.0781 L839.2344,108.1719 Q839.2344,109.4063 840.125,110.2344 Q841.0156,111.0469 842.6094,111.0469 Q843.5469,111.0469 844.2031,110.7969 Q844.5938,110.6406 845.0156,110.2031 Q845.2813,109.9375 845.4219,109.8594 Q845.5781,109.7813 845.7813,109.7813 Q846.1094,109.7813 846.3594,110.0469 Q846.625,110.2969 846.625,110.6406 Q846.625,110.9844 846.2813,111.3906 Q845.7813,111.9688 844.9844,112.2969 Q843.9063,112.75 842.6094,112.75 Q841.0938,112.75 839.8906,112.125 Q838.9063,111.625 838.2188,110.5625 Q837.5313,109.4844 837.5313,108.2031 L837.5313,107.0469 Q837.5313,105.7188 838.1406,104.5781 Q838.7656,103.4219 839.8594,102.8125 Q840.9531,102.1875 842.1875,102.1875 Q842.9219,102.1875 843.5625,102.3594 Q844.2188,102.5156 844.7656,102.875 Z " fill="#000000"/><text fill="#000000" font-family="sans-serif" font-size="14" lengthAdjust="spacing" textLength="140" x="856" y="112.7969">RegisterSkillController</text><line style="stroke:#181818;stroke-width:0.5;" x1="828" x2="998" y1="123" y2="123"/><line style="stroke:#181818;stroke-width:0.5;" x1="828" x2="998" y1="131" y2="131"/><text fill="#000000" font-family="sans-serif" font-size="14" lengthAdjust="spacing" textLength="158" x="833" y="150.1074">+RegisterSkillController()</text><text fill="#000000" font-family="sans-serif" font-size="14" lengthAdjust="spacing" textLength="126" x="833" y="168.7285">+registerSkill(name)</text></g><!--class RegisterSkillUI--><g id="elem_RegisterSkillUI"><rect codeLine="24" fill="#F1F1F1" height="48" id="RegisterSkillUI" rx="2.5" ry="2.5" style="stroke:#181818;stroke-width:0.5;" width="122" x="670" y="109.5"/><ellipse cx="685" cy="125.5" fill="#ADD1B2" rx="11" ry="11" style="stroke:#181818;stroke-width:1.0;"/><path d="M687.7656,121.375 Q687.9219,121.1563 688.1094,121.0469 Q688.2969,120.9375 688.5156,120.9375 Q688.8906,120.9375 689.125,121.2031 Q689.3594,121.4531 689.3594,122.0625 L689.3594,123.5156 Q689.3594,124.125 689.125,124.3906 Q688.8906,124.6563 688.5156,124.6563 Q688.1719,124.6563 687.9688,124.4531 Q687.7656,124.2656 687.6563,123.75 Q687.6094,123.3906 687.4219,123.2031 Q687.0938,122.8281 686.4844,122.6094 Q685.875,122.3906 685.25,122.3906 Q684.4844,122.3906 683.8438,122.7188 Q683.2188,123.0469 682.7188,123.7969 Q682.2344,124.5469 682.2344,125.5781 L682.2344,126.6719 Q682.2344,127.9063 683.125,128.7344 Q684.0156,129.5469 685.6094,129.5469 Q686.5469,129.5469 687.2031,129.2969 Q687.5938,129.1406 688.0156,128.7031 Q688.2813,128.4375 688.4219,128.3594 Q688.5781,128.2813 688.7813,128.2813 Q689.1094,128.2813 689.3594,128.5469 Q689.625,128.7969 689.625,129.1406 Q689.625,129.4844 689.2813,129.8906 Q688.7813,130.4688 687.9844,130.7969 Q686.9063,131.25 685.6094,131.25 Q684.0938,131.25 682.8906,130.625 Q681.9063,130.125 681.2188,129.0625 Q680.5313,127.9844 680.5313,126.7031 L680.5313,125.5469 Q680.5313,124.2188 681.1406,123.0781 Q681.7656,121.9219 682.8594,121.3125 Q683.9531,120.6875 685.1875,120.6875 Q685.9219,120.6875 686.5625,120.8594 Q687.2188,121.0156 687.7656,121.375 Z " fill="#000000"/><text fill="#000000" font-family="sans-serif" font-size="14" lengthAdjust="spacing" textLength="90" x="699" y="131.2969">RegisterSkillUI</text><line style="stroke:#181818;stroke-width:0.5;" x1="671" x2="791" y1="141.5" y2="141.5"/><line style="stroke:#181818;stroke-width:0.5;" x1="671" x2="791" y1="149.5" y2="149.5"/></g><!--class Collaborator--><g id="elem_Collaborator"><rect codeLine="27" fill="#F1F1F1" height="252.832" id="Collaborator" rx="2.5" ry="2.5" style="stroke:#181818;stroke-width:0.5;" width="628" x="7" y="7"/><ellipse cx="277.75" cy="23" fill="#ADD1B2" rx="11" ry="11" style="stroke:#181818;stroke-width:1.0;"/><path d="M280.5156,18.875 Q280.6719,18.6563 280.8594,18.5469 Q281.0469,18.4375 281.2656,18.4375 Q281.6406,18.4375 281.875,18.7031 Q282.1094,18.9531 282.1094,19.5625 L282.1094,21.0156 Q282.1094,21.625 281.875,21.8906 Q281.6406,22.1563 281.2656,22.1563 Q280.9219,22.1563 280.7188,21.9531 Q280.5156,21.7656 280.4063,21.25 Q280.3594,20.8906 280.1719,20.7031 Q279.8438,20.3281 279.2344,20.1094 Q278.625,19.8906 278,19.8906 Q277.2344,19.8906 276.5938,20.2188 Q275.9688,20.5469 275.4688,21.2969 Q274.9844,22.0469 274.9844,23.0781 L274.9844,24.1719 Q274.9844,25.4063 275.875,26.2344 Q276.7656,27.0469 278.3594,27.0469 Q279.2969,27.0469 279.9531,26.7969 Q280.3438,26.6406 280.7656,26.2031 Q281.0313,25.9375 281.1719,25.8594 Q281.3281,25.7813 281.5313,25.7813 Q281.8594,25.7813 282.1094,26.0469 Q282.375,26.2969 282.375,26.6406 Q282.375,26.9844 282.0313,27.3906 Q281.5313,27.9688 280.7344,28.2969 Q279.6563,28.75 278.3594,28.75 Q276.8438,28.75 275.6406,28.125 Q274.6563,27.625 273.9688,26.5625 Q273.2813,25.4844 273.2813,24.2031 L273.2813,23.0469 Q273.2813,21.7188 273.8906,20.5781 Q274.5156,19.4219 275.6094,18.8125 Q276.7031,18.1875 277.9375,18.1875 Q278.6719,18.1875 279.3125,18.3594 Q279.9688,18.5156 280.5156,18.875 Z " fill="#000000"/><text fill="#000000" font-family="sans-serif" font-size="14" lengthAdjust="spacing" textLength="78" x="298.25" y="28.7969">Collaborator</text><line style="stroke:#181818;stroke-width:0.5;" x1="8" x2="634" y1="39" y2="39"/><text fill="#000000" font-family="sans-serif" font-size="14" lengthAdjust="spacing" textLength="81" x="13" y="58.1074">-String name</text><text fill="#000000" font-family="sans-serif" font-size="14" lengthAdjust="spacing" textLength="95" x="13" y="76.7285">-List&lt;Skill&gt; skill</text><text fill="#000000" font-family="sans-serif" font-size="14" lengthAdjust="spacing" textLength="50" x="13" y="95.3496">-Job job</text><text fill="#000000" font-family="sans-serif" font-size="14" lengthAdjust="spacing" textLength="111" x="13" y="113.9707">-Date dateOfBirth</text><text fill="#000000" font-family="sans-serif" font-size="14" lengthAdjust="spacing" textLength="132" x="13" y="132.5918">-Date admissionDate</text><text fill="#000000" font-family="sans-serif" font-size="14" lengthAdjust="spacing" textLength="112" x="13" y="151.2129">-Address address</text><text fill="#000000" font-family="sans-serif" font-size="14" lengthAdjust="spacing" textLength="113" x="13" y="169.834">-int phoneNumber</text><text fill="#000000" font-family="sans-serif" font-size="14" lengthAdjust="spacing" textLength="79" x="13" y="188.4551">-String email</text><text fill="#000000" font-family="sans-serif" font-size="14" lengthAdjust="spacing" textLength="38" x="13" y="207.0762">-int cc</text><text fill="#000000" font-family="sans-serif" font-size="14" lengthAdjust="spacing" textLength="101" x="13" y="225.6973">-int cardNumber</text><line style="stroke:#181818;stroke-width:0.5;" x1="8" x2="634" y1="233.2109" y2="233.2109"/><text fill="#000000" font-family="sans-serif" font-size="14" lengthAdjust="spacing" textLength="616" x="13" y="252.3184">+Collaborator(name, dateOfBirth, admissionDate, address, phoneNumber, email, cc, cardNumber)</text></g><!--class HumanResourcesManager--><g id="elem_HumanResourcesManager"><rect codeLine="42" fill="#F1F1F1" height="48" id="HumanResourcesManager" rx="2.5" ry="2.5" style="stroke:#181818;stroke-width:0.5;" width="200" x="350" y="376"/><ellipse cx="365" cy="392" fill="#ADD1B2" rx="11" ry="11" style="stroke:#181818;stroke-width:1.0;"/><path d="M367.7656,387.875 Q367.9219,387.6563 368.1094,387.5469 Q368.2969,387.4375 368.5156,387.4375 Q368.8906,387.4375 369.125,387.7031 Q369.3594,387.9531 369.3594,388.5625 L369.3594,390.0156 Q369.3594,390.625 369.125,390.8906 Q368.8906,391.1563 368.5156,391.1563 Q368.1719,391.1563 367.9688,390.9531 Q367.7656,390.7656 367.6563,390.25 Q367.6094,389.8906 367.4219,389.7031 Q367.0938,389.3281 366.4844,389.1094 Q365.875,388.8906 365.25,388.8906 Q364.4844,388.8906 363.8438,389.2188 Q363.2188,389.5469 362.7188,390.2969 Q362.2344,391.0469 362.2344,392.0781 L362.2344,393.1719 Q362.2344,394.4063 363.125,395.2344 Q364.0156,396.0469 365.6094,396.0469 Q366.5469,396.0469 367.2031,395.7969 Q367.5938,395.6406 368.0156,395.2031 Q368.2813,394.9375 368.4219,394.8594 Q368.5781,394.7813 368.7813,394.7813 Q369.1094,394.7813 369.3594,395.0469 Q369.625,395.2969 369.625,395.6406 Q369.625,395.9844 369.2813,396.3906 Q368.7813,396.9688 367.9844,397.2969 Q366.9063,397.75 365.6094,397.75 Q364.0938,397.75 362.8906,397.125 Q361.9063,396.625 361.2188,395.5625 Q360.5313,394.4844 360.5313,393.2031 L360.5313,392.0469 Q360.5313,390.7188 361.1406,389.5781 Q361.7656,388.4219 362.8594,387.8125 Q363.9531,387.1875 365.1875,387.1875 Q365.9219,387.1875 366.5625,387.3594 Q367.2188,387.5156 367.7656,387.875 Z " fill="#000000"/><text fill="#000000" font-family="sans-serif" font-size="14" lengthAdjust="spacing" textLength="168" x="379" y="397.7969">HumanResourcesManager</text><line style="stroke:#181818;stroke-width:0.5;" x1="351" x2="549" y1="408" y2="408"/><line style="stroke:#181818;stroke-width:0.5;" x1="351" x2="549" y1="416" y2="416"/></g><!--class Repositories--><g id="elem_Repositories"><rect codeLine="45" fill="#F1F1F1" height="103.8633" id="Repositories" rx="2.5" ry="2.5" style="stroke:#181818;stroke-width:0.5;" width="194" x="1103" y="81.5"/><ellipse cx="1156.25" cy="97.5" fill="#ADD1B2" rx="11" ry="11" style="stroke:#181818;stroke-width:1.0;"/><path d="M1159.0156,93.375 Q1159.1719,93.1563 1159.3594,93.0469 Q1159.5469,92.9375 1159.7656,92.9375 Q1160.1406,92.9375 1160.375,93.2031 Q1160.6094,93.4531 1160.6094,94.0625 L1160.6094,95.5156 Q1160.6094,96.125 1160.375,96.3906 Q1160.1406,96.6563 1159.7656,96.6563 Q1159.4219,96.6563 1159.2188,96.4531 Q1159.0156,96.2656 1158.9063,95.75 Q1158.8594,95.3906 1158.6719,95.2031 Q1158.3438,94.8281 1157.7344,94.6094 Q1157.125,94.3906 1156.5,94.3906 Q1155.7344,94.3906 1155.0938,94.7188 Q1154.4688,95.0469 1153.9688,95.7969 Q1153.4844,96.5469 1153.4844,97.5781 L1153.4844,98.6719 Q1153.4844,99.9063 1154.375,100.7344 Q1155.2656,101.5469 1156.8594,101.5469 Q1157.7969,101.5469 1158.4531,101.2969 Q1158.8438,101.1406 1159.2656,100.7031 Q1159.5313,100.4375 1159.6719,100.3594 Q1159.8281,100.2813 1160.0313,100.2813 Q1160.3594,100.2813 1160.6094,100.5469 Q1160.875,100.7969 1160.875,101.1406 Q1160.875,101.4844 1160.5313,101.8906 Q1160.0313,102.4688 1159.2344,102.7969 Q1158.1563,103.25 1156.8594,103.25 Q1155.3438,103.25 1154.1406,102.625 Q1153.1563,102.125 1152.4688,101.0625 Q1151.7813,99.9844 1151.7813,98.7031 L1151.7813,97.5469 Q1151.7813,96.2188 1152.3906,95.0781 Q1153.0156,93.9219 1154.1094,93.3125 Q1155.2031,92.6875 1156.4375,92.6875 Q1157.1719,92.6875 1157.8125,92.8594 Q1158.4688,93.0156 1159.0156,93.375 Z " fill="#000000"/><text fill="#000000" font-family="sans-serif" font-size="14" lengthAdjust="spacing" textLength="79" x="1176.75" y="103.2969">Repositories</text><line style="stroke:#181818;stroke-width:0.5;" x1="1104" x2="1296" y1="113.5" y2="113.5"/><line style="stroke:#181818;stroke-width:0.5;" x1="1104" x2="1296" y1="121.5" y2="121.5"/><text fill="#000000" font-family="sans-serif" font-size="14" lengthAdjust="spacing" textLength="94" x="1109" y="140.6074">-Repositories()</text><text fill="#000000" font-family="sans-serif" font-size="14" lengthAdjust="spacing" textLength="182" x="1109" y="159.2285">+getInstance() : Repositories</text><text fill="#000000" font-family="sans-serif" font-size="14" lengthAdjust="spacing" textLength="131" x="1109" y="177.8496">+getSkillRepository()</text></g><!--class SkillRepository--><g id="elem_SkillRepository"><rect codeLine="52" fill="#F1F1F1" height="122.4844" id="SkillRepository" rx="2.5" ry="2.5" style="stroke:#181818;stroke-width:0.5;" width="130" x="848" y="339"/><ellipse cx="865.25" cy="355" fill="#ADD1B2" rx="11" ry="11" style="stroke:#181818;stroke-width:1.0;"/><path d="M868.0156,350.875 Q868.1719,350.6563 868.3594,350.5469 Q868.5469,350.4375 868.7656,350.4375 Q869.1406,350.4375 869.375,350.7031 Q869.6094,350.9531 869.6094,351.5625 L869.6094,353.0156 Q869.6094,353.625 869.375,353.8906 Q869.1406,354.1563 868.7656,354.1563 Q868.4219,354.1563 868.2188,353.9531 Q868.0156,353.7656 867.9063,353.25 Q867.8594,352.8906 867.6719,352.7031 Q867.3438,352.3281 866.7344,352.1094 Q866.125,351.8906 865.5,351.8906 Q864.7344,351.8906 864.0938,352.2188 Q863.4688,352.5469 862.9688,353.2969 Q862.4844,354.0469 862.4844,355.0781 L862.4844,356.1719 Q862.4844,357.4063 863.375,358.2344 Q864.2656,359.0469 865.8594,359.0469 Q866.7969,359.0469 867.4531,358.7969 Q867.8438,358.6406 868.2656,358.2031 Q868.5313,357.9375 868.6719,357.8594 Q868.8281,357.7813 869.0313,357.7813 Q869.3594,357.7813 869.6094,358.0469 Q869.875,358.2969 869.875,358.6406 Q869.875,358.9844 869.5313,359.3906 Q869.0313,359.9688 868.2344,360.2969 Q867.1563,360.75 865.8594,360.75 Q864.3438,360.75 863.1406,360.125 Q862.1563,359.625 861.4688,358.5625 Q860.7813,357.4844 860.7813,356.2031 L860.7813,355.0469 Q860.7813,353.7188 861.3906,352.5781 Q862.0156,351.4219 863.1094,350.8125 Q864.2031,350.1875 865.4375,350.1875 Q866.1719,350.1875 866.8125,350.3594 Q867.4688,350.5156 868.0156,350.875 Z " fill="#000000"/><text fill="#000000" font-family="sans-serif" font-size="14" lengthAdjust="spacing" textLength="93" x="879.75" y="360.7969">SkillRepository</text><line style="stroke:#181818;stroke-width:0.5;" x1="849" x2="977" y1="371" y2="371"/><text fill="#000000" font-family="sans-serif" font-size="14" lengthAdjust="spacing" textLength="99" x="854" y="390.1074">-List &lt;Skill&gt; skill</text><line style="stroke:#181818;stroke-width:0.5;" x1="849" x2="977" y1="397.6211" y2="397.6211"/><text fill="#000000" font-family="sans-serif" font-size="14" lengthAdjust="spacing" textLength="89" x="854" y="416.7285">-addSkill(Skill)</text><text fill="#000000" font-family="sans-serif" font-size="14" lengthAdjust="spacing" textLength="114" x="854" y="435.3496">-validateSkill(Skill)</text><text fill="#000000" font-family="sans-serif" font-size="14" lengthAdjust="spacing" textLength="118" x="854" y="453.9707">+createSkill(name)</text></g><!--link RegisterSkillController to Repositories--><g id="link_RegisterSkillController_Repositories"><path codeLine="60" d="M999.11,133.5 C1031.8,133.5 1063.25,133.5 1096.89,133.5 " fill="none" id="RegisterSkillController-to-Repositories" style="stroke:#181818;stroke-width:1.0;stroke-dasharray:7.0,7.0;"/><polygon fill="#181818" points="1102.89,133.5,1093.89,129.5,1097.89,133.5,1093.89,137.5,1102.89,133.5" style="stroke:#181818;stroke-width:1.0;"/><text fill="#000000" font-family="sans-serif" font-size="13" lengthAdjust="spacing" textLength="67" x="1017.5" y="126.5283">repositories</text></g><!--link RegisterSkillUI to RegisterSkillController--><g id="link_RegisterSkillUI_RegisterSkillController"><path codeLine="61" d="M792.05,133.5 C794.8,133.5 805.64,133.5 820.82,133.5 " fill="none" id="RegisterSkillUI-to-RegisterSkillController" style="stroke:#181818;stroke-width:1.0;stroke-dasharray:7.0,7.0;"/><polygon fill="#181818" points="826.82,133.5,817.82,129.5,821.82,133.5,817.82,137.5,826.82,133.5" style="stroke:#181818;stroke-width:1.0;"/></g><!--link Repositories to Repositories--><g id="link_Repositories_Repositories"><path codeLine="62" d="M1297.28,103.47 C1317.48,106.63 1332,116.64 1332,133.5 C1332,150.36 1323.4079,159.4427 1303.2079,162.6027 " fill="none" id="Repositories-to-Repositories" style="stroke:#181818;stroke-width:1.0;"/><polygon fill="#181818" points="1297.28,163.53,1306.7901,166.0909,1302.2199,162.7572,1305.5536,158.1871,1297.28,163.53" style="stroke:#181818;stroke-width:1.0;"/><text fill="#000000" font-family="sans-serif" font-size="13" lengthAdjust="spacing" textLength="49" x="1338" y="139.0283">instance</text></g><!--link Repositories to SkillRepository--><g id="link_Repositories_SkillRepository"><path codeLine="63" d="M1144.32,185.81 C1096.72,229.68 1032.5921,288.7839 982.4721,334.9739 " fill="none" id="Repositories-to-SkillRepository" style="stroke:#181818;stroke-width:1.0;"/><polygon fill="#181818" points="978.06,339.04,987.3889,335.8822,981.7367,335.6516,981.9674,329.9994,978.06,339.04" style="stroke:#181818;stroke-width:1.0;"/><text fill="#000000" font-family="sans-serif" font-size="13" lengthAdjust="spacing" textLength="87" x="1032" y="305.0283">SkillRepository</text><text fill="#000000" font-family="sans-serif" font-size="13" lengthAdjust="spacing" textLength="7" x="985.9872" y="328.0258">1</text></g><!--link SkillRepository to Skill--><g id="link_SkillRepository_Skill"><path codeLine="64" d="M854.42,461.24 C829.9,486.45 807,510 807,510 C807,510 795.8848,519.7968 777.5048,535.9668 " fill="none" id="SkillRepository-to-Skill" style="stroke:#181818;stroke-width:1.0;"/><polygon fill="#181818" points="773,539.93,782.3993,536.9885,776.754,536.6274,777.1151,530.9821,773,539.93" style="stroke:#181818;stroke-width:1.0;"/><text fill="#000000" font-family="sans-serif" font-size="13" lengthAdjust="spacing" textLength="23" x="826" y="506.0283">skill</text><text fill="#000000" font-family="sans-serif" font-size="13" lengthAdjust="spacing" textLength="7" x="840.242" y="483.3208">1</text><text fill="#000000" font-family="sans-serif" font-size="13" lengthAdjust="spacing" textLength="5" x="775.4578" y="528.848">*</text></g><!--reverse link Collaborator to HumanResourcesManager--><g id="link_Collaborator_HumanResourcesManager"><path codeLine="65" d="M390.18,276.3486 C411.76,320.5986 425.93,349.66 438.78,376 " fill="none" id="Collaborator-backto-HumanResourcesManager" style="stroke:#181818;stroke-width:1.0;"/><polygon fill="none" points="382.29,260.17,384.7872,278.9786,395.5729,273.7186,382.29,260.17" style="stroke:#181818;stroke-width:1.0;"/></g><!--link RegisterSkillController to Skill--><g id="link_RegisterSkillController_Skill"><path codeLine="66" d="M894.9,176.22 C858.53,260.08 779.0578,443.3156 739.5478,534.3956 " fill="none" id="RegisterSkillController-to-Skill" style="stroke:#181818;stroke-width:1.0;stroke-dasharray:7.0,7.0;"/><polygon fill="#181818" points="737.16,539.9,744.4113,533.2352,739.1498,535.313,737.0721,530.0515,737.16,539.9" style="stroke:#181818;stroke-width:1.0;"/></g><!--link RegisterSkillController to SkillRepository--><g id="link_RegisterSkillController_SkillRepository"><path codeLine="67" d="M913,176.12 C913,219.91 913,283.24 913,332.95 " fill="none" id="RegisterSkillController-to-SkillRepository" style="stroke:#181818;stroke-width:1.0;stroke-dasharray:7.0,7.0;"/><polygon fill="#181818" points="913,338.95,917,329.95,913,333.95,909,329.95,913,338.95" style="stroke:#181818;stroke-width:1.0;"/></g><!--reverse link HumanResourcesManager to Skill--><g id="link_HumanResourcesManager_Skill"><path codeLine="69" d="M484.4248,427.8053 C525.5248,459.7953 590,510 590,510 C590,510 620.76,529.93 651.77,550.03 " fill="none" id="HumanResourcesManager-backto-Skill" style="stroke:#181818;stroke-width:1.0;"/><polygon fill="#181818" points="479.69,424.12,484.3353,432.8045,483.6357,427.1911,489.2491,426.4914,479.69,424.12" style="stroke:#181818;stroke-width:1.0;"/><text fill="#000000" font-family="sans-serif" font-size="13" lengthAdjust="spacing" textLength="59" x="591" y="506.0283">createdBy</text></g><!--link Collaborator to Skill--><g id="link_Collaborator_Skill"><path codeLine="70" d="M472.24,260.23 C523.01,302.43 567,339 567,339 C567,339 638.5616,460.8462 681.8316,534.5262 " fill="none" id="Collaborator-to-Skill" style="stroke:#181818;stroke-width:1.0;"/><polygon fill="#181818" points="684.87,539.7,683.7616,529.9137,682.338,535.3885,676.8632,533.9649,684.87,539.7" style="stroke:#181818;stroke-width:1.0;"/><text fill="#000000" font-family="sans-serif" font-size="13" lengthAdjust="spacing" textLength="21" x="640" y="405.5283">has</text><text fill="#000000" font-family="sans-serif" font-size="13" lengthAdjust="spacing" textLength="5" x="475.3742" y="281.6663">*</text><text fill="#000000" font-family="sans-serif" font-size="13" lengthAdjust="spacing" textLength="5" x="675.4853" y="528.5871">*</text></g><!--SRC=[XLF9Zjim3BthAuYvn6djehq6mG2p79gY2v2W7o3BZAs9B1cItC9T_hsIl4HsacaESKo-H_AHBojpuhAXcjPGAwbOfLMDO7MBv9nfA3lH4W-s4mWQcQMo5370LBHGFxaiuKY5YJE2IxHTWz0eqVaNihgILDeg4h6OeCOyMAjvtbhSCIKF_1V2Uq9M0eyMh0BDoyf2mVquN4b20WSE9ou4_2RWFXaSN0KtbAGraY7qWmfUK8i1c8JlTKYzxRc91w_9tx7W7ajkBEgGV5BIQYK4QjTYODq096DL7UTVhVvzvwfEgITNXkPAKwlqA2ZM4mAV7NiRoFTW_ACFVr8vlAYyVtbsQi5B_dPyvDfMKPGMDJV6hS-_zV67ej3esjF-sGUvjD1KIkBNjivHpuR1cd9nXZ4M_QQw61Z3Cc9HOHTfF5aw7oWTXqZZvcdVCNMTqgX3jDIFRKtb7ergDKFpXKhdNHslTe-DCjoDmD6CXyncqUbw9TgTDCxm39CrR6QWCoHSO4frIJJC8ZLPqryEvgSRCaxqXJbVzItJE2KcVztoxRlxkVoDCsWaQMd80BzQYSpAP1Tb-R2s1Su1xpxSNQnbiuoG9SAp0llDm7QSVc-pVmfi_sGPNFV0xQKucI7sVqGq8RbkjAtl7x2RuJJ5OpSVqcjOQgce8Vy0]--></g></svg>