<?xml version="1.0" encoding="us-ascii" standalone="no"?><svg xmlns="http://www.w3.org/2000/svg" xmlns:xlink="http://www.w3.org/1999/xlink" contentStyleType="text/css" height="668px" preserveAspectRatio="none" style="width:1443px;height:668px;background:#FFFFFF;" version="1.1" viewBox="0 0 1443 668" width="1443px" zoomAndPan="magnify"><defs/><g><!--class Skill--><g id="elem_Skill"><rect codeLine="11" fill="#F1F1F1" height="103.8633" id="Skill" rx="2.5" ry="2.5" style="stroke:#181818;stroke-width:0.5;" width="126" x="689.5" y="558"/><ellipse cx="735.75" cy="574" fill="#ADD1B2" rx="11" ry="11" style="stroke:#181818;stroke-width:1.0;"/><path d="M738.5156,569.875 Q738.6719,569.6563 738.8594,569.5469 Q739.0469,569.4375 739.2656,569.4375 Q739.6406,569.4375 739.875,569.7031 Q740.1094,569.9531 740.1094,570.5625 L740.1094,572.0156 Q740.1094,572.625 739.875,572.8906 Q739.6406,573.1563 739.2656,573.1563 Q738.9219,573.1563 738.7188,572.9531 Q738.5156,572.7656 738.4063,572.25 Q738.3594,571.8906 738.1719,571.7031 Q737.8438,571.3281 737.2344,571.1094 Q736.625,570.8906 736,570.8906 Q735.2344,570.8906 734.5938,571.2188 Q733.9688,571.5469 733.4688,572.2969 Q732.9844,573.0469 732.9844,574.0781 L732.9844,575.1719 Q732.9844,576.4063 733.875,577.2344 Q734.7656,578.0469 736.3594,578.0469 Q737.2969,578.0469 737.9531,577.7969 Q738.3438,577.6406 738.7656,577.2031 Q739.0313,576.9375 739.1719,576.8594 Q739.3281,576.7813 739.5313,576.7813 Q739.8594,576.7813 740.1094,577.0469 Q740.375,577.2969 740.375,577.6406 Q740.375,577.9844 740.0313,578.3906 Q739.5313,578.9688 738.7344,579.2969 Q737.6563,579.75 736.3594,579.75 Q734.8438,579.75 733.6406,579.125 Q732.6563,578.625 731.9688,577.5625 Q731.2813,576.4844 731.2813,575.2031 L731.2813,574.0469 Q731.2813,572.7188 731.8906,571.5781 Q732.5156,570.4219 733.6094,569.8125 Q734.7031,569.1875 735.9375,569.1875 Q736.6719,569.1875 737.3125,569.3594 Q737.9688,569.5156 738.5156,569.875 Z " fill="#000000"/><text fill="#000000" font-family="sans-serif" font-size="14" lengthAdjust="spacing" textLength="25" x="756.25" y="579.7969">Skill</text><line style="stroke:#181818;stroke-width:0.5;" x1="690.5" x2="814.5" y1="590" y2="590"/><text fill="#000000" font-family="sans-serif" font-size="14" lengthAdjust="spacing" textLength="81" x="695.5" y="609.1074">-String name</text><line style="stroke:#181818;stroke-width:0.5;" x1="690.5" x2="814.5" y1="616.6211" y2="616.6211"/><text fill="#000000" font-family="sans-serif" font-size="14" lengthAdjust="spacing" textLength="114" x="695.5" y="635.7285">-validateSkill(Skill)</text><text fill="#000000" font-family="sans-serif" font-size="14" lengthAdjust="spacing" textLength="78" x="695.5" y="654.3496">+Skill(name)</text></g><!--class RegisterSkillController--><g id="elem_RegisterSkillController"><rect codeLine="18" fill="#F1F1F1" height="85.2422" id="RegisterSkillController" rx="2.5" ry="2.5" style="stroke:#181818;stroke-width:0.5;" width="172" x="870.5" y="100"/><ellipse cx="885.5" cy="116" fill="#ADD1B2" rx="11" ry="11" style="stroke:#181818;stroke-width:1.0;"/><path d="M888.2656,111.875 Q888.4219,111.6563 888.6094,111.5469 Q888.7969,111.4375 889.0156,111.4375 Q889.3906,111.4375 889.625,111.7031 Q889.8594,111.9531 889.8594,112.5625 L889.8594,114.0156 Q889.8594,114.625 889.625,114.8906 Q889.3906,115.1563 889.0156,115.1563 Q888.6719,115.1563 888.4688,114.9531 Q888.2656,114.7656 888.1563,114.25 Q888.1094,113.8906 887.9219,113.7031 Q887.5938,113.3281 886.9844,113.1094 Q886.375,112.8906 885.75,112.8906 Q884.9844,112.8906 884.3438,113.2188 Q883.7188,113.5469 883.2188,114.2969 Q882.7344,115.0469 882.7344,116.0781 L882.7344,117.1719 Q882.7344,118.4063 883.625,119.2344 Q884.5156,120.0469 886.1094,120.0469 Q887.0469,120.0469 887.7031,119.7969 Q888.0938,119.6406 888.5156,119.2031 Q888.7813,118.9375 888.9219,118.8594 Q889.0781,118.7813 889.2813,118.7813 Q889.6094,118.7813 889.8594,119.0469 Q890.125,119.2969 890.125,119.6406 Q890.125,119.9844 889.7813,120.3906 Q889.2813,120.9688 888.4844,121.2969 Q887.4063,121.75 886.1094,121.75 Q884.5938,121.75 883.3906,121.125 Q882.4063,120.625 881.7188,119.5625 Q881.0313,118.4844 881.0313,117.2031 L881.0313,116.0469 Q881.0313,114.7188 881.6406,113.5781 Q882.2656,112.4219 883.3594,111.8125 Q884.4531,111.1875 885.6875,111.1875 Q886.4219,111.1875 887.0625,111.3594 Q887.7188,111.5156 888.2656,111.875 Z " fill="#000000"/><text fill="#000000" font-family="sans-serif" font-size="14" lengthAdjust="spacing" textLength="140" x="899.5" y="121.7969">RegisterSkillController</text><line style="stroke:#181818;stroke-width:0.5;" x1="871.5" x2="1041.5" y1="132" y2="132"/><line style="stroke:#181818;stroke-width:0.5;" x1="871.5" x2="1041.5" y1="140" y2="140"/><text fill="#000000" font-family="sans-serif" font-size="14" lengthAdjust="spacing" textLength="158" x="876.5" y="159.1074">+RegisterSkillController()</text><text fill="#000000" font-family="sans-serif" font-size="14" lengthAdjust="spacing" textLength="126" x="876.5" y="177.7285">+registerSkill(name)</text></g><!--class RegisterSkillUI--><g id="elem_RegisterSkillUI"><rect codeLine="24" fill="#F1F1F1" height="48" id="RegisterSkillUI" rx="2.5" ry="2.5" style="stroke:#181818;stroke-width:0.5;" width="122" x="713.5" y="118.5"/><ellipse cx="728.5" cy="134.5" fill="#ADD1B2" rx="11" ry="11" style="stroke:#181818;stroke-width:1.0;"/><path d="M731.2656,130.375 Q731.4219,130.1563 731.6094,130.0469 Q731.7969,129.9375 732.0156,129.9375 Q732.3906,129.9375 732.625,130.2031 Q732.8594,130.4531 732.8594,131.0625 L732.8594,132.5156 Q732.8594,133.125 732.625,133.3906 Q732.3906,133.6563 732.0156,133.6563 Q731.6719,133.6563 731.4688,133.4531 Q731.2656,133.2656 731.1563,132.75 Q731.1094,132.3906 730.9219,132.2031 Q730.5938,131.8281 729.9844,131.6094 Q729.375,131.3906 728.75,131.3906 Q727.9844,131.3906 727.3438,131.7188 Q726.7188,132.0469 726.2188,132.7969 Q725.7344,133.5469 725.7344,134.5781 L725.7344,135.6719 Q725.7344,136.9063 726.625,137.7344 Q727.5156,138.5469 729.1094,138.5469 Q730.0469,138.5469 730.7031,138.2969 Q731.0938,138.1406 731.5156,137.7031 Q731.7813,137.4375 731.9219,137.3594 Q732.0781,137.2813 732.2813,137.2813 Q732.6094,137.2813 732.8594,137.5469 Q733.125,137.7969 733.125,138.1406 Q733.125,138.4844 732.7813,138.8906 Q732.2813,139.4688 731.4844,139.7969 Q730.4063,140.25 729.1094,140.25 Q727.5938,140.25 726.3906,139.625 Q725.4063,139.125 724.7188,138.0625 Q724.0313,136.9844 724.0313,135.7031 L724.0313,134.5469 Q724.0313,133.2188 724.6406,132.0781 Q725.2656,130.9219 726.3594,130.3125 Q727.4531,129.6875 728.6875,129.6875 Q729.4219,129.6875 730.0625,129.8594 Q730.7188,130.0156 731.2656,130.375 Z " fill="#000000"/><text fill="#000000" font-family="sans-serif" font-size="14" lengthAdjust="spacing" textLength="90" x="742.5" y="140.2969">RegisterSkillUI</text><line style="stroke:#181818;stroke-width:0.5;" x1="714.5" x2="834.5" y1="150.5" y2="150.5"/><line style="stroke:#181818;stroke-width:0.5;" x1="714.5" x2="834.5" y1="158.5" y2="158.5"/></g><!--class Collaborator--><g id="elem_Collaborator"><rect codeLine="27" fill="#F1F1F1" height="271.4531" id="Collaborator" rx="2.5" ry="2.5" style="stroke:#181818;stroke-width:0.5;" width="671" x="7" y="7"/><ellipse cx="299.25" cy="23" fill="#ADD1B2" rx="11" ry="11" style="stroke:#181818;stroke-width:1.0;"/><path d="M302.0156,18.875 Q302.1719,18.6563 302.3594,18.5469 Q302.5469,18.4375 302.7656,18.4375 Q303.1406,18.4375 303.375,18.7031 Q303.6094,18.9531 303.6094,19.5625 L303.6094,21.0156 Q303.6094,21.625 303.375,21.8906 Q303.1406,22.1563 302.7656,22.1563 Q302.4219,22.1563 302.2188,21.9531 Q302.0156,21.7656 301.9063,21.25 Q301.8594,20.8906 301.6719,20.7031 Q301.3438,20.3281 300.7344,20.1094 Q300.125,19.8906 299.5,19.8906 Q298.7344,19.8906 298.0938,20.2188 Q297.4688,20.5469 296.9688,21.2969 Q296.4844,22.0469 296.4844,23.0781 L296.4844,24.1719 Q296.4844,25.4063 297.375,26.2344 Q298.2656,27.0469 299.8594,27.0469 Q300.7969,27.0469 301.4531,26.7969 Q301.8438,26.6406 302.2656,26.2031 Q302.5313,25.9375 302.6719,25.8594 Q302.8281,25.7813 303.0313,25.7813 Q303.3594,25.7813 303.6094,26.0469 Q303.875,26.2969 303.875,26.6406 Q303.875,26.9844 303.5313,27.3906 Q303.0313,27.9688 302.2344,28.2969 Q301.1563,28.75 299.8594,28.75 Q298.3438,28.75 297.1406,28.125 Q296.1563,27.625 295.4688,26.5625 Q294.7813,25.4844 294.7813,24.2031 L294.7813,23.0469 Q294.7813,21.7188 295.3906,20.5781 Q296.0156,19.4219 297.1094,18.8125 Q298.2031,18.1875 299.4375,18.1875 Q300.1719,18.1875 300.8125,18.3594 Q301.4688,18.5156 302.0156,18.875 Z " fill="#000000"/><text fill="#000000" font-family="sans-serif" font-size="14" lengthAdjust="spacing" textLength="78" x="319.75" y="28.7969">Collaborator</text><line style="stroke:#181818;stroke-width:0.5;" x1="8" x2="677" y1="39" y2="39"/><text fill="#000000" font-family="sans-serif" font-size="14" lengthAdjust="spacing" textLength="81" x="13" y="58.1074">-String name</text><text fill="#000000" font-family="sans-serif" font-size="14" lengthAdjust="spacing" textLength="117" x="13" y="76.7285">-List&lt;Skill&gt; skillList</text><text fill="#000000" font-family="sans-serif" font-size="14" lengthAdjust="spacing" textLength="50" x="13" y="95.3496">-Job job</text><text fill="#000000" font-family="sans-serif" font-size="14" lengthAdjust="spacing" textLength="111" x="13" y="113.9707">-Date dateOfBirth</text><text fill="#000000" font-family="sans-serif" font-size="14" lengthAdjust="spacing" textLength="132" x="13" y="132.5918">-Date admissionDate</text><text fill="#000000" font-family="sans-serif" font-size="14" lengthAdjust="spacing" textLength="112" x="13" y="151.2129">-Address address</text><text fill="#000000" font-family="sans-serif" font-size="14" lengthAdjust="spacing" textLength="135" x="13" y="169.834">-Document document</text><text fill="#000000" font-family="sans-serif" font-size="14" lengthAdjust="spacing" textLength="135" x="13" y="188.4551">-String phoneNumber</text><text fill="#000000" font-family="sans-serif" font-size="14" lengthAdjust="spacing" textLength="79" x="13" y="207.0762">-String email</text><text fill="#000000" font-family="sans-serif" font-size="14" lengthAdjust="spacing" textLength="38" x="13" y="225.6973">-int cc</text><text fill="#000000" font-family="sans-serif" font-size="14" lengthAdjust="spacing" textLength="78" x="13" y="244.3184">-int taxpayer</text><line style="stroke:#181818;stroke-width:0.5;" x1="8" x2="677" y1="251.832" y2="251.832"/><text fill="#000000" font-family="sans-serif" font-size="14" lengthAdjust="spacing" textLength="659" x="13" y="270.9395">+Collaborator(name, dateOfBirth, admissionDate, address,document, phoneNumber, email, cc, taxpayer)</text></g><!--class HumanResourcesManager--><g id="elem_HumanResourcesManager"><rect codeLine="43" fill="#F1F1F1" height="48" id="HumanResourcesManager" rx="2.5" ry="2.5" style="stroke:#181818;stroke-width:0.5;" width="200" x="382.5" y="394"/><ellipse cx="397.5" cy="410" fill="#ADD1B2" rx="11" ry="11" style="stroke:#181818;stroke-width:1.0;"/><path d="M400.2656,405.875 Q400.4219,405.6563 400.6094,405.5469 Q400.7969,405.4375 401.0156,405.4375 Q401.3906,405.4375 401.625,405.7031 Q401.8594,405.9531 401.8594,406.5625 L401.8594,408.0156 Q401.8594,408.625 401.625,408.8906 Q401.3906,409.1563 401.0156,409.1563 Q400.6719,409.1563 400.4688,408.9531 Q400.2656,408.7656 400.1563,408.25 Q400.1094,407.8906 399.9219,407.7031 Q399.5938,407.3281 398.9844,407.1094 Q398.375,406.8906 397.75,406.8906 Q396.9844,406.8906 396.3438,407.2188 Q395.7188,407.5469 395.2188,408.2969 Q394.7344,409.0469 394.7344,410.0781 L394.7344,411.1719 Q394.7344,412.4063 395.625,413.2344 Q396.5156,414.0469 398.1094,414.0469 Q399.0469,414.0469 399.7031,413.7969 Q400.0938,413.6406 400.5156,413.2031 Q400.7813,412.9375 400.9219,412.8594 Q401.0781,412.7813 401.2813,412.7813 Q401.6094,412.7813 401.8594,413.0469 Q402.125,413.2969 402.125,413.6406 Q402.125,413.9844 401.7813,414.3906 Q401.2813,414.9688 400.4844,415.2969 Q399.4063,415.75 398.1094,415.75 Q396.5938,415.75 395.3906,415.125 Q394.4063,414.625 393.7188,413.5625 Q393.0313,412.4844 393.0313,411.2031 L393.0313,410.0469 Q393.0313,408.7188 393.6406,407.5781 Q394.2656,406.4219 395.3594,405.8125 Q396.4531,405.1875 397.6875,405.1875 Q398.4219,405.1875 399.0625,405.3594 Q399.7188,405.5156 400.2656,405.875 Z " fill="#000000"/><text fill="#000000" font-family="sans-serif" font-size="14" lengthAdjust="spacing" textLength="168" x="411.5" y="415.7969">HumanResourcesManager</text><line style="stroke:#181818;stroke-width:0.5;" x1="383.5" x2="581.5" y1="426" y2="426"/><line style="stroke:#181818;stroke-width:0.5;" x1="383.5" x2="581.5" y1="434" y2="434"/></g><!--class Repositories--><g id="elem_Repositories"><rect codeLine="46" fill="#F1F1F1" height="103.8633" id="Repositories" rx="2.5" ry="2.5" style="stroke:#181818;stroke-width:0.5;" width="194" x="1146.5" y="90.5"/><ellipse cx="1199.75" cy="106.5" fill="#ADD1B2" rx="11" ry="11" style="stroke:#181818;stroke-width:1.0;"/><path d="M1202.5156,102.375 Q1202.6719,102.1563 1202.8594,102.0469 Q1203.0469,101.9375 1203.2656,101.9375 Q1203.6406,101.9375 1203.875,102.2031 Q1204.1094,102.4531 1204.1094,103.0625 L1204.1094,104.5156 Q1204.1094,105.125 1203.875,105.3906 Q1203.6406,105.6563 1203.2656,105.6563 Q1202.9219,105.6563 1202.7188,105.4531 Q1202.5156,105.2656 1202.4063,104.75 Q1202.3594,104.3906 1202.1719,104.2031 Q1201.8438,103.8281 1201.2344,103.6094 Q1200.625,103.3906 1200,103.3906 Q1199.2344,103.3906 1198.5938,103.7188 Q1197.9688,104.0469 1197.4688,104.7969 Q1196.9844,105.5469 1196.9844,106.5781 L1196.9844,107.6719 Q1196.9844,108.9063 1197.875,109.7344 Q1198.7656,110.5469 1200.3594,110.5469 Q1201.2969,110.5469 1201.9531,110.2969 Q1202.3438,110.1406 1202.7656,109.7031 Q1203.0313,109.4375 1203.1719,109.3594 Q1203.3281,109.2813 1203.5313,109.2813 Q1203.8594,109.2813 1204.1094,109.5469 Q1204.375,109.7969 1204.375,110.1406 Q1204.375,110.4844 1204.0313,110.8906 Q1203.5313,111.4688 1202.7344,111.7969 Q1201.6563,112.25 1200.3594,112.25 Q1198.8438,112.25 1197.6406,111.625 Q1196.6563,111.125 1195.9688,110.0625 Q1195.2813,108.9844 1195.2813,107.7031 L1195.2813,106.5469 Q1195.2813,105.2188 1195.8906,104.0781 Q1196.5156,102.9219 1197.6094,102.3125 Q1198.7031,101.6875 1199.9375,101.6875 Q1200.6719,101.6875 1201.3125,101.8594 Q1201.9688,102.0156 1202.5156,102.375 Z " fill="#000000"/><text fill="#000000" font-family="sans-serif" font-size="14" lengthAdjust="spacing" textLength="79" x="1220.25" y="112.2969">Repositories</text><line style="stroke:#181818;stroke-width:0.5;" x1="1147.5" x2="1339.5" y1="122.5" y2="122.5"/><line style="stroke:#181818;stroke-width:0.5;" x1="1147.5" x2="1339.5" y1="130.5" y2="130.5"/><text fill="#000000" font-family="sans-serif" font-size="14" lengthAdjust="spacing" textLength="94" x="1152.5" y="149.6074">-Repositories()</text><text fill="#000000" font-family="sans-serif" font-size="14" lengthAdjust="spacing" textLength="182" x="1152.5" y="168.2285">+getInstance() : Repositories</text><text fill="#000000" font-family="sans-serif" font-size="14" lengthAdjust="spacing" textLength="131" x="1152.5" y="186.8496">+getSkillRepository()</text></g><!--class SkillRepository--><g id="elem_SkillRepository"><rect codeLine="53" fill="#F1F1F1" height="122.4844" id="SkillRepository" rx="2.5" ry="2.5" style="stroke:#181818;stroke-width:0.5;" width="133" x="890" y="357"/><ellipse cx="908.6" cy="373" fill="#ADD1B2" rx="11" ry="11" style="stroke:#181818;stroke-width:1.0;"/><path d="M911.3656,368.875 Q911.5219,368.6563 911.7094,368.5469 Q911.8969,368.4375 912.1156,368.4375 Q912.4906,368.4375 912.725,368.7031 Q912.9594,368.9531 912.9594,369.5625 L912.9594,371.0156 Q912.9594,371.625 912.725,371.8906 Q912.4906,372.1563 912.1156,372.1563 Q911.7719,372.1563 911.5688,371.9531 Q911.3656,371.7656 911.2563,371.25 Q911.2094,370.8906 911.0219,370.7031 Q910.6938,370.3281 910.0844,370.1094 Q909.475,369.8906 908.85,369.8906 Q908.0844,369.8906 907.4438,370.2188 Q906.8188,370.5469 906.3188,371.2969 Q905.8344,372.0469 905.8344,373.0781 L905.8344,374.1719 Q905.8344,375.4063 906.725,376.2344 Q907.6156,377.0469 909.2094,377.0469 Q910.1469,377.0469 910.8031,376.7969 Q911.1938,376.6406 911.6156,376.2031 Q911.8813,375.9375 912.0219,375.8594 Q912.1781,375.7813 912.3813,375.7813 Q912.7094,375.7813 912.9594,376.0469 Q913.225,376.2969 913.225,376.6406 Q913.225,376.9844 912.8813,377.3906 Q912.3813,377.9688 911.5844,378.2969 Q910.5063,378.75 909.2094,378.75 Q907.6938,378.75 906.4906,378.125 Q905.5063,377.625 904.8188,376.5625 Q904.1313,375.4844 904.1313,374.2031 L904.1313,373.0469 Q904.1313,371.7188 904.7406,370.5781 Q905.3656,369.4219 906.4594,368.8125 Q907.5531,368.1875 908.7875,368.1875 Q909.5219,368.1875 910.1625,368.3594 Q910.8188,368.5156 911.3656,368.875 Z " fill="#000000"/><text fill="#000000" font-family="sans-serif" font-size="14" lengthAdjust="spacing" textLength="93" x="923.4" y="378.7969">SkillRepository</text><line style="stroke:#181818;stroke-width:0.5;" x1="891" x2="1022" y1="389" y2="389"/><text fill="#000000" font-family="sans-serif" font-size="14" lengthAdjust="spacing" textLength="121" x="896" y="408.1074">-List &lt;Skill&gt; skillList</text><line style="stroke:#181818;stroke-width:0.5;" x1="891" x2="1022" y1="415.6211" y2="415.6211"/><text fill="#000000" font-family="sans-serif" font-size="14" lengthAdjust="spacing" textLength="89" x="896" y="434.7285">-addSkill(Skill)</text><text fill="#000000" font-family="sans-serif" font-size="14" lengthAdjust="spacing" textLength="114" x="896" y="453.3496">-validateSkill(Skill)</text><text fill="#000000" font-family="sans-serif" font-size="14" lengthAdjust="spacing" textLength="118" x="896" y="471.9707">+createSkill(name)</text></g><!--link RegisterSkillController to Repositories--><g id="link_RegisterSkillController_Repositories"><path codeLine="61" d="M1042.61,142.5 C1075.3,142.5 1106.75,142.5 1140.39,142.5 " fill="none" id="RegisterSkillController-to-Repositories" style="stroke:#181818;stroke-width:1.0;stroke-dasharray:7.0,7.0;"/><polygon fill="#181818" points="1146.39,142.5,1137.39,138.5,1141.39,142.5,1137.39,146.5,1146.39,142.5" style="stroke:#181818;stroke-width:1.0;"/><text fill="#000000" font-family="sans-serif" font-size="13" lengthAdjust="spacing" textLength="67" x="1061" y="135.5283">repositories</text></g><!--link RegisterSkillUI to RegisterSkillController--><g id="link_RegisterSkillUI_RegisterSkillController"><path codeLine="62" d="M835.55,142.5 C838.3,142.5 849.14,142.5 864.32,142.5 " fill="none" id="RegisterSkillUI-to-RegisterSkillController" style="stroke:#181818;stroke-width:1.0;stroke-dasharray:7.0,7.0;"/><polygon fill="#181818" points="870.32,142.5,861.32,138.5,865.32,142.5,861.32,146.5,870.32,142.5" style="stroke:#181818;stroke-width:1.0;"/></g><!--link Repositories to Repositories--><g id="link_Repositories_Repositories"><path codeLine="63" d="M1340.78,111.02 C1360.98,114.34 1375.5,124.83 1375.5,142.5 C1375.5,160.17 1366.9006,169.6869 1346.7006,173.0069 " fill="none" id="Repositories-to-Repositories" style="stroke:#181818;stroke-width:1.0;"/><polygon fill="#181818" points="1340.78,173.98,1350.3096,176.4674,1345.7138,173.1691,1349.0121,168.5733,1340.78,173.98" style="stroke:#181818;stroke-width:1.0;"/><text fill="#000000" font-family="sans-serif" font-size="13" lengthAdjust="spacing" textLength="49" x="1381.5" y="148.0283">instance</text></g><!--link Repositories to SkillRepository--><g id="link_Repositories_SkillRepository"><path codeLine="64" d="M1189.85,194.62 C1141.59,240.62 1074.9736,304.1008 1023.9836,352.6908 " fill="none" id="Repositories-to-SkillRepository" style="stroke:#181818;stroke-width:1.0;"/><polygon fill="#181818" points="1019.64,356.83,1028.9149,353.517,1023.2597,353.3807,1023.396,347.7255,1019.64,356.83" style="stroke:#181818;stroke-width:1.0;"/><text fill="#000000" font-family="sans-serif" font-size="13" lengthAdjust="spacing" textLength="87" x="1067.5" y="323.0283">SkillRepository</text><text fill="#000000" font-family="sans-serif" font-size="13" lengthAdjust="spacing" textLength="7" x="1019.5359" y="345.7915">1</text></g><!--link SkillRepository to Skill--><g id="link_SkillRepository_Skill"><path codeLine="65" d="M896.26,479.24 C871.05,504.45 847.5,528 847.5,528 C847.5,528 835.9362,537.8678 816.9662,554.0378 " fill="none" id="SkillRepository-to-Skill" style="stroke:#181818;stroke-width:1.0;"/><polygon fill="#181818" points="812.4,557.93,821.8442,555.1358,816.2052,554.6865,816.6545,549.0475,812.4,557.93" style="stroke:#181818;stroke-width:1.0;"/><text fill="#000000" font-family="sans-serif" font-size="13" lengthAdjust="spacing" textLength="23" x="867.5" y="524.0283">skill</text><text fill="#000000" font-family="sans-serif" font-size="13" lengthAdjust="spacing" textLength="7" x="881.8901" y="501.3208">1</text><text fill="#000000" font-family="sans-serif" font-size="13" lengthAdjust="spacing" textLength="5" x="815.1131" y="546.848">*</text></g><!--reverse link Collaborator to HumanResourcesManager--><g id="link_Collaborator_HumanResourcesManager"><path codeLine="66" d="M419.6736,294.2719 C442.4536,338.7619 457.17,367.52 470.59,393.73 " fill="none" id="Collaborator-backto-HumanResourcesManager" style="stroke:#181818;stroke-width:1.0;"/><polygon fill="none" points="411.47,278.25,414.333,297.0064,425.0142,291.5373,411.47,278.25" style="stroke:#181818;stroke-width:1.0;"/></g><!--link RegisterSkillController to Skill--><g id="link_RegisterSkillController_Skill"><path codeLine="67" d="M938.22,185.22 C900.81,270.58 818.0485,459.4246 777.3585,552.2646 " fill="none" id="RegisterSkillController-to-Skill" style="stroke:#181818;stroke-width:1.0;stroke-dasharray:7.0,7.0;"/><polygon fill="#181818" points="774.95,557.76,782.2263,551.1226,776.9571,553.1805,774.8992,547.9113,774.95,557.76" style="stroke:#181818;stroke-width:1.0;"/></g><!--link RegisterSkillController to SkillRepository--><g id="link_RegisterSkillController_SkillRepository"><path codeLine="68" d="M956.5,185.04 C956.5,230.77 956.5,298.69 956.5,350.77 " fill="none" id="RegisterSkillController-to-SkillRepository" style="stroke:#181818;stroke-width:1.0;stroke-dasharray:7.0,7.0;"/><polygon fill="#181818" points="956.5,356.77,960.5,347.77,956.5,351.77,952.5,347.77,956.5,356.77" style="stroke:#181818;stroke-width:1.0;"/></g><!--reverse link HumanResourcesManager to Skill--><g id="link_HumanResourcesManager_Skill"><path codeLine="70" d="M518.0462,445.725 C560.6062,477.715 627.5,528 627.5,528 C627.5,528 658.26,547.93 689.27,568.03 " fill="none" id="HumanResourcesManager-backto-Skill" style="stroke:#181818;stroke-width:1.0;"/><polygon fill="#181818" points="513.25,442.12,518.041,450.725,517.2468,445.1242,522.8477,444.3301,513.25,442.12" style="stroke:#181818;stroke-width:1.0;"/><text fill="#000000" font-family="sans-serif" font-size="13" lengthAdjust="spacing" textLength="59" x="628.5" y="524.0283">createdBy</text></g><!--link Collaborator to Skill--><g id="link_Collaborator_Skill"><path codeLine="71" d="M504.53,278.11 C555.85,320.74 599.5,357 599.5,357 C599.5,357 692.5,509 692.5,509 C692.5,509 703.9424,528.0754 718.7124,552.6854 " fill="none" id="Collaborator-to-Skill" style="stroke:#181818;stroke-width:1.0;"/><polygon fill="#181818" points="721.8,557.83,720.5983,548.0547,719.227,553.5428,713.7389,552.1715,721.8,557.83" style="stroke:#181818;stroke-width:1.0;"/><text fill="#000000" font-family="sans-serif" font-size="13" lengthAdjust="spacing" textLength="21" x="675.5" y="423.5283">has</text><text fill="#000000" font-family="sans-serif" font-size="13" lengthAdjust="spacing" textLength="5" x="508.7528" y="300.465">*</text><text fill="#000000" font-family="sans-serif" font-size="13" lengthAdjust="spacing" textLength="5" x="712.3387" y="546.7345">*</text></g><!--SRC=[XLFBZfim5DtxAwpPX7IWQhTHDDBCTD5KVKY9-W76t80ROoFRjAMFV- -rUSIGP9f5mFUSSttkWvKz2TKmmsfQQwLvPNGDr9aMo1bf63-n4Wwkaq0DSCTKAME2hLYXVmXLqYEJDaQaKE2w1cYZPUSFP7K5rCPf4gcuPDO-EcT4tZhOSQqEuXVGDuIi91mTTPeQKLQE5iBR4LeH4ZJqS19Iqj-4uY-Z1yo0fXIhWGoXxqoAWZa8n2JyhmDqtsiJJrwJlsF2FPJ2EZ01VDRA6Iqb6BnYKDqW96DM4-ClPl-wmwmJz8nfMAuDSzgC1SNrXC17L6-3-85Q__217lgWS_fDv_tX7LPCVTbVZa_2k2gAig8Mrc8B_QcFFnQ50RJ0-kT0rhojGM7FXvUPfQRI2ZwtTGvc5eUQ2Tb716evFxyxzhDX7VA7HiK5XpwbiUDqRZGTpQMZdJJsaFONftXXEbqKzVrzMpEr1wjRmy5-OWhNsyJTtqEZhK0d0kmuwsmMdGPSWjifYzy4XsHDDpFIcHA6D45T4fbPGDFs-bdIo-aEADP_iSClhZStC07J6jvQxzSFynPiS8-ZifPx6-XNCv5PckmYhHXQj-0XyUxjtKLhDii8MJAyAgXV3MhKXDwHsGT5jt-oZ5xVWzjDmJ93xF-Co26vlcnRVt_WReRH54_TtAIlOLbBnIpv1m00]--></g></svg>