<?xml version="1.0" encoding="us-ascii" standalone="no"?><svg xmlns="http://www.w3.org/2000/svg" xmlns:xlink="http://www.w3.org/1999/xlink" contentStyleType="text/css" height="631px" preserveAspectRatio="none" style="width:773px;height:631px;background:#FFFFFF;" version="1.1" viewBox="0 0 773 631" width="773px" zoomAndPan="magnify"><defs/><g><text fill="#000000" font-family="sans-serif" font-size="14" font-weight="bold" lengthAdjust="spacing" textLength="354" x="207" y="30.1074">UI Sequence Diagram (SSD) - US01 - Register Skills</text><rect fill="#FFFFFF" height="396.7832" style="stroke:#181818;stroke-width:1.0;" width="10" x="113" y="133.2422"/><rect fill="#FFFFFF" height="31.291" style="stroke:#181818;stroke-width:1.0;" width="10" x="410" y="156.5332"/><rect fill="#FFFFFF" height="31.291" style="stroke:#181818;stroke-width:1.0;" width="10" x="410" y="219.1152"/><rect fill="#FFFFFF" height="248.3281" style="stroke:#181818;stroke-width:1.0;" width="10" x="410" y="281.6973"/><rect fill="#FFFFFF" height="142.125" style="stroke:#181818;stroke-width:1.0;" width="10" x="565" y="356.6094"/><rect fill="#FFFFFF" height="79.543" style="stroke:#181818;stroke-width:1.0;" width="10" x="713" y="387.9004"/><line style="stroke:#181818;stroke-width:0.5;stroke-dasharray:5.0,5.0;" x1="118" x2="118" y1="123.2422" y2="548.0254"/><line style="stroke:#181818;stroke-width:0.5;stroke-dasharray:5.0,5.0;" x1="415" x2="415" y1="123.2422" y2="548.0254"/><line style="stroke:#181818;stroke-width:0.5;stroke-dasharray:5.0,5.0;" x1="570" x2="570" y1="321.5078" y2="548.0254"/><line style="stroke:#181818;stroke-width:0.5;stroke-dasharray:5.0,5.0;" x1="718" x2="718" y1="123.2422" y2="548.0254"/><text fill="#000000" font-family="sans-serif" font-size="14" lengthAdjust="spacing" textLength="220" x="5" y="119.7285">Human Resources Manager (HRM)</text><ellipse cx="118" cy="53.1211" fill="#E3E3E3" rx="8" ry="8" style="stroke:#181818;stroke-width:0.5;"/><path d="M118,61.1211 L118,88.1211 M105,69.1211 L131,69.1211 M118,88.1211 L105,103.1211 M118,88.1211 L131,103.1211 " fill="none" style="stroke:#181818;stroke-width:0.5;"/><text fill="#000000" font-family="sans-serif" font-size="14" lengthAdjust="spacing" textLength="220" x="5" y="562.1328">Human Resources Manager (HRM)</text><ellipse cx="118" cy="574.1465" fill="#E3E3E3" rx="8" ry="8" style="stroke:#181818;stroke-width:0.5;"/><path d="M118,582.1465 L118,609.1465 M105,590.1465 L131,590.1465 M118,609.1465 L105,624.1465 M118,609.1465 L131,624.1465 " fill="none" style="stroke:#181818;stroke-width:0.5;"/><rect fill="#E3E3E3" height="32.6211" rx="2.5" ry="2.5" style="stroke:#181818;stroke-width:0.5;" width="108" x="361" y="89.6211"/><text fill="#000000" font-family="sans-serif" font-size="14" lengthAdjust="spacing" textLength="94" x="368" y="111.7285">:RegisterSkillUI</text><rect fill="#E3E3E3" height="32.6211" rx="2.5" ry="2.5" style="stroke:#181818;stroke-width:0.5;" width="108" x="361" y="547.0254"/><text fill="#000000" font-family="sans-serif" font-size="14" lengthAdjust="spacing" textLength="94" x="368" y="569.1328">:RegisterSkillUI</text><rect fill="#E3E3E3" height="32.6211" rx="2.5" ry="2.5" style="stroke:#181818;stroke-width:0.5;" width="158" x="491" y="547.0254"/><text fill="#000000" font-family="sans-serif" font-size="14" lengthAdjust="spacing" textLength="144" x="498" y="569.1328">:RegisterSkillController</text><rect fill="#E3E3E3" height="32.6211" rx="2.5" ry="2.5" style="stroke:#181818;stroke-width:0.5;" width="92" x="672" y="89.6211"/><text fill="#000000" font-family="sans-serif" font-size="14" lengthAdjust="spacing" textLength="78" x="679" y="111.7285">Collaborator</text><rect fill="#E3E3E3" height="32.6211" rx="2.5" ry="2.5" style="stroke:#181818;stroke-width:0.5;" width="92" x="672" y="547.0254"/><text fill="#000000" font-family="sans-serif" font-size="14" lengthAdjust="spacing" textLength="78" x="679" y="569.1328">Collaborator</text><rect fill="#FFFFFF" height="396.7832" style="stroke:#181818;stroke-width:1.0;" width="10" x="113" y="133.2422"/><rect fill="#FFFFFF" height="31.291" style="stroke:#181818;stroke-width:1.0;" width="10" x="410" y="156.5332"/><rect fill="#FFFFFF" height="31.291" style="stroke:#181818;stroke-width:1.0;" width="10" x="410" y="219.1152"/><rect fill="#FFFFFF" height="248.3281" style="stroke:#181818;stroke-width:1.0;" width="10" x="410" y="281.6973"/><rect fill="#FFFFFF" height="142.125" style="stroke:#181818;stroke-width:1.0;" width="10" x="565" y="356.6094"/><rect fill="#FFFFFF" height="79.543" style="stroke:#181818;stroke-width:1.0;" width="10" x="713" y="387.9004"/><polygon fill="#181818" points="398,152.5332,408,156.5332,398,160.5332,402,156.5332" style="stroke:#181818;stroke-width:1.0;"/><line style="stroke:#181818;stroke-width:1.0;" x1="123" x2="404" y1="156.5332" y2="156.5332"/><text fill="#000000" font-family="sans-serif" font-size="13" font-weight="bold" lengthAdjust="spacing" textLength="7" x="130" y="151.2705">1</text><text fill="#000000" font-family="sans-serif" font-size="13" lengthAdjust="spacing" textLength="155" x="141" y="151.2705">asks to register a new skill</text><polygon fill="#181818" points="134,183.8242,124,187.8242,134,191.8242,130,187.8242" style="stroke:#181818;stroke-width:1.0;"/><line style="stroke:#181818;stroke-width:1.0;stroke-dasharray:2.0,2.0;" x1="128" x2="414" y1="187.8242" y2="187.8242"/><text fill="#000000" font-family="sans-serif" font-size="13" font-weight="bold" lengthAdjust="spacing" textLength="7" x="140" y="182.5615">2</text><text fill="#000000" font-family="sans-serif" font-size="13" lengthAdjust="spacing" textLength="123" x="151" y="182.5615">requests data (name)</text><polygon fill="#181818" points="398,215.1152,408,219.1152,398,223.1152,402,219.1152" style="stroke:#181818;stroke-width:1.0;"/><line style="stroke:#181818;stroke-width:1.0;" x1="123" x2="404" y1="219.1152" y2="219.1152"/><text fill="#000000" font-family="sans-serif" font-size="13" font-weight="bold" lengthAdjust="spacing" textLength="7" x="130" y="213.8525">3</text><text fill="#000000" font-family="sans-serif" font-size="13" lengthAdjust="spacing" textLength="98" x="141" y="213.8525">type data (name)</text><polygon fill="#181818" points="134,246.4063,124,250.4063,134,254.4063,130,250.4063" style="stroke:#181818;stroke-width:1.0;"/><line style="stroke:#181818;stroke-width:1.0;stroke-dasharray:2.0,2.0;" x1="128" x2="414" y1="250.4063" y2="250.4063"/><text fill="#000000" font-family="sans-serif" font-size="13" font-weight="bold" lengthAdjust="spacing" textLength="7" x="140" y="245.1436">4</text><text fill="#000000" font-family="sans-serif" font-size="13" lengthAdjust="spacing" textLength="252" x="151" y="245.1436">displays the data and requests confirmation</text><polygon fill="#181818" points="398,277.6973,408,281.6973,398,285.6973,402,281.6973" style="stroke:#181818;stroke-width:1.0;"/><line style="stroke:#181818;stroke-width:1.0;" x1="123" x2="404" y1="281.6973" y2="281.6973"/><text fill="#000000" font-family="sans-serif" font-size="13" font-weight="bold" lengthAdjust="spacing" textLength="7" x="130" y="276.4346">5</text><text fill="#000000" font-family="sans-serif" font-size="13" lengthAdjust="spacing" textLength="153" x="141" y="276.4346">confirms and submits data</text><polygon fill="#181818" points="479,308.9883,489,312.9883,479,316.9883,483,312.9883" style="stroke:#181818;stroke-width:1.0;"/><line style="stroke:#181818;stroke-width:1.0;" x1="420" x2="485" y1="312.9883" y2="312.9883"/><text fill="#000000" font-family="sans-serif" font-size="13" font-weight="bold" lengthAdjust="spacing" textLength="7" x="427" y="307.7256">6</text><text fill="#000000" font-family="sans-serif" font-size="13" lengthAdjust="spacing" textLength="36" x="438" y="307.7256">create</text><rect fill="#E3E3E3" height="32.6211" rx="2.5" ry="2.5" style="stroke:#181818;stroke-width:0.5;" width="158" x="491" y="289.6973"/><text fill="#000000" font-family="sans-serif" font-size="14" lengthAdjust="spacing" textLength="144" x="498" y="311.8047">:RegisterSkillController</text><polygon fill="#181818" points="553,352.6094,563,356.6094,553,360.6094,557,356.6094" style="stroke:#181818;stroke-width:1.0;"/><line style="stroke:#181818;stroke-width:1.0;" x1="420" x2="559" y1="356.6094" y2="356.6094"/><text fill="#000000" font-family="sans-serif" font-size="13" font-weight="bold" lengthAdjust="spacing" textLength="7" x="427" y="351.3467">7</text><text fill="#000000" font-family="sans-serif" font-size="13" lengthAdjust="spacing" textLength="108" x="438" y="351.3467">registerSkill(name)</text><polygon fill="#181818" points="701,383.9004,711,387.9004,701,391.9004,705,387.9004" style="stroke:#181818;stroke-width:1.0;"/><line style="stroke:#181818;stroke-width:1.0;" x1="575" x2="707" y1="387.9004" y2="387.9004"/><text fill="#000000" font-family="sans-serif" font-size="13" font-weight="bold" lengthAdjust="spacing" textLength="7" x="582" y="382.6377">8</text><text fill="#000000" font-family="sans-serif" font-size="13" lengthAdjust="spacing" textLength="108" x="593" y="382.6377">registerSkill(name)</text><rect fill="none" height="43.252" style="stroke:#000000;stroke-width:1.5;" width="98" x="669" y="395.9004"/><path d="M669,395.9004 L731,395.9004 L731,404.9004 L721,414.9004 L669,414.9004 L669,395.9004 " fill="#EEEEEE" style="stroke:#000000;stroke-width:2.0;"/><text fill="#000000" font-family="sans-serif" font-size="13" font-weight="bold" lengthAdjust="spacing" textLength="17" x="682" y="411.9287">ref</text><text fill="#000000" font-family="sans-serif" font-size="12" lengthAdjust="spacing" textLength="73" x="681.5" y="431.8496">Register Skill</text><polygon fill="#181818" points="586,463.4434,576,467.4434,586,471.4434,582,467.4434" style="stroke:#181818;stroke-width:1.0;"/><line style="stroke:#181818;stroke-width:1.0;stroke-dasharray:2.0,2.0;" x1="580" x2="717" y1="467.4434" y2="467.4434"/><text fill="#000000" font-family="sans-serif" font-size="13" font-weight="bold" lengthAdjust="spacing" textLength="7" x="592" y="462.1807">9</text><text fill="#000000" font-family="sans-serif" font-size="13" lengthAdjust="spacing" textLength="23" x="603" y="462.1807">skill</text><polygon fill="#181818" points="431,494.7344,421,498.7344,431,502.7344,427,498.7344" style="stroke:#181818;stroke-width:1.0;"/><line style="stroke:#181818;stroke-width:1.0;stroke-dasharray:2.0,2.0;" x1="425" x2="569" y1="498.7344" y2="498.7344"/><text fill="#000000" font-family="sans-serif" font-size="13" font-weight="bold" lengthAdjust="spacing" textLength="14" x="437" y="493.4717">10</text><text fill="#000000" font-family="sans-serif" font-size="13" lengthAdjust="spacing" textLength="23" x="455" y="493.4717">skill</text><polygon fill="#181818" points="129,526.0254,119,530.0254,129,534.0254,125,530.0254" style="stroke:#181818;stroke-width:1.0;"/><line style="stroke:#181818;stroke-width:1.0;stroke-dasharray:2.0,2.0;" x1="123" x2="414" y1="530.0254" y2="530.0254"/><text fill="#000000" font-family="sans-serif" font-size="13" font-weight="bold" lengthAdjust="spacing" textLength="14" x="135" y="524.7627">11</text><text fill="#000000" font-family="sans-serif" font-size="13" lengthAdjust="spacing" textLength="158" x="153" y="524.7627">displays operation success</text><!--SRC=[ZLFBRkCm3BphAuXSDYbWOFVgGoxfeG7IIxp-0CPc726sw4fqk_dxfHNNjLkZkxhumPdXY2E5gtKjUcoWOSV5nND38BuZ4yPAYyKLAyhaLXDuAWHTLKy1uO8blrbNmHdhGCQ85ONcUyZefIDN43nQh7heEiiUDv10dltyfOyZLJO8USYkjgw3CTW9kwuvaJVcnyMM16TcEV4VWuMmXzLJrw1JNk3E5nJW6Prwyx1-EZvlLe01zCMeBx65RT49hDBtBh59le-eVFyTQCTEFDSr-GZU_JuUvl2T5l747jNK7N8mflTeNr4eUZ0mBFs0PDkF8rNaDO2mZd7OE8AZDmXzqqWO9TJWgA3KH1LweLIfEjCW0KeKXBN3XZOHMT8YMLd9Dj-d8BUMPgJ_R5ZQqDPuKz-NWO-k_B1Hi3jRtw1OTcR9oE8W1bQ8Mg4xDNROqJzSRMCO3m-zX2T5ZDL9EHtd6zESp6Yc7MET-7jV_VyeTO1bfHdZG-xmLShJ6VXLSzOYBApv1VW28LVEDTLICcnIlTsFpGmmcVrdF_TjnG3IoOdxp8f3-VuWS4i-vgt95NeBmqBiaozb_mK0]--></g></svg>