<?xml version="1.0" encoding="us-ascii" standalone="no"?><svg xmlns="http://www.w3.org/2000/svg" xmlns:xlink="http://www.w3.org/1999/xlink" contentStyleType="text/css" height="814px" preserveAspectRatio="none" style="width:1400px;height:814px;background:#FFFFFF;" version="1.1" viewBox="0 0 1400 814" width="1400px" zoomAndPan="magnify"><defs/><g><!--class Skill--><g id="elem_Skill"><rect codeLine="11" fill="#F1F1F1" height="103.8633" id="Skill" rx="2.5" ry="2.5" style="stroke:#181818;stroke-width:0.5;" width="126" x="743" y="704"/><ellipse cx="789.25" cy="720" fill="#ADD1B2" rx="11" ry="11" style="stroke:#181818;stroke-width:1.0;"/><path d="M792.0156,715.875 Q792.1719,715.6563 792.3594,715.5469 Q792.5469,715.4375 792.7656,715.4375 Q793.1406,715.4375 793.375,715.7031 Q793.6094,715.9531 793.6094,716.5625 L793.6094,718.0156 Q793.6094,718.625 793.375,718.8906 Q793.1406,719.1563 792.7656,719.1563 Q792.4219,719.1563 792.2188,718.9531 Q792.0156,718.7656 791.9063,718.25 Q791.8594,717.8906 791.6719,717.7031 Q791.3438,717.3281 790.7344,717.1094 Q790.125,716.8906 789.5,716.8906 Q788.7344,716.8906 788.0938,717.2188 Q787.4688,717.5469 786.9688,718.2969 Q786.4844,719.0469 786.4844,720.0781 L786.4844,721.1719 Q786.4844,722.4063 787.375,723.2344 Q788.2656,724.0469 789.8594,724.0469 Q790.7969,724.0469 791.4531,723.7969 Q791.8438,723.6406 792.2656,723.2031 Q792.5313,722.9375 792.6719,722.8594 Q792.8281,722.7813 793.0313,722.7813 Q793.3594,722.7813 793.6094,723.0469 Q793.875,723.2969 793.875,723.6406 Q793.875,723.9844 793.5313,724.3906 Q793.0313,724.9688 792.2344,725.2969 Q791.1563,725.75 789.8594,725.75 Q788.3438,725.75 787.1406,725.125 Q786.1563,724.625 785.4688,723.5625 Q784.7813,722.4844 784.7813,721.2031 L784.7813,720.0469 Q784.7813,718.7188 785.3906,717.5781 Q786.0156,716.4219 787.1094,715.8125 Q788.2031,715.1875 789.4375,715.1875 Q790.1719,715.1875 790.8125,715.3594 Q791.4688,715.5156 792.0156,715.875 Z " fill="#000000"/><text fill="#000000" font-family="sans-serif" font-size="14" lengthAdjust="spacing" textLength="25" x="809.75" y="725.7969">Skill</text><line style="stroke:#181818;stroke-width:0.5;" x1="744" x2="868" y1="736" y2="736"/><text fill="#000000" font-family="sans-serif" font-size="14" lengthAdjust="spacing" textLength="81" x="749" y="755.1074">-String name</text><line style="stroke:#181818;stroke-width:0.5;" x1="744" x2="868" y1="762.6211" y2="762.6211"/><text fill="#000000" font-family="sans-serif" font-size="14" lengthAdjust="spacing" textLength="78" x="749" y="781.7285">+Skill(name)</text><text fill="#000000" font-family="sans-serif" font-size="14" lengthAdjust="spacing" textLength="114" x="749" y="800.3496">-validateSkill(Skill)</text></g><!--class RegisterSkillController--><g id="elem_RegisterSkillController"><rect codeLine="18" fill="#F1F1F1" height="85.2422" id="RegisterSkillController" rx="2.5" ry="2.5" style="stroke:#181818;stroke-width:0.5;" width="172" x="827" y="273.5"/><ellipse cx="842" cy="289.5" fill="#ADD1B2" rx="11" ry="11" style="stroke:#181818;stroke-width:1.0;"/><path d="M844.7656,285.375 Q844.9219,285.1563 845.1094,285.0469 Q845.2969,284.9375 845.5156,284.9375 Q845.8906,284.9375 846.125,285.2031 Q846.3594,285.4531 846.3594,286.0625 L846.3594,287.5156 Q846.3594,288.125 846.125,288.3906 Q845.8906,288.6563 845.5156,288.6563 Q845.1719,288.6563 844.9688,288.4531 Q844.7656,288.2656 844.6563,287.75 Q844.6094,287.3906 844.4219,287.2031 Q844.0938,286.8281 843.4844,286.6094 Q842.875,286.3906 842.25,286.3906 Q841.4844,286.3906 840.8438,286.7188 Q840.2188,287.0469 839.7188,287.7969 Q839.2344,288.5469 839.2344,289.5781 L839.2344,290.6719 Q839.2344,291.9063 840.125,292.7344 Q841.0156,293.5469 842.6094,293.5469 Q843.5469,293.5469 844.2031,293.2969 Q844.5938,293.1406 845.0156,292.7031 Q845.2813,292.4375 845.4219,292.3594 Q845.5781,292.2813 845.7813,292.2813 Q846.1094,292.2813 846.3594,292.5469 Q846.625,292.7969 846.625,293.1406 Q846.625,293.4844 846.2813,293.8906 Q845.7813,294.4688 844.9844,294.7969 Q843.9063,295.25 842.6094,295.25 Q841.0938,295.25 839.8906,294.625 Q838.9063,294.125 838.2188,293.0625 Q837.5313,291.9844 837.5313,290.7031 L837.5313,289.5469 Q837.5313,288.2188 838.1406,287.0781 Q838.7656,285.9219 839.8594,285.3125 Q840.9531,284.6875 842.1875,284.6875 Q842.9219,284.6875 843.5625,284.8594 Q844.2188,285.0156 844.7656,285.375 Z " fill="#000000"/><text fill="#000000" font-family="sans-serif" font-size="14" lengthAdjust="spacing" textLength="140" x="856" y="295.2969">RegisterSkillController</text><line style="stroke:#181818;stroke-width:0.5;" x1="828" x2="998" y1="305.5" y2="305.5"/><line style="stroke:#181818;stroke-width:0.5;" x1="828" x2="998" y1="313.5" y2="313.5"/><text fill="#000000" font-family="sans-serif" font-size="14" lengthAdjust="spacing" textLength="158" x="833" y="332.6074">+RegisterSkillController()</text><text fill="#000000" font-family="sans-serif" font-size="14" lengthAdjust="spacing" textLength="126" x="833" y="351.2285">+registerSkill(name)</text></g><!--class RegisterSkillUI--><g id="elem_RegisterSkillUI"><rect codeLine="24" fill="#F1F1F1" height="48" id="RegisterSkillUI" rx="2.5" ry="2.5" style="stroke:#181818;stroke-width:0.5;" width="122" x="670" y="292"/><ellipse cx="685" cy="308" fill="#ADD1B2" rx="11" ry="11" style="stroke:#181818;stroke-width:1.0;"/><path d="M687.7656,303.875 Q687.9219,303.6563 688.1094,303.5469 Q688.2969,303.4375 688.5156,303.4375 Q688.8906,303.4375 689.125,303.7031 Q689.3594,303.9531 689.3594,304.5625 L689.3594,306.0156 Q689.3594,306.625 689.125,306.8906 Q688.8906,307.1563 688.5156,307.1563 Q688.1719,307.1563 687.9688,306.9531 Q687.7656,306.7656 687.6563,306.25 Q687.6094,305.8906 687.4219,305.7031 Q687.0938,305.3281 686.4844,305.1094 Q685.875,304.8906 685.25,304.8906 Q684.4844,304.8906 683.8438,305.2188 Q683.2188,305.5469 682.7188,306.2969 Q682.2344,307.0469 682.2344,308.0781 L682.2344,309.1719 Q682.2344,310.4063 683.125,311.2344 Q684.0156,312.0469 685.6094,312.0469 Q686.5469,312.0469 687.2031,311.7969 Q687.5938,311.6406 688.0156,311.2031 Q688.2813,310.9375 688.4219,310.8594 Q688.5781,310.7813 688.7813,310.7813 Q689.1094,310.7813 689.3594,311.0469 Q689.625,311.2969 689.625,311.6406 Q689.625,311.9844 689.2813,312.3906 Q688.7813,312.9688 687.9844,313.2969 Q686.9063,313.75 685.6094,313.75 Q684.0938,313.75 682.8906,313.125 Q681.9063,312.625 681.2188,311.5625 Q680.5313,310.4844 680.5313,309.2031 L680.5313,308.0469 Q680.5313,306.7188 681.1406,305.5781 Q681.7656,304.4219 682.8594,303.8125 Q683.9531,303.1875 685.1875,303.1875 Q685.9219,303.1875 686.5625,303.3594 Q687.2188,303.5156 687.7656,303.875 Z " fill="#000000"/><text fill="#000000" font-family="sans-serif" font-size="14" lengthAdjust="spacing" textLength="90" x="699" y="313.7969">RegisterSkillUI</text><line style="stroke:#181818;stroke-width:0.5;" x1="671" x2="791" y1="324" y2="324"/><line style="stroke:#181818;stroke-width:0.5;" x1="671" x2="791" y1="332" y2="332"/></g><!--class Collaborator--><g id="elem_Collaborator"><rect codeLine="27" fill="#F1F1F1" height="215.5898" id="Collaborator" rx="2.5" ry="2.5" style="stroke:#181818;stroke-width:0.5;" width="628" x="7" y="208"/><ellipse cx="277.75" cy="224" fill="#ADD1B2" rx="11" ry="11" style="stroke:#181818;stroke-width:1.0;"/><path d="M280.5156,219.875 Q280.6719,219.6563 280.8594,219.5469 Q281.0469,219.4375 281.2656,219.4375 Q281.6406,219.4375 281.875,219.7031 Q282.1094,219.9531 282.1094,220.5625 L282.1094,222.0156 Q282.1094,222.625 281.875,222.8906 Q281.6406,223.1563 281.2656,223.1563 Q280.9219,223.1563 280.7188,222.9531 Q280.5156,222.7656 280.4063,222.25 Q280.3594,221.8906 280.1719,221.7031 Q279.8438,221.3281 279.2344,221.1094 Q278.625,220.8906 278,220.8906 Q277.2344,220.8906 276.5938,221.2188 Q275.9688,221.5469 275.4688,222.2969 Q274.9844,223.0469 274.9844,224.0781 L274.9844,225.1719 Q274.9844,226.4063 275.875,227.2344 Q276.7656,228.0469 278.3594,228.0469 Q279.2969,228.0469 279.9531,227.7969 Q280.3438,227.6406 280.7656,227.2031 Q281.0313,226.9375 281.1719,226.8594 Q281.3281,226.7813 281.5313,226.7813 Q281.8594,226.7813 282.1094,227.0469 Q282.375,227.2969 282.375,227.6406 Q282.375,227.9844 282.0313,228.3906 Q281.5313,228.9688 280.7344,229.2969 Q279.6563,229.75 278.3594,229.75 Q276.8438,229.75 275.6406,229.125 Q274.6563,228.625 273.9688,227.5625 Q273.2813,226.4844 273.2813,225.2031 L273.2813,224.0469 Q273.2813,222.7188 273.8906,221.5781 Q274.5156,220.4219 275.6094,219.8125 Q276.7031,219.1875 277.9375,219.1875 Q278.6719,219.1875 279.3125,219.3594 Q279.9688,219.5156 280.5156,219.875 Z " fill="#000000"/><text fill="#000000" font-family="sans-serif" font-size="14" lengthAdjust="spacing" textLength="78" x="298.25" y="229.7969">Collaborator</text><line style="stroke:#181818;stroke-width:0.5;" x1="8" x2="634" y1="240" y2="240"/><text fill="#000000" font-family="sans-serif" font-size="14" lengthAdjust="spacing" textLength="81" x="13" y="259.1074">-String name</text><text fill="#000000" font-family="sans-serif" font-size="14" lengthAdjust="spacing" textLength="111" x="13" y="277.7285">-Date dateOfBirth</text><text fill="#000000" font-family="sans-serif" font-size="14" lengthAdjust="spacing" textLength="132" x="13" y="296.3496">-Date admissionDate</text><text fill="#000000" font-family="sans-serif" font-size="14" lengthAdjust="spacing" textLength="112" x="13" y="314.9707">-Address address</text><text fill="#000000" font-family="sans-serif" font-size="14" lengthAdjust="spacing" textLength="113" x="13" y="333.5918">-int phoneNumber</text><text fill="#000000" font-family="sans-serif" font-size="14" lengthAdjust="spacing" textLength="79" x="13" y="352.2129">-String email</text><text fill="#000000" font-family="sans-serif" font-size="14" lengthAdjust="spacing" textLength="38" x="13" y="370.834">-int cc</text><text fill="#000000" font-family="sans-serif" font-size="14" lengthAdjust="spacing" textLength="101" x="13" y="389.4551">-int cardNumber</text><line style="stroke:#181818;stroke-width:0.5;" x1="8" x2="634" y1="396.9688" y2="396.9688"/><text fill="#000000" font-family="sans-serif" font-size="14" lengthAdjust="spacing" textLength="616" x="13" y="416.0762">+Collaborator(name, dateOfBirth, admissionDate, address, phoneNumber, email, cc, cardNumber)</text></g><!--class Address--><g id="elem_Address"><rect codeLine="40" fill="#F1F1F1" height="122.4844" id="Address" rx="2.5" ry="2.5" style="stroke:#181818;stroke-width:0.5;" width="309" x="166.5" y="7"/><ellipse cx="290.75" cy="23" fill="#ADD1B2" rx="11" ry="11" style="stroke:#181818;stroke-width:1.0;"/><path d="M293.5156,18.875 Q293.6719,18.6563 293.8594,18.5469 Q294.0469,18.4375 294.2656,18.4375 Q294.6406,18.4375 294.875,18.7031 Q295.1094,18.9531 295.1094,19.5625 L295.1094,21.0156 Q295.1094,21.625 294.875,21.8906 Q294.6406,22.1563 294.2656,22.1563 Q293.9219,22.1563 293.7188,21.9531 Q293.5156,21.7656 293.4063,21.25 Q293.3594,20.8906 293.1719,20.7031 Q292.8438,20.3281 292.2344,20.1094 Q291.625,19.8906 291,19.8906 Q290.2344,19.8906 289.5938,20.2188 Q288.9688,20.5469 288.4688,21.2969 Q287.9844,22.0469 287.9844,23.0781 L287.9844,24.1719 Q287.9844,25.4063 288.875,26.2344 Q289.7656,27.0469 291.3594,27.0469 Q292.2969,27.0469 292.9531,26.7969 Q293.3438,26.6406 293.7656,26.2031 Q294.0313,25.9375 294.1719,25.8594 Q294.3281,25.7813 294.5313,25.7813 Q294.8594,25.7813 295.1094,26.0469 Q295.375,26.2969 295.375,26.6406 Q295.375,26.9844 295.0313,27.3906 Q294.5313,27.9688 293.7344,28.2969 Q292.6563,28.75 291.3594,28.75 Q289.8438,28.75 288.6406,28.125 Q287.6563,27.625 286.9688,26.5625 Q286.2813,25.4844 286.2813,24.2031 L286.2813,23.0469 Q286.2813,21.7188 286.8906,20.5781 Q287.5156,19.4219 288.6094,18.8125 Q289.7031,18.1875 290.9375,18.1875 Q291.6719,18.1875 292.3125,18.3594 Q292.9688,18.5156 293.5156,18.875 Z " fill="#000000"/><text fill="#000000" font-family="sans-serif" font-size="14" lengthAdjust="spacing" textLength="52" x="311.25" y="28.7969">Address</text><line style="stroke:#181818;stroke-width:0.5;" x1="167.5" x2="474.5" y1="39" y2="39"/><text fill="#000000" font-family="sans-serif" font-size="14" lengthAdjust="spacing" textLength="118" x="172.5" y="58.1074">-String streetName</text><text fill="#000000" font-family="sans-serif" font-size="14" lengthAdjust="spacing" textLength="107" x="172.5" y="76.7285">-String postCode</text><text fill="#000000" font-family="sans-serif" font-size="14" lengthAdjust="spacing" textLength="102" x="172.5" y="95.3496">-int doorNumber</text><line style="stroke:#181818;stroke-width:0.5;" x1="167.5" x2="474.5" y1="102.8633" y2="102.8633"/><text fill="#000000" font-family="sans-serif" font-size="14" lengthAdjust="spacing" textLength="297" x="172.5" y="121.9707">+Address(streetName, postCode, doorNumber)</text></g><!--class HumanResourcesManager--><g id="elem_HumanResourcesManager"><rect codeLine="48" fill="#F1F1F1" height="48" id="HumanResourcesManager" rx="2.5" ry="2.5" style="stroke:#181818;stroke-width:0.5;" width="200" x="706" y="540"/><ellipse cx="721" cy="556" fill="#ADD1B2" rx="11" ry="11" style="stroke:#181818;stroke-width:1.0;"/><path d="M723.7656,551.875 Q723.9219,551.6563 724.1094,551.5469 Q724.2969,551.4375 724.5156,551.4375 Q724.8906,551.4375 725.125,551.7031 Q725.3594,551.9531 725.3594,552.5625 L725.3594,554.0156 Q725.3594,554.625 725.125,554.8906 Q724.8906,555.1563 724.5156,555.1563 Q724.1719,555.1563 723.9688,554.9531 Q723.7656,554.7656 723.6563,554.25 Q723.6094,553.8906 723.4219,553.7031 Q723.0938,553.3281 722.4844,553.1094 Q721.875,552.8906 721.25,552.8906 Q720.4844,552.8906 719.8438,553.2188 Q719.2188,553.5469 718.7188,554.2969 Q718.2344,555.0469 718.2344,556.0781 L718.2344,557.1719 Q718.2344,558.4063 719.125,559.2344 Q720.0156,560.0469 721.6094,560.0469 Q722.5469,560.0469 723.2031,559.7969 Q723.5938,559.6406 724.0156,559.2031 Q724.2813,558.9375 724.4219,558.8594 Q724.5781,558.7813 724.7813,558.7813 Q725.1094,558.7813 725.3594,559.0469 Q725.625,559.2969 725.625,559.6406 Q725.625,559.9844 725.2813,560.3906 Q724.7813,560.9688 723.9844,561.2969 Q722.9063,561.75 721.6094,561.75 Q720.0938,561.75 718.8906,561.125 Q717.9063,560.625 717.2188,559.5625 Q716.5313,558.4844 716.5313,557.2031 L716.5313,556.0469 Q716.5313,554.7188 717.1406,553.5781 Q717.7656,552.4219 718.8594,551.8125 Q719.9531,551.1875 721.1875,551.1875 Q721.9219,551.1875 722.5625,551.3594 Q723.2188,551.5156 723.7656,551.875 Z " fill="#000000"/><text fill="#000000" font-family="sans-serif" font-size="14" lengthAdjust="spacing" textLength="168" x="735" y="561.7969">HumanResourcesManager</text><line style="stroke:#181818;stroke-width:0.5;" x1="707" x2="905" y1="572" y2="572"/><line style="stroke:#181818;stroke-width:0.5;" x1="707" x2="905" y1="580" y2="580"/></g><!--class Repositories--><g id="elem_Repositories"><rect codeLine="51" fill="#F1F1F1" height="103.8633" id="Repositories" rx="2.5" ry="2.5" style="stroke:#181818;stroke-width:0.5;" width="194" x="1103" y="264"/><ellipse cx="1156.25" cy="280" fill="#ADD1B2" rx="11" ry="11" style="stroke:#181818;stroke-width:1.0;"/><path d="M1159.0156,275.875 Q1159.1719,275.6563 1159.3594,275.5469 Q1159.5469,275.4375 1159.7656,275.4375 Q1160.1406,275.4375 1160.375,275.7031 Q1160.6094,275.9531 1160.6094,276.5625 L1160.6094,278.0156 Q1160.6094,278.625 1160.375,278.8906 Q1160.1406,279.1563 1159.7656,279.1563 Q1159.4219,279.1563 1159.2188,278.9531 Q1159.0156,278.7656 1158.9063,278.25 Q1158.8594,277.8906 1158.6719,277.7031 Q1158.3438,277.3281 1157.7344,277.1094 Q1157.125,276.8906 1156.5,276.8906 Q1155.7344,276.8906 1155.0938,277.2188 Q1154.4688,277.5469 1153.9688,278.2969 Q1153.4844,279.0469 1153.4844,280.0781 L1153.4844,281.1719 Q1153.4844,282.4063 1154.375,283.2344 Q1155.2656,284.0469 1156.8594,284.0469 Q1157.7969,284.0469 1158.4531,283.7969 Q1158.8438,283.6406 1159.2656,283.2031 Q1159.5313,282.9375 1159.6719,282.8594 Q1159.8281,282.7813 1160.0313,282.7813 Q1160.3594,282.7813 1160.6094,283.0469 Q1160.875,283.2969 1160.875,283.6406 Q1160.875,283.9844 1160.5313,284.3906 Q1160.0313,284.9688 1159.2344,285.2969 Q1158.1563,285.75 1156.8594,285.75 Q1155.3438,285.75 1154.1406,285.125 Q1153.1563,284.625 1152.4688,283.5625 Q1151.7813,282.4844 1151.7813,281.2031 L1151.7813,280.0469 Q1151.7813,278.7188 1152.3906,277.5781 Q1153.0156,276.4219 1154.1094,275.8125 Q1155.2031,275.1875 1156.4375,275.1875 Q1157.1719,275.1875 1157.8125,275.3594 Q1158.4688,275.5156 1159.0156,275.875 Z " fill="#000000"/><text fill="#000000" font-family="sans-serif" font-size="14" lengthAdjust="spacing" textLength="79" x="1176.75" y="285.7969">Repositories</text><line style="stroke:#181818;stroke-width:0.5;" x1="1104" x2="1296" y1="296" y2="296"/><line style="stroke:#181818;stroke-width:0.5;" x1="1104" x2="1296" y1="304" y2="304"/><text fill="#000000" font-family="sans-serif" font-size="14" lengthAdjust="spacing" textLength="94" x="1109" y="323.1074">-Repositories()</text><text fill="#000000" font-family="sans-serif" font-size="14" lengthAdjust="spacing" textLength="182" x="1109" y="341.7285">+getInstance() : Repositories</text><text fill="#000000" font-family="sans-serif" font-size="14" lengthAdjust="spacing" textLength="131" x="1109" y="360.3496">+getSkillRepository()</text></g><!--class skillRepository--><g id="elem_skillRepository"><rect codeLine="58" fill="#F1F1F1" height="122.4844" id="skillRepository" rx="2.5" ry="2.5" style="stroke:#181818;stroke-width:0.5;" width="130" x="1038" y="503"/><ellipse cx="1056.15" cy="519" fill="#ADD1B2" rx="11" ry="11" style="stroke:#181818;stroke-width:1.0;"/><path d="M1058.9156,514.875 Q1059.0719,514.6563 1059.2594,514.5469 Q1059.4469,514.4375 1059.6656,514.4375 Q1060.0406,514.4375 1060.275,514.7031 Q1060.5094,514.9531 1060.5094,515.5625 L1060.5094,517.0156 Q1060.5094,517.625 1060.275,517.8906 Q1060.0406,518.1563 1059.6656,518.1563 Q1059.3219,518.1563 1059.1188,517.9531 Q1058.9156,517.7656 1058.8063,517.25 Q1058.7594,516.8906 1058.5719,516.7031 Q1058.2438,516.3281 1057.6344,516.1094 Q1057.025,515.8906 1056.4,515.8906 Q1055.6344,515.8906 1054.9938,516.2188 Q1054.3688,516.5469 1053.8688,517.2969 Q1053.3844,518.0469 1053.3844,519.0781 L1053.3844,520.1719 Q1053.3844,521.4063 1054.275,522.2344 Q1055.1656,523.0469 1056.7594,523.0469 Q1057.6969,523.0469 1058.3531,522.7969 Q1058.7438,522.6406 1059.1656,522.2031 Q1059.4313,521.9375 1059.5719,521.8594 Q1059.7281,521.7813 1059.9313,521.7813 Q1060.2594,521.7813 1060.5094,522.0469 Q1060.775,522.2969 1060.775,522.6406 Q1060.775,522.9844 1060.4313,523.3906 Q1059.9313,523.9688 1059.1344,524.2969 Q1058.0563,524.75 1056.7594,524.75 Q1055.2438,524.75 1054.0406,524.125 Q1053.0563,523.625 1052.3688,522.5625 Q1051.6813,521.4844 1051.6813,520.2031 L1051.6813,519.0469 Q1051.6813,517.7188 1052.2906,516.5781 Q1052.9156,515.4219 1054.0094,514.8125 Q1055.1031,514.1875 1056.3375,514.1875 Q1057.0719,514.1875 1057.7125,514.3594 Q1058.3688,514.5156 1058.9156,514.875 Z " fill="#000000"/><text fill="#000000" font-family="sans-serif" font-size="14" lengthAdjust="spacing" textLength="91" x="1070.85" y="524.7969">skillRepository</text><line style="stroke:#181818;stroke-width:0.5;" x1="1039" x2="1167" y1="535" y2="535"/><text fill="#000000" font-family="sans-serif" font-size="14" lengthAdjust="spacing" textLength="90" x="1044" y="554.1074">-ArrayList Skill</text><line style="stroke:#181818;stroke-width:0.5;" x1="1039" x2="1167" y1="561.6211" y2="561.6211"/><text fill="#000000" font-family="sans-serif" font-size="14" lengthAdjust="spacing" textLength="89" x="1044" y="580.7285">-addSkill(Skill)</text><text fill="#000000" font-family="sans-serif" font-size="14" lengthAdjust="spacing" textLength="114" x="1044" y="599.3496">-validateSkill(Skill)</text><text fill="#000000" font-family="sans-serif" font-size="14" lengthAdjust="spacing" textLength="118" x="1044" y="617.9707">+createSkill(name)</text></g><!--link RegisterSkillController to Repositories--><g id="link_RegisterSkillController_Repositories"><path codeLine="66" d="M999.11,316 C1031.8,316 1063.25,316 1096.89,316 " fill="none" id="RegisterSkillController-to-Repositories" style="stroke:#181818;stroke-width:1.0;stroke-dasharray:7.0,7.0;"/><polygon fill="#181818" points="1102.89,316,1093.89,312,1097.89,316,1093.89,320,1102.89,316" style="stroke:#181818;stroke-width:1.0;"/><text fill="#000000" font-family="sans-serif" font-size="13" lengthAdjust="spacing" textLength="67" x="1017.5" y="309.0283">repositories</text></g><!--link RegisterSkillUI to RegisterSkillController--><g id="link_RegisterSkillUI_RegisterSkillController"><path codeLine="67" d="M792.05,316 C794.8,316 805.64,316 820.82,316 " fill="none" id="RegisterSkillUI-to-RegisterSkillController" style="stroke:#181818;stroke-width:1.0;stroke-dasharray:7.0,7.0;"/><polygon fill="#181818" points="826.82,316,817.82,312,821.82,316,817.82,320,826.82,316" style="stroke:#181818;stroke-width:1.0;"/></g><!--link Repositories to Repositories--><g id="link_Repositories_Repositories"><path codeLine="68" d="M1297.28,289.59 C1317.48,292.37 1332,301.17 1332,316 C1332,330.83 1323.424,338.812 1303.224,341.592 " fill="none" id="Repositories-to-Repositories" style="stroke:#181818;stroke-width:1.0;"/><polygon fill="#181818" points="1297.28,342.41,1306.7413,345.1456,1302.2333,341.7283,1305.6506,337.2203,1297.28,342.41" style="stroke:#181818;stroke-width:1.0;"/><text fill="#000000" font-family="sans-serif" font-size="13" lengthAdjust="spacing" textLength="49" x="1338" y="321.5283">instance</text></g><!--link Repositories to skillRepository--><g id="link_Repositories_skillRepository"><path codeLine="69" d="M1179.78,368.27 C1164.35,407.42 1145.2412,455.8784 1128.9812,497.1084 " fill="none" id="Repositories-to-skillRepository" style="stroke:#181818;stroke-width:1.0;"/><polygon fill="#181818" points="1126.78,502.69,1133.8029,495.7851,1128.6144,498.0386,1126.3608,492.8501,1126.78,502.69" style="stroke:#181818;stroke-width:1.0;"/><text fill="#000000" font-family="sans-serif" font-size="13" lengthAdjust="spacing" textLength="85" x="1147" y="469.0283">skillRepository</text><text fill="#000000" font-family="sans-serif" font-size="13" lengthAdjust="spacing" textLength="7" x="1122.1249" y="491.6354">1</text></g><!--link skillRepository to Skill--><g id="link_skillRepository_Skill"><path codeLine="70" d="M1037.82,606.7 C987.71,638.76 923.9242,679.5566 874.2942,711.3066 " fill="none" id="skillRepository-to-Skill" style="stroke:#181818;stroke-width:1.0;"/><polygon fill="#181818" points="869.24,714.54,878.9769,713.0594,873.4519,711.8455,874.6658,706.3205,869.24,714.54" style="stroke:#181818;stroke-width:1.0;"/><text fill="#000000" font-family="sans-serif" font-size="13" lengthAdjust="spacing" textLength="25" x="956" y="670.0283">Skill</text><text fill="#000000" font-family="sans-serif" font-size="13" lengthAdjust="spacing" textLength="7" x="1022.8789" y="607.6715">1</text><text fill="#000000" font-family="sans-serif" font-size="13" lengthAdjust="spacing" textLength="5" x="876.8412" y="705.8164">*</text></g><!--reverse link Collaborator to HumanResourcesManager--><g id="link_Collaborator_HumanResourcesManager"><path codeLine="71" d="M548.0131,432.1423 C633.3431,475.4223 707.91,513.25 760.6,539.97 " fill="none" id="Collaborator-backto-HumanResourcesManager" style="stroke:#181818;stroke-width:1.0;"/><polygon fill="none" points="531.96,424,545.2991,437.4933,550.7272,426.7912,531.96,424" style="stroke:#181818;stroke-width:1.0;"/></g><!--link RegisterSkillController to HumanResourcesManager--><g id="link_RegisterSkillController_HumanResourcesManager"><path codeLine="72" d="M894.85,358.73 C872.13,410.96 836.413,493.0679 818.403,534.4779 " fill="none" id="RegisterSkillController-to-HumanResourcesManager" style="stroke:#181818;stroke-width:1.0;stroke-dasharray:7.0,7.0;"/><polygon fill="#181818" points="816.01,539.98,823.2676,533.3221,818.0042,535.3949,815.9314,530.1315,816.01,539.98" style="stroke:#181818;stroke-width:1.0;"/><text fill="#000000" font-family="sans-serif" font-size="13" lengthAdjust="spacing" textLength="153" x="855" y="469.0283">HumanResourcesManager</text><text fill="#000000" font-family="sans-serif" font-size="13" lengthAdjust="spacing" textLength="7" x="810.6782" y="528.7124">1</text></g><!--reverse link HumanResourcesManager to Skill--><g id="link_HumanResourcesManager_Skill"><path codeLine="73" d="M806,594.3 C806,622.94 806,666.36 806,703.97 " fill="none" id="HumanResourcesManager-backto-Skill" style="stroke:#181818;stroke-width:1.0;"/><polygon fill="#181818" points="806,588.3,802,597.3,806,593.3,810,597.3,806,588.3" style="stroke:#181818;stroke-width:1.0;"/><text fill="#000000" font-family="sans-serif" font-size="13" lengthAdjust="spacing" textLength="59" x="807" y="670.0283">createdBy</text></g><!--link Collaborator to Skill--><g id="link_Collaborator_Skill"><path codeLine="74" d="M437.7,424.29 C534.38,513.18 656,625 656,625 C656,625 700.5855,663.6408 742.6155,700.0608 " fill="none" id="Collaborator-to-Skill" style="stroke:#181818;stroke-width:1.0;"/><polygon fill="#181818" points="747.15,703.99,742.9678,695.0732,743.3713,700.7157,737.7288,701.1191,747.15,703.99" style="stroke:#181818;stroke-width:1.0;"/><text fill="#000000" font-family="sans-serif" font-size="13" lengthAdjust="spacing" textLength="30" x="657" y="569.5283">skills</text><text fill="#000000" font-family="sans-serif" font-size="13" lengthAdjust="spacing" textLength="5" x="439.6591" y="445.4566">*</text><text fill="#000000" font-family="sans-serif" font-size="13" lengthAdjust="spacing" textLength="5" x="733.9061" y="692.916">*</text></g><!--link Address to Collaborator--><g id="link_Address_Collaborator"><path codeLine="75" d="M321,129.18 C321,152.93 321,174.96 321,201.95 " fill="none" id="Address-to-Collaborator" style="stroke:#181818;stroke-width:1.0;"/><polygon fill="#181818" points="321,207.95,325,198.95,321,202.95,317,198.95,321,207.95" style="stroke:#181818;stroke-width:1.0;"/><text fill="#000000" font-family="sans-serif" font-size="13" lengthAdjust="spacing" textLength="46" x="322" y="174.0283">address</text><text fill="#000000" font-family="sans-serif" font-size="13" lengthAdjust="spacing" textLength="7" x="313.5734" y="151.6888">1</text><text fill="#000000" font-family="sans-serif" font-size="13" lengthAdjust="spacing" textLength="5" x="315.8242" y="196.808">*</text></g><!--SRC=[VLHDZzem4BtxLrXSW3QisckqMebb3ulKRYLGVu19Xc3XsD5uQ9L-_FSwZXDiDZG7GcRUl7apUSxSdgLk18gQrqQRueIc1avu0NRDDA8uYmhsr2hW20K9NQaOO4-YD3-bhlXHA1jdbDH0RGEyCQhj7jXy8ccG38kg2YMiNHEXF5m8jeNHU_aB-2V6vWgEnCbmbDM9U2axET9endmDtv-bKlmtu-vQyRrZSAAqg87vqCSUiEWYom3w8PGi1K6VyRzBzdSWt44bBG7w-CPeGgCKe6iH2Ey05ikGnpWV6a-pVzywrZ6rSJJYO52GmM6WU1uVU76wUIV-s_5P8fsYg2XhQQrRJVVKnzTbYU2eHN_lWr8JRqv6mzkbFW0cZQ0MKbrXHH7z5rY6YZ1eBDZFcSNAibHGDeZ8ukPPtp5pdRAeGxImC4Aw3qi8G6_ZLaAuCPOsfeIhwD8OJ4G7kiML8HlBiWWUANYzr4Blm9eB5c2_2krE1iOlRWUEGRebIB23JLP9TFH61RJLrXsd0XPBdYUWAyIROqorYqYCJLEZyTU8eltYhDNxVH3XTfwu_3y7eEzU88o9qRhtZiJ3KpfxxhmVpNFhTG-VP689pUeThGmxky4vuEppxDrEyji8kqLqLRxwmonyGFAmj-GGyiS_gnMVDi3zfJpqggPjazzXcqO_TkrzWpoycVAvJJLs8zoEuiUrR3ZzyRH9RJv-6DW_]--></g></svg>