<?xml version="1.0" encoding="us-ascii" standalone="no"?><svg xmlns="http://www.w3.org/2000/svg" xmlns:xlink="http://www.w3.org/1999/xlink" contentStyleType="text/css" height="650px" preserveAspectRatio="none" style="width:1425px;height:650px;background:#FFFFFF;" version="1.1" viewBox="0 0 1425 650" width="1425px" zoomAndPan="magnify"><defs/><g><!--class Skill--><g id="elem_Skill"><rect codeLine="11" fill="#F1F1F1" height="103.8633" id="Skill" rx="2.5" ry="2.5" style="stroke:#181818;stroke-width:0.5;" width="126" x="672.5" y="540"/><ellipse cx="718.75" cy="556" fill="#ADD1B2" rx="11" ry="11" style="stroke:#181818;stroke-width:1.0;"/><path d="M721.5156,551.875 Q721.6719,551.6563 721.8594,551.5469 Q722.0469,551.4375 722.2656,551.4375 Q722.6406,551.4375 722.875,551.7031 Q723.1094,551.9531 723.1094,552.5625 L723.1094,554.0156 Q723.1094,554.625 722.875,554.8906 Q722.6406,555.1563 722.2656,555.1563 Q721.9219,555.1563 721.7188,554.9531 Q721.5156,554.7656 721.4063,554.25 Q721.3594,553.8906 721.1719,553.7031 Q720.8438,553.3281 720.2344,553.1094 Q719.625,552.8906 719,552.8906 Q718.2344,552.8906 717.5938,553.2188 Q716.9688,553.5469 716.4688,554.2969 Q715.9844,555.0469 715.9844,556.0781 L715.9844,557.1719 Q715.9844,558.4063 716.875,559.2344 Q717.7656,560.0469 719.3594,560.0469 Q720.2969,560.0469 720.9531,559.7969 Q721.3438,559.6406 721.7656,559.2031 Q722.0313,558.9375 722.1719,558.8594 Q722.3281,558.7813 722.5313,558.7813 Q722.8594,558.7813 723.1094,559.0469 Q723.375,559.2969 723.375,559.6406 Q723.375,559.9844 723.0313,560.3906 Q722.5313,560.9688 721.7344,561.2969 Q720.6563,561.75 719.3594,561.75 Q717.8438,561.75 716.6406,561.125 Q715.6563,560.625 714.9688,559.5625 Q714.2813,558.4844 714.2813,557.2031 L714.2813,556.0469 Q714.2813,554.7188 714.8906,553.5781 Q715.5156,552.4219 716.6094,551.8125 Q717.7031,551.1875 718.9375,551.1875 Q719.6719,551.1875 720.3125,551.3594 Q720.9688,551.5156 721.5156,551.875 Z " fill="#000000"/><text fill="#000000" font-family="sans-serif" font-size="14" lengthAdjust="spacing" textLength="25" x="739.25" y="561.7969">Skill</text><line style="stroke:#181818;stroke-width:0.5;" x1="673.5" x2="797.5" y1="572" y2="572"/><text fill="#000000" font-family="sans-serif" font-size="14" lengthAdjust="spacing" textLength="81" x="678.5" y="591.1074">-String name</text><line style="stroke:#181818;stroke-width:0.5;" x1="673.5" x2="797.5" y1="598.6211" y2="598.6211"/><text fill="#000000" font-family="sans-serif" font-size="14" lengthAdjust="spacing" textLength="114" x="678.5" y="617.7285">-validateSkill(Skill)</text><text fill="#000000" font-family="sans-serif" font-size="14" lengthAdjust="spacing" textLength="78" x="678.5" y="636.3496">+Skill(name)</text></g><!--class RegisterSkillController--><g id="elem_RegisterSkillController"><rect codeLine="18" fill="#F1F1F1" height="85.2422" id="RegisterSkillController" rx="2.5" ry="2.5" style="stroke:#181818;stroke-width:0.5;" width="172" x="852.5" y="91"/><ellipse cx="867.5" cy="107" fill="#ADD1B2" rx="11" ry="11" style="stroke:#181818;stroke-width:1.0;"/><path d="M870.2656,102.875 Q870.4219,102.6563 870.6094,102.5469 Q870.7969,102.4375 871.0156,102.4375 Q871.3906,102.4375 871.625,102.7031 Q871.8594,102.9531 871.8594,103.5625 L871.8594,105.0156 Q871.8594,105.625 871.625,105.8906 Q871.3906,106.1563 871.0156,106.1563 Q870.6719,106.1563 870.4688,105.9531 Q870.2656,105.7656 870.1563,105.25 Q870.1094,104.8906 869.9219,104.7031 Q869.5938,104.3281 868.9844,104.1094 Q868.375,103.8906 867.75,103.8906 Q866.9844,103.8906 866.3438,104.2188 Q865.7188,104.5469 865.2188,105.2969 Q864.7344,106.0469 864.7344,107.0781 L864.7344,108.1719 Q864.7344,109.4063 865.625,110.2344 Q866.5156,111.0469 868.1094,111.0469 Q869.0469,111.0469 869.7031,110.7969 Q870.0938,110.6406 870.5156,110.2031 Q870.7813,109.9375 870.9219,109.8594 Q871.0781,109.7813 871.2813,109.7813 Q871.6094,109.7813 871.8594,110.0469 Q872.125,110.2969 872.125,110.6406 Q872.125,110.9844 871.7813,111.3906 Q871.2813,111.9688 870.4844,112.2969 Q869.4063,112.75 868.1094,112.75 Q866.5938,112.75 865.3906,112.125 Q864.4063,111.625 863.7188,110.5625 Q863.0313,109.4844 863.0313,108.2031 L863.0313,107.0469 Q863.0313,105.7188 863.6406,104.5781 Q864.2656,103.4219 865.3594,102.8125 Q866.4531,102.1875 867.6875,102.1875 Q868.4219,102.1875 869.0625,102.3594 Q869.7188,102.5156 870.2656,102.875 Z " fill="#000000"/><text fill="#000000" font-family="sans-serif" font-size="14" lengthAdjust="spacing" textLength="140" x="881.5" y="112.7969">RegisterSkillController</text><line style="stroke:#181818;stroke-width:0.5;" x1="853.5" x2="1023.5" y1="123" y2="123"/><line style="stroke:#181818;stroke-width:0.5;" x1="853.5" x2="1023.5" y1="131" y2="131"/><text fill="#000000" font-family="sans-serif" font-size="14" lengthAdjust="spacing" textLength="158" x="858.5" y="150.1074">+RegisterSkillController()</text><text fill="#000000" font-family="sans-serif" font-size="14" lengthAdjust="spacing" textLength="126" x="858.5" y="168.7285">+registerSkill(name)</text></g><!--class RegisterSkillUI--><g id="elem_RegisterSkillUI"><rect codeLine="24" fill="#F1F1F1" height="48" id="RegisterSkillUI" rx="2.5" ry="2.5" style="stroke:#181818;stroke-width:0.5;" width="122" x="695.5" y="109.5"/><ellipse cx="710.5" cy="125.5" fill="#ADD1B2" rx="11" ry="11" style="stroke:#181818;stroke-width:1.0;"/><path d="M713.2656,121.375 Q713.4219,121.1563 713.6094,121.0469 Q713.7969,120.9375 714.0156,120.9375 Q714.3906,120.9375 714.625,121.2031 Q714.8594,121.4531 714.8594,122.0625 L714.8594,123.5156 Q714.8594,124.125 714.625,124.3906 Q714.3906,124.6563 714.0156,124.6563 Q713.6719,124.6563 713.4688,124.4531 Q713.2656,124.2656 713.1563,123.75 Q713.1094,123.3906 712.9219,123.2031 Q712.5938,122.8281 711.9844,122.6094 Q711.375,122.3906 710.75,122.3906 Q709.9844,122.3906 709.3438,122.7188 Q708.7188,123.0469 708.2188,123.7969 Q707.7344,124.5469 707.7344,125.5781 L707.7344,126.6719 Q707.7344,127.9063 708.625,128.7344 Q709.5156,129.5469 711.1094,129.5469 Q712.0469,129.5469 712.7031,129.2969 Q713.0938,129.1406 713.5156,128.7031 Q713.7813,128.4375 713.9219,128.3594 Q714.0781,128.2813 714.2813,128.2813 Q714.6094,128.2813 714.8594,128.5469 Q715.125,128.7969 715.125,129.1406 Q715.125,129.4844 714.7813,129.8906 Q714.2813,130.4688 713.4844,130.7969 Q712.4063,131.25 711.1094,131.25 Q709.5938,131.25 708.3906,130.625 Q707.4063,130.125 706.7188,129.0625 Q706.0313,127.9844 706.0313,126.7031 L706.0313,125.5469 Q706.0313,124.2188 706.6406,123.0781 Q707.2656,121.9219 708.3594,121.3125 Q709.4531,120.6875 710.6875,120.6875 Q711.4219,120.6875 712.0625,120.8594 Q712.7188,121.0156 713.2656,121.375 Z " fill="#000000"/><text fill="#000000" font-family="sans-serif" font-size="14" lengthAdjust="spacing" textLength="90" x="724.5" y="131.2969">RegisterSkillUI</text><line style="stroke:#181818;stroke-width:0.5;" x1="696.5" x2="816.5" y1="141.5" y2="141.5"/><line style="stroke:#181818;stroke-width:0.5;" x1="696.5" x2="816.5" y1="149.5" y2="149.5"/></g><!--class Collaborator--><g id="elem_Collaborator"><rect codeLine="27" fill="#F1F1F1" height="252.832" id="Collaborator" rx="2.5" ry="2.5" style="stroke:#181818;stroke-width:0.5;" width="653" x="7" y="7"/><ellipse cx="290.25" cy="23" fill="#ADD1B2" rx="11" ry="11" style="stroke:#181818;stroke-width:1.0;"/><path d="M293.0156,18.875 Q293.1719,18.6563 293.3594,18.5469 Q293.5469,18.4375 293.7656,18.4375 Q294.1406,18.4375 294.375,18.7031 Q294.6094,18.9531 294.6094,19.5625 L294.6094,21.0156 Q294.6094,21.625 294.375,21.8906 Q294.1406,22.1563 293.7656,22.1563 Q293.4219,22.1563 293.2188,21.9531 Q293.0156,21.7656 292.9063,21.25 Q292.8594,20.8906 292.6719,20.7031 Q292.3438,20.3281 291.7344,20.1094 Q291.125,19.8906 290.5,19.8906 Q289.7344,19.8906 289.0938,20.2188 Q288.4688,20.5469 287.9688,21.2969 Q287.4844,22.0469 287.4844,23.0781 L287.4844,24.1719 Q287.4844,25.4063 288.375,26.2344 Q289.2656,27.0469 290.8594,27.0469 Q291.7969,27.0469 292.4531,26.7969 Q292.8438,26.6406 293.2656,26.2031 Q293.5313,25.9375 293.6719,25.8594 Q293.8281,25.7813 294.0313,25.7813 Q294.3594,25.7813 294.6094,26.0469 Q294.875,26.2969 294.875,26.6406 Q294.875,26.9844 294.5313,27.3906 Q294.0313,27.9688 293.2344,28.2969 Q292.1563,28.75 290.8594,28.75 Q289.3438,28.75 288.1406,28.125 Q287.1563,27.625 286.4688,26.5625 Q285.7813,25.4844 285.7813,24.2031 L285.7813,23.0469 Q285.7813,21.7188 286.3906,20.5781 Q287.0156,19.4219 288.1094,18.8125 Q289.2031,18.1875 290.4375,18.1875 Q291.1719,18.1875 291.8125,18.3594 Q292.4688,18.5156 293.0156,18.875 Z " fill="#000000"/><text fill="#000000" font-family="sans-serif" font-size="14" lengthAdjust="spacing" textLength="78" x="310.75" y="28.7969">Collaborator</text><line style="stroke:#181818;stroke-width:0.5;" x1="8" x2="659" y1="39" y2="39"/><text fill="#000000" font-family="sans-serif" font-size="14" lengthAdjust="spacing" textLength="81" x="13" y="58.1074">-String name</text><text fill="#000000" font-family="sans-serif" font-size="14" lengthAdjust="spacing" textLength="117" x="13" y="76.7285">-List&lt;Skill&gt; skillList</text><text fill="#000000" font-family="sans-serif" font-size="14" lengthAdjust="spacing" textLength="50" x="13" y="95.3496">-Job job</text><text fill="#000000" font-family="sans-serif" font-size="14" lengthAdjust="spacing" textLength="111" x="13" y="113.9707">-Date dateOfBirth</text><text fill="#000000" font-family="sans-serif" font-size="14" lengthAdjust="spacing" textLength="132" x="13" y="132.5918">-Date admissionDate</text><text fill="#000000" font-family="sans-serif" font-size="14" lengthAdjust="spacing" textLength="112" x="13" y="151.2129">-Address address</text><text fill="#000000" font-family="sans-serif" font-size="14" lengthAdjust="spacing" textLength="135" x="13" y="169.834">-Document document</text><text fill="#000000" font-family="sans-serif" font-size="14" lengthAdjust="spacing" textLength="135" x="13" y="188.4551">-String phoneNumber</text><text fill="#000000" font-family="sans-serif" font-size="14" lengthAdjust="spacing" textLength="79" x="13" y="207.0762">-String email</text><text fill="#000000" font-family="sans-serif" font-size="14" lengthAdjust="spacing" textLength="78" x="13" y="225.6973">-int taxpayer</text><line style="stroke:#181818;stroke-width:0.5;" x1="8" x2="659" y1="233.2109" y2="233.2109"/><text fill="#000000" font-family="sans-serif" font-size="14" lengthAdjust="spacing" textLength="641" x="13" y="252.3184">+Collaborator(name, dateOfBirth, admissionDate, address, document, phoneNumber, email, taxpayer)</text></g><!--class HumanResourcesManager--><g id="elem_HumanResourcesManager"><rect codeLine="42" fill="#F1F1F1" height="48" id="HumanResourcesManager" rx="2.5" ry="2.5" style="stroke:#181818;stroke-width:0.5;" width="200" x="367.5" y="376"/><ellipse cx="382.5" cy="392" fill="#ADD1B2" rx="11" ry="11" style="stroke:#181818;stroke-width:1.0;"/><path d="M385.2656,387.875 Q385.4219,387.6563 385.6094,387.5469 Q385.7969,387.4375 386.0156,387.4375 Q386.3906,387.4375 386.625,387.7031 Q386.8594,387.9531 386.8594,388.5625 L386.8594,390.0156 Q386.8594,390.625 386.625,390.8906 Q386.3906,391.1563 386.0156,391.1563 Q385.6719,391.1563 385.4688,390.9531 Q385.2656,390.7656 385.1563,390.25 Q385.1094,389.8906 384.9219,389.7031 Q384.5938,389.3281 383.9844,389.1094 Q383.375,388.8906 382.75,388.8906 Q381.9844,388.8906 381.3438,389.2188 Q380.7188,389.5469 380.2188,390.2969 Q379.7344,391.0469 379.7344,392.0781 L379.7344,393.1719 Q379.7344,394.4063 380.625,395.2344 Q381.5156,396.0469 383.1094,396.0469 Q384.0469,396.0469 384.7031,395.7969 Q385.0938,395.6406 385.5156,395.2031 Q385.7813,394.9375 385.9219,394.8594 Q386.0781,394.7813 386.2813,394.7813 Q386.6094,394.7813 386.8594,395.0469 Q387.125,395.2969 387.125,395.6406 Q387.125,395.9844 386.7813,396.3906 Q386.2813,396.9688 385.4844,397.2969 Q384.4063,397.75 383.1094,397.75 Q381.5938,397.75 380.3906,397.125 Q379.4063,396.625 378.7188,395.5625 Q378.0313,394.4844 378.0313,393.2031 L378.0313,392.0469 Q378.0313,390.7188 378.6406,389.5781 Q379.2656,388.4219 380.3594,387.8125 Q381.4531,387.1875 382.6875,387.1875 Q383.4219,387.1875 384.0625,387.3594 Q384.7188,387.5156 385.2656,387.875 Z " fill="#000000"/><text fill="#000000" font-family="sans-serif" font-size="14" lengthAdjust="spacing" textLength="168" x="396.5" y="397.7969">HumanResourcesManager</text><line style="stroke:#181818;stroke-width:0.5;" x1="368.5" x2="566.5" y1="408" y2="408"/><line style="stroke:#181818;stroke-width:0.5;" x1="368.5" x2="566.5" y1="416" y2="416"/></g><!--class Repositories--><g id="elem_Repositories"><rect codeLine="45" fill="#F1F1F1" height="103.8633" id="Repositories" rx="2.5" ry="2.5" style="stroke:#181818;stroke-width:0.5;" width="194" x="1128.5" y="81.5"/><ellipse cx="1181.75" cy="97.5" fill="#ADD1B2" rx="11" ry="11" style="stroke:#181818;stroke-width:1.0;"/><path d="M1184.5156,93.375 Q1184.6719,93.1563 1184.8594,93.0469 Q1185.0469,92.9375 1185.2656,92.9375 Q1185.6406,92.9375 1185.875,93.2031 Q1186.1094,93.4531 1186.1094,94.0625 L1186.1094,95.5156 Q1186.1094,96.125 1185.875,96.3906 Q1185.6406,96.6563 1185.2656,96.6563 Q1184.9219,96.6563 1184.7188,96.4531 Q1184.5156,96.2656 1184.4063,95.75 Q1184.3594,95.3906 1184.1719,95.2031 Q1183.8438,94.8281 1183.2344,94.6094 Q1182.625,94.3906 1182,94.3906 Q1181.2344,94.3906 1180.5938,94.7188 Q1179.9688,95.0469 1179.4688,95.7969 Q1178.9844,96.5469 1178.9844,97.5781 L1178.9844,98.6719 Q1178.9844,99.9063 1179.875,100.7344 Q1180.7656,101.5469 1182.3594,101.5469 Q1183.2969,101.5469 1183.9531,101.2969 Q1184.3438,101.1406 1184.7656,100.7031 Q1185.0313,100.4375 1185.1719,100.3594 Q1185.3281,100.2813 1185.5313,100.2813 Q1185.8594,100.2813 1186.1094,100.5469 Q1186.375,100.7969 1186.375,101.1406 Q1186.375,101.4844 1186.0313,101.8906 Q1185.5313,102.4688 1184.7344,102.7969 Q1183.6563,103.25 1182.3594,103.25 Q1180.8438,103.25 1179.6406,102.625 Q1178.6563,102.125 1177.9688,101.0625 Q1177.2813,99.9844 1177.2813,98.7031 L1177.2813,97.5469 Q1177.2813,96.2188 1177.8906,95.0781 Q1178.5156,93.9219 1179.6094,93.3125 Q1180.7031,92.6875 1181.9375,92.6875 Q1182.6719,92.6875 1183.3125,92.8594 Q1183.9688,93.0156 1184.5156,93.375 Z " fill="#000000"/><text fill="#000000" font-family="sans-serif" font-size="14" lengthAdjust="spacing" textLength="79" x="1202.25" y="103.2969">Repositories</text><line style="stroke:#181818;stroke-width:0.5;" x1="1129.5" x2="1321.5" y1="113.5" y2="113.5"/><line style="stroke:#181818;stroke-width:0.5;" x1="1129.5" x2="1321.5" y1="121.5" y2="121.5"/><text fill="#000000" font-family="sans-serif" font-size="14" lengthAdjust="spacing" textLength="94" x="1134.5" y="140.6074">-Repositories()</text><text fill="#000000" font-family="sans-serif" font-size="14" lengthAdjust="spacing" textLength="182" x="1134.5" y="159.2285">+getInstance() : Repositories</text><text fill="#000000" font-family="sans-serif" font-size="14" lengthAdjust="spacing" textLength="131" x="1134.5" y="177.8496">+getSkillRepository()</text></g><!--class SkillRepository--><g id="elem_SkillRepository"><rect codeLine="52" fill="#F1F1F1" height="122.4844" id="SkillRepository" rx="2.5" ry="2.5" style="stroke:#181818;stroke-width:0.5;" width="133" x="872" y="339"/><ellipse cx="890.6" cy="355" fill="#ADD1B2" rx="11" ry="11" style="stroke:#181818;stroke-width:1.0;"/><path d="M893.3656,350.875 Q893.5219,350.6563 893.7094,350.5469 Q893.8969,350.4375 894.1156,350.4375 Q894.4906,350.4375 894.725,350.7031 Q894.9594,350.9531 894.9594,351.5625 L894.9594,353.0156 Q894.9594,353.625 894.725,353.8906 Q894.4906,354.1563 894.1156,354.1563 Q893.7719,354.1563 893.5688,353.9531 Q893.3656,353.7656 893.2563,353.25 Q893.2094,352.8906 893.0219,352.7031 Q892.6938,352.3281 892.0844,352.1094 Q891.475,351.8906 890.85,351.8906 Q890.0844,351.8906 889.4438,352.2188 Q888.8188,352.5469 888.3188,353.2969 Q887.8344,354.0469 887.8344,355.0781 L887.8344,356.1719 Q887.8344,357.4063 888.725,358.2344 Q889.6156,359.0469 891.2094,359.0469 Q892.1469,359.0469 892.8031,358.7969 Q893.1938,358.6406 893.6156,358.2031 Q893.8813,357.9375 894.0219,357.8594 Q894.1781,357.7813 894.3813,357.7813 Q894.7094,357.7813 894.9594,358.0469 Q895.225,358.2969 895.225,358.6406 Q895.225,358.9844 894.8813,359.3906 Q894.3813,359.9688 893.5844,360.2969 Q892.5063,360.75 891.2094,360.75 Q889.6938,360.75 888.4906,360.125 Q887.5063,359.625 886.8188,358.5625 Q886.1313,357.4844 886.1313,356.2031 L886.1313,355.0469 Q886.1313,353.7188 886.7406,352.5781 Q887.3656,351.4219 888.4594,350.8125 Q889.5531,350.1875 890.7875,350.1875 Q891.5219,350.1875 892.1625,350.3594 Q892.8188,350.5156 893.3656,350.875 Z " fill="#000000"/><text fill="#000000" font-family="sans-serif" font-size="14" lengthAdjust="spacing" textLength="93" x="905.4" y="360.7969">SkillRepository</text><line style="stroke:#181818;stroke-width:0.5;" x1="873" x2="1004" y1="371" y2="371"/><text fill="#000000" font-family="sans-serif" font-size="14" lengthAdjust="spacing" textLength="121" x="878" y="390.1074">-List &lt;Skill&gt; skillList</text><line style="stroke:#181818;stroke-width:0.5;" x1="873" x2="1004" y1="397.6211" y2="397.6211"/><text fill="#000000" font-family="sans-serif" font-size="14" lengthAdjust="spacing" textLength="89" x="878" y="416.7285">-addSkill(Skill)</text><text fill="#000000" font-family="sans-serif" font-size="14" lengthAdjust="spacing" textLength="114" x="878" y="435.3496">-validateSkill(Skill)</text><text fill="#000000" font-family="sans-serif" font-size="14" lengthAdjust="spacing" textLength="118" x="878" y="453.9707">+createSkill(name)</text></g><!--link RegisterSkillController to Repositories--><g id="link_RegisterSkillController_Repositories"><path codeLine="60" d="M1024.61,133.5 C1057.3,133.5 1088.75,133.5 1122.39,133.5 " fill="none" id="RegisterSkillController-to-Repositories" style="stroke:#181818;stroke-width:1.0;stroke-dasharray:7.0,7.0;"/><polygon fill="#181818" points="1128.39,133.5,1119.39,129.5,1123.39,133.5,1119.39,137.5,1128.39,133.5" style="stroke:#181818;stroke-width:1.0;"/><text fill="#000000" font-family="sans-serif" font-size="13" lengthAdjust="spacing" textLength="67" x="1043" y="126.5283">repositories</text></g><!--link RegisterSkillUI to RegisterSkillController--><g id="link_RegisterSkillUI_RegisterSkillController"><path codeLine="61" d="M817.55,133.5 C820.3,133.5 831.14,133.5 846.32,133.5 " fill="none" id="RegisterSkillUI-to-RegisterSkillController" style="stroke:#181818;stroke-width:1.0;stroke-dasharray:7.0,7.0;"/><polygon fill="#181818" points="852.32,133.5,843.32,129.5,847.32,133.5,843.32,137.5,852.32,133.5" style="stroke:#181818;stroke-width:1.0;"/></g><!--link Repositories to Repositories--><g id="link_Repositories_Repositories"><path codeLine="62" d="M1322.78,103.47 C1342.98,106.63 1357.5,116.64 1357.5,133.5 C1357.5,150.36 1348.9079,159.4427 1328.7079,162.6027 " fill="none" id="Repositories-to-Repositories" style="stroke:#181818;stroke-width:1.0;"/><polygon fill="#181818" points="1322.78,163.53,1332.2901,166.0909,1327.7199,162.7572,1331.0536,158.1871,1322.78,163.53" style="stroke:#181818;stroke-width:1.0;"/><text fill="#000000" font-family="sans-serif" font-size="13" lengthAdjust="spacing" textLength="49" x="1363.5" y="139.0283">instance</text></g><!--link Repositories to SkillRepository--><g id="link_Repositories_SkillRepository"><path codeLine="63" d="M1169.82,185.81 C1122.31,229.6 1058.3218,288.5635 1008.2318,334.7335 " fill="none" id="Repositories-to-SkillRepository" style="stroke:#181818;stroke-width:1.0;"/><polygon fill="#181818" points="1003.82,338.8,1013.1486,335.6414,1007.4965,335.4113,1007.7266,329.7591,1003.82,338.8" style="stroke:#181818;stroke-width:1.0;"/><text fill="#000000" font-family="sans-serif" font-size="13" lengthAdjust="spacing" textLength="87" x="1057.5" y="305.0283">SkillRepository</text><text fill="#000000" font-family="sans-serif" font-size="13" lengthAdjust="spacing" textLength="7" x="1003.9679" y="327.7581">1</text></g><!--link SkillRepository to Skill--><g id="link_SkillRepository_Skill"><path codeLine="64" d="M878.26,461.24 C853.05,486.45 829.5,510 829.5,510 C829.5,510 818.0868,519.8451 799.3068,536.0151 " fill="none" id="SkillRepository-to-Skill" style="stroke:#181818;stroke-width:1.0;"/><polygon fill="#181818" points="794.76,539.93,804.1902,537.0888,798.549,536.6676,798.9703,531.0264,794.76,539.93" style="stroke:#181818;stroke-width:1.0;"/><text fill="#000000" font-family="sans-serif" font-size="13" lengthAdjust="spacing" textLength="23" x="849.5" y="506.0283">skill</text><text fill="#000000" font-family="sans-serif" font-size="13" lengthAdjust="spacing" textLength="7" x="863.8901" y="483.3208">1</text><text fill="#000000" font-family="sans-serif" font-size="13" lengthAdjust="spacing" textLength="5" x="797.3871" y="528.848">*</text></g><!--reverse link Collaborator to HumanResourcesManager--><g id="link_Collaborator_HumanResourcesManager"><path codeLine="65" d="M405.2954,276.2266 C427.7154,320.4766 442.5,349.66 455.85,376 " fill="none" id="Collaborator-backto-HumanResourcesManager" style="stroke:#181818;stroke-width:1.0;"/><polygon fill="none" points="397.16,260.17,399.9432,278.9384,410.6476,273.5149,397.16,260.17" style="stroke:#181818;stroke-width:1.0;"/></g><!--link RegisterSkillController to Skill--><g id="link_RegisterSkillController_Skill"><path codeLine="66" d="M919.95,176.22 C882.66,260.08 801.1683,443.3378 760.6583,534.4178 " fill="none" id="RegisterSkillController-to-Skill" style="stroke:#181818;stroke-width:1.0;stroke-dasharray:7.0,7.0;"/><polygon fill="#181818" points="758.22,539.9,765.5323,533.3023,760.2519,535.3315,758.2227,530.0511,758.22,539.9" style="stroke:#181818;stroke-width:1.0;"/></g><!--link RegisterSkillController to SkillRepository--><g id="link_RegisterSkillController_SkillRepository"><path codeLine="67" d="M938.5,176.12 C938.5,219.91 938.5,283.24 938.5,332.95 " fill="none" id="RegisterSkillController-to-SkillRepository" style="stroke:#181818;stroke-width:1.0;stroke-dasharray:7.0,7.0;"/><polygon fill="#181818" points="938.5,338.95,942.5,329.95,938.5,333.95,934.5,329.95,938.5,338.95" style="stroke:#181818;stroke-width:1.0;"/></g><!--reverse link HumanResourcesManager to Skill--><g id="link_HumanResourcesManager_Skill"><path codeLine="69" d="M502.6019,427.7572 C544.5719,459.7472 610.5,510 610.5,510 C610.5,510 641.26,529.93 672.27,550.03 " fill="none" id="HumanResourcesManager-backto-Skill" style="stroke:#181818;stroke-width:1.0;"/><polygon fill="#181818" points="497.83,424.12,502.563,432.757,501.8066,427.151,507.4126,426.3945,497.83,424.12" style="stroke:#181818;stroke-width:1.0;"/><text fill="#000000" font-family="sans-serif" font-size="13" lengthAdjust="spacing" textLength="59" x="611.5" y="506.0283">createdBy</text></g><!--link Collaborator to Skill--><g id="link_Collaborator_Skill"><path codeLine="70" d="M487.82,260.23 C539.62,302.43 584.5,339 584.5,339 C584.5,339 657.526,460.8733 701.676,534.5533 " fill="none" id="Collaborator-to-Skill" style="stroke:#181818;stroke-width:1.0;"/><polygon fill="#181818" points="704.76,539.7,703.5652,529.9239,702.19,535.411,696.7028,534.0359,704.76,539.7" style="stroke:#181818;stroke-width:1.0;"/><text fill="#000000" font-family="sans-serif" font-size="13" lengthAdjust="spacing" textLength="21" x="658.5" y="405.5283">has</text><text fill="#000000" font-family="sans-serif" font-size="13" lengthAdjust="spacing" textLength="5" x="491.1227" y="281.6663">*</text><text fill="#000000" font-family="sans-serif" font-size="13" lengthAdjust="spacing" textLength="5" x="695.2934" y="528.5871">*</text></g><!--SRC=[XLFRZfim47ttLrZx4jA5gdsDefNsyh2fUf4IzGCcC04tnaQsQKil_zwn8QmXoJOF0SyvPtpcmi8UXMh0GCrhhNHU6LqZTwP5ze8qa1-Xn9th97A3kGDLofXWAoZq3w5AVW1fOqGAXQvha3TQTlx05XT0RPncaIgNOEszSqRiMuURNAkT-8Ny7MCBYGV7dUP6b9NZXV1sX5QC1GtV7OMK_3VZzCluZZAGAGKriY7q7QGem64W9k5_6Q3RNfjuyfBzFINSOYciGnF0HwsSqLAYeIi6rHL2SifgOlpLx5ytb7M47YaDxBK1fysfeBYU4FX8wdKGtt7h7pxGGn_qdd_J-_xmH1LpN_QNmuCmhegYKDJ2McgXF_Nn-w8mI1QWVmvadRSrAkhvy3Anr5HQuUUstgEPnB468Vk88As3dmrqn1cQ4nSPUfF6BjEfkVHaA1qzfF75QNzREjuIDVgvhK5jqUhMv6W_WQ9zDd6xjzXeAyY6G7iQRZQ9ZXCjqMsKfOyWnsJ9LnFI2oLCPOIw938pWyPrzSFZv-CSK2h-R6bVtUVSu0YCUtTjdz_UJLkmeiMDofelQg1VpCGcQRApj69etOn7n9ltDsUjMSqZRCxmgg1-CwX94th79byGN__9Cdvv3wutXSeCiVyp8eViyhAj_Vs1knf6KpnqKvE-Xdaj5LZs3m00]--></g></svg>