<?xml version="1.0" encoding="us-ascii" standalone="no"?><svg xmlns="http://www.w3.org/2000/svg" xmlns:xlink="http://www.w3.org/1999/xlink" contentStyleType="text/css" height="650px" preserveAspectRatio="none" style="width:1400px;height:650px;background:#FFFFFF;" version="1.1" viewBox="0 0 1400 650" width="1400px" zoomAndPan="magnify"><defs/><g><!--class Skill--><g id="elem_Skill"><rect codeLine="11" fill="#F1F1F1" height="103.8633" id="Skill" rx="2.5" ry="2.5" style="stroke:#181818;stroke-width:0.5;" width="126" x="759" y="540"/><ellipse cx="805.25" cy="556" fill="#ADD1B2" rx="11" ry="11" style="stroke:#181818;stroke-width:1.0;"/><path d="M808.0156,551.875 Q808.1719,551.6563 808.3594,551.5469 Q808.5469,551.4375 808.7656,551.4375 Q809.1406,551.4375 809.375,551.7031 Q809.6094,551.9531 809.6094,552.5625 L809.6094,554.0156 Q809.6094,554.625 809.375,554.8906 Q809.1406,555.1563 808.7656,555.1563 Q808.4219,555.1563 808.2188,554.9531 Q808.0156,554.7656 807.9063,554.25 Q807.8594,553.8906 807.6719,553.7031 Q807.3438,553.3281 806.7344,553.1094 Q806.125,552.8906 805.5,552.8906 Q804.7344,552.8906 804.0938,553.2188 Q803.4688,553.5469 802.9688,554.2969 Q802.4844,555.0469 802.4844,556.0781 L802.4844,557.1719 Q802.4844,558.4063 803.375,559.2344 Q804.2656,560.0469 805.8594,560.0469 Q806.7969,560.0469 807.4531,559.7969 Q807.8438,559.6406 808.2656,559.2031 Q808.5313,558.9375 808.6719,558.8594 Q808.8281,558.7813 809.0313,558.7813 Q809.3594,558.7813 809.6094,559.0469 Q809.875,559.2969 809.875,559.6406 Q809.875,559.9844 809.5313,560.3906 Q809.0313,560.9688 808.2344,561.2969 Q807.1563,561.75 805.8594,561.75 Q804.3438,561.75 803.1406,561.125 Q802.1563,560.625 801.4688,559.5625 Q800.7813,558.4844 800.7813,557.2031 L800.7813,556.0469 Q800.7813,554.7188 801.3906,553.5781 Q802.0156,552.4219 803.1094,551.8125 Q804.2031,551.1875 805.4375,551.1875 Q806.1719,551.1875 806.8125,551.3594 Q807.4688,551.5156 808.0156,551.875 Z " fill="#000000"/><text fill="#000000" font-family="sans-serif" font-size="14" lengthAdjust="spacing" textLength="25" x="825.75" y="561.7969">Skill</text><line style="stroke:#181818;stroke-width:0.5;" x1="760" x2="884" y1="572" y2="572"/><text fill="#000000" font-family="sans-serif" font-size="14" lengthAdjust="spacing" textLength="81" x="765" y="591.1074">-String name</text><line style="stroke:#181818;stroke-width:0.5;" x1="760" x2="884" y1="598.6211" y2="598.6211"/><text fill="#000000" font-family="sans-serif" font-size="14" lengthAdjust="spacing" textLength="114" x="765" y="617.7285">-validateSkill(Skill)</text><text fill="#000000" font-family="sans-serif" font-size="14" lengthAdjust="spacing" textLength="78" x="765" y="636.3496">+Skill(name)</text></g><!--class RegisterSkillController--><g id="elem_RegisterSkillController"><rect codeLine="18" fill="#F1F1F1" height="85.2422" id="RegisterSkillController" rx="2.5" ry="2.5" style="stroke:#181818;stroke-width:0.5;" width="172" x="827" y="91"/><ellipse cx="842" cy="107" fill="#ADD1B2" rx="11" ry="11" style="stroke:#181818;stroke-width:1.0;"/><path d="M844.7656,102.875 Q844.9219,102.6563 845.1094,102.5469 Q845.2969,102.4375 845.5156,102.4375 Q845.8906,102.4375 846.125,102.7031 Q846.3594,102.9531 846.3594,103.5625 L846.3594,105.0156 Q846.3594,105.625 846.125,105.8906 Q845.8906,106.1563 845.5156,106.1563 Q845.1719,106.1563 844.9688,105.9531 Q844.7656,105.7656 844.6563,105.25 Q844.6094,104.8906 844.4219,104.7031 Q844.0938,104.3281 843.4844,104.1094 Q842.875,103.8906 842.25,103.8906 Q841.4844,103.8906 840.8438,104.2188 Q840.2188,104.5469 839.7188,105.2969 Q839.2344,106.0469 839.2344,107.0781 L839.2344,108.1719 Q839.2344,109.4063 840.125,110.2344 Q841.0156,111.0469 842.6094,111.0469 Q843.5469,111.0469 844.2031,110.7969 Q844.5938,110.6406 845.0156,110.2031 Q845.2813,109.9375 845.4219,109.8594 Q845.5781,109.7813 845.7813,109.7813 Q846.1094,109.7813 846.3594,110.0469 Q846.625,110.2969 846.625,110.6406 Q846.625,110.9844 846.2813,111.3906 Q845.7813,111.9688 844.9844,112.2969 Q843.9063,112.75 842.6094,112.75 Q841.0938,112.75 839.8906,112.125 Q838.9063,111.625 838.2188,110.5625 Q837.5313,109.4844 837.5313,108.2031 L837.5313,107.0469 Q837.5313,105.7188 838.1406,104.5781 Q838.7656,103.4219 839.8594,102.8125 Q840.9531,102.1875 842.1875,102.1875 Q842.9219,102.1875 843.5625,102.3594 Q844.2188,102.5156 844.7656,102.875 Z " fill="#000000"/><text fill="#000000" font-family="sans-serif" font-size="14" lengthAdjust="spacing" textLength="140" x="856" y="112.7969">RegisterSkillController</text><line style="stroke:#181818;stroke-width:0.5;" x1="828" x2="998" y1="123" y2="123"/><line style="stroke:#181818;stroke-width:0.5;" x1="828" x2="998" y1="131" y2="131"/><text fill="#000000" font-family="sans-serif" font-size="14" lengthAdjust="spacing" textLength="158" x="833" y="150.1074">+RegisterSkillController()</text><text fill="#000000" font-family="sans-serif" font-size="14" lengthAdjust="spacing" textLength="126" x="833" y="168.7285">+registerSkill(name)</text></g><!--class RegisterSkillUI--><g id="elem_RegisterSkillUI"><rect codeLine="24" fill="#F1F1F1" height="48" id="RegisterSkillUI" rx="2.5" ry="2.5" style="stroke:#181818;stroke-width:0.5;" width="122" x="670" y="109.5"/><ellipse cx="685" cy="125.5" fill="#ADD1B2" rx="11" ry="11" style="stroke:#181818;stroke-width:1.0;"/><path d="M687.7656,121.375 Q687.9219,121.1563 688.1094,121.0469 Q688.2969,120.9375 688.5156,120.9375 Q688.8906,120.9375 689.125,121.2031 Q689.3594,121.4531 689.3594,122.0625 L689.3594,123.5156 Q689.3594,124.125 689.125,124.3906 Q688.8906,124.6563 688.5156,124.6563 Q688.1719,124.6563 687.9688,124.4531 Q687.7656,124.2656 687.6563,123.75 Q687.6094,123.3906 687.4219,123.2031 Q687.0938,122.8281 686.4844,122.6094 Q685.875,122.3906 685.25,122.3906 Q684.4844,122.3906 683.8438,122.7188 Q683.2188,123.0469 682.7188,123.7969 Q682.2344,124.5469 682.2344,125.5781 L682.2344,126.6719 Q682.2344,127.9063 683.125,128.7344 Q684.0156,129.5469 685.6094,129.5469 Q686.5469,129.5469 687.2031,129.2969 Q687.5938,129.1406 688.0156,128.7031 Q688.2813,128.4375 688.4219,128.3594 Q688.5781,128.2813 688.7813,128.2813 Q689.1094,128.2813 689.3594,128.5469 Q689.625,128.7969 689.625,129.1406 Q689.625,129.4844 689.2813,129.8906 Q688.7813,130.4688 687.9844,130.7969 Q686.9063,131.25 685.6094,131.25 Q684.0938,131.25 682.8906,130.625 Q681.9063,130.125 681.2188,129.0625 Q680.5313,127.9844 680.5313,126.7031 L680.5313,125.5469 Q680.5313,124.2188 681.1406,123.0781 Q681.7656,121.9219 682.8594,121.3125 Q683.9531,120.6875 685.1875,120.6875 Q685.9219,120.6875 686.5625,120.8594 Q687.2188,121.0156 687.7656,121.375 Z " fill="#000000"/><text fill="#000000" font-family="sans-serif" font-size="14" lengthAdjust="spacing" textLength="90" x="699" y="131.2969">RegisterSkillUI</text><line style="stroke:#181818;stroke-width:0.5;" x1="671" x2="791" y1="141.5" y2="141.5"/><line style="stroke:#181818;stroke-width:0.5;" x1="671" x2="791" y1="149.5" y2="149.5"/></g><!--class Collaborator--><g id="elem_Collaborator"><rect codeLine="27" fill="#F1F1F1" height="252.832" id="Collaborator" rx="2.5" ry="2.5" style="stroke:#181818;stroke-width:0.5;" width="628" x="7" y="7"/><ellipse cx="277.75" cy="23" fill="#ADD1B2" rx="11" ry="11" style="stroke:#181818;stroke-width:1.0;"/><path d="M280.5156,18.875 Q280.6719,18.6563 280.8594,18.5469 Q281.0469,18.4375 281.2656,18.4375 Q281.6406,18.4375 281.875,18.7031 Q282.1094,18.9531 282.1094,19.5625 L282.1094,21.0156 Q282.1094,21.625 281.875,21.8906 Q281.6406,22.1563 281.2656,22.1563 Q280.9219,22.1563 280.7188,21.9531 Q280.5156,21.7656 280.4063,21.25 Q280.3594,20.8906 280.1719,20.7031 Q279.8438,20.3281 279.2344,20.1094 Q278.625,19.8906 278,19.8906 Q277.2344,19.8906 276.5938,20.2188 Q275.9688,20.5469 275.4688,21.2969 Q274.9844,22.0469 274.9844,23.0781 L274.9844,24.1719 Q274.9844,25.4063 275.875,26.2344 Q276.7656,27.0469 278.3594,27.0469 Q279.2969,27.0469 279.9531,26.7969 Q280.3438,26.6406 280.7656,26.2031 Q281.0313,25.9375 281.1719,25.8594 Q281.3281,25.7813 281.5313,25.7813 Q281.8594,25.7813 282.1094,26.0469 Q282.375,26.2969 282.375,26.6406 Q282.375,26.9844 282.0313,27.3906 Q281.5313,27.9688 280.7344,28.2969 Q279.6563,28.75 278.3594,28.75 Q276.8438,28.75 275.6406,28.125 Q274.6563,27.625 273.9688,26.5625 Q273.2813,25.4844 273.2813,24.2031 L273.2813,23.0469 Q273.2813,21.7188 273.8906,20.5781 Q274.5156,19.4219 275.6094,18.8125 Q276.7031,18.1875 277.9375,18.1875 Q278.6719,18.1875 279.3125,18.3594 Q279.9688,18.5156 280.5156,18.875 Z " fill="#000000"/><text fill="#000000" font-family="sans-serif" font-size="14" lengthAdjust="spacing" textLength="78" x="298.25" y="28.7969">Collaborator</text><line style="stroke:#181818;stroke-width:0.5;" x1="8" x2="634" y1="39" y2="39"/><text fill="#000000" font-family="sans-serif" font-size="14" lengthAdjust="spacing" textLength="81" x="13" y="58.1074">-String name</text><text fill="#000000" font-family="sans-serif" font-size="14" lengthAdjust="spacing" textLength="95" x="13" y="76.7285">-List&lt;Skill&gt; skill</text><text fill="#000000" font-family="sans-serif" font-size="14" lengthAdjust="spacing" textLength="50" x="13" y="95.3496">-Job job</text><text fill="#000000" font-family="sans-serif" font-size="14" lengthAdjust="spacing" textLength="111" x="13" y="113.9707">-Date dateOfBirth</text><text fill="#000000" font-family="sans-serif" font-size="14" lengthAdjust="spacing" textLength="132" x="13" y="132.5918">-Date admissionDate</text><text fill="#000000" font-family="sans-serif" font-size="14" lengthAdjust="spacing" textLength="112" x="13" y="151.2129">-Address address</text><text fill="#000000" font-family="sans-serif" font-size="14" lengthAdjust="spacing" textLength="113" x="13" y="169.834">-int phoneNumber</text><text fill="#000000" font-family="sans-serif" font-size="14" lengthAdjust="spacing" textLength="79" x="13" y="188.4551">-String email</text><text fill="#000000" font-family="sans-serif" font-size="14" lengthAdjust="spacing" textLength="38" x="13" y="207.0762">-int cc</text><text fill="#000000" font-family="sans-serif" font-size="14" lengthAdjust="spacing" textLength="101" x="13" y="225.6973">-int cardNumber</text><line style="stroke:#181818;stroke-width:0.5;" x1="8" x2="634" y1="233.2109" y2="233.2109"/><text fill="#000000" font-family="sans-serif" font-size="14" lengthAdjust="spacing" textLength="616" x="13" y="252.3184">+Collaborator(name, dateOfBirth, admissionDate, address, phoneNumber, email, cc, cardNumber)</text></g><!--class HumanResourcesManager--><g id="elem_HumanResourcesManager"><rect codeLine="42" fill="#F1F1F1" height="48" id="HumanResourcesManager" rx="2.5" ry="2.5" style="stroke:#181818;stroke-width:0.5;" width="200" x="461" y="376"/><ellipse cx="476" cy="392" fill="#ADD1B2" rx="11" ry="11" style="stroke:#181818;stroke-width:1.0;"/><path d="M478.7656,387.875 Q478.9219,387.6563 479.1094,387.5469 Q479.2969,387.4375 479.5156,387.4375 Q479.8906,387.4375 480.125,387.7031 Q480.3594,387.9531 480.3594,388.5625 L480.3594,390.0156 Q480.3594,390.625 480.125,390.8906 Q479.8906,391.1563 479.5156,391.1563 Q479.1719,391.1563 478.9688,390.9531 Q478.7656,390.7656 478.6563,390.25 Q478.6094,389.8906 478.4219,389.7031 Q478.0938,389.3281 477.4844,389.1094 Q476.875,388.8906 476.25,388.8906 Q475.4844,388.8906 474.8438,389.2188 Q474.2188,389.5469 473.7188,390.2969 Q473.2344,391.0469 473.2344,392.0781 L473.2344,393.1719 Q473.2344,394.4063 474.125,395.2344 Q475.0156,396.0469 476.6094,396.0469 Q477.5469,396.0469 478.2031,395.7969 Q478.5938,395.6406 479.0156,395.2031 Q479.2813,394.9375 479.4219,394.8594 Q479.5781,394.7813 479.7813,394.7813 Q480.1094,394.7813 480.3594,395.0469 Q480.625,395.2969 480.625,395.6406 Q480.625,395.9844 480.2813,396.3906 Q479.7813,396.9688 478.9844,397.2969 Q477.9063,397.75 476.6094,397.75 Q475.0938,397.75 473.8906,397.125 Q472.9063,396.625 472.2188,395.5625 Q471.5313,394.4844 471.5313,393.2031 L471.5313,392.0469 Q471.5313,390.7188 472.1406,389.5781 Q472.7656,388.4219 473.8594,387.8125 Q474.9531,387.1875 476.1875,387.1875 Q476.9219,387.1875 477.5625,387.3594 Q478.2188,387.5156 478.7656,387.875 Z " fill="#000000"/><text fill="#000000" font-family="sans-serif" font-size="14" lengthAdjust="spacing" textLength="168" x="490" y="397.7969">HumanResourcesManager</text><line style="stroke:#181818;stroke-width:0.5;" x1="462" x2="660" y1="408" y2="408"/><line style="stroke:#181818;stroke-width:0.5;" x1="462" x2="660" y1="416" y2="416"/></g><!--class Repositories--><g id="elem_Repositories"><rect codeLine="45" fill="#F1F1F1" height="103.8633" id="Repositories" rx="2.5" ry="2.5" style="stroke:#181818;stroke-width:0.5;" width="194" x="1103" y="81.5"/><ellipse cx="1156.25" cy="97.5" fill="#ADD1B2" rx="11" ry="11" style="stroke:#181818;stroke-width:1.0;"/><path d="M1159.0156,93.375 Q1159.1719,93.1563 1159.3594,93.0469 Q1159.5469,92.9375 1159.7656,92.9375 Q1160.1406,92.9375 1160.375,93.2031 Q1160.6094,93.4531 1160.6094,94.0625 L1160.6094,95.5156 Q1160.6094,96.125 1160.375,96.3906 Q1160.1406,96.6563 1159.7656,96.6563 Q1159.4219,96.6563 1159.2188,96.4531 Q1159.0156,96.2656 1158.9063,95.75 Q1158.8594,95.3906 1158.6719,95.2031 Q1158.3438,94.8281 1157.7344,94.6094 Q1157.125,94.3906 1156.5,94.3906 Q1155.7344,94.3906 1155.0938,94.7188 Q1154.4688,95.0469 1153.9688,95.7969 Q1153.4844,96.5469 1153.4844,97.5781 L1153.4844,98.6719 Q1153.4844,99.9063 1154.375,100.7344 Q1155.2656,101.5469 1156.8594,101.5469 Q1157.7969,101.5469 1158.4531,101.2969 Q1158.8438,101.1406 1159.2656,100.7031 Q1159.5313,100.4375 1159.6719,100.3594 Q1159.8281,100.2813 1160.0313,100.2813 Q1160.3594,100.2813 1160.6094,100.5469 Q1160.875,100.7969 1160.875,101.1406 Q1160.875,101.4844 1160.5313,101.8906 Q1160.0313,102.4688 1159.2344,102.7969 Q1158.1563,103.25 1156.8594,103.25 Q1155.3438,103.25 1154.1406,102.625 Q1153.1563,102.125 1152.4688,101.0625 Q1151.7813,99.9844 1151.7813,98.7031 L1151.7813,97.5469 Q1151.7813,96.2188 1152.3906,95.0781 Q1153.0156,93.9219 1154.1094,93.3125 Q1155.2031,92.6875 1156.4375,92.6875 Q1157.1719,92.6875 1157.8125,92.8594 Q1158.4688,93.0156 1159.0156,93.375 Z " fill="#000000"/><text fill="#000000" font-family="sans-serif" font-size="14" lengthAdjust="spacing" textLength="79" x="1176.75" y="103.2969">Repositories</text><line style="stroke:#181818;stroke-width:0.5;" x1="1104" x2="1296" y1="113.5" y2="113.5"/><line style="stroke:#181818;stroke-width:0.5;" x1="1104" x2="1296" y1="121.5" y2="121.5"/><text fill="#000000" font-family="sans-serif" font-size="14" lengthAdjust="spacing" textLength="94" x="1109" y="140.6074">-Repositories()</text><text fill="#000000" font-family="sans-serif" font-size="14" lengthAdjust="spacing" textLength="182" x="1109" y="159.2285">+getInstance() : Repositories</text><text fill="#000000" font-family="sans-serif" font-size="14" lengthAdjust="spacing" textLength="131" x="1109" y="177.8496">+getSkillRepository()</text></g><!--class skillRepository--><g id="elem_skillRepository"><rect codeLine="52" fill="#F1F1F1" height="122.4844" id="skillRepository" rx="2.5" ry="2.5" style="stroke:#181818;stroke-width:0.5;" width="130" x="1044" y="339"/><ellipse cx="1062.15" cy="355" fill="#ADD1B2" rx="11" ry="11" style="stroke:#181818;stroke-width:1.0;"/><path d="M1064.9156,350.875 Q1065.0719,350.6563 1065.2594,350.5469 Q1065.4469,350.4375 1065.6656,350.4375 Q1066.0406,350.4375 1066.275,350.7031 Q1066.5094,350.9531 1066.5094,351.5625 L1066.5094,353.0156 Q1066.5094,353.625 1066.275,353.8906 Q1066.0406,354.1563 1065.6656,354.1563 Q1065.3219,354.1563 1065.1188,353.9531 Q1064.9156,353.7656 1064.8063,353.25 Q1064.7594,352.8906 1064.5719,352.7031 Q1064.2438,352.3281 1063.6344,352.1094 Q1063.025,351.8906 1062.4,351.8906 Q1061.6344,351.8906 1060.9938,352.2188 Q1060.3688,352.5469 1059.8688,353.2969 Q1059.3844,354.0469 1059.3844,355.0781 L1059.3844,356.1719 Q1059.3844,357.4063 1060.275,358.2344 Q1061.1656,359.0469 1062.7594,359.0469 Q1063.6969,359.0469 1064.3531,358.7969 Q1064.7438,358.6406 1065.1656,358.2031 Q1065.4313,357.9375 1065.5719,357.8594 Q1065.7281,357.7813 1065.9313,357.7813 Q1066.2594,357.7813 1066.5094,358.0469 Q1066.775,358.2969 1066.775,358.6406 Q1066.775,358.9844 1066.4313,359.3906 Q1065.9313,359.9688 1065.1344,360.2969 Q1064.0563,360.75 1062.7594,360.75 Q1061.2438,360.75 1060.0406,360.125 Q1059.0563,359.625 1058.3688,358.5625 Q1057.6813,357.4844 1057.6813,356.2031 L1057.6813,355.0469 Q1057.6813,353.7188 1058.2906,352.5781 Q1058.9156,351.4219 1060.0094,350.8125 Q1061.1031,350.1875 1062.3375,350.1875 Q1063.0719,350.1875 1063.7125,350.3594 Q1064.3688,350.5156 1064.9156,350.875 Z " fill="#000000"/><text fill="#000000" font-family="sans-serif" font-size="14" lengthAdjust="spacing" textLength="91" x="1076.85" y="360.7969">skillRepository</text><line style="stroke:#181818;stroke-width:0.5;" x1="1045" x2="1173" y1="371" y2="371"/><text fill="#000000" font-family="sans-serif" font-size="14" lengthAdjust="spacing" textLength="99" x="1050" y="390.1074">-List &lt;Skill&gt; skill</text><line style="stroke:#181818;stroke-width:0.5;" x1="1045" x2="1173" y1="397.6211" y2="397.6211"/><text fill="#000000" font-family="sans-serif" font-size="14" lengthAdjust="spacing" textLength="89" x="1050" y="416.7285">-addSkill(Skill)</text><text fill="#000000" font-family="sans-serif" font-size="14" lengthAdjust="spacing" textLength="114" x="1050" y="435.3496">-validateSkill(Skill)</text><text fill="#000000" font-family="sans-serif" font-size="14" lengthAdjust="spacing" textLength="118" x="1050" y="453.9707">+createSkill(name)</text></g><!--link RegisterSkillController to Repositories--><g id="link_RegisterSkillController_Repositories"><path codeLine="60" d="M999.11,133.5 C1031.8,133.5 1063.25,133.5 1096.89,133.5 " fill="none" id="RegisterSkillController-to-Repositories" style="stroke:#181818;stroke-width:1.0;stroke-dasharray:7.0,7.0;"/><polygon fill="#181818" points="1102.89,133.5,1093.89,129.5,1097.89,133.5,1093.89,137.5,1102.89,133.5" style="stroke:#181818;stroke-width:1.0;"/><text fill="#000000" font-family="sans-serif" font-size="13" lengthAdjust="spacing" textLength="67" x="1017.5" y="126.5283">repositories</text></g><!--link RegisterSkillUI to RegisterSkillController--><g id="link_RegisterSkillUI_RegisterSkillController"><path codeLine="61" d="M792.05,133.5 C794.8,133.5 805.64,133.5 820.82,133.5 " fill="none" id="RegisterSkillUI-to-RegisterSkillController" style="stroke:#181818;stroke-width:1.0;stroke-dasharray:7.0,7.0;"/><polygon fill="#181818" points="826.82,133.5,817.82,129.5,821.82,133.5,817.82,137.5,826.82,133.5" style="stroke:#181818;stroke-width:1.0;"/></g><!--link Repositories to Repositories--><g id="link_Repositories_Repositories"><path codeLine="62" d="M1297.28,103.47 C1317.48,106.63 1332,116.64 1332,133.5 C1332,150.36 1323.4079,159.4427 1303.2079,162.6027 " fill="none" id="Repositories-to-Repositories" style="stroke:#181818;stroke-width:1.0;"/><polygon fill="#181818" points="1297.28,163.53,1306.7901,166.0909,1302.2199,162.7572,1305.5536,158.1871,1297.28,163.53" style="stroke:#181818;stroke-width:1.0;"/><text fill="#000000" font-family="sans-serif" font-size="13" lengthAdjust="spacing" textLength="49" x="1338" y="139.0283">instance</text></g><!--link Repositories to skillRepository--><g id="link_Repositories_skillRepository"><path codeLine="63" d="M1182.35,185.81 C1167.31,229.53 1147.6222,286.7465 1131.7422,332.8965 " fill="none" id="Repositories-to-skillRepository" style="stroke:#181818;stroke-width:1.0;"/><polygon fill="#181818" points="1129.79,338.57,1136.5007,331.3612,1131.4169,333.8421,1128.936,328.7582,1129.79,338.57" style="stroke:#181818;stroke-width:1.0;"/><text fill="#000000" font-family="sans-serif" font-size="13" lengthAdjust="spacing" textLength="85" x="1148" y="305.0283">skillRepository</text><text fill="#000000" font-family="sans-serif" font-size="13" lengthAdjust="spacing" textLength="7" x="1124.6811" y="327.9392">1</text></g><!--link skillRepository to Skill--><g id="link_skillRepository_Skill"><path codeLine="64" d="M1043.88,444.11 C996.41,475.54 937.4429,514.5778 890.3929,545.7278 " fill="none" id="skillRepository-to-Skill" style="stroke:#181818;stroke-width:1.0;"/><polygon fill="#181818" points="885.39,549.04,895.1025,547.4069,889.5591,546.2798,890.6862,540.7364,885.39,549.04" style="stroke:#181818;stroke-width:1.0;"/><text fill="#000000" font-family="sans-serif" font-size="13" lengthAdjust="spacing" textLength="23" x="967" y="506.0283">skill</text><text fill="#000000" font-family="sans-serif" font-size="13" lengthAdjust="spacing" textLength="7" x="1028.9458" y="445.2445">1</text><text fill="#000000" font-family="sans-serif" font-size="13" lengthAdjust="spacing" textLength="5" x="893.0085" y="540.143">*</text></g><!--reverse link Collaborator to HumanResourcesManager--><g id="link_Collaborator_HumanResourcesManager"><path codeLine="65" d="M447.1254,273.5005 C487.2754,317.7505 516.23,349.66 540.13,376 " fill="none" id="Collaborator-backto-HumanResourcesManager" style="stroke:#181818;stroke-width:1.0;"/><polygon fill="none" points="435.03,260.17,442.6819,277.5323,451.5689,269.4687,435.03,260.17" style="stroke:#181818;stroke-width:1.0;"/></g><!--link RegisterSkillController to Skill--><g id="link_RegisterSkillController_Skill"><path codeLine="66" d="M904.68,176.22 C887.97,260.08 851.5126,442.9357 833.3626,534.0157 " fill="none" id="RegisterSkillController-to-Skill" style="stroke:#181818;stroke-width:1.0;stroke-dasharray:7.0,7.0;"/><polygon fill="#181818" points="832.19,539.9,837.8718,531.8553,833.1672,534.9964,830.026,530.2918,832.19,539.9" style="stroke:#181818;stroke-width:1.0;"/><text fill="#000000" font-family="sans-serif" font-size="13" lengthAdjust="spacing" textLength="23" x="874" y="405.5283">skill</text><text fill="#000000" font-family="sans-serif" font-size="13" lengthAdjust="spacing" textLength="7" x="826.089" y="528.8139">1</text></g><!--reverse link HumanResourcesManager to Skill--><g id="link_HumanResourcesManager_Skill"><path codeLine="67" d="M591.5806,428.0993 C627.6806,460.0893 684,510 684,510 C684,510 722.38,532.53 758.65,553.82 " fill="none" id="HumanResourcesManager-backto-Skill" style="stroke:#181818;stroke-width:1.0;"/><polygon fill="#181818" points="587.09,424.12,591.173,433.0827,590.8321,427.4361,596.4787,427.0953,587.09,424.12" style="stroke:#181818;stroke-width:1.0;"/><text fill="#000000" font-family="sans-serif" font-size="13" lengthAdjust="spacing" textLength="59" x="685" y="506.0283">createdBy</text></g><!--link Collaborator to Skill--><g id="link_Collaborator_Skill"><path codeLine="68" d="M540.23,260.08 C614.02,302.35 678,339 678,339 C678,339 747.6028,460.8108 789.7128,534.4908 " fill="none" id="Collaborator-to-Skill" style="stroke:#181818;stroke-width:1.0;"/><polygon fill="#181818" points="792.69,539.7,791.697,529.9013,790.209,535.359,784.7514,533.8709,792.69,539.7" style="stroke:#181818;stroke-width:1.0;"/><text fill="#000000" font-family="sans-serif" font-size="13" lengthAdjust="spacing" textLength="30" x="749" y="405.5283">skills</text><text fill="#000000" font-family="sans-serif" font-size="13" lengthAdjust="spacing" textLength="5" x="547.7597" y="281.9309">*</text><text fill="#000000" font-family="sans-serif" font-size="13" lengthAdjust="spacing" textLength="5" x="783.4155" y="528.5871">*</text></g><!--SRC=[VLFBZjim3BphAuXSuhJsehq6mGAxsqDJz04aw0V8CcEhaIL3abkuZt-lB3yY9Sxc45laS3YancjpvhAXcjPGAwbOfLMDO7MBv99fA3lJ4e-s4mWQcQMo5270LBHGlxWiuKI52JE2IxHTWz0eqVK7ibv8AcqL2QgOeCOyMQjvtbhSCoMF_3V2EqBM0ayMh0BDoyf2mNivN4b2V0qSprm8-4F0_J8uEWOdIj8QoHZwIGKlg4KFJFp_ngVU3hL93zwGVnFX0KjkB6gVV57IQYK4QjTYhBe3I2PM7UPVPV- -TwnpwiNHq5nfQfMU1WhdyO7FhdhdYn_1z8yX_4dby4Fbm-63cnRwaR-TdhcsLH2bHSsDSUlhJqFygIWqklPqU0v1BYqqbPBujQrpr94Oh2aN5nXZmJlLnLWnBYCSokyY3PMbiQ1q4f66pTEXO-ewfK67OAaVsvhA0nhLQeRc2vNEkpfSxG4RPRYJmD5C5vb5qVdsIhHxQPpX6IORs4QW2yJVm9pgaa2CYLEpDVkRW_ZgnemR-iQSh_gMQPmJix_k-VRXCHv_wmmQZ7HjI0zVP28HJNP3oyUrNU4SSFL-TREMxNM4N2FwAb_zPZL-vMCDYRuKsFtDCbZsmFsbF0ogOjvb7-rwUW_SZfildhjOGoznKQeX_m40]--></g></svg>