<?xml version="1.0" encoding="us-ascii" standalone="no"?><svg xmlns="http://www.w3.org/2000/svg" xmlns:xlink="http://www.w3.org/1999/xlink" contentStyleType="text/css" height="722px" preserveAspectRatio="none" style="width:642px;height:722px;background:#FFFFFF;" version="1.1" viewBox="0 0 642 722" width="642px" zoomAndPan="magnify"><defs/><g><!--class Skill--><g id="elem_Skill"><rect codeLine="11" fill="#F1F1F1" height="85.2422" id="Skill" rx="2.5" ry="2.5" style="stroke:#181818;stroke-width:0.5;" width="93" x="283.5" y="630"/><ellipse cx="314.7" cy="646" fill="#ADD1B2" rx="11" ry="11" style="stroke:#181818;stroke-width:1.0;"/><path d="M317.4656,641.875 Q317.6219,641.6563 317.8094,641.5469 Q317.9969,641.4375 318.2156,641.4375 Q318.5906,641.4375 318.825,641.7031 Q319.0594,641.9531 319.0594,642.5625 L319.0594,644.0156 Q319.0594,644.625 318.825,644.8906 Q318.5906,645.1563 318.2156,645.1563 Q317.8719,645.1563 317.6688,644.9531 Q317.4656,644.7656 317.3563,644.25 Q317.3094,643.8906 317.1219,643.7031 Q316.7938,643.3281 316.1844,643.1094 Q315.575,642.8906 314.95,642.8906 Q314.1844,642.8906 313.5438,643.2188 Q312.9188,643.5469 312.4188,644.2969 Q311.9344,645.0469 311.9344,646.0781 L311.9344,647.1719 Q311.9344,648.4063 312.825,649.2344 Q313.7156,650.0469 315.3094,650.0469 Q316.2469,650.0469 316.9031,649.7969 Q317.2938,649.6406 317.7156,649.2031 Q317.9813,648.9375 318.1219,648.8594 Q318.2781,648.7813 318.4813,648.7813 Q318.8094,648.7813 319.0594,649.0469 Q319.325,649.2969 319.325,649.6406 Q319.325,649.9844 318.9813,650.3906 Q318.4813,650.9688 317.6844,651.2969 Q316.6063,651.75 315.3094,651.75 Q313.7938,651.75 312.5906,651.125 Q311.6063,650.625 310.9188,649.5625 Q310.2313,648.4844 310.2313,647.2031 L310.2313,646.0469 Q310.2313,644.7188 310.8406,643.5781 Q311.4656,642.4219 312.5594,641.8125 Q313.6531,641.1875 314.8875,641.1875 Q315.6219,641.1875 316.2625,641.3594 Q316.9188,641.5156 317.4656,641.875 Z " fill="#000000"/><text fill="#000000" font-family="sans-serif" font-size="14" lengthAdjust="spacing" textLength="25" x="332.3" y="651.7969">Skill</text><line style="stroke:#181818;stroke-width:0.5;" x1="284.5" x2="375.5" y1="662" y2="662"/><text fill="#000000" font-family="sans-serif" font-size="14" lengthAdjust="spacing" textLength="81" x="289.5" y="681.1074">-String name</text><line style="stroke:#181818;stroke-width:0.5;" x1="284.5" x2="375.5" y1="688.6211" y2="688.6211"/><text fill="#000000" font-family="sans-serif" font-size="14" lengthAdjust="spacing" textLength="78" x="289.5" y="707.7285">+Skill(name)</text></g><!--class Collaborator--><g id="elem_Collaborator"><rect codeLine="17" fill="#F1F1F1" height="271.4531" id="Collaborator" rx="2.5" ry="2.5" style="stroke:#181818;stroke-width:0.5;" width="628" x="7" y="171"/><ellipse cx="277.75" cy="187" fill="#ADD1B2" rx="11" ry="11" style="stroke:#181818;stroke-width:1.0;"/><path d="M280.5156,182.875 Q280.6719,182.6563 280.8594,182.5469 Q281.0469,182.4375 281.2656,182.4375 Q281.6406,182.4375 281.875,182.7031 Q282.1094,182.9531 282.1094,183.5625 L282.1094,185.0156 Q282.1094,185.625 281.875,185.8906 Q281.6406,186.1563 281.2656,186.1563 Q280.9219,186.1563 280.7188,185.9531 Q280.5156,185.7656 280.4063,185.25 Q280.3594,184.8906 280.1719,184.7031 Q279.8438,184.3281 279.2344,184.1094 Q278.625,183.8906 278,183.8906 Q277.2344,183.8906 276.5938,184.2188 Q275.9688,184.5469 275.4688,185.2969 Q274.9844,186.0469 274.9844,187.0781 L274.9844,188.1719 Q274.9844,189.4063 275.875,190.2344 Q276.7656,191.0469 278.3594,191.0469 Q279.2969,191.0469 279.9531,190.7969 Q280.3438,190.6406 280.7656,190.2031 Q281.0313,189.9375 281.1719,189.8594 Q281.3281,189.7813 281.5313,189.7813 Q281.8594,189.7813 282.1094,190.0469 Q282.375,190.2969 282.375,190.6406 Q282.375,190.9844 282.0313,191.3906 Q281.5313,191.9688 280.7344,192.2969 Q279.6563,192.75 278.3594,192.75 Q276.8438,192.75 275.6406,192.125 Q274.6563,191.625 273.9688,190.5625 Q273.2813,189.4844 273.2813,188.2031 L273.2813,187.0469 Q273.2813,185.7188 273.8906,184.5781 Q274.5156,183.4219 275.6094,182.8125 Q276.7031,182.1875 277.9375,182.1875 Q278.6719,182.1875 279.3125,182.3594 Q279.9688,182.5156 280.5156,182.875 Z " fill="#000000"/><text fill="#000000" font-family="sans-serif" font-size="14" lengthAdjust="spacing" textLength="78" x="298.25" y="192.7969">Collaborator</text><line style="stroke:#181818;stroke-width:0.5;" x1="8" x2="634" y1="203" y2="203"/><text fill="#000000" font-family="sans-serif" font-size="14" lengthAdjust="spacing" textLength="81" x="13" y="222.1074">-String name</text><text fill="#000000" font-family="sans-serif" font-size="14" lengthAdjust="spacing" textLength="111" x="13" y="240.7285">-Date dateOfBirth</text><text fill="#000000" font-family="sans-serif" font-size="14" lengthAdjust="spacing" textLength="132" x="13" y="259.3496">-Date admissionDate</text><text fill="#000000" font-family="sans-serif" font-size="14" lengthAdjust="spacing" textLength="97" x="13" y="277.9707">-String address</text><text fill="#000000" font-family="sans-serif" font-size="14" lengthAdjust="spacing" textLength="113" x="13" y="296.5918">-int phoneNumber</text><text fill="#000000" font-family="sans-serif" font-size="14" lengthAdjust="spacing" textLength="79" x="13" y="315.2129">-String email</text><text fill="#000000" font-family="sans-serif" font-size="14" lengthAdjust="spacing" textLength="38" x="13" y="333.834">-int cc</text><text fill="#000000" font-family="sans-serif" font-size="14" lengthAdjust="spacing" textLength="101" x="13" y="352.4551">-int cardNumber</text><line style="stroke:#181818;stroke-width:0.5;" x1="8" x2="634" y1="359.9688" y2="359.9688"/><text fill="#000000" font-family="sans-serif" font-size="14" lengthAdjust="spacing" textLength="87" x="13" y="379.0762">-addSkill(skill)</text><text fill="#000000" font-family="sans-serif" font-size="14" lengthAdjust="spacing" textLength="112" x="13" y="397.6973">-validateSkill(skill)</text><text fill="#000000" font-family="sans-serif" font-size="14" lengthAdjust="spacing" textLength="616" x="13" y="416.3184">+Collaborator(name, dateOfBirth, admissionDate, address, phoneNumber, email, cc, cardNumber)</text><text fill="#000000" font-family="sans-serif" font-size="14" lengthAdjust="spacing" textLength="126" x="13" y="434.9395">+registerSkill(name)</text></g><!--class RegisterSkillController--><g id="elem_RegisterSkillController"><rect codeLine="34" fill="#F1F1F1" height="85.2422" id="RegisterSkillController" rx="2.5" ry="2.5" style="stroke:#181818;stroke-width:0.5;" width="172" x="235" y="7"/><ellipse cx="250" cy="23" fill="#ADD1B2" rx="11" ry="11" style="stroke:#181818;stroke-width:1.0;"/><path d="M252.7656,18.875 Q252.9219,18.6563 253.1094,18.5469 Q253.2969,18.4375 253.5156,18.4375 Q253.8906,18.4375 254.125,18.7031 Q254.3594,18.9531 254.3594,19.5625 L254.3594,21.0156 Q254.3594,21.625 254.125,21.8906 Q253.8906,22.1563 253.5156,22.1563 Q253.1719,22.1563 252.9688,21.9531 Q252.7656,21.7656 252.6563,21.25 Q252.6094,20.8906 252.4219,20.7031 Q252.0938,20.3281 251.4844,20.1094 Q250.875,19.8906 250.25,19.8906 Q249.4844,19.8906 248.8438,20.2188 Q248.2188,20.5469 247.7188,21.2969 Q247.2344,22.0469 247.2344,23.0781 L247.2344,24.1719 Q247.2344,25.4063 248.125,26.2344 Q249.0156,27.0469 250.6094,27.0469 Q251.5469,27.0469 252.2031,26.7969 Q252.5938,26.6406 253.0156,26.2031 Q253.2813,25.9375 253.4219,25.8594 Q253.5781,25.7813 253.7813,25.7813 Q254.1094,25.7813 254.3594,26.0469 Q254.625,26.2969 254.625,26.6406 Q254.625,26.9844 254.2813,27.3906 Q253.7813,27.9688 252.9844,28.2969 Q251.9063,28.75 250.6094,28.75 Q249.0938,28.75 247.8906,28.125 Q246.9063,27.625 246.2188,26.5625 Q245.5313,25.4844 245.5313,24.2031 L245.5313,23.0469 Q245.5313,21.7188 246.1406,20.5781 Q246.7656,19.4219 247.8594,18.8125 Q248.9531,18.1875 250.1875,18.1875 Q250.9219,18.1875 251.5625,18.3594 Q252.2188,18.5156 252.7656,18.875 Z " fill="#000000"/><text fill="#000000" font-family="sans-serif" font-size="14" lengthAdjust="spacing" textLength="140" x="264" y="28.7969">RegisterSkillController</text><line style="stroke:#181818;stroke-width:0.5;" x1="236" x2="406" y1="39" y2="39"/><line style="stroke:#181818;stroke-width:0.5;" x1="236" x2="406" y1="47" y2="47"/><text fill="#000000" font-family="sans-serif" font-size="14" lengthAdjust="spacing" textLength="158" x="241" y="66.1074">+RegisterSkillController()</text><text fill="#000000" font-family="sans-serif" font-size="14" lengthAdjust="spacing" textLength="126" x="241" y="84.7285">+registerSkill(name)</text></g><!--class RegisterSkillUI--><g id="elem_RegisterSkillUI"><rect codeLine="39" fill="#F1F1F1" height="48" id="RegisterSkillUI" rx="2.5" ry="2.5" style="stroke:#181818;stroke-width:0.5;" width="122" x="78" y="25.5"/><ellipse cx="93" cy="41.5" fill="#ADD1B2" rx="11" ry="11" style="stroke:#181818;stroke-width:1.0;"/><path d="M95.7656,37.375 Q95.9219,37.1563 96.1094,37.0469 Q96.2969,36.9375 96.5156,36.9375 Q96.8906,36.9375 97.125,37.2031 Q97.3594,37.4531 97.3594,38.0625 L97.3594,39.5156 Q97.3594,40.125 97.125,40.3906 Q96.8906,40.6563 96.5156,40.6563 Q96.1719,40.6563 95.9688,40.4531 Q95.7656,40.2656 95.6563,39.75 Q95.6094,39.3906 95.4219,39.2031 Q95.0938,38.8281 94.4844,38.6094 Q93.875,38.3906 93.25,38.3906 Q92.4844,38.3906 91.8438,38.7188 Q91.2188,39.0469 90.7188,39.7969 Q90.2344,40.5469 90.2344,41.5781 L90.2344,42.6719 Q90.2344,43.9063 91.125,44.7344 Q92.0156,45.5469 93.6094,45.5469 Q94.5469,45.5469 95.2031,45.2969 Q95.5938,45.1406 96.0156,44.7031 Q96.2813,44.4375 96.4219,44.3594 Q96.5781,44.2813 96.7813,44.2813 Q97.1094,44.2813 97.3594,44.5469 Q97.625,44.7969 97.625,45.1406 Q97.625,45.4844 97.2813,45.8906 Q96.7813,46.4688 95.9844,46.7969 Q94.9063,47.25 93.6094,47.25 Q92.0938,47.25 90.8906,46.625 Q89.9063,46.125 89.2188,45.0625 Q88.5313,43.9844 88.5313,42.7031 L88.5313,41.5469 Q88.5313,40.2188 89.1406,39.0781 Q89.7656,37.9219 90.8594,37.3125 Q91.9531,36.6875 93.1875,36.6875 Q93.9219,36.6875 94.5625,36.8594 Q95.2188,37.0156 95.7656,37.375 Z " fill="#000000"/><text fill="#000000" font-family="sans-serif" font-size="14" lengthAdjust="spacing" textLength="90" x="107" y="47.2969">RegisterSkillUI</text><line style="stroke:#181818;stroke-width:0.5;" x1="79" x2="199" y1="57.5" y2="57.5"/><line style="stroke:#181818;stroke-width:0.5;" x1="79" x2="199" y1="65.5" y2="65.5"/></g><!--class HumanResourceManager--><g id="elem_HumanResourceManager"><rect fill="#F1F1F1" height="48" id="HumanResourceManager" rx="2.5" ry="2.5" style="stroke:#181818;stroke-width:0.5;" width="193" x="368.5" y="503"/><ellipse cx="383.5" cy="519" fill="#ADD1B2" rx="11" ry="11" style="stroke:#181818;stroke-width:1.0;"/><path d="M386.2656,514.875 Q386.4219,514.6563 386.6094,514.5469 Q386.7969,514.4375 387.0156,514.4375 Q387.3906,514.4375 387.625,514.7031 Q387.8594,514.9531 387.8594,515.5625 L387.8594,517.0156 Q387.8594,517.625 387.625,517.8906 Q387.3906,518.1563 387.0156,518.1563 Q386.6719,518.1563 386.4688,517.9531 Q386.2656,517.7656 386.1563,517.25 Q386.1094,516.8906 385.9219,516.7031 Q385.5938,516.3281 384.9844,516.1094 Q384.375,515.8906 383.75,515.8906 Q382.9844,515.8906 382.3438,516.2188 Q381.7188,516.5469 381.2188,517.2969 Q380.7344,518.0469 380.7344,519.0781 L380.7344,520.1719 Q380.7344,521.4063 381.625,522.2344 Q382.5156,523.0469 384.1094,523.0469 Q385.0469,523.0469 385.7031,522.7969 Q386.0938,522.6406 386.5156,522.2031 Q386.7813,521.9375 386.9219,521.8594 Q387.0781,521.7813 387.2813,521.7813 Q387.6094,521.7813 387.8594,522.0469 Q388.125,522.2969 388.125,522.6406 Q388.125,522.9844 387.7813,523.3906 Q387.2813,523.9688 386.4844,524.2969 Q385.4063,524.75 384.1094,524.75 Q382.5938,524.75 381.3906,524.125 Q380.4063,523.625 379.7188,522.5625 Q379.0313,521.4844 379.0313,520.2031 L379.0313,519.0469 Q379.0313,517.7188 379.6406,516.5781 Q380.2656,515.4219 381.3594,514.8125 Q382.4531,514.1875 383.6875,514.1875 Q384.4219,514.1875 385.0625,514.3594 Q385.7188,514.5156 386.2656,514.875 Z " fill="#000000"/><text fill="#000000" font-family="sans-serif" font-size="14" lengthAdjust="spacing" textLength="161" x="397.5" y="524.7969">HumanResourceManager</text><line style="stroke:#181818;stroke-width:0.5;" x1="369.5" x2="560.5" y1="535" y2="535"/><line style="stroke:#181818;stroke-width:0.5;" x1="369.5" x2="560.5" y1="543" y2="543"/></g><!--link RegisterSkillUI to RegisterSkillController--><g id="link_RegisterSkillUI_RegisterSkillController"><path codeLine="43" d="M200.05,49.5 C202.8,49.5 213.64,49.5 228.82,49.5 " fill="none" id="RegisterSkillUI-to-RegisterSkillController" style="stroke:#181818;stroke-width:1.0;stroke-dasharray:7.0,7.0;"/><polygon fill="#181818" points="234.82,49.5,225.82,45.5,229.82,49.5,225.82,53.5,234.82,49.5" style="stroke:#181818;stroke-width:1.0;"/></g><!--link RegisterSkillController to Collaborator--><g id="link_RegisterSkillController_Collaborator"><path codeLine="45" d="M321,92.04 C321,113.91 321,136.11 321,164.79 " fill="none" id="RegisterSkillController-to-Collaborator" style="stroke:#181818;stroke-width:1.0;stroke-dasharray:7.0,7.0;"/><polygon fill="#181818" points="321,170.79,325,161.79,321,165.79,317,161.79,321,170.79" style="stroke:#181818;stroke-width:1.0;"/><text fill="#000000" font-family="sans-serif" font-size="13" lengthAdjust="spacing" textLength="67" x="322" y="137.0283">collaborator</text><text fill="#000000" font-family="sans-serif" font-size="13" lengthAdjust="spacing" textLength="7" x="313.8086" y="159.9274">1</text></g><!--link Collaborator to Skill--><g id="link_Collaborator_Skill"><path codeLine="46" d="M319.62,442.21 C319.28,476.08 319,503 319,503 C319,503 319,551 319,551 C319,551 322.4657,588.9147 325.6357,623.7147 " fill="none" id="Collaborator-to-Skill" style="stroke:#181818;stroke-width:1.0;"/><polygon fill="#181818" points="326.18,629.69,329.3471,620.3642,325.7264,624.7106,321.38,621.09,326.18,629.69" style="stroke:#181818;stroke-width:1.0;"/><text fill="#000000" font-family="sans-serif" font-size="13" lengthAdjust="spacing" textLength="30" x="320" y="532.5283">skills</text><text fill="#000000" font-family="sans-serif" font-size="13" lengthAdjust="spacing" textLength="7" x="312.3379" y="464.5708">1</text><text fill="#000000" font-family="sans-serif" font-size="13" lengthAdjust="spacing" textLength="5" x="320.2123" y="618.8652">*</text></g><!--reverse link Collaborator to HumanResourceManager--><g id="link_Collaborator_HumanResourceManager"><path codeLine="47" d="M419.6428,457.1811 C435.0328,480.5411 439.45,487.23 449.65,502.71 " fill="none" id="Collaborator-backto-HumanResourceManager" style="stroke:#181818;stroke-width:1.0;"/><polygon fill="none" points="409.74,442.15,414.6324,460.4821,424.6532,453.8802,409.74,442.15" style="stroke:#181818;stroke-width:1.0;"/></g><!--reverse link HumanResourceManager to Skill--><g id="link_HumanResourceManager_Skill"><path codeLine="49" d="M439.1979,555.4293 C419.2179,576.6593 393.23,604.29 369.06,629.98 " fill="none" id="HumanResourceManager-backto-Skill" style="stroke:#181818;stroke-width:1.0;"/><polygon fill="#181818" points="443.31,551.06,434.229,554.8726,439.8833,554.7011,440.0548,560.3554,443.31,551.06" style="stroke:#181818;stroke-width:1.0;"/><text fill="#000000" font-family="sans-serif" font-size="13" lengthAdjust="spacing" textLength="59" x="415" y="596.0283">createdBy</text></g><!--SRC=[VLFDRjim3BxhAOXSaYvsiLwBei3Q7TR3Dg3P7e2H6Lk8B1aKtI7R-kwZdHYLstG-2DRtGtwKx6NQkz0XOmjj3D4s75i2uPxC2zEXtMDD6pbu0YOh66gV2rA3LVpbGWqxz2bdl0iaXuwWY_umRCpo31bPeibSrcDAdqJORNkX1nl3nlqc-6ZCqjDEG2Amgnk1oWrnN0p6Z1xOx9ttyCU0FYLij8A62jYI6Q7rKR0Qa0lpFBdke_UuZOmIUJBdtX7uZ49GwV9zT-TOcWp5gdKfQOnXDxDZLJ6bTCHS4EYQ6EXRtsw9Pq9gqVaNcRNPEt9rSfpcqgh7ETAmNfpG9_HkoFU6Miy678SlyacA-G35bBh8qnR7Y8L6Ax98KmUcsYKXpiztgKJ29_g1QRyINR8ZVyprzp48QqIQJd_z7h_wNx_pnNy-Q56bp6lqylQzBg-qMRnBDIsk5lClvXfijZKpRX2NfPe-B4uVvpMCLvFcEhZvMvO0N_eMmoEbsBEbhnZqjzCqvr2u6VHZIUtFf1TNtHsC-GS0]--></g></svg>