<?xml version="1.0" encoding="us-ascii" standalone="no"?><svg xmlns="http://www.w3.org/2000/svg" xmlns:xlink="http://www.w3.org/1999/xlink" contentStyleType="text/css" height="732px" preserveAspectRatio="none" style="width:919px;height:732px;background:#FFFFFF;" version="1.1" viewBox="0 0 919 732" width="919px" zoomAndPan="magnify"><defs/><g><rect fill="#FFFFFF" height="576.3164" style="stroke:#181818;stroke-width:1.0;" width="10" x="181" y="90.5332"/><rect fill="#FFFFFF" height="31.291" style="stroke:#181818;stroke-width:1.0;" width="10" x="329" y="148.1152"/><rect fill="#FFFFFF" height="31.291" style="stroke:#181818;stroke-width:1.0;" width="10" x="436" y="210.6973"/><rect fill="#FFFFFF" height="346.2793" style="stroke:#181818;stroke-width:1.0;" width="10" x="556" y="273.2793"/><rect fill="#FFFFFF" height="130.873" style="stroke:#181818;stroke-width:1.0;" width="10" x="561" y="450.3945"/><rect fill="#FFFFFF" height="42.291" style="stroke:#181818;stroke-width:1.0;" width="10" x="566" y="494.6855"/><rect fill="#FFFFFF" height="96.5332" style="stroke:#181818;stroke-width:1.0;" width="10" x="738" y="314.5703"/><rect fill="none" height="522.0254" style="stroke:#000000;stroke-width:1.5;" width="826.5" x="86.5" y="105.5332"/><line style="stroke:#181818;stroke-width:0.5;stroke-dasharray:5.0,5.0;" x1="185.5" x2="185.5" y1="57.2422" y2="675.8496"/><line style="stroke:#181818;stroke-width:0.5;stroke-dasharray:5.0,5.0;" x1="333.5" x2="333.5" y1="57.2422" y2="675.8496"/><line style="stroke:#181818;stroke-width:0.5;stroke-dasharray:5.0,5.0;" x1="440.5" x2="440.5" y1="57.2422" y2="675.8496"/><line style="stroke:#181818;stroke-width:0.5;stroke-dasharray:5.0,5.0;" x1="560.5" x2="560.5" y1="57.2422" y2="675.8496"/><line style="stroke:#181818;stroke-width:0.5;stroke-dasharray:5.0,5.0;" x1="742.5" x2="742.5" y1="322.4004" y2="675.8496"/><rect fill="#E3E3E3" height="32.6211" rx="2.5" ry="2.5" style="stroke:#181818;stroke-width:0.5;" width="179" x="96.5" y="23.6211"/><text fill="#000000" font-family="sans-serif" font-size="14" lengthAdjust="spacing" textLength="165" x="103.5" y="45.7285">:RegisterVehicleController</text><rect fill="#E3E3E3" height="32.6211" rx="2.5" ry="2.5" style="stroke:#181818;stroke-width:0.5;" width="179" x="96.5" y="674.8496"/><text fill="#000000" font-family="sans-serif" font-size="14" lengthAdjust="spacing" textLength="165" x="103.5" y="696.957">:RegisterVehicleController</text><rect fill="#E3E3E3" height="32.6211" rx="2.5" ry="2.5" style="stroke:#181818;stroke-width:0.5;" width="97" x="285.5" y="23.6211"/><text fill="#000000" font-family="sans-serif" font-size="14" lengthAdjust="spacing" textLength="83" x="292.5" y="45.7285">:Repositories</text><rect fill="#E3E3E3" height="32.6211" rx="2.5" ry="2.5" style="stroke:#181818;stroke-width:0.5;" width="97" x="285.5" y="674.8496"/><text fill="#000000" font-family="sans-serif" font-size="14" lengthAdjust="spacing" textLength="83" x="292.5" y="696.957">:Repositories</text><rect fill="#E3E3E3" height="51.2422" rx="2.5" ry="2.5" style="stroke:#181818;stroke-width:0.5;" width="97" x="392.5" y="5"/><text fill="#000000" font-family="sans-serif" font-size="14" lengthAdjust="spacing" textLength="74" x="404" y="27.1074">repositories</text><text fill="#000000" font-family="sans-serif" font-size="14" lengthAdjust="spacing" textLength="83" x="399.5" y="45.7285">:Repositories</text><rect fill="#E3E3E3" height="51.2422" rx="2.5" ry="2.5" style="stroke:#181818;stroke-width:0.5;" width="97" x="392.5" y="674.8496"/><text fill="#000000" font-family="sans-serif" font-size="14" lengthAdjust="spacing" textLength="74" x="404" y="696.957">repositories</text><text fill="#000000" font-family="sans-serif" font-size="14" lengthAdjust="spacing" textLength="83" x="399.5" y="715.5781">:Repositories</text><rect fill="#E3E3E3" height="51.2422" rx="2.5" ry="2.5" style="stroke:#181818;stroke-width:0.5;" width="123" x="499.5" y="5"/><text fill="#000000" font-family="sans-serif" font-size="14" lengthAdjust="spacing" textLength="109" x="506.5" y="27.1074">brandRepository:</text><text fill="#000000" font-family="sans-serif" font-size="14" lengthAdjust="spacing" textLength="106" x="508" y="45.7285">BrandRepository</text><rect fill="#E3E3E3" height="51.2422" rx="2.5" ry="2.5" style="stroke:#181818;stroke-width:0.5;" width="123" x="499.5" y="674.8496"/><text fill="#000000" font-family="sans-serif" font-size="14" lengthAdjust="spacing" textLength="109" x="506.5" y="696.957">brandRepository:</text><text fill="#000000" font-family="sans-serif" font-size="14" lengthAdjust="spacing" textLength="106" x="508" y="715.5781">BrandRepository</text><rect fill="#E3E3E3" height="51.2422" rx="2.5" ry="2.5" style="stroke:#181818;stroke-width:0.5;" width="55" x="715.5" y="674.8496"/><text fill="#000000" font-family="sans-serif" font-size="14" lengthAdjust="spacing" textLength="41" x="722.5" y="696.957">brand:</text><text fill="#000000" font-family="sans-serif" font-size="14" lengthAdjust="spacing" textLength="38" x="724" y="715.5781">Brand</text><rect fill="#FFFFFF" height="576.3164" style="stroke:#181818;stroke-width:1.0;" width="10" x="181" y="90.5332"/><rect fill="#FFFFFF" height="31.291" style="stroke:#181818;stroke-width:1.0;" width="10" x="329" y="148.1152"/><rect fill="#FFFFFF" height="31.291" style="stroke:#181818;stroke-width:1.0;" width="10" x="436" y="210.6973"/><rect fill="#FFFFFF" height="346.2793" style="stroke:#181818;stroke-width:1.0;" width="10" x="556" y="273.2793"/><rect fill="#FFFFFF" height="130.873" style="stroke:#181818;stroke-width:1.0;" width="10" x="561" y="450.3945"/><rect fill="#FFFFFF" height="42.291" style="stroke:#181818;stroke-width:1.0;" width="10" x="566" y="494.6855"/><rect fill="#FFFFFF" height="96.5332" style="stroke:#181818;stroke-width:1.0;" width="10" x="738" y="314.5703"/><polygon fill="#181818" points="169,86.5332,179,90.5332,169,94.5332,173,90.5332" style="stroke:#181818;stroke-width:1.0;"/><line style="stroke:#181818;stroke-width:1.0;" x1="0" x2="175" y1="90.5332" y2="90.5332"/><text fill="#000000" font-family="sans-serif" font-size="13" font-weight="bold" lengthAdjust="spacing" textLength="14" x="7" y="85.2705">11</text><text fill="#000000" font-family="sans-serif" font-size="13" lengthAdjust="spacing" textLength="144" x="25" y="85.2705">createBrand(brandName)</text><path d="M86.5,105.5332 L260.5,105.5332 L260.5,114.8242 L250.5,124.8242 L86.5,124.8242 L86.5,105.5332 " fill="#EEEEEE" style="stroke:#000000;stroke-width:1.5;"/><rect fill="none" height="522.0254" style="stroke:#000000;stroke-width:1.5;" width="826.5" x="86.5" y="105.5332"/><text fill="#000000" font-family="sans-serif" font-size="13" font-weight="bold" lengthAdjust="spacing" textLength="129" x="101.5" y="120.5615">Create Brand Object</text><polygon fill="#181818" points="317,144.1152,327,148.1152,317,152.1152,321,148.1152" style="stroke:#181818;stroke-width:1.0;"/><line style="stroke:#181818;stroke-width:1.0;" x1="191" x2="323" y1="148.1152" y2="148.1152"/><text fill="#000000" font-family="sans-serif" font-size="13" font-weight="bold" lengthAdjust="spacing" textLength="25" x="198" y="142.8525">11.1</text><text fill="#000000" font-family="sans-serif" font-size="13" lengthAdjust="spacing" textLength="75" x="227" y="142.8525">getInstance()</text><polygon fill="#181818" points="202,175.4063,192,179.4063,202,183.4063,198,179.4063" style="stroke:#181818;stroke-width:1.0;"/><line style="stroke:#181818;stroke-width:1.0;stroke-dasharray:2.0,2.0;" x1="196" x2="333" y1="179.4063" y2="179.4063"/><text fill="#000000" font-family="sans-serif" font-size="13" font-weight="bold" lengthAdjust="spacing" textLength="25" x="208" y="174.1436">11.2</text><text fill="#000000" font-family="sans-serif" font-size="13" lengthAdjust="spacing" textLength="67" x="237" y="174.1436">repositories</text><polygon fill="#181818" points="424,206.6973,434,210.6973,424,214.6973,428,210.6973" style="stroke:#181818;stroke-width:1.0;"/><line style="stroke:#181818;stroke-width:1.0;" x1="191" x2="430" y1="210.6973" y2="210.6973"/><text fill="#000000" font-family="sans-serif" font-size="13" font-weight="bold" lengthAdjust="spacing" textLength="25" x="198" y="205.4346">11.3</text><text fill="#000000" font-family="sans-serif" font-size="13" lengthAdjust="spacing" textLength="122" x="227" y="205.4346">getBrandRepository()</text><polygon fill="#181818" points="202,237.9883,192,241.9883,202,245.9883,198,241.9883" style="stroke:#181818;stroke-width:1.0;"/><line style="stroke:#181818;stroke-width:1.0;stroke-dasharray:2.0,2.0;" x1="196" x2="440" y1="241.9883" y2="241.9883"/><text fill="#000000" font-family="sans-serif" font-size="13" font-weight="bold" lengthAdjust="spacing" textLength="25" x="208" y="236.7256">11.4</text><text fill="#000000" font-family="sans-serif" font-size="13" lengthAdjust="spacing" textLength="94" x="237" y="236.7256">brandRepository</text><polygon fill="#181818" points="544,269.2793,554,273.2793,544,277.2793,548,273.2793" style="stroke:#181818;stroke-width:1.0;"/><line style="stroke:#181818;stroke-width:1.0;" x1="191" x2="550" y1="273.2793" y2="273.2793"/><text fill="#000000" font-family="sans-serif" font-size="13" font-weight="bold" lengthAdjust="spacing" textLength="25" x="198" y="268.0166">11.5</text><text fill="#000000" font-family="sans-serif" font-size="13" lengthAdjust="spacing" textLength="151" x="227" y="268.0166">registerBrand(brandName)</text><polygon fill="#181818" points="703.5,300.5703,713.5,304.5703,703.5,308.5703,707.5,304.5703" style="stroke:#181818;stroke-width:1.0;"/><line style="stroke:#181818;stroke-width:1.0;" x1="566" x2="709.5" y1="304.5703" y2="304.5703"/><text fill="#000000" font-family="sans-serif" font-size="13" font-weight="bold" lengthAdjust="spacing" textLength="25" x="573" y="299.3076">11.6</text><text fill="#000000" font-family="sans-serif" font-size="13" lengthAdjust="spacing" textLength="76" x="602" y="299.3076">create(name)</text><rect fill="#E3E3E3" height="51.2422" rx="2.5" ry="2.5" style="stroke:#181818;stroke-width:0.5;" width="55" x="715.5" y="281.2793"/><text fill="#000000" font-family="sans-serif" font-size="14" lengthAdjust="spacing" textLength="41" x="722.5" y="303.3867">brand:</text><text fill="#000000" font-family="sans-serif" font-size="14" lengthAdjust="spacing" textLength="38" x="724" y="322.0078">Brand</text><line style="stroke:#181818;stroke-width:1.0;" x1="748" x2="790" y1="366.8125" y2="366.8125"/><line style="stroke:#181818;stroke-width:1.0;" x1="790" x2="790" y1="366.8125" y2="379.8125"/><line style="stroke:#181818;stroke-width:1.0;" x1="749" x2="790" y1="379.8125" y2="379.8125"/><polygon fill="#181818" points="759,375.8125,749,379.8125,759,383.8125,755,379.8125" style="stroke:#181818;stroke-width:1.0;"/><text fill="#000000" font-family="sans-serif" font-size="13" font-weight="bold" lengthAdjust="spacing" textLength="25" x="755" y="361.5498">11.7</text><text fill="#000000" font-family="sans-serif" font-size="13" lengthAdjust="spacing" textLength="117" x="784" y="361.5498">validateBrand(brand)</text><polygon fill="#181818" points="577,407.1035,567,411.1035,577,415.1035,573,411.1035" style="stroke:#181818;stroke-width:1.0;"/><line style="stroke:#181818;stroke-width:1.0;stroke-dasharray:2.0,2.0;" x1="571" x2="742" y1="411.1035" y2="411.1035"/><text fill="#000000" font-family="sans-serif" font-size="13" font-weight="bold" lengthAdjust="spacing" textLength="25" x="583" y="405.8408">11.8</text><text fill="#000000" font-family="sans-serif" font-size="13" lengthAdjust="spacing" textLength="32" x="612" y="405.8408">brand</text><line style="stroke:#181818;stroke-width:1.0;" x1="566" x2="613" y1="437.3945" y2="437.3945"/><line style="stroke:#181818;stroke-width:1.0;" x1="613" x2="613" y1="437.3945" y2="450.3945"/><line style="stroke:#181818;stroke-width:1.0;" x1="572" x2="613" y1="450.3945" y2="450.3945"/><polygon fill="#181818" points="582,446.3945,572,450.3945,582,454.3945,578,450.3945" style="stroke:#181818;stroke-width:1.0;"/><text fill="#000000" font-family="sans-serif" font-size="13" font-weight="bold" lengthAdjust="spacing" textLength="25" x="578" y="432.1318">11.9</text><text fill="#000000" font-family="sans-serif" font-size="13" lengthAdjust="spacing" textLength="95" x="607" y="432.1318">addBrand(brand)</text><line style="stroke:#181818;stroke-width:1.0;" x1="571" x2="618" y1="481.6855" y2="481.6855"/><line style="stroke:#181818;stroke-width:1.0;" x1="618" x2="618" y1="481.6855" y2="494.6855"/><line style="stroke:#181818;stroke-width:1.0;" x1="577" x2="618" y1="494.6855" y2="494.6855"/><polygon fill="#181818" points="587,490.6855,577,494.6855,587,498.6855,583,494.6855" style="stroke:#181818;stroke-width:1.0;"/><text fill="#000000" font-family="sans-serif" font-size="13" font-weight="bold" lengthAdjust="spacing" textLength="32" x="583" y="476.4229">11.10</text><text fill="#000000" font-family="sans-serif" font-size="13" lengthAdjust="spacing" textLength="117" x="619" y="476.4229">validateBrand(brand)</text><line style="stroke:#181818;stroke-width:1.0;stroke-dasharray:2.0,2.0;" x1="576" x2="618" y1="535.9766" y2="535.9766"/><line style="stroke:#181818;stroke-width:1.0;stroke-dasharray:2.0,2.0;" x1="618" x2="618" y1="535.9766" y2="548.9766"/><line style="stroke:#181818;stroke-width:1.0;stroke-dasharray:2.0,2.0;" x1="571" x2="618" y1="548.9766" y2="548.9766"/><polygon fill="#181818" points="581,544.9766,571,548.9766,581,552.9766,577,548.9766" style="stroke:#181818;stroke-width:1.0;"/><text fill="#000000" font-family="sans-serif" font-size="13" font-weight="bold" lengthAdjust="spacing" textLength="32" x="583" y="530.7139">11.11</text><text fill="#000000" font-family="sans-serif" font-size="13" lengthAdjust="spacing" textLength="53" x="619" y="530.7139">true/false</text><line style="stroke:#181818;stroke-width:1.0;stroke-dasharray:2.0,2.0;" x1="571" x2="613" y1="580.2676" y2="580.2676"/><line style="stroke:#181818;stroke-width:1.0;stroke-dasharray:2.0,2.0;" x1="613" x2="613" y1="580.2676" y2="593.2676"/><line style="stroke:#181818;stroke-width:1.0;stroke-dasharray:2.0,2.0;" x1="566" x2="613" y1="593.2676" y2="593.2676"/><polygon fill="#181818" points="576,589.2676,566,593.2676,576,597.2676,572,593.2676" style="stroke:#181818;stroke-width:1.0;"/><text fill="#000000" font-family="sans-serif" font-size="13" font-weight="bold" lengthAdjust="spacing" textLength="32" x="578" y="575.0049">11.12</text><text fill="#000000" font-family="sans-serif" font-size="13" lengthAdjust="spacing" textLength="53" x="614" y="575.0049">true/false</text><polygon fill="#181818" points="202,615.5586,192,619.5586,202,623.5586,198,619.5586" style="stroke:#181818;stroke-width:1.0;"/><line style="stroke:#181818;stroke-width:1.0;" x1="196" x2="560" y1="619.5586" y2="619.5586"/><text fill="#000000" font-family="sans-serif" font-size="13" font-weight="bold" lengthAdjust="spacing" textLength="32" x="208" y="614.2959">11.13</text><text fill="#000000" font-family="sans-serif" font-size="13" lengthAdjust="spacing" textLength="32" x="244" y="614.2959">brand</text><polygon fill="#181818" points="11,653.8496,1,657.8496,11,661.8496,7,657.8496" style="stroke:#181818;stroke-width:1.0;"/><line style="stroke:#181818;stroke-width:1.0;stroke-dasharray:2.0,2.0;" x1="5" x2="560" y1="657.8496" y2="657.8496"/><text fill="#000000" font-family="sans-serif" font-size="13" font-weight="bold" lengthAdjust="spacing" textLength="14" x="17" y="652.5869">12</text><text fill="#000000" font-family="sans-serif" font-size="13" lengthAdjust="spacing" textLength="32" x="35" y="652.5869">brand</text><!--SRC=[ZLJBJiCm4BpdArQSsae5bME4a6XFI1MWjEBKYvCigMbYHxPJrB_73npYFA0-HUkPsTb7B4-KrKIG2YhEU7OKl49Gei58jZSroKwam9swb0W2CqLOKNO1yaXo_aLP0H-ab1X5EgneHcl25Dp42HPKAXJlUAHPYHlEbE1bYU86Y8JDFjaE23MNL751KLfC6xZigCcjE0ifeiCuiA70s_Pf7p9IGLZ-gniVs3gCMDuw6M5vh4EOhoWYZVRKL2aAMAsYvQCjAuPC855eCJFBVI4LpdlmsrL4CaNF6kcw0VeKWZSrR2pV9O7Nz5CtFxBN1WSwpKXd88O2rJEJUauPpkOMxq-RQAob0TASCVLbMrotwG4rn-lJ-4BCX9pptXoc2h0Z7JYsCjwYrkkDUSfcAEOzhHCmLRhj7GvnO4blIv10yusAeImMVXbcB6I72cwR-bMv-Nkj6Cwaf7cuMFCfagyZ7Kft6j1B_ECyYO7aUP1bjEgHefChN4v9U1bltRn7T-vfcR8_qla_sFymm-sPO9a8-fvr_-Tx6tbOBhjzxsNy1W00]--></g></svg>