<?xml version="1.0" encoding="us-ascii" standalone="no"?><svg xmlns="http://www.w3.org/2000/svg" xmlns:xlink="http://www.w3.org/1999/xlink" contentStyleType="text/css" height="805.2px" preserveAspectRatio="none" style="width:987px;height:805px;background:#FFFFFF;" version="1.1" viewBox="0 0 987 805" width="987.8px" zoomAndPan="magnify"><defs/><g><rect fill="#FFFFFF" height="624.048" style="stroke:#181818;stroke-width:1.1;" width="11" x="191.4" y="99.5865"/><rect fill="#FFFFFF" height="34.4201" style="stroke:#181818;stroke-width:1.1;" width="11" x="354.2" y="162.9268"/><rect fill="#FFFFFF" height="34.4201" style="stroke:#181818;stroke-width:1.1;" width="11" x="471.9" y="231.767"/><rect fill="#FFFFFF" height="380.9072" style="stroke:#181818;stroke-width:1.1;" width="11" x="603.9" y="300.6072"/><rect fill="#FFFFFF" height="143.9604" style="stroke:#181818;stroke-width:1.1;" width="11" x="609.4" y="495.434"/><rect fill="#FFFFFF" height="46.5201" style="stroke:#181818;stroke-width:1.1;" width="11" x="614.9" y="544.1541"/><rect fill="#FFFFFF" height="106.1865" style="stroke:#181818;stroke-width:1.1;" width="11" x="796.4" y="346.0273"/><rect fill="none" height="574.2279" style="stroke:#000000;stroke-width:1.6500000000000001;" width="893.75" x="87.45" y="116.0865"/><line style="stroke:#181818;stroke-width:0.55;stroke-dasharray:5.0,5.0;" x1="196.35" x2="196.35" y1="62.9664" y2="743.4346"/><line style="stroke:#181818;stroke-width:0.55;stroke-dasharray:5.0,5.0;" x1="359.15" x2="359.15" y1="62.9664" y2="743.4346"/><line style="stroke:#181818;stroke-width:0.55;stroke-dasharray:5.0,5.0;" x1="476.85" x2="476.85" y1="62.9664" y2="743.4346"/><line style="stroke:#181818;stroke-width:0.55;stroke-dasharray:5.0,5.0;" x1="608.85" x2="608.85" y1="62.9664" y2="743.4346"/><line style="stroke:#181818;stroke-width:0.55;stroke-dasharray:5.0,5.0;" x1="801.35" x2="801.35" y1="354.6404" y2="743.4346"/><rect fill="#E3E3E3" height="35.8832" rx="2.75" ry="2.75" style="stroke:#181818;stroke-width:0.55;" width="196.9" x="98.45" y="25.9832"/><text fill="#000000" font-family="sans-serif" font-size="15.4" lengthAdjust="spacing" textLength="181.5" x="106.15" y="50.3014">:RegisterVehicleController</text><rect fill="#E3E3E3" height="35.8832" rx="2.75" ry="2.75" style="stroke:#181818;stroke-width:0.55;" width="196.9" x="98.45" y="742.3346"/><text fill="#000000" font-family="sans-serif" font-size="15.4" lengthAdjust="spacing" textLength="181.5" x="106.15" y="766.6527">:RegisterVehicleController</text><rect fill="#E3E3E3" height="35.8832" rx="2.75" ry="2.75" style="stroke:#181818;stroke-width:0.55;" width="106.7" x="306.35" y="25.9832"/><text fill="#000000" font-family="sans-serif" font-size="15.4" lengthAdjust="spacing" textLength="91.3" x="314.05" y="50.3014">:Repositories</text><rect fill="#E3E3E3" height="35.8832" rx="2.75" ry="2.75" style="stroke:#181818;stroke-width:0.55;" width="106.7" x="306.35" y="742.3346"/><text fill="#000000" font-family="sans-serif" font-size="15.4" lengthAdjust="spacing" textLength="91.3" x="314.05" y="766.6527">:Repositories</text><rect fill="#E3E3E3" height="56.3664" rx="2.75" ry="2.75" style="stroke:#181818;stroke-width:0.55;" width="106.7" x="424.05" y="5.5"/><text fill="#000000" font-family="sans-serif" font-size="15.4" lengthAdjust="spacing" textLength="81.4" x="436.7" y="29.8182">repositories</text><text fill="#000000" font-family="sans-serif" font-size="15.4" lengthAdjust="spacing" textLength="91.3" x="431.75" y="50.3014">:Repositories</text><rect fill="#E3E3E3" height="56.3664" rx="2.75" ry="2.75" style="stroke:#181818;stroke-width:0.55;" width="106.7" x="424.05" y="742.3346"/><text fill="#000000" font-family="sans-serif" font-size="15.4" lengthAdjust="spacing" textLength="81.4" x="436.7" y="766.6527">repositories</text><text fill="#000000" font-family="sans-serif" font-size="15.4" lengthAdjust="spacing" textLength="91.3" x="431.75" y="787.1359">:Repositories</text><rect fill="#E3E3E3" height="56.3664" rx="2.75" ry="2.75" style="stroke:#181818;stroke-width:0.55;" width="135.3" x="541.75" y="5.5"/><text fill="#000000" font-family="sans-serif" font-size="15.4" lengthAdjust="spacing" textLength="119.9" x="549.45" y="29.8182">brandRepository:</text><text fill="#000000" font-family="sans-serif" font-size="15.4" lengthAdjust="spacing" textLength="116.6" x="551.1" y="50.3014">BrandRepository</text><rect fill="#E3E3E3" height="56.3664" rx="2.75" ry="2.75" style="stroke:#181818;stroke-width:0.55;" width="135.3" x="541.75" y="742.3346"/><text fill="#000000" font-family="sans-serif" font-size="15.4" lengthAdjust="spacing" textLength="119.9" x="549.45" y="766.6527">brandRepository:</text><text fill="#000000" font-family="sans-serif" font-size="15.4" lengthAdjust="spacing" textLength="116.6" x="551.1" y="787.1359">BrandRepository</text><rect fill="#E3E3E3" height="56.3664" rx="2.75" ry="2.75" style="stroke:#181818;stroke-width:0.55;" width="60.5" x="771.65" y="742.3346"/><text fill="#000000" font-family="sans-serif" font-size="15.4" lengthAdjust="spacing" textLength="45.1" x="779.35" y="766.6527">brand:</text><text fill="#000000" font-family="sans-serif" font-size="15.4" lengthAdjust="spacing" textLength="41.8" x="781" y="787.1359">Brand</text><rect fill="#FFFFFF" height="624.048" style="stroke:#181818;stroke-width:1.1;" width="11" x="191.4" y="99.5865"/><rect fill="#FFFFFF" height="34.4201" style="stroke:#181818;stroke-width:1.1;" width="11" x="354.2" y="162.9268"/><rect fill="#FFFFFF" height="34.4201" style="stroke:#181818;stroke-width:1.1;" width="11" x="471.9" y="231.767"/><rect fill="#FFFFFF" height="380.9072" style="stroke:#181818;stroke-width:1.1;" width="11" x="603.9" y="300.6072"/><rect fill="#FFFFFF" height="143.9604" style="stroke:#181818;stroke-width:1.1;" width="11" x="609.4" y="495.434"/><rect fill="#FFFFFF" height="46.5201" style="stroke:#181818;stroke-width:1.1;" width="11" x="614.9" y="544.1541"/><rect fill="#FFFFFF" height="106.1865" style="stroke:#181818;stroke-width:1.1;" width="11" x="796.4" y="346.0273"/><polygon fill="#181818" points="178.2,95.1865,189.2,99.5865,178.2,103.9865,182.6,99.5865" style="stroke:#181818;stroke-width:1.1;"/><line style="stroke:#181818;stroke-width:1.1;" x1="0" x2="184.8" y1="99.5865" y2="99.5865"/><text fill="#000000" font-family="sans-serif" font-size="14.3" font-weight="bold" lengthAdjust="spacing" textLength="7.7" x="7.7" y="93.7976">7</text><text fill="#000000" font-family="sans-serif" font-size="14.3" lengthAdjust="spacing" textLength="158.4" x="19.8" y="93.7976">createBrand(brandName)</text><path d="M87.45,116.0865 L278.85,116.0865 L278.85,126.3066 L267.85,137.3066 L87.45,137.3066 L87.45,116.0865 " fill="#EEEEEE" style="stroke:#000000;stroke-width:1.6500000000000001;"/><rect fill="none" height="574.2279" style="stroke:#000000;stroke-width:1.6500000000000001;" width="893.75" x="87.45" y="116.0865"/><text fill="#000000" font-family="sans-serif" font-size="14.3" font-weight="bold" lengthAdjust="spacing" textLength="141.9" x="103.95" y="132.6177">Create Brand Object</text><polygon fill="#181818" points="341,158.5268,352,162.9268,341,167.3268,345.4,162.9268" style="stroke:#181818;stroke-width:1.1;"/><line style="stroke:#181818;stroke-width:1.1;" x1="202.4" x2="347.6" y1="162.9268" y2="162.9268"/><text fill="#000000" font-family="sans-serif" font-size="14.3" font-weight="bold" lengthAdjust="spacing" textLength="19.8" x="210.1" y="157.1378">7.1</text><text fill="#000000" font-family="sans-serif" font-size="14.3" lengthAdjust="spacing" textLength="82.5" x="234.3" y="157.1378">getInstance()</text><polygon fill="#181818" points="214.5,192.9469,203.5,197.3469,214.5,201.7469,210.1,197.3469" style="stroke:#181818;stroke-width:1.1;"/><line style="stroke:#181818;stroke-width:1.1;stroke-dasharray:2.0,2.0;" x1="207.9" x2="358.6" y1="197.3469" y2="197.3469"/><text fill="#000000" font-family="sans-serif" font-size="14.3" font-weight="bold" lengthAdjust="spacing" textLength="19.8" x="221.1" y="191.5579">7.2</text><text fill="#000000" font-family="sans-serif" font-size="14.3" lengthAdjust="spacing" textLength="73.7" x="245.3" y="191.5579">repositories</text><polygon fill="#181818" points="458.7,227.367,469.7,231.767,458.7,236.167,463.1,231.767" style="stroke:#181818;stroke-width:1.1;"/><line style="stroke:#181818;stroke-width:1.1;" x1="202.4" x2="465.3" y1="231.767" y2="231.767"/><text fill="#000000" font-family="sans-serif" font-size="14.3" font-weight="bold" lengthAdjust="spacing" textLength="19.8" x="210.1" y="225.978">7.3</text><text fill="#000000" font-family="sans-serif" font-size="14.3" lengthAdjust="spacing" textLength="134.2" x="234.3" y="225.978">getBrandRepository()</text><polygon fill="#181818" points="214.5,261.7871,203.5,266.1871,214.5,270.5871,210.1,266.1871" style="stroke:#181818;stroke-width:1.1;"/><line style="stroke:#181818;stroke-width:1.1;stroke-dasharray:2.0,2.0;" x1="207.9" x2="476.3" y1="266.1871" y2="266.1871"/><text fill="#000000" font-family="sans-serif" font-size="14.3" font-weight="bold" lengthAdjust="spacing" textLength="19.8" x="221.1" y="260.3981">7.4</text><text fill="#000000" font-family="sans-serif" font-size="14.3" lengthAdjust="spacing" textLength="103.4" x="245.3" y="260.3981">brandRepository</text><polygon fill="#181818" points="590.7,296.2072,601.7,300.6072,590.7,305.0072,595.1,300.6072" style="stroke:#181818;stroke-width:1.1;"/><line style="stroke:#181818;stroke-width:1.1;" x1="202.4" x2="597.3" y1="300.6072" y2="300.6072"/><text fill="#000000" font-family="sans-serif" font-size="14.3" font-weight="bold" lengthAdjust="spacing" textLength="19.8" x="210.1" y="294.8183">7.5</text><text fill="#000000" font-family="sans-serif" font-size="14.3" lengthAdjust="spacing" textLength="166.1" x="234.3" y="294.8183">registerBrand(brandName)</text><polygon fill="#181818" points="758.45,330.6273,769.45,335.0273,758.45,339.4273,762.85,335.0273" style="stroke:#181818;stroke-width:1.1;"/><line style="stroke:#181818;stroke-width:1.1;" x1="614.9" x2="765.05" y1="335.0273" y2="335.0273"/><text fill="#000000" font-family="sans-serif" font-size="14.3" font-weight="bold" lengthAdjust="spacing" textLength="19.8" x="622.6" y="329.2384">7.6</text><text fill="#000000" font-family="sans-serif" font-size="14.3" lengthAdjust="spacing" textLength="83.6" x="646.8" y="329.2384">create(name)</text><rect fill="#E3E3E3" height="56.3664" rx="2.75" ry="2.75" style="stroke:#181818;stroke-width:0.55;" width="60.5" x="771.65" y="309.4072"/><text fill="#000000" font-family="sans-serif" font-size="15.4" lengthAdjust="spacing" textLength="45.1" x="779.35" y="333.7254">brand:</text><text fill="#000000" font-family="sans-serif" font-size="15.4" lengthAdjust="spacing" textLength="41.8" x="781" y="354.2086">Brand</text><line style="stroke:#181818;stroke-width:1.1;" x1="807.4" x2="853.6" y1="403.4938" y2="403.4938"/><line style="stroke:#181818;stroke-width:1.1;" x1="853.6" x2="853.6" y1="403.4938" y2="417.7938"/><line style="stroke:#181818;stroke-width:1.1;" x1="808.5" x2="853.6" y1="417.7938" y2="417.7938"/><polygon fill="#181818" points="819.5,413.3938,808.5,417.7938,819.5,422.1938,815.1,417.7938" style="stroke:#181818;stroke-width:1.1;"/><text fill="#000000" font-family="sans-serif" font-size="14.3" font-weight="bold" lengthAdjust="spacing" textLength="19.8" x="815.1" y="397.7048">7.7</text><text fill="#000000" font-family="sans-serif" font-size="14.3" lengthAdjust="spacing" textLength="128.7" x="839.3" y="397.7048">validateBrand(brand)</text><polygon fill="#181818" points="627,447.8139,616,452.2139,627,456.6139,622.6,452.2139" style="stroke:#181818;stroke-width:1.1;"/><line style="stroke:#181818;stroke-width:1.1;stroke-dasharray:2.0,2.0;" x1="620.4" x2="800.8" y1="452.2139" y2="452.2139"/><text fill="#000000" font-family="sans-serif" font-size="14.3" font-weight="bold" lengthAdjust="spacing" textLength="19.8" x="633.6" y="446.4249">7.8</text><text fill="#000000" font-family="sans-serif" font-size="14.3" lengthAdjust="spacing" textLength="35.2" x="657.8" y="446.4249">brand</text><line style="stroke:#181818;stroke-width:1.1;" x1="614.9" x2="666.6" y1="481.134" y2="481.134"/><line style="stroke:#181818;stroke-width:1.1;" x1="666.6" x2="666.6" y1="481.134" y2="495.434"/><line style="stroke:#181818;stroke-width:1.1;" x1="621.5" x2="666.6" y1="495.434" y2="495.434"/><polygon fill="#181818" points="632.5,491.034,621.5,495.434,632.5,499.834,628.1,495.434" style="stroke:#181818;stroke-width:1.1;"/><text fill="#000000" font-family="sans-serif" font-size="14.3" font-weight="bold" lengthAdjust="spacing" textLength="19.8" x="628.1" y="475.345">7.9</text><text fill="#000000" font-family="sans-serif" font-size="14.3" lengthAdjust="spacing" textLength="104.5" x="652.3" y="475.345">addBrand(brand)</text><line style="stroke:#181818;stroke-width:1.1;" x1="620.4" x2="672.1" y1="529.8541" y2="529.8541"/><line style="stroke:#181818;stroke-width:1.1;" x1="672.1" x2="672.1" y1="529.8541" y2="544.1541"/><line style="stroke:#181818;stroke-width:1.1;" x1="627" x2="672.1" y1="544.1541" y2="544.1541"/><polygon fill="#181818" points="638,539.7541,627,544.1541,638,548.5541,633.6,544.1541" style="stroke:#181818;stroke-width:1.1;"/><text fill="#000000" font-family="sans-serif" font-size="14.3" font-weight="bold" lengthAdjust="spacing" textLength="27.5" x="633.6" y="524.0651">7.10</text><text fill="#000000" font-family="sans-serif" font-size="14.3" lengthAdjust="spacing" textLength="128.7" x="665.5" y="524.0651">validateBrand(brand)</text><line style="stroke:#181818;stroke-width:1.1;stroke-dasharray:2.0,2.0;" x1="625.9" x2="672.1" y1="589.5742" y2="589.5742"/><line style="stroke:#181818;stroke-width:1.1;stroke-dasharray:2.0,2.0;" x1="672.1" x2="672.1" y1="589.5742" y2="603.8742"/><line style="stroke:#181818;stroke-width:1.1;stroke-dasharray:2.0,2.0;" x1="620.4" x2="672.1" y1="603.8742" y2="603.8742"/><polygon fill="#181818" points="631.4,599.4742,620.4,603.8742,631.4,608.2742,627,603.8742" style="stroke:#181818;stroke-width:1.1;"/><text fill="#000000" font-family="sans-serif" font-size="14.3" font-weight="bold" lengthAdjust="spacing" textLength="27.5" x="633.6" y="583.7853">7.11</text><text fill="#000000" font-family="sans-serif" font-size="14.3" lengthAdjust="spacing" textLength="58.3" x="665.5" y="583.7853">true/false</text><line style="stroke:#181818;stroke-width:1.1;stroke-dasharray:2.0,2.0;" x1="620.4" x2="666.6" y1="638.2943" y2="638.2943"/><line style="stroke:#181818;stroke-width:1.1;stroke-dasharray:2.0,2.0;" x1="666.6" x2="666.6" y1="638.2943" y2="652.5943"/><line style="stroke:#181818;stroke-width:1.1;stroke-dasharray:2.0,2.0;" x1="614.9" x2="666.6" y1="652.5943" y2="652.5943"/><polygon fill="#181818" points="625.9,648.1943,614.9,652.5943,625.9,656.9943,621.5,652.5943" style="stroke:#181818;stroke-width:1.1;"/><text fill="#000000" font-family="sans-serif" font-size="14.3" font-weight="bold" lengthAdjust="spacing" textLength="27.5" x="628.1" y="632.5054">7.12</text><text fill="#000000" font-family="sans-serif" font-size="14.3" lengthAdjust="spacing" textLength="58.3" x="660" y="632.5054">true/false</text><polygon fill="#181818" points="214.5,677.1145,203.5,681.5145,214.5,685.9145,210.1,681.5145" style="stroke:#181818;stroke-width:1.1;"/><line style="stroke:#181818;stroke-width:1.1;" x1="207.9" x2="608.3" y1="681.5145" y2="681.5145"/><text fill="#000000" font-family="sans-serif" font-size="14.3" font-weight="bold" lengthAdjust="spacing" textLength="27.5" x="221.1" y="675.7255">7.13</text><text fill="#000000" font-family="sans-serif" font-size="14.3" lengthAdjust="spacing" textLength="35.2" x="253" y="675.7255">brand</text><polygon fill="#181818" points="12.1,719.2346,1.1,723.6346,12.1,728.0346,7.7,723.6346" style="stroke:#181818;stroke-width:1.1;"/><line style="stroke:#181818;stroke-width:1.1;stroke-dasharray:2.0,2.0;" x1="5.5" x2="195.8" y1="723.6346" y2="723.6346"/><text fill="#000000" font-family="sans-serif" font-size="14.3" font-weight="bold" lengthAdjust="spacing" textLength="7.7" x="18.7" y="717.8456">8</text><text fill="#000000" font-family="sans-serif" font-size="14.3" lengthAdjust="spacing" textLength="35.2" x="30.8" y="717.8456">brand</text><!--SRC=[ZLJBJiCm4BpxArQSsae1SG9528dsX5G1IYjElJZ9afecTcGxHVrxR0U7k4cWFaNhcTdPXwCEZDTKqWegmKMsbw92qB91ehgRccO7Mk16dqe4YPccl2Zx0BMdkVXYl80FMYean8GrorXDkOQhEC62AOto7VSiAt4bk9QYB55U0LMmsYRh0Q4MYcaX6Ig7wGAd3REvjU0XHVOOEpuKU5i_RKD6AYdFVtNZ7L-64STR9YCiZsqHzeiGsXXFJPMYX3iIFRggOiWaKeqECdFK5rhXF4HVtnAQQNOqmBONO4uXHLF3oj7R5F2QVfhM4tTjSM2oZFG5OYXGFtDbffJXRExm_dI9nXeQ8EqPKu-wslej3wWvNfx65sBdqpe_cy9K0MwW0yTEnbiqUcT3dh8PYdbFomHibUtk3cSui6Hs9KXW-5R5KXOBlmip7h93XNQNpgjgv- -rOZZIakNXNisdIBwET2ZTQy1PuX_dIGmqpuCierMF59rSu79Amijuw_PlTDF-MARiZtJ-3_O_p71x9bWsWhvdlUTyxm8FKHIAzCZkZPDl]--></g></svg>