<?xml version="1.0" encoding="us-ascii" standalone="no"?><svg xmlns="http://www.w3.org/2000/svg" xmlns:xlink="http://www.w3.org/1999/xlink" contentStyleType="text/css" height="732px" preserveAspectRatio="none" style="width:898px;height:732px;background:#FFFFFF;" version="1.1" viewBox="0 0 898 732" width="898px" zoomAndPan="magnify"><defs/><g><rect fill="#FFFFFF" height="576.3164" style="stroke:#181818;stroke-width:1.0;" width="10" x="174" y="90.5332"/><rect fill="#FFFFFF" height="31.291" style="stroke:#181818;stroke-width:1.0;" width="10" x="322" y="148.1152"/><rect fill="#FFFFFF" height="31.291" style="stroke:#181818;stroke-width:1.0;" width="10" x="429" y="210.6973"/><rect fill="#FFFFFF" height="346.2793" style="stroke:#181818;stroke-width:1.0;" width="10" x="549" y="273.2793"/><rect fill="#FFFFFF" height="130.873" style="stroke:#181818;stroke-width:1.0;" width="10" x="554" y="450.3945"/><rect fill="#FFFFFF" height="42.291" style="stroke:#181818;stroke-width:1.0;" width="10" x="559" y="494.6855"/><rect fill="#FFFFFF" height="96.5332" style="stroke:#181818;stroke-width:1.0;" width="10" x="724" y="314.5703"/><rect fill="none" height="522.0254" style="stroke:#000000;stroke-width:1.5;" width="812.5" x="79.5" y="105.5332"/><line style="stroke:#181818;stroke-width:0.5;stroke-dasharray:5.0,5.0;" x1="178.5" x2="178.5" y1="57.2422" y2="675.8496"/><line style="stroke:#181818;stroke-width:0.5;stroke-dasharray:5.0,5.0;" x1="326.5" x2="326.5" y1="57.2422" y2="675.8496"/><line style="stroke:#181818;stroke-width:0.5;stroke-dasharray:5.0,5.0;" x1="433.5" x2="433.5" y1="57.2422" y2="675.8496"/><line style="stroke:#181818;stroke-width:0.5;stroke-dasharray:5.0,5.0;" x1="553.5" x2="553.5" y1="57.2422" y2="675.8496"/><line style="stroke:#181818;stroke-width:0.5;stroke-dasharray:5.0,5.0;" x1="728.5" x2="728.5" y1="322.4004" y2="675.8496"/><rect fill="#E3E3E3" height="32.6211" rx="2.5" ry="2.5" style="stroke:#181818;stroke-width:0.5;" width="179" x="89.5" y="23.6211"/><text fill="#000000" font-family="sans-serif" font-size="14" lengthAdjust="spacing" textLength="165" x="96.5" y="45.7285">:RegisterVehicleController</text><rect fill="#E3E3E3" height="32.6211" rx="2.5" ry="2.5" style="stroke:#181818;stroke-width:0.5;" width="179" x="89.5" y="674.8496"/><text fill="#000000" font-family="sans-serif" font-size="14" lengthAdjust="spacing" textLength="165" x="96.5" y="696.957">:RegisterVehicleController</text><rect fill="#E3E3E3" height="32.6211" rx="2.5" ry="2.5" style="stroke:#181818;stroke-width:0.5;" width="97" x="278.5" y="23.6211"/><text fill="#000000" font-family="sans-serif" font-size="14" lengthAdjust="spacing" textLength="83" x="285.5" y="45.7285">:Repositories</text><rect fill="#E3E3E3" height="32.6211" rx="2.5" ry="2.5" style="stroke:#181818;stroke-width:0.5;" width="97" x="278.5" y="674.8496"/><text fill="#000000" font-family="sans-serif" font-size="14" lengthAdjust="spacing" textLength="83" x="285.5" y="696.957">:Repositories</text><rect fill="#E3E3E3" height="51.2422" rx="2.5" ry="2.5" style="stroke:#181818;stroke-width:0.5;" width="97" x="385.5" y="5"/><text fill="#000000" font-family="sans-serif" font-size="14" lengthAdjust="spacing" textLength="74" x="397" y="27.1074">repositories</text><text fill="#000000" font-family="sans-serif" font-size="14" lengthAdjust="spacing" textLength="83" x="392.5" y="45.7285">:Repositories</text><rect fill="#E3E3E3" height="51.2422" rx="2.5" ry="2.5" style="stroke:#181818;stroke-width:0.5;" width="97" x="385.5" y="674.8496"/><text fill="#000000" font-family="sans-serif" font-size="14" lengthAdjust="spacing" textLength="74" x="397" y="696.957">repositories</text><text fill="#000000" font-family="sans-serif" font-size="14" lengthAdjust="spacing" textLength="83" x="392.5" y="715.5781">:Repositories</text><rect fill="#E3E3E3" height="51.2422" rx="2.5" ry="2.5" style="stroke:#181818;stroke-width:0.5;" width="123" x="492.5" y="5"/><text fill="#000000" font-family="sans-serif" font-size="14" lengthAdjust="spacing" textLength="109" x="499.5" y="27.1074">brandRepository:</text><text fill="#000000" font-family="sans-serif" font-size="14" lengthAdjust="spacing" textLength="106" x="501" y="45.7285">BrandRepository</text><rect fill="#E3E3E3" height="51.2422" rx="2.5" ry="2.5" style="stroke:#181818;stroke-width:0.5;" width="123" x="492.5" y="674.8496"/><text fill="#000000" font-family="sans-serif" font-size="14" lengthAdjust="spacing" textLength="109" x="499.5" y="696.957">brandRepository:</text><text fill="#000000" font-family="sans-serif" font-size="14" lengthAdjust="spacing" textLength="106" x="501" y="715.5781">BrandRepository</text><rect fill="#E3E3E3" height="51.2422" rx="2.5" ry="2.5" style="stroke:#181818;stroke-width:0.5;" width="55" x="701.5" y="674.8496"/><text fill="#000000" font-family="sans-serif" font-size="14" lengthAdjust="spacing" textLength="41" x="708.5" y="696.957">brand:</text><text fill="#000000" font-family="sans-serif" font-size="14" lengthAdjust="spacing" textLength="38" x="710" y="715.5781">Brand</text><rect fill="#FFFFFF" height="576.3164" style="stroke:#181818;stroke-width:1.0;" width="10" x="174" y="90.5332"/><rect fill="#FFFFFF" height="31.291" style="stroke:#181818;stroke-width:1.0;" width="10" x="322" y="148.1152"/><rect fill="#FFFFFF" height="31.291" style="stroke:#181818;stroke-width:1.0;" width="10" x="429" y="210.6973"/><rect fill="#FFFFFF" height="346.2793" style="stroke:#181818;stroke-width:1.0;" width="10" x="549" y="273.2793"/><rect fill="#FFFFFF" height="130.873" style="stroke:#181818;stroke-width:1.0;" width="10" x="554" y="450.3945"/><rect fill="#FFFFFF" height="42.291" style="stroke:#181818;stroke-width:1.0;" width="10" x="559" y="494.6855"/><rect fill="#FFFFFF" height="96.5332" style="stroke:#181818;stroke-width:1.0;" width="10" x="724" y="314.5703"/><polygon fill="#181818" points="162,86.5332,172,90.5332,162,94.5332,166,90.5332" style="stroke:#181818;stroke-width:1.0;"/><line style="stroke:#181818;stroke-width:1.0;" x1="0" x2="168" y1="90.5332" y2="90.5332"/><text fill="#000000" font-family="sans-serif" font-size="13" font-weight="bold" lengthAdjust="spacing" textLength="7" x="7" y="85.2705">7</text><text fill="#000000" font-family="sans-serif" font-size="13" lengthAdjust="spacing" textLength="144" x="18" y="85.2705">createBrand(brandName)</text><path d="M79.5,105.5332 L253.5,105.5332 L253.5,114.8242 L243.5,124.8242 L79.5,124.8242 L79.5,105.5332 " fill="#EEEEEE" style="stroke:#000000;stroke-width:1.5;"/><rect fill="none" height="522.0254" style="stroke:#000000;stroke-width:1.5;" width="812.5" x="79.5" y="105.5332"/><text fill="#000000" font-family="sans-serif" font-size="13" font-weight="bold" lengthAdjust="spacing" textLength="129" x="94.5" y="120.5615">Create Brand Object</text><polygon fill="#181818" points="310,144.1152,320,148.1152,310,152.1152,314,148.1152" style="stroke:#181818;stroke-width:1.0;"/><line style="stroke:#181818;stroke-width:1.0;" x1="184" x2="316" y1="148.1152" y2="148.1152"/><text fill="#000000" font-family="sans-serif" font-size="13" font-weight="bold" lengthAdjust="spacing" textLength="18" x="191" y="142.8525">7.1</text><text fill="#000000" font-family="sans-serif" font-size="13" lengthAdjust="spacing" textLength="75" x="213" y="142.8525">getInstance()</text><polygon fill="#181818" points="195,175.4063,185,179.4063,195,183.4063,191,179.4063" style="stroke:#181818;stroke-width:1.0;"/><line style="stroke:#181818;stroke-width:1.0;stroke-dasharray:2.0,2.0;" x1="189" x2="326" y1="179.4063" y2="179.4063"/><text fill="#000000" font-family="sans-serif" font-size="13" font-weight="bold" lengthAdjust="spacing" textLength="18" x="201" y="174.1436">7.2</text><text fill="#000000" font-family="sans-serif" font-size="13" lengthAdjust="spacing" textLength="67" x="223" y="174.1436">repositories</text><polygon fill="#181818" points="417,206.6973,427,210.6973,417,214.6973,421,210.6973" style="stroke:#181818;stroke-width:1.0;"/><line style="stroke:#181818;stroke-width:1.0;" x1="184" x2="423" y1="210.6973" y2="210.6973"/><text fill="#000000" font-family="sans-serif" font-size="13" font-weight="bold" lengthAdjust="spacing" textLength="18" x="191" y="205.4346">7.3</text><text fill="#000000" font-family="sans-serif" font-size="13" lengthAdjust="spacing" textLength="122" x="213" y="205.4346">getBrandRepository()</text><polygon fill="#181818" points="195,237.9883,185,241.9883,195,245.9883,191,241.9883" style="stroke:#181818;stroke-width:1.0;"/><line style="stroke:#181818;stroke-width:1.0;stroke-dasharray:2.0,2.0;" x1="189" x2="433" y1="241.9883" y2="241.9883"/><text fill="#000000" font-family="sans-serif" font-size="13" font-weight="bold" lengthAdjust="spacing" textLength="18" x="201" y="236.7256">7.4</text><text fill="#000000" font-family="sans-serif" font-size="13" lengthAdjust="spacing" textLength="94" x="223" y="236.7256">brandRepository</text><polygon fill="#181818" points="537,269.2793,547,273.2793,537,277.2793,541,273.2793" style="stroke:#181818;stroke-width:1.0;"/><line style="stroke:#181818;stroke-width:1.0;" x1="184" x2="543" y1="273.2793" y2="273.2793"/><text fill="#000000" font-family="sans-serif" font-size="13" font-weight="bold" lengthAdjust="spacing" textLength="18" x="191" y="268.0166">7.5</text><text fill="#000000" font-family="sans-serif" font-size="13" lengthAdjust="spacing" textLength="151" x="213" y="268.0166">registerBrand(brandName)</text><polygon fill="#181818" points="689.5,300.5703,699.5,304.5703,689.5,308.5703,693.5,304.5703" style="stroke:#181818;stroke-width:1.0;"/><line style="stroke:#181818;stroke-width:1.0;" x1="559" x2="695.5" y1="304.5703" y2="304.5703"/><text fill="#000000" font-family="sans-serif" font-size="13" font-weight="bold" lengthAdjust="spacing" textLength="18" x="566" y="299.3076">7.6</text><text fill="#000000" font-family="sans-serif" font-size="13" lengthAdjust="spacing" textLength="76" x="588" y="299.3076">create(name)</text><rect fill="#E3E3E3" height="51.2422" rx="2.5" ry="2.5" style="stroke:#181818;stroke-width:0.5;" width="55" x="701.5" y="281.2793"/><text fill="#000000" font-family="sans-serif" font-size="14" lengthAdjust="spacing" textLength="41" x="708.5" y="303.3867">brand:</text><text fill="#000000" font-family="sans-serif" font-size="14" lengthAdjust="spacing" textLength="38" x="710" y="322.0078">Brand</text><line style="stroke:#181818;stroke-width:1.0;" x1="734" x2="776" y1="366.8125" y2="366.8125"/><line style="stroke:#181818;stroke-width:1.0;" x1="776" x2="776" y1="366.8125" y2="379.8125"/><line style="stroke:#181818;stroke-width:1.0;" x1="735" x2="776" y1="379.8125" y2="379.8125"/><polygon fill="#181818" points="745,375.8125,735,379.8125,745,383.8125,741,379.8125" style="stroke:#181818;stroke-width:1.0;"/><text fill="#000000" font-family="sans-serif" font-size="13" font-weight="bold" lengthAdjust="spacing" textLength="18" x="741" y="361.5498">7.7</text><text fill="#000000" font-family="sans-serif" font-size="13" lengthAdjust="spacing" textLength="117" x="763" y="361.5498">validateBrand(brand)</text><polygon fill="#181818" points="570,407.1035,560,411.1035,570,415.1035,566,411.1035" style="stroke:#181818;stroke-width:1.0;"/><line style="stroke:#181818;stroke-width:1.0;stroke-dasharray:2.0,2.0;" x1="564" x2="728" y1="411.1035" y2="411.1035"/><text fill="#000000" font-family="sans-serif" font-size="13" font-weight="bold" lengthAdjust="spacing" textLength="18" x="576" y="405.8408">7.8</text><text fill="#000000" font-family="sans-serif" font-size="13" lengthAdjust="spacing" textLength="32" x="598" y="405.8408">brand</text><line style="stroke:#181818;stroke-width:1.0;" x1="559" x2="606" y1="437.3945" y2="437.3945"/><line style="stroke:#181818;stroke-width:1.0;" x1="606" x2="606" y1="437.3945" y2="450.3945"/><line style="stroke:#181818;stroke-width:1.0;" x1="565" x2="606" y1="450.3945" y2="450.3945"/><polygon fill="#181818" points="575,446.3945,565,450.3945,575,454.3945,571,450.3945" style="stroke:#181818;stroke-width:1.0;"/><text fill="#000000" font-family="sans-serif" font-size="13" font-weight="bold" lengthAdjust="spacing" textLength="18" x="571" y="432.1318">7.9</text><text fill="#000000" font-family="sans-serif" font-size="13" lengthAdjust="spacing" textLength="95" x="593" y="432.1318">addBrand(brand)</text><line style="stroke:#181818;stroke-width:1.0;" x1="564" x2="611" y1="481.6855" y2="481.6855"/><line style="stroke:#181818;stroke-width:1.0;" x1="611" x2="611" y1="481.6855" y2="494.6855"/><line style="stroke:#181818;stroke-width:1.0;" x1="570" x2="611" y1="494.6855" y2="494.6855"/><polygon fill="#181818" points="580,490.6855,570,494.6855,580,498.6855,576,494.6855" style="stroke:#181818;stroke-width:1.0;"/><text fill="#000000" font-family="sans-serif" font-size="13" font-weight="bold" lengthAdjust="spacing" textLength="25" x="576" y="476.4229">7.10</text><text fill="#000000" font-family="sans-serif" font-size="13" lengthAdjust="spacing" textLength="117" x="605" y="476.4229">validateBrand(brand)</text><line style="stroke:#181818;stroke-width:1.0;stroke-dasharray:2.0,2.0;" x1="569" x2="611" y1="535.9766" y2="535.9766"/><line style="stroke:#181818;stroke-width:1.0;stroke-dasharray:2.0,2.0;" x1="611" x2="611" y1="535.9766" y2="548.9766"/><line style="stroke:#181818;stroke-width:1.0;stroke-dasharray:2.0,2.0;" x1="564" x2="611" y1="548.9766" y2="548.9766"/><polygon fill="#181818" points="574,544.9766,564,548.9766,574,552.9766,570,548.9766" style="stroke:#181818;stroke-width:1.0;"/><text fill="#000000" font-family="sans-serif" font-size="13" font-weight="bold" lengthAdjust="spacing" textLength="25" x="576" y="530.7139">7.11</text><text fill="#000000" font-family="sans-serif" font-size="13" lengthAdjust="spacing" textLength="53" x="605" y="530.7139">true/false</text><line style="stroke:#181818;stroke-width:1.0;stroke-dasharray:2.0,2.0;" x1="564" x2="606" y1="580.2676" y2="580.2676"/><line style="stroke:#181818;stroke-width:1.0;stroke-dasharray:2.0,2.0;" x1="606" x2="606" y1="580.2676" y2="593.2676"/><line style="stroke:#181818;stroke-width:1.0;stroke-dasharray:2.0,2.0;" x1="559" x2="606" y1="593.2676" y2="593.2676"/><polygon fill="#181818" points="569,589.2676,559,593.2676,569,597.2676,565,593.2676" style="stroke:#181818;stroke-width:1.0;"/><text fill="#000000" font-family="sans-serif" font-size="13" font-weight="bold" lengthAdjust="spacing" textLength="25" x="571" y="575.0049">7.12</text><text fill="#000000" font-family="sans-serif" font-size="13" lengthAdjust="spacing" textLength="53" x="600" y="575.0049">true/false</text><polygon fill="#181818" points="195,615.5586,185,619.5586,195,623.5586,191,619.5586" style="stroke:#181818;stroke-width:1.0;"/><line style="stroke:#181818;stroke-width:1.0;" x1="189" x2="553" y1="619.5586" y2="619.5586"/><text fill="#000000" font-family="sans-serif" font-size="13" font-weight="bold" lengthAdjust="spacing" textLength="25" x="201" y="614.2959">7.13</text><text fill="#000000" font-family="sans-serif" font-size="13" lengthAdjust="spacing" textLength="32" x="230" y="614.2959">brand</text><polygon fill="#181818" points="11,653.8496,1,657.8496,11,661.8496,7,657.8496" style="stroke:#181818;stroke-width:1.0;"/><line style="stroke:#181818;stroke-width:1.0;stroke-dasharray:2.0,2.0;" x1="5" x2="553" y1="657.8496" y2="657.8496"/><text fill="#000000" font-family="sans-serif" font-size="13" font-weight="bold" lengthAdjust="spacing" textLength="7" x="17" y="652.5869">8</text><text fill="#000000" font-family="sans-serif" font-size="13" lengthAdjust="spacing" textLength="32" x="28" y="652.5869">brand</text><!--SRC=[ZLJBJiCm4BpxArQSsae5SG9528dsX5G1IYjElJZ9afecTcGxHVrxR0U7E0-eJz5wPdRs4QiZunMLj8HIS94Uf2WHjAoHgFQcekcHvhZLvm91OgefpuikG1re9huOp-635We9CM7DKbPHhk4gYZ5dIgDynmDB2rmBhgKe2fHNG1MiT_5cGAY4Obf8XifXsi1vosnkBNX8aHt6dWy5tZPFkv2HICgpNzreprTXnF5MyGZBOnk4_IA4riPJNIOeuOui7rrL4QGIgKO7cJdg2orn7gAlRmbDDJiPODCBC2UNegvWxUXD2dXDFathYRksE31PHle24UIedxaoKqfnDdTuVzf4OmqDaFQCgI_Rshej3wWPNfx65sBdqpZlJM6g03VGWMCduoqQlTwGfso6OjxJAWPRPRExmnaEB9bT2H8OlbMnbCN2xyACX-nGeTcbVbND_BrM12TQi2pSg_aKoTUH3AKx3UWb_d4UHq2pBCWoMlL8qV45BgSal8otRb-Zc-PXcR8_qla_sFymm-sPODa8-fvrVkTx5tXOBhjjxoNy1W00]--></g></svg>