<?xml version="1.0" encoding="us-ascii" standalone="no"?><svg xmlns="http://www.w3.org/2000/svg" xmlns:xlink="http://www.w3.org/1999/xlink" contentStyleType="text/css" height="606px" preserveAspectRatio="none" style="width:905px;height:606px;background:#FFFFFF;" version="1.1" viewBox="0 0 905 606" width="905px" zoomAndPan="magnify"><defs/><g><rect fill="#FFFFFF" height="442.1523" style="stroke:#181818;stroke-width:1.0;" width="10" x="214" y="90.5332"/><rect fill="#FFFFFF" height="346.2793" style="stroke:#181818;stroke-width:1.0;" width="10" x="555" y="148.1152"/><rect fill="#FFFFFF" height="130.873" style="stroke:#181818;stroke-width:1.0;" width="10" x="560" y="325.2305"/><rect fill="#FFFFFF" height="42.291" style="stroke:#181818;stroke-width:1.0;" width="10" x="565" y="369.5215"/><rect fill="#FFFFFF" height="96.5332" style="stroke:#181818;stroke-width:1.0;" width="10" x="727" y="189.4063"/><rect fill="none" height="396.8613" style="stroke:#000000;stroke-width:1.5;" width="779.5" x="119.5" y="105.5332"/><line style="stroke:#181818;stroke-width:0.5;stroke-dasharray:5.0,5.0;" x1="218.5" x2="218.5" y1="57.2422" y2="550.6855"/><line style="stroke:#181818;stroke-width:0.5;stroke-dasharray:5.0,5.0;" x1="366.5" x2="366.5" y1="57.2422" y2="550.6855"/><line style="stroke:#181818;stroke-width:0.5;stroke-dasharray:5.0,5.0;" x1="473.5" x2="473.5" y1="57.2422" y2="550.6855"/><line style="stroke:#181818;stroke-width:0.5;stroke-dasharray:5.0,5.0;" x1="559.5" x2="559.5" y1="57.2422" y2="550.6855"/><line style="stroke:#181818;stroke-width:0.5;stroke-dasharray:5.0,5.0;" x1="732" x2="732" y1="197.2363" y2="550.6855"/><rect fill="#E3E3E3" height="32.6211" rx="2.5" ry="2.5" style="stroke:#181818;stroke-width:0.5;" width="179" x="129.5" y="23.6211"/><text fill="#000000" font-family="sans-serif" font-size="14" lengthAdjust="spacing" textLength="165" x="136.5" y="45.7285">:RegisterVehicleController</text><rect fill="#E3E3E3" height="32.6211" rx="2.5" ry="2.5" style="stroke:#181818;stroke-width:0.5;" width="179" x="129.5" y="549.6855"/><text fill="#000000" font-family="sans-serif" font-size="14" lengthAdjust="spacing" textLength="165" x="136.5" y="571.793">:RegisterVehicleController</text><rect fill="#E3E3E3" height="32.6211" rx="2.5" ry="2.5" style="stroke:#181818;stroke-width:0.5;" width="97" x="318.5" y="23.6211"/><text fill="#000000" font-family="sans-serif" font-size="14" lengthAdjust="spacing" textLength="83" x="325.5" y="45.7285">:Repositories</text><rect fill="#E3E3E3" height="32.6211" rx="2.5" ry="2.5" style="stroke:#181818;stroke-width:0.5;" width="97" x="318.5" y="549.6855"/><text fill="#000000" font-family="sans-serif" font-size="14" lengthAdjust="spacing" textLength="83" x="325.5" y="571.793">:Repositories</text><rect fill="#E3E3E3" height="51.2422" rx="2.5" ry="2.5" style="stroke:#181818;stroke-width:0.5;" width="97" x="425.5" y="5"/><text fill="#000000" font-family="sans-serif" font-size="14" lengthAdjust="spacing" textLength="74" x="437" y="27.1074">repositories</text><text fill="#000000" font-family="sans-serif" font-size="14" lengthAdjust="spacing" textLength="83" x="432.5" y="45.7285">:Repositories</text><rect fill="#E3E3E3" height="51.2422" rx="2.5" ry="2.5" style="stroke:#181818;stroke-width:0.5;" width="97" x="425.5" y="549.6855"/><text fill="#000000" font-family="sans-serif" font-size="14" lengthAdjust="spacing" textLength="74" x="437" y="571.793">repositories</text><text fill="#000000" font-family="sans-serif" font-size="14" lengthAdjust="spacing" textLength="83" x="432.5" y="590.4141">:Repositories</text><rect fill="#E3E3E3" height="51.2422" rx="2.5" ry="2.5" style="stroke:#181818;stroke-width:0.5;" width="55" x="532.5" y="5"/><text fill="#000000" font-family="sans-serif" font-size="14" lengthAdjust="spacing" textLength="41" x="539.5" y="27.1074">brand:</text><text fill="#000000" font-family="sans-serif" font-size="14" lengthAdjust="spacing" textLength="38" x="541" y="45.7285">Brand</text><rect fill="#E3E3E3" height="51.2422" rx="2.5" ry="2.5" style="stroke:#181818;stroke-width:0.5;" width="55" x="532.5" y="549.6855"/><text fill="#000000" font-family="sans-serif" font-size="14" lengthAdjust="spacing" textLength="41" x="539.5" y="571.793">brand:</text><text fill="#000000" font-family="sans-serif" font-size="14" lengthAdjust="spacing" textLength="38" x="541" y="590.4141">Brand</text><rect fill="#E3E3E3" height="51.2422" rx="2.5" ry="2.5" style="stroke:#181818;stroke-width:0.5;" width="56" x="704" y="549.6855"/><text fill="#000000" font-family="sans-serif" font-size="14" lengthAdjust="spacing" textLength="42" x="711" y="571.793">model:</text><text fill="#000000" font-family="sans-serif" font-size="14" lengthAdjust="spacing" textLength="38" x="713" y="590.4141">Model</text><rect fill="#FFFFFF" height="442.1523" style="stroke:#181818;stroke-width:1.0;" width="10" x="214" y="90.5332"/><rect fill="#FFFFFF" height="346.2793" style="stroke:#181818;stroke-width:1.0;" width="10" x="555" y="148.1152"/><rect fill="#FFFFFF" height="130.873" style="stroke:#181818;stroke-width:1.0;" width="10" x="560" y="325.2305"/><rect fill="#FFFFFF" height="42.291" style="stroke:#181818;stroke-width:1.0;" width="10" x="565" y="369.5215"/><rect fill="#FFFFFF" height="96.5332" style="stroke:#181818;stroke-width:1.0;" width="10" x="727" y="189.4063"/><polygon fill="#181818" points="202,86.5332,212,90.5332,202,94.5332,206,90.5332" style="stroke:#181818;stroke-width:1.0;"/><line style="stroke:#181818;stroke-width:1.0;" x1="0" x2="208" y1="90.5332" y2="90.5332"/><text fill="#000000" font-family="sans-serif" font-size="13" font-weight="bold" lengthAdjust="spacing" textLength="7" x="7" y="85.2705">9</text><text fill="#000000" font-family="sans-serif" font-size="13" lengthAdjust="spacing" textLength="184" x="18" y="85.2705">createModel(brand,modelName)</text><path d="M119.5,105.5332 L294.5,105.5332 L294.5,114.8242 L284.5,124.8242 L119.5,124.8242 L119.5,105.5332 " fill="#EEEEEE" style="stroke:#000000;stroke-width:1.5;"/><rect fill="none" height="396.8613" style="stroke:#000000;stroke-width:1.5;" width="779.5" x="119.5" y="105.5332"/><text fill="#000000" font-family="sans-serif" font-size="13" font-weight="bold" lengthAdjust="spacing" textLength="130" x="134.5" y="120.5615">Create Model Object</text><polygon fill="#181818" points="543,144.1152,553,148.1152,543,152.1152,547,148.1152" style="stroke:#181818;stroke-width:1.0;"/><line style="stroke:#181818;stroke-width:1.0;" x1="224" x2="549" y1="148.1152" y2="148.1152"/><text fill="#000000" font-family="sans-serif" font-size="13" font-weight="bold" lengthAdjust="spacing" textLength="18" x="231" y="142.8525">9.1</text><text fill="#000000" font-family="sans-serif" font-size="13" lengthAdjust="spacing" textLength="155" x="253" y="142.8525">registerModel(modelName)</text><polygon fill="#181818" points="692,175.4063,702,179.4063,692,183.4063,696,179.4063" style="stroke:#181818;stroke-width:1.0;"/><line style="stroke:#181818;stroke-width:1.0;" x1="565" x2="698" y1="179.4063" y2="179.4063"/><text fill="#000000" font-family="sans-serif" font-size="13" font-weight="bold" lengthAdjust="spacing" textLength="18" x="572" y="174.1436">9.2</text><text fill="#000000" font-family="sans-serif" font-size="13" lengthAdjust="spacing" textLength="76" x="594" y="174.1436">create(name)</text><rect fill="#E3E3E3" height="51.2422" rx="2.5" ry="2.5" style="stroke:#181818;stroke-width:0.5;" width="56" x="704" y="156.1152"/><text fill="#000000" font-family="sans-serif" font-size="14" lengthAdjust="spacing" textLength="42" x="711" y="178.2227">model:</text><text fill="#000000" font-family="sans-serif" font-size="14" lengthAdjust="spacing" textLength="38" x="713" y="196.8438">Model</text><line style="stroke:#181818;stroke-width:1.0;" x1="737" x2="779" y1="241.6484" y2="241.6484"/><line style="stroke:#181818;stroke-width:1.0;" x1="779" x2="779" y1="241.6484" y2="254.6484"/><line style="stroke:#181818;stroke-width:1.0;" x1="738" x2="779" y1="254.6484" y2="254.6484"/><polygon fill="#181818" points="748,250.6484,738,254.6484,748,258.6484,744,254.6484" style="stroke:#181818;stroke-width:1.0;"/><text fill="#000000" font-family="sans-serif" font-size="13" font-weight="bold" lengthAdjust="spacing" textLength="18" x="744" y="236.3857">9.3</text><text fill="#000000" font-family="sans-serif" font-size="13" lengthAdjust="spacing" textLength="121" x="766" y="236.3857">validateModel(model)</text><polygon fill="#181818" points="576,281.9395,566,285.9395,576,289.9395,572,285.9395" style="stroke:#181818;stroke-width:1.0;"/><line style="stroke:#181818;stroke-width:1.0;stroke-dasharray:2.0,2.0;" x1="570" x2="731" y1="285.9395" y2="285.9395"/><text fill="#000000" font-family="sans-serif" font-size="13" font-weight="bold" lengthAdjust="spacing" textLength="18" x="582" y="280.6768">9.4</text><text fill="#000000" font-family="sans-serif" font-size="13" lengthAdjust="spacing" textLength="35" x="604" y="280.6768">model</text><line style="stroke:#181818;stroke-width:1.0;" x1="565" x2="612" y1="312.2305" y2="312.2305"/><line style="stroke:#181818;stroke-width:1.0;" x1="612" x2="612" y1="312.2305" y2="325.2305"/><line style="stroke:#181818;stroke-width:1.0;" x1="571" x2="612" y1="325.2305" y2="325.2305"/><polygon fill="#181818" points="581,321.2305,571,325.2305,581,329.2305,577,325.2305" style="stroke:#181818;stroke-width:1.0;"/><text fill="#000000" font-family="sans-serif" font-size="13" font-weight="bold" lengthAdjust="spacing" textLength="18" x="577" y="306.9678">9.5</text><text fill="#000000" font-family="sans-serif" font-size="13" lengthAdjust="spacing" textLength="99" x="599" y="306.9678">addModel(model)</text><line style="stroke:#181818;stroke-width:1.0;" x1="570" x2="617" y1="356.5215" y2="356.5215"/><line style="stroke:#181818;stroke-width:1.0;" x1="617" x2="617" y1="356.5215" y2="369.5215"/><line style="stroke:#181818;stroke-width:1.0;" x1="576" x2="617" y1="369.5215" y2="369.5215"/><polygon fill="#181818" points="586,365.5215,576,369.5215,586,373.5215,582,369.5215" style="stroke:#181818;stroke-width:1.0;"/><text fill="#000000" font-family="sans-serif" font-size="13" font-weight="bold" lengthAdjust="spacing" textLength="18" x="582" y="351.2588">9.6</text><text fill="#000000" font-family="sans-serif" font-size="13" lengthAdjust="spacing" textLength="121" x="604" y="351.2588">validateModel(model)</text><line style="stroke:#181818;stroke-width:1.0;stroke-dasharray:2.0,2.0;" x1="575" x2="617" y1="410.8125" y2="410.8125"/><line style="stroke:#181818;stroke-width:1.0;stroke-dasharray:2.0,2.0;" x1="617" x2="617" y1="410.8125" y2="423.8125"/><line style="stroke:#181818;stroke-width:1.0;stroke-dasharray:2.0,2.0;" x1="570" x2="617" y1="423.8125" y2="423.8125"/><polygon fill="#181818" points="580,419.8125,570,423.8125,580,427.8125,576,423.8125" style="stroke:#181818;stroke-width:1.0;"/><text fill="#000000" font-family="sans-serif" font-size="13" font-weight="bold" lengthAdjust="spacing" textLength="18" x="582" y="405.5498">9.7</text><text fill="#000000" font-family="sans-serif" font-size="13" lengthAdjust="spacing" textLength="53" x="604" y="405.5498">true/false</text><line style="stroke:#181818;stroke-width:1.0;stroke-dasharray:2.0,2.0;" x1="570" x2="612" y1="455.1035" y2="455.1035"/><line style="stroke:#181818;stroke-width:1.0;stroke-dasharray:2.0,2.0;" x1="612" x2="612" y1="455.1035" y2="468.1035"/><line style="stroke:#181818;stroke-width:1.0;stroke-dasharray:2.0,2.0;" x1="565" x2="612" y1="468.1035" y2="468.1035"/><polygon fill="#181818" points="575,464.1035,565,468.1035,575,472.1035,571,468.1035" style="stroke:#181818;stroke-width:1.0;"/><text fill="#000000" font-family="sans-serif" font-size="13" font-weight="bold" lengthAdjust="spacing" textLength="18" x="577" y="449.8408">9.8</text><text fill="#000000" font-family="sans-serif" font-size="13" lengthAdjust="spacing" textLength="53" x="599" y="449.8408">true/false</text><polygon fill="#181818" points="235,490.3945,225,494.3945,235,498.3945,231,494.3945" style="stroke:#181818;stroke-width:1.0;"/><line style="stroke:#181818;stroke-width:1.0;" x1="229" x2="559" y1="494.3945" y2="494.3945"/><text fill="#000000" font-family="sans-serif" font-size="13" font-weight="bold" lengthAdjust="spacing" textLength="18" x="241" y="489.1318">9.9</text><text fill="#000000" font-family="sans-serif" font-size="13" lengthAdjust="spacing" textLength="35" x="263" y="489.1318">model</text><polygon fill="#181818" points="11,528.6855,1,532.6855,11,536.6855,7,532.6855" style="stroke:#181818;stroke-width:1.0;"/><line style="stroke:#181818;stroke-width:1.0;stroke-dasharray:2.0,2.0;" x1="5" x2="218" y1="532.6855" y2="532.6855"/><text fill="#000000" font-family="sans-serif" font-size="13" font-weight="bold" lengthAdjust="spacing" textLength="14" x="17" y="527.4229">10</text><text fill="#000000" font-family="sans-serif" font-size="13" lengthAdjust="spacing" textLength="35" x="35" y="527.4229">model</text><!--SRC=[ZPFBRi8m44Nt_eeHAq2bBSj6LQMMBNq8K5TiJ38DBeuTsOQAlwyp9f5T6bflOatkFVEmRNT2rTpm2YgjTBurka9mPe_CTdzgdkzuYKjtb0W6SyTLAME1tV92VmbLmWUN5XdpOIToKNFbO90ji1JMeNd7hSWbphHoHak9PW3Smcorc9yPQcs5qqQW9KqNE2v5azjfbLfCv5YhSy3R_76LEZQ6go9RgwVcInhQfQ9A5oYzwBdvaeXsZF6zBs5VRT307PiyK1CPv0QvGv8CYNz5W1TUuIZrN4yPpvquU7aO0FXL6hslOKQGa0XUDvz-ten-DwlHWiz7jKBcJoECDkICixMEBarehuitAr0yZkpZSTl1KAMCX7EQ0FnOeTwMbS61Ir5qqw3AHdscgA7gd5vWN-wkVjfam8iYITStX5zdS6ByMVS5LiIBMcfUqqru63rjzH_DPSo_4E5oTgFjzJP1R1dHNPtUKkH-Cab14O1kCFi6]--></g></svg>