<?xml version="1.0" encoding="us-ascii" standalone="no"?><svg xmlns="http://www.w3.org/2000/svg" xmlns:xlink="http://www.w3.org/1999/xlink" contentStyleType="text/css" height="606px" preserveAspectRatio="none" style="width:926px;height:606px;background:#FFFFFF;" version="1.1" viewBox="0 0 926 606" width="926px" zoomAndPan="magnify"><defs/><g><rect fill="#FFFFFF" height="451.1523" style="stroke:#181818;stroke-width:1.0;" width="10" x="221" y="90.5332"/><rect fill="#FFFFFF" height="346.2793" style="stroke:#181818;stroke-width:1.0;" width="10" x="562" y="148.1152"/><rect fill="#FFFFFF" height="130.873" style="stroke:#181818;stroke-width:1.0;" width="10" x="567" y="325.2305"/><rect fill="#FFFFFF" height="42.291" style="stroke:#181818;stroke-width:1.0;" width="10" x="572" y="369.5215"/><rect fill="#FFFFFF" height="96.5332" style="stroke:#181818;stroke-width:1.0;" width="10" x="741" y="189.4063"/><rect fill="none" height="396.8613" style="stroke:#000000;stroke-width:1.5;" width="793.5" x="126.5" y="105.5332"/><line style="stroke:#181818;stroke-width:0.5;stroke-dasharray:5.0,5.0;" x1="225.5" x2="225.5" y1="57.2422" y2="550.6855"/><line style="stroke:#181818;stroke-width:0.5;stroke-dasharray:5.0,5.0;" x1="373.5" x2="373.5" y1="57.2422" y2="550.6855"/><line style="stroke:#181818;stroke-width:0.5;stroke-dasharray:5.0,5.0;" x1="480.5" x2="480.5" y1="57.2422" y2="550.6855"/><line style="stroke:#181818;stroke-width:0.5;stroke-dasharray:5.0,5.0;" x1="566.5" x2="566.5" y1="57.2422" y2="550.6855"/><line style="stroke:#181818;stroke-width:0.5;stroke-dasharray:5.0,5.0;" x1="746" x2="746" y1="197.2363" y2="550.6855"/><rect fill="#E3E3E3" height="32.6211" rx="2.5" ry="2.5" style="stroke:#181818;stroke-width:0.5;" width="179" x="136.5" y="23.6211"/><text fill="#000000" font-family="sans-serif" font-size="14" lengthAdjust="spacing" textLength="165" x="143.5" y="45.7285">:RegisterVehicleController</text><rect fill="#E3E3E3" height="32.6211" rx="2.5" ry="2.5" style="stroke:#181818;stroke-width:0.5;" width="179" x="136.5" y="549.6855"/><text fill="#000000" font-family="sans-serif" font-size="14" lengthAdjust="spacing" textLength="165" x="143.5" y="571.793">:RegisterVehicleController</text><rect fill="#E3E3E3" height="32.6211" rx="2.5" ry="2.5" style="stroke:#181818;stroke-width:0.5;" width="97" x="325.5" y="23.6211"/><text fill="#000000" font-family="sans-serif" font-size="14" lengthAdjust="spacing" textLength="83" x="332.5" y="45.7285">:Repositories</text><rect fill="#E3E3E3" height="32.6211" rx="2.5" ry="2.5" style="stroke:#181818;stroke-width:0.5;" width="97" x="325.5" y="549.6855"/><text fill="#000000" font-family="sans-serif" font-size="14" lengthAdjust="spacing" textLength="83" x="332.5" y="571.793">:Repositories</text><rect fill="#E3E3E3" height="51.2422" rx="2.5" ry="2.5" style="stroke:#181818;stroke-width:0.5;" width="97" x="432.5" y="5"/><text fill="#000000" font-family="sans-serif" font-size="14" lengthAdjust="spacing" textLength="74" x="444" y="27.1074">repositories</text><text fill="#000000" font-family="sans-serif" font-size="14" lengthAdjust="spacing" textLength="83" x="439.5" y="45.7285">:Repositories</text><rect fill="#E3E3E3" height="51.2422" rx="2.5" ry="2.5" style="stroke:#181818;stroke-width:0.5;" width="97" x="432.5" y="549.6855"/><text fill="#000000" font-family="sans-serif" font-size="14" lengthAdjust="spacing" textLength="74" x="444" y="571.793">repositories</text><text fill="#000000" font-family="sans-serif" font-size="14" lengthAdjust="spacing" textLength="83" x="439.5" y="590.4141">:Repositories</text><rect fill="#E3E3E3" height="51.2422" rx="2.5" ry="2.5" style="stroke:#181818;stroke-width:0.5;" width="55" x="539.5" y="5"/><text fill="#000000" font-family="sans-serif" font-size="14" lengthAdjust="spacing" textLength="41" x="546.5" y="27.1074">brand:</text><text fill="#000000" font-family="sans-serif" font-size="14" lengthAdjust="spacing" textLength="38" x="548" y="45.7285">Brand</text><rect fill="#E3E3E3" height="51.2422" rx="2.5" ry="2.5" style="stroke:#181818;stroke-width:0.5;" width="55" x="539.5" y="549.6855"/><text fill="#000000" font-family="sans-serif" font-size="14" lengthAdjust="spacing" textLength="41" x="546.5" y="571.793">brand:</text><text fill="#000000" font-family="sans-serif" font-size="14" lengthAdjust="spacing" textLength="38" x="548" y="590.4141">Brand</text><rect fill="#E3E3E3" height="51.2422" rx="2.5" ry="2.5" style="stroke:#181818;stroke-width:0.5;" width="56" x="718" y="549.6855"/><text fill="#000000" font-family="sans-serif" font-size="14" lengthAdjust="spacing" textLength="42" x="725" y="571.793">model:</text><text fill="#000000" font-family="sans-serif" font-size="14" lengthAdjust="spacing" textLength="38" x="727" y="590.4141">Model</text><rect fill="#FFFFFF" height="451.1523" style="stroke:#181818;stroke-width:1.0;" width="10" x="221" y="90.5332"/><rect fill="#FFFFFF" height="346.2793" style="stroke:#181818;stroke-width:1.0;" width="10" x="562" y="148.1152"/><rect fill="#FFFFFF" height="130.873" style="stroke:#181818;stroke-width:1.0;" width="10" x="567" y="325.2305"/><rect fill="#FFFFFF" height="42.291" style="stroke:#181818;stroke-width:1.0;" width="10" x="572" y="369.5215"/><rect fill="#FFFFFF" height="96.5332" style="stroke:#181818;stroke-width:1.0;" width="10" x="741" y="189.4063"/><polygon fill="#181818" points="209,86.5332,219,90.5332,209,94.5332,213,90.5332" style="stroke:#181818;stroke-width:1.0;"/><line style="stroke:#181818;stroke-width:1.0;" x1="0" x2="215" y1="90.5332" y2="90.5332"/><text fill="#000000" font-family="sans-serif" font-size="13" font-weight="bold" lengthAdjust="spacing" textLength="14" x="7" y="85.2705">13</text><text fill="#000000" font-family="sans-serif" font-size="13" lengthAdjust="spacing" textLength="184" x="25" y="85.2705">createModel(brand,modelName)</text><path d="M126.5,105.5332 L301.5,105.5332 L301.5,114.8242 L291.5,124.8242 L126.5,124.8242 L126.5,105.5332 " fill="#EEEEEE" style="stroke:#000000;stroke-width:1.5;"/><rect fill="none" height="396.8613" style="stroke:#000000;stroke-width:1.5;" width="793.5" x="126.5" y="105.5332"/><text fill="#000000" font-family="sans-serif" font-size="13" font-weight="bold" lengthAdjust="spacing" textLength="130" x="141.5" y="120.5615">Create Model Object</text><polygon fill="#181818" points="550,144.1152,560,148.1152,550,152.1152,554,148.1152" style="stroke:#181818;stroke-width:1.0;"/><line style="stroke:#181818;stroke-width:1.0;" x1="231" x2="556" y1="148.1152" y2="148.1152"/><text fill="#000000" font-family="sans-serif" font-size="13" font-weight="bold" lengthAdjust="spacing" textLength="25" x="238" y="142.8525">13.1</text><text fill="#000000" font-family="sans-serif" font-size="13" lengthAdjust="spacing" textLength="155" x="267" y="142.8525">registerModel(modelName)</text><polygon fill="#181818" points="706,175.4063,716,179.4063,706,183.4063,710,179.4063" style="stroke:#181818;stroke-width:1.0;"/><line style="stroke:#181818;stroke-width:1.0;" x1="572" x2="712" y1="179.4063" y2="179.4063"/><text fill="#000000" font-family="sans-serif" font-size="13" font-weight="bold" lengthAdjust="spacing" textLength="25" x="579" y="174.1436">13.2</text><text fill="#000000" font-family="sans-serif" font-size="13" lengthAdjust="spacing" textLength="76" x="608" y="174.1436">create(name)</text><rect fill="#E3E3E3" height="51.2422" rx="2.5" ry="2.5" style="stroke:#181818;stroke-width:0.5;" width="56" x="718" y="156.1152"/><text fill="#000000" font-family="sans-serif" font-size="14" lengthAdjust="spacing" textLength="42" x="725" y="178.2227">model:</text><text fill="#000000" font-family="sans-serif" font-size="14" lengthAdjust="spacing" textLength="38" x="727" y="196.8438">Model</text><line style="stroke:#181818;stroke-width:1.0;" x1="751" x2="793" y1="241.6484" y2="241.6484"/><line style="stroke:#181818;stroke-width:1.0;" x1="793" x2="793" y1="241.6484" y2="254.6484"/><line style="stroke:#181818;stroke-width:1.0;" x1="752" x2="793" y1="254.6484" y2="254.6484"/><polygon fill="#181818" points="762,250.6484,752,254.6484,762,258.6484,758,254.6484" style="stroke:#181818;stroke-width:1.0;"/><text fill="#000000" font-family="sans-serif" font-size="13" font-weight="bold" lengthAdjust="spacing" textLength="25" x="758" y="236.3857">13.3</text><text fill="#000000" font-family="sans-serif" font-size="13" lengthAdjust="spacing" textLength="121" x="787" y="236.3857">validateModel(model)</text><polygon fill="#181818" points="583,281.9395,573,285.9395,583,289.9395,579,285.9395" style="stroke:#181818;stroke-width:1.0;"/><line style="stroke:#181818;stroke-width:1.0;stroke-dasharray:2.0,2.0;" x1="577" x2="745" y1="285.9395" y2="285.9395"/><text fill="#000000" font-family="sans-serif" font-size="13" font-weight="bold" lengthAdjust="spacing" textLength="25" x="589" y="280.6768">13.4</text><text fill="#000000" font-family="sans-serif" font-size="13" lengthAdjust="spacing" textLength="35" x="618" y="280.6768">model</text><line style="stroke:#181818;stroke-width:1.0;" x1="572" x2="619" y1="312.2305" y2="312.2305"/><line style="stroke:#181818;stroke-width:1.0;" x1="619" x2="619" y1="312.2305" y2="325.2305"/><line style="stroke:#181818;stroke-width:1.0;" x1="578" x2="619" y1="325.2305" y2="325.2305"/><polygon fill="#181818" points="588,321.2305,578,325.2305,588,329.2305,584,325.2305" style="stroke:#181818;stroke-width:1.0;"/><text fill="#000000" font-family="sans-serif" font-size="13" font-weight="bold" lengthAdjust="spacing" textLength="25" x="584" y="306.9678">13.5</text><text fill="#000000" font-family="sans-serif" font-size="13" lengthAdjust="spacing" textLength="99" x="613" y="306.9678">addModel(model)</text><line style="stroke:#181818;stroke-width:1.0;" x1="577" x2="624" y1="356.5215" y2="356.5215"/><line style="stroke:#181818;stroke-width:1.0;" x1="624" x2="624" y1="356.5215" y2="369.5215"/><line style="stroke:#181818;stroke-width:1.0;" x1="583" x2="624" y1="369.5215" y2="369.5215"/><polygon fill="#181818" points="593,365.5215,583,369.5215,593,373.5215,589,369.5215" style="stroke:#181818;stroke-width:1.0;"/><text fill="#000000" font-family="sans-serif" font-size="13" font-weight="bold" lengthAdjust="spacing" textLength="25" x="589" y="351.2588">13.6</text><text fill="#000000" font-family="sans-serif" font-size="13" lengthAdjust="spacing" textLength="121" x="618" y="351.2588">validateModel(model)</text><line style="stroke:#181818;stroke-width:1.0;stroke-dasharray:2.0,2.0;" x1="582" x2="624" y1="410.8125" y2="410.8125"/><line style="stroke:#181818;stroke-width:1.0;stroke-dasharray:2.0,2.0;" x1="624" x2="624" y1="410.8125" y2="423.8125"/><line style="stroke:#181818;stroke-width:1.0;stroke-dasharray:2.0,2.0;" x1="577" x2="624" y1="423.8125" y2="423.8125"/><polygon fill="#181818" points="587,419.8125,577,423.8125,587,427.8125,583,423.8125" style="stroke:#181818;stroke-width:1.0;"/><text fill="#000000" font-family="sans-serif" font-size="13" font-weight="bold" lengthAdjust="spacing" textLength="25" x="589" y="405.5498">13.7</text><text fill="#000000" font-family="sans-serif" font-size="13" lengthAdjust="spacing" textLength="53" x="618" y="405.5498">true/false</text><line style="stroke:#181818;stroke-width:1.0;stroke-dasharray:2.0,2.0;" x1="577" x2="619" y1="455.1035" y2="455.1035"/><line style="stroke:#181818;stroke-width:1.0;stroke-dasharray:2.0,2.0;" x1="619" x2="619" y1="455.1035" y2="468.1035"/><line style="stroke:#181818;stroke-width:1.0;stroke-dasharray:2.0,2.0;" x1="572" x2="619" y1="468.1035" y2="468.1035"/><polygon fill="#181818" points="582,464.1035,572,468.1035,582,472.1035,578,468.1035" style="stroke:#181818;stroke-width:1.0;"/><text fill="#000000" font-family="sans-serif" font-size="13" font-weight="bold" lengthAdjust="spacing" textLength="25" x="584" y="449.8408">13.8</text><text fill="#000000" font-family="sans-serif" font-size="13" lengthAdjust="spacing" textLength="53" x="613" y="449.8408">true/false</text><polygon fill="#181818" points="242,490.3945,232,494.3945,242,498.3945,238,494.3945" style="stroke:#181818;stroke-width:1.0;"/><line style="stroke:#181818;stroke-width:1.0;" x1="236" x2="566" y1="494.3945" y2="494.3945"/><text fill="#000000" font-family="sans-serif" font-size="13" font-weight="bold" lengthAdjust="spacing" textLength="25" x="248" y="489.1318">13.9</text><text fill="#000000" font-family="sans-serif" font-size="13" lengthAdjust="spacing" textLength="35" x="277" y="489.1318">model</text><polygon fill="#181818" points="11,528.6855,1,532.6855,11,536.6855,7,532.6855" style="stroke:#181818;stroke-width:1.0;"/><line style="stroke:#181818;stroke-width:1.0;stroke-dasharray:2.0,2.0;" x1="5" x2="566" y1="532.6855" y2="532.6855"/><text fill="#000000" font-family="sans-serif" font-size="13" font-weight="bold" lengthAdjust="spacing" textLength="14" x="17" y="527.4229">14</text><text fill="#000000" font-family="sans-serif" font-size="13" lengthAdjust="spacing" textLength="35" x="35" y="527.4229">model</text><!--SRC=[ZLDBJyCm3BxdLrYSjec19ZXL20bs7Gzj4wTTlDPqOMbI9UdG_Zrvh5Mxqe4lYPplOJk9sNDPeiO22YLLkjEg8B2w8cQQanBJFUQqiaT1e2crA7FH1fWTPkgRonm-KHXYpAKjJtc9qi9LigIS6qlwWtOy5JHNqceb1EahG0FpzNBH8vJASAiq9nCmJUAuujxRAjcbw1PZ8_i2xukdTPUnrIYpP2EV_HemOTS55IeZuK0lVWsWi6CCArT2LMn9m-oEJHz35mcacj1Im8o2mNLGUCM2ncUacnd3rFA3mySHW8jSgwg4UL29Ll2s_N8JP-7OXyU2CmpLGkBk8mutchRjQaPZ4njiyZwYYfCBzCcaRc4akneTdTCCu2nYlRLM0WSKF6l64IeR3v5Q3HLzzOo6l9lwmoO1pBAEtT0GVft1IUFFkYzejVHQBVd_T1k_na1RmrTpMUPV4l5rDgCTvFearHhjnteVCW_JwTabzTr_0000]--></g></svg>