<?xml version="1.0" encoding="us-ascii" standalone="no"?><svg xmlns="http://www.w3.org/2000/svg" xmlns:xlink="http://www.w3.org/1999/xlink" contentStyleType="text/css" height="1020px" preserveAspectRatio="none" style="width:1963px;height:1020px;background:#FFFFFF;" version="1.1" viewBox="0 0 1963 1020" width="1963px" zoomAndPan="magnify"><defs/><g><!--class Brand--><g id="elem_Brand"><rect codeLine="11" fill="#F1F1F1" height="141.1055" id="Brand" rx="2.5" ry="2.5" style="stroke:#181818;stroke-width:0.5;" width="217" x="1211" y="447"/><ellipse cx="1296.25" cy="463" fill="#ADD1B2" rx="11" ry="11" style="stroke:#181818;stroke-width:1.0;"/><path d="M1299.0156,458.875 Q1299.1719,458.6563 1299.3594,458.5469 Q1299.5469,458.4375 1299.7656,458.4375 Q1300.1406,458.4375 1300.375,458.7031 Q1300.6094,458.9531 1300.6094,459.5625 L1300.6094,461.0156 Q1300.6094,461.625 1300.375,461.8906 Q1300.1406,462.1563 1299.7656,462.1563 Q1299.4219,462.1563 1299.2188,461.9531 Q1299.0156,461.7656 1298.9063,461.25 Q1298.8594,460.8906 1298.6719,460.7031 Q1298.3438,460.3281 1297.7344,460.1094 Q1297.125,459.8906 1296.5,459.8906 Q1295.7344,459.8906 1295.0938,460.2188 Q1294.4688,460.5469 1293.9688,461.2969 Q1293.4844,462.0469 1293.4844,463.0781 L1293.4844,464.1719 Q1293.4844,465.4063 1294.375,466.2344 Q1295.2656,467.0469 1296.8594,467.0469 Q1297.7969,467.0469 1298.4531,466.7969 Q1298.8438,466.6406 1299.2656,466.2031 Q1299.5313,465.9375 1299.6719,465.8594 Q1299.8281,465.7813 1300.0313,465.7813 Q1300.3594,465.7813 1300.6094,466.0469 Q1300.875,466.2969 1300.875,466.6406 Q1300.875,466.9844 1300.5313,467.3906 Q1300.0313,467.9688 1299.2344,468.2969 Q1298.1563,468.75 1296.8594,468.75 Q1295.3438,468.75 1294.1406,468.125 Q1293.1563,467.625 1292.4688,466.5625 Q1291.7813,465.4844 1291.7813,464.2031 L1291.7813,463.0469 Q1291.7813,461.7188 1292.3906,460.5781 Q1293.0156,459.4219 1294.1094,458.8125 Q1295.2031,458.1875 1296.4375,458.1875 Q1297.1719,458.1875 1297.8125,458.3594 Q1298.4688,458.5156 1299.0156,458.875 Z " fill="#000000"/><text fill="#000000" font-family="sans-serif" font-size="14" lengthAdjust="spacing" textLength="38" x="1316.75" y="468.7969">Brand</text><line style="stroke:#181818;stroke-width:0.5;" x1="1212" x2="1427" y1="479" y2="479"/><text fill="#000000" font-family="sans-serif" font-size="14" lengthAdjust="spacing" textLength="81" x="1217" y="498.1074">-String name</text><text fill="#000000" font-family="sans-serif" font-size="14" lengthAdjust="spacing" textLength="127" x="1217" y="516.7285">-List &lt;Model&gt; model</text><line style="stroke:#181818;stroke-width:0.5;" x1="1212" x2="1427" y1="524.2422" y2="524.2422"/><text fill="#000000" font-family="sans-serif" font-size="14" lengthAdjust="spacing" textLength="91" x="1217" y="543.3496">+Brand(name)</text><text fill="#000000" font-family="sans-serif" font-size="14" lengthAdjust="spacing" textLength="118" x="1217" y="561.9707">+addModel(model)</text><text fill="#000000" font-family="sans-serif" font-size="14" lengthAdjust="spacing" textLength="205" x="1217" y="580.5918">+hasModelByName(modelName)</text></g><!--class Model--><g id="elem_Model"><rect codeLine="20" fill="#F1F1F1" height="85.2422" id="Model" rx="2.5" ry="2.5" style="stroke:#181818;stroke-width:0.5;" width="103" x="1217" y="825.5"/><ellipse cx="1246.85" cy="841.5" fill="#ADD1B2" rx="11" ry="11" style="stroke:#181818;stroke-width:1.0;"/><path d="M1249.6156,837.375 Q1249.7719,837.1563 1249.9594,837.0469 Q1250.1469,836.9375 1250.3656,836.9375 Q1250.7406,836.9375 1250.975,837.2031 Q1251.2094,837.4531 1251.2094,838.0625 L1251.2094,839.5156 Q1251.2094,840.125 1250.975,840.3906 Q1250.7406,840.6563 1250.3656,840.6563 Q1250.0219,840.6563 1249.8188,840.4531 Q1249.6156,840.2656 1249.5063,839.75 Q1249.4594,839.3906 1249.2719,839.2031 Q1248.9438,838.8281 1248.3344,838.6094 Q1247.725,838.3906 1247.1,838.3906 Q1246.3344,838.3906 1245.6938,838.7188 Q1245.0688,839.0469 1244.5688,839.7969 Q1244.0844,840.5469 1244.0844,841.5781 L1244.0844,842.6719 Q1244.0844,843.9063 1244.975,844.7344 Q1245.8656,845.5469 1247.4594,845.5469 Q1248.3969,845.5469 1249.0531,845.2969 Q1249.4438,845.1406 1249.8656,844.7031 Q1250.1313,844.4375 1250.2719,844.3594 Q1250.4281,844.2813 1250.6313,844.2813 Q1250.9594,844.2813 1251.2094,844.5469 Q1251.475,844.7969 1251.475,845.1406 Q1251.475,845.4844 1251.1313,845.8906 Q1250.6313,846.4688 1249.8344,846.7969 Q1248.7563,847.25 1247.4594,847.25 Q1245.9438,847.25 1244.7406,846.625 Q1243.7563,846.125 1243.0688,845.0625 Q1242.3813,843.9844 1242.3813,842.7031 L1242.3813,841.5469 Q1242.3813,840.2188 1242.9906,839.0781 Q1243.6156,837.9219 1244.7094,837.3125 Q1245.8031,836.6875 1247.0375,836.6875 Q1247.7719,836.6875 1248.4125,836.8594 Q1249.0688,837.0156 1249.6156,837.375 Z " fill="#000000"/><text fill="#000000" font-family="sans-serif" font-size="14" lengthAdjust="spacing" textLength="38" x="1264.15" y="847.2969">Model</text><line style="stroke:#181818;stroke-width:0.5;" x1="1218" x2="1319" y1="857.5" y2="857.5"/><text fill="#000000" font-family="sans-serif" font-size="14" lengthAdjust="spacing" textLength="81" x="1223" y="876.6074">-String name</text><line style="stroke:#181818;stroke-width:0.5;" x1="1218" x2="1319" y1="884.1211" y2="884.1211"/><text fill="#000000" font-family="sans-serif" font-size="14" lengthAdjust="spacing" textLength="91" x="1223" y="903.2285">+Model(name)</text></g><!--class Vehicle--><g id="elem_Vehicle"><rect codeLine="26" fill="#F1F1F1" height="290.0742" id="Vehicle" rx="2.5" ry="2.5" style="stroke:#181818;stroke-width:0.5;" width="755" x="404" y="723"/><ellipse cx="754.25" cy="739" fill="#ADD1B2" rx="11" ry="11" style="stroke:#181818;stroke-width:1.0;"/><path d="M757.0156,734.875 Q757.1719,734.6563 757.3594,734.5469 Q757.5469,734.4375 757.7656,734.4375 Q758.1406,734.4375 758.375,734.7031 Q758.6094,734.9531 758.6094,735.5625 L758.6094,737.0156 Q758.6094,737.625 758.375,737.8906 Q758.1406,738.1563 757.7656,738.1563 Q757.4219,738.1563 757.2188,737.9531 Q757.0156,737.7656 756.9063,737.25 Q756.8594,736.8906 756.6719,736.7031 Q756.3438,736.3281 755.7344,736.1094 Q755.125,735.8906 754.5,735.8906 Q753.7344,735.8906 753.0938,736.2188 Q752.4688,736.5469 751.9688,737.2969 Q751.4844,738.0469 751.4844,739.0781 L751.4844,740.1719 Q751.4844,741.4063 752.375,742.2344 Q753.2656,743.0469 754.8594,743.0469 Q755.7969,743.0469 756.4531,742.7969 Q756.8438,742.6406 757.2656,742.2031 Q757.5313,741.9375 757.6719,741.8594 Q757.8281,741.7813 758.0313,741.7813 Q758.3594,741.7813 758.6094,742.0469 Q758.875,742.2969 758.875,742.6406 Q758.875,742.9844 758.5313,743.3906 Q758.0313,743.9688 757.2344,744.2969 Q756.1563,744.75 754.8594,744.75 Q753.3438,744.75 752.1406,744.125 Q751.1563,743.625 750.4688,742.5625 Q749.7813,741.4844 749.7813,740.2031 L749.7813,739.0469 Q749.7813,737.7188 750.3906,736.5781 Q751.0156,735.4219 752.1094,734.8125 Q753.2031,734.1875 754.4375,734.1875 Q755.1719,734.1875 755.8125,734.3594 Q756.4688,734.5156 757.0156,734.875 Z " fill="#000000"/><text fill="#000000" font-family="sans-serif" font-size="14" lengthAdjust="spacing" textLength="46" x="774.75" y="744.7969">Vehicle</text><line style="stroke:#181818;stroke-width:0.5;" x1="405" x2="1158" y1="755" y2="755"/><text fill="#000000" font-family="sans-serif" font-size="14" lengthAdjust="spacing" textLength="84" x="410" y="774.1074">-Brand brand</text><text fill="#000000" font-family="sans-serif" font-size="14" lengthAdjust="spacing" textLength="85" x="410" y="792.7285">-Model model</text><text fill="#000000" font-family="sans-serif" font-size="14" lengthAdjust="spacing" textLength="73" x="410" y="811.3496">-String type</text><text fill="#000000" font-family="sans-serif" font-size="14" lengthAdjust="spacing" textLength="61" x="410" y="829.9707">-float tare</text><text fill="#000000" font-family="sans-serif" font-size="14" lengthAdjust="spacing" textLength="115" x="410" y="848.5918">-float grossWeight</text><text fill="#000000" font-family="sans-serif" font-size="14" lengthAdjust="spacing" textLength="89" x="410" y="867.2129">-int currentKm</text><text fill="#000000" font-family="sans-serif" font-size="14" lengthAdjust="spacing" textLength="117" x="410" y="885.834">-Date registerDate</text><text fill="#000000" font-family="sans-serif" font-size="14" lengthAdjust="spacing" textLength="136" x="410" y="904.4551">-Date acquisitionDate</text><text fill="#000000" font-family="sans-serif" font-size="14" lengthAdjust="spacing" textLength="145" x="410" y="923.0762">-int checkupFrequency</text><text fill="#000000" font-family="sans-serif" font-size="14" lengthAdjust="spacing" textLength="122" x="410" y="941.6973">-String licensePlate</text><text fill="#000000" font-family="sans-serif" font-size="14" lengthAdjust="spacing" textLength="184" x="410" y="960.3184">-List&lt;CheckUp&gt; checkUpList;</text><line style="stroke:#181818;stroke-width:0.5;" x1="405" x2="1158" y1="967.832" y2="967.832"/><text fill="#000000" font-family="sans-serif" font-size="14" lengthAdjust="spacing" textLength="743" x="410" y="986.9395">+Vehicle(type,tare,grossWeight,currentKm,registerDate,acquisitionDate,checkupFrequency,licensePlate,brand,model)</text><text fill="#000000" font-family="sans-serif" font-size="14" lengthAdjust="spacing" textLength="154" x="410" y="1005.5605">-validateVehicle(vehicle)</text></g><!--class RegisterVehicleController--><g id="elem_RegisterVehicleController"><rect codeLine="43" fill="#F1F1F1" height="103.8633" id="RegisterVehicleController" rx="2.5" ry="2.5" style="stroke:#181818;stroke-width:0.5;" width="875" x="688" y="16"/><ellipse cx="1040.75" cy="32" fill="#ADD1B2" rx="11" ry="11" style="stroke:#181818;stroke-width:1.0;"/><path d="M1043.5156,27.875 Q1043.6719,27.6563 1043.8594,27.5469 Q1044.0469,27.4375 1044.2656,27.4375 Q1044.6406,27.4375 1044.875,27.7031 Q1045.1094,27.9531 1045.1094,28.5625 L1045.1094,30.0156 Q1045.1094,30.625 1044.875,30.8906 Q1044.6406,31.1563 1044.2656,31.1563 Q1043.9219,31.1563 1043.7188,30.9531 Q1043.5156,30.7656 1043.4063,30.25 Q1043.3594,29.8906 1043.1719,29.7031 Q1042.8438,29.3281 1042.2344,29.1094 Q1041.625,28.8906 1041,28.8906 Q1040.2344,28.8906 1039.5938,29.2188 Q1038.9688,29.5469 1038.4688,30.2969 Q1037.9844,31.0469 1037.9844,32.0781 L1037.9844,33.1719 Q1037.9844,34.4063 1038.875,35.2344 Q1039.7656,36.0469 1041.3594,36.0469 Q1042.2969,36.0469 1042.9531,35.7969 Q1043.3438,35.6406 1043.7656,35.2031 Q1044.0313,34.9375 1044.1719,34.8594 Q1044.3281,34.7813 1044.5313,34.7813 Q1044.8594,34.7813 1045.1094,35.0469 Q1045.375,35.2969 1045.375,35.6406 Q1045.375,35.9844 1045.0313,36.3906 Q1044.5313,36.9688 1043.7344,37.2969 Q1042.6563,37.75 1041.3594,37.75 Q1039.8438,37.75 1038.6406,37.125 Q1037.6563,36.625 1036.9688,35.5625 Q1036.2813,34.4844 1036.2813,33.2031 L1036.2813,32.0469 Q1036.2813,30.7188 1036.8906,29.5781 Q1037.5156,28.4219 1038.6094,27.8125 Q1039.7031,27.1875 1040.9375,27.1875 Q1041.6719,27.1875 1042.3125,27.3594 Q1042.9688,27.5156 1043.5156,27.875 Z " fill="#000000"/><text fill="#000000" font-family="sans-serif" font-size="14" lengthAdjust="spacing" textLength="161" x="1061.25" y="37.7969">RegisterVehicleController</text><line style="stroke:#181818;stroke-width:0.5;" x1="689" x2="1562" y1="48" y2="48"/><line style="stroke:#181818;stroke-width:0.5;" x1="689" x2="1562" y1="56" y2="56"/><text fill="#000000" font-family="sans-serif" font-size="14" lengthAdjust="spacing" textLength="179" x="694" y="75.1074">+RegisterVehicleController()</text><text fill="#000000" font-family="sans-serif" font-size="14" lengthAdjust="spacing" textLength="224" x="694" y="93.7285">-getBrand(brandName,modelName)</text><text fill="#000000" font-family="sans-serif" font-size="14" lengthAdjust="spacing" textLength="863" x="694" y="112.3496">+registerVehicle(type,tare,grossWeight,currentKm,registerDate,acquisitionDate,checkupFrequency,licensePlate,brandName,modelName)</text></g><!--class RegisterVehicleUI--><g id="elem_RegisterVehicleUI"><rect codeLine="50" fill="#F1F1F1" height="48" id="RegisterVehicleUI" rx="2.5" ry="2.5" style="stroke:#181818;stroke-width:0.5;" width="143" x="510" y="44"/><ellipse cx="525" cy="60" fill="#ADD1B2" rx="11" ry="11" style="stroke:#181818;stroke-width:1.0;"/><path d="M527.7656,55.875 Q527.9219,55.6563 528.1094,55.5469 Q528.2969,55.4375 528.5156,55.4375 Q528.8906,55.4375 529.125,55.7031 Q529.3594,55.9531 529.3594,56.5625 L529.3594,58.0156 Q529.3594,58.625 529.125,58.8906 Q528.8906,59.1563 528.5156,59.1563 Q528.1719,59.1563 527.9688,58.9531 Q527.7656,58.7656 527.6563,58.25 Q527.6094,57.8906 527.4219,57.7031 Q527.0938,57.3281 526.4844,57.1094 Q525.875,56.8906 525.25,56.8906 Q524.4844,56.8906 523.8438,57.2188 Q523.2188,57.5469 522.7188,58.2969 Q522.2344,59.0469 522.2344,60.0781 L522.2344,61.1719 Q522.2344,62.4063 523.125,63.2344 Q524.0156,64.0469 525.6094,64.0469 Q526.5469,64.0469 527.2031,63.7969 Q527.5938,63.6406 528.0156,63.2031 Q528.2813,62.9375 528.4219,62.8594 Q528.5781,62.7813 528.7813,62.7813 Q529.1094,62.7813 529.3594,63.0469 Q529.625,63.2969 529.625,63.6406 Q529.625,63.9844 529.2813,64.3906 Q528.7813,64.9688 527.9844,65.2969 Q526.9063,65.75 525.6094,65.75 Q524.0938,65.75 522.8906,65.125 Q521.9063,64.625 521.2188,63.5625 Q520.5313,62.4844 520.5313,61.2031 L520.5313,60.0469 Q520.5313,58.7188 521.1406,57.5781 Q521.7656,56.4219 522.8594,55.8125 Q523.9531,55.1875 525.1875,55.1875 Q525.9219,55.1875 526.5625,55.3594 Q527.2188,55.5156 527.7656,55.875 Z " fill="#000000"/><text fill="#000000" font-family="sans-serif" font-size="14" lengthAdjust="spacing" textLength="111" x="539" y="65.7969">RegisterVehicleUI</text><line style="stroke:#181818;stroke-width:0.5;" x1="511" x2="652" y1="76" y2="76"/><line style="stroke:#181818;stroke-width:0.5;" x1="511" x2="652" y1="84" y2="84"/></g><!--class Collaborator--><g id="elem_Collaborator"><rect codeLine="53" fill="#F1F1F1" height="252.832" id="Collaborator" rx="2.5" ry="2.5" style="stroke:#181818;stroke-width:0.5;" width="653" x="7" y="391"/><ellipse cx="290.25" cy="407" fill="#ADD1B2" rx="11" ry="11" style="stroke:#181818;stroke-width:1.0;"/><path d="M293.0156,402.875 Q293.1719,402.6563 293.3594,402.5469 Q293.5469,402.4375 293.7656,402.4375 Q294.1406,402.4375 294.375,402.7031 Q294.6094,402.9531 294.6094,403.5625 L294.6094,405.0156 Q294.6094,405.625 294.375,405.8906 Q294.1406,406.1563 293.7656,406.1563 Q293.4219,406.1563 293.2188,405.9531 Q293.0156,405.7656 292.9063,405.25 Q292.8594,404.8906 292.6719,404.7031 Q292.3438,404.3281 291.7344,404.1094 Q291.125,403.8906 290.5,403.8906 Q289.7344,403.8906 289.0938,404.2188 Q288.4688,404.5469 287.9688,405.2969 Q287.4844,406.0469 287.4844,407.0781 L287.4844,408.1719 Q287.4844,409.4063 288.375,410.2344 Q289.2656,411.0469 290.8594,411.0469 Q291.7969,411.0469 292.4531,410.7969 Q292.8438,410.6406 293.2656,410.2031 Q293.5313,409.9375 293.6719,409.8594 Q293.8281,409.7813 294.0313,409.7813 Q294.3594,409.7813 294.6094,410.0469 Q294.875,410.2969 294.875,410.6406 Q294.875,410.9844 294.5313,411.3906 Q294.0313,411.9688 293.2344,412.2969 Q292.1563,412.75 290.8594,412.75 Q289.3438,412.75 288.1406,412.125 Q287.1563,411.625 286.4688,410.5625 Q285.7813,409.4844 285.7813,408.2031 L285.7813,407.0469 Q285.7813,405.7188 286.3906,404.5781 Q287.0156,403.4219 288.1094,402.8125 Q289.2031,402.1875 290.4375,402.1875 Q291.1719,402.1875 291.8125,402.3594 Q292.4688,402.5156 293.0156,402.875 Z " fill="#000000"/><text fill="#000000" font-family="sans-serif" font-size="14" lengthAdjust="spacing" textLength="78" x="310.75" y="412.7969">Collaborator</text><line style="stroke:#181818;stroke-width:0.5;" x1="8" x2="659" y1="423" y2="423"/><text fill="#000000" font-family="sans-serif" font-size="14" lengthAdjust="spacing" textLength="81" x="13" y="442.1074">-String name</text><text fill="#000000" font-family="sans-serif" font-size="14" lengthAdjust="spacing" textLength="117" x="13" y="460.7285">-List&lt;Skill&gt; skillList</text><text fill="#000000" font-family="sans-serif" font-size="14" lengthAdjust="spacing" textLength="50" x="13" y="479.3496">-Job job</text><text fill="#000000" font-family="sans-serif" font-size="14" lengthAdjust="spacing" textLength="111" x="13" y="497.9707">-Date dateOfBirth</text><text fill="#000000" font-family="sans-serif" font-size="14" lengthAdjust="spacing" textLength="132" x="13" y="516.5918">-Date admissionDate</text><text fill="#000000" font-family="sans-serif" font-size="14" lengthAdjust="spacing" textLength="112" x="13" y="535.2129">-Address address</text><text fill="#000000" font-family="sans-serif" font-size="14" lengthAdjust="spacing" textLength="135" x="13" y="553.834">-Document document</text><text fill="#000000" font-family="sans-serif" font-size="14" lengthAdjust="spacing" textLength="135" x="13" y="572.4551">-String phoneNumber</text><text fill="#000000" font-family="sans-serif" font-size="14" lengthAdjust="spacing" textLength="79" x="13" y="591.0762">-String email</text><text fill="#000000" font-family="sans-serif" font-size="14" lengthAdjust="spacing" textLength="78" x="13" y="609.6973">-int taxpayer</text><line style="stroke:#181818;stroke-width:0.5;" x1="8" x2="659" y1="617.2109" y2="617.2109"/><text fill="#000000" font-family="sans-serif" font-size="14" lengthAdjust="spacing" textLength="641" x="13" y="636.3184">+Collaborator(name, dateOfBirth, admissionDate, address, document, phoneNumber, email, taxpayer)</text></g><!--class VehicleFleetManager--><g id="elem_VehicleFleetManager"><rect codeLine="68" fill="#F1F1F1" height="48" id="VehicleFleetManager" rx="2.5" ry="2.5" style="stroke:#181818;stroke-width:0.5;" width="166" x="142.5" y="844"/><ellipse cx="157.5" cy="860" fill="#ADD1B2" rx="11" ry="11" style="stroke:#181818;stroke-width:1.0;"/><path d="M160.2656,855.875 Q160.4219,855.6563 160.6094,855.5469 Q160.7969,855.4375 161.0156,855.4375 Q161.3906,855.4375 161.625,855.7031 Q161.8594,855.9531 161.8594,856.5625 L161.8594,858.0156 Q161.8594,858.625 161.625,858.8906 Q161.3906,859.1563 161.0156,859.1563 Q160.6719,859.1563 160.4688,858.9531 Q160.2656,858.7656 160.1563,858.25 Q160.1094,857.8906 159.9219,857.7031 Q159.5938,857.3281 158.9844,857.1094 Q158.375,856.8906 157.75,856.8906 Q156.9844,856.8906 156.3438,857.2188 Q155.7188,857.5469 155.2188,858.2969 Q154.7344,859.0469 154.7344,860.0781 L154.7344,861.1719 Q154.7344,862.4063 155.625,863.2344 Q156.5156,864.0469 158.1094,864.0469 Q159.0469,864.0469 159.7031,863.7969 Q160.0938,863.6406 160.5156,863.2031 Q160.7813,862.9375 160.9219,862.8594 Q161.0781,862.7813 161.2813,862.7813 Q161.6094,862.7813 161.8594,863.0469 Q162.125,863.2969 162.125,863.6406 Q162.125,863.9844 161.7813,864.3906 Q161.2813,864.9688 160.4844,865.2969 Q159.4063,865.75 158.1094,865.75 Q156.5938,865.75 155.3906,865.125 Q154.4063,864.625 153.7188,863.5625 Q153.0313,862.4844 153.0313,861.2031 L153.0313,860.0469 Q153.0313,858.7188 153.6406,857.5781 Q154.2656,856.4219 155.3594,855.8125 Q156.4531,855.1875 157.6875,855.1875 Q158.4219,855.1875 159.0625,855.3594 Q159.7188,855.5156 160.2656,855.875 Z " fill="#000000"/><text fill="#000000" font-family="sans-serif" font-size="14" lengthAdjust="spacing" textLength="134" x="171.5" y="865.7969">VehicleFleetManager</text><line style="stroke:#181818;stroke-width:0.5;" x1="143.5" x2="307.5" y1="876" y2="876"/><line style="stroke:#181818;stroke-width:0.5;" x1="143.5" x2="307.5" y1="884" y2="884"/></g><!--class Repositories--><g id="elem_Repositories"><rect codeLine="71" fill="#F1F1F1" height="122.4844" id="Repositories" rx="2.5" ry="2.5" style="stroke:#181818;stroke-width:0.5;" width="194" x="1666.5" y="7"/><ellipse cx="1719.75" cy="23" fill="#ADD1B2" rx="11" ry="11" style="stroke:#181818;stroke-width:1.0;"/><path d="M1722.5156,18.875 Q1722.6719,18.6563 1722.8594,18.5469 Q1723.0469,18.4375 1723.2656,18.4375 Q1723.6406,18.4375 1723.875,18.7031 Q1724.1094,18.9531 1724.1094,19.5625 L1724.1094,21.0156 Q1724.1094,21.625 1723.875,21.8906 Q1723.6406,22.1563 1723.2656,22.1563 Q1722.9219,22.1563 1722.7188,21.9531 Q1722.5156,21.7656 1722.4063,21.25 Q1722.3594,20.8906 1722.1719,20.7031 Q1721.8438,20.3281 1721.2344,20.1094 Q1720.625,19.8906 1720,19.8906 Q1719.2344,19.8906 1718.5938,20.2188 Q1717.9688,20.5469 1717.4688,21.2969 Q1716.9844,22.0469 1716.9844,23.0781 L1716.9844,24.1719 Q1716.9844,25.4063 1717.875,26.2344 Q1718.7656,27.0469 1720.3594,27.0469 Q1721.2969,27.0469 1721.9531,26.7969 Q1722.3438,26.6406 1722.7656,26.2031 Q1723.0313,25.9375 1723.1719,25.8594 Q1723.3281,25.7813 1723.5313,25.7813 Q1723.8594,25.7813 1724.1094,26.0469 Q1724.375,26.2969 1724.375,26.6406 Q1724.375,26.9844 1724.0313,27.3906 Q1723.5313,27.9688 1722.7344,28.2969 Q1721.6563,28.75 1720.3594,28.75 Q1718.8438,28.75 1717.6406,28.125 Q1716.6563,27.625 1715.9688,26.5625 Q1715.2813,25.4844 1715.2813,24.2031 L1715.2813,23.0469 Q1715.2813,21.7188 1715.8906,20.5781 Q1716.5156,19.4219 1717.6094,18.8125 Q1718.7031,18.1875 1719.9375,18.1875 Q1720.6719,18.1875 1721.3125,18.3594 Q1721.9688,18.5156 1722.5156,18.875 Z " fill="#000000"/><text fill="#000000" font-family="sans-serif" font-size="14" lengthAdjust="spacing" textLength="79" x="1740.25" y="28.7969">Repositories</text><line style="stroke:#181818;stroke-width:0.5;" x1="1667.5" x2="1859.5" y1="39" y2="39"/><line style="stroke:#181818;stroke-width:0.5;" x1="1667.5" x2="1859.5" y1="47" y2="47"/><text fill="#000000" font-family="sans-serif" font-size="14" lengthAdjust="spacing" textLength="94" x="1672.5" y="66.1074">-Repositories()</text><text fill="#000000" font-family="sans-serif" font-size="14" lengthAdjust="spacing" textLength="182" x="1672.5" y="84.7285">+getInstance() : Repositories</text><text fill="#000000" font-family="sans-serif" font-size="14" lengthAdjust="spacing" textLength="152" x="1672.5" y="103.3496">+getVehicleRepository()</text><text fill="#000000" font-family="sans-serif" font-size="14" lengthAdjust="spacing" textLength="144" x="1672.5" y="121.9707">+getBrandRepository()</text></g><!--class VehicleRepository--><g id="elem_VehicleRepository"><rect codeLine="79" fill="#F1F1F1" height="122.4844" id="VehicleRepository" rx="2.5" ry="2.5" style="stroke:#181818;stroke-width:0.5;" width="803" x="301" y="208"/><ellipse cx="641.25" cy="224" fill="#ADD1B2" rx="11" ry="11" style="stroke:#181818;stroke-width:1.0;"/><path d="M644.0156,219.875 Q644.1719,219.6563 644.3594,219.5469 Q644.5469,219.4375 644.7656,219.4375 Q645.1406,219.4375 645.375,219.7031 Q645.6094,219.9531 645.6094,220.5625 L645.6094,222.0156 Q645.6094,222.625 645.375,222.8906 Q645.1406,223.1563 644.7656,223.1563 Q644.4219,223.1563 644.2188,222.9531 Q644.0156,222.7656 643.9063,222.25 Q643.8594,221.8906 643.6719,221.7031 Q643.3438,221.3281 642.7344,221.1094 Q642.125,220.8906 641.5,220.8906 Q640.7344,220.8906 640.0938,221.2188 Q639.4688,221.5469 638.9688,222.2969 Q638.4844,223.0469 638.4844,224.0781 L638.4844,225.1719 Q638.4844,226.4063 639.375,227.2344 Q640.2656,228.0469 641.8594,228.0469 Q642.7969,228.0469 643.4531,227.7969 Q643.8438,227.6406 644.2656,227.2031 Q644.5313,226.9375 644.6719,226.8594 Q644.8281,226.7813 645.0313,226.7813 Q645.3594,226.7813 645.6094,227.0469 Q645.875,227.2969 645.875,227.6406 Q645.875,227.9844 645.5313,228.3906 Q645.0313,228.9688 644.2344,229.2969 Q643.1563,229.75 641.8594,229.75 Q640.3438,229.75 639.1406,229.125 Q638.1563,228.625 637.4688,227.5625 Q636.7813,226.4844 636.7813,225.2031 L636.7813,224.0469 Q636.7813,222.7188 637.3906,221.5781 Q638.0156,220.4219 639.1094,219.8125 Q640.2031,219.1875 641.4375,219.1875 Q642.1719,219.1875 642.8125,219.3594 Q643.4688,219.5156 644.0156,219.875 Z " fill="#000000"/><text fill="#000000" font-family="sans-serif" font-size="14" lengthAdjust="spacing" textLength="114" x="661.75" y="229.7969">VehicleRepository</text><line style="stroke:#181818;stroke-width:0.5;" x1="302" x2="1103" y1="240" y2="240"/><text fill="#000000" font-family="sans-serif" font-size="14" lengthAdjust="spacing" textLength="137" x="307" y="259.1074">-List&lt;Vehicle&gt; vehicle</text><line style="stroke:#181818;stroke-width:0.5;" x1="302" x2="1103" y1="266.6211" y2="266.6211"/><text fill="#000000" font-family="sans-serif" font-size="14" lengthAdjust="spacing" textLength="129" x="307" y="285.7285">-addVehicle(vehicle)</text><text fill="#000000" font-family="sans-serif" font-size="14" lengthAdjust="spacing" textLength="154" x="307" y="304.3496">-validateVehicle(vehicle)</text><text fill="#000000" font-family="sans-serif" font-size="14" lengthAdjust="spacing" textLength="791" x="307" y="322.9707">+registerVehicle(type,tare,grossWeight,currentKm,registerDate,acquisitionDate,checkupFrequency,licensePlate,brand,model)</text></g><!--class BrandRepository--><g id="elem_BrandRepository"><rect codeLine="87" fill="#F1F1F1" height="122.4844" id="BrandRepository" rx="2.5" ry="2.5" style="stroke:#181818;stroke-width:0.5;" width="252" x="1281.5" y="208"/><ellipse cx="1350.25" cy="224" fill="#ADD1B2" rx="11" ry="11" style="stroke:#181818;stroke-width:1.0;"/><path d="M1353.0156,219.875 Q1353.1719,219.6563 1353.3594,219.5469 Q1353.5469,219.4375 1353.7656,219.4375 Q1354.1406,219.4375 1354.375,219.7031 Q1354.6094,219.9531 1354.6094,220.5625 L1354.6094,222.0156 Q1354.6094,222.625 1354.375,222.8906 Q1354.1406,223.1563 1353.7656,223.1563 Q1353.4219,223.1563 1353.2188,222.9531 Q1353.0156,222.7656 1352.9063,222.25 Q1352.8594,221.8906 1352.6719,221.7031 Q1352.3438,221.3281 1351.7344,221.1094 Q1351.125,220.8906 1350.5,220.8906 Q1349.7344,220.8906 1349.0938,221.2188 Q1348.4688,221.5469 1347.9688,222.2969 Q1347.4844,223.0469 1347.4844,224.0781 L1347.4844,225.1719 Q1347.4844,226.4063 1348.375,227.2344 Q1349.2656,228.0469 1350.8594,228.0469 Q1351.7969,228.0469 1352.4531,227.7969 Q1352.8438,227.6406 1353.2656,227.2031 Q1353.5313,226.9375 1353.6719,226.8594 Q1353.8281,226.7813 1354.0313,226.7813 Q1354.3594,226.7813 1354.6094,227.0469 Q1354.875,227.2969 1354.875,227.6406 Q1354.875,227.9844 1354.5313,228.3906 Q1354.0313,228.9688 1353.2344,229.2969 Q1352.1563,229.75 1350.8594,229.75 Q1349.3438,229.75 1348.1406,229.125 Q1347.1563,228.625 1346.4688,227.5625 Q1345.7813,226.4844 1345.7813,225.2031 L1345.7813,224.0469 Q1345.7813,222.7188 1346.3906,221.5781 Q1347.0156,220.4219 1348.1094,219.8125 Q1349.2031,219.1875 1350.4375,219.1875 Q1351.1719,219.1875 1351.8125,219.3594 Q1352.4688,219.5156 1353.0156,219.875 Z " fill="#000000"/><text fill="#000000" font-family="sans-serif" font-size="14" lengthAdjust="spacing" textLength="106" x="1370.75" y="229.7969">BrandRepository</text><line style="stroke:#181818;stroke-width:0.5;" x1="1282.5" x2="1532.5" y1="240" y2="240"/><text fill="#000000" font-family="sans-serif" font-size="14" lengthAdjust="spacing" textLength="122" x="1287.5" y="259.1074">-List&lt;Brand&gt; brand</text><line style="stroke:#181818;stroke-width:0.5;" x1="1282.5" x2="1532.5" y1="266.6211" y2="266.6211"/><text fill="#000000" font-family="sans-serif" font-size="14" lengthAdjust="spacing" textLength="117" x="1287.5" y="285.7285">+addBrand(brand)</text><text fill="#000000" font-family="sans-serif" font-size="14" lengthAdjust="spacing" textLength="240" x="1287.5" y="304.3496">+getBrandByModelName(modelName)</text><text fill="#000000" font-family="sans-serif" font-size="14" lengthAdjust="spacing" textLength="204" x="1287.5" y="322.9707">+hasBrandByName(brandName)</text></g><!--link RegisterVehicleController to Repositories--><g id="link_RegisterVehicleController_Repositories"><path codeLine="95" d="M1563.38,68 C1601.22,68 1630.45,68 1660.48,68 " fill="none" id="RegisterVehicleController-to-Repositories" style="stroke:#181818;stroke-width:1.0;stroke-dasharray:7.0,7.0;"/><polygon fill="#181818" points="1666.48,68,1657.48,64,1661.48,68,1657.48,72,1666.48,68" style="stroke:#181818;stroke-width:1.0;"/><text fill="#000000" font-family="sans-serif" font-size="13" lengthAdjust="spacing" textLength="67" x="1581.25" y="61.0283">repositories</text></g><!--link RegisterVehicleController to VehicleRepository--><g id="link_RegisterVehicleController_VehicleRepository"><path codeLine="96" d="M1016.84,120.12 C959.93,146.89 895.3094,177.2963 835.7994,205.2863 " fill="none" id="RegisterVehicleController-to-VehicleRepository" style="stroke:#181818;stroke-width:1.0;stroke-dasharray:7.0,7.0;"/><polygon fill="#181818" points="830.37,207.84,840.2166,207.6291,834.8945,205.7119,836.8117,200.3899,830.37,207.84" style="stroke:#181818;stroke-width:1.0;"/><text fill="#000000" font-family="sans-serif" font-size="13" lengthAdjust="spacing" textLength="7" x="837.7503" y="196.8027">1</text></g><!--link RegisterVehicleController to BrandRepository--><g id="link_RegisterVehicleController_BrandRepository"><path codeLine="97" d="M1198.67,120.05 C1227.78,140.36 1254.5,159 1254.5,159 C1254.5,159 1282.6736,179.0682 1318.0536,204.2782 " fill="none" id="RegisterVehicleController-to-BrandRepository" style="stroke:#181818;stroke-width:1.0;stroke-dasharray:7.0,7.0;"/><polygon fill="#181818" points="1322.94,207.76,1317.9316,199.2797,1318.868,204.8585,1313.2892,205.7949,1322.94,207.76" style="stroke:#181818;stroke-width:1.0;"/><text fill="#000000" font-family="sans-serif" font-size="13" lengthAdjust="spacing" textLength="7" x="1305.7581" y="196.7135">1</text></g><!--link RegisterVehicleController to Brand--><g id="link_RegisterVehicleController_Brand"><path codeLine="98" d="M1158.4,120.05 C1171.49,140.36 1183.5,159 1183.5,159 C1183.5,159 1251.2471,337.0719 1290.8171,441.1119 " fill="none" id="RegisterVehicleController-to-Brand" style="stroke:#181818;stroke-width:1.0;stroke-dasharray:7.0,7.0;"/><polygon fill="#181818" points="1292.95,446.72,1293.4893,436.8859,1291.1725,442.0466,1286.0119,439.7298,1292.95,446.72" style="stroke:#181818;stroke-width:1.0;"/><text fill="#000000" font-family="sans-serif" font-size="13" lengthAdjust="spacing" textLength="7" x="1282.8511" y="435.5821">1</text></g><!--link RegisterVehicleController to Model--><g id="link_RegisterVehicleController_Model"><path codeLine="99" d="M1129.92,120.06 C1142.82,269.09 1179.5,693 1179.5,693 C1179.5,693 1218.1174,768.5084 1244.4474,819.9784 " fill="none" id="RegisterVehicleController-to-Model" style="stroke:#181818;stroke-width:1.0;stroke-dasharray:7.0,7.0;"/><polygon fill="#181818" points="1247.18,825.32,1246.6422,815.4858,1244.9029,820.8686,1239.5201,819.1293,1247.18,825.32" style="stroke:#181818;stroke-width:1.0;"/><text fill="#000000" font-family="sans-serif" font-size="13" lengthAdjust="spacing" textLength="7" x="1236.2243" y="814.1954">1</text></g><!--link RegisterVehicleUI to RegisterVehicleController--><g id="link_RegisterVehicleUI_RegisterVehicleController"><path codeLine="101" d="M653.17,68 C664.55,68 670.36,68 681.81,68 " fill="none" id="RegisterVehicleUI-to-RegisterVehicleController" style="stroke:#181818;stroke-width:1.0;stroke-dasharray:7.0,7.0;"/><polygon fill="#181818" points="687.81,68,678.81,64,682.81,68,678.81,72,687.81,68" style="stroke:#181818;stroke-width:1.0;"/></g><!--link Repositories to Repositories--><g id="link_Repositories_Repositories"><path codeLine="103" d="M1860.78,49.91 C1880.98,51.81 1895.5,57.84 1895.5,68 C1895.5,78.16 1886.9536,83.6281 1866.7536,85.5281 " fill="none" id="Repositories-to-Repositories" style="stroke:#181818;stroke-width:1.0;"/><polygon fill="#181818" points="1860.78,86.09,1870.115,89.2296,1865.758,85.6218,1869.3659,81.2648,1860.78,86.09" style="stroke:#181818;stroke-width:1.0;"/><text fill="#000000" font-family="sans-serif" font-size="13" lengthAdjust="spacing" textLength="49" x="1901.5" y="73.5283">instance</text></g><!--link Repositories to VehicleRepository--><g id="link_Repositories_VehicleRepository"><path codeLine="104" d="M1666.37,100.84 C1622.57,115.21 1580.5,129 1580.5,129 C1580.5,129 1325.0162,169.452 1087.4662,207.052 " fill="none" id="Repositories-to-VehicleRepository" style="stroke:#181818;stroke-width:1.0;"/><polygon fill="#181818" points="1081.54,207.99,1091.0547,210.5338,1086.4785,207.2083,1089.804,202.6322,1081.54,207.99" style="stroke:#181818;stroke-width:1.0;"/><text fill="#000000" font-family="sans-serif" font-size="13" lengthAdjust="spacing" textLength="101" x="1391.5" y="174.0283">vehicleRepository</text><text fill="#000000" font-family="sans-serif" font-size="13" lengthAdjust="spacing" textLength="7" x="1111.5072" y="198.1664">1</text></g><!--link Repositories to BrandRepository--><g id="link_Repositories_BrandRepository"><path codeLine="105" d="M1692.76,129.24 C1663.16,154.45 1635.5,178 1635.5,178 C1635.5,178 1591.8111,195.2474 1539.0811,216.0574 " fill="none" id="Repositories-to-BrandRepository" style="stroke:#181818;stroke-width:1.0;"/><polygon fill="#181818" points="1533.5,218.26,1543.34,218.6768,1538.1509,216.4245,1540.4032,211.2354,1533.5,218.26" style="stroke:#181818;stroke-width:1.0;"/><text fill="#000000" font-family="sans-serif" font-size="13" lengthAdjust="spacing" textLength="94" x="1657.5" y="174.0283">brandRepository</text><text fill="#000000" font-family="sans-serif" font-size="13" lengthAdjust="spacing" textLength="7" x="1541.3914" y="211.6725">1</text></g><!--link VehicleRepository to Vehicle--><g id="link_VehicleRepository_Vehicle"><path codeLine="107" d="M710.47,330.25 C722.54,421.44 745.0026,591.2019 761.6226,716.7519 " fill="none" id="VehicleRepository-to-Vehicle" style="stroke:#181818;stroke-width:1.0;"/><polygon fill="#181818" points="762.41,722.7,765.1943,713.2529,761.7538,717.7432,757.2635,714.3028,762.41,722.7" style="stroke:#181818;stroke-width:1.0;"/><text fill="#000000" font-family="sans-serif" font-size="13" lengthAdjust="spacing" textLength="5" x="756.2968" y="711.8036">*</text></g><!--link BrandRepository to Brand--><g id="link_BrandRepository_Brand"><path codeLine="109" d="M1385.97,330.3 C1373.4,365.51 1359.5066,404.429 1346.4066,441.139 " fill="none" id="BrandRepository-to-Brand" style="stroke:#181818;stroke-width:1.0;"/><polygon fill="#181818" points="1344.39,446.79,1351.1821,439.6579,1346.0705,442.0809,1343.6475,436.9692,1344.39,446.79" style="stroke:#181818;stroke-width:1.0;"/><text fill="#000000" font-family="sans-serif" font-size="13" lengthAdjust="spacing" textLength="5" x="1341.699" y="435.6594">*</text></g><!--reverse link Collaborator to VehicleFleetManager--><g id="link_Collaborator_VehicleFleetManager"><path codeLine="111" d="M289.1809,661.513 C266.4609,734.813 245.22,803.36 232.71,843.73 " fill="none" id="Collaborator-backto-VehicleFleetManager" style="stroke:#181818;stroke-width:1.0;"/><polygon fill="none" points="294.51,644.32,283.4499,659.7367,294.9119,663.2894,294.51,644.32" style="stroke:#181818;stroke-width:1.0;"/></g><!--link Collaborator to Vehicle--><g id="link_Collaborator_Vehicle"><path codeLine="112" d="M494.92,644.07 C527.77,669.62 557.8343,693.0058 591.4343,719.1458 " fill="none" id="Collaborator-to-Vehicle" style="stroke:#181818;stroke-width:1.0;"/><polygon fill="#181818" points="596.17,722.83,591.5227,714.1466,592.2236,719.7598,586.6104,720.4608,596.17,722.83" style="stroke:#181818;stroke-width:1.0;"/><text fill="#000000" font-family="sans-serif" font-size="13" lengthAdjust="spacing" textLength="33" x="558.5" y="689.0283">drives</text><text fill="#000000" font-family="sans-serif" font-size="13" lengthAdjust="spacing" textLength="5" x="499.1076" y="665.9203">*</text><text fill="#000000" font-family="sans-serif" font-size="13" lengthAdjust="spacing" textLength="5" x="581.485" y="711.9403">*</text></g><!--reverse link VehicleFleetManager to Vehicle--><g id="link_VehicleFleetManager_Vehicle"><path codeLine="114" d="M314.74,868 C342.23,868 368.83,868 403.86,868 " fill="none" id="VehicleFleetManager-backto-Vehicle" style="stroke:#181818;stroke-width:1.0;"/><polygon fill="#181818" points="308.74,868,317.74,872,313.74,868,317.74,864,308.74,868" style="stroke:#181818;stroke-width:1.0;"/><text fill="#000000" font-family="sans-serif" font-size="13" lengthAdjust="spacing" textLength="59" x="326.75" y="861.0283">createdBy</text></g><!--link Brand to Model--><g id="link_Brand_Model"><path codeLine="116" d="M1309.3,588.19 C1298.92,659.1 1284.0488,760.7432 1275.4688,819.3732 " fill="none" id="Brand-to-Model" style="stroke:#181818;stroke-width:1.0;"/><polygon fill="#181818" points="1274.6,825.31,1279.861,816.984,1275.324,820.3627,1271.9453,815.8257,1274.6,825.31" style="stroke:#181818;stroke-width:1.0;"/><text fill="#000000" font-family="sans-serif" font-size="13" lengthAdjust="spacing" textLength="21" x="1296.5" y="689.0283">has</text><text fill="#000000" font-family="sans-serif" font-size="13" lengthAdjust="spacing" textLength="7" x="1300.9514" y="610.0227">1</text><text fill="#000000" font-family="sans-serif" font-size="13" lengthAdjust="spacing" textLength="20" x="1253.9784" y="814.1838">1..*</text></g><!--link Brand to Vehicle--><g id="link_Brand_Vehicle"><path codeLine="117" d="M1211.92,588.19 C1152.28,626.82 1080.8762,673.0785 1008.9962,719.6285 " fill="none" id="Brand-to-Vehicle" style="stroke:#181818;stroke-width:1.0;"/><polygon fill="#181818" points="1003.96,722.89,1013.6885,721.3553,1008.1568,720.1721,1009.3399,714.6404,1003.96,722.89" style="stroke:#181818;stroke-width:1.0;"/><text fill="#000000" font-family="sans-serif" font-size="13" lengthAdjust="spacing" textLength="21" x="1067.5" y="689.0283">has</text><text fill="#000000" font-family="sans-serif" font-size="13" lengthAdjust="spacing" textLength="7" x="1196.0683" y="608.5362">1</text><text fill="#000000" font-family="sans-serif" font-size="13" lengthAdjust="spacing" textLength="20" x="995.5789" y="711.5237">1..*</text></g><!--link Vehicle to Model--><g id="link_Vehicle_Model"><path codeLine="119" d="M1159.21,868 C1180.91,868 1194.55,868 1210.99,868 " fill="none" id="Vehicle-to-Model" style="stroke:#181818;stroke-width:1.0;"/><polygon fill="#181818" points="1216.99,868,1207.99,864,1211.99,868,1207.99,872,1216.99,868" style="stroke:#181818;stroke-width:1.0;"/><text fill="#000000" font-family="sans-serif" font-size="13" lengthAdjust="spacing" textLength="21" x="1177.5" y="861.0283">has</text><text fill="#000000" font-family="sans-serif" font-size="13" lengthAdjust="spacing" textLength="20" x="1167.0854" y="882.2032">1..*</text><text fill="#000000" font-family="sans-serif" font-size="13" lengthAdjust="spacing" textLength="7" x="1201.9104" y="863.7835">1</text></g><!--SRC=[nLLRRzCm57xFhx3sicvp9dWjLQLrQDA03hHgyEmcfusfOsUEKmYm_uvlIUtq0Y-8FIpDkNxdEvUSrnlAAo99YKh1HLP8KG9Iie5afwb8jY5hMAYM0PAGASBNB3Ie2vABRvIlqOgmEjGmoa6r5Q1AiDQy9ES7b48gaGHU6IDrVQEKfCj6mNqc-8B-0FGgISuPh1HI0acwBXJAgO531KyIwuDcal0S_KoG_aiNEe36n4a9Jl21rWfDvY87DjNrwaTY5LVMRMGCBvo0vBar6rahBon8ROMpza5REjM3zNdfyblzeVmkWel9Ov_FKD1CC-kzN0bByzy9N4m7Dunhg7E25HD4iq9azBwMegw_W27AYIbNA6ka1AxUbqxqbYZJqhKc1gHv2SGaUsveJGszEusDKK2sQQex2SyDyAoDK36Q0Q_X4-jT3EkJM-FpL4sTyrDbX6yyAvw0aIa8cofm01ttY7684m_GuI4e70B1bauSD3FT4aPphUgIRzqpwCkZJ-SjRWLNKZ06KdVA0JzgCV99rg3SQDdyPbPmC3KsXenZ_7CIXY2EbVjqhylibRUwBB8KaYWXJwxNPB6XJ6zNRHv6u5Jln19z5SjWkWpt7rSpAbKHpbnUqhgE9kucpoLe2CGzlR78cb8JWdB_8u9K5OB3GrCkGKPoA0bbkpbMv7j5MctZEX4LQPSKXoXn30vtW72F0OU9iSk6-opx6t_70DISS7rRPKZs8rH2DrL82dKtQsaezEDrfSVhdjVw76Smka3ZoB6tyCbwNHjus-6CD4ECEsNNTjjbhvqYlpOUfAPaRvzERzj_sO7k4Bn4duqZfLhTr1_a_kiGhFM0pbaxxxPhD5ns_GNnDbRTBwI5SlpUN4_ZcHZhanrq-gJZsUkp_Lx-sMN0o2c7qEClxERkkxj_RcoLHxoDVK10kaS8zNimi4kF4A0zjWT8EU0w78sncuJ0BTcFdbhlopvnaWp3T0QEjIIwhsZoAqtHeIiHsnd_E8z6bqkwrJEH7BenartKCSeaw8NGe-Z1sMfTrTVNbxvFEg2UsSC6kvp6f4lOQTEWszxaDm00]--></g></svg>