<?xml version="1.0" encoding="us-ascii" standalone="no"?><svg xmlns="http://www.w3.org/2000/svg" xmlns:xlink="http://www.w3.org/1999/xlink" contentStyleType="text/css" height="1019px" preserveAspectRatio="none" style="width:1873px;height:1019px;background:#FFFFFF;" version="1.1" viewBox="0 0 1873 1019" width="1873px" zoomAndPan="magnify"><defs/><g><!--class Brand--><g id="elem_Brand"><rect codeLine="11" fill="#F1F1F1" height="178.3477" id="Brand" rx="2.5" ry="2.5" style="stroke:#181818;stroke-width:0.5;" width="190" x="1203" y="446.5"/><ellipse cx="1274.75" cy="462.5" fill="#ADD1B2" rx="11" ry="11" style="stroke:#181818;stroke-width:1.0;"/><path d="M1277.5156,458.375 Q1277.6719,458.1563 1277.8594,458.0469 Q1278.0469,457.9375 1278.2656,457.9375 Q1278.6406,457.9375 1278.875,458.2031 Q1279.1094,458.4531 1279.1094,459.0625 L1279.1094,460.5156 Q1279.1094,461.125 1278.875,461.3906 Q1278.6406,461.6563 1278.2656,461.6563 Q1277.9219,461.6563 1277.7188,461.4531 Q1277.5156,461.2656 1277.4063,460.75 Q1277.3594,460.3906 1277.1719,460.2031 Q1276.8438,459.8281 1276.2344,459.6094 Q1275.625,459.3906 1275,459.3906 Q1274.2344,459.3906 1273.5938,459.7188 Q1272.9688,460.0469 1272.4688,460.7969 Q1271.9844,461.5469 1271.9844,462.5781 L1271.9844,463.6719 Q1271.9844,464.9063 1272.875,465.7344 Q1273.7656,466.5469 1275.3594,466.5469 Q1276.2969,466.5469 1276.9531,466.2969 Q1277.3438,466.1406 1277.7656,465.7031 Q1278.0313,465.4375 1278.1719,465.3594 Q1278.3281,465.2813 1278.5313,465.2813 Q1278.8594,465.2813 1279.1094,465.5469 Q1279.375,465.7969 1279.375,466.1406 Q1279.375,466.4844 1279.0313,466.8906 Q1278.5313,467.4688 1277.7344,467.7969 Q1276.6563,468.25 1275.3594,468.25 Q1273.8438,468.25 1272.6406,467.625 Q1271.6563,467.125 1270.9688,466.0625 Q1270.2813,464.9844 1270.2813,463.7031 L1270.2813,462.5469 Q1270.2813,461.2188 1270.8906,460.0781 Q1271.5156,458.9219 1272.6094,458.3125 Q1273.7031,457.6875 1274.9375,457.6875 Q1275.6719,457.6875 1276.3125,457.8594 Q1276.9688,458.0156 1277.5156,458.375 Z " fill="#000000"/><text fill="#000000" font-family="sans-serif" font-size="14" lengthAdjust="spacing" textLength="38" x="1295.25" y="468.2969">Brand</text><line style="stroke:#181818;stroke-width:0.5;" x1="1204" x2="1392" y1="478.5" y2="478.5"/><text fill="#000000" font-family="sans-serif" font-size="14" lengthAdjust="spacing" textLength="81" x="1209" y="497.6074">-String name</text><text fill="#000000" font-family="sans-serif" font-size="14" lengthAdjust="spacing" textLength="127" x="1209" y="516.2285">-List &lt;Model&gt; model</text><line style="stroke:#181818;stroke-width:0.5;" x1="1204" x2="1392" y1="523.7422" y2="523.7422"/><text fill="#000000" font-family="sans-serif" font-size="14" lengthAdjust="spacing" textLength="115" x="1209" y="542.8496">-addModel(model)</text><text fill="#000000" font-family="sans-serif" font-size="14" lengthAdjust="spacing" textLength="139" x="1209" y="561.4707">-validateBrand(brand)</text><text fill="#000000" font-family="sans-serif" font-size="14" lengthAdjust="spacing" textLength="140" x="1209" y="580.0918">-validateModel(model)</text><text fill="#000000" font-family="sans-serif" font-size="14" lengthAdjust="spacing" textLength="91" x="1209" y="598.7129">+Brand(name)</text><text fill="#000000" font-family="sans-serif" font-size="14" lengthAdjust="spacing" textLength="178" x="1209" y="617.334">+registerModel(modelName)</text></g><!--class Model--><g id="elem_Model"><rect codeLine="22" fill="#F1F1F1" height="103.8633" id="Model" rx="2.5" ry="2.5" style="stroke:#181818;stroke-width:0.5;" width="152" x="1189" y="824.5"/><ellipse cx="1241.75" cy="840.5" fill="#ADD1B2" rx="11" ry="11" style="stroke:#181818;stroke-width:1.0;"/><path d="M1244.5156,836.375 Q1244.6719,836.1563 1244.8594,836.0469 Q1245.0469,835.9375 1245.2656,835.9375 Q1245.6406,835.9375 1245.875,836.2031 Q1246.1094,836.4531 1246.1094,837.0625 L1246.1094,838.5156 Q1246.1094,839.125 1245.875,839.3906 Q1245.6406,839.6563 1245.2656,839.6563 Q1244.9219,839.6563 1244.7188,839.4531 Q1244.5156,839.2656 1244.4063,838.75 Q1244.3594,838.3906 1244.1719,838.2031 Q1243.8438,837.8281 1243.2344,837.6094 Q1242.625,837.3906 1242,837.3906 Q1241.2344,837.3906 1240.5938,837.7188 Q1239.9688,838.0469 1239.4688,838.7969 Q1238.9844,839.5469 1238.9844,840.5781 L1238.9844,841.6719 Q1238.9844,842.9063 1239.875,843.7344 Q1240.7656,844.5469 1242.3594,844.5469 Q1243.2969,844.5469 1243.9531,844.2969 Q1244.3438,844.1406 1244.7656,843.7031 Q1245.0313,843.4375 1245.1719,843.3594 Q1245.3281,843.2813 1245.5313,843.2813 Q1245.8594,843.2813 1246.1094,843.5469 Q1246.375,843.7969 1246.375,844.1406 Q1246.375,844.4844 1246.0313,844.8906 Q1245.5313,845.4688 1244.7344,845.7969 Q1243.6563,846.25 1242.3594,846.25 Q1240.8438,846.25 1239.6406,845.625 Q1238.6563,845.125 1237.9688,844.0625 Q1237.2813,842.9844 1237.2813,841.7031 L1237.2813,840.5469 Q1237.2813,839.2188 1237.8906,838.0781 Q1238.5156,836.9219 1239.6094,836.3125 Q1240.7031,835.6875 1241.9375,835.6875 Q1242.6719,835.6875 1243.3125,835.8594 Q1243.9688,836.0156 1244.5156,836.375 Z " fill="#000000"/><text fill="#000000" font-family="sans-serif" font-size="14" lengthAdjust="spacing" textLength="38" x="1262.25" y="846.2969">Model</text><line style="stroke:#181818;stroke-width:0.5;" x1="1190" x2="1340" y1="856.5" y2="856.5"/><text fill="#000000" font-family="sans-serif" font-size="14" lengthAdjust="spacing" textLength="81" x="1195" y="875.6074">-String name</text><line style="stroke:#181818;stroke-width:0.5;" x1="1190" x2="1340" y1="883.1211" y2="883.1211"/><text fill="#000000" font-family="sans-serif" font-size="14" lengthAdjust="spacing" textLength="140" x="1195" y="902.2285">-validateModel(model)</text><text fill="#000000" font-family="sans-serif" font-size="14" lengthAdjust="spacing" textLength="91" x="1195" y="920.8496">+Model(name)</text></g><!--class Vehicle--><g id="elem_Vehicle"><rect codeLine="29" fill="#F1F1F1" height="271.4531" id="Vehicle" rx="2.5" ry="2.5" style="stroke:#181818;stroke-width:0.5;" width="755" x="376.5" y="741"/><ellipse cx="726.75" cy="757" fill="#ADD1B2" rx="11" ry="11" style="stroke:#181818;stroke-width:1.0;"/><path d="M729.5156,752.875 Q729.6719,752.6563 729.8594,752.5469 Q730.0469,752.4375 730.2656,752.4375 Q730.6406,752.4375 730.875,752.7031 Q731.1094,752.9531 731.1094,753.5625 L731.1094,755.0156 Q731.1094,755.625 730.875,755.8906 Q730.6406,756.1563 730.2656,756.1563 Q729.9219,756.1563 729.7188,755.9531 Q729.5156,755.7656 729.4063,755.25 Q729.3594,754.8906 729.1719,754.7031 Q728.8438,754.3281 728.2344,754.1094 Q727.625,753.8906 727,753.8906 Q726.2344,753.8906 725.5938,754.2188 Q724.9688,754.5469 724.4688,755.2969 Q723.9844,756.0469 723.9844,757.0781 L723.9844,758.1719 Q723.9844,759.4063 724.875,760.2344 Q725.7656,761.0469 727.3594,761.0469 Q728.2969,761.0469 728.9531,760.7969 Q729.3438,760.6406 729.7656,760.2031 Q730.0313,759.9375 730.1719,759.8594 Q730.3281,759.7813 730.5313,759.7813 Q730.8594,759.7813 731.1094,760.0469 Q731.375,760.2969 731.375,760.6406 Q731.375,760.9844 731.0313,761.3906 Q730.5313,761.9688 729.7344,762.2969 Q728.6563,762.75 727.3594,762.75 Q725.8438,762.75 724.6406,762.125 Q723.6563,761.625 722.9688,760.5625 Q722.2813,759.4844 722.2813,758.2031 L722.2813,757.0469 Q722.2813,755.7188 722.8906,754.5781 Q723.5156,753.4219 724.6094,752.8125 Q725.7031,752.1875 726.9375,752.1875 Q727.6719,752.1875 728.3125,752.3594 Q728.9688,752.5156 729.5156,752.875 Z " fill="#000000"/><text fill="#000000" font-family="sans-serif" font-size="14" lengthAdjust="spacing" textLength="46" x="747.25" y="762.7969">Vehicle</text><line style="stroke:#181818;stroke-width:0.5;" x1="377.5" x2="1130.5" y1="773" y2="773"/><text fill="#000000" font-family="sans-serif" font-size="14" lengthAdjust="spacing" textLength="84" x="382.5" y="792.1074">-Brand brand</text><text fill="#000000" font-family="sans-serif" font-size="14" lengthAdjust="spacing" textLength="85" x="382.5" y="810.7285">-Model model</text><text fill="#000000" font-family="sans-serif" font-size="14" lengthAdjust="spacing" textLength="73" x="382.5" y="829.3496">-String type</text><text fill="#000000" font-family="sans-serif" font-size="14" lengthAdjust="spacing" textLength="61" x="382.5" y="847.9707">-float tare</text><text fill="#000000" font-family="sans-serif" font-size="14" lengthAdjust="spacing" textLength="115" x="382.5" y="866.5918">-float grossWeight</text><text fill="#000000" font-family="sans-serif" font-size="14" lengthAdjust="spacing" textLength="89" x="382.5" y="885.2129">-int currentKm</text><text fill="#000000" font-family="sans-serif" font-size="14" lengthAdjust="spacing" textLength="117" x="382.5" y="903.834">-Date registerDate</text><text fill="#000000" font-family="sans-serif" font-size="14" lengthAdjust="spacing" textLength="136" x="382.5" y="922.4551">-Date acquisitionDate</text><text fill="#000000" font-family="sans-serif" font-size="14" lengthAdjust="spacing" textLength="145" x="382.5" y="941.0762">-int checkupFrequency</text><text fill="#000000" font-family="sans-serif" font-size="14" lengthAdjust="spacing" textLength="122" x="382.5" y="959.6973">-String licensePlate</text><line style="stroke:#181818;stroke-width:0.5;" x1="377.5" x2="1130.5" y1="967.2109" y2="967.2109"/><text fill="#000000" font-family="sans-serif" font-size="14" lengthAdjust="spacing" textLength="154" x="382.5" y="986.3184">-validateVehicle(vehicle)</text><text fill="#000000" font-family="sans-serif" font-size="14" lengthAdjust="spacing" textLength="743" x="382.5" y="1004.9395">+Vehicle(brand,model,type,tare,grossWeight,currentKm,registerDate,acquisitionDate,checkupFrequency,licensePlate)</text></g><!--class RegisterVehicleController--><g id="elem_RegisterVehicleController"><rect codeLine="45" fill="#F1F1F1" height="122.4844" id="RegisterVehicleController" rx="2.5" ry="2.5" style="stroke:#181818;stroke-width:0.5;" width="875" x="597.5" y="7"/><ellipse cx="950.25" cy="23" fill="#ADD1B2" rx="11" ry="11" style="stroke:#181818;stroke-width:1.0;"/><path d="M953.0156,18.875 Q953.1719,18.6563 953.3594,18.5469 Q953.5469,18.4375 953.7656,18.4375 Q954.1406,18.4375 954.375,18.7031 Q954.6094,18.9531 954.6094,19.5625 L954.6094,21.0156 Q954.6094,21.625 954.375,21.8906 Q954.1406,22.1563 953.7656,22.1563 Q953.4219,22.1563 953.2188,21.9531 Q953.0156,21.7656 952.9063,21.25 Q952.8594,20.8906 952.6719,20.7031 Q952.3438,20.3281 951.7344,20.1094 Q951.125,19.8906 950.5,19.8906 Q949.7344,19.8906 949.0938,20.2188 Q948.4688,20.5469 947.9688,21.2969 Q947.4844,22.0469 947.4844,23.0781 L947.4844,24.1719 Q947.4844,25.4063 948.375,26.2344 Q949.2656,27.0469 950.8594,27.0469 Q951.7969,27.0469 952.4531,26.7969 Q952.8438,26.6406 953.2656,26.2031 Q953.5313,25.9375 953.6719,25.8594 Q953.8281,25.7813 954.0313,25.7813 Q954.3594,25.7813 954.6094,26.0469 Q954.875,26.2969 954.875,26.6406 Q954.875,26.9844 954.5313,27.3906 Q954.0313,27.9688 953.2344,28.2969 Q952.1563,28.75 950.8594,28.75 Q949.3438,28.75 948.1406,28.125 Q947.1563,27.625 946.4688,26.5625 Q945.7813,25.4844 945.7813,24.2031 L945.7813,23.0469 Q945.7813,21.7188 946.3906,20.5781 Q947.0156,19.4219 948.1094,18.8125 Q949.2031,18.1875 950.4375,18.1875 Q951.1719,18.1875 951.8125,18.3594 Q952.4688,18.5156 953.0156,18.875 Z " fill="#000000"/><text fill="#000000" font-family="sans-serif" font-size="14" lengthAdjust="spacing" textLength="161" x="970.75" y="28.7969">RegisterVehicleController</text><line style="stroke:#181818;stroke-width:0.5;" x1="598.5" x2="1471.5" y1="39" y2="39"/><line style="stroke:#181818;stroke-width:0.5;" x1="598.5" x2="1471.5" y1="47" y2="47"/><text fill="#000000" font-family="sans-serif" font-size="14" lengthAdjust="spacing" textLength="166" x="603.5" y="66.1074">-createBrand(brandName)</text><text fill="#000000" font-family="sans-serif" font-size="14" lengthAdjust="spacing" textLength="167" x="603.5" y="84.7285">-createModel(modelName)</text><text fill="#000000" font-family="sans-serif" font-size="14" lengthAdjust="spacing" textLength="179" x="603.5" y="103.3496">+RegisterVehicleController()</text><text fill="#000000" font-family="sans-serif" font-size="14" lengthAdjust="spacing" textLength="863" x="603.5" y="121.9707">+registerVehicle(brandName,modelName,type,tare,grossWeight,currentKm,registerDate,acquisitionDate,checkupFrequency,licensePlate)</text></g><!--class RegisterVehicleUI--><g id="elem_RegisterVehicleUI"><rect codeLine="53" fill="#F1F1F1" height="48" id="RegisterVehicleUI" rx="2.5" ry="2.5" style="stroke:#181818;stroke-width:0.5;" width="143" x="419.5" y="44"/><ellipse cx="434.5" cy="60" fill="#ADD1B2" rx="11" ry="11" style="stroke:#181818;stroke-width:1.0;"/><path d="M437.2656,55.875 Q437.4219,55.6563 437.6094,55.5469 Q437.7969,55.4375 438.0156,55.4375 Q438.3906,55.4375 438.625,55.7031 Q438.8594,55.9531 438.8594,56.5625 L438.8594,58.0156 Q438.8594,58.625 438.625,58.8906 Q438.3906,59.1563 438.0156,59.1563 Q437.6719,59.1563 437.4688,58.9531 Q437.2656,58.7656 437.1563,58.25 Q437.1094,57.8906 436.9219,57.7031 Q436.5938,57.3281 435.9844,57.1094 Q435.375,56.8906 434.75,56.8906 Q433.9844,56.8906 433.3438,57.2188 Q432.7188,57.5469 432.2188,58.2969 Q431.7344,59.0469 431.7344,60.0781 L431.7344,61.1719 Q431.7344,62.4063 432.625,63.2344 Q433.5156,64.0469 435.1094,64.0469 Q436.0469,64.0469 436.7031,63.7969 Q437.0938,63.6406 437.5156,63.2031 Q437.7813,62.9375 437.9219,62.8594 Q438.0781,62.7813 438.2813,62.7813 Q438.6094,62.7813 438.8594,63.0469 Q439.125,63.2969 439.125,63.6406 Q439.125,63.9844 438.7813,64.3906 Q438.2813,64.9688 437.4844,65.2969 Q436.4063,65.75 435.1094,65.75 Q433.5938,65.75 432.3906,65.125 Q431.4063,64.625 430.7188,63.5625 Q430.0313,62.4844 430.0313,61.2031 L430.0313,60.0469 Q430.0313,58.7188 430.6406,57.5781 Q431.2656,56.4219 432.3594,55.8125 Q433.4531,55.1875 434.6875,55.1875 Q435.4219,55.1875 436.0625,55.3594 Q436.7188,55.5156 437.2656,55.875 Z " fill="#000000"/><text fill="#000000" font-family="sans-serif" font-size="14" lengthAdjust="spacing" textLength="111" x="448.5" y="65.7969">RegisterVehicleUI</text><line style="stroke:#181818;stroke-width:0.5;" x1="420.5" x2="561.5" y1="76" y2="76"/><line style="stroke:#181818;stroke-width:0.5;" x1="420.5" x2="561.5" y1="84" y2="84"/></g><!--class Collaborator--><g id="elem_Collaborator"><rect codeLine="56" fill="#F1F1F1" height="252.832" id="Collaborator" rx="2.5" ry="2.5" style="stroke:#181818;stroke-width:0.5;" width="628" x="7" y="409"/><ellipse cx="277.75" cy="425" fill="#ADD1B2" rx="11" ry="11" style="stroke:#181818;stroke-width:1.0;"/><path d="M280.5156,420.875 Q280.6719,420.6563 280.8594,420.5469 Q281.0469,420.4375 281.2656,420.4375 Q281.6406,420.4375 281.875,420.7031 Q282.1094,420.9531 282.1094,421.5625 L282.1094,423.0156 Q282.1094,423.625 281.875,423.8906 Q281.6406,424.1563 281.2656,424.1563 Q280.9219,424.1563 280.7188,423.9531 Q280.5156,423.7656 280.4063,423.25 Q280.3594,422.8906 280.1719,422.7031 Q279.8438,422.3281 279.2344,422.1094 Q278.625,421.8906 278,421.8906 Q277.2344,421.8906 276.5938,422.2188 Q275.9688,422.5469 275.4688,423.2969 Q274.9844,424.0469 274.9844,425.0781 L274.9844,426.1719 Q274.9844,427.4063 275.875,428.2344 Q276.7656,429.0469 278.3594,429.0469 Q279.2969,429.0469 279.9531,428.7969 Q280.3438,428.6406 280.7656,428.2031 Q281.0313,427.9375 281.1719,427.8594 Q281.3281,427.7813 281.5313,427.7813 Q281.8594,427.7813 282.1094,428.0469 Q282.375,428.2969 282.375,428.6406 Q282.375,428.9844 282.0313,429.3906 Q281.5313,429.9688 280.7344,430.2969 Q279.6563,430.75 278.3594,430.75 Q276.8438,430.75 275.6406,430.125 Q274.6563,429.625 273.9688,428.5625 Q273.2813,427.4844 273.2813,426.2031 L273.2813,425.0469 Q273.2813,423.7188 273.8906,422.5781 Q274.5156,421.4219 275.6094,420.8125 Q276.7031,420.1875 277.9375,420.1875 Q278.6719,420.1875 279.3125,420.3594 Q279.9688,420.5156 280.5156,420.875 Z " fill="#000000"/><text fill="#000000" font-family="sans-serif" font-size="14" lengthAdjust="spacing" textLength="78" x="298.25" y="430.7969">Collaborator</text><line style="stroke:#181818;stroke-width:0.5;" x1="8" x2="634" y1="441" y2="441"/><text fill="#000000" font-family="sans-serif" font-size="14" lengthAdjust="spacing" textLength="81" x="13" y="460.1074">-String name</text><text fill="#000000" font-family="sans-serif" font-size="14" lengthAdjust="spacing" textLength="99" x="13" y="478.7285">-List &lt;Skill&gt; skill</text><text fill="#000000" font-family="sans-serif" font-size="14" lengthAdjust="spacing" textLength="50" x="13" y="497.3496">-Job job</text><text fill="#000000" font-family="sans-serif" font-size="14" lengthAdjust="spacing" textLength="111" x="13" y="515.9707">-Date dateOfBirth</text><text fill="#000000" font-family="sans-serif" font-size="14" lengthAdjust="spacing" textLength="132" x="13" y="534.5918">-Date admissionDate</text><text fill="#000000" font-family="sans-serif" font-size="14" lengthAdjust="spacing" textLength="112" x="13" y="553.2129">-Address address</text><text fill="#000000" font-family="sans-serif" font-size="14" lengthAdjust="spacing" textLength="113" x="13" y="571.834">-int phoneNumber</text><text fill="#000000" font-family="sans-serif" font-size="14" lengthAdjust="spacing" textLength="79" x="13" y="590.4551">-String email</text><text fill="#000000" font-family="sans-serif" font-size="14" lengthAdjust="spacing" textLength="38" x="13" y="609.0762">-int cc</text><text fill="#000000" font-family="sans-serif" font-size="14" lengthAdjust="spacing" textLength="101" x="13" y="627.6973">-int cardNumber</text><line style="stroke:#181818;stroke-width:0.5;" x1="8" x2="634" y1="635.2109" y2="635.2109"/><text fill="#000000" font-family="sans-serif" font-size="14" lengthAdjust="spacing" textLength="616" x="13" y="654.3184">+Collaborator(name, dateOfBirth, admissionDate, address, phoneNumber, email, cc, cardNumber)</text></g><!--class VehicleFleetManager--><g id="elem_VehicleFleetManager"><rect codeLine="71" fill="#F1F1F1" height="48" id="VehicleFleetManager" rx="2.5" ry="2.5" style="stroke:#181818;stroke-width:0.5;" width="166" x="115" y="852.5"/><ellipse cx="130" cy="868.5" fill="#ADD1B2" rx="11" ry="11" style="stroke:#181818;stroke-width:1.0;"/><path d="M132.7656,864.375 Q132.9219,864.1563 133.1094,864.0469 Q133.2969,863.9375 133.5156,863.9375 Q133.8906,863.9375 134.125,864.2031 Q134.3594,864.4531 134.3594,865.0625 L134.3594,866.5156 Q134.3594,867.125 134.125,867.3906 Q133.8906,867.6563 133.5156,867.6563 Q133.1719,867.6563 132.9688,867.4531 Q132.7656,867.2656 132.6563,866.75 Q132.6094,866.3906 132.4219,866.2031 Q132.0938,865.8281 131.4844,865.6094 Q130.875,865.3906 130.25,865.3906 Q129.4844,865.3906 128.8438,865.7188 Q128.2188,866.0469 127.7188,866.7969 Q127.2344,867.5469 127.2344,868.5781 L127.2344,869.6719 Q127.2344,870.9063 128.125,871.7344 Q129.0156,872.5469 130.6094,872.5469 Q131.5469,872.5469 132.2031,872.2969 Q132.5938,872.1406 133.0156,871.7031 Q133.2813,871.4375 133.4219,871.3594 Q133.5781,871.2813 133.7813,871.2813 Q134.1094,871.2813 134.3594,871.5469 Q134.625,871.7969 134.625,872.1406 Q134.625,872.4844 134.2813,872.8906 Q133.7813,873.4688 132.9844,873.7969 Q131.9063,874.25 130.6094,874.25 Q129.0938,874.25 127.8906,873.625 Q126.9063,873.125 126.2188,872.0625 Q125.5313,870.9844 125.5313,869.7031 L125.5313,868.5469 Q125.5313,867.2188 126.1406,866.0781 Q126.7656,864.9219 127.8594,864.3125 Q128.9531,863.6875 130.1875,863.6875 Q130.9219,863.6875 131.5625,863.8594 Q132.2188,864.0156 132.7656,864.375 Z " fill="#000000"/><text fill="#000000" font-family="sans-serif" font-size="14" lengthAdjust="spacing" textLength="134" x="144" y="874.2969">VehicleFleetManager</text><line style="stroke:#181818;stroke-width:0.5;" x1="116" x2="280" y1="884.5" y2="884.5"/><line style="stroke:#181818;stroke-width:0.5;" x1="116" x2="280" y1="892.5" y2="892.5"/></g><!--class Repositories--><g id="elem_Repositories"><rect codeLine="74" fill="#F1F1F1" height="122.4844" id="Repositories" rx="2.5" ry="2.5" style="stroke:#181818;stroke-width:0.5;" width="194" x="1576" y="7"/><ellipse cx="1629.25" cy="23" fill="#ADD1B2" rx="11" ry="11" style="stroke:#181818;stroke-width:1.0;"/><path d="M1632.0156,18.875 Q1632.1719,18.6563 1632.3594,18.5469 Q1632.5469,18.4375 1632.7656,18.4375 Q1633.1406,18.4375 1633.375,18.7031 Q1633.6094,18.9531 1633.6094,19.5625 L1633.6094,21.0156 Q1633.6094,21.625 1633.375,21.8906 Q1633.1406,22.1563 1632.7656,22.1563 Q1632.4219,22.1563 1632.2188,21.9531 Q1632.0156,21.7656 1631.9063,21.25 Q1631.8594,20.8906 1631.6719,20.7031 Q1631.3438,20.3281 1630.7344,20.1094 Q1630.125,19.8906 1629.5,19.8906 Q1628.7344,19.8906 1628.0938,20.2188 Q1627.4688,20.5469 1626.9688,21.2969 Q1626.4844,22.0469 1626.4844,23.0781 L1626.4844,24.1719 Q1626.4844,25.4063 1627.375,26.2344 Q1628.2656,27.0469 1629.8594,27.0469 Q1630.7969,27.0469 1631.4531,26.7969 Q1631.8438,26.6406 1632.2656,26.2031 Q1632.5313,25.9375 1632.6719,25.8594 Q1632.8281,25.7813 1633.0313,25.7813 Q1633.3594,25.7813 1633.6094,26.0469 Q1633.875,26.2969 1633.875,26.6406 Q1633.875,26.9844 1633.5313,27.3906 Q1633.0313,27.9688 1632.2344,28.2969 Q1631.1563,28.75 1629.8594,28.75 Q1628.3438,28.75 1627.1406,28.125 Q1626.1563,27.625 1625.4688,26.5625 Q1624.7813,25.4844 1624.7813,24.2031 L1624.7813,23.0469 Q1624.7813,21.7188 1625.3906,20.5781 Q1626.0156,19.4219 1627.1094,18.8125 Q1628.2031,18.1875 1629.4375,18.1875 Q1630.1719,18.1875 1630.8125,18.3594 Q1631.4688,18.5156 1632.0156,18.875 Z " fill="#000000"/><text fill="#000000" font-family="sans-serif" font-size="14" lengthAdjust="spacing" textLength="79" x="1649.75" y="28.7969">Repositories</text><line style="stroke:#181818;stroke-width:0.5;" x1="1577" x2="1769" y1="39" y2="39"/><line style="stroke:#181818;stroke-width:0.5;" x1="1577" x2="1769" y1="47" y2="47"/><text fill="#000000" font-family="sans-serif" font-size="14" lengthAdjust="spacing" textLength="94" x="1582" y="66.1074">-Repositories()</text><text fill="#000000" font-family="sans-serif" font-size="14" lengthAdjust="spacing" textLength="182" x="1582" y="84.7285">+getInstance() : Repositories</text><text fill="#000000" font-family="sans-serif" font-size="14" lengthAdjust="spacing" textLength="152" x="1582" y="103.3496">+getVehicleRepository()</text><text fill="#000000" font-family="sans-serif" font-size="14" lengthAdjust="spacing" textLength="144" x="1582" y="121.9707">+getBrandRepository()</text></g><!--class vehicleRepository--><g id="elem_vehicleRepository"><rect codeLine="82" fill="#F1F1F1" height="122.4844" id="vehicleRepository" rx="2.5" ry="2.5" style="stroke:#181818;stroke-width:0.5;" width="803" x="293.5" y="208"/><ellipse cx="634.75" cy="224" fill="#ADD1B2" rx="11" ry="11" style="stroke:#181818;stroke-width:1.0;"/><path d="M637.5156,219.875 Q637.6719,219.6563 637.8594,219.5469 Q638.0469,219.4375 638.2656,219.4375 Q638.6406,219.4375 638.875,219.7031 Q639.1094,219.9531 639.1094,220.5625 L639.1094,222.0156 Q639.1094,222.625 638.875,222.8906 Q638.6406,223.1563 638.2656,223.1563 Q637.9219,223.1563 637.7188,222.9531 Q637.5156,222.7656 637.4063,222.25 Q637.3594,221.8906 637.1719,221.7031 Q636.8438,221.3281 636.2344,221.1094 Q635.625,220.8906 635,220.8906 Q634.2344,220.8906 633.5938,221.2188 Q632.9688,221.5469 632.4688,222.2969 Q631.9844,223.0469 631.9844,224.0781 L631.9844,225.1719 Q631.9844,226.4063 632.875,227.2344 Q633.7656,228.0469 635.3594,228.0469 Q636.2969,228.0469 636.9531,227.7969 Q637.3438,227.6406 637.7656,227.2031 Q638.0313,226.9375 638.1719,226.8594 Q638.3281,226.7813 638.5313,226.7813 Q638.8594,226.7813 639.1094,227.0469 Q639.375,227.2969 639.375,227.6406 Q639.375,227.9844 639.0313,228.3906 Q638.5313,228.9688 637.7344,229.2969 Q636.6563,229.75 635.3594,229.75 Q633.8438,229.75 632.6406,229.125 Q631.6563,228.625 630.9688,227.5625 Q630.2813,226.4844 630.2813,225.2031 L630.2813,224.0469 Q630.2813,222.7188 630.8906,221.5781 Q631.5156,220.4219 632.6094,219.8125 Q633.7031,219.1875 634.9375,219.1875 Q635.6719,219.1875 636.3125,219.3594 Q636.9688,219.5156 637.5156,219.875 Z " fill="#000000"/><text fill="#000000" font-family="sans-serif" font-size="14" lengthAdjust="spacing" textLength="112" x="655.25" y="229.7969">vehicleRepository</text><line style="stroke:#181818;stroke-width:0.5;" x1="294.5" x2="1095.5" y1="240" y2="240"/><text fill="#000000" font-family="sans-serif" font-size="14" lengthAdjust="spacing" textLength="137" x="299.5" y="259.1074">-List&lt;Vehicle&gt; vehicle</text><line style="stroke:#181818;stroke-width:0.5;" x1="294.5" x2="1095.5" y1="266.6211" y2="266.6211"/><text fill="#000000" font-family="sans-serif" font-size="14" lengthAdjust="spacing" textLength="129" x="299.5" y="285.7285">-addVehicle(vehicle)</text><text fill="#000000" font-family="sans-serif" font-size="14" lengthAdjust="spacing" textLength="154" x="299.5" y="304.3496">-validateVehicle(vehicle)</text><text fill="#000000" font-family="sans-serif" font-size="14" lengthAdjust="spacing" textLength="791" x="299.5" y="322.9707">+registerVehicle(brand,model,type,tare,grossWeight,currentKm,registerDate,acquisitionDate,checkupFrequency,licensePlate)</text></g><!--class brandRepository--><g id="elem_brandRepository"><rect codeLine="90" fill="#F1F1F1" height="122.4844" id="brandRepository" rx="2.5" ry="2.5" style="stroke:#181818;stroke-width:0.5;" width="189" x="1307.5" y="208"/><ellipse cx="1345.9" cy="224" fill="#ADD1B2" rx="11" ry="11" style="stroke:#181818;stroke-width:1.0;"/><path d="M1348.6656,219.875 Q1348.8219,219.6563 1349.0094,219.5469 Q1349.1969,219.4375 1349.4156,219.4375 Q1349.7906,219.4375 1350.025,219.7031 Q1350.2594,219.9531 1350.2594,220.5625 L1350.2594,222.0156 Q1350.2594,222.625 1350.025,222.8906 Q1349.7906,223.1563 1349.4156,223.1563 Q1349.0719,223.1563 1348.8688,222.9531 Q1348.6656,222.7656 1348.5563,222.25 Q1348.5094,221.8906 1348.3219,221.7031 Q1347.9938,221.3281 1347.3844,221.1094 Q1346.775,220.8906 1346.15,220.8906 Q1345.3844,220.8906 1344.7438,221.2188 Q1344.1188,221.5469 1343.6188,222.2969 Q1343.1344,223.0469 1343.1344,224.0781 L1343.1344,225.1719 Q1343.1344,226.4063 1344.025,227.2344 Q1344.9156,228.0469 1346.5094,228.0469 Q1347.4469,228.0469 1348.1031,227.7969 Q1348.4938,227.6406 1348.9156,227.2031 Q1349.1813,226.9375 1349.3219,226.8594 Q1349.4781,226.7813 1349.6813,226.7813 Q1350.0094,226.7813 1350.2594,227.0469 Q1350.525,227.2969 1350.525,227.6406 Q1350.525,227.9844 1350.1813,228.3906 Q1349.6813,228.9688 1348.8844,229.2969 Q1347.8063,229.75 1346.5094,229.75 Q1344.9938,229.75 1343.7906,229.125 Q1342.8063,228.625 1342.1188,227.5625 Q1341.4313,226.4844 1341.4313,225.2031 L1341.4313,224.0469 Q1341.4313,222.7188 1342.0406,221.5781 Q1342.6656,220.4219 1343.7594,219.8125 Q1344.8531,219.1875 1346.0875,219.1875 Q1346.8219,219.1875 1347.4625,219.3594 Q1348.1188,219.5156 1348.6656,219.875 Z " fill="#000000"/><text fill="#000000" font-family="sans-serif" font-size="14" lengthAdjust="spacing" textLength="105" x="1365.1" y="229.7969">brandRepository</text><line style="stroke:#181818;stroke-width:0.5;" x1="1308.5" x2="1495.5" y1="240" y2="240"/><text fill="#000000" font-family="sans-serif" font-size="14" lengthAdjust="spacing" textLength="122" x="1313.5" y="259.1074">-List&lt;Brand&gt; brand</text><line style="stroke:#181818;stroke-width:0.5;" x1="1308.5" x2="1495.5" y1="266.6211" y2="266.6211"/><text fill="#000000" font-family="sans-serif" font-size="14" lengthAdjust="spacing" textLength="114" x="1313.5" y="285.7285">-addBrand(brand)</text><text fill="#000000" font-family="sans-serif" font-size="14" lengthAdjust="spacing" textLength="139" x="1313.5" y="304.3496">-validateBrand(brand)</text><text fill="#000000" font-family="sans-serif" font-size="14" lengthAdjust="spacing" textLength="177" x="1313.5" y="322.9707">+registerBrand(brandName)</text></g><!--link RegisterVehicleController to Repositories--><g id="link_RegisterVehicleController_Repositories"><path codeLine="98" d="M1472.88,68 C1510.72,68 1539.95,68 1569.98,68 " fill="none" id="RegisterVehicleController-to-Repositories" style="stroke:#181818;stroke-width:1.0;stroke-dasharray:7.0,7.0;"/><polygon fill="#181818" points="1575.98,68,1566.98,64,1570.98,68,1566.98,72,1575.98,68" style="stroke:#181818;stroke-width:1.0;"/><text fill="#000000" font-family="sans-serif" font-size="13" lengthAdjust="spacing" textLength="67" x="1490.75" y="61.0283">repositories</text></g><!--link RegisterVehicleController to vehicleRepository--><g id="link_RegisterVehicleController_vehicleRepository"><path codeLine="99" d="M932.07,129.25 C889.46,154.18 845.3383,180.0094 802.7583,204.9294 " fill="none" id="RegisterVehicleController-to-vehicleRepository" style="stroke:#181818;stroke-width:1.0;stroke-dasharray:7.0,7.0;"/><polygon fill="#181818" points="797.58,207.96,807.3679,206.8663,801.8953,205.4345,803.3271,199.9618,797.58,207.96" style="stroke:#181818;stroke-width:1.0;"/><text fill="#000000" font-family="sans-serif" font-size="13" lengthAdjust="spacing" textLength="101" x="877" y="174.0283">vehicleRepository</text><text fill="#000000" font-family="sans-serif" font-size="13" lengthAdjust="spacing" textLength="7" x="802.0361" y="196.9366">1</text></g><!--link RegisterVehicleController to brandRepository--><g id="link_RegisterVehicleController_brandRepository"><path codeLine="100" d="M1187.75,129.03 C1229.75,145.54 1264,159 1264,159 C1264,159 1289.112,178.8305 1321.022,204.0405 " fill="none" id="RegisterVehicleController-to-brandRepository" style="stroke:#181818;stroke-width:1.0;stroke-dasharray:7.0,7.0;"/><polygon fill="#181818" points="1325.73,207.76,1321.1476,199.0421,1321.8067,204.6604,1316.1883,205.3194,1325.73,207.76" style="stroke:#181818;stroke-width:1.0;"/><text fill="#000000" font-family="sans-serif" font-size="13" lengthAdjust="spacing" textLength="94" x="1288" y="174.0283">brandRepository</text><text fill="#000000" font-family="sans-serif" font-size="13" lengthAdjust="spacing" textLength="7" x="1309.5066" y="196.7135">1</text></g><!--link RegisterVehicleController to Brand--><g id="link_RegisterVehicleController_Brand"><path codeLine="101" d="M1129.05,129.03 C1154.91,145.54 1176,159 1176,159 C1176,159 1231.4859,329.7737 1267.5459,440.7537 " fill="none" id="RegisterVehicleController-to-Brand" style="stroke:#181818;stroke-width:1.0;stroke-dasharray:7.0,7.0;"/><polygon fill="#181818" points="1269.4,446.46,1270.423,436.6644,1267.8549,441.7047,1262.8146,439.1366,1269.4,446.46" style="stroke:#181818;stroke-width:1.0;"/><text fill="#000000" font-family="sans-serif" font-size="13" lengthAdjust="spacing" textLength="32" x="1231" y="274.5283">brand</text><text fill="#000000" font-family="sans-serif" font-size="13" lengthAdjust="spacing" textLength="7" x="1259.6414" y="435.1035">1</text></g><!--link RegisterVehicleController to Model--><g id="link_RegisterVehicleController_Model"><path codeLine="102" d="M1069.19,129.16 C1090.54,166.73 1114,208 1114,208 C1114,208 1172,711 1172,711 C1172,711 1205.8272,770.8369 1233.1272,819.1269 " fill="none" id="RegisterVehicleController-to-Model" style="stroke:#181818;stroke-width:1.0;stroke-dasharray:7.0,7.0;"/><polygon fill="#181818" points="1236.08,824.35,1235.1329,814.5468,1233.6193,819.9974,1228.1687,818.4839,1236.08,824.35" style="stroke:#181818;stroke-width:1.0;"/><text fill="#000000" font-family="sans-serif" font-size="13" lengthAdjust="spacing" textLength="35" x="1134" y="375.0283">model</text><text fill="#000000" font-family="sans-serif" font-size="13" lengthAdjust="spacing" textLength="7" x="1224.7236" y="813.2572">1</text></g><!--link RegisterVehicleUI to RegisterVehicleController--><g id="link_RegisterVehicleUI_RegisterVehicleController"><path codeLine="104" d="M562.67,68 C574.05,68 579.86,68 591.31,68 " fill="none" id="RegisterVehicleUI-to-RegisterVehicleController" style="stroke:#181818;stroke-width:1.0;stroke-dasharray:7.0,7.0;"/><polygon fill="#181818" points="597.31,68,588.31,64,592.31,68,588.31,72,597.31,68" style="stroke:#181818;stroke-width:1.0;"/></g><!--link Repositories to Repositories--><g id="link_Repositories_Repositories"><path codeLine="106" d="M1770.28,49.91 C1790.48,51.81 1805,57.84 1805,68 C1805,78.16 1796.4536,83.6281 1776.2536,85.5281 " fill="none" id="Repositories-to-Repositories" style="stroke:#181818;stroke-width:1.0;"/><polygon fill="#181818" points="1770.28,86.09,1779.615,89.2296,1775.258,85.6218,1778.8659,81.2648,1770.28,86.09" style="stroke:#181818;stroke-width:1.0;"/><text fill="#000000" font-family="sans-serif" font-size="13" lengthAdjust="spacing" textLength="49" x="1811" y="73.5283">instance</text></g><!--link Repositories to vehicleRepository--><g id="link_Repositories_vehicleRepository"><path codeLine="107" d="M1575.95,106.51 C1494.38,138.04 1391,178 1391,178 C1391,178 1256.9604,195.3305 1102.5404,215.3005 " fill="none" id="Repositories-to-vehicleRepository" style="stroke:#181818;stroke-width:1.0;"/><polygon fill="#181818" points="1096.59,216.07,1106.0287,218.8827,1101.5487,215.4287,1105.0027,210.9487,1096.59,216.07" style="stroke:#181818;stroke-width:1.0;"/><text fill="#000000" font-family="sans-serif" font-size="13" lengthAdjust="spacing" textLength="7" x="1104.8184" y="211.8486">1</text></g><!--link Repositories to brandRepository--><g id="link_Repositories_brandRepository"><path codeLine="108" d="M1590.96,129.25 C1556.99,154.18 1522.5358,179.4883 1488.6058,204.4083 " fill="none" id="Repositories-to-brandRepository" style="stroke:#181818;stroke-width:1.0;"/><polygon fill="#181818" points="1483.77,207.96,1493.3916,205.8563,1487.7999,205.0002,1488.656,199.4085,1483.77,207.96" style="stroke:#181818;stroke-width:1.0;"/><text fill="#000000" font-family="sans-serif" font-size="13" lengthAdjust="spacing" textLength="7" x="1485.82" y="196.9366">1</text></g><!--link vehicleRepository to Vehicle--><g id="link_vehicleRepository_Vehicle"><path codeLine="110" d="M700.87,330.27 C710.14,425.39 727.8081,606.7083 740.3081,734.9883 " fill="none" id="vehicleRepository-to-Vehicle" style="stroke:#181818;stroke-width:1.0;"/><polygon fill="#181818" points="740.89,740.96,743.9983,731.6145,740.4051,735.9836,736.036,732.3904,740.89,740.96" style="stroke:#181818;stroke-width:1.0;"/><text fill="#000000" font-family="sans-serif" font-size="13" lengthAdjust="spacing" textLength="5" x="734.9875" y="729.6563">*</text></g><!--link brandRepository to Brand--><g id="link_brandRepository_Brand"><path codeLine="112" d="M1378.4,330.02 C1364.89,364.39 1349.875,402.5659 1334.855,440.7759 " fill="none" id="brandRepository-to-Brand" style="stroke:#181818;stroke-width:1.0;"/><polygon fill="#181818" points="1332.66,446.36,1339.6753,439.4473,1334.4892,441.7066,1332.2299,436.5205,1332.66,446.36" style="stroke:#181818;stroke-width:1.0;"/><text fill="#000000" font-family="sans-serif" font-size="13" lengthAdjust="spacing" textLength="5" x="1330.3233" y="435.3002">*</text></g><!--reverse link Collaborator to VehicleFleetManager--><g id="link_Collaborator_VehicleFleetManager"><path codeLine="114" d="M269.2306,679.1706 C243.7306,749.4506 220.46,813.59 206.37,852.42 " fill="none" id="Collaborator-backto-VehicleFleetManager" style="stroke:#181818;stroke-width:1.0;"/><polygon fill="none" points="275.37,662.25,263.5904,677.1242,274.8708,681.2171,275.37,662.25" style="stroke:#181818;stroke-width:1.0;"/></g><!--link Collaborator to Vehicle--><g id="link_Collaborator_Vehicle"><path codeLine="115" d="M481.31,662.01 C514.18,687.74 544.175,711.2321 577.435,737.2621 " fill="none" id="Collaborator-to-Vehicle" style="stroke:#181818;stroke-width:1.0;"/><polygon fill="#181818" points="582.16,740.96,577.5378,732.2632,578.2225,737.8784,572.6072,738.5632,582.16,740.96" style="stroke:#181818;stroke-width:1.0;"/><text fill="#000000" font-family="sans-serif" font-size="13" lengthAdjust="spacing" textLength="33" x="539" y="707.0283">drives</text><text fill="#000000" font-family="sans-serif" font-size="13" lengthAdjust="spacing" textLength="5" x="485.4334" y="683.8569">*</text><text fill="#000000" font-family="sans-serif" font-size="13" lengthAdjust="spacing" textLength="5" x="567.081" y="729.6563">*</text></g><!--reverse link VehicleFleetManager to Vehicle--><g id="link_VehicleFleetManager_Vehicle"><path codeLine="117" d="M287.24,876.5 C314.73,876.5 341.33,876.5 376.36,876.5 " fill="none" id="VehicleFleetManager-backto-Vehicle" style="stroke:#181818;stroke-width:1.0;"/><polygon fill="#181818" points="281.24,876.5,290.24,880.5,286.24,876.5,290.24,872.5,281.24,876.5" style="stroke:#181818;stroke-width:1.0;"/><text fill="#000000" font-family="sans-serif" font-size="13" lengthAdjust="spacing" textLength="59" x="299.25" y="869.5283">createdBy</text></g><!--link Brand to Model--><g id="link_Brand_Model"><path codeLine="119" d="M1289.42,624.68 C1283.25,688.05 1275.7212,765.3182 1270.5812,818.1282 " fill="none" id="Brand-to-Model" style="stroke:#181818;stroke-width:1.0;"/><polygon fill="#181818" points="1270,824.1,1274.853,815.5298,1270.4844,819.1235,1266.8907,814.7548,1270,824.1" style="stroke:#181818;stroke-width:1.0;"/><text fill="#000000" font-family="sans-serif" font-size="13" lengthAdjust="spacing" textLength="35" x="1283" y="707.0283">model</text><text fill="#000000" font-family="sans-serif" font-size="13" lengthAdjust="spacing" textLength="7" x="1281.4196" y="646.7951">1</text><text fill="#000000" font-family="sans-serif" font-size="13" lengthAdjust="spacing" textLength="20" x="1249.3594" y="813.3529">1..*</text></g><!--link Brand to Vehicle--><g id="link_Brand_Vehicle"><path codeLine="120" d="M1202.93,595.74 C1138.52,635.88 1055.8021,687.4265 974.9321,737.8265 " fill="none" id="Brand-to-Vehicle" style="stroke:#181818;stroke-width:1.0;"/><polygon fill="#181818" points="969.84,741,979.5937,739.6345,974.0834,738.3554,975.3624,732.8451,969.84,741" style="stroke:#181818;stroke-width:1.0;"/><text fill="#000000" font-family="sans-serif" font-size="13" lengthAdjust="spacing" textLength="21" x="1044" y="707.0283">has</text><text fill="#000000" font-family="sans-serif" font-size="13" lengthAdjust="spacing" textLength="7" x="1188.0752" y="596.8891">1</text><text fill="#000000" font-family="sans-serif" font-size="13" lengthAdjust="spacing" textLength="20" x="961.7401" y="729.6986">1..*</text></g><!--link Vehicle to Model--><g id="link_Vehicle_Model"><path codeLine="122" d="M1131.74,876.5 C1152.4,876.5 1165.66,876.5 1182.77,876.5 " fill="none" id="Vehicle-to-Model" style="stroke:#181818;stroke-width:1.0;"/><polygon fill="#181818" points="1188.77,876.5,1179.77,872.5,1183.77,876.5,1179.77,880.5,1188.77,876.5" style="stroke:#181818;stroke-width:1.0;"/><text fill="#000000" font-family="sans-serif" font-size="13" lengthAdjust="spacing" textLength="21" x="1149.75" y="869.5283">has</text><text fill="#000000" font-family="sans-serif" font-size="13" lengthAdjust="spacing" textLength="20" x="1139.616" y="890.6993">1..*</text><text fill="#000000" font-family="sans-serif" font-size="13" lengthAdjust="spacing" textLength="7" x="1173.9216" y="872.7127">1</text></g><!--SRC=[nLN9Rjim4BthAuXSxAHKq5uDmq2S8a3Q9YrYj3tJqjXYJP4AIRjmbtyl5osa9CSzjJc4rgplpGo74xMZl2AIbAWKN6I552KWBVUGT9gAP3koXPK-Ca0ICatubeK6gY2v-4xv5cq8Kw66KGxwM06g13lQZsGoeXHIYoJmoXXHwaPhITTx3VUPu2lw0z3h99ams6Ya1P9qMsYKKmk72fuapWSj9U4v-faWyvUkJ023YPCIlE03LHhD7qGER67ucYFn2fBdJZfrmailF116SwB1nPokxV-UPk3pojlQZBL0mjOa1HcOFZhjxmQoqun1FfVBItWSxGiKD3DjgkFvUZZiNk2pUUvXHji7BzWmGKo9YOo-jr8ezHLirRsOSesolPJ0zVlIYzuQcAWXR3y2CScUzrHHswjEus8KaEtsrPs4vptmx1YXOZG3hk0JiovnFMgYquC_wveqKiSOEvhOKiEM3mv8u1Ox3X7Z7axSXuT3I47Td-eWDO1RmRKKZ84qdV30CmdnC3ssKrBh1ZFYA9sCFEsDMCJT1i1jgFzIWy_tXdkhl3MOoLf8eeKySq5NEyhC1LNsyF9tOes-YNKmJtO4FcwMLEeYdBAyf4f5CtQJvn9CVkBFRl2gGd1ut9Tha14QA0bbmNncmMyYyzh3bpuavMuY3e7X60zkCE0mD_O9iKc4WmJ3Att70FG3uMOJox2mJr09qomXAQXss49XCoTRqFTScUMTmVGIpIB7rg9ErkgEWRURtKZJWZZqtPeMsuxEww2BngpRkgEt-CmT7vttVtdNrt4T8ggkHejwuxOqJpyX0qrBRx0fJFxJM-Pw4G_2p2pYeBqlEbwykHXfu6meEn-cNvfPN_9IY3g6VxDgpx-mzq_Qh7dGXrl8rUP456iVb2qTb97MLwPdbvuesxXPlmZ9iDofixswQAvxalHhsHWi_Mn52nNDVwKf6biLiPtrZ_COYhca1pCZoTYYcNTHPyW_K_dI4F1Dijmyn-lhgtudHaswh0NfKZRQDEweDVa3]--></g></svg>