<?xml version="1.0" encoding="us-ascii" standalone="no"?><svg xmlns="http://www.w3.org/2000/svg" xmlns:xlink="http://www.w3.org/1999/xlink" contentStyleType="text/css" height="1063px" preserveAspectRatio="none" style="width:1597px;height:1063px;background:#FFFFFF;" version="1.1" viewBox="0 0 1597 1063" width="1597px" zoomAndPan="magnify"><defs/><g><rect fill="#FFFFFF" height="869.041" style="stroke:#181818;stroke-width:1.0;" width="10" x="145" y="93.6211"/><rect fill="#FFFFFF" height="48.582" style="stroke:#181818;stroke-width:1.0;" width="10" x="616" y="116.9121"/><rect fill="#FFFFFF" height="31.291" style="stroke:#181818;stroke-width:1.0;" width="10" x="616" y="214.0762"/><rect fill="#FFFFFF" height="686.0039" style="stroke:#181818;stroke-width:1.0;" width="10" x="616" y="276.6582"/><rect fill="#FFFFFF" height="606.1309" style="stroke:#181818;stroke-width:1.0;" width="10" x="1085" y="325.2402"/><rect fill="#FFFFFF" height="106.5039" style="stroke:#181818;stroke-width:1.0;" width="10" x="1090" y="364.5313"/><rect fill="#FFFFFF" height="106.5039" style="stroke:#181818;stroke-width:1.0;" width="10" x="1090" y="517.3262"/><rect fill="#FFFFFF" height="31.291" style="stroke:#181818;stroke-width:1.0;" width="10" x="1286" y="662.1211"/><rect fill="#FFFFFF" height="31.291" style="stroke:#181818;stroke-width:1.0;" width="10" x="1393" y="724.7031"/><rect fill="#FFFFFF" height="95.5039" style="stroke:#181818;stroke-width:1.0;" width="10" x="1517.5" y="804.5762"/><line style="stroke:#181818;stroke-width:0.5;stroke-dasharray:5.0,5.0;" x1="150" x2="150" y1="83.6211" y2="980.6621"/><line style="stroke:#181818;stroke-width:0.5;stroke-dasharray:5.0,5.0;" x1="620.5" x2="620.5" y1="83.6211" y2="980.6621"/><line style="stroke:#181818;stroke-width:0.5;stroke-dasharray:5.0,5.0;" x1="1089.5" x2="1089.5" y1="83.6211" y2="980.6621"/><line style="stroke:#181818;stroke-width:0.5;stroke-dasharray:5.0,5.0;" x1="1290.5" x2="1290.5" y1="83.6211" y2="980.6621"/><line style="stroke:#181818;stroke-width:0.5;stroke-dasharray:5.0,5.0;" x1="1397.5" x2="1397.5" y1="83.6211" y2="980.6621"/><line style="stroke:#181818;stroke-width:0.5;stroke-dasharray:5.0,5.0;" x1="1522.5" x2="1522.5" y1="83.6211" y2="980.6621"/><text fill="#000000" font-family="sans-serif" font-size="14" lengthAdjust="spacing" textLength="284" x="5" y="80.1074">Vehicle and Equipment Fleet Manager (VFM)</text><ellipse cx="150" cy="13.5" fill="#E3E3E3" rx="8" ry="8" style="stroke:#181818;stroke-width:0.5;"/><path d="M150,21.5 L150,48.5 M137,29.5 L163,29.5 M150,48.5 L137,63.5 M150,48.5 L163,63.5 " fill="none" style="stroke:#181818;stroke-width:0.5;"/><text fill="#000000" font-family="sans-serif" font-size="14" lengthAdjust="spacing" textLength="284" x="5" y="994.7695">Vehicle and Equipment Fleet Manager (VFM)</text><ellipse cx="150" cy="1006.7832" fill="#E3E3E3" rx="8" ry="8" style="stroke:#181818;stroke-width:0.5;"/><path d="M150,1014.7832 L150,1041.7832 M137,1022.7832 L163,1022.7832 M150,1041.7832 L137,1056.7832 M150,1041.7832 L163,1056.7832 " fill="none" style="stroke:#181818;stroke-width:0.5;"/><rect fill="#E3E3E3" height="32.6211" rx="2.5" ry="2.5" style="stroke:#181818;stroke-width:0.5;" width="129" x="556.5" y="50"/><text fill="#000000" font-family="sans-serif" font-size="14" lengthAdjust="spacing" textLength="115" x="563.5" y="72.1074">:RegisterVehicleUI</text><rect fill="#E3E3E3" height="32.6211" rx="2.5" ry="2.5" style="stroke:#181818;stroke-width:0.5;" width="129" x="556.5" y="979.6621"/><text fill="#000000" font-family="sans-serif" font-size="14" lengthAdjust="spacing" textLength="115" x="563.5" y="1001.7695">:RegisterVehicleUI</text><rect fill="#E3E3E3" height="32.6211" rx="2.5" ry="2.5" style="stroke:#181818;stroke-width:0.5;" width="179" x="1000.5" y="50"/><text fill="#000000" font-family="sans-serif" font-size="14" lengthAdjust="spacing" textLength="165" x="1007.5" y="72.1074">:RegisterVehicleController</text><rect fill="#E3E3E3" height="32.6211" rx="2.5" ry="2.5" style="stroke:#181818;stroke-width:0.5;" width="179" x="1000.5" y="979.6621"/><text fill="#000000" font-family="sans-serif" font-size="14" lengthAdjust="spacing" textLength="165" x="1007.5" y="1001.7695">:RegisterVehicleController</text><rect fill="#E3E3E3" height="32.6211" rx="2.5" ry="2.5" style="stroke:#181818;stroke-width:0.5;" width="97" x="1242.5" y="50"/><text fill="#000000" font-family="sans-serif" font-size="14" lengthAdjust="spacing" textLength="83" x="1249.5" y="72.1074">:Repositories</text><rect fill="#E3E3E3" height="32.6211" rx="2.5" ry="2.5" style="stroke:#181818;stroke-width:0.5;" width="97" x="1242.5" y="979.6621"/><text fill="#000000" font-family="sans-serif" font-size="14" lengthAdjust="spacing" textLength="83" x="1249.5" y="1001.7695">:Repositories</text><rect fill="#E3E3E3" height="51.2422" rx="2.5" ry="2.5" style="stroke:#181818;stroke-width:0.5;" width="97" x="1349.5" y="31.3789"/><text fill="#000000" font-family="sans-serif" font-size="14" lengthAdjust="spacing" textLength="74" x="1361" y="53.4863">repositories</text><text fill="#000000" font-family="sans-serif" font-size="14" lengthAdjust="spacing" textLength="83" x="1356.5" y="72.1074">:Repositories</text><rect fill="#E3E3E3" height="51.2422" rx="2.5" ry="2.5" style="stroke:#181818;stroke-width:0.5;" width="97" x="1349.5" y="979.6621"/><text fill="#000000" font-family="sans-serif" font-size="14" lengthAdjust="spacing" textLength="74" x="1361" y="1001.7695">repositories</text><text fill="#000000" font-family="sans-serif" font-size="14" lengthAdjust="spacing" textLength="83" x="1356.5" y="1020.3906">:Repositories</text><rect fill="#E3E3E3" height="51.2422" rx="2.5" ry="2.5" style="stroke:#181818;stroke-width:0.5;" width="132" x="1456.5" y="31.3789"/><text fill="#000000" font-family="sans-serif" font-size="14" lengthAdjust="spacing" textLength="112" x="1466.5" y="53.4863">vehicleRepository</text><text fill="#000000" font-family="sans-serif" font-size="14" lengthAdjust="spacing" textLength="118" x="1463.5" y="72.1074">:VehicleRepository</text><rect fill="#E3E3E3" height="51.2422" rx="2.5" ry="2.5" style="stroke:#181818;stroke-width:0.5;" width="132" x="1456.5" y="979.6621"/><text fill="#000000" font-family="sans-serif" font-size="14" lengthAdjust="spacing" textLength="112" x="1466.5" y="1001.7695">vehicleRepository</text><text fill="#000000" font-family="sans-serif" font-size="14" lengthAdjust="spacing" textLength="118" x="1463.5" y="1020.3906">:VehicleRepository</text><rect fill="#FFFFFF" height="869.041" style="stroke:#181818;stroke-width:1.0;" width="10" x="145" y="93.6211"/><rect fill="#FFFFFF" height="48.582" style="stroke:#181818;stroke-width:1.0;" width="10" x="616" y="116.9121"/><rect fill="#FFFFFF" height="31.291" style="stroke:#181818;stroke-width:1.0;" width="10" x="616" y="214.0762"/><rect fill="#FFFFFF" height="686.0039" style="stroke:#181818;stroke-width:1.0;" width="10" x="616" y="276.6582"/><rect fill="#FFFFFF" height="606.1309" style="stroke:#181818;stroke-width:1.0;" width="10" x="1085" y="325.2402"/><rect fill="#FFFFFF" height="106.5039" style="stroke:#181818;stroke-width:1.0;" width="10" x="1090" y="364.5313"/><rect fill="#FFFFFF" height="106.5039" style="stroke:#181818;stroke-width:1.0;" width="10" x="1090" y="517.3262"/><rect fill="#FFFFFF" height="31.291" style="stroke:#181818;stroke-width:1.0;" width="10" x="1286" y="662.1211"/><rect fill="#FFFFFF" height="31.291" style="stroke:#181818;stroke-width:1.0;" width="10" x="1393" y="724.7031"/><rect fill="#FFFFFF" height="95.5039" style="stroke:#181818;stroke-width:1.0;" width="10" x="1517.5" y="804.5762"/><polygon fill="#181818" points="604,112.9121,614,116.9121,604,120.9121,608,116.9121" style="stroke:#181818;stroke-width:1.0;"/><line style="stroke:#181818;stroke-width:1.0;" x1="155" x2="610" y1="116.9121" y2="116.9121"/><text fill="#000000" font-family="sans-serif" font-size="13" font-weight="bold" lengthAdjust="spacing" textLength="7" x="162" y="111.6494">1</text><text fill="#000000" font-family="sans-serif" font-size="13" lengthAdjust="spacing" textLength="171" x="173" y="111.6494">asks to register a new vehicle</text><polygon fill="#181818" points="166,161.4941,156,165.4941,166,169.4941,162,165.4941" style="stroke:#181818;stroke-width:1.0;"/><line style="stroke:#181818;stroke-width:1.0;stroke-dasharray:2.0,2.0;" x1="160" x2="620" y1="165.4941" y2="165.4941"/><text fill="#000000" font-family="sans-serif" font-size="13" font-weight="bold" lengthAdjust="spacing" textLength="7" x="172" y="151.5859">2</text><text fill="#000000" font-family="sans-serif" font-size="13" lengthAdjust="spacing" textLength="426" x="183" y="142.9404">requests data (brandName,modelName,type,tare,grossWeight,currentKm,</text><text fill="#000000" font-family="sans-serif" font-size="13" lengthAdjust="spacing" textLength="356" x="183" y="160.2314">registerDate,acquisitionDate,checkupFrequency,licensePlate)</text><polygon fill="#181818" points="604,210.0762,614,214.0762,604,218.0762,608,214.0762" style="stroke:#181818;stroke-width:1.0;"/><line style="stroke:#181818;stroke-width:1.0;" x1="155" x2="610" y1="214.0762" y2="214.0762"/><text fill="#000000" font-family="sans-serif" font-size="13" font-weight="bold" lengthAdjust="spacing" textLength="7" x="162" y="200.168">3</text><text fill="#000000" font-family="sans-serif" font-size="13" lengthAdjust="spacing" textLength="401" x="173" y="191.5225">type data (brandName,modelName,type,tare,grossWeight,currentKm,</text><text fill="#000000" font-family="sans-serif" font-size="13" lengthAdjust="spacing" textLength="356" x="173" y="208.8135">registerDate,acquisitionDate,checkupFrequency,licensePlate)</text><polygon fill="#181818" points="166,241.3672,156,245.3672,166,249.3672,162,245.3672" style="stroke:#181818;stroke-width:1.0;"/><line style="stroke:#181818;stroke-width:1.0;stroke-dasharray:2.0,2.0;" x1="160" x2="620" y1="245.3672" y2="245.3672"/><text fill="#000000" font-family="sans-serif" font-size="13" font-weight="bold" lengthAdjust="spacing" textLength="7" x="172" y="240.1045">4</text><text fill="#000000" font-family="sans-serif" font-size="13" lengthAdjust="spacing" textLength="252" x="183" y="240.1045">displays the data and requests confirmation</text><polygon fill="#181818" points="604,272.6582,614,276.6582,604,280.6582,608,276.6582" style="stroke:#181818;stroke-width:1.0;"/><line style="stroke:#181818;stroke-width:1.0;" x1="155" x2="610" y1="276.6582" y2="276.6582"/><text fill="#000000" font-family="sans-serif" font-size="13" font-weight="bold" lengthAdjust="spacing" textLength="7" x="162" y="271.3955">5</text><text fill="#000000" font-family="sans-serif" font-size="13" lengthAdjust="spacing" textLength="153" x="173" y="271.3955">confirms and submits data</text><polygon fill="#181818" points="1073,321.2402,1083,325.2402,1073,329.2402,1077,325.2402" style="stroke:#181818;stroke-width:1.0;"/><line style="stroke:#181818;stroke-width:1.0;" x1="626" x2="1079" y1="325.2402" y2="325.2402"/><text fill="#000000" font-family="sans-serif" font-size="13" font-weight="bold" lengthAdjust="spacing" textLength="7" x="633" y="311.332">6</text><text fill="#000000" font-family="sans-serif" font-size="13" lengthAdjust="spacing" textLength="429" x="644" y="302.6865">registerVehicle(brandName,modelName,type,tare,grossWeight,currentKm,</text><text fill="#000000" font-family="sans-serif" font-size="13" lengthAdjust="spacing" textLength="356" x="644" y="319.9775">registerDate,acquisitionDate,checkupFrequency,licensePlate)</text><line style="stroke:#181818;stroke-width:1.0;" x1="1095" x2="1142" y1="351.5313" y2="351.5313"/><line style="stroke:#181818;stroke-width:1.0;" x1="1142" x2="1142" y1="351.5313" y2="364.5313"/><line style="stroke:#181818;stroke-width:1.0;" x1="1101" x2="1142" y1="364.5313" y2="364.5313"/><polygon fill="#181818" points="1111,360.5313,1101,364.5313,1111,368.5313,1107,364.5313" style="stroke:#181818;stroke-width:1.0;"/><text fill="#000000" font-family="sans-serif" font-size="13" font-weight="bold" lengthAdjust="spacing" textLength="7" x="1107" y="346.2686">7</text><text fill="#000000" font-family="sans-serif" font-size="13" lengthAdjust="spacing" textLength="126" x="1118" y="346.2686">getBrand(brandName)</text><rect fill="none" height="59.2129" style="stroke:#000000;stroke-width:1.5;" width="185" x="997.5" y="377.5313"/><path d="M997.5,377.5313 L1059.5,377.5313 L1059.5,386.5313 L1049.5,396.5313 L997.5,396.5313 L997.5,377.5313 " fill="#EEEEEE" style="stroke:#000000;stroke-width:2.0;"/><text fill="#000000" font-family="sans-serif" font-size="13" font-weight="bold" lengthAdjust="spacing" textLength="17" x="1010.5" y="393.5596">ref</text><text fill="#000000" font-family="sans-serif" font-size="12" lengthAdjust="spacing" textLength="93" x="1043.5" y="413.4805">Get Brand Object</text><text fill="#000000" font-family="sans-serif" font-size="12" lengthAdjust="spacing" textLength="3" x="1088.5" y="429.4414">&#160;</text><line style="stroke:#181818;stroke-width:1.0;stroke-dasharray:2.0,2.0;" x1="1100" x2="1142" y1="470.0352" y2="470.0352"/><line style="stroke:#181818;stroke-width:1.0;stroke-dasharray:2.0,2.0;" x1="1142" x2="1142" y1="470.0352" y2="483.0352"/><line style="stroke:#181818;stroke-width:1.0;stroke-dasharray:2.0,2.0;" x1="1095" x2="1142" y1="483.0352" y2="483.0352"/><polygon fill="#181818" points="1105,479.0352,1095,483.0352,1105,487.0352,1101,483.0352" style="stroke:#181818;stroke-width:1.0;"/><text fill="#000000" font-family="sans-serif" font-size="13" font-weight="bold" lengthAdjust="spacing" textLength="7" x="1107" y="464.7725">8</text><text fill="#000000" font-family="sans-serif" font-size="13" lengthAdjust="spacing" textLength="32" x="1118" y="464.7725">brand</text><line style="stroke:#181818;stroke-width:1.0;" x1="1095" x2="1142" y1="504.3262" y2="504.3262"/><line style="stroke:#181818;stroke-width:1.0;" x1="1142" x2="1142" y1="504.3262" y2="517.3262"/><line style="stroke:#181818;stroke-width:1.0;" x1="1101" x2="1142" y1="517.3262" y2="517.3262"/><polygon fill="#181818" points="1111,513.3262,1101,517.3262,1111,521.3262,1107,517.3262" style="stroke:#181818;stroke-width:1.0;"/><text fill="#000000" font-family="sans-serif" font-size="13" font-weight="bold" lengthAdjust="spacing" textLength="7" x="1107" y="499.0635">9</text><text fill="#000000" font-family="sans-serif" font-size="13" lengthAdjust="spacing" textLength="166" x="1118" y="499.0635">getModel(brand,modelName)</text><rect fill="none" height="59.2129" style="stroke:#000000;stroke-width:1.5;" width="185" x="997.5" y="530.3262"/><path d="M997.5,530.3262 L1059.5,530.3262 L1059.5,539.3262 L1049.5,549.3262 L997.5,549.3262 L997.5,530.3262 " fill="#EEEEEE" style="stroke:#000000;stroke-width:2.0;"/><text fill="#000000" font-family="sans-serif" font-size="13" font-weight="bold" lengthAdjust="spacing" textLength="17" x="1010.5" y="546.3545">ref</text><text fill="#000000" font-family="sans-serif" font-size="12" lengthAdjust="spacing" textLength="93" x="1043.5" y="566.2754">Get Model Object</text><text fill="#000000" font-family="sans-serif" font-size="12" lengthAdjust="spacing" textLength="3" x="1088.5" y="582.2363">&#160;</text><line style="stroke:#181818;stroke-width:1.0;stroke-dasharray:2.0,2.0;" x1="1100" x2="1142" y1="622.8301" y2="622.8301"/><line style="stroke:#181818;stroke-width:1.0;stroke-dasharray:2.0,2.0;" x1="1142" x2="1142" y1="622.8301" y2="635.8301"/><line style="stroke:#181818;stroke-width:1.0;stroke-dasharray:2.0,2.0;" x1="1095" x2="1142" y1="635.8301" y2="635.8301"/><polygon fill="#181818" points="1105,631.8301,1095,635.8301,1105,639.8301,1101,635.8301" style="stroke:#181818;stroke-width:1.0;"/><text fill="#000000" font-family="sans-serif" font-size="13" font-weight="bold" lengthAdjust="spacing" textLength="14" x="1107" y="617.5674">10</text><text fill="#000000" font-family="sans-serif" font-size="13" lengthAdjust="spacing" textLength="35" x="1125" y="617.5674">model</text><polygon fill="#181818" points="1274,658.1211,1284,662.1211,1274,666.1211,1278,662.1211" style="stroke:#181818;stroke-width:1.0;"/><line style="stroke:#181818;stroke-width:1.0;" x1="1095" x2="1280" y1="662.1211" y2="662.1211"/><text fill="#000000" font-family="sans-serif" font-size="13" font-weight="bold" lengthAdjust="spacing" textLength="14" x="1102" y="656.8584">11</text><text fill="#000000" font-family="sans-serif" font-size="13" lengthAdjust="spacing" textLength="75" x="1120" y="656.8584">getInstance()</text><polygon fill="#181818" points="1106,689.4121,1096,693.4121,1106,697.4121,1102,693.4121" style="stroke:#181818;stroke-width:1.0;"/><line style="stroke:#181818;stroke-width:1.0;stroke-dasharray:2.0,2.0;" x1="1100" x2="1290" y1="693.4121" y2="693.4121"/><text fill="#000000" font-family="sans-serif" font-size="13" font-weight="bold" lengthAdjust="spacing" textLength="14" x="1112" y="688.1494">12</text><text fill="#000000" font-family="sans-serif" font-size="13" lengthAdjust="spacing" textLength="67" x="1130" y="688.1494">repositories</text><polygon fill="#181818" points="1381,720.7031,1391,724.7031,1381,728.7031,1385,724.7031" style="stroke:#181818;stroke-width:1.0;"/><line style="stroke:#181818;stroke-width:1.0;" x1="1095" x2="1387" y1="724.7031" y2="724.7031"/><text fill="#000000" font-family="sans-serif" font-size="13" font-weight="bold" lengthAdjust="spacing" textLength="14" x="1102" y="719.4404">13</text><text fill="#000000" font-family="sans-serif" font-size="13" lengthAdjust="spacing" textLength="131" x="1120" y="719.4404">getVehicleRepository()</text><polygon fill="#181818" points="1106,751.9941,1096,755.9941,1106,759.9941,1102,755.9941" style="stroke:#181818;stroke-width:1.0;"/><line style="stroke:#181818;stroke-width:1.0;stroke-dasharray:2.0,2.0;" x1="1100" x2="1397" y1="755.9941" y2="755.9941"/><text fill="#000000" font-family="sans-serif" font-size="13" font-weight="bold" lengthAdjust="spacing" textLength="14" x="1112" y="750.7314">14</text><text fill="#000000" font-family="sans-serif" font-size="13" lengthAdjust="spacing" textLength="101" x="1130" y="750.7314">vehicleRepository</text><polygon fill="#181818" points="1505.5,800.5762,1515.5,804.5762,1505.5,808.5762,1509.5,804.5762" style="stroke:#181818;stroke-width:1.0;"/><line style="stroke:#181818;stroke-width:1.0;" x1="1095" x2="1511.5" y1="804.5762" y2="804.5762"/><text fill="#000000" font-family="sans-serif" font-size="13" font-weight="bold" lengthAdjust="spacing" textLength="14" x="1102" y="790.668">15</text><text fill="#000000" font-family="sans-serif" font-size="13" lengthAdjust="spacing" textLength="361" x="1120" y="782.0225">registerVehicle(brand,model,type,tare,grossWeight,currentKm,</text><text fill="#000000" font-family="sans-serif" font-size="13" lengthAdjust="spacing" textLength="356" x="1120" y="799.3135">registerDate,acquisitionDate,checkupFrequency,licensePlate)</text><rect fill="none" height="59.2129" style="stroke:#000000;stroke-width:1.5;" width="138" x="1453.5" y="812.5762"/><path d="M1453.5,812.5762 L1515.5,812.5762 L1515.5,821.5762 L1505.5,831.5762 L1453.5,831.5762 L1453.5,812.5762 " fill="#EEEEEE" style="stroke:#000000;stroke-width:2.0;"/><text fill="#000000" font-family="sans-serif" font-size="13" font-weight="bold" lengthAdjust="spacing" textLength="17" x="1466.5" y="828.6045">ref</text><text fill="#000000" font-family="sans-serif" font-size="12" lengthAdjust="spacing" textLength="80" x="1482.5" y="848.5254">Create Vehicle</text><text fill="#000000" font-family="sans-serif" font-size="12" lengthAdjust="spacing" textLength="3" x="1521" y="864.4863">&#160;</text><polygon fill="#181818" points="1106,896.0801,1096,900.0801,1106,904.0801,1102,900.0801" style="stroke:#181818;stroke-width:1.0;"/><line style="stroke:#181818;stroke-width:1.0;stroke-dasharray:2.0,2.0;" x1="1100" x2="1521.5" y1="900.0801" y2="900.0801"/><text fill="#000000" font-family="sans-serif" font-size="13" font-weight="bold" lengthAdjust="spacing" textLength="14" x="1112" y="894.8174">16</text><text fill="#000000" font-family="sans-serif" font-size="13" lengthAdjust="spacing" textLength="39" x="1130" y="894.8174">vehicle</text><polygon fill="#181818" points="637,927.3711,627,931.3711,637,935.3711,633,931.3711" style="stroke:#181818;stroke-width:1.0;"/><line style="stroke:#181818;stroke-width:1.0;stroke-dasharray:2.0,2.0;" x1="631" x2="1089" y1="931.3711" y2="931.3711"/><text fill="#000000" font-family="sans-serif" font-size="13" font-weight="bold" lengthAdjust="spacing" textLength="14" x="643" y="926.1084">17</text><text fill="#000000" font-family="sans-serif" font-size="13" lengthAdjust="spacing" textLength="39" x="661" y="926.1084">vehicle</text><polygon fill="#181818" points="161,958.6621,151,962.6621,161,966.6621,157,962.6621" style="stroke:#181818;stroke-width:1.0;"/><line style="stroke:#181818;stroke-width:1.0;stroke-dasharray:2.0,2.0;" x1="155" x2="620" y1="962.6621" y2="962.6621"/><text fill="#000000" font-family="sans-serif" font-size="13" font-weight="bold" lengthAdjust="spacing" textLength="14" x="167" y="957.3994">18</text><text fill="#000000" font-family="sans-serif" font-size="13" lengthAdjust="spacing" textLength="158" x="185" y="957.3994">displays operation success</text><!--SRC=[nLPDZzem4BtdLupsKf3W3t10QhTbXRgqAtQXbxqOPqXS4ZjhEspvznqx8GaaV6ob2XyGn3Dltfl9p60sGcPCinHI9HMFjKeHhCunCDLDnlY6HVXiTmc2HcwPZ9AcWObPgDw5Z63D4eD1m7AhP9wkK0V1frY426kbx4hz2HYtIiFT4cF12Ot94BwzvI9BKLgO98WMPanID0szvMJMlmDcWBu45CaABZ96TdUZEKR2MDGbpcBgxHRJysRtIbgjaWIrDxz_cJ-s739b154KQBnDzM3tB9ngqdNeeXiUhx8DyFJu-UNGOrkGgP79RNdyhD0z3rp2n9PPz4a8e3pq0uPZ4WmZCjmOi8egKuW51XBVeGpZNIeGob25GSv3md1G8t9-oz5O0o6p37ehJPNvmL8Sf2h4n7-pkum-cCP1f9Knlr14iHtmN6kgtVTqy2ht3BvIg07ZL5SI8vJqltcCV9Dd4nz9yjqW4HobmQU4RlkULOYTH8dXSBoOZi0nk1d1AnCP2fCbR4SLYKkkxXslqikLN0kTCXSrk22wgd3fP3oKoLUfA0jLMP_bDlPlkY_oGJlSAeajmhuH3wuAnZNp2EqNHxQctByQYex6DQWjjOQ_XexpG8F7Hu2VgzyqujeOwCkuRbyKL6kkdkA1LQF4RNvjfJDNZ49fNPZ_eDV7kQZtabpFy7gvnx8x1coHXQaqj6WuzlgT_iUd2jariQz2SAUBpLwhwvzwk5y5sSZ4FzFQ9yej4f-OrgxuQ8RyIhhAnLaszBSsrqUJK4G-rK8qGkUdfbJH23UPJcuBdz9MDHePdIsYHWzLxkIJjbrDHqbfjDks2wAHucEsLRkw1ThyJt2sKxjNcifG-yr5IuXpDAPhWJMvq5-Mlm00]--></g></svg>