<?xml version="1.0" encoding="us-ascii" standalone="no"?><svg xmlns="http://www.w3.org/2000/svg" xmlns:xlink="http://www.w3.org/1999/xlink" contentStyleType="text/css" height="1001px" preserveAspectRatio="none" style="width:1954px;height:1001px;background:#FFFFFF;" version="1.1" viewBox="0 0 1954 1001" width="1954px" zoomAndPan="magnify"><defs/><g><!--class Brand--><g id="elem_Brand"><rect codeLine="11" fill="#F1F1F1" height="178.3477" id="Brand" rx="2.5" ry="2.5" style="stroke:#181818;stroke-width:0.5;" width="190" x="1203" y="428.5"/><ellipse cx="1274.75" cy="444.5" fill="#ADD1B2" rx="11" ry="11" style="stroke:#181818;stroke-width:1.0;"/><path d="M1277.5156,440.375 Q1277.6719,440.1563 1277.8594,440.0469 Q1278.0469,439.9375 1278.2656,439.9375 Q1278.6406,439.9375 1278.875,440.2031 Q1279.1094,440.4531 1279.1094,441.0625 L1279.1094,442.5156 Q1279.1094,443.125 1278.875,443.3906 Q1278.6406,443.6563 1278.2656,443.6563 Q1277.9219,443.6563 1277.7188,443.4531 Q1277.5156,443.2656 1277.4063,442.75 Q1277.3594,442.3906 1277.1719,442.2031 Q1276.8438,441.8281 1276.2344,441.6094 Q1275.625,441.3906 1275,441.3906 Q1274.2344,441.3906 1273.5938,441.7188 Q1272.9688,442.0469 1272.4688,442.7969 Q1271.9844,443.5469 1271.9844,444.5781 L1271.9844,445.6719 Q1271.9844,446.9063 1272.875,447.7344 Q1273.7656,448.5469 1275.3594,448.5469 Q1276.2969,448.5469 1276.9531,448.2969 Q1277.3438,448.1406 1277.7656,447.7031 Q1278.0313,447.4375 1278.1719,447.3594 Q1278.3281,447.2813 1278.5313,447.2813 Q1278.8594,447.2813 1279.1094,447.5469 Q1279.375,447.7969 1279.375,448.1406 Q1279.375,448.4844 1279.0313,448.8906 Q1278.5313,449.4688 1277.7344,449.7969 Q1276.6563,450.25 1275.3594,450.25 Q1273.8438,450.25 1272.6406,449.625 Q1271.6563,449.125 1270.9688,448.0625 Q1270.2813,446.9844 1270.2813,445.7031 L1270.2813,444.5469 Q1270.2813,443.2188 1270.8906,442.0781 Q1271.5156,440.9219 1272.6094,440.3125 Q1273.7031,439.6875 1274.9375,439.6875 Q1275.6719,439.6875 1276.3125,439.8594 Q1276.9688,440.0156 1277.5156,440.375 Z " fill="#000000"/><text fill="#000000" font-family="sans-serif" font-size="14" lengthAdjust="spacing" textLength="38" x="1295.25" y="450.2969">Brand</text><line style="stroke:#181818;stroke-width:0.5;" x1="1204" x2="1392" y1="460.5" y2="460.5"/><text fill="#000000" font-family="sans-serif" font-size="14" lengthAdjust="spacing" textLength="81" x="1209" y="479.6074">-String name</text><text fill="#000000" font-family="sans-serif" font-size="14" lengthAdjust="spacing" textLength="127" x="1209" y="498.2285">-List &lt;Model&gt; model</text><line style="stroke:#181818;stroke-width:0.5;" x1="1204" x2="1392" y1="505.7422" y2="505.7422"/><text fill="#000000" font-family="sans-serif" font-size="14" lengthAdjust="spacing" textLength="115" x="1209" y="524.8496">-addModel(model)</text><text fill="#000000" font-family="sans-serif" font-size="14" lengthAdjust="spacing" textLength="139" x="1209" y="543.4707">-validateBrand(brand)</text><text fill="#000000" font-family="sans-serif" font-size="14" lengthAdjust="spacing" textLength="140" x="1209" y="562.0918">-validateModel(model)</text><text fill="#000000" font-family="sans-serif" font-size="14" lengthAdjust="spacing" textLength="91" x="1209" y="580.7129">+Brand(name)</text><text fill="#000000" font-family="sans-serif" font-size="14" lengthAdjust="spacing" textLength="178" x="1209" y="599.334">+registerModel(modelName)</text></g><!--class Model--><g id="elem_Model"><rect codeLine="22" fill="#F1F1F1" height="103.8633" id="Model" rx="2.5" ry="2.5" style="stroke:#181818;stroke-width:0.5;" width="152" x="1189" y="806.5"/><ellipse cx="1241.75" cy="822.5" fill="#ADD1B2" rx="11" ry="11" style="stroke:#181818;stroke-width:1.0;"/><path d="M1244.5156,818.375 Q1244.6719,818.1563 1244.8594,818.0469 Q1245.0469,817.9375 1245.2656,817.9375 Q1245.6406,817.9375 1245.875,818.2031 Q1246.1094,818.4531 1246.1094,819.0625 L1246.1094,820.5156 Q1246.1094,821.125 1245.875,821.3906 Q1245.6406,821.6563 1245.2656,821.6563 Q1244.9219,821.6563 1244.7188,821.4531 Q1244.5156,821.2656 1244.4063,820.75 Q1244.3594,820.3906 1244.1719,820.2031 Q1243.8438,819.8281 1243.2344,819.6094 Q1242.625,819.3906 1242,819.3906 Q1241.2344,819.3906 1240.5938,819.7188 Q1239.9688,820.0469 1239.4688,820.7969 Q1238.9844,821.5469 1238.9844,822.5781 L1238.9844,823.6719 Q1238.9844,824.9063 1239.875,825.7344 Q1240.7656,826.5469 1242.3594,826.5469 Q1243.2969,826.5469 1243.9531,826.2969 Q1244.3438,826.1406 1244.7656,825.7031 Q1245.0313,825.4375 1245.1719,825.3594 Q1245.3281,825.2813 1245.5313,825.2813 Q1245.8594,825.2813 1246.1094,825.5469 Q1246.375,825.7969 1246.375,826.1406 Q1246.375,826.4844 1246.0313,826.8906 Q1245.5313,827.4688 1244.7344,827.7969 Q1243.6563,828.25 1242.3594,828.25 Q1240.8438,828.25 1239.6406,827.625 Q1238.6563,827.125 1237.9688,826.0625 Q1237.2813,824.9844 1237.2813,823.7031 L1237.2813,822.5469 Q1237.2813,821.2188 1237.8906,820.0781 Q1238.5156,818.9219 1239.6094,818.3125 Q1240.7031,817.6875 1241.9375,817.6875 Q1242.6719,817.6875 1243.3125,817.8594 Q1243.9688,818.0156 1244.5156,818.375 Z " fill="#000000"/><text fill="#000000" font-family="sans-serif" font-size="14" lengthAdjust="spacing" textLength="38" x="1262.25" y="828.2969">Model</text><line style="stroke:#181818;stroke-width:0.5;" x1="1190" x2="1340" y1="838.5" y2="838.5"/><text fill="#000000" font-family="sans-serif" font-size="14" lengthAdjust="spacing" textLength="81" x="1195" y="857.6074">-String name</text><line style="stroke:#181818;stroke-width:0.5;" x1="1190" x2="1340" y1="865.1211" y2="865.1211"/><text fill="#000000" font-family="sans-serif" font-size="14" lengthAdjust="spacing" textLength="140" x="1195" y="884.2285">-validateModel(model)</text><text fill="#000000" font-family="sans-serif" font-size="14" lengthAdjust="spacing" textLength="91" x="1195" y="902.8496">+Model(name)</text></g><!--class Vehicle--><g id="elem_Vehicle"><rect codeLine="29" fill="#F1F1F1" height="271.4531" id="Vehicle" rx="2.5" ry="2.5" style="stroke:#181818;stroke-width:0.5;" width="755" x="376.5" y="723"/><ellipse cx="726.75" cy="739" fill="#ADD1B2" rx="11" ry="11" style="stroke:#181818;stroke-width:1.0;"/><path d="M729.5156,734.875 Q729.6719,734.6563 729.8594,734.5469 Q730.0469,734.4375 730.2656,734.4375 Q730.6406,734.4375 730.875,734.7031 Q731.1094,734.9531 731.1094,735.5625 L731.1094,737.0156 Q731.1094,737.625 730.875,737.8906 Q730.6406,738.1563 730.2656,738.1563 Q729.9219,738.1563 729.7188,737.9531 Q729.5156,737.7656 729.4063,737.25 Q729.3594,736.8906 729.1719,736.7031 Q728.8438,736.3281 728.2344,736.1094 Q727.625,735.8906 727,735.8906 Q726.2344,735.8906 725.5938,736.2188 Q724.9688,736.5469 724.4688,737.2969 Q723.9844,738.0469 723.9844,739.0781 L723.9844,740.1719 Q723.9844,741.4063 724.875,742.2344 Q725.7656,743.0469 727.3594,743.0469 Q728.2969,743.0469 728.9531,742.7969 Q729.3438,742.6406 729.7656,742.2031 Q730.0313,741.9375 730.1719,741.8594 Q730.3281,741.7813 730.5313,741.7813 Q730.8594,741.7813 731.1094,742.0469 Q731.375,742.2969 731.375,742.6406 Q731.375,742.9844 731.0313,743.3906 Q730.5313,743.9688 729.7344,744.2969 Q728.6563,744.75 727.3594,744.75 Q725.8438,744.75 724.6406,744.125 Q723.6563,743.625 722.9688,742.5625 Q722.2813,741.4844 722.2813,740.2031 L722.2813,739.0469 Q722.2813,737.7188 722.8906,736.5781 Q723.5156,735.4219 724.6094,734.8125 Q725.7031,734.1875 726.9375,734.1875 Q727.6719,734.1875 728.3125,734.3594 Q728.9688,734.5156 729.5156,734.875 Z " fill="#000000"/><text fill="#000000" font-family="sans-serif" font-size="14" lengthAdjust="spacing" textLength="46" x="747.25" y="744.7969">Vehicle</text><line style="stroke:#181818;stroke-width:0.5;" x1="377.5" x2="1130.5" y1="755" y2="755"/><text fill="#000000" font-family="sans-serif" font-size="14" lengthAdjust="spacing" textLength="84" x="382.5" y="774.1074">-Brand brand</text><text fill="#000000" font-family="sans-serif" font-size="14" lengthAdjust="spacing" textLength="85" x="382.5" y="792.7285">-Model model</text><text fill="#000000" font-family="sans-serif" font-size="14" lengthAdjust="spacing" textLength="73" x="382.5" y="811.3496">-String type</text><text fill="#000000" font-family="sans-serif" font-size="14" lengthAdjust="spacing" textLength="61" x="382.5" y="829.9707">-float tare</text><text fill="#000000" font-family="sans-serif" font-size="14" lengthAdjust="spacing" textLength="115" x="382.5" y="848.5918">-float grossWeight</text><text fill="#000000" font-family="sans-serif" font-size="14" lengthAdjust="spacing" textLength="89" x="382.5" y="867.2129">-int currentKm</text><text fill="#000000" font-family="sans-serif" font-size="14" lengthAdjust="spacing" textLength="117" x="382.5" y="885.834">-Date registerDate</text><text fill="#000000" font-family="sans-serif" font-size="14" lengthAdjust="spacing" textLength="136" x="382.5" y="904.4551">-Date acquisitionDate</text><text fill="#000000" font-family="sans-serif" font-size="14" lengthAdjust="spacing" textLength="145" x="382.5" y="923.0762">-int checkupFrequency</text><text fill="#000000" font-family="sans-serif" font-size="14" lengthAdjust="spacing" textLength="122" x="382.5" y="941.6973">-String licensePlate</text><line style="stroke:#181818;stroke-width:0.5;" x1="377.5" x2="1130.5" y1="949.2109" y2="949.2109"/><text fill="#000000" font-family="sans-serif" font-size="14" lengthAdjust="spacing" textLength="154" x="382.5" y="968.3184">-validateVehicle(vehicle)</text><text fill="#000000" font-family="sans-serif" font-size="14" lengthAdjust="spacing" textLength="743" x="382.5" y="986.9395">+Vehicle(brand,model,type,tare,grossWeight,currentKm,registerDate,acquisitionDate,checkupFrequency,licensePlate)</text></g><!--class RegisterVehicleController--><g id="elem_RegisterVehicleController"><rect codeLine="45" fill="#F1F1F1" height="122.4844" id="RegisterVehicleController" rx="2.5" ry="2.5" style="stroke:#181818;stroke-width:0.5;" width="875" x="678.5" y="7"/><ellipse cx="1031.25" cy="23" fill="#ADD1B2" rx="11" ry="11" style="stroke:#181818;stroke-width:1.0;"/><path d="M1034.0156,18.875 Q1034.1719,18.6563 1034.3594,18.5469 Q1034.5469,18.4375 1034.7656,18.4375 Q1035.1406,18.4375 1035.375,18.7031 Q1035.6094,18.9531 1035.6094,19.5625 L1035.6094,21.0156 Q1035.6094,21.625 1035.375,21.8906 Q1035.1406,22.1563 1034.7656,22.1563 Q1034.4219,22.1563 1034.2188,21.9531 Q1034.0156,21.7656 1033.9063,21.25 Q1033.8594,20.8906 1033.6719,20.7031 Q1033.3438,20.3281 1032.7344,20.1094 Q1032.125,19.8906 1031.5,19.8906 Q1030.7344,19.8906 1030.0938,20.2188 Q1029.4688,20.5469 1028.9688,21.2969 Q1028.4844,22.0469 1028.4844,23.0781 L1028.4844,24.1719 Q1028.4844,25.4063 1029.375,26.2344 Q1030.2656,27.0469 1031.8594,27.0469 Q1032.7969,27.0469 1033.4531,26.7969 Q1033.8438,26.6406 1034.2656,26.2031 Q1034.5313,25.9375 1034.6719,25.8594 Q1034.8281,25.7813 1035.0313,25.7813 Q1035.3594,25.7813 1035.6094,26.0469 Q1035.875,26.2969 1035.875,26.6406 Q1035.875,26.9844 1035.5313,27.3906 Q1035.0313,27.9688 1034.2344,28.2969 Q1033.1563,28.75 1031.8594,28.75 Q1030.3438,28.75 1029.1406,28.125 Q1028.1563,27.625 1027.4688,26.5625 Q1026.7813,25.4844 1026.7813,24.2031 L1026.7813,23.0469 Q1026.7813,21.7188 1027.3906,20.5781 Q1028.0156,19.4219 1029.1094,18.8125 Q1030.2031,18.1875 1031.4375,18.1875 Q1032.1719,18.1875 1032.8125,18.3594 Q1033.4688,18.5156 1034.0156,18.875 Z " fill="#000000"/><text fill="#000000" font-family="sans-serif" font-size="14" lengthAdjust="spacing" textLength="161" x="1051.75" y="28.7969">RegisterVehicleController</text><line style="stroke:#181818;stroke-width:0.5;" x1="679.5" x2="1552.5" y1="39" y2="39"/><line style="stroke:#181818;stroke-width:0.5;" x1="679.5" x2="1552.5" y1="47" y2="47"/><text fill="#000000" font-family="sans-serif" font-size="14" lengthAdjust="spacing" textLength="166" x="684.5" y="66.1074">-createBrand(brandName)</text><text fill="#000000" font-family="sans-serif" font-size="14" lengthAdjust="spacing" textLength="167" x="684.5" y="84.7285">-createModel(modelName)</text><text fill="#000000" font-family="sans-serif" font-size="14" lengthAdjust="spacing" textLength="179" x="684.5" y="103.3496">+RegisterVehicleController()</text><text fill="#000000" font-family="sans-serif" font-size="14" lengthAdjust="spacing" textLength="863" x="684.5" y="121.9707">+registerVehicle(brandName,modelName,type,tare,grossWeight,currentKm,registerDate,acquisitionDate,checkupFrequency,licensePlate)</text></g><!--class RegisterVehicleUI--><g id="elem_RegisterVehicleUI"><rect codeLine="53" fill="#F1F1F1" height="48" id="RegisterVehicleUI" rx="2.5" ry="2.5" style="stroke:#181818;stroke-width:0.5;" width="143" x="500.5" y="44"/><ellipse cx="515.5" cy="60" fill="#ADD1B2" rx="11" ry="11" style="stroke:#181818;stroke-width:1.0;"/><path d="M518.2656,55.875 Q518.4219,55.6563 518.6094,55.5469 Q518.7969,55.4375 519.0156,55.4375 Q519.3906,55.4375 519.625,55.7031 Q519.8594,55.9531 519.8594,56.5625 L519.8594,58.0156 Q519.8594,58.625 519.625,58.8906 Q519.3906,59.1563 519.0156,59.1563 Q518.6719,59.1563 518.4688,58.9531 Q518.2656,58.7656 518.1563,58.25 Q518.1094,57.8906 517.9219,57.7031 Q517.5938,57.3281 516.9844,57.1094 Q516.375,56.8906 515.75,56.8906 Q514.9844,56.8906 514.3438,57.2188 Q513.7188,57.5469 513.2188,58.2969 Q512.7344,59.0469 512.7344,60.0781 L512.7344,61.1719 Q512.7344,62.4063 513.625,63.2344 Q514.5156,64.0469 516.1094,64.0469 Q517.0469,64.0469 517.7031,63.7969 Q518.0938,63.6406 518.5156,63.2031 Q518.7813,62.9375 518.9219,62.8594 Q519.0781,62.7813 519.2813,62.7813 Q519.6094,62.7813 519.8594,63.0469 Q520.125,63.2969 520.125,63.6406 Q520.125,63.9844 519.7813,64.3906 Q519.2813,64.9688 518.4844,65.2969 Q517.4063,65.75 516.1094,65.75 Q514.5938,65.75 513.3906,65.125 Q512.4063,64.625 511.7188,63.5625 Q511.0313,62.4844 511.0313,61.2031 L511.0313,60.0469 Q511.0313,58.7188 511.6406,57.5781 Q512.2656,56.4219 513.3594,55.8125 Q514.4531,55.1875 515.6875,55.1875 Q516.4219,55.1875 517.0625,55.3594 Q517.7188,55.5156 518.2656,55.875 Z " fill="#000000"/><text fill="#000000" font-family="sans-serif" font-size="14" lengthAdjust="spacing" textLength="111" x="529.5" y="65.7969">RegisterVehicleUI</text><line style="stroke:#181818;stroke-width:0.5;" x1="501.5" x2="642.5" y1="76" y2="76"/><line style="stroke:#181818;stroke-width:0.5;" x1="501.5" x2="642.5" y1="84" y2="84"/></g><!--class Collaborator--><g id="elem_Collaborator"><rect codeLine="56" fill="#F1F1F1" height="252.832" id="Collaborator" rx="2.5" ry="2.5" style="stroke:#181818;stroke-width:0.5;" width="628" x="7" y="391"/><ellipse cx="277.75" cy="407" fill="#ADD1B2" rx="11" ry="11" style="stroke:#181818;stroke-width:1.0;"/><path d="M280.5156,402.875 Q280.6719,402.6563 280.8594,402.5469 Q281.0469,402.4375 281.2656,402.4375 Q281.6406,402.4375 281.875,402.7031 Q282.1094,402.9531 282.1094,403.5625 L282.1094,405.0156 Q282.1094,405.625 281.875,405.8906 Q281.6406,406.1563 281.2656,406.1563 Q280.9219,406.1563 280.7188,405.9531 Q280.5156,405.7656 280.4063,405.25 Q280.3594,404.8906 280.1719,404.7031 Q279.8438,404.3281 279.2344,404.1094 Q278.625,403.8906 278,403.8906 Q277.2344,403.8906 276.5938,404.2188 Q275.9688,404.5469 275.4688,405.2969 Q274.9844,406.0469 274.9844,407.0781 L274.9844,408.1719 Q274.9844,409.4063 275.875,410.2344 Q276.7656,411.0469 278.3594,411.0469 Q279.2969,411.0469 279.9531,410.7969 Q280.3438,410.6406 280.7656,410.2031 Q281.0313,409.9375 281.1719,409.8594 Q281.3281,409.7813 281.5313,409.7813 Q281.8594,409.7813 282.1094,410.0469 Q282.375,410.2969 282.375,410.6406 Q282.375,410.9844 282.0313,411.3906 Q281.5313,411.9688 280.7344,412.2969 Q279.6563,412.75 278.3594,412.75 Q276.8438,412.75 275.6406,412.125 Q274.6563,411.625 273.9688,410.5625 Q273.2813,409.4844 273.2813,408.2031 L273.2813,407.0469 Q273.2813,405.7188 273.8906,404.5781 Q274.5156,403.4219 275.6094,402.8125 Q276.7031,402.1875 277.9375,402.1875 Q278.6719,402.1875 279.3125,402.3594 Q279.9688,402.5156 280.5156,402.875 Z " fill="#000000"/><text fill="#000000" font-family="sans-serif" font-size="14" lengthAdjust="spacing" textLength="78" x="298.25" y="412.7969">Collaborator</text><line style="stroke:#181818;stroke-width:0.5;" x1="8" x2="634" y1="423" y2="423"/><text fill="#000000" font-family="sans-serif" font-size="14" lengthAdjust="spacing" textLength="81" x="13" y="442.1074">-String name</text><text fill="#000000" font-family="sans-serif" font-size="14" lengthAdjust="spacing" textLength="99" x="13" y="460.7285">-List &lt;Skill&gt; skill</text><text fill="#000000" font-family="sans-serif" font-size="14" lengthAdjust="spacing" textLength="50" x="13" y="479.3496">-Job job</text><text fill="#000000" font-family="sans-serif" font-size="14" lengthAdjust="spacing" textLength="111" x="13" y="497.9707">-Date dateOfBirth</text><text fill="#000000" font-family="sans-serif" font-size="14" lengthAdjust="spacing" textLength="132" x="13" y="516.5918">-Date admissionDate</text><text fill="#000000" font-family="sans-serif" font-size="14" lengthAdjust="spacing" textLength="112" x="13" y="535.2129">-Address address</text><text fill="#000000" font-family="sans-serif" font-size="14" lengthAdjust="spacing" textLength="113" x="13" y="553.834">-int phoneNumber</text><text fill="#000000" font-family="sans-serif" font-size="14" lengthAdjust="spacing" textLength="79" x="13" y="572.4551">-String email</text><text fill="#000000" font-family="sans-serif" font-size="14" lengthAdjust="spacing" textLength="38" x="13" y="591.0762">-int cc</text><text fill="#000000" font-family="sans-serif" font-size="14" lengthAdjust="spacing" textLength="101" x="13" y="609.6973">-int cardNumber</text><line style="stroke:#181818;stroke-width:0.5;" x1="8" x2="634" y1="617.2109" y2="617.2109"/><text fill="#000000" font-family="sans-serif" font-size="14" lengthAdjust="spacing" textLength="616" x="13" y="636.3184">+Collaborator(name, dateOfBirth, admissionDate, address, phoneNumber, email, cc, cardNumber)</text></g><!--class VehicleFleetManager--><g id="elem_VehicleFleetManager"><rect codeLine="71" fill="#F1F1F1" height="48" id="VehicleFleetManager" rx="2.5" ry="2.5" style="stroke:#181818;stroke-width:0.5;" width="166" x="115" y="834.5"/><ellipse cx="130" cy="850.5" fill="#ADD1B2" rx="11" ry="11" style="stroke:#181818;stroke-width:1.0;"/><path d="M132.7656,846.375 Q132.9219,846.1563 133.1094,846.0469 Q133.2969,845.9375 133.5156,845.9375 Q133.8906,845.9375 134.125,846.2031 Q134.3594,846.4531 134.3594,847.0625 L134.3594,848.5156 Q134.3594,849.125 134.125,849.3906 Q133.8906,849.6563 133.5156,849.6563 Q133.1719,849.6563 132.9688,849.4531 Q132.7656,849.2656 132.6563,848.75 Q132.6094,848.3906 132.4219,848.2031 Q132.0938,847.8281 131.4844,847.6094 Q130.875,847.3906 130.25,847.3906 Q129.4844,847.3906 128.8438,847.7188 Q128.2188,848.0469 127.7188,848.7969 Q127.2344,849.5469 127.2344,850.5781 L127.2344,851.6719 Q127.2344,852.9063 128.125,853.7344 Q129.0156,854.5469 130.6094,854.5469 Q131.5469,854.5469 132.2031,854.2969 Q132.5938,854.1406 133.0156,853.7031 Q133.2813,853.4375 133.4219,853.3594 Q133.5781,853.2813 133.7813,853.2813 Q134.1094,853.2813 134.3594,853.5469 Q134.625,853.7969 134.625,854.1406 Q134.625,854.4844 134.2813,854.8906 Q133.7813,855.4688 132.9844,855.7969 Q131.9063,856.25 130.6094,856.25 Q129.0938,856.25 127.8906,855.625 Q126.9063,855.125 126.2188,854.0625 Q125.5313,852.9844 125.5313,851.7031 L125.5313,850.5469 Q125.5313,849.2188 126.1406,848.0781 Q126.7656,846.9219 127.8594,846.3125 Q128.9531,845.6875 130.1875,845.6875 Q130.9219,845.6875 131.5625,845.8594 Q132.2188,846.0156 132.7656,846.375 Z " fill="#000000"/><text fill="#000000" font-family="sans-serif" font-size="14" lengthAdjust="spacing" textLength="134" x="144" y="856.2969">VehicleFleetManager</text><line style="stroke:#181818;stroke-width:0.5;" x1="116" x2="280" y1="866.5" y2="866.5"/><line style="stroke:#181818;stroke-width:0.5;" x1="116" x2="280" y1="874.5" y2="874.5"/></g><!--class Repositories--><g id="elem_Repositories"><rect codeLine="74" fill="#F1F1F1" height="122.4844" id="Repositories" rx="2.5" ry="2.5" style="stroke:#181818;stroke-width:0.5;" width="194" x="1657" y="7"/><ellipse cx="1710.25" cy="23" fill="#ADD1B2" rx="11" ry="11" style="stroke:#181818;stroke-width:1.0;"/><path d="M1713.0156,18.875 Q1713.1719,18.6563 1713.3594,18.5469 Q1713.5469,18.4375 1713.7656,18.4375 Q1714.1406,18.4375 1714.375,18.7031 Q1714.6094,18.9531 1714.6094,19.5625 L1714.6094,21.0156 Q1714.6094,21.625 1714.375,21.8906 Q1714.1406,22.1563 1713.7656,22.1563 Q1713.4219,22.1563 1713.2188,21.9531 Q1713.0156,21.7656 1712.9063,21.25 Q1712.8594,20.8906 1712.6719,20.7031 Q1712.3438,20.3281 1711.7344,20.1094 Q1711.125,19.8906 1710.5,19.8906 Q1709.7344,19.8906 1709.0938,20.2188 Q1708.4688,20.5469 1707.9688,21.2969 Q1707.4844,22.0469 1707.4844,23.0781 L1707.4844,24.1719 Q1707.4844,25.4063 1708.375,26.2344 Q1709.2656,27.0469 1710.8594,27.0469 Q1711.7969,27.0469 1712.4531,26.7969 Q1712.8438,26.6406 1713.2656,26.2031 Q1713.5313,25.9375 1713.6719,25.8594 Q1713.8281,25.7813 1714.0313,25.7813 Q1714.3594,25.7813 1714.6094,26.0469 Q1714.875,26.2969 1714.875,26.6406 Q1714.875,26.9844 1714.5313,27.3906 Q1714.0313,27.9688 1713.2344,28.2969 Q1712.1563,28.75 1710.8594,28.75 Q1709.3438,28.75 1708.1406,28.125 Q1707.1563,27.625 1706.4688,26.5625 Q1705.7813,25.4844 1705.7813,24.2031 L1705.7813,23.0469 Q1705.7813,21.7188 1706.3906,20.5781 Q1707.0156,19.4219 1708.1094,18.8125 Q1709.2031,18.1875 1710.4375,18.1875 Q1711.1719,18.1875 1711.8125,18.3594 Q1712.4688,18.5156 1713.0156,18.875 Z " fill="#000000"/><text fill="#000000" font-family="sans-serif" font-size="14" lengthAdjust="spacing" textLength="79" x="1730.75" y="28.7969">Repositories</text><line style="stroke:#181818;stroke-width:0.5;" x1="1658" x2="1850" y1="39" y2="39"/><line style="stroke:#181818;stroke-width:0.5;" x1="1658" x2="1850" y1="47" y2="47"/><text fill="#000000" font-family="sans-serif" font-size="14" lengthAdjust="spacing" textLength="94" x="1663" y="66.1074">-Repositories()</text><text fill="#000000" font-family="sans-serif" font-size="14" lengthAdjust="spacing" textLength="182" x="1663" y="84.7285">+getInstance() : Repositories</text><text fill="#000000" font-family="sans-serif" font-size="14" lengthAdjust="spacing" textLength="152" x="1663" y="103.3496">+getVehicleRepository()</text><text fill="#000000" font-family="sans-serif" font-size="14" lengthAdjust="spacing" textLength="144" x="1663" y="121.9707">+getBrandRepository()</text></g><!--class VehicleRepository--><g id="elem_VehicleRepository"><rect codeLine="82" fill="#F1F1F1" height="122.4844" id="VehicleRepository" rx="2.5" ry="2.5" style="stroke:#181818;stroke-width:0.5;" width="803" x="293.5" y="208"/><ellipse cx="633.75" cy="224" fill="#ADD1B2" rx="11" ry="11" style="stroke:#181818;stroke-width:1.0;"/><path d="M636.5156,219.875 Q636.6719,219.6563 636.8594,219.5469 Q637.0469,219.4375 637.2656,219.4375 Q637.6406,219.4375 637.875,219.7031 Q638.1094,219.9531 638.1094,220.5625 L638.1094,222.0156 Q638.1094,222.625 637.875,222.8906 Q637.6406,223.1563 637.2656,223.1563 Q636.9219,223.1563 636.7188,222.9531 Q636.5156,222.7656 636.4063,222.25 Q636.3594,221.8906 636.1719,221.7031 Q635.8438,221.3281 635.2344,221.1094 Q634.625,220.8906 634,220.8906 Q633.2344,220.8906 632.5938,221.2188 Q631.9688,221.5469 631.4688,222.2969 Q630.9844,223.0469 630.9844,224.0781 L630.9844,225.1719 Q630.9844,226.4063 631.875,227.2344 Q632.7656,228.0469 634.3594,228.0469 Q635.2969,228.0469 635.9531,227.7969 Q636.3438,227.6406 636.7656,227.2031 Q637.0313,226.9375 637.1719,226.8594 Q637.3281,226.7813 637.5313,226.7813 Q637.8594,226.7813 638.1094,227.0469 Q638.375,227.2969 638.375,227.6406 Q638.375,227.9844 638.0313,228.3906 Q637.5313,228.9688 636.7344,229.2969 Q635.6563,229.75 634.3594,229.75 Q632.8438,229.75 631.6406,229.125 Q630.6563,228.625 629.9688,227.5625 Q629.2813,226.4844 629.2813,225.2031 L629.2813,224.0469 Q629.2813,222.7188 629.8906,221.5781 Q630.5156,220.4219 631.6094,219.8125 Q632.7031,219.1875 633.9375,219.1875 Q634.6719,219.1875 635.3125,219.3594 Q635.9688,219.5156 636.5156,219.875 Z " fill="#000000"/><text fill="#000000" font-family="sans-serif" font-size="14" lengthAdjust="spacing" textLength="114" x="654.25" y="229.7969">VehicleRepository</text><line style="stroke:#181818;stroke-width:0.5;" x1="294.5" x2="1095.5" y1="240" y2="240"/><text fill="#000000" font-family="sans-serif" font-size="14" lengthAdjust="spacing" textLength="137" x="299.5" y="259.1074">-List&lt;Vehicle&gt; vehicle</text><line style="stroke:#181818;stroke-width:0.5;" x1="294.5" x2="1095.5" y1="266.6211" y2="266.6211"/><text fill="#000000" font-family="sans-serif" font-size="14" lengthAdjust="spacing" textLength="129" x="299.5" y="285.7285">-addVehicle(vehicle)</text><text fill="#000000" font-family="sans-serif" font-size="14" lengthAdjust="spacing" textLength="154" x="299.5" y="304.3496">-validateVehicle(vehicle)</text><text fill="#000000" font-family="sans-serif" font-size="14" lengthAdjust="spacing" textLength="791" x="299.5" y="322.9707">+registerVehicle(brand,model,type,tare,grossWeight,currentKm,registerDate,acquisitionDate,checkupFrequency,licensePlate)</text></g><!--class BrandRepository--><g id="elem_BrandRepository"><rect codeLine="90" fill="#F1F1F1" height="122.4844" id="BrandRepository" rx="2.5" ry="2.5" style="stroke:#181818;stroke-width:0.5;" width="189" x="1274.5" y="208"/><ellipse cx="1312.45" cy="224" fill="#ADD1B2" rx="11" ry="11" style="stroke:#181818;stroke-width:1.0;"/><path d="M1315.2156,219.875 Q1315.3719,219.6563 1315.5594,219.5469 Q1315.7469,219.4375 1315.9656,219.4375 Q1316.3406,219.4375 1316.575,219.7031 Q1316.8094,219.9531 1316.8094,220.5625 L1316.8094,222.0156 Q1316.8094,222.625 1316.575,222.8906 Q1316.3406,223.1563 1315.9656,223.1563 Q1315.6219,223.1563 1315.4188,222.9531 Q1315.2156,222.7656 1315.1063,222.25 Q1315.0594,221.8906 1314.8719,221.7031 Q1314.5438,221.3281 1313.9344,221.1094 Q1313.325,220.8906 1312.7,220.8906 Q1311.9344,220.8906 1311.2938,221.2188 Q1310.6688,221.5469 1310.1688,222.2969 Q1309.6844,223.0469 1309.6844,224.0781 L1309.6844,225.1719 Q1309.6844,226.4063 1310.575,227.2344 Q1311.4656,228.0469 1313.0594,228.0469 Q1313.9969,228.0469 1314.6531,227.7969 Q1315.0438,227.6406 1315.4656,227.2031 Q1315.7313,226.9375 1315.8719,226.8594 Q1316.0281,226.7813 1316.2313,226.7813 Q1316.5594,226.7813 1316.8094,227.0469 Q1317.075,227.2969 1317.075,227.6406 Q1317.075,227.9844 1316.7313,228.3906 Q1316.2313,228.9688 1315.4344,229.2969 Q1314.3563,229.75 1313.0594,229.75 Q1311.5438,229.75 1310.3406,229.125 Q1309.3563,228.625 1308.6688,227.5625 Q1307.9813,226.4844 1307.9813,225.2031 L1307.9813,224.0469 Q1307.9813,222.7188 1308.5906,221.5781 Q1309.2156,220.4219 1310.3094,219.8125 Q1311.4031,219.1875 1312.6375,219.1875 Q1313.3719,219.1875 1314.0125,219.3594 Q1314.6688,219.5156 1315.2156,219.875 Z " fill="#000000"/><text fill="#000000" font-family="sans-serif" font-size="14" lengthAdjust="spacing" textLength="106" x="1331.55" y="229.7969">BrandRepository</text><line style="stroke:#181818;stroke-width:0.5;" x1="1275.5" x2="1462.5" y1="240" y2="240"/><text fill="#000000" font-family="sans-serif" font-size="14" lengthAdjust="spacing" textLength="122" x="1280.5" y="259.1074">-List&lt;Brand&gt; brand</text><line style="stroke:#181818;stroke-width:0.5;" x1="1275.5" x2="1462.5" y1="266.6211" y2="266.6211"/><text fill="#000000" font-family="sans-serif" font-size="14" lengthAdjust="spacing" textLength="114" x="1280.5" y="285.7285">-addBrand(brand)</text><text fill="#000000" font-family="sans-serif" font-size="14" lengthAdjust="spacing" textLength="139" x="1280.5" y="304.3496">-validateBrand(brand)</text><text fill="#000000" font-family="sans-serif" font-size="14" lengthAdjust="spacing" textLength="177" x="1280.5" y="322.9707">+registerBrand(brandName)</text></g><!--link RegisterVehicleController to Repositories--><g id="link_RegisterVehicleController_Repositories"><path codeLine="98" d="M1553.88,68 C1591.72,68 1620.95,68 1650.98,68 " fill="none" id="RegisterVehicleController-to-Repositories" style="stroke:#181818;stroke-width:1.0;stroke-dasharray:7.0,7.0;"/><polygon fill="#181818" points="1656.98,68,1647.98,64,1651.98,68,1647.98,72,1656.98,68" style="stroke:#181818;stroke-width:1.0;"/><text fill="#000000" font-family="sans-serif" font-size="13" lengthAdjust="spacing" textLength="67" x="1571.75" y="61.0283">repositories</text></g><!--link RegisterVehicleController to VehicleRepository--><g id="link_RegisterVehicleController_VehicleRepository"><path codeLine="99" d="M988.83,129.11 C936.06,154.05 880.3847,180.3762 827.6147,205.3162 " fill="none" id="RegisterVehicleController-to-VehicleRepository" style="stroke:#181818;stroke-width:1.0;stroke-dasharray:7.0,7.0;"/><polygon fill="#181818" points="822.19,207.88,832.0362,207.6508,826.7106,205.7435,828.6178,200.4179,822.19,207.88" style="stroke:#181818;stroke-width:1.0;"/><text fill="#000000" font-family="sans-serif" font-size="13" lengthAdjust="spacing" textLength="7" x="829.4917" y="196.8473">1</text></g><!--link RegisterVehicleController to BrandRepository--><g id="link_RegisterVehicleController_BrandRepository"><path codeLine="100" d="M1203.38,129.03 C1227.41,145.54 1247,159 1247,159 C1247,159 1268.8854,178.5527 1297.1054,203.7627 " fill="none" id="RegisterVehicleController-to-BrandRepository" style="stroke:#181818;stroke-width:1.0;stroke-dasharray:7.0,7.0;"/><polygon fill="#181818" points="1301.58,207.76,1297.533,198.781,1297.8512,204.4289,1292.2033,204.7471,1301.58,207.76" style="stroke:#181818;stroke-width:1.0;"/><text fill="#000000" font-family="sans-serif" font-size="13" lengthAdjust="spacing" textLength="7" x="1286.3799" y="196.7135">1</text></g><!--link RegisterVehicleController to Brand--><g id="link_RegisterVehicleController_Brand"><path codeLine="101" d="M1156.02,129.03 C1167.03,145.54 1176,159 1176,159 C1176,159 1229.7721,316.5816 1265.9021,422.4516 " fill="none" id="RegisterVehicleController-to-Brand" style="stroke:#181818;stroke-width:1.0;stroke-dasharray:7.0,7.0;"/><polygon fill="#181818" points="1267.84,428.13,1268.7188,418.3204,1266.2251,423.398,1261.1476,420.9043,1267.84,428.13" style="stroke:#181818;stroke-width:1.0;"/><text fill="#000000" font-family="sans-serif" font-size="13" lengthAdjust="spacing" textLength="7" x="1258.1577" y="417.357">1</text></g><!--link RegisterVehicleController to Model--><g id="link_RegisterVehicleController_Model"><path codeLine="102" d="M1121.39,129.11 C1135.43,285.51 1172,693 1172,693 C1172,693 1205.8272,752.8369 1233.1272,801.1269 " fill="none" id="RegisterVehicleController-to-Model" style="stroke:#181818;stroke-width:1.0;stroke-dasharray:7.0,7.0;"/><polygon fill="#181818" points="1236.08,806.35,1235.1329,796.5468,1233.6193,801.9974,1228.1687,800.4839,1236.08,806.35" style="stroke:#181818;stroke-width:1.0;"/><text fill="#000000" font-family="sans-serif" font-size="13" lengthAdjust="spacing" textLength="7" x="1224.7236" y="795.2572">1</text></g><!--link RegisterVehicleUI to RegisterVehicleController--><g id="link_RegisterVehicleUI_RegisterVehicleController"><path codeLine="104" d="M643.67,68 C655.05,68 660.86,68 672.31,68 " fill="none" id="RegisterVehicleUI-to-RegisterVehicleController" style="stroke:#181818;stroke-width:1.0;stroke-dasharray:7.0,7.0;"/><polygon fill="#181818" points="678.31,68,669.31,64,673.31,68,669.31,72,678.31,68" style="stroke:#181818;stroke-width:1.0;"/></g><!--link Repositories to Repositories--><g id="link_Repositories_Repositories"><path codeLine="106" d="M1851.28,49.91 C1871.48,51.81 1886,57.84 1886,68 C1886,78.16 1877.4536,83.6281 1857.2536,85.5281 " fill="none" id="Repositories-to-Repositories" style="stroke:#181818;stroke-width:1.0;"/><polygon fill="#181818" points="1851.28,86.09,1860.615,89.2296,1856.258,85.6218,1859.8659,81.2648,1851.28,86.09" style="stroke:#181818;stroke-width:1.0;"/><text fill="#000000" font-family="sans-serif" font-size="13" lengthAdjust="spacing" textLength="49" x="1892" y="73.5283">instance</text></g><!--link Repositories to VehicleRepository--><g id="link_Repositories_VehicleRepository"><path codeLine="107" d="M1656.87,100.84 C1613.07,115.21 1571,129 1571,129 C1571,129 1316.1059,169.4499 1079.1059,207.0499 " fill="none" id="Repositories-to-VehicleRepository" style="stroke:#181818;stroke-width:1.0;"/><polygon fill="#181818" points="1073.18,207.99,1082.6956,210.5304,1078.1182,207.2065,1081.4421,202.6292,1073.18,207.99" style="stroke:#181818;stroke-width:1.0;"/><text fill="#000000" font-family="sans-serif" font-size="13" lengthAdjust="spacing" textLength="101" x="1382" y="174.0283">vehicleRepository</text><text fill="#000000" font-family="sans-serif" font-size="13" lengthAdjust="spacing" textLength="7" x="1104.8189" y="197.8401">1</text></g><!--link Repositories to BrandRepository--><g id="link_Repositories_BrandRepository"><path codeLine="108" d="M1679.95,129.24 C1648.95,154.45 1620,178 1620,178 C1620,178 1540.338,206.5652 1469.178,232.0752 " fill="none" id="Repositories-to-BrandRepository" style="stroke:#181818;stroke-width:1.0;"/><polygon fill="#181818" points="1463.53,234.1,1473.3519,234.8282,1468.2367,232.4127,1470.6522,227.2975,1463.53,234.1" style="stroke:#181818;stroke-width:1.0;"/><text fill="#000000" font-family="sans-serif" font-size="13" lengthAdjust="spacing" textLength="94" x="1643" y="174.0283">brandRepository</text><text fill="#000000" font-family="sans-serif" font-size="13" lengthAdjust="spacing" textLength="7" x="1471.6481" y="227.5263">1</text></g><!--link VehicleRepository to Vehicle--><g id="link_VehicleRepository_Vehicle"><path codeLine="110" d="M701.04,330.11 C710.25,421.87 727.4605,593.24 739.8705,716.82 " fill="none" id="VehicleRepository-to-Vehicle" style="stroke:#181818;stroke-width:1.0;"/><polygon fill="#181818" points="740.47,722.79,743.5507,713.4354,739.9704,717.815,735.5908,714.2347,740.47,722.79" style="stroke:#181818;stroke-width:1.0;"/><text fill="#000000" font-family="sans-serif" font-size="13" lengthAdjust="spacing" textLength="5" x="734.5934" y="711.9274">*</text></g><!--link BrandRepository to Brand--><g id="link_BrandRepository_Brand"><path codeLine="112" d="M1351.63,330.3 C1343.13,359.8 1334.4012,390.1246 1325.0312,422.6446 " fill="none" id="BrandRepository-to-Brand" style="stroke:#181818;stroke-width:1.0;"/><polygon fill="#181818" points="1323.37,428.41,1329.7054,420.8693,1324.7543,423.6055,1322.0182,418.6544,1323.37,428.41" style="stroke:#181818;stroke-width:1.0;"/><text fill="#000000" font-family="sans-serif" font-size="13" lengthAdjust="spacing" textLength="5" x="1320.2639" y="417.3543">*</text></g><!--reverse link Collaborator to VehicleFleetManager--><g id="link_Collaborator_VehicleFleetManager"><path codeLine="114" d="M269.2306,661.1706 C243.7306,731.4506 220.46,795.59 206.37,834.42 " fill="none" id="Collaborator-backto-VehicleFleetManager" style="stroke:#181818;stroke-width:1.0;"/><polygon fill="none" points="275.37,644.25,263.5904,659.1242,274.8708,663.2171,275.37,644.25" style="stroke:#181818;stroke-width:1.0;"/></g><!--link Collaborator to Vehicle--><g id="link_Collaborator_Vehicle"><path codeLine="115" d="M481.31,644.01 C514.18,669.74 544.175,693.2321 577.435,719.2621 " fill="none" id="Collaborator-to-Vehicle" style="stroke:#181818;stroke-width:1.0;"/><polygon fill="#181818" points="582.16,722.96,577.5378,714.2632,578.2225,719.8784,572.6072,720.5632,582.16,722.96" style="stroke:#181818;stroke-width:1.0;"/><text fill="#000000" font-family="sans-serif" font-size="13" lengthAdjust="spacing" textLength="33" x="539" y="689.0283">drives</text><text fill="#000000" font-family="sans-serif" font-size="13" lengthAdjust="spacing" textLength="5" x="485.4334" y="665.8569">*</text><text fill="#000000" font-family="sans-serif" font-size="13" lengthAdjust="spacing" textLength="5" x="567.081" y="711.6563">*</text></g><!--reverse link VehicleFleetManager to Vehicle--><g id="link_VehicleFleetManager_Vehicle"><path codeLine="117" d="M287.24,858.5 C314.73,858.5 341.33,858.5 376.36,858.5 " fill="none" id="VehicleFleetManager-backto-Vehicle" style="stroke:#181818;stroke-width:1.0;"/><polygon fill="#181818" points="281.24,858.5,290.24,862.5,286.24,858.5,290.24,854.5,281.24,858.5" style="stroke:#181818;stroke-width:1.0;"/><text fill="#000000" font-family="sans-serif" font-size="13" lengthAdjust="spacing" textLength="59" x="299.25" y="851.5283">createdBy</text></g><!--link Brand to Model--><g id="link_Brand_Model"><path codeLine="119" d="M1289.42,606.68 C1283.25,670.05 1275.7212,747.3182 1270.5812,800.1282 " fill="none" id="Brand-to-Model" style="stroke:#181818;stroke-width:1.0;"/><polygon fill="#181818" points="1270,806.1,1274.853,797.5298,1270.4844,801.1235,1266.8907,796.7548,1270,806.1" style="stroke:#181818;stroke-width:1.0;"/><text fill="#000000" font-family="sans-serif" font-size="13" lengthAdjust="spacing" textLength="42" x="1283" y="689.0283">models</text><text fill="#000000" font-family="sans-serif" font-size="13" lengthAdjust="spacing" textLength="7" x="1281.4196" y="628.7951">1</text><text fill="#000000" font-family="sans-serif" font-size="13" lengthAdjust="spacing" textLength="20" x="1249.3594" y="795.3529">1..*</text></g><!--link Brand to Vehicle--><g id="link_Brand_Vehicle"><path codeLine="120" d="M1202.93,577.74 C1138.52,617.88 1055.8021,669.4265 974.9321,719.8265 " fill="none" id="Brand-to-Vehicle" style="stroke:#181818;stroke-width:1.0;"/><polygon fill="#181818" points="969.84,723,979.5937,721.6345,974.0834,720.3554,975.3624,714.8451,969.84,723" style="stroke:#181818;stroke-width:1.0;"/><text fill="#000000" font-family="sans-serif" font-size="13" lengthAdjust="spacing" textLength="21" x="1043" y="689.0283">has</text><text fill="#000000" font-family="sans-serif" font-size="13" lengthAdjust="spacing" textLength="7" x="1188.0752" y="578.8891">1</text><text fill="#000000" font-family="sans-serif" font-size="13" lengthAdjust="spacing" textLength="20" x="961.7401" y="711.6986">1..*</text></g><!--link Vehicle to Model--><g id="link_Vehicle_Model"><path codeLine="122" d="M1131.74,858.5 C1152.4,858.5 1165.66,858.5 1182.77,858.5 " fill="none" id="Vehicle-to-Model" style="stroke:#181818;stroke-width:1.0;"/><polygon fill="#181818" points="1188.77,858.5,1179.77,854.5,1183.77,858.5,1179.77,862.5,1188.77,858.5" style="stroke:#181818;stroke-width:1.0;"/><text fill="#000000" font-family="sans-serif" font-size="13" lengthAdjust="spacing" textLength="21" x="1149.75" y="851.5283">has</text><text fill="#000000" font-family="sans-serif" font-size="13" lengthAdjust="spacing" textLength="20" x="1139.616" y="872.6993">1..*</text><text fill="#000000" font-family="sans-serif" font-size="13" lengthAdjust="spacing" textLength="7" x="1173.9216" y="854.7127">1</text></g><!--SRC=[nLLRRzCm57xFhx3sicwu4xnMLQLjQDA03RGAU7QJqyJKiJlRBIgN_uvlIUmaNNc2FIpDkNxVkULSRIZV4abgL0ikyagA6f2MEyWwpPRa6rB2KXyO80cv9hnaiO6gI26-KrwYDM4grZ3AGH-sWBQ27UnBTZwY55ABBFBA6L7gMcj9LpiDzxdWI_e3qEiiEsUmraWB96bPQLHG2uSAdcNE1zr8mWlqCqFcRxeq0GmcJchmWWzKQJH_40MmXU5h7fbNaA9mqeaJNdZXdZ1Q40qkvcHb__Sq0vzNtjPc3089fKaACZ9zTDhV3MId6ODyAfUNy3JQ5wXeRjeKulbwEEnUuBDvxd56smSlM3D1J8c9JDvBAPJw2hRgNaovHlbEIk3wVUr5RmrCr12sBv6OvCyxggZjLQTnCIh8DxljdOJd7V3yaA1YD0Uku1EpBcaz0j79tZz3JHgfOumTJMofOSi7HoHmYnt7Y74F9-x3mp6agEvF8KW0S2kube8naAOJ7dWk8HscntPAWcum8uxIqSYJteWbt6q0t8RwBpNuV6-ujyfRWvciX2HQo1CBkjnGPXPKsOUNlnChz4siedco8_1nVKEbhk8fAsggL39ZrqKXmUGd_jaDthOI71vtzGfaWWPgGbaqdtdqcyWYUFZInwJS9k8O64xnu0O3ZdDZdn2RH3XAC5pfEmQW7mWtbrZ6XNs2hJ3D4fA2QeSj5ZPpKeA-vyeSxnmc5sYMEBOM8LchEqJURdOJJHzZfsnQR3iw3ze52ilQNTtHBJwnuwFp_YztlLU7XAhJBSB5RMaU_uGCD2szmQKm-OzVcQj5EWWpSuYZzhxeUFRcRDZ0qowzChpa47lyXTs3_pGFxubZUSJRsaS5c0uAGiFmz-ocHmfWFFOZHHbnxS_3pBS_Sik6qQVE-x9Dd6NzC8s1hrgM750q_pMTeh7JaDfP_pIFGLT8kZSpaOqTbdaNTORyPwcuEGHmZgrdVNLr6Vfa0hhTK-CsNTgAT3aRxJHgU33v0m00]--></g></svg>