<?xml version="1.0" encoding="us-ascii" standalone="no"?><svg xmlns="http://www.w3.org/2000/svg" xmlns:xlink="http://www.w3.org/1999/xlink" contentStyleType="text/css" height="1038px" preserveAspectRatio="none" style="width:2172px;height:1038px;background:#FFFFFF;" version="1.1" viewBox="0 0 2172 1038" width="2172px" zoomAndPan="magnify"><defs/><g><!--class Brand--><g id="elem_Brand"><rect codeLine="11" fill="#F1F1F1" height="178.3477" id="Brand" rx="2.5" ry="2.5" style="stroke:#181818;stroke-width:0.5;" width="182" x="1564.5" y="503"/><ellipse cx="1632.25" cy="519" fill="#ADD1B2" rx="11" ry="11" style="stroke:#181818;stroke-width:1.0;"/><path d="M1635.0156,514.875 Q1635.1719,514.6563 1635.3594,514.5469 Q1635.5469,514.4375 1635.7656,514.4375 Q1636.1406,514.4375 1636.375,514.7031 Q1636.6094,514.9531 1636.6094,515.5625 L1636.6094,517.0156 Q1636.6094,517.625 1636.375,517.8906 Q1636.1406,518.1563 1635.7656,518.1563 Q1635.4219,518.1563 1635.2188,517.9531 Q1635.0156,517.7656 1634.9063,517.25 Q1634.8594,516.8906 1634.6719,516.7031 Q1634.3438,516.3281 1633.7344,516.1094 Q1633.125,515.8906 1632.5,515.8906 Q1631.7344,515.8906 1631.0938,516.2188 Q1630.4688,516.5469 1629.9688,517.2969 Q1629.4844,518.0469 1629.4844,519.0781 L1629.4844,520.1719 Q1629.4844,521.4063 1630.375,522.2344 Q1631.2656,523.0469 1632.8594,523.0469 Q1633.7969,523.0469 1634.4531,522.7969 Q1634.8438,522.6406 1635.2656,522.2031 Q1635.5313,521.9375 1635.6719,521.8594 Q1635.8281,521.7813 1636.0313,521.7813 Q1636.3594,521.7813 1636.6094,522.0469 Q1636.875,522.2969 1636.875,522.6406 Q1636.875,522.9844 1636.5313,523.3906 Q1636.0313,523.9688 1635.2344,524.2969 Q1634.1563,524.75 1632.8594,524.75 Q1631.3438,524.75 1630.1406,524.125 Q1629.1563,523.625 1628.4688,522.5625 Q1627.7813,521.4844 1627.7813,520.2031 L1627.7813,519.0469 Q1627.7813,517.7188 1628.3906,516.5781 Q1629.0156,515.4219 1630.1094,514.8125 Q1631.2031,514.1875 1632.4375,514.1875 Q1633.1719,514.1875 1633.8125,514.3594 Q1634.4688,514.5156 1635.0156,514.875 Z " fill="#000000"/><text fill="#000000" font-family="sans-serif" font-size="14" lengthAdjust="spacing" textLength="38" x="1652.75" y="524.7969">Brand</text><line style="stroke:#181818;stroke-width:0.5;" x1="1565.5" x2="1745.5" y1="535" y2="535"/><text fill="#000000" font-family="sans-serif" font-size="14" lengthAdjust="spacing" textLength="81" x="1570.5" y="554.1074">-String name</text><text fill="#000000" font-family="sans-serif" font-size="14" lengthAdjust="spacing" textLength="140" x="1570.5" y="572.7285">-Arraylist Model model</text><line style="stroke:#181818;stroke-width:0.5;" x1="1565.5" x2="1745.5" y1="580.2422" y2="580.2422"/><text fill="#000000" font-family="sans-serif" font-size="14" lengthAdjust="spacing" textLength="91" x="1570.5" y="599.3496">+Brand(name)</text><text fill="#000000" font-family="sans-serif" font-size="14" lengthAdjust="spacing" textLength="170" x="1570.5" y="617.9707">+createModel(modelName)</text><text fill="#000000" font-family="sans-serif" font-size="14" lengthAdjust="spacing" textLength="115" x="1570.5" y="636.5918">-addModel(model)</text><text fill="#000000" font-family="sans-serif" font-size="14" lengthAdjust="spacing" textLength="139" x="1570.5" y="655.2129">-validateBrand(brand)</text><text fill="#000000" font-family="sans-serif" font-size="14" lengthAdjust="spacing" textLength="140" x="1570.5" y="673.834">-validateModel(model)</text></g><!--class Model--><g id="elem_Model"><rect codeLine="22" fill="#F1F1F1" height="103.8633" id="Model" rx="2.5" ry="2.5" style="stroke:#181818;stroke-width:0.5;" width="152" x="1579.5" y="843.5"/><ellipse cx="1632.25" cy="859.5" fill="#ADD1B2" rx="11" ry="11" style="stroke:#181818;stroke-width:1.0;"/><path d="M1635.0156,855.375 Q1635.1719,855.1563 1635.3594,855.0469 Q1635.5469,854.9375 1635.7656,854.9375 Q1636.1406,854.9375 1636.375,855.2031 Q1636.6094,855.4531 1636.6094,856.0625 L1636.6094,857.5156 Q1636.6094,858.125 1636.375,858.3906 Q1636.1406,858.6563 1635.7656,858.6563 Q1635.4219,858.6563 1635.2188,858.4531 Q1635.0156,858.2656 1634.9063,857.75 Q1634.8594,857.3906 1634.6719,857.2031 Q1634.3438,856.8281 1633.7344,856.6094 Q1633.125,856.3906 1632.5,856.3906 Q1631.7344,856.3906 1631.0938,856.7188 Q1630.4688,857.0469 1629.9688,857.7969 Q1629.4844,858.5469 1629.4844,859.5781 L1629.4844,860.6719 Q1629.4844,861.9063 1630.375,862.7344 Q1631.2656,863.5469 1632.8594,863.5469 Q1633.7969,863.5469 1634.4531,863.2969 Q1634.8438,863.1406 1635.2656,862.7031 Q1635.5313,862.4375 1635.6719,862.3594 Q1635.8281,862.2813 1636.0313,862.2813 Q1636.3594,862.2813 1636.6094,862.5469 Q1636.875,862.7969 1636.875,863.1406 Q1636.875,863.4844 1636.5313,863.8906 Q1636.0313,864.4688 1635.2344,864.7969 Q1634.1563,865.25 1632.8594,865.25 Q1631.3438,865.25 1630.1406,864.625 Q1629.1563,864.125 1628.4688,863.0625 Q1627.7813,861.9844 1627.7813,860.7031 L1627.7813,859.5469 Q1627.7813,858.2188 1628.3906,857.0781 Q1629.0156,855.9219 1630.1094,855.3125 Q1631.2031,854.6875 1632.4375,854.6875 Q1633.1719,854.6875 1633.8125,854.8594 Q1634.4688,855.0156 1635.0156,855.375 Z " fill="#000000"/><text fill="#000000" font-family="sans-serif" font-size="14" lengthAdjust="spacing" textLength="38" x="1652.75" y="865.2969">Model</text><line style="stroke:#181818;stroke-width:0.5;" x1="1580.5" x2="1730.5" y1="875.5" y2="875.5"/><text fill="#000000" font-family="sans-serif" font-size="14" lengthAdjust="spacing" textLength="81" x="1585.5" y="894.6074">-String name</text><line style="stroke:#181818;stroke-width:0.5;" x1="1580.5" x2="1730.5" y1="902.1211" y2="902.1211"/><text fill="#000000" font-family="sans-serif" font-size="14" lengthAdjust="spacing" textLength="91" x="1585.5" y="921.2285">+Model(name)</text><text fill="#000000" font-family="sans-serif" font-size="14" lengthAdjust="spacing" textLength="140" x="1585.5" y="939.8496">-validateModel(model)</text></g><!--class Vehicle--><g id="elem_Vehicle"><rect codeLine="29" fill="#F1F1F1" height="271.4531" id="Vehicle" rx="2.5" ry="2.5" style="stroke:#181818;stroke-width:0.5;" width="755" x="767" y="760"/><ellipse cx="1117.25" cy="776" fill="#ADD1B2" rx="11" ry="11" style="stroke:#181818;stroke-width:1.0;"/><path d="M1120.0156,771.875 Q1120.1719,771.6563 1120.3594,771.5469 Q1120.5469,771.4375 1120.7656,771.4375 Q1121.1406,771.4375 1121.375,771.7031 Q1121.6094,771.9531 1121.6094,772.5625 L1121.6094,774.0156 Q1121.6094,774.625 1121.375,774.8906 Q1121.1406,775.1563 1120.7656,775.1563 Q1120.4219,775.1563 1120.2188,774.9531 Q1120.0156,774.7656 1119.9063,774.25 Q1119.8594,773.8906 1119.6719,773.7031 Q1119.3438,773.3281 1118.7344,773.1094 Q1118.125,772.8906 1117.5,772.8906 Q1116.7344,772.8906 1116.0938,773.2188 Q1115.4688,773.5469 1114.9688,774.2969 Q1114.4844,775.0469 1114.4844,776.0781 L1114.4844,777.1719 Q1114.4844,778.4063 1115.375,779.2344 Q1116.2656,780.0469 1117.8594,780.0469 Q1118.7969,780.0469 1119.4531,779.7969 Q1119.8438,779.6406 1120.2656,779.2031 Q1120.5313,778.9375 1120.6719,778.8594 Q1120.8281,778.7813 1121.0313,778.7813 Q1121.3594,778.7813 1121.6094,779.0469 Q1121.875,779.2969 1121.875,779.6406 Q1121.875,779.9844 1121.5313,780.3906 Q1121.0313,780.9688 1120.2344,781.2969 Q1119.1563,781.75 1117.8594,781.75 Q1116.3438,781.75 1115.1406,781.125 Q1114.1563,780.625 1113.4688,779.5625 Q1112.7813,778.4844 1112.7813,777.2031 L1112.7813,776.0469 Q1112.7813,774.7188 1113.3906,773.5781 Q1114.0156,772.4219 1115.1094,771.8125 Q1116.2031,771.1875 1117.4375,771.1875 Q1118.1719,771.1875 1118.8125,771.3594 Q1119.4688,771.5156 1120.0156,771.875 Z " fill="#000000"/><text fill="#000000" font-family="sans-serif" font-size="14" lengthAdjust="spacing" textLength="46" x="1137.75" y="781.7969">Vehicle</text><line style="stroke:#181818;stroke-width:0.5;" x1="768" x2="1521" y1="792" y2="792"/><text fill="#000000" font-family="sans-serif" font-size="14" lengthAdjust="spacing" textLength="84" x="773" y="811.1074">-Brand brand</text><text fill="#000000" font-family="sans-serif" font-size="14" lengthAdjust="spacing" textLength="85" x="773" y="829.7285">-Model model</text><text fill="#000000" font-family="sans-serif" font-size="14" lengthAdjust="spacing" textLength="73" x="773" y="848.3496">-String type</text><text fill="#000000" font-family="sans-serif" font-size="14" lengthAdjust="spacing" textLength="61" x="773" y="866.9707">-float tare</text><text fill="#000000" font-family="sans-serif" font-size="14" lengthAdjust="spacing" textLength="115" x="773" y="885.5918">-float grossWeight</text><text fill="#000000" font-family="sans-serif" font-size="14" lengthAdjust="spacing" textLength="89" x="773" y="904.2129">-int currentKm</text><text fill="#000000" font-family="sans-serif" font-size="14" lengthAdjust="spacing" textLength="117" x="773" y="922.834">-Date registerDate</text><text fill="#000000" font-family="sans-serif" font-size="14" lengthAdjust="spacing" textLength="136" x="773" y="941.4551">-Date acquisitionDate</text><text fill="#000000" font-family="sans-serif" font-size="14" lengthAdjust="spacing" textLength="145" x="773" y="960.0762">-int checkupFrequency</text><text fill="#000000" font-family="sans-serif" font-size="14" lengthAdjust="spacing" textLength="122" x="773" y="978.6973">-String licensePlate</text><line style="stroke:#181818;stroke-width:0.5;" x1="768" x2="1521" y1="986.2109" y2="986.2109"/><text fill="#000000" font-family="sans-serif" font-size="14" lengthAdjust="spacing" textLength="743" x="773" y="1005.3184">+Vehicle(brand,model,type,tare,grossWeight,currentKm,registerDate,acquisitionDate,checkupFrequency,licensePlate)</text><text fill="#000000" font-family="sans-serif" font-size="14" lengthAdjust="spacing" textLength="154" x="773" y="1023.9395">-validateVehicle(vehicle)</text></g><!--class RegisterVehicleController--><g id="elem_RegisterVehicleController"><rect codeLine="45" fill="#F1F1F1" height="122.4844" id="RegisterVehicleController" rx="2.5" ry="2.5" style="stroke:#181818;stroke-width:0.5;" width="875" x="185" y="7"/><ellipse cx="537.75" cy="23" fill="#ADD1B2" rx="11" ry="11" style="stroke:#181818;stroke-width:1.0;"/><path d="M540.5156,18.875 Q540.6719,18.6563 540.8594,18.5469 Q541.0469,18.4375 541.2656,18.4375 Q541.6406,18.4375 541.875,18.7031 Q542.1094,18.9531 542.1094,19.5625 L542.1094,21.0156 Q542.1094,21.625 541.875,21.8906 Q541.6406,22.1563 541.2656,22.1563 Q540.9219,22.1563 540.7188,21.9531 Q540.5156,21.7656 540.4063,21.25 Q540.3594,20.8906 540.1719,20.7031 Q539.8438,20.3281 539.2344,20.1094 Q538.625,19.8906 538,19.8906 Q537.2344,19.8906 536.5938,20.2188 Q535.9688,20.5469 535.4688,21.2969 Q534.9844,22.0469 534.9844,23.0781 L534.9844,24.1719 Q534.9844,25.4063 535.875,26.2344 Q536.7656,27.0469 538.3594,27.0469 Q539.2969,27.0469 539.9531,26.7969 Q540.3438,26.6406 540.7656,26.2031 Q541.0313,25.9375 541.1719,25.8594 Q541.3281,25.7813 541.5313,25.7813 Q541.8594,25.7813 542.1094,26.0469 Q542.375,26.2969 542.375,26.6406 Q542.375,26.9844 542.0313,27.3906 Q541.5313,27.9688 540.7344,28.2969 Q539.6563,28.75 538.3594,28.75 Q536.8438,28.75 535.6406,28.125 Q534.6563,27.625 533.9688,26.5625 Q533.2813,25.4844 533.2813,24.2031 L533.2813,23.0469 Q533.2813,21.7188 533.8906,20.5781 Q534.5156,19.4219 535.6094,18.8125 Q536.7031,18.1875 537.9375,18.1875 Q538.6719,18.1875 539.3125,18.3594 Q539.9688,18.5156 540.5156,18.875 Z " fill="#000000"/><text fill="#000000" font-family="sans-serif" font-size="14" lengthAdjust="spacing" textLength="161" x="558.25" y="28.7969">RegisterVehicleController</text><line style="stroke:#181818;stroke-width:0.5;" x1="186" x2="1059" y1="39" y2="39"/><line style="stroke:#181818;stroke-width:0.5;" x1="186" x2="1059" y1="47" y2="47"/><text fill="#000000" font-family="sans-serif" font-size="14" lengthAdjust="spacing" textLength="179" x="191" y="66.1074">+RegisterVehicleController()</text><text fill="#000000" font-family="sans-serif" font-size="14" lengthAdjust="spacing" textLength="174" x="191" y="84.7285">-registerBrand(brandName)</text><text fill="#000000" font-family="sans-serif" font-size="14" lengthAdjust="spacing" textLength="175" x="191" y="103.3496">-registerModel(modelName)</text><text fill="#000000" font-family="sans-serif" font-size="14" lengthAdjust="spacing" textLength="863" x="191" y="121.9707">+registerVehicle(brandName,modelName,type,tare,grossWeight,currentKm,registerDate,acquisitionDate,checkupFrequency,licensePlate)</text></g><!--class RegisterVehicleUI--><g id="elem_RegisterVehicleUI"><rect codeLine="53" fill="#F1F1F1" height="48" id="RegisterVehicleUI" rx="2.5" ry="2.5" style="stroke:#181818;stroke-width:0.5;" width="143" x="7" y="44"/><ellipse cx="22" cy="60" fill="#ADD1B2" rx="11" ry="11" style="stroke:#181818;stroke-width:1.0;"/><path d="M24.7656,55.875 Q24.9219,55.6563 25.1094,55.5469 Q25.2969,55.4375 25.5156,55.4375 Q25.8906,55.4375 26.125,55.7031 Q26.3594,55.9531 26.3594,56.5625 L26.3594,58.0156 Q26.3594,58.625 26.125,58.8906 Q25.8906,59.1563 25.5156,59.1563 Q25.1719,59.1563 24.9688,58.9531 Q24.7656,58.7656 24.6563,58.25 Q24.6094,57.8906 24.4219,57.7031 Q24.0938,57.3281 23.4844,57.1094 Q22.875,56.8906 22.25,56.8906 Q21.4844,56.8906 20.8438,57.2188 Q20.2188,57.5469 19.7188,58.2969 Q19.2344,59.0469 19.2344,60.0781 L19.2344,61.1719 Q19.2344,62.4063 20.125,63.2344 Q21.0156,64.0469 22.6094,64.0469 Q23.5469,64.0469 24.2031,63.7969 Q24.5938,63.6406 25.0156,63.2031 Q25.2813,62.9375 25.4219,62.8594 Q25.5781,62.7813 25.7813,62.7813 Q26.1094,62.7813 26.3594,63.0469 Q26.625,63.2969 26.625,63.6406 Q26.625,63.9844 26.2813,64.3906 Q25.7813,64.9688 24.9844,65.2969 Q23.9063,65.75 22.6094,65.75 Q21.0938,65.75 19.8906,65.125 Q18.9063,64.625 18.2188,63.5625 Q17.5313,62.4844 17.5313,61.2031 L17.5313,60.0469 Q17.5313,58.7188 18.1406,57.5781 Q18.7656,56.4219 19.8594,55.8125 Q20.9531,55.1875 22.1875,55.1875 Q22.9219,55.1875 23.5625,55.3594 Q24.2188,55.5156 24.7656,55.875 Z " fill="#000000"/><text fill="#000000" font-family="sans-serif" font-size="14" lengthAdjust="spacing" textLength="111" x="36" y="65.7969">RegisterVehicleUI</text><line style="stroke:#181818;stroke-width:0.5;" x1="8" x2="149" y1="76" y2="76"/><line style="stroke:#181818;stroke-width:0.5;" x1="8" x2="149" y1="84" y2="84"/></g><!--class Collaborator--><g id="elem_Collaborator"><rect codeLine="56" fill="#F1F1F1" height="215.5898" id="Collaborator" rx="2.5" ry="2.5" style="stroke:#181818;stroke-width:0.5;" width="628" x="490.5" y="208"/><ellipse cx="761.25" cy="224" fill="#ADD1B2" rx="11" ry="11" style="stroke:#181818;stroke-width:1.0;"/><path d="M764.0156,219.875 Q764.1719,219.6563 764.3594,219.5469 Q764.5469,219.4375 764.7656,219.4375 Q765.1406,219.4375 765.375,219.7031 Q765.6094,219.9531 765.6094,220.5625 L765.6094,222.0156 Q765.6094,222.625 765.375,222.8906 Q765.1406,223.1563 764.7656,223.1563 Q764.4219,223.1563 764.2188,222.9531 Q764.0156,222.7656 763.9063,222.25 Q763.8594,221.8906 763.6719,221.7031 Q763.3438,221.3281 762.7344,221.1094 Q762.125,220.8906 761.5,220.8906 Q760.7344,220.8906 760.0938,221.2188 Q759.4688,221.5469 758.9688,222.2969 Q758.4844,223.0469 758.4844,224.0781 L758.4844,225.1719 Q758.4844,226.4063 759.375,227.2344 Q760.2656,228.0469 761.8594,228.0469 Q762.7969,228.0469 763.4531,227.7969 Q763.8438,227.6406 764.2656,227.2031 Q764.5313,226.9375 764.6719,226.8594 Q764.8281,226.7813 765.0313,226.7813 Q765.3594,226.7813 765.6094,227.0469 Q765.875,227.2969 765.875,227.6406 Q765.875,227.9844 765.5313,228.3906 Q765.0313,228.9688 764.2344,229.2969 Q763.1563,229.75 761.8594,229.75 Q760.3438,229.75 759.1406,229.125 Q758.1563,228.625 757.4688,227.5625 Q756.7813,226.4844 756.7813,225.2031 L756.7813,224.0469 Q756.7813,222.7188 757.3906,221.5781 Q758.0156,220.4219 759.1094,219.8125 Q760.2031,219.1875 761.4375,219.1875 Q762.1719,219.1875 762.8125,219.3594 Q763.4688,219.5156 764.0156,219.875 Z " fill="#000000"/><text fill="#000000" font-family="sans-serif" font-size="14" lengthAdjust="spacing" textLength="78" x="781.75" y="229.7969">Collaborator</text><line style="stroke:#181818;stroke-width:0.5;" x1="491.5" x2="1117.5" y1="240" y2="240"/><text fill="#000000" font-family="sans-serif" font-size="14" lengthAdjust="spacing" textLength="81" x="496.5" y="259.1074">-String name</text><text fill="#000000" font-family="sans-serif" font-size="14" lengthAdjust="spacing" textLength="111" x="496.5" y="277.7285">-Date dateOfBirth</text><text fill="#000000" font-family="sans-serif" font-size="14" lengthAdjust="spacing" textLength="132" x="496.5" y="296.3496">-Date admissionDate</text><text fill="#000000" font-family="sans-serif" font-size="14" lengthAdjust="spacing" textLength="112" x="496.5" y="314.9707">-Address address</text><text fill="#000000" font-family="sans-serif" font-size="14" lengthAdjust="spacing" textLength="113" x="496.5" y="333.5918">-int phoneNumber</text><text fill="#000000" font-family="sans-serif" font-size="14" lengthAdjust="spacing" textLength="79" x="496.5" y="352.2129">-String email</text><text fill="#000000" font-family="sans-serif" font-size="14" lengthAdjust="spacing" textLength="38" x="496.5" y="370.834">-int cc</text><text fill="#000000" font-family="sans-serif" font-size="14" lengthAdjust="spacing" textLength="101" x="496.5" y="389.4551">-int cardNumber</text><line style="stroke:#181818;stroke-width:0.5;" x1="491.5" x2="1117.5" y1="396.9688" y2="396.9688"/><text fill="#000000" font-family="sans-serif" font-size="14" lengthAdjust="spacing" textLength="616" x="496.5" y="416.0762">+Collaborator(name, dateOfBirth, admissionDate, address, phoneNumber, email, cc, cardNumber)</text></g><!--class VehicleFleetManager--><g id="elem_VehicleFleetManager"><rect codeLine="69" fill="#F1F1F1" height="48" id="VehicleFleetManager" rx="2.5" ry="2.5" style="stroke:#181818;stroke-width:0.5;" width="166" x="721.5" y="568"/><ellipse cx="736.5" cy="584" fill="#ADD1B2" rx="11" ry="11" style="stroke:#181818;stroke-width:1.0;"/><path d="M739.2656,579.875 Q739.4219,579.6563 739.6094,579.5469 Q739.7969,579.4375 740.0156,579.4375 Q740.3906,579.4375 740.625,579.7031 Q740.8594,579.9531 740.8594,580.5625 L740.8594,582.0156 Q740.8594,582.625 740.625,582.8906 Q740.3906,583.1563 740.0156,583.1563 Q739.6719,583.1563 739.4688,582.9531 Q739.2656,582.7656 739.1563,582.25 Q739.1094,581.8906 738.9219,581.7031 Q738.5938,581.3281 737.9844,581.1094 Q737.375,580.8906 736.75,580.8906 Q735.9844,580.8906 735.3438,581.2188 Q734.7188,581.5469 734.2188,582.2969 Q733.7344,583.0469 733.7344,584.0781 L733.7344,585.1719 Q733.7344,586.4063 734.625,587.2344 Q735.5156,588.0469 737.1094,588.0469 Q738.0469,588.0469 738.7031,587.7969 Q739.0938,587.6406 739.5156,587.2031 Q739.7813,586.9375 739.9219,586.8594 Q740.0781,586.7813 740.2813,586.7813 Q740.6094,586.7813 740.8594,587.0469 Q741.125,587.2969 741.125,587.6406 Q741.125,587.9844 740.7813,588.3906 Q740.2813,588.9688 739.4844,589.2969 Q738.4063,589.75 737.1094,589.75 Q735.5938,589.75 734.3906,589.125 Q733.4063,588.625 732.7188,587.5625 Q732.0313,586.4844 732.0313,585.2031 L732.0313,584.0469 Q732.0313,582.7188 732.6406,581.5781 Q733.2656,580.4219 734.3594,579.8125 Q735.4531,579.1875 736.6875,579.1875 Q737.4219,579.1875 738.0625,579.3594 Q738.7188,579.5156 739.2656,579.875 Z " fill="#000000"/><text fill="#000000" font-family="sans-serif" font-size="14" lengthAdjust="spacing" textLength="134" x="750.5" y="589.7969">VehicleFleetManager</text><line style="stroke:#181818;stroke-width:0.5;" x1="722.5" x2="886.5" y1="600" y2="600"/><line style="stroke:#181818;stroke-width:0.5;" x1="722.5" x2="886.5" y1="608" y2="608"/></g><!--class Repositories--><g id="elem_Repositories"><rect codeLine="72" fill="#F1F1F1" height="122.4844" id="Repositories" rx="2.5" ry="2.5" style="stroke:#181818;stroke-width:0.5;" width="194" x="1454.5" y="7"/><ellipse cx="1507.75" cy="23" fill="#ADD1B2" rx="11" ry="11" style="stroke:#181818;stroke-width:1.0;"/><path d="M1510.5156,18.875 Q1510.6719,18.6563 1510.8594,18.5469 Q1511.0469,18.4375 1511.2656,18.4375 Q1511.6406,18.4375 1511.875,18.7031 Q1512.1094,18.9531 1512.1094,19.5625 L1512.1094,21.0156 Q1512.1094,21.625 1511.875,21.8906 Q1511.6406,22.1563 1511.2656,22.1563 Q1510.9219,22.1563 1510.7188,21.9531 Q1510.5156,21.7656 1510.4063,21.25 Q1510.3594,20.8906 1510.1719,20.7031 Q1509.8438,20.3281 1509.2344,20.1094 Q1508.625,19.8906 1508,19.8906 Q1507.2344,19.8906 1506.5938,20.2188 Q1505.9688,20.5469 1505.4688,21.2969 Q1504.9844,22.0469 1504.9844,23.0781 L1504.9844,24.1719 Q1504.9844,25.4063 1505.875,26.2344 Q1506.7656,27.0469 1508.3594,27.0469 Q1509.2969,27.0469 1509.9531,26.7969 Q1510.3438,26.6406 1510.7656,26.2031 Q1511.0313,25.9375 1511.1719,25.8594 Q1511.3281,25.7813 1511.5313,25.7813 Q1511.8594,25.7813 1512.1094,26.0469 Q1512.375,26.2969 1512.375,26.6406 Q1512.375,26.9844 1512.0313,27.3906 Q1511.5313,27.9688 1510.7344,28.2969 Q1509.6563,28.75 1508.3594,28.75 Q1506.8438,28.75 1505.6406,28.125 Q1504.6563,27.625 1503.9688,26.5625 Q1503.2813,25.4844 1503.2813,24.2031 L1503.2813,23.0469 Q1503.2813,21.7188 1503.8906,20.5781 Q1504.5156,19.4219 1505.6094,18.8125 Q1506.7031,18.1875 1507.9375,18.1875 Q1508.6719,18.1875 1509.3125,18.3594 Q1509.9688,18.5156 1510.5156,18.875 Z " fill="#000000"/><text fill="#000000" font-family="sans-serif" font-size="14" lengthAdjust="spacing" textLength="79" x="1528.25" y="28.7969">Repositories</text><line style="stroke:#181818;stroke-width:0.5;" x1="1455.5" x2="1647.5" y1="39" y2="39"/><line style="stroke:#181818;stroke-width:0.5;" x1="1455.5" x2="1647.5" y1="47" y2="47"/><text fill="#000000" font-family="sans-serif" font-size="14" lengthAdjust="spacing" textLength="94" x="1460.5" y="66.1074">-Repositories()</text><text fill="#000000" font-family="sans-serif" font-size="14" lengthAdjust="spacing" textLength="182" x="1460.5" y="84.7285">+getInstance() : Repositories</text><text fill="#000000" font-family="sans-serif" font-size="14" lengthAdjust="spacing" textLength="152" x="1460.5" y="103.3496">+getVehicleRepository()</text><text fill="#000000" font-family="sans-serif" font-size="14" lengthAdjust="spacing" textLength="144" x="1460.5" y="121.9707">+getBrandRepository()</text></g><!--class vehicleRepository--><g id="elem_vehicleRepository"><rect codeLine="80" fill="#F1F1F1" height="122.4844" id="vehicleRepository" rx="2.5" ry="2.5" style="stroke:#181818;stroke-width:0.5;" width="795" x="1154" y="255"/><ellipse cx="1491.25" cy="271" fill="#ADD1B2" rx="11" ry="11" style="stroke:#181818;stroke-width:1.0;"/><path d="M1494.0156,266.875 Q1494.1719,266.6563 1494.3594,266.5469 Q1494.5469,266.4375 1494.7656,266.4375 Q1495.1406,266.4375 1495.375,266.7031 Q1495.6094,266.9531 1495.6094,267.5625 L1495.6094,269.0156 Q1495.6094,269.625 1495.375,269.8906 Q1495.1406,270.1563 1494.7656,270.1563 Q1494.4219,270.1563 1494.2188,269.9531 Q1494.0156,269.7656 1493.9063,269.25 Q1493.8594,268.8906 1493.6719,268.7031 Q1493.3438,268.3281 1492.7344,268.1094 Q1492.125,267.8906 1491.5,267.8906 Q1490.7344,267.8906 1490.0938,268.2188 Q1489.4688,268.5469 1488.9688,269.2969 Q1488.4844,270.0469 1488.4844,271.0781 L1488.4844,272.1719 Q1488.4844,273.4063 1489.375,274.2344 Q1490.2656,275.0469 1491.8594,275.0469 Q1492.7969,275.0469 1493.4531,274.7969 Q1493.8438,274.6406 1494.2656,274.2031 Q1494.5313,273.9375 1494.6719,273.8594 Q1494.8281,273.7813 1495.0313,273.7813 Q1495.3594,273.7813 1495.6094,274.0469 Q1495.875,274.2969 1495.875,274.6406 Q1495.875,274.9844 1495.5313,275.3906 Q1495.0313,275.9688 1494.2344,276.2969 Q1493.1563,276.75 1491.8594,276.75 Q1490.3438,276.75 1489.1406,276.125 Q1488.1563,275.625 1487.4688,274.5625 Q1486.7813,273.4844 1486.7813,272.2031 L1486.7813,271.0469 Q1486.7813,269.7188 1487.3906,268.5781 Q1488.0156,267.4219 1489.1094,266.8125 Q1490.2031,266.1875 1491.4375,266.1875 Q1492.1719,266.1875 1492.8125,266.3594 Q1493.4688,266.5156 1494.0156,266.875 Z " fill="#000000"/><text fill="#000000" font-family="sans-serif" font-size="14" lengthAdjust="spacing" textLength="112" x="1511.75" y="276.7969">vehicleRepository</text><line style="stroke:#181818;stroke-width:0.5;" x1="1155" x2="1948" y1="287" y2="287"/><text fill="#000000" font-family="sans-serif" font-size="14" lengthAdjust="spacing" textLength="159" x="1160" y="306.1074">-ArrayList Vehicle vehicle</text><line style="stroke:#181818;stroke-width:0.5;" x1="1155" x2="1948" y1="313.6211" y2="313.6211"/><text fill="#000000" font-family="sans-serif" font-size="14" lengthAdjust="spacing" textLength="129" x="1160" y="332.7285">-addVehicle(vehicle)</text><text fill="#000000" font-family="sans-serif" font-size="14" lengthAdjust="spacing" textLength="154" x="1160" y="351.3496">-validateVehicle(vehicle)</text><text fill="#000000" font-family="sans-serif" font-size="14" lengthAdjust="spacing" textLength="783" x="1160" y="369.9707">+createVehicle(brand,model,type,tare,grossWeight,currentKm,registerDate,acquisitionDate,checkupFrequency,licensePlate)</text></g><!--class brandRepository--><g id="elem_brandRepository"><rect codeLine="88" fill="#F1F1F1" height="122.4844" id="brandRepository" rx="2.5" ry="2.5" style="stroke:#181818;stroke-width:0.5;" width="181" x="1984" y="255"/><ellipse cx="2018.8" cy="271" fill="#ADD1B2" rx="11" ry="11" style="stroke:#181818;stroke-width:1.0;"/><path d="M2021.5656,266.875 Q2021.7219,266.6563 2021.9094,266.5469 Q2022.0969,266.4375 2022.3156,266.4375 Q2022.6906,266.4375 2022.925,266.7031 Q2023.1594,266.9531 2023.1594,267.5625 L2023.1594,269.0156 Q2023.1594,269.625 2022.925,269.8906 Q2022.6906,270.1563 2022.3156,270.1563 Q2021.9719,270.1563 2021.7688,269.9531 Q2021.5656,269.7656 2021.4563,269.25 Q2021.4094,268.8906 2021.2219,268.7031 Q2020.8938,268.3281 2020.2844,268.1094 Q2019.675,267.8906 2019.05,267.8906 Q2018.2844,267.8906 2017.6438,268.2188 Q2017.0188,268.5469 2016.5188,269.2969 Q2016.0344,270.0469 2016.0344,271.0781 L2016.0344,272.1719 Q2016.0344,273.4063 2016.925,274.2344 Q2017.8156,275.0469 2019.4094,275.0469 Q2020.3469,275.0469 2021.0031,274.7969 Q2021.3938,274.6406 2021.8156,274.2031 Q2022.0813,273.9375 2022.2219,273.8594 Q2022.3781,273.7813 2022.5813,273.7813 Q2022.9094,273.7813 2023.1594,274.0469 Q2023.425,274.2969 2023.425,274.6406 Q2023.425,274.9844 2023.0813,275.3906 Q2022.5813,275.9688 2021.7844,276.2969 Q2020.7063,276.75 2019.4094,276.75 Q2017.8938,276.75 2016.6906,276.125 Q2015.7063,275.625 2015.0188,274.5625 Q2014.3313,273.4844 2014.3313,272.2031 L2014.3313,271.0469 Q2014.3313,269.7188 2014.9406,268.5781 Q2015.5656,267.4219 2016.6594,266.8125 Q2017.7531,266.1875 2018.9875,266.1875 Q2019.7219,266.1875 2020.3625,266.3594 Q2021.0188,266.5156 2021.5656,266.875 Z " fill="#000000"/><text fill="#000000" font-family="sans-serif" font-size="14" lengthAdjust="spacing" textLength="105" x="2037.2" y="276.7969">brandRepository</text><line style="stroke:#181818;stroke-width:0.5;" x1="1985" x2="2164" y1="287" y2="287"/><text fill="#000000" font-family="sans-serif" font-size="14" lengthAdjust="spacing" textLength="144" x="1990" y="306.1074">-ArrayList Brand brand</text><line style="stroke:#181818;stroke-width:0.5;" x1="1985" x2="2164" y1="313.6211" y2="313.6211"/><text fill="#000000" font-family="sans-serif" font-size="14" lengthAdjust="spacing" textLength="114" x="1990" y="332.7285">-addBrand(brand)</text><text fill="#000000" font-family="sans-serif" font-size="14" lengthAdjust="spacing" textLength="139" x="1990" y="351.3496">-validateBrand(brand)</text><text fill="#000000" font-family="sans-serif" font-size="14" lengthAdjust="spacing" textLength="169" x="1990" y="369.9707">+createBrand(brandName)</text></g><!--link RegisterVehicleController to Repositories--><g id="link_RegisterVehicleController_Repositories"><path codeLine="96" d="M1060.14,68 C1207.85,68 1353.19,68 1448.15,68 " fill="none" id="RegisterVehicleController-to-Repositories" style="stroke:#181818;stroke-width:1.0;stroke-dasharray:7.0,7.0;"/><polygon fill="#181818" points="1454.15,68,1445.15,64,1449.15,68,1445.15,72,1454.15,68" style="stroke:#181818;stroke-width:1.0;"/><text fill="#000000" font-family="sans-serif" font-size="13" lengthAdjust="spacing" textLength="67" x="1223.75" y="61.0283">repositories</text></g><!--link RegisterVehicleUI to RegisterVehicleController--><g id="link_RegisterVehicleUI_RegisterVehicleController"><path codeLine="97" d="M150.17,68 C161.55,68 167.36,68 178.81,68 " fill="none" id="RegisterVehicleUI-to-RegisterVehicleController" style="stroke:#181818;stroke-width:1.0;stroke-dasharray:7.0,7.0;"/><polygon fill="#181818" points="184.81,68,175.81,64,179.81,68,175.81,72,184.81,68" style="stroke:#181818;stroke-width:1.0;"/></g><!--link Repositories to Repositories--><g id="link_Repositories_Repositories"><path codeLine="98" d="M1648.78,49.91 C1668.98,51.81 1683.5,57.84 1683.5,68 C1683.5,78.16 1674.9536,83.6281 1654.7536,85.5281 " fill="none" id="Repositories-to-Repositories" style="stroke:#181818;stroke-width:1.0;"/><polygon fill="#181818" points="1648.78,86.09,1658.115,89.2296,1653.758,85.6218,1657.3659,81.2648,1648.78,86.09" style="stroke:#181818;stroke-width:1.0;"/><text fill="#000000" font-family="sans-serif" font-size="13" lengthAdjust="spacing" textLength="49" x="1689.5" y="73.5283">instance</text></g><!--link Repositories to vehicleRepository--><g id="link_Repositories_vehicleRepository"><path codeLine="99" d="M1551.5,129.18 C1551.5,167.3 1551.5,210.43 1551.5,248.59 " fill="none" id="Repositories-to-vehicleRepository" style="stroke:#181818;stroke-width:1.0;"/><polygon fill="#181818" points="1551.5,254.59,1555.5,245.59,1551.5,249.59,1547.5,245.59,1551.5,254.59" style="stroke:#181818;stroke-width:1.0;"/><text fill="#000000" font-family="sans-serif" font-size="13" lengthAdjust="spacing" textLength="101" x="1552.5" y="174.0283">vehicleRepository</text><text fill="#000000" font-family="sans-serif" font-size="13" lengthAdjust="spacing" textLength="7" x="1544.0953" y="243.5238">1</text></g><!--link Repositories to brandRepository--><g id="link_Repositories_brandRepository"><path codeLine="100" d="M1648.54,101.5 C1771.18,142.58 1966.5,208 1966.5,208 C1966.5,208 1984.9875,226.3173 2009.6075,250.7073 " fill="none" id="Repositories-to-brandRepository" style="stroke:#181818;stroke-width:1.0;"/><polygon fill="#181818" points="2013.87,254.93,2010.2914,245.7543,2010.3179,251.4111,2004.6611,251.4376,2013.87,254.93" style="stroke:#181818;stroke-width:1.0;"/><text fill="#000000" font-family="sans-serif" font-size="13" lengthAdjust="spacing" textLength="94" x="1877.5" y="174.0283">brandRepository</text><text fill="#000000" font-family="sans-serif" font-size="13" lengthAdjust="spacing" textLength="7" x="1999.455" y="243.9031">1</text></g><!--link vehicleRepository to Vehicle--><g id="link_vehicleRepository_Vehicle"><path codeLine="101" d="M1509.1,377.17 C1445.73,467.09 1328.1164,633.9556 1242.9264,754.8356 " fill="none" id="vehicleRepository-to-Vehicle" style="stroke:#181818;stroke-width:1.0;"/><polygon fill="#181818" points="1239.47,759.74,1247.9242,754.6876,1242.3503,755.653,1241.385,750.0791,1239.47,759.74" style="stroke:#181818;stroke-width:1.0;"/><text fill="#000000" font-family="sans-serif" font-size="13" lengthAdjust="spacing" textLength="39" x="1415.5" y="597.5283">vehicle</text><text fill="#000000" font-family="sans-serif" font-size="13" lengthAdjust="spacing" textLength="5" x="1239.527" y="748.8747">*</text></g><!--link brandRepository to Brand--><g id="link_brandRepository_Brand"><path codeLine="102" d="M2013.87,377.07 C1989.25,401.46 1966.5,424 1966.5,424 C1966.5,424 1843.7663,489.9119 1751.9963,539.1819 " fill="none" id="brandRepository-to-Brand" style="stroke:#181818;stroke-width:1.0;"/><polygon fill="#181818" points="1746.71,542.02,1756.5315,541.287,1751.1153,539.6549,1752.7474,534.2386,1746.71,542.02" style="stroke:#181818;stroke-width:1.0;"/><text fill="#000000" font-family="sans-serif" font-size="13" lengthAdjust="spacing" textLength="32" x="1907.5" y="469.0283">brand</text><text fill="#000000" font-family="sans-serif" font-size="13" lengthAdjust="spacing" textLength="5" x="1754.4704" y="534.2031">*</text></g><!--reverse link Collaborator to VehicleFleetManager--><g id="link_Collaborator_VehicleFleetManager"><path codeLine="103" d="M804.5,442.11 C804.5,494.95 804.5,536.01 804.5,567.77 " fill="none" id="Collaborator-backto-VehicleFleetManager" style="stroke:#181818;stroke-width:1.0;"/><polygon fill="none" points="804.5,424.11,798.5,442.11,810.5,442.11,804.5,424.11" style="stroke:#181818;stroke-width:1.0;"/></g><!--link RegisterVehicleController to VehicleFleetManager--><g id="link_RegisterVehicleController_VehicleFleetManager"><path codeLine="104" d="M503.91,129.16 C429.86,166.73 348.5,208 348.5,208 C348.5,208 348.5,424 348.5,424 C348.5,424 610.8459,520.0767 735.9359,565.8867 " fill="none" id="RegisterVehicleController-to-VehicleFleetManager" style="stroke:#181818;stroke-width:1.0;stroke-dasharray:7.0,7.0;"/><polygon fill="#181818" points="741.57,567.95,734.4944,561.099,736.8749,566.2306,731.7434,568.6111,741.57,567.95" style="stroke:#181818;stroke-width:1.0;"/><text fill="#000000" font-family="sans-serif" font-size="13" lengthAdjust="spacing" textLength="122" x="349.5" y="321.5283">VehicleFleetManager</text><text fill="#000000" font-family="sans-serif" font-size="13" lengthAdjust="spacing" textLength="7" x="717.5473" y="556.6747">1</text></g><!--reverse link VehicleFleetManager to Vehicle--><g id="link_VehicleFleetManager_Vehicle"><path codeLine="105" d="M830.3061,620.6243 C866.8261,659.7143 932.5,730 932.5,730 C932.5,730 948.13,742.12 970.89,759.79 " fill="none" id="VehicleFleetManager-backto-Vehicle" style="stroke:#181818;stroke-width:1.0;"/><polygon fill="#181818" points="826.21,616.24,829.4312,625.5472,829.6234,619.8936,835.277,620.0858,826.21,616.24" style="stroke:#181818;stroke-width:1.0;"/><text fill="#000000" font-family="sans-serif" font-size="13" lengthAdjust="spacing" textLength="59" x="933.5" y="726.0283">createdBy</text></g><!--link Collaborator to Vehicle--><g id="link_Collaborator_Vehicle"><path codeLine="106" d="M867.65,424.27 C923.44,519.03 1002.0061,652.4695 1062.1661,754.6595 " fill="none" id="Collaborator-to-Vehicle" style="stroke:#181818;stroke-width:1.0;"/><polygon fill="#181818" points="1065.21,759.83,1064.0911,750.0449,1062.6734,755.5212,1057.1971,754.1035,1065.21,759.83" style="stroke:#181818;stroke-width:1.0;"/><text fill="#000000" font-family="sans-serif" font-size="13" lengthAdjust="spacing" textLength="33" x="1014.5" y="597.5283">drives</text><text fill="#000000" font-family="sans-serif" font-size="13" lengthAdjust="spacing" textLength="5" x="866.3459" y="445.4354">*</text><text fill="#000000" font-family="sans-serif" font-size="13" lengthAdjust="spacing" textLength="5" x="1055.4815" y="748.5188">*</text></g><!--link Brand to Model--><g id="link_Brand_Model"><path codeLine="107" d="M1655.5,681.02 C1655.5,733.68 1655.5,792.78 1655.5,837.15 " fill="none" id="Brand-to-Model" style="stroke:#181818;stroke-width:1.0;"/><polygon fill="#181818" points="1655.5,843.15,1659.5,834.15,1655.5,838.15,1651.5,834.15,1655.5,843.15" style="stroke:#181818;stroke-width:1.0;"/><text fill="#000000" font-family="sans-serif" font-size="13" lengthAdjust="spacing" textLength="35" x="1656.5" y="726.0283">model</text><text fill="#000000" font-family="sans-serif" font-size="13" lengthAdjust="spacing" textLength="7" x="1648.1992" y="703.4265">1</text><text fill="#000000" font-family="sans-serif" font-size="13" lengthAdjust="spacing" textLength="20" x="1634.2188" y="832.4093">1..*</text></g><!--link Brand to Vehicle--><g id="link_Brand_Vehicle"><path codeLine="108" d="M1564.44,646.73 C1510.85,678.34 1445.6574,716.8108 1377.8874,756.8008 " fill="none" id="Brand-to-Vehicle" style="stroke:#181818;stroke-width:1.0;"/><polygon fill="#181818" points="1372.72,759.85,1382.5039,758.7211,1377.0262,757.309,1378.4383,751.8312,1372.72,759.85" style="stroke:#181818;stroke-width:1.0;"/><text fill="#000000" font-family="sans-serif" font-size="13" lengthAdjust="spacing" textLength="21" x="1446.5" y="726.0283">has</text><text fill="#000000" font-family="sans-serif" font-size="13" lengthAdjust="spacing" textLength="7" x="1549.6093" y="647.5844">1</text><text fill="#000000" font-family="sans-serif" font-size="13" lengthAdjust="spacing" textLength="20" x="1365.3358" y="748.54">1..*</text></g><!--link Vehicle to Model--><g id="link_Vehicle_Model"><path codeLine="109" d="M1522.24,895.5 C1542.9,895.5 1556.16,895.5 1573.27,895.5 " fill="none" id="Vehicle-to-Model" style="stroke:#181818;stroke-width:1.0;"/><polygon fill="#181818" points="1579.27,895.5,1570.27,891.5,1574.27,895.5,1570.27,899.5,1579.27,895.5" style="stroke:#181818;stroke-width:1.0;"/><text fill="#000000" font-family="sans-serif" font-size="13" lengthAdjust="spacing" textLength="21" x="1540.25" y="888.5283">has</text><text fill="#000000" font-family="sans-serif" font-size="13" lengthAdjust="spacing" textLength="20" x="1530.116" y="909.6993">1..*</text><text fill="#000000" font-family="sans-serif" font-size="13" lengthAdjust="spacing" textLength="7" x="1564.4216" y="891.7127">1</text></g><!--SRC=[lLLBRniX4BxpAr0kSHfijLShgfIaYXIrIQj4JS-O7U-YiE00TkK-_djXWJNihjDJwyFQdlbcvflddffdBZTKqnQtIYhMQDK2jdeBwA3PKFPCQtYqUm5O0xDKrY87c8PMwZkNDLvJONADu1BiVWDueyJU_q6d4qgbhKAP5HFKc4jhDLzjBTmo9H_v3y1l4JeLiBROAgnvtLXSSK-7AubGPuElD9KL_ecm-ypne_FWI4dQGfHSQaqT3sFndQf0kAJT4tNAys0yy-YpA64Qg8KEEkkWzxroZcbLPPeatL71AsSKdAtySwWgh7udwe7G5FL89fZ9ZC7h3f-WuSnrBBaCjUaOHKbUWoAixqgKh8MYhk9Kbu9QAsE-WUz2b7DfCTjg3T9-RAFiWoFd9gPs1GVj_-Hoobwst73VlapLkMc0FMytDnfUjY3PlYGdE0Dfu8lmHh4sCTTGRz9bH7mIn1Cd6LdIKoGvBp8WGuOKI1vrMFyKVHU-inuyn1WHSQsarKe8qAuhaVfHo2o5IKIpaShdCAadn_IyLnSbyW3IG_zfgOxLukkjgq6ll7OfqvNIr2gT9dQqljtO-89_NbznRPjCIgkM6rECqcLLQN2kQVWEGZzUcqP9kD-sAz1586Wf5mSOOzblggje4SkQ4-wMakJCI4c8918a3qv2HE8YaIp2U8Ll182zez8TOPqNxG4soZL2QGuc3TIyaCxI5DHWRwLnbvl1x0ml2z014kFrodrkturVeUg9x8Ps_T7f3kudVt3JEOfOTBYYe_NvotRbj_b_BtwVygginaJ2-Rqz9FlAUs6aIacE5j-nE7vP5k_BmLYw4v0rUxo6dS4HRwXmDH-vvd6e1ZW7F7btCZ4Nox5isdHOt-LGWiREvvtncvD-rlfeQEWk8KEJedDKN25yyMi-nrCx-5hn5u7-rEOk9trD8I-omCiu1DNLlkJdwOyJhZJVkIw7l3oJKD35mg72-tuPt_YJa8EZXfh4BIbZQv8RZq1_0000]--></g></svg>