<?xml version="1.0" encoding="us-ascii" standalone="no"?><svg xmlns="http://www.w3.org/2000/svg" xmlns:xlink="http://www.w3.org/1999/xlink" contentStyleType="text/css" height="1020px" preserveAspectRatio="none" style="width:1941px;height:1020px;background:#FFFFFF;" version="1.1" viewBox="0 0 1941 1020" width="1941px" zoomAndPan="magnify"><defs/><g><!--class Brand--><g id="elem_Brand"><rect codeLine="11" fill="#F1F1F1" height="141.1055" id="Brand" rx="2.5" ry="2.5" style="stroke:#181818;stroke-width:0.5;" width="217" x="1188.5" y="447"/><ellipse cx="1273.75" cy="463" fill="#ADD1B2" rx="11" ry="11" style="stroke:#181818;stroke-width:1.0;"/><path d="M1276.5156,458.875 Q1276.6719,458.6563 1276.8594,458.5469 Q1277.0469,458.4375 1277.2656,458.4375 Q1277.6406,458.4375 1277.875,458.7031 Q1278.1094,458.9531 1278.1094,459.5625 L1278.1094,461.0156 Q1278.1094,461.625 1277.875,461.8906 Q1277.6406,462.1563 1277.2656,462.1563 Q1276.9219,462.1563 1276.7188,461.9531 Q1276.5156,461.7656 1276.4063,461.25 Q1276.3594,460.8906 1276.1719,460.7031 Q1275.8438,460.3281 1275.2344,460.1094 Q1274.625,459.8906 1274,459.8906 Q1273.2344,459.8906 1272.5938,460.2188 Q1271.9688,460.5469 1271.4688,461.2969 Q1270.9844,462.0469 1270.9844,463.0781 L1270.9844,464.1719 Q1270.9844,465.4063 1271.875,466.2344 Q1272.7656,467.0469 1274.3594,467.0469 Q1275.2969,467.0469 1275.9531,466.7969 Q1276.3438,466.6406 1276.7656,466.2031 Q1277.0313,465.9375 1277.1719,465.8594 Q1277.3281,465.7813 1277.5313,465.7813 Q1277.8594,465.7813 1278.1094,466.0469 Q1278.375,466.2969 1278.375,466.6406 Q1278.375,466.9844 1278.0313,467.3906 Q1277.5313,467.9688 1276.7344,468.2969 Q1275.6563,468.75 1274.3594,468.75 Q1272.8438,468.75 1271.6406,468.125 Q1270.6563,467.625 1269.9688,466.5625 Q1269.2813,465.4844 1269.2813,464.2031 L1269.2813,463.0469 Q1269.2813,461.7188 1269.8906,460.5781 Q1270.5156,459.4219 1271.6094,458.8125 Q1272.7031,458.1875 1273.9375,458.1875 Q1274.6719,458.1875 1275.3125,458.3594 Q1275.9688,458.5156 1276.5156,458.875 Z " fill="#000000"/><text fill="#000000" font-family="sans-serif" font-size="14" lengthAdjust="spacing" textLength="38" x="1294.25" y="468.7969">Brand</text><line style="stroke:#181818;stroke-width:0.5;" x1="1189.5" x2="1404.5" y1="479" y2="479"/><text fill="#000000" font-family="sans-serif" font-size="14" lengthAdjust="spacing" textLength="81" x="1194.5" y="498.1074">-String name</text><text fill="#000000" font-family="sans-serif" font-size="14" lengthAdjust="spacing" textLength="127" x="1194.5" y="516.7285">-List &lt;Model&gt; model</text><line style="stroke:#181818;stroke-width:0.5;" x1="1189.5" x2="1404.5" y1="524.2422" y2="524.2422"/><text fill="#000000" font-family="sans-serif" font-size="14" lengthAdjust="spacing" textLength="91" x="1194.5" y="543.3496">+Brand(name)</text><text fill="#000000" font-family="sans-serif" font-size="14" lengthAdjust="spacing" textLength="118" x="1194.5" y="561.9707">+addModel(model)</text><text fill="#000000" font-family="sans-serif" font-size="14" lengthAdjust="spacing" textLength="205" x="1194.5" y="580.5918">+hasModelByName(modelName)</text></g><!--class Model--><g id="elem_Model"><rect codeLine="20" fill="#F1F1F1" height="85.2422" id="Model" rx="2.5" ry="2.5" style="stroke:#181818;stroke-width:0.5;" width="103" x="1195.5" y="825.5"/><ellipse cx="1225.35" cy="841.5" fill="#ADD1B2" rx="11" ry="11" style="stroke:#181818;stroke-width:1.0;"/><path d="M1228.1156,837.375 Q1228.2719,837.1563 1228.4594,837.0469 Q1228.6469,836.9375 1228.8656,836.9375 Q1229.2406,836.9375 1229.475,837.2031 Q1229.7094,837.4531 1229.7094,838.0625 L1229.7094,839.5156 Q1229.7094,840.125 1229.475,840.3906 Q1229.2406,840.6563 1228.8656,840.6563 Q1228.5219,840.6563 1228.3188,840.4531 Q1228.1156,840.2656 1228.0063,839.75 Q1227.9594,839.3906 1227.7719,839.2031 Q1227.4438,838.8281 1226.8344,838.6094 Q1226.225,838.3906 1225.6,838.3906 Q1224.8344,838.3906 1224.1938,838.7188 Q1223.5688,839.0469 1223.0688,839.7969 Q1222.5844,840.5469 1222.5844,841.5781 L1222.5844,842.6719 Q1222.5844,843.9063 1223.475,844.7344 Q1224.3656,845.5469 1225.9594,845.5469 Q1226.8969,845.5469 1227.5531,845.2969 Q1227.9438,845.1406 1228.3656,844.7031 Q1228.6313,844.4375 1228.7719,844.3594 Q1228.9281,844.2813 1229.1313,844.2813 Q1229.4594,844.2813 1229.7094,844.5469 Q1229.975,844.7969 1229.975,845.1406 Q1229.975,845.4844 1229.6313,845.8906 Q1229.1313,846.4688 1228.3344,846.7969 Q1227.2563,847.25 1225.9594,847.25 Q1224.4438,847.25 1223.2406,846.625 Q1222.2563,846.125 1221.5688,845.0625 Q1220.8813,843.9844 1220.8813,842.7031 L1220.8813,841.5469 Q1220.8813,840.2188 1221.4906,839.0781 Q1222.1156,837.9219 1223.2094,837.3125 Q1224.3031,836.6875 1225.5375,836.6875 Q1226.2719,836.6875 1226.9125,836.8594 Q1227.5688,837.0156 1228.1156,837.375 Z " fill="#000000"/><text fill="#000000" font-family="sans-serif" font-size="14" lengthAdjust="spacing" textLength="38" x="1242.65" y="847.2969">Model</text><line style="stroke:#181818;stroke-width:0.5;" x1="1196.5" x2="1297.5" y1="857.5" y2="857.5"/><text fill="#000000" font-family="sans-serif" font-size="14" lengthAdjust="spacing" textLength="81" x="1201.5" y="876.6074">-String name</text><line style="stroke:#181818;stroke-width:0.5;" x1="1196.5" x2="1297.5" y1="884.1211" y2="884.1211"/><text fill="#000000" font-family="sans-serif" font-size="14" lengthAdjust="spacing" textLength="91" x="1201.5" y="903.2285">+Model(name)</text></g><!--class Vehicle--><g id="elem_Vehicle"><rect codeLine="26" fill="#F1F1F1" height="290.0742" id="Vehicle" rx="2.5" ry="2.5" style="stroke:#181818;stroke-width:0.5;" width="755" x="382.5" y="723"/><ellipse cx="732.75" cy="739" fill="#ADD1B2" rx="11" ry="11" style="stroke:#181818;stroke-width:1.0;"/><path d="M735.5156,734.875 Q735.6719,734.6563 735.8594,734.5469 Q736.0469,734.4375 736.2656,734.4375 Q736.6406,734.4375 736.875,734.7031 Q737.1094,734.9531 737.1094,735.5625 L737.1094,737.0156 Q737.1094,737.625 736.875,737.8906 Q736.6406,738.1563 736.2656,738.1563 Q735.9219,738.1563 735.7188,737.9531 Q735.5156,737.7656 735.4063,737.25 Q735.3594,736.8906 735.1719,736.7031 Q734.8438,736.3281 734.2344,736.1094 Q733.625,735.8906 733,735.8906 Q732.2344,735.8906 731.5938,736.2188 Q730.9688,736.5469 730.4688,737.2969 Q729.9844,738.0469 729.9844,739.0781 L729.9844,740.1719 Q729.9844,741.4063 730.875,742.2344 Q731.7656,743.0469 733.3594,743.0469 Q734.2969,743.0469 734.9531,742.7969 Q735.3438,742.6406 735.7656,742.2031 Q736.0313,741.9375 736.1719,741.8594 Q736.3281,741.7813 736.5313,741.7813 Q736.8594,741.7813 737.1094,742.0469 Q737.375,742.2969 737.375,742.6406 Q737.375,742.9844 737.0313,743.3906 Q736.5313,743.9688 735.7344,744.2969 Q734.6563,744.75 733.3594,744.75 Q731.8438,744.75 730.6406,744.125 Q729.6563,743.625 728.9688,742.5625 Q728.2813,741.4844 728.2813,740.2031 L728.2813,739.0469 Q728.2813,737.7188 728.8906,736.5781 Q729.5156,735.4219 730.6094,734.8125 Q731.7031,734.1875 732.9375,734.1875 Q733.6719,734.1875 734.3125,734.3594 Q734.9688,734.5156 735.5156,734.875 Z " fill="#000000"/><text fill="#000000" font-family="sans-serif" font-size="14" lengthAdjust="spacing" textLength="46" x="753.25" y="744.7969">Vehicle</text><line style="stroke:#181818;stroke-width:0.5;" x1="383.5" x2="1136.5" y1="755" y2="755"/><text fill="#000000" font-family="sans-serif" font-size="14" lengthAdjust="spacing" textLength="84" x="388.5" y="774.1074">-Brand brand</text><text fill="#000000" font-family="sans-serif" font-size="14" lengthAdjust="spacing" textLength="85" x="388.5" y="792.7285">-Model model</text><text fill="#000000" font-family="sans-serif" font-size="14" lengthAdjust="spacing" textLength="73" x="388.5" y="811.3496">-String type</text><text fill="#000000" font-family="sans-serif" font-size="14" lengthAdjust="spacing" textLength="61" x="388.5" y="829.9707">-float tare</text><text fill="#000000" font-family="sans-serif" font-size="14" lengthAdjust="spacing" textLength="115" x="388.5" y="848.5918">-float grossWeight</text><text fill="#000000" font-family="sans-serif" font-size="14" lengthAdjust="spacing" textLength="89" x="388.5" y="867.2129">-int currentKm</text><text fill="#000000" font-family="sans-serif" font-size="14" lengthAdjust="spacing" textLength="117" x="388.5" y="885.834">-Date registerDate</text><text fill="#000000" font-family="sans-serif" font-size="14" lengthAdjust="spacing" textLength="136" x="388.5" y="904.4551">-Date acquisitionDate</text><text fill="#000000" font-family="sans-serif" font-size="14" lengthAdjust="spacing" textLength="145" x="388.5" y="923.0762">-int checkupFrequency</text><text fill="#000000" font-family="sans-serif" font-size="14" lengthAdjust="spacing" textLength="122" x="388.5" y="941.6973">-String licensePlate</text><text fill="#000000" font-family="sans-serif" font-size="14" lengthAdjust="spacing" textLength="184" x="388.5" y="960.3184">-List&lt;CheckUp&gt; checkUpList;</text><line style="stroke:#181818;stroke-width:0.5;" x1="383.5" x2="1136.5" y1="967.832" y2="967.832"/><text fill="#000000" font-family="sans-serif" font-size="14" lengthAdjust="spacing" textLength="743" x="388.5" y="986.9395">+Vehicle(type,tare,grossWeight,currentKm,registerDate,acquisitionDate,checkupFrequency,licensePlate,brand,model)</text><text fill="#000000" font-family="sans-serif" font-size="14" lengthAdjust="spacing" textLength="154" x="388.5" y="1005.5605">-validateVehicle(vehicle)</text></g><!--class RegisterVehicleController--><g id="elem_RegisterVehicleController"><rect codeLine="43" fill="#F1F1F1" height="103.8633" id="RegisterVehicleController" rx="2.5" ry="2.5" style="stroke:#181818;stroke-width:0.5;" width="875" x="665.5" y="16"/><ellipse cx="1018.25" cy="32" fill="#ADD1B2" rx="11" ry="11" style="stroke:#181818;stroke-width:1.0;"/><path d="M1021.0156,27.875 Q1021.1719,27.6563 1021.3594,27.5469 Q1021.5469,27.4375 1021.7656,27.4375 Q1022.1406,27.4375 1022.375,27.7031 Q1022.6094,27.9531 1022.6094,28.5625 L1022.6094,30.0156 Q1022.6094,30.625 1022.375,30.8906 Q1022.1406,31.1563 1021.7656,31.1563 Q1021.4219,31.1563 1021.2188,30.9531 Q1021.0156,30.7656 1020.9063,30.25 Q1020.8594,29.8906 1020.6719,29.7031 Q1020.3438,29.3281 1019.7344,29.1094 Q1019.125,28.8906 1018.5,28.8906 Q1017.7344,28.8906 1017.0938,29.2188 Q1016.4688,29.5469 1015.9688,30.2969 Q1015.4844,31.0469 1015.4844,32.0781 L1015.4844,33.1719 Q1015.4844,34.4063 1016.375,35.2344 Q1017.2656,36.0469 1018.8594,36.0469 Q1019.7969,36.0469 1020.4531,35.7969 Q1020.8438,35.6406 1021.2656,35.2031 Q1021.5313,34.9375 1021.6719,34.8594 Q1021.8281,34.7813 1022.0313,34.7813 Q1022.3594,34.7813 1022.6094,35.0469 Q1022.875,35.2969 1022.875,35.6406 Q1022.875,35.9844 1022.5313,36.3906 Q1022.0313,36.9688 1021.2344,37.2969 Q1020.1563,37.75 1018.8594,37.75 Q1017.3438,37.75 1016.1406,37.125 Q1015.1563,36.625 1014.4688,35.5625 Q1013.7813,34.4844 1013.7813,33.2031 L1013.7813,32.0469 Q1013.7813,30.7188 1014.3906,29.5781 Q1015.0156,28.4219 1016.1094,27.8125 Q1017.2031,27.1875 1018.4375,27.1875 Q1019.1719,27.1875 1019.8125,27.3594 Q1020.4688,27.5156 1021.0156,27.875 Z " fill="#000000"/><text fill="#000000" font-family="sans-serif" font-size="14" lengthAdjust="spacing" textLength="161" x="1038.75" y="37.7969">RegisterVehicleController</text><line style="stroke:#181818;stroke-width:0.5;" x1="666.5" x2="1539.5" y1="48" y2="48"/><line style="stroke:#181818;stroke-width:0.5;" x1="666.5" x2="1539.5" y1="56" y2="56"/><text fill="#000000" font-family="sans-serif" font-size="14" lengthAdjust="spacing" textLength="179" x="671.5" y="75.1074">+RegisterVehicleController()</text><text fill="#000000" font-family="sans-serif" font-size="14" lengthAdjust="spacing" textLength="224" x="671.5" y="93.7285">-getBrand(brandName,modelName)</text><text fill="#000000" font-family="sans-serif" font-size="14" lengthAdjust="spacing" textLength="863" x="671.5" y="112.3496">+registerVehicle(type,tare,grossWeight,currentKm,registerDate,acquisitionDate,checkupFrequency,licensePlate,brandName,modelName)</text></g><!--class RegisterVehicleUI--><g id="elem_RegisterVehicleUI"><rect codeLine="50" fill="#F1F1F1" height="48" id="RegisterVehicleUI" rx="2.5" ry="2.5" style="stroke:#181818;stroke-width:0.5;" width="143" x="487.5" y="44"/><ellipse cx="502.5" cy="60" fill="#ADD1B2" rx="11" ry="11" style="stroke:#181818;stroke-width:1.0;"/><path d="M505.2656,55.875 Q505.4219,55.6563 505.6094,55.5469 Q505.7969,55.4375 506.0156,55.4375 Q506.3906,55.4375 506.625,55.7031 Q506.8594,55.9531 506.8594,56.5625 L506.8594,58.0156 Q506.8594,58.625 506.625,58.8906 Q506.3906,59.1563 506.0156,59.1563 Q505.6719,59.1563 505.4688,58.9531 Q505.2656,58.7656 505.1563,58.25 Q505.1094,57.8906 504.9219,57.7031 Q504.5938,57.3281 503.9844,57.1094 Q503.375,56.8906 502.75,56.8906 Q501.9844,56.8906 501.3438,57.2188 Q500.7188,57.5469 500.2188,58.2969 Q499.7344,59.0469 499.7344,60.0781 L499.7344,61.1719 Q499.7344,62.4063 500.625,63.2344 Q501.5156,64.0469 503.1094,64.0469 Q504.0469,64.0469 504.7031,63.7969 Q505.0938,63.6406 505.5156,63.2031 Q505.7813,62.9375 505.9219,62.8594 Q506.0781,62.7813 506.2813,62.7813 Q506.6094,62.7813 506.8594,63.0469 Q507.125,63.2969 507.125,63.6406 Q507.125,63.9844 506.7813,64.3906 Q506.2813,64.9688 505.4844,65.2969 Q504.4063,65.75 503.1094,65.75 Q501.5938,65.75 500.3906,65.125 Q499.4063,64.625 498.7188,63.5625 Q498.0313,62.4844 498.0313,61.2031 L498.0313,60.0469 Q498.0313,58.7188 498.6406,57.5781 Q499.2656,56.4219 500.3594,55.8125 Q501.4531,55.1875 502.6875,55.1875 Q503.4219,55.1875 504.0625,55.3594 Q504.7188,55.5156 505.2656,55.875 Z " fill="#000000"/><text fill="#000000" font-family="sans-serif" font-size="14" lengthAdjust="spacing" textLength="111" x="516.5" y="65.7969">RegisterVehicleUI</text><line style="stroke:#181818;stroke-width:0.5;" x1="488.5" x2="629.5" y1="76" y2="76"/><line style="stroke:#181818;stroke-width:0.5;" x1="488.5" x2="629.5" y1="84" y2="84"/></g><!--class Collaborator--><g id="elem_Collaborator"><rect codeLine="53" fill="#F1F1F1" height="252.832" id="Collaborator" rx="2.5" ry="2.5" style="stroke:#181818;stroke-width:0.5;" width="628" x="7" y="391"/><ellipse cx="277.75" cy="407" fill="#ADD1B2" rx="11" ry="11" style="stroke:#181818;stroke-width:1.0;"/><path d="M280.5156,402.875 Q280.6719,402.6563 280.8594,402.5469 Q281.0469,402.4375 281.2656,402.4375 Q281.6406,402.4375 281.875,402.7031 Q282.1094,402.9531 282.1094,403.5625 L282.1094,405.0156 Q282.1094,405.625 281.875,405.8906 Q281.6406,406.1563 281.2656,406.1563 Q280.9219,406.1563 280.7188,405.9531 Q280.5156,405.7656 280.4063,405.25 Q280.3594,404.8906 280.1719,404.7031 Q279.8438,404.3281 279.2344,404.1094 Q278.625,403.8906 278,403.8906 Q277.2344,403.8906 276.5938,404.2188 Q275.9688,404.5469 275.4688,405.2969 Q274.9844,406.0469 274.9844,407.0781 L274.9844,408.1719 Q274.9844,409.4063 275.875,410.2344 Q276.7656,411.0469 278.3594,411.0469 Q279.2969,411.0469 279.9531,410.7969 Q280.3438,410.6406 280.7656,410.2031 Q281.0313,409.9375 281.1719,409.8594 Q281.3281,409.7813 281.5313,409.7813 Q281.8594,409.7813 282.1094,410.0469 Q282.375,410.2969 282.375,410.6406 Q282.375,410.9844 282.0313,411.3906 Q281.5313,411.9688 280.7344,412.2969 Q279.6563,412.75 278.3594,412.75 Q276.8438,412.75 275.6406,412.125 Q274.6563,411.625 273.9688,410.5625 Q273.2813,409.4844 273.2813,408.2031 L273.2813,407.0469 Q273.2813,405.7188 273.8906,404.5781 Q274.5156,403.4219 275.6094,402.8125 Q276.7031,402.1875 277.9375,402.1875 Q278.6719,402.1875 279.3125,402.3594 Q279.9688,402.5156 280.5156,402.875 Z " fill="#000000"/><text fill="#000000" font-family="sans-serif" font-size="14" lengthAdjust="spacing" textLength="78" x="298.25" y="412.7969">Collaborator</text><line style="stroke:#181818;stroke-width:0.5;" x1="8" x2="634" y1="423" y2="423"/><text fill="#000000" font-family="sans-serif" font-size="14" lengthAdjust="spacing" textLength="81" x="13" y="442.1074">-String name</text><text fill="#000000" font-family="sans-serif" font-size="14" lengthAdjust="spacing" textLength="99" x="13" y="460.7285">-List &lt;Skill&gt; skill</text><text fill="#000000" font-family="sans-serif" font-size="14" lengthAdjust="spacing" textLength="50" x="13" y="479.3496">-Job job</text><text fill="#000000" font-family="sans-serif" font-size="14" lengthAdjust="spacing" textLength="111" x="13" y="497.9707">-Date dateOfBirth</text><text fill="#000000" font-family="sans-serif" font-size="14" lengthAdjust="spacing" textLength="132" x="13" y="516.5918">-Date admissionDate</text><text fill="#000000" font-family="sans-serif" font-size="14" lengthAdjust="spacing" textLength="112" x="13" y="535.2129">-Address address</text><text fill="#000000" font-family="sans-serif" font-size="14" lengthAdjust="spacing" textLength="113" x="13" y="553.834">-int phoneNumber</text><text fill="#000000" font-family="sans-serif" font-size="14" lengthAdjust="spacing" textLength="79" x="13" y="572.4551">-String email</text><text fill="#000000" font-family="sans-serif" font-size="14" lengthAdjust="spacing" textLength="38" x="13" y="591.0762">-int cc</text><text fill="#000000" font-family="sans-serif" font-size="14" lengthAdjust="spacing" textLength="101" x="13" y="609.6973">-int cardNumber</text><line style="stroke:#181818;stroke-width:0.5;" x1="8" x2="634" y1="617.2109" y2="617.2109"/><text fill="#000000" font-family="sans-serif" font-size="14" lengthAdjust="spacing" textLength="616" x="13" y="636.3184">+Collaborator(name, dateOfBirth, admissionDate, address, phoneNumber, email, cc, cardNumber)</text></g><!--class VehicleFleetManager--><g id="elem_VehicleFleetManager"><rect codeLine="68" fill="#F1F1F1" height="48" id="VehicleFleetManager" rx="2.5" ry="2.5" style="stroke:#181818;stroke-width:0.5;" width="166" x="121" y="844"/><ellipse cx="136" cy="860" fill="#ADD1B2" rx="11" ry="11" style="stroke:#181818;stroke-width:1.0;"/><path d="M138.7656,855.875 Q138.9219,855.6563 139.1094,855.5469 Q139.2969,855.4375 139.5156,855.4375 Q139.8906,855.4375 140.125,855.7031 Q140.3594,855.9531 140.3594,856.5625 L140.3594,858.0156 Q140.3594,858.625 140.125,858.8906 Q139.8906,859.1563 139.5156,859.1563 Q139.1719,859.1563 138.9688,858.9531 Q138.7656,858.7656 138.6563,858.25 Q138.6094,857.8906 138.4219,857.7031 Q138.0938,857.3281 137.4844,857.1094 Q136.875,856.8906 136.25,856.8906 Q135.4844,856.8906 134.8438,857.2188 Q134.2188,857.5469 133.7188,858.2969 Q133.2344,859.0469 133.2344,860.0781 L133.2344,861.1719 Q133.2344,862.4063 134.125,863.2344 Q135.0156,864.0469 136.6094,864.0469 Q137.5469,864.0469 138.2031,863.7969 Q138.5938,863.6406 139.0156,863.2031 Q139.2813,862.9375 139.4219,862.8594 Q139.5781,862.7813 139.7813,862.7813 Q140.1094,862.7813 140.3594,863.0469 Q140.625,863.2969 140.625,863.6406 Q140.625,863.9844 140.2813,864.3906 Q139.7813,864.9688 138.9844,865.2969 Q137.9063,865.75 136.6094,865.75 Q135.0938,865.75 133.8906,865.125 Q132.9063,864.625 132.2188,863.5625 Q131.5313,862.4844 131.5313,861.2031 L131.5313,860.0469 Q131.5313,858.7188 132.1406,857.5781 Q132.7656,856.4219 133.8594,855.8125 Q134.9531,855.1875 136.1875,855.1875 Q136.9219,855.1875 137.5625,855.3594 Q138.2188,855.5156 138.7656,855.875 Z " fill="#000000"/><text fill="#000000" font-family="sans-serif" font-size="14" lengthAdjust="spacing" textLength="134" x="150" y="865.7969">VehicleFleetManager</text><line style="stroke:#181818;stroke-width:0.5;" x1="122" x2="286" y1="876" y2="876"/><line style="stroke:#181818;stroke-width:0.5;" x1="122" x2="286" y1="884" y2="884"/></g><!--class Repositories--><g id="elem_Repositories"><rect codeLine="71" fill="#F1F1F1" height="122.4844" id="Repositories" rx="2.5" ry="2.5" style="stroke:#181818;stroke-width:0.5;" width="194" x="1644" y="7"/><ellipse cx="1697.25" cy="23" fill="#ADD1B2" rx="11" ry="11" style="stroke:#181818;stroke-width:1.0;"/><path d="M1700.0156,18.875 Q1700.1719,18.6563 1700.3594,18.5469 Q1700.5469,18.4375 1700.7656,18.4375 Q1701.1406,18.4375 1701.375,18.7031 Q1701.6094,18.9531 1701.6094,19.5625 L1701.6094,21.0156 Q1701.6094,21.625 1701.375,21.8906 Q1701.1406,22.1563 1700.7656,22.1563 Q1700.4219,22.1563 1700.2188,21.9531 Q1700.0156,21.7656 1699.9063,21.25 Q1699.8594,20.8906 1699.6719,20.7031 Q1699.3438,20.3281 1698.7344,20.1094 Q1698.125,19.8906 1697.5,19.8906 Q1696.7344,19.8906 1696.0938,20.2188 Q1695.4688,20.5469 1694.9688,21.2969 Q1694.4844,22.0469 1694.4844,23.0781 L1694.4844,24.1719 Q1694.4844,25.4063 1695.375,26.2344 Q1696.2656,27.0469 1697.8594,27.0469 Q1698.7969,27.0469 1699.4531,26.7969 Q1699.8438,26.6406 1700.2656,26.2031 Q1700.5313,25.9375 1700.6719,25.8594 Q1700.8281,25.7813 1701.0313,25.7813 Q1701.3594,25.7813 1701.6094,26.0469 Q1701.875,26.2969 1701.875,26.6406 Q1701.875,26.9844 1701.5313,27.3906 Q1701.0313,27.9688 1700.2344,28.2969 Q1699.1563,28.75 1697.8594,28.75 Q1696.3438,28.75 1695.1406,28.125 Q1694.1563,27.625 1693.4688,26.5625 Q1692.7813,25.4844 1692.7813,24.2031 L1692.7813,23.0469 Q1692.7813,21.7188 1693.3906,20.5781 Q1694.0156,19.4219 1695.1094,18.8125 Q1696.2031,18.1875 1697.4375,18.1875 Q1698.1719,18.1875 1698.8125,18.3594 Q1699.4688,18.5156 1700.0156,18.875 Z " fill="#000000"/><text fill="#000000" font-family="sans-serif" font-size="14" lengthAdjust="spacing" textLength="79" x="1717.75" y="28.7969">Repositories</text><line style="stroke:#181818;stroke-width:0.5;" x1="1645" x2="1837" y1="39" y2="39"/><line style="stroke:#181818;stroke-width:0.5;" x1="1645" x2="1837" y1="47" y2="47"/><text fill="#000000" font-family="sans-serif" font-size="14" lengthAdjust="spacing" textLength="94" x="1650" y="66.1074">-Repositories()</text><text fill="#000000" font-family="sans-serif" font-size="14" lengthAdjust="spacing" textLength="182" x="1650" y="84.7285">+getInstance() : Repositories</text><text fill="#000000" font-family="sans-serif" font-size="14" lengthAdjust="spacing" textLength="152" x="1650" y="103.3496">+getVehicleRepository()</text><text fill="#000000" font-family="sans-serif" font-size="14" lengthAdjust="spacing" textLength="144" x="1650" y="121.9707">+getBrandRepository()</text></g><!--class VehicleRepository--><g id="elem_VehicleRepository"><rect codeLine="79" fill="#F1F1F1" height="122.4844" id="VehicleRepository" rx="2.5" ry="2.5" style="stroke:#181818;stroke-width:0.5;" width="803" x="278.5" y="208"/><ellipse cx="618.75" cy="224" fill="#ADD1B2" rx="11" ry="11" style="stroke:#181818;stroke-width:1.0;"/><path d="M621.5156,219.875 Q621.6719,219.6563 621.8594,219.5469 Q622.0469,219.4375 622.2656,219.4375 Q622.6406,219.4375 622.875,219.7031 Q623.1094,219.9531 623.1094,220.5625 L623.1094,222.0156 Q623.1094,222.625 622.875,222.8906 Q622.6406,223.1563 622.2656,223.1563 Q621.9219,223.1563 621.7188,222.9531 Q621.5156,222.7656 621.4063,222.25 Q621.3594,221.8906 621.1719,221.7031 Q620.8438,221.3281 620.2344,221.1094 Q619.625,220.8906 619,220.8906 Q618.2344,220.8906 617.5938,221.2188 Q616.9688,221.5469 616.4688,222.2969 Q615.9844,223.0469 615.9844,224.0781 L615.9844,225.1719 Q615.9844,226.4063 616.875,227.2344 Q617.7656,228.0469 619.3594,228.0469 Q620.2969,228.0469 620.9531,227.7969 Q621.3438,227.6406 621.7656,227.2031 Q622.0313,226.9375 622.1719,226.8594 Q622.3281,226.7813 622.5313,226.7813 Q622.8594,226.7813 623.1094,227.0469 Q623.375,227.2969 623.375,227.6406 Q623.375,227.9844 623.0313,228.3906 Q622.5313,228.9688 621.7344,229.2969 Q620.6563,229.75 619.3594,229.75 Q617.8438,229.75 616.6406,229.125 Q615.6563,228.625 614.9688,227.5625 Q614.2813,226.4844 614.2813,225.2031 L614.2813,224.0469 Q614.2813,222.7188 614.8906,221.5781 Q615.5156,220.4219 616.6094,219.8125 Q617.7031,219.1875 618.9375,219.1875 Q619.6719,219.1875 620.3125,219.3594 Q620.9688,219.5156 621.5156,219.875 Z " fill="#000000"/><text fill="#000000" font-family="sans-serif" font-size="14" lengthAdjust="spacing" textLength="114" x="639.25" y="229.7969">VehicleRepository</text><line style="stroke:#181818;stroke-width:0.5;" x1="279.5" x2="1080.5" y1="240" y2="240"/><text fill="#000000" font-family="sans-serif" font-size="14" lengthAdjust="spacing" textLength="137" x="284.5" y="259.1074">-List&lt;Vehicle&gt; vehicle</text><line style="stroke:#181818;stroke-width:0.5;" x1="279.5" x2="1080.5" y1="266.6211" y2="266.6211"/><text fill="#000000" font-family="sans-serif" font-size="14" lengthAdjust="spacing" textLength="129" x="284.5" y="285.7285">-addVehicle(vehicle)</text><text fill="#000000" font-family="sans-serif" font-size="14" lengthAdjust="spacing" textLength="154" x="284.5" y="304.3496">-validateVehicle(vehicle)</text><text fill="#000000" font-family="sans-serif" font-size="14" lengthAdjust="spacing" textLength="791" x="284.5" y="322.9707">+registerVehicle(type,tare,grossWeight,currentKm,registerDate,acquisitionDate,checkupFrequency,licensePlate,brand,model)</text></g><!--class BrandRepository--><g id="elem_BrandRepository"><rect codeLine="87" fill="#F1F1F1" height="122.4844" id="BrandRepository" rx="2.5" ry="2.5" style="stroke:#181818;stroke-width:0.5;" width="252" x="1259" y="208"/><ellipse cx="1327.75" cy="224" fill="#ADD1B2" rx="11" ry="11" style="stroke:#181818;stroke-width:1.0;"/><path d="M1330.5156,219.875 Q1330.6719,219.6563 1330.8594,219.5469 Q1331.0469,219.4375 1331.2656,219.4375 Q1331.6406,219.4375 1331.875,219.7031 Q1332.1094,219.9531 1332.1094,220.5625 L1332.1094,222.0156 Q1332.1094,222.625 1331.875,222.8906 Q1331.6406,223.1563 1331.2656,223.1563 Q1330.9219,223.1563 1330.7188,222.9531 Q1330.5156,222.7656 1330.4063,222.25 Q1330.3594,221.8906 1330.1719,221.7031 Q1329.8438,221.3281 1329.2344,221.1094 Q1328.625,220.8906 1328,220.8906 Q1327.2344,220.8906 1326.5938,221.2188 Q1325.9688,221.5469 1325.4688,222.2969 Q1324.9844,223.0469 1324.9844,224.0781 L1324.9844,225.1719 Q1324.9844,226.4063 1325.875,227.2344 Q1326.7656,228.0469 1328.3594,228.0469 Q1329.2969,228.0469 1329.9531,227.7969 Q1330.3438,227.6406 1330.7656,227.2031 Q1331.0313,226.9375 1331.1719,226.8594 Q1331.3281,226.7813 1331.5313,226.7813 Q1331.8594,226.7813 1332.1094,227.0469 Q1332.375,227.2969 1332.375,227.6406 Q1332.375,227.9844 1332.0313,228.3906 Q1331.5313,228.9688 1330.7344,229.2969 Q1329.6563,229.75 1328.3594,229.75 Q1326.8438,229.75 1325.6406,229.125 Q1324.6563,228.625 1323.9688,227.5625 Q1323.2813,226.4844 1323.2813,225.2031 L1323.2813,224.0469 Q1323.2813,222.7188 1323.8906,221.5781 Q1324.5156,220.4219 1325.6094,219.8125 Q1326.7031,219.1875 1327.9375,219.1875 Q1328.6719,219.1875 1329.3125,219.3594 Q1329.9688,219.5156 1330.5156,219.875 Z " fill="#000000"/><text fill="#000000" font-family="sans-serif" font-size="14" lengthAdjust="spacing" textLength="106" x="1348.25" y="229.7969">BrandRepository</text><line style="stroke:#181818;stroke-width:0.5;" x1="1260" x2="1510" y1="240" y2="240"/><text fill="#000000" font-family="sans-serif" font-size="14" lengthAdjust="spacing" textLength="122" x="1265" y="259.1074">-List&lt;Brand&gt; brand</text><line style="stroke:#181818;stroke-width:0.5;" x1="1260" x2="1510" y1="266.6211" y2="266.6211"/><text fill="#000000" font-family="sans-serif" font-size="14" lengthAdjust="spacing" textLength="117" x="1265" y="285.7285">+addBrand(brand)</text><text fill="#000000" font-family="sans-serif" font-size="14" lengthAdjust="spacing" textLength="240" x="1265" y="304.3496">+getBrandByModelName(modelName)</text><text fill="#000000" font-family="sans-serif" font-size="14" lengthAdjust="spacing" textLength="204" x="1265" y="322.9707">+hasBrandByName(brandName)</text></g><!--link RegisterVehicleController to Repositories--><g id="link_RegisterVehicleController_Repositories"><path codeLine="95" d="M1540.88,68 C1578.72,68 1607.95,68 1637.98,68 " fill="none" id="RegisterVehicleController-to-Repositories" style="stroke:#181818;stroke-width:1.0;stroke-dasharray:7.0,7.0;"/><polygon fill="#181818" points="1643.98,68,1634.98,64,1638.98,68,1634.98,72,1643.98,68" style="stroke:#181818;stroke-width:1.0;"/><text fill="#000000" font-family="sans-serif" font-size="13" lengthAdjust="spacing" textLength="67" x="1558.75" y="61.0283">repositories</text></g><!--link RegisterVehicleController to VehicleRepository--><g id="link_RegisterVehicleController_VehicleRepository"><path codeLine="96" d="M994.34,120.12 C937.43,146.89 872.8094,177.2963 813.2994,205.2863 " fill="none" id="RegisterVehicleController-to-VehicleRepository" style="stroke:#181818;stroke-width:1.0;stroke-dasharray:7.0,7.0;"/><polygon fill="#181818" points="807.87,207.84,817.7166,207.6291,812.3945,205.7119,814.3117,200.3899,807.87,207.84" style="stroke:#181818;stroke-width:1.0;"/><text fill="#000000" font-family="sans-serif" font-size="13" lengthAdjust="spacing" textLength="7" x="815.2503" y="196.8027">1</text></g><!--link RegisterVehicleController to BrandRepository--><g id="link_RegisterVehicleController_BrandRepository"><path codeLine="97" d="M1176.17,120.05 C1205.28,140.36 1232,159 1232,159 C1232,159 1260.1736,179.0682 1295.5536,204.2782 " fill="none" id="RegisterVehicleController-to-BrandRepository" style="stroke:#181818;stroke-width:1.0;stroke-dasharray:7.0,7.0;"/><polygon fill="#181818" points="1300.44,207.76,1295.4316,199.2797,1296.368,204.8585,1290.7892,205.7949,1300.44,207.76" style="stroke:#181818;stroke-width:1.0;"/><text fill="#000000" font-family="sans-serif" font-size="13" lengthAdjust="spacing" textLength="7" x="1283.2581" y="196.7135">1</text></g><!--link RegisterVehicleController to Brand--><g id="link_RegisterVehicleController_Brand"><path codeLine="98" d="M1135.9,120.05 C1148.99,140.36 1161,159 1161,159 C1161,159 1228.7471,337.0719 1268.3171,441.1119 " fill="none" id="RegisterVehicleController-to-Brand" style="stroke:#181818;stroke-width:1.0;stroke-dasharray:7.0,7.0;"/><polygon fill="#181818" points="1270.45,446.72,1270.9893,436.8859,1268.6725,442.0466,1263.5119,439.7298,1270.45,446.72" style="stroke:#181818;stroke-width:1.0;"/><text fill="#000000" font-family="sans-serif" font-size="13" lengthAdjust="spacing" textLength="7" x="1260.3511" y="435.5821">1</text></g><!--link RegisterVehicleController to Model--><g id="link_RegisterVehicleController_Model"><path codeLine="99" d="M1107.42,120.06 C1120.32,269.09 1157,693 1157,693 C1157,693 1196.0637,768.5206 1222.6837,819.9906 " fill="none" id="RegisterVehicleController-to-Model" style="stroke:#181818;stroke-width:1.0;stroke-dasharray:7.0,7.0;"/><polygon fill="#181818" points="1225.44,825.32,1224.8584,815.4883,1223.143,820.8788,1217.7526,819.1634,1225.44,825.32" style="stroke:#181818;stroke-width:1.0;"/><text fill="#000000" font-family="sans-serif" font-size="13" lengthAdjust="spacing" textLength="7" x="1214.4461" y="814.1954">1</text></g><!--link RegisterVehicleUI to RegisterVehicleController--><g id="link_RegisterVehicleUI_RegisterVehicleController"><path codeLine="101" d="M630.67,68 C642.05,68 647.86,68 659.31,68 " fill="none" id="RegisterVehicleUI-to-RegisterVehicleController" style="stroke:#181818;stroke-width:1.0;stroke-dasharray:7.0,7.0;"/><polygon fill="#181818" points="665.31,68,656.31,64,660.31,68,656.31,72,665.31,68" style="stroke:#181818;stroke-width:1.0;"/></g><!--link Repositories to Repositories--><g id="link_Repositories_Repositories"><path codeLine="103" d="M1838.28,49.91 C1858.48,51.81 1873,57.84 1873,68 C1873,78.16 1864.4536,83.6281 1844.2536,85.5281 " fill="none" id="Repositories-to-Repositories" style="stroke:#181818;stroke-width:1.0;"/><polygon fill="#181818" points="1838.28,86.09,1847.615,89.2296,1843.258,85.6218,1846.8659,81.2648,1838.28,86.09" style="stroke:#181818;stroke-width:1.0;"/><text fill="#000000" font-family="sans-serif" font-size="13" lengthAdjust="spacing" textLength="49" x="1879" y="73.5283">instance</text></g><!--link Repositories to VehicleRepository--><g id="link_Repositories_VehicleRepository"><path codeLine="104" d="M1643.87,100.84 C1600.07,115.21 1558,129 1558,129 C1558,129 1302.5162,169.452 1064.9662,207.052 " fill="none" id="Repositories-to-VehicleRepository" style="stroke:#181818;stroke-width:1.0;"/><polygon fill="#181818" points="1059.04,207.99,1068.5547,210.5338,1063.9785,207.2083,1067.304,202.6322,1059.04,207.99" style="stroke:#181818;stroke-width:1.0;"/><text fill="#000000" font-family="sans-serif" font-size="13" lengthAdjust="spacing" textLength="101" x="1369" y="174.0283">vehicleRepository</text><text fill="#000000" font-family="sans-serif" font-size="13" lengthAdjust="spacing" textLength="7" x="1089.0072" y="198.1664">1</text></g><!--link Repositories to BrandRepository--><g id="link_Repositories_BrandRepository"><path codeLine="105" d="M1670.26,129.24 C1640.66,154.45 1613,178 1613,178 C1613,178 1569.3111,195.2474 1516.5811,216.0574 " fill="none" id="Repositories-to-BrandRepository" style="stroke:#181818;stroke-width:1.0;"/><polygon fill="#181818" points="1511,218.26,1520.84,218.6768,1515.6509,216.4245,1517.9032,211.2354,1511,218.26" style="stroke:#181818;stroke-width:1.0;"/><text fill="#000000" font-family="sans-serif" font-size="13" lengthAdjust="spacing" textLength="94" x="1635" y="174.0283">brandRepository</text><text fill="#000000" font-family="sans-serif" font-size="13" lengthAdjust="spacing" textLength="7" x="1518.8914" y="211.6725">1</text></g><!--link VehicleRepository to Vehicle--><g id="link_VehicleRepository_Vehicle"><path codeLine="107" d="M688.07,330.25 C700.29,421.44 723.0433,591.2031 739.8633,716.7531 " fill="none" id="VehicleRepository-to-Vehicle" style="stroke:#181818;stroke-width:1.0;"/><polygon fill="#181818" points="740.66,722.7,743.4295,713.2486,739.9961,717.7443,735.5004,714.3108,740.66,722.7" style="stroke:#181818;stroke-width:1.0;"/><text fill="#000000" font-family="sans-serif" font-size="13" lengthAdjust="spacing" textLength="5" x="734.5339" y="711.8036">*</text></g><!--link BrandRepository to Brand--><g id="link_BrandRepository_Brand"><path codeLine="109" d="M1363.47,330.3 C1350.9,365.51 1337.0066,404.429 1323.9066,441.139 " fill="none" id="BrandRepository-to-Brand" style="stroke:#181818;stroke-width:1.0;"/><polygon fill="#181818" points="1321.89,446.79,1328.6821,439.6579,1323.5705,442.0809,1321.1475,436.9692,1321.89,446.79" style="stroke:#181818;stroke-width:1.0;"/><text fill="#000000" font-family="sans-serif" font-size="13" lengthAdjust="spacing" textLength="5" x="1319.199" y="435.6594">*</text></g><!--reverse link Collaborator to VehicleFleetManager--><g id="link_Collaborator_VehicleFleetManager"><path codeLine="111" d="M273.0309,661.3839 C248.4209,734.6839 225.37,803.36 211.81,843.73 " fill="none" id="Collaborator-backto-VehicleFleetManager" style="stroke:#181818;stroke-width:1.0;"/><polygon fill="none" points="278.76,644.32,267.3429,659.4742,278.7189,663.2936,278.76,644.32" style="stroke:#181818;stroke-width:1.0;"/></g><!--link Collaborator to Vehicle--><g id="link_Collaborator_Vehicle"><path codeLine="112" d="M479.18,644.07 C511.37,669.62 540.7712,692.9589 573.6912,719.0989 " fill="none" id="Collaborator-to-Vehicle" style="stroke:#181818;stroke-width:1.0;"/><polygon fill="#181818" points="578.39,722.83,573.8291,714.1008,574.4743,719.7208,568.8544,720.3659,578.39,722.83" style="stroke:#181818;stroke-width:1.0;"/><text fill="#000000" font-family="sans-serif" font-size="13" lengthAdjust="spacing" textLength="33" x="542" y="689.0283">drives</text><text fill="#000000" font-family="sans-serif" font-size="13" lengthAdjust="spacing" textLength="5" x="483.1803" y="665.9203">*</text><text fill="#000000" font-family="sans-serif" font-size="13" lengthAdjust="spacing" textLength="5" x="563.8968" y="711.9403">*</text></g><!--reverse link VehicleFleetManager to Vehicle--><g id="link_VehicleFleetManager_Vehicle"><path codeLine="114" d="M293.24,868 C320.73,868 347.33,868 382.36,868 " fill="none" id="VehicleFleetManager-backto-Vehicle" style="stroke:#181818;stroke-width:1.0;"/><polygon fill="#181818" points="287.24,868,296.24,872,292.24,868,296.24,864,287.24,868" style="stroke:#181818;stroke-width:1.0;"/><text fill="#000000" font-family="sans-serif" font-size="13" lengthAdjust="spacing" textLength="59" x="305.25" y="861.0283">createdBy</text></g><!--link Brand to Model--><g id="link_Brand_Model"><path codeLine="116" d="M1287,588.19 C1276.83,659.1 1262.2419,760.7408 1253.8319,819.3708 " fill="none" id="Brand-to-Model" style="stroke:#181818;stroke-width:1.0;"/><polygon fill="#181818" points="1252.98,825.31,1258.2174,816.9691,1253.6899,820.3607,1250.2984,815.8332,1252.98,825.31" style="stroke:#181818;stroke-width:1.0;"/><text fill="#000000" font-family="sans-serif" font-size="13" lengthAdjust="spacing" textLength="21" x="1274" y="689.0283">has</text><text fill="#000000" font-family="sans-serif" font-size="13" lengthAdjust="spacing" textLength="7" x="1278.6711" y="610.0227">1</text><text fill="#000000" font-family="sans-serif" font-size="13" lengthAdjust="spacing" textLength="20" x="1232.3393" y="814.1838">1..*</text></g><!--link Brand to Vehicle--><g id="link_Brand_Vehicle"><path codeLine="117" d="M1189.62,588.19 C1130.09,626.82 1058.8233,673.0741 987.0833,719.6241 " fill="none" id="Brand-to-Vehicle" style="stroke:#181818;stroke-width:1.0;"/><polygon fill="#181818" points="982.05,722.89,991.7772,721.3466,986.2444,720.1684,987.4226,714.6356,982.05,722.89" style="stroke:#181818;stroke-width:1.0;"/><text fill="#000000" font-family="sans-serif" font-size="13" lengthAdjust="spacing" textLength="21" x="1045" y="689.0283">has</text><text fill="#000000" font-family="sans-serif" font-size="13" lengthAdjust="spacing" textLength="7" x="1173.4377" y="608.7839">1</text><text fill="#000000" font-family="sans-serif" font-size="13" lengthAdjust="spacing" textLength="20" x="973.6465" y="711.5237">1..*</text></g><!--link Vehicle to Model--><g id="link_Vehicle_Model"><path codeLine="119" d="M1137.71,868 C1159.41,868 1173.05,868 1189.49,868 " fill="none" id="Vehicle-to-Model" style="stroke:#181818;stroke-width:1.0;"/><polygon fill="#181818" points="1195.49,868,1186.49,864,1190.49,868,1186.49,872,1195.49,868" style="stroke:#181818;stroke-width:1.0;"/><text fill="#000000" font-family="sans-serif" font-size="13" lengthAdjust="spacing" textLength="21" x="1156" y="861.0283">has</text><text fill="#000000" font-family="sans-serif" font-size="13" lengthAdjust="spacing" textLength="20" x="1145.5854" y="882.2032">1..*</text><text fill="#000000" font-family="sans-serif" font-size="13" lengthAdjust="spacing" textLength="7" x="1180.4104" y="863.7835">1</text></g><!--SRC=[nLLDRzim3BtxLmYzD6tbOhjcGO2cGu5kIpSqw7PMR3RM8akkf6J8jlxtKHzEP2TfTndMGnsJVEJZ4ocVcYMN3TEi9hMIggYqge5OlO9ivsbOiMGBcDcD0AAXi4mkH1fWAbQg7rmko2CJ9lK8Bi5k6Y2D4XltafqUS2fjLPQW2i6CkR9My_dAmcsXv8p_1F8coqu5F5fY5T5yKLbISaU7Avbb7aCccicI_Ce8_kKpJ82S9AiX63vnOybegaeGO-mN7vbtN7ZOm0MU1GChInysy57HM37ZZPFD7KO6rvt7FBVrlVzG_P0Xv9HTp5UeU87AHbHeOUx-1qF86UYcUPrqmV0e54DLcEwyBxGovXiueOAPIqkAbTOWxSSwcDupwuvqWSA0TY-9cHLFAswuatVdyJagA9QhvaR3qmfaiUcm4hm0QU2Bs4ASwgDhXtbenW7yq3ZZkwXA563W6gAk2vfGfrl6DEL9U-nednHDYL0l9qqECrypmKjqjSNNuPcSotqi5oEkbRHQ2G4QJoeGFnenY4KMOCDe-VfkLcWoDJw7xkRuvoBqIHnhz-4Mszmwhx4jDbUQMQLVMQ_PaWjSB-CUmVv1pSbtDKz6omd_-N72jQtIWIjhRandtAxAKWFMP-6vcy6cKXBkLlKST8SDr8oBP5IBv3VJPKG4wTEc_5BIb1Zjyg4j1vhMfg4WnK8qAR2_tJS2m4wPn7jKfyBUGwFm09NcODgvobDZ7AKB7ALRQV3gBM1mHeOTu3OY5jlwDWdQ3sB7q-UuSxP7x5StUiSahaWaYNBixSxBc_LVvhrT-kVE9-98gzutZfVlzakGh71FpibcscxIeB_O-BM8CTwzNJvFvVZTSZdkpiGGh-Vaf5y4dhmzsJ_Bro4zHLu2f8Y_Y9k6R-p-rUAxF89syOa0-PuWFEv1Bou_8W0YrWT4EG3jZyOmJ482o_QpvnvzlYsSPVqqRK1GBUlSfMJqEy_9eLkY6-VmtJh8hjHyZJEH7RfZHhkiGr9em8N0KOpaVBUXwylBytXEc11dzd30hgOBQGkstZmvxHZo1m00]--></g></svg>