<?xml version="1.0" encoding="us-ascii" standalone="no"?><svg xmlns="http://www.w3.org/2000/svg" xmlns:xlink="http://www.w3.org/1999/xlink" contentStyleType="text/css" height="1038px" preserveAspectRatio="none" style="width:2186px;height:1038px;background:#FFFFFF;" version="1.1" viewBox="0 0 2186 1038" width="2186px" zoomAndPan="magnify"><defs/><g><!--class Brand--><g id="elem_Brand"><rect codeLine="11" fill="#F1F1F1" height="178.3477" id="Brand" rx="2.5" ry="2.5" style="stroke:#181818;stroke-width:0.5;" width="190" x="1564.5" y="503"/><ellipse cx="1636.25" cy="519" fill="#ADD1B2" rx="11" ry="11" style="stroke:#181818;stroke-width:1.0;"/><path d="M1639.0156,514.875 Q1639.1719,514.6563 1639.3594,514.5469 Q1639.5469,514.4375 1639.7656,514.4375 Q1640.1406,514.4375 1640.375,514.7031 Q1640.6094,514.9531 1640.6094,515.5625 L1640.6094,517.0156 Q1640.6094,517.625 1640.375,517.8906 Q1640.1406,518.1563 1639.7656,518.1563 Q1639.4219,518.1563 1639.2188,517.9531 Q1639.0156,517.7656 1638.9063,517.25 Q1638.8594,516.8906 1638.6719,516.7031 Q1638.3438,516.3281 1637.7344,516.1094 Q1637.125,515.8906 1636.5,515.8906 Q1635.7344,515.8906 1635.0938,516.2188 Q1634.4688,516.5469 1633.9688,517.2969 Q1633.4844,518.0469 1633.4844,519.0781 L1633.4844,520.1719 Q1633.4844,521.4063 1634.375,522.2344 Q1635.2656,523.0469 1636.8594,523.0469 Q1637.7969,523.0469 1638.4531,522.7969 Q1638.8438,522.6406 1639.2656,522.2031 Q1639.5313,521.9375 1639.6719,521.8594 Q1639.8281,521.7813 1640.0313,521.7813 Q1640.3594,521.7813 1640.6094,522.0469 Q1640.875,522.2969 1640.875,522.6406 Q1640.875,522.9844 1640.5313,523.3906 Q1640.0313,523.9688 1639.2344,524.2969 Q1638.1563,524.75 1636.8594,524.75 Q1635.3438,524.75 1634.1406,524.125 Q1633.1563,523.625 1632.4688,522.5625 Q1631.7813,521.4844 1631.7813,520.2031 L1631.7813,519.0469 Q1631.7813,517.7188 1632.3906,516.5781 Q1633.0156,515.4219 1634.1094,514.8125 Q1635.2031,514.1875 1636.4375,514.1875 Q1637.1719,514.1875 1637.8125,514.3594 Q1638.4688,514.5156 1639.0156,514.875 Z " fill="#000000"/><text fill="#000000" font-family="sans-serif" font-size="14" lengthAdjust="spacing" textLength="38" x="1656.75" y="524.7969">Brand</text><line style="stroke:#181818;stroke-width:0.5;" x1="1565.5" x2="1753.5" y1="535" y2="535"/><text fill="#000000" font-family="sans-serif" font-size="14" lengthAdjust="spacing" textLength="81" x="1570.5" y="554.1074">-String name</text><text fill="#000000" font-family="sans-serif" font-size="14" lengthAdjust="spacing" textLength="127" x="1570.5" y="572.7285">-List &lt;Model&gt; model</text><line style="stroke:#181818;stroke-width:0.5;" x1="1565.5" x2="1753.5" y1="580.2422" y2="580.2422"/><text fill="#000000" font-family="sans-serif" font-size="14" lengthAdjust="spacing" textLength="115" x="1570.5" y="599.3496">-addModel(model)</text><text fill="#000000" font-family="sans-serif" font-size="14" lengthAdjust="spacing" textLength="139" x="1570.5" y="617.9707">-validateBrand(brand)</text><text fill="#000000" font-family="sans-serif" font-size="14" lengthAdjust="spacing" textLength="140" x="1570.5" y="636.5918">-validateModel(model)</text><text fill="#000000" font-family="sans-serif" font-size="14" lengthAdjust="spacing" textLength="91" x="1570.5" y="655.2129">+Brand(name)</text><text fill="#000000" font-family="sans-serif" font-size="14" lengthAdjust="spacing" textLength="178" x="1570.5" y="673.834">+registerModel(modelName)</text></g><!--class Model--><g id="elem_Model"><rect codeLine="22" fill="#F1F1F1" height="103.8633" id="Model" rx="2.5" ry="2.5" style="stroke:#181818;stroke-width:0.5;" width="152" x="1583.5" y="843.5"/><ellipse cx="1636.25" cy="859.5" fill="#ADD1B2" rx="11" ry="11" style="stroke:#181818;stroke-width:1.0;"/><path d="M1639.0156,855.375 Q1639.1719,855.1563 1639.3594,855.0469 Q1639.5469,854.9375 1639.7656,854.9375 Q1640.1406,854.9375 1640.375,855.2031 Q1640.6094,855.4531 1640.6094,856.0625 L1640.6094,857.5156 Q1640.6094,858.125 1640.375,858.3906 Q1640.1406,858.6563 1639.7656,858.6563 Q1639.4219,858.6563 1639.2188,858.4531 Q1639.0156,858.2656 1638.9063,857.75 Q1638.8594,857.3906 1638.6719,857.2031 Q1638.3438,856.8281 1637.7344,856.6094 Q1637.125,856.3906 1636.5,856.3906 Q1635.7344,856.3906 1635.0938,856.7188 Q1634.4688,857.0469 1633.9688,857.7969 Q1633.4844,858.5469 1633.4844,859.5781 L1633.4844,860.6719 Q1633.4844,861.9063 1634.375,862.7344 Q1635.2656,863.5469 1636.8594,863.5469 Q1637.7969,863.5469 1638.4531,863.2969 Q1638.8438,863.1406 1639.2656,862.7031 Q1639.5313,862.4375 1639.6719,862.3594 Q1639.8281,862.2813 1640.0313,862.2813 Q1640.3594,862.2813 1640.6094,862.5469 Q1640.875,862.7969 1640.875,863.1406 Q1640.875,863.4844 1640.5313,863.8906 Q1640.0313,864.4688 1639.2344,864.7969 Q1638.1563,865.25 1636.8594,865.25 Q1635.3438,865.25 1634.1406,864.625 Q1633.1563,864.125 1632.4688,863.0625 Q1631.7813,861.9844 1631.7813,860.7031 L1631.7813,859.5469 Q1631.7813,858.2188 1632.3906,857.0781 Q1633.0156,855.9219 1634.1094,855.3125 Q1635.2031,854.6875 1636.4375,854.6875 Q1637.1719,854.6875 1637.8125,854.8594 Q1638.4688,855.0156 1639.0156,855.375 Z " fill="#000000"/><text fill="#000000" font-family="sans-serif" font-size="14" lengthAdjust="spacing" textLength="38" x="1656.75" y="865.2969">Model</text><line style="stroke:#181818;stroke-width:0.5;" x1="1584.5" x2="1734.5" y1="875.5" y2="875.5"/><text fill="#000000" font-family="sans-serif" font-size="14" lengthAdjust="spacing" textLength="81" x="1589.5" y="894.6074">-String name</text><line style="stroke:#181818;stroke-width:0.5;" x1="1584.5" x2="1734.5" y1="902.1211" y2="902.1211"/><text fill="#000000" font-family="sans-serif" font-size="14" lengthAdjust="spacing" textLength="140" x="1589.5" y="921.2285">-validateModel(model)</text><text fill="#000000" font-family="sans-serif" font-size="14" lengthAdjust="spacing" textLength="91" x="1589.5" y="939.8496">+Model(name)</text></g><!--class Vehicle--><g id="elem_Vehicle"><rect codeLine="29" fill="#F1F1F1" height="271.4531" id="Vehicle" rx="2.5" ry="2.5" style="stroke:#181818;stroke-width:0.5;" width="755" x="771" y="760"/><ellipse cx="1121.25" cy="776" fill="#ADD1B2" rx="11" ry="11" style="stroke:#181818;stroke-width:1.0;"/><path d="M1124.0156,771.875 Q1124.1719,771.6563 1124.3594,771.5469 Q1124.5469,771.4375 1124.7656,771.4375 Q1125.1406,771.4375 1125.375,771.7031 Q1125.6094,771.9531 1125.6094,772.5625 L1125.6094,774.0156 Q1125.6094,774.625 1125.375,774.8906 Q1125.1406,775.1563 1124.7656,775.1563 Q1124.4219,775.1563 1124.2188,774.9531 Q1124.0156,774.7656 1123.9063,774.25 Q1123.8594,773.8906 1123.6719,773.7031 Q1123.3438,773.3281 1122.7344,773.1094 Q1122.125,772.8906 1121.5,772.8906 Q1120.7344,772.8906 1120.0938,773.2188 Q1119.4688,773.5469 1118.9688,774.2969 Q1118.4844,775.0469 1118.4844,776.0781 L1118.4844,777.1719 Q1118.4844,778.4063 1119.375,779.2344 Q1120.2656,780.0469 1121.8594,780.0469 Q1122.7969,780.0469 1123.4531,779.7969 Q1123.8438,779.6406 1124.2656,779.2031 Q1124.5313,778.9375 1124.6719,778.8594 Q1124.8281,778.7813 1125.0313,778.7813 Q1125.3594,778.7813 1125.6094,779.0469 Q1125.875,779.2969 1125.875,779.6406 Q1125.875,779.9844 1125.5313,780.3906 Q1125.0313,780.9688 1124.2344,781.2969 Q1123.1563,781.75 1121.8594,781.75 Q1120.3438,781.75 1119.1406,781.125 Q1118.1563,780.625 1117.4688,779.5625 Q1116.7813,778.4844 1116.7813,777.2031 L1116.7813,776.0469 Q1116.7813,774.7188 1117.3906,773.5781 Q1118.0156,772.4219 1119.1094,771.8125 Q1120.2031,771.1875 1121.4375,771.1875 Q1122.1719,771.1875 1122.8125,771.3594 Q1123.4688,771.5156 1124.0156,771.875 Z " fill="#000000"/><text fill="#000000" font-family="sans-serif" font-size="14" lengthAdjust="spacing" textLength="46" x="1141.75" y="781.7969">Vehicle</text><line style="stroke:#181818;stroke-width:0.5;" x1="772" x2="1525" y1="792" y2="792"/><text fill="#000000" font-family="sans-serif" font-size="14" lengthAdjust="spacing" textLength="84" x="777" y="811.1074">-Brand brand</text><text fill="#000000" font-family="sans-serif" font-size="14" lengthAdjust="spacing" textLength="85" x="777" y="829.7285">-Model model</text><text fill="#000000" font-family="sans-serif" font-size="14" lengthAdjust="spacing" textLength="73" x="777" y="848.3496">-String type</text><text fill="#000000" font-family="sans-serif" font-size="14" lengthAdjust="spacing" textLength="61" x="777" y="866.9707">-float tare</text><text fill="#000000" font-family="sans-serif" font-size="14" lengthAdjust="spacing" textLength="115" x="777" y="885.5918">-float grossWeight</text><text fill="#000000" font-family="sans-serif" font-size="14" lengthAdjust="spacing" textLength="89" x="777" y="904.2129">-int currentKm</text><text fill="#000000" font-family="sans-serif" font-size="14" lengthAdjust="spacing" textLength="117" x="777" y="922.834">-Date registerDate</text><text fill="#000000" font-family="sans-serif" font-size="14" lengthAdjust="spacing" textLength="136" x="777" y="941.4551">-Date acquisitionDate</text><text fill="#000000" font-family="sans-serif" font-size="14" lengthAdjust="spacing" textLength="145" x="777" y="960.0762">-int checkupFrequency</text><text fill="#000000" font-family="sans-serif" font-size="14" lengthAdjust="spacing" textLength="122" x="777" y="978.6973">-String licensePlate</text><line style="stroke:#181818;stroke-width:0.5;" x1="772" x2="1525" y1="986.2109" y2="986.2109"/><text fill="#000000" font-family="sans-serif" font-size="14" lengthAdjust="spacing" textLength="154" x="777" y="1005.3184">-validateVehicle(vehicle)</text><text fill="#000000" font-family="sans-serif" font-size="14" lengthAdjust="spacing" textLength="743" x="777" y="1023.9395">+Vehicle(brand,model,type,tare,grossWeight,currentKm,registerDate,acquisitionDate,checkupFrequency,licensePlate)</text></g><!--class RegisterVehicleController--><g id="elem_RegisterVehicleController"><rect codeLine="45" fill="#F1F1F1" height="85.2422" id="RegisterVehicleController" rx="2.5" ry="2.5" style="stroke:#181818;stroke-width:0.5;" width="875" x="185" y="25.5"/><ellipse cx="537.75" cy="41.5" fill="#ADD1B2" rx="11" ry="11" style="stroke:#181818;stroke-width:1.0;"/><path d="M540.5156,37.375 Q540.6719,37.1563 540.8594,37.0469 Q541.0469,36.9375 541.2656,36.9375 Q541.6406,36.9375 541.875,37.2031 Q542.1094,37.4531 542.1094,38.0625 L542.1094,39.5156 Q542.1094,40.125 541.875,40.3906 Q541.6406,40.6563 541.2656,40.6563 Q540.9219,40.6563 540.7188,40.4531 Q540.5156,40.2656 540.4063,39.75 Q540.3594,39.3906 540.1719,39.2031 Q539.8438,38.8281 539.2344,38.6094 Q538.625,38.3906 538,38.3906 Q537.2344,38.3906 536.5938,38.7188 Q535.9688,39.0469 535.4688,39.7969 Q534.9844,40.5469 534.9844,41.5781 L534.9844,42.6719 Q534.9844,43.9063 535.875,44.7344 Q536.7656,45.5469 538.3594,45.5469 Q539.2969,45.5469 539.9531,45.2969 Q540.3438,45.1406 540.7656,44.7031 Q541.0313,44.4375 541.1719,44.3594 Q541.3281,44.2813 541.5313,44.2813 Q541.8594,44.2813 542.1094,44.5469 Q542.375,44.7969 542.375,45.1406 Q542.375,45.4844 542.0313,45.8906 Q541.5313,46.4688 540.7344,46.7969 Q539.6563,47.25 538.3594,47.25 Q536.8438,47.25 535.6406,46.625 Q534.6563,46.125 533.9688,45.0625 Q533.2813,43.9844 533.2813,42.7031 L533.2813,41.5469 Q533.2813,40.2188 533.8906,39.0781 Q534.5156,37.9219 535.6094,37.3125 Q536.7031,36.6875 537.9375,36.6875 Q538.6719,36.6875 539.3125,36.8594 Q539.9688,37.0156 540.5156,37.375 Z " fill="#000000"/><text fill="#000000" font-family="sans-serif" font-size="14" lengthAdjust="spacing" textLength="161" x="558.25" y="47.2969">RegisterVehicleController</text><line style="stroke:#181818;stroke-width:0.5;" x1="186" x2="1059" y1="57.5" y2="57.5"/><line style="stroke:#181818;stroke-width:0.5;" x1="186" x2="1059" y1="65.5" y2="65.5"/><text fill="#000000" font-family="sans-serif" font-size="14" lengthAdjust="spacing" textLength="179" x="191" y="84.6074">+RegisterVehicleController()</text><text fill="#000000" font-family="sans-serif" font-size="14" lengthAdjust="spacing" textLength="863" x="191" y="103.2285">+registerVehicle(brandName,modelName,type,tare,grossWeight,currentKm,registerDate,acquisitionDate,checkupFrequency,licensePlate)</text></g><!--class RegisterVehicleUI--><g id="elem_RegisterVehicleUI"><rect codeLine="51" fill="#F1F1F1" height="48" id="RegisterVehicleUI" rx="2.5" ry="2.5" style="stroke:#181818;stroke-width:0.5;" width="143" x="7" y="44"/><ellipse cx="22" cy="60" fill="#ADD1B2" rx="11" ry="11" style="stroke:#181818;stroke-width:1.0;"/><path d="M24.7656,55.875 Q24.9219,55.6563 25.1094,55.5469 Q25.2969,55.4375 25.5156,55.4375 Q25.8906,55.4375 26.125,55.7031 Q26.3594,55.9531 26.3594,56.5625 L26.3594,58.0156 Q26.3594,58.625 26.125,58.8906 Q25.8906,59.1563 25.5156,59.1563 Q25.1719,59.1563 24.9688,58.9531 Q24.7656,58.7656 24.6563,58.25 Q24.6094,57.8906 24.4219,57.7031 Q24.0938,57.3281 23.4844,57.1094 Q22.875,56.8906 22.25,56.8906 Q21.4844,56.8906 20.8438,57.2188 Q20.2188,57.5469 19.7188,58.2969 Q19.2344,59.0469 19.2344,60.0781 L19.2344,61.1719 Q19.2344,62.4063 20.125,63.2344 Q21.0156,64.0469 22.6094,64.0469 Q23.5469,64.0469 24.2031,63.7969 Q24.5938,63.6406 25.0156,63.2031 Q25.2813,62.9375 25.4219,62.8594 Q25.5781,62.7813 25.7813,62.7813 Q26.1094,62.7813 26.3594,63.0469 Q26.625,63.2969 26.625,63.6406 Q26.625,63.9844 26.2813,64.3906 Q25.7813,64.9688 24.9844,65.2969 Q23.9063,65.75 22.6094,65.75 Q21.0938,65.75 19.8906,65.125 Q18.9063,64.625 18.2188,63.5625 Q17.5313,62.4844 17.5313,61.2031 L17.5313,60.0469 Q17.5313,58.7188 18.1406,57.5781 Q18.7656,56.4219 19.8594,55.8125 Q20.9531,55.1875 22.1875,55.1875 Q22.9219,55.1875 23.5625,55.3594 Q24.2188,55.5156 24.7656,55.875 Z " fill="#000000"/><text fill="#000000" font-family="sans-serif" font-size="14" lengthAdjust="spacing" textLength="111" x="36" y="65.7969">RegisterVehicleUI</text><line style="stroke:#181818;stroke-width:0.5;" x1="8" x2="149" y1="76" y2="76"/><line style="stroke:#181818;stroke-width:0.5;" x1="8" x2="149" y1="84" y2="84"/></g><!--class Collaborator--><g id="elem_Collaborator"><rect codeLine="54" fill="#F1F1F1" height="215.5898" id="Collaborator" rx="2.5" ry="2.5" style="stroke:#181818;stroke-width:0.5;" width="628" x="488.5" y="208"/><ellipse cx="759.25" cy="224" fill="#ADD1B2" rx="11" ry="11" style="stroke:#181818;stroke-width:1.0;"/><path d="M762.0156,219.875 Q762.1719,219.6563 762.3594,219.5469 Q762.5469,219.4375 762.7656,219.4375 Q763.1406,219.4375 763.375,219.7031 Q763.6094,219.9531 763.6094,220.5625 L763.6094,222.0156 Q763.6094,222.625 763.375,222.8906 Q763.1406,223.1563 762.7656,223.1563 Q762.4219,223.1563 762.2188,222.9531 Q762.0156,222.7656 761.9063,222.25 Q761.8594,221.8906 761.6719,221.7031 Q761.3438,221.3281 760.7344,221.1094 Q760.125,220.8906 759.5,220.8906 Q758.7344,220.8906 758.0938,221.2188 Q757.4688,221.5469 756.9688,222.2969 Q756.4844,223.0469 756.4844,224.0781 L756.4844,225.1719 Q756.4844,226.4063 757.375,227.2344 Q758.2656,228.0469 759.8594,228.0469 Q760.7969,228.0469 761.4531,227.7969 Q761.8438,227.6406 762.2656,227.2031 Q762.5313,226.9375 762.6719,226.8594 Q762.8281,226.7813 763.0313,226.7813 Q763.3594,226.7813 763.6094,227.0469 Q763.875,227.2969 763.875,227.6406 Q763.875,227.9844 763.5313,228.3906 Q763.0313,228.9688 762.2344,229.2969 Q761.1563,229.75 759.8594,229.75 Q758.3438,229.75 757.1406,229.125 Q756.1563,228.625 755.4688,227.5625 Q754.7813,226.4844 754.7813,225.2031 L754.7813,224.0469 Q754.7813,222.7188 755.3906,221.5781 Q756.0156,220.4219 757.1094,219.8125 Q758.2031,219.1875 759.4375,219.1875 Q760.1719,219.1875 760.8125,219.3594 Q761.4688,219.5156 762.0156,219.875 Z " fill="#000000"/><text fill="#000000" font-family="sans-serif" font-size="14" lengthAdjust="spacing" textLength="78" x="779.75" y="229.7969">Collaborator</text><line style="stroke:#181818;stroke-width:0.5;" x1="489.5" x2="1115.5" y1="240" y2="240"/><text fill="#000000" font-family="sans-serif" font-size="14" lengthAdjust="spacing" textLength="81" x="494.5" y="259.1074">-String name</text><text fill="#000000" font-family="sans-serif" font-size="14" lengthAdjust="spacing" textLength="111" x="494.5" y="277.7285">-Date dateOfBirth</text><text fill="#000000" font-family="sans-serif" font-size="14" lengthAdjust="spacing" textLength="132" x="494.5" y="296.3496">-Date admissionDate</text><text fill="#000000" font-family="sans-serif" font-size="14" lengthAdjust="spacing" textLength="112" x="494.5" y="314.9707">-Address address</text><text fill="#000000" font-family="sans-serif" font-size="14" lengthAdjust="spacing" textLength="113" x="494.5" y="333.5918">-int phoneNumber</text><text fill="#000000" font-family="sans-serif" font-size="14" lengthAdjust="spacing" textLength="79" x="494.5" y="352.2129">-String email</text><text fill="#000000" font-family="sans-serif" font-size="14" lengthAdjust="spacing" textLength="38" x="494.5" y="370.834">-int cc</text><text fill="#000000" font-family="sans-serif" font-size="14" lengthAdjust="spacing" textLength="101" x="494.5" y="389.4551">-int cardNumber</text><line style="stroke:#181818;stroke-width:0.5;" x1="489.5" x2="1115.5" y1="396.9688" y2="396.9688"/><text fill="#000000" font-family="sans-serif" font-size="14" lengthAdjust="spacing" textLength="616" x="494.5" y="416.0762">+Collaborator(name, dateOfBirth, admissionDate, address, phoneNumber, email, cc, cardNumber)</text></g><!--class VehicleFleetManager--><g id="elem_VehicleFleetManager"><rect codeLine="67" fill="#F1F1F1" height="48" id="VehicleFleetManager" rx="2.5" ry="2.5" style="stroke:#181818;stroke-width:0.5;" width="166" x="719.5" y="568"/><ellipse cx="734.5" cy="584" fill="#ADD1B2" rx="11" ry="11" style="stroke:#181818;stroke-width:1.0;"/><path d="M737.2656,579.875 Q737.4219,579.6563 737.6094,579.5469 Q737.7969,579.4375 738.0156,579.4375 Q738.3906,579.4375 738.625,579.7031 Q738.8594,579.9531 738.8594,580.5625 L738.8594,582.0156 Q738.8594,582.625 738.625,582.8906 Q738.3906,583.1563 738.0156,583.1563 Q737.6719,583.1563 737.4688,582.9531 Q737.2656,582.7656 737.1563,582.25 Q737.1094,581.8906 736.9219,581.7031 Q736.5938,581.3281 735.9844,581.1094 Q735.375,580.8906 734.75,580.8906 Q733.9844,580.8906 733.3438,581.2188 Q732.7188,581.5469 732.2188,582.2969 Q731.7344,583.0469 731.7344,584.0781 L731.7344,585.1719 Q731.7344,586.4063 732.625,587.2344 Q733.5156,588.0469 735.1094,588.0469 Q736.0469,588.0469 736.7031,587.7969 Q737.0938,587.6406 737.5156,587.2031 Q737.7813,586.9375 737.9219,586.8594 Q738.0781,586.7813 738.2813,586.7813 Q738.6094,586.7813 738.8594,587.0469 Q739.125,587.2969 739.125,587.6406 Q739.125,587.9844 738.7813,588.3906 Q738.2813,588.9688 737.4844,589.2969 Q736.4063,589.75 735.1094,589.75 Q733.5938,589.75 732.3906,589.125 Q731.4063,588.625 730.7188,587.5625 Q730.0313,586.4844 730.0313,585.2031 L730.0313,584.0469 Q730.0313,582.7188 730.6406,581.5781 Q731.2656,580.4219 732.3594,579.8125 Q733.4531,579.1875 734.6875,579.1875 Q735.4219,579.1875 736.0625,579.3594 Q736.7188,579.5156 737.2656,579.875 Z " fill="#000000"/><text fill="#000000" font-family="sans-serif" font-size="14" lengthAdjust="spacing" textLength="134" x="748.5" y="589.7969">VehicleFleetManager</text><line style="stroke:#181818;stroke-width:0.5;" x1="720.5" x2="884.5" y1="600" y2="600"/><line style="stroke:#181818;stroke-width:0.5;" x1="720.5" x2="884.5" y1="608" y2="608"/></g><!--class Repositories--><g id="elem_Repositories"><rect codeLine="70" fill="#F1F1F1" height="122.4844" id="Repositories" rx="2.5" ry="2.5" style="stroke:#181818;stroke-width:0.5;" width="194" x="1456.5" y="7"/><ellipse cx="1509.75" cy="23" fill="#ADD1B2" rx="11" ry="11" style="stroke:#181818;stroke-width:1.0;"/><path d="M1512.5156,18.875 Q1512.6719,18.6563 1512.8594,18.5469 Q1513.0469,18.4375 1513.2656,18.4375 Q1513.6406,18.4375 1513.875,18.7031 Q1514.1094,18.9531 1514.1094,19.5625 L1514.1094,21.0156 Q1514.1094,21.625 1513.875,21.8906 Q1513.6406,22.1563 1513.2656,22.1563 Q1512.9219,22.1563 1512.7188,21.9531 Q1512.5156,21.7656 1512.4063,21.25 Q1512.3594,20.8906 1512.1719,20.7031 Q1511.8438,20.3281 1511.2344,20.1094 Q1510.625,19.8906 1510,19.8906 Q1509.2344,19.8906 1508.5938,20.2188 Q1507.9688,20.5469 1507.4688,21.2969 Q1506.9844,22.0469 1506.9844,23.0781 L1506.9844,24.1719 Q1506.9844,25.4063 1507.875,26.2344 Q1508.7656,27.0469 1510.3594,27.0469 Q1511.2969,27.0469 1511.9531,26.7969 Q1512.3438,26.6406 1512.7656,26.2031 Q1513.0313,25.9375 1513.1719,25.8594 Q1513.3281,25.7813 1513.5313,25.7813 Q1513.8594,25.7813 1514.1094,26.0469 Q1514.375,26.2969 1514.375,26.6406 Q1514.375,26.9844 1514.0313,27.3906 Q1513.5313,27.9688 1512.7344,28.2969 Q1511.6563,28.75 1510.3594,28.75 Q1508.8438,28.75 1507.6406,28.125 Q1506.6563,27.625 1505.9688,26.5625 Q1505.2813,25.4844 1505.2813,24.2031 L1505.2813,23.0469 Q1505.2813,21.7188 1505.8906,20.5781 Q1506.5156,19.4219 1507.6094,18.8125 Q1508.7031,18.1875 1509.9375,18.1875 Q1510.6719,18.1875 1511.3125,18.3594 Q1511.9688,18.5156 1512.5156,18.875 Z " fill="#000000"/><text fill="#000000" font-family="sans-serif" font-size="14" lengthAdjust="spacing" textLength="79" x="1530.25" y="28.7969">Repositories</text><line style="stroke:#181818;stroke-width:0.5;" x1="1457.5" x2="1649.5" y1="39" y2="39"/><line style="stroke:#181818;stroke-width:0.5;" x1="1457.5" x2="1649.5" y1="47" y2="47"/><text fill="#000000" font-family="sans-serif" font-size="14" lengthAdjust="spacing" textLength="94" x="1462.5" y="66.1074">-Repositories()</text><text fill="#000000" font-family="sans-serif" font-size="14" lengthAdjust="spacing" textLength="182" x="1462.5" y="84.7285">+getInstance() : Repositories</text><text fill="#000000" font-family="sans-serif" font-size="14" lengthAdjust="spacing" textLength="152" x="1462.5" y="103.3496">+getVehicleRepository()</text><text fill="#000000" font-family="sans-serif" font-size="14" lengthAdjust="spacing" textLength="144" x="1462.5" y="121.9707">+getBrandRepository()</text></g><!--class vehicleRepository--><g id="elem_vehicleRepository"><rect codeLine="78" fill="#F1F1F1" height="122.4844" id="vehicleRepository" rx="2.5" ry="2.5" style="stroke:#181818;stroke-width:0.5;" width="803" x="1152" y="255"/><ellipse cx="1493.25" cy="271" fill="#ADD1B2" rx="11" ry="11" style="stroke:#181818;stroke-width:1.0;"/><path d="M1496.0156,266.875 Q1496.1719,266.6563 1496.3594,266.5469 Q1496.5469,266.4375 1496.7656,266.4375 Q1497.1406,266.4375 1497.375,266.7031 Q1497.6094,266.9531 1497.6094,267.5625 L1497.6094,269.0156 Q1497.6094,269.625 1497.375,269.8906 Q1497.1406,270.1563 1496.7656,270.1563 Q1496.4219,270.1563 1496.2188,269.9531 Q1496.0156,269.7656 1495.9063,269.25 Q1495.8594,268.8906 1495.6719,268.7031 Q1495.3438,268.3281 1494.7344,268.1094 Q1494.125,267.8906 1493.5,267.8906 Q1492.7344,267.8906 1492.0938,268.2188 Q1491.4688,268.5469 1490.9688,269.2969 Q1490.4844,270.0469 1490.4844,271.0781 L1490.4844,272.1719 Q1490.4844,273.4063 1491.375,274.2344 Q1492.2656,275.0469 1493.8594,275.0469 Q1494.7969,275.0469 1495.4531,274.7969 Q1495.8438,274.6406 1496.2656,274.2031 Q1496.5313,273.9375 1496.6719,273.8594 Q1496.8281,273.7813 1497.0313,273.7813 Q1497.3594,273.7813 1497.6094,274.0469 Q1497.875,274.2969 1497.875,274.6406 Q1497.875,274.9844 1497.5313,275.3906 Q1497.0313,275.9688 1496.2344,276.2969 Q1495.1563,276.75 1493.8594,276.75 Q1492.3438,276.75 1491.1406,276.125 Q1490.1563,275.625 1489.4688,274.5625 Q1488.7813,273.4844 1488.7813,272.2031 L1488.7813,271.0469 Q1488.7813,269.7188 1489.3906,268.5781 Q1490.0156,267.4219 1491.1094,266.8125 Q1492.2031,266.1875 1493.4375,266.1875 Q1494.1719,266.1875 1494.8125,266.3594 Q1495.4688,266.5156 1496.0156,266.875 Z " fill="#000000"/><text fill="#000000" font-family="sans-serif" font-size="14" lengthAdjust="spacing" textLength="112" x="1513.75" y="276.7969">vehicleRepository</text><line style="stroke:#181818;stroke-width:0.5;" x1="1153" x2="1954" y1="287" y2="287"/><text fill="#000000" font-family="sans-serif" font-size="14" lengthAdjust="spacing" textLength="137" x="1158" y="306.1074">-List&lt;Vehicle&gt; vehicle</text><line style="stroke:#181818;stroke-width:0.5;" x1="1153" x2="1954" y1="313.6211" y2="313.6211"/><text fill="#000000" font-family="sans-serif" font-size="14" lengthAdjust="spacing" textLength="129" x="1158" y="332.7285">-addVehicle(vehicle)</text><text fill="#000000" font-family="sans-serif" font-size="14" lengthAdjust="spacing" textLength="154" x="1158" y="351.3496">-validateVehicle(vehicle)</text><text fill="#000000" font-family="sans-serif" font-size="14" lengthAdjust="spacing" textLength="791" x="1158" y="369.9707">+registerVehicle(brand,model,type,tare,grossWeight,currentKm,registerDate,acquisitionDate,checkupFrequency,licensePlate)</text></g><!--class brandRepository--><g id="elem_brandRepository"><rect codeLine="86" fill="#F1F1F1" height="122.4844" id="brandRepository" rx="2.5" ry="2.5" style="stroke:#181818;stroke-width:0.5;" width="189" x="1990" y="255"/><ellipse cx="2028.4" cy="271" fill="#ADD1B2" rx="11" ry="11" style="stroke:#181818;stroke-width:1.0;"/><path d="M2031.1656,266.875 Q2031.3219,266.6563 2031.5094,266.5469 Q2031.6969,266.4375 2031.9156,266.4375 Q2032.2906,266.4375 2032.525,266.7031 Q2032.7594,266.9531 2032.7594,267.5625 L2032.7594,269.0156 Q2032.7594,269.625 2032.525,269.8906 Q2032.2906,270.1563 2031.9156,270.1563 Q2031.5719,270.1563 2031.3688,269.9531 Q2031.1656,269.7656 2031.0563,269.25 Q2031.0094,268.8906 2030.8219,268.7031 Q2030.4938,268.3281 2029.8844,268.1094 Q2029.275,267.8906 2028.65,267.8906 Q2027.8844,267.8906 2027.2438,268.2188 Q2026.6188,268.5469 2026.1188,269.2969 Q2025.6344,270.0469 2025.6344,271.0781 L2025.6344,272.1719 Q2025.6344,273.4063 2026.525,274.2344 Q2027.4156,275.0469 2029.0094,275.0469 Q2029.9469,275.0469 2030.6031,274.7969 Q2030.9938,274.6406 2031.4156,274.2031 Q2031.6813,273.9375 2031.8219,273.8594 Q2031.9781,273.7813 2032.1813,273.7813 Q2032.5094,273.7813 2032.7594,274.0469 Q2033.025,274.2969 2033.025,274.6406 Q2033.025,274.9844 2032.6813,275.3906 Q2032.1813,275.9688 2031.3844,276.2969 Q2030.3063,276.75 2029.0094,276.75 Q2027.4938,276.75 2026.2906,276.125 Q2025.3063,275.625 2024.6188,274.5625 Q2023.9313,273.4844 2023.9313,272.2031 L2023.9313,271.0469 Q2023.9313,269.7188 2024.5406,268.5781 Q2025.1656,267.4219 2026.2594,266.8125 Q2027.3531,266.1875 2028.5875,266.1875 Q2029.3219,266.1875 2029.9625,266.3594 Q2030.6188,266.5156 2031.1656,266.875 Z " fill="#000000"/><text fill="#000000" font-family="sans-serif" font-size="14" lengthAdjust="spacing" textLength="105" x="2047.6" y="276.7969">brandRepository</text><line style="stroke:#181818;stroke-width:0.5;" x1="1991" x2="2178" y1="287" y2="287"/><text fill="#000000" font-family="sans-serif" font-size="14" lengthAdjust="spacing" textLength="122" x="1996" y="306.1074">-List&lt;Brand&gt; brand</text><line style="stroke:#181818;stroke-width:0.5;" x1="1991" x2="2178" y1="313.6211" y2="313.6211"/><text fill="#000000" font-family="sans-serif" font-size="14" lengthAdjust="spacing" textLength="114" x="1996" y="332.7285">-addBrand(brand)</text><text fill="#000000" font-family="sans-serif" font-size="14" lengthAdjust="spacing" textLength="139" x="1996" y="351.3496">-validateBrand(brand)</text><text fill="#000000" font-family="sans-serif" font-size="14" lengthAdjust="spacing" textLength="177" x="1996" y="369.9707">+registerBrand(brandName)</text></g><!--link RegisterVehicleController to Repositories--><g id="link_RegisterVehicleController_Repositories"><path codeLine="94" d="M1060.06,68 C1208.51,68 1354.77,68 1450.14,68 " fill="none" id="RegisterVehicleController-to-Repositories" style="stroke:#181818;stroke-width:1.0;stroke-dasharray:7.0,7.0;"/><polygon fill="#181818" points="1456.14,68,1447.14,64,1451.14,68,1447.14,72,1456.14,68" style="stroke:#181818;stroke-width:1.0;"/><text fill="#000000" font-family="sans-serif" font-size="13" lengthAdjust="spacing" textLength="67" x="1224.75" y="61.0283">repositories</text></g><!--link RegisterVehicleUI to RegisterVehicleController--><g id="link_RegisterVehicleUI_RegisterVehicleController"><path codeLine="95" d="M150.17,68 C161.55,68 167.36,68 178.81,68 " fill="none" id="RegisterVehicleUI-to-RegisterVehicleController" style="stroke:#181818;stroke-width:1.0;stroke-dasharray:7.0,7.0;"/><polygon fill="#181818" points="184.81,68,175.81,64,179.81,68,175.81,72,184.81,68" style="stroke:#181818;stroke-width:1.0;"/></g><!--link Repositories to Repositories--><g id="link_Repositories_Repositories"><path codeLine="96" d="M1650.78,49.91 C1670.98,51.81 1685.5,57.84 1685.5,68 C1685.5,78.16 1676.9536,83.6281 1656.7536,85.5281 " fill="none" id="Repositories-to-Repositories" style="stroke:#181818;stroke-width:1.0;"/><polygon fill="#181818" points="1650.78,86.09,1660.115,89.2296,1655.758,85.6218,1659.3659,81.2648,1650.78,86.09" style="stroke:#181818;stroke-width:1.0;"/><text fill="#000000" font-family="sans-serif" font-size="13" lengthAdjust="spacing" textLength="49" x="1691.5" y="73.5283">instance</text></g><!--link Repositories to vehicleRepository--><g id="link_Repositories_vehicleRepository"><path codeLine="97" d="M1553.5,129.18 C1553.5,167.3 1553.5,210.43 1553.5,248.59 " fill="none" id="Repositories-to-vehicleRepository" style="stroke:#181818;stroke-width:1.0;"/><polygon fill="#181818" points="1553.5,254.59,1557.5,245.59,1553.5,249.59,1549.5,245.59,1553.5,254.59" style="stroke:#181818;stroke-width:1.0;"/><text fill="#000000" font-family="sans-serif" font-size="13" lengthAdjust="spacing" textLength="101" x="1554.5" y="174.0283">vehicleRepository</text><text fill="#000000" font-family="sans-serif" font-size="13" lengthAdjust="spacing" textLength="7" x="1546.0953" y="243.5238">1</text></g><!--link Repositories to brandRepository--><g id="link_Repositories_brandRepository"><path codeLine="98" d="M1650.68,101.24 C1774.46,142.3 1972.5,208 1972.5,208 C1972.5,208 1991.7516,226.3953 2017.2816,250.7853 " fill="none" id="Repositories-to-brandRepository" style="stroke:#181818;stroke-width:1.0;"/><polygon fill="#181818" points="2021.62,254.93,2017.8755,245.8207,2018.0047,251.4761,2012.3493,251.6053,2021.62,254.93" style="stroke:#181818;stroke-width:1.0;"/><text fill="#000000" font-family="sans-serif" font-size="13" lengthAdjust="spacing" textLength="94" x="1882.5" y="174.0283">brandRepository</text><text fill="#000000" font-family="sans-serif" font-size="13" lengthAdjust="spacing" textLength="7" x="2006.9448" y="243.9031">1</text></g><!--link vehicleRepository to Vehicle--><g id="link_vehicleRepository_Vehicle"><path codeLine="99" d="M1511.3,377.17 C1448.25,467.09 1331.225,633.9476 1246.455,754.8276 " fill="none" id="vehicleRepository-to-Vehicle" style="stroke:#181818;stroke-width:1.0;"/><polygon fill="#181818" points="1243.01,759.74,1251.4524,754.668,1245.8808,755.6463,1244.9025,750.0747,1243.01,759.74" style="stroke:#181818;stroke-width:1.0;"/><text fill="#000000" font-family="sans-serif" font-size="13" lengthAdjust="spacing" textLength="39" x="1417.5" y="597.5283">vehicle</text><text fill="#000000" font-family="sans-serif" font-size="13" lengthAdjust="spacing" textLength="5" x="1243.0418" y="748.8747">*</text></g><!--link brandRepository to Brand--><g id="link_brandRepository_Brand"><path codeLine="100" d="M2021.62,377.07 C1996.09,401.46 1972.5,424 1972.5,424 C1972.5,424 1852.0636,488.2555 1759.9836,537.3855 " fill="none" id="brandRepository-to-Brand" style="stroke:#181818;stroke-width:1.0;"/><polygon fill="#181818" points="1754.69,540.21,1764.5134,539.5024,1759.1014,537.8563,1760.7475,532.4442,1754.69,540.21" style="stroke:#181818;stroke-width:1.0;"/><text fill="#000000" font-family="sans-serif" font-size="13" lengthAdjust="spacing" textLength="32" x="1913.5" y="469.0283">brand</text><text fill="#000000" font-family="sans-serif" font-size="13" lengthAdjust="spacing" textLength="5" x="1762.4747" y="532.4317">*</text></g><!--reverse link Collaborator to VehicleFleetManager--><g id="link_Collaborator_VehicleFleetManager"><path codeLine="101" d="M802.5,442.11 C802.5,494.95 802.5,536.01 802.5,567.77 " fill="none" id="Collaborator-backto-VehicleFleetManager" style="stroke:#181818;stroke-width:1.0;"/><polygon fill="none" points="802.5,424.11,796.5,442.11,808.5,442.11,802.5,424.11" style="stroke:#181818;stroke-width:1.0;"/></g><!--link RegisterVehicleController to VehicleFleetManager--><g id="link_RegisterVehicleController_VehicleFleetManager"><path codeLine="102" d="M540.06,110.52 C458.74,151.47 346.5,208 346.5,208 C346.5,208 346.5,424 346.5,424 C346.5,424 608.8459,520.0767 733.9359,565.8867 " fill="none" id="RegisterVehicleController-to-VehicleFleetManager" style="stroke:#181818;stroke-width:1.0;stroke-dasharray:7.0,7.0;"/><polygon fill="#181818" points="739.57,567.95,732.4944,561.099,734.8749,566.2306,729.7434,568.6111,739.57,567.95" style="stroke:#181818;stroke-width:1.0;"/><text fill="#000000" font-family="sans-serif" font-size="13" lengthAdjust="spacing" textLength="122" x="347.5" y="321.5283">VehicleFleetManager</text><text fill="#000000" font-family="sans-serif" font-size="13" lengthAdjust="spacing" textLength="7" x="715.5473" y="556.6747">1</text></g><!--reverse link VehicleFleetManager to Vehicle--><g id="link_VehicleFleetManager_Vehicle"><path codeLine="103" d="M828.6798,620.5925 C865.7698,659.6825 932.5,730 932.5,730 C932.5,730 948.42,742.12 971.62,759.79 " fill="none" id="VehicleFleetManager-backto-Vehicle" style="stroke:#181818;stroke-width:1.0;"/><polygon fill="#181818" points="824.55,616.24,827.8431,625.522,827.9915,619.8671,833.6464,620.0156,824.55,616.24" style="stroke:#181818;stroke-width:1.0;"/><text fill="#000000" font-family="sans-serif" font-size="13" lengthAdjust="spacing" textLength="59" x="933.5" y="726.0283">createdBy</text></g><!--link Collaborator to Vehicle--><g id="link_Collaborator_Vehicle"><path codeLine="104" d="M866.77,424.27 C923.54,519.03 1003.5065,652.493 1064.7265,754.683 " fill="none" id="Collaborator-to-Vehicle" style="stroke:#181818;stroke-width:1.0;"/><polygon fill="#181818" points="1067.81,759.83,1066.6161,750.0538,1065.2404,755.5408,1059.7534,754.1651,1067.81,759.83" style="stroke:#181818;stroke-width:1.0;"/><text fill="#000000" font-family="sans-serif" font-size="13" lengthAdjust="spacing" textLength="33" x="1016.5" y="597.5283">drives</text><text fill="#000000" font-family="sans-serif" font-size="13" lengthAdjust="spacing" textLength="5" x="865.5341" y="445.4354">*</text><text fill="#000000" font-family="sans-serif" font-size="13" lengthAdjust="spacing" textLength="5" x="1058.0006" y="748.5188">*</text></g><!--link Brand to Model--><g id="link_Brand_Model"><path codeLine="105" d="M1659.5,681.02 C1659.5,733.68 1659.5,792.78 1659.5,837.15 " fill="none" id="Brand-to-Model" style="stroke:#181818;stroke-width:1.0;"/><polygon fill="#181818" points="1659.5,843.15,1663.5,834.15,1659.5,838.15,1655.5,834.15,1659.5,843.15" style="stroke:#181818;stroke-width:1.0;"/><text fill="#000000" font-family="sans-serif" font-size="13" lengthAdjust="spacing" textLength="35" x="1660.5" y="726.0283">model</text><text fill="#000000" font-family="sans-serif" font-size="13" lengthAdjust="spacing" textLength="7" x="1652.1992" y="703.4265">1</text><text fill="#000000" font-family="sans-serif" font-size="13" lengthAdjust="spacing" textLength="20" x="1638.2188" y="832.4093">1..*</text></g><!--link Brand to Vehicle--><g id="link_Brand_Vehicle"><path codeLine="106" d="M1564.28,649.18 C1511.23,680.48 1447.8678,717.8714 1381.8078,756.8414 " fill="none" id="Brand-to-Vehicle" style="stroke:#181818;stroke-width:1.0;"/><polygon fill="#181818" points="1376.64,759.89,1386.4241,758.7623,1380.9465,757.3495,1382.3593,751.8719,1376.64,759.89" style="stroke:#181818;stroke-width:1.0;"/><text fill="#000000" font-family="sans-serif" font-size="13" lengthAdjust="spacing" textLength="21" x="1450.5" y="726.0283">has</text><text fill="#000000" font-family="sans-serif" font-size="13" lengthAdjust="spacing" textLength="7" x="1549.4133" y="650.0853">1</text><text fill="#000000" font-family="sans-serif" font-size="13" lengthAdjust="spacing" textLength="20" x="1369.2512" y="748.5823">1..*</text></g><!--link Vehicle to Model--><g id="link_Vehicle_Model"><path codeLine="107" d="M1526.24,895.5 C1546.9,895.5 1560.16,895.5 1577.27,895.5 " fill="none" id="Vehicle-to-Model" style="stroke:#181818;stroke-width:1.0;"/><polygon fill="#181818" points="1583.27,895.5,1574.27,891.5,1578.27,895.5,1574.27,899.5,1583.27,895.5" style="stroke:#181818;stroke-width:1.0;"/><text fill="#000000" font-family="sans-serif" font-size="13" lengthAdjust="spacing" textLength="21" x="1544.25" y="888.5283">has</text><text fill="#000000" font-family="sans-serif" font-size="13" lengthAdjust="spacing" textLength="20" x="1534.116" y="909.6993">1..*</text><text fill="#000000" font-family="sans-serif" font-size="13" lengthAdjust="spacing" textLength="7" x="1568.4216" y="891.7127">1</text></g><!--SRC=[nLN9Rjim4BthAuXSuhIqqLu5mq2I8a3G9YqIj3tJr5WYGf4AIRbmbtylIL4oASd9hVN1icTvysRLkNvYeY6ArAYMGj9AoHgGKIraHqr3w1CfuT4SE205r11HyjX0LwIGFvWeqOvm7Miu4s0E3Q16yeFxavtFAAKoCekyA2TQNngZsBOrS4kbU6G_0RtBidCEEuECH8gLbK45StIO55dcVT2L8g90lp9aFqlqQ14iAK5g299FJ1kqlfC5y8tDs3woe255uSKBBxq8qZtXh206FEvYwxx7gedNsux5meNj9GfA6nbKP7plrNzwvbupo_prU9r8f83Ve6BKDgo7x4hZKmYIBcHNXIIiQqgGxBWajk14fO9IIQs_Wsj2a3DX46sL0c4-ra7smT8TKdT_OZcXpotJp7KlKdcO2kXJszmeU6v1q4DAZZCAGiCNxfn6jGavB_RTiwzFB_R9OvymTZbYbnUESi531ZYcZKTSyPWXZab5FNW88870jHH6ISv1sQu4RYTD5kFPIR9mquE7EVelsNozjLaCocjBccob8aQgVkOc- -SRxnhrUNV5bAaYAIbgfdKo39T5eS12a-xP2Ts0D9KKSD_MMr198AW9uqSpIgFVH1N18vGr9knt1yVCS4e8zoHm71nt4R6DXAC8qoMyuG3cZWXxHLLSj0Tef6s4L0nqFnBBH3fCGGdcLcXxUYaiBb2U61rDGhn1UOZz_GL8L0EH_TXlE1lkOgu3xAQtYuxcxCgzkf6pC_qlDtERrY9DrnTg4sxbCTKNNW8JrJ75I3MS_DDtORL9XoAtE56Zfole7KwWPGdKSWBDma2DxApXsVkpcPd8fx9vrt5ryx4acu8llVERi-75DKJBnd2zPVTA2-1PSe7G-lToYURsxwNYhphwSrkRpsBDMQwZm3cY2kny55U7b9-ZFqsuK6nlkzpbvPXq1Lsjh5Ntjix3-thMv0XK4TrpwvMXDJsCiyZ-0W00]--></g></svg>