<?xml version="1.0" encoding="us-ascii" standalone="no"?><svg xmlns="http://www.w3.org/2000/svg" xmlns:xlink="http://www.w3.org/1999/xlink" contentStyleType="text/css" height="979px" preserveAspectRatio="none" style="width:1203px;height:979px;background:#FFFFFF;" version="1.1" viewBox="0 0 1203 979" width="1203px" zoomAndPan="magnify"><defs/><g><text fill="#000000" font-family="sans-serif" font-size="14" font-weight="bold" lengthAdjust="spacing" textLength="354" x="426.75" y="30.1074">UI Sequence Diagram (SSD) - US01 - Register Skills</text><rect fill="#FFFFFF" height="745.0625" style="stroke:#181818;stroke-width:1.0;" width="10" x="113" y="133.2422"/><rect fill="#FFFFFF" height="31.291" style="stroke:#181818;stroke-width:1.0;" width="10" x="410" y="156.5332"/><rect fill="#FFFFFF" height="31.291" style="stroke:#181818;stroke-width:1.0;" width="10" x="410" y="219.1152"/><rect fill="#FFFFFF" height="596.6074" style="stroke:#181818;stroke-width:1.0;" width="10" x="410" y="281.6973"/><rect fill="#FFFFFF" height="534.0254" style="stroke:#181818;stroke-width:1.0;" width="10" x="558" y="312.9883"/><rect fill="#FFFFFF" height="31.291" style="stroke:#181818;stroke-width:1.0;" width="10" x="695.5" y="344.2793"/><rect fill="#FFFFFF" height="31.291" style="stroke:#181818;stroke-width:1.0;" width="10" x="802.5" y="406.8613"/><rect fill="#FFFFFF" height="346.2793" style="stroke:#181818;stroke-width:1.0;" width="10" x="916.5" y="469.4434"/><rect fill="#FFFFFF" height="130.873" style="stroke:#181818;stroke-width:1.0;" width="10" x="921.5" y="646.5586"/><rect fill="#FFFFFF" height="42.291" style="stroke:#181818;stroke-width:1.0;" width="10" x="926.5" y="690.8496"/><rect fill="#FFFFFF" height="96.5332" style="stroke:#181818;stroke-width:1.0;" width="10" x="1062.5" y="510.7344"/><line style="stroke:#181818;stroke-width:0.5;stroke-dasharray:5.0,5.0;" x1="118" x2="118" y1="123.2422" y2="896.3047"/><line style="stroke:#181818;stroke-width:0.5;stroke-dasharray:5.0,5.0;" x1="415" x2="415" y1="123.2422" y2="896.3047"/><line style="stroke:#181818;stroke-width:0.5;stroke-dasharray:5.0,5.0;" x1="563" x2="563" y1="123.2422" y2="896.3047"/><line style="stroke:#181818;stroke-width:0.5;stroke-dasharray:5.0,5.0;" x1="700" x2="700" y1="123.2422" y2="896.3047"/><line style="stroke:#181818;stroke-width:0.5;stroke-dasharray:5.0,5.0;" x1="807" x2="807" y1="123.2422" y2="896.3047"/><line style="stroke:#181818;stroke-width:0.5;stroke-dasharray:5.0,5.0;" x1="921" x2="921" y1="123.2422" y2="896.3047"/><line style="stroke:#181818;stroke-width:0.5;stroke-dasharray:5.0,5.0;" x1="1067" x2="1067" y1="518.5645" y2="896.3047"/><text fill="#000000" font-family="sans-serif" font-size="14" lengthAdjust="spacing" textLength="220" x="5" y="119.7285">Human Resources Manager (HRM)</text><ellipse cx="118" cy="53.1211" fill="#E3E3E3" rx="8" ry="8" style="stroke:#181818;stroke-width:0.5;"/><path d="M118,61.1211 L118,88.1211 M105,69.1211 L131,69.1211 M118,88.1211 L105,103.1211 M118,88.1211 L131,103.1211 " fill="none" style="stroke:#181818;stroke-width:0.5;"/><text fill="#000000" font-family="sans-serif" font-size="14" lengthAdjust="spacing" textLength="220" x="5" y="910.4121">Human Resources Manager (HRM)</text><ellipse cx="118" cy="922.4258" fill="#E3E3E3" rx="8" ry="8" style="stroke:#181818;stroke-width:0.5;"/><path d="M118,930.4258 L118,957.4258 M105,938.4258 L131,938.4258 M118,957.4258 L105,972.4258 M118,957.4258 L131,972.4258 " fill="none" style="stroke:#181818;stroke-width:0.5;"/><rect fill="#E3E3E3" height="32.6211" rx="2.5" ry="2.5" style="stroke:#181818;stroke-width:0.5;" width="108" x="361" y="89.6211"/><text fill="#000000" font-family="sans-serif" font-size="14" lengthAdjust="spacing" textLength="94" x="368" y="111.7285">:RegisterSkillUI</text><rect fill="#E3E3E3" height="32.6211" rx="2.5" ry="2.5" style="stroke:#181818;stroke-width:0.5;" width="108" x="361" y="895.3047"/><text fill="#000000" font-family="sans-serif" font-size="14" lengthAdjust="spacing" textLength="94" x="368" y="917.4121">:RegisterSkillUI</text><rect fill="#E3E3E3" height="32.6211" rx="2.5" ry="2.5" style="stroke:#181818;stroke-width:0.5;" width="158" x="484" y="89.6211"/><text fill="#000000" font-family="sans-serif" font-size="14" lengthAdjust="spacing" textLength="144" x="491" y="111.7285">:RegisterSkillController</text><rect fill="#E3E3E3" height="32.6211" rx="2.5" ry="2.5" style="stroke:#181818;stroke-width:0.5;" width="158" x="484" y="895.3047"/><text fill="#000000" font-family="sans-serif" font-size="14" lengthAdjust="spacing" textLength="144" x="491" y="917.4121">:RegisterSkillController</text><rect fill="#E3E3E3" height="32.6211" rx="2.5" ry="2.5" style="stroke:#181818;stroke-width:0.5;" width="97" x="652" y="89.6211"/><text fill="#000000" font-family="sans-serif" font-size="14" lengthAdjust="spacing" textLength="83" x="659" y="111.7285">:Repositories</text><rect fill="#E3E3E3" height="32.6211" rx="2.5" ry="2.5" style="stroke:#181818;stroke-width:0.5;" width="97" x="652" y="895.3047"/><text fill="#000000" font-family="sans-serif" font-size="14" lengthAdjust="spacing" textLength="83" x="659" y="917.4121">:Repositories</text><rect fill="#E3E3E3" height="51.2422" rx="2.5" ry="2.5" style="stroke:#181818;stroke-width:0.5;" width="97" x="759" y="71"/><text fill="#000000" font-family="sans-serif" font-size="14" lengthAdjust="spacing" textLength="74" x="770.5" y="93.1074">repositories</text><text fill="#000000" font-family="sans-serif" font-size="14" lengthAdjust="spacing" textLength="83" x="766" y="111.7285">:Repositories</text><rect fill="#E3E3E3" height="51.2422" rx="2.5" ry="2.5" style="stroke:#181818;stroke-width:0.5;" width="97" x="759" y="895.3047"/><text fill="#000000" font-family="sans-serif" font-size="14" lengthAdjust="spacing" textLength="74" x="770.5" y="917.4121">repositories</text><text fill="#000000" font-family="sans-serif" font-size="14" lengthAdjust="spacing" textLength="83" x="766" y="936.0332">:Repositories</text><rect fill="#E3E3E3" height="51.2422" rx="2.5" ry="2.5" style="stroke:#181818;stroke-width:0.5;" width="111" x="866" y="71"/><text fill="#000000" font-family="sans-serif" font-size="14" lengthAdjust="spacing" textLength="91" x="876" y="93.1074">skillRepository</text><text fill="#000000" font-family="sans-serif" font-size="14" lengthAdjust="spacing" textLength="97" x="873" y="111.7285">:SkillRepository</text><rect fill="#E3E3E3" height="51.2422" rx="2.5" ry="2.5" style="stroke:#181818;stroke-width:0.5;" width="111" x="866" y="895.3047"/><text fill="#000000" font-family="sans-serif" font-size="14" lengthAdjust="spacing" textLength="91" x="876" y="917.4121">skillRepository</text><text fill="#000000" font-family="sans-serif" font-size="14" lengthAdjust="spacing" textLength="97" x="873" y="936.0332">:SkillRepository</text><rect fill="#E3E3E3" height="51.2422" rx="2.5" ry="2.5" style="stroke:#181818;stroke-width:0.5;" width="43" x="1046" y="895.3047"/><text fill="#000000" font-family="sans-serif" font-size="14" lengthAdjust="spacing" textLength="23" x="1056" y="917.4121">skill</text><text fill="#000000" font-family="sans-serif" font-size="14" lengthAdjust="spacing" textLength="29" x="1053" y="936.0332">:Skill</text><rect fill="#FFFFFF" height="745.0625" style="stroke:#181818;stroke-width:1.0;" width="10" x="113" y="133.2422"/><rect fill="#FFFFFF" height="31.291" style="stroke:#181818;stroke-width:1.0;" width="10" x="410" y="156.5332"/><rect fill="#FFFFFF" height="31.291" style="stroke:#181818;stroke-width:1.0;" width="10" x="410" y="219.1152"/><rect fill="#FFFFFF" height="596.6074" style="stroke:#181818;stroke-width:1.0;" width="10" x="410" y="281.6973"/><rect fill="#FFFFFF" height="534.0254" style="stroke:#181818;stroke-width:1.0;" width="10" x="558" y="312.9883"/><rect fill="#FFFFFF" height="31.291" style="stroke:#181818;stroke-width:1.0;" width="10" x="695.5" y="344.2793"/><rect fill="#FFFFFF" height="31.291" style="stroke:#181818;stroke-width:1.0;" width="10" x="802.5" y="406.8613"/><rect fill="#FFFFFF" height="346.2793" style="stroke:#181818;stroke-width:1.0;" width="10" x="916.5" y="469.4434"/><rect fill="#FFFFFF" height="130.873" style="stroke:#181818;stroke-width:1.0;" width="10" x="921.5" y="646.5586"/><rect fill="#FFFFFF" height="42.291" style="stroke:#181818;stroke-width:1.0;" width="10" x="926.5" y="690.8496"/><rect fill="#FFFFFF" height="96.5332" style="stroke:#181818;stroke-width:1.0;" width="10" x="1062.5" y="510.7344"/><polygon fill="#181818" points="398,152.5332,408,156.5332,398,160.5332,402,156.5332" style="stroke:#181818;stroke-width:1.0;"/><line style="stroke:#181818;stroke-width:1.0;" x1="123" x2="404" y1="156.5332" y2="156.5332"/><text fill="#000000" font-family="sans-serif" font-size="13" font-weight="bold" lengthAdjust="spacing" textLength="7" x="130" y="151.2705">1</text><text fill="#000000" font-family="sans-serif" font-size="13" lengthAdjust="spacing" textLength="155" x="141" y="151.2705">asks to register a new skill</text><polygon fill="#181818" points="134,183.8242,124,187.8242,134,191.8242,130,187.8242" style="stroke:#181818;stroke-width:1.0;"/><line style="stroke:#181818;stroke-width:1.0;stroke-dasharray:2.0,2.0;" x1="128" x2="414" y1="187.8242" y2="187.8242"/><text fill="#000000" font-family="sans-serif" font-size="13" font-weight="bold" lengthAdjust="spacing" textLength="7" x="140" y="182.5615">2</text><text fill="#000000" font-family="sans-serif" font-size="13" lengthAdjust="spacing" textLength="123" x="151" y="182.5615">requests data (name)</text><polygon fill="#181818" points="398,215.1152,408,219.1152,398,223.1152,402,219.1152" style="stroke:#181818;stroke-width:1.0;"/><line style="stroke:#181818;stroke-width:1.0;" x1="123" x2="404" y1="219.1152" y2="219.1152"/><text fill="#000000" font-family="sans-serif" font-size="13" font-weight="bold" lengthAdjust="spacing" textLength="7" x="130" y="213.8525">3</text><text fill="#000000" font-family="sans-serif" font-size="13" lengthAdjust="spacing" textLength="98" x="141" y="213.8525">type data (name)</text><polygon fill="#181818" points="134,246.4063,124,250.4063,134,254.4063,130,250.4063" style="stroke:#181818;stroke-width:1.0;"/><line style="stroke:#181818;stroke-width:1.0;stroke-dasharray:2.0,2.0;" x1="128" x2="414" y1="250.4063" y2="250.4063"/><text fill="#000000" font-family="sans-serif" font-size="13" font-weight="bold" lengthAdjust="spacing" textLength="7" x="140" y="245.1436">4</text><text fill="#000000" font-family="sans-serif" font-size="13" lengthAdjust="spacing" textLength="252" x="151" y="245.1436">displays the data and requests confirmation</text><polygon fill="#181818" points="398,277.6973,408,281.6973,398,285.6973,402,281.6973" style="stroke:#181818;stroke-width:1.0;"/><line style="stroke:#181818;stroke-width:1.0;" x1="123" x2="404" y1="281.6973" y2="281.6973"/><text fill="#000000" font-family="sans-serif" font-size="13" font-weight="bold" lengthAdjust="spacing" textLength="7" x="130" y="276.4346">5</text><text fill="#000000" font-family="sans-serif" font-size="13" lengthAdjust="spacing" textLength="153" x="141" y="276.4346">confirms and submits data</text><polygon fill="#181818" points="546,308.9883,556,312.9883,546,316.9883,550,312.9883" style="stroke:#181818;stroke-width:1.0;"/><line style="stroke:#181818;stroke-width:1.0;" x1="420" x2="552" y1="312.9883" y2="312.9883"/><text fill="#000000" font-family="sans-serif" font-size="13" font-weight="bold" lengthAdjust="spacing" textLength="7" x="427" y="307.7256">6</text><text fill="#000000" font-family="sans-serif" font-size="13" lengthAdjust="spacing" textLength="108" x="438" y="307.7256">registerSkill(name)</text><polygon fill="#181818" points="683.5,340.2793,693.5,344.2793,683.5,348.2793,687.5,344.2793" style="stroke:#181818;stroke-width:1.0;"/><line style="stroke:#181818;stroke-width:1.0;" x1="568" x2="689.5" y1="344.2793" y2="344.2793"/><text fill="#000000" font-family="sans-serif" font-size="13" font-weight="bold" lengthAdjust="spacing" textLength="7" x="575" y="339.0166">7</text><text fill="#000000" font-family="sans-serif" font-size="13" lengthAdjust="spacing" textLength="75" x="586" y="339.0166">getInstance()</text><polygon fill="#181818" points="579,371.5703,569,375.5703,579,379.5703,575,375.5703" style="stroke:#181818;stroke-width:1.0;"/><line style="stroke:#181818;stroke-width:1.0;stroke-dasharray:2.0,2.0;" x1="573" x2="699.5" y1="375.5703" y2="375.5703"/><text fill="#000000" font-family="sans-serif" font-size="13" font-weight="bold" lengthAdjust="spacing" textLength="7" x="585" y="370.3076">8</text><text fill="#000000" font-family="sans-serif" font-size="13" lengthAdjust="spacing" textLength="67" x="596" y="370.3076">repositories</text><polygon fill="#181818" points="790.5,402.8613,800.5,406.8613,790.5,410.8613,794.5,406.8613" style="stroke:#181818;stroke-width:1.0;"/><line style="stroke:#181818;stroke-width:1.0;" x1="568" x2="796.5" y1="406.8613" y2="406.8613"/><text fill="#000000" font-family="sans-serif" font-size="13" font-weight="bold" lengthAdjust="spacing" textLength="7" x="575" y="401.5986">9</text><text fill="#000000" font-family="sans-serif" font-size="13" lengthAdjust="spacing" textLength="113" x="586" y="401.5986">getSkillRepository()</text><polygon fill="#181818" points="579,434.1523,569,438.1523,579,442.1523,575,438.1523" style="stroke:#181818;stroke-width:1.0;"/><line style="stroke:#181818;stroke-width:1.0;stroke-dasharray:2.0,2.0;" x1="573" x2="806.5" y1="438.1523" y2="438.1523"/><text fill="#000000" font-family="sans-serif" font-size="13" font-weight="bold" lengthAdjust="spacing" textLength="14" x="585" y="432.8896">10</text><text fill="#000000" font-family="sans-serif" font-size="13" lengthAdjust="spacing" textLength="85" x="603" y="432.8896">skillRepository</text><polygon fill="#181818" points="904.5,465.4434,914.5,469.4434,904.5,473.4434,908.5,469.4434" style="stroke:#181818;stroke-width:1.0;"/><line style="stroke:#181818;stroke-width:1.0;" x1="568" x2="910.5" y1="469.4434" y2="469.4434"/><text fill="#000000" font-family="sans-serif" font-size="13" font-weight="bold" lengthAdjust="spacing" textLength="14" x="575" y="464.1807">11</text><text fill="#000000" font-family="sans-serif" font-size="13" lengthAdjust="spacing" textLength="108" x="593" y="464.1807">registerSkill(name)</text><polygon fill="#181818" points="1034,496.7344,1044,500.7344,1034,504.7344,1038,500.7344" style="stroke:#181818;stroke-width:1.0;"/><line style="stroke:#181818;stroke-width:1.0;" x1="926.5" x2="1040" y1="500.7344" y2="500.7344"/><text fill="#000000" font-family="sans-serif" font-size="13" font-weight="bold" lengthAdjust="spacing" textLength="14" x="933.5" y="495.4717">12</text><text fill="#000000" font-family="sans-serif" font-size="13" lengthAdjust="spacing" textLength="76" x="951.5" y="495.4717">create(name)</text><rect fill="#E3E3E3" height="51.2422" rx="2.5" ry="2.5" style="stroke:#181818;stroke-width:0.5;" width="43" x="1046" y="477.4434"/><text fill="#000000" font-family="sans-serif" font-size="14" lengthAdjust="spacing" textLength="23" x="1056" y="499.5508">skill</text><text fill="#000000" font-family="sans-serif" font-size="14" lengthAdjust="spacing" textLength="29" x="1053" y="518.1719">:Skill</text><line style="stroke:#181818;stroke-width:1.0;" x1="1072.5" x2="1114.5" y1="562.9766" y2="562.9766"/><line style="stroke:#181818;stroke-width:1.0;" x1="1114.5" x2="1114.5" y1="562.9766" y2="575.9766"/><line style="stroke:#181818;stroke-width:1.0;" x1="1073.5" x2="1114.5" y1="575.9766" y2="575.9766"/><polygon fill="#181818" points="1083.5,571.9766,1073.5,575.9766,1083.5,579.9766,1079.5,575.9766" style="stroke:#181818;stroke-width:1.0;"/><text fill="#000000" font-family="sans-serif" font-size="13" font-weight="bold" lengthAdjust="spacing" textLength="14" x="1079.5" y="557.7139">13</text><text fill="#000000" font-family="sans-serif" font-size="13" lengthAdjust="spacing" textLength="99" x="1097.5" y="557.7139">validateSkill(skill)</text><polygon fill="#181818" points="937.5,603.2676,927.5,607.2676,937.5,611.2676,933.5,607.2676" style="stroke:#181818;stroke-width:1.0;"/><line style="stroke:#181818;stroke-width:1.0;stroke-dasharray:2.0,2.0;" x1="931.5" x2="1066.5" y1="607.2676" y2="607.2676"/><text fill="#000000" font-family="sans-serif" font-size="13" font-weight="bold" lengthAdjust="spacing" textLength="14" x="943.5" y="602.0049">14</text><text fill="#000000" font-family="sans-serif" font-size="13" lengthAdjust="spacing" textLength="23" x="961.5" y="602.0049">skill</text><line style="stroke:#181818;stroke-width:1.0;" x1="926.5" x2="973.5" y1="633.5586" y2="633.5586"/><line style="stroke:#181818;stroke-width:1.0;" x1="973.5" x2="973.5" y1="633.5586" y2="646.5586"/><line style="stroke:#181818;stroke-width:1.0;" x1="932.5" x2="973.5" y1="646.5586" y2="646.5586"/><polygon fill="#181818" points="942.5,642.5586,932.5,646.5586,942.5,650.5586,938.5,646.5586" style="stroke:#181818;stroke-width:1.0;"/><text fill="#000000" font-family="sans-serif" font-size="13" font-weight="bold" lengthAdjust="spacing" textLength="14" x="938.5" y="628.2959">15</text><text fill="#000000" font-family="sans-serif" font-size="13" lengthAdjust="spacing" textLength="81" x="956.5" y="628.2959">addSkill (skill)</text><line style="stroke:#181818;stroke-width:1.0;" x1="931.5" x2="978.5" y1="677.8496" y2="677.8496"/><line style="stroke:#181818;stroke-width:1.0;" x1="978.5" x2="978.5" y1="677.8496" y2="690.8496"/><line style="stroke:#181818;stroke-width:1.0;" x1="937.5" x2="978.5" y1="690.8496" y2="690.8496"/><polygon fill="#181818" points="947.5,686.8496,937.5,690.8496,947.5,694.8496,943.5,690.8496" style="stroke:#181818;stroke-width:1.0;"/><text fill="#000000" font-family="sans-serif" font-size="13" font-weight="bold" lengthAdjust="spacing" textLength="14" x="943.5" y="672.5869">16</text><text fill="#000000" font-family="sans-serif" font-size="13" lengthAdjust="spacing" textLength="99" x="961.5" y="672.5869">validateSkill(skill)</text><line style="stroke:#181818;stroke-width:1.0;stroke-dasharray:2.0,2.0;" x1="936.5" x2="978.5" y1="732.1406" y2="732.1406"/><line style="stroke:#181818;stroke-width:1.0;stroke-dasharray:2.0,2.0;" x1="978.5" x2="978.5" y1="732.1406" y2="745.1406"/><line style="stroke:#181818;stroke-width:1.0;stroke-dasharray:2.0,2.0;" x1="931.5" x2="978.5" y1="745.1406" y2="745.1406"/><polygon fill="#181818" points="941.5,741.1406,931.5,745.1406,941.5,749.1406,937.5,745.1406" style="stroke:#181818;stroke-width:1.0;"/><text fill="#000000" font-family="sans-serif" font-size="13" font-weight="bold" lengthAdjust="spacing" textLength="14" x="943.5" y="726.8779">17</text><text fill="#000000" font-family="sans-serif" font-size="13" lengthAdjust="spacing" textLength="53" x="961.5" y="726.8779">true/false</text><line style="stroke:#181818;stroke-width:1.0;stroke-dasharray:2.0,2.0;" x1="931.5" x2="973.5" y1="776.4316" y2="776.4316"/><line style="stroke:#181818;stroke-width:1.0;stroke-dasharray:2.0,2.0;" x1="973.5" x2="973.5" y1="776.4316" y2="789.4316"/><line style="stroke:#181818;stroke-width:1.0;stroke-dasharray:2.0,2.0;" x1="926.5" x2="973.5" y1="789.4316" y2="789.4316"/><polygon fill="#181818" points="936.5,785.4316,926.5,789.4316,936.5,793.4316,932.5,789.4316" style="stroke:#181818;stroke-width:1.0;"/><text fill="#000000" font-family="sans-serif" font-size="13" font-weight="bold" lengthAdjust="spacing" textLength="14" x="938.5" y="771.1689">18</text><text fill="#000000" font-family="sans-serif" font-size="13" lengthAdjust="spacing" textLength="53" x="956.5" y="771.1689">true/false</text><polygon fill="#181818" points="579,811.7227,569,815.7227,579,819.7227,575,815.7227" style="stroke:#181818;stroke-width:1.0;"/><line style="stroke:#181818;stroke-width:1.0;stroke-dasharray:2.0,2.0;" x1="573" x2="920.5" y1="815.7227" y2="815.7227"/><text fill="#000000" font-family="sans-serif" font-size="13" font-weight="bold" lengthAdjust="spacing" textLength="14" x="585" y="810.46">19</text><text fill="#000000" font-family="sans-serif" font-size="13" lengthAdjust="spacing" textLength="23" x="603" y="810.46">skill</text><polygon fill="#181818" points="431,843.0137,421,847.0137,431,851.0137,427,847.0137" style="stroke:#181818;stroke-width:1.0;"/><line style="stroke:#181818;stroke-width:1.0;stroke-dasharray:2.0,2.0;" x1="425" x2="562" y1="847.0137" y2="847.0137"/><text fill="#000000" font-family="sans-serif" font-size="13" font-weight="bold" lengthAdjust="spacing" textLength="14" x="437" y="841.751">20</text><text fill="#000000" font-family="sans-serif" font-size="13" lengthAdjust="spacing" textLength="23" x="455" y="841.751">skill</text><polygon fill="#181818" points="129,874.3047,119,878.3047,129,882.3047,125,878.3047" style="stroke:#181818;stroke-width:1.0;"/><line style="stroke:#181818;stroke-width:1.0;stroke-dasharray:2.0,2.0;" x1="123" x2="414" y1="878.3047" y2="878.3047"/><text fill="#000000" font-family="sans-serif" font-size="13" font-weight="bold" lengthAdjust="spacing" textLength="14" x="135" y="873.042">21</text><text fill="#000000" font-family="sans-serif" font-size="13" lengthAdjust="spacing" textLength="158" x="153" y="873.042">displays operation success</text><!--SRC=[dLNBZfim5DtxAwwoQJ8IQhjb4QcQMGngHgh2PDUD0pV42jZKDZFDt_VQuM4Iyb3P9C0vvvxxCkOWPCqrhw1IKcLxhIe4gnjafdzJy-p02qpjiKJGc5akYp84c3tFrQUG1UnuQP0nAon1Dmca-AT1cI6y25uuw3nDNnOGmIRzzfr-rbW8Or53UX1bQHZZZLMogRQe6Vko5pd2JYcxLNyPpwpIC7jjAYw9PrIZCpJmnYLvqp1_NRyjPi0Dq1z6lgp8HCsbXLdSHV51Deb7RP9Re6SbhLPbYTg3dz_NgmjuhOmWImADn_GFZgbmzQ4ynXGTC7xBIu5Vgn_lOuPnLWPT8gNZ9vwNhYTO7VQ4-9ciLinLK7nmYxv23DgBRY1QkcR5X3qOi8gQtBQ5WyHFy8gUq4jG-Ne5eaQau8HYebB7ZJMGSyjXBdc52u_CSP9Ch6YvIMAmnnf7f0S3viBK9J-IxttBvp8VR6HAxeIkk1NKZpj6-Zgq9EEbJBEjH9lG3LFUrTAFIjmNqFSWACA8xQUgV-pkdC34796Z0cqY3MrUXlD543JKcvh04T9TK_9HwzktRvZA4JUesjquNIfkea_Up-PslfZEmA_0w9MNYFgwdct4DOTZdSvEkeRfpbosXdPgf4rK9-3swEc9vaCZeSxwUYdYrmwkNFvjhnh31oy5ZHYUZFb45-m6iKjeMCxpAoZ8TIjjPaw9vxaF3btqIK9Oepk23wVqY6wetmLm7wglfs_EDVXGXFzHPM4D9sPYM9nJ6wuDv3dtD9BTSHEsC225vyFqaQTgrFvaeqCgew-XcJZWWZjY_mC0]--></g></svg>