<?xml version="1.0" encoding="us-ascii" standalone="no"?><svg xmlns="http://www.w3.org/2000/svg" xmlns:xlink="http://www.w3.org/1999/xlink" contentStyleType="text/css" height="556px" preserveAspectRatio="none" style="width:864px;height:556px;background:#FFFFFF;" version="1.1" viewBox="0 0 864 556" width="864px" zoomAndPan="magnify"><defs/><g><rect fill="#FFFFFF" height="391.8125" style="stroke:#181818;stroke-width:1.0;" width="10" x="279" y="90.5332"/><rect fill="#FFFFFF" height="36.291" style="stroke:#181818;stroke-width:1.0;" width="10" x="284" y="307.2305"/><rect fill="#FFFFFF" height="31.291" style="stroke:#181818;stroke-width:1.0;" width="10" x="447" y="236.6484"/><rect fill="#FFFFFF" height="31.291" style="stroke:#181818;stroke-width:1.0;" width="10" x="612" y="405.7637"/><rect fill="none" height="346.5215" style="stroke:#000000;stroke-width:1.5;" width="671" x="187" y="105.5332"/><rect fill="none" height="250.9883" style="stroke:#000000;stroke-width:1.5;" width="651" x="197" y="194.0664"/><line style="stroke:#181818;stroke-width:0.5;stroke-dasharray:5.0,5.0;" x1="284" x2="284" y1="57.2422" y2="500.3457"/><line style="stroke:#181818;stroke-width:0.5;stroke-dasharray:5.0,5.0;" x1="452" x2="452" y1="57.2422" y2="500.3457"/><line style="stroke:#181818;stroke-width:0.5;stroke-dasharray:5.0,5.0;" x1="617" x2="617" y1="165.9453" y2="500.3457"/><line style="stroke:#181818;stroke-width:0.5;stroke-dasharray:5.0,5.0;" x1="774" x2="774" y1="361.3516" y2="500.3457"/><rect fill="#E3E3E3" height="32.6211" rx="2.5" ry="2.5" style="stroke:#181818;stroke-width:0.5;" width="154" x="207" y="23.6211"/><text fill="#000000" font-family="sans-serif" font-size="14" lengthAdjust="spacing" textLength="140" x="214" y="45.7285">:TaskToDoListMapper</text><rect fill="#E3E3E3" height="32.6211" rx="2.5" ry="2.5" style="stroke:#181818;stroke-width:0.5;" width="154" x="207" y="499.3457"/><text fill="#000000" font-family="sans-serif" font-size="14" lengthAdjust="spacing" textLength="140" x="214" y="521.4531">:TaskToDoListMapper</text><rect fill="#E3E3E3" height="51.2422" rx="2.5" ry="2.5" style="stroke:#181818;stroke-width:0.5;" width="144" x="380" y="5"/><text fill="#000000" font-family="sans-serif" font-size="14" lengthAdjust="spacing" textLength="83" x="410.5" y="27.1074">taskToDoList</text><text fill="#000000" font-family="sans-serif" font-size="14" lengthAdjust="spacing" textLength="130" x="387" y="45.7285">:List&lt;TaskToDoList&gt;</text><rect fill="#E3E3E3" height="51.2422" rx="2.5" ry="2.5" style="stroke:#181818;stroke-width:0.5;" width="144" x="380" y="499.3457"/><text fill="#000000" font-family="sans-serif" font-size="14" lengthAdjust="spacing" textLength="83" x="410.5" y="521.4531">taskToDoList</text><text fill="#000000" font-family="sans-serif" font-size="14" lengthAdjust="spacing" textLength="130" x="387" y="540.0742">:List&lt;TaskToDoList&gt;</text><rect fill="#E3E3E3" height="51.2422" rx="2.5" ry="2.5" style="stroke:#181818;stroke-width:0.5;" width="166" x="534" y="499.3457"/><text fill="#000000" font-family="sans-serif" font-size="14" lengthAdjust="spacing" textLength="105" x="564.5" y="521.4531">taskToDoListDto</text><text fill="#000000" font-family="sans-serif" font-size="14" lengthAdjust="spacing" textLength="152" x="541" y="540.0742">:List&lt;TaskToDoListDto&gt;</text><rect fill="#E3E3E3" height="51.2422" rx="2.5" ry="2.5" style="stroke:#181818;stroke-width:0.5;" width="128" x="710" y="499.3457"/><text fill="#000000" font-family="sans-serif" font-size="14" lengthAdjust="spacing" textLength="41" x="753.5" y="521.4531">objDto</text><text fill="#000000" font-family="sans-serif" font-size="14" lengthAdjust="spacing" textLength="114" x="717" y="540.0742">:TaskToDoListDto</text><rect fill="#FFFFFF" height="391.8125" style="stroke:#181818;stroke-width:1.0;" width="10" x="279" y="90.5332"/><rect fill="#FFFFFF" height="36.291" style="stroke:#181818;stroke-width:1.0;" width="10" x="284" y="307.2305"/><rect fill="#FFFFFF" height="31.291" style="stroke:#181818;stroke-width:1.0;" width="10" x="447" y="236.6484"/><rect fill="#FFFFFF" height="31.291" style="stroke:#181818;stroke-width:1.0;" width="10" x="612" y="405.7637"/><polygon fill="#181818" points="267,86.5332,277,90.5332,267,94.5332,271,90.5332" style="stroke:#181818;stroke-width:1.0;"/><line style="stroke:#181818;stroke-width:1.0;stroke-dasharray:2.0,2.0;" x1="0" x2="273" y1="90.5332" y2="90.5332"/><text fill="#000000" font-family="sans-serif" font-size="13" font-weight="bold" lengthAdjust="spacing" textLength="14" x="7" y="85.2705">33</text><text fill="#000000" font-family="sans-serif" font-size="13" lengthAdjust="spacing" textLength="242" x="25" y="85.2705">toDTOTaskToDoList(taskListGreenSpace)</text><path d="M187,105.5332 L392,105.5332 L392,114.8242 L382,124.8242 L187,124.8242 L187,105.5332 " fill="#EEEEEE" style="stroke:#000000;stroke-width:1.5;"/><rect fill="none" height="346.5215" style="stroke:#000000;stroke-width:1.5;" width="671" x="187" y="105.5332"/><text fill="#000000" font-family="sans-serif" font-size="13" font-weight="bold" lengthAdjust="spacing" textLength="160" x="202" y="120.5615">Green Space List To DTO</text><polygon fill="#181818" points="522,144.1152,532,148.1152,522,152.1152,526,148.1152" style="stroke:#181818;stroke-width:1.0;"/><line style="stroke:#181818;stroke-width:1.0;stroke-dasharray:2.0,2.0;" x1="289" x2="528" y1="148.1152" y2="148.1152"/><text fill="#000000" font-family="sans-serif" font-size="13" font-weight="bold" lengthAdjust="spacing" textLength="25" x="296" y="142.8525">33.1</text><text fill="#000000" font-family="sans-serif" font-size="13" lengthAdjust="spacing" textLength="44" x="325" y="142.8525">create()</text><rect fill="#E3E3E3" height="51.2422" rx="2.5" ry="2.5" style="stroke:#181818;stroke-width:0.5;" width="166" x="534" y="124.8242"/><text fill="#000000" font-family="sans-serif" font-size="14" lengthAdjust="spacing" textLength="105" x="564.5" y="146.9316">taskToDoListDto</text><text fill="#000000" font-family="sans-serif" font-size="14" lengthAdjust="spacing" textLength="152" x="541" y="165.5527">:List&lt;TaskToDoListDto&gt;</text><path d="M197,194.0664 L270,194.0664 L270,203.3574 L260,213.3574 L197,213.3574 L197,194.0664 " fill="#EEEEEE" style="stroke:#000000;stroke-width:1.5;"/><rect fill="none" height="250.9883" style="stroke:#000000;stroke-width:1.5;" width="651" x="197" y="194.0664"/><text fill="#000000" font-family="sans-serif" font-size="13" font-weight="bold" lengthAdjust="spacing" textLength="28" x="212" y="209.0947">loop</text><text fill="#000000" font-family="sans-serif" font-size="11" font-weight="bold" lengthAdjust="spacing" textLength="179" x="285" y="207.9365">[for each object in taskToDoList]</text><polygon fill="#181818" points="435,232.6484,445,236.6484,435,240.6484,439,236.6484" style="stroke:#181818;stroke-width:1.0;"/><line style="stroke:#181818;stroke-width:1.0;" x1="289" x2="441" y1="236.6484" y2="236.6484"/><text fill="#000000" font-family="sans-serif" font-size="13" font-weight="bold" lengthAdjust="spacing" textLength="25" x="296" y="231.3857">33.2</text><text fill="#000000" font-family="sans-serif" font-size="13" lengthAdjust="spacing" textLength="29" x="325" y="231.3857">get(i)</text><polygon fill="#181818" points="300,263.9395,290,267.9395,300,271.9395,296,267.9395" style="stroke:#181818;stroke-width:1.0;"/><line style="stroke:#181818;stroke-width:1.0;stroke-dasharray:2.0,2.0;" x1="294" x2="451" y1="267.9395" y2="267.9395"/><text fill="#000000" font-family="sans-serif" font-size="13" font-weight="bold" lengthAdjust="spacing" textLength="25" x="306" y="262.6768">33.3</text><text fill="#000000" font-family="sans-serif" font-size="13" lengthAdjust="spacing" textLength="17" x="335" y="262.6768">obj</text><line style="stroke:#181818;stroke-width:1.0;" x1="289" x2="336" y1="294.2305" y2="294.2305"/><line style="stroke:#181818;stroke-width:1.0;" x1="336" x2="336" y1="294.2305" y2="307.2305"/><line style="stroke:#181818;stroke-width:1.0;" x1="295" x2="336" y1="307.2305" y2="307.2305"/><polygon fill="#181818" points="305,303.2305,295,307.2305,305,311.2305,301,307.2305" style="stroke:#181818;stroke-width:1.0;"/><text fill="#000000" font-family="sans-serif" font-size="13" font-weight="bold" lengthAdjust="spacing" textLength="25" x="301" y="288.9678">33.4</text><text fill="#000000" font-family="sans-serif" font-size="13" lengthAdjust="spacing" textLength="115" x="330" y="288.9678">objDto = toDTO(obj)</text><polygon fill="#181818" points="698,339.5215,708,343.5215,698,347.5215,702,343.5215" style="stroke:#181818;stroke-width:1.0;"/><line style="stroke:#181818;stroke-width:1.0;stroke-dasharray:2.0,2.0;" x1="289" x2="704" y1="343.5215" y2="343.5215"/><text fill="#000000" font-family="sans-serif" font-size="13" font-weight="bold" lengthAdjust="spacing" textLength="25" x="296" y="338.2588">33.5</text><text fill="#000000" font-family="sans-serif" font-size="13" lengthAdjust="spacing" textLength="61" x="325" y="338.2588">create(obj)</text><rect fill="#E3E3E3" height="51.2422" rx="2.5" ry="2.5" style="stroke:#181818;stroke-width:0.5;" width="128" x="710" y="320.2305"/><text fill="#000000" font-family="sans-serif" font-size="14" lengthAdjust="spacing" textLength="41" x="753.5" y="342.3379">objDto</text><text fill="#000000" font-family="sans-serif" font-size="14" lengthAdjust="spacing" textLength="114" x="717" y="360.959">:TaskToDoListDto</text><polygon fill="#181818" points="600,401.7637,610,405.7637,600,409.7637,604,405.7637" style="stroke:#181818;stroke-width:1.0;"/><line style="stroke:#181818;stroke-width:1.0;" x1="289" x2="606" y1="405.7637" y2="405.7637"/><text fill="#000000" font-family="sans-serif" font-size="13" font-weight="bold" lengthAdjust="spacing" textLength="25" x="296" y="400.501">33.6</text><text fill="#000000" font-family="sans-serif" font-size="13" lengthAdjust="spacing" textLength="66" x="325" y="400.501">add(objDto)</text><polygon fill="#181818" points="300,433.0547,290,437.0547,300,441.0547,296,437.0547" style="stroke:#181818;stroke-width:1.0;"/><line style="stroke:#181818;stroke-width:1.0;stroke-dasharray:2.0,2.0;" x1="294" x2="616" y1="437.0547" y2="437.0547"/><text fill="#000000" font-family="sans-serif" font-size="13" font-weight="bold" lengthAdjust="spacing" textLength="25" x="306" y="431.792">33.7</text><text fill="#000000" font-family="sans-serif" font-size="13" lengthAdjust="spacing" textLength="53" x="335" y="431.792">true/false</text><polygon fill="#181818" points="11,478.3457,1,482.3457,11,486.3457,7,482.3457" style="stroke:#181818;stroke-width:1.0;"/><line style="stroke:#181818;stroke-width:1.0;stroke-dasharray:2.0,2.0;" x1="5" x2="283" y1="482.3457" y2="482.3457"/><text fill="#000000" font-family="sans-serif" font-size="13" font-weight="bold" lengthAdjust="spacing" textLength="14" x="17" y="477.083">34</text><text fill="#000000" font-family="sans-serif" font-size="13" lengthAdjust="spacing" textLength="138" x="35" y="477.083">taskListGreenSpaceDto</text><!--SRC=[VPDFJuCm6CRl_HHlTf4jOOkP9w8xaHYJBPgCevUkl8CwQ6if6h-zRs5ZC50EKDhdz_vvsjxbpfagMgrCmPMhos8fTBcgyBD69J1C9SyiBrbraifm6a6fbHQvrIM2ipNsLWmN9vxXtlqK21Q5uoeh-e8gvwd-bYg38oygP8ocdHJIK6QOHGclJecEzLPMRiUDGJi3Na6InDlTsr3hUj9t5VdFOn_VTEJBFlaRZPsUecdw6Y1ENeS1zE6ZvMwGXY2rXnZZjTEgBWzeORrcB0mtvqOW0gUzh4S7lYW_UBQ8Qaz6ulmcnFAU9eIJNzpXnHAMMLqRQ21eAF118D6-3iRW_9mJNsgWjSKY0c6HOWNpLbTeRU2eBI0NEL2Fj7yW5VJj6aVSN3ochZ9qWPmtaa6XVWS6e9SF_A1iZI35_y5hnWj6jiDJwsT0lnFPlKqJFfptQR60peYElobZAa9d9E4yJOEsb8dqettmpF0mq2LQjVTX8dd7eqePQrxzO_70s6COzeADpX6LnTYeery0]--></g></svg>