<?xml version="1.0" encoding="us-ascii" standalone="no"?><svg xmlns="http://www.w3.org/2000/svg" xmlns:xlink="http://www.w3.org/1999/xlink" contentStyleType="text/css" height="926.1px" preserveAspectRatio="none" style="width:1405px;height:926px;background:#FFFFFF;" version="1.1" viewBox="0 0 1405 926" width="1405.8px" zoomAndPan="magnify"><defs/><g><rect fill="#FFFFFF" height="778.0746" style="stroke:#181818;stroke-width:0.9;" width="9" x="220.5" y="81.4799"/><rect fill="#FFFFFF" height="28.1619" style="stroke:#181818;stroke-width:0.9;" width="9" x="376.65" y="133.3037"/><rect fill="#FFFFFF" height="28.1619" style="stroke:#181818;stroke-width:0.9;" width="9" x="472.95" y="189.6275"/><rect fill="#FFFFFF" height="28.1619" style="stroke:#181818;stroke-width:0.9;" width="9" x="472.95" y="245.9514"/><rect fill="#FFFFFF" height="114.4477" style="stroke:#181818;stroke-width:0.9;" width="9" x="600.3" y="302.2752"/><rect fill="#FFFFFF" height="280.4572" style="stroke:#181818;stroke-width:0.9;" width="9" x="717.75" y="444.8848"/><rect fill="#FFFFFF" height="38.0619" style="stroke:#181818;stroke-width:0.9;" width="9" x="722.25" y="640.2182"/><rect fill="#FFFFFF" height="84.4857" style="stroke:#181818;stroke-width:0.9;" width="9" x="968.85" y="496.7086"/><rect fill="#FFFFFF" height="28.1619" style="stroke:#181818;stroke-width:0.9;" width="9" x="1195.65" y="354.099"/><rect fill="#FFFFFF" height="28.1619" style="stroke:#181818;stroke-width:0.9;" width="9" x="1195.65" y="524.8705"/><rect fill="#FFFFFF" height="71.5887" style="stroke:#181818;stroke-width:0.9;" width="9" x="1318.05" y="753.5039"/><rect fill="none" height="737.3127" style="stroke:#000000;stroke-width:1.35;" width="1288.35" x="112.5" y="94.9799"/><rect fill="none" height="73.6857" style="stroke:#000000;stroke-width:1.35;" width="732.15" x="521.1" y="315.7752"/><rect fill="none" height="239.6953" style="stroke:#000000;stroke-width:1.35;" width="582.75" x="670.5" y="458.3848"/><rect fill="none" height="97.0857" style="stroke:#000000;stroke-width:1.35;" width="236.25" x="679.5" y="594.6943"/><line style="stroke:#181818;stroke-width:0.45;stroke-dasharray:5.0,5.0;" x1="225" x2="225" y1="51.518" y2="875.7545"/><line style="stroke:#181818;stroke-width:0.45;stroke-dasharray:5.0,5.0;" x1="380.7" x2="380.7" y1="51.518" y2="875.7545"/><line style="stroke:#181818;stroke-width:0.45;stroke-dasharray:5.0,5.0;" x1="477" x2="477" y1="51.518" y2="875.7545"/><line style="stroke:#181818;stroke-width:0.45;stroke-dasharray:5.0,5.0;" x1="604.8" x2="604.8" y1="51.518" y2="875.7545"/><line style="stroke:#181818;stroke-width:0.45;stroke-dasharray:5.0,5.0;" x1="721.8" x2="721.8" y1="51.518" y2="875.7545"/><line style="stroke:#181818;stroke-width:0.45;stroke-dasharray:5.0,5.0;" x1="973.35" x2="973.35" y1="51.518" y2="875.7545"/><line style="stroke:#181818;stroke-width:0.45;stroke-dasharray:5.0,5.0;" x1="1200.15" x2="1200.15" y1="51.518" y2="875.7545"/><line style="stroke:#181818;stroke-width:0.45;stroke-dasharray:5.0,5.0;" x1="1322.55" x2="1322.55" y1="51.518" y2="875.7545"/><rect fill="#E3E3E3" height="29.359" rx="2.25" ry="2.25" style="stroke:#181818;stroke-width:0.45;" width="207" x="121.5" y="21.259"/><text fill="#000000" font-family="sans-serif" font-size="12.6" lengthAdjust="spacing" textLength="194.4" x="127.8" y="41.1557">:AddNewEntryToAgendaController</text><rect fill="#E3E3E3" height="29.359" rx="2.25" ry="2.25" style="stroke:#181818;stroke-width:0.45;" width="207" x="121.5" y="874.8545"/><text fill="#000000" font-family="sans-serif" font-size="12.6" lengthAdjust="spacing" textLength="194.4" x="127.8" y="894.7512">:AddNewEntryToAgendaController</text><rect fill="#E3E3E3" height="29.359" rx="2.25" ry="2.25" style="stroke:#181818;stroke-width:0.45;" width="87.3" x="337.5" y="21.259"/><text fill="#000000" font-family="sans-serif" font-size="12.6" lengthAdjust="spacing" textLength="74.7" x="343.8" y="41.1557">:Repositories</text><rect fill="#E3E3E3" height="29.359" rx="2.25" ry="2.25" style="stroke:#181818;stroke-width:0.45;" width="87.3" x="337.5" y="874.8545"/><text fill="#000000" font-family="sans-serif" font-size="12.6" lengthAdjust="spacing" textLength="74.7" x="343.8" y="894.7512">:Repositories</text><rect fill="#E3E3E3" height="46.118" rx="2.25" ry="2.25" style="stroke:#181818;stroke-width:0.45;" width="87.3" x="433.8" y="4.5"/><text fill="#000000" font-family="sans-serif" font-size="12.6" lengthAdjust="spacing" textLength="66.6" x="444.15" y="24.3967">repositories</text><text fill="#000000" font-family="sans-serif" font-size="12.6" lengthAdjust="spacing" textLength="74.7" x="440.1" y="41.1557">:Repositories</text><rect fill="#E3E3E3" height="46.118" rx="2.25" ry="2.25" style="stroke:#181818;stroke-width:0.45;" width="87.3" x="433.8" y="874.8545"/><text fill="#000000" font-family="sans-serif" font-size="12.6" lengthAdjust="spacing" textLength="66.6" x="444.15" y="894.7512">repositories</text><text fill="#000000" font-family="sans-serif" font-size="12.6" lengthAdjust="spacing" textLength="74.7" x="440.1" y="911.5102">:Repositories</text><rect fill="#E3E3E3" height="46.118" rx="2.25" ry="2.25" style="stroke:#181818;stroke-width:0.45;" width="149.4" x="530.1" y="4.5"/><text fill="#000000" font-family="sans-serif" font-size="12.6" lengthAdjust="spacing" textLength="130.5" x="539.55" y="24.3967">greenSpaceRepository</text><text fill="#000000" font-family="sans-serif" font-size="12.6" lengthAdjust="spacing" textLength="136.8" x="536.4" y="41.1557">:GreenSpaceRepository</text><rect fill="#E3E3E3" height="46.118" rx="2.25" ry="2.25" style="stroke:#181818;stroke-width:0.45;" width="149.4" x="530.1" y="874.8545"/><text fill="#000000" font-family="sans-serif" font-size="12.6" lengthAdjust="spacing" textLength="130.5" x="539.55" y="894.7512">greenSpaceRepository</text><text fill="#000000" font-family="sans-serif" font-size="12.6" lengthAdjust="spacing" textLength="136.8" x="536.4" y="911.5102">:GreenSpaceRepository</text><rect fill="#E3E3E3" height="46.118" rx="2.25" ry="2.25" style="stroke:#181818;stroke-width:0.45;" width="67.5" x="688.5" y="4.5"/><text fill="#000000" font-family="sans-serif" font-size="12.6" lengthAdjust="spacing" textLength="46.8" x="698.85" y="24.3967">toDoList</text><text fill="#000000" font-family="sans-serif" font-size="12.6" lengthAdjust="spacing" textLength="54.9" x="694.8" y="41.1557">:ToDoList</text><rect fill="#E3E3E3" height="46.118" rx="2.25" ry="2.25" style="stroke:#181818;stroke-width:0.45;" width="67.5" x="688.5" y="874.8545"/><text fill="#000000" font-family="sans-serif" font-size="12.6" lengthAdjust="spacing" textLength="46.8" x="698.85" y="894.7512">toDoList</text><text fill="#000000" font-family="sans-serif" font-size="12.6" lengthAdjust="spacing" textLength="54.9" x="694.8" y="911.5102">:ToDoList</text><rect fill="#E3E3E3" height="46.118" rx="2.25" ry="2.25" style="stroke:#181818;stroke-width:0.45;" width="95.4" x="925.65" y="4.5"/><text fill="#000000" font-family="sans-serif" font-size="12.6" lengthAdjust="spacing" textLength="74.7" x="936" y="24.3967">taskToDoList</text><text fill="#000000" font-family="sans-serif" font-size="12.6" lengthAdjust="spacing" textLength="82.8" x="931.95" y="41.1557">:TaskToDoList</text><rect fill="#E3E3E3" height="46.118" rx="2.25" ry="2.25" style="stroke:#181818;stroke-width:0.45;" width="95.4" x="925.65" y="874.8545"/><text fill="#000000" font-family="sans-serif" font-size="12.6" lengthAdjust="spacing" textLength="74.7" x="936" y="894.7512">taskToDoList</text><text fill="#000000" font-family="sans-serif" font-size="12.6" lengthAdjust="spacing" textLength="82.8" x="931.95" y="911.5102">:TaskToDoList</text><rect fill="#E3E3E3" height="46.118" rx="2.25" ry="2.25" style="stroke:#181818;stroke-width:0.45;" width="88.2" x="1156.05" y="4.5"/><text fill="#000000" font-family="sans-serif" font-size="12.6" lengthAdjust="spacing" textLength="69.3" x="1165.5" y="24.3967">greenSpace</text><text fill="#000000" font-family="sans-serif" font-size="12.6" lengthAdjust="spacing" textLength="75.6" x="1162.35" y="41.1557">:GreenSpace</text><rect fill="#E3E3E3" height="46.118" rx="2.25" ry="2.25" style="stroke:#181818;stroke-width:0.45;" width="88.2" x="1156.05" y="874.8545"/><text fill="#000000" font-family="sans-serif" font-size="12.6" lengthAdjust="spacing" textLength="69.3" x="1165.5" y="894.7512">greenSpace</text><text fill="#000000" font-family="sans-serif" font-size="12.6" lengthAdjust="spacing" textLength="75.6" x="1162.35" y="911.5102">:GreenSpace</text><rect fill="#E3E3E3" height="46.118" rx="2.25" ry="2.25" style="stroke:#181818;stroke-width:0.45;" width="138.6" x="1253.25" y="4.5"/><text fill="#000000" font-family="sans-serif" font-size="12.6" lengthAdjust="spacing" textLength="117.9" x="1263.6" y="24.3967">taskToDoListMapper</text><text fill="#000000" font-family="sans-serif" font-size="12.6" lengthAdjust="spacing" textLength="126" x="1259.55" y="41.1557">:TaskToDoListMapper</text><rect fill="#E3E3E3" height="46.118" rx="2.25" ry="2.25" style="stroke:#181818;stroke-width:0.45;" width="138.6" x="1253.25" y="874.8545"/><text fill="#000000" font-family="sans-serif" font-size="12.6" lengthAdjust="spacing" textLength="117.9" x="1263.6" y="894.7512">taskToDoListMapper</text><text fill="#000000" font-family="sans-serif" font-size="12.6" lengthAdjust="spacing" textLength="126" x="1259.55" y="911.5102">:TaskToDoListMapper</text><rect fill="#FFFFFF" height="778.0746" style="stroke:#181818;stroke-width:0.9;" width="9" x="220.5" y="81.4799"/><rect fill="#FFFFFF" height="28.1619" style="stroke:#181818;stroke-width:0.9;" width="9" x="376.65" y="133.3037"/><rect fill="#FFFFFF" height="28.1619" style="stroke:#181818;stroke-width:0.9;" width="9" x="472.95" y="189.6275"/><rect fill="#FFFFFF" height="28.1619" style="stroke:#181818;stroke-width:0.9;" width="9" x="472.95" y="245.9514"/><rect fill="#FFFFFF" height="114.4477" style="stroke:#181818;stroke-width:0.9;" width="9" x="600.3" y="302.2752"/><rect fill="#FFFFFF" height="280.4572" style="stroke:#181818;stroke-width:0.9;" width="9" x="717.75" y="444.8848"/><rect fill="#FFFFFF" height="38.0619" style="stroke:#181818;stroke-width:0.9;" width="9" x="722.25" y="640.2182"/><rect fill="#FFFFFF" height="84.4857" style="stroke:#181818;stroke-width:0.9;" width="9" x="968.85" y="496.7086"/><rect fill="#FFFFFF" height="28.1619" style="stroke:#181818;stroke-width:0.9;" width="9" x="1195.65" y="354.099"/><rect fill="#FFFFFF" height="28.1619" style="stroke:#181818;stroke-width:0.9;" width="9" x="1195.65" y="524.8705"/><rect fill="#FFFFFF" height="71.5887" style="stroke:#181818;stroke-width:0.9;" width="9" x="1318.05" y="753.5039"/><polygon fill="#181818" points="209.7,77.8799,218.7,81.4799,209.7,85.0799,213.3,81.4799" style="stroke:#181818;stroke-width:0.9;"/><line style="stroke:#181818;stroke-width:0.9;" x1="0" x2="215.1" y1="81.4799" y2="81.4799"/><text fill="#000000" font-family="sans-serif" font-size="11.7" font-weight="bold" lengthAdjust="spacing" textLength="12.6" x="6.3" y="76.7435">14</text><text fill="#000000" font-family="sans-serif" font-size="11.7" lengthAdjust="spacing" textLength="187.2" x="22.5" y="76.7435">getTaskToDoList(greenSpaceName)</text><path d="M112.5,94.9799 L232.2,94.9799 L232.2,103.3418 L223.2,112.3418 L112.5,112.3418 L112.5,94.9799 " fill="#EEEEEE" style="stroke:#000000;stroke-width:1.35;"/><rect fill="none" height="737.3127" style="stroke:#000000;stroke-width:1.35;" width="1288.35" x="112.5" y="94.9799"/><text fill="#000000" font-family="sans-serif" font-size="11.7" font-weight="bold" lengthAdjust="spacing" textLength="79.2" x="126" y="108.5054">Register Entry</text><polygon fill="#181818" points="365.85,129.7037,374.85,133.3037,365.85,136.9037,369.45,133.3037" style="stroke:#181818;stroke-width:0.9;"/><line style="stroke:#181818;stroke-width:0.9;" x1="229.5" x2="371.25" y1="133.3037" y2="133.3037"/><text fill="#000000" font-family="sans-serif" font-size="11.7" font-weight="bold" lengthAdjust="spacing" textLength="22.5" x="235.8" y="128.5673">14.1</text><text fill="#000000" font-family="sans-serif" font-size="11.7" lengthAdjust="spacing" textLength="67.5" x="261.9" y="128.5673">getInstance()</text><polygon fill="#181818" points="239.4,157.8656,230.4,161.4656,239.4,165.0656,235.8,161.4656" style="stroke:#181818;stroke-width:0.9;"/><line style="stroke:#181818;stroke-width:0.9;" x1="234" x2="380.25" y1="161.4656" y2="161.4656"/><text fill="#000000" font-family="sans-serif" font-size="11.7" font-weight="bold" lengthAdjust="spacing" textLength="22.5" x="244.8" y="156.7292">14.2</text><text fill="#000000" font-family="sans-serif" font-size="11.7" lengthAdjust="spacing" textLength="60.3" x="270.9" y="156.7292">repositories</text><polygon fill="#181818" points="462.15,186.0275,471.15,189.6275,462.15,193.2275,465.75,189.6275" style="stroke:#181818;stroke-width:0.9;"/><line style="stroke:#181818;stroke-width:0.9;" x1="229.5" x2="467.55" y1="189.6275" y2="189.6275"/><text fill="#000000" font-family="sans-serif" font-size="11.7" font-weight="bold" lengthAdjust="spacing" textLength="22.5" x="235.8" y="184.8911">14.3</text><text fill="#000000" font-family="sans-serif" font-size="11.7" lengthAdjust="spacing" textLength="144" x="261.9" y="184.8911">getGreenSpaceRepository()</text><polygon fill="#181818" points="239.4,214.1895,230.4,217.7895,239.4,221.3895,235.8,217.7895" style="stroke:#181818;stroke-width:0.9;"/><line style="stroke:#181818;stroke-width:0.9;" x1="234" x2="476.55" y1="217.7895" y2="217.7895"/><text fill="#000000" font-family="sans-serif" font-size="11.7" font-weight="bold" lengthAdjust="spacing" textLength="22.5" x="244.8" y="213.053">14.4</text><text fill="#000000" font-family="sans-serif" font-size="11.7" lengthAdjust="spacing" textLength="117.9" x="270.9" y="213.053">greenSpaceRepository</text><polygon fill="#181818" points="462.15,242.3514,471.15,245.9514,462.15,249.5514,465.75,245.9514" style="stroke:#181818;stroke-width:0.9;"/><line style="stroke:#181818;stroke-width:0.9;" x1="229.5" x2="467.55" y1="245.9514" y2="245.9514"/><text fill="#000000" font-family="sans-serif" font-size="11.7" font-weight="bold" lengthAdjust="spacing" textLength="22.5" x="235.8" y="241.2149">14.5</text><text fill="#000000" font-family="sans-serif" font-size="11.7" lengthAdjust="spacing" textLength="69.3" x="261.9" y="241.2149">getToDoList()</text><polygon fill="#181818" points="239.4,270.5133,230.4,274.1133,239.4,277.7133,235.8,274.1133" style="stroke:#181818;stroke-width:0.9;"/><line style="stroke:#181818;stroke-width:0.9;" x1="234" x2="476.55" y1="274.1133" y2="274.1133"/><text fill="#000000" font-family="sans-serif" font-size="11.7" font-weight="bold" lengthAdjust="spacing" textLength="22.5" x="244.8" y="269.3769">14.6</text><text fill="#000000" font-family="sans-serif" font-size="11.7" lengthAdjust="spacing" textLength="43.2" x="270.9" y="269.3769">toDoList</text><polygon fill="#181818" points="589.5,298.6752,598.5,302.2752,589.5,305.8752,593.1,302.2752" style="stroke:#181818;stroke-width:0.9;"/><line style="stroke:#181818;stroke-width:0.9;" x1="229.5" x2="594.9" y1="302.2752" y2="302.2752"/><text fill="#000000" font-family="sans-serif" font-size="11.7" font-weight="bold" lengthAdjust="spacing" textLength="22.5" x="235.8" y="297.5388">14.7</text><text fill="#000000" font-family="sans-serif" font-size="11.7" lengthAdjust="spacing" textLength="225.9" x="261.9" y="297.5388">getGreenSpaceByName(greenSpaceName)</text><path d="M521.1,315.7752 L586.8,315.7752 L586.8,324.1371 L577.8,333.1371 L521.1,333.1371 L521.1,315.7752 " fill="#EEEEEE" style="stroke:#000000;stroke-width:1.35;"/><rect fill="none" height="73.6857" style="stroke:#000000;stroke-width:1.35;" width="732.15" x="521.1" y="315.7752"/><text fill="#000000" font-family="sans-serif" font-size="11.7" font-weight="bold" lengthAdjust="spacing" textLength="25.2" x="534.6" y="329.3007">loop</text><text fill="#000000" font-family="sans-serif" font-size="9.9" font-weight="bold" lengthAdjust="spacing" textLength="334.8" x="600.3" y="328.2583">[for each greenSpace in greenSpaceList[in greenSpaceRepository]]</text><polygon fill="#181818" points="1184.85,350.499,1193.85,354.099,1184.85,357.699,1188.45,354.099" style="stroke:#181818;stroke-width:0.9;"/><line style="stroke:#181818;stroke-width:0.9;" x1="609.3" x2="1190.25" y1="354.099" y2="354.099"/><text fill="#000000" font-family="sans-serif" font-size="11.7" font-weight="bold" lengthAdjust="spacing" textLength="22.5" x="615.6" y="349.3626">14.8</text><text fill="#000000" font-family="sans-serif" font-size="11.7" lengthAdjust="spacing" textLength="149.4" x="641.7" y="349.3626">hasName(greenSpaceName)</text><polygon fill="#181818" points="619.2,378.6609,610.2,382.2609,619.2,385.8609,615.6,382.2609" style="stroke:#181818;stroke-width:0.9;"/><line style="stroke:#181818;stroke-width:0.9;stroke-dasharray:2.0,2.0;" x1="613.8" x2="1199.25" y1="382.2609" y2="382.2609"/><text fill="#000000" font-family="sans-serif" font-size="11.7" font-weight="bold" lengthAdjust="spacing" textLength="22.5" x="624.6" y="377.5245">14.9</text><text fill="#000000" font-family="sans-serif" font-size="11.7" lengthAdjust="spacing" textLength="47.7" x="650.7" y="377.5245">true/false</text><polygon fill="#181818" points="239.4,413.1229,230.4,416.7229,239.4,420.3229,235.8,416.7229" style="stroke:#181818;stroke-width:0.9;"/><line style="stroke:#181818;stroke-width:0.9;stroke-dasharray:2.0,2.0;" x1="234" x2="603.9" y1="416.7229" y2="416.7229"/><text fill="#000000" font-family="sans-serif" font-size="11.7" font-weight="bold" lengthAdjust="spacing" textLength="28.8" x="244.8" y="411.9864">14.10</text><text fill="#000000" font-family="sans-serif" font-size="11.7" lengthAdjust="spacing" textLength="62.1" x="277.2" y="411.9864">greenSpace</text><polygon fill="#181818" points="706.95,441.2848,715.95,444.8848,706.95,448.4848,710.55,444.8848" style="stroke:#181818;stroke-width:0.9;"/><line style="stroke:#181818;stroke-width:0.9;" x1="229.5" x2="712.35" y1="444.8848" y2="444.8848"/><text fill="#000000" font-family="sans-serif" font-size="11.7" font-weight="bold" lengthAdjust="spacing" textLength="28.8" x="235.8" y="440.1483">14.11</text><text fill="#000000" font-family="sans-serif" font-size="11.7" lengthAdjust="spacing" textLength="196.2" x="268.2" y="440.1483">getTasksByGreenSpace(greenSpace)</text><path d="M670.5,458.3848 L736.2,458.3848 L736.2,466.7467 L727.2,475.7467 L670.5,475.7467 L670.5,458.3848 " fill="#EEEEEE" style="stroke:#000000;stroke-width:1.35;"/><rect fill="none" height="239.6953" style="stroke:#000000;stroke-width:1.35;" width="582.75" x="670.5" y="458.3848"/><text fill="#000000" font-family="sans-serif" font-size="11.7" font-weight="bold" lengthAdjust="spacing" textLength="25.2" x="684" y="471.9103">loop</text><text fill="#000000" font-family="sans-serif" font-size="9.9" font-weight="bold" lengthAdjust="spacing" textLength="177.3" x="749.7" y="470.8679">[for each TaskToDoList in ToDoList]</text><polygon fill="#181818" points="958.05,493.1086,967.05,496.7086,958.05,500.3086,961.65,496.7086" style="stroke:#181818;stroke-width:0.9;"/><line style="stroke:#181818;stroke-width:0.9;" x1="726.75" x2="963.45" y1="496.7086" y2="496.7086"/><text fill="#000000" font-family="sans-serif" font-size="11.7" font-weight="bold" lengthAdjust="spacing" textLength="28.8" x="733.05" y="491.9722">14.12</text><text fill="#000000" font-family="sans-serif" font-size="11.7" lengthAdjust="spacing" textLength="192.6" x="765.45" y="491.9722">hasTaskByGreenSpace(greenSpace)</text><polygon fill="#181818" points="1184.85,521.2705,1193.85,524.8705,1184.85,528.4705,1188.45,524.8705" style="stroke:#181818;stroke-width:0.9;"/><line style="stroke:#181818;stroke-width:0.9;" x1="977.85" x2="1190.25" y1="524.8705" y2="524.8705"/><text fill="#000000" font-family="sans-serif" font-size="11.7" font-weight="bold" lengthAdjust="spacing" textLength="28.8" x="984.15" y="520.1341">14.13</text><text fill="#000000" font-family="sans-serif" font-size="11.7" lengthAdjust="spacing" textLength="168.3" x="1016.55" y="520.1341">equalsGreenSpace(greenSpace)</text><polygon fill="#181818" points="987.75,549.4324,978.75,553.0324,987.75,556.6324,984.15,553.0324" style="stroke:#181818;stroke-width:0.9;"/><line style="stroke:#181818;stroke-width:0.9;stroke-dasharray:2.0,2.0;" x1="982.35" x2="1199.25" y1="553.0324" y2="553.0324"/><text fill="#000000" font-family="sans-serif" font-size="11.7" font-weight="bold" lengthAdjust="spacing" textLength="28.8" x="993.15" y="548.296">14.14</text><text fill="#000000" font-family="sans-serif" font-size="11.7" lengthAdjust="spacing" textLength="47.7" x="1025.55" y="548.296">true/false</text><polygon fill="#181818" points="736.65,577.5943,727.65,581.1943,736.65,584.7943,733.05,581.1943" style="stroke:#181818;stroke-width:0.9;"/><line style="stroke:#181818;stroke-width:0.9;stroke-dasharray:2.0,2.0;" x1="731.25" x2="972.45" y1="581.1943" y2="581.1943"/><text fill="#000000" font-family="sans-serif" font-size="11.7" font-weight="bold" lengthAdjust="spacing" textLength="28.8" x="742.05" y="576.4579">14.15</text><text fill="#000000" font-family="sans-serif" font-size="11.7" lengthAdjust="spacing" textLength="47.7" x="774.45" y="576.4579">true/false</text><path d="M679.5,594.6943 L734.4,594.6943 L734.4,603.0563 L725.4,612.0563 L679.5,612.0563 L679.5,594.6943 " fill="#EEEEEE" style="stroke:#000000;stroke-width:1.35;"/><rect fill="none" height="97.0857" style="stroke:#000000;stroke-width:1.35;" width="236.25" x="679.5" y="594.6943"/><text fill="#000000" font-family="sans-serif" font-size="11.7" font-weight="bold" lengthAdjust="spacing" textLength="14.4" x="693" y="608.2198">alt</text><text fill="#000000" font-family="sans-serif" font-size="9.9" font-weight="bold" lengthAdjust="spacing" textLength="158.4" x="747.9" y="607.1774">[hasTaskByGreenSpace == true]</text><line style="stroke:#181818;stroke-width:0.9;" x1="726.75" x2="769.05" y1="628.5182" y2="628.5182"/><line style="stroke:#181818;stroke-width:0.9;" x1="769.05" x2="769.05" y1="628.5182" y2="640.2182"/><line style="stroke:#181818;stroke-width:0.9;" x1="732.15" x2="769.05" y1="640.2182" y2="640.2182"/><polygon fill="#181818" points="741.15,636.6182,732.15,640.2182,741.15,643.8182,737.55,640.2182" style="stroke:#181818;stroke-width:0.9;"/><text fill="#000000" font-family="sans-serif" font-size="11.7" font-weight="bold" lengthAdjust="spacing" textLength="28.8" x="737.55" y="623.7817">14.16</text><text fill="#000000" font-family="sans-serif" font-size="11.7" lengthAdjust="spacing" textLength="135" x="769.95" y="623.7817">addTaskListGreenSpace()</text><line style="stroke:#181818;stroke-width:0.9;stroke-dasharray:2.0,2.0;" x1="731.25" x2="769.05" y1="677.3801" y2="677.3801"/><line style="stroke:#181818;stroke-width:0.9;stroke-dasharray:2.0,2.0;" x1="769.05" x2="769.05" y1="677.3801" y2="689.0801"/><line style="stroke:#181818;stroke-width:0.9;stroke-dasharray:2.0,2.0;" x1="726.75" x2="769.05" y1="689.0801" y2="689.0801"/><polygon fill="#181818" points="735.75,685.4801,726.75,689.0801,735.75,692.6801,732.15,689.0801" style="stroke:#181818;stroke-width:0.9;"/><text fill="#000000" font-family="sans-serif" font-size="11.7" font-weight="bold" lengthAdjust="spacing" textLength="28.8" x="737.55" y="672.6437">14.17</text><text fill="#000000" font-family="sans-serif" font-size="11.7" lengthAdjust="spacing" textLength="47.7" x="769.95" y="672.6437">true/false</text><polygon fill="#181818" points="239.4,721.742,230.4,725.342,239.4,728.942,235.8,725.342" style="stroke:#181818;stroke-width:0.9;"/><line style="stroke:#181818;stroke-width:0.9;stroke-dasharray:2.0,2.0;" x1="234" x2="721.35" y1="725.342" y2="725.342"/><text fill="#000000" font-family="sans-serif" font-size="11.7" font-weight="bold" lengthAdjust="spacing" textLength="28.8" x="244.8" y="720.6056">14.18</text><text fill="#000000" font-family="sans-serif" font-size="11.7" lengthAdjust="spacing" textLength="106.2" x="277.2" y="720.6056">taskListGreenSpace</text><polygon fill="#181818" points="1307.25,749.9039,1316.25,753.5039,1307.25,757.1039,1310.85,753.5039" style="stroke:#181818;stroke-width:0.9;"/><line style="stroke:#181818;stroke-width:0.9;" x1="229.5" x2="1312.65" y1="753.5039" y2="753.5039"/><text fill="#000000" font-family="sans-serif" font-size="11.7" font-weight="bold" lengthAdjust="spacing" textLength="28.8" x="235.8" y="748.7675">14.19</text><text fill="#000000" font-family="sans-serif" font-size="11.7" lengthAdjust="spacing" textLength="217.8" x="268.2" y="748.7675">toDTOTaskToDoList(taskListGreenSpace)</text><rect fill="none" height="38.9268" style="stroke:#000000;stroke-width:1.35;" width="144" x="1250.55" y="760.7039"/><path d="M1250.55,760.7039 L1306.35,760.7039 L1306.35,768.8039 L1297.35,777.8039 L1250.55,777.8039 L1250.55,760.7039 " fill="#EEEEEE" style="stroke:#000000;stroke-width:1.8;"/><text fill="#000000" font-family="sans-serif" font-size="11.7" font-weight="bold" lengthAdjust="spacing" textLength="15.3" x="1262.25" y="775.1294">ref</text><text fill="#000000" font-family="sans-serif" font-size="10.8" lengthAdjust="spacing" textLength="112.5" x="1266.3" y="793.0582">Task ToDoList To DTO</text><polygon fill="#181818" points="239.4,821.4926,230.4,825.0926,239.4,828.6926,235.8,825.0926" style="stroke:#181818;stroke-width:0.9;"/><line style="stroke:#181818;stroke-width:0.9;stroke-dasharray:2.0,2.0;" x1="234" x2="1321.65" y1="825.0926" y2="825.0926"/><text fill="#000000" font-family="sans-serif" font-size="11.7" font-weight="bold" lengthAdjust="spacing" textLength="28.8" x="244.8" y="820.3562">14.20</text><text fill="#000000" font-family="sans-serif" font-size="11.7" lengthAdjust="spacing" textLength="124.2" x="277.2" y="820.3562">taskListGreenSpaceDto</text><polygon fill="#181818" points="9.9,855.9545,0.9,859.5545,9.9,863.1545,6.3,859.5545" style="stroke:#181818;stroke-width:0.9;"/><line style="stroke:#181818;stroke-width:0.9;stroke-dasharray:2.0,2.0;" x1="4.5" x2="224.1" y1="859.5545" y2="859.5545"/><text fill="#000000" font-family="sans-serif" font-size="11.7" font-weight="bold" lengthAdjust="spacing" textLength="12.6" x="15.3" y="854.8181">15</text><text fill="#000000" font-family="sans-serif" font-size="11.7" lengthAdjust="spacing" textLength="124.2" x="31.5" y="854.8181">taskListGreenSpaceDto</text><!--SRC=[bLPDRzim3BthLmWzDOTiAB1TWdL0sWp5WBGh4j-s7RIOSOmuaYSfBVBlHz5ViYtRcIwnPVBnaO-KOewfp8KM9tvIKkqEMfs0Mtq6PkelkTWTHG9RUyc0QzXP8PFCDp074QltL2PyBp83ZE6sJNTfBgJbDujb7B_0-pTfzILIomHaB1uLlgai0tt3XU6FqMRTSTf0hangbKx1a4szSTccBhvLiksYFOzViW_mkbv6ROz40yWjfWSDE7e-1RO9uMcxQGDOjLBhr5XqYif7CenMdNIiCCV8C_PU2uUUHyEjnQZaCOp-BF8ST2T6iLb7UdvbJ9onWEVJ7z3yxXERVoKD5Zm1wplUDZHUn0bc7RyFTqpiRFecB1GQSbo9LkSSvKhG7wr8TqQVEOO9oCWfx7TfiB5sS3iZb1etf3jPX93AF13HxmOoZs4QiYBfMgLW5Ug5BaDgBDeYluP3gB-wN1hdVl1QXMi3Llqu7GHRkPlWmyL9t5Ey5TbD0EraIkLyhpJ780SlKPvAxyrn-TdQQGhnkm3oboD5t93QGPX1ElxogFK12r0-hnDs9zl7uf0AsNebwyBXgJL0EAGt6qNUj94gJN0oUJs1vk7IIEDLeLs16jIT7y6KsaBvi-sagfx3lewGuuM_98ZplefMdzuWFufJ1YBXuUyPzVcF85TrWTS9KL7dYLQOQ8Tm2eM8Ls5tyCSBH2bcDgG1lxylxci-iIenANaHnmx8IUzLUZO9CjrllP1rp2kBqYtCQZrg7fpBu8UAJNLMzl9d8nJ20qjtAL_WiHlzQ5sRVV2XkIslur066lPSlU4LMXeDbXc3rPEC3npP39N4WNRAKYGnMfcLLMoaSKjkTSNz_mYVQUVBV3wExY7I7mds3m00]--></g></svg>