<?xml version="1.0" encoding="us-ascii" standalone="no"?><svg xmlns="http://www.w3.org/2000/svg" xmlns:xlink="http://www.w3.org/1999/xlink" contentStyleType="text/css" height="1029px" preserveAspectRatio="none" style="width:1562px;height:1029px;background:#FFFFFF;" version="1.1" viewBox="0 0 1562 1029" width="1562px" zoomAndPan="magnify"><defs/><g><rect fill="#FFFFFF" height="864.5273" style="stroke:#181818;stroke-width:1.0;" width="10" x="245" y="90.5332"/><rect fill="#FFFFFF" height="31.291" style="stroke:#181818;stroke-width:1.0;" width="10" x="418.5" y="148.1152"/><rect fill="#FFFFFF" height="31.291" style="stroke:#181818;stroke-width:1.0;" width="10" x="525.5" y="210.6973"/><rect fill="#FFFFFF" height="31.291" style="stroke:#181818;stroke-width:1.0;" width="10" x="525.5" y="273.2793"/><rect fill="#FFFFFF" height="127.1641" style="stroke:#181818;stroke-width:1.0;" width="10" x="667" y="335.8613"/><rect fill="#FFFFFF" height="311.6191" style="stroke:#181818;stroke-width:1.0;" width="10" x="797.5" y="494.3164"/><rect fill="#FFFFFF" height="42.291" style="stroke:#181818;stroke-width:1.0;" width="10" x="802.5" y="711.3535"/><rect fill="#FFFFFF" height="93.873" style="stroke:#181818;stroke-width:1.0;" width="10" x="1076.5" y="551.8984"/><rect fill="#FFFFFF" height="31.291" style="stroke:#181818;stroke-width:1.0;" width="10" x="1328.5" y="393.4434"/><rect fill="#FFFFFF" height="31.291" style="stroke:#181818;stroke-width:1.0;" width="10" x="1328.5" y="583.1895"/><rect fill="#FFFFFF" height="79.543" style="stroke:#181818;stroke-width:1.0;" width="10" x="1464.5" y="837.2266"/><rect fill="none" height="819.2363" style="stroke:#000000;stroke-width:1.5;" width="1431.5" x="125" y="105.5332"/><rect fill="none" height="81.873" style="stroke:#000000;stroke-width:1.5;" width="813.5" x="579" y="350.8613"/><rect fill="none" height="266.3281" style="stroke:#000000;stroke-width:1.5;" width="647.5" x="745" y="509.3164"/><rect fill="none" height="107.873" style="stroke:#000000;stroke-width:1.5;" width="262.5" x="755" y="660.7715"/><line style="stroke:#181818;stroke-width:0.5;stroke-dasharray:5.0,5.0;" x1="250" x2="250" y1="57.2422" y2="973.0605"/><line style="stroke:#181818;stroke-width:0.5;stroke-dasharray:5.0,5.0;" x1="423" x2="423" y1="57.2422" y2="973.0605"/><line style="stroke:#181818;stroke-width:0.5;stroke-dasharray:5.0,5.0;" x1="530" x2="530" y1="57.2422" y2="973.0605"/><line style="stroke:#181818;stroke-width:0.5;stroke-dasharray:5.0,5.0;" x1="672" x2="672" y1="57.2422" y2="973.0605"/><line style="stroke:#181818;stroke-width:0.5;stroke-dasharray:5.0,5.0;" x1="802" x2="802" y1="57.2422" y2="973.0605"/><line style="stroke:#181818;stroke-width:0.5;stroke-dasharray:5.0,5.0;" x1="1081.5" x2="1081.5" y1="57.2422" y2="973.0605"/><line style="stroke:#181818;stroke-width:0.5;stroke-dasharray:5.0,5.0;" x1="1333.5" x2="1333.5" y1="57.2422" y2="973.0605"/><line style="stroke:#181818;stroke-width:0.5;stroke-dasharray:5.0,5.0;" x1="1469.5" x2="1469.5" y1="57.2422" y2="973.0605"/><rect fill="#E3E3E3" height="32.6211" rx="2.5" ry="2.5" style="stroke:#181818;stroke-width:0.5;" width="230" x="135" y="23.6211"/><text fill="#000000" font-family="sans-serif" font-size="14" lengthAdjust="spacing" textLength="216" x="142" y="45.7285">:AddNewEntryToAgendaController</text><rect fill="#E3E3E3" height="32.6211" rx="2.5" ry="2.5" style="stroke:#181818;stroke-width:0.5;" width="230" x="135" y="972.0605"/><text fill="#000000" font-family="sans-serif" font-size="14" lengthAdjust="spacing" textLength="216" x="142" y="994.168">:AddNewEntryToAgendaController</text><rect fill="#E3E3E3" height="32.6211" rx="2.5" ry="2.5" style="stroke:#181818;stroke-width:0.5;" width="97" x="375" y="23.6211"/><text fill="#000000" font-family="sans-serif" font-size="14" lengthAdjust="spacing" textLength="83" x="382" y="45.7285">:Repositories</text><rect fill="#E3E3E3" height="32.6211" rx="2.5" ry="2.5" style="stroke:#181818;stroke-width:0.5;" width="97" x="375" y="972.0605"/><text fill="#000000" font-family="sans-serif" font-size="14" lengthAdjust="spacing" textLength="83" x="382" y="994.168">:Repositories</text><rect fill="#E3E3E3" height="51.2422" rx="2.5" ry="2.5" style="stroke:#181818;stroke-width:0.5;" width="97" x="482" y="5"/><text fill="#000000" font-family="sans-serif" font-size="14" lengthAdjust="spacing" textLength="74" x="493.5" y="27.1074">repositories</text><text fill="#000000" font-family="sans-serif" font-size="14" lengthAdjust="spacing" textLength="83" x="489" y="45.7285">:Repositories</text><rect fill="#E3E3E3" height="51.2422" rx="2.5" ry="2.5" style="stroke:#181818;stroke-width:0.5;" width="97" x="482" y="972.0605"/><text fill="#000000" font-family="sans-serif" font-size="14" lengthAdjust="spacing" textLength="74" x="493.5" y="994.168">repositories</text><text fill="#000000" font-family="sans-serif" font-size="14" lengthAdjust="spacing" textLength="83" x="489" y="1012.7891">:Repositories</text><rect fill="#E3E3E3" height="51.2422" rx="2.5" ry="2.5" style="stroke:#181818;stroke-width:0.5;" width="166" x="589" y="5"/><text fill="#000000" font-family="sans-serif" font-size="14" lengthAdjust="spacing" textLength="145" x="599.5" y="27.1074">greenSpaceRepository</text><text fill="#000000" font-family="sans-serif" font-size="14" lengthAdjust="spacing" textLength="152" x="596" y="45.7285">:GreenSpaceRepository</text><rect fill="#E3E3E3" height="51.2422" rx="2.5" ry="2.5" style="stroke:#181818;stroke-width:0.5;" width="166" x="589" y="972.0605"/><text fill="#000000" font-family="sans-serif" font-size="14" lengthAdjust="spacing" textLength="145" x="599.5" y="994.168">greenSpaceRepository</text><text fill="#000000" font-family="sans-serif" font-size="14" lengthAdjust="spacing" textLength="152" x="596" y="1012.7891">:GreenSpaceRepository</text><rect fill="#E3E3E3" height="51.2422" rx="2.5" ry="2.5" style="stroke:#181818;stroke-width:0.5;" width="75" x="765" y="5"/><text fill="#000000" font-family="sans-serif" font-size="14" lengthAdjust="spacing" textLength="52" x="776.5" y="27.1074">toDoList</text><text fill="#000000" font-family="sans-serif" font-size="14" lengthAdjust="spacing" textLength="61" x="772" y="45.7285">:ToDoList</text><rect fill="#E3E3E3" height="51.2422" rx="2.5" ry="2.5" style="stroke:#181818;stroke-width:0.5;" width="75" x="765" y="972.0605"/><text fill="#000000" font-family="sans-serif" font-size="14" lengthAdjust="spacing" textLength="52" x="776.5" y="994.168">toDoList</text><text fill="#000000" font-family="sans-serif" font-size="14" lengthAdjust="spacing" textLength="61" x="772" y="1012.7891">:ToDoList</text><rect fill="#E3E3E3" height="51.2422" rx="2.5" ry="2.5" style="stroke:#181818;stroke-width:0.5;" width="106" x="1028.5" y="5"/><text fill="#000000" font-family="sans-serif" font-size="14" lengthAdjust="spacing" textLength="83" x="1040" y="27.1074">taskToDoList</text><text fill="#000000" font-family="sans-serif" font-size="14" lengthAdjust="spacing" textLength="92" x="1035.5" y="45.7285">:TaskToDoList</text><rect fill="#E3E3E3" height="51.2422" rx="2.5" ry="2.5" style="stroke:#181818;stroke-width:0.5;" width="106" x="1028.5" y="972.0605"/><text fill="#000000" font-family="sans-serif" font-size="14" lengthAdjust="spacing" textLength="83" x="1040" y="994.168">taskToDoList</text><text fill="#000000" font-family="sans-serif" font-size="14" lengthAdjust="spacing" textLength="92" x="1035.5" y="1012.7891">:TaskToDoList</text><rect fill="#E3E3E3" height="51.2422" rx="2.5" ry="2.5" style="stroke:#181818;stroke-width:0.5;" width="98" x="1284.5" y="5"/><text fill="#000000" font-family="sans-serif" font-size="14" lengthAdjust="spacing" textLength="77" x="1295" y="27.1074">greenSpace</text><text fill="#000000" font-family="sans-serif" font-size="14" lengthAdjust="spacing" textLength="84" x="1291.5" y="45.7285">:GreenSpace</text><rect fill="#E3E3E3" height="51.2422" rx="2.5" ry="2.5" style="stroke:#181818;stroke-width:0.5;" width="98" x="1284.5" y="972.0605"/><text fill="#000000" font-family="sans-serif" font-size="14" lengthAdjust="spacing" textLength="77" x="1295" y="994.168">greenSpace</text><text fill="#000000" font-family="sans-serif" font-size="14" lengthAdjust="spacing" textLength="84" x="1291.5" y="1012.7891">:GreenSpace</text><rect fill="#E3E3E3" height="51.2422" rx="2.5" ry="2.5" style="stroke:#181818;stroke-width:0.5;" width="154" x="1392.5" y="5"/><text fill="#000000" font-family="sans-serif" font-size="14" lengthAdjust="spacing" textLength="131" x="1404" y="27.1074">taskToDoListMapper</text><text fill="#000000" font-family="sans-serif" font-size="14" lengthAdjust="spacing" textLength="140" x="1399.5" y="45.7285">:TaskToDoListMapper</text><rect fill="#E3E3E3" height="51.2422" rx="2.5" ry="2.5" style="stroke:#181818;stroke-width:0.5;" width="154" x="1392.5" y="972.0605"/><text fill="#000000" font-family="sans-serif" font-size="14" lengthAdjust="spacing" textLength="131" x="1404" y="994.168">taskToDoListMapper</text><text fill="#000000" font-family="sans-serif" font-size="14" lengthAdjust="spacing" textLength="140" x="1399.5" y="1012.7891">:TaskToDoListMapper</text><rect fill="#FFFFFF" height="864.5273" style="stroke:#181818;stroke-width:1.0;" width="10" x="245" y="90.5332"/><rect fill="#FFFFFF" height="31.291" style="stroke:#181818;stroke-width:1.0;" width="10" x="418.5" y="148.1152"/><rect fill="#FFFFFF" height="31.291" style="stroke:#181818;stroke-width:1.0;" width="10" x="525.5" y="210.6973"/><rect fill="#FFFFFF" height="31.291" style="stroke:#181818;stroke-width:1.0;" width="10" x="525.5" y="273.2793"/><rect fill="#FFFFFF" height="127.1641" style="stroke:#181818;stroke-width:1.0;" width="10" x="667" y="335.8613"/><rect fill="#FFFFFF" height="311.6191" style="stroke:#181818;stroke-width:1.0;" width="10" x="797.5" y="494.3164"/><rect fill="#FFFFFF" height="42.291" style="stroke:#181818;stroke-width:1.0;" width="10" x="802.5" y="711.3535"/><rect fill="#FFFFFF" height="93.873" style="stroke:#181818;stroke-width:1.0;" width="10" x="1076.5" y="551.8984"/><rect fill="#FFFFFF" height="31.291" style="stroke:#181818;stroke-width:1.0;" width="10" x="1328.5" y="393.4434"/><rect fill="#FFFFFF" height="31.291" style="stroke:#181818;stroke-width:1.0;" width="10" x="1328.5" y="583.1895"/><rect fill="#FFFFFF" height="79.543" style="stroke:#181818;stroke-width:1.0;" width="10" x="1464.5" y="837.2266"/><polygon fill="#181818" points="233,86.5332,243,90.5332,233,94.5332,237,90.5332" style="stroke:#181818;stroke-width:1.0;"/><line style="stroke:#181818;stroke-width:1.0;" x1="0" x2="239" y1="90.5332" y2="90.5332"/><text fill="#000000" font-family="sans-serif" font-size="13" font-weight="bold" lengthAdjust="spacing" textLength="14" x="7" y="85.2705">14</text><text fill="#000000" font-family="sans-serif" font-size="13" lengthAdjust="spacing" textLength="208" x="25" y="85.2705">getTaskToDoList(greenSpaceName)</text><path d="M125,105.5332 L258,105.5332 L258,114.8242 L248,124.8242 L125,124.8242 L125,105.5332 " fill="#EEEEEE" style="stroke:#000000;stroke-width:1.5;"/><rect fill="none" height="819.2363" style="stroke:#000000;stroke-width:1.5;" width="1431.5" x="125" y="105.5332"/><text fill="#000000" font-family="sans-serif" font-size="13" font-weight="bold" lengthAdjust="spacing" textLength="88" x="140" y="120.5615">Register Entry</text><polygon fill="#181818" points="406.5,144.1152,416.5,148.1152,406.5,152.1152,410.5,148.1152" style="stroke:#181818;stroke-width:1.0;"/><line style="stroke:#181818;stroke-width:1.0;" x1="255" x2="412.5" y1="148.1152" y2="148.1152"/><text fill="#000000" font-family="sans-serif" font-size="13" font-weight="bold" lengthAdjust="spacing" textLength="25" x="262" y="142.8525">14.1</text><text fill="#000000" font-family="sans-serif" font-size="13" lengthAdjust="spacing" textLength="75" x="291" y="142.8525">getInstance()</text><polygon fill="#181818" points="266,175.4063,256,179.4063,266,183.4063,262,179.4063" style="stroke:#181818;stroke-width:1.0;"/><line style="stroke:#181818;stroke-width:1.0;" x1="260" x2="422.5" y1="179.4063" y2="179.4063"/><text fill="#000000" font-family="sans-serif" font-size="13" font-weight="bold" lengthAdjust="spacing" textLength="25" x="272" y="174.1436">14.2</text><text fill="#000000" font-family="sans-serif" font-size="13" lengthAdjust="spacing" textLength="67" x="301" y="174.1436">repositories</text><polygon fill="#181818" points="513.5,206.6973,523.5,210.6973,513.5,214.6973,517.5,210.6973" style="stroke:#181818;stroke-width:1.0;"/><line style="stroke:#181818;stroke-width:1.0;" x1="255" x2="519.5" y1="210.6973" y2="210.6973"/><text fill="#000000" font-family="sans-serif" font-size="13" font-weight="bold" lengthAdjust="spacing" textLength="25" x="262" y="205.4346">14.3</text><text fill="#000000" font-family="sans-serif" font-size="13" lengthAdjust="spacing" textLength="160" x="291" y="205.4346">getGreenSpaceRepository()</text><polygon fill="#181818" points="266,237.9883,256,241.9883,266,245.9883,262,241.9883" style="stroke:#181818;stroke-width:1.0;"/><line style="stroke:#181818;stroke-width:1.0;" x1="260" x2="529.5" y1="241.9883" y2="241.9883"/><text fill="#000000" font-family="sans-serif" font-size="13" font-weight="bold" lengthAdjust="spacing" textLength="25" x="272" y="236.7256">14.4</text><text fill="#000000" font-family="sans-serif" font-size="13" lengthAdjust="spacing" textLength="131" x="301" y="236.7256">greenSpaceRepository</text><polygon fill="#181818" points="513.5,269.2793,523.5,273.2793,513.5,277.2793,517.5,273.2793" style="stroke:#181818;stroke-width:1.0;"/><line style="stroke:#181818;stroke-width:1.0;" x1="255" x2="519.5" y1="273.2793" y2="273.2793"/><text fill="#000000" font-family="sans-serif" font-size="13" font-weight="bold" lengthAdjust="spacing" textLength="25" x="262" y="268.0166">14.5</text><text fill="#000000" font-family="sans-serif" font-size="13" lengthAdjust="spacing" textLength="77" x="291" y="268.0166">getToDoList()</text><polygon fill="#181818" points="266,300.5703,256,304.5703,266,308.5703,262,304.5703" style="stroke:#181818;stroke-width:1.0;"/><line style="stroke:#181818;stroke-width:1.0;" x1="260" x2="529.5" y1="304.5703" y2="304.5703"/><text fill="#000000" font-family="sans-serif" font-size="13" font-weight="bold" lengthAdjust="spacing" textLength="25" x="272" y="299.3076">14.6</text><text fill="#000000" font-family="sans-serif" font-size="13" lengthAdjust="spacing" textLength="48" x="301" y="299.3076">toDoList</text><polygon fill="#181818" points="655,331.8613,665,335.8613,655,339.8613,659,335.8613" style="stroke:#181818;stroke-width:1.0;"/><line style="stroke:#181818;stroke-width:1.0;" x1="255" x2="661" y1="335.8613" y2="335.8613"/><text fill="#000000" font-family="sans-serif" font-size="13" font-weight="bold" lengthAdjust="spacing" textLength="25" x="262" y="330.5986">14.7</text><text fill="#000000" font-family="sans-serif" font-size="13" lengthAdjust="spacing" textLength="251" x="291" y="330.5986">getGreenSpaceByName(greenSpaceName)</text><path d="M579,350.8613 L652,350.8613 L652,360.1523 L642,370.1523 L579,370.1523 L579,350.8613 " fill="#EEEEEE" style="stroke:#000000;stroke-width:1.5;"/><rect fill="none" height="81.873" style="stroke:#000000;stroke-width:1.5;" width="813.5" x="579" y="350.8613"/><text fill="#000000" font-family="sans-serif" font-size="13" font-weight="bold" lengthAdjust="spacing" textLength="28" x="594" y="365.8896">loop</text><text fill="#000000" font-family="sans-serif" font-size="11" font-weight="bold" lengthAdjust="spacing" textLength="372" x="667" y="364.7314">[for each greenSpace in greenSpaceList[in greenSpaceRepository]]</text><polygon fill="#181818" points="1316.5,389.4434,1326.5,393.4434,1316.5,397.4434,1320.5,393.4434" style="stroke:#181818;stroke-width:1.0;"/><line style="stroke:#181818;stroke-width:1.0;" x1="677" x2="1322.5" y1="393.4434" y2="393.4434"/><text fill="#000000" font-family="sans-serif" font-size="13" font-weight="bold" lengthAdjust="spacing" textLength="25" x="684" y="388.1807">14.8</text><text fill="#000000" font-family="sans-serif" font-size="13" lengthAdjust="spacing" textLength="166" x="713" y="388.1807">hasName(greenSpaceName)</text><polygon fill="#181818" points="688,420.7344,678,424.7344,688,428.7344,684,424.7344" style="stroke:#181818;stroke-width:1.0;"/><line style="stroke:#181818;stroke-width:1.0;stroke-dasharray:2.0,2.0;" x1="682" x2="1332.5" y1="424.7344" y2="424.7344"/><text fill="#000000" font-family="sans-serif" font-size="13" font-weight="bold" lengthAdjust="spacing" textLength="25" x="694" y="419.4717">14.9</text><text fill="#000000" font-family="sans-serif" font-size="13" lengthAdjust="spacing" textLength="53" x="723" y="419.4717">true/false</text><polygon fill="#181818" points="266,459.0254,256,463.0254,266,467.0254,262,463.0254" style="stroke:#181818;stroke-width:1.0;"/><line style="stroke:#181818;stroke-width:1.0;stroke-dasharray:2.0,2.0;" x1="260" x2="671" y1="463.0254" y2="463.0254"/><text fill="#000000" font-family="sans-serif" font-size="13" font-weight="bold" lengthAdjust="spacing" textLength="32" x="272" y="457.7627">14.10</text><text fill="#000000" font-family="sans-serif" font-size="13" lengthAdjust="spacing" textLength="69" x="308" y="457.7627">greenSpace</text><polygon fill="#181818" points="785.5,490.3164,795.5,494.3164,785.5,498.3164,789.5,494.3164" style="stroke:#181818;stroke-width:1.0;"/><line style="stroke:#181818;stroke-width:1.0;" x1="255" x2="791.5" y1="494.3164" y2="494.3164"/><text fill="#000000" font-family="sans-serif" font-size="13" font-weight="bold" lengthAdjust="spacing" textLength="32" x="262" y="489.0537">14.11</text><text fill="#000000" font-family="sans-serif" font-size="13" lengthAdjust="spacing" textLength="218" x="298" y="489.0537">getTasksByGreenSpace(greenSpace)</text><path d="M745,509.3164 L818,509.3164 L818,518.6074 L808,528.6074 L745,528.6074 L745,509.3164 " fill="#EEEEEE" style="stroke:#000000;stroke-width:1.5;"/><rect fill="none" height="266.3281" style="stroke:#000000;stroke-width:1.5;" width="647.5" x="745" y="509.3164"/><text fill="#000000" font-family="sans-serif" font-size="13" font-weight="bold" lengthAdjust="spacing" textLength="28" x="760" y="524.3447">loop</text><text fill="#000000" font-family="sans-serif" font-size="11" font-weight="bold" lengthAdjust="spacing" textLength="197" x="833" y="523.1865">[for each TaskToDoList in ToDoList]</text><polygon fill="#181818" points="1064.5,547.8984,1074.5,551.8984,1064.5,555.8984,1068.5,551.8984" style="stroke:#181818;stroke-width:1.0;"/><line style="stroke:#181818;stroke-width:1.0;" x1="807.5" x2="1070.5" y1="551.8984" y2="551.8984"/><text fill="#000000" font-family="sans-serif" font-size="13" font-weight="bold" lengthAdjust="spacing" textLength="32" x="814.5" y="546.6357">14.12</text><text fill="#000000" font-family="sans-serif" font-size="13" lengthAdjust="spacing" textLength="214" x="850.5" y="546.6357">hasTaskByGreenSpace(greenSpace)</text><polygon fill="#181818" points="1316.5,579.1895,1326.5,583.1895,1316.5,587.1895,1320.5,583.1895" style="stroke:#181818;stroke-width:1.0;"/><line style="stroke:#181818;stroke-width:1.0;" x1="1086.5" x2="1322.5" y1="583.1895" y2="583.1895"/><text fill="#000000" font-family="sans-serif" font-size="13" font-weight="bold" lengthAdjust="spacing" textLength="32" x="1093.5" y="577.9268">14.13</text><text fill="#000000" font-family="sans-serif" font-size="13" lengthAdjust="spacing" textLength="187" x="1129.5" y="577.9268">equalsGreenSpace(greenSpace)</text><polygon fill="#181818" points="1097.5,610.4805,1087.5,614.4805,1097.5,618.4805,1093.5,614.4805" style="stroke:#181818;stroke-width:1.0;"/><line style="stroke:#181818;stroke-width:1.0;stroke-dasharray:2.0,2.0;" x1="1091.5" x2="1332.5" y1="614.4805" y2="614.4805"/><text fill="#000000" font-family="sans-serif" font-size="13" font-weight="bold" lengthAdjust="spacing" textLength="32" x="1103.5" y="609.2178">14.14</text><text fill="#000000" font-family="sans-serif" font-size="13" lengthAdjust="spacing" textLength="53" x="1139.5" y="609.2178">true/false</text><polygon fill="#181818" points="818.5,641.7715,808.5,645.7715,818.5,649.7715,814.5,645.7715" style="stroke:#181818;stroke-width:1.0;"/><line style="stroke:#181818;stroke-width:1.0;stroke-dasharray:2.0,2.0;" x1="812.5" x2="1080.5" y1="645.7715" y2="645.7715"/><text fill="#000000" font-family="sans-serif" font-size="13" font-weight="bold" lengthAdjust="spacing" textLength="32" x="824.5" y="640.5088">14.15</text><text fill="#000000" font-family="sans-serif" font-size="13" lengthAdjust="spacing" textLength="53" x="860.5" y="640.5088">true/false</text><path d="M755,660.7715 L816,660.7715 L816,670.0625 L806,680.0625 L755,680.0625 L755,660.7715 " fill="#EEEEEE" style="stroke:#000000;stroke-width:1.5;"/><rect fill="none" height="107.873" style="stroke:#000000;stroke-width:1.5;" width="262.5" x="755" y="660.7715"/><text fill="#000000" font-family="sans-serif" font-size="13" font-weight="bold" lengthAdjust="spacing" textLength="16" x="770" y="675.7998">alt</text><text fill="#000000" font-family="sans-serif" font-size="11" font-weight="bold" lengthAdjust="spacing" textLength="176" x="831" y="674.6416">[hasTaskByGreenSpace == true]</text><line style="stroke:#181818;stroke-width:1.0;" x1="807.5" x2="854.5" y1="698.3535" y2="698.3535"/><line style="stroke:#181818;stroke-width:1.0;" x1="854.5" x2="854.5" y1="698.3535" y2="711.3535"/><line style="stroke:#181818;stroke-width:1.0;" x1="813.5" x2="854.5" y1="711.3535" y2="711.3535"/><polygon fill="#181818" points="823.5,707.3535,813.5,711.3535,823.5,715.3535,819.5,711.3535" style="stroke:#181818;stroke-width:1.0;"/><text fill="#000000" font-family="sans-serif" font-size="13" font-weight="bold" lengthAdjust="spacing" textLength="32" x="819.5" y="693.0908">14.16</text><text fill="#000000" font-family="sans-serif" font-size="13" lengthAdjust="spacing" textLength="150" x="855.5" y="693.0908">addTaskListGreenSpace()</text><line style="stroke:#181818;stroke-width:1.0;stroke-dasharray:2.0,2.0;" x1="812.5" x2="854.5" y1="752.6445" y2="752.6445"/><line style="stroke:#181818;stroke-width:1.0;stroke-dasharray:2.0,2.0;" x1="854.5" x2="854.5" y1="752.6445" y2="765.6445"/><line style="stroke:#181818;stroke-width:1.0;stroke-dasharray:2.0,2.0;" x1="807.5" x2="854.5" y1="765.6445" y2="765.6445"/><polygon fill="#181818" points="817.5,761.6445,807.5,765.6445,817.5,769.6445,813.5,765.6445" style="stroke:#181818;stroke-width:1.0;"/><text fill="#000000" font-family="sans-serif" font-size="13" font-weight="bold" lengthAdjust="spacing" textLength="32" x="819.5" y="747.3818">14.17</text><text fill="#000000" font-family="sans-serif" font-size="13" lengthAdjust="spacing" textLength="53" x="855.5" y="747.3818">true/false</text><polygon fill="#181818" points="266,801.9355,256,805.9355,266,809.9355,262,805.9355" style="stroke:#181818;stroke-width:1.0;"/><line style="stroke:#181818;stroke-width:1.0;stroke-dasharray:2.0,2.0;" x1="260" x2="801.5" y1="805.9355" y2="805.9355"/><text fill="#000000" font-family="sans-serif" font-size="13" font-weight="bold" lengthAdjust="spacing" textLength="32" x="272" y="800.6729">14.18</text><text fill="#000000" font-family="sans-serif" font-size="13" lengthAdjust="spacing" textLength="118" x="308" y="800.6729">taskListGreenSpace</text><polygon fill="#181818" points="1452.5,833.2266,1462.5,837.2266,1452.5,841.2266,1456.5,837.2266" style="stroke:#181818;stroke-width:1.0;"/><line style="stroke:#181818;stroke-width:1.0;" x1="255" x2="1458.5" y1="837.2266" y2="837.2266"/><text fill="#000000" font-family="sans-serif" font-size="13" font-weight="bold" lengthAdjust="spacing" textLength="32" x="262" y="831.9639">14.19</text><text fill="#000000" font-family="sans-serif" font-size="13" lengthAdjust="spacing" textLength="242" x="298" y="831.9639">toDTOTaskToDoList(taskListGreenSpace)</text><rect fill="none" height="43.252" style="stroke:#000000;stroke-width:1.5;" width="160" x="1389.5" y="845.2266"/><path d="M1389.5,845.2266 L1451.5,845.2266 L1451.5,854.2266 L1441.5,864.2266 L1389.5,864.2266 L1389.5,845.2266 " fill="#EEEEEE" style="stroke:#000000;stroke-width:2.0;"/><text fill="#000000" font-family="sans-serif" font-size="13" font-weight="bold" lengthAdjust="spacing" textLength="17" x="1402.5" y="861.2549">ref</text><text fill="#000000" font-family="sans-serif" font-size="12" lengthAdjust="spacing" textLength="125" x="1407" y="881.1758">Task ToDoList To DTO</text><polygon fill="#181818" points="266,912.7695,256,916.7695,266,920.7695,262,916.7695" style="stroke:#181818;stroke-width:1.0;"/><line style="stroke:#181818;stroke-width:1.0;stroke-dasharray:2.0,2.0;" x1="260" x2="1468.5" y1="916.7695" y2="916.7695"/><text fill="#000000" font-family="sans-serif" font-size="13" font-weight="bold" lengthAdjust="spacing" textLength="32" x="272" y="911.5068">14.20</text><text fill="#000000" font-family="sans-serif" font-size="13" lengthAdjust="spacing" textLength="138" x="308" y="911.5068">taskListGreenSpaceDto</text><polygon fill="#181818" points="11,951.0605,1,955.0605,11,959.0605,7,955.0605" style="stroke:#181818;stroke-width:1.0;"/><line style="stroke:#181818;stroke-width:1.0;stroke-dasharray:2.0,2.0;" x1="5" x2="249" y1="955.0605" y2="955.0605"/><text fill="#000000" font-family="sans-serif" font-size="13" font-weight="bold" lengthAdjust="spacing" textLength="14" x="17" y="949.7979">15</text><text fill="#000000" font-family="sans-serif" font-size="13" lengthAdjust="spacing" textLength="138" x="35" y="949.7979">taskListGreenSpaceDto</text><!--SRC=[bLPDRzim3BthLmWzDOTiAB1TWdL0sWp5WBGh4j-s7RIOSOmuaYSfBVBlHz5ViYtRcIwnPVBnaO-KOewfp8KM9tvIKkqEMfs0Mtq6PkelkTWTHG9RUyc0QzXP8PFCDp074QltL2PyBp83ZE6sJNTfBgJbDujb7B_0-pTfzILIomHaB1uLlgai0tt3XU6FqMRTSTf0hangbKx1a4szSTccBhvLiksYFOzViW_mkbv6ROz40yWjfWSDE7e-1RO9uMcxQGDOjLBhr5XqYif7CenMdNIiCCV8C_PU2uUUHyEjnQZaCOp-BF8ST2T6iLb7UdvbJ9onWEVJ7z3yxXERVoKD5Zm1wplUDZHUn0bc7RyFTqpiRFecB1GQSbo9LkSSvKhG7wr8TqQVEOO9oCWfx7TfiB5sS3iZb1etf3jPX93AF13HxmOoZs4QiYBfMgLW5Ug5BaDgBDeYluP3gB-wN1hdVl1QXMi3Llqu7GHRkPlWmyL9t5Ey5TbD0EraIkLyhpJ780SlKPvAxyrn-TdQQGhnkm3oboD5t93QGPX1ElxogFK12r0-hnDs9zl7uf0AsNebwyBXgJL0EAGt6qNUj94gJN0oUJs1vk7IIEDLeLs16jIT7y6KsaBvi-sagfx3lewGuuM_98ZplefMdzuWFufJ1YBXuUyPzVcF85TrWTS9KL7dYLQOQ8Tm2eM8Ls5tyCSBH2bcDgG1lxylxci-iIenANaHnmx8IUzLUZO9CjrllP1rp2kBqYtCQZrg7fpBu8UAJNLMzl9d8nJ20qjtAL_WiHlzQ5sRVV2XkIslur066lPSlU4LMXeDbXc3rPEC3npP39N4WNRAKYGnMfcLLMoaSKjkTSNz_mYVQUVBV3wExY7I7mds3m00]--></g></svg>