<?xml version="1.0" encoding="us-ascii" standalone="no"?><svg xmlns="http://www.w3.org/2000/svg" xmlns:xlink="http://www.w3.org/1999/xlink" contentStyleType="text/css" height="561px" preserveAspectRatio="none" style="width:1040px;height:561px;background:#FFFFFF;" version="1.1" viewBox="0 0 1040 561" width="1040px" zoomAndPan="magnify"><defs/><g><rect fill="#FFFFFF" height="379.5703" style="stroke:#181818;stroke-width:1.0;" width="10" x="398" y="107.8242"/><rect fill="#FFFFFF" height="130.873" style="stroke:#181818;stroke-width:1.0;" width="10" x="403" y="311.2305"/><rect fill="#FFFFFF" height="42.291" style="stroke:#181818;stroke-width:1.0;" width="10" x="408" y="355.5215"/><rect fill="#FFFFFF" height="79.2422" style="stroke:#181818;stroke-width:1.0;" width="10" x="843" y="192.6973"/><rect fill="none" height="334.2793" style="stroke:#000000;stroke-width:1.5;" width="707" x="327" y="122.8242"/><line style="stroke:#181818;stroke-width:0.5;stroke-dasharray:5.0,5.0;" x1="403" x2="403" y1="57.2422" y2="505.3945"/><line style="stroke:#181818;stroke-width:0.5;stroke-dasharray:5.0,5.0;" x1="848" x2="848" y1="183.2363" y2="505.3945"/><rect fill="#E3E3E3" height="51.2422" rx="2.5" ry="2.5" style="stroke:#181818;stroke-width:0.5;" width="132" x="337" y="5"/><text fill="#000000" font-family="sans-serif" font-size="14" lengthAdjust="spacing" textLength="112" x="347" y="27.1074">vehicleRepository</text><text fill="#000000" font-family="sans-serif" font-size="14" lengthAdjust="spacing" textLength="118" x="344" y="45.7285">:VehicleRepository</text><rect fill="#E3E3E3" height="51.2422" rx="2.5" ry="2.5" style="stroke:#181818;stroke-width:0.5;" width="132" x="337" y="504.3945"/><text fill="#000000" font-family="sans-serif" font-size="14" lengthAdjust="spacing" textLength="112" x="347" y="526.502">vehicleRepository</text><text fill="#000000" font-family="sans-serif" font-size="14" lengthAdjust="spacing" textLength="118" x="344" y="545.123">:VehicleRepository</text><rect fill="#E3E3E3" height="51.2422" rx="2.5" ry="2.5" style="stroke:#181818;stroke-width:0.5;" width="62" x="817" y="504.3945"/><text fill="#000000" font-family="sans-serif" font-size="14" lengthAdjust="spacing" textLength="48" x="824" y="526.502">vehicle:</text><text fill="#000000" font-family="sans-serif" font-size="14" lengthAdjust="spacing" textLength="46" x="825" y="545.123">Vehicle</text><rect fill="#FFFFFF" height="379.5703" style="stroke:#181818;stroke-width:1.0;" width="10" x="398" y="107.8242"/><rect fill="#FFFFFF" height="130.873" style="stroke:#181818;stroke-width:1.0;" width="10" x="403" y="311.2305"/><rect fill="#FFFFFF" height="42.291" style="stroke:#181818;stroke-width:1.0;" width="10" x="408" y="355.5215"/><rect fill="#FFFFFF" height="79.2422" style="stroke:#181818;stroke-width:1.0;" width="10" x="843" y="192.6973"/><polygon fill="#181818" points="386,103.8242,396,107.8242,386,111.8242,390,107.8242" style="stroke:#181818;stroke-width:1.0;"/><line style="stroke:#181818;stroke-width:1.0;" x1="0" x2="392" y1="107.8242" y2="107.8242"/><text fill="#000000" font-family="sans-serif" font-size="13" font-weight="bold" lengthAdjust="spacing" textLength="14" x="7" y="93.916">13</text><text fill="#000000" font-family="sans-serif" font-size="13" lengthAdjust="spacing" textLength="361" x="25" y="85.2705">registerVehicle(brand,model,type,tare,grossWeight,currentKm,</text><text fill="#000000" font-family="sans-serif" font-size="13" lengthAdjust="spacing" textLength="356" x="25" y="102.5615">registerDate,acquisitionDate,checkupFrequency,licensePlate)</text><path d="M327,122.8242 L466,122.8242 L466,132.1152 L456,142.1152 L327,142.1152 L327,122.8242 " fill="#EEEEEE" style="stroke:#000000;stroke-width:1.5;"/><rect fill="none" height="334.2793" style="stroke:#000000;stroke-width:1.5;" width="707" x="327" y="122.8242"/><text fill="#000000" font-family="sans-serif" font-size="13" font-weight="bold" lengthAdjust="spacing" textLength="94" x="342" y="137.8525">Create Vehicle</text><polygon fill="#181818" points="805,178.6973,815,182.6973,805,186.6973,809,182.6973" style="stroke:#181818;stroke-width:1.0;"/><line style="stroke:#181818;stroke-width:1.0;" x1="408" x2="811" y1="182.6973" y2="182.6973"/><text fill="#000000" font-family="sans-serif" font-size="13" font-weight="bold" lengthAdjust="spacing" textLength="25" x="415" y="168.7891">13.1</text><text fill="#000000" font-family="sans-serif" font-size="13" lengthAdjust="spacing" textLength="311" x="444" y="160.1436">create(brand,model,type,tare,grossWeight,currentKm,</text><text fill="#000000" font-family="sans-serif" font-size="13" lengthAdjust="spacing" textLength="356" x="444" y="177.4346">registerDate,acquisitionDate,checkupFrequency,licensePlate)</text><rect fill="#E3E3E3" height="51.2422" rx="2.5" ry="2.5" style="stroke:#181818;stroke-width:0.5;" width="62" x="817" y="142.1152"/><text fill="#000000" font-family="sans-serif" font-size="14" lengthAdjust="spacing" textLength="48" x="824" y="164.2227">vehicle:</text><text fill="#000000" font-family="sans-serif" font-size="14" lengthAdjust="spacing" textLength="46" x="825" y="182.8438">Vehicle</text><line style="stroke:#181818;stroke-width:1.0;" x1="853" x2="895" y1="227.6484" y2="227.6484"/><line style="stroke:#181818;stroke-width:1.0;" x1="895" x2="895" y1="227.6484" y2="240.6484"/><line style="stroke:#181818;stroke-width:1.0;" x1="854" x2="895" y1="240.6484" y2="240.6484"/><polygon fill="#181818" points="864,236.6484,854,240.6484,864,244.6484,860,240.6484" style="stroke:#181818;stroke-width:1.0;"/><text fill="#000000" font-family="sans-serif" font-size="13" font-weight="bold" lengthAdjust="spacing" textLength="25" x="860" y="222.3857">13.2</text><text fill="#000000" font-family="sans-serif" font-size="13" lengthAdjust="spacing" textLength="133" x="889" y="222.3857">validateVehicle(vehicle)</text><polygon fill="#181818" points="419,267.9395,409,271.9395,419,275.9395,415,271.9395" style="stroke:#181818;stroke-width:1.0;"/><line style="stroke:#181818;stroke-width:1.0;stroke-dasharray:2.0,2.0;" x1="413" x2="847" y1="271.9395" y2="271.9395"/><text fill="#000000" font-family="sans-serif" font-size="13" font-weight="bold" lengthAdjust="spacing" textLength="25" x="425" y="266.6768">13.3</text><text fill="#000000" font-family="sans-serif" font-size="13" lengthAdjust="spacing" textLength="39" x="454" y="266.6768">vehicle</text><line style="stroke:#181818;stroke-width:1.0;" x1="408" x2="455" y1="298.2305" y2="298.2305"/><line style="stroke:#181818;stroke-width:1.0;" x1="455" x2="455" y1="298.2305" y2="311.2305"/><line style="stroke:#181818;stroke-width:1.0;" x1="414" x2="455" y1="311.2305" y2="311.2305"/><polygon fill="#181818" points="424,307.2305,414,311.2305,424,315.2305,420,311.2305" style="stroke:#181818;stroke-width:1.0;"/><text fill="#000000" font-family="sans-serif" font-size="13" font-weight="bold" lengthAdjust="spacing" textLength="25" x="420" y="292.9678">13.4</text><text fill="#000000" font-family="sans-serif" font-size="13" lengthAdjust="spacing" textLength="111" x="449" y="292.9678">addVehicle(vehicle)</text><line style="stroke:#181818;stroke-width:1.0;" x1="413" x2="460" y1="342.5215" y2="342.5215"/><line style="stroke:#181818;stroke-width:1.0;" x1="460" x2="460" y1="342.5215" y2="355.5215"/><line style="stroke:#181818;stroke-width:1.0;" x1="419" x2="460" y1="355.5215" y2="355.5215"/><polygon fill="#181818" points="429,351.5215,419,355.5215,429,359.5215,425,355.5215" style="stroke:#181818;stroke-width:1.0;"/><text fill="#000000" font-family="sans-serif" font-size="13" font-weight="bold" lengthAdjust="spacing" textLength="25" x="425" y="337.2588">13.5</text><text fill="#000000" font-family="sans-serif" font-size="13" lengthAdjust="spacing" textLength="133" x="454" y="337.2588">validateVehicle(vehicle)</text><line style="stroke:#181818;stroke-width:1.0;stroke-dasharray:2.0,2.0;" x1="418" x2="460" y1="396.8125" y2="396.8125"/><line style="stroke:#181818;stroke-width:1.0;stroke-dasharray:2.0,2.0;" x1="460" x2="460" y1="396.8125" y2="409.8125"/><line style="stroke:#181818;stroke-width:1.0;stroke-dasharray:2.0,2.0;" x1="413" x2="460" y1="409.8125" y2="409.8125"/><polygon fill="#181818" points="423,405.8125,413,409.8125,423,413.8125,419,409.8125" style="stroke:#181818;stroke-width:1.0;"/><text fill="#000000" font-family="sans-serif" font-size="13" font-weight="bold" lengthAdjust="spacing" textLength="25" x="425" y="391.5498">13.6</text><text fill="#000000" font-family="sans-serif" font-size="13" lengthAdjust="spacing" textLength="53" x="454" y="391.5498">true/false</text><line style="stroke:#181818;stroke-width:1.0;stroke-dasharray:2.0,2.0;" x1="413" x2="455" y1="441.1035" y2="441.1035"/><line style="stroke:#181818;stroke-width:1.0;stroke-dasharray:2.0,2.0;" x1="455" x2="455" y1="441.1035" y2="454.1035"/><line style="stroke:#181818;stroke-width:1.0;stroke-dasharray:2.0,2.0;" x1="408" x2="455" y1="454.1035" y2="454.1035"/><polygon fill="#181818" points="418,450.1035,408,454.1035,418,458.1035,414,454.1035" style="stroke:#181818;stroke-width:1.0;"/><text fill="#000000" font-family="sans-serif" font-size="13" font-weight="bold" lengthAdjust="spacing" textLength="25" x="420" y="435.8408">13.7</text><text fill="#000000" font-family="sans-serif" font-size="13" lengthAdjust="spacing" textLength="53" x="449" y="435.8408">true/false</text><polygon fill="#181818" points="11,483.3945,1,487.3945,11,491.3945,7,487.3945" style="stroke:#181818;stroke-width:1.0;"/><line style="stroke:#181818;stroke-width:1.0;stroke-dasharray:2.0,2.0;" x1="5" x2="402" y1="487.3945" y2="487.3945"/><text fill="#000000" font-family="sans-serif" font-size="13" font-weight="bold" lengthAdjust="spacing" textLength="14" x="17" y="482.1318">14</text><text fill="#000000" font-family="sans-serif" font-size="13" lengthAdjust="spacing" textLength="39" x="35" y="482.1318">vehicle</text><!--SRC=[lLCzJyCm4DtzAwnEj7915KmHOW6niA0WbQNBrJuIguxj-gCe_nxd2qARI4nuik_TyxrtP_k3r1OSLBGosl3IcGffS169_qOiy0CK-1PgXTGX3w0BDKxm9GZpANL1Fq1v92I5W-JIWWvqSS9ISeKvMkDbCAxUwMnx7bjGy7IRJpApdUxpkwnkJmZ4O7IizkZevfQi7n8_I_eAwGEwFkjgxq0BLXc1YeNQ8WlWa1NEUF-EiYW3uz4vrE6bOZizi9yW80D-Z3B9aqQtPruYFqJxxF0OKVEQASbHUtnL2LsUwRdU4E11dXBK-A9ffQBHqaU7RMnmGKThczF6HWUjLXdbRV9_cXZB-J4m9ROLt04ZrHazWP8YiOO9z5DSpfFRqT74d2eZS5v6twyqTX3YeXwvz95FjJl_e-QvQuQh1XlDzxdfViASaVnoxXDiCarj8gX51uyVtLqRkL-lVxVphF0N]--></g></svg>