<?xml version="1.0" encoding="us-ascii" standalone="no"?><svg xmlns="http://www.w3.org/2000/svg" xmlns:xlink="http://www.w3.org/1999/xlink" contentStyleType="text/css" height="493px" preserveAspectRatio="none" style="width:748px;height:493px;background:#FFFFFF;" version="1.1" viewBox="0 0 748 493" width="748px" zoomAndPan="magnify"><defs/><g><text fill="#000000" font-family="sans-serif" font-size="14" font-weight="bold" lengthAdjust="spacing" textLength="402" x="172.25" y="30.1074">System Sequence Diagram (SSD) - Register a collaborator</text><rect fill="#FFFFFF" height="268.6191" style="stroke:#181818;stroke-width:1.0;" width="10" x="109.5" y="133.2422"/><rect fill="#FFFFFF" height="31.291" style="stroke:#181818;stroke-width:1.0;" width="10" x="705.5" y="156.5332"/><rect fill="#FFFFFF" height="48.582" style="stroke:#181818;stroke-width:1.0;" width="10" x="705.5" y="219.1152"/><rect fill="#FFFFFF" height="31.291" style="stroke:#181818;stroke-width:1.0;" width="10" x="705.5" y="298.9883"/><rect fill="#FFFFFF" height="31.291" style="stroke:#181818;stroke-width:1.0;" width="10" x="705.5" y="361.5703"/><line style="stroke:#181818;stroke-width:0.5;stroke-dasharray:5.0,5.0;" x1="114" x2="114" y1="123.2422" y2="410.8613"/><line style="stroke:#181818;stroke-width:0.5;stroke-dasharray:5.0,5.0;" x1="710.5" x2="710.5" y1="123.2422" y2="410.8613"/><text fill="#000000" font-family="sans-serif" font-size="14" lengthAdjust="spacing" textLength="213" x="5" y="119.7285">Human Resource Manager (HRM)</text><ellipse cx="114.5" cy="53.1211" fill="#E3E3E3" rx="8" ry="8" style="stroke:#181818;stroke-width:0.5;"/><path d="M114.5,61.1211 L114.5,88.1211 M101.5,69.1211 L127.5,69.1211 M114.5,88.1211 L101.5,103.1211 M114.5,88.1211 L127.5,103.1211 " fill="none" style="stroke:#181818;stroke-width:0.5;"/><text fill="#000000" font-family="sans-serif" font-size="14" lengthAdjust="spacing" textLength="213" x="5" y="424.9688">Human Resource Manager (HRM)</text><ellipse cx="114.5" cy="436.9824" fill="#E3E3E3" rx="8" ry="8" style="stroke:#181818;stroke-width:0.5;"/><path d="M114.5,444.9824 L114.5,471.9824 M101.5,452.9824 L127.5,452.9824 M114.5,471.9824 L101.5,486.9824 M114.5,471.9824 L127.5,486.9824 " fill="none" style="stroke:#181818;stroke-width:0.5;"/><rect fill="#E3E3E3" height="32.6211" rx="2.5" ry="2.5" style="stroke:#181818;stroke-width:0.5;" width="64" x="678.5" y="89.6211"/><text fill="#000000" font-family="sans-serif" font-size="14" lengthAdjust="spacing" textLength="50" x="685.5" y="111.7285">:System</text><rect fill="#E3E3E3" height="32.6211" rx="2.5" ry="2.5" style="stroke:#181818;stroke-width:0.5;" width="64" x="678.5" y="409.8613"/><text fill="#000000" font-family="sans-serif" font-size="14" lengthAdjust="spacing" textLength="50" x="685.5" y="431.9688">:System</text><rect fill="#FFFFFF" height="268.6191" style="stroke:#181818;stroke-width:1.0;" width="10" x="109.5" y="133.2422"/><rect fill="#FFFFFF" height="31.291" style="stroke:#181818;stroke-width:1.0;" width="10" x="705.5" y="156.5332"/><rect fill="#FFFFFF" height="48.582" style="stroke:#181818;stroke-width:1.0;" width="10" x="705.5" y="219.1152"/><rect fill="#FFFFFF" height="31.291" style="stroke:#181818;stroke-width:1.0;" width="10" x="705.5" y="298.9883"/><rect fill="#FFFFFF" height="31.291" style="stroke:#181818;stroke-width:1.0;" width="10" x="705.5" y="361.5703"/><polygon fill="#181818" points="693.5,152.5332,703.5,156.5332,693.5,160.5332,697.5,156.5332" style="stroke:#181818;stroke-width:1.0;"/><line style="stroke:#181818;stroke-width:1.0;" x1="119.5" x2="699.5" y1="156.5332" y2="156.5332"/><text fill="#000000" font-family="sans-serif" font-size="13" font-weight="bold" lengthAdjust="spacing" textLength="7" x="126.5" y="151.2705">1</text><text fill="#000000" font-family="sans-serif" font-size="13" lengthAdjust="spacing" textLength="199" x="137.5" y="151.2705">asks to register a new collaborator</text><polygon fill="#181818" points="130.5,183.8242,120.5,187.8242,130.5,191.8242,126.5,187.8242" style="stroke:#181818;stroke-width:1.0;"/><line style="stroke:#181818;stroke-width:1.0;stroke-dasharray:2.0,2.0;" x1="124.5" x2="709.5" y1="187.8242" y2="187.8242"/><text fill="#000000" font-family="sans-serif" font-size="13" font-weight="bold" lengthAdjust="spacing" textLength="7" x="136.5" y="182.5615">2</text><text fill="#000000" font-family="sans-serif" font-size="13" lengthAdjust="spacing" textLength="205" x="147.5" y="182.5615">shows job list and asks to type one</text><polygon fill="#181818" points="693.5,215.1152,703.5,219.1152,693.5,223.1152,697.5,219.1152" style="stroke:#181818;stroke-width:1.0;"/><line style="stroke:#181818;stroke-width:1.0;" x1="119.5" x2="699.5" y1="219.1152" y2="219.1152"/><text fill="#000000" font-family="sans-serif" font-size="13" font-weight="bold" lengthAdjust="spacing" textLength="7" x="126.5" y="213.8525">3</text><text fill="#000000" font-family="sans-serif" font-size="13" lengthAdjust="spacing" textLength="64" x="137.5" y="213.8525">types a job</text><polygon fill="#181818" points="130.5,263.6973,120.5,267.6973,130.5,271.6973,126.5,267.6973" style="stroke:#181818;stroke-width:1.0;"/><line style="stroke:#181818;stroke-width:1.0;stroke-dasharray:2.0,2.0;" x1="124.5" x2="709.5" y1="267.6973" y2="267.6973"/><text fill="#000000" font-family="sans-serif" font-size="13" font-weight="bold" lengthAdjust="spacing" textLength="7" x="136.5" y="253.7891">4</text><text fill="#000000" font-family="sans-serif" font-size="13" lengthAdjust="spacing" textLength="547" x="147.5" y="245.1436">requests data (name, birthdate, admission date, address(street, postCode, doorNumber),</text><text fill="#000000" font-family="sans-serif" font-size="13" lengthAdjust="spacing" textLength="390" x="147.5" y="262.4346">mobile, email, taxpayer number,ID doc type and respective number)</text><polygon fill="#181818" points="693.5,294.9883,703.5,298.9883,693.5,302.9883,697.5,298.9883" style="stroke:#181818;stroke-width:1.0;"/><line style="stroke:#181818;stroke-width:1.0;" x1="119.5" x2="699.5" y1="298.9883" y2="298.9883"/><text fill="#000000" font-family="sans-serif" font-size="13" font-weight="bold" lengthAdjust="spacing" textLength="7" x="126.5" y="293.7256">5</text><text fill="#000000" font-family="sans-serif" font-size="13" lengthAdjust="spacing" textLength="122" x="137.5" y="293.7256">types requested data</text><polygon fill="#181818" points="130.5,326.2793,120.5,330.2793,130.5,334.2793,126.5,330.2793" style="stroke:#181818;stroke-width:1.0;"/><line style="stroke:#181818;stroke-width:1.0;stroke-dasharray:2.0,2.0;" x1="124.5" x2="709.5" y1="330.2793" y2="330.2793"/><text fill="#000000" font-family="sans-serif" font-size="13" font-weight="bold" lengthAdjust="spacing" textLength="7" x="136.5" y="325.0166">6</text><text fill="#000000" font-family="sans-serif" font-size="13" lengthAdjust="spacing" textLength="236" x="147.5" y="325.0166">shows all data and requests confirmation</text><polygon fill="#181818" points="693.5,357.5703,703.5,361.5703,693.5,365.5703,697.5,361.5703" style="stroke:#181818;stroke-width:1.0;"/><line style="stroke:#181818;stroke-width:1.0;" x1="119.5" x2="699.5" y1="361.5703" y2="361.5703"/><text fill="#000000" font-family="sans-serif" font-size="13" font-weight="bold" lengthAdjust="spacing" textLength="7" x="126.5" y="356.3076">7</text><text fill="#000000" font-family="sans-serif" font-size="13" lengthAdjust="spacing" textLength="78" x="137.5" y="356.3076">confirms data</text><polygon fill="#181818" points="130.5,388.8613,120.5,392.8613,130.5,396.8613,126.5,392.8613" style="stroke:#181818;stroke-width:1.0;"/><line style="stroke:#181818;stroke-width:1.0;stroke-dasharray:2.0,2.0;" x1="124.5" x2="709.5" y1="392.8613" y2="392.8613"/><text fill="#000000" font-family="sans-serif" font-size="13" font-weight="bold" lengthAdjust="spacing" textLength="7" x="136.5" y="387.5986">8</text><text fill="#000000" font-family="sans-serif" font-size="13" lengthAdjust="spacing" textLength="158" x="147.5" y="387.5986">displays operation success</text><!--SRC=[bL6xajim3Epr5HXNzepz0oxInCMbk2jERHg8nCcCIO8Xe3Zw-q0FUv9CKaWL12uMkmkvXLomOeB4cTsrSYBGEb0ZpvU2xeOzjJf6WafECVVnTu1SqVCzv1u-C0erZGOrQ3kAKeAMlW-K7S4bO3_1zsrxES09tgaFXgY0u3X6xBYYScqQ79Jpa3gQQcSjsBqC2RDD20_Lg5uncw8A-vVtryCEKC2AnjHeSA5WLjYTb_NpurBEPE47Aite1kop0awV7bBF1hu9A9lDfxPCzp_rJNDFfWVrr5nPJaOuyPuj6BuBVECEeh41PlzSe6CXu4ppeAT_ylqjRXuIasIC6rJKwG2Y0XuLOPynqH6wKFLg3IlHfo0IECFZtrSIsOjM8dsRuOL5FxEtoZFNj_auXoDypOcx4ArD2KCyWkBFWgFbjjpl-ELY0svnEzatuaAJQbeHXoq1BFvNF-HdGvlFWJ4kIInwrcmSvuzG4whbi4NIEYTRjVWW9U8em8Ngl1LaSCvo_y_sNm00]--></g></svg>