<?xml version="1.0" encoding="us-ascii" standalone="no"?><svg xmlns="http://www.w3.org/2000/svg" xmlns:xlink="http://www.w3.org/1999/xlink" contentStyleType="text/css" height="895px" preserveAspectRatio="none" style="width:1098px;height:895px;background:#FFFFFF;" version="1.1" viewBox="0 0 1098 895" width="1098px" zoomAndPan="magnify"><defs/><g><text fill="#000000" font-family="sans-serif" font-size="14" font-weight="bold" lengthAdjust="spacing" textLength="100" x="492.25" y="25.1074">Domain Model</text><!--class Collaborator--><g id="elem_Collaborator"><rect codeLine="10" fill="#F1F1F1" height="148.3477" id="Collaborator" rx="2.5" ry="2.5" style="stroke:#181818;stroke-width:0.5;" width="115" x="663" y="587.8838"/><text fill="#000000" font-family="sans-serif" font-size="14" lengthAdjust="spacing" textLength="78" x="681.5" y="607.9912">Collaborator</text><line style="stroke:#181818;stroke-width:0.5;" x1="664" x2="777" y1="616.5049" y2="616.5049"/><text fill="#000000" font-family="sans-serif" font-size="14" lengthAdjust="spacing" textLength="35" x="669" y="635.6123">name</text><text fill="#000000" font-family="sans-serif" font-size="14" lengthAdjust="spacing" textLength="72" x="669" y="654.2334">dateOfBirth</text><text fill="#000000" font-family="sans-serif" font-size="14" lengthAdjust="spacing" textLength="93" x="669" y="672.8545">admissionDate</text><text fill="#000000" font-family="sans-serif" font-size="14" lengthAdjust="spacing" textLength="89" x="669" y="691.4756">phoneNumber</text><text fill="#000000" font-family="sans-serif" font-size="14" lengthAdjust="spacing" textLength="103" x="669" y="710.0967">taxpayerNumber</text><text fill="#000000" font-family="sans-serif" font-size="14" lengthAdjust="spacing" textLength="33" x="669" y="728.7178">email</text></g><!--class Document--><g id="elem_Document"><rect codeLine="19" fill="#F1F1F1" height="55.2422" id="Document" rx="2.5" ry="2.5" style="stroke:#181818;stroke-width:0.5;" width="70" x="848.5" y="634.3838"/><text fill="#000000" font-family="sans-serif" font-size="14" lengthAdjust="spacing" textLength="64" x="851.5" y="654.4912">Document</text><line style="stroke:#181818;stroke-width:0.5;" x1="849.5" x2="917.5" y1="663.0049" y2="663.0049"/><text fill="#000000" font-family="sans-serif" font-size="14" lengthAdjust="spacing" textLength="48" x="854.5" y="682.1123">number</text></g><!--class DocumentType--><g id="elem_DocumentType"><rect codeLine="23" fill="#F1F1F1" height="55.2422" id="DocumentType" rx="2.5" ry="2.5" style="stroke:#181818;stroke-width:0.5;" width="102" x="989.5" y="634.3838"/><text fill="#000000" font-family="sans-serif" font-size="14" lengthAdjust="spacing" textLength="96" x="992.5" y="654.4912">DocumentType</text><line style="stroke:#181818;stroke-width:0.5;" x1="990.5" x2="1090.5" y1="663.0049" y2="663.0049"/><text fill="#000000" font-family="sans-serif" font-size="14" lengthAdjust="spacing" textLength="27" x="995.5" y="682.1123">type</text></g><!--class Address--><g id="elem_Address"><rect codeLine="27" fill="#F1F1F1" height="73.8633" id="Address" rx="2.5" ry="2.5" style="stroke:#181818;stroke-width:0.5;" width="90" x="498.5" y="624.8838"/><text fill="#000000" font-family="sans-serif" font-size="14" lengthAdjust="spacing" textLength="52" x="517.5" y="644.9912">Address</text><line style="stroke:#181818;stroke-width:0.5;" x1="499.5" x2="587.5" y1="653.5049" y2="653.5049"/><text fill="#000000" font-family="sans-serif" font-size="14" lengthAdjust="spacing" textLength="36" x="504.5" y="672.6123">street</text><text fill="#000000" font-family="sans-serif" font-size="14" lengthAdjust="spacing" textLength="78" x="504.5" y="691.2334">doorNumber</text></g><!--class PostCode--><g id="elem_PostCode"><rect codeLine="32" fill="#F1F1F1" height="73.8633" id="PostCode" rx="2.5" ry="2.5" style="stroke:#181818;stroke-width:0.5;" width="122" x="500.5" y="814.8838"/><text fill="#000000" font-family="sans-serif" font-size="14" lengthAdjust="spacing" textLength="62" x="530.5" y="834.9912">PostCode</text><line style="stroke:#181818;stroke-width:0.5;" x1="501.5" x2="621.5" y1="843.5049" y2="843.5049"/><text fill="#000000" font-family="sans-serif" font-size="14" lengthAdjust="spacing" textLength="110" x="506.5" y="862.6123">postCodeNumber</text><text fill="#000000" font-family="sans-serif" font-size="14" lengthAdjust="spacing" textLength="69" x="506.5" y="881.2334">localization</text></g><!--class GreenSpaceManager--><g id="elem_GreenSpaceManager"><rect codeLine="37" fill="#F1F1F1" height="36.6211" id="GreenSpaceManager" rx="2.5" ry="2.5" style="stroke:#181818;stroke-width:0.5;" width="142" x="336.5" y="49.8838"/><text fill="#000000" font-family="sans-serif" font-size="14" lengthAdjust="spacing" textLength="136" x="339.5" y="69.9912">GreenSpaceManager</text><line style="stroke:#181818;stroke-width:0.5;" x1="337.5" x2="477.5" y1="78.5049" y2="78.5049"/></g><!--class GreenSpace--><g id="elem_GreenSpace"><rect codeLine="40" fill="#F1F1F1" height="73.8633" id="GreenSpace" rx="2.5" ry="2.5" style="stroke:#181818;stroke-width:0.5;" width="86" x="292.5" y="624.8838"/><text fill="#000000" font-family="sans-serif" font-size="14" lengthAdjust="spacing" textLength="80" x="295.5" y="644.9912">GreenSpace</text><line style="stroke:#181818;stroke-width:0.5;" x1="293.5" x2="377.5" y1="653.5049" y2="653.5049"/><text fill="#000000" font-family="sans-serif" font-size="14" lengthAdjust="spacing" textLength="35" x="298.5" y="672.6123">name</text><text fill="#000000" font-family="sans-serif" font-size="14" lengthAdjust="spacing" textLength="29" x="298.5" y="691.2334">area</text></g><!--class Garden--><g id="elem_Garden"><rect codeLine="45" fill="#F1F1F1" height="36.6211" id="Garden" rx="2.5" ry="2.5" style="stroke:#181818;stroke-width:0.5;" width="54" x="185.5" y="833.3838"/><text fill="#000000" font-family="sans-serif" font-size="14" lengthAdjust="spacing" textLength="48" x="188.5" y="853.4912">Garden</text><line style="stroke:#181818;stroke-width:0.5;" x1="186.5" x2="238.5" y1="862.0049" y2="862.0049"/></g><!--class MediumPark--><g id="elem_MediumPark"><rect codeLine="48" fill="#F1F1F1" height="36.6211" id="MediumPark" rx="2.5" ry="2.5" style="stroke:#181818;stroke-width:0.5;" width="84" x="274.5" y="833.3838"/><text fill="#000000" font-family="sans-serif" font-size="14" lengthAdjust="spacing" textLength="78" x="277.5" y="853.4912">MediumPark</text><line style="stroke:#181818;stroke-width:0.5;" x1="275.5" x2="357.5" y1="862.0049" y2="862.0049"/></g><!--class LargePark--><g id="elem_LargePark"><rect codeLine="51" fill="#F1F1F1" height="36.6211" id="LargePark" rx="2.5" ry="2.5" style="stroke:#181818;stroke-width:0.5;" width="72" x="393.5" y="833.3838"/><text fill="#000000" font-family="sans-serif" font-size="14" lengthAdjust="spacing" textLength="66" x="396.5" y="853.4912">LargePark</text><line style="stroke:#181818;stroke-width:0.5;" x1="394.5" x2="464.5" y1="862.0049" y2="862.0049"/></g><!--class ToDoList--><g id="elem_ToDoList"><rect codeLine="54" fill="#F1F1F1" height="36.6211" id="ToDoList" rx="2.5" ry="2.5" style="stroke:#181818;stroke-width:0.5;" width="63" x="83" y="489.8838"/><text fill="#000000" font-family="sans-serif" font-size="14" lengthAdjust="spacing" textLength="57" x="86" y="509.9912">ToDoList</text><line style="stroke:#181818;stroke-width:0.5;" x1="84" x2="145" y1="518.5049" y2="518.5049"/></g><!--class TaskToDoList--><g id="elem_TaskToDoList"><rect codeLine="57" fill="#F1F1F1" height="92.4844" id="TaskToDoList" rx="2.5" ry="2.5" style="stroke:#181818;stroke-width:0.5;" width="94" x="171.5" y="318.8838"/><text fill="#000000" font-family="sans-serif" font-size="14" lengthAdjust="spacing" textLength="88" x="174.5" y="338.9912">TaskToDoList</text><line style="stroke:#181818;stroke-width:0.5;" x1="172.5" x2="264.5" y1="347.5049" y2="347.5049"/><text fill="#000000" font-family="sans-serif" font-size="14" lengthAdjust="spacing" textLength="38" x="177.5" y="366.6123">status</text><text fill="#000000" font-family="sans-serif" font-size="14" lengthAdjust="spacing" textLength="51" x="177.5" y="385.2334">urgency</text><text fill="#000000" font-family="sans-serif" font-size="14" lengthAdjust="spacing" textLength="52" x="177.5" y="403.8545">duration</text></g><!--class TaskAgenda--><g id="elem_TaskAgenda"><rect codeLine="63" fill="#F1F1F1" height="73.8633" id="TaskAgenda" rx="2.5" ry="2.5" style="stroke:#181818;stroke-width:0.5;" width="86" x="229.5" y="165.8838"/><text fill="#000000" font-family="sans-serif" font-size="14" lengthAdjust="spacing" textLength="80" x="232.5" y="185.9912">TaskAgenda</text><line style="stroke:#181818;stroke-width:0.5;" x1="230.5" x2="314.5" y1="194.5049" y2="194.5049"/><text fill="#000000" font-family="sans-serif" font-size="14" lengthAdjust="spacing" textLength="58" x="235.5" y="213.6123">startDate</text><text fill="#000000" font-family="sans-serif" font-size="14" lengthAdjust="spacing" textLength="54" x="235.5" y="232.2334">endDate</text></g><!--class Task--><g id="elem_Task"><rect codeLine="68" fill="#F1F1F1" height="55.2422" id="Task" rx="2.5" ry="2.5" style="stroke:#181818;stroke-width:0.5;" width="81" x="102" y="175.3838"/><text fill="#000000" font-family="sans-serif" font-size="14" lengthAdjust="spacing" textLength="31" x="127" y="195.4912">Task</text><line style="stroke:#181818;stroke-width:0.5;" x1="103" x2="182" y1="204.0049" y2="204.0049"/><text fill="#000000" font-family="sans-serif" font-size="14" lengthAdjust="spacing" textLength="69" x="108" y="223.1123">description</text></g><!--class Agenda--><g id="elem_Agenda"><rect codeLine="72" fill="#F1F1F1" height="36.6211" id="Agenda" rx="2.5" ry="2.5" style="stroke:#181818;stroke-width:0.5;" width="55" x="7" y="49.8838"/><text fill="#000000" font-family="sans-serif" font-size="14" lengthAdjust="spacing" textLength="49" x="10" y="69.9912">Agenda</text><line style="stroke:#181818;stroke-width:0.5;" x1="8" x2="61" y1="78.5049" y2="78.5049"/></g><ellipse cx="134.5" cy="364.8838" fill="#181818" rx="2" ry="2" style="stroke:#181818;stroke-width:1.0;"/><ellipse cx="162.5" cy="68.3838" fill="#181818" rx="2" ry="2" style="stroke:#181818;stroke-width:1.0;"/><!--link Address to PostCode--><g id="link_Address_PostCode"><path codeLine="75" d="M546.97,699.1338 C550.16,732.4238 554.86,781.4938 558.04,814.7438 " fill="none" id="Address-PostCode" style="stroke:#181818;stroke-width:1.0;"/><polygon fill="#000000" points="560.9766,780.5065,563.04,771.2225,557.1889,771.7828,560.9766,780.5065" style="stroke:#000000;stroke-width:1.0;"/><text fill="#000000" font-family="sans-serif" font-size="13" lengthAdjust="spacing" textLength="21" x="569.5" y="780.9121">has</text><text fill="#000000" font-family="sans-serif" font-size="13" lengthAdjust="spacing" textLength="20" x="525.8885" y="720.7749">1..*</text><text fill="#000000" font-family="sans-serif" font-size="13" lengthAdjust="spacing" textLength="7" x="549.8003" y="803.6806">1</text></g><!--link Document to DocumentType--><g id="link_Document_DocumentType"><path codeLine="77" d="M918.73,661.8838 C939.53,661.8838 966.21,661.8838 989.3,661.8838 " fill="none" id="Document-DocumentType" style="stroke:#181818;stroke-width:1.0;"/><polygon fill="#000000" points="946,649.5293,936.9549,646.5904,936.9549,652.4682,946,649.5293" style="stroke:#000000;stroke-width:1.0;"/><text fill="#000000" font-family="sans-serif" font-size="13" lengthAdjust="spacing" textLength="21" x="950" y="654.9121">has</text><text fill="#000000" font-family="sans-serif" font-size="13" lengthAdjust="spacing" textLength="20" x="926.5039" y="677.3772">1..*</text><text fill="#000000" font-family="sans-serif" font-size="13" lengthAdjust="spacing" textLength="7" x="974.6078" y="657.7202">1</text></g><!--link Collaborator to Document--><g id="link_Collaborator_Document"><path codeLine="80" d="M778.43,661.8838 C801.67,661.8838 827.71,661.8838 848.05,661.8838 " fill="none" id="Collaborator-Document" style="stroke:#181818;stroke-width:1.0;"/><polygon fill="#000000" points="805.25,649.5293,796.2049,646.5904,796.2049,652.4682,805.25,649.5293" style="stroke:#000000;stroke-width:1.0;"/><text fill="#000000" font-family="sans-serif" font-size="13" lengthAdjust="spacing" textLength="21" x="809.25" y="654.9121">has</text><text fill="#000000" font-family="sans-serif" font-size="13" lengthAdjust="spacing" textLength="7" x="785.9168" y="657.8727">1</text><text fill="#000000" font-family="sans-serif" font-size="13" lengthAdjust="spacing" textLength="7" x="833.3817" y="657.2435">1</text></g><!--link GreenSpaceManager to Collaborator--><g id="link_GreenSpaceManager_Collaborator"><path codeLine="81" d="M478.75,75.1838 C556.33,85.8538 669.5,116.1238 669.5,201.8838 C669.5,201.8838 669.5,201.8838 669.5,509.3838 C669.5,535.7438 670.3798,546.4935 679.2198,570.8535 " fill="none" id="GreenSpaceManager-to-Collaborator" style="stroke:#181818;stroke-width:1.0;"/><polygon fill="none" points="685.36,587.7738,684.8599,568.8067,673.5797,572.9002,685.36,587.7738" style="stroke:#181818;stroke-width:1.0;"/></g><!--link Address to Collaborator--><g id="link_Address_Collaborator"><path codeLine="82" d="M588.62,661.8838 C611.16,661.8838 638.67,661.8838 662.73,661.8838 " fill="none" id="Address-Collaborator" style="stroke:#181818;stroke-width:1.0;"/><polygon fill="#000000" points="605.75,649.5293,614.7951,652.4682,614.7951,646.5904,605.75,649.5293" style="stroke:#000000;stroke-width:1.0;"/><text fill="#000000" font-family="sans-serif" font-size="13" lengthAdjust="spacing" textLength="25" x="619.75" y="654.9121">lives</text><text fill="#000000" font-family="sans-serif" font-size="13" lengthAdjust="spacing" textLength="7" x="596.3688" y="657.5915">1</text><text fill="#000000" font-family="sans-serif" font-size="13" lengthAdjust="spacing" textLength="20" x="634.8941" y="676.8916">1..*</text></g><!--link GreenSpaceManager to GreenSpace--><g id="link_GreenSpaceManager_GreenSpace"><path codeLine="85" d="M429.77,87.2838 C438.63,95.4538 448.2,105.7838 454.5,116.8838 C473.78,150.8138 476.5,162.8638 476.5,201.8838 C476.5,201.8838 476.5,201.8838 476.5,509.3838 C476.5,567.5938 420.04,612.7938 378.57,638.1538 " fill="none" id="GreenSpaceManager-GreenSpace" style="stroke:#181818;stroke-width:1.0;"/><polygon fill="#000000" points="481.0373,370.0078,484.8007,361.2736,478.948,360.7296,481.0373,370.0078" style="stroke:#000000;stroke-width:1.0;"/><text fill="#000000" font-family="sans-serif" font-size="13" lengthAdjust="spacing" textLength="100" x="490.5" y="370.4121">register/manages</text><text fill="#000000" font-family="sans-serif" font-size="13" lengthAdjust="spacing" textLength="7" x="427.5798" y="108.4192">1</text><text fill="#000000" font-family="sans-serif" font-size="13" lengthAdjust="spacing" textLength="5" x="386.4023" y="629.6793">*</text></g><!--link GreenSpaceManager to Task--><g id="link_GreenSpaceManager_Task"><path codeLine="86" d="M336.17,85.9638 C309.72,93.5338 279.97,103.7838 254.5,116.8838 C223.89,132.6238 193.03,156.8138 171.47,175.3638 " fill="none" id="GreenSpaceManager-Task" style="stroke:#181818;stroke-width:1.0;"/><polygon fill="#000000" points="255.1056,128.9146,264.4571,127.1825,261.6531,122.0166,255.1056,128.9146" style="stroke:#000000;stroke-width:1.0;"/><text fill="#000000" font-family="sans-serif" font-size="13" lengthAdjust="spacing" textLength="43" x="268.5" y="131.9121">creates</text><text fill="#000000" font-family="sans-serif" font-size="13" lengthAdjust="spacing" textLength="20" x="308.4182" y="83.8895">1..*</text><text fill="#000000" font-family="sans-serif" font-size="13" lengthAdjust="spacing" textLength="20" x="155.8568" y="164.0681">1..*</text></g><!--link GreenSpaceManager to TaskAgenda--><g id="link_GreenSpaceManager_TaskAgenda"><path codeLine="87" d="M376.48,86.9538 C363.4,95.1438 348.46,105.5738 336.5,116.8838 C321.2,131.3538 306.84,149.7938 295.61,165.7938 " fill="none" id="GreenSpaceManager-TaskAgenda" style="stroke:#181818;stroke-width:1.0;"/><polygon fill="#000000" points="337.9198,130.0196,346.448,125.81,342.3449,121.6012,337.9198,130.0196" style="stroke:#000000;stroke-width:1.0;"/><text fill="#000000" font-family="sans-serif" font-size="13" lengthAdjust="spacing" textLength="99" x="350.5" y="131.9121">inserts new entry</text><text fill="#000000" font-family="sans-serif" font-size="13" lengthAdjust="spacing" textLength="20" x="344.9431" y="108.6898">1..*</text><text fill="#000000" font-family="sans-serif" font-size="13" lengthAdjust="spacing" textLength="20" x="277.9452" y="154.7395">1..*</text></g><!--link GreenSpace to Address--><g id="link_GreenSpace_Address"><path codeLine="90" d="M378.6,661.8838 C413.58,661.8838 462.76,661.8838 498.3,661.8838 " fill="none" id="GreenSpace-Address" style="stroke:#181818;stroke-width:1.0;"/><polygon fill="#000000" points="406,649.5293,396.9549,646.5904,396.9549,652.4682,406,649.5293" style="stroke:#000000;stroke-width:1.0;"/><text fill="#000000" font-family="sans-serif" font-size="13" lengthAdjust="spacing" textLength="70" x="410" y="654.9121">is located in</text><text fill="#000000" font-family="sans-serif" font-size="13" lengthAdjust="spacing" textLength="7" x="386.6094" y="657.4879">1</text><text fill="#000000" font-family="sans-serif" font-size="13" lengthAdjust="spacing" textLength="7" x="483.5384" y="657.5915">1</text></g><!--reverse link GreenSpace to Garden--><g id="link_GreenSpace_Garden"><path codeLine="91" d="M301.9275,714.1979 C275.6875,754.3179 244.3,802.2838 224.24,832.9438 " fill="none" id="GreenSpace-backto-Garden" style="stroke:#181818;stroke-width:1.0;"/><polygon fill="none" points="311.78,699.1338,296.9061,710.9137,306.9489,717.4821,311.78,699.1338" style="stroke:#181818;stroke-width:1.0;"/></g><!--reverse link GreenSpace to MediumPark--><g id="link_GreenSpace_MediumPark"><path codeLine="92" d="M330.0277,717.0423 C325.9677,757.1623 321.41,802.2838 318.31,832.9438 " fill="none" id="GreenSpace-backto-MediumPark" style="stroke:#181818;stroke-width:1.0;"/><polygon fill="none" points="331.84,699.1338,324.0582,716.4382,335.9972,717.6464,331.84,699.1338" style="stroke:#181818;stroke-width:1.0;"/></g><!--reverse link GreenSpace to LargePark--><g id="link_GreenSpace_LargePark"><path codeLine="93" d="M361.6698,715.2335 C381.7298,755.3535 405.2,802.2838 420.53,832.9438 " fill="none" id="GreenSpace-backto-LargePark" style="stroke:#181818;stroke-width:1.0;"/><polygon fill="none" points="353.62,699.1338,356.3033,717.9168,367.0364,712.5502,353.62,699.1338" style="stroke:#181818;stroke-width:1.0;"/></g><!--link TaskAgenda to GreenSpace--><g id="link_TaskAgenda_GreenSpace"><path codeLine="96" d="M304.24,240.2238 C310.67,249.3638 316.63,259.5338 320.5,269.8838 C366.55,393.1838 351.49,553.8138 341.44,624.6438 " fill="none" id="TaskAgenda-GreenSpace" style="stroke:#181818;stroke-width:1.0;"/><polygon fill="#000000" points="357.9816,455.506,360.0356,446.2199,354.1851,446.7861,357.9816,455.506" style="stroke:#000000;stroke-width:1.0;"/><text fill="#000000" font-family="sans-serif" font-size="13" lengthAdjust="spacing" textLength="77" x="366.5" y="455.9121">Carried out in</text><text fill="#000000" font-family="sans-serif" font-size="13" lengthAdjust="spacing" textLength="20" x="287.8407" y="261.8798">1..*</text><text fill="#000000" font-family="sans-serif" font-size="13" lengthAdjust="spacing" textLength="7" x="334.8746" y="613.5628">1</text></g><!--link TaskToDoList to GreenSpace--><g id="link_TaskToDoList_GreenSpace"><path codeLine="97" d="M220.14,411.0238 C222.61,444.0938 228.68,489.5538 243.5,526.8838 C257.87,563.0838 283.48,599.1938 304.04,624.7938 " fill="none" id="TaskToDoList-GreenSpace" style="stroke:#181818;stroke-width:1.0;"/><polygon fill="#000000" points="250.3267,513.1837,249.7579,503.6901,244.2864,505.8376,250.3267,513.1837" style="stroke:#000000;stroke-width:1.0;"/><text fill="#000000" font-family="sans-serif" font-size="13" lengthAdjust="spacing" textLength="77" x="257.5" y="513.9121">Carried out in</text><text fill="#000000" font-family="sans-serif" font-size="13" lengthAdjust="spacing" textLength="20" x="198.8599" y="433.4041">1..*</text><text fill="#000000" font-family="sans-serif" font-size="13" lengthAdjust="spacing" textLength="7" x="290.8128" y="613.7395">1</text></g><!--link Task to apoint33--><g id="link_Task_apoint33"><path d="M141.16,230.6638 C139.04,273.0138 135.11,351.7638 134.56,362.6238 " fill="none" id="Task-apoint33" style="stroke:#181818;stroke-width:1.0;"/><polygon fill="#000000" points="144.7498,274.5355,141.3627,283.4225,147.2332,283.7161,144.7498,274.5355" style="stroke:#000000;stroke-width:1.0;"/><text fill="#000000" font-family="sans-serif" font-size="13" lengthAdjust="spacing" textLength="48" x="153.5" y="284.9121">includes</text><text fill="#000000" font-family="sans-serif" font-size="13" lengthAdjust="spacing" textLength="5" x="135.32" y="252.6337">*</text></g><!--link apoint33 to ToDoList--><g id="link_apoint33_ToDoList"><path d="M134.28,367.4738 C132.6,379.3438 121.95,454.6838 117.01,489.6238 " fill="none" id="apoint33-ToDoList" style="stroke:#181818;stroke-width:1.0;"/><text fill="#000000" font-family="sans-serif" font-size="13" lengthAdjust="spacing" textLength="7" x="109.7192" y="478.7429">1</text></g><!--link apoint33 to TaskToDoList--><g id="link_apoint33_TaskToDoList"><path d="M136.8,364.8838 C148.29,364.8838 159.78,364.8838 171.27,364.8838 " fill="none" id="apoint33-TaskToDoList" style="stroke:#181818;stroke-width:1.0;stroke-dasharray:7.0,7.0;"/></g><!--link Agenda to apoint38--><g id="link_Agenda_apoint38"><path d="M62.27,68.3838 C95.8,68.3838 149.11,68.3838 160.37,68.3838 " fill="none" id="Agenda-apoint38" style="stroke:#181818;stroke-width:1.0;"/><polygon fill="#000000" points="89.25,56.0293,80.2049,53.0904,80.2049,58.9682,89.25,56.0293" style="stroke:#000000;stroke-width:1.0;"/><text fill="#000000" font-family="sans-serif" font-size="13" lengthAdjust="spacing" textLength="49" x="93.25" y="61.4121">contains</text><text fill="#000000" font-family="sans-serif" font-size="13" lengthAdjust="spacing" textLength="7" x="69.8921" y="63.4219">1</text></g><!--link apoint38 to Task--><g id="link_apoint38_Task"><path d="M162.28,70.8738 C160.75,80.9638 151.83,140.0438 146.51,175.3338 " fill="none" id="apoint38-Task" style="stroke:#181818;stroke-width:1.0;"/><text fill="#000000" font-family="sans-serif" font-size="13" lengthAdjust="spacing" textLength="5" x="141.8592" y="164.0312">*</text></g><!--link apoint38 to TaskAgenda--><g id="link_apoint38_TaskAgenda"><path d="M163.03,70.3738 C166.41,76.6338 185.36,111.1538 205.5,135.8838 C213.75,146.0138 223.38,156.2538 232.74,165.5538 " fill="none" id="apoint38-TaskAgenda" style="stroke:#181818;stroke-width:1.0;stroke-dasharray:7.0,7.0;"/></g><!--link TaskAgenda to TaskToDoList--><g id="link_TaskAgenda_TaskToDoList"><path codeLine="107" d="M260.25,240.1938 C252.37,263.5138 242.09,293.9938 233.7,318.8538 " fill="none" id="TaskAgenda-TaskToDoList" style="stroke:#181818;stroke-width:1.0;"/><polygon fill="#000000" points="252.901,284.2667,258.5782,276.6365,253.009,274.7568,252.901,284.2667" style="stroke:#000000;stroke-width:1.0;"/><text fill="#000000" font-family="sans-serif" font-size="13" lengthAdjust="spacing" textLength="48" x="263.5" y="284.9121">includes</text></g><!--SRC=[ZLJRRjGm47ttLrXzuI9sWTSLgbIw4a9geLBx0rDxkh4siQFnXBAb_3iJvxBsfWZoal5Spfovs77lV0i4ZMw23wQYqA1cwb35sTA2sSCER_bGeoOq37vNvmwn0XiUdT_f1wXZRZ4rn7Z1JEw-O_ngWhzrJwW_gCfPrCQH4Q0aDyXLi54fTYnfjg41v_Lri5WhbM3qPQXhk0y474Z_Kbe-3mqcmGBZzuVFZhXAPx2DYz45lnL3qhHLyFYjQ-wHqfdXPmi7f4o5ahDMlwTyss2w1ZsFgGQ_XVNkqEBWmI8TxHVM4if_i4KcH1weXZ0bdPrlGkHBgNLmRiTJHgqE1cht12mb7SE-2AY_bVdWDNWPKT-M5uodpG92oFo0BFeyyXgjwveRe7sklGBQuQdoBcp3bOjSw23k9_rKFN0NazW9Y3U7eHCTdHJKXrw8WuKva7WUeUYJNBYFnLcCXbnRmarGefZ6SVPnlNvxfbShaSxclkkDhY3gSwMciSwEoIyVzj7trIh_ylKi3AfOt1wk19q1b-FKg-TpNIn-LiY0arWM6JQwTZymwa-d31Vu9Srb-Z679CYMQIDlm4v6Y_I-INulKyyRdQGqh8qsidpyZvWyP9YX13eVaJXgZu-o2Ko7vGYEY7-hB6l_r4X1Zkb-CLf9KX3JdvwbWE66BDJ7Qx8mpNVbb65VKSajgt5ksRYTHTFr9H0veHWwxcaAp_oYPS7_5Pk2qsZ7W1cexxIfEpjiq4njseHfZC6plD3f7gZNlVBTXF16hzV58p3Q1wZPEXnLte1L4POpEVy3]--></g></svg>