<?xml version="1.0" encoding="us-ascii" standalone="no"?><svg xmlns="http://www.w3.org/2000/svg" xmlns:xlink="http://www.w3.org/1999/xlink" contentStyleType="text/css" height="740px" preserveAspectRatio="none" style="width:899px;height:740px;background:#FFFFFF;" version="1.1" viewBox="0 0 899 740" width="899px" zoomAndPan="magnify"><defs/><g><text fill="#000000" font-family="sans-serif" font-size="14" font-weight="bold" lengthAdjust="spacing" textLength="100" x="392.5" y="25.1074">Domain Model</text><!--class Collaborator--><g id="elem_Collaborator"><rect codeLine="10" fill="#F1F1F1" height="148.3477" id="Collaborator" rx="2.5" ry="2.5" style="stroke:#181818;stroke-width:0.5;" width="115" x="643.5" y="316.6211"/><text fill="#000000" font-family="sans-serif" font-size="14" lengthAdjust="spacing" textLength="78" x="662" y="336.7285">Collaborator</text><line style="stroke:#181818;stroke-width:0.5;" x1="644.5" x2="757.5" y1="345.2422" y2="345.2422"/><text fill="#000000" font-family="sans-serif" font-size="14" lengthAdjust="spacing" textLength="35" x="649.5" y="364.3496">name</text><text fill="#000000" font-family="sans-serif" font-size="14" lengthAdjust="spacing" textLength="72" x="649.5" y="382.9707">dateOfBirth</text><text fill="#000000" font-family="sans-serif" font-size="14" lengthAdjust="spacing" textLength="93" x="649.5" y="401.5918">admissionDate</text><text fill="#000000" font-family="sans-serif" font-size="14" lengthAdjust="spacing" textLength="89" x="649.5" y="420.2129">phoneNumber</text><text fill="#000000" font-family="sans-serif" font-size="14" lengthAdjust="spacing" textLength="103" x="649.5" y="438.834">taxpayerNumber</text><text fill="#000000" font-family="sans-serif" font-size="14" lengthAdjust="spacing" textLength="33" x="649.5" y="457.4551">email</text></g><!--class Address--><g id="elem_Address"><rect codeLine="19" fill="#F1F1F1" height="73.8633" id="Address" rx="2.5" ry="2.5" style="stroke:#181818;stroke-width:0.5;" width="90" x="325" y="353.6211"/><text fill="#000000" font-family="sans-serif" font-size="14" lengthAdjust="spacing" textLength="52" x="344" y="373.7285">Address</text><line style="stroke:#181818;stroke-width:0.5;" x1="326" x2="414" y1="382.2422" y2="382.2422"/><text fill="#000000" font-family="sans-serif" font-size="14" lengthAdjust="spacing" textLength="36" x="331" y="401.3496">street</text><text fill="#000000" font-family="sans-serif" font-size="14" lengthAdjust="spacing" textLength="78" x="331" y="419.9707">doorNumber</text></g><!--class PostCode--><g id="elem_PostCode"><rect codeLine="24" fill="#F1F1F1" height="73.8633" id="PostCode" rx="2.5" ry="2.5" style="stroke:#181818;stroke-width:0.5;" width="122" x="486" y="353.6211"/><text fill="#000000" font-family="sans-serif" font-size="14" lengthAdjust="spacing" textLength="62" x="516" y="373.7285">PostCode</text><line style="stroke:#181818;stroke-width:0.5;" x1="487" x2="607" y1="382.2422" y2="382.2422"/><text fill="#000000" font-family="sans-serif" font-size="14" lengthAdjust="spacing" textLength="110" x="492" y="401.3496">postCodeNumber</text><text fill="#000000" font-family="sans-serif" font-size="14" lengthAdjust="spacing" textLength="69" x="492" y="419.9707">localization</text></g><!--class GreenSpaceManager--><g id="elem_GreenSpaceManager"><rect codeLine="29" fill="#F1F1F1" height="36.6211" id="GreenSpaceManager" rx="2.5" ry="2.5" style="stroke:#181818;stroke-width:0.5;" width="142" x="610" y="494.6211"/><text fill="#000000" font-family="sans-serif" font-size="14" lengthAdjust="spacing" textLength="136" x="613" y="514.7285">GreenSpaceManager</text><line style="stroke:#181818;stroke-width:0.5;" x1="611" x2="751" y1="523.2422" y2="523.2422"/></g><!--class GreenSpace--><g id="elem_GreenSpace"><rect codeLine="32" fill="#F1F1F1" height="73.8633" id="GreenSpace" rx="2.5" ry="2.5" style="stroke:#181818;stroke-width:0.5;" width="86" x="119" y="353.6211"/><text fill="#000000" font-family="sans-serif" font-size="14" lengthAdjust="spacing" textLength="80" x="122" y="373.7285">GreenSpace</text><line style="stroke:#181818;stroke-width:0.5;" x1="120" x2="204" y1="382.2422" y2="382.2422"/><text fill="#000000" font-family="sans-serif" font-size="14" lengthAdjust="spacing" textLength="35" x="125" y="401.3496">name</text><text fill="#000000" font-family="sans-serif" font-size="14" lengthAdjust="spacing" textLength="29" x="125" y="419.9707">area</text></g><!--class Garden--><g id="elem_Garden"><rect codeLine="37" fill="#F1F1F1" height="36.6211" id="Garden" rx="2.5" ry="2.5" style="stroke:#181818;stroke-width:0.5;" width="54" x="395" y="561.6211"/><text fill="#000000" font-family="sans-serif" font-size="14" lengthAdjust="spacing" textLength="48" x="398" y="581.7285">Garden</text><line style="stroke:#181818;stroke-width:0.5;" x1="396" x2="448" y1="590.2422" y2="590.2422"/></g><!--class MediumPark--><g id="elem_MediumPark"><rect codeLine="40" fill="#F1F1F1" height="36.6211" id="MediumPark" rx="2.5" ry="2.5" style="stroke:#181818;stroke-width:0.5;" width="84" x="7" y="561.6211"/><text fill="#000000" font-family="sans-serif" font-size="14" lengthAdjust="spacing" textLength="78" x="10" y="581.7285">MediumPark</text><line style="stroke:#181818;stroke-width:0.5;" x1="8" x2="90" y1="590.2422" y2="590.2422"/></g><!--class LargePark--><g id="elem_LargePark"><rect codeLine="43" fill="#F1F1F1" height="36.6211" id="LargePark" rx="2.5" ry="2.5" style="stroke:#181818;stroke-width:0.5;" width="72" x="126" y="561.6211"/><text fill="#000000" font-family="sans-serif" font-size="14" lengthAdjust="spacing" textLength="66" x="129" y="581.7285">LargePark</text><line style="stroke:#181818;stroke-width:0.5;" x1="127" x2="197" y1="590.2422" y2="590.2422"/></g><!--class TaskToDoList--><g id="elem_TaskToDoList"><rect codeLine="46" fill="#F1F1F1" height="111.1055" id="TaskToDoList" rx="2.5" ry="2.5" style="stroke:#181818;stroke-width:0.5;" width="159" x="509.5" y="46.6211"/><text fill="#000000" font-family="sans-serif" font-size="14" lengthAdjust="spacing" textLength="88" x="545" y="66.7285">TaskToDoList</text><line style="stroke:#181818;stroke-width:0.5;" x1="510.5" x2="667.5" y1="75.2422" y2="75.2422"/><text fill="#000000" font-family="sans-serif" font-size="14" lengthAdjust="spacing" textLength="92" x="515.5" y="94.3496">taskReference</text><text fill="#000000" font-family="sans-serif" font-size="14" lengthAdjust="spacing" textLength="38" x="515.5" y="112.9707">status</text><text fill="#000000" font-family="sans-serif" font-size="14" lengthAdjust="spacing" textLength="51" x="515.5" y="131.5918">urgency</text><text fill="#000000" font-family="sans-serif" font-size="14" lengthAdjust="spacing" textLength="147" x="515.5" y="150.2129">aproxExpectedDuration</text></g><!--class TaskAgenda--><g id="elem_TaskAgenda"><rect codeLine="53" fill="#F1F1F1" height="73.8633" id="TaskAgenda" rx="2.5" ry="2.5" style="stroke:#181818;stroke-width:0.5;" width="123" x="600.5" y="659.6211"/><text fill="#000000" font-family="sans-serif" font-size="14" lengthAdjust="spacing" textLength="80" x="622" y="679.7285">TaskAgenda</text><line style="stroke:#181818;stroke-width:0.5;" x1="601.5" x2="722.5" y1="688.2422" y2="688.2422"/><text fill="#000000" font-family="sans-serif" font-size="14" lengthAdjust="spacing" textLength="58" x="606.5" y="707.3496">startDate</text><text fill="#000000" font-family="sans-serif" font-size="14" lengthAdjust="spacing" textLength="111" x="606.5" y="725.9707">expectedDuration</text></g><!--class Agenda--><g id="elem_Agenda"><rect codeLine="58" fill="#F1F1F1" height="36.6211" id="Agenda" rx="2.5" ry="2.5" style="stroke:#181818;stroke-width:0.5;" width="55" x="446.5" y="678.1211"/><text fill="#000000" font-family="sans-serif" font-size="14" lengthAdjust="spacing" textLength="49" x="449.5" y="698.2285">Agenda</text><line style="stroke:#181818;stroke-width:0.5;" x1="447.5" x2="500.5" y1="706.7422" y2="706.7422"/></g><!--link Address to PostCode--><g id="link_Address_PostCode"><path codeLine="61" d="M415.12,390.6211 C436.63,390.6211 462.68,390.6211 485.93,390.6211 " fill="none" id="Address-PostCode" style="stroke:#181818;stroke-width:1.0;"/><polygon fill="#000000" points="442.5,378.2666,433.4549,375.3277,433.4549,381.2055,442.5,378.2666" style="stroke:#000000;stroke-width:1.0;"/><text fill="#000000" font-family="sans-serif" font-size="13" lengthAdjust="spacing" textLength="21" x="446.5" y="383.6494">has</text><text fill="#000000" font-family="sans-serif" font-size="13" lengthAdjust="spacing" textLength="20" x="422.8713" y="405.8748">1..*</text><text fill="#000000" font-family="sans-serif" font-size="13" lengthAdjust="spacing" textLength="7" x="471.0605" y="386.6395">1</text></g><!--reverse link Collaborator to GreenSpaceManager--><g id="link_Collaborator_GreenSpaceManager"><path codeLine="64" d="M685.8908,482.5962 C684.0508,493.6362 685.28,486.3111 683.92,494.5511 " fill="none" id="Collaborator-backto-GreenSpaceManager" style="stroke:#181818;stroke-width:1.0;"/><polygon fill="none" points="688.85,464.8411,679.9725,481.6098,691.8092,483.5826,688.85,464.8411" style="stroke:#181818;stroke-width:1.0;"/></g><!--link Address to Collaborator--><g id="link_Address_Collaborator"><path codeLine="65" d="M405.31,353.5111 C431.32,329.0011 469,299.0311 509,285.6211 C556.73,269.6211 606.49,298.3111 643.38,329.7211 " fill="none" id="Address-Collaborator" style="stroke:#181818;stroke-width:1.0;"/><polygon fill="#000000" points="509.0248,277.7638,518.3173,279.7887,517.7328,273.94,509.0248,277.7638" style="stroke:#000000;stroke-width:1.0;"/><text fill="#000000" font-family="sans-serif" font-size="13" lengthAdjust="spacing" textLength="25" x="523" y="282.6494">lives</text><text fill="#000000" font-family="sans-serif" font-size="13" lengthAdjust="spacing" textLength="7" x="403.9762" y="342.4532">1</text><text fill="#000000" font-family="sans-serif" font-size="13" lengthAdjust="spacing" textLength="20" x="615.5614" y="318.7218">1..*</text></g><!--link GreenSpaceManager to TaskAgenda--><g id="link_GreenSpaceManager_TaskAgenda"><path codeLine="68" d="M679.14,531.8511 C676.06,561.2911 669.83,620.8111 665.79,659.4111 " fill="none" id="GreenSpaceManager-TaskAgenda" style="stroke:#181818;stroke-width:1.0;"/><polygon fill="#000000" points="680.4796,585.2394,684.344,576.5494,678.4981,575.9376,680.4796,585.2394" style="stroke:#000000;stroke-width:1.0;"/><text fill="#000000" font-family="sans-serif" font-size="13" lengthAdjust="spacing" textLength="99" x="690" y="585.6494">inserts new entry</text><text fill="#000000" font-family="sans-serif" font-size="13" lengthAdjust="spacing" textLength="20" x="655.9526" y="553.2875">1..*</text><text fill="#000000" font-family="sans-serif" font-size="13" lengthAdjust="spacing" textLength="20" x="644.6838" y="648.3354">1..*</text></g><!--reverse link GreenSpace to MediumPark--><g id="link_GreenSpace_MediumPark"><path codeLine="71" d="M130.9196,443.1883 C106.8096,483.1983 78.21,530.6511 59.78,561.2311 " fill="none" id="GreenSpace-backto-MediumPark" style="stroke:#181818;stroke-width:1.0;"/><polygon fill="none" points="140.21,427.7711,125.7806,440.0915,136.0587,446.285,140.21,427.7711" style="stroke:#181818;stroke-width:1.0;"/></g><!--reverse link GreenSpace to Garden--><g id="link_GreenSpace_Garden"><path codeLine="72" d="M219.8285,433.3213 C274.8385,473.0013 353.42,529.6611 397.49,561.4511 " fill="none" id="GreenSpace-backto-Garden" style="stroke:#181818;stroke-width:1.0;"/><polygon fill="none" points="205.23,422.7911,216.3184,438.1874,223.3385,428.4551,205.23,422.7911" style="stroke:#181818;stroke-width:1.0;"/></g><!--reverse link GreenSpace to LargePark--><g id="link_GreenSpace_LargePark"><path codeLine="73" d="M162,445.7711 C162,485.7811 162,530.6511 162,561.2311 " fill="none" id="GreenSpace-backto-LargePark" style="stroke:#181818;stroke-width:1.0;"/><polygon fill="none" points="162,427.7711,156,445.7711,168,445.7711,162,427.7711" style="stroke:#181818;stroke-width:1.0;"/></g><!--link GreenSpace to Address--><g id="link_GreenSpace_Address"><path codeLine="74" d="M205.1,390.6211 C240.08,390.6211 289.26,390.6211 324.8,390.6211 " fill="none" id="GreenSpace-Address" style="stroke:#181818;stroke-width:1.0;"/><polygon fill="#000000" points="232.5,378.2666,223.4549,375.3277,223.4549,381.2055,232.5,378.2666" style="stroke:#000000;stroke-width:1.0;"/><text fill="#000000" font-family="sans-serif" font-size="13" lengthAdjust="spacing" textLength="70" x="236.5" y="383.6494">is located in</text><text fill="#000000" font-family="sans-serif" font-size="13" lengthAdjust="spacing" textLength="7" x="213.1094" y="386.2252">1</text><text fill="#000000" font-family="sans-serif" font-size="13" lengthAdjust="spacing" textLength="7" x="310.0384" y="386.3288">1</text></g><!--link GreenSpace to TaskAgenda--><g id="link_GreenSpace_TaskAgenda"><path codeLine="77" d="M173.9,427.9011 C191.1,474.5811 227.44,554.8611 286,598.6211 C289.2,601.0111 494.23,653.1511 600.13,679.9711 " fill="none" id="GreenSpace-TaskAgenda" style="stroke:#181818;stroke-width:1.0;"/><polygon fill="#000000" points="286.6963,577.7214,292.9858,584.8554,295.9778,579.796,286.6963,577.7214" style="stroke:#000000;stroke-width:1.0;"/><text fill="#000000" font-family="sans-serif" font-size="13" lengthAdjust="spacing" textLength="77" x="300" y="585.6494">Carried out in</text><text fill="#000000" font-family="sans-serif" font-size="13" lengthAdjust="spacing" textLength="7" x="168.2913" y="449.5471">1</text><text fill="#000000" font-family="sans-serif" font-size="13" lengthAdjust="spacing" textLength="20" x="572.7184" y="674.4279">1..*</text></g><!--link TaskToDoList to GreenSpace--><g id="link_TaskToDoList_GreenSpace"><path codeLine="78" d="M509.19,156.6711 C419.27,217.0011 276.42,312.8511 205.25,360.6011 " fill="none" id="TaskToDoList-GreenSpace" style="stroke:#181818;stroke-width:1.0;"/><polygon fill="#000000" points="414.848,231.0524,423.9965,228.4533,420.7216,223.5723,414.848,231.0524" style="stroke:#000000;stroke-width:1.0;"/><text fill="#000000" font-family="sans-serif" font-size="13" lengthAdjust="spacing" textLength="77" x="428" y="233.6494">Carried out in</text><text fill="#000000" font-family="sans-serif" font-size="13" lengthAdjust="spacing" textLength="20" x="481.472" y="157.6648">1..*</text><text fill="#000000" font-family="sans-serif" font-size="13" lengthAdjust="spacing" textLength="7" x="212.993" y="351.285">1</text></g><!--link Agenda to TaskAgenda--><g id="link_Agenda_TaskAgenda"><path codeLine="79" d="M501.74,696.6211 C527.58,696.6211 567.02,696.6211 600.3,696.6211 " fill="none" id="Agenda-TaskAgenda" style="stroke:#181818;stroke-width:1.0;"/><polygon fill="#000000" points="529,684.2666,519.9549,681.3277,519.9549,687.2055,529,684.2666" style="stroke:#000000;stroke-width:1.0;"/><text fill="#000000" font-family="sans-serif" font-size="13" lengthAdjust="spacing" textLength="49" x="533" y="689.6494">contains</text><text fill="#000000" font-family="sans-serif" font-size="13" lengthAdjust="spacing" textLength="7" x="509.3548" y="691.6592">1</text><text fill="#000000" font-family="sans-serif" font-size="13" lengthAdjust="spacing" textLength="5" x="587.4756" y="711.7114">*</text></g><!--link TaskToDoList to TaskAgenda--><g id="link_TaskToDoList_TaskAgenda"><path codeLine="80" d="M668.58,111.3211 C738.44,123.4411 829,153.3711 829,227.1211 C829,227.1211 829,227.1211 829,581.1211 C829,634.0311 771.28,664.3011 723.71,680.2711 " fill="none" id="TaskToDoList-TaskAgenda" style="stroke:#181818;stroke-width:1.0;"/><polygon fill="#000000" points="833.5178,385.7899,831.4649,395.0763,837.3154,394.5094,833.5178,385.7899" style="stroke:#000000;stroke-width:1.0;"/><text fill="#000000" font-family="sans-serif" font-size="13" lengthAdjust="spacing" textLength="48" x="843" y="396.1494">includes</text><text fill="#000000" font-family="sans-serif" font-size="13" lengthAdjust="spacing" textLength="7" x="676.4986" y="108.425">1</text><text fill="#000000" font-family="sans-serif" font-size="13" lengthAdjust="spacing" textLength="7" x="731.6575" y="674.2969">1</text></g><!--SRC=[ZLJRRjim37tNLmXz6J30nVOQ50MoPXW6D5knz0SOYuc5o991qMlITly-MeuT9Mwn-S6cU3c7F28STzOtG53hElXGLXHgr4mjgZX66YXtiCKL7nngmfB1RrsU42imuSdwhTw0YtcaT13Zd9dikcNyNWQ_ii-eFwdA6jIbfLA0abqZLy54fTYoq2n23TRhPJ3eb4em-Yuu1-j0m87qYzBoUAWn6GOOVsw-ME8gdS7KDaOR_482oTDKmUEFjbuZfJF3le43KkP2uNJgpy0tDuPGlZrLP4BadYo4eMnCVWYHxwJRFhavdZ9m5qfmzXbOcZgLVHDGlnA5SGbUHEu6UoDuEIuGGfO7PD3dbKiqjgqVW7QvznveYvVEHuYxnx08zpRoor6PkFk56oJq9Hvd1svZCbk1yEMXxwAXiF-wRsGbq2nQkfYjGvvBje51GI0UxmFVhHjgn35SmTNdw-kFLxeGusgKMizq1L7VAlMXo9zyJyu2QggsBjphhJvRhOnK66dWFjk-cNRsDqPzSyazOVXN0zbaoJY99YJMHoIEskEJHizqc0vxGdoFIT-y5aMs4PDGlpuJzxWjUIHfajw3Ij9bJCijToaDJpli9ZhlBPjn6ByjUjICQYRN0aHMO4FB7RHWvziw5lzdxKYPHhZKMlvDBB-SU2J9azlqEQFkxgPqhS4k_oy0]--></g></svg>