<?xml version="1.0" encoding="us-ascii" standalone="no"?><svg xmlns="http://www.w3.org/2000/svg" xmlns:xlink="http://www.w3.org/1999/xlink" contentStyleType="text/css" height="525px" preserveAspectRatio="none" style="width:817px;height:525px;background:#FFFFFF;" version="1.1" viewBox="0 0 817 525" width="817px" zoomAndPan="magnify"><defs/><g><rect fill="#FFFFFF" height="360.8613" style="stroke:#181818;stroke-width:1.0;" width="10" x="237" y="90.5332"/><rect fill="#FFFFFF" height="36.291" style="stroke:#181818;stroke-width:1.0;" width="10" x="242" y="276.2793"/><rect fill="#FFFFFF" height="31.291" style="stroke:#181818;stroke-width:1.0;" width="10" x="398" y="205.6973"/><rect fill="#FFFFFF" height="31.291" style="stroke:#181818;stroke-width:1.0;" width="10" x="566" y="374.8125"/><rect fill="none" height="315.5703" style="stroke:#000000;stroke-width:1.5;" width="662" x="149" y="105.5332"/><rect fill="none" height="250.9883" style="stroke:#000000;stroke-width:1.5;" width="642" x="159" y="163.1152"/><line style="stroke:#181818;stroke-width:0.5;stroke-dasharray:5.0,5.0;" x1="242" x2="242" y1="57.2422" y2="469.3945"/><line style="stroke:#181818;stroke-width:0.5;stroke-dasharray:5.0,5.0;" x1="403" x2="403" y1="57.2422" y2="469.3945"/><line style="stroke:#181818;stroke-width:0.5;stroke-dasharray:5.0,5.0;" x1="571" x2="571" y1="57.2422" y2="469.3945"/><line style="stroke:#181818;stroke-width:0.5;stroke-dasharray:5.0,5.0;" x1="731" x2="731" y1="330.4004" y2="469.3945"/><rect fill="#E3E3E3" height="32.6211" rx="2.5" ry="2.5" style="stroke:#181818;stroke-width:0.5;" width="146" x="169" y="23.6211"/><text fill="#000000" font-family="sans-serif" font-size="14" lengthAdjust="spacing" textLength="132" x="176" y="45.7285">:GreenSpaceMapper</text><rect fill="#E3E3E3" height="32.6211" rx="2.5" ry="2.5" style="stroke:#181818;stroke-width:0.5;" width="146" x="169" y="468.3945"/><text fill="#000000" font-family="sans-serif" font-size="14" lengthAdjust="spacing" textLength="132" x="176" y="490.502">:GreenSpaceMapper</text><rect fill="#E3E3E3" height="51.2422" rx="2.5" ry="2.5" style="stroke:#181818;stroke-width:0.5;" width="136" x="335" y="5"/><text fill="#000000" font-family="sans-serif" font-size="14" lengthAdjust="spacing" textLength="99" x="353.5" y="27.1074">greenSpaceList</text><text fill="#000000" font-family="sans-serif" font-size="14" lengthAdjust="spacing" textLength="122" x="342" y="45.7285">:List&lt;GreenSpace&gt;</text><rect fill="#E3E3E3" height="51.2422" rx="2.5" ry="2.5" style="stroke:#181818;stroke-width:0.5;" width="136" x="335" y="468.3945"/><text fill="#000000" font-family="sans-serif" font-size="14" lengthAdjust="spacing" textLength="99" x="353.5" y="490.502">greenSpaceList</text><text fill="#000000" font-family="sans-serif" font-size="14" lengthAdjust="spacing" textLength="122" x="342" y="509.123">:List&lt;GreenSpace&gt;</text><rect fill="#E3E3E3" height="51.2422" rx="2.5" ry="2.5" style="stroke:#181818;stroke-width:0.5;" width="180" x="481" y="5"/><text fill="#000000" font-family="sans-serif" font-size="14" lengthAdjust="spacing" textLength="121" x="510.5" y="27.1074">greenSpaceListDto</text><text fill="#000000" font-family="sans-serif" font-size="14" lengthAdjust="spacing" textLength="166" x="488" y="45.7285">:List&lt;GreenSpaceListDto&gt;</text><rect fill="#E3E3E3" height="51.2422" rx="2.5" ry="2.5" style="stroke:#181818;stroke-width:0.5;" width="180" x="481" y="468.3945"/><text fill="#000000" font-family="sans-serif" font-size="14" lengthAdjust="spacing" textLength="121" x="510.5" y="490.502">greenSpaceListDto</text><text fill="#000000" font-family="sans-serif" font-size="14" lengthAdjust="spacing" textLength="166" x="488" y="509.123">:List&lt;GreenSpaceListDto&gt;</text><rect fill="#E3E3E3" height="51.2422" rx="2.5" ry="2.5" style="stroke:#181818;stroke-width:0.5;" width="120" x="671" y="468.3945"/><text fill="#000000" font-family="sans-serif" font-size="14" lengthAdjust="spacing" textLength="41" x="710.5" y="490.502">objDto</text><text fill="#000000" font-family="sans-serif" font-size="14" lengthAdjust="spacing" textLength="106" x="678" y="509.123">:GreenSpaceDto</text><rect fill="#FFFFFF" height="360.8613" style="stroke:#181818;stroke-width:1.0;" width="10" x="237" y="90.5332"/><rect fill="#FFFFFF" height="36.291" style="stroke:#181818;stroke-width:1.0;" width="10" x="242" y="276.2793"/><rect fill="#FFFFFF" height="31.291" style="stroke:#181818;stroke-width:1.0;" width="10" x="398" y="205.6973"/><rect fill="#FFFFFF" height="31.291" style="stroke:#181818;stroke-width:1.0;" width="10" x="566" y="374.8125"/><polygon fill="#181818" points="225,86.5332,235,90.5332,225,94.5332,229,90.5332" style="stroke:#181818;stroke-width:1.0;"/><line style="stroke:#181818;stroke-width:1.0;stroke-dasharray:2.0,2.0;" x1="0" x2="231" y1="90.5332" y2="90.5332"/><text fill="#000000" font-family="sans-serif" font-size="13" font-weight="bold" lengthAdjust="spacing" textLength="7" x="7" y="85.2705">9</text><text fill="#000000" font-family="sans-serif" font-size="13" lengthAdjust="spacing" textLength="207" x="18" y="85.2705">toDTOGreenSpace(greenSpaceList)</text><path d="M149,105.5332 L354,105.5332 L354,114.8242 L344,124.8242 L149,124.8242 L149,105.5332 " fill="#EEEEEE" style="stroke:#000000;stroke-width:1.5;"/><rect fill="none" height="315.5703" style="stroke:#000000;stroke-width:1.5;" width="662" x="149" y="105.5332"/><text fill="#000000" font-family="sans-serif" font-size="13" font-weight="bold" lengthAdjust="spacing" textLength="160" x="164" y="120.5615">Green Space List To DTO</text><polygon fill="#181818" points="559,144.1152,569,148.1152,559,152.1152,563,148.1152" style="stroke:#181818;stroke-width:1.0;"/><line style="stroke:#181818;stroke-width:1.0;stroke-dasharray:2.0,2.0;" x1="247" x2="565" y1="148.1152" y2="148.1152"/><text fill="#000000" font-family="sans-serif" font-size="13" font-weight="bold" lengthAdjust="spacing" textLength="18" x="254" y="142.8525">9.1</text><text fill="#000000" font-family="sans-serif" font-size="13" lengthAdjust="spacing" textLength="44" x="276" y="142.8525">create()</text><path d="M159,163.1152 L232,163.1152 L232,172.4063 L222,182.4063 L159,182.4063 L159,163.1152 " fill="#EEEEEE" style="stroke:#000000;stroke-width:1.5;"/><rect fill="none" height="250.9883" style="stroke:#000000;stroke-width:1.5;" width="642" x="159" y="163.1152"/><text fill="#000000" font-family="sans-serif" font-size="13" font-weight="bold" lengthAdjust="spacing" textLength="28" x="174" y="178.1436">loop</text><text fill="#000000" font-family="sans-serif" font-size="11" font-weight="bold" lengthAdjust="spacing" textLength="193" x="247" y="176.9854">[for each object in greenSpaceList]</text><polygon fill="#181818" points="386,201.6973,396,205.6973,386,209.6973,390,205.6973" style="stroke:#181818;stroke-width:1.0;"/><line style="stroke:#181818;stroke-width:1.0;" x1="247" x2="392" y1="205.6973" y2="205.6973"/><text fill="#000000" font-family="sans-serif" font-size="13" font-weight="bold" lengthAdjust="spacing" textLength="18" x="254" y="200.4346">9.2</text><text fill="#000000" font-family="sans-serif" font-size="13" lengthAdjust="spacing" textLength="29" x="276" y="200.4346">get(i)</text><polygon fill="#181818" points="258,232.9883,248,236.9883,258,240.9883,254,236.9883" style="stroke:#181818;stroke-width:1.0;"/><line style="stroke:#181818;stroke-width:1.0;stroke-dasharray:2.0,2.0;" x1="252" x2="402" y1="236.9883" y2="236.9883"/><text fill="#000000" font-family="sans-serif" font-size="13" font-weight="bold" lengthAdjust="spacing" textLength="18" x="264" y="231.7256">9.3</text><text fill="#000000" font-family="sans-serif" font-size="13" lengthAdjust="spacing" textLength="17" x="286" y="231.7256">obj</text><line style="stroke:#181818;stroke-width:1.0;" x1="247" x2="294" y1="263.2793" y2="263.2793"/><line style="stroke:#181818;stroke-width:1.0;" x1="294" x2="294" y1="263.2793" y2="276.2793"/><line style="stroke:#181818;stroke-width:1.0;" x1="253" x2="294" y1="276.2793" y2="276.2793"/><polygon fill="#181818" points="263,272.2793,253,276.2793,263,280.2793,259,276.2793" style="stroke:#181818;stroke-width:1.0;"/><text fill="#000000" font-family="sans-serif" font-size="13" font-weight="bold" lengthAdjust="spacing" textLength="18" x="259" y="258.0166">9.4</text><text fill="#000000" font-family="sans-serif" font-size="13" lengthAdjust="spacing" textLength="115" x="281" y="258.0166">objDto = toDTO(obj)</text><polygon fill="#181818" points="659,308.5703,669,312.5703,659,316.5703,663,312.5703" style="stroke:#181818;stroke-width:1.0;"/><line style="stroke:#181818;stroke-width:1.0;stroke-dasharray:2.0,2.0;" x1="247" x2="665" y1="312.5703" y2="312.5703"/><text fill="#000000" font-family="sans-serif" font-size="13" font-weight="bold" lengthAdjust="spacing" textLength="18" x="254" y="307.3076">9.5</text><text fill="#000000" font-family="sans-serif" font-size="13" lengthAdjust="spacing" textLength="61" x="276" y="307.3076">create(obj)</text><rect fill="#E3E3E3" height="51.2422" rx="2.5" ry="2.5" style="stroke:#181818;stroke-width:0.5;" width="120" x="671" y="289.2793"/><text fill="#000000" font-family="sans-serif" font-size="14" lengthAdjust="spacing" textLength="41" x="710.5" y="311.3867">objDto</text><text fill="#000000" font-family="sans-serif" font-size="14" lengthAdjust="spacing" textLength="106" x="678" y="330.0078">:GreenSpaceDto</text><polygon fill="#181818" points="554,370.8125,564,374.8125,554,378.8125,558,374.8125" style="stroke:#181818;stroke-width:1.0;"/><line style="stroke:#181818;stroke-width:1.0;" x1="247" x2="560" y1="374.8125" y2="374.8125"/><text fill="#000000" font-family="sans-serif" font-size="13" font-weight="bold" lengthAdjust="spacing" textLength="18" x="254" y="369.5498">9.6</text><text fill="#000000" font-family="sans-serif" font-size="13" lengthAdjust="spacing" textLength="66" x="276" y="369.5498">add(objDto)</text><polygon fill="#181818" points="258,402.1035,248,406.1035,258,410.1035,254,406.1035" style="stroke:#181818;stroke-width:1.0;"/><line style="stroke:#181818;stroke-width:1.0;stroke-dasharray:2.0,2.0;" x1="252" x2="570" y1="406.1035" y2="406.1035"/><text fill="#000000" font-family="sans-serif" font-size="13" font-weight="bold" lengthAdjust="spacing" textLength="18" x="264" y="400.8408">9.7</text><text fill="#000000" font-family="sans-serif" font-size="13" lengthAdjust="spacing" textLength="53" x="286" y="400.8408">true/false</text><polygon fill="#181818" points="11,447.3945,1,451.3945,11,455.3945,7,451.3945" style="stroke:#181818;stroke-width:1.0;"/><line style="stroke:#181818;stroke-width:1.0;stroke-dasharray:2.0,2.0;" x1="5" x2="241" y1="451.3945" y2="451.3945"/><text fill="#000000" font-family="sans-serif" font-size="13" font-weight="bold" lengthAdjust="spacing" textLength="14" x="17" y="446.1318">10</text><text fill="#000000" font-family="sans-serif" font-size="13" lengthAdjust="spacing" textLength="110" x="35" y="446.1318">greenSpaceListDto</text><!--SRC=[VPF1ReCm38RlVWghbz5AbFKurFLKgPhKQfFeSPSqk90LaYo4JNlxXK0f5AaSW11__ltRuIctLbTn5Ec2ILkNnPAhCghekoR9AKm5ommheRe8gPbxmr99nNEZIa9hQXhiQCOlBAF4_XM4XhXbCYk60LNEKlKhP8PdLbG4u3vRmOLsoZYBTuP89YuB7PZMP6R8AjmbXuznNDQ7xKLbFsNSFDOtUDDn-xVa-8ZSMZM5kuq-n_RuFiwXJbyjU6FSseUxs5q2m6ghP5sUoE0BG1Xkl0UCqQeceiU2SJdpCRbSkJMtueTPQfi0cL6rHfy0FOODXqVLA0DWTtcrLhOftmbpGovBC6zZ2gKqdfL1OZn7vyTD2eN4SJdt-JPTHrswZ6mWvdv_KA5lzm3omGFtJiZlflG0kYfT2TTQV6qR5xZbHBHfoyItdyDYSJFUaoFjAJje6KlJeDMV6hthjYU6OtP_HTGUyAdVdYMP0lZROEghPu1r65upJSuhm9s3Vm00]--></g></svg>