<?xml version="1.0" encoding="us-ascii" standalone="no"?><svg xmlns="http://www.w3.org/2000/svg" xmlns:xlink="http://www.w3.org/1999/xlink" contentStyleType="text/css" height="556px" preserveAspectRatio="none" style="width:817px;height:556px;background:#FFFFFF;" version="1.1" viewBox="0 0 817 556" width="817px" zoomAndPan="magnify"><defs/><g><rect fill="#FFFFFF" height="391.8125" style="stroke:#181818;stroke-width:1.0;" width="10" x="237" y="90.5332"/><rect fill="#FFFFFF" height="36.291" style="stroke:#181818;stroke-width:1.0;" width="10" x="242" y="307.2305"/><rect fill="#FFFFFF" height="31.291" style="stroke:#181818;stroke-width:1.0;" width="10" x="398" y="236.6484"/><rect fill="#FFFFFF" height="31.291" style="stroke:#181818;stroke-width:1.0;" width="10" x="566" y="405.7637"/><rect fill="none" height="346.5215" style="stroke:#000000;stroke-width:1.5;" width="662" x="149" y="105.5332"/><rect fill="none" height="250.9883" style="stroke:#000000;stroke-width:1.5;" width="642" x="159" y="194.0664"/><line style="stroke:#181818;stroke-width:0.5;stroke-dasharray:5.0,5.0;" x1="242" x2="242" y1="57.2422" y2="500.3457"/><line style="stroke:#181818;stroke-width:0.5;stroke-dasharray:5.0,5.0;" x1="403" x2="403" y1="57.2422" y2="500.3457"/><line style="stroke:#181818;stroke-width:0.5;stroke-dasharray:5.0,5.0;" x1="571" x2="571" y1="165.9453" y2="500.3457"/><line style="stroke:#181818;stroke-width:0.5;stroke-dasharray:5.0,5.0;" x1="731" x2="731" y1="361.3516" y2="500.3457"/><rect fill="#E3E3E3" height="32.6211" rx="2.5" ry="2.5" style="stroke:#181818;stroke-width:0.5;" width="146" x="169" y="23.6211"/><text fill="#000000" font-family="sans-serif" font-size="14" lengthAdjust="spacing" textLength="132" x="176" y="45.7285">:GreenSpaceMapper</text><rect fill="#E3E3E3" height="32.6211" rx="2.5" ry="2.5" style="stroke:#181818;stroke-width:0.5;" width="146" x="169" y="499.3457"/><text fill="#000000" font-family="sans-serif" font-size="14" lengthAdjust="spacing" textLength="132" x="176" y="521.4531">:GreenSpaceMapper</text><rect fill="#E3E3E3" height="51.2422" rx="2.5" ry="2.5" style="stroke:#181818;stroke-width:0.5;" width="136" x="335" y="5"/><text fill="#000000" font-family="sans-serif" font-size="14" lengthAdjust="spacing" textLength="99" x="353.5" y="27.1074">greenSpaceList</text><text fill="#000000" font-family="sans-serif" font-size="14" lengthAdjust="spacing" textLength="122" x="342" y="45.7285">:List&lt;GreenSpace&gt;</text><rect fill="#E3E3E3" height="51.2422" rx="2.5" ry="2.5" style="stroke:#181818;stroke-width:0.5;" width="136" x="335" y="499.3457"/><text fill="#000000" font-family="sans-serif" font-size="14" lengthAdjust="spacing" textLength="99" x="353.5" y="521.4531">greenSpaceList</text><text fill="#000000" font-family="sans-serif" font-size="14" lengthAdjust="spacing" textLength="122" x="342" y="540.0742">:List&lt;GreenSpace&gt;</text><rect fill="#E3E3E3" height="51.2422" rx="2.5" ry="2.5" style="stroke:#181818;stroke-width:0.5;" width="180" x="481" y="499.3457"/><text fill="#000000" font-family="sans-serif" font-size="14" lengthAdjust="spacing" textLength="121" x="510.5" y="521.4531">greenSpaceListDto</text><text fill="#000000" font-family="sans-serif" font-size="14" lengthAdjust="spacing" textLength="166" x="488" y="540.0742">:List&lt;GreenSpaceListDto&gt;</text><rect fill="#E3E3E3" height="51.2422" rx="2.5" ry="2.5" style="stroke:#181818;stroke-width:0.5;" width="120" x="671" y="499.3457"/><text fill="#000000" font-family="sans-serif" font-size="14" lengthAdjust="spacing" textLength="41" x="710.5" y="521.4531">objDto</text><text fill="#000000" font-family="sans-serif" font-size="14" lengthAdjust="spacing" textLength="106" x="678" y="540.0742">:GreenSpaceDto</text><rect fill="#FFFFFF" height="391.8125" style="stroke:#181818;stroke-width:1.0;" width="10" x="237" y="90.5332"/><rect fill="#FFFFFF" height="36.291" style="stroke:#181818;stroke-width:1.0;" width="10" x="242" y="307.2305"/><rect fill="#FFFFFF" height="31.291" style="stroke:#181818;stroke-width:1.0;" width="10" x="398" y="236.6484"/><rect fill="#FFFFFF" height="31.291" style="stroke:#181818;stroke-width:1.0;" width="10" x="566" y="405.7637"/><polygon fill="#181818" points="225,86.5332,235,90.5332,225,94.5332,229,90.5332" style="stroke:#181818;stroke-width:1.0;"/><line style="stroke:#181818;stroke-width:1.0;stroke-dasharray:2.0,2.0;" x1="0" x2="231" y1="90.5332" y2="90.5332"/><text fill="#000000" font-family="sans-serif" font-size="13" font-weight="bold" lengthAdjust="spacing" textLength="7" x="7" y="85.2705">9</text><text fill="#000000" font-family="sans-serif" font-size="13" lengthAdjust="spacing" textLength="207" x="18" y="85.2705">toDTOGreenSpace(greenSpaceList)</text><path d="M149,105.5332 L354,105.5332 L354,114.8242 L344,124.8242 L149,124.8242 L149,105.5332 " fill="#EEEEEE" style="stroke:#000000;stroke-width:1.5;"/><rect fill="none" height="346.5215" style="stroke:#000000;stroke-width:1.5;" width="662" x="149" y="105.5332"/><text fill="#000000" font-family="sans-serif" font-size="13" font-weight="bold" lengthAdjust="spacing" textLength="160" x="164" y="120.5615">Green Space List To DTO</text><polygon fill="#181818" points="469,144.1152,479,148.1152,469,152.1152,473,148.1152" style="stroke:#181818;stroke-width:1.0;"/><line style="stroke:#181818;stroke-width:1.0;stroke-dasharray:2.0,2.0;" x1="247" x2="475" y1="148.1152" y2="148.1152"/><text fill="#000000" font-family="sans-serif" font-size="13" font-weight="bold" lengthAdjust="spacing" textLength="18" x="254" y="142.8525">9.1</text><text fill="#000000" font-family="sans-serif" font-size="13" lengthAdjust="spacing" textLength="44" x="276" y="142.8525">create()</text><rect fill="#E3E3E3" height="51.2422" rx="2.5" ry="2.5" style="stroke:#181818;stroke-width:0.5;" width="180" x="481" y="124.8242"/><text fill="#000000" font-family="sans-serif" font-size="14" lengthAdjust="spacing" textLength="121" x="510.5" y="146.9316">greenSpaceListDto</text><text fill="#000000" font-family="sans-serif" font-size="14" lengthAdjust="spacing" textLength="166" x="488" y="165.5527">:List&lt;GreenSpaceListDto&gt;</text><path d="M159,194.0664 L232,194.0664 L232,203.3574 L222,213.3574 L159,213.3574 L159,194.0664 " fill="#EEEEEE" style="stroke:#000000;stroke-width:1.5;"/><rect fill="none" height="250.9883" style="stroke:#000000;stroke-width:1.5;" width="642" x="159" y="194.0664"/><text fill="#000000" font-family="sans-serif" font-size="13" font-weight="bold" lengthAdjust="spacing" textLength="28" x="174" y="209.0947">loop</text><text fill="#000000" font-family="sans-serif" font-size="11" font-weight="bold" lengthAdjust="spacing" textLength="193" x="247" y="207.9365">[for each object in greenSpaceList]</text><polygon fill="#181818" points="386,232.6484,396,236.6484,386,240.6484,390,236.6484" style="stroke:#181818;stroke-width:1.0;"/><line style="stroke:#181818;stroke-width:1.0;" x1="247" x2="392" y1="236.6484" y2="236.6484"/><text fill="#000000" font-family="sans-serif" font-size="13" font-weight="bold" lengthAdjust="spacing" textLength="18" x="254" y="231.3857">9.2</text><text fill="#000000" font-family="sans-serif" font-size="13" lengthAdjust="spacing" textLength="29" x="276" y="231.3857">get(i)</text><polygon fill="#181818" points="258,263.9395,248,267.9395,258,271.9395,254,267.9395" style="stroke:#181818;stroke-width:1.0;"/><line style="stroke:#181818;stroke-width:1.0;stroke-dasharray:2.0,2.0;" x1="252" x2="402" y1="267.9395" y2="267.9395"/><text fill="#000000" font-family="sans-serif" font-size="13" font-weight="bold" lengthAdjust="spacing" textLength="18" x="264" y="262.6768">9.3</text><text fill="#000000" font-family="sans-serif" font-size="13" lengthAdjust="spacing" textLength="17" x="286" y="262.6768">obj</text><line style="stroke:#181818;stroke-width:1.0;" x1="247" x2="294" y1="294.2305" y2="294.2305"/><line style="stroke:#181818;stroke-width:1.0;" x1="294" x2="294" y1="294.2305" y2="307.2305"/><line style="stroke:#181818;stroke-width:1.0;" x1="253" x2="294" y1="307.2305" y2="307.2305"/><polygon fill="#181818" points="263,303.2305,253,307.2305,263,311.2305,259,307.2305" style="stroke:#181818;stroke-width:1.0;"/><text fill="#000000" font-family="sans-serif" font-size="13" font-weight="bold" lengthAdjust="spacing" textLength="18" x="259" y="288.9678">9.4</text><text fill="#000000" font-family="sans-serif" font-size="13" lengthAdjust="spacing" textLength="115" x="281" y="288.9678">objDto = toDTO(obj)</text><polygon fill="#181818" points="659,339.5215,669,343.5215,659,347.5215,663,343.5215" style="stroke:#181818;stroke-width:1.0;"/><line style="stroke:#181818;stroke-width:1.0;stroke-dasharray:2.0,2.0;" x1="247" x2="665" y1="343.5215" y2="343.5215"/><text fill="#000000" font-family="sans-serif" font-size="13" font-weight="bold" lengthAdjust="spacing" textLength="18" x="254" y="338.2588">9.5</text><text fill="#000000" font-family="sans-serif" font-size="13" lengthAdjust="spacing" textLength="61" x="276" y="338.2588">create(obj)</text><rect fill="#E3E3E3" height="51.2422" rx="2.5" ry="2.5" style="stroke:#181818;stroke-width:0.5;" width="120" x="671" y="320.2305"/><text fill="#000000" font-family="sans-serif" font-size="14" lengthAdjust="spacing" textLength="41" x="710.5" y="342.3379">objDto</text><text fill="#000000" font-family="sans-serif" font-size="14" lengthAdjust="spacing" textLength="106" x="678" y="360.959">:GreenSpaceDto</text><polygon fill="#181818" points="554,401.7637,564,405.7637,554,409.7637,558,405.7637" style="stroke:#181818;stroke-width:1.0;"/><line style="stroke:#181818;stroke-width:1.0;" x1="247" x2="560" y1="405.7637" y2="405.7637"/><text fill="#000000" font-family="sans-serif" font-size="13" font-weight="bold" lengthAdjust="spacing" textLength="18" x="254" y="400.501">9.6</text><text fill="#000000" font-family="sans-serif" font-size="13" lengthAdjust="spacing" textLength="66" x="276" y="400.501">add(objDto)</text><polygon fill="#181818" points="258,433.0547,248,437.0547,258,441.0547,254,437.0547" style="stroke:#181818;stroke-width:1.0;"/><line style="stroke:#181818;stroke-width:1.0;stroke-dasharray:2.0,2.0;" x1="252" x2="570" y1="437.0547" y2="437.0547"/><text fill="#000000" font-family="sans-serif" font-size="13" font-weight="bold" lengthAdjust="spacing" textLength="18" x="264" y="431.792">9.7</text><text fill="#000000" font-family="sans-serif" font-size="13" lengthAdjust="spacing" textLength="53" x="286" y="431.792">true/false</text><polygon fill="#181818" points="11,478.3457,1,482.3457,11,486.3457,7,482.3457" style="stroke:#181818;stroke-width:1.0;"/><line style="stroke:#181818;stroke-width:1.0;stroke-dasharray:2.0,2.0;" x1="5" x2="241" y1="482.3457" y2="482.3457"/><text fill="#000000" font-family="sans-serif" font-size="13" font-weight="bold" lengthAdjust="spacing" textLength="14" x="17" y="477.083">10</text><text fill="#000000" font-family="sans-serif" font-size="13" lengthAdjust="spacing" textLength="110" x="35" y="477.083">greenSpaceListDto</text><!--SRC=[VPF1ReCm38RlUGghbz5AbFKurFLKgPhKQfFeSPSqk90LaYo4JNlxcK0f5AaSW11__ltRuIbtpbHn59c2ArUNnLBeCghmkqObC4mbpomlMNMHod1wWr8hBNAhImHdQnpi62ukFCF4_HK85eNZAYk60LNEK_qhLGPdNbJ867rsKaX3oZ2BTnPH9PG53zmOj3FW5UoImySuBkl3zh9odofk7kiRlEcu_LjoV4HkdPx2tKQVOtjy7-VGfwyMl36qzk4KkqiOuxNJgYvFQE65iJ3SU0yGWzDDH8y5utBcOtAvehLmyeSxR9l0Cgjh0pu1U0mQ3ewwKMOCkikhjR9D-Oi5IGkBb2UOjr65rWREsW9oaGCvebc1L30kw3xZfkiffSlG1NBkzmSr-eOF81yyy4z2VZV51z1LwKfGS-6rRLr0oubeqvY9Sp-9eV6U76bFsMlJYEHf6hJwKwDt_VR4SD3qNqJj4P_wxLbKAMF-DfZxwfcnTHXUCqrEB6Dt3lu1]--></g></svg>