<?xml version="1.0" encoding="us-ascii" standalone="no"?><svg xmlns="http://www.w3.org/2000/svg" xmlns:xlink="http://www.w3.org/1999/xlink" contentStyleType="text/css" height="588px" preserveAspectRatio="none" style="width:869px;height:588px;background:#FFFFFF;" version="1.1" viewBox="0 0 869 588" width="869px" zoomAndPan="magnify"><defs/><g><rect fill="#FFFFFF" height="423.8613" style="stroke:#181818;stroke-width:1.0;" width="10" x="368" y="90.5332"/><rect fill="#FFFFFF" height="130.873" style="stroke:#181818;stroke-width:1.0;" width="10" x="373" y="338.2305"/><rect fill="#FFFFFF" height="42.291" style="stroke:#181818;stroke-width:1.0;" width="10" x="378" y="382.5215"/><rect fill="#FFFFFF" height="140.8242" style="stroke:#181818;stroke-width:1.0;" width="10" x="721" y="158.1152"/><rect fill="#FFFFFF" height="42.291" style="stroke:#181818;stroke-width:1.0;" width="10" x="726" y="218.3574"/><rect fill="none" height="378.5703" style="stroke:#000000;stroke-width:1.5;" width="537.5" x="325.5" y="105.5332"/><line style="stroke:#181818;stroke-width:0.5;stroke-dasharray:5.0,5.0;" x1="372.5" x2="372.5" y1="57.2422" y2="532.3945"/><line style="stroke:#181818;stroke-width:0.5;stroke-dasharray:5.0,5.0;" x1="726" x2="726" y1="165.9453" y2="532.3945"/><rect fill="#E3E3E3" height="51.2422" rx="2.5" ry="2.5" style="stroke:#181818;stroke-width:0.5;" width="75" x="335.5" y="5"/><text fill="#000000" font-family="sans-serif" font-size="14" lengthAdjust="spacing" textLength="52" x="347" y="27.1074">toDoList</text><text fill="#000000" font-family="sans-serif" font-size="14" lengthAdjust="spacing" textLength="61" x="342.5" y="45.7285">:ToDoList</text><rect fill="#E3E3E3" height="51.2422" rx="2.5" ry="2.5" style="stroke:#181818;stroke-width:0.5;" width="75" x="335.5" y="531.3945"/><text fill="#000000" font-family="sans-serif" font-size="14" lengthAdjust="spacing" textLength="52" x="347" y="553.502">toDoList</text><text fill="#000000" font-family="sans-serif" font-size="14" lengthAdjust="spacing" textLength="61" x="342.5" y="572.123">:ToDoList</text><rect fill="#E3E3E3" height="51.2422" rx="2.5" ry="2.5" style="stroke:#181818;stroke-width:0.5;" width="106" x="673" y="531.3945"/><text fill="#000000" font-family="sans-serif" font-size="14" lengthAdjust="spacing" textLength="46" x="703" y="553.502">taskTdl</text><text fill="#000000" font-family="sans-serif" font-size="14" lengthAdjust="spacing" textLength="92" x="680" y="572.123">:TaskToDoList</text><rect fill="#FFFFFF" height="423.8613" style="stroke:#181818;stroke-width:1.0;" width="10" x="368" y="90.5332"/><rect fill="#FFFFFF" height="130.873" style="stroke:#181818;stroke-width:1.0;" width="10" x="373" y="338.2305"/><rect fill="#FFFFFF" height="42.291" style="stroke:#181818;stroke-width:1.0;" width="10" x="378" y="382.5215"/><rect fill="#FFFFFF" height="140.8242" style="stroke:#181818;stroke-width:1.0;" width="10" x="721" y="158.1152"/><rect fill="#FFFFFF" height="42.291" style="stroke:#181818;stroke-width:1.0;" width="10" x="726" y="218.3574"/><polygon fill="#181818" points="356,86.5332,366,90.5332,356,94.5332,360,90.5332" style="stroke:#181818;stroke-width:1.0;"/><line style="stroke:#181818;stroke-width:1.0;" x1="0" x2="362" y1="90.5332" y2="90.5332"/><text fill="#000000" font-family="sans-serif" font-size="13" font-weight="bold" lengthAdjust="spacing" textLength="14" x="7" y="85.2705">41</text><text fill="#000000" font-family="sans-serif" font-size="13" lengthAdjust="spacing" textLength="331" x="25" y="85.2705">registerEntryToDoList(greenSpace,task,urgency,duration)</text><path d="M325.5,105.5332 L458.5,105.5332 L458.5,114.8242 L448.5,124.8242 L325.5,124.8242 L325.5,105.5332 " fill="#EEEEEE" style="stroke:#000000;stroke-width:1.5;"/><rect fill="none" height="378.5703" style="stroke:#000000;stroke-width:1.5;" width="537.5" x="325.5" y="105.5332"/><text fill="#000000" font-family="sans-serif" font-size="13" font-weight="bold" lengthAdjust="spacing" textLength="88" x="340.5" y="120.5615">Register Entry</text><polygon fill="#181818" points="661,144.1152,671,148.1152,661,152.1152,665,148.1152" style="stroke:#181818;stroke-width:1.0;"/><line style="stroke:#181818;stroke-width:1.0;" x1="378" x2="667" y1="148.1152" y2="148.1152"/><text fill="#000000" font-family="sans-serif" font-size="13" font-weight="bold" lengthAdjust="spacing" textLength="25" x="385" y="142.8525">41.1</text><text fill="#000000" font-family="sans-serif" font-size="13" lengthAdjust="spacing" textLength="242" x="414" y="142.8525">create(greenSpace,task,urgency,duration)</text><rect fill="#E3E3E3" height="51.2422" rx="2.5" ry="2.5" style="stroke:#181818;stroke-width:0.5;" width="106" x="673" y="124.8242"/><text fill="#000000" font-family="sans-serif" font-size="14" lengthAdjust="spacing" textLength="46" x="703" y="146.9316">taskTdl</text><text fill="#000000" font-family="sans-serif" font-size="14" lengthAdjust="spacing" textLength="92" x="680" y="165.5527">:TaskToDoList</text><line style="stroke:#181818;stroke-width:1.0;" x1="731" x2="778" y1="205.3574" y2="205.3574"/><line style="stroke:#181818;stroke-width:1.0;" x1="778" x2="778" y1="205.3574" y2="218.3574"/><line style="stroke:#181818;stroke-width:1.0;" x1="737" x2="778" y1="218.3574" y2="218.3574"/><polygon fill="#181818" points="747,214.3574,737,218.3574,747,222.3574,743,218.3574" style="stroke:#181818;stroke-width:1.0;"/><text fill="#000000" font-family="sans-serif" font-size="13" font-weight="bold" lengthAdjust="spacing" textLength="25" x="743" y="200.0947">41.2</text><text fill="#000000" font-family="sans-serif" font-size="13" lengthAdjust="spacing" textLength="79" x="772" y="200.0947">validateTask()</text><line style="stroke:#181818;stroke-width:1.0;stroke-dasharray:2.0,2.0;" x1="736" x2="778" y1="259.6484" y2="259.6484"/><line style="stroke:#181818;stroke-width:1.0;stroke-dasharray:2.0,2.0;" x1="778" x2="778" y1="259.6484" y2="272.6484"/><line style="stroke:#181818;stroke-width:1.0;stroke-dasharray:2.0,2.0;" x1="731" x2="778" y1="272.6484" y2="272.6484"/><polygon fill="#181818" points="741,268.6484,731,272.6484,741,276.6484,737,272.6484" style="stroke:#181818;stroke-width:1.0;"/><text fill="#000000" font-family="sans-serif" font-size="13" font-weight="bold" lengthAdjust="spacing" textLength="25" x="743" y="254.3857">41.3</text><text fill="#000000" font-family="sans-serif" font-size="13" lengthAdjust="spacing" textLength="53" x="772" y="254.3857">true/false</text><polygon fill="#181818" points="389,294.9395,379,298.9395,389,302.9395,385,298.9395" style="stroke:#181818;stroke-width:1.0;"/><line style="stroke:#181818;stroke-width:1.0;stroke-dasharray:2.0,2.0;" x1="383" x2="725" y1="298.9395" y2="298.9395"/><text fill="#000000" font-family="sans-serif" font-size="13" font-weight="bold" lengthAdjust="spacing" textLength="25" x="395" y="293.6768">41.4</text><text fill="#000000" font-family="sans-serif" font-size="13" lengthAdjust="spacing" textLength="42" x="424" y="293.6768">taskTdl</text><line style="stroke:#181818;stroke-width:1.0;" x1="378" x2="425" y1="325.2305" y2="325.2305"/><line style="stroke:#181818;stroke-width:1.0;" x1="425" x2="425" y1="325.2305" y2="338.2305"/><line style="stroke:#181818;stroke-width:1.0;" x1="384" x2="425" y1="338.2305" y2="338.2305"/><polygon fill="#181818" points="394,334.2305,384,338.2305,394,342.2305,390,338.2305" style="stroke:#181818;stroke-width:1.0;"/><text fill="#000000" font-family="sans-serif" font-size="13" font-weight="bold" lengthAdjust="spacing" textLength="25" x="390" y="319.9678">41.5</text><text fill="#000000" font-family="sans-serif" font-size="13" lengthAdjust="spacing" textLength="150" x="419" y="319.9678">addTaskToDoList(taskTdl)</text><line style="stroke:#181818;stroke-width:1.0;" x1="383" x2="430" y1="369.5215" y2="369.5215"/><line style="stroke:#181818;stroke-width:1.0;" x1="430" x2="430" y1="369.5215" y2="382.5215"/><line style="stroke:#181818;stroke-width:1.0;" x1="389" x2="430" y1="382.5215" y2="382.5215"/><polygon fill="#181818" points="399,378.5215,389,382.5215,399,386.5215,395,382.5215" style="stroke:#181818;stroke-width:1.0;"/><text fill="#000000" font-family="sans-serif" font-size="13" font-weight="bold" lengthAdjust="spacing" textLength="25" x="395" y="364.2588">41.6</text><text fill="#000000" font-family="sans-serif" font-size="13" lengthAdjust="spacing" textLength="172" x="424" y="364.2588">validateTaskToDoList(taskTdl)</text><line style="stroke:#181818;stroke-width:1.0;stroke-dasharray:2.0,2.0;" x1="388" x2="430" y1="423.8125" y2="423.8125"/><line style="stroke:#181818;stroke-width:1.0;stroke-dasharray:2.0,2.0;" x1="430" x2="430" y1="423.8125" y2="436.8125"/><line style="stroke:#181818;stroke-width:1.0;stroke-dasharray:2.0,2.0;" x1="383" x2="430" y1="436.8125" y2="436.8125"/><polygon fill="#181818" points="393,432.8125,383,436.8125,393,440.8125,389,436.8125" style="stroke:#181818;stroke-width:1.0;"/><text fill="#000000" font-family="sans-serif" font-size="13" font-weight="bold" lengthAdjust="spacing" textLength="25" x="395" y="418.5498">41.7</text><text fill="#000000" font-family="sans-serif" font-size="13" lengthAdjust="spacing" textLength="53" x="424" y="418.5498">true/false</text><line style="stroke:#181818;stroke-width:1.0;stroke-dasharray:2.0,2.0;" x1="383" x2="425" y1="468.1035" y2="468.1035"/><line style="stroke:#181818;stroke-width:1.0;stroke-dasharray:2.0,2.0;" x1="425" x2="425" y1="468.1035" y2="481.1035"/><line style="stroke:#181818;stroke-width:1.0;stroke-dasharray:2.0,2.0;" x1="378" x2="425" y1="481.1035" y2="481.1035"/><polygon fill="#181818" points="388,477.1035,378,481.1035,388,485.1035,384,481.1035" style="stroke:#181818;stroke-width:1.0;"/><text fill="#000000" font-family="sans-serif" font-size="13" font-weight="bold" lengthAdjust="spacing" textLength="25" x="390" y="462.8408">41.8</text><text fill="#000000" font-family="sans-serif" font-size="13" lengthAdjust="spacing" textLength="53" x="419" y="462.8408">true/false</text><polygon fill="#181818" points="11,510.3945,1,514.3945,11,518.3945,7,514.3945" style="stroke:#181818;stroke-width:1.0;"/><line style="stroke:#181818;stroke-width:1.0;stroke-dasharray:2.0,2.0;" x1="5" x2="372" y1="514.3945" y2="514.3945"/><text fill="#000000" font-family="sans-serif" font-size="13" font-weight="bold" lengthAdjust="spacing" textLength="14" x="17" y="509.1318">42</text><text fill="#000000" font-family="sans-serif" font-size="13" lengthAdjust="spacing" textLength="53" x="35" y="509.1318">true/false</text><!--SRC=[dLAzJiCm4Dxz5ATERPM0YfWYrAbidMX7biC-N2k97TbEKTyUNnhQ45G5y6BhxlkxN49fR8CUQwYTTVBWNKqGVKiYN3eDoX8rxUAf8l0a8rfT3G7XWCfz6AlX7Qj0GgHoDD8qQ2FCejkuhGdnrHRx_Za33B3VR4T03ELULOpZrpSiWmMsqTcsVYCFZokHhrcYI8bqWf5_jj6VlbXpxOdiBaMdZ7MprckoyfIfrcCqpYv6SdShWJAQ8qRgaa4wshksWPTU7pe3qNNu91HmXdGlbmL8Judx6rycNxswoIwQ0z42ZbWPbK3yEUQBQTw5o0kyF- -2kuecQUbEjFC29ZXzGlP1fOQhclS2uwYtwCFv_gnnJNrxsF-Ik4HMzQiQ_2OFNUKfpt_AZ7q_0G00]--></g></svg>