<?xml version="1.0" encoding="us-ascii" standalone="no"?><svg xmlns="http://www.w3.org/2000/svg" xmlns:xlink="http://www.w3.org/1999/xlink" contentStyleType="text/css" height="1857px" preserveAspectRatio="none" style="width:2231px;height:1857px;background:#FFFFFF;" version="1.1" viewBox="0 0 2231 1857" width="2231px" zoomAndPan="magnify"><defs/><g><text fill="#000000" font-family="sans-serif" font-size="14" font-weight="bold" lengthAdjust="spacing" textLength="464" x="885" y="30.1074">UI Sequence Diagram (SD) - US21 - Add new entry to the To-Do-List</text><rect fill="#FFFFFF" height="1623.4336" style="stroke:#181818;stroke-width:1.0;" width="10" x="101" y="133.2422"/><rect fill="#FFFFFF" height="421.4141" style="stroke:#181818;stroke-width:1.0;" width="10" x="451" y="156.5332"/><rect fill="#FFFFFF" height="281.6191" style="stroke:#181818;stroke-width:1.0;" width="10" x="451" y="609.2383"/><rect fill="#FFFFFF" height="31.291" style="stroke:#181818;stroke-width:1.0;" width="10" x="451" y="922.1484"/><rect fill="#FFFFFF" height="31.291" style="stroke:#181818;stroke-width:1.0;" width="10" x="451" y="984.7305"/><rect fill="#FFFFFF" height="709.3633" style="stroke:#181818;stroke-width:1.0;" width="10" x="451" y="1047.3125"/><rect fill="#FFFFFF" height="341.541" style="stroke:#181818;stroke-width:1.0;" width="10" x="1017" y="187.8242"/><rect fill="#FFFFFF" height="90.543" style="stroke:#181818;stroke-width:1.0;" width="10" x="1022" y="227.1152"/><rect fill="#FFFFFF" height="219.0371" style="stroke:#181818;stroke-width:1.0;" width="10" x="1017" y="640.5293"/><rect fill="#FFFFFF" height="646.7813" style="stroke:#181818;stroke-width:1.0;" width="10" x="1017" y="1078.6035"/><rect fill="#FFFFFF" height="31.291" style="stroke:#181818;stroke-width:1.0;" width="10" x="1187" y="671.8203"/><rect fill="#FFFFFF" height="31.291" style="stroke:#181818;stroke-width:1.0;" width="10" x="1187" y="1109.8945"/><rect fill="#FFFFFF" height="31.291" style="stroke:#181818;stroke-width:1.0;" width="10" x="1294" y="734.4023"/><rect fill="#FFFFFF" height="31.291" style="stroke:#181818;stroke-width:1.0;" width="10" x="1294" y="1172.4766"/><rect fill="#FFFFFF" height="31.291" style="stroke:#181818;stroke-width:1.0;" width="10" x="1294" y="1393.5137"/><rect fill="#FFFFFF" height="142.125" style="stroke:#181818;stroke-width:1.0;" width="10" x="1429.5" y="355.9492"/><rect fill="#FFFFFF" height="79.543" style="stroke:#181818;stroke-width:1.0;" width="10" x="1612.5" y="387.2402"/><rect fill="#FFFFFF" height="31.291" style="stroke:#181818;stroke-width:1.0;" width="10" x="1731.5" y="796.9844"/><rect fill="#FFFFFF" height="127.1641" style="stroke:#181818;stroke-width:1.0;" width="10" x="1731.5" y="1456.0957"/><rect fill="#FFFFFF" height="127.1641" style="stroke:#181818;stroke-width:1.0;" width="10" x="1883" y="1235.0586"/><rect fill="#FFFFFF" height="79.543" style="stroke:#181818;stroke-width:1.0;" width="10" x="2013.5" y="1614.5508"/><rect fill="#FFFFFF" height="31.291" style="stroke:#181818;stroke-width:1.0;" width="10" x="2108" y="1292.6406"/><rect fill="#FFFFFF" height="31.291" style="stroke:#181818;stroke-width:1.0;" width="10" x="2187.5" y="1513.6777"/><rect fill="none" height="81.873" style="stroke:#000000;stroke-width:1.5;" width="375" x="1795" y="1250.0586"/><rect fill="none" height="81.873" style="stroke:#000000;stroke-width:1.5;" width="557" x="1668" y="1471.0957"/><line style="stroke:#181818;stroke-width:0.5;stroke-dasharray:5.0,5.0;" x1="106" x2="106" y1="123.2422" y2="1774.6758"/><line style="stroke:#181818;stroke-width:0.5;stroke-dasharray:5.0,5.0;" x1="455.5" x2="455.5" y1="123.2422" y2="1774.6758"/><line style="stroke:#181818;stroke-width:0.5;stroke-dasharray:5.0,5.0;" x1="1021.5" x2="1021.5" y1="123.2422" y2="1774.6758"/><line style="stroke:#181818;stroke-width:0.5;stroke-dasharray:5.0,5.0;" x1="1191.5" x2="1191.5" y1="123.2422" y2="1774.6758"/><line style="stroke:#181818;stroke-width:0.5;stroke-dasharray:5.0,5.0;" x1="1298.5" x2="1298.5" y1="123.2422" y2="1774.6758"/><line style="stroke:#181818;stroke-width:0.5;stroke-dasharray:5.0,5.0;" x1="1434.5" x2="1434.5" y1="123.2422" y2="1774.6758"/><line style="stroke:#181818;stroke-width:0.5;stroke-dasharray:5.0,5.0;" x1="1617" x2="1617" y1="123.2422" y2="1774.6758"/><line style="stroke:#181818;stroke-width:0.5;stroke-dasharray:5.0,5.0;" x1="1736" x2="1736" y1="123.2422" y2="1774.6758"/><line style="stroke:#181818;stroke-width:0.5;stroke-dasharray:5.0,5.0;" x1="1888" x2="1888" y1="123.2422" y2="1774.6758"/><line style="stroke:#181818;stroke-width:0.5;stroke-dasharray:5.0,5.0;" x1="2018" x2="2018" y1="123.2422" y2="1774.6758"/><line style="stroke:#181818;stroke-width:0.5;stroke-dasharray:5.0,5.0;" x1="2113" x2="2113" y1="123.2422" y2="1774.6758"/><line style="stroke:#181818;stroke-width:0.5;stroke-dasharray:5.0,5.0;" x1="2192" x2="2192" y1="123.2422" y2="1774.6758"/><text fill="#000000" font-family="sans-serif" font-size="14" lengthAdjust="spacing" textLength="196" x="5" y="119.7285">Green Spaces Manager (GSM)</text><ellipse cx="106" cy="53.1211" fill="#E3E3E3" rx="8" ry="8" style="stroke:#181818;stroke-width:0.5;"/><path d="M106,61.1211 L106,88.1211 M93,69.1211 L119,69.1211 M106,88.1211 L93,103.1211 M106,88.1211 L119,103.1211 " fill="none" style="stroke:#181818;stroke-width:0.5;"/><text fill="#000000" font-family="sans-serif" font-size="14" lengthAdjust="spacing" textLength="196" x="5" y="1788.7832">Green Spaces Manager (GSM)</text><ellipse cx="106" cy="1800.7969" fill="#E3E3E3" rx="8" ry="8" style="stroke:#181818;stroke-width:0.5;"/><path d="M106,1808.7969 L106,1835.7969 M93,1816.7969 L119,1816.7969 M106,1835.7969 L93,1850.7969 M106,1835.7969 L119,1850.7969 " fill="none" style="stroke:#181818;stroke-width:0.5;"/><rect fill="#E3E3E3" height="32.6211" rx="2.5" ry="2.5" style="stroke:#181818;stroke-width:0.5;" width="173" x="369.5" y="89.6211"/><text fill="#000000" font-family="sans-serif" font-size="14" lengthAdjust="spacing" textLength="159" x="376.5" y="111.7285">:RegisterEntryToDoListUI</text><rect fill="#E3E3E3" height="32.6211" rx="2.5" ry="2.5" style="stroke:#181818;stroke-width:0.5;" width="173" x="369.5" y="1773.6758"/><text fill="#000000" font-family="sans-serif" font-size="14" lengthAdjust="spacing" textLength="159" x="376.5" y="1795.7832">:RegisterEntryToDoListUI</text><rect fill="#E3E3E3" height="32.6211" rx="2.5" ry="2.5" style="stroke:#181818;stroke-width:0.5;" width="223" x="910.5" y="89.6211"/><text fill="#000000" font-family="sans-serif" font-size="14" lengthAdjust="spacing" textLength="209" x="917.5" y="111.7285">:RegisterEntryToDoListController</text><rect fill="#E3E3E3" height="32.6211" rx="2.5" ry="2.5" style="stroke:#181818;stroke-width:0.5;" width="223" x="910.5" y="1773.6758"/><text fill="#000000" font-family="sans-serif" font-size="14" lengthAdjust="spacing" textLength="209" x="917.5" y="1795.7832">:RegisterEntryToDoListController</text><rect fill="#E3E3E3" height="32.6211" rx="2.5" ry="2.5" style="stroke:#181818;stroke-width:0.5;" width="97" x="1143.5" y="89.6211"/><text fill="#000000" font-family="sans-serif" font-size="14" lengthAdjust="spacing" textLength="83" x="1150.5" y="111.7285">:Repositories</text><rect fill="#E3E3E3" height="32.6211" rx="2.5" ry="2.5" style="stroke:#181818;stroke-width:0.5;" width="97" x="1143.5" y="1773.6758"/><text fill="#000000" font-family="sans-serif" font-size="14" lengthAdjust="spacing" textLength="83" x="1150.5" y="1795.7832">:Repositories</text><rect fill="#E3E3E3" height="51.2422" rx="2.5" ry="2.5" style="stroke:#181818;stroke-width:0.5;" width="97" x="1250.5" y="71"/><text fill="#000000" font-family="sans-serif" font-size="14" lengthAdjust="spacing" textLength="74" x="1262" y="93.1074">repositories</text><text fill="#000000" font-family="sans-serif" font-size="14" lengthAdjust="spacing" textLength="83" x="1257.5" y="111.7285">:Repositories</text><rect fill="#E3E3E3" height="51.2422" rx="2.5" ry="2.5" style="stroke:#181818;stroke-width:0.5;" width="97" x="1250.5" y="1773.6758"/><text fill="#000000" font-family="sans-serif" font-size="14" lengthAdjust="spacing" textLength="74" x="1262" y="1795.7832">repositories</text><text fill="#000000" font-family="sans-serif" font-size="14" lengthAdjust="spacing" textLength="83" x="1257.5" y="1814.4043">:Repositories</text><rect fill="#E3E3E3" height="51.2422" rx="2.5" ry="2.5" style="stroke:#181818;stroke-width:0.5;" width="154" x="1357.5" y="71"/><text fill="#000000" font-family="sans-serif" font-size="14" lengthAdjust="spacing" textLength="56" x="1406.5" y="93.1074">manager</text><text fill="#000000" font-family="sans-serif" font-size="14" lengthAdjust="spacing" textLength="140" x="1364.5" y="111.7285">:GreenSpaceManager</text><rect fill="#E3E3E3" height="51.2422" rx="2.5" ry="2.5" style="stroke:#181818;stroke-width:0.5;" width="154" x="1357.5" y="1773.6758"/><text fill="#000000" font-family="sans-serif" font-size="14" lengthAdjust="spacing" textLength="56" x="1406.5" y="1795.7832">manager</text><text fill="#000000" font-family="sans-serif" font-size="14" lengthAdjust="spacing" textLength="140" x="1364.5" y="1814.4043">:GreenSpaceManager</text><rect fill="#E3E3E3" height="51.2422" rx="2.5" ry="2.5" style="stroke:#181818;stroke-width:0.5;" width="101" x="1567" y="71"/><text fill="#000000" font-family="sans-serif" font-size="14" lengthAdjust="spacing" textLength="84" x="1575.5" y="93.1074">greenSpaces</text><text fill="#000000" font-family="sans-serif" font-size="14" lengthAdjust="spacing" textLength="87" x="1574" y="111.7285">GreenSpaces</text><rect fill="#E3E3E3" height="51.2422" rx="2.5" ry="2.5" style="stroke:#181818;stroke-width:0.5;" width="101" x="1567" y="1773.6758"/><text fill="#000000" font-family="sans-serif" font-size="14" lengthAdjust="spacing" textLength="84" x="1575.5" y="1795.7832">greenSpaces</text><text fill="#000000" font-family="sans-serif" font-size="14" lengthAdjust="spacing" textLength="87" x="1574" y="1814.4043">GreenSpaces</text><rect fill="#E3E3E3" height="51.2422" rx="2.5" ry="2.5" style="stroke:#181818;stroke-width:0.5;" width="117" x="1678" y="71"/><text fill="#000000" font-family="sans-serif" font-size="14" lengthAdjust="spacing" textLength="94" x="1689.5" y="93.1074">taskRepository</text><text fill="#000000" font-family="sans-serif" font-size="14" lengthAdjust="spacing" textLength="103" x="1685" y="111.7285">:TaskRepository</text><rect fill="#E3E3E3" height="51.2422" rx="2.5" ry="2.5" style="stroke:#181818;stroke-width:0.5;" width="117" x="1678" y="1773.6758"/><text fill="#000000" font-family="sans-serif" font-size="14" lengthAdjust="spacing" textLength="94" x="1689.5" y="1795.7832">taskRepository</text><text fill="#000000" font-family="sans-serif" font-size="14" lengthAdjust="spacing" textLength="103" x="1685" y="1814.4043">:TaskRepository</text><rect fill="#E3E3E3" height="51.2422" rx="2.5" ry="2.5" style="stroke:#181818;stroke-width:0.5;" width="166" x="1805" y="71"/><text fill="#000000" font-family="sans-serif" font-size="14" lengthAdjust="spacing" textLength="145" x="1815.5" y="93.1074">greenSpaceRepository</text><text fill="#000000" font-family="sans-serif" font-size="14" lengthAdjust="spacing" textLength="152" x="1812" y="111.7285">:GreenSpaceRepository</text><rect fill="#E3E3E3" height="51.2422" rx="2.5" ry="2.5" style="stroke:#181818;stroke-width:0.5;" width="166" x="1805" y="1773.6758"/><text fill="#000000" font-family="sans-serif" font-size="14" lengthAdjust="spacing" textLength="145" x="1815.5" y="1795.7832">greenSpaceRepository</text><text fill="#000000" font-family="sans-serif" font-size="14" lengthAdjust="spacing" textLength="152" x="1812" y="1814.4043">:GreenSpaceRepository</text><rect fill="#E3E3E3" height="51.2422" rx="2.5" ry="2.5" style="stroke:#181818;stroke-width:0.5;" width="75" x="1981" y="71"/><text fill="#000000" font-family="sans-serif" font-size="14" lengthAdjust="spacing" textLength="52" x="1992.5" y="93.1074">toDoList</text><text fill="#000000" font-family="sans-serif" font-size="14" lengthAdjust="spacing" textLength="61" x="1988" y="111.7285">:ToDoList</text><rect fill="#E3E3E3" height="51.2422" rx="2.5" ry="2.5" style="stroke:#181818;stroke-width:0.5;" width="75" x="1981" y="1773.6758"/><text fill="#000000" font-family="sans-serif" font-size="14" lengthAdjust="spacing" textLength="52" x="1992.5" y="1795.7832">toDoList</text><text fill="#000000" font-family="sans-serif" font-size="14" lengthAdjust="spacing" textLength="61" x="1988" y="1814.4043">:ToDoList</text><rect fill="#E3E3E3" height="51.2422" rx="2.5" ry="2.5" style="stroke:#181818;stroke-width:0.5;" width="94" x="2066" y="71"/><text fill="#000000" font-family="sans-serif" font-size="14" lengthAdjust="spacing" textLength="77" x="2074.5" y="93.1074">greenSpace</text><text fill="#000000" font-family="sans-serif" font-size="14" lengthAdjust="spacing" textLength="80" x="2073" y="111.7285">GreenSpace</text><rect fill="#E3E3E3" height="51.2422" rx="2.5" ry="2.5" style="stroke:#181818;stroke-width:0.5;" width="94" x="2066" y="1773.6758"/><text fill="#000000" font-family="sans-serif" font-size="14" lengthAdjust="spacing" textLength="77" x="2074.5" y="1795.7832">greenSpace</text><text fill="#000000" font-family="sans-serif" font-size="14" lengthAdjust="spacing" textLength="80" x="2073" y="1814.4043">GreenSpace</text><rect fill="#E3E3E3" height="51.2422" rx="2.5" ry="2.5" style="stroke:#181818;stroke-width:0.5;" width="45" x="2170" y="71"/><text fill="#000000" font-family="sans-serif" font-size="14" lengthAdjust="spacing" textLength="26" x="2179.5" y="93.1074">task</text><text fill="#000000" font-family="sans-serif" font-size="14" lengthAdjust="spacing" textLength="31" x="2177" y="111.7285">Task</text><rect fill="#E3E3E3" height="51.2422" rx="2.5" ry="2.5" style="stroke:#181818;stroke-width:0.5;" width="45" x="2170" y="1773.6758"/><text fill="#000000" font-family="sans-serif" font-size="14" lengthAdjust="spacing" textLength="26" x="2179.5" y="1795.7832">task</text><text fill="#000000" font-family="sans-serif" font-size="14" lengthAdjust="spacing" textLength="31" x="2177" y="1814.4043">Task</text><rect fill="#FFFFFF" height="1623.4336" style="stroke:#181818;stroke-width:1.0;" width="10" x="101" y="133.2422"/><rect fill="#FFFFFF" height="421.4141" style="stroke:#181818;stroke-width:1.0;" width="10" x="451" y="156.5332"/><rect fill="#FFFFFF" height="281.6191" style="stroke:#181818;stroke-width:1.0;" width="10" x="451" y="609.2383"/><rect fill="#FFFFFF" height="31.291" style="stroke:#181818;stroke-width:1.0;" width="10" x="451" y="922.1484"/><rect fill="#FFFFFF" height="31.291" style="stroke:#181818;stroke-width:1.0;" width="10" x="451" y="984.7305"/><rect fill="#FFFFFF" height="709.3633" style="stroke:#181818;stroke-width:1.0;" width="10" x="451" y="1047.3125"/><rect fill="#FFFFFF" height="341.541" style="stroke:#181818;stroke-width:1.0;" width="10" x="1017" y="187.8242"/><rect fill="#FFFFFF" height="90.543" style="stroke:#181818;stroke-width:1.0;" width="10" x="1022" y="227.1152"/><rect fill="#FFFFFF" height="219.0371" style="stroke:#181818;stroke-width:1.0;" width="10" x="1017" y="640.5293"/><rect fill="#FFFFFF" height="646.7813" style="stroke:#181818;stroke-width:1.0;" width="10" x="1017" y="1078.6035"/><rect fill="#FFFFFF" height="31.291" style="stroke:#181818;stroke-width:1.0;" width="10" x="1187" y="671.8203"/><rect fill="#FFFFFF" height="31.291" style="stroke:#181818;stroke-width:1.0;" width="10" x="1187" y="1109.8945"/><rect fill="#FFFFFF" height="31.291" style="stroke:#181818;stroke-width:1.0;" width="10" x="1294" y="734.4023"/><rect fill="#FFFFFF" height="31.291" style="stroke:#181818;stroke-width:1.0;" width="10" x="1294" y="1172.4766"/><rect fill="#FFFFFF" height="31.291" style="stroke:#181818;stroke-width:1.0;" width="10" x="1294" y="1393.5137"/><rect fill="#FFFFFF" height="142.125" style="stroke:#181818;stroke-width:1.0;" width="10" x="1429.5" y="355.9492"/><rect fill="#FFFFFF" height="79.543" style="stroke:#181818;stroke-width:1.0;" width="10" x="1612.5" y="387.2402"/><rect fill="#FFFFFF" height="31.291" style="stroke:#181818;stroke-width:1.0;" width="10" x="1731.5" y="796.9844"/><rect fill="#FFFFFF" height="127.1641" style="stroke:#181818;stroke-width:1.0;" width="10" x="1731.5" y="1456.0957"/><rect fill="#FFFFFF" height="127.1641" style="stroke:#181818;stroke-width:1.0;" width="10" x="1883" y="1235.0586"/><rect fill="#FFFFFF" height="79.543" style="stroke:#181818;stroke-width:1.0;" width="10" x="2013.5" y="1614.5508"/><rect fill="#FFFFFF" height="31.291" style="stroke:#181818;stroke-width:1.0;" width="10" x="2108" y="1292.6406"/><rect fill="#FFFFFF" height="31.291" style="stroke:#181818;stroke-width:1.0;" width="10" x="2187.5" y="1513.6777"/><polygon fill="#181818" points="439,152.5332,449,156.5332,439,160.5332,443,156.5332" style="stroke:#181818;stroke-width:1.0;"/><line style="stroke:#181818;stroke-width:1.0;" x1="111" x2="445" y1="156.5332" y2="156.5332"/><text fill="#000000" font-family="sans-serif" font-size="13" font-weight="bold" lengthAdjust="spacing" textLength="7" x="118" y="151.2705">1</text><text fill="#000000" font-family="sans-serif" font-size="13" lengthAdjust="spacing" textLength="251" x="129" y="151.2705">asks to register a new entry in the to do list</text><polygon fill="#181818" points="1005,183.8242,1015,187.8242,1005,191.8242,1009,187.8242" style="stroke:#181818;stroke-width:1.0;"/><line style="stroke:#181818;stroke-width:1.0;" x1="461" x2="1011" y1="187.8242" y2="187.8242"/><text fill="#000000" font-family="sans-serif" font-size="13" font-weight="bold" lengthAdjust="spacing" textLength="7" x="468" y="182.5615">2</text><text fill="#000000" font-family="sans-serif" font-size="13" lengthAdjust="spacing" textLength="195" x="479" y="182.5615">getGreenSpaceManagerGSpace()</text><line style="stroke:#181818;stroke-width:1.0;" x1="1027" x2="1074" y1="214.1152" y2="214.1152"/><line style="stroke:#181818;stroke-width:1.0;" x1="1074" x2="1074" y1="214.1152" y2="227.1152"/><line style="stroke:#181818;stroke-width:1.0;" x1="1033" x2="1074" y1="227.1152" y2="227.1152"/><polygon fill="#181818" points="1043,223.1152,1033,227.1152,1043,231.1152,1039,227.1152" style="stroke:#181818;stroke-width:1.0;"/><text fill="#000000" font-family="sans-serif" font-size="13" font-weight="bold" lengthAdjust="spacing" textLength="7" x="1039" y="208.8525">3</text><text fill="#000000" font-family="sans-serif" font-size="13" lengthAdjust="spacing" textLength="133" x="1050" y="208.8525">getGSMFromSession()</text><rect fill="none" height="43.252" style="stroke:#000000;stroke-width:1.5;" width="229" x="907.5" y="240.1152"/><path d="M907.5,240.1152 L969.5,240.1152 L969.5,249.1152 L959.5,259.1152 L907.5,259.1152 L907.5,240.1152 " fill="#EEEEEE" style="stroke:#000000;stroke-width:2.0;"/><text fill="#000000" font-family="sans-serif" font-size="13" font-weight="bold" lengthAdjust="spacing" textLength="17" x="920.5" y="256.1436">ref</text><text fill="#000000" font-family="sans-serif" font-size="12" lengthAdjust="spacing" textLength="87" x="978.5" y="276.0645">Design in US20</text><line style="stroke:#181818;stroke-width:1.0;stroke-dasharray:2.0,2.0;" x1="1032" x2="1074" y1="316.6582" y2="316.6582"/><line style="stroke:#181818;stroke-width:1.0;stroke-dasharray:2.0,2.0;" x1="1074" x2="1074" y1="316.6582" y2="329.6582"/><line style="stroke:#181818;stroke-width:1.0;stroke-dasharray:2.0,2.0;" x1="1027" x2="1074" y1="329.6582" y2="329.6582"/><polygon fill="#181818" points="1037,325.6582,1027,329.6582,1037,333.6582,1033,329.6582" style="stroke:#181818;stroke-width:1.0;"/><text fill="#000000" font-family="sans-serif" font-size="13" font-weight="bold" lengthAdjust="spacing" textLength="7" x="1039" y="311.3955">4</text><text fill="#000000" font-family="sans-serif" font-size="13" lengthAdjust="spacing" textLength="50" x="1050" y="311.3955">manager</text><polygon fill="#181818" points="1417.5,351.9492,1427.5,355.9492,1417.5,359.9492,1421.5,355.9492" style="stroke:#181818;stroke-width:1.0;"/><line style="stroke:#181818;stroke-width:1.0;" x1="1027" x2="1423.5" y1="355.9492" y2="355.9492"/><text fill="#000000" font-family="sans-serif" font-size="13" font-weight="bold" lengthAdjust="spacing" textLength="7" x="1034" y="350.6865">5</text><text fill="#000000" font-family="sans-serif" font-size="13" lengthAdjust="spacing" textLength="98" x="1045" y="350.6865">getGreenSpace()</text><polygon fill="#181818" points="1600.5,383.2402,1610.5,387.2402,1600.5,391.2402,1604.5,387.2402" style="stroke:#181818;stroke-width:1.0;"/><line style="stroke:#181818;stroke-width:1.0;" x1="1439.5" x2="1606.5" y1="387.2402" y2="387.2402"/><text fill="#000000" font-family="sans-serif" font-size="13" font-weight="bold" lengthAdjust="spacing" textLength="7" x="1446.5" y="381.9775">6</text><text fill="#000000" font-family="sans-serif" font-size="13" lengthAdjust="spacing" textLength="143" x="1457.5" y="381.9775">getSortedGreenSpaces()</text><rect fill="none" height="43.252" style="stroke:#000000;stroke-width:1.5;" width="107" x="1564" y="395.2402"/><path d="M1564,395.2402 L1626,395.2402 L1626,404.2402 L1616,414.2402 L1564,414.2402 L1564,395.2402 " fill="#EEEEEE" style="stroke:#000000;stroke-width:2.0;"/><text fill="#000000" font-family="sans-serif" font-size="13" font-weight="bold" lengthAdjust="spacing" textLength="17" x="1577" y="411.2686">ref</text><text fill="#000000" font-family="sans-serif" font-size="12" lengthAdjust="spacing" textLength="87" x="1574" y="431.1895">Design in US27</text><polygon fill="#181818" points="1450.5,462.7832,1440.5,466.7832,1450.5,470.7832,1446.5,466.7832" style="stroke:#181818;stroke-width:1.0;"/><line style="stroke:#181818;stroke-width:1.0;stroke-dasharray:2.0,2.0;" x1="1444.5" x2="1616.5" y1="466.7832" y2="466.7832"/><text fill="#000000" font-family="sans-serif" font-size="13" font-weight="bold" lengthAdjust="spacing" textLength="7" x="1456.5" y="461.5205">7</text><text fill="#000000" font-family="sans-serif" font-size="13" lengthAdjust="spacing" textLength="90" x="1467.5" y="461.5205">greenSpaceList</text><polygon fill="#181818" points="1038,494.0742,1028,498.0742,1038,502.0742,1034,498.0742" style="stroke:#181818;stroke-width:1.0;"/><line style="stroke:#181818;stroke-width:1.0;stroke-dasharray:2.0,2.0;" x1="1032" x2="1433.5" y1="498.0742" y2="498.0742"/><text fill="#000000" font-family="sans-serif" font-size="13" font-weight="bold" lengthAdjust="spacing" textLength="7" x="1044" y="492.8115">8</text><text fill="#000000" font-family="sans-serif" font-size="13" lengthAdjust="spacing" textLength="90" x="1055" y="492.8115">greenSpaceList</text><polygon fill="#181818" points="472,525.3652,462,529.3652,472,533.3652,468,529.3652" style="stroke:#181818;stroke-width:1.0;"/><line style="stroke:#181818;stroke-width:1.0;stroke-dasharray:2.0,2.0;" x1="466" x2="1021" y1="529.3652" y2="529.3652"/><text fill="#000000" font-family="sans-serif" font-size="13" font-weight="bold" lengthAdjust="spacing" textLength="7" x="478" y="524.1025">9</text><text fill="#000000" font-family="sans-serif" font-size="13" lengthAdjust="spacing" textLength="90" x="489" y="524.1025">greenSpaceList</text><polygon fill="#181818" points="122,573.9473,112,577.9473,122,581.9473,118,577.9473" style="stroke:#181818;stroke-width:1.0;"/><line style="stroke:#181818;stroke-width:1.0;stroke-dasharray:2.0,2.0;" x1="116" x2="455" y1="577.9473" y2="577.9473"/><text fill="#000000" font-family="sans-serif" font-size="13" font-weight="bold" lengthAdjust="spacing" textLength="14" x="128" y="564.0391">10</text><text fill="#000000" font-family="sans-serif" font-size="13" lengthAdjust="spacing" textLength="294" x="146" y="555.3936">shows all the Green Spaces managed by the GSM</text><text fill="#000000" font-family="sans-serif" font-size="13" lengthAdjust="spacing" textLength="132" x="150" y="572.6846">and asks to select one</text><polygon fill="#181818" points="439,605.2383,449,609.2383,439,613.2383,443,609.2383" style="stroke:#181818;stroke-width:1.0;"/><line style="stroke:#181818;stroke-width:1.0;" x1="111" x2="445" y1="609.2383" y2="609.2383"/><text fill="#000000" font-family="sans-serif" font-size="13" font-weight="bold" lengthAdjust="spacing" textLength="14" x="118" y="603.9756">11</text><text fill="#000000" font-family="sans-serif" font-size="13" lengthAdjust="spacing" textLength="74" x="136" y="603.9756">chooses one</text><polygon fill="#181818" points="1005,636.5293,1015,640.5293,1005,644.5293,1009,640.5293" style="stroke:#181818;stroke-width:1.0;"/><line style="stroke:#181818;stroke-width:1.0;" x1="461" x2="1011" y1="640.5293" y2="640.5293"/><text fill="#000000" font-family="sans-serif" font-size="13" font-weight="bold" lengthAdjust="spacing" textLength="14" x="468" y="635.2666">12</text><text fill="#000000" font-family="sans-serif" font-size="13" lengthAdjust="spacing" textLength="54" x="486" y="635.2666">getTask()</text><polygon fill="#181818" points="1175,667.8203,1185,671.8203,1175,675.8203,1179,671.8203" style="stroke:#181818;stroke-width:1.0;"/><line style="stroke:#181818;stroke-width:1.0;" x1="1027" x2="1181" y1="671.8203" y2="671.8203"/><text fill="#000000" font-family="sans-serif" font-size="13" font-weight="bold" lengthAdjust="spacing" textLength="14" x="1034" y="666.5576">13</text><text fill="#000000" font-family="sans-serif" font-size="13" lengthAdjust="spacing" textLength="75" x="1052" y="666.5576">getInstance()</text><polygon fill="#181818" points="1038,699.1113,1028,703.1113,1038,707.1113,1034,703.1113" style="stroke:#181818;stroke-width:1.0;"/><line style="stroke:#181818;stroke-width:1.0;stroke-dasharray:2.0,2.0;" x1="1032" x2="1191" y1="703.1113" y2="703.1113"/><text fill="#000000" font-family="sans-serif" font-size="13" font-weight="bold" lengthAdjust="spacing" textLength="14" x="1044" y="697.8486">14</text><text fill="#000000" font-family="sans-serif" font-size="13" lengthAdjust="spacing" textLength="67" x="1062" y="697.8486">repositories</text><polygon fill="#181818" points="1282,730.4023,1292,734.4023,1282,738.4023,1286,734.4023" style="stroke:#181818;stroke-width:1.0;"/><line style="stroke:#181818;stroke-width:1.0;" x1="1027" x2="1288" y1="734.4023" y2="734.4023"/><text fill="#000000" font-family="sans-serif" font-size="13" font-weight="bold" lengthAdjust="spacing" textLength="14" x="1034" y="729.1396">15</text><text fill="#000000" font-family="sans-serif" font-size="13" lengthAdjust="spacing" textLength="116" x="1052" y="729.1396">getTaskRepository()</text><polygon fill="#181818" points="1038,761.6934,1028,765.6934,1038,769.6934,1034,765.6934" style="stroke:#181818;stroke-width:1.0;"/><line style="stroke:#181818;stroke-width:1.0;stroke-dasharray:2.0,2.0;" x1="1032" x2="1298" y1="765.6934" y2="765.6934"/><text fill="#000000" font-family="sans-serif" font-size="13" font-weight="bold" lengthAdjust="spacing" textLength="14" x="1044" y="760.4307">16</text><text fill="#000000" font-family="sans-serif" font-size="13" lengthAdjust="spacing" textLength="87" x="1062" y="760.4307">taskRepository</text><polygon fill="#181818" points="1719.5,792.9844,1729.5,796.9844,1719.5,800.9844,1723.5,796.9844" style="stroke:#181818;stroke-width:1.0;"/><line style="stroke:#181818;stroke-width:1.0;" x1="1027" x2="1725.5" y1="796.9844" y2="796.9844"/><text fill="#000000" font-family="sans-serif" font-size="13" font-weight="bold" lengthAdjust="spacing" textLength="14" x="1034" y="791.7217">17</text><text fill="#000000" font-family="sans-serif" font-size="13" lengthAdjust="spacing" textLength="141" x="1052" y="791.7217">getAllTaskDescriptions()</text><polygon fill="#181818" points="1038,824.2754,1028,828.2754,1038,832.2754,1034,828.2754" style="stroke:#181818;stroke-width:1.0;"/><line style="stroke:#181818;stroke-width:1.0;stroke-dasharray:2.0,2.0;" x1="1032" x2="1735.5" y1="828.2754" y2="828.2754"/><text fill="#000000" font-family="sans-serif" font-size="13" font-weight="bold" lengthAdjust="spacing" textLength="14" x="1044" y="823.0127">18</text><text fill="#000000" font-family="sans-serif" font-size="13" lengthAdjust="spacing" textLength="46" x="1062" y="823.0127">taskList</text><polygon fill="#181818" points="472,855.5664,462,859.5664,472,863.5664,468,859.5664" style="stroke:#181818;stroke-width:1.0;"/><line style="stroke:#181818;stroke-width:1.0;stroke-dasharray:2.0,2.0;" x1="466" x2="1021" y1="859.5664" y2="859.5664"/><text fill="#000000" font-family="sans-serif" font-size="13" font-weight="bold" lengthAdjust="spacing" textLength="14" x="478" y="854.3037">19</text><text fill="#000000" font-family="sans-serif" font-size="13" lengthAdjust="spacing" textLength="46" x="496" y="854.3037">taskList</text><polygon fill="#181818" points="122,886.8574,112,890.8574,122,894.8574,118,890.8574" style="stroke:#181818;stroke-width:1.0;"/><line style="stroke:#181818;stroke-width:1.0;stroke-dasharray:2.0,2.0;" x1="116" x2="455" y1="890.8574" y2="890.8574"/><text fill="#000000" font-family="sans-serif" font-size="13" font-weight="bold" lengthAdjust="spacing" textLength="14" x="128" y="885.5947">20</text><text fill="#000000" font-family="sans-serif" font-size="13" lengthAdjust="spacing" textLength="248" x="146" y="885.5947">shows all the tasks and asks to select one</text><polygon fill="#181818" points="439,918.1484,449,922.1484,439,926.1484,443,922.1484" style="stroke:#181818;stroke-width:1.0;"/><line style="stroke:#181818;stroke-width:1.0;" x1="111" x2="445" y1="922.1484" y2="922.1484"/><text fill="#000000" font-family="sans-serif" font-size="13" font-weight="bold" lengthAdjust="spacing" textLength="14" x="118" y="916.8857">21</text><text fill="#000000" font-family="sans-serif" font-size="13" lengthAdjust="spacing" textLength="76" x="136" y="916.8857">Chooses one</text><polygon fill="#181818" points="122,949.4395,112,953.4395,122,957.4395,118,953.4395" style="stroke:#181818;stroke-width:1.0;"/><line style="stroke:#181818;stroke-width:1.0;stroke-dasharray:2.0,2.0;" x1="116" x2="455" y1="953.4395" y2="953.4395"/><text fill="#000000" font-family="sans-serif" font-size="13" font-weight="bold" lengthAdjust="spacing" textLength="14" x="128" y="948.1768">22</text><text fill="#000000" font-family="sans-serif" font-size="13" lengthAdjust="spacing" textLength="272" x="146" y="948.1768">requests data(urgency,aproxExpectedDuration)</text><polygon fill="#181818" points="439,980.7305,449,984.7305,439,988.7305,443,984.7305" style="stroke:#181818;stroke-width:1.0;"/><line style="stroke:#181818;stroke-width:1.0;" x1="111" x2="445" y1="984.7305" y2="984.7305"/><text fill="#000000" font-family="sans-serif" font-size="13" font-weight="bold" lengthAdjust="spacing" textLength="14" x="118" y="979.4678">23</text><text fill="#000000" font-family="sans-serif" font-size="13" lengthAdjust="spacing" textLength="122" x="136" y="979.4678">types requested data</text><polygon fill="#181818" points="122,1012.0215,112,1016.0215,122,1020.0215,118,1016.0215" style="stroke:#181818;stroke-width:1.0;"/><line style="stroke:#181818;stroke-width:1.0;stroke-dasharray:2.0,2.0;" x1="116" x2="455" y1="1016.0215" y2="1016.0215"/><text fill="#000000" font-family="sans-serif" font-size="13" font-weight="bold" lengthAdjust="spacing" textLength="14" x="128" y="1010.7588">24</text><text fill="#000000" font-family="sans-serif" font-size="13" lengthAdjust="spacing" textLength="252" x="146" y="1010.7588">displays the data and requests confirmation</text><polygon fill="#181818" points="439,1043.3125,449,1047.3125,439,1051.3125,443,1047.3125" style="stroke:#181818;stroke-width:1.0;"/><line style="stroke:#181818;stroke-width:1.0;" x1="111" x2="445" y1="1047.3125" y2="1047.3125"/><text fill="#000000" font-family="sans-serif" font-size="13" font-weight="bold" lengthAdjust="spacing" textLength="14" x="118" y="1042.0498">25</text><text fill="#000000" font-family="sans-serif" font-size="13" lengthAdjust="spacing" textLength="153" x="136" y="1042.0498">confirms and submits data</text><polygon fill="#181818" points="1005,1074.6035,1015,1078.6035,1005,1082.6035,1009,1078.6035" style="stroke:#181818;stroke-width:1.0;"/><line style="stroke:#181818;stroke-width:1.0;" x1="461" x2="1011" y1="1078.6035" y2="1078.6035"/><text fill="#000000" font-family="sans-serif" font-size="13" font-weight="bold" lengthAdjust="spacing" textLength="14" x="468" y="1073.3408">26</text><text fill="#000000" font-family="sans-serif" font-size="13" lengthAdjust="spacing" textLength="519" x="486" y="1073.3408">registerEntryToDoList(greenSpaceName,taskDescription,urgency,aproxExpectedDuration)</text><polygon fill="#181818" points="1175,1105.8945,1185,1109.8945,1175,1113.8945,1179,1109.8945" style="stroke:#181818;stroke-width:1.0;"/><line style="stroke:#181818;stroke-width:1.0;" x1="1027" x2="1181" y1="1109.8945" y2="1109.8945"/><text fill="#000000" font-family="sans-serif" font-size="13" font-weight="bold" lengthAdjust="spacing" textLength="14" x="1034" y="1104.6318">27</text><text fill="#000000" font-family="sans-serif" font-size="13" lengthAdjust="spacing" textLength="75" x="1052" y="1104.6318">getInstance()</text><polygon fill="#181818" points="1038,1137.1855,1028,1141.1855,1038,1145.1855,1034,1141.1855" style="stroke:#181818;stroke-width:1.0;"/><line style="stroke:#181818;stroke-width:1.0;stroke-dasharray:2.0,2.0;" x1="1032" x2="1191" y1="1141.1855" y2="1141.1855"/><text fill="#000000" font-family="sans-serif" font-size="13" font-weight="bold" lengthAdjust="spacing" textLength="14" x="1044" y="1135.9229">28</text><text fill="#000000" font-family="sans-serif" font-size="13" lengthAdjust="spacing" textLength="67" x="1062" y="1135.9229">repositories</text><polygon fill="#181818" points="1282,1168.4766,1292,1172.4766,1282,1176.4766,1286,1172.4766" style="stroke:#181818;stroke-width:1.0;"/><line style="stroke:#181818;stroke-width:1.0;" x1="1027" x2="1288" y1="1172.4766" y2="1172.4766"/><text fill="#000000" font-family="sans-serif" font-size="13" font-weight="bold" lengthAdjust="spacing" textLength="14" x="1034" y="1167.2139">29</text><text fill="#000000" font-family="sans-serif" font-size="13" lengthAdjust="spacing" textLength="160" x="1052" y="1167.2139">getGreenSpaceRepository()</text><polygon fill="#181818" points="1038,1199.7676,1028,1203.7676,1038,1207.7676,1034,1203.7676" style="stroke:#181818;stroke-width:1.0;"/><line style="stroke:#181818;stroke-width:1.0;stroke-dasharray:2.0,2.0;" x1="1032" x2="1298" y1="1203.7676" y2="1203.7676"/><text fill="#000000" font-family="sans-serif" font-size="13" font-weight="bold" lengthAdjust="spacing" textLength="14" x="1044" y="1198.5049">30</text><text fill="#000000" font-family="sans-serif" font-size="13" lengthAdjust="spacing" textLength="131" x="1062" y="1198.5049">greenSpaceRepository</text><polygon fill="#181818" points="1871,1231.0586,1881,1235.0586,1871,1239.0586,1875,1235.0586" style="stroke:#181818;stroke-width:1.0;"/><line style="stroke:#181818;stroke-width:1.0;" x1="1027" x2="1877" y1="1235.0586" y2="1235.0586"/><text fill="#000000" font-family="sans-serif" font-size="13" font-weight="bold" lengthAdjust="spacing" textLength="14" x="1034" y="1229.7959">31</text><text fill="#000000" font-family="sans-serif" font-size="13" lengthAdjust="spacing" textLength="251" x="1052" y="1229.7959">getGreenSpaceByName(greenSpaceName)</text><path d="M1795,1250.0586 L1868,1250.0586 L1868,1259.3496 L1858,1269.3496 L1795,1269.3496 L1795,1250.0586 " fill="#EEEEEE" style="stroke:#000000;stroke-width:1.5;"/><rect fill="none" height="81.873" style="stroke:#000000;stroke-width:1.5;" width="375" x="1795" y="1250.0586"/><text fill="#000000" font-family="sans-serif" font-size="13" font-weight="bold" lengthAdjust="spacing" textLength="28" x="1810" y="1265.0869">loop</text><text fill="#000000" font-family="sans-serif" font-size="11" font-weight="bold" lengthAdjust="spacing" textLength="225" x="1883" y="1263.9287">[for each greenSpace in greenSpaceList]</text><polygon fill="#181818" points="2096,1288.6406,2106,1292.6406,2096,1296.6406,2100,1292.6406" style="stroke:#181818;stroke-width:1.0;"/><line style="stroke:#181818;stroke-width:1.0;" x1="1893" x2="2102" y1="1292.6406" y2="1292.6406"/><text fill="#000000" font-family="sans-serif" font-size="13" font-weight="bold" lengthAdjust="spacing" textLength="14" x="1900" y="1287.3779">32</text><text fill="#000000" font-family="sans-serif" font-size="13" lengthAdjust="spacing" textLength="166" x="1918" y="1287.3779">hasName(greenSpaceName)</text><polygon fill="#181818" points="1904,1319.9316,1894,1323.9316,1904,1327.9316,1900,1323.9316" style="stroke:#181818;stroke-width:1.0;"/><line style="stroke:#181818;stroke-width:1.0;stroke-dasharray:2.0,2.0;" x1="1898" x2="2112" y1="1323.9316" y2="1323.9316"/><text fill="#000000" font-family="sans-serif" font-size="13" font-weight="bold" lengthAdjust="spacing" textLength="14" x="1910" y="1318.6689">33</text><text fill="#000000" font-family="sans-serif" font-size="13" lengthAdjust="spacing" textLength="53" x="1928" y="1318.6689">true/false</text><polygon fill="#181818" points="1038,1358.2227,1028,1362.2227,1038,1366.2227,1034,1362.2227" style="stroke:#181818;stroke-width:1.0;"/><line style="stroke:#181818;stroke-width:1.0;stroke-dasharray:2.0,2.0;" x1="1032" x2="1887" y1="1362.2227" y2="1362.2227"/><text fill="#000000" font-family="sans-serif" font-size="13" font-weight="bold" lengthAdjust="spacing" textLength="14" x="1044" y="1356.96">34</text><text fill="#000000" font-family="sans-serif" font-size="13" lengthAdjust="spacing" textLength="69" x="1062" y="1356.96">greenSpace</text><polygon fill="#181818" points="1282,1389.5137,1292,1393.5137,1282,1397.5137,1286,1393.5137" style="stroke:#181818;stroke-width:1.0;"/><line style="stroke:#181818;stroke-width:1.0;" x1="1027" x2="1288" y1="1393.5137" y2="1393.5137"/><text fill="#000000" font-family="sans-serif" font-size="13" font-weight="bold" lengthAdjust="spacing" textLength="14" x="1034" y="1388.251">35</text><text fill="#000000" font-family="sans-serif" font-size="13" lengthAdjust="spacing" textLength="116" x="1052" y="1388.251">getTaskRepository()</text><polygon fill="#181818" points="1038,1420.8047,1028,1424.8047,1038,1428.8047,1034,1424.8047" style="stroke:#181818;stroke-width:1.0;"/><line style="stroke:#181818;stroke-width:1.0;stroke-dasharray:2.0,2.0;" x1="1032" x2="1298" y1="1424.8047" y2="1424.8047"/><text fill="#000000" font-family="sans-serif" font-size="13" font-weight="bold" lengthAdjust="spacing" textLength="14" x="1044" y="1419.542">36</text><text fill="#000000" font-family="sans-serif" font-size="13" lengthAdjust="spacing" textLength="87" x="1062" y="1419.542">taskRepository</text><polygon fill="#181818" points="1719.5,1452.0957,1729.5,1456.0957,1719.5,1460.0957,1723.5,1456.0957" style="stroke:#181818;stroke-width:1.0;"/><line style="stroke:#181818;stroke-width:1.0;" x1="1027" x2="1725.5" y1="1456.0957" y2="1456.0957"/><text fill="#000000" font-family="sans-serif" font-size="13" font-weight="bold" lengthAdjust="spacing" textLength="14" x="1034" y="1450.833">37</text><text fill="#000000" font-family="sans-serif" font-size="13" lengthAdjust="spacing" textLength="225" x="1052" y="1450.833">getTaskByDescription(taskDescription)</text><path d="M1668,1471.0957 L1741,1471.0957 L1741,1480.3867 L1731,1490.3867 L1668,1490.3867 L1668,1471.0957 " fill="#EEEEEE" style="stroke:#000000;stroke-width:1.5;"/><rect fill="none" height="81.873" style="stroke:#000000;stroke-width:1.5;" width="557" x="1668" y="1471.0957"/><text fill="#000000" font-family="sans-serif" font-size="13" font-weight="bold" lengthAdjust="spacing" textLength="28" x="1683" y="1486.124">loop</text><text fill="#000000" font-family="sans-serif" font-size="11" font-weight="bold" lengthAdjust="spacing" textLength="141" x="1756" y="1484.9658">[for each task in taskList]</text><polygon fill="#181818" points="2175.5,1509.6777,2185.5,1513.6777,2175.5,1517.6777,2179.5,1513.6777" style="stroke:#181818;stroke-width:1.0;"/><line style="stroke:#181818;stroke-width:1.0;" x1="1741.5" x2="2181.5" y1="1513.6777" y2="1513.6777"/><text fill="#000000" font-family="sans-serif" font-size="13" font-weight="bold" lengthAdjust="spacing" textLength="14" x="1748.5" y="1508.415">38</text><text fill="#000000" font-family="sans-serif" font-size="13" lengthAdjust="spacing" textLength="184" x="1766.5" y="1508.415">hasDescription(taskDescription)</text><polygon fill="#181818" points="1752.5,1540.9688,1742.5,1544.9688,1752.5,1548.9688,1748.5,1544.9688" style="stroke:#181818;stroke-width:1.0;"/><line style="stroke:#181818;stroke-width:1.0;stroke-dasharray:2.0,2.0;" x1="1746.5" x2="2191.5" y1="1544.9688" y2="1544.9688"/><text fill="#000000" font-family="sans-serif" font-size="13" font-weight="bold" lengthAdjust="spacing" textLength="14" x="1758.5" y="1539.7061">39</text><text fill="#000000" font-family="sans-serif" font-size="13" lengthAdjust="spacing" textLength="53" x="1776.5" y="1539.7061">true/false</text><polygon fill="#181818" points="1038,1579.2598,1028,1583.2598,1038,1587.2598,1034,1583.2598" style="stroke:#181818;stroke-width:1.0;"/><line style="stroke:#181818;stroke-width:1.0;stroke-dasharray:2.0,2.0;" x1="1032" x2="1735.5" y1="1583.2598" y2="1583.2598"/><text fill="#000000" font-family="sans-serif" font-size="13" font-weight="bold" lengthAdjust="spacing" textLength="14" x="1044" y="1577.9971">40</text><text fill="#000000" font-family="sans-serif" font-size="13" lengthAdjust="spacing" textLength="25" x="1062" y="1577.9971">task</text><polygon fill="#181818" points="2001.5,1610.5508,2011.5,1614.5508,2001.5,1618.5508,2005.5,1614.5508" style="stroke:#181818;stroke-width:1.0;"/><line style="stroke:#181818;stroke-width:1.0;" x1="1027" x2="2007.5" y1="1614.5508" y2="1614.5508"/><text fill="#000000" font-family="sans-serif" font-size="13" font-weight="bold" lengthAdjust="spacing" textLength="14" x="1034" y="1609.2881">41</text><text fill="#000000" font-family="sans-serif" font-size="13" lengthAdjust="spacing" textLength="331" x="1052" y="1609.2881">registerEntryToDoList(greenSpace,task,urgency,duration)</text><rect fill="none" height="43.252" style="stroke:#000000;stroke-width:1.5;" width="135" x="1978" y="1622.5508"/><path d="M1978,1622.5508 L2040,1622.5508 L2040,1631.5508 L2030,1641.5508 L1978,1641.5508 L1978,1622.5508 " fill="#EEEEEE" style="stroke:#000000;stroke-width:2.0;"/><text fill="#000000" font-family="sans-serif" font-size="13" font-weight="bold" lengthAdjust="spacing" textLength="17" x="1991" y="1638.5791">ref</text><text fill="#000000" font-family="sans-serif" font-size="12" lengthAdjust="spacing" textLength="127" x="1982" y="1658.5">Register TaskToDoList</text><polygon fill="#181818" points="1038,1690.0938,1028,1694.0938,1038,1698.0938,1034,1694.0938" style="stroke:#181818;stroke-width:1.0;"/><line style="stroke:#181818;stroke-width:1.0;stroke-dasharray:2.0,2.0;" x1="1032" x2="2017.5" y1="1694.0938" y2="1694.0938"/><text fill="#000000" font-family="sans-serif" font-size="13" font-weight="bold" lengthAdjust="spacing" textLength="14" x="1044" y="1688.8311">42</text><text fill="#000000" font-family="sans-serif" font-size="13" lengthAdjust="spacing" textLength="53" x="1062" y="1688.8311">true/false</text><polygon fill="#181818" points="472,1721.3848,462,1725.3848,472,1729.3848,468,1725.3848" style="stroke:#181818;stroke-width:1.0;"/><line style="stroke:#181818;stroke-width:1.0;stroke-dasharray:2.0,2.0;" x1="466" x2="1021" y1="1725.3848" y2="1725.3848"/><text fill="#000000" font-family="sans-serif" font-size="13" font-weight="bold" lengthAdjust="spacing" textLength="14" x="478" y="1720.1221">43</text><text fill="#000000" font-family="sans-serif" font-size="13" lengthAdjust="spacing" textLength="53" x="496" y="1720.1221">true/false</text><polygon fill="#181818" points="117,1752.6758,107,1756.6758,117,1760.6758,113,1756.6758" style="stroke:#181818;stroke-width:1.0;"/><line style="stroke:#181818;stroke-width:1.0;stroke-dasharray:2.0,2.0;" x1="111" x2="455" y1="1756.6758" y2="1756.6758"/><text fill="#000000" font-family="sans-serif" font-size="13" font-weight="bold" lengthAdjust="spacing" textLength="14" x="123" y="1751.4131">44</text><text fill="#000000" font-family="sans-serif" font-size="13" lengthAdjust="spacing" textLength="158" x="141" y="1751.4131">displays operation success</text><!--SRC=[tLVBRkCs5DthAowo6GU8qKut1Rm8u8bSmnXdPc3PksmOYP69oAHAqfFextj9IJIfXwDsLOmtYKIU-ppt8VNAU4aaES59S94UfJXHqF9C8-LEIfA-afmckYeeI9fgmlF2lw2E91DlZEVmGWf5eqWpZLSF6qZetsVAKmen8xcvEalYMvZ38VdZC_vPPXbm-WQKQrc15g2F5FPY7elvbYaTHUIi1J-VdgcCeaz7bb5u4K8_Y_U8f5f8k5bBIZaaQ29Ly4WusYbXjauURs-0AC1_8hHHivILX6kuMUneZfAfN1cLUn4Be-YmiRSFcocN7mG-YQAWqe8Uzhjj3rOAnT0-HfMzurvK2JEnGwT2YFGGJxmluCTskGyHfzfNl6n3O2FG-Dzw_Zr4vEuUghY0QWNhtMhrBVcnV5Wb8KeJzNen7zNjWnSMlD-DQGgGwu7NZQqT0Re9jL7N_5ihYhTZcdoNEXxr7NhYnejQv3Bv6XasiPz4KqkO29eVFi3ytl1uWLTVbM6eR2W1n6CkuvQvU9m9A0np3Tm9HLuvcIWCHHhIeD2SwbxsrlPXTXkAi2npGYmy59Cy_eMrcr2bcE3NqPA-WFY9BjZNuFrYgbZEZJjOeB-x8yep0-hglnZGaD6UP_G3emqpkxvt3RRizVFmtI8l9Aq5949gcdbSxidnQDtttpyT3SEVus7mxPbxdZbxjYqLlA0CcbHxw6Kq5D6J4OJ7PSCIzRhsC2M6ZBNT25H7yQQ058NbSj1Ow_ncy5pLPtZ_YGF1UBHbeMY1Wm44frsDFlaHEBy_R1QG7eLGABYzFr8g0SLDoKuhYu5sMulOS8N3gq-teVxif0v9QrEr0BzpTrs_AhOrrhHsvzy5qJNHJW07Da-U4M6JxfeHGbkz-rqTasLH6Ct8-LIoKcFtw5KHzdS7HvZ7KwDuY6O-8gJd668oCRMbt7_Ydclc3zFevzaWpIAZj8ACQ38xonotckgEb5AyhzvBL4-p-2o92T_jL2jqLQ8DZMIiBYDweZaPKsL1AcKZOd0s8Cx8LF0N9a_MdAdMD9WwjEhyV6ADjrDcsSBDnM1LcbsQqJToedSw9DhTX3Z-agK-j0dzgu8Vsh2cbJtkMjtX-wKooUdagZUGlOekX2Xn4PU0oewUBMPY3askccgxS8IZ5KUY1ZKxqC3GZ899xOcRE-VCvyjlpPT8Ut5m04V-QE-OEZIB-sDuz__hvqRjbyghibcdwlhDVJYl1cOtsxPZ1pFWtcxETHAlAkidirwv_JHQKVFMYG_o5yA3pFM7qyU3wTvyLS373SmsBzUnik4cPJvG-dkcUUkxstvMWibLgsh4epXOjBtGT1sBjwCZTnHqPUYw2IDAMhkAGo75PL0D3PHmD_q7]--></g></svg>