<?xml version="1.0" encoding="us-ascii" standalone="no"?><svg xmlns="http://www.w3.org/2000/svg" xmlns:xlink="http://www.w3.org/1999/xlink" contentStyleType="text/css" height="765px" preserveAspectRatio="none" style="width:917px;height:765px;background:#FFFFFF;" version="1.1" viewBox="0 0 917 765" width="917px" zoomAndPan="magnify"><defs/><g><rect fill="#FFFFFF" height="601.0254" style="stroke:#181818;stroke-width:1.0;" width="10" x="368" y="90.5332"/><rect fill="#FFFFFF" height="130.873" style="stroke:#181818;stroke-width:1.0;" width="10" x="373" y="156.1152"/><rect fill="#FFFFFF" height="42.291" style="stroke:#181818;stroke-width:1.0;" width="10" x="378" y="200.4063"/><rect fill="#FFFFFF" height="130.873" style="stroke:#181818;stroke-width:1.0;" width="10" x="373" y="515.3945"/><rect fill="#FFFFFF" height="42.291" style="stroke:#181818;stroke-width:1.0;" width="10" x="378" y="559.6855"/><rect fill="#FFFFFF" height="140.8242" style="stroke:#181818;stroke-width:1.0;" width="10" x="769" y="335.2793"/><rect fill="#FFFFFF" height="42.291" style="stroke:#181818;stroke-width:1.0;" width="10" x="774" y="395.5215"/><rect fill="none" height="555.7344" style="stroke:#000000;stroke-width:1.5;" width="585.5" x="325.5" y="105.5332"/><line style="stroke:#181818;stroke-width:0.5;stroke-dasharray:5.0,5.0;" x1="372.5" x2="372.5" y1="57.2422" y2="709.5586"/><line style="stroke:#181818;stroke-width:0.5;stroke-dasharray:5.0,5.0;" x1="774" x2="774" y1="343.1094" y2="709.5586"/><rect fill="#E3E3E3" height="51.2422" rx="2.5" ry="2.5" style="stroke:#181818;stroke-width:0.5;" width="75" x="335.5" y="5"/><text fill="#000000" font-family="sans-serif" font-size="14" lengthAdjust="spacing" textLength="52" x="347" y="27.1074">toDoList</text><text fill="#000000" font-family="sans-serif" font-size="14" lengthAdjust="spacing" textLength="61" x="342.5" y="45.7285">:ToDoList</text><rect fill="#E3E3E3" height="51.2422" rx="2.5" ry="2.5" style="stroke:#181818;stroke-width:0.5;" width="75" x="335.5" y="708.5586"/><text fill="#000000" font-family="sans-serif" font-size="14" lengthAdjust="spacing" textLength="52" x="347" y="730.666">toDoList</text><text fill="#000000" font-family="sans-serif" font-size="14" lengthAdjust="spacing" textLength="61" x="342.5" y="749.2871">:ToDoList</text><rect fill="#E3E3E3" height="51.2422" rx="2.5" ry="2.5" style="stroke:#181818;stroke-width:0.5;" width="106" x="721" y="708.5586"/><text fill="#000000" font-family="sans-serif" font-size="14" lengthAdjust="spacing" textLength="46" x="751" y="730.666">taskTdl</text><text fill="#000000" font-family="sans-serif" font-size="14" lengthAdjust="spacing" textLength="92" x="728" y="749.2871">:TaskToDoList</text><rect fill="#FFFFFF" height="601.0254" style="stroke:#181818;stroke-width:1.0;" width="10" x="368" y="90.5332"/><rect fill="#FFFFFF" height="130.873" style="stroke:#181818;stroke-width:1.0;" width="10" x="373" y="156.1152"/><rect fill="#FFFFFF" height="42.291" style="stroke:#181818;stroke-width:1.0;" width="10" x="378" y="200.4063"/><rect fill="#FFFFFF" height="130.873" style="stroke:#181818;stroke-width:1.0;" width="10" x="373" y="515.3945"/><rect fill="#FFFFFF" height="42.291" style="stroke:#181818;stroke-width:1.0;" width="10" x="378" y="559.6855"/><rect fill="#FFFFFF" height="140.8242" style="stroke:#181818;stroke-width:1.0;" width="10" x="769" y="335.2793"/><rect fill="#FFFFFF" height="42.291" style="stroke:#181818;stroke-width:1.0;" width="10" x="774" y="395.5215"/><polygon fill="#181818" points="356,86.5332,366,90.5332,356,94.5332,360,90.5332" style="stroke:#181818;stroke-width:1.0;"/><line style="stroke:#181818;stroke-width:1.0;" x1="0" x2="362" y1="90.5332" y2="90.5332"/><text fill="#000000" font-family="sans-serif" font-size="13" font-weight="bold" lengthAdjust="spacing" textLength="14" x="7" y="85.2705">45</text><text fill="#000000" font-family="sans-serif" font-size="13" lengthAdjust="spacing" textLength="331" x="25" y="85.2705">registerEntryToDoList(greenSpace,task,urgency,duration)</text><path d="M325.5,105.5332 L458.5,105.5332 L458.5,114.8242 L448.5,124.8242 L325.5,124.8242 L325.5,105.5332 " fill="#EEEEEE" style="stroke:#000000;stroke-width:1.5;"/><rect fill="none" height="555.7344" style="stroke:#000000;stroke-width:1.5;" width="585.5" x="325.5" y="105.5332"/><text fill="#000000" font-family="sans-serif" font-size="13" font-weight="bold" lengthAdjust="spacing" textLength="88" x="340.5" y="120.5615">Register Entry</text><line style="stroke:#181818;stroke-width:1.0;" x1="378" x2="425" y1="143.1152" y2="143.1152"/><line style="stroke:#181818;stroke-width:1.0;" x1="425" x2="425" y1="143.1152" y2="156.1152"/><line style="stroke:#181818;stroke-width:1.0;" x1="384" x2="425" y1="156.1152" y2="156.1152"/><polygon fill="#181818" points="394,152.1152,384,156.1152,394,160.1152,390,156.1152" style="stroke:#181818;stroke-width:1.0;"/><text fill="#000000" font-family="sans-serif" font-size="13" font-weight="bold" lengthAdjust="spacing" textLength="25" x="390" y="137.8525">45.1</text><text fill="#000000" font-family="sans-serif" font-size="13" lengthAdjust="spacing" textLength="156" x="419" y="137.8525">generateUniqueReference()</text><line style="stroke:#181818;stroke-width:1.0;" x1="383" x2="430" y1="187.4063" y2="187.4063"/><line style="stroke:#181818;stroke-width:1.0;" x1="430" x2="430" y1="187.4063" y2="200.4063"/><line style="stroke:#181818;stroke-width:1.0;" x1="389" x2="430" y1="200.4063" y2="200.4063"/><polygon fill="#181818" points="399,196.4063,389,200.4063,399,204.4063,395,200.4063" style="stroke:#181818;stroke-width:1.0;"/><text fill="#000000" font-family="sans-serif" font-size="13" font-weight="bold" lengthAdjust="spacing" textLength="25" x="395" y="182.1436">45.2</text><text fill="#000000" font-family="sans-serif" font-size="13" lengthAdjust="spacing" textLength="70" x="424" y="182.1436">validateRef()</text><line style="stroke:#181818;stroke-width:1.0;stroke-dasharray:2.0,2.0;" x1="388" x2="430" y1="241.6973" y2="241.6973"/><line style="stroke:#181818;stroke-width:1.0;stroke-dasharray:2.0,2.0;" x1="430" x2="430" y1="241.6973" y2="254.6973"/><line style="stroke:#181818;stroke-width:1.0;stroke-dasharray:2.0,2.0;" x1="383" x2="430" y1="254.6973" y2="254.6973"/><polygon fill="#181818" points="393,250.6973,383,254.6973,393,258.6973,389,254.6973" style="stroke:#181818;stroke-width:1.0;"/><text fill="#000000" font-family="sans-serif" font-size="13" font-weight="bold" lengthAdjust="spacing" textLength="25" x="395" y="236.4346">45.3</text><text fill="#000000" font-family="sans-serif" font-size="13" lengthAdjust="spacing" textLength="53" x="424" y="236.4346">true/false</text><line style="stroke:#181818;stroke-width:1.0;stroke-dasharray:2.0,2.0;" x1="383" x2="425" y1="285.9883" y2="285.9883"/><line style="stroke:#181818;stroke-width:1.0;stroke-dasharray:2.0,2.0;" x1="425" x2="425" y1="285.9883" y2="298.9883"/><line style="stroke:#181818;stroke-width:1.0;stroke-dasharray:2.0,2.0;" x1="378" x2="425" y1="298.9883" y2="298.9883"/><polygon fill="#181818" points="388,294.9883,378,298.9883,388,302.9883,384,298.9883" style="stroke:#181818;stroke-width:1.0;"/><text fill="#000000" font-family="sans-serif" font-size="13" font-weight="bold" lengthAdjust="spacing" textLength="25" x="390" y="280.7256">45.4</text><text fill="#000000" font-family="sans-serif" font-size="13" lengthAdjust="spacing" textLength="44" x="419" y="280.7256">taskRef</text><polygon fill="#181818" points="709,321.2793,719,325.2793,709,329.2793,713,325.2793" style="stroke:#181818;stroke-width:1.0;"/><line style="stroke:#181818;stroke-width:1.0;" x1="378" x2="715" y1="325.2793" y2="325.2793"/><text fill="#000000" font-family="sans-serif" font-size="13" font-weight="bold" lengthAdjust="spacing" textLength="25" x="385" y="320.0166">45.5</text><text fill="#000000" font-family="sans-serif" font-size="13" lengthAdjust="spacing" textLength="290" x="414" y="320.0166">create(greenSpace,task,urgency,duration,taskRef)</text><rect fill="#E3E3E3" height="51.2422" rx="2.5" ry="2.5" style="stroke:#181818;stroke-width:0.5;" width="106" x="721" y="301.9883"/><text fill="#000000" font-family="sans-serif" font-size="14" lengthAdjust="spacing" textLength="46" x="751" y="324.0957">taskTdl</text><text fill="#000000" font-family="sans-serif" font-size="14" lengthAdjust="spacing" textLength="92" x="728" y="342.7168">:TaskToDoList</text><line style="stroke:#181818;stroke-width:1.0;" x1="779" x2="826" y1="382.5215" y2="382.5215"/><line style="stroke:#181818;stroke-width:1.0;" x1="826" x2="826" y1="382.5215" y2="395.5215"/><line style="stroke:#181818;stroke-width:1.0;" x1="785" x2="826" y1="395.5215" y2="395.5215"/><polygon fill="#181818" points="795,391.5215,785,395.5215,795,399.5215,791,395.5215" style="stroke:#181818;stroke-width:1.0;"/><text fill="#000000" font-family="sans-serif" font-size="13" font-weight="bold" lengthAdjust="spacing" textLength="25" x="791" y="377.2588">45.6</text><text fill="#000000" font-family="sans-serif" font-size="13" lengthAdjust="spacing" textLength="79" x="820" y="377.2588">validateTask()</text><line style="stroke:#181818;stroke-width:1.0;stroke-dasharray:2.0,2.0;" x1="784" x2="826" y1="436.8125" y2="436.8125"/><line style="stroke:#181818;stroke-width:1.0;stroke-dasharray:2.0,2.0;" x1="826" x2="826" y1="436.8125" y2="449.8125"/><line style="stroke:#181818;stroke-width:1.0;stroke-dasharray:2.0,2.0;" x1="779" x2="826" y1="449.8125" y2="449.8125"/><polygon fill="#181818" points="789,445.8125,779,449.8125,789,453.8125,785,449.8125" style="stroke:#181818;stroke-width:1.0;"/><text fill="#000000" font-family="sans-serif" font-size="13" font-weight="bold" lengthAdjust="spacing" textLength="25" x="791" y="431.5498">45.7</text><text fill="#000000" font-family="sans-serif" font-size="13" lengthAdjust="spacing" textLength="53" x="820" y="431.5498">true/false</text><polygon fill="#181818" points="389,472.1035,379,476.1035,389,480.1035,385,476.1035" style="stroke:#181818;stroke-width:1.0;"/><line style="stroke:#181818;stroke-width:1.0;stroke-dasharray:2.0,2.0;" x1="383" x2="773" y1="476.1035" y2="476.1035"/><text fill="#000000" font-family="sans-serif" font-size="13" font-weight="bold" lengthAdjust="spacing" textLength="25" x="395" y="470.8408">45.8</text><text fill="#000000" font-family="sans-serif" font-size="13" lengthAdjust="spacing" textLength="42" x="424" y="470.8408">taskTdl</text><line style="stroke:#181818;stroke-width:1.0;" x1="378" x2="425" y1="502.3945" y2="502.3945"/><line style="stroke:#181818;stroke-width:1.0;" x1="425" x2="425" y1="502.3945" y2="515.3945"/><line style="stroke:#181818;stroke-width:1.0;" x1="384" x2="425" y1="515.3945" y2="515.3945"/><polygon fill="#181818" points="394,511.3945,384,515.3945,394,519.3945,390,515.3945" style="stroke:#181818;stroke-width:1.0;"/><text fill="#000000" font-family="sans-serif" font-size="13" font-weight="bold" lengthAdjust="spacing" textLength="25" x="390" y="497.1318">45.9</text><text fill="#000000" font-family="sans-serif" font-size="13" lengthAdjust="spacing" textLength="150" x="419" y="497.1318">addTaskToDoList(taskTdl)</text><line style="stroke:#181818;stroke-width:1.0;" x1="383" x2="430" y1="546.6855" y2="546.6855"/><line style="stroke:#181818;stroke-width:1.0;" x1="430" x2="430" y1="546.6855" y2="559.6855"/><line style="stroke:#181818;stroke-width:1.0;" x1="389" x2="430" y1="559.6855" y2="559.6855"/><polygon fill="#181818" points="399,555.6855,389,559.6855,399,563.6855,395,559.6855" style="stroke:#181818;stroke-width:1.0;"/><text fill="#000000" font-family="sans-serif" font-size="13" font-weight="bold" lengthAdjust="spacing" textLength="32" x="395" y="541.4229">45.10</text><text fill="#000000" font-family="sans-serif" font-size="13" lengthAdjust="spacing" textLength="172" x="431" y="541.4229">validateTaskToDoList(taskTdl)</text><line style="stroke:#181818;stroke-width:1.0;stroke-dasharray:2.0,2.0;" x1="388" x2="430" y1="600.9766" y2="600.9766"/><line style="stroke:#181818;stroke-width:1.0;stroke-dasharray:2.0,2.0;" x1="430" x2="430" y1="600.9766" y2="613.9766"/><line style="stroke:#181818;stroke-width:1.0;stroke-dasharray:2.0,2.0;" x1="383" x2="430" y1="613.9766" y2="613.9766"/><polygon fill="#181818" points="393,609.9766,383,613.9766,393,617.9766,389,613.9766" style="stroke:#181818;stroke-width:1.0;"/><text fill="#000000" font-family="sans-serif" font-size="13" font-weight="bold" lengthAdjust="spacing" textLength="32" x="395" y="595.7139">45.11</text><text fill="#000000" font-family="sans-serif" font-size="13" lengthAdjust="spacing" textLength="53" x="431" y="595.7139">true/false</text><line style="stroke:#181818;stroke-width:1.0;stroke-dasharray:2.0,2.0;" x1="383" x2="425" y1="645.2676" y2="645.2676"/><line style="stroke:#181818;stroke-width:1.0;stroke-dasharray:2.0,2.0;" x1="425" x2="425" y1="645.2676" y2="658.2676"/><line style="stroke:#181818;stroke-width:1.0;stroke-dasharray:2.0,2.0;" x1="378" x2="425" y1="658.2676" y2="658.2676"/><polygon fill="#181818" points="388,654.2676,378,658.2676,388,662.2676,384,658.2676" style="stroke:#181818;stroke-width:1.0;"/><text fill="#000000" font-family="sans-serif" font-size="13" font-weight="bold" lengthAdjust="spacing" textLength="32" x="390" y="640.0049">45.12</text><text fill="#000000" font-family="sans-serif" font-size="13" lengthAdjust="spacing" textLength="53" x="426" y="640.0049">true/false</text><polygon fill="#181818" points="11,687.5586,1,691.5586,11,695.5586,7,691.5586" style="stroke:#181818;stroke-width:1.0;"/><line style="stroke:#181818;stroke-width:1.0;stroke-dasharray:2.0,2.0;" x1="5" x2="372" y1="691.5586" y2="691.5586"/><text fill="#000000" font-family="sans-serif" font-size="13" font-weight="bold" lengthAdjust="spacing" textLength="14" x="17" y="686.2959">46</text><text fill="#000000" font-family="sans-serif" font-size="13" lengthAdjust="spacing" textLength="42" x="35" y="686.2959">taskTdl</text><!--SRC=[bPDDRuCm38Rl-HLMJsr5DqtQTa3JJjsjfxQxxU8HbqQ5X8NGgVz-3b0ATFGZ5oBdVHyxTiXtIcTeCONKQ1DjhKa9d2r8vCr9Xj4EOrgvGq9WANAeuwGjoBSepQ_ICMmmoKa83ZiLgGorWv4pSxDGkVlIuRhUZW1pMCyNFI7ckxLClCxlEbel5bWueulqcomyluZPkqU4N57CCh8Vsjd3qJMEBP5USUaKU6vGs9XqT0XaOT4feoSztCEJmCYfFJegAmDUiJL51ikQ3sK28SeZlrW6no8OJWocJwr-2bhIXYode_6aKNVeJRJBWH3sc2Z9CaRSRcxSVdAFrH2E0abdz_9B_0DWFxUACm-PpwxEt-aqXCWIIwxsFAZnamfqGdVPBVYf7_v9r0svw6kClLQqRp9WgpfOFS8hdjRaKShsSntNW7wfG_Rs_Uvc3CtzujXkDFaGQLcFglMhl9QHjzcirx5-qZy0]--></g></svg>