<?xml version="1.0" encoding="us-ascii" standalone="no"?><svg xmlns="http://www.w3.org/2000/svg" xmlns:xlink="http://www.w3.org/1999/xlink" contentStyleType="text/css" height="677px" preserveAspectRatio="none" style="width:917px;height:677px;background:#FFFFFF;" version="1.1" viewBox="0 0 917 677" width="917px" zoomAndPan="magnify"><defs/><g><rect fill="#FFFFFF" height="512.4434" style="stroke:#181818;stroke-width:1.0;" width="10" x="368" y="90.5332"/><rect fill="#FFFFFF" height="42.291" style="stroke:#181818;stroke-width:1.0;" width="10" x="373" y="156.1152"/><rect fill="#FFFFFF" height="130.873" style="stroke:#181818;stroke-width:1.0;" width="10" x="373" y="426.8125"/><rect fill="#FFFFFF" height="42.291" style="stroke:#181818;stroke-width:1.0;" width="10" x="378" y="471.1035"/><rect fill="#FFFFFF" height="140.8242" style="stroke:#181818;stroke-width:1.0;" width="10" x="769" y="246.6973"/><rect fill="#FFFFFF" height="42.291" style="stroke:#181818;stroke-width:1.0;" width="10" x="774" y="306.9395"/><rect fill="none" height="467.1523" style="stroke:#000000;stroke-width:1.5;" width="585.5" x="325.5" y="105.5332"/><line style="stroke:#181818;stroke-width:0.5;stroke-dasharray:5.0,5.0;" x1="372.5" x2="372.5" y1="57.2422" y2="620.9766"/><line style="stroke:#181818;stroke-width:0.5;stroke-dasharray:5.0,5.0;" x1="774" x2="774" y1="254.5273" y2="620.9766"/><rect fill="#E3E3E3" height="51.2422" rx="2.5" ry="2.5" style="stroke:#181818;stroke-width:0.5;" width="75" x="335.5" y="5"/><text fill="#000000" font-family="sans-serif" font-size="14" lengthAdjust="spacing" textLength="52" x="347" y="27.1074">toDoList</text><text fill="#000000" font-family="sans-serif" font-size="14" lengthAdjust="spacing" textLength="61" x="342.5" y="45.7285">:ToDoList</text><rect fill="#E3E3E3" height="51.2422" rx="2.5" ry="2.5" style="stroke:#181818;stroke-width:0.5;" width="75" x="335.5" y="619.9766"/><text fill="#000000" font-family="sans-serif" font-size="14" lengthAdjust="spacing" textLength="52" x="347" y="642.084">toDoList</text><text fill="#000000" font-family="sans-serif" font-size="14" lengthAdjust="spacing" textLength="61" x="342.5" y="660.7051">:ToDoList</text><rect fill="#E3E3E3" height="51.2422" rx="2.5" ry="2.5" style="stroke:#181818;stroke-width:0.5;" width="106" x="721" y="619.9766"/><text fill="#000000" font-family="sans-serif" font-size="14" lengthAdjust="spacing" textLength="46" x="751" y="642.084">taskTdl</text><text fill="#000000" font-family="sans-serif" font-size="14" lengthAdjust="spacing" textLength="92" x="728" y="660.7051">:TaskToDoList</text><rect fill="#FFFFFF" height="512.4434" style="stroke:#181818;stroke-width:1.0;" width="10" x="368" y="90.5332"/><rect fill="#FFFFFF" height="42.291" style="stroke:#181818;stroke-width:1.0;" width="10" x="373" y="156.1152"/><rect fill="#FFFFFF" height="130.873" style="stroke:#181818;stroke-width:1.0;" width="10" x="373" y="426.8125"/><rect fill="#FFFFFF" height="42.291" style="stroke:#181818;stroke-width:1.0;" width="10" x="378" y="471.1035"/><rect fill="#FFFFFF" height="140.8242" style="stroke:#181818;stroke-width:1.0;" width="10" x="769" y="246.6973"/><rect fill="#FFFFFF" height="42.291" style="stroke:#181818;stroke-width:1.0;" width="10" x="774" y="306.9395"/><polygon fill="#181818" points="356,86.5332,366,90.5332,356,94.5332,360,90.5332" style="stroke:#181818;stroke-width:1.0;"/><line style="stroke:#181818;stroke-width:1.0;" x1="0" x2="362" y1="90.5332" y2="90.5332"/><text fill="#000000" font-family="sans-serif" font-size="13" font-weight="bold" lengthAdjust="spacing" textLength="14" x="7" y="85.2705">45</text><text fill="#000000" font-family="sans-serif" font-size="13" lengthAdjust="spacing" textLength="331" x="25" y="85.2705">registerEntryToDoList(greenSpace,task,urgency,duration)</text><path d="M325.5,105.5332 L458.5,105.5332 L458.5,114.8242 L448.5,124.8242 L325.5,124.8242 L325.5,105.5332 " fill="#EEEEEE" style="stroke:#000000;stroke-width:1.5;"/><rect fill="none" height="467.1523" style="stroke:#000000;stroke-width:1.5;" width="585.5" x="325.5" y="105.5332"/><text fill="#000000" font-family="sans-serif" font-size="13" font-weight="bold" lengthAdjust="spacing" textLength="88" x="340.5" y="120.5615">Register Entry</text><line style="stroke:#181818;stroke-width:1.0;" x1="378" x2="425" y1="143.1152" y2="143.1152"/><line style="stroke:#181818;stroke-width:1.0;" x1="425" x2="425" y1="143.1152" y2="156.1152"/><line style="stroke:#181818;stroke-width:1.0;" x1="384" x2="425" y1="156.1152" y2="156.1152"/><polygon fill="#181818" points="394,152.1152,384,156.1152,394,160.1152,390,156.1152" style="stroke:#181818;stroke-width:1.0;"/><text fill="#000000" font-family="sans-serif" font-size="13" font-weight="bold" lengthAdjust="spacing" textLength="25" x="390" y="137.8525">45.1</text><text fill="#000000" font-family="sans-serif" font-size="13" lengthAdjust="spacing" textLength="156" x="419" y="137.8525">generateUniqueReference()</text><line style="stroke:#181818;stroke-width:1.0;stroke-dasharray:2.0,2.0;" x1="383" x2="425" y1="197.4063" y2="197.4063"/><line style="stroke:#181818;stroke-width:1.0;stroke-dasharray:2.0,2.0;" x1="425" x2="425" y1="197.4063" y2="210.4063"/><line style="stroke:#181818;stroke-width:1.0;stroke-dasharray:2.0,2.0;" x1="378" x2="425" y1="210.4063" y2="210.4063"/><polygon fill="#181818" points="388,206.4063,378,210.4063,388,214.4063,384,210.4063" style="stroke:#181818;stroke-width:1.0;"/><text fill="#000000" font-family="sans-serif" font-size="13" font-weight="bold" lengthAdjust="spacing" textLength="25" x="390" y="192.1436">45.2</text><text fill="#000000" font-family="sans-serif" font-size="13" lengthAdjust="spacing" textLength="44" x="419" y="192.1436">taskRef</text><polygon fill="#181818" points="709,232.6973,719,236.6973,709,240.6973,713,236.6973" style="stroke:#181818;stroke-width:1.0;"/><line style="stroke:#181818;stroke-width:1.0;" x1="378" x2="715" y1="236.6973" y2="236.6973"/><text fill="#000000" font-family="sans-serif" font-size="13" font-weight="bold" lengthAdjust="spacing" textLength="25" x="385" y="231.4346">45.3</text><text fill="#000000" font-family="sans-serif" font-size="13" lengthAdjust="spacing" textLength="290" x="414" y="231.4346">create(greenSpace,task,urgency,duration,taskRef)</text><rect fill="#E3E3E3" height="51.2422" rx="2.5" ry="2.5" style="stroke:#181818;stroke-width:0.5;" width="106" x="721" y="213.4063"/><text fill="#000000" font-family="sans-serif" font-size="14" lengthAdjust="spacing" textLength="46" x="751" y="235.5137">taskTdl</text><text fill="#000000" font-family="sans-serif" font-size="14" lengthAdjust="spacing" textLength="92" x="728" y="254.1348">:TaskToDoList</text><line style="stroke:#181818;stroke-width:1.0;" x1="779" x2="826" y1="293.9395" y2="293.9395"/><line style="stroke:#181818;stroke-width:1.0;" x1="826" x2="826" y1="293.9395" y2="306.9395"/><line style="stroke:#181818;stroke-width:1.0;" x1="785" x2="826" y1="306.9395" y2="306.9395"/><polygon fill="#181818" points="795,302.9395,785,306.9395,795,310.9395,791,306.9395" style="stroke:#181818;stroke-width:1.0;"/><text fill="#000000" font-family="sans-serif" font-size="13" font-weight="bold" lengthAdjust="spacing" textLength="25" x="791" y="288.6768">45.4</text><text fill="#000000" font-family="sans-serif" font-size="13" lengthAdjust="spacing" textLength="79" x="820" y="288.6768">validateTask()</text><line style="stroke:#181818;stroke-width:1.0;stroke-dasharray:2.0,2.0;" x1="784" x2="826" y1="348.2305" y2="348.2305"/><line style="stroke:#181818;stroke-width:1.0;stroke-dasharray:2.0,2.0;" x1="826" x2="826" y1="348.2305" y2="361.2305"/><line style="stroke:#181818;stroke-width:1.0;stroke-dasharray:2.0,2.0;" x1="779" x2="826" y1="361.2305" y2="361.2305"/><polygon fill="#181818" points="789,357.2305,779,361.2305,789,365.2305,785,361.2305" style="stroke:#181818;stroke-width:1.0;"/><text fill="#000000" font-family="sans-serif" font-size="13" font-weight="bold" lengthAdjust="spacing" textLength="25" x="791" y="342.9678">45.5</text><text fill="#000000" font-family="sans-serif" font-size="13" lengthAdjust="spacing" textLength="53" x="820" y="342.9678">true/false</text><polygon fill="#181818" points="389,383.5215,379,387.5215,389,391.5215,385,387.5215" style="stroke:#181818;stroke-width:1.0;"/><line style="stroke:#181818;stroke-width:1.0;stroke-dasharray:2.0,2.0;" x1="383" x2="773" y1="387.5215" y2="387.5215"/><text fill="#000000" font-family="sans-serif" font-size="13" font-weight="bold" lengthAdjust="spacing" textLength="25" x="395" y="382.2588">45.6</text><text fill="#000000" font-family="sans-serif" font-size="13" lengthAdjust="spacing" textLength="42" x="424" y="382.2588">taskTdl</text><line style="stroke:#181818;stroke-width:1.0;" x1="378" x2="425" y1="413.8125" y2="413.8125"/><line style="stroke:#181818;stroke-width:1.0;" x1="425" x2="425" y1="413.8125" y2="426.8125"/><line style="stroke:#181818;stroke-width:1.0;" x1="384" x2="425" y1="426.8125" y2="426.8125"/><polygon fill="#181818" points="394,422.8125,384,426.8125,394,430.8125,390,426.8125" style="stroke:#181818;stroke-width:1.0;"/><text fill="#000000" font-family="sans-serif" font-size="13" font-weight="bold" lengthAdjust="spacing" textLength="25" x="390" y="408.5498">45.7</text><text fill="#000000" font-family="sans-serif" font-size="13" lengthAdjust="spacing" textLength="150" x="419" y="408.5498">addTaskToDoList(taskTdl)</text><line style="stroke:#181818;stroke-width:1.0;" x1="383" x2="430" y1="458.1035" y2="458.1035"/><line style="stroke:#181818;stroke-width:1.0;" x1="430" x2="430" y1="458.1035" y2="471.1035"/><line style="stroke:#181818;stroke-width:1.0;" x1="389" x2="430" y1="471.1035" y2="471.1035"/><polygon fill="#181818" points="399,467.1035,389,471.1035,399,475.1035,395,471.1035" style="stroke:#181818;stroke-width:1.0;"/><text fill="#000000" font-family="sans-serif" font-size="13" font-weight="bold" lengthAdjust="spacing" textLength="25" x="395" y="452.8408">45.8</text><text fill="#000000" font-family="sans-serif" font-size="13" lengthAdjust="spacing" textLength="172" x="424" y="452.8408">validateTaskToDoList(taskTdl)</text><line style="stroke:#181818;stroke-width:1.0;stroke-dasharray:2.0,2.0;" x1="388" x2="430" y1="512.3945" y2="512.3945"/><line style="stroke:#181818;stroke-width:1.0;stroke-dasharray:2.0,2.0;" x1="430" x2="430" y1="512.3945" y2="525.3945"/><line style="stroke:#181818;stroke-width:1.0;stroke-dasharray:2.0,2.0;" x1="383" x2="430" y1="525.3945" y2="525.3945"/><polygon fill="#181818" points="393,521.3945,383,525.3945,393,529.3945,389,525.3945" style="stroke:#181818;stroke-width:1.0;"/><text fill="#000000" font-family="sans-serif" font-size="13" font-weight="bold" lengthAdjust="spacing" textLength="25" x="395" y="507.1318">45.9</text><text fill="#000000" font-family="sans-serif" font-size="13" lengthAdjust="spacing" textLength="53" x="424" y="507.1318">true/false</text><line style="stroke:#181818;stroke-width:1.0;stroke-dasharray:2.0,2.0;" x1="383" x2="425" y1="556.6855" y2="556.6855"/><line style="stroke:#181818;stroke-width:1.0;stroke-dasharray:2.0,2.0;" x1="425" x2="425" y1="556.6855" y2="569.6855"/><line style="stroke:#181818;stroke-width:1.0;stroke-dasharray:2.0,2.0;" x1="378" x2="425" y1="569.6855" y2="569.6855"/><polygon fill="#181818" points="388,565.6855,378,569.6855,388,573.6855,384,569.6855" style="stroke:#181818;stroke-width:1.0;"/><text fill="#000000" font-family="sans-serif" font-size="13" font-weight="bold" lengthAdjust="spacing" textLength="32" x="390" y="551.4229">45.10</text><text fill="#000000" font-family="sans-serif" font-size="13" lengthAdjust="spacing" textLength="53" x="426" y="551.4229">true/false</text><polygon fill="#181818" points="11,598.9766,1,602.9766,11,606.9766,7,602.9766" style="stroke:#181818;stroke-width:1.0;"/><line style="stroke:#181818;stroke-width:1.0;stroke-dasharray:2.0,2.0;" x1="5" x2="372" y1="602.9766" y2="602.9766"/><text fill="#000000" font-family="sans-serif" font-size="13" font-weight="bold" lengthAdjust="spacing" textLength="14" x="17" y="597.7139">46</text><text fill="#000000" font-family="sans-serif" font-size="13" lengthAdjust="spacing" textLength="42" x="35" y="597.7139">taskTdl</text><!--SRC=[dP8zRy8m48Pt_mgB2L1eLQdj45MTwCO4TEjojGzZ9R5JVr3nxtiE8OGWYbeljixl-zoTVRxGfWO75Q-iiMBhR8Kyk8ZCTpSrY08KhiA-HEvG132gx0ly5gJzraRn3PGU6QDmq4BNO08V1Jkt2-t3XydNxN74mVFrV34GWY_MiaowT3hJ9Z636Ao9rISw_lZ4Pgy9aLD5YcJetanm-wDhh1oYML7fc2Lk5fr28_QPZ0w2jcOomDqzC111xo1WKncdfPoDDL-sVDuaOAovIeja_5W4mP70-6xqLyGbRj1HEXnFElK5lKCS6QbESdQN4iyy5tbfdqvpBXoIv6R3MOkV740dz3cx1y_v3aejIPJ-estbLrzdJ1DqVnY6OITNRBGVNe0cu8Qdz-mWPNzMnYrWMEerUx-_FpDELLzlzh-c548Zsw_gpUbp4tcPpGOlDapw0m00]--></g></svg>