<?xml version="1.0" encoding="us-ascii" standalone="no"?><svg xmlns="http://www.w3.org/2000/svg" xmlns:xlink="http://www.w3.org/1999/xlink" contentStyleType="text/css" height="1742.3px" preserveAspectRatio="none" style="width:1195px;height:1742px;background:#FFFFFF;" version="1.1" viewBox="0 0 1195 1742" width="1195.6px" zoomAndPan="magnify"><defs/><g><!--cluster UI--><g id="cluster_UI"><path d="M500.85,4.2096 L511.35,4.2096 A2.625,2.625 0 0 1 513.1,5.9596 L518,21.4443 L651.35,21.4443 A1.75,1.75 0 0 1 653.1,23.1943 L653.1,73.1596 A1.75,1.75 0 0 1 651.35,74.9096 L500.85,74.9096 A1.75,1.75 0 0 1 499.1,73.1596 L499.1,5.9596 A1.75,1.75 0 0 1 500.85,4.2096 " fill="none" style="stroke:#000000;stroke-width:1.0499999999999998;"/><line style="stroke:#000000;stroke-width:1.0499999999999998;" x1="499.1" x2="518" y1="21.4443" y2="21.4443"/><text fill="#000000" font-family="sans-serif" font-size="9.8" font-weight="bold" lengthAdjust="spacing" textLength="9.8" x="501.9" y="16.1848">UI</text></g><!--cluster Controller--><g id="cluster_Controller"><path d="M321.65,98.0096 L372.05,98.0096 A2.625,2.625 0 0 1 373.8,99.7596 L378.7,115.2443 L830.55,115.2443 A1.75,1.75 0 0 1 832.3,116.9943 L832.3,218.7596 A1.75,1.75 0 0 1 830.55,220.5096 L321.65,220.5096 A1.75,1.75 0 0 1 319.9,218.7596 L319.9,99.7596 A1.75,1.75 0 0 1 321.65,98.0096 " fill="none" style="stroke:#000000;stroke-width:1.0499999999999998;"/><line style="stroke:#000000;stroke-width:1.0499999999999998;" x1="319.9" x2="378.7" y1="115.2443" y2="115.2443"/><text fill="#000000" font-family="sans-serif" font-size="9.8" font-weight="bold" lengthAdjust="spacing" textLength="49.7" x="322.7" y="109.9848">Controller</text></g><!--cluster Domain--><g id="cluster_Domain"><path d="M66.85,299.6096 L103.95,299.6096 A2.625,2.625 0 0 1 105.7,301.3596 L110.6,316.8443 L1123.15,316.8443 A1.75,1.75 0 0 1 1124.9,318.5943 L1124.9,1735.6596 A1.75,1.75 0 0 1 1123.15,1737.4096 L66.85,1737.4096 A1.75,1.75 0 0 1 65.1,1735.6596 L65.1,301.3596 A1.75,1.75 0 0 1 66.85,299.6096 " fill="none" style="stroke:#000000;stroke-width:1.0499999999999998;"/><line style="stroke:#000000;stroke-width:1.0499999999999998;" x1="65.1" x2="110.6" y1="316.8443" y2="316.8443"/><text fill="#000000" font-family="sans-serif" font-size="9.8" font-weight="bold" lengthAdjust="spacing" textLength="36.4" x="67.9" y="311.5848">Domain</text></g><!--cluster Application--><g id="cluster_Application"><path d="M732.55,357.3596 L787.85,357.3596 A2.625,2.625 0 0 1 789.6,359.1096 L794.5,374.5943 L914.55,374.5943 A1.75,1.75 0 0 1 916.3,376.3443 L916.3,580.6596 A1.75,1.75 0 0 1 914.55,582.4096 L732.55,582.4096 A1.75,1.75 0 0 1 730.8,580.6596 L730.8,359.1096 A1.75,1.75 0 0 1 732.55,357.3596 " fill="none" style="stroke:#000000;stroke-width:1.0499999999999998;"/><line style="stroke:#000000;stroke-width:1.0499999999999998;" x1="730.8" x2="794.5" y1="374.5943" y2="374.5943"/><text fill="#000000" font-family="sans-serif" font-size="9.8" font-weight="bold" lengthAdjust="spacing" textLength="54.6" x="733.6" y="369.3348">Application</text></g><!--cluster Model--><g id="cluster_Model"><path d="M83.65,811.3096 L115.15,811.3096 A2.625,2.625 0 0 1 116.9,813.0596 L121.8,828.5443 L1106.35,828.5443 A1.75,1.75 0 0 1 1108.1,830.2943 L1108.1,1718.8596 A1.75,1.75 0 0 1 1106.35,1720.6096 L83.65,1720.6096 A1.75,1.75 0 0 1 81.9,1718.8596 L81.9,813.0596 A1.75,1.75 0 0 1 83.65,811.3096 " fill="none" style="stroke:#000000;stroke-width:1.0499999999999998;"/><line style="stroke:#000000;stroke-width:1.0499999999999998;" x1="81.9" x2="121.8" y1="828.5443" y2="828.5443"/><text fill="#000000" font-family="sans-serif" font-size="9.8" font-weight="bold" lengthAdjust="spacing" textLength="30.8" x="84.7" y="823.2848">Model</text></g><!--cluster Repository--><g id="cluster_Repository"><path d="M280.35,331.1096 L334.25,331.1096 A2.625,2.625 0 0 1 336,332.8596 L340.9,348.3443 L712.25,348.3443 A1.75,1.75 0 0 1 714,350.0943 L714,786.4596 A1.75,1.75 0 0 1 712.25,788.2096 L280.35,788.2096 A1.75,1.75 0 0 1 278.6,786.4596 L278.6,332.8596 A1.75,1.75 0 0 1 280.35,331.1096 " fill="none" style="stroke:#000000;stroke-width:1.0499999999999998;"/><line style="stroke:#000000;stroke-width:1.0499999999999998;" x1="278.6" x2="340.9" y1="348.3443" y2="348.3443"/><text fill="#000000" font-family="sans-serif" font-size="9.8" font-weight="bold" lengthAdjust="spacing" textLength="53.2" x="281.4" y="343.0848">Repository</text></g><!--class RegisterEntryToDoListUI--><g id="elem_RegisterEntryToDoListUI"><rect codeLine="9" fill="#F1F1F1" height="33.6" id="RegisterEntryToDoListUI" rx="1.75" ry="1.75" style="stroke:#181818;stroke-width:0.3499999999999999;" width="130.9" x="510.65" y="30.1096"/><ellipse cx="521.15" cy="41.3096" fill="#ADD1B2" rx="7.7" ry="7.7" style="stroke:#181818;stroke-width:0.6999999999999998;"/><path d="M523.0859,38.4221 Q523.1953,38.2689 523.3266,38.1924 Q523.4578,38.1158 523.6109,38.1158 Q523.8734,38.1158 524.0375,38.3018 Q524.2016,38.4768 524.2016,38.9033 L524.2016,39.9205 Q524.2016,40.3471 524.0375,40.533 Q523.8734,40.7189 523.6109,40.7189 Q523.3703,40.7189 523.2281,40.5768 Q523.0859,40.4455 523.0094,40.0846 Q522.9766,39.833 522.8453,39.7018 Q522.6156,39.4393 522.1891,39.2861 Q521.7625,39.133 521.325,39.133 Q520.7891,39.133 520.3406,39.3627 Q519.9031,39.5924 519.5531,40.1174 Q519.2141,40.6424 519.2141,41.3643 L519.2141,42.1299 Q519.2141,42.9939 519.8375,43.5736 Q520.4609,44.1424 521.5766,44.1424 Q522.2328,44.1424 522.6922,43.9674 Q522.9656,43.858 523.2609,43.5518 Q523.4469,43.3658 523.5453,43.3111 Q523.6547,43.2564 523.7969,43.2564 Q524.0266,43.2564 524.2016,43.4424 Q524.3875,43.6174 524.3875,43.858 Q524.3875,44.0986 524.1469,44.383 Q523.7969,44.7877 523.2391,45.0174 Q522.4844,45.3346 521.5766,45.3346 Q520.5156,45.3346 519.6734,44.8971 Q518.9844,44.5471 518.5031,43.8033 Q518.0219,43.0486 518.0219,42.1518 L518.0219,41.3424 Q518.0219,40.4127 518.4484,39.6143 Q518.8859,38.8049 519.6516,38.3783 Q520.4172,37.9408 521.2812,37.9408 Q521.7953,37.9408 522.2437,38.0611 Q522.7031,38.1705 523.0859,38.4221 Z " fill="#000000"/><text fill="#000000" font-family="sans-serif" font-size="9.8" lengthAdjust="spacing" textLength="108.5" x="530.95" y="45.3674">RegisterEntryToDoListUI</text><line style="stroke:#181818;stroke-width:0.3499999999999999;" x1="511.35" x2="640.85" y1="52.5096" y2="52.5096"/><line style="stroke:#181818;stroke-width:0.3499999999999999;" x1="511.35" x2="640.85" y1="58.1096" y2="58.1096"/></g><!--class RegisterEntryToDoListController--><g id="elem_RegisterEntryToDoListController"><rect codeLine="16" fill="#F1F1F1" height="85.7391" id="RegisterEntryToDoListController" rx="1.75" ry="1.75" style="stroke:#181818;stroke-width:0.3499999999999999;" width="489.3" x="331.45" y="123.9096"/><ellipse cx="501.375" cy="135.1096" fill="#ADD1B2" rx="7.7" ry="7.7" style="stroke:#181818;stroke-width:0.6999999999999998;"/><path d="M503.3109,132.2221 Q503.4203,132.0689 503.5516,131.9924 Q503.6828,131.9158 503.8359,131.9158 Q504.0984,131.9158 504.2625,132.1018 Q504.4266,132.2768 504.4266,132.7033 L504.4266,133.7205 Q504.4266,134.1471 504.2625,134.333 Q504.0984,134.5189 503.8359,134.5189 Q503.5953,134.5189 503.4531,134.3768 Q503.3109,134.2455 503.2344,133.8846 Q503.2016,133.633 503.0703,133.5018 Q502.8406,133.2393 502.4141,133.0861 Q501.9875,132.933 501.55,132.933 Q501.0141,132.933 500.5656,133.1627 Q500.1281,133.3924 499.7781,133.9174 Q499.4391,134.4424 499.4391,135.1643 L499.4391,135.9299 Q499.4391,136.7939 500.0625,137.3736 Q500.6859,137.9424 501.8016,137.9424 Q502.4578,137.9424 502.9172,137.7674 Q503.1906,137.658 503.4859,137.3518 Q503.6719,137.1658 503.7703,137.1111 Q503.8797,137.0564 504.0219,137.0564 Q504.2516,137.0564 504.4266,137.2424 Q504.6125,137.4174 504.6125,137.658 Q504.6125,137.8986 504.3719,138.183 Q504.0219,138.5877 503.4641,138.8174 Q502.7094,139.1346 501.8016,139.1346 Q500.7406,139.1346 499.8984,138.6971 Q499.2094,138.3471 498.7281,137.6033 Q498.2469,136.8486 498.2469,135.9518 L498.2469,135.1424 Q498.2469,134.2127 498.6734,133.4143 Q499.1109,132.6049 499.8766,132.1783 Q500.6422,131.7408 501.5062,131.7408 Q502.0203,131.7408 502.4687,131.8611 Q502.9281,131.9705 503.3109,132.2221 Z " fill="#000000"/><text fill="#000000" font-family="sans-serif" font-size="9.8" lengthAdjust="spacing" textLength="143.5" x="515.725" y="139.1674">RegisterEntryToDoListController</text><line style="stroke:#181818;stroke-width:0.3499999999999999;" x1="332.15" x2="820.05" y1="146.3096" y2="146.3096"/><line style="stroke:#181818;stroke-width:0.3499999999999999;" x1="332.15" x2="820.05" y1="151.9096" y2="151.9096"/><ellipse cx="339.15" cy="162.277" fill="#84BE84" rx="2.1" ry="2.1" style="stroke:#038048;stroke-width:0.6999999999999998;"/><text fill="#000000" font-family="sans-serif" font-size="9.8" lengthAdjust="spacing" textLength="471.1" x="345.45" y="165.2848">RegisterEntryToDoListController(greenSpaceRepository, collaboratorRepository, taskRepository, toDoList)</text><ellipse cx="339.15" cy="175.3117" fill="#84BE84" rx="2.1" ry="2.1" style="stroke:#038048;stroke-width:0.6999999999999998;"/><text fill="#000000" font-family="sans-serif" font-size="9.8" lengthAdjust="spacing" textLength="77" x="345.45" y="178.3195">getGreenSpace()</text><ellipse cx="339.15" cy="188.3465" fill="#84BE84" rx="2.1" ry="2.1" style="stroke:#038048;stroke-width:0.6999999999999998;"/><text fill="#000000" font-family="sans-serif" font-size="9.8" lengthAdjust="spacing" textLength="331.1" x="345.45" y="191.3543">registerEntryToDoList(greenSpaceName,taskDescription,urgency,duration)</text><rect fill="#F24D5C" height="4.2" style="stroke:#C82930;stroke-width:0.6999999999999998;" width="4.2" x="337.05" y="199.2812"/><text fill="#000000" font-family="sans-serif" font-size="9.8" lengthAdjust="spacing" textLength="100.8" x="345.45" y="204.3891">getGSMFromSession()</text></g><!--class ApplicationSession--><g id="elem_ApplicationSession"><rect codeLine="30" fill="#F1F1F1" height="59.6695" id="ApplicationSession" rx="1.75" ry="1.75" style="stroke:#181818;stroke-width:0.3499999999999999;" width="107.8" x="742" y="383.2596"/><ellipse cx="753.445" cy="394.4596" fill="#ADD1B2" rx="7.7" ry="7.7" style="stroke:#181818;stroke-width:0.6999999999999998;"/><path d="M755.3809,391.5721 Q755.4903,391.4189 755.6216,391.3424 Q755.7528,391.2658 755.9059,391.2658 Q756.1684,391.2658 756.3325,391.4518 Q756.4966,391.6268 756.4966,392.0533 L756.4966,393.0705 Q756.4966,393.4971 756.3325,393.683 Q756.1684,393.8689 755.9059,393.8689 Q755.6653,393.8689 755.5231,393.7268 Q755.3809,393.5955 755.3044,393.2346 Q755.2716,392.983 755.1403,392.8518 Q754.9106,392.5893 754.4841,392.4361 Q754.0575,392.283 753.62,392.283 Q753.0841,392.283 752.6356,392.5127 Q752.1981,392.7424 751.8481,393.2674 Q751.5091,393.7924 751.5091,394.5143 L751.5091,395.2799 Q751.5091,396.1439 752.1325,396.7236 Q752.7559,397.2924 753.8716,397.2924 Q754.5278,397.2924 754.9872,397.1174 Q755.2606,397.008 755.5559,396.7018 Q755.7419,396.5158 755.8403,396.4611 Q755.9497,396.4064 756.0919,396.4064 Q756.3216,396.4064 756.4966,396.5924 Q756.6825,396.7674 756.6825,397.008 Q756.6825,397.2486 756.4419,397.533 Q756.0919,397.9377 755.5341,398.1674 Q754.7794,398.4846 753.8716,398.4846 Q752.8106,398.4846 751.9684,398.0471 Q751.2794,397.6971 750.7981,396.9533 Q750.3169,396.1986 750.3169,395.3018 L750.3169,394.4924 Q750.3169,393.5627 750.7434,392.7643 Q751.1809,391.9549 751.9466,391.5283 Q752.7122,391.0908 753.5762,391.0908 Q754.0903,391.0908 754.5387,391.2111 Q754.9981,391.3205 755.3809,391.5721 Z " fill="#000000"/><text fill="#000000" font-family="sans-serif" font-size="9.8" lengthAdjust="spacing" textLength="83.3" x="763.455" y="398.5174">ApplicationSession</text><line style="stroke:#181818;stroke-width:0.3499999999999999;" x1="742.7" x2="849.1" y1="405.6596" y2="405.6596"/><line style="stroke:#181818;stroke-width:0.3499999999999999;" x1="742.7" x2="849.1" y1="411.2596" y2="411.2596"/><ellipse cx="749.7" cy="421.627" fill="#84BE84" rx="2.1" ry="2.1" style="stroke:#038048;stroke-width:0.6999999999999998;"/><text fill="#000000" font-family="sans-serif" font-size="9.8" lengthAdjust="spacing" textLength="84" x="756" y="424.6348">static getInstance()</text><ellipse cx="749.7" cy="434.6617" fill="#84BE84" rx="2.1" ry="2.1" style="stroke:#038048;stroke-width:0.6999999999999998;"/><text fill="#000000" font-family="sans-serif" font-size="9.8" lengthAdjust="spacing" textLength="89.6" x="756" y="437.6695">getCurrentSession()</text></g><!--class UserSession--><g id="elem_UserSession"><rect codeLine="36" fill="#F1F1F1" height="46.6348" id="UserSession" rx="1.75" ry="1.75" style="stroke:#181818;stroke-width:0.3499999999999999;" width="83.3" x="804.65" y="524.3096"/><ellipse cx="817.67" cy="535.5096" fill="#ADD1B2" rx="7.7" ry="7.7" style="stroke:#181818;stroke-width:0.6999999999999998;"/><path d="M819.6059,532.6221 Q819.7153,532.4689 819.8466,532.3924 Q819.9778,532.3158 820.1309,532.3158 Q820.3934,532.3158 820.5575,532.5018 Q820.7216,532.6768 820.7216,533.1033 L820.7216,534.1205 Q820.7216,534.5471 820.5575,534.733 Q820.3934,534.9189 820.1309,534.9189 Q819.8903,534.9189 819.7481,534.7768 Q819.6059,534.6455 819.5294,534.2846 Q819.4966,534.033 819.3653,533.9018 Q819.1356,533.6393 818.7091,533.4861 Q818.2825,533.333 817.845,533.333 Q817.3091,533.333 816.8606,533.5627 Q816.4231,533.7924 816.0731,534.3174 Q815.7341,534.8424 815.7341,535.5643 L815.7341,536.3299 Q815.7341,537.1939 816.3575,537.7736 Q816.9809,538.3424 818.0966,538.3424 Q818.7528,538.3424 819.2122,538.1674 Q819.4856,538.058 819.7809,537.7518 Q819.9669,537.5658 820.0653,537.5111 Q820.1747,537.4564 820.3169,537.4564 Q820.5466,537.4564 820.7216,537.6424 Q820.9075,537.8174 820.9075,538.058 Q820.9075,538.2986 820.6669,538.583 Q820.3169,538.9877 819.7591,539.2174 Q819.0044,539.5346 818.0966,539.5346 Q817.0356,539.5346 816.1934,539.0971 Q815.5044,538.7471 815.0231,538.0033 Q814.5419,537.2486 814.5419,536.3518 L814.5419,535.5424 Q814.5419,534.6127 814.9684,533.8143 Q815.4059,533.0049 816.1716,532.5783 Q816.9372,532.1408 817.8012,532.1408 Q818.3153,532.1408 818.7637,532.2611 Q819.2231,532.3705 819.6059,532.6221 Z " fill="#000000"/><text fill="#000000" font-family="sans-serif" font-size="9.8" lengthAdjust="spacing" textLength="55.3" x="828.03" y="539.5674">UserSession</text><line style="stroke:#181818;stroke-width:0.3499999999999999;" x1="805.35" x2="887.25" y1="546.7096" y2="546.7096"/><line style="stroke:#181818;stroke-width:0.3499999999999999;" x1="805.35" x2="887.25" y1="552.3096" y2="552.3096"/><ellipse cx="812.35" cy="562.677" fill="#84BE84" rx="2.1" ry="2.1" style="stroke:#038048;stroke-width:0.6999999999999998;"/><text fill="#000000" font-family="sans-serif" font-size="9.8" lengthAdjust="spacing" textLength="65.1" x="818.65" y="565.6848">getUserEmail()</text></g><!--class GreenSpace--><g id="elem_GreenSpace"><rect codeLine="44" fill="#F1F1F1" height="85.7391" id="GreenSpace" rx="1.75" ry="1.75" style="stroke:#181818;stroke-width:0.3499999999999999;" width="145.6" x="668.5" y="1290.1096"/><ellipse cx="710.325" cy="1301.3096" fill="#B4A7E5" rx="7.7" ry="7.7" style="stroke:#181818;stroke-width:0.6999999999999998;"/><path d="M710.9922,1298.958 L710.9922,1303.6174 L712.1953,1303.6174 Q712.6219,1303.6174 712.8078,1303.7814 Q712.9937,1303.9455 712.9937,1304.2189 Q712.9937,1304.4814 712.8078,1304.6455 Q712.6219,1304.8096 712.1953,1304.8096 L708.5969,1304.8096 Q708.1703,1304.8096 707.9844,1304.6455 Q707.7984,1304.4814 707.7984,1304.208 Q707.7984,1303.9455 707.9844,1303.7814 Q708.1703,1303.6174 708.5969,1303.6174 L709.8,1303.6174 L709.8,1298.958 L708.5969,1298.958 Q708.1703,1298.958 707.9844,1298.7939 Q707.7984,1298.6299 707.7984,1298.3564 Q707.7984,1298.0939 707.9844,1297.9299 Q708.1703,1297.7658 708.5969,1297.7658 L712.1953,1297.7658 Q712.6219,1297.7658 712.8078,1297.9299 Q712.9937,1298.0939 712.9937,1298.3564 Q712.9937,1298.6299 712.8078,1298.7939 Q712.6219,1298.958 712.1953,1298.958 L710.9922,1298.958 Z " fill="#000000"/><text fill="#000000" font-family="sans-serif" font-size="9.8" font-style="italic" lengthAdjust="spacing" textLength="56" x="724.675" y="1305.3674">GreenSpace</text><line style="stroke:#181818;stroke-width:0.3499999999999999;" x1="669.2" x2="813.4" y1="1312.5096" y2="1312.5096"/><line style="stroke:#181818;stroke-width:0.3499999999999999;" x1="669.2" x2="813.4" y1="1318.1096" y2="1318.1096"/><ellipse cx="676.2" cy="1328.477" fill="#84BE84" rx="2.1" ry="2.1" style="stroke:#038048;stroke-width:0.6999999999999998;"/><text fill="#000000" font-family="sans-serif" font-size="9.8" lengthAdjust="spacing" textLength="46.2" x="682.5" y="1331.4848">getName()</text><ellipse cx="676.2" cy="1341.5117" fill="#84BE84" rx="2.1" ry="2.1" style="stroke:#038048;stroke-width:0.6999999999999998;"/><text fill="#000000" font-family="sans-serif" font-size="9.8" lengthAdjust="spacing" textLength="42" x="682.5" y="1344.5195">getArea()</text><ellipse cx="676.2" cy="1354.5465" fill="#84BE84" rx="2.1" ry="2.1" style="stroke:#038048;stroke-width:0.6999999999999998;"/><text fill="#000000" font-family="sans-serif" font-size="9.8" lengthAdjust="spacing" textLength="57.4" x="682.5" y="1357.5543">getAddress()</text><ellipse cx="676.2" cy="1367.5812" fill="#84BE84" rx="2.1" ry="2.1" style="stroke:#038048;stroke-width:0.6999999999999998;"/><text fill="#000000" font-family="sans-serif" font-size="9.8" lengthAdjust="spacing" textLength="127.4" x="682.5" y="1370.5891">hasName(greenSpaceName)</text></g><!--class GreenSpaces--><g id="elem_GreenSpaces"><rect codeLine="51" fill="#F1F1F1" height="46.6348" id="GreenSpaces" rx="1.75" ry="1.75" style="stroke:#181818;stroke-width:0.3499999999999999;" width="129.5" x="902.65" y="1309.3596"/><ellipse cx="933.975" cy="1320.5596" fill="#ADD1B2" rx="7.7" ry="7.7" style="stroke:#181818;stroke-width:0.6999999999999998;"/><path d="M935.9109,1317.6721 Q936.0203,1317.5189 936.1516,1317.4424 Q936.2828,1317.3658 936.4359,1317.3658 Q936.6984,1317.3658 936.8625,1317.5518 Q937.0266,1317.7268 937.0266,1318.1533 L937.0266,1319.1705 Q937.0266,1319.5971 936.8625,1319.783 Q936.6984,1319.9689 936.4359,1319.9689 Q936.1953,1319.9689 936.0531,1319.8268 Q935.9109,1319.6955 935.8344,1319.3346 Q935.8016,1319.083 935.6703,1318.9518 Q935.4406,1318.6893 935.0141,1318.5361 Q934.5875,1318.383 934.15,1318.383 Q933.6141,1318.383 933.1656,1318.6127 Q932.7281,1318.8424 932.3781,1319.3674 Q932.0391,1319.8924 932.0391,1320.6143 L932.0391,1321.3799 Q932.0391,1322.2439 932.6625,1322.8236 Q933.2859,1323.3924 934.4016,1323.3924 Q935.0578,1323.3924 935.5172,1323.2174 Q935.7906,1323.108 936.0859,1322.8018 Q936.2719,1322.6158 936.3703,1322.5611 Q936.4797,1322.5064 936.6219,1322.5064 Q936.8516,1322.5064 937.0266,1322.6924 Q937.2125,1322.8674 937.2125,1323.108 Q937.2125,1323.3486 936.9719,1323.633 Q936.6219,1324.0377 936.0641,1324.2674 Q935.3094,1324.5846 934.4016,1324.5846 Q933.3406,1324.5846 932.4984,1324.1471 Q931.8094,1323.7971 931.3281,1323.0533 Q930.8469,1322.2986 930.8469,1321.4018 L930.8469,1320.5924 Q930.8469,1319.6627 931.2734,1318.8643 Q931.7109,1318.0549 932.4766,1317.6283 Q933.2422,1317.1908 934.1062,1317.1908 Q934.6203,1317.1908 935.0687,1317.3111 Q935.5281,1317.4205 935.9109,1317.6721 Z " fill="#000000"/><text fill="#000000" font-family="sans-serif" font-size="9.8" lengthAdjust="spacing" textLength="60.9" x="948.325" y="1324.6174">GreenSpaces</text><line style="stroke:#181818;stroke-width:0.3499999999999999;" x1="903.35" x2="1031.45" y1="1331.7596" y2="1331.7596"/><line style="stroke:#181818;stroke-width:0.3499999999999999;" x1="903.35" x2="1031.45" y1="1337.3596" y2="1337.3596"/><ellipse cx="910.35" cy="1347.727" fill="#84BE84" rx="2.1" ry="2.1" style="stroke:#038048;stroke-width:0.6999999999999998;"/><text fill="#000000" font-family="sans-serif" font-size="9.8" lengthAdjust="spacing" textLength="111.3" x="916.65" y="1350.7348">getSortedGreenSpaces()</text></g><!--class Garden--><g id="elem_Garden"><rect codeLine="56" fill="#F1F1F1" height="137.8781" id="Garden" rx="1.75" ry="1.75" style="stroke:#181818;stroke-width:0.3499999999999999;" width="205.1" x="398.65" y="1430.8096"/><ellipse cx="481.425" cy="1442.0096" fill="#ADD1B2" rx="7.7" ry="7.7" style="stroke:#181818;stroke-width:0.6999999999999998;"/><path d="M483.3609,1439.1221 Q483.4703,1438.9689 483.6016,1438.8924 Q483.7328,1438.8158 483.8859,1438.8158 Q484.1484,1438.8158 484.3125,1439.0018 Q484.4766,1439.1768 484.4766,1439.6033 L484.4766,1440.6205 Q484.4766,1441.0471 484.3125,1441.233 Q484.1484,1441.4189 483.8859,1441.4189 Q483.6453,1441.4189 483.5031,1441.2768 Q483.3609,1441.1455 483.2844,1440.7846 Q483.2516,1440.533 483.1203,1440.4018 Q482.8906,1440.1393 482.4641,1439.9861 Q482.0375,1439.833 481.6,1439.833 Q481.0641,1439.833 480.6156,1440.0627 Q480.1781,1440.2924 479.8281,1440.8174 Q479.4891,1441.3424 479.4891,1442.0643 L479.4891,1442.8299 Q479.4891,1443.6939 480.1125,1444.2736 Q480.7359,1444.8424 481.8516,1444.8424 Q482.5078,1444.8424 482.9672,1444.6674 Q483.2406,1444.558 483.5359,1444.2518 Q483.7219,1444.0658 483.8203,1444.0111 Q483.9297,1443.9564 484.0719,1443.9564 Q484.3016,1443.9564 484.4766,1444.1424 Q484.6625,1444.3174 484.6625,1444.558 Q484.6625,1444.7986 484.4219,1445.083 Q484.0719,1445.4877 483.5141,1445.7174 Q482.7594,1446.0346 481.8516,1446.0346 Q480.7906,1446.0346 479.9484,1445.5971 Q479.2594,1445.2471 478.7781,1444.5033 Q478.2969,1443.7486 478.2969,1442.8518 L478.2969,1442.0424 Q478.2969,1441.1127 478.7234,1440.3143 Q479.1609,1439.5049 479.9266,1439.0783 Q480.6922,1438.6408 481.5562,1438.6408 Q482.0703,1438.6408 482.5187,1438.7611 Q482.9781,1438.8705 483.3609,1439.1221 Z " fill="#000000"/><text fill="#000000" font-family="sans-serif" font-size="9.8" lengthAdjust="spacing" textLength="33.6" x="495.775" y="1446.0674">Garden</text><line style="stroke:#181818;stroke-width:0.3499999999999999;" x1="399.35" x2="603.05" y1="1453.2096" y2="1453.2096"/><rect fill="none" height="4.2" style="stroke:#C82930;stroke-width:0.6999999999999998;" width="4.2" x="404.25" y="1461.477"/><text fill="#000000" font-family="sans-serif" font-size="9.8" lengthAdjust="spacing" textLength="53.2" x="412.65" y="1466.5848">String name</text><rect fill="none" height="4.2" style="stroke:#C82930;stroke-width:0.6999999999999998;" width="4.2" x="404.25" y="1474.5117"/><text fill="#000000" font-family="sans-serif" font-size="9.8" lengthAdjust="spacing" textLength="33.6" x="412.65" y="1479.6195">int area</text><rect fill="none" height="4.2" style="stroke:#C82930;stroke-width:0.6999999999999998;" width="4.2" x="404.25" y="1487.5465"/><text fill="#000000" font-family="sans-serif" font-size="9.8" lengthAdjust="spacing" textLength="36.4" x="412.65" y="1492.6543">Address</text><line style="stroke:#181818;stroke-width:0.3499999999999999;" x1="399.35" x2="603.05" y1="1497.9139" y2="1497.9139"/><ellipse cx="406.35" cy="1508.2812" fill="#84BE84" rx="2.1" ry="2.1" style="stroke:#038048;stroke-width:0.6999999999999998;"/><text fill="#000000" font-family="sans-serif" font-size="9.8" lengthAdjust="spacing" textLength="186.9" x="412.65" y="1511.2891">Garden(name,area,streetName,postCode)</text><ellipse cx="406.35" cy="1521.316" fill="#84BE84" rx="2.1" ry="2.1" style="stroke:#038048;stroke-width:0.6999999999999998;"/><text fill="#000000" font-family="sans-serif" font-size="9.8" lengthAdjust="spacing" textLength="46.2" x="412.65" y="1524.3238">getName()</text><ellipse cx="406.35" cy="1534.3508" fill="#84BE84" rx="2.1" ry="2.1" style="stroke:#038048;stroke-width:0.6999999999999998;"/><text fill="#000000" font-family="sans-serif" font-size="9.8" lengthAdjust="spacing" textLength="42" x="412.65" y="1537.3586">getArea()</text><ellipse cx="406.35" cy="1547.3855" fill="#84BE84" rx="2.1" ry="2.1" style="stroke:#038048;stroke-width:0.6999999999999998;"/><text fill="#000000" font-family="sans-serif" font-size="9.8" lengthAdjust="spacing" textLength="57.4" x="412.65" y="1550.3934">getAddress()</text><ellipse cx="406.35" cy="1560.4203" fill="#84BE84" rx="2.1" ry="2.1" style="stroke:#038048;stroke-width:0.6999999999999998;"/><text fill="#000000" font-family="sans-serif" font-size="9.8" lengthAdjust="spacing" textLength="127.4" x="412.65" y="1563.4281">hasName(greenSpaceName)</text></g><!--class MediumPark--><g id="elem_MediumPark"><rect codeLine="68" fill="#F1F1F1" height="137.8781" id="MediumPark" rx="1.75" ry="1.75" style="stroke:#181818;stroke-width:0.3499999999999999;" width="226.1" x="628.25" y="1430.8096"/><ellipse cx="711.025" cy="1442.0096" fill="#ADD1B2" rx="7.7" ry="7.7" style="stroke:#181818;stroke-width:0.6999999999999998;"/><path d="M712.9609,1439.1221 Q713.0703,1438.9689 713.2016,1438.8924 Q713.3328,1438.8158 713.4859,1438.8158 Q713.7484,1438.8158 713.9125,1439.0018 Q714.0766,1439.1768 714.0766,1439.6033 L714.0766,1440.6205 Q714.0766,1441.0471 713.9125,1441.233 Q713.7484,1441.4189 713.4859,1441.4189 Q713.2453,1441.4189 713.1031,1441.2768 Q712.9609,1441.1455 712.8844,1440.7846 Q712.8516,1440.533 712.7203,1440.4018 Q712.4906,1440.1393 712.0641,1439.9861 Q711.6375,1439.833 711.2,1439.833 Q710.6641,1439.833 710.2156,1440.0627 Q709.7781,1440.2924 709.4281,1440.8174 Q709.0891,1441.3424 709.0891,1442.0643 L709.0891,1442.8299 Q709.0891,1443.6939 709.7125,1444.2736 Q710.3359,1444.8424 711.4516,1444.8424 Q712.1078,1444.8424 712.5672,1444.6674 Q712.8406,1444.558 713.1359,1444.2518 Q713.3219,1444.0658 713.4203,1444.0111 Q713.5297,1443.9564 713.6719,1443.9564 Q713.9016,1443.9564 714.0766,1444.1424 Q714.2625,1444.3174 714.2625,1444.558 Q714.2625,1444.7986 714.0219,1445.083 Q713.6719,1445.4877 713.1141,1445.7174 Q712.3594,1446.0346 711.4516,1446.0346 Q710.3906,1446.0346 709.5484,1445.5971 Q708.8594,1445.2471 708.3781,1444.5033 Q707.8969,1443.7486 707.8969,1442.8518 L707.8969,1442.0424 Q707.8969,1441.1127 708.3234,1440.3143 Q708.7609,1439.5049 709.5266,1439.0783 Q710.2922,1438.6408 711.1562,1438.6408 Q711.6703,1438.6408 712.1187,1438.7611 Q712.5781,1438.8705 712.9609,1439.1221 Z " fill="#000000"/><text fill="#000000" font-family="sans-serif" font-size="9.8" lengthAdjust="spacing" textLength="54.6" x="725.375" y="1446.0674">MediumPark</text><line style="stroke:#181818;stroke-width:0.3499999999999999;" x1="628.95" x2="853.65" y1="1453.2096" y2="1453.2096"/><rect fill="none" height="4.2" style="stroke:#C82930;stroke-width:0.6999999999999998;" width="4.2" x="633.85" y="1461.477"/><text fill="#000000" font-family="sans-serif" font-size="9.8" lengthAdjust="spacing" textLength="53.2" x="642.25" y="1466.5848">String name</text><rect fill="none" height="4.2" style="stroke:#C82930;stroke-width:0.6999999999999998;" width="4.2" x="633.85" y="1474.5117"/><text fill="#000000" font-family="sans-serif" font-size="9.8" lengthAdjust="spacing" textLength="33.6" x="642.25" y="1479.6195">int area</text><rect fill="none" height="4.2" style="stroke:#C82930;stroke-width:0.6999999999999998;" width="4.2" x="633.85" y="1487.5465"/><text fill="#000000" font-family="sans-serif" font-size="9.8" lengthAdjust="spacing" textLength="36.4" x="642.25" y="1492.6543">Address</text><line style="stroke:#181818;stroke-width:0.3499999999999999;" x1="628.95" x2="853.65" y1="1497.9139" y2="1497.9139"/><ellipse cx="635.95" cy="1508.2812" fill="#84BE84" rx="2.1" ry="2.1" style="stroke:#038048;stroke-width:0.6999999999999998;"/><text fill="#000000" font-family="sans-serif" font-size="9.8" lengthAdjust="spacing" textLength="46.2" x="642.25" y="1511.2891">getName()</text><ellipse cx="635.95" cy="1521.316" fill="#84BE84" rx="2.1" ry="2.1" style="stroke:#038048;stroke-width:0.6999999999999998;"/><text fill="#000000" font-family="sans-serif" font-size="9.8" lengthAdjust="spacing" textLength="42" x="642.25" y="1524.3238">getArea()</text><ellipse cx="635.95" cy="1534.3508" fill="#84BE84" rx="2.1" ry="2.1" style="stroke:#038048;stroke-width:0.6999999999999998;"/><text fill="#000000" font-family="sans-serif" font-size="9.8" lengthAdjust="spacing" textLength="57.4" x="642.25" y="1537.3586">getAddress()</text><ellipse cx="635.95" cy="1547.3855" fill="#84BE84" rx="2.1" ry="2.1" style="stroke:#038048;stroke-width:0.6999999999999998;"/><text fill="#000000" font-family="sans-serif" font-size="9.8" lengthAdjust="spacing" textLength="207.9" x="642.25" y="1550.3934">MediumPark(name,area,streetName,postCode)</text><ellipse cx="635.95" cy="1560.4203" fill="#84BE84" rx="2.1" ry="2.1" style="stroke:#038048;stroke-width:0.6999999999999998;"/><text fill="#000000" font-family="sans-serif" font-size="9.8" lengthAdjust="spacing" textLength="127.4" x="642.25" y="1563.4281">hasName(greenSpaceName)</text></g><!--class LargePark--><g id="elem_LargePark"><rect codeLine="80" fill="#F1F1F1" height="137.8781" id="LargePark" rx="1.75" ry="1.75" style="stroke:#181818;stroke-width:0.3499999999999999;" width="217.7" x="878.85" y="1430.8096"/><ellipse cx="961.625" cy="1442.0096" fill="#ADD1B2" rx="7.7" ry="7.7" style="stroke:#181818;stroke-width:0.6999999999999998;"/><path d="M963.5609,1439.1221 Q963.6703,1438.9689 963.8016,1438.8924 Q963.9328,1438.8158 964.0859,1438.8158 Q964.3484,1438.8158 964.5125,1439.0018 Q964.6766,1439.1768 964.6766,1439.6033 L964.6766,1440.6205 Q964.6766,1441.0471 964.5125,1441.233 Q964.3484,1441.4189 964.0859,1441.4189 Q963.8453,1441.4189 963.7031,1441.2768 Q963.5609,1441.1455 963.4844,1440.7846 Q963.4516,1440.533 963.3203,1440.4018 Q963.0906,1440.1393 962.6641,1439.9861 Q962.2375,1439.833 961.8,1439.833 Q961.2641,1439.833 960.8156,1440.0627 Q960.3781,1440.2924 960.0281,1440.8174 Q959.6891,1441.3424 959.6891,1442.0643 L959.6891,1442.8299 Q959.6891,1443.6939 960.3125,1444.2736 Q960.9359,1444.8424 962.0516,1444.8424 Q962.7078,1444.8424 963.1672,1444.6674 Q963.4406,1444.558 963.7359,1444.2518 Q963.9219,1444.0658 964.0203,1444.0111 Q964.1297,1443.9564 964.2719,1443.9564 Q964.5016,1443.9564 964.6766,1444.1424 Q964.8625,1444.3174 964.8625,1444.558 Q964.8625,1444.7986 964.6219,1445.083 Q964.2719,1445.4877 963.7141,1445.7174 Q962.9594,1446.0346 962.0516,1446.0346 Q960.9906,1446.0346 960.1484,1445.5971 Q959.4594,1445.2471 958.9781,1444.5033 Q958.4969,1443.7486 958.4969,1442.8518 L958.4969,1442.0424 Q958.4969,1441.1127 958.9234,1440.3143 Q959.3609,1439.5049 960.1266,1439.0783 Q960.8922,1438.6408 961.7562,1438.6408 Q962.2703,1438.6408 962.7187,1438.7611 Q963.1781,1438.8705 963.5609,1439.1221 Z " fill="#000000"/><text fill="#000000" font-family="sans-serif" font-size="9.8" lengthAdjust="spacing" textLength="46.2" x="975.975" y="1446.0674">LargePark</text><line style="stroke:#181818;stroke-width:0.3499999999999999;" x1="879.55" x2="1095.85" y1="1453.2096" y2="1453.2096"/><rect fill="none" height="4.2" style="stroke:#C82930;stroke-width:0.6999999999999998;" width="4.2" x="884.45" y="1461.477"/><text fill="#000000" font-family="sans-serif" font-size="9.8" lengthAdjust="spacing" textLength="53.2" x="892.85" y="1466.5848">String name</text><rect fill="none" height="4.2" style="stroke:#C82930;stroke-width:0.6999999999999998;" width="4.2" x="884.45" y="1474.5117"/><text fill="#000000" font-family="sans-serif" font-size="9.8" lengthAdjust="spacing" textLength="33.6" x="892.85" y="1479.6195">int area</text><rect fill="none" height="4.2" style="stroke:#C82930;stroke-width:0.6999999999999998;" width="4.2" x="884.45" y="1487.5465"/><text fill="#000000" font-family="sans-serif" font-size="9.8" lengthAdjust="spacing" textLength="36.4" x="892.85" y="1492.6543">Address</text><line style="stroke:#181818;stroke-width:0.3499999999999999;" x1="879.55" x2="1095.85" y1="1497.9139" y2="1497.9139"/><ellipse cx="886.55" cy="1508.2812" fill="#84BE84" rx="2.1" ry="2.1" style="stroke:#038048;stroke-width:0.6999999999999998;"/><text fill="#000000" font-family="sans-serif" font-size="9.8" lengthAdjust="spacing" textLength="46.2" x="892.85" y="1511.2891">getName()</text><ellipse cx="886.55" cy="1521.316" fill="#84BE84" rx="2.1" ry="2.1" style="stroke:#038048;stroke-width:0.6999999999999998;"/><text fill="#000000" font-family="sans-serif" font-size="9.8" lengthAdjust="spacing" textLength="42" x="892.85" y="1524.3238">getArea()</text><ellipse cx="886.55" cy="1534.3508" fill="#84BE84" rx="2.1" ry="2.1" style="stroke:#038048;stroke-width:0.6999999999999998;"/><text fill="#000000" font-family="sans-serif" font-size="9.8" lengthAdjust="spacing" textLength="57.4" x="892.85" y="1537.3586">getAddress()</text><ellipse cx="886.55" cy="1547.3855" fill="#84BE84" rx="2.1" ry="2.1" style="stroke:#038048;stroke-width:0.6999999999999998;"/><text fill="#000000" font-family="sans-serif" font-size="9.8" lengthAdjust="spacing" textLength="199.5" x="892.85" y="1550.3934">LargePark(name,area,streetName,postCode)</text><ellipse cx="886.55" cy="1560.4203" fill="#84BE84" rx="2.1" ry="2.1" style="stroke:#038048;stroke-width:0.6999999999999998;"/><text fill="#000000" font-family="sans-serif" font-size="9.8" lengthAdjust="spacing" textLength="127.4" x="892.85" y="1563.4281">hasName(greenSpaceName)</text></g><!--class ICollaborator--><g id="elem_ICollaborator"><rect codeLine="92" fill="#F1F1F1" height="59.6695" id="ICollaborator" rx="1.75" ry="1.75" style="stroke:#181818;stroke-width:0.3499999999999999;" width="88.2" x="332.5" y="837.2096"/><ellipse cx="346.78" cy="848.4096" fill="#B4A7E5" rx="7.7" ry="7.7" style="stroke:#181818;stroke-width:0.6999999999999998;"/><path d="M347.4472,846.058 L347.4472,850.7174 L348.6503,850.7174 Q349.0769,850.7174 349.2628,850.8814 Q349.4487,851.0455 349.4487,851.3189 Q349.4487,851.5814 349.2628,851.7455 Q349.0769,851.9096 348.6503,851.9096 L345.0519,851.9096 Q344.6253,851.9096 344.4394,851.7455 Q344.2534,851.5814 344.2534,851.308 Q344.2534,851.0455 344.4394,850.8814 Q344.6253,850.7174 345.0519,850.7174 L346.255,850.7174 L346.255,846.058 L345.0519,846.058 Q344.6253,846.058 344.4394,845.8939 Q344.2534,845.7299 344.2534,845.4564 Q344.2534,845.1939 344.4394,845.0299 Q344.6253,844.8658 345.0519,844.8658 L348.6503,844.8658 Q349.0769,844.8658 349.2628,845.0299 Q349.4487,845.1939 349.4487,845.4564 Q349.4487,845.7299 349.2628,845.8939 Q349.0769,846.058 348.6503,846.058 L347.4472,846.058 Z " fill="#000000"/><text fill="#000000" font-family="sans-serif" font-size="9.8" font-style="italic" lengthAdjust="spacing" textLength="57.4" x="357.42" y="852.4674">ICollaborator</text><line style="stroke:#181818;stroke-width:0.3499999999999999;" x1="333.2" x2="420" y1="859.6096" y2="859.6096"/><line style="stroke:#181818;stroke-width:0.3499999999999999;" x1="333.2" x2="420" y1="865.2096" y2="865.2096"/><ellipse cx="340.2" cy="875.577" fill="#84BE84" rx="2.1" ry="2.1" style="stroke:#038048;stroke-width:0.6999999999999998;"/><text fill="#000000" font-family="sans-serif" font-size="9.8" lengthAdjust="spacing" textLength="44.8" x="346.5" y="878.5848">getEmail()</text><ellipse cx="340.2" cy="888.6117" fill="#84BE84" rx="2.1" ry="2.1" style="stroke:#038048;stroke-width:0.6999999999999998;"/><text fill="#000000" font-family="sans-serif" font-size="9.8" lengthAdjust="spacing" textLength="70" x="346.5" y="891.6195">hasEmail(email)</text></g><!--class Address--><g id="elem_Address"><rect codeLine="97" fill="#F1F1F1" height="85.7391" id="Address" rx="1.75" ry="1.75" style="stroke:#181818;stroke-width:0.3499999999999999;" width="280.7" x="93.45" y="1457.0596"/><ellipse cx="212.625" cy="1468.2596" fill="#ADD1B2" rx="7.7" ry="7.7" style="stroke:#181818;stroke-width:0.6999999999999998;"/><path d="M214.5609,1465.3721 Q214.6703,1465.2189 214.8016,1465.1424 Q214.9328,1465.0658 215.0859,1465.0658 Q215.3484,1465.0658 215.5125,1465.2518 Q215.6766,1465.4268 215.6766,1465.8533 L215.6766,1466.8705 Q215.6766,1467.2971 215.5125,1467.483 Q215.3484,1467.6689 215.0859,1467.6689 Q214.8453,1467.6689 214.7031,1467.5268 Q214.5609,1467.3955 214.4844,1467.0346 Q214.4516,1466.783 214.3203,1466.6518 Q214.0906,1466.3893 213.6641,1466.2361 Q213.2375,1466.083 212.8,1466.083 Q212.2641,1466.083 211.8156,1466.3127 Q211.3781,1466.5424 211.0281,1467.0674 Q210.6891,1467.5924 210.6891,1468.3143 L210.6891,1469.0799 Q210.6891,1469.9439 211.3125,1470.5236 Q211.9359,1471.0924 213.0516,1471.0924 Q213.7078,1471.0924 214.1672,1470.9174 Q214.4406,1470.808 214.7359,1470.5018 Q214.9219,1470.3158 215.0203,1470.2611 Q215.1297,1470.2064 215.2719,1470.2064 Q215.5016,1470.2064 215.6766,1470.3924 Q215.8625,1470.5674 215.8625,1470.808 Q215.8625,1471.0486 215.6219,1471.333 Q215.2719,1471.7377 214.7141,1471.9674 Q213.9594,1472.2846 213.0516,1472.2846 Q211.9906,1472.2846 211.1484,1471.8471 Q210.4594,1471.4971 209.9781,1470.7533 Q209.4969,1469.9986 209.4969,1469.1018 L209.4969,1468.2924 Q209.4969,1467.3627 209.9234,1466.5643 Q210.3609,1465.7549 211.1266,1465.3283 Q211.8922,1464.8908 212.7562,1464.8908 Q213.2703,1464.8908 213.7187,1465.0111 Q214.1781,1465.1205 214.5609,1465.3721 Z " fill="#000000"/><text fill="#000000" font-family="sans-serif" font-size="9.8" lengthAdjust="spacing" textLength="36.4" x="226.975" y="1472.3174">Address</text><line style="stroke:#181818;stroke-width:0.3499999999999999;" x1="94.15" x2="373.45" y1="1479.4596" y2="1479.4596"/><rect fill="none" height="4.2" style="stroke:#C82930;stroke-width:0.6999999999999998;" width="4.2" x="99.05" y="1487.727"/><text fill="#000000" font-family="sans-serif" font-size="9.8" lengthAdjust="spacing" textLength="53.9" x="107.45" y="1492.8348">String street</text><rect fill="none" height="4.2" style="stroke:#C82930;stroke-width:0.6999999999999998;" width="4.2" x="99.05" y="1500.7617"/><text fill="#000000" font-family="sans-serif" font-size="9.8" lengthAdjust="spacing" textLength="67.9" x="107.45" y="1505.8695">int doorNumber</text><line style="stroke:#181818;stroke-width:0.3499999999999999;" x1="94.15" x2="373.45" y1="1511.1291" y2="1511.1291"/><ellipse cx="101.15" cy="1521.4965" fill="#84BE84" rx="2.1" ry="2.1" style="stroke:#038048;stroke-width:0.6999999999999998;"/><text fill="#000000" font-family="sans-serif" font-size="9.8" lengthAdjust="spacing" textLength="262.5" x="107.45" y="1524.5043">Address(street, doorNumber, postCodeNumber,localization)</text><rect fill="#F24D5C" height="4.2" style="stroke:#C82930;stroke-width:0.6999999999999998;" width="4.2" x="99.05" y="1532.4312"/><text fill="#000000" font-family="sans-serif" font-size="9.8" lengthAdjust="spacing" textLength="49" x="107.45" y="1537.5391">validation()</text></g><!--class PostCode--><g id="elem_PostCode"><rect codeLine="105" fill="#F1F1F1" height="85.7391" id="PostCode" rx="1.75" ry="1.75" style="stroke:#181818;stroke-width:0.3499999999999999;" width="196.7" x="517.65" y="1624.0096"/><ellipse cx="591.325" cy="1635.2096" fill="#ADD1B2" rx="7.7" ry="7.7" style="stroke:#181818;stroke-width:0.6999999999999998;"/><path d="M593.2609,1632.3221 Q593.3703,1632.1689 593.5016,1632.0924 Q593.6328,1632.0158 593.7859,1632.0158 Q594.0484,1632.0158 594.2125,1632.2018 Q594.3766,1632.3768 594.3766,1632.8033 L594.3766,1633.8205 Q594.3766,1634.2471 594.2125,1634.433 Q594.0484,1634.6189 593.7859,1634.6189 Q593.5453,1634.6189 593.4031,1634.4768 Q593.2609,1634.3455 593.1844,1633.9846 Q593.1516,1633.733 593.0203,1633.6018 Q592.7906,1633.3393 592.3641,1633.1861 Q591.9375,1633.033 591.5,1633.033 Q590.9641,1633.033 590.5156,1633.2627 Q590.0781,1633.4924 589.7281,1634.0174 Q589.3891,1634.5424 589.3891,1635.2643 L589.3891,1636.0299 Q589.3891,1636.8939 590.0125,1637.4736 Q590.6359,1638.0424 591.7516,1638.0424 Q592.4078,1638.0424 592.8672,1637.8674 Q593.1406,1637.758 593.4359,1637.4518 Q593.6219,1637.2658 593.7203,1637.2111 Q593.8297,1637.1564 593.9719,1637.1564 Q594.2016,1637.1564 594.3766,1637.3424 Q594.5625,1637.5174 594.5625,1637.758 Q594.5625,1637.9986 594.3219,1638.283 Q593.9719,1638.6877 593.4141,1638.9174 Q592.6594,1639.2346 591.7516,1639.2346 Q590.6906,1639.2346 589.8484,1638.7971 Q589.1594,1638.4471 588.6781,1637.7033 Q588.1969,1636.9486 588.1969,1636.0518 L588.1969,1635.2424 Q588.1969,1634.3127 588.6234,1633.5143 Q589.0609,1632.7049 589.8266,1632.2783 Q590.5922,1631.8408 591.4562,1631.8408 Q591.9703,1631.8408 592.4187,1631.9611 Q592.8781,1632.0705 593.2609,1632.3221 Z " fill="#000000"/><text fill="#000000" font-family="sans-serif" font-size="9.8" lengthAdjust="spacing" textLength="43.4" x="605.675" y="1639.2674">PostCode</text><line style="stroke:#181818;stroke-width:0.3499999999999999;" x1="518.35" x2="713.65" y1="1646.4096" y2="1646.4096"/><rect fill="none" height="4.2" style="stroke:#C82930;stroke-width:0.6999999999999998;" width="4.2" x="523.25" y="1654.677"/><text fill="#000000" font-family="sans-serif" font-size="9.8" lengthAdjust="spacing" textLength="105.7" x="531.65" y="1659.7848">String postCodeNumber</text><rect fill="none" height="4.2" style="stroke:#C82930;stroke-width:0.6999999999999998;" width="4.2" x="523.25" y="1667.7117"/><text fill="#000000" font-family="sans-serif" font-size="9.8" lengthAdjust="spacing" textLength="77" x="531.65" y="1672.8195">String localization</text><line style="stroke:#181818;stroke-width:0.3499999999999999;" x1="518.35" x2="713.65" y1="1678.0791" y2="1678.0791"/><ellipse cx="525.35" cy="1688.4465" fill="#84BE84" rx="2.1" ry="2.1" style="stroke:#038048;stroke-width:0.6999999999999998;"/><text fill="#000000" font-family="sans-serif" font-size="9.8" lengthAdjust="spacing" textLength="178.5" x="531.65" y="1691.4543">PostCode(postCodeNumber,localization)</text><rect fill="#F24D5C" height="4.2" style="stroke:#C82930;stroke-width:0.6999999999999998;" width="4.2" x="523.25" y="1699.3812"/><text fill="#000000" font-family="sans-serif" font-size="9.8" lengthAdjust="spacing" textLength="49" x="531.65" y="1704.4891">validation()</text></g><!--class Task--><g id="elem_Task"><rect codeLine="113" fill="#F1F1F1" height="72.7043" id="Task" rx="1.75" ry="1.75" style="stroke:#181818;stroke-width:0.3499999999999999;" width="158.9" x="93.45" y="1093.0596"/><ellipse cx="159.075" cy="1104.2596" fill="#ADD1B2" rx="7.7" ry="7.7" style="stroke:#181818;stroke-width:0.6999999999999998;"/><path d="M161.0109,1101.3721 Q161.1203,1101.2189 161.2516,1101.1424 Q161.3828,1101.0658 161.5359,1101.0658 Q161.7984,1101.0658 161.9625,1101.2518 Q162.1266,1101.4268 162.1266,1101.8533 L162.1266,1102.8705 Q162.1266,1103.2971 161.9625,1103.483 Q161.7984,1103.6689 161.5359,1103.6689 Q161.2953,1103.6689 161.1531,1103.5268 Q161.0109,1103.3955 160.9344,1103.0346 Q160.9016,1102.783 160.7703,1102.6518 Q160.5406,1102.3893 160.1141,1102.2361 Q159.6875,1102.083 159.25,1102.083 Q158.7141,1102.083 158.2656,1102.3127 Q157.8281,1102.5424 157.4781,1103.0674 Q157.1391,1103.5924 157.1391,1104.3143 L157.1391,1105.0799 Q157.1391,1105.9439 157.7625,1106.5236 Q158.3859,1107.0924 159.5016,1107.0924 Q160.1578,1107.0924 160.6172,1106.9174 Q160.8906,1106.808 161.1859,1106.5018 Q161.3719,1106.3158 161.4703,1106.2611 Q161.5797,1106.2064 161.7219,1106.2064 Q161.9516,1106.2064 162.1266,1106.3924 Q162.3125,1106.5674 162.3125,1106.808 Q162.3125,1107.0486 162.0719,1107.333 Q161.7219,1107.7377 161.1641,1107.9674 Q160.4094,1108.2846 159.5016,1108.2846 Q158.4406,1108.2846 157.5984,1107.8471 Q156.9094,1107.4971 156.4281,1106.7533 Q155.9469,1105.9986 155.9469,1105.1018 L155.9469,1104.2924 Q155.9469,1103.3627 156.3734,1102.5643 Q156.8109,1101.7549 157.5766,1101.3283 Q158.3422,1100.8908 159.2062,1100.8908 Q159.7203,1100.8908 160.1687,1101.0111 Q160.6281,1101.1205 161.0109,1101.3721 Z " fill="#000000"/><text fill="#000000" font-family="sans-serif" font-size="9.8" lengthAdjust="spacing" textLength="21.7" x="173.425" y="1108.3174">Task</text><line style="stroke:#181818;stroke-width:0.3499999999999999;" x1="94.15" x2="251.65" y1="1115.4596" y2="1115.4596"/><rect fill="none" height="4.2" style="stroke:#C82930;stroke-width:0.6999999999999998;" width="4.2" x="99.05" y="1123.727"/><text fill="#000000" font-family="sans-serif" font-size="9.8" lengthAdjust="spacing" textLength="96.6" x="107.45" y="1128.8348">String taskDescription</text><line style="stroke:#181818;stroke-width:0.3499999999999999;" x1="94.15" x2="251.65" y1="1134.0943" y2="1134.0943"/><ellipse cx="101.15" cy="1144.4617" fill="#84BE84" rx="2.1" ry="2.1" style="stroke:#038048;stroke-width:0.6999999999999998;"/><text fill="#000000" font-family="sans-serif" font-size="9.8" lengthAdjust="spacing" textLength="96.6" x="107.45" y="1147.4695">Task(taskDescription)</text><ellipse cx="101.15" cy="1157.4965" fill="#84BE84" rx="2.1" ry="2.1" style="stroke:#038048;stroke-width:0.6999999999999998;"/><text fill="#000000" font-family="sans-serif" font-size="9.8" lengthAdjust="spacing" textLength="140.7" x="107.45" y="1160.5043">hasDescription(taskDescription)</text></g><!--class TaskToDoList--><g id="elem_TaskToDoList"><rect codeLine="120" fill="#F1F1F1" height="98.7738" id="TaskToDoList" rx="1.75" ry="1.75" style="stroke:#181818;stroke-width:0.3499999999999999;" width="247.8" x="295.4" y="1080.1096"/><ellipse cx="385.525" cy="1091.3096" fill="#ADD1B2" rx="7.7" ry="7.7" style="stroke:#181818;stroke-width:0.6999999999999998;"/><path d="M387.4609,1088.4221 Q387.5703,1088.2689 387.7016,1088.1924 Q387.8328,1088.1158 387.9859,1088.1158 Q388.2484,1088.1158 388.4125,1088.3018 Q388.5766,1088.4768 388.5766,1088.9033 L388.5766,1089.9205 Q388.5766,1090.3471 388.4125,1090.533 Q388.2484,1090.7189 387.9859,1090.7189 Q387.7453,1090.7189 387.6031,1090.5768 Q387.4609,1090.4455 387.3844,1090.0846 Q387.3516,1089.833 387.2203,1089.7018 Q386.9906,1089.4393 386.5641,1089.2861 Q386.1375,1089.133 385.7,1089.133 Q385.1641,1089.133 384.7156,1089.3627 Q384.2781,1089.5924 383.9281,1090.1174 Q383.5891,1090.6424 383.5891,1091.3643 L383.5891,1092.1299 Q383.5891,1092.9939 384.2125,1093.5736 Q384.8359,1094.1424 385.9516,1094.1424 Q386.6078,1094.1424 387.0672,1093.9674 Q387.3406,1093.858 387.6359,1093.5518 Q387.8219,1093.3658 387.9203,1093.3111 Q388.0297,1093.2564 388.1719,1093.2564 Q388.4016,1093.2564 388.5766,1093.4424 Q388.7625,1093.6174 388.7625,1093.858 Q388.7625,1094.0986 388.5219,1094.383 Q388.1719,1094.7877 387.6141,1095.0174 Q386.8594,1095.3346 385.9516,1095.3346 Q384.8906,1095.3346 384.0484,1094.8971 Q383.3594,1094.5471 382.8781,1093.8033 Q382.3969,1093.0486 382.3969,1092.1518 L382.3969,1091.3424 Q382.3969,1090.4127 382.8234,1089.6143 Q383.2609,1088.8049 384.0266,1088.3783 Q384.7922,1087.9408 385.6562,1087.9408 Q386.1703,1087.9408 386.6187,1088.0611 Q387.0781,1088.1705 387.4609,1088.4221 Z " fill="#000000"/><text fill="#000000" font-family="sans-serif" font-size="9.8" lengthAdjust="spacing" textLength="61.6" x="399.875" y="1095.3674">TaskToDoList</text><line style="stroke:#181818;stroke-width:0.3499999999999999;" x1="296.1" x2="542.5" y1="1102.5096" y2="1102.5096"/><rect fill="none" height="4.2" style="stroke:#C82930;stroke-width:0.6999999999999998;" width="4.2" x="301" y="1110.777"/><text fill="#000000" font-family="sans-serif" font-size="9.8" lengthAdjust="spacing" textLength="64.4" x="309.4" y="1115.8848">String urgency</text><rect fill="none" height="4.2" style="stroke:#C82930;stroke-width:0.6999999999999998;" width="4.2" x="301" y="1123.8117"/><text fill="#000000" font-family="sans-serif" font-size="9.8" lengthAdjust="spacing" textLength="49.7" x="309.4" y="1128.9195">int duration</text><rect fill="none" height="4.2" style="stroke:#C82930;stroke-width:0.6999999999999998;" width="4.2" x="301" y="1136.8465"/><text fill="#000000" font-family="sans-serif" font-size="9.8" lengthAdjust="spacing" textLength="55.3" x="309.4" y="1141.9543">String status</text><line style="stroke:#181818;stroke-width:0.3499999999999999;" x1="296.1" x2="542.5" y1="1147.2139" y2="1147.2139"/><ellipse cx="303.1" cy="1157.5812" fill="#84BE84" rx="2.1" ry="2.1" style="stroke:#038048;stroke-width:0.6999999999999998;"/><text fill="#000000" font-family="sans-serif" font-size="9.8" lengthAdjust="spacing" textLength="229.6" x="309.4" y="1160.5891">TaskToDoList(greenSpace, task, urgency, duration)</text><rect fill="#F24D5C" height="4.2" style="stroke:#C82930;stroke-width:0.6999999999999998;" width="4.2" x="301" y="1168.516"/><text fill="#000000" font-family="sans-serif" font-size="9.8" lengthAdjust="spacing" textLength="105.7" x="309.4" y="1173.6238">validateTaskToDoList();</text></g><!--class GreenSpaceManager--><g id="elem_GreenSpaceManager"><rect codeLine="129" fill="#F1F1F1" height="46.6348" id="GreenSpaceManager" rx="1.75" ry="1.75" style="stroke:#181818;stroke-width:0.3499999999999999;" width="117.6" x="317.8" y="958.6596"/><ellipse cx="328.3" cy="969.8596" fill="#ADD1B2" rx="7.7" ry="7.7" style="stroke:#181818;stroke-width:0.6999999999999998;"/><path d="M330.2359,966.9721 Q330.3453,966.8189 330.4766,966.7424 Q330.6078,966.6658 330.7609,966.6658 Q331.0234,966.6658 331.1875,966.8518 Q331.3516,967.0268 331.3516,967.4533 L331.3516,968.4705 Q331.3516,968.8971 331.1875,969.083 Q331.0234,969.2689 330.7609,969.2689 Q330.5203,969.2689 330.3781,969.1268 Q330.2359,968.9955 330.1594,968.6346 Q330.1266,968.383 329.9953,968.2518 Q329.7656,967.9893 329.3391,967.8361 Q328.9125,967.683 328.475,967.683 Q327.9391,967.683 327.4906,967.9127 Q327.0531,968.1424 326.7031,968.6674 Q326.3641,969.1924 326.3641,969.9143 L326.3641,970.6799 Q326.3641,971.5439 326.9875,972.1236 Q327.6109,972.6924 328.7266,972.6924 Q329.3828,972.6924 329.8422,972.5174 Q330.1156,972.408 330.4109,972.1018 Q330.5969,971.9158 330.6953,971.8611 Q330.8047,971.8064 330.9469,971.8064 Q331.1766,971.8064 331.3516,971.9924 Q331.5375,972.1674 331.5375,972.408 Q331.5375,972.6486 331.2969,972.933 Q330.9469,973.3377 330.3891,973.5674 Q329.6344,973.8846 328.7266,973.8846 Q327.6656,973.8846 326.8234,973.4471 Q326.1344,973.0971 325.6531,972.3533 Q325.1719,971.5986 325.1719,970.7018 L325.1719,969.8924 Q325.1719,968.9627 325.5984,968.1643 Q326.0359,967.3549 326.8016,966.9283 Q327.5672,966.4908 328.4312,966.4908 Q328.9453,966.4908 329.3937,966.6111 Q329.8531,966.7205 330.2359,966.9721 Z " fill="#000000"/><text fill="#000000" font-family="sans-serif" font-size="9.8" lengthAdjust="spacing" textLength="95.2" x="338.1" y="973.9174">GreenSpaceManager</text><line style="stroke:#181818;stroke-width:0.3499999999999999;" x1="318.5" x2="434.7" y1="981.0596" y2="981.0596"/><line style="stroke:#181818;stroke-width:0.3499999999999999;" x1="318.5" x2="434.7" y1="986.6596" y2="986.6596"/><ellipse cx="325.5" cy="997.027" fill="#84BE84" rx="2.1" ry="2.1" style="stroke:#038048;stroke-width:0.6999999999999998;"/><text fill="#000000" font-family="sans-serif" font-size="9.8" lengthAdjust="spacing" textLength="77" x="331.8" y="1000.0348">getGreenSpace()</text></g><!--class ToDoList--><g id="elem_ToDoList"><rect codeLine="134" fill="#F1F1F1" height="85.7391" id="ToDoList" rx="1.75" ry="1.75" style="stroke:#181818;stroke-width:0.3499999999999999;" width="274.4" x="459.9" y="939.4096"/><ellipse cx="574.175" cy="950.6096" fill="#ADD1B2" rx="7.7" ry="7.7" style="stroke:#181818;stroke-width:0.6999999999999998;"/><path d="M576.1109,947.7221 Q576.2203,947.5689 576.3516,947.4924 Q576.4828,947.4158 576.6359,947.4158 Q576.8984,947.4158 577.0625,947.6018 Q577.2266,947.7768 577.2266,948.2033 L577.2266,949.2205 Q577.2266,949.6471 577.0625,949.833 Q576.8984,950.0189 576.6359,950.0189 Q576.3953,950.0189 576.2531,949.8768 Q576.1109,949.7455 576.0344,949.3846 Q576.0016,949.133 575.8703,949.0018 Q575.6406,948.7393 575.2141,948.5861 Q574.7875,948.433 574.35,948.433 Q573.8141,948.433 573.3656,948.6627 Q572.9281,948.8924 572.5781,949.4174 Q572.2391,949.9424 572.2391,950.6643 L572.2391,951.4299 Q572.2391,952.2939 572.8625,952.8736 Q573.4859,953.4424 574.6016,953.4424 Q575.2578,953.4424 575.7172,953.2674 Q575.9906,953.158 576.2859,952.8518 Q576.4719,952.6658 576.5703,952.6111 Q576.6797,952.5564 576.8219,952.5564 Q577.0516,952.5564 577.2266,952.7424 Q577.4125,952.9174 577.4125,953.158 Q577.4125,953.3986 577.1719,953.683 Q576.8219,954.0877 576.2641,954.3174 Q575.5094,954.6346 574.6016,954.6346 Q573.5406,954.6346 572.6984,954.1971 Q572.0094,953.8471 571.5281,953.1033 Q571.0469,952.3486 571.0469,951.4518 L571.0469,950.6424 Q571.0469,949.7127 571.4734,948.9143 Q571.9109,948.1049 572.6766,947.6783 Q573.4422,947.2408 574.3062,947.2408 Q574.8203,947.2408 575.2687,947.3611 Q575.7281,947.4705 576.1109,947.7221 Z " fill="#000000"/><text fill="#000000" font-family="sans-serif" font-size="9.8" lengthAdjust="spacing" textLength="39.9" x="588.525" y="954.6674">ToDoList</text><line style="stroke:#181818;stroke-width:0.3499999999999999;" x1="460.6" x2="733.6" y1="961.8096" y2="961.8096"/><line style="stroke:#181818;stroke-width:0.3499999999999999;" x1="460.6" x2="733.6" y1="967.4096" y2="967.4096"/><ellipse cx="467.6" cy="977.777" fill="#84BE84" rx="2.1" ry="2.1" style="stroke:#038048;stroke-width:0.6999999999999998;"/><text fill="#000000" font-family="sans-serif" font-size="9.8" lengthAdjust="spacing" textLength="46.9" x="473.9" y="980.7848">ToDoList()</text><ellipse cx="467.6" cy="990.8117" fill="#84BE84" rx="2.1" ry="2.1" style="stroke:#038048;stroke-width:0.6999999999999998;"/><text fill="#000000" font-family="sans-serif" font-size="9.8" lengthAdjust="spacing" textLength="256.2" x="473.9" y="993.8195">registerEntryToDoList(greenSpace,task,urgency,duration)</text><rect fill="#F24D5C" height="4.2" style="stroke:#C82930;stroke-width:0.6999999999999998;" width="4.2" x="465.5" y="1001.7465"/><text fill="#000000" font-family="sans-serif" font-size="9.8" lengthAdjust="spacing" textLength="158.9" x="473.9" y="1006.8543">addListTaskToDoList(taskToDoList)</text><rect fill="#F24D5C" height="4.2" style="stroke:#C82930;stroke-width:0.6999999999999998;" width="4.2" x="465.5" y="1014.7812"/><text fill="#000000" font-family="sans-serif" font-size="9.8" lengthAdjust="spacing" textLength="81.2" x="473.9" y="1019.8891">validateToDoList()</text></g><!--class Repositories--><g id="elem_Repositories"><rect codeLine="146" fill="#F1F1F1" height="111.8086" id="Repositories" rx="1.75" ry="1.75" style="stroke:#181818;stroke-width:0.3499999999999999;" width="142.8" x="504.7" y="357.0096"/><ellipse cx="545.475" cy="368.2096" fill="#ADD1B2" rx="7.7" ry="7.7" style="stroke:#181818;stroke-width:0.6999999999999998;"/><path d="M547.4109,365.3221 Q547.5203,365.1689 547.6516,365.0924 Q547.7828,365.0158 547.9359,365.0158 Q548.1984,365.0158 548.3625,365.2018 Q548.5266,365.3768 548.5266,365.8033 L548.5266,366.8205 Q548.5266,367.2471 548.3625,367.433 Q548.1984,367.6189 547.9359,367.6189 Q547.6953,367.6189 547.5531,367.4768 Q547.4109,367.3455 547.3344,366.9846 Q547.3016,366.733 547.1703,366.6018 Q546.9406,366.3393 546.5141,366.1861 Q546.0875,366.033 545.65,366.033 Q545.1141,366.033 544.6656,366.2627 Q544.2281,366.4924 543.8781,367.0174 Q543.5391,367.5424 543.5391,368.2643 L543.5391,369.0299 Q543.5391,369.8939 544.1625,370.4736 Q544.7859,371.0424 545.9016,371.0424 Q546.5578,371.0424 547.0172,370.8674 Q547.2906,370.758 547.5859,370.4518 Q547.7719,370.2658 547.8703,370.2111 Q547.9797,370.1564 548.1219,370.1564 Q548.3516,370.1564 548.5266,370.3424 Q548.7125,370.5174 548.7125,370.758 Q548.7125,370.9986 548.4719,371.283 Q548.1219,371.6877 547.5641,371.9174 Q546.8094,372.2346 545.9016,372.2346 Q544.8406,372.2346 543.9984,371.7971 Q543.3094,371.4471 542.8281,370.7033 Q542.3469,369.9486 542.3469,369.0518 L542.3469,368.2424 Q542.3469,367.3127 542.7734,366.5143 Q543.2109,365.7049 543.9766,365.2783 Q544.7422,364.8408 545.6062,364.8408 Q546.1203,364.8408 546.5687,364.9611 Q547.0281,365.0705 547.4109,365.3221 Z " fill="#000000"/><text fill="#000000" font-family="sans-serif" font-size="9.8" lengthAdjust="spacing" textLength="55.3" x="559.825" y="372.2674">Repositories</text><line style="stroke:#181818;stroke-width:0.3499999999999999;" x1="505.4" x2="646.8" y1="379.4096" y2="379.4096"/><line style="stroke:#181818;stroke-width:0.3499999999999999;" x1="505.4" x2="646.8" y1="385.0096" y2="385.0096"/><rect fill="#F24D5C" height="4.2" style="stroke:#C82930;stroke-width:0.6999999999999998;" width="4.2" x="510.3" y="393.277"/><text fill="#000000" font-family="sans-serif" font-size="9.8" lengthAdjust="spacing" textLength="62.3" x="518.7" y="398.3848">Repositories()</text><ellipse cx="512.4" cy="408.4117" fill="#84BE84" rx="2.1" ry="2.1" style="stroke:#038048;stroke-width:0.6999999999999998;"/><text fill="#000000" font-family="sans-serif" font-size="9.8" lengthAdjust="spacing" textLength="121.8" x="518.7" y="411.4195">getInstance() : Repositories</text><ellipse cx="512.4" cy="421.4465" fill="#84BE84" rx="2.1" ry="2.1" style="stroke:#038048;stroke-width:0.6999999999999998;"/><text fill="#000000" font-family="sans-serif" font-size="9.8" lengthAdjust="spacing" textLength="124.6" x="518.7" y="424.4543">getGreenSpaceRepository()</text><ellipse cx="512.4" cy="434.4812" fill="#84BE84" rx="2.1" ry="2.1" style="stroke:#038048;stroke-width:0.6999999999999998;"/><text fill="#000000" font-family="sans-serif" font-size="9.8" lengthAdjust="spacing" textLength="123.2" x="518.7" y="437.4891">getCollaboratorRepository()</text><ellipse cx="512.4" cy="447.516" fill="#84BE84" rx="2.1" ry="2.1" style="stroke:#038048;stroke-width:0.6999999999999998;"/><text fill="#000000" font-family="sans-serif" font-size="9.8" lengthAdjust="spacing" textLength="93.1" x="518.7" y="450.5238">getTaskRepository();</text><ellipse cx="512.4" cy="460.5508" fill="#84BE84" rx="2.1" ry="2.1" style="stroke:#038048;stroke-width:0.6999999999999998;"/><text fill="#000000" font-family="sans-serif" font-size="9.8" lengthAdjust="spacing" textLength="60.9" x="518.7" y="463.5586">getToDoList()</text></g><!--class CollaboratorRepository--><g id="elem_CollaboratorRepository"><rect codeLine="156" fill="#F1F1F1" height="46.6348" id="CollaboratorRepository" rx="1.75" ry="1.75" style="stroke:#181818;stroke-width:0.3499999999999999;" width="151.9" x="316.05" y="627.9096"/><ellipse cx="338.835" cy="639.1096" fill="#ADD1B2" rx="7.7" ry="7.7" style="stroke:#181818;stroke-width:0.6999999999999998;"/><path d="M340.7709,636.2221 Q340.8803,636.0689 341.0116,635.9924 Q341.1428,635.9158 341.2959,635.9158 Q341.5584,635.9158 341.7225,636.1018 Q341.8866,636.2768 341.8866,636.7033 L341.8866,637.7205 Q341.8866,638.1471 341.7225,638.333 Q341.5584,638.5189 341.2959,638.5189 Q341.0553,638.5189 340.9131,638.3768 Q340.7709,638.2455 340.6944,637.8846 Q340.6616,637.633 340.5303,637.5018 Q340.3006,637.2393 339.8741,637.0861 Q339.4475,636.933 339.01,636.933 Q338.4741,636.933 338.0256,637.1627 Q337.5881,637.3924 337.2381,637.9174 Q336.8991,638.4424 336.8991,639.1643 L336.8991,639.9299 Q336.8991,640.7939 337.5225,641.3736 Q338.1459,641.9424 339.2616,641.9424 Q339.9178,641.9424 340.3772,641.7674 Q340.6506,641.658 340.9459,641.3518 Q341.1319,641.1658 341.2303,641.1111 Q341.3397,641.0564 341.4819,641.0564 Q341.7116,641.0564 341.8866,641.2424 Q342.0725,641.4174 342.0725,641.658 Q342.0725,641.8986 341.8319,642.183 Q341.4819,642.5877 340.9241,642.8174 Q340.1694,643.1346 339.2616,643.1346 Q338.2006,643.1346 337.3584,642.6971 Q336.6694,642.3471 336.1881,641.6033 Q335.7069,640.8486 335.7069,639.9518 L335.7069,639.1424 Q335.7069,638.2127 336.1334,637.4143 Q336.5709,636.6049 337.3366,636.1783 Q338.1022,635.7408 338.9662,635.7408 Q339.4803,635.7408 339.9287,635.8611 Q340.3881,635.9705 340.7709,636.2221 Z " fill="#000000"/><text fill="#000000" font-family="sans-serif" font-size="9.8" lengthAdjust="spacing" textLength="102.2" x="351.365" y="643.1674">CollaboratorRepository</text><line style="stroke:#181818;stroke-width:0.3499999999999999;" x1="316.75" x2="467.25" y1="650.3096" y2="650.3096"/><line style="stroke:#181818;stroke-width:0.3499999999999999;" x1="316.75" x2="467.25" y1="655.9096" y2="655.9096"/><ellipse cx="323.75" cy="666.277" fill="#84BE84" rx="2.1" ry="2.1" style="stroke:#038048;stroke-width:0.6999999999999998;"/><text fill="#000000" font-family="sans-serif" font-size="9.8" lengthAdjust="spacing" textLength="133.7" x="330.05" y="669.2848">getCollaboratorByEmail(email)</text></g><!--class GreenSpaceRepository--><g id="elem_GreenSpaceRepository"><rect codeLine="161" fill="#F1F1F1" height="46.6348" id="GreenSpaceRepository" rx="1.75" ry="1.75" style="stroke:#181818;stroke-width:0.3499999999999999;" width="210.7" x="470.75" y="730.1096"/><ellipse cx="521.325" cy="741.3096" fill="#ADD1B2" rx="7.7" ry="7.7" style="stroke:#181818;stroke-width:0.6999999999999998;"/><path d="M523.2609,738.4221 Q523.3703,738.2689 523.5016,738.1924 Q523.6328,738.1158 523.7859,738.1158 Q524.0484,738.1158 524.2125,738.3018 Q524.3766,738.4768 524.3766,738.9033 L524.3766,739.9205 Q524.3766,740.3471 524.2125,740.533 Q524.0484,740.7189 523.7859,740.7189 Q523.5453,740.7189 523.4031,740.5768 Q523.2609,740.4455 523.1844,740.0846 Q523.1516,739.833 523.0203,739.7018 Q522.7906,739.4393 522.3641,739.2861 Q521.9375,739.133 521.5,739.133 Q520.9641,739.133 520.5156,739.3627 Q520.0781,739.5924 519.7281,740.1174 Q519.3891,740.6424 519.3891,741.3643 L519.3891,742.1299 Q519.3891,742.9939 520.0125,743.5736 Q520.6359,744.1424 521.7516,744.1424 Q522.4078,744.1424 522.8672,743.9674 Q523.1406,743.858 523.4359,743.5518 Q523.6219,743.3658 523.7203,743.3111 Q523.8297,743.2564 523.9719,743.2564 Q524.2016,743.2564 524.3766,743.4424 Q524.5625,743.6174 524.5625,743.858 Q524.5625,744.0986 524.3219,744.383 Q523.9719,744.7877 523.4141,745.0174 Q522.6594,745.3346 521.7516,745.3346 Q520.6906,745.3346 519.8484,744.8971 Q519.1594,744.5471 518.6781,743.8033 Q518.1969,743.0486 518.1969,742.1518 L518.1969,741.3424 Q518.1969,740.4127 518.6234,739.6143 Q519.0609,738.8049 519.8266,738.3783 Q520.5922,737.9408 521.4562,737.9408 Q521.9703,737.9408 522.4187,738.0611 Q522.8781,738.1705 523.2609,738.4221 Z " fill="#000000"/><text fill="#000000" font-family="sans-serif" font-size="9.8" lengthAdjust="spacing" textLength="103.6" x="535.675" y="745.3674">GreenSpaceRepository</text><line style="stroke:#181818;stroke-width:0.3499999999999999;" x1="471.45" x2="680.75" y1="752.5096" y2="752.5096"/><line style="stroke:#181818;stroke-width:0.3499999999999999;" x1="471.45" x2="680.75" y1="758.1096" y2="758.1096"/><ellipse cx="478.45" cy="768.477" fill="#84BE84" rx="2.1" ry="2.1" style="stroke:#038048;stroke-width:0.6999999999999998;"/><text fill="#000000" font-family="sans-serif" font-size="9.8" lengthAdjust="spacing" textLength="192.5" x="484.75" y="771.4848">getGreenSpaceByName(greenSpaceName)</text></g><!--class TaskRepository--><g id="elem_TaskRepository"><rect codeLine="166" fill="#F1F1F1" height="46.6348" id="TaskRepository" rx="1.75" ry="1.75" style="stroke:#181818;stroke-width:0.3499999999999999;" width="126" x="289.8" y="389.5596"/><ellipse cx="315.735" cy="400.7596" fill="#ADD1B2" rx="7.7" ry="7.7" style="stroke:#181818;stroke-width:0.6999999999999998;"/><path d="M317.6709,397.8721 Q317.7803,397.7189 317.9116,397.6424 Q318.0428,397.5658 318.1959,397.5658 Q318.4584,397.5658 318.6225,397.7518 Q318.7866,397.9268 318.7866,398.3533 L318.7866,399.3705 Q318.7866,399.7971 318.6225,399.983 Q318.4584,400.1689 318.1959,400.1689 Q317.9553,400.1689 317.8131,400.0268 Q317.6709,399.8955 317.5944,399.5346 Q317.5616,399.283 317.4303,399.1518 Q317.2006,398.8893 316.7741,398.7361 Q316.3475,398.583 315.91,398.583 Q315.3741,398.583 314.9256,398.8127 Q314.4881,399.0424 314.1381,399.5674 Q313.7991,400.0924 313.7991,400.8143 L313.7991,401.5799 Q313.7991,402.4439 314.4225,403.0236 Q315.0459,403.5924 316.1616,403.5924 Q316.8178,403.5924 317.2772,403.4174 Q317.5506,403.308 317.8459,403.0018 Q318.0319,402.8158 318.1303,402.7611 Q318.2397,402.7064 318.3819,402.7064 Q318.6116,402.7064 318.7866,402.8924 Q318.9725,403.0674 318.9725,403.308 Q318.9725,403.5486 318.7319,403.833 Q318.3819,404.2377 317.8241,404.4674 Q317.0694,404.7846 316.1616,404.7846 Q315.1006,404.7846 314.2584,404.3471 Q313.5694,403.9971 313.0881,403.2533 Q312.6069,402.4986 312.6069,401.6018 L312.6069,400.7924 Q312.6069,399.8627 313.0334,399.0643 Q313.4709,398.2549 314.2366,397.8283 Q315.0022,397.3908 315.8662,397.3908 Q316.3803,397.3908 316.8287,397.5111 Q317.2881,397.6205 317.6709,397.8721 Z " fill="#000000"/><text fill="#000000" font-family="sans-serif" font-size="9.8" lengthAdjust="spacing" textLength="69.3" x="328.965" y="404.8174">TaskRepository</text><line style="stroke:#181818;stroke-width:0.3499999999999999;" x1="290.5" x2="415.1" y1="411.9596" y2="411.9596"/><line style="stroke:#181818;stroke-width:0.3499999999999999;" x1="290.5" x2="415.1" y1="417.5596" y2="417.5596"/><ellipse cx="297.5" cy="427.927" fill="#84BE84" rx="2.1" ry="2.1" style="stroke:#038048;stroke-width:0.6999999999999998;"/><text fill="#000000" font-family="sans-serif" font-size="9.8" lengthAdjust="spacing" textLength="107.8" x="303.8" y="430.9348">getAllTaskDescriptions()</text></g><!--reverse link GreenSpace to Garden--><g id="link_GreenSpace_Garden"><path d="M669.7182,1382.864 C645.4702,1399.58 627.347,1412.0776 600.313,1430.7186 " fill="none" id="GreenSpace-backto-Garden" style="stroke:#181818;stroke-width:0.6999999999999998;stroke-dasharray:7.0,7.0;"/><polygon fill="none" points="680.092,1375.7126,667.3343,1379.4061,672.102,1386.322,680.092,1375.7126" style="stroke:#181818;stroke-width:0.6999999999999998;"/></g><!--reverse link GreenSpace to MediumPark--><g id="link_GreenSpace_MediumPark"><path d="M741.3,1388.3126 C741.3,1404.9796 741.3,1411.9656 741.3,1430.5576 " fill="none" id="GreenSpace-backto-MediumPark" style="stroke:#181818;stroke-width:0.6999999999999998;stroke-dasharray:7.0,7.0;"/><polygon fill="none" points="741.3,1375.7126,737.1,1388.3126,745.5,1388.3126,741.3,1375.7126" style="stroke:#181818;stroke-width:0.6999999999999998;"/></g><!--reverse link GreenSpace to LargePark--><g id="link_GreenSpace_LargePark"><path d="M814.5764,1382.7398 C839.4544,1399.4558 858.242,1412.0776 885.99,1430.7186 " fill="none" id="GreenSpace-backto-LargePark" style="stroke:#181818;stroke-width:0.6999999999999998;stroke-dasharray:7.0,7.0;"/><polygon fill="none" points="804.118,1375.7126,812.234,1386.2259,816.9188,1379.2536,804.118,1375.7126" style="stroke:#181818;stroke-width:0.6999999999999998;"/></g><!--reverse link ICollaborator to GreenSpaceManager--><g id="link_ICollaborator_GreenSpaceManager"><path d="M376.6,909.5546 C376.6,928.7066 376.6,940.7746 376.6,958.4916 " fill="none" id="ICollaborator-backto-GreenSpaceManager" style="stroke:#181818;stroke-width:0.6999999999999998;stroke-dasharray:7.0,7.0;"/><polygon fill="none" points="376.6,896.9546,372.4,909.5546,380.8,909.5546,376.6,896.9546" style="stroke:#181818;stroke-width:0.6999999999999998;"/></g><!--link Repositories to Repositories--><g id="link_Repositories_Repositories"><path codeLine="174" d="M647.619,398.1626 C661.85,399.8356 672,404.7846 672,413.0096 C672,421.2346 666.0213,425.6932 651.7903,427.3662 " fill="none" id="Repositories-to-Repositories" style="stroke:#181818;stroke-width:0.6999999999999998;"/><polygon fill="#181818" points="647.619,427.8566,654.2028,429.9019,651.0951,427.4479,653.549,424.3402,647.619,427.8566" style="stroke:#181818;stroke-width:0.6999999999999998;"/><text fill="#000000" font-family="sans-serif" font-size="9.1" lengthAdjust="spacing" textLength="34.3" x="676.2" y="416.8794">instance</text></g><!--link ApplicationSession to ApplicationSession--><g id="link_ApplicationSession_ApplicationSession"><path codeLine="175" d="M849.947,397.6936 C863.842,398.6666 874.3,403.7766 874.3,413.0096 C874.3,422.2426 868.0317,427.0592 854.1367,428.0322 " fill="none" id="ApplicationSession-to-ApplicationSession" style="stroke:#181818;stroke-width:0.6999999999999998;"/><polygon fill="#181818" points="849.947,428.3256,856.4272,430.6786,853.4385,428.0811,856.036,425.0923,849.947,428.3256" style="stroke:#181818;stroke-width:0.6999999999999998;"/><text fill="#000000" font-family="sans-serif" font-size="9.1" lengthAdjust="spacing" textLength="34.3" x="878.5" y="416.8794">instance</text></g><!--link RegisterEntryToDoListUI to RegisterEntryToDoListController--><g id="link_RegisterEntryToDoListUI_RegisterEntryToDoListController"><path codeLine="178" d="M576.1,63.8076 C576.1,79.1866 576.1,98.7656 576.1,119.5066 " fill="none" id="RegisterEntryToDoListUI-to-RegisterEntryToDoListController" style="stroke:#181818;stroke-width:0.6999999999999998;stroke-dasharray:7.0,7.0;"/><polygon fill="#181818" points="576.1,123.7066,578.9,117.4066,576.1,120.2066,573.3,117.4066,576.1,123.7066" style="stroke:#181818;stroke-width:0.6999999999999998;"/></g><!--link RegisterEntryToDoListController to Repositories--><g id="link_RegisterEntryToDoListController_Repositories"><path codeLine="181" d="M576.1,209.4286 C576.1,250.1966 576.1,308.0376 576.1,352.7746 " fill="none" id="RegisterEntryToDoListController-to-Repositories" style="stroke:#181818;stroke-width:0.6999999999999998;stroke-dasharray:7.0,7.0;"/><polygon fill="#181818" points="576.1,356.9746,578.9,350.6746,576.1,353.4746,573.3,350.6746,576.1,356.9746" style="stroke:#181818;stroke-width:0.6999999999999998;"/><text fill="#000000" font-family="sans-serif" font-size="9.1" lengthAdjust="spacing" textLength="46.9" x="576.8" y="263.9294">repositories</text></g><!--link RegisterEntryToDoListController to ApplicationSession--><g id="link_RegisterEntryToDoListController_ApplicationSession"><path codeLine="182" d="M627.158,209.3796 C654.339,232.9346 687.519,263.6086 714,294.0096 C738.696,322.3596 760.423,354.706 775.984,379.479 " fill="none" id="RegisterEntryToDoListController-to-ApplicationSession" style="stroke:#181818;stroke-width:0.6999999999999998;stroke-dasharray:7.0,7.0;"/><polygon fill="#181818" points="778.218,383.0356,777.238,376.2114,776.3563,380.0718,772.4959,379.1901,778.218,383.0356" style="stroke:#181818;stroke-width:0.6999999999999998;"/></g><!--link RegisterEntryToDoListController to UserSession--><g id="link_RegisterEntryToDoListController_UserSession"><path codeLine="183" d="M806.288,209.3516 C850.073,228.0696 890.61,255.0686 917.7,294.0096 C962.115,357.8566 945.861,396.5106 917.7,469.0096 C909.223,490.8356 894.6089,507.482 878.9289,521.503 " fill="none" id="RegisterEntryToDoListController-to-UserSession" style="stroke:#181818;stroke-width:0.6999999999999998;stroke-dasharray:7.0,7.0;"/><polygon fill="#181818" points="875.798,524.3026,882.3607,522.1904,878.407,521.9696,878.6279,518.0159,875.798,524.3026" style="stroke:#181818;stroke-width:0.6999999999999998;"/></g><!--link RegisterEntryToDoListController to GreenSpaceRepository--><g id="link_RegisterEntryToDoListController_GreenSpaceRepository"><path codeLine="184" d="M331.401,190.6266 C261.072,204.2346 203,225.6686 203,259.3596 C203,259.3596 203,259.3596 203,652.0596 C203,666.1086 358.631,703.9904 469.063,729.1554 " fill="none" id="RegisterEntryToDoListController-to-GreenSpaceRepository" style="stroke:#181818;stroke-width:0.6999999999999998;stroke-dasharray:7.0,7.0;"/><polygon fill="#181818" points="473.158,730.0886,467.6376,725.9588,469.7455,729.3109,466.3934,731.4188,473.158,730.0886" style="stroke:#181818;stroke-width:0.6999999999999998;"/></g><!--link RegisterEntryToDoListController to CollaboratorRepository--><g id="link_RegisterEntryToDoListController_CollaboratorRepository"><path codeLine="185" d="M331.401,203.7796 C286.083,217.2686 252.7,235.3496 252.7,259.3596 C252.7,259.3596 252.7,259.3596 252.7,548.4596 C252.7,586.4766 283.0354,610.1345 317.5174,626.1155 " fill="none" id="RegisterEntryToDoListController-to-CollaboratorRepository" style="stroke:#181818;stroke-width:0.6999999999999998;stroke-dasharray:7.0,7.0;"/><polygon fill="#181818" points="321.328,627.8816,316.7894,622.692,318.1525,626.4098,314.4347,627.7729,321.328,627.8816" style="stroke:#181818;stroke-width:0.6999999999999998;"/></g><!--link RegisterEntryToDoListController to TaskRepository--><g id="link_RegisterEntryToDoListController_TaskRepository"><path codeLine="186" d="M537.712,209.4286 C490.203,261.5506 413.8343,345.3445 376.4193,386.3925 " fill="none" id="RegisterEntryToDoListController-to-TaskRepository" style="stroke:#181818;stroke-width:0.6999999999999998;stroke-dasharray:7.0,7.0;"/><polygon fill="#181818" points="373.59,389.4966,379.9033,386.7267,375.9478,386.9099,375.7646,382.9543,373.59,389.4966" style="stroke:#181818;stroke-width:0.6999999999999998;"/></g><!--link RegisterEntryToDoListController to ICollaborator--><g id="link_RegisterEntryToDoListController_ICollaborator"><path codeLine="187" d="M331.38,181.1696 C237.881,193.3986 153.3,216.3516 153.3,259.3596 C153.3,259.3596 153.3,259.3596 153.3,754.2596 C153.3,833.6256 263.2294,856.3208 328.3084,863.0618 " fill="none" id="RegisterEntryToDoListController-to-ICollaborator" style="stroke:#181818;stroke-width:0.6999999999999998;stroke-dasharray:7.0,7.0;"/><polygon fill="#181818" points="332.486,863.4946,326.508,860.0604,329.0046,863.134,325.931,865.6306,332.486,863.4946" style="stroke:#181818;stroke-width:0.6999999999999998;"/></g><!--link RegisterEntryToDoListController to GreenSpace--><g id="link_RegisterEntryToDoListController_GreenSpace"><path codeLine="188" d="M820.876,189.9826 C953.806,205.7536 1091.3,229.3156 1091.3,259.3596 C1091.3,259.3596 1091.3,259.3596 1091.3,1241.4596 C1091.3,1287.3936 934.836,1278.4756 890.4,1290.1096 C865.487,1296.6336 842.3959,1303.0064 818.1899,1309.8664 " fill="none" id="RegisterEntryToDoListController-to-GreenSpace" style="stroke:#181818;stroke-width:0.6999999999999998;stroke-dasharray:7.0,7.0;"/><polygon fill="#181818" points="814.149,1311.0116,820.9737,1311.9877,817.5164,1310.0573,819.4468,1306.5999,814.149,1311.0116" style="stroke:#181818;stroke-width:0.6999999999999998;"/></g><!--link RegisterEntryToDoListController to ToDoList--><g id="link_RegisterEntryToDoListController_ToDoList"><path codeLine="189" d="M820.778,174.8486 C933.044,185.2296 1041.6,208.4346 1041.6,259.3596 C1041.6,259.3596 1041.6,259.3596 1041.6,867.6596 C1041.6,894.2036 1032.255,903.7866 1010.1,918.4096 C965.72,947.6976 840.8809,963.7503 738.7299,972.4233 " fill="none" id="RegisterEntryToDoListController-to-ToDoList" style="stroke:#181818;stroke-width:0.6999999999999998;stroke-dasharray:7.0,7.0;"/><polygon fill="#181818" points="734.545,972.7786,741.0593,975.0356,738.0325,972.4825,740.5855,969.4556,734.545,972.7786" style="stroke:#181818;stroke-width:0.6999999999999998;"/></g><!--link RegisterEntryToDoListController to Task--><g id="link_RegisterEntryToDoListController_Task"><path codeLine="190" d="M331.436,189.3106 C195.643,204.9696 53.9,228.6646 53.9,259.3596 C53.9,259.3596 53.9,259.3596 53.9,982.8096 C53.9,1027.7636 84.9902,1063.8544 116.7772,1090.1184 " fill="none" id="RegisterEntryToDoListController-to-Task" style="stroke:#181818;stroke-width:0.6999999999999998;stroke-dasharray:7.0,7.0;"/><polygon fill="#181818" points="120.015,1092.7936,116.9418,1086.6222,117.3168,1090.5642,113.3749,1090.9393,120.015,1092.7936" style="stroke:#181818;stroke-width:0.6999999999999998;"/></g><!--link RegisterEntryToDoListController to TaskToDoList--><g id="link_RegisterEntryToDoListController_TaskToDoList"><path codeLine="191" d="M331.198,194.4836 C216.027,210.7306 103.6,233.2706 103.6,259.3596 C103.6,259.3596 103.6,259.3596 103.6,982.8096 C103.6,1004.9086 202.8965,1047.9379 291.2855,1082.0349 " fill="none" id="RegisterEntryToDoListController-to-TaskToDoList" style="stroke:#181818;stroke-width:0.6999999999999998;stroke-dasharray:7.0,7.0;"/><polygon fill="#181818" points="295.204,1083.5466,290.3339,1078.6668,291.9385,1082.2869,288.3184,1083.8915,295.204,1083.5466" style="stroke:#181818;stroke-width:0.6999999999999998;"/></g><!--link RegisterEntryToDoListController to GreenSpaceManager--><g id="link_RegisterEntryToDoListController_GreenSpaceManager"><path codeLine="192" d="M820.981,182.3666 C911.246,194.8546 991.9,217.6816 991.9,259.3596 C991.9,259.3596 991.9,259.3596 991.9,867.6596 C991.9,989.5716 563.276,899.7406 448,939.4096 C434.539,944.0436 424.3887,949.1709 412.6077,956.4229 " fill="none" id="RegisterEntryToDoListController-to-GreenSpaceManager" style="stroke:#181818;stroke-width:0.6999999999999998;stroke-dasharray:7.0,7.0;"/><polygon fill="#181818" points="409.031,958.6246,415.8638,957.7065,412.0116,956.7898,412.9282,952.9376,409.031,958.6246" style="stroke:#181818;stroke-width:0.6999999999999998;"/></g><!--link RegisterEntryToDoListController to Address--><g id="link_RegisterEntryToDoListController_Address"><path codeLine="193" d="M331.282,185.1036 C176.001,199.8246 4.2,224.0796 4.2,259.3596 C4.2,259.3596 4.2,259.3596 4.2,1333.5096 C4.2,1391.3716 49.0085,1429.1712 101.4735,1455.1272 " fill="none" id="RegisterEntryToDoListController-to-Address" style="stroke:#181818;stroke-width:0.6999999999999998;stroke-dasharray:7.0,7.0;"/><polygon fill="#181818" points="105.238,1456.9896,100.8329,1451.6863,102.1009,1455.4376,98.3496,1456.7056,105.238,1456.9896" style="stroke:#181818;stroke-width:0.6999999999999998;"/></g><!--link RegisterEntryToDoListController to PostCode--><g id="link_RegisterEntryToDoListController_PostCode"><path codeLine="194" d="M820.771,182.0166 C992.166,195.7436 1190.7,220.1106 1190.7,259.3596 C1190.7,259.3596 1190.7,259.3596 1190.7,1500.4596 C1190.7,1598.3826 882.8759,1641.4704 718.6489,1657.5844 " fill="none" id="RegisterEntryToDoListController-to-PostCode" style="stroke:#181818;stroke-width:0.6999999999999998;stroke-dasharray:7.0,7.0;"/><polygon fill="#181818" points="714.469,1657.9946,721.0123,1660.166,717.9523,1657.6528,720.4655,1654.5927,714.469,1657.9946" style="stroke:#181818;stroke-width:0.6999999999999998;"/></g><!--link RegisterEntryToDoListController to GreenSpaces--><g id="link_RegisterEntryToDoListController_GreenSpaces"><path codeLine="195" d="M820.792,185.6356 C973.406,200.5106 1141,224.7236 1141,259.3596 C1141,259.3596 1141,259.3596 1141,1241.4596 C1141,1292.3776 1085.7175,1313.9244 1036.4095,1323.7174 " fill="none" id="RegisterEntryToDoListController-to-GreenSpaces" style="stroke:#181818;stroke-width:0.6999999999999998;stroke-dasharray:7.0,7.0;"/><polygon fill="#181818" points="1032.29,1324.5356,1039.0148,1326.0547,1035.7229,1323.8538,1037.9239,1320.5619,1032.29,1324.5356" style="stroke:#181818;stroke-width:0.6999999999999998;"/></g><!--link ApplicationSession to UserSession--><g id="link_ApplicationSession_UserSession"><path codeLine="198" d="M806.96,442.9766 C816.207,467.4276 827.7142,497.8898 836.1982,520.3388 " fill="none" id="ApplicationSession-to-UserSession" style="stroke:#181818;stroke-width:0.6999999999999998;"/><polygon fill="#181818" points="837.683,524.2676,838.075,517.3845,836.4457,520.9936,832.8366,519.3642,837.683,524.2676" style="stroke:#181818;stroke-width:0.6999999999999998;"/><text fill="#000000" font-family="sans-serif" font-size="9.1" lengthAdjust="spacing" textLength="50.4" x="828.8" y="500.5294">userSession</text><text fill="#000000" font-family="sans-serif" font-size="9.1" lengthAdjust="spacing" textLength="4.9" x="830.6042" y="516.4372">1</text></g><!--link Repositories to GreenSpaceRepository--><g id="link_Repositories_GreenSpaceRepository"><path codeLine="201" d="M576.1,469.1426 C576.1,544.8336 576.1,672.9406 576.1,725.8466 " fill="none" id="Repositories-to-GreenSpaceRepository" style="stroke:#181818;stroke-width:0.6999999999999998;"/><polygon fill="#181818" points="576.1,730.0466,578.9,723.7466,576.1,726.5466,573.3,723.7466,576.1,730.0466" style="stroke:#181818;stroke-width:0.6999999999999998;"/><text fill="#000000" font-family="sans-serif" font-size="9.1" lengthAdjust="spacing" textLength="93.8" x="576.8" y="604.1294">GreenSpaceRepository</text><text fill="#000000" font-family="sans-serif" font-size="9.1" lengthAdjust="spacing" textLength="4.9" x="570.7177" y="722.212">1</text></g><!--link Repositories to CollaboratorRepository--><g id="link_Repositories_CollaboratorRepository"><path codeLine="202" d="M523.432,469.2126 C507.857,486.4326 491.127,505.7666 476.7,524.3096 C449.694,559.0086 424.2064,598.4503 408.1344,624.2873 " fill="none" id="Repositories-to-CollaboratorRepository" style="stroke:#181818;stroke-width:0.6999999999999998;"/><polygon fill="#181818" points="405.916,627.8536,411.6212,623.9831,407.7647,624.8816,406.8661,621.0252,405.916,627.8536" style="stroke:#181818;stroke-width:0.6999999999999998;"/><text fill="#000000" font-family="sans-serif" font-size="9.1" lengthAdjust="spacing" textLength="91.7" x="477.4" y="551.6294">CollaboratorRepository</text><text fill="#000000" font-family="sans-serif" font-size="9.1" lengthAdjust="spacing" textLength="4.9" x="403.2734" y="620.0204">1</text></g><!--link Repositories to ToDoList--><g id="link_Repositories_ToDoList"><path codeLine="203" d="M647.71,447.9536 C683.34,470.4376 718.9,503.7296 718.9,547.0596 C718.9,547.0596 718.9,547.0596 718.9,867.6596 C718.9,897.0246 703.0529,918.3848 679.9389,936.6128 " fill="none" id="Repositories-to-ToDoList" style="stroke:#181818;stroke-width:0.6999999999999998;"/><polygon fill="#181818" points="676.641,939.2136,683.3217,937.511,679.3892,937.0463,679.854,933.1138,676.641,939.2136" style="stroke:#181818;stroke-width:0.6999999999999998;"/><text fill="#000000" font-family="sans-serif" font-size="9.1" lengthAdjust="spacing" textLength="35.7" x="719.6" y="706.3294">ToDoList</text><text fill="#000000" font-family="sans-serif" font-size="9.1" lengthAdjust="spacing" textLength="4.9" x="680.6546" y="931.4778">1</text></g><!--link Repositories to TaskRepository--><g id="link_Repositories_TaskRepository"><path codeLine="204" d="M504.511,413.0096 C476.007,413.0096 447.692,413.0096 420.091,413.0096 " fill="none" id="Repositories-to-TaskRepository" style="stroke:#181818;stroke-width:0.6999999999999998;"/><polygon fill="#181818" points="415.891,413.0096,422.191,415.8096,419.391,413.0096,422.191,410.2096,415.891,413.0096" style="stroke:#181818;stroke-width:0.6999999999999998;"/><text fill="#000000" font-family="sans-serif" font-size="9.1" lengthAdjust="spacing" textLength="63" x="428.75" y="408.1294">TaskRepository</text><text fill="#000000" font-family="sans-serif" font-size="9.1" lengthAdjust="spacing" textLength="4.9" x="421.3186" y="410.4561">1</text></g><!--link CollaboratorRepository to ICollaborator--><g id="link_CollaboratorRepository_ICollaborator"><path codeLine="207" d="M390.355,674.9846 C387.534,714.1566 382.1023,789.7394 379.0013,832.8524 " fill="none" id="CollaboratorRepository-to-ICollaborator" style="stroke:#181818;stroke-width:0.6999999999999998;"/><polygon fill="#181818" points="378.7,837.0416,381.9448,830.9587,378.9511,833.5506,376.3592,830.5569,378.7,837.0416" style="stroke:#181818;stroke-width:0.6999999999999998;"/><text fill="#000000" font-family="sans-serif" font-size="9.1" lengthAdjust="spacing" textLength="61.6" x="386.4" y="757.4294">collaboratorList</text><text fill="#000000" font-family="sans-serif" font-size="9.1" lengthAdjust="spacing" textLength="4.9" x="384.7512" y="689.9279">1</text><text fill="#000000" font-family="sans-serif" font-size="9.1" lengthAdjust="spacing" textLength="3.5" x="375.2558" y="829.2477">*</text></g><!--link GreenSpaceRepository to GreenSpace--><g id="link_GreenSpaceRepository_GreenSpace"><path codeLine="210" d="M607.026,777.2266 C646.968,808.8316 715.106,869.7946 746.9,939.4096 C767.774,985.1126 759.5,1001.5136 759.5,1051.7596 C759.5,1051.7596 759.5,1051.7596 759.5,1241.4596 C759.5,1257.5106 757.6343,1270.7571 754.2533,1285.9331 " fill="none" id="GreenSpaceRepository-to-GreenSpace" style="stroke:#181818;stroke-width:0.6999999999999998;"/><polygon fill="#181818" points="753.34,1290.0326,757.443,1284.4922,754.1011,1286.6163,751.977,1283.2745,753.34,1290.0326" style="stroke:#181818;stroke-width:0.6999999999999998;"/><text fill="#000000" font-family="sans-serif" font-size="9.1" lengthAdjust="spacing" textLength="63" x="760.2" y="1056.3294">greenSpaceList</text><text fill="#000000" font-family="sans-serif" font-size="9.1" lengthAdjust="spacing" textLength="4.9" x="607.0203" y="792.1771">1</text><text fill="#000000" font-family="sans-serif" font-size="9.1" lengthAdjust="spacing" textLength="3.5" x="751.0298" y="1282.3105">*</text></g><!--link TaskRepository to Task--><g id="link_TaskRepository_Task"><path codeLine="213" d="M334.614,436.5296 C316.225,461.9536 290.5,505.0246 290.5,547.0596 C290.5,547.0596 290.5,547.0596 290.5,982.8096 C290.5,1027.7146 259.549,1063.9276 228.049,1090.2476 " fill="none" id="TaskRepository-to-Task" style="stroke:#181818;stroke-width:0.6999999999999998;"/><polygon fill="#181818" points="224.826,1092.9406,231.4558,1091.0497,227.5118,1090.6964,227.8652,1086.7524,224.826,1092.9406" style="stroke:#181818;stroke-width:0.6999999999999998;"/><text fill="#000000" font-family="sans-serif" font-size="9.1" lengthAdjust="spacing" textLength="32.2" x="291.2" y="757.4294">taskList</text><text fill="#000000" font-family="sans-serif" font-size="9.1" lengthAdjust="spacing" textLength="4.9" x="326.0382" y="451.6405">1</text><text fill="#000000" font-family="sans-serif" font-size="9.1" lengthAdjust="spacing" textLength="3.5" x="228.0684" y="1085.1737">*</text></g><!--reverse link Address to PostCode--><g id="link_Address_PostCode"><path codeLine="216" d="M334.7531,1545.9521 C354.3181,1554.6811 367.178,1560.3376 386.4,1568.7096 C429.268,1587.3786 476.833,1607.6086 517.496,1624.7656 " fill="none" id="Address-backto-PostCode" style="stroke:#181818;stroke-width:0.6999999999999998;"/><polygon fill="#181818" points="327.082,1542.5296,329.7767,1546.7979,334.7531,1545.9521,332.0584,1541.6838,327.082,1542.5296" style="stroke:#181818;stroke-width:0.6999999999999998;"/><text fill="#000000" font-family="sans-serif" font-size="9.1" lengthAdjust="spacing" textLength="38.5" x="462" y="1600.2294">postCode</text><text fill="#000000" font-family="sans-serif" font-size="9.1" lengthAdjust="spacing" textLength="14" x="323.5976" y="1558.2789">1..*</text><text fill="#000000" font-family="sans-serif" font-size="9.1" lengthAdjust="spacing" textLength="4.9" x="507.0751" y="1620.0625">1</text></g><!--reverse link GreenSpaceManager to TaskToDoList--><g id="link_GreenSpaceManager_TaskToDoList"><path codeLine="219" d="M384.4508,1009.6465 C390.2468,1029.4495 397.656,1054.7696 404.992,1079.8576 " fill="none" id="GreenSpaceManager-backto-TaskToDoList" style="stroke:#181818;stroke-width:0.6999999999999998;"/><polygon fill="#181818" points="383.271,1005.6156,382.3534,1012.4484,384.2541,1008.9747,387.7279,1010.8754,383.271,1005.6156" style="stroke:#181818;stroke-width:0.6999999999999998;"/><text fill="#000000" font-family="sans-serif" font-size="9.1" lengthAdjust="spacing" textLength="42.7" x="398.3" y="1056.3294">created by</text><text fill="#000000" font-family="sans-serif" font-size="9.1" lengthAdjust="spacing" textLength="14" x="369.2124" y="1020.724">1..*</text><text fill="#000000" font-family="sans-serif" font-size="9.1" lengthAdjust="spacing" textLength="14" x="388.7946" y="1072.0553">1..*</text></g><!--link GreenSpaceManager to GreenSpaces--><g id="link_GreenSpaceManager_GreenSpaces"><path codeLine="220" d="M414.351,1005.5596 C425.145,1011.9226 436.975,1018.7476 448,1024.8096 C495.18,1050.7586 511.721,1049.1766 555.8,1080.1096 C626.794,1129.9286 626.213,1165.3416 698.6,1213.1096 C763.343,1255.8376 842.0239,1288.3452 898.4649,1308.8692 " fill="none" id="GreenSpaceManager-to-GreenSpaces" style="stroke:#181818;stroke-width:0.6999999999999998;"/><polygon fill="#181818" points="902.412,1310.3046,897.4482,1305.5202,899.1227,1309.1085,895.5344,1310.783,902.412,1310.3046" style="stroke:#181818;stroke-width:0.6999999999999998;"/><text fill="#000000" font-family="sans-serif" font-size="9.1" lengthAdjust="spacing" textLength="53.2" x="699.3" y="1210.3294">greenSpaces</text><text fill="#000000" font-family="sans-serif" font-size="9.1" lengthAdjust="spacing" textLength="4.9" x="415.739" y="1020.658">1</text><text fill="#000000" font-family="sans-serif" font-size="9.1" lengthAdjust="spacing" textLength="4.9" x="892.138" y="1305.9756">1</text></g><!--reverse link GreenSpace to Address--><g id="link_GreenSpace_Address"><path codeLine="223" d="M660.0689,1352.0151 C587.6049,1369.2491 482.027,1396.5446 386.4,1430.8096 C365.092,1438.4466 342.601,1447.7636 321.622,1457.0316 " fill="none" id="GreenSpace-backto-Address" style="stroke:#181818;stroke-width:0.6999999999999998;"/><polygon fill="#181818" points="668.241,1350.0716,663.5071,1348.3193,660.0689,1352.0151,664.8028,1353.7674,668.241,1350.0716" style="stroke:#181818;stroke-width:0.6999999999999998;"/><text fill="#000000" font-family="sans-serif" font-size="9.1" lengthAdjust="spacing" textLength="49" x="492.8" y="1407.0294">is located in</text><text fill="#000000" font-family="sans-serif" font-size="9.1" lengthAdjust="spacing" textLength="4.9" x="658.0318" y="1348.782">1</text><text fill="#000000" font-family="sans-serif" font-size="9.1" lengthAdjust="spacing" textLength="4.9" x="326.5931" y="1449.3152">1</text></g><!--link GreenSpaces to GreenSpace--><g id="link_GreenSpaces_GreenSpace"><path codeLine="226" d="M902.566,1332.8096 C875.021,1332.8096 846.979,1332.8096 818.594,1332.8096 " fill="none" id="GreenSpaces-to-GreenSpace" style="stroke:#181818;stroke-width:0.6999999999999998;"/><polygon fill="#181818" points="814.394,1332.8096,820.694,1335.6096,817.894,1332.8096,820.694,1330.0096,814.394,1332.8096" style="stroke:#181818;stroke-width:0.6999999999999998;"/><text fill="#000000" font-family="sans-serif" font-size="9.1" lengthAdjust="spacing" textLength="63" x="826.875" y="1327.9294">greenSpaceList</text><text fill="#000000" font-family="sans-serif" font-size="9.1" lengthAdjust="spacing" textLength="4.9" x="892.094" y="1330.2561">1</text><text fill="#000000" font-family="sans-serif" font-size="9.1" lengthAdjust="spacing" textLength="3.5" x="819.6565" y="1330.3063">*</text></g><!--link ToDoList to TaskToDoList--><g id="link_ToDoList_TaskToDoList"><path codeLine="229" d="M545.909,1024.8306 C524.881,1042.0926 503.6413,1059.5248 481.8363,1077.4238 " fill="none" id="ToDoList-to-TaskToDoList" style="stroke:#181818;stroke-width:0.6999999999999998;"/><polygon fill="#181818" points="478.59,1080.0886,485.2361,1078.2556,481.2953,1077.8679,481.683,1073.9271,478.59,1080.0886" style="stroke:#181818;stroke-width:0.6999999999999998;"/><text fill="#000000" font-family="sans-serif" font-size="9.1" lengthAdjust="spacing" textLength="29.4" x="519.4" y="1056.3294">taskTdl</text><text fill="#000000" font-family="sans-serif" font-size="9.1" lengthAdjust="spacing" textLength="4.9" x="534.4715" y="1040.5739">1</text><text fill="#000000" font-family="sans-serif" font-size="9.1" lengthAdjust="spacing" textLength="3.5" x="481.0238" y="1072.3101">*</text></g><!--link TaskToDoList to GreenSpace--><g id="link_TaskToDoList_GreenSpace"><path codeLine="232" d="M449.897,1179.0476 C466.228,1202.1126 487.984,1228.6286 512.4,1247.4096 C558.327,1282.7386 616.4459,1303.4273 664.4029,1316.0273 " fill="none" id="TaskToDoList-to-GreenSpace" style="stroke:#181818;stroke-width:0.6999999999999998;"/><polygon fill="#181818" points="668.465,1317.0946,663.0833,1312.7856,665.0799,1316.2052,661.6603,1318.2018,668.465,1317.0946" style="stroke:#181818;stroke-width:0.6999999999999998;"/><text fill="#000000" font-family="sans-serif" font-size="9.1" lengthAdjust="spacing" textLength="48.3" x="513.1" y="1244.6294">greenSpace</text><text fill="#000000" font-family="sans-serif" font-size="9.1" lengthAdjust="spacing" textLength="14" x="438.2198" y="1194.3408">1..*</text><text fill="#000000" font-family="sans-serif" font-size="9.1" lengthAdjust="spacing" textLength="4.9" x="658.0363" y="1313.4184">1</text></g><!--link TaskToDoList to Task--><g id="link_TaskToDoList_Task"><path codeLine="233" d="M295.351,1129.4596 C280.805,1129.4596 270.466,1129.4596 256.76,1129.4596 " fill="none" id="TaskToDoList-to-Task" style="stroke:#181818;stroke-width:0.6999999999999998;"/><polygon fill="#181818" points="252.56,1129.4596,258.86,1132.2596,256.06,1129.4596,258.86,1126.6596,252.56,1129.4596" style="stroke:#181818;stroke-width:0.6999999999999998;"/><text fill="#000000" font-family="sans-serif" font-size="9.1" lengthAdjust="spacing" textLength="17.5" x="265.125" y="1124.5794">task</text><text fill="#000000" font-family="sans-serif" font-size="9.1" lengthAdjust="spacing" textLength="14" x="275.8266" y="1139.5331">1..*</text><text fill="#000000" font-family="sans-serif" font-size="9.1" lengthAdjust="spacing" textLength="4.9" x="258.0768" y="1126.9897">1</text></g><!--SRC=[rLZRRjiu47tNLn1-gTEL3UJL3GAaILiOQ8gYJZw0aIOE4PaqI7eBj-Y_ToHH5acDBWQwYrqZ22nnE6Vcp8L3lp6lGkwvvZksKr9bBrhjW5bzWAHTsVFibMzXOuy5C0sPvN9R-0BcXUVgkv1RzimBuwyKGe8zxe4fRLNYBMG5D-R6MYsU3XRMcP8RyGFOx7AM90wFpHxNCtPrzL4LEUZhQ_OpOVYfTh9li1N6WluWhJu-g3lr6HyVrqxcL_8hyVJSAfHIHG4wqZUciDte59UVlyPavriD83S83zzWhuomIXzJbk4YVrAQuwF_tdBp6ZmxXHSUuXRifvFIkR-YALiy2xxm7QGbn1sOJ8kz5Kgc1xq5cHtJ_83Mu8jMuQA2sjn_n4JOW36uwE2GKVnxKy2pHHEP5jiNot9HvWCAjMJVgHqNaY8w4bdUxFU5o2e3AF4sDfwWi-aaq8QbfiDO5CjA9zOIlyk0hHENjmUjGThGGUTa2FreG8zXei9Ix0CwLGIwF8snx_SgXwBFQo4neCyOFDO6dK8jOqkvTwE1a-_pNACldQKNRYfLOTOCiDAQPJopAsK8iy5YXzoJ6IBu4zSvI2Ps-m9s61DVUUZoWcsmNM2JaMXSj8ACCOvUHw-Tmv693dDUwadBNQcnY5dHcM8TOYddSF4VeliUSd7OVUNwzT_bwG_wtBfm7krdS_MPOs_xNrDryk0VOwhjB-jRxr0YEapSqqvGzGAK_mU2uLnaFQpNNX6yvqhfBuVT4-YOvuQqUclgIQQiOSOz5ohZXVWH7N0roD-uabShGxtfgrFOOtw8HyluHiI-DEhdVzpm1ppl-qYFPe7Og7BhF98Xuk-jzakJTZKpIfzzRZQXii9DAtt9nEt1KEuGKr4zTQKDMCgwar30DmHwBjvDEHhlkSGJN_jzA2gtRhsHGrwNHcT8HqDhORGmDYLM4-B0M5YJmVEyt1TmORs7NlAwPZcVUgQZTXmU7WnFSW8CYzXO1AjK0sudHBOAX8VYqff63fRaZ4z9FWHJlvzIhKWlRIq3D22ZSiiNVN-Sri0flzbmuhu_ddTWXqIGoc-AuY7iCOQOiylRoQBxQQ9CB2L1_YokmtnQOTEfjoRT2qWfJRprzf36FAvfC-ZBx79vFNRNf67QzSbmtbLtMUC6L6Y_F2Of82vja_RvDwv96wWSdRQJBfvfUyEqdROdQF_dEZVHBFT-kXFJ9S_JtJa89wQDcwyd2JSJrBaM6RfikYbBbG_L3B0Rp2vdVkvYpHoyJ2Rn_1eRRq-B1eLiogk-EWXLr1fwJerLVqM4VRBKSPhZLdxI4N9XVr_5bTFJm2WxA8vwN2cHdRzlPs7XeGd-Jt6LuQGH5A6K2MGyIWCSklSZpegrvs8_SCWG1HcHMe4vj6hsNrNpRJ-2gp8olTsTRNQvNAAwjuj5fRufDLJTN5V6M7DrFqnPCoKxkAiAhleQN1OmPdWFjf2pfoEvUqOMY0aODsCM3vjQwMxuQ6Z24zzKjxpIDY774CmmXA7pPcBQEBB8X6c8Z5F5OxWQvVEYFoS70NnTBeATS0JH6DhY9N7o6m00]--></g></svg>