<?xml version="1.0" encoding="us-ascii" standalone="no"?><svg xmlns="http://www.w3.org/2000/svg" xmlns:xlink="http://www.w3.org/1999/xlink" contentStyleType="text/css" height="1750px" preserveAspectRatio="none" style="width:2113px;height:1750px;background:#FFFFFF;" version="1.1" viewBox="0 0 2113 1750" width="2113px" zoomAndPan="magnify"><defs/><g><!--cluster UI--><g id="cluster_UI"><path d="M582.5,6.0137 L597.5,6.0137 A3.75,3.75 0 0 1 600,8.5137 L607,30.6348 L797.5,30.6348 A2.5,2.5 0 0 1 800,33.1348 L800,104.5137 A2.5,2.5 0 0 1 797.5,107.0137 L582.5,107.0137 A2.5,2.5 0 0 1 580,104.5137 L580,8.5137 A2.5,2.5 0 0 1 582.5,6.0137 " fill="none" style="stroke:#000000;stroke-width:1.5;"/><line style="stroke:#000000;stroke-width:1.5;" x1="580" x2="607" y1="30.6348" y2="30.6348"/><text fill="#000000" font-family="sans-serif" font-size="14" font-weight="bold" lengthAdjust="spacing" textLength="14" x="584" y="23.1211">UI</text></g><!--cluster Controller--><g id="cluster_Controller"><path d="M377.5,140.0137 L449.5,140.0137 A3.75,3.75 0 0 1 452,142.5137 L459,164.6348 L1002.5,164.6348 A2.5,2.5 0 0 1 1005,167.1348 L1005,312.5137 A2.5,2.5 0 0 1 1002.5,315.0137 L377.5,315.0137 A2.5,2.5 0 0 1 375,312.5137 L375,142.5137 A2.5,2.5 0 0 1 377.5,140.0137 " fill="none" style="stroke:#000000;stroke-width:1.5;"/><line style="stroke:#000000;stroke-width:1.5;" x1="375" x2="459" y1="164.6348" y2="164.6348"/><text fill="#000000" font-family="sans-serif" font-size="14" font-weight="bold" lengthAdjust="spacing" textLength="71" x="379" y="157.1211">Controller</text></g><!--cluster Domain--><g id="cluster_Domain"><path d="M163.5,428.0137 L216.5,428.0137 A3.75,3.75 0 0 1 219,430.5137 L226,452.6348 L2090.5,452.6348 A2.5,2.5 0 0 1 2093,455.1348 L2093,1740.5137 A2.5,2.5 0 0 1 2090.5,1743.0137 L163.5,1743.0137 A2.5,2.5 0 0 1 161,1740.5137 L161,430.5137 A2.5,2.5 0 0 1 163.5,428.0137 " fill="none" style="stroke:#000000;stroke-width:1.5;"/><line style="stroke:#000000;stroke-width:1.5;" x1="161" x2="226" y1="452.6348" y2="452.6348"/><text fill="#000000" font-family="sans-serif" font-size="14" font-weight="bold" lengthAdjust="spacing" textLength="52" x="165" y="445.1211">Domain</text></g><!--cluster Application--><g id="cluster_Application"><path d="M187.5,501.0137 L266.5,501.0137 A3.75,3.75 0 0 1 269,503.5137 L276,525.6348 L447.5,525.6348 A2.5,2.5 0 0 1 450,528.1348 L450,926.5137 A2.5,2.5 0 0 1 447.5,929.0137 L187.5,929.0137 A2.5,2.5 0 0 1 185,926.5137 L185,503.5137 A2.5,2.5 0 0 1 187.5,501.0137 " fill="none" style="stroke:#000000;stroke-width:1.5;"/><line style="stroke:#000000;stroke-width:1.5;" x1="185" x2="276" y1="525.6348" y2="525.6348"/><text fill="#000000" font-family="sans-serif" font-size="14" font-weight="bold" lengthAdjust="spacing" textLength="78" x="189" y="518.1211">Application</text></g><!--cluster Model--><g id="cluster_Model"><path d="M1215.5,716.0137 L1260.5,716.0137 A3.75,3.75 0 0 1 1263,718.5137 L1270,740.6348 L2066.5,740.6348 A2.5,2.5 0 0 1 2069,743.1348 L2069,1716.5137 A2.5,2.5 0 0 1 2066.5,1719.0137 L1215.5,1719.0137 A2.5,2.5 0 0 1 1213,1716.5137 L1213,718.5137 A2.5,2.5 0 0 1 1215.5,716.0137 " fill="none" style="stroke:#000000;stroke-width:1.5;"/><line style="stroke:#000000;stroke-width:1.5;" x1="1213" x2="1270" y1="740.6348" y2="740.6348"/><text fill="#000000" font-family="sans-serif" font-size="14" font-weight="bold" lengthAdjust="spacing" textLength="44" x="1217" y="733.1211">Model</text></g><!--cluster Repository--><g id="cluster_Repository"><path d="M489.5,473.0137 L566.5,473.0137 A3.75,3.75 0 0 1 569,475.5137 L576,497.6348 L1186.5,497.6348 A2.5,2.5 0 0 1 1189,500.1348 L1189,963.5137 A2.5,2.5 0 0 1 1186.5,966.0137 L489.5,966.0137 A2.5,2.5 0 0 1 487,963.5137 L487,475.5137 A2.5,2.5 0 0 1 489.5,473.0137 " fill="none" style="stroke:#000000;stroke-width:1.5;"/><line style="stroke:#000000;stroke-width:1.5;" x1="487" x2="576" y1="497.6348" y2="497.6348"/><text fill="#000000" font-family="sans-serif" font-size="14" font-weight="bold" lengthAdjust="spacing" textLength="76" x="491" y="490.1211">Repository</text></g><!--class RegisterEntryToDoListUI--><g id="elem_RegisterEntryToDoListUI"><rect codeLine="9" fill="#F1F1F1" height="48" id="RegisterEntryToDoListUI" rx="2.5" ry="2.5" style="stroke:#181818;stroke-width:0.5;" width="187" x="596.5" y="43.0137"/><ellipse cx="611.5" cy="59.0137" fill="#ADD1B2" rx="11" ry="11" style="stroke:#181818;stroke-width:1.0;"/><path d="M614.2656,54.8887 Q614.4219,54.6699 614.6094,54.5605 Q614.7969,54.4512 615.0156,54.4512 Q615.3906,54.4512 615.625,54.7168 Q615.8594,54.9668 615.8594,55.5762 L615.8594,57.0293 Q615.8594,57.6387 615.625,57.9043 Q615.3906,58.1699 615.0156,58.1699 Q614.6719,58.1699 614.4688,57.9668 Q614.2656,57.7793 614.1563,57.2637 Q614.1094,56.9043 613.9219,56.7168 Q613.5938,56.3418 612.9844,56.123 Q612.375,55.9043 611.75,55.9043 Q610.9844,55.9043 610.3438,56.2324 Q609.7188,56.5605 609.2188,57.3105 Q608.7344,58.0605 608.7344,59.0918 L608.7344,60.1855 Q608.7344,61.4199 609.625,62.248 Q610.5156,63.0605 612.1094,63.0605 Q613.0469,63.0605 613.7031,62.8105 Q614.0938,62.6543 614.5156,62.2168 Q614.7813,61.9512 614.9219,61.873 Q615.0781,61.7949 615.2813,61.7949 Q615.6094,61.7949 615.8594,62.0605 Q616.125,62.3105 616.125,62.6543 Q616.125,62.998 615.7813,63.4043 Q615.2813,63.9824 614.4844,64.3105 Q613.4063,64.7637 612.1094,64.7637 Q610.5938,64.7637 609.3906,64.1387 Q608.4063,63.6387 607.7188,62.5762 Q607.0313,61.498 607.0313,60.2168 L607.0313,59.0605 Q607.0313,57.7324 607.6406,56.5918 Q608.2656,55.4355 609.3594,54.8262 Q610.4531,54.2012 611.6875,54.2012 Q612.4219,54.2012 613.0625,54.373 Q613.7188,54.5293 614.2656,54.8887 Z " fill="#000000"/><text fill="#000000" font-family="sans-serif" font-size="14" lengthAdjust="spacing" textLength="155" x="625.5" y="64.8105">RegisterEntryToDoListUI</text><line style="stroke:#181818;stroke-width:0.5;" x1="597.5" x2="782.5" y1="75.0137" y2="75.0137"/><line style="stroke:#181818;stroke-width:0.5;" x1="597.5" x2="782.5" y1="83.0137" y2="83.0137"/></g><!--class RegisterEntryToDoListController--><g id="elem_RegisterEntryToDoListController"><rect codeLine="16" fill="#F1F1F1" height="122.4844" id="RegisterEntryToDoListController" rx="2.5" ry="2.5" style="stroke:#181818;stroke-width:0.5;" width="597" x="391.5" y="177.0137"/><ellipse cx="583.25" cy="193.0137" fill="#ADD1B2" rx="11" ry="11" style="stroke:#181818;stroke-width:1.0;"/><path d="M586.0156,188.8887 Q586.1719,188.6699 586.3594,188.5605 Q586.5469,188.4512 586.7656,188.4512 Q587.1406,188.4512 587.375,188.7168 Q587.6094,188.9668 587.6094,189.5762 L587.6094,191.0293 Q587.6094,191.6387 587.375,191.9043 Q587.1406,192.1699 586.7656,192.1699 Q586.4219,192.1699 586.2188,191.9668 Q586.0156,191.7793 585.9063,191.2637 Q585.8594,190.9043 585.6719,190.7168 Q585.3438,190.3418 584.7344,190.123 Q584.125,189.9043 583.5,189.9043 Q582.7344,189.9043 582.0938,190.2324 Q581.4688,190.5605 580.9688,191.3105 Q580.4844,192.0605 580.4844,193.0918 L580.4844,194.1855 Q580.4844,195.4199 581.375,196.248 Q582.2656,197.0605 583.8594,197.0605 Q584.7969,197.0605 585.4531,196.8105 Q585.8438,196.6543 586.2656,196.2168 Q586.5313,195.9512 586.6719,195.873 Q586.8281,195.7949 587.0313,195.7949 Q587.3594,195.7949 587.6094,196.0605 Q587.875,196.3105 587.875,196.6543 Q587.875,196.998 587.5313,197.4043 Q587.0313,197.9824 586.2344,198.3105 Q585.1563,198.7637 583.8594,198.7637 Q582.3438,198.7637 581.1406,198.1387 Q580.1563,197.6387 579.4688,196.5762 Q578.7813,195.498 578.7813,194.2168 L578.7813,193.0605 Q578.7813,191.7324 579.3906,190.5918 Q580.0156,189.4355 581.1094,188.8262 Q582.2031,188.2012 583.4375,188.2012 Q584.1719,188.2012 584.8125,188.373 Q585.4688,188.5293 586.0156,188.8887 Z " fill="#000000"/><text fill="#000000" font-family="sans-serif" font-size="14" lengthAdjust="spacing" textLength="205" x="603.75" y="198.8105">RegisterEntryToDoListController</text><line style="stroke:#181818;stroke-width:0.5;" x1="392.5" x2="987.5" y1="209.0137" y2="209.0137"/><line style="stroke:#181818;stroke-width:0.5;" x1="392.5" x2="987.5" y1="217.0137" y2="217.0137"/><ellipse cx="402.5" cy="231.8242" fill="#84BE84" rx="3" ry="3" style="stroke:#038048;stroke-width:1.0;"/><text fill="#000000" font-family="sans-serif" font-size="14" lengthAdjust="spacing" textLength="571" x="411.5" y="236.1211">RegisterEntryToDoListController(greenSpaceRepository, collaboratorRepository, toDoList)</text><ellipse cx="402.5" cy="250.4453" fill="#84BE84" rx="3" ry="3" style="stroke:#038048;stroke-width:1.0;"/><text fill="#000000" font-family="sans-serif" font-size="14" lengthAdjust="spacing" textLength="110" x="411.5" y="254.7422">getGreenSpace()</text><ellipse cx="402.5" cy="269.0664" fill="#84BE84" rx="3" ry="3" style="stroke:#038048;stroke-width:1.0;"/><text fill="#000000" font-family="sans-serif" font-size="14" lengthAdjust="spacing" textLength="473" x="411.5" y="273.3633">registerEntryToDoList(greenSpaceName,taskDescription,urgency,duration)</text><rect fill="#F24D5C" height="6" style="stroke:#C82930;stroke-width:1.0;" width="6" x="399.5" y="284.6875"/><text fill="#000000" font-family="sans-serif" font-size="14" lengthAdjust="spacing" textLength="144" x="411.5" y="291.9844">getGSMFromSession()</text></g><!--class ApplicationSession--><g id="elem_ApplicationSession"><rect codeLine="30" fill="#F1F1F1" height="85.2422" id="ApplicationSession" rx="2.5" ry="2.5" style="stroke:#181818;stroke-width:0.5;" width="154" x="201" y="538.0137"/><ellipse cx="217.35" cy="554.0137" fill="#ADD1B2" rx="11" ry="11" style="stroke:#181818;stroke-width:1.0;"/><path d="M220.1156,549.8887 Q220.2719,549.6699 220.4594,549.5605 Q220.6469,549.4512 220.8656,549.4512 Q221.2406,549.4512 221.475,549.7168 Q221.7094,549.9668 221.7094,550.5762 L221.7094,552.0293 Q221.7094,552.6387 221.475,552.9043 Q221.2406,553.1699 220.8656,553.1699 Q220.5219,553.1699 220.3188,552.9668 Q220.1156,552.7793 220.0063,552.2637 Q219.9594,551.9043 219.7719,551.7168 Q219.4438,551.3418 218.8344,551.123 Q218.225,550.9043 217.6,550.9043 Q216.8344,550.9043 216.1938,551.2324 Q215.5688,551.5605 215.0688,552.3105 Q214.5844,553.0605 214.5844,554.0918 L214.5844,555.1855 Q214.5844,556.4199 215.475,557.248 Q216.3656,558.0605 217.9594,558.0605 Q218.8969,558.0605 219.5531,557.8105 Q219.9438,557.6543 220.3656,557.2168 Q220.6313,556.9512 220.7719,556.873 Q220.9281,556.7949 221.1313,556.7949 Q221.4594,556.7949 221.7094,557.0605 Q221.975,557.3105 221.975,557.6543 Q221.975,557.998 221.6313,558.4043 Q221.1313,558.9824 220.3344,559.3105 Q219.2563,559.7637 217.9594,559.7637 Q216.4438,559.7637 215.2406,559.1387 Q214.2563,558.6387 213.5688,557.5762 Q212.8813,556.498 212.8813,555.2168 L212.8813,554.0605 Q212.8813,552.7324 213.4906,551.5918 Q214.1156,550.4355 215.2094,549.8262 Q216.3031,549.2012 217.5375,549.2012 Q218.2719,549.2012 218.9125,549.373 Q219.5688,549.5293 220.1156,549.8887 Z " fill="#000000"/><text fill="#000000" font-family="sans-serif" font-size="14" lengthAdjust="spacing" textLength="119" x="231.65" y="559.8105">ApplicationSession</text><line style="stroke:#181818;stroke-width:0.5;" x1="202" x2="354" y1="570.0137" y2="570.0137"/><line style="stroke:#181818;stroke-width:0.5;" x1="202" x2="354" y1="578.0137" y2="578.0137"/><ellipse cx="212" cy="592.8242" fill="#84BE84" rx="3" ry="3" style="stroke:#038048;stroke-width:1.0;"/><text fill="#000000" font-family="sans-serif" font-size="14" lengthAdjust="spacing" textLength="120" x="221" y="597.1211">static getInstance()</text><ellipse cx="212" cy="611.4453" fill="#84BE84" rx="3" ry="3" style="stroke:#038048;stroke-width:1.0;"/><text fill="#000000" font-family="sans-serif" font-size="14" lengthAdjust="spacing" textLength="128" x="221" y="615.7422">getCurrentSession()</text></g><!--class UserSession--><g id="elem_UserSession"><rect codeLine="36" fill="#F1F1F1" height="66.6211" id="UserSession" rx="2.5" ry="2.5" style="stroke:#181818;stroke-width:0.5;" width="119" x="209.5" y="846.0137"/><ellipse cx="228.1" cy="862.0137" fill="#ADD1B2" rx="11" ry="11" style="stroke:#181818;stroke-width:1.0;"/><path d="M230.8656,857.8887 Q231.0219,857.6699 231.2094,857.5605 Q231.3969,857.4512 231.6156,857.4512 Q231.9906,857.4512 232.225,857.7168 Q232.4594,857.9668 232.4594,858.5762 L232.4594,860.0293 Q232.4594,860.6387 232.225,860.9043 Q231.9906,861.1699 231.6156,861.1699 Q231.2719,861.1699 231.0688,860.9668 Q230.8656,860.7793 230.7563,860.2637 Q230.7094,859.9043 230.5219,859.7168 Q230.1938,859.3418 229.5844,859.123 Q228.975,858.9043 228.35,858.9043 Q227.5844,858.9043 226.9438,859.2324 Q226.3188,859.5605 225.8188,860.3105 Q225.3344,861.0605 225.3344,862.0918 L225.3344,863.1855 Q225.3344,864.4199 226.225,865.248 Q227.1156,866.0605 228.7094,866.0605 Q229.6469,866.0605 230.3031,865.8105 Q230.6938,865.6543 231.1156,865.2168 Q231.3813,864.9512 231.5219,864.873 Q231.6781,864.7949 231.8813,864.7949 Q232.2094,864.7949 232.4594,865.0605 Q232.725,865.3105 232.725,865.6543 Q232.725,865.998 232.3813,866.4043 Q231.8813,866.9824 231.0844,867.3105 Q230.0063,867.7637 228.7094,867.7637 Q227.1938,867.7637 225.9906,867.1387 Q225.0063,866.6387 224.3188,865.5762 Q223.6313,864.498 223.6313,863.2168 L223.6313,862.0605 Q223.6313,860.7324 224.2406,859.5918 Q224.8656,858.4355 225.9594,857.8262 Q227.0531,857.2012 228.2875,857.2012 Q229.0219,857.2012 229.6625,857.373 Q230.3188,857.5293 230.8656,857.8887 Z " fill="#000000"/><text fill="#000000" font-family="sans-serif" font-size="14" lengthAdjust="spacing" textLength="79" x="242.9" y="867.8105">UserSession</text><line style="stroke:#181818;stroke-width:0.5;" x1="210.5" x2="327.5" y1="878.0137" y2="878.0137"/><line style="stroke:#181818;stroke-width:0.5;" x1="210.5" x2="327.5" y1="886.0137" y2="886.0137"/><ellipse cx="220.5" cy="900.8242" fill="#84BE84" rx="3" ry="3" style="stroke:#038048;stroke-width:1.0;"/><text fill="#000000" font-family="sans-serif" font-size="14" lengthAdjust="spacing" textLength="93" x="229.5" y="905.1211">getUserEmail()</text></g><!--class GreenSpace--><g id="elem_GreenSpace"><rect codeLine="44" fill="#F1F1F1" height="141.1055" id="GreenSpace" rx="2.5" ry="2.5" style="stroke:#181818;stroke-width:0.5;" width="325" x="1229.5" y="1286.0137"/><ellipse cx="1347.75" cy="1302.0137" fill="#ADD1B2" rx="11" ry="11" style="stroke:#181818;stroke-width:1.0;"/><path d="M1350.5156,1297.8887 Q1350.6719,1297.6699 1350.8594,1297.5605 Q1351.0469,1297.4512 1351.2656,1297.4512 Q1351.6406,1297.4512 1351.875,1297.7168 Q1352.1094,1297.9668 1352.1094,1298.5762 L1352.1094,1300.0293 Q1352.1094,1300.6387 1351.875,1300.9043 Q1351.6406,1301.1699 1351.2656,1301.1699 Q1350.9219,1301.1699 1350.7188,1300.9668 Q1350.5156,1300.7793 1350.4063,1300.2637 Q1350.3594,1299.9043 1350.1719,1299.7168 Q1349.8438,1299.3418 1349.2344,1299.123 Q1348.625,1298.9043 1348,1298.9043 Q1347.2344,1298.9043 1346.5938,1299.2324 Q1345.9688,1299.5605 1345.4688,1300.3105 Q1344.9844,1301.0605 1344.9844,1302.0918 L1344.9844,1303.1855 Q1344.9844,1304.4199 1345.875,1305.248 Q1346.7656,1306.0605 1348.3594,1306.0605 Q1349.2969,1306.0605 1349.9531,1305.8105 Q1350.3438,1305.6543 1350.7656,1305.2168 Q1351.0313,1304.9512 1351.1719,1304.873 Q1351.3281,1304.7949 1351.5313,1304.7949 Q1351.8594,1304.7949 1352.1094,1305.0605 Q1352.375,1305.3105 1352.375,1305.6543 Q1352.375,1305.998 1352.0313,1306.4043 Q1351.5313,1306.9824 1350.7344,1307.3105 Q1349.6563,1307.7637 1348.3594,1307.7637 Q1346.8438,1307.7637 1345.6406,1307.1387 Q1344.6563,1306.6387 1343.9688,1305.5762 Q1343.2813,1304.498 1343.2813,1303.2168 L1343.2813,1302.0605 Q1343.2813,1300.7324 1343.8906,1299.5918 Q1344.5156,1298.4355 1345.6094,1297.8262 Q1346.7031,1297.2012 1347.9375,1297.2012 Q1348.6719,1297.2012 1349.3125,1297.373 Q1349.9688,1297.5293 1350.5156,1297.8887 Z " fill="#000000"/><text fill="#000000" font-family="sans-serif" font-size="14" lengthAdjust="spacing" textLength="80" x="1368.25" y="1307.8105">GreenSpace</text><line style="stroke:#181818;stroke-width:0.5;" x1="1230.5" x2="1553.5" y1="1318.0137" y2="1318.0137"/><rect fill="none" height="6" style="stroke:#C82930;stroke-width:1.0;" width="6" x="1237.5" y="1329.8242"/><text fill="#000000" font-family="sans-serif" font-size="14" lengthAdjust="spacing" textLength="76" x="1249.5" y="1337.1211">String name</text><rect fill="none" height="6" style="stroke:#C82930;stroke-width:1.0;" width="6" x="1237.5" y="1348.4453"/><text fill="#000000" font-family="sans-serif" font-size="14" lengthAdjust="spacing" textLength="48" x="1249.5" y="1355.7422">int area</text><rect fill="none" height="6" style="stroke:#C82930;stroke-width:1.0;" width="6" x="1237.5" y="1367.0664"/><text fill="#000000" font-family="sans-serif" font-size="14" lengthAdjust="spacing" textLength="52" x="1249.5" y="1374.3633">Address</text><line style="stroke:#181818;stroke-width:0.5;" x1="1230.5" x2="1553.5" y1="1381.877" y2="1381.877"/><ellipse cx="1240.5" cy="1396.6875" fill="#84BE84" rx="3" ry="3" style="stroke:#038048;stroke-width:1.0;"/><text fill="#000000" font-family="sans-serif" font-size="14" lengthAdjust="spacing" textLength="299" x="1249.5" y="1400.9844">GreenSpace(name,area,streetName,postCode)</text><rect fill="#F24D5C" height="6" style="stroke:#C82930;stroke-width:1.0;" width="6" x="1237.5" y="1412.3086"/><text fill="#000000" font-family="sans-serif" font-size="14" lengthAdjust="spacing" textLength="150" x="1249.5" y="1419.6055">validationGreenSpace()</text></g><!--class Collaborator--><g id="elem_Collaborator"><rect codeLine="53" fill="#F1F1F1" height="252.832" id="Collaborator" rx="2.5" ry="2.5" style="stroke:#181818;stroke-width:0.5;" width="686" x="1276" y="753.0137"/><ellipse cx="1575.75" cy="769.0137" fill="#ADD1B2" rx="11" ry="11" style="stroke:#181818;stroke-width:1.0;"/><path d="M1578.5156,764.8887 Q1578.6719,764.6699 1578.8594,764.5605 Q1579.0469,764.4512 1579.2656,764.4512 Q1579.6406,764.4512 1579.875,764.7168 Q1580.1094,764.9668 1580.1094,765.5762 L1580.1094,767.0293 Q1580.1094,767.6387 1579.875,767.9043 Q1579.6406,768.1699 1579.2656,768.1699 Q1578.9219,768.1699 1578.7188,767.9668 Q1578.5156,767.7793 1578.4063,767.2637 Q1578.3594,766.9043 1578.1719,766.7168 Q1577.8438,766.3418 1577.2344,766.123 Q1576.625,765.9043 1576,765.9043 Q1575.2344,765.9043 1574.5938,766.2324 Q1573.9688,766.5605 1573.4688,767.3105 Q1572.9844,768.0605 1572.9844,769.0918 L1572.9844,770.1855 Q1572.9844,771.4199 1573.875,772.248 Q1574.7656,773.0605 1576.3594,773.0605 Q1577.2969,773.0605 1577.9531,772.8105 Q1578.3438,772.6543 1578.7656,772.2168 Q1579.0313,771.9512 1579.1719,771.873 Q1579.3281,771.7949 1579.5313,771.7949 Q1579.8594,771.7949 1580.1094,772.0605 Q1580.375,772.3105 1580.375,772.6543 Q1580.375,772.998 1580.0313,773.4043 Q1579.5313,773.9824 1578.7344,774.3105 Q1577.6563,774.7637 1576.3594,774.7637 Q1574.8438,774.7637 1573.6406,774.1387 Q1572.6563,773.6387 1571.9688,772.5762 Q1571.2813,771.498 1571.2813,770.2168 L1571.2813,769.0605 Q1571.2813,767.7324 1571.8906,766.5918 Q1572.5156,765.4355 1573.6094,764.8262 Q1574.7031,764.2012 1575.9375,764.2012 Q1576.6719,764.2012 1577.3125,764.373 Q1577.9688,764.5293 1578.5156,764.8887 Z " fill="#000000"/><text fill="#000000" font-family="sans-serif" font-size="14" lengthAdjust="spacing" textLength="78" x="1596.25" y="774.8105">Collaborator</text><line style="stroke:#181818;stroke-width:0.5;" x1="1277" x2="1961" y1="785.0137" y2="785.0137"/><rect fill="none" height="6" style="stroke:#C82930;stroke-width:1.0;" width="6" x="1284" y="796.8242"/><text fill="#000000" font-family="sans-serif" font-size="14" lengthAdjust="spacing" textLength="76" x="1296" y="804.1211">String name</text><rect fill="none" height="6" style="stroke:#C82930;stroke-width:1.0;" width="6" x="1284" y="815.4453"/><text fill="#000000" font-family="sans-serif" font-size="14" lengthAdjust="spacing" textLength="90" x="1296" y="822.7422">List&lt;Skill&gt; skill</text><rect fill="none" height="6" style="stroke:#C82930;stroke-width:1.0;" width="6" x="1284" y="834.0664"/><text fill="#000000" font-family="sans-serif" font-size="14" lengthAdjust="spacing" textLength="45" x="1296" y="841.3633">Job job</text><rect fill="none" height="6" style="stroke:#C82930;stroke-width:1.0;" width="6" x="1284" y="852.6875"/><text fill="#000000" font-family="sans-serif" font-size="14" lengthAdjust="spacing" textLength="106" x="1296" y="859.9844">Date dateOfBirth</text><rect fill="none" height="6" style="stroke:#C82930;stroke-width:1.0;" width="6" x="1284" y="871.3086"/><text fill="#000000" font-family="sans-serif" font-size="14" lengthAdjust="spacing" textLength="127" x="1296" y="878.6055">Date admissionDate</text><rect fill="none" height="6" style="stroke:#C82930;stroke-width:1.0;" width="6" x="1284" y="889.9297"/><text fill="#000000" font-family="sans-serif" font-size="14" lengthAdjust="spacing" textLength="107" x="1296" y="897.2266">Address address</text><rect fill="none" height="6" style="stroke:#C82930;stroke-width:1.0;" width="6" x="1284" y="908.5508"/><text fill="#000000" font-family="sans-serif" font-size="14" lengthAdjust="spacing" textLength="130" x="1296" y="915.8477">Document document</text><rect fill="none" height="6" style="stroke:#C82930;stroke-width:1.0;" width="6" x="1284" y="927.1719"/><text fill="#000000" font-family="sans-serif" font-size="14" lengthAdjust="spacing" textLength="130" x="1296" y="934.4688">String phoneNumber</text><rect fill="none" height="6" style="stroke:#C82930;stroke-width:1.0;" width="6" x="1284" y="945.793"/><text fill="#000000" font-family="sans-serif" font-size="14" lengthAdjust="spacing" textLength="74" x="1296" y="953.0898">String email</text><rect fill="none" height="6" style="stroke:#C82930;stroke-width:1.0;" width="6" x="1284" y="964.4141"/><text fill="#000000" font-family="sans-serif" font-size="14" lengthAdjust="spacing" textLength="73" x="1296" y="971.7109">int taxpayer</text><line style="stroke:#181818;stroke-width:0.5;" x1="1277" x2="1961" y1="979.2246" y2="979.2246"/><ellipse cx="1287" cy="994.0352" fill="#84BE84" rx="3" ry="3" style="stroke:#038048;stroke-width:1.0;"/><text fill="#000000" font-family="sans-serif" font-size="14" lengthAdjust="spacing" textLength="660" x="1296" y="998.332">Collaborator(name, job, dateOfBirth, admissionDate, address, document, phoneNumber, email, taxpayer)</text></g><!--class Task--><g id="elem_Task"><rect codeLine="68" fill="#F1F1F1" height="196.9688" id="Task" rx="2.5" ry="2.5" style="stroke:#181818;stroke-width:0.5;" width="364" x="1639" y="1506.0137"/><ellipse cx="1801.25" cy="1522.0137" fill="#ADD1B2" rx="11" ry="11" style="stroke:#181818;stroke-width:1.0;"/><path d="M1804.0156,1517.8887 Q1804.1719,1517.6699 1804.3594,1517.5605 Q1804.5469,1517.4512 1804.7656,1517.4512 Q1805.1406,1517.4512 1805.375,1517.7168 Q1805.6094,1517.9668 1805.6094,1518.5762 L1805.6094,1520.0293 Q1805.6094,1520.6387 1805.375,1520.9043 Q1805.1406,1521.1699 1804.7656,1521.1699 Q1804.4219,1521.1699 1804.2188,1520.9668 Q1804.0156,1520.7793 1803.9063,1520.2637 Q1803.8594,1519.9043 1803.6719,1519.7168 Q1803.3438,1519.3418 1802.7344,1519.123 Q1802.125,1518.9043 1801.5,1518.9043 Q1800.7344,1518.9043 1800.0938,1519.2324 Q1799.4688,1519.5605 1798.9688,1520.3105 Q1798.4844,1521.0605 1798.4844,1522.0918 L1798.4844,1523.1855 Q1798.4844,1524.4199 1799.375,1525.248 Q1800.2656,1526.0605 1801.8594,1526.0605 Q1802.7969,1526.0605 1803.4531,1525.8105 Q1803.8438,1525.6543 1804.2656,1525.2168 Q1804.5313,1524.9512 1804.6719,1524.873 Q1804.8281,1524.7949 1805.0313,1524.7949 Q1805.3594,1524.7949 1805.6094,1525.0605 Q1805.875,1525.3105 1805.875,1525.6543 Q1805.875,1525.998 1805.5313,1526.4043 Q1805.0313,1526.9824 1804.2344,1527.3105 Q1803.1563,1527.7637 1801.8594,1527.7637 Q1800.3438,1527.7637 1799.1406,1527.1387 Q1798.1563,1526.6387 1797.4688,1525.5762 Q1796.7813,1524.498 1796.7813,1523.2168 L1796.7813,1522.0605 Q1796.7813,1520.7324 1797.3906,1519.5918 Q1798.0156,1518.4355 1799.1094,1517.8262 Q1800.2031,1517.2012 1801.4375,1517.2012 Q1802.1719,1517.2012 1802.8125,1517.373 Q1803.4688,1517.5293 1804.0156,1517.8887 Z " fill="#000000"/><text fill="#000000" font-family="sans-serif" font-size="14" lengthAdjust="spacing" textLength="31" x="1821.75" y="1527.8105">Task</text><line style="stroke:#181818;stroke-width:0.5;" x1="1640" x2="2002" y1="1538.0137" y2="1538.0137"/><rect fill="none" height="6" style="stroke:#C82930;stroke-width:1.0;" width="6" x="1647" y="1549.8242"/><text fill="#000000" font-family="sans-serif" font-size="14" lengthAdjust="spacing" textLength="138" x="1659" y="1557.1211">String taskDescription</text><rect fill="none" height="6" style="stroke:#C82930;stroke-width:1.0;" width="6" x="1647" y="1568.4453"/><text fill="#000000" font-family="sans-serif" font-size="14" lengthAdjust="spacing" textLength="92" x="1659" y="1575.7422">String urgency</text><rect fill="none" height="6" style="stroke:#C82930;stroke-width:1.0;" width="6" x="1647" y="1587.0664"/><text fill="#000000" font-family="sans-serif" font-size="14" lengthAdjust="spacing" textLength="71" x="1659" y="1594.3633">int duration</text><rect fill="none" height="6" style="stroke:#C82930;stroke-width:1.0;" width="6" x="1647" y="1605.6875"/><text fill="#000000" font-family="sans-serif" font-size="14" lengthAdjust="spacing" textLength="79" x="1659" y="1612.9844">String status</text><rect fill="none" height="6" style="stroke:#C82930;stroke-width:1.0;" width="6" x="1647" y="1624.3086"/><text fill="#000000" font-family="sans-serif" font-size="14" lengthAdjust="spacing" textLength="71" x="1659" y="1631.6055">Team team</text><rect fill="none" height="6" style="stroke:#C82930;stroke-width:1.0;" width="6" x="1647" y="1642.9297"/><text fill="#000000" font-family="sans-serif" font-size="14" lengthAdjust="spacing" textLength="161" x="1659" y="1650.2266">GreenSpace greenSpace</text><line style="stroke:#181818;stroke-width:0.5;" x1="1640" x2="2002" y1="1657.7402" y2="1657.7402"/><ellipse cx="1650" cy="1672.5508" fill="#84BE84" rx="3" ry="3" style="stroke:#038048;stroke-width:1.0;"/><text fill="#000000" font-family="sans-serif" font-size="14" lengthAdjust="spacing" textLength="338" x="1659" y="1676.8477">Task(taskDescription, urgency, duration,greenSpace)</text><rect fill="#F24D5C" height="6" style="stroke:#C82930;stroke-width:1.0;" width="6" x="1647" y="1688.1719"/><text fill="#000000" font-family="sans-serif" font-size="14" lengthAdjust="spacing" textLength="116" x="1659" y="1695.4688">validateTask(task)</text></g><!--class GreenSpaceManager--><g id="elem_GreenSpaceManager"><rect codeLine="80" fill="#F1F1F1" height="122.4844" id="GreenSpaceManager" rx="2.5" ry="2.5" style="stroke:#181818;stroke-width:0.5;" width="303" x="1563.5" y="1085.0137"/><ellipse cx="1642.75" cy="1101.0137" fill="#ADD1B2" rx="11" ry="11" style="stroke:#181818;stroke-width:1.0;"/><path d="M1645.5156,1096.8887 Q1645.6719,1096.6699 1645.8594,1096.5605 Q1646.0469,1096.4512 1646.2656,1096.4512 Q1646.6406,1096.4512 1646.875,1096.7168 Q1647.1094,1096.9668 1647.1094,1097.5762 L1647.1094,1099.0293 Q1647.1094,1099.6387 1646.875,1099.9043 Q1646.6406,1100.1699 1646.2656,1100.1699 Q1645.9219,1100.1699 1645.7188,1099.9668 Q1645.5156,1099.7793 1645.4063,1099.2637 Q1645.3594,1098.9043 1645.1719,1098.7168 Q1644.8438,1098.3418 1644.2344,1098.123 Q1643.625,1097.9043 1643,1097.9043 Q1642.2344,1097.9043 1641.5938,1098.2324 Q1640.9688,1098.5605 1640.4688,1099.3105 Q1639.9844,1100.0605 1639.9844,1101.0918 L1639.9844,1102.1855 Q1639.9844,1103.4199 1640.875,1104.248 Q1641.7656,1105.0605 1643.3594,1105.0605 Q1644.2969,1105.0605 1644.9531,1104.8105 Q1645.3438,1104.6543 1645.7656,1104.2168 Q1646.0313,1103.9512 1646.1719,1103.873 Q1646.3281,1103.7949 1646.5313,1103.7949 Q1646.8594,1103.7949 1647.1094,1104.0605 Q1647.375,1104.3105 1647.375,1104.6543 Q1647.375,1104.998 1647.0313,1105.4043 Q1646.5313,1105.9824 1645.7344,1106.3105 Q1644.6563,1106.7637 1643.3594,1106.7637 Q1641.8438,1106.7637 1640.6406,1106.1387 Q1639.6563,1105.6387 1638.9688,1104.5762 Q1638.2813,1103.498 1638.2813,1102.2168 L1638.2813,1101.0605 Q1638.2813,1099.7324 1638.8906,1098.5918 Q1639.5156,1097.4355 1640.6094,1096.8262 Q1641.7031,1096.2012 1642.9375,1096.2012 Q1643.6719,1096.2012 1644.3125,1096.373 Q1644.9688,1096.5293 1645.5156,1096.8887 Z " fill="#000000"/><text fill="#000000" font-family="sans-serif" font-size="14" lengthAdjust="spacing" textLength="136" x="1663.25" y="1106.8105">GreenSpaceManager</text><line style="stroke:#181818;stroke-width:0.5;" x1="1564.5" x2="1865.5" y1="1117.0137" y2="1117.0137"/><rect fill="none" height="6" style="stroke:#C82930;stroke-width:1.0;" width="6" x="1571.5" y="1128.8242"/><text fill="#000000" font-family="sans-serif" font-size="14" lengthAdjust="spacing" textLength="277" x="1583.5" y="1136.1211">List&lt;GreenSpace&gt; managesGreenPlaceList</text><line style="stroke:#181818;stroke-width:0.5;" x1="1564.5" x2="1865.5" y1="1143.6348" y2="1143.6348"/><ellipse cx="1574.5" cy="1158.4453" fill="#84BE84" rx="3" ry="3" style="stroke:#038048;stroke-width:1.0;"/><text fill="#000000" font-family="sans-serif" font-size="14" lengthAdjust="spacing" textLength="146" x="1583.5" y="1162.7422">GreenSpaceManager()</text><ellipse cx="1574.5" cy="1177.0664" fill="#84BE84" rx="3" ry="3" style="stroke:#038048;stroke-width:1.0;"/><text fill="#000000" font-family="sans-serif" font-size="14" lengthAdjust="spacing" textLength="272" x="1583.5" y="1181.3633">addListManagerGreenSpace(GreenSpace)</text><ellipse cx="1574.5" cy="1195.6875" fill="#84BE84" rx="3" ry="3" style="stroke:#038048;stroke-width:1.0;"/><text fill="#000000" font-family="sans-serif" font-size="14" lengthAdjust="spacing" textLength="110" x="1583.5" y="1199.9844">getGreenSpace()</text></g><!--class ToDoList--><g id="elem_ToDoList"><rect codeLine="88" fill="#F1F1F1" height="141.1055" id="ToDoList" rx="2.5" ry="2.5" style="stroke:#181818;stroke-width:0.5;" width="463" x="1589.5" y="1286.0137"/><ellipse cx="1788.25" cy="1302.0137" fill="#ADD1B2" rx="11" ry="11" style="stroke:#181818;stroke-width:1.0;"/><path d="M1791.0156,1297.8887 Q1791.1719,1297.6699 1791.3594,1297.5605 Q1791.5469,1297.4512 1791.7656,1297.4512 Q1792.1406,1297.4512 1792.375,1297.7168 Q1792.6094,1297.9668 1792.6094,1298.5762 L1792.6094,1300.0293 Q1792.6094,1300.6387 1792.375,1300.9043 Q1792.1406,1301.1699 1791.7656,1301.1699 Q1791.4219,1301.1699 1791.2188,1300.9668 Q1791.0156,1300.7793 1790.9063,1300.2637 Q1790.8594,1299.9043 1790.6719,1299.7168 Q1790.3438,1299.3418 1789.7344,1299.123 Q1789.125,1298.9043 1788.5,1298.9043 Q1787.7344,1298.9043 1787.0938,1299.2324 Q1786.4688,1299.5605 1785.9688,1300.3105 Q1785.4844,1301.0605 1785.4844,1302.0918 L1785.4844,1303.1855 Q1785.4844,1304.4199 1786.375,1305.248 Q1787.2656,1306.0605 1788.8594,1306.0605 Q1789.7969,1306.0605 1790.4531,1305.8105 Q1790.8438,1305.6543 1791.2656,1305.2168 Q1791.5313,1304.9512 1791.6719,1304.873 Q1791.8281,1304.7949 1792.0313,1304.7949 Q1792.3594,1304.7949 1792.6094,1305.0605 Q1792.875,1305.3105 1792.875,1305.6543 Q1792.875,1305.998 1792.5313,1306.4043 Q1792.0313,1306.9824 1791.2344,1307.3105 Q1790.1563,1307.7637 1788.8594,1307.7637 Q1787.3438,1307.7637 1786.1406,1307.1387 Q1785.1563,1306.6387 1784.4688,1305.5762 Q1783.7813,1304.498 1783.7813,1303.2168 L1783.7813,1302.0605 Q1783.7813,1300.7324 1784.3906,1299.5918 Q1785.0156,1298.4355 1786.1094,1297.8262 Q1787.2031,1297.2012 1788.4375,1297.2012 Q1789.1719,1297.2012 1789.8125,1297.373 Q1790.4688,1297.5293 1791.0156,1297.8887 Z " fill="#000000"/><text fill="#000000" font-family="sans-serif" font-size="14" lengthAdjust="spacing" textLength="57" x="1808.75" y="1307.8105">ToDoList</text><line style="stroke:#181818;stroke-width:0.5;" x1="1590.5" x2="2051.5" y1="1318.0137" y2="1318.0137"/><rect fill="none" height="6" style="stroke:#C82930;stroke-width:1.0;" width="6" x="1597.5" y="1329.8242"/><text fill="#000000" font-family="sans-serif" font-size="14" lengthAdjust="spacing" textLength="121" x="1609.5" y="1337.1211">List&lt;Task&gt; taskList</text><line style="stroke:#181818;stroke-width:0.5;" x1="1590.5" x2="2051.5" y1="1344.6348" y2="1344.6348"/><ellipse cx="1600.5" cy="1359.4453" fill="#84BE84" rx="3" ry="3" style="stroke:#038048;stroke-width:1.0;"/><text fill="#000000" font-family="sans-serif" font-size="14" lengthAdjust="spacing" textLength="67" x="1609.5" y="1363.7422">ToDoList()</text><ellipse cx="1600.5" cy="1378.0664" fill="#84BE84" rx="3" ry="3" style="stroke:#038048;stroke-width:1.0;"/><text fill="#000000" font-family="sans-serif" font-size="14" lengthAdjust="spacing" textLength="437" x="1609.5" y="1382.3633">registerEntryToDoList(taskDescription,urgency,duration,greenSpace)</text><rect fill="#F24D5C" height="6" style="stroke:#C82930;stroke-width:1.0;" width="6" x="1597.5" y="1393.6875"/><text fill="#000000" font-family="sans-serif" font-size="14" lengthAdjust="spacing" textLength="113" x="1609.5" y="1400.9844">addListTask(task)</text><rect fill="#F24D5C" height="6" style="stroke:#C82930;stroke-width:1.0;" width="6" x="1597.5" y="1412.3086"/><text fill="#000000" font-family="sans-serif" font-size="14" lengthAdjust="spacing" textLength="142" x="1609.5" y="1419.6055">validateToDoList(task)</text></g><!--class Repositories--><g id="elem_Repositories"><rect codeLine="101" fill="#F1F1F1" height="141.1055" id="Repositories" rx="2.5" ry="2.5" style="stroke:#181818;stroke-width:0.5;" width="204" x="588" y="510.0137"/><ellipse cx="646.25" cy="526.0137" fill="#ADD1B2" rx="11" ry="11" style="stroke:#181818;stroke-width:1.0;"/><path d="M649.0156,521.8887 Q649.1719,521.6699 649.3594,521.5605 Q649.5469,521.4512 649.7656,521.4512 Q650.1406,521.4512 650.375,521.7168 Q650.6094,521.9668 650.6094,522.5762 L650.6094,524.0293 Q650.6094,524.6387 650.375,524.9043 Q650.1406,525.1699 649.7656,525.1699 Q649.4219,525.1699 649.2188,524.9668 Q649.0156,524.7793 648.9063,524.2637 Q648.8594,523.9043 648.6719,523.7168 Q648.3438,523.3418 647.7344,523.123 Q647.125,522.9043 646.5,522.9043 Q645.7344,522.9043 645.0938,523.2324 Q644.4688,523.5605 643.9688,524.3105 Q643.4844,525.0605 643.4844,526.0918 L643.4844,527.1855 Q643.4844,528.4199 644.375,529.248 Q645.2656,530.0605 646.8594,530.0605 Q647.7969,530.0605 648.4531,529.8105 Q648.8438,529.6543 649.2656,529.2168 Q649.5313,528.9512 649.6719,528.873 Q649.8281,528.7949 650.0313,528.7949 Q650.3594,528.7949 650.6094,529.0605 Q650.875,529.3105 650.875,529.6543 Q650.875,529.998 650.5313,530.4043 Q650.0313,530.9824 649.2344,531.3105 Q648.1563,531.7637 646.8594,531.7637 Q645.3438,531.7637 644.1406,531.1387 Q643.1563,530.6387 642.4688,529.5762 Q641.7813,528.498 641.7813,527.2168 L641.7813,526.0605 Q641.7813,524.7324 642.3906,523.5918 Q643.0156,522.4355 644.1094,521.8262 Q645.2031,521.2012 646.4375,521.2012 Q647.1719,521.2012 647.8125,521.373 Q648.4688,521.5293 649.0156,521.8887 Z " fill="#000000"/><text fill="#000000" font-family="sans-serif" font-size="14" lengthAdjust="spacing" textLength="79" x="666.75" y="531.8105">Repositories</text><line style="stroke:#181818;stroke-width:0.5;" x1="589" x2="791" y1="542.0137" y2="542.0137"/><line style="stroke:#181818;stroke-width:0.5;" x1="589" x2="791" y1="550.0137" y2="550.0137"/><rect fill="#F24D5C" height="6" style="stroke:#C82930;stroke-width:1.0;" width="6" x="596" y="561.8242"/><text fill="#000000" font-family="sans-serif" font-size="14" lengthAdjust="spacing" textLength="89" x="608" y="569.1211">Repositories()</text><ellipse cx="599" cy="583.4453" fill="#84BE84" rx="3" ry="3" style="stroke:#038048;stroke-width:1.0;"/><text fill="#000000" font-family="sans-serif" font-size="14" lengthAdjust="spacing" textLength="174" x="608" y="587.7422">getInstance() : Repositories</text><ellipse cx="599" cy="602.0664" fill="#84BE84" rx="3" ry="3" style="stroke:#038048;stroke-width:1.0;"/><text fill="#000000" font-family="sans-serif" font-size="14" lengthAdjust="spacing" textLength="178" x="608" y="606.3633">getGreenSpaceRepository()</text><ellipse cx="599" cy="620.6875" fill="#84BE84" rx="3" ry="3" style="stroke:#038048;stroke-width:1.0;"/><text fill="#000000" font-family="sans-serif" font-size="14" lengthAdjust="spacing" textLength="176" x="608" y="624.9844">getCollaboratorRepository()</text><ellipse cx="599" cy="639.3086" fill="#84BE84" rx="3" ry="3" style="stroke:#038048;stroke-width:1.0;"/><text fill="#000000" font-family="sans-serif" font-size="14" lengthAdjust="spacing" textLength="87" x="608" y="643.6055">getToDoList()</text></g><!--class CollaboratorRepository--><g id="elem_CollaboratorRepository"><rect codeLine="110" fill="#F1F1F1" height="85.2422" id="CollaboratorRepository" rx="2.5" ry="2.5" style="stroke:#181818;stroke-width:0.5;" width="261" x="911.5" y="837.0137"/><ellipse cx="964.75" cy="853.0137" fill="#ADD1B2" rx="11" ry="11" style="stroke:#181818;stroke-width:1.0;"/><path d="M967.5156,848.8887 Q967.6719,848.6699 967.8594,848.5605 Q968.0469,848.4512 968.2656,848.4512 Q968.6406,848.4512 968.875,848.7168 Q969.1094,848.9668 969.1094,849.5762 L969.1094,851.0293 Q969.1094,851.6387 968.875,851.9043 Q968.6406,852.1699 968.2656,852.1699 Q967.9219,852.1699 967.7188,851.9668 Q967.5156,851.7793 967.4063,851.2637 Q967.3594,850.9043 967.1719,850.7168 Q966.8438,850.3418 966.2344,850.123 Q965.625,849.9043 965,849.9043 Q964.2344,849.9043 963.5938,850.2324 Q962.9688,850.5605 962.4688,851.3105 Q961.9844,852.0605 961.9844,853.0918 L961.9844,854.1855 Q961.9844,855.4199 962.875,856.248 Q963.7656,857.0605 965.3594,857.0605 Q966.2969,857.0605 966.9531,856.8105 Q967.3438,856.6543 967.7656,856.2168 Q968.0313,855.9512 968.1719,855.873 Q968.3281,855.7949 968.5313,855.7949 Q968.8594,855.7949 969.1094,856.0605 Q969.375,856.3105 969.375,856.6543 Q969.375,856.998 969.0313,857.4043 Q968.5313,857.9824 967.7344,858.3105 Q966.6563,858.7637 965.3594,858.7637 Q963.8438,858.7637 962.6406,858.1387 Q961.6563,857.6387 960.9688,856.5762 Q960.2813,855.498 960.2813,854.2168 L960.2813,853.0605 Q960.2813,851.7324 960.8906,850.5918 Q961.5156,849.4355 962.6094,848.8262 Q963.7031,848.2012 964.9375,848.2012 Q965.6719,848.2012 966.3125,848.373 Q966.9688,848.5293 967.5156,848.8887 Z " fill="#000000"/><text fill="#000000" font-family="sans-serif" font-size="14" lengthAdjust="spacing" textLength="146" x="985.25" y="858.8105">CollaboratorRepository</text><line style="stroke:#181818;stroke-width:0.5;" x1="912.5" x2="1171.5" y1="869.0137" y2="869.0137"/><rect fill="none" height="6" style="stroke:#C82930;stroke-width:1.0;" width="6" x="919.5" y="880.8242"/><text fill="#000000" font-family="sans-serif" font-size="14" lengthAdjust="spacing" textLength="221" x="931.5" y="888.1211">List &lt;Collaborator&gt; collaboratorList</text><line style="stroke:#181818;stroke-width:0.5;" x1="912.5" x2="1171.5" y1="895.6348" y2="895.6348"/><ellipse cx="922.5" cy="910.4453" fill="#84BE84" rx="3" ry="3" style="stroke:#038048;stroke-width:1.0;"/><text fill="#000000" font-family="sans-serif" font-size="14" lengthAdjust="spacing" textLength="235" x="931.5" y="914.7422">getCollaboratorByEmail(greenSpace)</text></g><!--class GreenSpaceRepository--><g id="elem_GreenSpaceRepository"><rect codeLine="116" fill="#F1F1F1" height="141.1055" id="GreenSpaceRepository" rx="2.5" ry="2.5" style="stroke:#181818;stroke-width:0.5;" width="373" x="503.5" y="809.0137"/><ellipse cx="611.75" cy="825.0137" fill="#ADD1B2" rx="11" ry="11" style="stroke:#181818;stroke-width:1.0;"/><path d="M614.5156,820.8887 Q614.6719,820.6699 614.8594,820.5605 Q615.0469,820.4512 615.2656,820.4512 Q615.6406,820.4512 615.875,820.7168 Q616.1094,820.9668 616.1094,821.5762 L616.1094,823.0293 Q616.1094,823.6387 615.875,823.9043 Q615.6406,824.1699 615.2656,824.1699 Q614.9219,824.1699 614.7188,823.9668 Q614.5156,823.7793 614.4063,823.2637 Q614.3594,822.9043 614.1719,822.7168 Q613.8438,822.3418 613.2344,822.123 Q612.625,821.9043 612,821.9043 Q611.2344,821.9043 610.5938,822.2324 Q609.9688,822.5605 609.4688,823.3105 Q608.9844,824.0605 608.9844,825.0918 L608.9844,826.1855 Q608.9844,827.4199 609.875,828.248 Q610.7656,829.0605 612.3594,829.0605 Q613.2969,829.0605 613.9531,828.8105 Q614.3438,828.6543 614.7656,828.2168 Q615.0313,827.9512 615.1719,827.873 Q615.3281,827.7949 615.5313,827.7949 Q615.8594,827.7949 616.1094,828.0605 Q616.375,828.3105 616.375,828.6543 Q616.375,828.998 616.0313,829.4043 Q615.5313,829.9824 614.7344,830.3105 Q613.6563,830.7637 612.3594,830.7637 Q610.8438,830.7637 609.6406,830.1387 Q608.6563,829.6387 607.9688,828.5762 Q607.2813,827.498 607.2813,826.2168 L607.2813,825.0605 Q607.2813,823.7324 607.8906,822.5918 Q608.5156,821.4355 609.6094,820.8262 Q610.7031,820.2012 611.9375,820.2012 Q612.6719,820.2012 613.3125,820.373 Q613.9688,820.5293 614.5156,820.8887 Z " fill="#000000"/><text fill="#000000" font-family="sans-serif" font-size="14" lengthAdjust="spacing" textLength="148" x="632.25" y="830.8105">GreenSpaceRepository</text><line style="stroke:#181818;stroke-width:0.5;" x1="504.5" x2="875.5" y1="841.0137" y2="841.0137"/><rect fill="none" height="6" style="stroke:#C82930;stroke-width:1.0;" width="6" x="511.5" y="852.8242"/><text fill="#000000" font-family="sans-serif" font-size="14" lengthAdjust="spacing" textLength="225" x="523.5" y="860.1211">List &lt;GreenSpace&gt; greenSpaceList</text><line style="stroke:#181818;stroke-width:0.5;" x1="504.5" x2="875.5" y1="867.6348" y2="867.6348"/><rect fill="#F24D5C" height="6" style="stroke:#C82930;stroke-width:1.0;" width="6" x="511.5" y="879.4453"/><text fill="#000000" font-family="sans-serif" font-size="14" lengthAdjust="spacing" textLength="191" x="523.5" y="886.7422">addGreenSpace(greenSpace)</text><rect fill="#F24D5C" height="6" style="stroke:#C82930;stroke-width:1.0;" width="6" x="511.5" y="898.0664"/><text fill="#000000" font-family="sans-serif" font-size="14" lengthAdjust="spacing" textLength="242" x="523.5" y="905.3633">validationAllGreenSpace(greenSpace)</text><ellipse cx="514.5" cy="919.6875" fill="#84BE84" rx="3" ry="3" style="stroke:#038048;stroke-width:1.0;"/><text fill="#000000" font-family="sans-serif" font-size="14" lengthAdjust="spacing" textLength="347" x="523.5" y="923.9844">registerGreenSpace(name,area,streetName,postCode)</text><ellipse cx="514.5" cy="938.3086" fill="#84BE84" rx="3" ry="3" style="stroke:#038048;stroke-width:1.0;"/><text fill="#000000" font-family="sans-serif" font-size="14" lengthAdjust="spacing" textLength="275" x="523.5" y="942.6055">getGreenSpaceByName(greenSpaceName)</text></g><!--link Repositories to Repositories--><g id="link_Repositories_Repositories"><path codeLine="128" d="M792.17,560.7437 C812.5,562.9637 827,569.5537 827,580.5137 C827,591.4737 818.4645,597.4124 798.1345,599.6324 " fill="none" id="Repositories-to-Repositories" style="stroke:#181818;stroke-width:1.0;"/><polygon fill="#181818" points="792.17,600.2837,801.551,603.2831,797.1405,599.7409,800.6826,595.3303,792.17,600.2837" style="stroke:#181818;stroke-width:1.0;"/><text fill="#000000" font-family="sans-serif" font-size="13" lengthAdjust="spacing" textLength="49" x="833" y="586.042">instance</text></g><!--link ApplicationSession to ApplicationSession--><g id="link_ApplicationSession_ApplicationSession"><path codeLine="129" d="M355.21,560.1137 C375.06,561.4137 390,568.2137 390,580.5137 C390,592.8137 381.0472,599.2216 361.1972,600.5216 " fill="none" id="ApplicationSession-to-ApplicationSession" style="stroke:#181818;stroke-width:1.0;"/><polygon fill="#181818" points="355.21,600.9137,364.4522,604.317,360.1993,600.5869,363.9294,596.3341,355.21,600.9137" style="stroke:#181818;stroke-width:1.0;"/><text fill="#000000" font-family="sans-serif" font-size="13" lengthAdjust="spacing" textLength="49" x="396" y="586.042">instance</text></g><!--link RegisterEntryToDoListUI to RegisterEntryToDoListController--><g id="link_RegisterEntryToDoListUI_RegisterEntryToDoListController"><path codeLine="132" d="M690,91.1537 C690,113.1237 690,141.0937 690,170.7237 " fill="none" id="RegisterEntryToDoListUI-to-RegisterEntryToDoListController" style="stroke:#181818;stroke-width:1.0;stroke-dasharray:7.0,7.0;"/><polygon fill="#181818" points="690,176.7237,694,167.7237,690,171.7237,686,167.7237,690,176.7237" style="stroke:#181818;stroke-width:1.0;"/></g><!--link RegisterEntryToDoListController to Repositories--><g id="link_RegisterEntryToDoListController_Repositories"><path codeLine="135" d="M690,299.1037 C690,358.0037 690,441.7237 690,503.7437 " fill="none" id="RegisterEntryToDoListController-to-Repositories" style="stroke:#181818;stroke-width:1.0;stroke-dasharray:7.0,7.0;"/><polygon fill="#181818" points="690,509.7437,694,500.7437,690,504.7437,686,500.7437,690,509.7437" style="stroke:#181818;stroke-width:1.0;"/><text fill="#000000" font-family="sans-serif" font-size="13" lengthAdjust="spacing" textLength="67" x="691" y="377.042">repositories</text></g><!--link RegisterEntryToDoListController to ApplicationSession--><g id="link_RegisterEntryToDoListController_ApplicationSession"><path codeLine="136" d="M617.29,299.1037 C534.24,367.7437 405.1646,474.4109 332.8946,534.1509 " fill="none" id="RegisterEntryToDoListController-to-ApplicationSession" style="stroke:#181818;stroke-width:1.0;stroke-dasharray:7.0,7.0;"/><polygon fill="#181818" points="328.27,537.9737,337.7553,535.3226,332.1238,534.788,332.6583,529.1565,328.27,537.9737" style="stroke:#181818;stroke-width:1.0;"/></g><!--link RegisterEntryToDoListController to UserSession--><g id="link_RegisterEntryToDoListController_UserSession"><path codeLine="137" d="M391.48,294.4637 C268.07,324.7737 146.74,367.0137 117,420.0137 C66.76,509.5437 87.2,552.7637 117,651.0137 C140.65,728.9737 196.8238,800.1071 233.9738,841.5271 " fill="none" id="RegisterEntryToDoListController-to-UserSession" style="stroke:#181818;stroke-width:1.0;stroke-dasharray:7.0,7.0;"/><polygon fill="#181818" points="237.98,845.9937,234.9485,836.623,234.6415,842.2715,228.993,841.9645,237.98,845.9937" style="stroke:#181818;stroke-width:1.0;"/></g><!--link RegisterEntryToDoListController to GreenSpaceRepository--><g id="link_RegisterEntryToDoListController_GreenSpaceRepository"><path codeLine="138" d="M391.2,281.5037 C311.27,308.0437 233.65,350.8937 185,420.0137 C113.37,521.7737 98.34,610.7037 185,700.0137 C195.26,710.5837 436.04,703.3237 450,708.0137 C512.02,728.8337 567.4282,767.6016 611.9182,805.0216 " fill="none" id="RegisterEntryToDoListController-to-GreenSpaceRepository" style="stroke:#181818;stroke-width:1.0;stroke-dasharray:7.0,7.0;"/><polygon fill="#181818" points="616.51,808.8837,612.1971,800.0294,612.6835,805.6653,607.0476,806.1517,616.51,808.8837" style="stroke:#181818;stroke-width:1.0;"/></g><!--link RegisterEntryToDoListController to CollaboratorRepository--><g id="link_RegisterEntryToDoListController_CollaboratorRepository"><path codeLine="139" d="M769.45,299.1537 C808.89,331.8137 855.2,374.7337 889,420.0137 C966.05,523.2337 977.82,557.6837 1015,681.0137 C1030.78,733.3637 1036.9669,790.3372 1039.6969,830.8772 " fill="none" id="RegisterEntryToDoListController-to-CollaboratorRepository" style="stroke:#181818;stroke-width:1.0;stroke-dasharray:7.0,7.0;"/><polygon fill="#181818" points="1040.1,836.8637,1043.4863,827.6153,1039.7641,831.875,1035.5043,828.1528,1040.1,836.8637" style="stroke:#181818;stroke-width:1.0;"/></g><!--link RegisterEntryToDoListController to Collaborator--><g id="link_RegisterEntryToDoListController_Collaborator"><path codeLine="140" d="M924.84,299.0937 C1012.08,327.7037 1109.17,367.4037 1189,420.0137 C1325.11,509.7137 1445.0941,646.1093 1524.5041,748.1093 " fill="none" id="RegisterEntryToDoListController-to-Collaborator" style="stroke:#181818;stroke-width:1.0;stroke-dasharray:7.0,7.0;"/><polygon fill="#181818" points="1528.19,752.8437,1525.8175,743.2848,1525.1184,748.8983,1519.505,748.1993,1528.19,752.8437" style="stroke:#181818;stroke-width:1.0;"/></g><!--link RegisterEntryToDoListController to GreenSpace--><g id="link_RegisterEntryToDoListController_GreenSpace"><path codeLine="141" d="M391.48,270.0437 C207.29,293.3937 6,328.5337 6,370.5137 C6,370.5137 6,370.5137 6,1147.0137 C6,1269.4737 857.0985,1327.9541 1223.2785,1347.4841 " fill="none" id="RegisterEntryToDoListController-to-GreenSpace" style="stroke:#181818;stroke-width:1.0;stroke-dasharray:7.0,7.0;"/><polygon fill="#181818" points="1229.27,1347.8037,1220.4958,1343.33,1224.2771,1347.5374,1220.0697,1351.3187,1229.27,1347.8037" style="stroke:#181818;stroke-width:1.0;"/></g><!--link RegisterEntryToDoListController to ToDoList--><g id="link_RegisterEntryToDoListController_ToDoList"><path codeLine="142" d="M988.59,239.6037 C1379.35,244.4337 2015,268.0437 2015,370.5137 C2015,370.5137 2015,370.5137 2015,1147.0137 C2015,1203.1337 1981.4827,1246.6366 1939.0227,1281.9566 " fill="none" id="RegisterEntryToDoListController-to-ToDoList" style="stroke:#181818;stroke-width:1.0;stroke-dasharray:7.0,7.0;"/><polygon fill="#181818" points="1934.41,1285.7937,1943.8871,1283.1132,1938.2539,1282.5961,1938.771,1276.963,1934.41,1285.7937" style="stroke:#181818;stroke-width:1.0;"/></g><!--link RegisterEntryToDoListController to Task--><g id="link_RegisterEntryToDoListController_Task"><path codeLine="143" d="M988.7,249.4337 C1315.77,262.6937 1818.57,289.0637 2005,331.0137 C2052.02,341.5937 2106,322.3137 2106,370.5137 C2106,370.5137 2106,370.5137 2106,1357.5137 C2106,1425.4937 2063.8636,1475.3761 2008.0136,1514.7561 " fill="none" id="RegisterEntryToDoListController-to-Task" style="stroke:#181818;stroke-width:1.0;stroke-dasharray:7.0,7.0;"/><polygon fill="#181818" points="2003.11,1518.2137,2012.7704,1516.2964,2007.1963,1515.3324,2008.1604,1509.7583,2003.11,1518.2137" style="stroke:#181818;stroke-width:1.0;"/></g><!--link ApplicationSession to UserSession--><g id="link_ApplicationSession_UserSession"><path codeLine="146" d="M276.74,623.1237 C274.93,682.8337 271.8112,785.5864 270.1712,839.8664 " fill="none" id="ApplicationSession-to-UserSession" style="stroke:#181818;stroke-width:1.0;"/><polygon fill="#181818" points="269.99,845.8637,274.26,836.9886,270.141,840.866,266.2636,836.747,269.99,845.8637" style="stroke:#181818;stroke-width:1.0;"/><text fill="#000000" font-family="sans-serif" font-size="13" lengthAdjust="spacing" textLength="72" x="275" y="696.042">userSession</text><text fill="#000000" font-family="sans-serif" font-size="13" lengthAdjust="spacing" textLength="7" x="262.4958" y="834.6597">1</text></g><!--link Repositories to GreenSpaceRepository--><g id="link_Repositories_GreenSpaceRepository"><path codeLine="149" d="M690,651.1437 C690,698.6437 690,755.2937 690,802.8037 " fill="none" id="Repositories-to-GreenSpaceRepository" style="stroke:#181818;stroke-width:1.0;"/><polygon fill="#181818" points="690,808.8037,694,799.8037,690,803.8037,686,799.8037,690,808.8037" style="stroke:#181818;stroke-width:1.0;"/><text fill="#000000" font-family="sans-serif" font-size="13" lengthAdjust="spacing" textLength="134" x="691" y="696.042">GreenSpaceRepository</text><text fill="#000000" font-family="sans-serif" font-size="13" lengthAdjust="spacing" textLength="7" x="682.6391" y="797.673">1</text></g><!--link Repositories to CollaboratorRepository--><g id="link_Repositories_CollaboratorRepository"><path codeLine="150" d="M792.32,648.5737 C819.82,665.8837 849.76,684.1037 878,700.0137 C884.93,703.9137 887.72,703.1437 894,708.0137 C941.85,745.1337 982.301,794.7158 1009.671,832.0258 " fill="none" id="Repositories-to-CollaboratorRepository" style="stroke:#181818;stroke-width:1.0;"/><polygon fill="#181818" points="1013.22,836.8637,1011.1218,827.2409,1010.2625,832.8321,1004.6713,831.9729,1013.22,836.8637" style="stroke:#181818;stroke-width:1.0;"/><text fill="#000000" font-family="sans-serif" font-size="13" lengthAdjust="spacing" textLength="131" x="879" y="696.042">CollaboratorRepository</text><text fill="#000000" font-family="sans-serif" font-size="13" lengthAdjust="spacing" textLength="7" x="1001.0754" y="825.7439">1</text></g><!--link Repositories to ToDoList--><g id="link_Repositories_ToDoList"><path codeLine="151" d="M587.84,619.2037 C548.72,639.2337 508.19,668.1437 486,708.0137 C453.8,765.8737 448.92,951.1437 486,1006.0137 C765.09,1419.0037 1083.79,1185.4737 1572,1286.0137 C1577.71,1287.1937 1577.6322,1287.1253 1583.4522,1288.4153 " fill="none" id="Repositories-to-ToDoList" style="stroke:#181818;stroke-width:1.0;"/><polygon fill="#181818" points="1589.31,1289.7137,1581.3888,1283.8609,1584.4285,1288.6317,1579.6577,1291.6713,1589.31,1289.7137" style="stroke:#181818;stroke-width:1.0;"/><text fill="#000000" font-family="sans-serif" font-size="13" lengthAdjust="spacing" textLength="51" x="519" y="1051.042">ToDoList</text><text fill="#000000" font-family="sans-serif" font-size="13" lengthAdjust="spacing" textLength="7" x="1574.5928" y="1284.2743">1</text></g><!--link CollaboratorRepository to Collaborator--><g id="link_CollaboratorRepository_Collaborator"><path codeLine="154" d="M1172.57,879.5137 C1204.15,879.5137 1233.38,879.5137 1269.82,879.5137 " fill="none" id="CollaboratorRepository-to-Collaborator" style="stroke:#181818;stroke-width:1.0;"/><polygon fill="#181818" points="1275.82,879.5137,1266.82,875.5137,1270.82,879.5137,1266.82,883.5137,1275.82,879.5137" style="stroke:#181818;stroke-width:1.0;"/><text fill="#000000" font-family="sans-serif" font-size="13" lengthAdjust="spacing" textLength="67" x="1190.75" y="872.542">collaborator</text><text fill="#000000" font-family="sans-serif" font-size="13" lengthAdjust="spacing" textLength="7" x="1180.3209" y="876.052">1</text><text fill="#000000" font-family="sans-serif" font-size="13" lengthAdjust="spacing" textLength="5" x="1262.7181" y="876.3482">*</text></g><!--link GreenSpaceRepository to GreenSpace--><g id="link_GreenSpaceRepository_GreenSpace"><path codeLine="157" d="M792.83,950.0937 C925.84,1040.0937 1151.2106,1192.5913 1284.2106,1282.5813 " fill="none" id="GreenSpaceRepository-to-GreenSpace" style="stroke:#181818;stroke-width:1.0;"/><polygon fill="#181818" points="1289.18,1285.9437,1283.9675,1277.5872,1285.0389,1283.1417,1279.4844,1284.2131,1289.18,1285.9437" style="stroke:#181818;stroke-width:1.0;"/><text fill="#000000" font-family="sans-serif" font-size="13" lengthAdjust="spacing" textLength="69" x="1168" y="1151.542">greenSpace</text><text fill="#000000" font-family="sans-serif" font-size="13" lengthAdjust="spacing" textLength="7" x="796.0734" y="972.2867">1</text><text fill="#000000" font-family="sans-serif" font-size="13" lengthAdjust="spacing" textLength="5" x="1273.3189" y="1274.8275">*</text></g><!--reverse link Collaborator to GreenSpaceManager--><g id="link_Collaborator_GreenSpaceManager"><path codeLine="160" d="M1670.7549,1023.1023 C1680.7249,1050.5523 1684.68,1061.4737 1693.2,1084.9437 " fill="none" id="Collaborator-backto-GreenSpaceManager" style="stroke:#181818;stroke-width:1.0;"/><polygon fill="none" points="1664.61,1006.1837,1665.1154,1025.1506,1676.3945,1021.054,1664.61,1006.1837" style="stroke:#181818;stroke-width:1.0;"/></g><!--reverse link GreenSpaceManager to ToDoList--><g id="link_GreenSpaceManager_ToDoList"><path codeLine="163" d="M1748.2397,1212.3919 C1760.7797,1237.0519 1772.65,1260.4137 1785.65,1285.9837 " fill="none" id="GreenSpaceManager-backto-ToDoList" style="stroke:#181818;stroke-width:1.0;"/><polygon fill="#181818" points="1745.52,1207.0437,1746.034,1216.8791,1747.7864,1211.5005,1753.165,1213.2529,1745.52,1207.0437" style="stroke:#181818;stroke-width:1.0;"/><text fill="#000000" font-family="sans-serif" font-size="13" lengthAdjust="spacing" textLength="93" x="1769" y="1252.042">registers entries</text><text fill="#000000" font-family="sans-serif" font-size="13" lengthAdjust="spacing" textLength="20" x="1728.0209" y="1229.5342">1..*</text><text fill="#000000" font-family="sans-serif" font-size="13" lengthAdjust="spacing" textLength="7" x="1774.6436" y="1274.8716">1</text></g><!--reverse link GreenSpace to Task--><g id="link_GreenSpace_Task"><path codeLine="166" d="M1518.4149,1430.0085 C1561.1549,1454.5185 1604.83,1479.5537 1650.86,1505.9537 " fill="none" id="GreenSpace-backto-Task" style="stroke:#181818;stroke-width:1.0;"/><polygon fill="#181818" points="1513.21,1427.0237,1519.0274,1434.9708,1517.5474,1429.511,1523.0072,1428.031,1513.21,1427.0237" style="stroke:#181818;stroke-width:1.0;"/><text fill="#000000" font-family="sans-serif" font-size="13" lengthAdjust="spacing" textLength="77" x="1594" y="1472.042">Carried out in</text><text fill="#000000" font-family="sans-serif" font-size="13" lengthAdjust="spacing" textLength="7" x="1518.3488" y="1449.2095">1</text><text fill="#000000" font-family="sans-serif" font-size="13" lengthAdjust="spacing" textLength="7" x="1630.5657" y="1494.7975">1</text></g><!--link ToDoList to Task--><g id="link_ToDoList_Task"><path codeLine="169" d="M1821,1427.0237 C1821,1451.4637 1821,1473.3937 1821,1499.7237 " fill="none" id="ToDoList-to-Task" style="stroke:#181818;stroke-width:1.0;"/><polygon fill="#181818" points="1821,1505.7237,1825,1496.7237,1821,1500.7237,1817,1496.7237,1821,1505.7237" style="stroke:#181818;stroke-width:1.0;"/><text fill="#000000" font-family="sans-serif" font-size="13" lengthAdjust="spacing" textLength="48" x="1822" y="1472.042">includes</text><text fill="#000000" font-family="sans-serif" font-size="13" lengthAdjust="spacing" textLength="7" x="1813.6391" y="1449.2095">1</text><text fill="#000000" font-family="sans-serif" font-size="13" lengthAdjust="spacing" textLength="7" x="1813.743" y="1494.8847">1</text></g><!--SRC=[dLVRZjis47tNLn1-oIQH3UJLC0pi9GbSTDCYtlq0MkBQx5AaGL9jdJJ_dg5kfAYHvDHOh2tEuLpF3AatvfNBCzMq88MIAZjfLJ1YTSaIBpdJx9KUsTvU12EQPPRAemW1vaHpzG-NH_92XGabWajcBsT6bBOg2GIPeCRSMglveRHibocvvzyOMNnO94bZZooUTmkosNnI8cTwkoNV4mAVQYVvoexSMAO_IgilJ-f1_GwFpxi6yoFvaGHwxXMWb11CH_hc5FgDZMBtUJ-7lJbgnkGUpBElxAmCjqfVKfA1a1wKfl0Ohjj6mTl0mf7PpvsIcr2YCTk1nI-qOAcbvlM1cKppi-LAfgK-CfbTqhm4wx3W5IuhK_l7Jr3uFJC6X8qvo23ylH7inOABHFFZoPASk_e3o2VtGHMKIoon4MHrUpuBdbKEO71VYm3O-DG1V1dgT1WBiCm5iPFmM_QorUNoljIQITiFi0coR_hPC3rd4nGws4S8IlHq1HhZs1zLpiHqrBxWaSKbsKEVG7T9g6qauT8IgXcDbc_pN4CKIUHvm2cdAtKxKsDXrLQy0L82ZtFsDbBtDnKyh-g1idAGnVk0wb4mbSAnU2gX8_Hc_yg5s1BZleQGtzI1_AKEGy43jOo0f-oFbpkkxMa4GVE2LpLsJqDCaps0rLaSAb5PMG2XIDxy60tnV5AIVIcB0zEZ6EQ8D9IwqbhwxvbUOEz0_BwNvBgSBYTf67xQZpHj8qexnzFGmxHs9UtCJfJu2KRC64-ZyOE3cfc4yBcTKlW-r_6bYMHF3CuK2_-YzQ2d_8YCkyA5SXEFpDQ_j7CdzHf6-eDrcYOIvrrwf196X1vaiMe03zkIeWAQQkbF0KiECTxRZTx188JYkusDEEZapoE1ZPz3Gpeq9n4QYqlBjc85vdXtYCN6yQDkxcoRA5EJ0AHAKHb3MuEWHoQyFzAdnto7uyo4qjg5K8gTPFwK8-iUUAfmtZNqS4Jl9HWIgTJawFVQK8wJJGZUzYv8654YN-ykzGcCrNkYwsQT2ZlFwnuwLF4fw8xPyG3al1NYYXsU-l_lm8xAVtTnsEYEEBotkDlUSlXf6OU8aXwNbzi-jzSmpEkjoV12vz38Qh07TUPvXxk1lmoiLjkvkpfkniklDXUyAgngkxrKwB1LhrA0N8AlsXVUOA_QWBN6TJlnNl_rlR_gvtNuTlrAD8nwd0p3Gc2am2WE78SNsh0Ym8Gog0zgBsJEVDCrDj3vjXwhBQ9WP6wlnukCA6cJ2zkwx8yq6AOKYtR4BsVDpP35kxxhO3ayHd3hM5OmssXIdUN6S72xNFVkbtCXpmLADlyjbyCRtKGqf7QZ0Ku7qzux5nzMAuXY0wQYuhN7Zo7mYb2Dh9ayJXkir7Tct8i3q8fgK9mJLLgO-RZ-rYDCU-TjLO-MVxLkBZDHvk3rJm00]--></g></svg>