<?xml version="1.0" encoding="us-ascii" standalone="no"?><svg xmlns="http://www.w3.org/2000/svg" xmlns:xlink="http://www.w3.org/1999/xlink" contentStyleType="text/css" height="1746px" preserveAspectRatio="none" style="width:1978px;height:1746px;background:#FFFFFF;" version="1.1" viewBox="0 0 1978 1746" width="1978px" zoomAndPan="magnify"><defs/><g><text fill="#000000" font-family="sans-serif" font-size="14" font-weight="bold" lengthAdjust="spacing" textLength="464" x="758.75" y="30.1074">UI Sequence Diagram (SD) - US21 - Add new entry to the To-Do-List</text><rect fill="#FFFFFF" height="1512.5996" style="stroke:#181818;stroke-width:1.0;" width="10" x="101" y="133.2422"/><rect fill="#FFFFFF" height="310.5801" style="stroke:#181818;stroke-width:1.0;" width="10" x="444" y="156.5332"/><rect fill="#FFFFFF" height="281.6191" style="stroke:#181818;stroke-width:1.0;" width="10" x="444" y="498.4043"/><rect fill="#FFFFFF" height="31.291" style="stroke:#181818;stroke-width:1.0;" width="10" x="444" y="811.3145"/><rect fill="#FFFFFF" height="31.291" style="stroke:#181818;stroke-width:1.0;" width="10" x="444" y="873.8965"/><rect fill="#FFFFFF" height="709.3633" style="stroke:#181818;stroke-width:1.0;" width="10" x="444" y="936.4785"/><rect fill="#FFFFFF" height="230.707" style="stroke:#181818;stroke-width:1.0;" width="10" x="921" y="187.8242"/><rect fill="#FFFFFF" height="90.543" style="stroke:#181818;stroke-width:1.0;" width="10" x="926" y="227.1152"/><rect fill="#FFFFFF" height="219.0371" style="stroke:#181818;stroke-width:1.0;" width="10" x="921" y="529.6953"/><rect fill="#FFFFFF" height="646.7813" style="stroke:#181818;stroke-width:1.0;" width="10" x="921" y="967.7695"/><rect fill="#FFFFFF" height="31.291" style="stroke:#181818;stroke-width:1.0;" width="10" x="1091" y="560.9863"/><rect fill="#FFFFFF" height="31.291" style="stroke:#181818;stroke-width:1.0;" width="10" x="1091" y="999.0605"/><rect fill="#FFFFFF" height="31.291" style="stroke:#181818;stroke-width:1.0;" width="10" x="1198" y="623.5684"/><rect fill="#FFFFFF" height="31.291" style="stroke:#181818;stroke-width:1.0;" width="10" x="1198" y="1061.6426"/><rect fill="#FFFFFF" height="31.291" style="stroke:#181818;stroke-width:1.0;" width="10" x="1198" y="1282.6797"/><rect fill="#FFFFFF" height="31.291" style="stroke:#181818;stroke-width:1.0;" width="10" x="1333.5" y="355.9492"/><rect fill="#FFFFFF" height="31.291" style="stroke:#181818;stroke-width:1.0;" width="10" x="1479" y="686.1504"/><rect fill="#FFFFFF" height="127.1641" style="stroke:#181818;stroke-width:1.0;" width="10" x="1479" y="1345.2617"/><rect fill="#FFFFFF" height="127.1641" style="stroke:#181818;stroke-width:1.0;" width="10" x="1630.5" y="1124.2246"/><rect fill="#FFFFFF" height="79.543" style="stroke:#181818;stroke-width:1.0;" width="10" x="1761" y="1503.7168"/><rect fill="#FFFFFF" height="31.291" style="stroke:#181818;stroke-width:1.0;" width="10" x="1855.5" y="1181.8066"/><rect fill="#FFFFFF" height="31.291" style="stroke:#181818;stroke-width:1.0;" width="10" x="1935" y="1402.8438"/><rect fill="none" height="81.873" style="stroke:#000000;stroke-width:1.5;" width="375" x="1542.5" y="1139.2246"/><rect fill="none" height="81.873" style="stroke:#000000;stroke-width:1.5;" width="557" x="1415.5" y="1360.2617"/><line style="stroke:#181818;stroke-width:0.5;stroke-dasharray:5.0,5.0;" x1="106" x2="106" y1="123.2422" y2="1663.8418"/><line style="stroke:#181818;stroke-width:0.5;stroke-dasharray:5.0,5.0;" x1="448.5" x2="448.5" y1="123.2422" y2="1663.8418"/><line style="stroke:#181818;stroke-width:0.5;stroke-dasharray:5.0,5.0;" x1="925.5" x2="925.5" y1="123.2422" y2="1663.8418"/><line style="stroke:#181818;stroke-width:0.5;stroke-dasharray:5.0,5.0;" x1="1095.5" x2="1095.5" y1="123.2422" y2="1663.8418"/><line style="stroke:#181818;stroke-width:0.5;stroke-dasharray:5.0,5.0;" x1="1202.5" x2="1202.5" y1="123.2422" y2="1663.8418"/><line style="stroke:#181818;stroke-width:0.5;stroke-dasharray:5.0,5.0;" x1="1338.5" x2="1338.5" y1="123.2422" y2="1663.8418"/><line style="stroke:#181818;stroke-width:0.5;stroke-dasharray:5.0,5.0;" x1="1483.5" x2="1483.5" y1="123.2422" y2="1663.8418"/><line style="stroke:#181818;stroke-width:0.5;stroke-dasharray:5.0,5.0;" x1="1635.5" x2="1635.5" y1="123.2422" y2="1663.8418"/><line style="stroke:#181818;stroke-width:0.5;stroke-dasharray:5.0,5.0;" x1="1765.5" x2="1765.5" y1="123.2422" y2="1663.8418"/><line style="stroke:#181818;stroke-width:0.5;stroke-dasharray:5.0,5.0;" x1="1860.5" x2="1860.5" y1="123.2422" y2="1663.8418"/><line style="stroke:#181818;stroke-width:0.5;stroke-dasharray:5.0,5.0;" x1="1939.5" x2="1939.5" y1="123.2422" y2="1663.8418"/><text fill="#000000" font-family="sans-serif" font-size="14" lengthAdjust="spacing" textLength="196" x="5" y="119.7285">Green Spaces Manager (GSM)</text><ellipse cx="106" cy="53.1211" fill="#E3E3E3" rx="8" ry="8" style="stroke:#181818;stroke-width:0.5;"/><path d="M106,61.1211 L106,88.1211 M93,69.1211 L119,69.1211 M106,88.1211 L93,103.1211 M106,88.1211 L119,103.1211 " fill="none" style="stroke:#181818;stroke-width:0.5;"/><text fill="#000000" font-family="sans-serif" font-size="14" lengthAdjust="spacing" textLength="196" x="5" y="1677.9492">Green Spaces Manager (GSM)</text><ellipse cx="106" cy="1689.9629" fill="#E3E3E3" rx="8" ry="8" style="stroke:#181818;stroke-width:0.5;"/><path d="M106,1697.9629 L106,1724.9629 M93,1705.9629 L119,1705.9629 M106,1724.9629 L93,1739.9629 M106,1724.9629 L119,1739.9629 " fill="none" style="stroke:#181818;stroke-width:0.5;"/><rect fill="#E3E3E3" height="32.6211" rx="2.5" ry="2.5" style="stroke:#181818;stroke-width:0.5;" width="173" x="362.5" y="89.6211"/><text fill="#000000" font-family="sans-serif" font-size="14" lengthAdjust="spacing" textLength="159" x="369.5" y="111.7285">:RegisterEntryToDoListUI</text><rect fill="#E3E3E3" height="32.6211" rx="2.5" ry="2.5" style="stroke:#181818;stroke-width:0.5;" width="173" x="362.5" y="1662.8418"/><text fill="#000000" font-family="sans-serif" font-size="14" lengthAdjust="spacing" textLength="159" x="369.5" y="1684.9492">:RegisterEntryToDoListUI</text><rect fill="#E3E3E3" height="32.6211" rx="2.5" ry="2.5" style="stroke:#181818;stroke-width:0.5;" width="223" x="814.5" y="89.6211"/><text fill="#000000" font-family="sans-serif" font-size="14" lengthAdjust="spacing" textLength="209" x="821.5" y="111.7285">:RegisterEntryToDoListController</text><rect fill="#E3E3E3" height="32.6211" rx="2.5" ry="2.5" style="stroke:#181818;stroke-width:0.5;" width="223" x="814.5" y="1662.8418"/><text fill="#000000" font-family="sans-serif" font-size="14" lengthAdjust="spacing" textLength="209" x="821.5" y="1684.9492">:RegisterEntryToDoListController</text><rect fill="#E3E3E3" height="32.6211" rx="2.5" ry="2.5" style="stroke:#181818;stroke-width:0.5;" width="97" x="1047.5" y="89.6211"/><text fill="#000000" font-family="sans-serif" font-size="14" lengthAdjust="spacing" textLength="83" x="1054.5" y="111.7285">:Repositories</text><rect fill="#E3E3E3" height="32.6211" rx="2.5" ry="2.5" style="stroke:#181818;stroke-width:0.5;" width="97" x="1047.5" y="1662.8418"/><text fill="#000000" font-family="sans-serif" font-size="14" lengthAdjust="spacing" textLength="83" x="1054.5" y="1684.9492">:Repositories</text><rect fill="#E3E3E3" height="51.2422" rx="2.5" ry="2.5" style="stroke:#181818;stroke-width:0.5;" width="97" x="1154.5" y="71"/><text fill="#000000" font-family="sans-serif" font-size="14" lengthAdjust="spacing" textLength="74" x="1166" y="93.1074">repositories</text><text fill="#000000" font-family="sans-serif" font-size="14" lengthAdjust="spacing" textLength="83" x="1161.5" y="111.7285">:Repositories</text><rect fill="#E3E3E3" height="51.2422" rx="2.5" ry="2.5" style="stroke:#181818;stroke-width:0.5;" width="97" x="1154.5" y="1662.8418"/><text fill="#000000" font-family="sans-serif" font-size="14" lengthAdjust="spacing" textLength="74" x="1166" y="1684.9492">repositories</text><text fill="#000000" font-family="sans-serif" font-size="14" lengthAdjust="spacing" textLength="83" x="1161.5" y="1703.5703">:Repositories</text><rect fill="#E3E3E3" height="51.2422" rx="2.5" ry="2.5" style="stroke:#181818;stroke-width:0.5;" width="154" x="1261.5" y="71"/><text fill="#000000" font-family="sans-serif" font-size="14" lengthAdjust="spacing" textLength="56" x="1310.5" y="93.1074">manager</text><text fill="#000000" font-family="sans-serif" font-size="14" lengthAdjust="spacing" textLength="140" x="1268.5" y="111.7285">:GreenSpaceManager</text><rect fill="#E3E3E3" height="51.2422" rx="2.5" ry="2.5" style="stroke:#181818;stroke-width:0.5;" width="154" x="1261.5" y="1662.8418"/><text fill="#000000" font-family="sans-serif" font-size="14" lengthAdjust="spacing" textLength="56" x="1310.5" y="1684.9492">manager</text><text fill="#000000" font-family="sans-serif" font-size="14" lengthAdjust="spacing" textLength="140" x="1268.5" y="1703.5703">:GreenSpaceManager</text><rect fill="#E3E3E3" height="51.2422" rx="2.5" ry="2.5" style="stroke:#181818;stroke-width:0.5;" width="117" x="1425.5" y="71"/><text fill="#000000" font-family="sans-serif" font-size="14" lengthAdjust="spacing" textLength="94" x="1437" y="93.1074">taskRepository</text><text fill="#000000" font-family="sans-serif" font-size="14" lengthAdjust="spacing" textLength="103" x="1432.5" y="111.7285">:TaskRepository</text><rect fill="#E3E3E3" height="51.2422" rx="2.5" ry="2.5" style="stroke:#181818;stroke-width:0.5;" width="117" x="1425.5" y="1662.8418"/><text fill="#000000" font-family="sans-serif" font-size="14" lengthAdjust="spacing" textLength="94" x="1437" y="1684.9492">taskRepository</text><text fill="#000000" font-family="sans-serif" font-size="14" lengthAdjust="spacing" textLength="103" x="1432.5" y="1703.5703">:TaskRepository</text><rect fill="#E3E3E3" height="51.2422" rx="2.5" ry="2.5" style="stroke:#181818;stroke-width:0.5;" width="166" x="1552.5" y="71"/><text fill="#000000" font-family="sans-serif" font-size="14" lengthAdjust="spacing" textLength="145" x="1563" y="93.1074">greenSpaceRepository</text><text fill="#000000" font-family="sans-serif" font-size="14" lengthAdjust="spacing" textLength="152" x="1559.5" y="111.7285">:GreenSpaceRepository</text><rect fill="#E3E3E3" height="51.2422" rx="2.5" ry="2.5" style="stroke:#181818;stroke-width:0.5;" width="166" x="1552.5" y="1662.8418"/><text fill="#000000" font-family="sans-serif" font-size="14" lengthAdjust="spacing" textLength="145" x="1563" y="1684.9492">greenSpaceRepository</text><text fill="#000000" font-family="sans-serif" font-size="14" lengthAdjust="spacing" textLength="152" x="1559.5" y="1703.5703">:GreenSpaceRepository</text><rect fill="#E3E3E3" height="51.2422" rx="2.5" ry="2.5" style="stroke:#181818;stroke-width:0.5;" width="75" x="1728.5" y="71"/><text fill="#000000" font-family="sans-serif" font-size="14" lengthAdjust="spacing" textLength="52" x="1740" y="93.1074">toDoList</text><text fill="#000000" font-family="sans-serif" font-size="14" lengthAdjust="spacing" textLength="61" x="1735.5" y="111.7285">:ToDoList</text><rect fill="#E3E3E3" height="51.2422" rx="2.5" ry="2.5" style="stroke:#181818;stroke-width:0.5;" width="75" x="1728.5" y="1662.8418"/><text fill="#000000" font-family="sans-serif" font-size="14" lengthAdjust="spacing" textLength="52" x="1740" y="1684.9492">toDoList</text><text fill="#000000" font-family="sans-serif" font-size="14" lengthAdjust="spacing" textLength="61" x="1735.5" y="1703.5703">:ToDoList</text><rect fill="#E3E3E3" height="51.2422" rx="2.5" ry="2.5" style="stroke:#181818;stroke-width:0.5;" width="94" x="1813.5" y="71"/><text fill="#000000" font-family="sans-serif" font-size="14" lengthAdjust="spacing" textLength="77" x="1822" y="93.1074">greenSpace</text><text fill="#000000" font-family="sans-serif" font-size="14" lengthAdjust="spacing" textLength="80" x="1820.5" y="111.7285">GreenSpace</text><rect fill="#E3E3E3" height="51.2422" rx="2.5" ry="2.5" style="stroke:#181818;stroke-width:0.5;" width="94" x="1813.5" y="1662.8418"/><text fill="#000000" font-family="sans-serif" font-size="14" lengthAdjust="spacing" textLength="77" x="1822" y="1684.9492">greenSpace</text><text fill="#000000" font-family="sans-serif" font-size="14" lengthAdjust="spacing" textLength="80" x="1820.5" y="1703.5703">GreenSpace</text><rect fill="#E3E3E3" height="51.2422" rx="2.5" ry="2.5" style="stroke:#181818;stroke-width:0.5;" width="45" x="1917.5" y="71"/><text fill="#000000" font-family="sans-serif" font-size="14" lengthAdjust="spacing" textLength="26" x="1927" y="93.1074">task</text><text fill="#000000" font-family="sans-serif" font-size="14" lengthAdjust="spacing" textLength="31" x="1924.5" y="111.7285">Task</text><rect fill="#E3E3E3" height="51.2422" rx="2.5" ry="2.5" style="stroke:#181818;stroke-width:0.5;" width="45" x="1917.5" y="1662.8418"/><text fill="#000000" font-family="sans-serif" font-size="14" lengthAdjust="spacing" textLength="26" x="1927" y="1684.9492">task</text><text fill="#000000" font-family="sans-serif" font-size="14" lengthAdjust="spacing" textLength="31" x="1924.5" y="1703.5703">Task</text><rect fill="#FFFFFF" height="1512.5996" style="stroke:#181818;stroke-width:1.0;" width="10" x="101" y="133.2422"/><rect fill="#FFFFFF" height="310.5801" style="stroke:#181818;stroke-width:1.0;" width="10" x="444" y="156.5332"/><rect fill="#FFFFFF" height="281.6191" style="stroke:#181818;stroke-width:1.0;" width="10" x="444" y="498.4043"/><rect fill="#FFFFFF" height="31.291" style="stroke:#181818;stroke-width:1.0;" width="10" x="444" y="811.3145"/><rect fill="#FFFFFF" height="31.291" style="stroke:#181818;stroke-width:1.0;" width="10" x="444" y="873.8965"/><rect fill="#FFFFFF" height="709.3633" style="stroke:#181818;stroke-width:1.0;" width="10" x="444" y="936.4785"/><rect fill="#FFFFFF" height="230.707" style="stroke:#181818;stroke-width:1.0;" width="10" x="921" y="187.8242"/><rect fill="#FFFFFF" height="90.543" style="stroke:#181818;stroke-width:1.0;" width="10" x="926" y="227.1152"/><rect fill="#FFFFFF" height="219.0371" style="stroke:#181818;stroke-width:1.0;" width="10" x="921" y="529.6953"/><rect fill="#FFFFFF" height="646.7813" style="stroke:#181818;stroke-width:1.0;" width="10" x="921" y="967.7695"/><rect fill="#FFFFFF" height="31.291" style="stroke:#181818;stroke-width:1.0;" width="10" x="1091" y="560.9863"/><rect fill="#FFFFFF" height="31.291" style="stroke:#181818;stroke-width:1.0;" width="10" x="1091" y="999.0605"/><rect fill="#FFFFFF" height="31.291" style="stroke:#181818;stroke-width:1.0;" width="10" x="1198" y="623.5684"/><rect fill="#FFFFFF" height="31.291" style="stroke:#181818;stroke-width:1.0;" width="10" x="1198" y="1061.6426"/><rect fill="#FFFFFF" height="31.291" style="stroke:#181818;stroke-width:1.0;" width="10" x="1198" y="1282.6797"/><rect fill="#FFFFFF" height="31.291" style="stroke:#181818;stroke-width:1.0;" width="10" x="1333.5" y="355.9492"/><rect fill="#FFFFFF" height="31.291" style="stroke:#181818;stroke-width:1.0;" width="10" x="1479" y="686.1504"/><rect fill="#FFFFFF" height="127.1641" style="stroke:#181818;stroke-width:1.0;" width="10" x="1479" y="1345.2617"/><rect fill="#FFFFFF" height="127.1641" style="stroke:#181818;stroke-width:1.0;" width="10" x="1630.5" y="1124.2246"/><rect fill="#FFFFFF" height="79.543" style="stroke:#181818;stroke-width:1.0;" width="10" x="1761" y="1503.7168"/><rect fill="#FFFFFF" height="31.291" style="stroke:#181818;stroke-width:1.0;" width="10" x="1855.5" y="1181.8066"/><rect fill="#FFFFFF" height="31.291" style="stroke:#181818;stroke-width:1.0;" width="10" x="1935" y="1402.8438"/><polygon fill="#181818" points="432,152.5332,442,156.5332,432,160.5332,436,156.5332" style="stroke:#181818;stroke-width:1.0;"/><line style="stroke:#181818;stroke-width:1.0;" x1="111" x2="438" y1="156.5332" y2="156.5332"/><text fill="#000000" font-family="sans-serif" font-size="13" font-weight="bold" lengthAdjust="spacing" textLength="7" x="118" y="151.2705">1</text><text fill="#000000" font-family="sans-serif" font-size="13" lengthAdjust="spacing" textLength="251" x="129" y="151.2705">asks to register a new entry in the to do list</text><polygon fill="#181818" points="909,183.8242,919,187.8242,909,191.8242,913,187.8242" style="stroke:#181818;stroke-width:1.0;"/><line style="stroke:#181818;stroke-width:1.0;" x1="454" x2="915" y1="187.8242" y2="187.8242"/><text fill="#000000" font-family="sans-serif" font-size="13" font-weight="bold" lengthAdjust="spacing" textLength="7" x="461" y="182.5615">2</text><text fill="#000000" font-family="sans-serif" font-size="13" lengthAdjust="spacing" textLength="195" x="472" y="182.5615">getGreenSpaceManagerGSpace()</text><line style="stroke:#181818;stroke-width:1.0;" x1="931" x2="978" y1="214.1152" y2="214.1152"/><line style="stroke:#181818;stroke-width:1.0;" x1="978" x2="978" y1="214.1152" y2="227.1152"/><line style="stroke:#181818;stroke-width:1.0;" x1="937" x2="978" y1="227.1152" y2="227.1152"/><polygon fill="#181818" points="947,223.1152,937,227.1152,947,231.1152,943,227.1152" style="stroke:#181818;stroke-width:1.0;"/><text fill="#000000" font-family="sans-serif" font-size="13" font-weight="bold" lengthAdjust="spacing" textLength="7" x="943" y="208.8525">3</text><text fill="#000000" font-family="sans-serif" font-size="13" lengthAdjust="spacing" textLength="133" x="954" y="208.8525">getGSMFromSession()</text><rect fill="none" height="43.252" style="stroke:#000000;stroke-width:1.5;" width="229" x="811.5" y="240.1152"/><path d="M811.5,240.1152 L873.5,240.1152 L873.5,249.1152 L863.5,259.1152 L811.5,259.1152 L811.5,240.1152 " fill="#EEEEEE" style="stroke:#000000;stroke-width:2.0;"/><text fill="#000000" font-family="sans-serif" font-size="13" font-weight="bold" lengthAdjust="spacing" textLength="17" x="824.5" y="256.1436">ref</text><text fill="#000000" font-family="sans-serif" font-size="12" lengthAdjust="spacing" textLength="70" x="891" y="276.0645">Get Manager</text><line style="stroke:#181818;stroke-width:1.0;stroke-dasharray:2.0,2.0;" x1="936" x2="978" y1="316.6582" y2="316.6582"/><line style="stroke:#181818;stroke-width:1.0;stroke-dasharray:2.0,2.0;" x1="978" x2="978" y1="316.6582" y2="329.6582"/><line style="stroke:#181818;stroke-width:1.0;stroke-dasharray:2.0,2.0;" x1="931" x2="978" y1="329.6582" y2="329.6582"/><polygon fill="#181818" points="941,325.6582,931,329.6582,941,333.6582,937,329.6582" style="stroke:#181818;stroke-width:1.0;"/><text fill="#000000" font-family="sans-serif" font-size="13" font-weight="bold" lengthAdjust="spacing" textLength="7" x="943" y="311.3955">4</text><text fill="#000000" font-family="sans-serif" font-size="13" lengthAdjust="spacing" textLength="50" x="954" y="311.3955">manager</text><polygon fill="#181818" points="1321.5,351.9492,1331.5,355.9492,1321.5,359.9492,1325.5,355.9492" style="stroke:#181818;stroke-width:1.0;"/><line style="stroke:#181818;stroke-width:1.0;" x1="931" x2="1327.5" y1="355.9492" y2="355.9492"/><text fill="#000000" font-family="sans-serif" font-size="13" font-weight="bold" lengthAdjust="spacing" textLength="7" x="938" y="350.6865">5</text><text fill="#000000" font-family="sans-serif" font-size="13" lengthAdjust="spacing" textLength="98" x="949" y="350.6865">getGreenSpace()</text><polygon fill="#181818" points="942,383.2402,932,387.2402,942,391.2402,938,387.2402" style="stroke:#181818;stroke-width:1.0;"/><line style="stroke:#181818;stroke-width:1.0;stroke-dasharray:2.0,2.0;" x1="936" x2="1337.5" y1="387.2402" y2="387.2402"/><text fill="#000000" font-family="sans-serif" font-size="13" font-weight="bold" lengthAdjust="spacing" textLength="7" x="948" y="381.9775">6</text><text fill="#000000" font-family="sans-serif" font-size="13" lengthAdjust="spacing" textLength="90" x="959" y="381.9775">greenSpaceList</text><polygon fill="#181818" points="465,414.5313,455,418.5313,465,422.5313,461,418.5313" style="stroke:#181818;stroke-width:1.0;"/><line style="stroke:#181818;stroke-width:1.0;stroke-dasharray:2.0,2.0;" x1="459" x2="925" y1="418.5313" y2="418.5313"/><text fill="#000000" font-family="sans-serif" font-size="13" font-weight="bold" lengthAdjust="spacing" textLength="7" x="471" y="413.2686">7</text><text fill="#000000" font-family="sans-serif" font-size="13" lengthAdjust="spacing" textLength="90" x="482" y="413.2686">greenSpaceList</text><polygon fill="#181818" points="122,463.1133,112,467.1133,122,471.1133,118,467.1133" style="stroke:#181818;stroke-width:1.0;"/><line style="stroke:#181818;stroke-width:1.0;stroke-dasharray:2.0,2.0;" x1="116" x2="448" y1="467.1133" y2="467.1133"/><text fill="#000000" font-family="sans-serif" font-size="13" font-weight="bold" lengthAdjust="spacing" textLength="7" x="128" y="453.2051">8</text><text fill="#000000" font-family="sans-serif" font-size="13" lengthAdjust="spacing" textLength="294" x="139" y="444.5596">shows all the Green Spaces managed by the GSM</text><text fill="#000000" font-family="sans-serif" font-size="13" lengthAdjust="spacing" textLength="132" x="143" y="461.8506">and asks to select one</text><polygon fill="#181818" points="432,494.4043,442,498.4043,432,502.4043,436,498.4043" style="stroke:#181818;stroke-width:1.0;"/><line style="stroke:#181818;stroke-width:1.0;" x1="111" x2="438" y1="498.4043" y2="498.4043"/><text fill="#000000" font-family="sans-serif" font-size="13" font-weight="bold" lengthAdjust="spacing" textLength="7" x="118" y="493.1416">9</text><text fill="#000000" font-family="sans-serif" font-size="13" lengthAdjust="spacing" textLength="74" x="129" y="493.1416">chooses one</text><polygon fill="#181818" points="909,525.6953,919,529.6953,909,533.6953,913,529.6953" style="stroke:#181818;stroke-width:1.0;"/><line style="stroke:#181818;stroke-width:1.0;" x1="454" x2="915" y1="529.6953" y2="529.6953"/><text fill="#000000" font-family="sans-serif" font-size="13" font-weight="bold" lengthAdjust="spacing" textLength="14" x="461" y="524.4326">10</text><text fill="#000000" font-family="sans-serif" font-size="13" lengthAdjust="spacing" textLength="54" x="479" y="524.4326">getTask()</text><polygon fill="#181818" points="1079,556.9863,1089,560.9863,1079,564.9863,1083,560.9863" style="stroke:#181818;stroke-width:1.0;"/><line style="stroke:#181818;stroke-width:1.0;" x1="931" x2="1085" y1="560.9863" y2="560.9863"/><text fill="#000000" font-family="sans-serif" font-size="13" font-weight="bold" lengthAdjust="spacing" textLength="14" x="938" y="555.7236">11</text><text fill="#000000" font-family="sans-serif" font-size="13" lengthAdjust="spacing" textLength="75" x="956" y="555.7236">getInstance()</text><polygon fill="#181818" points="942,588.2773,932,592.2773,942,596.2773,938,592.2773" style="stroke:#181818;stroke-width:1.0;"/><line style="stroke:#181818;stroke-width:1.0;stroke-dasharray:2.0,2.0;" x1="936" x2="1095" y1="592.2773" y2="592.2773"/><text fill="#000000" font-family="sans-serif" font-size="13" font-weight="bold" lengthAdjust="spacing" textLength="14" x="948" y="587.0146">12</text><text fill="#000000" font-family="sans-serif" font-size="13" lengthAdjust="spacing" textLength="67" x="966" y="587.0146">repositories</text><polygon fill="#181818" points="1186,619.5684,1196,623.5684,1186,627.5684,1190,623.5684" style="stroke:#181818;stroke-width:1.0;"/><line style="stroke:#181818;stroke-width:1.0;" x1="931" x2="1192" y1="623.5684" y2="623.5684"/><text fill="#000000" font-family="sans-serif" font-size="13" font-weight="bold" lengthAdjust="spacing" textLength="14" x="938" y="618.3057">13</text><text fill="#000000" font-family="sans-serif" font-size="13" lengthAdjust="spacing" textLength="116" x="956" y="618.3057">getTaskRepository()</text><polygon fill="#181818" points="942,650.8594,932,654.8594,942,658.8594,938,654.8594" style="stroke:#181818;stroke-width:1.0;"/><line style="stroke:#181818;stroke-width:1.0;stroke-dasharray:2.0,2.0;" x1="936" x2="1202" y1="654.8594" y2="654.8594"/><text fill="#000000" font-family="sans-serif" font-size="13" font-weight="bold" lengthAdjust="spacing" textLength="14" x="948" y="649.5967">14</text><text fill="#000000" font-family="sans-serif" font-size="13" lengthAdjust="spacing" textLength="87" x="966" y="649.5967">taskRepository</text><polygon fill="#181818" points="1467,682.1504,1477,686.1504,1467,690.1504,1471,686.1504" style="stroke:#181818;stroke-width:1.0;"/><line style="stroke:#181818;stroke-width:1.0;" x1="931" x2="1473" y1="686.1504" y2="686.1504"/><text fill="#000000" font-family="sans-serif" font-size="13" font-weight="bold" lengthAdjust="spacing" textLength="14" x="938" y="680.8877">15</text><text fill="#000000" font-family="sans-serif" font-size="13" lengthAdjust="spacing" textLength="141" x="956" y="680.8877">getAllTaskDescriptions()</text><polygon fill="#181818" points="942,713.4414,932,717.4414,942,721.4414,938,717.4414" style="stroke:#181818;stroke-width:1.0;"/><line style="stroke:#181818;stroke-width:1.0;stroke-dasharray:2.0,2.0;" x1="936" x2="1483" y1="717.4414" y2="717.4414"/><text fill="#000000" font-family="sans-serif" font-size="13" font-weight="bold" lengthAdjust="spacing" textLength="14" x="948" y="712.1787">16</text><text fill="#000000" font-family="sans-serif" font-size="13" lengthAdjust="spacing" textLength="46" x="966" y="712.1787">taskList</text><polygon fill="#181818" points="465,744.7324,455,748.7324,465,752.7324,461,748.7324" style="stroke:#181818;stroke-width:1.0;"/><line style="stroke:#181818;stroke-width:1.0;stroke-dasharray:2.0,2.0;" x1="459" x2="925" y1="748.7324" y2="748.7324"/><text fill="#000000" font-family="sans-serif" font-size="13" font-weight="bold" lengthAdjust="spacing" textLength="14" x="471" y="743.4697">17</text><text fill="#000000" font-family="sans-serif" font-size="13" lengthAdjust="spacing" textLength="46" x="489" y="743.4697">taskList</text><polygon fill="#181818" points="122,776.0234,112,780.0234,122,784.0234,118,780.0234" style="stroke:#181818;stroke-width:1.0;"/><line style="stroke:#181818;stroke-width:1.0;stroke-dasharray:2.0,2.0;" x1="116" x2="448" y1="780.0234" y2="780.0234"/><text fill="#000000" font-family="sans-serif" font-size="13" font-weight="bold" lengthAdjust="spacing" textLength="14" x="128" y="774.7607">18</text><text fill="#000000" font-family="sans-serif" font-size="13" lengthAdjust="spacing" textLength="248" x="146" y="774.7607">shows all the tasks and asks to select one</text><polygon fill="#181818" points="432,807.3145,442,811.3145,432,815.3145,436,811.3145" style="stroke:#181818;stroke-width:1.0;"/><line style="stroke:#181818;stroke-width:1.0;" x1="111" x2="438" y1="811.3145" y2="811.3145"/><text fill="#000000" font-family="sans-serif" font-size="13" font-weight="bold" lengthAdjust="spacing" textLength="14" x="118" y="806.0518">19</text><text fill="#000000" font-family="sans-serif" font-size="13" lengthAdjust="spacing" textLength="76" x="136" y="806.0518">Chooses one</text><polygon fill="#181818" points="122,838.6055,112,842.6055,122,846.6055,118,842.6055" style="stroke:#181818;stroke-width:1.0;"/><line style="stroke:#181818;stroke-width:1.0;stroke-dasharray:2.0,2.0;" x1="116" x2="448" y1="842.6055" y2="842.6055"/><text fill="#000000" font-family="sans-serif" font-size="13" font-weight="bold" lengthAdjust="spacing" textLength="14" x="128" y="837.3428">20</text><text fill="#000000" font-family="sans-serif" font-size="13" lengthAdjust="spacing" textLength="183" x="146" y="837.3428">requests data(urgency,duration)</text><polygon fill="#181818" points="432,869.8965,442,873.8965,432,877.8965,436,873.8965" style="stroke:#181818;stroke-width:1.0;"/><line style="stroke:#181818;stroke-width:1.0;" x1="111" x2="438" y1="873.8965" y2="873.8965"/><text fill="#000000" font-family="sans-serif" font-size="13" font-weight="bold" lengthAdjust="spacing" textLength="14" x="118" y="868.6338">21</text><text fill="#000000" font-family="sans-serif" font-size="13" lengthAdjust="spacing" textLength="122" x="136" y="868.6338">types requested data</text><polygon fill="#181818" points="122,901.1875,112,905.1875,122,909.1875,118,905.1875" style="stroke:#181818;stroke-width:1.0;"/><line style="stroke:#181818;stroke-width:1.0;stroke-dasharray:2.0,2.0;" x1="116" x2="448" y1="905.1875" y2="905.1875"/><text fill="#000000" font-family="sans-serif" font-size="13" font-weight="bold" lengthAdjust="spacing" textLength="14" x="128" y="899.9248">22</text><text fill="#000000" font-family="sans-serif" font-size="13" lengthAdjust="spacing" textLength="252" x="146" y="899.9248">displays the data and requests confirmation</text><polygon fill="#181818" points="432,932.4785,442,936.4785,432,940.4785,436,936.4785" style="stroke:#181818;stroke-width:1.0;"/><line style="stroke:#181818;stroke-width:1.0;" x1="111" x2="438" y1="936.4785" y2="936.4785"/><text fill="#000000" font-family="sans-serif" font-size="13" font-weight="bold" lengthAdjust="spacing" textLength="14" x="118" y="931.2158">23</text><text fill="#000000" font-family="sans-serif" font-size="13" lengthAdjust="spacing" textLength="153" x="136" y="931.2158">confirms and submits data</text><polygon fill="#181818" points="909,963.7695,919,967.7695,909,971.7695,913,967.7695" style="stroke:#181818;stroke-width:1.0;"/><line style="stroke:#181818;stroke-width:1.0;" x1="454" x2="915" y1="967.7695" y2="967.7695"/><text fill="#000000" font-family="sans-serif" font-size="13" font-weight="bold" lengthAdjust="spacing" textLength="14" x="461" y="962.5068">24</text><text fill="#000000" font-family="sans-serif" font-size="13" lengthAdjust="spacing" textLength="430" x="479" y="962.5068">registerEntryToDoList(greenSpaceName,taskDescription,urgency,duration)</text><polygon fill="#181818" points="1079,995.0605,1089,999.0605,1079,1003.0605,1083,999.0605" style="stroke:#181818;stroke-width:1.0;"/><line style="stroke:#181818;stroke-width:1.0;" x1="931" x2="1085" y1="999.0605" y2="999.0605"/><text fill="#000000" font-family="sans-serif" font-size="13" font-weight="bold" lengthAdjust="spacing" textLength="14" x="938" y="993.7979">25</text><text fill="#000000" font-family="sans-serif" font-size="13" lengthAdjust="spacing" textLength="75" x="956" y="993.7979">getInstance()</text><polygon fill="#181818" points="942,1026.3516,932,1030.3516,942,1034.3516,938,1030.3516" style="stroke:#181818;stroke-width:1.0;"/><line style="stroke:#181818;stroke-width:1.0;stroke-dasharray:2.0,2.0;" x1="936" x2="1095" y1="1030.3516" y2="1030.3516"/><text fill="#000000" font-family="sans-serif" font-size="13" font-weight="bold" lengthAdjust="spacing" textLength="14" x="948" y="1025.0889">26</text><text fill="#000000" font-family="sans-serif" font-size="13" lengthAdjust="spacing" textLength="67" x="966" y="1025.0889">repositories</text><polygon fill="#181818" points="1186,1057.6426,1196,1061.6426,1186,1065.6426,1190,1061.6426" style="stroke:#181818;stroke-width:1.0;"/><line style="stroke:#181818;stroke-width:1.0;" x1="931" x2="1192" y1="1061.6426" y2="1061.6426"/><text fill="#000000" font-family="sans-serif" font-size="13" font-weight="bold" lengthAdjust="spacing" textLength="14" x="938" y="1056.3799">27</text><text fill="#000000" font-family="sans-serif" font-size="13" lengthAdjust="spacing" textLength="160" x="956" y="1056.3799">getGreenSpaceRepository()</text><polygon fill="#181818" points="942,1088.9336,932,1092.9336,942,1096.9336,938,1092.9336" style="stroke:#181818;stroke-width:1.0;"/><line style="stroke:#181818;stroke-width:1.0;stroke-dasharray:2.0,2.0;" x1="936" x2="1202" y1="1092.9336" y2="1092.9336"/><text fill="#000000" font-family="sans-serif" font-size="13" font-weight="bold" lengthAdjust="spacing" textLength="14" x="948" y="1087.6709">28</text><text fill="#000000" font-family="sans-serif" font-size="13" lengthAdjust="spacing" textLength="131" x="966" y="1087.6709">greenSpaceRepository</text><polygon fill="#181818" points="1618.5,1120.2246,1628.5,1124.2246,1618.5,1128.2246,1622.5,1124.2246" style="stroke:#181818;stroke-width:1.0;"/><line style="stroke:#181818;stroke-width:1.0;" x1="931" x2="1624.5" y1="1124.2246" y2="1124.2246"/><text fill="#000000" font-family="sans-serif" font-size="13" font-weight="bold" lengthAdjust="spacing" textLength="14" x="938" y="1118.9619">29</text><text fill="#000000" font-family="sans-serif" font-size="13" lengthAdjust="spacing" textLength="251" x="956" y="1118.9619">getGreenSpaceByName(greenSpaceName)</text><path d="M1542.5,1139.2246 L1615.5,1139.2246 L1615.5,1148.5156 L1605.5,1158.5156 L1542.5,1158.5156 L1542.5,1139.2246 " fill="#EEEEEE" style="stroke:#000000;stroke-width:1.5;"/><rect fill="none" height="81.873" style="stroke:#000000;stroke-width:1.5;" width="375" x="1542.5" y="1139.2246"/><text fill="#000000" font-family="sans-serif" font-size="13" font-weight="bold" lengthAdjust="spacing" textLength="28" x="1557.5" y="1154.2529">loop</text><text fill="#000000" font-family="sans-serif" font-size="11" font-weight="bold" lengthAdjust="spacing" textLength="225" x="1630.5" y="1153.0947">[for each greenSpace in greenSpaceList]</text><polygon fill="#181818" points="1843.5,1177.8066,1853.5,1181.8066,1843.5,1185.8066,1847.5,1181.8066" style="stroke:#181818;stroke-width:1.0;"/><line style="stroke:#181818;stroke-width:1.0;" x1="1640.5" x2="1849.5" y1="1181.8066" y2="1181.8066"/><text fill="#000000" font-family="sans-serif" font-size="13" font-weight="bold" lengthAdjust="spacing" textLength="14" x="1647.5" y="1176.5439">30</text><text fill="#000000" font-family="sans-serif" font-size="13" lengthAdjust="spacing" textLength="166" x="1665.5" y="1176.5439">hasName(greenSpaceName)</text><polygon fill="#181818" points="1651.5,1209.0977,1641.5,1213.0977,1651.5,1217.0977,1647.5,1213.0977" style="stroke:#181818;stroke-width:1.0;"/><line style="stroke:#181818;stroke-width:1.0;stroke-dasharray:2.0,2.0;" x1="1645.5" x2="1859.5" y1="1213.0977" y2="1213.0977"/><text fill="#000000" font-family="sans-serif" font-size="13" font-weight="bold" lengthAdjust="spacing" textLength="14" x="1657.5" y="1207.835">31</text><text fill="#000000" font-family="sans-serif" font-size="13" lengthAdjust="spacing" textLength="53" x="1675.5" y="1207.835">true/false</text><polygon fill="#181818" points="942,1247.3887,932,1251.3887,942,1255.3887,938,1251.3887" style="stroke:#181818;stroke-width:1.0;"/><line style="stroke:#181818;stroke-width:1.0;stroke-dasharray:2.0,2.0;" x1="936" x2="1634.5" y1="1251.3887" y2="1251.3887"/><text fill="#000000" font-family="sans-serif" font-size="13" font-weight="bold" lengthAdjust="spacing" textLength="14" x="948" y="1246.126">32</text><text fill="#000000" font-family="sans-serif" font-size="13" lengthAdjust="spacing" textLength="69" x="966" y="1246.126">greenSpace</text><polygon fill="#181818" points="1186,1278.6797,1196,1282.6797,1186,1286.6797,1190,1282.6797" style="stroke:#181818;stroke-width:1.0;"/><line style="stroke:#181818;stroke-width:1.0;" x1="931" x2="1192" y1="1282.6797" y2="1282.6797"/><text fill="#000000" font-family="sans-serif" font-size="13" font-weight="bold" lengthAdjust="spacing" textLength="14" x="938" y="1277.417">33</text><text fill="#000000" font-family="sans-serif" font-size="13" lengthAdjust="spacing" textLength="116" x="956" y="1277.417">getTaskRepository()</text><polygon fill="#181818" points="942,1309.9707,932,1313.9707,942,1317.9707,938,1313.9707" style="stroke:#181818;stroke-width:1.0;"/><line style="stroke:#181818;stroke-width:1.0;stroke-dasharray:2.0,2.0;" x1="936" x2="1202" y1="1313.9707" y2="1313.9707"/><text fill="#000000" font-family="sans-serif" font-size="13" font-weight="bold" lengthAdjust="spacing" textLength="14" x="948" y="1308.708">34</text><text fill="#000000" font-family="sans-serif" font-size="13" lengthAdjust="spacing" textLength="87" x="966" y="1308.708">taskRepository</text><polygon fill="#181818" points="1467,1341.2617,1477,1345.2617,1467,1349.2617,1471,1345.2617" style="stroke:#181818;stroke-width:1.0;"/><line style="stroke:#181818;stroke-width:1.0;" x1="931" x2="1473" y1="1345.2617" y2="1345.2617"/><text fill="#000000" font-family="sans-serif" font-size="13" font-weight="bold" lengthAdjust="spacing" textLength="14" x="938" y="1339.999">35</text><text fill="#000000" font-family="sans-serif" font-size="13" lengthAdjust="spacing" textLength="225" x="956" y="1339.999">getTaskByDescription(taskDescription)</text><path d="M1415.5,1360.2617 L1488.5,1360.2617 L1488.5,1369.5527 L1478.5,1379.5527 L1415.5,1379.5527 L1415.5,1360.2617 " fill="#EEEEEE" style="stroke:#000000;stroke-width:1.5;"/><rect fill="none" height="81.873" style="stroke:#000000;stroke-width:1.5;" width="557" x="1415.5" y="1360.2617"/><text fill="#000000" font-family="sans-serif" font-size="13" font-weight="bold" lengthAdjust="spacing" textLength="28" x="1430.5" y="1375.29">loop</text><text fill="#000000" font-family="sans-serif" font-size="11" font-weight="bold" lengthAdjust="spacing" textLength="141" x="1503.5" y="1374.1318">[for each task in taskList]</text><polygon fill="#181818" points="1923,1398.8438,1933,1402.8438,1923,1406.8438,1927,1402.8438" style="stroke:#181818;stroke-width:1.0;"/><line style="stroke:#181818;stroke-width:1.0;" x1="1489" x2="1929" y1="1402.8438" y2="1402.8438"/><text fill="#000000" font-family="sans-serif" font-size="13" font-weight="bold" lengthAdjust="spacing" textLength="14" x="1496" y="1397.5811">36</text><text fill="#000000" font-family="sans-serif" font-size="13" lengthAdjust="spacing" textLength="184" x="1514" y="1397.5811">hasDescription(taskDescription)</text><polygon fill="#181818" points="1500,1430.1348,1490,1434.1348,1500,1438.1348,1496,1434.1348" style="stroke:#181818;stroke-width:1.0;"/><line style="stroke:#181818;stroke-width:1.0;stroke-dasharray:2.0,2.0;" x1="1494" x2="1939" y1="1434.1348" y2="1434.1348"/><text fill="#000000" font-family="sans-serif" font-size="13" font-weight="bold" lengthAdjust="spacing" textLength="14" x="1506" y="1428.8721">37</text><text fill="#000000" font-family="sans-serif" font-size="13" lengthAdjust="spacing" textLength="53" x="1524" y="1428.8721">true/false</text><polygon fill="#181818" points="942,1468.4258,932,1472.4258,942,1476.4258,938,1472.4258" style="stroke:#181818;stroke-width:1.0;"/><line style="stroke:#181818;stroke-width:1.0;stroke-dasharray:2.0,2.0;" x1="936" x2="1483" y1="1472.4258" y2="1472.4258"/><text fill="#000000" font-family="sans-serif" font-size="13" font-weight="bold" lengthAdjust="spacing" textLength="14" x="948" y="1467.1631">38</text><text fill="#000000" font-family="sans-serif" font-size="13" lengthAdjust="spacing" textLength="25" x="966" y="1467.1631">task</text><polygon fill="#181818" points="1749,1499.7168,1759,1503.7168,1749,1507.7168,1753,1503.7168" style="stroke:#181818;stroke-width:1.0;"/><line style="stroke:#181818;stroke-width:1.0;" x1="931" x2="1755" y1="1503.7168" y2="1503.7168"/><text fill="#000000" font-family="sans-serif" font-size="13" font-weight="bold" lengthAdjust="spacing" textLength="14" x="938" y="1498.4541">39</text><text fill="#000000" font-family="sans-serif" font-size="13" lengthAdjust="spacing" textLength="331" x="956" y="1498.4541">registerEntryToDoList(greenSpace,task,urgency,duration)</text><rect fill="none" height="43.252" style="stroke:#000000;stroke-width:1.5;" width="135" x="1725.5" y="1511.7168"/><path d="M1725.5,1511.7168 L1787.5,1511.7168 L1787.5,1520.7168 L1777.5,1530.7168 L1725.5,1530.7168 L1725.5,1511.7168 " fill="#EEEEEE" style="stroke:#000000;stroke-width:2.0;"/><text fill="#000000" font-family="sans-serif" font-size="13" font-weight="bold" lengthAdjust="spacing" textLength="17" x="1738.5" y="1527.7451">ref</text><text fill="#000000" font-family="sans-serif" font-size="12" lengthAdjust="spacing" textLength="127" x="1729.5" y="1547.666">Register TaskToDoList</text><polygon fill="#181818" points="942,1579.2598,932,1583.2598,942,1587.2598,938,1583.2598" style="stroke:#181818;stroke-width:1.0;"/><line style="stroke:#181818;stroke-width:1.0;stroke-dasharray:2.0,2.0;" x1="936" x2="1765" y1="1583.2598" y2="1583.2598"/><text fill="#000000" font-family="sans-serif" font-size="13" font-weight="bold" lengthAdjust="spacing" textLength="14" x="948" y="1577.9971">40</text><text fill="#000000" font-family="sans-serif" font-size="13" lengthAdjust="spacing" textLength="53" x="966" y="1577.9971">true/false</text><polygon fill="#181818" points="465,1610.5508,455,1614.5508,465,1618.5508,461,1614.5508" style="stroke:#181818;stroke-width:1.0;"/><line style="stroke:#181818;stroke-width:1.0;stroke-dasharray:2.0,2.0;" x1="459" x2="925" y1="1614.5508" y2="1614.5508"/><text fill="#000000" font-family="sans-serif" font-size="13" font-weight="bold" lengthAdjust="spacing" textLength="14" x="471" y="1609.2881">41</text><text fill="#000000" font-family="sans-serif" font-size="13" lengthAdjust="spacing" textLength="53" x="489" y="1609.2881">true/false</text><polygon fill="#181818" points="117,1641.8418,107,1645.8418,117,1649.8418,113,1645.8418" style="stroke:#181818;stroke-width:1.0;"/><line style="stroke:#181818;stroke-width:1.0;stroke-dasharray:2.0,2.0;" x1="111" x2="448" y1="1645.8418" y2="1645.8418"/><text fill="#000000" font-family="sans-serif" font-size="13" font-weight="bold" lengthAdjust="spacing" textLength="14" x="123" y="1640.5791">42</text><text fill="#000000" font-family="sans-serif" font-size="13" lengthAdjust="spacing" textLength="158" x="141" y="1640.5791">displays operation success</text><!--SRC=[tLSzRzim4DtrAmvPwW0nYdRq4C2DKyEeym7Bth8m4cCJaKYLf9Fgt_T8IHGfoOxQgQYNM3BVU_V5kujwPRmWakIG2owIWnGv1IsFD5Bkbu8ahsHFOrrc52HDDE7xp3-W3YGLxupluOLaYaQHPXgFxbOGqvz7oXCA2qRsvkWaNbp257Rnro_uPvwcmEaxKAvb2Lg0Fb3OYkb2JDTCwIWYHotuCN-cCee-7LXAuKK8_In-HIJHGiB5KbBA8KOJgO8xmj5E2PDbV7Tv0KG1VedGHiqILX2kuMAseNjaflBMI6x5GXYXtSgUtgt67BuH-2IoZ4eBkjbkrZrO8HH3-nXLzenxKSRCn0wT2Y7IGppnFi7ZUhuD4NdbAnws8R0HgFrlF7y84PgerzOG16w35nQrtOIOlUCEaCk1rxLgXq3NGJDozTTAQB4-fVJ4M_gAT7DxUny_pczk-muzSUD5HJcFVqIHAGpsHZIrkO-W_k03JAzDISxmxAionIRhx0BnYf1nMuJuSoeWCqLeu8uKIyHn8XbIclmZwPxgNYAMzc5o6LBOWd4a5XxIn7VVyHh6L2ac-7cqf2yWtj05-ngypvBgvZwuzvId1j4LRzLp3v3IZcRFP5DYNS-xvjeozBFmuEkrILytaVPaGwoprURmF38CaibJPIu2rK6yAo1PPjCSj8_A-nIUo-etFF_4WM3GcefHDCFs1uBJhg9V5mYSNkzMCqWEGYWaRiwVgA8W-wQSnrNCG5EfA5PSOOlkvsAe2pdM8ROcKpFm-rFNzREqZR6cWJd_MaJNHDld7DWyUKQ43QnhHWXjTBURAYRpB3FA2weIoGgD5qjrjR7tEJZ2l38rmaDbvYF2yZo565sOsfRSNzMUwtCtuyhFiq6QSQsqWfHeCZdAFSxkyYezIc8YTZbMM9S5ojPaUA4CsqWBKgQAZ9JA1i7WR0oSNOdWBqpcrfonrjIOAfhg-9opsi4ndNtcfaIm0qpQ_dDFSdgbmzgw6WxTVtcXXtQ1FxhMGpl6kCkDsqPt_dmhJJuwwUdD9E_UPa8Kk5HAGB63PujP13f3ngkkZPLtUmbQSI1gKDc1MlbsdGadTaitTSwPLVnplLKt1_qHES25KxvZwj30xG_RpR_NjOtijzAxM9FEHUktyE6y6fXTxPg-77JwQxixLaayAzPFPhLq-ccqLDF6YG_o5yA3pFL7qCVZvzhirV1npxBzwgCcPLRq_g9ftlhkDlyYWSbL8tN2eqMmR7gXwJgsM9ySh2T1PqQh6ogYe9MhE0SINFdKq0m9Dz3V]--></g></svg>