<?xml version="1.0" encoding="us-ascii" standalone="no"?><svg xmlns="http://www.w3.org/2000/svg" xmlns:xlink="http://www.w3.org/1999/xlink" contentStyleType="text/css" height="1117px" preserveAspectRatio="none" style="width:1725px;height:1117px;background:#FFFFFF;" version="1.1" viewBox="0 0 1725 1117" width="1725px" zoomAndPan="magnify"><defs/><g><text fill="#000000" font-family="sans-serif" font-size="14" font-weight="bold" lengthAdjust="spacing" textLength="473" x="623.75" y="30.1074">UI Sequence Diagram (SSD) - US21 - Add new entry to the To-Do-List</text><rect fill="#FFFFFF" height="882.7793" style="stroke:#181818;stroke-width:1.0;" width="10" x="101" y="133.2422"/><rect fill="#FFFFFF" height="310.5801" style="stroke:#181818;stroke-width:1.0;" width="10" x="444" y="156.5332"/><rect fill="#FFFFFF" height="31.291" style="stroke:#181818;stroke-width:1.0;" width="10" x="444" y="498.4043"/><rect fill="#FFFFFF" height="31.291" style="stroke:#181818;stroke-width:1.0;" width="10" x="444" y="560.9863"/><rect fill="#FFFFFF" height="392.4531" style="stroke:#181818;stroke-width:1.0;" width="10" x="444" y="623.5684"/><rect fill="#FFFFFF" height="230.707" style="stroke:#181818;stroke-width:1.0;" width="10" x="957" y="187.8242"/><rect fill="#FFFFFF" height="90.543" style="stroke:#181818;stroke-width:1.0;" width="10" x="962" y="227.1152"/><rect fill="#FFFFFF" height="329.8711" style="stroke:#181818;stroke-width:1.0;" width="10" x="957" y="654.8594"/><rect fill="#FFFFFF" height="31.291" style="stroke:#181818;stroke-width:1.0;" width="10" x="1127" y="686.1504"/><rect fill="#FFFFFF" height="31.291" style="stroke:#181818;stroke-width:1.0;" width="10" x="1234" y="748.7324"/><rect fill="#FFFFFF" height="31.291" style="stroke:#181818;stroke-width:1.0;" width="10" x="1369.5" y="355.9492"/><rect fill="#FFFFFF" height="31.291" style="stroke:#181818;stroke-width:1.0;" width="10" x="1539.5" y="811.3145"/><rect fill="#FFFFFF" height="79.543" style="stroke:#181818;stroke-width:1.0;" width="10" x="1670" y="873.8965"/><line style="stroke:#181818;stroke-width:0.5;stroke-dasharray:5.0,5.0;" x1="106" x2="106" y1="123.2422" y2="1034.0215"/><line style="stroke:#181818;stroke-width:0.5;stroke-dasharray:5.0,5.0;" x1="448.5" x2="448.5" y1="123.2422" y2="1034.0215"/><line style="stroke:#181818;stroke-width:0.5;stroke-dasharray:5.0,5.0;" x1="961.5" x2="961.5" y1="123.2422" y2="1034.0215"/><line style="stroke:#181818;stroke-width:0.5;stroke-dasharray:5.0,5.0;" x1="1131.5" x2="1131.5" y1="123.2422" y2="1034.0215"/><line style="stroke:#181818;stroke-width:0.5;stroke-dasharray:5.0,5.0;" x1="1238.5" x2="1238.5" y1="123.2422" y2="1034.0215"/><line style="stroke:#181818;stroke-width:0.5;stroke-dasharray:5.0,5.0;" x1="1374.5" x2="1374.5" y1="123.2422" y2="1034.0215"/><line style="stroke:#181818;stroke-width:0.5;stroke-dasharray:5.0,5.0;" x1="1544.5" x2="1544.5" y1="123.2422" y2="1034.0215"/><line style="stroke:#181818;stroke-width:0.5;stroke-dasharray:5.0,5.0;" x1="1674.5" x2="1674.5" y1="123.2422" y2="1034.0215"/><text fill="#000000" font-family="sans-serif" font-size="14" lengthAdjust="spacing" textLength="196" x="5" y="119.7285">Green Spaces Manager (GSM)</text><ellipse cx="106" cy="53.1211" fill="#E3E3E3" rx="8" ry="8" style="stroke:#181818;stroke-width:0.5;"/><path d="M106,61.1211 L106,88.1211 M93,69.1211 L119,69.1211 M106,88.1211 L93,103.1211 M106,88.1211 L119,103.1211 " fill="none" style="stroke:#181818;stroke-width:0.5;"/><text fill="#000000" font-family="sans-serif" font-size="14" lengthAdjust="spacing" textLength="196" x="5" y="1048.1289">Green Spaces Manager (GSM)</text><ellipse cx="106" cy="1060.1426" fill="#E3E3E3" rx="8" ry="8" style="stroke:#181818;stroke-width:0.5;"/><path d="M106,1068.1426 L106,1095.1426 M93,1076.1426 L119,1076.1426 M106,1095.1426 L93,1110.1426 M106,1095.1426 L119,1110.1426 " fill="none" style="stroke:#181818;stroke-width:0.5;"/><rect fill="#E3E3E3" height="32.6211" rx="2.5" ry="2.5" style="stroke:#181818;stroke-width:0.5;" width="173" x="362.5" y="89.6211"/><text fill="#000000" font-family="sans-serif" font-size="14" lengthAdjust="spacing" textLength="159" x="369.5" y="111.7285">:RegisterEntryToDoListUI</text><rect fill="#E3E3E3" height="32.6211" rx="2.5" ry="2.5" style="stroke:#181818;stroke-width:0.5;" width="173" x="362.5" y="1033.0215"/><text fill="#000000" font-family="sans-serif" font-size="14" lengthAdjust="spacing" textLength="159" x="369.5" y="1055.1289">:RegisterEntryToDoListUI</text><rect fill="#E3E3E3" height="32.6211" rx="2.5" ry="2.5" style="stroke:#181818;stroke-width:0.5;" width="223" x="850.5" y="89.6211"/><text fill="#000000" font-family="sans-serif" font-size="14" lengthAdjust="spacing" textLength="209" x="857.5" y="111.7285">:RegisterEntryToDoListController</text><rect fill="#E3E3E3" height="32.6211" rx="2.5" ry="2.5" style="stroke:#181818;stroke-width:0.5;" width="223" x="850.5" y="1033.0215"/><text fill="#000000" font-family="sans-serif" font-size="14" lengthAdjust="spacing" textLength="209" x="857.5" y="1055.1289">:RegisterEntryToDoListController</text><rect fill="#E3E3E3" height="32.6211" rx="2.5" ry="2.5" style="stroke:#181818;stroke-width:0.5;" width="97" x="1083.5" y="89.6211"/><text fill="#000000" font-family="sans-serif" font-size="14" lengthAdjust="spacing" textLength="83" x="1090.5" y="111.7285">:Repositories</text><rect fill="#E3E3E3" height="32.6211" rx="2.5" ry="2.5" style="stroke:#181818;stroke-width:0.5;" width="97" x="1083.5" y="1033.0215"/><text fill="#000000" font-family="sans-serif" font-size="14" lengthAdjust="spacing" textLength="83" x="1090.5" y="1055.1289">:Repositories</text><rect fill="#E3E3E3" height="51.2422" rx="2.5" ry="2.5" style="stroke:#181818;stroke-width:0.5;" width="97" x="1190.5" y="71"/><text fill="#000000" font-family="sans-serif" font-size="14" lengthAdjust="spacing" textLength="74" x="1202" y="93.1074">repositories</text><text fill="#000000" font-family="sans-serif" font-size="14" lengthAdjust="spacing" textLength="83" x="1197.5" y="111.7285">:Repositories</text><rect fill="#E3E3E3" height="51.2422" rx="2.5" ry="2.5" style="stroke:#181818;stroke-width:0.5;" width="97" x="1190.5" y="1033.0215"/><text fill="#000000" font-family="sans-serif" font-size="14" lengthAdjust="spacing" textLength="74" x="1202" y="1055.1289">repositories</text><text fill="#000000" font-family="sans-serif" font-size="14" lengthAdjust="spacing" textLength="83" x="1197.5" y="1073.75">:Repositories</text><rect fill="#E3E3E3" height="51.2422" rx="2.5" ry="2.5" style="stroke:#181818;stroke-width:0.5;" width="154" x="1297.5" y="71"/><text fill="#000000" font-family="sans-serif" font-size="14" lengthAdjust="spacing" textLength="56" x="1346.5" y="93.1074">manager</text><text fill="#000000" font-family="sans-serif" font-size="14" lengthAdjust="spacing" textLength="140" x="1304.5" y="111.7285">:GreenSpaceManager</text><rect fill="#E3E3E3" height="51.2422" rx="2.5" ry="2.5" style="stroke:#181818;stroke-width:0.5;" width="154" x="1297.5" y="1033.0215"/><text fill="#000000" font-family="sans-serif" font-size="14" lengthAdjust="spacing" textLength="56" x="1346.5" y="1055.1289">manager</text><text fill="#000000" font-family="sans-serif" font-size="14" lengthAdjust="spacing" textLength="140" x="1304.5" y="1073.75">:GreenSpaceManager</text><rect fill="#E3E3E3" height="51.2422" rx="2.5" ry="2.5" style="stroke:#181818;stroke-width:0.5;" width="166" x="1461.5" y="71"/><text fill="#000000" font-family="sans-serif" font-size="14" lengthAdjust="spacing" textLength="145" x="1472" y="93.1074">greenSpaceRepository</text><text fill="#000000" font-family="sans-serif" font-size="14" lengthAdjust="spacing" textLength="152" x="1468.5" y="111.7285">:GreenSpaceRepository</text><rect fill="#E3E3E3" height="51.2422" rx="2.5" ry="2.5" style="stroke:#181818;stroke-width:0.5;" width="166" x="1461.5" y="1033.0215"/><text fill="#000000" font-family="sans-serif" font-size="14" lengthAdjust="spacing" textLength="145" x="1472" y="1055.1289">greenSpaceRepository</text><text fill="#000000" font-family="sans-serif" font-size="14" lengthAdjust="spacing" textLength="152" x="1468.5" y="1073.75">:GreenSpaceRepository</text><rect fill="#E3E3E3" height="51.2422" rx="2.5" ry="2.5" style="stroke:#181818;stroke-width:0.5;" width="75" x="1637.5" y="71"/><text fill="#000000" font-family="sans-serif" font-size="14" lengthAdjust="spacing" textLength="52" x="1649" y="93.1074">toDoList</text><text fill="#000000" font-family="sans-serif" font-size="14" lengthAdjust="spacing" textLength="61" x="1644.5" y="111.7285">:ToDoList</text><rect fill="#E3E3E3" height="51.2422" rx="2.5" ry="2.5" style="stroke:#181818;stroke-width:0.5;" width="75" x="1637.5" y="1033.0215"/><text fill="#000000" font-family="sans-serif" font-size="14" lengthAdjust="spacing" textLength="52" x="1649" y="1055.1289">toDoList</text><text fill="#000000" font-family="sans-serif" font-size="14" lengthAdjust="spacing" textLength="61" x="1644.5" y="1073.75">:ToDoList</text><rect fill="#FFFFFF" height="882.7793" style="stroke:#181818;stroke-width:1.0;" width="10" x="101" y="133.2422"/><rect fill="#FFFFFF" height="310.5801" style="stroke:#181818;stroke-width:1.0;" width="10" x="444" y="156.5332"/><rect fill="#FFFFFF" height="31.291" style="stroke:#181818;stroke-width:1.0;" width="10" x="444" y="498.4043"/><rect fill="#FFFFFF" height="31.291" style="stroke:#181818;stroke-width:1.0;" width="10" x="444" y="560.9863"/><rect fill="#FFFFFF" height="392.4531" style="stroke:#181818;stroke-width:1.0;" width="10" x="444" y="623.5684"/><rect fill="#FFFFFF" height="230.707" style="stroke:#181818;stroke-width:1.0;" width="10" x="957" y="187.8242"/><rect fill="#FFFFFF" height="90.543" style="stroke:#181818;stroke-width:1.0;" width="10" x="962" y="227.1152"/><rect fill="#FFFFFF" height="329.8711" style="stroke:#181818;stroke-width:1.0;" width="10" x="957" y="654.8594"/><rect fill="#FFFFFF" height="31.291" style="stroke:#181818;stroke-width:1.0;" width="10" x="1127" y="686.1504"/><rect fill="#FFFFFF" height="31.291" style="stroke:#181818;stroke-width:1.0;" width="10" x="1234" y="748.7324"/><rect fill="#FFFFFF" height="31.291" style="stroke:#181818;stroke-width:1.0;" width="10" x="1369.5" y="355.9492"/><rect fill="#FFFFFF" height="31.291" style="stroke:#181818;stroke-width:1.0;" width="10" x="1539.5" y="811.3145"/><rect fill="#FFFFFF" height="79.543" style="stroke:#181818;stroke-width:1.0;" width="10" x="1670" y="873.8965"/><polygon fill="#181818" points="432,152.5332,442,156.5332,432,160.5332,436,156.5332" style="stroke:#181818;stroke-width:1.0;"/><line style="stroke:#181818;stroke-width:1.0;" x1="111" x2="438" y1="156.5332" y2="156.5332"/><text fill="#000000" font-family="sans-serif" font-size="13" font-weight="bold" lengthAdjust="spacing" textLength="7" x="118" y="151.2705">1</text><text fill="#000000" font-family="sans-serif" font-size="13" lengthAdjust="spacing" textLength="251" x="129" y="151.2705">asks to register a new entry in the to do list</text><polygon fill="#181818" points="945,183.8242,955,187.8242,945,191.8242,949,187.8242" style="stroke:#181818;stroke-width:1.0;"/><line style="stroke:#181818;stroke-width:1.0;" x1="454" x2="951" y1="187.8242" y2="187.8242"/><text fill="#000000" font-family="sans-serif" font-size="13" font-weight="bold" lengthAdjust="spacing" textLength="7" x="461" y="182.5615">2</text><text fill="#000000" font-family="sans-serif" font-size="13" lengthAdjust="spacing" textLength="148" x="472" y="182.5615">getGreenSpaceManager()</text><line style="stroke:#181818;stroke-width:1.0;" x1="967" x2="1014" y1="214.1152" y2="214.1152"/><line style="stroke:#181818;stroke-width:1.0;" x1="1014" x2="1014" y1="214.1152" y2="227.1152"/><line style="stroke:#181818;stroke-width:1.0;" x1="973" x2="1014" y1="227.1152" y2="227.1152"/><polygon fill="#181818" points="983,223.1152,973,227.1152,983,231.1152,979,227.1152" style="stroke:#181818;stroke-width:1.0;"/><text fill="#000000" font-family="sans-serif" font-size="13" font-weight="bold" lengthAdjust="spacing" textLength="7" x="979" y="208.8525">3</text><text fill="#000000" font-family="sans-serif" font-size="13" lengthAdjust="spacing" textLength="133" x="990" y="208.8525">getGSMFromSession()</text><rect fill="none" height="43.252" style="stroke:#000000;stroke-width:1.5;" width="229" x="847.5" y="240.1152"/><path d="M847.5,240.1152 L909.5,240.1152 L909.5,249.1152 L899.5,259.1152 L847.5,259.1152 L847.5,240.1152 " fill="#EEEEEE" style="stroke:#000000;stroke-width:2.0;"/><text fill="#000000" font-family="sans-serif" font-size="13" font-weight="bold" lengthAdjust="spacing" textLength="17" x="860.5" y="256.1436">ref</text><text fill="#000000" font-family="sans-serif" font-size="12" lengthAdjust="spacing" textLength="70" x="927" y="276.0645">Get Manager</text><line style="stroke:#181818;stroke-width:1.0;stroke-dasharray:2.0,2.0;" x1="972" x2="1014" y1="316.6582" y2="316.6582"/><line style="stroke:#181818;stroke-width:1.0;stroke-dasharray:2.0,2.0;" x1="1014" x2="1014" y1="316.6582" y2="329.6582"/><line style="stroke:#181818;stroke-width:1.0;stroke-dasharray:2.0,2.0;" x1="967" x2="1014" y1="329.6582" y2="329.6582"/><polygon fill="#181818" points="977,325.6582,967,329.6582,977,333.6582,973,329.6582" style="stroke:#181818;stroke-width:1.0;"/><text fill="#000000" font-family="sans-serif" font-size="13" font-weight="bold" lengthAdjust="spacing" textLength="7" x="979" y="311.3955">4</text><text fill="#000000" font-family="sans-serif" font-size="13" lengthAdjust="spacing" textLength="50" x="990" y="311.3955">manager</text><polygon fill="#181818" points="1357.5,351.9492,1367.5,355.9492,1357.5,359.9492,1361.5,355.9492" style="stroke:#181818;stroke-width:1.0;"/><line style="stroke:#181818;stroke-width:1.0;" x1="967" x2="1363.5" y1="355.9492" y2="355.9492"/><text fill="#000000" font-family="sans-serif" font-size="13" font-weight="bold" lengthAdjust="spacing" textLength="7" x="974" y="350.6865">5</text><text fill="#000000" font-family="sans-serif" font-size="13" lengthAdjust="spacing" textLength="98" x="985" y="350.6865">getGreenSpace()</text><polygon fill="#181818" points="978,383.2402,968,387.2402,978,391.2402,974,387.2402" style="stroke:#181818;stroke-width:1.0;"/><line style="stroke:#181818;stroke-width:1.0;stroke-dasharray:2.0,2.0;" x1="972" x2="1373.5" y1="387.2402" y2="387.2402"/><text fill="#000000" font-family="sans-serif" font-size="13" font-weight="bold" lengthAdjust="spacing" textLength="7" x="984" y="381.9775">6</text><text fill="#000000" font-family="sans-serif" font-size="13" lengthAdjust="spacing" textLength="90" x="995" y="381.9775">greenSpaceList</text><polygon fill="#181818" points="465,414.5313,455,418.5313,465,422.5313,461,418.5313" style="stroke:#181818;stroke-width:1.0;"/><line style="stroke:#181818;stroke-width:1.0;stroke-dasharray:2.0,2.0;" x1="459" x2="961" y1="418.5313" y2="418.5313"/><text fill="#000000" font-family="sans-serif" font-size="13" font-weight="bold" lengthAdjust="spacing" textLength="7" x="471" y="413.2686">7</text><text fill="#000000" font-family="sans-serif" font-size="13" lengthAdjust="spacing" textLength="90" x="482" y="413.2686">greenSpaceList</text><polygon fill="#181818" points="122,463.1133,112,467.1133,122,471.1133,118,467.1133" style="stroke:#181818;stroke-width:1.0;"/><line style="stroke:#181818;stroke-width:1.0;stroke-dasharray:2.0,2.0;" x1="116" x2="448" y1="467.1133" y2="467.1133"/><text fill="#000000" font-family="sans-serif" font-size="13" font-weight="bold" lengthAdjust="spacing" textLength="7" x="128" y="453.2051">8</text><text fill="#000000" font-family="sans-serif" font-size="13" lengthAdjust="spacing" textLength="294" x="139" y="444.5596">shows all the Green Spaces managed by the GSM</text><text fill="#000000" font-family="sans-serif" font-size="13" lengthAdjust="spacing" textLength="132" x="143" y="461.8506">and asks to select one</text><polygon fill="#181818" points="432,494.4043,442,498.4043,432,502.4043,436,498.4043" style="stroke:#181818;stroke-width:1.0;"/><line style="stroke:#181818;stroke-width:1.0;" x1="111" x2="438" y1="498.4043" y2="498.4043"/><text fill="#000000" font-family="sans-serif" font-size="13" font-weight="bold" lengthAdjust="spacing" textLength="7" x="118" y="493.1416">9</text><text fill="#000000" font-family="sans-serif" font-size="13" lengthAdjust="spacing" textLength="74" x="129" y="493.1416">chooses one</text><polygon fill="#181818" points="122,525.6953,112,529.6953,122,533.6953,118,529.6953" style="stroke:#181818;stroke-width:1.0;"/><line style="stroke:#181818;stroke-width:1.0;stroke-dasharray:2.0,2.0;" x1="116" x2="448" y1="529.6953" y2="529.6953"/><text fill="#000000" font-family="sans-serif" font-size="13" font-weight="bold" lengthAdjust="spacing" textLength="14" x="128" y="524.4326">10</text><text fill="#000000" font-family="sans-serif" font-size="13" lengthAdjust="spacing" textLength="277" x="146" y="524.4326">requests data(taskDescription,urgency,duration)</text><polygon fill="#181818" points="432,556.9863,442,560.9863,432,564.9863,436,560.9863" style="stroke:#181818;stroke-width:1.0;"/><line style="stroke:#181818;stroke-width:1.0;" x1="111" x2="438" y1="560.9863" y2="560.9863"/><text fill="#000000" font-family="sans-serif" font-size="13" font-weight="bold" lengthAdjust="spacing" textLength="14" x="118" y="555.7236">11</text><text fill="#000000" font-family="sans-serif" font-size="13" lengthAdjust="spacing" textLength="122" x="136" y="555.7236">types requested data</text><polygon fill="#181818" points="122,588.2773,112,592.2773,122,596.2773,118,592.2773" style="stroke:#181818;stroke-width:1.0;"/><line style="stroke:#181818;stroke-width:1.0;stroke-dasharray:2.0,2.0;" x1="116" x2="448" y1="592.2773" y2="592.2773"/><text fill="#000000" font-family="sans-serif" font-size="13" font-weight="bold" lengthAdjust="spacing" textLength="14" x="128" y="587.0146">12</text><text fill="#000000" font-family="sans-serif" font-size="13" lengthAdjust="spacing" textLength="252" x="146" y="587.0146">displays the data and requests confirmation</text><polygon fill="#181818" points="432,619.5684,442,623.5684,432,627.5684,436,623.5684" style="stroke:#181818;stroke-width:1.0;"/><line style="stroke:#181818;stroke-width:1.0;" x1="111" x2="438" y1="623.5684" y2="623.5684"/><text fill="#000000" font-family="sans-serif" font-size="13" font-weight="bold" lengthAdjust="spacing" textLength="14" x="118" y="618.3057">13</text><text fill="#000000" font-family="sans-serif" font-size="13" lengthAdjust="spacing" textLength="153" x="136" y="618.3057">confirms and submits data</text><polygon fill="#181818" points="945,650.8594,955,654.8594,945,658.8594,949,654.8594" style="stroke:#181818;stroke-width:1.0;"/><line style="stroke:#181818;stroke-width:1.0;" x1="454" x2="951" y1="654.8594" y2="654.8594"/><text fill="#000000" font-family="sans-serif" font-size="13" font-weight="bold" lengthAdjust="spacing" textLength="14" x="461" y="649.5967">14</text><text fill="#000000" font-family="sans-serif" font-size="13" lengthAdjust="spacing" textLength="466" x="479" y="649.5967">registerEntryToDoList(greenSpaceName,Task(taskDescription,urgency,duration))</text><polygon fill="#181818" points="1115,682.1504,1125,686.1504,1115,690.1504,1119,686.1504" style="stroke:#181818;stroke-width:1.0;"/><line style="stroke:#181818;stroke-width:1.0;" x1="967" x2="1121" y1="686.1504" y2="686.1504"/><text fill="#000000" font-family="sans-serif" font-size="13" font-weight="bold" lengthAdjust="spacing" textLength="14" x="974" y="680.8877">15</text><text fill="#000000" font-family="sans-serif" font-size="13" lengthAdjust="spacing" textLength="75" x="992" y="680.8877">getInstance()</text><polygon fill="#181818" points="978,713.4414,968,717.4414,978,721.4414,974,717.4414" style="stroke:#181818;stroke-width:1.0;"/><line style="stroke:#181818;stroke-width:1.0;stroke-dasharray:2.0,2.0;" x1="972" x2="1131" y1="717.4414" y2="717.4414"/><text fill="#000000" font-family="sans-serif" font-size="13" font-weight="bold" lengthAdjust="spacing" textLength="14" x="984" y="712.1787">16</text><text fill="#000000" font-family="sans-serif" font-size="13" lengthAdjust="spacing" textLength="67" x="1002" y="712.1787">repositories</text><polygon fill="#181818" points="1222,744.7324,1232,748.7324,1222,752.7324,1226,748.7324" style="stroke:#181818;stroke-width:1.0;"/><line style="stroke:#181818;stroke-width:1.0;" x1="967" x2="1228" y1="748.7324" y2="748.7324"/><text fill="#000000" font-family="sans-serif" font-size="13" font-weight="bold" lengthAdjust="spacing" textLength="14" x="974" y="743.4697">17</text><text fill="#000000" font-family="sans-serif" font-size="13" lengthAdjust="spacing" textLength="160" x="992" y="743.4697">getGreenSpaceRepository()</text><polygon fill="#181818" points="978,776.0234,968,780.0234,978,784.0234,974,780.0234" style="stroke:#181818;stroke-width:1.0;"/><line style="stroke:#181818;stroke-width:1.0;stroke-dasharray:2.0,2.0;" x1="972" x2="1238" y1="780.0234" y2="780.0234"/><text fill="#000000" font-family="sans-serif" font-size="13" font-weight="bold" lengthAdjust="spacing" textLength="14" x="984" y="774.7607">18</text><text fill="#000000" font-family="sans-serif" font-size="13" lengthAdjust="spacing" textLength="131" x="1002" y="774.7607">greenSpaceRepository</text><polygon fill="#181818" points="1527.5,807.3145,1537.5,811.3145,1527.5,815.3145,1531.5,811.3145" style="stroke:#181818;stroke-width:1.0;"/><line style="stroke:#181818;stroke-width:1.0;" x1="967" x2="1533.5" y1="811.3145" y2="811.3145"/><text fill="#000000" font-family="sans-serif" font-size="13" font-weight="bold" lengthAdjust="spacing" textLength="14" x="974" y="806.0518">19</text><text fill="#000000" font-family="sans-serif" font-size="13" lengthAdjust="spacing" textLength="251" x="992" y="806.0518">getGreenSpaceByName(greenSpaceName)</text><polygon fill="#181818" points="978,838.6055,968,842.6055,978,846.6055,974,842.6055" style="stroke:#181818;stroke-width:1.0;"/><line style="stroke:#181818;stroke-width:1.0;stroke-dasharray:2.0,2.0;" x1="972" x2="1543.5" y1="842.6055" y2="842.6055"/><text fill="#000000" font-family="sans-serif" font-size="13" font-weight="bold" lengthAdjust="spacing" textLength="14" x="984" y="837.3428">20</text><text fill="#000000" font-family="sans-serif" font-size="13" lengthAdjust="spacing" textLength="69" x="1002" y="837.3428">greenSpace</text><polygon fill="#181818" points="1658,869.8965,1668,873.8965,1658,877.8965,1662,873.8965" style="stroke:#181818;stroke-width:1.0;"/><line style="stroke:#181818;stroke-width:1.0;" x1="967" x2="1664" y1="873.8965" y2="873.8965"/><text fill="#000000" font-family="sans-serif" font-size="13" font-weight="bold" lengthAdjust="spacing" textLength="14" x="974" y="868.6338">21</text><text fill="#000000" font-family="sans-serif" font-size="13" lengthAdjust="spacing" textLength="432" x="992" y="868.6338">registerEntryToDoList(Task(taskDescription,urgency,duration,greenSpace))</text><rect fill="none" height="43.252" style="stroke:#000000;stroke-width:1.5;" width="85" x="1634.5" y="881.8965"/><path d="M1634.5,881.8965 L1696.5,881.8965 L1696.5,890.8965 L1686.5,900.8965 L1634.5,900.8965 L1634.5,881.8965 " fill="#EEEEEE" style="stroke:#000000;stroke-width:2.0;"/><text fill="#000000" font-family="sans-serif" font-size="13" font-weight="bold" lengthAdjust="spacing" textLength="17" x="1647.5" y="897.9248">ref</text><text fill="#000000" font-family="sans-serif" font-size="12" lengthAdjust="spacing" textLength="77" x="1638.5" y="917.8457">Register Entry</text><polygon fill="#181818" points="978,949.4395,968,953.4395,978,957.4395,974,953.4395" style="stroke:#181818;stroke-width:1.0;"/><line style="stroke:#181818;stroke-width:1.0;stroke-dasharray:2.0,2.0;" x1="972" x2="1674" y1="953.4395" y2="953.4395"/><text fill="#000000" font-family="sans-serif" font-size="13" font-weight="bold" lengthAdjust="spacing" textLength="14" x="984" y="948.1768">22</text><text fill="#000000" font-family="sans-serif" font-size="13" lengthAdjust="spacing" textLength="53" x="1002" y="948.1768">true/false</text><polygon fill="#181818" points="465,980.7305,455,984.7305,465,988.7305,461,984.7305" style="stroke:#181818;stroke-width:1.0;"/><line style="stroke:#181818;stroke-width:1.0;stroke-dasharray:2.0,2.0;" x1="459" x2="961" y1="984.7305" y2="984.7305"/><text fill="#000000" font-family="sans-serif" font-size="13" font-weight="bold" lengthAdjust="spacing" textLength="14" x="471" y="979.4678">23</text><text fill="#000000" font-family="sans-serif" font-size="13" lengthAdjust="spacing" textLength="53" x="489" y="979.4678">true/false</text><polygon fill="#181818" points="117,1012.0215,107,1016.0215,117,1020.0215,113,1016.0215" style="stroke:#181818;stroke-width:1.0;"/><line style="stroke:#181818;stroke-width:1.0;stroke-dasharray:2.0,2.0;" x1="111" x2="448" y1="1016.0215" y2="1016.0215"/><text fill="#000000" font-family="sans-serif" font-size="13" font-weight="bold" lengthAdjust="spacing" textLength="14" x="123" y="1010.7588">24</text><text fill="#000000" font-family="sans-serif" font-size="13" lengthAdjust="spacing" textLength="158" x="141" y="1010.7588">displays operation success</text><!--SRC=[ZLPDSzem4BtxL-paKfW9qscF73AJXZR336aw66wv27incjYIAuca_lTT2LkMR4BWabZiU_lsGy_eLovgfbW5bHGoEoXP8HXrn4JxRsgMlR82KzEK20epmqHHXW7wm7BvpaK1UrPgJ1B33OLkbv3YtoEA3671MM539scwcC8CjkdtR_JdFiz1u3kWCAe18y4S43Pojf2p5TScITZHI76iTgYIvCk1vmXxASrE_ajOPgI2cqU5A20bZQZXYGaIgc3oc3vDRu1fe7yI4cbuncic3DpCrrWGCwgVDkL6BgHDj5swwEtock07IK-oB54vqCDclHh1QgavwUEeNOm_Q59kcqT5nH0L85x4cE3FwduJ8wfJhHJiMk0wqDRVLVuS8meVryk9uFrnox2E2KpR009rlN21cyKgiVFWRyoWQta2xOSUO7PdLs5EaQ_QpbYrJGKMp9uBDtlwEfTGsjbRk2UboNXE8YDAstOYBT2CwfzCOx2Ra8SxO4oGFlsYnKzHQox5PRJ2FSWt4k-E8VWyekaMq9-Zo2rYcBpFNWM070SvHvBjJ8Sr3-MwkOVzVmxpzJkmwdeSf8snNgkRtcLat2GxePDS0kg3VDV0oj8DEBglf-fps3MdxoZ-HG2ZfdMxeh4amm4fS9Wnt0W2pkwsopba1oar4NVn7-wFLwUiGscZ8MU6JGpbNQ3E5AyDhSBjKHLaNyrjVbJC7am_KU5ttJGroMZ9gKBBVgMYdEkwP8rsBR4urn2lCvDYprNbv5ohfiLenwIFkugt1LzpoUR-maOkEEaNuZUhy7P3hVkyVrVTp3DkUThwfT3qyXdl_3bxzQpds6P1RRtJ3jjvaROJQvrvS2Lxt52eit5FOPy2AUVyUIWf9kXzOJsqXH-DdSfWI2EhM8VxiZvl56EJM8yLq2i0FbgKgpRZjayuN1BtUXdvhpqDxRTxLODB7Zfm3xOgWnhjxvolfvyiWngZbB4FVWowu87-JiiQJ_NIDSp80lMvAnmxydy0]--></g></svg>