<?xml version="1.0" encoding="us-ascii" standalone="no"?><svg xmlns="http://www.w3.org/2000/svg" xmlns:xlink="http://www.w3.org/1999/xlink" contentStyleType="text/css" height="2100px" preserveAspectRatio="none" style="width:2237px;height:2100px;background:#FFFFFF;" version="1.1" viewBox="0 0 2237 2100" width="2237px" zoomAndPan="magnify"><defs/><g><!--cluster UI--><g id="cluster_UI"><path d="M310.11,6.0137 L325.11,6.0137 A3.75,3.75 0 0 1 327.61,8.5137 L334.61,30.6348 L525.11,30.6348 A2.5,2.5 0 0 1 527.61,33.1348 L527.61,104.5137 A2.5,2.5 0 0 1 525.11,107.0137 L310.11,107.0137 A2.5,2.5 0 0 1 307.61,104.5137 L307.61,8.5137 A2.5,2.5 0 0 1 310.11,6.0137 " fill="none" style="stroke:#000000;stroke-width:1.5;"/><line style="stroke:#000000;stroke-width:1.5;" x1="307.61" x2="334.61" y1="30.6348" y2="30.6348"/><text fill="#000000" font-family="sans-serif" font-size="14" font-weight="bold" lengthAdjust="spacing" textLength="14" x="311.61" y="23.1211">UI</text></g><!--cluster Controller--><g id="cluster_Controller"><path d="M54.11,140.0137 L126.11,140.0137 A3.75,3.75 0 0 1 128.61,142.5137 L135.61,164.6348 L781.11,164.6348 A2.5,2.5 0 0 1 783.61,167.1348 L783.61,312.5137 A2.5,2.5 0 0 1 781.11,315.0137 L54.11,315.0137 A2.5,2.5 0 0 1 51.61,312.5137 L51.61,142.5137 A2.5,2.5 0 0 1 54.11,140.0137 " fill="none" style="stroke:#000000;stroke-width:1.5;"/><line style="stroke:#000000;stroke-width:1.5;" x1="51.61" x2="135.61" y1="164.6348" y2="164.6348"/><text fill="#000000" font-family="sans-serif" font-size="14" font-weight="bold" lengthAdjust="spacing" textLength="71" x="55.61" y="157.1211">Controller</text></g><!--cluster Domain--><g id="cluster_Domain"><path d="M366.11,428.0137 L419.11,428.0137 A3.75,3.75 0 0 1 421.61,430.5137 L428.61,452.6348 L2228.11,452.6348 A2.5,2.5 0 0 1 2230.61,455.1348 L2230.61,2090.5137 A2.5,2.5 0 0 1 2228.11,2093.0137 L366.11,2093.0137 A2.5,2.5 0 0 1 363.61,2090.5137 L363.61,430.5137 A2.5,2.5 0 0 1 366.11,428.0137 " fill="none" style="stroke:#000000;stroke-width:1.5;"/><line style="stroke:#000000;stroke-width:1.5;" x1="363.61" x2="428.61" y1="452.6348" y2="452.6348"/><text fill="#000000" font-family="sans-serif" font-size="14" font-weight="bold" lengthAdjust="spacing" textLength="52" x="367.61" y="445.1211">Domain</text></g><!--cluster Application--><g id="cluster_Application"><path d="M1179.11,510.5137 L1258.11,510.5137 A3.75,3.75 0 0 1 1260.61,513.0137 L1267.61,535.1348 L1439.11,535.1348 A2.5,2.5 0 0 1 1441.61,537.6348 L1441.61,829.5137 A2.5,2.5 0 0 1 1439.11,832.0137 L1179.11,832.0137 A2.5,2.5 0 0 1 1176.61,829.5137 L1176.61,513.0137 A2.5,2.5 0 0 1 1179.11,510.5137 " fill="none" style="stroke:#000000;stroke-width:1.5;"/><line style="stroke:#000000;stroke-width:1.5;" x1="1176.61" x2="1267.61" y1="535.1348" y2="535.1348"/><text fill="#000000" font-family="sans-serif" font-size="14" font-weight="bold" lengthAdjust="spacing" textLength="78" x="1180.61" y="527.6211">Application</text></g><!--cluster Model--><g id="cluster_Model"><path d="M1179.11,883.0137 L1224.11,883.0137 A3.75,3.75 0 0 1 1226.61,885.5137 L1233.61,907.6348 L2204.11,907.6348 A2.5,2.5 0 0 1 2206.61,910.1348 L2206.61,2066.5137 A2.5,2.5 0 0 1 2204.11,2069.0137 L1179.11,2069.0137 A2.5,2.5 0 0 1 1176.61,2066.5137 L1176.61,885.5137 A2.5,2.5 0 0 1 1179.11,883.0137 " fill="none" style="stroke:#000000;stroke-width:1.5;"/><line style="stroke:#000000;stroke-width:1.5;" x1="1176.61" x2="1233.61" y1="907.6348" y2="907.6348"/><text fill="#000000" font-family="sans-serif" font-size="14" font-weight="bold" lengthAdjust="spacing" textLength="44" x="1180.61" y="900.1211">Model</text></g><!--cluster Repository--><g id="cluster_Repository"><path d="M403.11,473.0137 L480.11,473.0137 A3.75,3.75 0 0 1 482.61,475.5137 L489.61,497.6348 L1150.11,497.6348 A2.5,2.5 0 0 1 1152.61,500.1348 L1152.61,1084.0137 A2.5,2.5 0 0 1 1150.11,1086.5137 L403.11,1086.5137 A2.5,2.5 0 0 1 400.61,1084.0137 L400.61,475.5137 A2.5,2.5 0 0 1 403.11,473.0137 " fill="none" style="stroke:#000000;stroke-width:1.5;"/><line style="stroke:#000000;stroke-width:1.5;" x1="400.61" x2="489.61" y1="497.6348" y2="497.6348"/><text fill="#000000" font-family="sans-serif" font-size="14" font-weight="bold" lengthAdjust="spacing" textLength="76" x="404.61" y="490.1211">Repository</text></g><!--class RegisterEntryToDoListUI--><g id="elem_RegisterEntryToDoListUI"><rect codeLine="9" fill="#F1F1F1" height="48" id="RegisterEntryToDoListUI" rx="2.5" ry="2.5" style="stroke:#181818;stroke-width:0.5;" width="187" x="324.11" y="43.0137"/><ellipse cx="339.11" cy="59.0137" fill="#ADD1B2" rx="11" ry="11" style="stroke:#181818;stroke-width:1.0;"/><path d="M341.8756,54.8887 Q342.0319,54.6699 342.2194,54.5605 Q342.4069,54.4512 342.6256,54.4512 Q343.0006,54.4512 343.235,54.7168 Q343.4694,54.9668 343.4694,55.5762 L343.4694,57.0293 Q343.4694,57.6387 343.235,57.9043 Q343.0006,58.1699 342.6256,58.1699 Q342.2819,58.1699 342.0788,57.9668 Q341.8756,57.7793 341.7663,57.2637 Q341.7194,56.9043 341.5319,56.7168 Q341.2038,56.3418 340.5944,56.123 Q339.985,55.9043 339.36,55.9043 Q338.5944,55.9043 337.9538,56.2324 Q337.3288,56.5605 336.8288,57.3105 Q336.3444,58.0605 336.3444,59.0918 L336.3444,60.1855 Q336.3444,61.4199 337.235,62.248 Q338.1256,63.0605 339.7194,63.0605 Q340.6569,63.0605 341.3131,62.8105 Q341.7038,62.6543 342.1256,62.2168 Q342.3913,61.9512 342.5319,61.873 Q342.6881,61.7949 342.8913,61.7949 Q343.2194,61.7949 343.4694,62.0605 Q343.735,62.3105 343.735,62.6543 Q343.735,62.998 343.3913,63.4043 Q342.8913,63.9824 342.0944,64.3105 Q341.0163,64.7637 339.7194,64.7637 Q338.2038,64.7637 337.0006,64.1387 Q336.0163,63.6387 335.3288,62.5762 Q334.6413,61.498 334.6413,60.2168 L334.6413,59.0605 Q334.6413,57.7324 335.2506,56.5918 Q335.8756,55.4355 336.9694,54.8262 Q338.0631,54.2012 339.2975,54.2012 Q340.0319,54.2012 340.6725,54.373 Q341.3288,54.5293 341.8756,54.8887 Z " fill="#000000"/><text fill="#000000" font-family="sans-serif" font-size="14" lengthAdjust="spacing" textLength="155" x="353.11" y="64.8105">RegisterEntryToDoListUI</text><line style="stroke:#181818;stroke-width:0.5;" x1="325.11" x2="510.11" y1="75.0137" y2="75.0137"/><line style="stroke:#181818;stroke-width:0.5;" x1="325.11" x2="510.11" y1="83.0137" y2="83.0137"/></g><!--class RegisterEntryToDoListController--><g id="elem_RegisterEntryToDoListController"><rect codeLine="16" fill="#F1F1F1" height="122.4844" id="RegisterEntryToDoListController" rx="2.5" ry="2.5" style="stroke:#181818;stroke-width:0.5;" width="699" x="68.11" y="177.0137"/><ellipse cx="310.86" cy="193.0137" fill="#ADD1B2" rx="11" ry="11" style="stroke:#181818;stroke-width:1.0;"/><path d="M313.6256,188.8887 Q313.7819,188.6699 313.9694,188.5605 Q314.1569,188.4512 314.3756,188.4512 Q314.7506,188.4512 314.985,188.7168 Q315.2194,188.9668 315.2194,189.5762 L315.2194,191.0293 Q315.2194,191.6387 314.985,191.9043 Q314.7506,192.1699 314.3756,192.1699 Q314.0319,192.1699 313.8288,191.9668 Q313.6256,191.7793 313.5163,191.2637 Q313.4694,190.9043 313.2819,190.7168 Q312.9538,190.3418 312.3444,190.123 Q311.735,189.9043 311.11,189.9043 Q310.3444,189.9043 309.7038,190.2324 Q309.0788,190.5605 308.5788,191.3105 Q308.0944,192.0605 308.0944,193.0918 L308.0944,194.1855 Q308.0944,195.4199 308.985,196.248 Q309.8756,197.0605 311.4694,197.0605 Q312.4069,197.0605 313.0631,196.8105 Q313.4538,196.6543 313.8756,196.2168 Q314.1413,195.9512 314.2819,195.873 Q314.4381,195.7949 314.6413,195.7949 Q314.9694,195.7949 315.2194,196.0605 Q315.485,196.3105 315.485,196.6543 Q315.485,196.998 315.1413,197.4043 Q314.6413,197.9824 313.8444,198.3105 Q312.7663,198.7637 311.4694,198.7637 Q309.9538,198.7637 308.7506,198.1387 Q307.7663,197.6387 307.0788,196.5762 Q306.3913,195.498 306.3913,194.2168 L306.3913,193.0605 Q306.3913,191.7324 307.0006,190.5918 Q307.6256,189.4355 308.7194,188.8262 Q309.8131,188.2012 311.0475,188.2012 Q311.7819,188.2012 312.4225,188.373 Q313.0788,188.5293 313.6256,188.8887 Z " fill="#000000"/><text fill="#000000" font-family="sans-serif" font-size="14" lengthAdjust="spacing" textLength="205" x="331.36" y="198.8105">RegisterEntryToDoListController</text><line style="stroke:#181818;stroke-width:0.5;" x1="69.11" x2="766.11" y1="209.0137" y2="209.0137"/><line style="stroke:#181818;stroke-width:0.5;" x1="69.11" x2="766.11" y1="217.0137" y2="217.0137"/><ellipse cx="79.11" cy="231.8242" fill="#84BE84" rx="3" ry="3" style="stroke:#038048;stroke-width:1.0;"/><text fill="#000000" font-family="sans-serif" font-size="14" lengthAdjust="spacing" textLength="673" x="88.11" y="236.1211">RegisterEntryToDoListController(greenSpaceRepository, collaboratorRepository, taskRepository, toDoList)</text><ellipse cx="79.11" cy="250.4453" fill="#84BE84" rx="3" ry="3" style="stroke:#038048;stroke-width:1.0;"/><text fill="#000000" font-family="sans-serif" font-size="14" lengthAdjust="spacing" textLength="110" x="88.11" y="254.7422">getGreenSpace()</text><ellipse cx="79.11" cy="269.0664" fill="#84BE84" rx="3" ry="3" style="stroke:#038048;stroke-width:1.0;"/><text fill="#000000" font-family="sans-serif" font-size="14" lengthAdjust="spacing" textLength="473" x="88.11" y="273.3633">registerEntryToDoList(greenSpaceName,taskDescription,urgency,duration)</text><rect fill="#F24D5C" height="6" style="stroke:#C82930;stroke-width:1.0;" width="6" x="76.11" y="284.6875"/><text fill="#000000" font-family="sans-serif" font-size="14" lengthAdjust="spacing" textLength="144" x="88.11" y="291.9844">getGSMFromSession()</text></g><!--class ApplicationSession--><g id="elem_ApplicationSession"><rect codeLine="30" fill="#F1F1F1" height="85.2422" id="ApplicationSession" rx="2.5" ry="2.5" style="stroke:#181818;stroke-width:0.5;" width="154" x="1192.61" y="547.5137"/><ellipse cx="1208.96" cy="563.5137" fill="#ADD1B2" rx="11" ry="11" style="stroke:#181818;stroke-width:1.0;"/><path d="M1211.7256,559.3887 Q1211.8819,559.1699 1212.0694,559.0605 Q1212.2569,558.9512 1212.4756,558.9512 Q1212.8506,558.9512 1213.085,559.2168 Q1213.3194,559.4668 1213.3194,560.0762 L1213.3194,561.5293 Q1213.3194,562.1387 1213.085,562.4043 Q1212.8506,562.6699 1212.4756,562.6699 Q1212.1319,562.6699 1211.9287,562.4668 Q1211.7256,562.2793 1211.6162,561.7637 Q1211.5694,561.4043 1211.3819,561.2168 Q1211.0537,560.8418 1210.4444,560.623 Q1209.835,560.4043 1209.21,560.4043 Q1208.4444,560.4043 1207.8037,560.7324 Q1207.1787,561.0605 1206.6787,561.8105 Q1206.1944,562.5605 1206.1944,563.5918 L1206.1944,564.6855 Q1206.1944,565.9199 1207.085,566.748 Q1207.9756,567.5605 1209.5694,567.5605 Q1210.5069,567.5605 1211.1631,567.3105 Q1211.5537,567.1543 1211.9756,566.7168 Q1212.2412,566.4512 1212.3819,566.373 Q1212.5381,566.2949 1212.7412,566.2949 Q1213.0694,566.2949 1213.3194,566.5605 Q1213.585,566.8105 1213.585,567.1543 Q1213.585,567.498 1213.2412,567.9043 Q1212.7412,568.4824 1211.9444,568.8105 Q1210.8662,569.2637 1209.5694,569.2637 Q1208.0537,569.2637 1206.8506,568.6387 Q1205.8662,568.1387 1205.1787,567.0762 Q1204.4912,565.998 1204.4912,564.7168 L1204.4912,563.5605 Q1204.4912,562.2324 1205.1006,561.0918 Q1205.7256,559.9355 1206.8194,559.3262 Q1207.9131,558.7012 1209.1475,558.7012 Q1209.8819,558.7012 1210.5225,558.873 Q1211.1787,559.0293 1211.7256,559.3887 Z " fill="#000000"/><text fill="#000000" font-family="sans-serif" font-size="14" lengthAdjust="spacing" textLength="119" x="1223.26" y="569.3105">ApplicationSession</text><line style="stroke:#181818;stroke-width:0.5;" x1="1193.61" x2="1345.61" y1="579.5137" y2="579.5137"/><line style="stroke:#181818;stroke-width:0.5;" x1="1193.61" x2="1345.61" y1="587.5137" y2="587.5137"/><ellipse cx="1203.61" cy="602.3242" fill="#84BE84" rx="3" ry="3" style="stroke:#038048;stroke-width:1.0;"/><text fill="#000000" font-family="sans-serif" font-size="14" lengthAdjust="spacing" textLength="120" x="1212.61" y="606.6211">static getInstance()</text><ellipse cx="1203.61" cy="620.9453" fill="#84BE84" rx="3" ry="3" style="stroke:#038048;stroke-width:1.0;"/><text fill="#000000" font-family="sans-serif" font-size="14" lengthAdjust="spacing" textLength="128" x="1212.61" y="625.2422">getCurrentSession()</text></g><!--class UserSession--><g id="elem_UserSession"><rect codeLine="36" fill="#F1F1F1" height="66.6211" id="UserSession" rx="2.5" ry="2.5" style="stroke:#181818;stroke-width:0.5;" width="119" x="1201.11" y="749.0137"/><ellipse cx="1219.71" cy="765.0137" fill="#ADD1B2" rx="11" ry="11" style="stroke:#181818;stroke-width:1.0;"/><path d="M1222.4756,760.8887 Q1222.6319,760.6699 1222.8194,760.5605 Q1223.0069,760.4512 1223.2256,760.4512 Q1223.6006,760.4512 1223.835,760.7168 Q1224.0694,760.9668 1224.0694,761.5762 L1224.0694,763.0293 Q1224.0694,763.6387 1223.835,763.9043 Q1223.6006,764.1699 1223.2256,764.1699 Q1222.8819,764.1699 1222.6787,763.9668 Q1222.4756,763.7793 1222.3662,763.2637 Q1222.3194,762.9043 1222.1319,762.7168 Q1221.8037,762.3418 1221.1944,762.123 Q1220.585,761.9043 1219.96,761.9043 Q1219.1944,761.9043 1218.5537,762.2324 Q1217.9287,762.5605 1217.4287,763.3105 Q1216.9444,764.0605 1216.9444,765.0918 L1216.9444,766.1855 Q1216.9444,767.4199 1217.835,768.248 Q1218.7256,769.0605 1220.3194,769.0605 Q1221.2569,769.0605 1221.9131,768.8105 Q1222.3037,768.6543 1222.7256,768.2168 Q1222.9912,767.9512 1223.1319,767.873 Q1223.2881,767.7949 1223.4912,767.7949 Q1223.8194,767.7949 1224.0694,768.0605 Q1224.335,768.3105 1224.335,768.6543 Q1224.335,768.998 1223.9912,769.4043 Q1223.4912,769.9824 1222.6944,770.3105 Q1221.6162,770.7637 1220.3194,770.7637 Q1218.8037,770.7637 1217.6006,770.1387 Q1216.6162,769.6387 1215.9287,768.5762 Q1215.2412,767.498 1215.2412,766.2168 L1215.2412,765.0605 Q1215.2412,763.7324 1215.8506,762.5918 Q1216.4756,761.4355 1217.5694,760.8262 Q1218.6631,760.2012 1219.8975,760.2012 Q1220.6319,760.2012 1221.2725,760.373 Q1221.9287,760.5293 1222.4756,760.8887 Z " fill="#000000"/><text fill="#000000" font-family="sans-serif" font-size="14" lengthAdjust="spacing" textLength="79" x="1234.51" y="770.8105">UserSession</text><line style="stroke:#181818;stroke-width:0.5;" x1="1202.11" x2="1319.11" y1="781.0137" y2="781.0137"/><line style="stroke:#181818;stroke-width:0.5;" x1="1202.11" x2="1319.11" y1="789.0137" y2="789.0137"/><ellipse cx="1212.11" cy="803.8242" fill="#84BE84" rx="3" ry="3" style="stroke:#038048;stroke-width:1.0;"/><text fill="#000000" font-family="sans-serif" font-size="14" lengthAdjust="spacing" textLength="93" x="1221.11" y="808.1211">getUserEmail()</text></g><!--class GreenSpace--><g id="elem_GreenSpace"><rect codeLine="44" fill="#F1F1F1" height="122.4844" id="GreenSpace" rx="2.5" ry="2.5" style="stroke:#181818;stroke-width:0.5;" width="208" x="1284.61" y="1673.0137"/><ellipse cx="1344.36" cy="1689.0137" fill="#B4A7E5" rx="11" ry="11" style="stroke:#181818;stroke-width:1.0;"/><path d="M1345.3131,1685.6543 L1345.3131,1692.3105 L1347.0319,1692.3105 Q1347.6413,1692.3105 1347.9069,1692.5449 Q1348.1725,1692.7793 1348.1725,1693.1699 Q1348.1725,1693.5449 1347.9069,1693.7793 Q1347.6413,1694.0137 1347.0319,1694.0137 L1341.8913,1694.0137 Q1341.2819,1694.0137 1341.0163,1693.7793 Q1340.7506,1693.5449 1340.7506,1693.1543 Q1340.7506,1692.7793 1341.0163,1692.5449 Q1341.2819,1692.3105 1341.8913,1692.3105 L1343.61,1692.3105 L1343.61,1685.6543 L1341.8913,1685.6543 Q1341.2819,1685.6543 1341.0163,1685.4199 Q1340.7506,1685.1855 1340.7506,1684.7949 Q1340.7506,1684.4199 1341.0163,1684.1855 Q1341.2819,1683.9512 1341.8913,1683.9512 L1347.0319,1683.9512 Q1347.6413,1683.9512 1347.9069,1684.1855 Q1348.1725,1684.4199 1348.1725,1684.7949 Q1348.1725,1685.1855 1347.9069,1685.4199 Q1347.6413,1685.6543 1347.0319,1685.6543 L1345.3131,1685.6543 Z " fill="#000000"/><text fill="#000000" font-family="sans-serif" font-size="14" font-style="italic" lengthAdjust="spacing" textLength="80" x="1364.86" y="1694.8105">GreenSpace</text><line style="stroke:#181818;stroke-width:0.5;" x1="1285.61" x2="1491.61" y1="1705.0137" y2="1705.0137"/><line style="stroke:#181818;stroke-width:0.5;" x1="1285.61" x2="1491.61" y1="1713.0137" y2="1713.0137"/><ellipse cx="1295.61" cy="1727.8242" fill="#84BE84" rx="3" ry="3" style="stroke:#038048;stroke-width:1.0;"/><text fill="#000000" font-family="sans-serif" font-size="14" lengthAdjust="spacing" textLength="66" x="1304.61" y="1732.1211">getName()</text><ellipse cx="1295.61" cy="1746.4453" fill="#84BE84" rx="3" ry="3" style="stroke:#038048;stroke-width:1.0;"/><text fill="#000000" font-family="sans-serif" font-size="14" lengthAdjust="spacing" textLength="60" x="1304.61" y="1750.7422">getArea()</text><ellipse cx="1295.61" cy="1765.0664" fill="#84BE84" rx="3" ry="3" style="stroke:#038048;stroke-width:1.0;"/><text fill="#000000" font-family="sans-serif" font-size="14" lengthAdjust="spacing" textLength="82" x="1304.61" y="1769.3633">getAddress()</text><ellipse cx="1295.61" cy="1783.6875" fill="#84BE84" rx="3" ry="3" style="stroke:#038048;stroke-width:1.0;"/><text fill="#000000" font-family="sans-serif" font-size="14" lengthAdjust="spacing" textLength="182" x="1304.61" y="1787.9844">hasName(greenSpaceName)</text></g><!--class Garden--><g id="elem_Garden"><rect codeLine="51" fill="#F1F1F1" height="196.9688" id="Garden" rx="2.5" ry="2.5" style="stroke:#181818;stroke-width:0.5;" width="293" x="1193.11" y="1856.0137"/><ellipse cx="1311.36" cy="1872.0137" fill="#ADD1B2" rx="11" ry="11" style="stroke:#181818;stroke-width:1.0;"/><path d="M1314.1256,1867.8887 Q1314.2819,1867.6699 1314.4694,1867.5605 Q1314.6569,1867.4512 1314.8756,1867.4512 Q1315.2506,1867.4512 1315.485,1867.7168 Q1315.7194,1867.9668 1315.7194,1868.5762 L1315.7194,1870.0293 Q1315.7194,1870.6387 1315.485,1870.9043 Q1315.2506,1871.1699 1314.8756,1871.1699 Q1314.5319,1871.1699 1314.3288,1870.9668 Q1314.1256,1870.7793 1314.0163,1870.2637 Q1313.9694,1869.9043 1313.7819,1869.7168 Q1313.4538,1869.3418 1312.8444,1869.123 Q1312.235,1868.9043 1311.61,1868.9043 Q1310.8444,1868.9043 1310.2038,1869.2324 Q1309.5788,1869.5605 1309.0788,1870.3105 Q1308.5944,1871.0605 1308.5944,1872.0918 L1308.5944,1873.1855 Q1308.5944,1874.4199 1309.485,1875.248 Q1310.3756,1876.0605 1311.9694,1876.0605 Q1312.9069,1876.0605 1313.5631,1875.8105 Q1313.9538,1875.6543 1314.3756,1875.2168 Q1314.6413,1874.9512 1314.7819,1874.873 Q1314.9381,1874.7949 1315.1413,1874.7949 Q1315.4694,1874.7949 1315.7194,1875.0605 Q1315.985,1875.3105 1315.985,1875.6543 Q1315.985,1875.998 1315.6413,1876.4043 Q1315.1413,1876.9824 1314.3444,1877.3105 Q1313.2663,1877.7637 1311.9694,1877.7637 Q1310.4538,1877.7637 1309.2506,1877.1387 Q1308.2663,1876.6387 1307.5788,1875.5762 Q1306.8913,1874.498 1306.8913,1873.2168 L1306.8913,1872.0605 Q1306.8913,1870.7324 1307.5006,1869.5918 Q1308.1256,1868.4355 1309.2194,1867.8262 Q1310.3131,1867.2012 1311.5475,1867.2012 Q1312.2819,1867.2012 1312.9225,1867.373 Q1313.5788,1867.5293 1314.1256,1867.8887 Z " fill="#000000"/><text fill="#000000" font-family="sans-serif" font-size="14" lengthAdjust="spacing" textLength="48" x="1331.86" y="1877.8105">Garden</text><line style="stroke:#181818;stroke-width:0.5;" x1="1194.11" x2="1485.11" y1="1888.0137" y2="1888.0137"/><rect fill="none" height="6" style="stroke:#C82930;stroke-width:1.0;" width="6" x="1201.11" y="1899.8242"/><text fill="#000000" font-family="sans-serif" font-size="14" lengthAdjust="spacing" textLength="76" x="1213.11" y="1907.1211">String name</text><rect fill="none" height="6" style="stroke:#C82930;stroke-width:1.0;" width="6" x="1201.11" y="1918.4453"/><text fill="#000000" font-family="sans-serif" font-size="14" lengthAdjust="spacing" textLength="48" x="1213.11" y="1925.7422">int area</text><rect fill="none" height="6" style="stroke:#C82930;stroke-width:1.0;" width="6" x="1201.11" y="1937.0664"/><text fill="#000000" font-family="sans-serif" font-size="14" lengthAdjust="spacing" textLength="52" x="1213.11" y="1944.3633">Address</text><line style="stroke:#181818;stroke-width:0.5;" x1="1194.11" x2="1485.11" y1="1951.877" y2="1951.877"/><ellipse cx="1204.11" cy="1966.6875" fill="#84BE84" rx="3" ry="3" style="stroke:#038048;stroke-width:1.0;"/><text fill="#000000" font-family="sans-serif" font-size="14" lengthAdjust="spacing" textLength="267" x="1213.11" y="1970.9844">Garden(name,area,streetName,postCode)</text><ellipse cx="1204.11" cy="1985.3086" fill="#84BE84" rx="3" ry="3" style="stroke:#038048;stroke-width:1.0;"/><text fill="#000000" font-family="sans-serif" font-size="14" lengthAdjust="spacing" textLength="66" x="1213.11" y="1989.6055">getName()</text><ellipse cx="1204.11" cy="2003.9297" fill="#84BE84" rx="3" ry="3" style="stroke:#038048;stroke-width:1.0;"/><text fill="#000000" font-family="sans-serif" font-size="14" lengthAdjust="spacing" textLength="60" x="1213.11" y="2008.2266">getArea()</text><ellipse cx="1204.11" cy="2022.5508" fill="#84BE84" rx="3" ry="3" style="stroke:#038048;stroke-width:1.0;"/><text fill="#000000" font-family="sans-serif" font-size="14" lengthAdjust="spacing" textLength="82" x="1213.11" y="2026.8477">getAddress()</text><ellipse cx="1204.11" cy="2041.1719" fill="#84BE84" rx="3" ry="3" style="stroke:#038048;stroke-width:1.0;"/><text fill="#000000" font-family="sans-serif" font-size="14" lengthAdjust="spacing" textLength="182" x="1213.11" y="2045.4688">hasName(greenSpaceName)</text></g><!--class MediumPark--><g id="elem_MediumPark"><rect codeLine="63" fill="#F1F1F1" height="196.9688" id="MediumPark" rx="2.5" ry="2.5" style="stroke:#181818;stroke-width:0.5;" width="323" x="1521.11" y="1856.0137"/><ellipse cx="1639.36" cy="1872.0137" fill="#ADD1B2" rx="11" ry="11" style="stroke:#181818;stroke-width:1.0;"/><path d="M1642.1256,1867.8887 Q1642.2819,1867.6699 1642.4694,1867.5605 Q1642.6569,1867.4512 1642.8756,1867.4512 Q1643.2506,1867.4512 1643.485,1867.7168 Q1643.7194,1867.9668 1643.7194,1868.5762 L1643.7194,1870.0293 Q1643.7194,1870.6387 1643.485,1870.9043 Q1643.2506,1871.1699 1642.8756,1871.1699 Q1642.5319,1871.1699 1642.3288,1870.9668 Q1642.1256,1870.7793 1642.0163,1870.2637 Q1641.9694,1869.9043 1641.7819,1869.7168 Q1641.4538,1869.3418 1640.8444,1869.123 Q1640.235,1868.9043 1639.61,1868.9043 Q1638.8444,1868.9043 1638.2038,1869.2324 Q1637.5788,1869.5605 1637.0788,1870.3105 Q1636.5944,1871.0605 1636.5944,1872.0918 L1636.5944,1873.1855 Q1636.5944,1874.4199 1637.485,1875.248 Q1638.3756,1876.0605 1639.9694,1876.0605 Q1640.9069,1876.0605 1641.5631,1875.8105 Q1641.9538,1875.6543 1642.3756,1875.2168 Q1642.6413,1874.9512 1642.7819,1874.873 Q1642.9381,1874.7949 1643.1413,1874.7949 Q1643.4694,1874.7949 1643.7194,1875.0605 Q1643.985,1875.3105 1643.985,1875.6543 Q1643.985,1875.998 1643.6413,1876.4043 Q1643.1413,1876.9824 1642.3444,1877.3105 Q1641.2663,1877.7637 1639.9694,1877.7637 Q1638.4538,1877.7637 1637.2506,1877.1387 Q1636.2663,1876.6387 1635.5788,1875.5762 Q1634.8913,1874.498 1634.8913,1873.2168 L1634.8913,1872.0605 Q1634.8913,1870.7324 1635.5006,1869.5918 Q1636.1256,1868.4355 1637.2194,1867.8262 Q1638.3131,1867.2012 1639.5475,1867.2012 Q1640.2819,1867.2012 1640.9225,1867.373 Q1641.5788,1867.5293 1642.1256,1867.8887 Z " fill="#000000"/><text fill="#000000" font-family="sans-serif" font-size="14" lengthAdjust="spacing" textLength="78" x="1659.86" y="1877.8105">MediumPark</text><line style="stroke:#181818;stroke-width:0.5;" x1="1522.11" x2="1843.11" y1="1888.0137" y2="1888.0137"/><rect fill="none" height="6" style="stroke:#C82930;stroke-width:1.0;" width="6" x="1529.11" y="1899.8242"/><text fill="#000000" font-family="sans-serif" font-size="14" lengthAdjust="spacing" textLength="76" x="1541.11" y="1907.1211">String name</text><rect fill="none" height="6" style="stroke:#C82930;stroke-width:1.0;" width="6" x="1529.11" y="1918.4453"/><text fill="#000000" font-family="sans-serif" font-size="14" lengthAdjust="spacing" textLength="48" x="1541.11" y="1925.7422">int area</text><rect fill="none" height="6" style="stroke:#C82930;stroke-width:1.0;" width="6" x="1529.11" y="1937.0664"/><text fill="#000000" font-family="sans-serif" font-size="14" lengthAdjust="spacing" textLength="52" x="1541.11" y="1944.3633">Address</text><line style="stroke:#181818;stroke-width:0.5;" x1="1522.11" x2="1843.11" y1="1951.877" y2="1951.877"/><ellipse cx="1532.11" cy="1966.6875" fill="#84BE84" rx="3" ry="3" style="stroke:#038048;stroke-width:1.0;"/><text fill="#000000" font-family="sans-serif" font-size="14" lengthAdjust="spacing" textLength="66" x="1541.11" y="1970.9844">getName()</text><ellipse cx="1532.11" cy="1985.3086" fill="#84BE84" rx="3" ry="3" style="stroke:#038048;stroke-width:1.0;"/><text fill="#000000" font-family="sans-serif" font-size="14" lengthAdjust="spacing" textLength="60" x="1541.11" y="1989.6055">getArea()</text><ellipse cx="1532.11" cy="2003.9297" fill="#84BE84" rx="3" ry="3" style="stroke:#038048;stroke-width:1.0;"/><text fill="#000000" font-family="sans-serif" font-size="14" lengthAdjust="spacing" textLength="82" x="1541.11" y="2008.2266">getAddress()</text><ellipse cx="1532.11" cy="2022.5508" fill="#84BE84" rx="3" ry="3" style="stroke:#038048;stroke-width:1.0;"/><text fill="#000000" font-family="sans-serif" font-size="14" lengthAdjust="spacing" textLength="297" x="1541.11" y="2026.8477">MediumPark(name,area,streetName,postCode)</text><ellipse cx="1532.11" cy="2041.1719" fill="#84BE84" rx="3" ry="3" style="stroke:#038048;stroke-width:1.0;"/><text fill="#000000" font-family="sans-serif" font-size="14" lengthAdjust="spacing" textLength="182" x="1541.11" y="2045.4688">hasName(greenSpaceName)</text></g><!--class LargePark--><g id="elem_LargePark"><rect codeLine="75" fill="#F1F1F1" height="196.9688" id="LargePark" rx="2.5" ry="2.5" style="stroke:#181818;stroke-width:0.5;" width="311" x="1879.11" y="1856.0137"/><ellipse cx="1997.36" cy="1872.0137" fill="#ADD1B2" rx="11" ry="11" style="stroke:#181818;stroke-width:1.0;"/><path d="M2000.1256,1867.8887 Q2000.2819,1867.6699 2000.4694,1867.5605 Q2000.6569,1867.4512 2000.8756,1867.4512 Q2001.2506,1867.4512 2001.485,1867.7168 Q2001.7194,1867.9668 2001.7194,1868.5762 L2001.7194,1870.0293 Q2001.7194,1870.6387 2001.485,1870.9043 Q2001.2506,1871.1699 2000.8756,1871.1699 Q2000.5319,1871.1699 2000.3288,1870.9668 Q2000.1256,1870.7793 2000.0163,1870.2637 Q1999.9694,1869.9043 1999.7819,1869.7168 Q1999.4538,1869.3418 1998.8444,1869.123 Q1998.235,1868.9043 1997.61,1868.9043 Q1996.8444,1868.9043 1996.2038,1869.2324 Q1995.5788,1869.5605 1995.0788,1870.3105 Q1994.5944,1871.0605 1994.5944,1872.0918 L1994.5944,1873.1855 Q1994.5944,1874.4199 1995.485,1875.248 Q1996.3756,1876.0605 1997.9694,1876.0605 Q1998.9069,1876.0605 1999.5631,1875.8105 Q1999.9538,1875.6543 2000.3756,1875.2168 Q2000.6413,1874.9512 2000.7819,1874.873 Q2000.9381,1874.7949 2001.1413,1874.7949 Q2001.4694,1874.7949 2001.7194,1875.0605 Q2001.985,1875.3105 2001.985,1875.6543 Q2001.985,1875.998 2001.6413,1876.4043 Q2001.1413,1876.9824 2000.3444,1877.3105 Q1999.2663,1877.7637 1997.9694,1877.7637 Q1996.4538,1877.7637 1995.2506,1877.1387 Q1994.2663,1876.6387 1993.5788,1875.5762 Q1992.8913,1874.498 1992.8913,1873.2168 L1992.8913,1872.0605 Q1992.8913,1870.7324 1993.5006,1869.5918 Q1994.1256,1868.4355 1995.2194,1867.8262 Q1996.3131,1867.2012 1997.5475,1867.2012 Q1998.2819,1867.2012 1998.9225,1867.373 Q1999.5788,1867.5293 2000.1256,1867.8887 Z " fill="#000000"/><text fill="#000000" font-family="sans-serif" font-size="14" lengthAdjust="spacing" textLength="66" x="2017.86" y="1877.8105">LargePark</text><line style="stroke:#181818;stroke-width:0.5;" x1="1880.11" x2="2189.11" y1="1888.0137" y2="1888.0137"/><rect fill="none" height="6" style="stroke:#C82930;stroke-width:1.0;" width="6" x="1887.11" y="1899.8242"/><text fill="#000000" font-family="sans-serif" font-size="14" lengthAdjust="spacing" textLength="76" x="1899.11" y="1907.1211">String name</text><rect fill="none" height="6" style="stroke:#C82930;stroke-width:1.0;" width="6" x="1887.11" y="1918.4453"/><text fill="#000000" font-family="sans-serif" font-size="14" lengthAdjust="spacing" textLength="48" x="1899.11" y="1925.7422">int area</text><rect fill="none" height="6" style="stroke:#C82930;stroke-width:1.0;" width="6" x="1887.11" y="1937.0664"/><text fill="#000000" font-family="sans-serif" font-size="14" lengthAdjust="spacing" textLength="52" x="1899.11" y="1944.3633">Address</text><line style="stroke:#181818;stroke-width:0.5;" x1="1880.11" x2="2189.11" y1="1951.877" y2="1951.877"/><ellipse cx="1890.11" cy="1966.6875" fill="#84BE84" rx="3" ry="3" style="stroke:#038048;stroke-width:1.0;"/><text fill="#000000" font-family="sans-serif" font-size="14" lengthAdjust="spacing" textLength="66" x="1899.11" y="1970.9844">getName()</text><ellipse cx="1890.11" cy="1985.3086" fill="#84BE84" rx="3" ry="3" style="stroke:#038048;stroke-width:1.0;"/><text fill="#000000" font-family="sans-serif" font-size="14" lengthAdjust="spacing" textLength="60" x="1899.11" y="1989.6055">getArea()</text><ellipse cx="1890.11" cy="2003.9297" fill="#84BE84" rx="3" ry="3" style="stroke:#038048;stroke-width:1.0;"/><text fill="#000000" font-family="sans-serif" font-size="14" lengthAdjust="spacing" textLength="82" x="1899.11" y="2008.2266">getAddress()</text><ellipse cx="1890.11" cy="2022.5508" fill="#84BE84" rx="3" ry="3" style="stroke:#038048;stroke-width:1.0;"/><text fill="#000000" font-family="sans-serif" font-size="14" lengthAdjust="spacing" textLength="285" x="1899.11" y="2026.8477">LargePark(name,area,streetName,postCode)</text><ellipse cx="1890.11" cy="2041.1719" fill="#84BE84" rx="3" ry="3" style="stroke:#038048;stroke-width:1.0;"/><text fill="#000000" font-family="sans-serif" font-size="14" lengthAdjust="spacing" textLength="182" x="1899.11" y="2045.4688">hasName(greenSpaceName)</text></g><!--class Collaborator--><g id="elem_Collaborator"><rect codeLine="87" fill="#F1F1F1" height="234.2109" id="Collaborator" rx="2.5" ry="2.5" style="stroke:#181818;stroke-width:0.5;" width="686" x="1192.61" y="920.0137"/><ellipse cx="1492.36" cy="936.0137" fill="#ADD1B2" rx="11" ry="11" style="stroke:#181818;stroke-width:1.0;"/><path d="M1495.1256,931.8887 Q1495.2819,931.6699 1495.4694,931.5605 Q1495.6569,931.4512 1495.8756,931.4512 Q1496.2506,931.4512 1496.485,931.7168 Q1496.7194,931.9668 1496.7194,932.5762 L1496.7194,934.0293 Q1496.7194,934.6387 1496.485,934.9043 Q1496.2506,935.1699 1495.8756,935.1699 Q1495.5319,935.1699 1495.3288,934.9668 Q1495.1256,934.7793 1495.0163,934.2637 Q1494.9694,933.9043 1494.7819,933.7168 Q1494.4538,933.3418 1493.8444,933.123 Q1493.235,932.9043 1492.61,932.9043 Q1491.8444,932.9043 1491.2038,933.2324 Q1490.5788,933.5605 1490.0788,934.3105 Q1489.5944,935.0605 1489.5944,936.0918 L1489.5944,937.1855 Q1489.5944,938.4199 1490.485,939.248 Q1491.3756,940.0605 1492.9694,940.0605 Q1493.9069,940.0605 1494.5631,939.8105 Q1494.9538,939.6543 1495.3756,939.2168 Q1495.6413,938.9512 1495.7819,938.873 Q1495.9381,938.7949 1496.1413,938.7949 Q1496.4694,938.7949 1496.7194,939.0605 Q1496.985,939.3105 1496.985,939.6543 Q1496.985,939.998 1496.6413,940.4043 Q1496.1413,940.9824 1495.3444,941.3105 Q1494.2663,941.7637 1492.9694,941.7637 Q1491.4538,941.7637 1490.2506,941.1387 Q1489.2663,940.6387 1488.5788,939.5762 Q1487.8913,938.498 1487.8913,937.2168 L1487.8913,936.0605 Q1487.8913,934.7324 1488.5006,933.5918 Q1489.1256,932.4355 1490.2194,931.8262 Q1491.3131,931.2012 1492.5475,931.2012 Q1493.2819,931.2012 1493.9225,931.373 Q1494.5788,931.5293 1495.1256,931.8887 Z " fill="#000000"/><text fill="#000000" font-family="sans-serif" font-size="14" lengthAdjust="spacing" textLength="78" x="1512.86" y="941.8105">Collaborator</text><line style="stroke:#181818;stroke-width:0.5;" x1="1193.61" x2="1877.61" y1="952.0137" y2="952.0137"/><rect fill="none" height="6" style="stroke:#C82930;stroke-width:1.0;" width="6" x="1200.61" y="963.8242"/><text fill="#000000" font-family="sans-serif" font-size="14" lengthAdjust="spacing" textLength="76" x="1212.61" y="971.1211">String name</text><rect fill="none" height="6" style="stroke:#C82930;stroke-width:1.0;" width="6" x="1200.61" y="982.4453"/><text fill="#000000" font-family="sans-serif" font-size="14" lengthAdjust="spacing" textLength="45" x="1212.61" y="989.7422">Job job</text><rect fill="none" height="6" style="stroke:#C82930;stroke-width:1.0;" width="6" x="1200.61" y="1001.0664"/><text fill="#000000" font-family="sans-serif" font-size="14" lengthAdjust="spacing" textLength="106" x="1212.61" y="1008.3633">Date dateOfBirth</text><rect fill="none" height="6" style="stroke:#C82930;stroke-width:1.0;" width="6" x="1200.61" y="1019.6875"/><text fill="#000000" font-family="sans-serif" font-size="14" lengthAdjust="spacing" textLength="127" x="1212.61" y="1026.9844">Date admissionDate</text><rect fill="none" height="6" style="stroke:#C82930;stroke-width:1.0;" width="6" x="1200.61" y="1038.3086"/><text fill="#000000" font-family="sans-serif" font-size="14" lengthAdjust="spacing" textLength="107" x="1212.61" y="1045.6055">Address address</text><rect fill="none" height="6" style="stroke:#C82930;stroke-width:1.0;" width="6" x="1200.61" y="1056.9297"/><text fill="#000000" font-family="sans-serif" font-size="14" lengthAdjust="spacing" textLength="130" x="1212.61" y="1064.2266">Document document</text><rect fill="none" height="6" style="stroke:#C82930;stroke-width:1.0;" width="6" x="1200.61" y="1075.5508"/><text fill="#000000" font-family="sans-serif" font-size="14" lengthAdjust="spacing" textLength="130" x="1212.61" y="1082.8477">String phoneNumber</text><rect fill="none" height="6" style="stroke:#C82930;stroke-width:1.0;" width="6" x="1200.61" y="1094.1719"/><text fill="#000000" font-family="sans-serif" font-size="14" lengthAdjust="spacing" textLength="74" x="1212.61" y="1101.4688">String email</text><rect fill="none" height="6" style="stroke:#C82930;stroke-width:1.0;" width="6" x="1200.61" y="1112.793"/><text fill="#000000" font-family="sans-serif" font-size="14" lengthAdjust="spacing" textLength="73" x="1212.61" y="1120.0898">int taxpayer</text><line style="stroke:#181818;stroke-width:0.5;" x1="1193.61" x2="1877.61" y1="1127.6035" y2="1127.6035"/><ellipse cx="1203.61" cy="1142.4141" fill="#84BE84" rx="3" ry="3" style="stroke:#038048;stroke-width:1.0;"/><text fill="#000000" font-family="sans-serif" font-size="14" lengthAdjust="spacing" textLength="660" x="1212.61" y="1146.7109">Collaborator(name, job, dateOfBirth, admissionDate, address, document, phoneNumber, email, taxpayer)</text></g><!--class Task--><g id="elem_Task"><rect codeLine="101" fill="#F1F1F1" height="103.8633" id="Task" rx="2.5" ry="2.5" style="stroke:#181818;stroke-width:0.5;" width="227" x="1563.11" y="1682.0137"/><ellipse cx="1656.86" cy="1698.0137" fill="#ADD1B2" rx="11" ry="11" style="stroke:#181818;stroke-width:1.0;"/><path d="M1659.6256,1693.8887 Q1659.7819,1693.6699 1659.9694,1693.5605 Q1660.1569,1693.4512 1660.3756,1693.4512 Q1660.7506,1693.4512 1660.985,1693.7168 Q1661.2194,1693.9668 1661.2194,1694.5762 L1661.2194,1696.0293 Q1661.2194,1696.6387 1660.985,1696.9043 Q1660.7506,1697.1699 1660.3756,1697.1699 Q1660.0319,1697.1699 1659.8288,1696.9668 Q1659.6256,1696.7793 1659.5163,1696.2637 Q1659.4694,1695.9043 1659.2819,1695.7168 Q1658.9538,1695.3418 1658.3444,1695.123 Q1657.735,1694.9043 1657.11,1694.9043 Q1656.3444,1694.9043 1655.7038,1695.2324 Q1655.0788,1695.5605 1654.5788,1696.3105 Q1654.0944,1697.0605 1654.0944,1698.0918 L1654.0944,1699.1855 Q1654.0944,1700.4199 1654.985,1701.248 Q1655.8756,1702.0605 1657.4694,1702.0605 Q1658.4069,1702.0605 1659.0631,1701.8105 Q1659.4538,1701.6543 1659.8756,1701.2168 Q1660.1413,1700.9512 1660.2819,1700.873 Q1660.4381,1700.7949 1660.6413,1700.7949 Q1660.9694,1700.7949 1661.2194,1701.0605 Q1661.485,1701.3105 1661.485,1701.6543 Q1661.485,1701.998 1661.1413,1702.4043 Q1660.6413,1702.9824 1659.8444,1703.3105 Q1658.7663,1703.7637 1657.4694,1703.7637 Q1655.9538,1703.7637 1654.7506,1703.1387 Q1653.7663,1702.6387 1653.0788,1701.5762 Q1652.3913,1700.498 1652.3913,1699.2168 L1652.3913,1698.0605 Q1652.3913,1696.7324 1653.0006,1695.5918 Q1653.6256,1694.4355 1654.7194,1693.8262 Q1655.8131,1693.2012 1657.0475,1693.2012 Q1657.7819,1693.2012 1658.4225,1693.373 Q1659.0788,1693.5293 1659.6256,1693.8887 Z " fill="#000000"/><text fill="#000000" font-family="sans-serif" font-size="14" lengthAdjust="spacing" textLength="31" x="1677.36" y="1703.8105">Task</text><line style="stroke:#181818;stroke-width:0.5;" x1="1564.11" x2="1789.11" y1="1714.0137" y2="1714.0137"/><rect fill="none" height="6" style="stroke:#C82930;stroke-width:1.0;" width="6" x="1571.11" y="1725.8242"/><text fill="#000000" font-family="sans-serif" font-size="14" lengthAdjust="spacing" textLength="138" x="1583.11" y="1733.1211">String taskDescription</text><line style="stroke:#181818;stroke-width:0.5;" x1="1564.11" x2="1789.11" y1="1740.6348" y2="1740.6348"/><ellipse cx="1574.11" cy="1755.4453" fill="#84BE84" rx="3" ry="3" style="stroke:#038048;stroke-width:1.0;"/><text fill="#000000" font-family="sans-serif" font-size="14" lengthAdjust="spacing" textLength="138" x="1583.11" y="1759.7422">Task(taskDescription)</text><ellipse cx="1574.11" cy="1774.0664" fill="#84BE84" rx="3" ry="3" style="stroke:#038048;stroke-width:1.0;"/><text fill="#000000" font-family="sans-serif" font-size="14" lengthAdjust="spacing" textLength="201" x="1583.11" y="1778.3633">hasDescription(taskDescription)</text></g><!--class TaskToDoList--><g id="elem_TaskToDoList"><rect codeLine="108" fill="#F1F1F1" height="178.3477" id="TaskToDoList" rx="2.5" ry="2.5" style="stroke:#181818;stroke-width:0.5;" width="354" x="1211.61" y="1416.0137"/><ellipse cx="1340.36" cy="1432.0137" fill="#ADD1B2" rx="11" ry="11" style="stroke:#181818;stroke-width:1.0;"/><path d="M1343.1256,1427.8887 Q1343.2819,1427.6699 1343.4694,1427.5605 Q1343.6569,1427.4512 1343.8756,1427.4512 Q1344.2506,1427.4512 1344.485,1427.7168 Q1344.7194,1427.9668 1344.7194,1428.5762 L1344.7194,1430.0293 Q1344.7194,1430.6387 1344.485,1430.9043 Q1344.2506,1431.1699 1343.8756,1431.1699 Q1343.5319,1431.1699 1343.3288,1430.9668 Q1343.1256,1430.7793 1343.0163,1430.2637 Q1342.9694,1429.9043 1342.7819,1429.7168 Q1342.4538,1429.3418 1341.8444,1429.123 Q1341.235,1428.9043 1340.61,1428.9043 Q1339.8444,1428.9043 1339.2038,1429.2324 Q1338.5788,1429.5605 1338.0788,1430.3105 Q1337.5944,1431.0605 1337.5944,1432.0918 L1337.5944,1433.1855 Q1337.5944,1434.4199 1338.485,1435.248 Q1339.3756,1436.0605 1340.9694,1436.0605 Q1341.9069,1436.0605 1342.5631,1435.8105 Q1342.9538,1435.6543 1343.3756,1435.2168 Q1343.6413,1434.9512 1343.7819,1434.873 Q1343.9381,1434.7949 1344.1413,1434.7949 Q1344.4694,1434.7949 1344.7194,1435.0605 Q1344.985,1435.3105 1344.985,1435.6543 Q1344.985,1435.998 1344.6413,1436.4043 Q1344.1413,1436.9824 1343.3444,1437.3105 Q1342.2663,1437.7637 1340.9694,1437.7637 Q1339.4538,1437.7637 1338.2506,1437.1387 Q1337.2663,1436.6387 1336.5788,1435.5762 Q1335.8913,1434.498 1335.8913,1433.2168 L1335.8913,1432.0605 Q1335.8913,1430.7324 1336.5006,1429.5918 Q1337.1256,1428.4355 1338.2194,1427.8262 Q1339.3131,1427.2012 1340.5475,1427.2012 Q1341.2819,1427.2012 1341.9225,1427.373 Q1342.5788,1427.5293 1343.1256,1427.8887 Z " fill="#000000"/><text fill="#000000" font-family="sans-serif" font-size="14" lengthAdjust="spacing" textLength="88" x="1360.86" y="1437.8105">TaskToDoList</text><line style="stroke:#181818;stroke-width:0.5;" x1="1212.61" x2="1564.61" y1="1448.0137" y2="1448.0137"/><rect fill="none" height="6" style="stroke:#C82930;stroke-width:1.0;" width="6" x="1219.61" y="1459.8242"/><text fill="#000000" font-family="sans-serif" font-size="14" lengthAdjust="spacing" textLength="161" x="1231.61" y="1467.1211">GreenSpace greenSpace</text><rect fill="none" height="6" style="stroke:#C82930;stroke-width:1.0;" width="6" x="1219.61" y="1478.4453"/><text fill="#000000" font-family="sans-serif" font-size="14" lengthAdjust="spacing" textLength="61" x="1231.61" y="1485.7422">Task task</text><rect fill="none" height="6" style="stroke:#C82930;stroke-width:1.0;" width="6" x="1219.61" y="1497.0664"/><text fill="#000000" font-family="sans-serif" font-size="14" lengthAdjust="spacing" textLength="92" x="1231.61" y="1504.3633">String urgency</text><rect fill="none" height="6" style="stroke:#C82930;stroke-width:1.0;" width="6" x="1219.61" y="1515.6875"/><text fill="#000000" font-family="sans-serif" font-size="14" lengthAdjust="spacing" textLength="71" x="1231.61" y="1522.9844">int duration</text><rect fill="none" height="6" style="stroke:#C82930;stroke-width:1.0;" width="6" x="1219.61" y="1534.3086"/><text fill="#000000" font-family="sans-serif" font-size="14" lengthAdjust="spacing" textLength="79" x="1231.61" y="1541.6055">String status</text><line style="stroke:#181818;stroke-width:0.5;" x1="1212.61" x2="1564.61" y1="1549.1191" y2="1549.1191"/><ellipse cx="1222.61" cy="1563.9297" fill="#84BE84" rx="3" ry="3" style="stroke:#038048;stroke-width:1.0;"/><text fill="#000000" font-family="sans-serif" font-size="14" lengthAdjust="spacing" textLength="328" x="1231.61" y="1568.2266">TaskToDoList(greenSpace, task, urgency, duration)</text><rect fill="#F24D5C" height="6" style="stroke:#C82930;stroke-width:1.0;" width="6" x="1219.61" y="1579.5508"/><text fill="#000000" font-family="sans-serif" font-size="14" lengthAdjust="spacing" textLength="151" x="1231.61" y="1586.8477">validateTaskToDoList();</text></g><!--class GreenSpaceManager--><g id="elem_GreenSpaceManager"><rect codeLine="119" fill="#F1F1F1" height="103.8633" id="GreenSpaceManager" rx="2.5" ry="2.5" style="stroke:#181818;stroke-width:0.5;" width="303" x="1620.11" y="1224.0137"/><ellipse cx="1699.36" cy="1240.0137" fill="#ADD1B2" rx="11" ry="11" style="stroke:#181818;stroke-width:1.0;"/><path d="M1702.1256,1235.8887 Q1702.2819,1235.6699 1702.4694,1235.5605 Q1702.6569,1235.4512 1702.8756,1235.4512 Q1703.2506,1235.4512 1703.485,1235.7168 Q1703.7194,1235.9668 1703.7194,1236.5762 L1703.7194,1238.0293 Q1703.7194,1238.6387 1703.485,1238.9043 Q1703.2506,1239.1699 1702.8756,1239.1699 Q1702.5319,1239.1699 1702.3288,1238.9668 Q1702.1256,1238.7793 1702.0163,1238.2637 Q1701.9694,1237.9043 1701.7819,1237.7168 Q1701.4538,1237.3418 1700.8444,1237.123 Q1700.235,1236.9043 1699.61,1236.9043 Q1698.8444,1236.9043 1698.2038,1237.2324 Q1697.5788,1237.5605 1697.0788,1238.3105 Q1696.5944,1239.0605 1696.5944,1240.0918 L1696.5944,1241.1855 Q1696.5944,1242.4199 1697.485,1243.248 Q1698.3756,1244.0605 1699.9694,1244.0605 Q1700.9069,1244.0605 1701.5631,1243.8105 Q1701.9538,1243.6543 1702.3756,1243.2168 Q1702.6413,1242.9512 1702.7819,1242.873 Q1702.9381,1242.7949 1703.1413,1242.7949 Q1703.4694,1242.7949 1703.7194,1243.0605 Q1703.985,1243.3105 1703.985,1243.6543 Q1703.985,1243.998 1703.6413,1244.4043 Q1703.1413,1244.9824 1702.3444,1245.3105 Q1701.2663,1245.7637 1699.9694,1245.7637 Q1698.4538,1245.7637 1697.2506,1245.1387 Q1696.2663,1244.6387 1695.5788,1243.5762 Q1694.8913,1242.498 1694.8913,1241.2168 L1694.8913,1240.0605 Q1694.8913,1238.7324 1695.5006,1237.5918 Q1696.1256,1236.4355 1697.2194,1235.8262 Q1698.3131,1235.2012 1699.5475,1235.2012 Q1700.2819,1235.2012 1700.9225,1235.373 Q1701.5788,1235.5293 1702.1256,1235.8887 Z " fill="#000000"/><text fill="#000000" font-family="sans-serif" font-size="14" lengthAdjust="spacing" textLength="136" x="1719.86" y="1245.8105">GreenSpaceManager</text><line style="stroke:#181818;stroke-width:0.5;" x1="1621.11" x2="1922.11" y1="1256.0137" y2="1256.0137"/><rect fill="none" height="6" style="stroke:#C82930;stroke-width:1.0;" width="6" x="1628.11" y="1267.8242"/><text fill="#000000" font-family="sans-serif" font-size="14" lengthAdjust="spacing" textLength="277" x="1640.11" y="1275.1211">List&lt;GreenSpace&gt; managesGreenPlaceList</text><line style="stroke:#181818;stroke-width:0.5;" x1="1621.11" x2="1922.11" y1="1282.6348" y2="1282.6348"/><ellipse cx="1631.11" cy="1297.4453" fill="#84BE84" rx="3" ry="3" style="stroke:#038048;stroke-width:1.0;"/><text fill="#000000" font-family="sans-serif" font-size="14" lengthAdjust="spacing" textLength="146" x="1640.11" y="1301.7422">GreenSpaceManager()</text><ellipse cx="1631.11" cy="1316.0664" fill="#84BE84" rx="3" ry="3" style="stroke:#038048;stroke-width:1.0;"/><text fill="#000000" font-family="sans-serif" font-size="14" lengthAdjust="spacing" textLength="110" x="1640.11" y="1320.3633">getGreenSpace()</text></g><!--class ToDoList--><g id="elem_ToDoList"><rect codeLine="126" fill="#F1F1F1" height="122.4844" id="ToDoList" rx="2.5" ry="2.5" style="stroke:#181818;stroke-width:0.5;" width="392" x="1192.61" y="1215.0137"/><ellipse cx="1355.86" cy="1231.0137" fill="#ADD1B2" rx="11" ry="11" style="stroke:#181818;stroke-width:1.0;"/><path d="M1358.6256,1226.8887 Q1358.7819,1226.6699 1358.9694,1226.5605 Q1359.1569,1226.4512 1359.3756,1226.4512 Q1359.7506,1226.4512 1359.985,1226.7168 Q1360.2194,1226.9668 1360.2194,1227.5762 L1360.2194,1229.0293 Q1360.2194,1229.6387 1359.985,1229.9043 Q1359.7506,1230.1699 1359.3756,1230.1699 Q1359.0319,1230.1699 1358.8288,1229.9668 Q1358.6256,1229.7793 1358.5163,1229.2637 Q1358.4694,1228.9043 1358.2819,1228.7168 Q1357.9538,1228.3418 1357.3444,1228.123 Q1356.735,1227.9043 1356.11,1227.9043 Q1355.3444,1227.9043 1354.7038,1228.2324 Q1354.0788,1228.5605 1353.5788,1229.3105 Q1353.0944,1230.0605 1353.0944,1231.0918 L1353.0944,1232.1855 Q1353.0944,1233.4199 1353.985,1234.248 Q1354.8756,1235.0605 1356.4694,1235.0605 Q1357.4069,1235.0605 1358.0631,1234.8105 Q1358.4538,1234.6543 1358.8756,1234.2168 Q1359.1413,1233.9512 1359.2819,1233.873 Q1359.4381,1233.7949 1359.6413,1233.7949 Q1359.9694,1233.7949 1360.2194,1234.0605 Q1360.485,1234.3105 1360.485,1234.6543 Q1360.485,1234.998 1360.1413,1235.4043 Q1359.6413,1235.9824 1358.8444,1236.3105 Q1357.7663,1236.7637 1356.4694,1236.7637 Q1354.9538,1236.7637 1353.7506,1236.1387 Q1352.7663,1235.6387 1352.0788,1234.5762 Q1351.3913,1233.498 1351.3913,1232.2168 L1351.3913,1231.0605 Q1351.3913,1229.7324 1352.0006,1228.5918 Q1352.6256,1227.4355 1353.7194,1226.8262 Q1354.8131,1226.2012 1356.0475,1226.2012 Q1356.7819,1226.2012 1357.4225,1226.373 Q1358.0788,1226.5293 1358.6256,1226.8887 Z " fill="#000000"/><text fill="#000000" font-family="sans-serif" font-size="14" lengthAdjust="spacing" textLength="57" x="1376.36" y="1236.8105">ToDoList</text><line style="stroke:#181818;stroke-width:0.5;" x1="1193.61" x2="1583.61" y1="1247.0137" y2="1247.0137"/><line style="stroke:#181818;stroke-width:0.5;" x1="1193.61" x2="1583.61" y1="1255.0137" y2="1255.0137"/><ellipse cx="1203.61" cy="1269.8242" fill="#84BE84" rx="3" ry="3" style="stroke:#038048;stroke-width:1.0;"/><text fill="#000000" font-family="sans-serif" font-size="14" lengthAdjust="spacing" textLength="67" x="1212.61" y="1274.1211">ToDoList()</text><ellipse cx="1203.61" cy="1288.4453" fill="#84BE84" rx="3" ry="3" style="stroke:#038048;stroke-width:1.0;"/><text fill="#000000" font-family="sans-serif" font-size="14" lengthAdjust="spacing" textLength="366" x="1212.61" y="1292.7422">registerEntryToDoList(greenSpace,task,urgency,duration)</text><rect fill="#F24D5C" height="6" style="stroke:#C82930;stroke-width:1.0;" width="6" x="1200.61" y="1304.0664"/><text fill="#000000" font-family="sans-serif" font-size="14" lengthAdjust="spacing" textLength="227" x="1212.61" y="1311.3633">addListTaskToDoList(taskToDoList)</text><rect fill="#F24D5C" height="6" style="stroke:#C82930;stroke-width:1.0;" width="6" x="1200.61" y="1322.6875"/><text fill="#000000" font-family="sans-serif" font-size="14" lengthAdjust="spacing" textLength="116" x="1212.61" y="1329.9844">validateToDoList()</text></g><!--class Repositories--><g id="elem_Repositories"><rect codeLine="138" fill="#F1F1F1" height="159.7266" id="Repositories" rx="2.5" ry="2.5" style="stroke:#181818;stroke-width:0.5;" width="204" x="465.61" y="510.0137"/><ellipse cx="523.86" cy="526.0137" fill="#ADD1B2" rx="11" ry="11" style="stroke:#181818;stroke-width:1.0;"/><path d="M526.6256,521.8887 Q526.7819,521.6699 526.9694,521.5605 Q527.1569,521.4512 527.3756,521.4512 Q527.7506,521.4512 527.985,521.7168 Q528.2194,521.9668 528.2194,522.5762 L528.2194,524.0293 Q528.2194,524.6387 527.985,524.9043 Q527.7506,525.1699 527.3756,525.1699 Q527.0319,525.1699 526.8288,524.9668 Q526.6256,524.7793 526.5163,524.2637 Q526.4694,523.9043 526.2819,523.7168 Q525.9538,523.3418 525.3444,523.123 Q524.735,522.9043 524.11,522.9043 Q523.3444,522.9043 522.7038,523.2324 Q522.0788,523.5605 521.5788,524.3105 Q521.0944,525.0605 521.0944,526.0918 L521.0944,527.1855 Q521.0944,528.4199 521.985,529.248 Q522.8756,530.0605 524.4694,530.0605 Q525.4069,530.0605 526.0631,529.8105 Q526.4538,529.6543 526.8756,529.2168 Q527.1413,528.9512 527.2819,528.873 Q527.4381,528.7949 527.6413,528.7949 Q527.9694,528.7949 528.2194,529.0605 Q528.485,529.3105 528.485,529.6543 Q528.485,529.998 528.1413,530.4043 Q527.6413,530.9824 526.8444,531.3105 Q525.7663,531.7637 524.4694,531.7637 Q522.9538,531.7637 521.7506,531.1387 Q520.7663,530.6387 520.0788,529.5762 Q519.3913,528.498 519.3913,527.2168 L519.3913,526.0605 Q519.3913,524.7324 520.0006,523.5918 Q520.6256,522.4355 521.7194,521.8262 Q522.8131,521.2012 524.0475,521.2012 Q524.7819,521.2012 525.4225,521.373 Q526.0788,521.5293 526.6256,521.8887 Z " fill="#000000"/><text fill="#000000" font-family="sans-serif" font-size="14" lengthAdjust="spacing" textLength="79" x="544.36" y="531.8105">Repositories</text><line style="stroke:#181818;stroke-width:0.5;" x1="466.61" x2="668.61" y1="542.0137" y2="542.0137"/><line style="stroke:#181818;stroke-width:0.5;" x1="466.61" x2="668.61" y1="550.0137" y2="550.0137"/><rect fill="#F24D5C" height="6" style="stroke:#C82930;stroke-width:1.0;" width="6" x="473.61" y="561.8242"/><text fill="#000000" font-family="sans-serif" font-size="14" lengthAdjust="spacing" textLength="89" x="485.61" y="569.1211">Repositories()</text><ellipse cx="476.61" cy="583.4453" fill="#84BE84" rx="3" ry="3" style="stroke:#038048;stroke-width:1.0;"/><text fill="#000000" font-family="sans-serif" font-size="14" lengthAdjust="spacing" textLength="174" x="485.61" y="587.7422">getInstance() : Repositories</text><ellipse cx="476.61" cy="602.0664" fill="#84BE84" rx="3" ry="3" style="stroke:#038048;stroke-width:1.0;"/><text fill="#000000" font-family="sans-serif" font-size="14" lengthAdjust="spacing" textLength="178" x="485.61" y="606.3633">getGreenSpaceRepository()</text><ellipse cx="476.61" cy="620.6875" fill="#84BE84" rx="3" ry="3" style="stroke:#038048;stroke-width:1.0;"/><text fill="#000000" font-family="sans-serif" font-size="14" lengthAdjust="spacing" textLength="176" x="485.61" y="624.9844">getCollaboratorRepository()</text><ellipse cx="476.61" cy="639.3086" fill="#84BE84" rx="3" ry="3" style="stroke:#038048;stroke-width:1.0;"/><text fill="#000000" font-family="sans-serif" font-size="14" lengthAdjust="spacing" textLength="133" x="485.61" y="643.6055">getTaskRepository();</text><ellipse cx="476.61" cy="657.9297" fill="#84BE84" rx="3" ry="3" style="stroke:#038048;stroke-width:1.0;"/><text fill="#000000" font-family="sans-serif" font-size="14" lengthAdjust="spacing" textLength="87" x="485.61" y="662.2266">getToDoList()</text></g><!--class CollaboratorRepository--><g id="elem_CollaboratorRepository"><rect codeLine="148" fill="#F1F1F1" height="66.6211" id="CollaboratorRepository" rx="2.5" ry="2.5" style="stroke:#181818;stroke-width:0.5;" width="261" x="828.11" y="1003.5137"/><ellipse cx="881.36" cy="1019.5137" fill="#ADD1B2" rx="11" ry="11" style="stroke:#181818;stroke-width:1.0;"/><path d="M884.1256,1015.3887 Q884.2819,1015.1699 884.4694,1015.0605 Q884.6569,1014.9512 884.8756,1014.9512 Q885.2506,1014.9512 885.485,1015.2168 Q885.7194,1015.4668 885.7194,1016.0762 L885.7194,1017.5293 Q885.7194,1018.1387 885.485,1018.4043 Q885.2506,1018.6699 884.8756,1018.6699 Q884.5319,1018.6699 884.3288,1018.4668 Q884.1256,1018.2793 884.0163,1017.7637 Q883.9694,1017.4043 883.7819,1017.2168 Q883.4538,1016.8418 882.8444,1016.623 Q882.235,1016.4043 881.61,1016.4043 Q880.8444,1016.4043 880.2038,1016.7324 Q879.5788,1017.0605 879.0788,1017.8105 Q878.5944,1018.5605 878.5944,1019.5918 L878.5944,1020.6855 Q878.5944,1021.9199 879.485,1022.748 Q880.3756,1023.5605 881.9694,1023.5605 Q882.9069,1023.5605 883.5631,1023.3105 Q883.9538,1023.1543 884.3756,1022.7168 Q884.6413,1022.4512 884.7819,1022.373 Q884.9381,1022.2949 885.1413,1022.2949 Q885.4694,1022.2949 885.7194,1022.5605 Q885.985,1022.8105 885.985,1023.1543 Q885.985,1023.498 885.6413,1023.9043 Q885.1413,1024.4824 884.3444,1024.8105 Q883.2663,1025.2637 881.9694,1025.2637 Q880.4538,1025.2637 879.2506,1024.6387 Q878.2663,1024.1387 877.5788,1023.0762 Q876.8913,1021.998 876.8913,1020.7168 L876.8913,1019.5605 Q876.8913,1018.2324 877.5006,1017.0918 Q878.1256,1015.9355 879.2194,1015.3262 Q880.3131,1014.7012 881.5475,1014.7012 Q882.2819,1014.7012 882.9225,1014.873 Q883.5788,1015.0293 884.1256,1015.3887 Z " fill="#000000"/><text fill="#000000" font-family="sans-serif" font-size="14" lengthAdjust="spacing" textLength="146" x="901.86" y="1025.3105">CollaboratorRepository</text><line style="stroke:#181818;stroke-width:0.5;" x1="829.11" x2="1088.11" y1="1035.5137" y2="1035.5137"/><line style="stroke:#181818;stroke-width:0.5;" x1="829.11" x2="1088.11" y1="1043.5137" y2="1043.5137"/><ellipse cx="839.11" cy="1058.3242" fill="#84BE84" rx="3" ry="3" style="stroke:#038048;stroke-width:1.0;"/><text fill="#000000" font-family="sans-serif" font-size="14" lengthAdjust="spacing" textLength="235" x="848.11" y="1062.6211">getCollaboratorByEmail(greenSpace)</text></g><!--class GreenSpaceRepository--><g id="elem_GreenSpaceRepository"><rect codeLine="153" fill="#F1F1F1" height="66.6211" id="GreenSpaceRepository" rx="2.5" ry="2.5" style="stroke:#181818;stroke-width:0.5;" width="301" x="417.11" y="749.0137"/><ellipse cx="489.36" cy="765.0137" fill="#ADD1B2" rx="11" ry="11" style="stroke:#181818;stroke-width:1.0;"/><path d="M492.1256,760.8887 Q492.2819,760.6699 492.4694,760.5605 Q492.6569,760.4512 492.8756,760.4512 Q493.2506,760.4512 493.485,760.7168 Q493.7194,760.9668 493.7194,761.5762 L493.7194,763.0293 Q493.7194,763.6387 493.485,763.9043 Q493.2506,764.1699 492.8756,764.1699 Q492.5319,764.1699 492.3288,763.9668 Q492.1256,763.7793 492.0163,763.2637 Q491.9694,762.9043 491.7819,762.7168 Q491.4538,762.3418 490.8444,762.123 Q490.235,761.9043 489.61,761.9043 Q488.8444,761.9043 488.2038,762.2324 Q487.5788,762.5605 487.0788,763.3105 Q486.5944,764.0605 486.5944,765.0918 L486.5944,766.1855 Q486.5944,767.4199 487.485,768.248 Q488.3756,769.0605 489.9694,769.0605 Q490.9069,769.0605 491.5631,768.8105 Q491.9538,768.6543 492.3756,768.2168 Q492.6413,767.9512 492.7819,767.873 Q492.9381,767.7949 493.1413,767.7949 Q493.4694,767.7949 493.7194,768.0605 Q493.985,768.3105 493.985,768.6543 Q493.985,768.998 493.6413,769.4043 Q493.1413,769.9824 492.3444,770.3105 Q491.2663,770.7637 489.9694,770.7637 Q488.4538,770.7637 487.2506,770.1387 Q486.2663,769.6387 485.5788,768.5762 Q484.8913,767.498 484.8913,766.2168 L484.8913,765.0605 Q484.8913,763.7324 485.5006,762.5918 Q486.1256,761.4355 487.2194,760.8262 Q488.3131,760.2012 489.5475,760.2012 Q490.2819,760.2012 490.9225,760.373 Q491.5788,760.5293 492.1256,760.8887 Z " fill="#000000"/><text fill="#000000" font-family="sans-serif" font-size="14" lengthAdjust="spacing" textLength="148" x="509.86" y="770.8105">GreenSpaceRepository</text><line style="stroke:#181818;stroke-width:0.5;" x1="418.11" x2="717.11" y1="781.0137" y2="781.0137"/><line style="stroke:#181818;stroke-width:0.5;" x1="418.11" x2="717.11" y1="789.0137" y2="789.0137"/><ellipse cx="428.11" cy="803.8242" fill="#84BE84" rx="3" ry="3" style="stroke:#038048;stroke-width:1.0;"/><text fill="#000000" font-family="sans-serif" font-size="14" lengthAdjust="spacing" textLength="275" x="437.11" y="808.1211">getGreenSpaceByName(greenSpaceName)</text></g><!--class TaskRepository--><g id="elem_TaskRepository"><rect codeLine="158" fill="#F1F1F1" height="66.6211" id="TaskRepository" rx="2.5" ry="2.5" style="stroke:#181818;stroke-width:0.5;" width="180" x="956.61" y="749.0137"/><ellipse cx="993.66" cy="765.0137" fill="#ADD1B2" rx="11" ry="11" style="stroke:#181818;stroke-width:1.0;"/><path d="M996.4256,760.8887 Q996.5819,760.6699 996.7694,760.5605 Q996.9569,760.4512 997.1756,760.4512 Q997.5506,760.4512 997.785,760.7168 Q998.0194,760.9668 998.0194,761.5762 L998.0194,763.0293 Q998.0194,763.6387 997.785,763.9043 Q997.5506,764.1699 997.1756,764.1699 Q996.8319,764.1699 996.6288,763.9668 Q996.4256,763.7793 996.3163,763.2637 Q996.2694,762.9043 996.0819,762.7168 Q995.7538,762.3418 995.1444,762.123 Q994.535,761.9043 993.91,761.9043 Q993.1444,761.9043 992.5038,762.2324 Q991.8788,762.5605 991.3788,763.3105 Q990.8944,764.0605 990.8944,765.0918 L990.8944,766.1855 Q990.8944,767.4199 991.785,768.248 Q992.6756,769.0605 994.2694,769.0605 Q995.2069,769.0605 995.8631,768.8105 Q996.2538,768.6543 996.6756,768.2168 Q996.9413,767.9512 997.0819,767.873 Q997.2381,767.7949 997.4413,767.7949 Q997.7694,767.7949 998.0194,768.0605 Q998.285,768.3105 998.285,768.6543 Q998.285,768.998 997.9413,769.4043 Q997.4413,769.9824 996.6444,770.3105 Q995.5663,770.7637 994.2694,770.7637 Q992.7538,770.7637 991.5506,770.1387 Q990.5663,769.6387 989.8788,768.5762 Q989.1913,767.498 989.1913,766.2168 L989.1913,765.0605 Q989.1913,763.7324 989.8006,762.5918 Q990.4256,761.4355 991.5194,760.8262 Q992.6131,760.2012 993.8475,760.2012 Q994.5819,760.2012 995.2225,760.373 Q995.8788,760.5293 996.4256,760.8887 Z " fill="#000000"/><text fill="#000000" font-family="sans-serif" font-size="14" lengthAdjust="spacing" textLength="99" x="1012.56" y="770.8105">TaskRepository</text><line style="stroke:#181818;stroke-width:0.5;" x1="957.61" x2="1135.61" y1="781.0137" y2="781.0137"/><line style="stroke:#181818;stroke-width:0.5;" x1="957.61" x2="1135.61" y1="789.0137" y2="789.0137"/><ellipse cx="967.61" cy="803.8242" fill="#84BE84" rx="3" ry="3" style="stroke:#038048;stroke-width:1.0;"/><text fill="#000000" font-family="sans-serif" font-size="14" lengthAdjust="spacing" textLength="154" x="976.61" y="808.1211">getAllTaskDescriptions()</text></g><!--link Repositories to Repositories--><g id="link_Repositories_Repositories"><path codeLine="166" d="M669.78,568.8037 C690.11,571.1937 704.61,578.2637 704.61,590.0137 C704.61,601.7637 696.069,608.1331 675.739,610.5231 " fill="none" id="Repositories-to-Repositories" style="stroke:#181818;stroke-width:1.0;"/><polygon fill="#181818" points="669.78,611.2237,679.1855,614.1455,674.7458,610.6399,678.2514,606.2002,669.78,611.2237" style="stroke:#181818;stroke-width:1.0;"/><text fill="#000000" font-family="sans-serif" font-size="13" lengthAdjust="spacing" textLength="49" x="710.61" y="595.542">instance</text></g><!--link ApplicationSession to ApplicationSession--><g id="link_ApplicationSession_ApplicationSession"><path codeLine="167" d="M1346.82,568.1337 C1366.67,569.5237 1381.61,576.8237 1381.61,590.0137 C1381.61,603.2037 1372.6553,610.0845 1352.8053,611.4745 " fill="none" id="ApplicationSession-to-ApplicationSession" style="stroke:#181818;stroke-width:1.0;"/><polygon fill="#181818" points="1346.82,611.8937,1356.0774,615.2552,1351.8078,611.5444,1355.5186,607.2748,1346.82,611.8937" style="stroke:#181818;stroke-width:1.0;"/><text fill="#000000" font-family="sans-serif" font-size="13" lengthAdjust="spacing" textLength="49" x="1387.61" y="595.542">instance</text></g><!--link RegisterEntryToDoListUI to RegisterEntryToDoListController--><g id="link_RegisterEntryToDoListUI_RegisterEntryToDoListController"><path codeLine="170" d="M417.61,91.1537 C417.61,113.1237 417.61,141.0937 417.61,170.7237 " fill="none" id="RegisterEntryToDoListUI-to-RegisterEntryToDoListController" style="stroke:#181818;stroke-width:1.0;stroke-dasharray:7.0,7.0;"/><polygon fill="#181818" points="417.61,176.7237,421.61,167.7237,417.61,171.7237,413.61,167.7237,417.61,176.7237" style="stroke:#181818;stroke-width:1.0;"/></g><!--link RegisterEntryToDoListController to Repositories--><g id="link_RegisterEntryToDoListController_Repositories"><path codeLine="173" d="M443.4,299.1837 C468.36,357.4237 503.9765,440.5388 531.3665,504.4488 " fill="none" id="RegisterEntryToDoListController-to-Repositories" style="stroke:#181818;stroke-width:1.0;stroke-dasharray:7.0,7.0;"/><polygon fill="#181818" points="533.73,509.9637,533.8613,500.1157,531.7604,505.3679,526.5081,503.267,533.73,509.9637" style="stroke:#181818;stroke-width:1.0;"/><text fill="#000000" font-family="sans-serif" font-size="13" lengthAdjust="spacing" textLength="67" x="478.61" y="377.042">repositories</text></g><!--link RegisterEntryToDoListController to ApplicationSession--><g id="link_RegisterEntryToDoListController_ApplicationSession"><path codeLine="174" d="M767.3,272.4637 C896.98,297.8337 1039.8,342.2737 1152.61,420.0137 C1198.89,451.9037 1229.8718,503.1348 1248.8918,541.9848 " fill="none" id="RegisterEntryToDoListController-to-ApplicationSession" style="stroke:#181818;stroke-width:1.0;stroke-dasharray:7.0,7.0;"/><polygon fill="#181818" points="1251.53,547.3737,1251.1652,537.5316,1249.3315,542.883,1243.9801,541.0492,1251.53,547.3737" style="stroke:#181818;stroke-width:1.0;"/></g><!--link RegisterEntryToDoListController to UserSession--><g id="link_RegisterEntryToDoListController_UserSession"><path codeLine="175" d="M391.5,299.1037 C351.92,400.6437 292.14,606.1237 400.61,719.0137 C429.58,749.1637 1111.38,742.1037 1152.61,749.0137 C1168.54,751.6837 1179.6692,754.3025 1195.2292,758.9325 " fill="none" id="RegisterEntryToDoListController-to-UserSession" style="stroke:#181818;stroke-width:1.0;stroke-dasharray:7.0,7.0;"/><polygon fill="#181818" points="1200.98,760.6437,1193.4946,754.243,1196.1877,759.2177,1191.213,761.9107,1200.98,760.6437" style="stroke:#181818;stroke-width:1.0;"/></g><!--link RegisterEntryToDoListController to GreenSpaceRepository--><g id="link_RegisterEntryToDoListController_GreenSpaceRepository"><path codeLine="176" d="M295.2,299.2337 C285.09,308.5537 276.23,319.1137 269.61,331.0137 C185.83,481.7437 160.91,585.1437 269.61,719.0137 C289.15,743.0737 347.3631,757.3355 411.1631,766.6655 " fill="none" id="RegisterEntryToDoListController-to-GreenSpaceRepository" style="stroke:#181818;stroke-width:1.0;stroke-dasharray:7.0,7.0;"/><polygon fill="#181818" points="417.1,767.5337,408.7735,762.2735,412.1526,766.8102,407.6159,770.1893,417.1,767.5337" style="stroke:#181818;stroke-width:1.0;"/></g><!--link RegisterEntryToDoListController to CollaboratorRepository--><g id="link_RegisterEntryToDoListController_CollaboratorRepository"><path codeLine="177" d="M767.23,249.9437 C1076.37,264.4437 1478.61,297.3737 1478.61,370.5137 C1478.61,370.5137 1478.61,370.5137 1478.61,783.5137 C1478.61,813.5337 1467.02,824.0437 1441.61,840.0137 C1341.03,903.2337 1286.77,830.5337 1176.61,875.0137 C1102.88,904.7837 1035.853,961.2949 995.843,999.0649 " fill="none" id="RegisterEntryToDoListController-to-CollaboratorRepository" style="stroke:#181818;stroke-width:1.0;stroke-dasharray:7.0,7.0;"/><polygon fill="#181818" points="991.48,1003.1837,1000.7704,999.9142,995.1158,999.7514,995.2787,994.0969,991.48,1003.1837" style="stroke:#181818;stroke-width:1.0;"/></g><!--link RegisterEntryToDoListController to TaskRepository--><g id="link_RegisterEntryToDoListController_TaskRepository"><path codeLine="178" d="M357.71,299.1337 C350.73,309.1037 344.66,319.8537 340.61,331.0137 C281.73,493.0937 221.72,594.1037 340.61,719.0137 C387.17,767.9237 881.22,736.7037 947.61,749.0137 C950.55,749.5537 947.6552,748.8517 950.6452,749.5217 " fill="none" id="RegisterEntryToDoListController-to-TaskRepository" style="stroke:#181818;stroke-width:1.0;stroke-dasharray:7.0,7.0;"/><polygon fill="#181818" points="956.5,750.8337,948.5924,744.9625,951.621,749.7404,946.8432,752.769,956.5,750.8337" style="stroke:#181818;stroke-width:1.0;"/></g><!--link RegisterEntryToDoListController to Collaborator--><g id="link_RegisterEntryToDoListController_Collaborator"><path codeLine="179" d="M767.26,246.9137 C1099.79,259.2537 1549.61,290.6937 1549.61,370.5137 C1549.61,370.5137 1549.61,370.5137 1549.61,783.5137 C1549.61,828.0737 1547.782,871.0052 1545.122,913.8252 " fill="none" id="RegisterEntryToDoListController-to-Collaborator" style="stroke:#181818;stroke-width:1.0;stroke-dasharray:7.0,7.0;"/><polygon fill="#181818" points="1544.75,919.8137,1549.3003,911.079,1545.06,914.8233,1541.3157,910.583,1544.75,919.8137" style="stroke:#181818;stroke-width:1.0;"/></g><!--link RegisterEntryToDoListController to GreenSpace--><g id="link_RegisterEntryToDoListController_GreenSpace"><path codeLine="180" d="M102.73,299.0637 C49.79,317.8237 11.61,341.4337 11.61,370.5137 C11.61,370.5137 11.61,370.5137 11.61,1506.0137 C11.61,1570.1037 6,1603.6937 56.61,1643.0137 C152.71,1717.6637 981.4602,1730.3598 1278.3502,1732.5298 " fill="none" id="RegisterEntryToDoListController-to-GreenSpace" style="stroke:#181818;stroke-width:1.0;stroke-dasharray:7.0,7.0;"/><polygon fill="#181818" points="1284.35,1732.5737,1275.3795,1728.508,1279.3501,1732.5371,1275.321,1736.5078,1284.35,1732.5737" style="stroke:#181818;stroke-width:1.0;"/></g><!--link RegisterEntryToDoListController to ToDoList--><g id="link_RegisterEntryToDoListController_ToDoList"><path codeLine="181" d="M767.14,251.6737 C1224.55,270.6037 1968.61,310.6137 1968.61,370.5137 C1968.61,370.5137 1968.61,370.5137 1968.61,1038.0137 C1968.61,1098.6937 1946.35,1119.2537 1896.61,1154.0137 C1787.22,1230.4537 1732.27,1183.4237 1602.61,1215.0137 C1596.71,1216.4537 1596.5386,1216.4794 1590.4986,1217.9994 " fill="none" id="RegisterEntryToDoListController-to-ToDoList" style="stroke:#181818;stroke-width:1.0;stroke-dasharray:7.0,7.0;"/><polygon fill="#181818" points="1584.68,1219.4637,1594.3841,1221.1463,1589.5288,1218.2434,1592.4317,1213.3882,1584.68,1219.4637" style="stroke:#181818;stroke-width:1.0;"/></g><!--link RegisterEntryToDoListController to Task--><g id="link_RegisterEntryToDoListController_Task"><path codeLine="182" d="M174.15,299.0637 C122.2,318.8937 82.61,343.0237 82.61,370.5137 C82.61,370.5137 82.61,370.5137 82.61,1506.0137 C82.61,1665.7637 1355.13,1636.3437 1510.61,1673.0137 C1527.76,1677.0537 1539.8823,1680.4331 1557.2123,1686.1531 " fill="none" id="RegisterEntryToDoListController-to-Task" style="stroke:#181818;stroke-width:1.0;stroke-dasharray:7.0,7.0;"/><polygon fill="#181818" points="1562.91,1688.0337,1555.6172,1681.4143,1558.1619,1686.4665,1553.1098,1689.0112,1562.91,1688.0337" style="stroke:#181818;stroke-width:1.0;"/></g><!--link RegisterEntryToDoListController to TaskToDoList--><g id="link_RegisterEntryToDoListController_TaskToDoList"><path codeLine="183" d="M189.21,299.1137 C167.63,317.0337 153.61,340.3037 153.61,370.5137 C153.61,370.5137 153.61,370.5137 153.61,1277.0137 C153.61,1383.2537 863.7434,1458.7946 1205.3634,1489.0346 " fill="none" id="RegisterEntryToDoListController-to-TaskToDoList" style="stroke:#181818;stroke-width:1.0;stroke-dasharray:7.0,7.0;"/><polygon fill="#181818" points="1211.34,1489.5637,1202.7278,1484.7857,1206.3595,1489.1228,1202.0224,1492.7545,1211.34,1489.5637" style="stroke:#181818;stroke-width:1.0;"/></g><!--link RegisterEntryToDoListController to GreenSpaceManager--><g id="link_RegisterEntryToDoListController_GreenSpaceManager"><path codeLine="184" d="M767.56,250.3137 C1244.39,268.0837 2039.61,307.2137 2039.61,370.5137 C2039.61,370.5137 2039.61,370.5137 2039.61,1038.0137 C2039.61,1093.3137 2031.15,1112.5037 1994.61,1154.0137 C1969.36,1182.6937 1940.9042,1202.9917 1907.3242,1221.0517 " fill="none" id="RegisterEntryToDoListController-to-GreenSpaceManager" style="stroke:#181818;stroke-width:1.0;stroke-dasharray:7.0,7.0;"/><polygon fill="#181818" points="1902.04,1223.8937,1911.861,1223.1535,1906.4435,1221.5254,1908.0717,1216.1079,1902.04,1223.8937" style="stroke:#181818;stroke-width:1.0;"/></g><!--link ApplicationSession to UserSession--><g id="link_ApplicationSession_UserSession"><path codeLine="187" d="M1267.64,632.8237 C1265.99,667.7537 1263.9422,710.8903 1262.4322,742.9603 " fill="none" id="ApplicationSession-to-UserSession" style="stroke:#181818;stroke-width:1.0;"/><polygon fill="#181818" points="1262.15,748.9537,1266.5689,740.1518,1262.3852,743.9592,1258.5777,739.7755,1262.15,748.9537" style="stroke:#181818;stroke-width:1.0;"/><text fill="#000000" font-family="sans-serif" font-size="13" lengthAdjust="spacing" textLength="72" x="1264.61" y="715.042">userSession</text><text fill="#000000" font-family="sans-serif" font-size="13" lengthAdjust="spacing" textLength="7" x="1254.7641" y="737.7674">1</text></g><!--link Repositories to GreenSpaceRepository--><g id="link_Repositories_GreenSpaceRepository"><path codeLine="190" d="M567.61,670.1437 C567.61,697.7537 567.61,721.2137 567.61,742.8937 " fill="none" id="Repositories-to-GreenSpaceRepository" style="stroke:#181818;stroke-width:1.0;"/><polygon fill="#181818" points="567.61,748.8937,571.61,739.8937,567.61,743.8937,563.61,739.8937,567.61,748.8937" style="stroke:#181818;stroke-width:1.0;"/><text fill="#000000" font-family="sans-serif" font-size="13" lengthAdjust="spacing" textLength="134" x="568.61" y="715.042">GreenSpaceRepository</text><text fill="#000000" font-family="sans-serif" font-size="13" lengthAdjust="spacing" textLength="7" x="559.9209" y="737.6956">1</text></g><!--link Repositories to CollaboratorRepository--><g id="link_Repositories_CollaboratorRepository"><path codeLine="191" d="M669.94,661.7937 C684.6,673.7937 698.98,686.7137 711.61,700.0137 C763.39,754.5437 762.44,779.1637 806.61,840.0137 C849.11,898.5537 897.5405,959.9895 928.3905,998.5295 " fill="none" id="Repositories-to-CollaboratorRepository" style="stroke:#181818;stroke-width:1.0;"/><polygon fill="#181818" points="932.14,1003.2137,929.6385,993.6878,929.0154,999.3102,923.393,998.6871,932.14,1003.2137" style="stroke:#181818;stroke-width:1.0;"/><text fill="#000000" font-family="sans-serif" font-size="13" lengthAdjust="spacing" textLength="131" x="807.61" y="788.042">CollaboratorRepository</text><text fill="#000000" font-family="sans-serif" font-size="13" lengthAdjust="spacing" textLength="7" x="919.427" y="992.2424">1</text></g><!--link Repositories to ToDoList--><g id="link_Repositories_ToDoList"><path codeLine="192" d="M465.34,662.4337 C438.92,686.5937 413.91,715.9337 399.61,749.0137 C383.56,786.1337 381.68,803.7637 399.61,840.0137 C544.01,1132.0637 941.7792,1227.2866 1186.4592,1258.8266 " fill="none" id="Repositories-to-ToDoList" style="stroke:#181818;stroke-width:1.0;"/><polygon fill="#181818" points="1192.41,1259.5937,1183.9952,1254.4759,1187.451,1258.9544,1182.9725,1262.4102,1192.41,1259.5937" style="stroke:#181818;stroke-width:1.0;"/><text fill="#000000" font-family="sans-serif" font-size="13" lengthAdjust="spacing" textLength="51" x="412.61" y="863.042">ToDoList</text><text fill="#000000" font-family="sans-serif" font-size="13" lengthAdjust="spacing" textLength="7" x="1177.6092" y="1255.6448">1</text></g><!--link Repositories to TaskRepository--><g id="link_Repositories_TaskRepository"><path codeLine="193" d="M669.78,631.6437 C757.84,666.6737 877.7348,714.3563 959.2748,746.7863 " fill="none" id="Repositories-to-TaskRepository" style="stroke:#181818;stroke-width:1.0;"/><polygon fill="#181818" points="964.85,749.0037,957.9654,741.9608,960.204,747.1559,955.0089,749.3944,964.85,749.0037" style="stroke:#181818;stroke-width:1.0;"/><text fill="#000000" font-family="sans-serif" font-size="13" lengthAdjust="spacing" textLength="90" x="878.61" y="715.042">TaskRepository</text><text fill="#000000" font-family="sans-serif" font-size="13" lengthAdjust="spacing" textLength="7" x="941.5973" y="738.0877">1</text></g><!--link CollaboratorRepository to Collaborator--><g id="link_CollaboratorRepository_Collaborator"><path codeLine="196" d="M1089.18,1037.0137 C1120.76,1037.0137 1149.99,1037.0137 1186.43,1037.0137 " fill="none" id="CollaboratorRepository-to-Collaborator" style="stroke:#181818;stroke-width:1.0;"/><polygon fill="#181818" points="1192.43,1037.0137,1183.43,1033.0137,1187.43,1037.0137,1183.43,1041.0137,1192.43,1037.0137" style="stroke:#181818;stroke-width:1.0;"/><text fill="#000000" font-family="sans-serif" font-size="13" lengthAdjust="spacing" textLength="67" x="1107.36" y="1030.042">collaborator</text><text fill="#000000" font-family="sans-serif" font-size="13" lengthAdjust="spacing" textLength="7" x="1096.9309" y="1033.57">1</text><text fill="#000000" font-family="sans-serif" font-size="13" lengthAdjust="spacing" textLength="5" x="1179.3281" y="1033.8437">*</text></g><!--link GreenSpaceRepository to GreenSpace--><g id="link_GreenSpaceRepository_GreenSpace"><path codeLine="199" d="M454.18,816.0537 C440.62,824.4037 428.46,834.8837 419.61,848.0137 C372.89,917.3237 414.61,952.4237 414.61,1036.0137 C414.61,1036.0137 414.61,1036.0137 414.61,1506.0137 C414.61,1683.1137 1027.1135,1721.8999 1278.3835,1730.4399 " fill="none" id="GreenSpaceRepository-to-GreenSpace" style="stroke:#181818;stroke-width:1.0;"/><polygon fill="#181818" points="1284.38,1730.6437,1275.5211,1726.3403,1279.3829,1730.4738,1275.2493,1734.3357,1284.38,1730.6437" style="stroke:#181818;stroke-width:1.0;"/><text fill="#000000" font-family="sans-serif" font-size="13" lengthAdjust="spacing" textLength="69" x="415.61" y="1281.542">greenSpace</text><text fill="#000000" font-family="sans-serif" font-size="13" lengthAdjust="spacing" textLength="7" x="426.3518" y="837.63">1</text><text fill="#000000" font-family="sans-serif" font-size="13" lengthAdjust="spacing" textLength="5" x="1271.542" y="1726.7932">*</text></g><!--link TaskRepository to Task--><g id="link_TaskRepository_Task"><path codeLine="202" d="M1109.18,816.1437 C1130.07,825.5537 1153.84,834.7037 1176.61,840.0137 C1254.61,858.2137 1837.75,820.6937 1896.61,875.0137 C2048.18,1014.9037 1995.9,1138.2937 1940.61,1337.0137 C1901.69,1476.9137 1795.8482,1606.9535 1730.7682,1677.5035 " fill="none" id="TaskRepository-to-Task" style="stroke:#181818;stroke-width:1.0;"/><polygon fill="#181818" points="1726.7,1681.9137,1735.7424,1678.0106,1730.0902,1678.2385,1729.8622,1672.5863,1726.7,1681.9137" style="stroke:#181818;stroke-width:1.0;"/><text fill="#000000" font-family="sans-serif" font-size="13" lengthAdjust="spacing" textLength="25" x="1974.61" y="1281.542">task</text><text fill="#000000" font-family="sans-serif" font-size="13" lengthAdjust="spacing" textLength="7" x="1112.7018" y="837.7361">1</text><text fill="#000000" font-family="sans-serif" font-size="13" lengthAdjust="spacing" textLength="5" x="1728.0949" y="1670.8276">*</text></g><!--reverse link Collaborator to GreenSpaceManager--><g id="link_Collaborator_GreenSpaceManager"><path codeLine="205" d="M1663.8919,1166.8376 C1688.3019,1191.3476 1700.15,1203.2437 1720.65,1223.8337 " fill="none" id="Collaborator-backto-GreenSpaceManager" style="stroke:#181818;stroke-width:1.0;"/><polygon fill="none" points="1651.19,1154.0837,1659.6406,1171.0715,1668.1432,1162.6036,1651.19,1154.0837" style="stroke:#181818;stroke-width:1.0;"/></g><!--reverse link GreenSpaceManager to TaskToDoList--><g id="link_GreenSpaceManager_TaskToDoList"><path codeLine="208" d="M1634.0624,1330.5645 C1608.2824,1342.2145 1587.37,1352.8937 1563.61,1367.0137 C1539.56,1381.3037 1515.1,1398.4937 1492.39,1415.7837 " fill="none" id="GreenSpaceManager-backto-TaskToDoList" style="stroke:#181818;stroke-width:1.0;"/><polygon fill="#181818" points="1639.53,1328.0937,1629.6813,1328.1548,1634.9736,1330.1527,1632.9758,1335.445,1639.53,1328.0937" style="stroke:#181818;stroke-width:1.0;"/><text fill="#000000" font-family="sans-serif" font-size="13" lengthAdjust="spacing" textLength="61" x="1564.61" y="1382.042">created by</text><text fill="#000000" font-family="sans-serif" font-size="13" lengthAdjust="spacing" textLength="20" x="1601.326" y="1349.9112">1..*</text><text fill="#000000" font-family="sans-serif" font-size="13" lengthAdjust="spacing" textLength="20" x="1480.1562" y="1404.7164">1..*</text></g><!--reverse link GreenSpaceManager to GreenSpace--><g id="link_GreenSpaceManager_GreenSpace"><path codeLine="209" d="M1746.927,1333.6866 C1716.407,1400.1766 1659.07,1511.9337 1583.61,1594.0137 C1556.39,1623.6237 1521.89,1650.7037 1489.5,1672.9437 " fill="none" id="GreenSpaceManager-backto-GreenSpace" style="stroke:#181818;stroke-width:1.0;"/><polygon fill="#181818" points="1749.43,1328.2337,1742.0402,1334.7445,1747.3442,1332.7778,1749.3108,1338.0818,1749.43,1328.2337" style="stroke:#181818;stroke-width:1.0;"/><text fill="#000000" font-family="sans-serif" font-size="13" lengthAdjust="spacing" textLength="71" x="1705.61" y="1510.542">managed by</text><text fill="#000000" font-family="sans-serif" font-size="13" lengthAdjust="spacing" textLength="20" x="1725.3069" y="1350.0691">1..*</text><text fill="#000000" font-family="sans-serif" font-size="13" lengthAdjust="spacing" textLength="20" x="1480.0092" y="1661.9168">1..*</text></g><!--reverse link GreenSpace to Garden--><g id="link_GreenSpace_Garden"><path codeLine="212" d="M1371.1544,1812.8582 C1366.9644,1831.5582 1366.17,1835.1037 1361.55,1855.6637 " fill="none" id="GreenSpace-backto-Garden" style="stroke:#181818;stroke-width:1.0;"/><polygon fill="none" points="1375.09,1795.2937,1365.2996,1811.5463,1377.0093,1814.17,1375.09,1795.2937" style="stroke:#181818;stroke-width:1.0;"/></g><!--reverse link GreenSpace to MediumPark--><g id="link_GreenSpace_MediumPark"><path codeLine="213" d="M1484.1766,1806.0313 C1509.4166,1824.7913 1523.47,1835.2437 1551.23,1855.8737 " fill="none" id="GreenSpace-backto-MediumPark" style="stroke:#181818;stroke-width:1.0;"/><polygon fill="none" points="1469.73,1795.2937,1480.5974,1810.8468,1487.7558,1801.2158,1469.73,1795.2937" style="stroke:#181818;stroke-width:1.0;"/></g><!--reverse link GreenSpace to LargePark--><g id="link_GreenSpace_LargePark"><path codeLine="214" d="M1509.8251,1783.8909 C1527.2551,1790.2009 1528.35,1790.0937 1545.61,1795.0137 C1683.16,1834.2537 1727.34,1806.7037 1861.61,1856.0137 C1867.27,1858.0937 1872.97,1860.3437 1878.67,1862.7337 " fill="none" id="GreenSpace-backto-LargePark" style="stroke:#181818;stroke-width:1.0;"/><polygon fill="none" points="1492.9,1777.7637,1507.7827,1789.5326,1511.8675,1778.2492,1492.9,1777.7637" style="stroke:#181818;stroke-width:1.0;"/></g><!--link ToDoList to TaskToDoList--><g id="link_ToDoList_TaskToDoList"><path codeLine="217" d="M1388.61,1337.2537 C1388.61,1361.2837 1388.61,1383.4437 1388.61,1409.7037 " fill="none" id="ToDoList-to-TaskToDoList" style="stroke:#181818;stroke-width:1.0;"/><polygon fill="#181818" points="1388.61,1415.7037,1392.61,1406.7037,1388.61,1410.7037,1384.61,1406.7037,1388.61,1415.7037" style="stroke:#181818;stroke-width:1.0;"/><text fill="#000000" font-family="sans-serif" font-size="13" lengthAdjust="spacing" textLength="42" x="1389.61" y="1382.042">taskTdl</text><text fill="#000000" font-family="sans-serif" font-size="13" lengthAdjust="spacing" textLength="7" x="1381.2053" y="1359.3345">1</text><text fill="#000000" font-family="sans-serif" font-size="13" lengthAdjust="spacing" textLength="5" x="1383.403" y="1404.6298">*</text></g><!--link TaskToDoList to GreenSpace--><g id="link_TaskToDoList_GreenSpace"><path codeLine="220" d="M1388.61,1594.1037 C1388.61,1620.3937 1388.61,1642.6137 1388.61,1666.6937 " fill="none" id="TaskToDoList-to-GreenSpace" style="stroke:#181818;stroke-width:1.0;"/><polygon fill="#181818" points="1388.61,1672.6937,1392.61,1663.6937,1388.61,1667.6937,1384.61,1663.6937,1388.61,1672.6937" style="stroke:#181818;stroke-width:1.0;"/><text fill="#000000" font-family="sans-serif" font-size="13" lengthAdjust="spacing" textLength="69" x="1389.61" y="1639.042">greenSpace</text><text fill="#000000" font-family="sans-serif" font-size="13" lengthAdjust="spacing" textLength="20" x="1367.7506" y="1616.5162">1..*</text><text fill="#000000" font-family="sans-serif" font-size="13" lengthAdjust="spacing" textLength="7" x="1381.2053" y="1661.6379">1</text></g><!--link TaskToDoList to Task--><g id="link_TaskToDoList_Task"><path codeLine="221" d="M1500.37,1594.1037 C1538,1623.7637 1574.0184,1652.1487 1606.8284,1678.0187 " fill="none" id="TaskToDoList-to-Task" style="stroke:#181818;stroke-width:1.0;"/><polygon fill="#181818" points="1611.54,1681.7337,1606.9493,1673.0202,1607.6137,1678.6379,1601.996,1679.3023,1611.54,1681.7337" style="stroke:#181818;stroke-width:1.0;"/><text fill="#000000" font-family="sans-serif" font-size="13" lengthAdjust="spacing" textLength="25" x="1558.61" y="1639.042">task</text><text fill="#000000" font-family="sans-serif" font-size="13" lengthAdjust="spacing" textLength="20" x="1489.115" y="1616.5162">1..*</text><text fill="#000000" font-family="sans-serif" font-size="13" lengthAdjust="spacing" textLength="7" x="1595.3259" y="1670.6234">1</text></g><!--SRC=[rLZRRkCs47tNLn1-sQGh6yYhQnZ8PNVXOhDTh9CFe2N6PYEH1aMrTTFzzmubMYB5qSL05sYD8B0qbpDpPaWE_QvuvU985Sr9BeLC3ahcZ6XLigYL76doIlTigqyP8uebcefzvYeK1vhAFxZOanUQ5QuauuBfqv4HgRIC746IqQAurLhnNQdP9f5Yo_zYP7OpYoABHsRFcnbPhJxAB6LglIPl4O5FPKc-iJqlD5CVX5Qd9_aWFyFZyyRgV8- -HuwVUmbQCikOwlWRSzWQMiVcytvCzsgl61DRW6VVs54MN4jrYaa2GhgJYiAZ-rxJujLxjWwl7SGzqvyQfrUkH66nE15yeJcB3SG3AnB5ZvfB4PTgpqHoYjCIee4NhSDv1RLz_0YDi6L50K8B1up2txkClMW8aIY-FsYISjCFeDII_I1poWL6T4TbSNiyPZof0i3KszeuYZQcHg4jIqr7eK4jCKbi17mN7biDb_UbKaneFq6Rf0_zN30rXWaEZTe7I2hpV3aUkxa_ofHbVLbp0GLzWUAHjkWOggajbjwjOXHzdwOASWb41rfKhlok6M3b4rKf4tv4SxA5rGnxW03RZWGI8XI2whosyKITS6hlLyPFRApYGaDWLROnB1DOQIcx_W-nySXINkPVgNhzKOpyYzcrmLv6yCMiVAQmoVnFI6bY_S6St3j7G6T1LwdsKLC9Vv4xyflSXO87gXb9uT-lBtTSwKEF1arpNcravYdKiTo0Mirsw4GcPGwx9adjbzxuZmSfs9Sotp7LgyFCRXbAJGje-kUHdi0s4B_t6AoBPJY9tVHZFzFud57S11wx4SPrA743Er2_9pX7IKy_TyxORhSQqwkE3j9FZhHV6uthVFO7yJbdIDke7PqgCOE7vsRd1MIvdYS8tCwSncM1KO5CAlKa59_1OX9E9xNptsd6JRqzFzS_3nnN3SOZ5N0Agu0ZusBLggr9NYaMrQkl6Rmo6i51rVMBxJdet1PMqERn5f3L9DWHZ0r-rT0tCEdLYSFQC7OUbTfvwEK-3Clcr3Fmj1FkyApNw75Ma0uRSq-AaTqEVMJfAG_LfGqDdHNHiHtJVF86URSZMvLUsl13edL7tgBXsEvEzG3QTi3rb1KnWj0gtfqkE-jyDb3djrdsvEzn1J8_crl7FFoSIus88g-9vck_gPQmSTMcKNYnCDh8MyS63UPvWuU1Nr8NY_NO7HA7QUMJuPmhxAB6zQXGxXgPv02vZ4soSszIamom7frcYQ-WQRP-srwETsbk4wEoxwVdC5tpCj_1cOTtQjWbMCTYwmyMuEncvhOBj6dfD0-AvxRr-8vWCT1TSDdNU9u3ww5dhrxsjo0IHZEvBTqwOuh-bhhiDclFde55Wd7Kaun1DjlYx2S_Ny1tVzB2qJ4kCMoq50RP0Zj3xD8TOr5GdnOChiEa0rHDmijw5XxbSun5ilfxFf-wP0ArOPxEe-piPh60k5S0PBzwjm4e4jncDKl9xZJ9scEw7eChsv6OXuErH5G_x0Ilsvya0b5pCUyfjCqIBV6PWQguJdKTQgf9DytwksWGmFLboGjt5hzTXspSpli7]--></g></svg>