<?xml version="1.0" encoding="us-ascii" standalone="no"?><svg xmlns="http://www.w3.org/2000/svg" xmlns:xlink="http://www.w3.org/1999/xlink" contentStyleType="text/css" height="525px" preserveAspectRatio="none" style="width:604px;height:525px;background:#FFFFFF;" version="1.1" viewBox="0 0 604 525" width="604px" zoomAndPan="magnify"><defs/><g><rect fill="#FFFFFF" height="360.8613" style="stroke:#181818;stroke-width:1.0;" width="10" x="156" y="90.5332"/><rect fill="#FFFFFF" height="36.291" style="stroke:#181818;stroke-width:1.0;" width="10" x="161" y="276.2793"/><rect fill="#FFFFFF" height="31.291" style="stroke:#181818;stroke-width:1.0;" width="10" x="324" y="205.6973"/><rect fill="#FFFFFF" height="31.291" style="stroke:#181818;stroke-width:1.0;" width="10" x="443" y="374.8125"/><rect fill="none" height="315.5703" style="stroke:#000000;stroke-width:1.5;" width="506" x="92.5" y="105.5332"/><rect fill="none" height="250.9883" style="stroke:#000000;stroke-width:1.5;" width="486" x="102.5" y="163.1152"/><line style="stroke:#181818;stroke-width:0.5;stroke-dasharray:5.0,5.0;" x1="160.5" x2="160.5" y1="57.2422" y2="469.3945"/><line style="stroke:#181818;stroke-width:0.5;stroke-dasharray:5.0,5.0;" x1="328.5" x2="328.5" y1="57.2422" y2="469.3945"/><line style="stroke:#181818;stroke-width:0.5;stroke-dasharray:5.0,5.0;" x1="447.5" x2="447.5" y1="57.2422" y2="469.3945"/><line style="stroke:#181818;stroke-width:0.5;stroke-dasharray:5.0,5.0;" x1="550.5" x2="550.5" y1="330.4004" y2="469.3945"/><rect fill="#E3E3E3" height="32.6211" rx="2.5" ry="2.5" style="stroke:#181818;stroke-width:0.5;" width="97" x="112.5" y="23.6211"/><text fill="#000000" font-family="sans-serif" font-size="14" lengthAdjust="spacing" textLength="83" x="119.5" y="45.7285">:TaskMapper</text><rect fill="#E3E3E3" height="32.6211" rx="2.5" ry="2.5" style="stroke:#181818;stroke-width:0.5;" width="97" x="112.5" y="468.3945"/><text fill="#000000" font-family="sans-serif" font-size="14" lengthAdjust="spacing" textLength="83" x="119.5" y="490.502">:TaskMapper</text><rect fill="#E3E3E3" height="51.2422" rx="2.5" ry="2.5" style="stroke:#181818;stroke-width:0.5;" width="87" x="285.5" y="5"/><text fill="#000000" font-family="sans-serif" font-size="14" lengthAdjust="spacing" textLength="48" x="305" y="27.1074">taskList</text><text fill="#000000" font-family="sans-serif" font-size="14" lengthAdjust="spacing" textLength="73" x="292.5" y="45.7285">:List&lt;Task&gt;</text><rect fill="#E3E3E3" height="51.2422" rx="2.5" ry="2.5" style="stroke:#181818;stroke-width:0.5;" width="87" x="285.5" y="468.3945"/><text fill="#000000" font-family="sans-serif" font-size="14" lengthAdjust="spacing" textLength="48" x="305" y="490.502">taskList</text><text fill="#000000" font-family="sans-serif" font-size="14" lengthAdjust="spacing" textLength="73" x="292.5" y="509.123">:List&lt;Task&gt;</text><rect fill="#E3E3E3" height="51.2422" rx="2.5" ry="2.5" style="stroke:#181818;stroke-width:0.5;" width="131" x="382.5" y="5"/><text fill="#000000" font-family="sans-serif" font-size="14" lengthAdjust="spacing" textLength="70" x="413" y="27.1074">taskListDto</text><text fill="#000000" font-family="sans-serif" font-size="14" lengthAdjust="spacing" textLength="117" x="389.5" y="45.7285">:List&lt;TaskListDto&gt;</text><rect fill="#E3E3E3" height="51.2422" rx="2.5" ry="2.5" style="stroke:#181818;stroke-width:0.5;" width="131" x="382.5" y="468.3945"/><text fill="#000000" font-family="sans-serif" font-size="14" lengthAdjust="spacing" textLength="70" x="413" y="490.502">taskListDto</text><text fill="#000000" font-family="sans-serif" font-size="14" lengthAdjust="spacing" textLength="117" x="389.5" y="509.123">:List&lt;TaskListDto&gt;</text><rect fill="#E3E3E3" height="51.2422" rx="2.5" ry="2.5" style="stroke:#181818;stroke-width:0.5;" width="55" x="523.5" y="468.3945"/><text fill="#000000" font-family="sans-serif" font-size="14" lengthAdjust="spacing" textLength="41" x="530.5" y="490.502">objDto</text><text fill="#000000" font-family="sans-serif" font-size="14" lengthAdjust="spacing" textLength="35" x="533.5" y="509.123">:TDto</text><rect fill="#FFFFFF" height="360.8613" style="stroke:#181818;stroke-width:1.0;" width="10" x="156" y="90.5332"/><rect fill="#FFFFFF" height="36.291" style="stroke:#181818;stroke-width:1.0;" width="10" x="161" y="276.2793"/><rect fill="#FFFFFF" height="31.291" style="stroke:#181818;stroke-width:1.0;" width="10" x="324" y="205.6973"/><rect fill="#FFFFFF" height="31.291" style="stroke:#181818;stroke-width:1.0;" width="10" x="443" y="374.8125"/><polygon fill="#181818" points="144,86.5332,154,90.5332,144,94.5332,148,90.5332" style="stroke:#181818;stroke-width:1.0;"/><line style="stroke:#181818;stroke-width:1.0;stroke-dasharray:2.0,2.0;" x1="0" x2="150" y1="90.5332" y2="90.5332"/><text fill="#000000" font-family="sans-serif" font-size="13" font-weight="bold" lengthAdjust="spacing" textLength="14" x="7" y="85.2705">21</text><text fill="#000000" font-family="sans-serif" font-size="13" lengthAdjust="spacing" textLength="119" x="25" y="85.2705">toDTOTask(taskList)</text><path d="M92.5,105.5332 L243.5,105.5332 L243.5,114.8242 L233.5,124.8242 L92.5,124.8242 L92.5,105.5332 " fill="#EEEEEE" style="stroke:#000000;stroke-width:1.5;"/><rect fill="none" height="315.5703" style="stroke:#000000;stroke-width:1.5;" width="506" x="92.5" y="105.5332"/><text fill="#000000" font-family="sans-serif" font-size="13" font-weight="bold" lengthAdjust="spacing" textLength="106" x="107.5" y="120.5615">Task List To DTO</text><polygon fill="#181818" points="436,144.1152,446,148.1152,436,152.1152,440,148.1152" style="stroke:#181818;stroke-width:1.0;"/><line style="stroke:#181818;stroke-width:1.0;stroke-dasharray:2.0,2.0;" x1="166" x2="442" y1="148.1152" y2="148.1152"/><text fill="#000000" font-family="sans-serif" font-size="13" font-weight="bold" lengthAdjust="spacing" textLength="25" x="173" y="142.8525">21.1</text><text fill="#000000" font-family="sans-serif" font-size="13" lengthAdjust="spacing" textLength="44" x="202" y="142.8525">create()</text><path d="M102.5,163.1152 L175.5,163.1152 L175.5,172.4063 L165.5,182.4063 L102.5,182.4063 L102.5,163.1152 " fill="#EEEEEE" style="stroke:#000000;stroke-width:1.5;"/><rect fill="none" height="250.9883" style="stroke:#000000;stroke-width:1.5;" width="486" x="102.5" y="163.1152"/><text fill="#000000" font-family="sans-serif" font-size="13" font-weight="bold" lengthAdjust="spacing" textLength="28" x="117.5" y="178.1436">loop</text><text fill="#000000" font-family="sans-serif" font-size="11" font-weight="bold" lengthAdjust="spacing" textLength="151" x="190.5" y="176.9854">[for each object in taskList]</text><polygon fill="#181818" points="312,201.6973,322,205.6973,312,209.6973,316,205.6973" style="stroke:#181818;stroke-width:1.0;"/><line style="stroke:#181818;stroke-width:1.0;" x1="166" x2="318" y1="205.6973" y2="205.6973"/><text fill="#000000" font-family="sans-serif" font-size="13" font-weight="bold" lengthAdjust="spacing" textLength="25" x="173" y="200.4346">21.2</text><text fill="#000000" font-family="sans-serif" font-size="13" lengthAdjust="spacing" textLength="29" x="202" y="200.4346">get(i)</text><polygon fill="#181818" points="177,232.9883,167,236.9883,177,240.9883,173,236.9883" style="stroke:#181818;stroke-width:1.0;"/><line style="stroke:#181818;stroke-width:1.0;stroke-dasharray:2.0,2.0;" x1="171" x2="328" y1="236.9883" y2="236.9883"/><text fill="#000000" font-family="sans-serif" font-size="13" font-weight="bold" lengthAdjust="spacing" textLength="25" x="183" y="231.7256">21.3</text><text fill="#000000" font-family="sans-serif" font-size="13" lengthAdjust="spacing" textLength="17" x="212" y="231.7256">obj</text><line style="stroke:#181818;stroke-width:1.0;" x1="166" x2="213" y1="263.2793" y2="263.2793"/><line style="stroke:#181818;stroke-width:1.0;" x1="213" x2="213" y1="263.2793" y2="276.2793"/><line style="stroke:#181818;stroke-width:1.0;" x1="172" x2="213" y1="276.2793" y2="276.2793"/><polygon fill="#181818" points="182,272.2793,172,276.2793,182,280.2793,178,276.2793" style="stroke:#181818;stroke-width:1.0;"/><text fill="#000000" font-family="sans-serif" font-size="13" font-weight="bold" lengthAdjust="spacing" textLength="25" x="178" y="258.0166">21.4</text><text fill="#000000" font-family="sans-serif" font-size="13" lengthAdjust="spacing" textLength="115" x="207" y="258.0166">objDto = toDTO(obj)</text><polygon fill="#181818" points="511.5,308.5703,521.5,312.5703,511.5,316.5703,515.5,312.5703" style="stroke:#181818;stroke-width:1.0;"/><line style="stroke:#181818;stroke-width:1.0;stroke-dasharray:2.0,2.0;" x1="166" x2="517.5" y1="312.5703" y2="312.5703"/><text fill="#000000" font-family="sans-serif" font-size="13" font-weight="bold" lengthAdjust="spacing" textLength="25" x="173" y="307.3076">21.5</text><text fill="#000000" font-family="sans-serif" font-size="13" lengthAdjust="spacing" textLength="61" x="202" y="307.3076">create(obj)</text><rect fill="#E3E3E3" height="51.2422" rx="2.5" ry="2.5" style="stroke:#181818;stroke-width:0.5;" width="55" x="523.5" y="289.2793"/><text fill="#000000" font-family="sans-serif" font-size="14" lengthAdjust="spacing" textLength="41" x="530.5" y="311.3867">objDto</text><text fill="#000000" font-family="sans-serif" font-size="14" lengthAdjust="spacing" textLength="35" x="533.5" y="330.0078">:TDto</text><polygon fill="#181818" points="431,370.8125,441,374.8125,431,378.8125,435,374.8125" style="stroke:#181818;stroke-width:1.0;"/><line style="stroke:#181818;stroke-width:1.0;" x1="166" x2="437" y1="374.8125" y2="374.8125"/><text fill="#000000" font-family="sans-serif" font-size="13" font-weight="bold" lengthAdjust="spacing" textLength="25" x="173" y="369.5498">21.6</text><text fill="#000000" font-family="sans-serif" font-size="13" lengthAdjust="spacing" textLength="66" x="202" y="369.5498">add(objDto)</text><polygon fill="#181818" points="177,402.1035,167,406.1035,177,410.1035,173,406.1035" style="stroke:#181818;stroke-width:1.0;"/><line style="stroke:#181818;stroke-width:1.0;stroke-dasharray:2.0,2.0;" x1="171" x2="447" y1="406.1035" y2="406.1035"/><text fill="#000000" font-family="sans-serif" font-size="13" font-weight="bold" lengthAdjust="spacing" textLength="25" x="183" y="400.8408">21.7</text><text fill="#000000" font-family="sans-serif" font-size="13" lengthAdjust="spacing" textLength="53" x="212" y="400.8408">true/false</text><polygon fill="#181818" points="11,447.3945,1,451.3945,11,455.3945,7,451.3945" style="stroke:#181818;stroke-width:1.0;"/><line style="stroke:#181818;stroke-width:1.0;stroke-dasharray:2.0,2.0;" x1="5" x2="160" y1="451.3945" y2="451.3945"/><text fill="#000000" font-family="sans-serif" font-size="13" font-weight="bold" lengthAdjust="spacing" textLength="14" x="17" y="446.1318">22</text><text fill="#000000" font-family="sans-serif" font-size="13" lengthAdjust="spacing" textLength="66" x="35" y="446.1318">taskListDto</text><!--SRC=[TLAnRi8m4Dtz5QSk3KW1bH5H9fPAe5OYOvV3EHANn7OTfrN_lcU7a01jXZZnlNVlthCVI-zjivpFRONQjtKrawQUD_JPafQKvWeBXxLeJafRv2-eZJQoTAOcyAwbKSMYF651U_zJ4JYI7dLHZG5DYRdvLhg08rOD2S7RNabbMHaUbXasfnrQI-u1i85iztODy5pVgiQ_wsLOLW6_xg3RbttsDtZZpHX_tkffc-prccOE7nqZuoM26989WQqtkgqFv63n94IQhiDyi0Hl0e0x9xtYv0OzOpnAhxxGKpGb2cTQ2u44WG2P2If2mFa9dQD2c8yrf2Fc9fCEKHbZuMWS4CeIU61E6fI6Nl-cpxfBXziKv1CrYTLXdfZSm8ZGmHrtZxMS_cMSDNeunmRFNIe9_zxA1VktDaE0q-dWyq8RgzuHXtWmpvDE-SxSTQmHFpewlhxpxYRUURmGIUT2nDVuK1T2hDAqxpFSAo6kP_u5]--></g></svg>