<?xml version="1.0" encoding="us-ascii" standalone="no"?><svg xmlns="http://www.w3.org/2000/svg" xmlns:xlink="http://www.w3.org/1999/xlink" contentStyleType="text/css" height="893px" preserveAspectRatio="none" style="width:919px;height:893px;background:#FFFFFF;" version="1.1" viewBox="0 0 919 893" width="919px" zoomAndPan="magnify"><defs/><g><text fill="#000000" font-family="sans-serif" font-size="14" font-weight="bold" lengthAdjust="spacing" textLength="399" x="253.4692" y="25.1074">Domain Model - US23 Assign Team to entry in the Agenda</text><!--class Collaborator--><g id="elem_Collaborator"><rect codeLine="11" fill="#F1F1F1" height="148.3477" id="Collaborator" rx="2.5" ry="2.5" style="stroke:#181818;stroke-width:0.5;" width="115" x="371.9384" y="46.6211"/><text fill="#000000" font-family="sans-serif" font-size="14" lengthAdjust="spacing" textLength="78" x="390.4384" y="66.7285">Collaborator</text><line style="stroke:#181818;stroke-width:0.5;" x1="372.9384" x2="485.9384" y1="75.2422" y2="75.2422"/><text fill="#000000" font-family="sans-serif" font-size="14" lengthAdjust="spacing" textLength="35" x="377.9384" y="94.3496">name</text><text fill="#000000" font-family="sans-serif" font-size="14" lengthAdjust="spacing" textLength="72" x="377.9384" y="112.9707">dateOfBirth</text><text fill="#000000" font-family="sans-serif" font-size="14" lengthAdjust="spacing" textLength="93" x="377.9384" y="131.5918">admissionDate</text><text fill="#000000" font-family="sans-serif" font-size="14" lengthAdjust="spacing" textLength="89" x="377.9384" y="150.2129">phoneNumber</text><text fill="#000000" font-family="sans-serif" font-size="14" lengthAdjust="spacing" textLength="103" x="377.9384" y="168.834">taxpayerNumber</text><text fill="#000000" font-family="sans-serif" font-size="14" lengthAdjust="spacing" textLength="33" x="377.9384" y="187.4551">email</text></g><!--class Document--><g id="elem_Document"><rect codeLine="20" fill="#F1F1F1" height="55.2422" id="Document" rx="2.5" ry="2.5" style="stroke:#181818;stroke-width:0.5;" width="70" x="557.4384" y="93.1211"/><text fill="#000000" font-family="sans-serif" font-size="14" lengthAdjust="spacing" textLength="64" x="560.4384" y="113.2285">Document</text><line style="stroke:#181818;stroke-width:0.5;" x1="558.4384" x2="626.4384" y1="121.7422" y2="121.7422"/><text fill="#000000" font-family="sans-serif" font-size="14" lengthAdjust="spacing" textLength="48" x="563.4384" y="140.8496">number</text></g><!--class DocumentType--><g id="elem_DocumentType"><rect codeLine="24" fill="#F1F1F1" height="55.2422" id="DocumentType" rx="2.5" ry="2.5" style="stroke:#181818;stroke-width:0.5;" width="102" x="698.4384" y="93.1211"/><text fill="#000000" font-family="sans-serif" font-size="14" lengthAdjust="spacing" textLength="96" x="701.4384" y="113.2285">DocumentType</text><line style="stroke:#181818;stroke-width:0.5;" x1="699.4384" x2="799.4384" y1="121.7422" y2="121.7422"/><text fill="#000000" font-family="sans-serif" font-size="14" lengthAdjust="spacing" textLength="27" x="704.4384" y="140.8496">type</text></g><!--class PostCode--><g id="elem_PostCode"><rect codeLine="28" fill="#F1F1F1" height="73.8633" id="PostCode" rx="2.5" ry="2.5" style="stroke:#181818;stroke-width:0.5;" width="122" x="482.4384" y="444.6211"/><text fill="#000000" font-family="sans-serif" font-size="14" lengthAdjust="spacing" textLength="62" x="512.4384" y="464.7285">PostCode</text><line style="stroke:#181818;stroke-width:0.5;" x1="483.4384" x2="603.4384" y1="473.2422" y2="473.2422"/><text fill="#000000" font-family="sans-serif" font-size="14" lengthAdjust="spacing" textLength="110" x="488.4384" y="492.3496">postCodeNumber</text><text fill="#000000" font-family="sans-serif" font-size="14" lengthAdjust="spacing" textLength="69" x="488.4384" y="510.9707">localization</text></g><!--class GreenSpaceManager--><g id="elem_GreenSpaceManager"><rect codeLine="34" fill="#F1F1F1" height="36.6211" id="GreenSpaceManager" rx="2.5" ry="2.5" style="stroke:#181818;stroke-width:0.5;" width="142" x="146.4384" y="377.6211"/><text fill="#000000" font-family="sans-serif" font-size="14" lengthAdjust="spacing" textLength="136" x="149.4384" y="397.7285">GreenSpaceManager</text><line style="stroke:#181818;stroke-width:0.5;" x1="147.4384" x2="287.4384" y1="406.2422" y2="406.2422"/></g><!--class Team--><g id="elem_Team"><rect codeLine="37" fill="#F1F1F1" height="36.6211" id="Team" rx="2.5" ry="2.5" style="stroke:#181818;stroke-width:0.5;" width="42" x="510.4384" y="579.6211"/><text fill="#000000" font-family="sans-serif" font-size="14" lengthAdjust="spacing" textLength="36" x="513.4384" y="599.7285">Team</text><line style="stroke:#181818;stroke-width:0.5;" x1="511.4384" x2="551.4384" y1="608.2422" y2="608.2422"/></g><!--class EmailService--><g id="elem_EmailService"><rect codeLine="40" fill="#F1F1F1" height="36.6211" id="EmailService" rx="2.5" ry="2.5" style="stroke:#181818;stroke-width:0.5;" width="87" x="207.9384" y="579.6211"/><text fill="#000000" font-family="sans-serif" font-size="14" lengthAdjust="spacing" textLength="81" x="210.9384" y="599.7285">EmailService</text><line style="stroke:#181818;stroke-width:0.5;" x1="208.9384" x2="293.9384" y1="608.2422" y2="608.2422"/></g><!--class ToDoList--><g id="elem_ToDoList"><rect codeLine="43" fill="#F1F1F1" height="36.6211" id="ToDoList" rx="2.5" ry="2.5" style="stroke:#181818;stroke-width:0.5;" width="63" x="849.9384" y="686.6211"/><text fill="#000000" font-family="sans-serif" font-size="14" lengthAdjust="spacing" textLength="57" x="852.9384" y="706.7285">ToDoList</text><line style="stroke:#181818;stroke-width:0.5;" x1="850.9384" x2="911.9384" y1="715.2422" y2="715.2422"/></g><!--class TaskToDoList--><g id="elem_TaskToDoList"><rect codeLine="46" fill="#F1F1F1" height="92.4844" id="TaskToDoList" rx="2.5" ry="2.5" style="stroke:#181818;stroke-width:0.5;" width="94" x="595.4384" y="793.6211"/><text fill="#000000" font-family="sans-serif" font-size="14" lengthAdjust="spacing" textLength="88" x="598.4384" y="813.7285">TaskToDoList</text><line style="stroke:#181818;stroke-width:0.5;" x1="596.4384" x2="688.4384" y1="822.2422" y2="822.2422"/><text fill="#000000" font-family="sans-serif" font-size="14" lengthAdjust="spacing" textLength="38" x="601.4384" y="841.3496">status</text><text fill="#000000" font-family="sans-serif" font-size="14" lengthAdjust="spacing" textLength="51" x="601.4384" y="859.9707">urgency</text><text fill="#000000" font-family="sans-serif" font-size="14" lengthAdjust="spacing" textLength="52" x="601.4384" y="878.5918">duration</text></g><!--class TaskAgenda--><g id="elem_TaskAgenda"><rect codeLine="52" fill="#F1F1F1" height="73.8633" id="TaskAgenda" rx="2.5" ry="2.5" style="stroke:#181818;stroke-width:0.5;" width="86" x="365.4384" y="802.6211"/><text fill="#000000" font-family="sans-serif" font-size="14" lengthAdjust="spacing" textLength="80" x="368.4384" y="822.7285">TaskAgenda</text><line style="stroke:#181818;stroke-width:0.5;" x1="366.4384" x2="450.4384" y1="831.2422" y2="831.2422"/><text fill="#000000" font-family="sans-serif" font-size="14" lengthAdjust="spacing" textLength="58" x="371.4384" y="850.3496">startDate</text><text fill="#000000" font-family="sans-serif" font-size="14" lengthAdjust="spacing" textLength="54" x="371.4384" y="868.9707">endDate</text></g><!--class Address--><g id="elem_Address"><rect codeLine="57" fill="#F1F1F1" height="73.8633" id="Address" rx="2.5" ry="2.5" style="stroke:#181818;stroke-width:0.5;" width="90" x="490.4384" y="273.6211"/><text fill="#000000" font-family="sans-serif" font-size="14" lengthAdjust="spacing" textLength="52" x="509.4384" y="293.7285">Address</text><line style="stroke:#181818;stroke-width:0.5;" x1="491.4384" x2="579.4384" y1="302.2422" y2="302.2422"/><text fill="#000000" font-family="sans-serif" font-size="14" lengthAdjust="spacing" textLength="72" x="496.4384" y="321.3496">streetName</text><text fill="#000000" font-family="sans-serif" font-size="14" lengthAdjust="spacing" textLength="78" x="496.4384" y="339.9707">doorNumber</text></g><!--class Task--><g id="elem_Task"><rect codeLine="62" fill="#F1F1F1" height="55.2422" id="Task" rx="2.5" ry="2.5" style="stroke:#181818;stroke-width:0.5;" width="81" x="631.9384" y="677.6211"/><text fill="#000000" font-family="sans-serif" font-size="14" lengthAdjust="spacing" textLength="31" x="656.9384" y="697.7285">Task</text><line style="stroke:#181818;stroke-width:0.5;" x1="632.9384" x2="711.9384" y1="706.2422" y2="706.2422"/><text fill="#000000" font-family="sans-serif" font-size="14" lengthAdjust="spacing" textLength="69" x="637.9384" y="725.3496">description</text></g><!--class Agenda--><g id="elem_Agenda"><rect codeLine="67" fill="#F1F1F1" height="36.6211" id="Agenda" rx="2.5" ry="2.5" style="stroke:#181818;stroke-width:0.5;" width="55" x="438.9384" y="686.6211"/><text fill="#000000" font-family="sans-serif" font-size="14" lengthAdjust="spacing" textLength="49" x="441.9384" y="706.7285">Agenda</text><line style="stroke:#181818;stroke-width:0.5;" x1="439.9384" x2="492.9384" y1="715.2422" y2="715.2422"/></g><ellipse cx="812.4384" cy="705.1211" fill="#181818" rx="2" ry="2" style="stroke:#181818;stroke-width:1.0;"/><ellipse cx="594.4384" cy="705.1211" fill="#181818" rx="2" ry="2" style="stroke:#181818;stroke-width:1.0;"/><!--link Document to DocumentType--><g id="link_Document_DocumentType"><path codeLine="69" d="M627.6684,120.6211 C648.4684,120.6211 675.1484,120.6211 698.2384,120.6211 " fill="none" id="Document-DocumentType" style="stroke:#181818;stroke-width:1.0;"/><polygon fill="#000000" points="654.9384,108.2666,645.8933,105.3277,645.8933,111.2055,654.9384,108.2666" style="stroke:#000000;stroke-width:1.0;"/><text fill="#000000" font-family="sans-serif" font-size="13" lengthAdjust="spacing" textLength="21" x="658.9384" y="113.6494">has</text><text fill="#000000" font-family="sans-serif" font-size="13" lengthAdjust="spacing" textLength="20" x="635.4423" y="136.1145">1..*</text><text fill="#000000" font-family="sans-serif" font-size="13" lengthAdjust="spacing" textLength="7" x="683.5462" y="116.4575">1</text></g><!--link Address to PostCode--><g id="link_Address_PostCode"><path codeLine="71" d="M537.1584,347.8711 C538.5084,376.3911 540.3784,415.9311 541.7284,444.4311 " fill="none" id="Address-PostCode" style="stroke:#181818;stroke-width:1.0;"/><polygon fill="#000000" points="544.6748,401.261,547.1828,392.0871,541.3115,392.365,544.6748,401.261" style="stroke:#000000;stroke-width:1.0;"/><text fill="#000000" font-family="sans-serif" font-size="13" lengthAdjust="spacing" textLength="21" x="553.4384" y="401.6494">has</text><text fill="#000000" font-family="sans-serif" font-size="13" lengthAdjust="spacing" textLength="20" x="515.787" y="369.5122">1..*</text><text fill="#000000" font-family="sans-serif" font-size="13" lengthAdjust="spacing" textLength="7" x="533.8004" y="433.359">1</text></g><!--link Collaborator to Document--><g id="link_Collaborator_Document"><path codeLine="73" d="M487.3684,120.6211 C510.6084,120.6211 536.6484,120.6211 556.9884,120.6211 " fill="none" id="Collaborator-Document" style="stroke:#181818;stroke-width:1.0;"/><polygon fill="#000000" points="514.1884,108.2666,505.1433,105.3277,505.1433,111.2055,514.1884,108.2666" style="stroke:#000000;stroke-width:1.0;"/><text fill="#000000" font-family="sans-serif" font-size="13" lengthAdjust="spacing" textLength="21" x="518.1884" y="113.6494">has</text><text fill="#000000" font-family="sans-serif" font-size="13" lengthAdjust="spacing" textLength="7" x="494.8552" y="116.61">1</text><text fill="#000000" font-family="sans-serif" font-size="13" lengthAdjust="spacing" textLength="7" x="542.3201" y="115.9808">1</text></g><!--link Collaborator to Address--><g id="link_Collaborator_Address"><path codeLine="75" d="M470.7284,194.8411 C485.9584,221.8611 502.5484,251.2811 515.1084,273.5711 " fill="none" id="Collaborator-Address" style="stroke:#181818;stroke-width:1.0;"/><polygon fill="#000000" points="505.8937,238.6222,504.0122,229.2996,498.8919,232.186,505.8937,238.6222" style="stroke:#000000;stroke-width:1.0;"/><text fill="#000000" font-family="sans-serif" font-size="13" lengthAdjust="spacing" textLength="25" x="512.4384" y="239.6494">lives</text><text fill="#000000" font-family="sans-serif" font-size="13" lengthAdjust="spacing" textLength="20" x="453.8085" y="217.0094">1..*</text><text fill="#000000" font-family="sans-serif" font-size="13" lengthAdjust="spacing" textLength="7" x="503.7147" y="262.2406">1</text></g><!--reverse link Collaborator to GreenSpaceManager--><g id="link_Collaborator_GreenSpaceManager"><path codeLine="77" d="M361.6011,209.1378 C313.5211,271.1678 259.1184,341.3511 231.0984,377.5011 " fill="none" id="Collaborator-backto-GreenSpaceManager" style="stroke:#181818;stroke-width:1.0;"/><polygon fill="none" points="372.6284,194.9111,356.8589,205.4621,366.3434,212.8136,372.6284,194.9111" style="stroke:#181818;stroke-width:1.0;"/></g><!--link GreenSpaceManager to TaskAgenda--><g id="link_GreenSpaceManager_TaskAgenda"><path codeLine="79" d="M155.7384,414.6711 C96.3284,435.8011 15.4384,477.6011 15.4384,548.6211 C15.4384,548.6211 15.4384,548.6211 15.4384,706.1211 C15.4384,779.2911 263.1684,819.8011 365.2584,833.3811 " fill="none" id="GreenSpaceManager-TaskAgenda" style="stroke:#181818;stroke-width:1.0;"/><polygon fill="#000000" points="22.6759,602.738,21.2565,593.334,16,595.9643,22.6759,602.738" style="stroke:#000000;stroke-width:1.0;"/><text fill="#000000" font-family="sans-serif" font-size="13" lengthAdjust="spacing" textLength="142" x="29.4384" y="603.6494">Assign Team to an entry</text><text fill="#000000" font-family="sans-serif" font-size="13" lengthAdjust="spacing" textLength="20" x="118.2615" y="435.3745">1..*</text><text fill="#000000" font-family="sans-serif" font-size="13" lengthAdjust="spacing" textLength="7" x="350.527" y="828.0035">1</text></g><!--link Team to TaskAgenda--><g id="link_Team_TaskAgenda"><path codeLine="81" d="M510.1784,600.2811 C468.2484,603.8611 375.4984,618.4211 335.4384,677.6211 C308.5184,717.4011 341.7984,768.7111 371.7284,802.5911 " fill="none" id="Team-TaskAgenda" style="stroke:#181818;stroke-width:1.0;"/><polygon fill="#000000" points="343.2622,701.1403,335.7285,706.945,340.5793,710.2646,343.2622,701.1403" style="stroke:#000000;stroke-width:1.0;"/><text fill="#000000" font-family="sans-serif" font-size="13" lengthAdjust="spacing" textLength="71" x="349.4384" y="710.6494">executes by</text><text fill="#000000" font-family="sans-serif" font-size="13" lengthAdjust="spacing" textLength="7" x="495.2861" y="617.8141">1</text><text fill="#000000" font-family="sans-serif" font-size="13" lengthAdjust="spacing" textLength="5" x="359.4991" y="791.2643">*</text></g><!--link EmailService to Team--><g id="link_EmailService_Team"><path codeLine="85" d="M295.1884,598.1211 C356.2484,598.1211 464.6584,598.1211 510.2784,598.1211 " fill="none" id="EmailService-Team" style="stroke:#181818;stroke-width:1.0;"/><polygon fill="#000000" points="322.1884,585.7666,313.1433,582.8277,313.1433,588.7055,322.1884,585.7666" style="stroke:#000000;stroke-width:1.0;"/><text fill="#000000" font-family="sans-serif" font-size="13" lengthAdjust="spacing" textLength="166" x="326.1884" y="591.1494">send email to all elements of</text><text fill="#000000" font-family="sans-serif" font-size="13" lengthAdjust="spacing" textLength="7" x="303.0142" y="593.7971">1</text><text fill="#000000" font-family="sans-serif" font-size="13" lengthAdjust="spacing" textLength="5" x="497.441" y="592.4447">*</text></g><!--link Collaborator to Team--><g id="link_Collaborator_Team"><path codeLine="87" d="M422.9184,194.6811 C418.4784,276.8111 419.9384,412.5511 464.4384,518.6211 C474.5584,542.7411 494.9284,564.8811 510.5684,579.4611 " fill="none" id="Collaborator-Team" style="stroke:#181818;stroke-width:1.0;"/><polygon fill="#000000" points="439.3279,391.3915,438.4713,400.8634,444.2023,399.5579,439.3279,391.3915" style="stroke:#000000;stroke-width:1.0;"/><text fill="#000000" font-family="sans-serif" font-size="13" lengthAdjust="spacing" textLength="51" x="449.4384" y="401.6494">Contains</text><text fill="#000000" font-family="sans-serif" font-size="13" lengthAdjust="spacing" textLength="20" x="401.2148" y="217.2205">1..*</text><text fill="#000000" font-family="sans-serif" font-size="13" lengthAdjust="spacing" textLength="7" x="496.1051" y="568.2742">1</text></g><!--link Task to apoint26--><g id="link_Task_apoint26"><path d="M713.3084,705.1211 C749.7884,705.1211 799.1184,705.1211 810.1784,705.1211 " fill="none" id="Task-apoint26" style="stroke:#181818;stroke-width:1.0;"/><polygon fill="#000000" points="730.1884,692.7666,739.2335,695.7055,739.2335,689.8277,730.1884,692.7666" style="stroke:#000000;stroke-width:1.0;"/><text fill="#000000" font-family="sans-serif" font-size="13" lengthAdjust="spacing" textLength="48" x="744.1884" y="698.1494">includes</text><text fill="#000000" font-family="sans-serif" font-size="13" lengthAdjust="spacing" textLength="5" x="721.0337" y="700.6397">*</text></g><!--link apoint26 to ToDoList--><g id="link_apoint26_ToDoList"><path d="M814.5984,705.1211 C826.3484,705.1211 838.0984,705.1211 849.8484,705.1211 " fill="none" id="apoint26-ToDoList" style="stroke:#181818;stroke-width:1.0;"/><text fill="#000000" font-family="sans-serif" font-size="13" lengthAdjust="spacing" textLength="7" x="834.7338" y="700.2612">1</text></g><!--link apoint26 to TaskToDoList--><g id="link_apoint26_TaskToDoList"><path d="M811.3484,706.9711 C802.1384,714.1511 736.1784,765.5611 689.4684,801.9611 " fill="none" id="apoint26-TaskToDoList" style="stroke:#181818;stroke-width:1.0;stroke-dasharray:7.0,7.0;"/></g><!--link Agenda to apoint31--><g id="link_Agenda_apoint31"><path d="M494.2084,705.1211 C527.7384,705.1211 581.0484,705.1211 592.3084,705.1211 " fill="none" id="Agenda-apoint31" style="stroke:#181818;stroke-width:1.0;"/><polygon fill="#000000" points="521.1884,692.7666,512.1433,689.8277,512.1433,695.7055,521.1884,692.7666" style="stroke:#000000;stroke-width:1.0;"/><text fill="#000000" font-family="sans-serif" font-size="13" lengthAdjust="spacing" textLength="49" x="525.1884" y="698.1494">contains</text><text fill="#000000" font-family="sans-serif" font-size="13" lengthAdjust="spacing" textLength="7" x="501.8305" y="700.1592">1</text></g><!--link apoint31 to Task--><g id="link_apoint31_Task"><path d="M596.5684,705.1211 C608.3284,705.1211 620.0784,705.1211 631.8384,705.1211 " fill="none" id="apoint31-Task" style="stroke:#181818;stroke-width:1.0;"/><text fill="#000000" font-family="sans-serif" font-size="13" lengthAdjust="spacing" textLength="5" x="618.8918" y="700.5867">*</text></g><!--link apoint31 to TaskAgenda--><g id="link_apoint31_TaskAgenda"><path d="M593.2484,706.9711 C582.6084,714.5511 502.8384,771.3711 451.6384,807.8511 " fill="none" id="apoint31-TaskAgenda" style="stroke:#181818;stroke-width:1.0;stroke-dasharray:7.0,7.0;"/></g><!--link TaskAgenda to TaskToDoList--><g id="link_TaskAgenda_TaskToDoList"><path codeLine="94" d="M451.6284,839.6211 C492.3084,839.6211 553.0884,839.6211 595.0784,839.6211 " fill="none" id="TaskAgenda-TaskToDoList" style="stroke:#181818;stroke-width:1.0;"/><polygon fill="#000000" points="501.9384,827.2666,492.8933,824.3277,492.8933,830.2055,501.9384,827.2666" style="stroke:#000000;stroke-width:1.0;"/><text fill="#000000" font-family="sans-serif" font-size="13" lengthAdjust="spacing" textLength="48" x="505.9384" y="832.6494">includes</text></g><!--SRC=[TLJ1Rjim3BthAuYSjc8DrkqM50MoP1W6hDs0T1_0o4miL9OCYUxgRlttqRBbs0sQIoJoaNny51qVZAinO0MLTrwNmLS471fISVJKg1_mI3jkBK4WpUYETWg89HR-Zt57EA2DKu-s6EEQEPXzm_HTUxSppmGVLMaA0cs2baJfN16NleXAiM4fi_KL6WUtlY0Bb_1xz-aph6CqHmVt98dP0paEBGY8IuBraLo1IgbK4JRUMjpxWEm3_5KWFuSLfKE1J3yFNqpWCjsng8nazcuhZcIfI-_ehgds5DATyQd6biB4H4BFgfTSR-jrKmcXeLIFE_FUjpNr29RJoV_BHzv8fxsl7cwJQjPhjEOPMLXsOKFSjq3aTZ8UkaKd4-fQ7PDsCaskNpl2EmgFHjCKvRV-XuayYyJuaEqzfSZ8JKp79eZIkksLRC98wHJQZs8C33pgAlPq7k7heWWa_nai_V3TE2Vli-Ap_0EweAY3gLFzISQX-8lAeiFYQhcyMCWZMbmjPgE05PGOuKQfp2D3UsmUomatUrOTP9xqJU0qQwwr0ciUwHmDr_y4UJvRfSx7FMljfBtaVhKhw8PraMh9biXtZ2vU1T8JQLdL2FiMhaMPtZxqEe059flCig29_lHfJP5TdPMCLJBq-vAOM0jagPChWZ-yBTOWrv1ba-i9fqHXSUexF-6LV0oqRUHXTAXt7Un3Thw7vNBsi0T_tz_epP-HYIINix1faPl_]--></g></svg>