<?xml version="1.0" encoding="us-ascii" standalone="no"?><svg xmlns="http://www.w3.org/2000/svg" xmlns:xlink="http://www.w3.org/1999/xlink" contentStyleType="text/css" height="873px" preserveAspectRatio="none" style="width:720px;height:873px;background:#FFFFFF;" version="1.1" viewBox="0 0 720 873" width="720px" zoomAndPan="magnify"><defs/><g><text fill="#000000" font-family="sans-serif" font-size="14" font-weight="bold" lengthAdjust="spacing" textLength="399" x="153.5" y="25.1074">Domain Model - US23 Assign Team to entry in the Agenda</text><!--class Collaborator--><g id="elem_Collaborator"><rect codeLine="11" fill="#F1F1F1" height="148.3477" id="Collaborator" rx="2.5" ry="2.5" style="stroke:#181818;stroke-width:0.5;" width="115" x="457" y="46.6211"/><text fill="#000000" font-family="sans-serif" font-size="14" lengthAdjust="spacing" textLength="78" x="475.5" y="66.7285">Collaborator</text><line style="stroke:#181818;stroke-width:0.5;" x1="458" x2="571" y1="75.2422" y2="75.2422"/><text fill="#000000" font-family="sans-serif" font-size="14" lengthAdjust="spacing" textLength="35" x="463" y="94.3496">name</text><text fill="#000000" font-family="sans-serif" font-size="14" lengthAdjust="spacing" textLength="72" x="463" y="112.9707">dateOfBirth</text><text fill="#000000" font-family="sans-serif" font-size="14" lengthAdjust="spacing" textLength="93" x="463" y="131.5918">admissionDate</text><text fill="#000000" font-family="sans-serif" font-size="14" lengthAdjust="spacing" textLength="89" x="463" y="150.2129">phoneNumber</text><text fill="#000000" font-family="sans-serif" font-size="14" lengthAdjust="spacing" textLength="103" x="463" y="168.834">taxpayerNumber</text><text fill="#000000" font-family="sans-serif" font-size="14" lengthAdjust="spacing" textLength="33" x="463" y="187.4551">email</text></g><!--class GreenSpaceManager--><g id="elem_GreenSpaceManager"><rect codeLine="20" fill="#F1F1F1" height="36.6211" id="GreenSpaceManager" rx="2.5" ry="2.5" style="stroke:#181818;stroke-width:0.5;" width="142" x="381.5" y="264.6211"/><text fill="#000000" font-family="sans-serif" font-size="14" lengthAdjust="spacing" textLength="136" x="384.5" y="284.7285">GreenSpaceManager</text><line style="stroke:#181818;stroke-width:0.5;" x1="382.5" x2="522.5" y1="293.2422" y2="293.2422"/></g><!--class Team--><g id="elem_Team"><rect codeLine="23" fill="#F1F1F1" height="55.2422" id="Team" rx="2.5" ry="2.5" style="stroke:#181818;stroke-width:0.5;" width="42" x="456.5" y="811.6211"/><text fill="#000000" font-family="sans-serif" font-size="14" lengthAdjust="spacing" textLength="36" x="459.5" y="831.7285">Team</text><line style="stroke:#181818;stroke-width:0.5;" x1="457.5" x2="497.5" y1="840.2422" y2="840.2422"/><text fill="#000000" font-family="sans-serif" font-size="14" lengthAdjust="spacing" textLength="11" x="462.5" y="859.3496">id</text></g><!--class EmailService--><g id="elem_EmailService"><rect codeLine="27" fill="#F1F1F1" height="36.6211" id="EmailService" rx="2.5" ry="2.5" style="stroke:#181818;stroke-width:0.5;" width="87" x="626" y="820.6211"/><text fill="#000000" font-family="sans-serif" font-size="14" lengthAdjust="spacing" textLength="81" x="629" y="840.7285">EmailService</text><line style="stroke:#181818;stroke-width:0.5;" x1="627" x2="712" y1="849.2422" y2="849.2422"/></g><!--class ToDoList--><g id="elem_ToDoList"><rect codeLine="30" fill="#F1F1F1" height="36.6211" id="ToDoList" rx="2.5" ry="2.5" style="stroke:#181818;stroke-width:0.5;" width="63" x="7" y="515.1211"/><text fill="#000000" font-family="sans-serif" font-size="14" lengthAdjust="spacing" textLength="57" x="10" y="535.2285">ToDoList</text><line style="stroke:#181818;stroke-width:0.5;" x1="8" x2="69" y1="543.7422" y2="543.7422"/></g><!--class TaskToDoList--><g id="elem_TaskToDoList"><rect codeLine="33" fill="#F1F1F1" height="92.4844" id="TaskToDoList" rx="2.5" ry="2.5" style="stroke:#181818;stroke-width:0.5;" width="159" x="77" y="658.6211"/><text fill="#000000" font-family="sans-serif" font-size="14" lengthAdjust="spacing" textLength="88" x="112.5" y="678.7285">TaskToDoList</text><line style="stroke:#181818;stroke-width:0.5;" x1="78" x2="235" y1="687.2422" y2="687.2422"/><text fill="#000000" font-family="sans-serif" font-size="14" lengthAdjust="spacing" textLength="38" x="83" y="706.3496">status</text><text fill="#000000" font-family="sans-serif" font-size="14" lengthAdjust="spacing" textLength="51" x="83" y="724.9707">urgency</text><text fill="#000000" font-family="sans-serif" font-size="14" lengthAdjust="spacing" textLength="147" x="83" y="743.5918">aproxExpectedDuration</text></g><!--class TaskAgenda--><g id="elem_TaskAgenda"><rect codeLine="39" fill="#F1F1F1" height="92.4844" id="TaskAgenda" rx="2.5" ry="2.5" style="stroke:#181818;stroke-width:0.5;" width="123" x="277" y="487.6211"/><text fill="#000000" font-family="sans-serif" font-size="14" lengthAdjust="spacing" textLength="80" x="298.5" y="507.7285">TaskAgenda</text><line style="stroke:#181818;stroke-width:0.5;" x1="278" x2="399" y1="516.2422" y2="516.2422"/><text fill="#000000" font-family="sans-serif" font-size="14" lengthAdjust="spacing" textLength="58" x="283" y="535.3496">startDate</text><text fill="#000000" font-family="sans-serif" font-size="14" lengthAdjust="spacing" textLength="54" x="283" y="553.9707">endDate</text><text fill="#000000" font-family="sans-serif" font-size="14" lengthAdjust="spacing" textLength="111" x="283" y="572.5918">expectedDuration</text></g><!--class Task--><g id="elem_Task"><rect codeLine="46" fill="#F1F1F1" height="55.2422" id="Task" rx="2.5" ry="2.5" style="stroke:#181818;stroke-width:0.5;" width="81" x="126" y="255.6211"/><text fill="#000000" font-family="sans-serif" font-size="14" lengthAdjust="spacing" textLength="31" x="151" y="275.7285">Task</text><line style="stroke:#181818;stroke-width:0.5;" x1="127" x2="206" y1="284.2422" y2="284.2422"/><text fill="#000000" font-family="sans-serif" font-size="14" lengthAdjust="spacing" textLength="69" x="132" y="303.3496">description</text></g><!--class Agenda--><g id="elem_Agenda"><rect codeLine="51" fill="#F1F1F1" height="36.6211" id="Agenda" rx="2.5" ry="2.5" style="stroke:#181818;stroke-width:0.5;" width="55" x="311" y="371.6211"/><text fill="#000000" font-family="sans-serif" font-size="14" lengthAdjust="spacing" textLength="49" x="314" y="391.7285">Agenda</text><line style="stroke:#181818;stroke-width:0.5;" x1="312" x2="365" y1="400.2422" y2="400.2422"/></g><ellipse cx="123.5" cy="390.1211" fill="#181818" rx="2" ry="2" style="stroke:#181818;stroke-width:1.0;"/><ellipse cx="452.5" cy="390.1211" fill="#181818" rx="2" ry="2" style="stroke:#181818;stroke-width:1.0;"/><!--reverse link Collaborator to GreenSpaceManager--><g id="link_Collaborator_GreenSpaceManager"><path codeLine="54" d="M479.7374,211.6132 C469.7774,237.4132 465.91,247.3911 459.36,264.3711 " fill="none" id="Collaborator-backto-GreenSpaceManager" style="stroke:#181818;stroke-width:1.0;"/><polygon fill="none" points="486.22,194.8211,474.1401,209.4524,485.3348,213.7741,486.22,194.8211" style="stroke:#181818;stroke-width:1.0;"/></g><!--link TaskAgenda to Team--><g id="link_TaskAgenda_Team"><path codeLine="56" d="M334.49,579.9211 C332.54,625.9111 335.48,697.7011 365.5,750.6211 C386.56,787.7511 430.31,814.6611 456.46,828.2011 " fill="none" id="TaskAgenda-Team" style="stroke:#181818;stroke-width:1.0;"/><polygon fill="#000000" points="372.7046,709.2543,371.3542,699.8401,366.0786,702.4318,372.7046,709.2543" style="stroke:#000000;stroke-width:1.0;"/><text fill="#000000" font-family="sans-serif" font-size="13" lengthAdjust="spacing" textLength="71" x="379.5" y="710.1494">executes by</text><text fill="#000000" font-family="sans-serif" font-size="13" lengthAdjust="spacing" textLength="5" x="328.5338" y="601.984">*</text><text fill="#000000" font-family="sans-serif" font-size="13" lengthAdjust="spacing" textLength="7" x="441.6379" y="819.0471">1</text></g><!--link Agenda to TaskAgenda--><g id="link_Agenda_TaskAgenda"><path codeLine="58" d="M338.5,408.7511 C338.5,428.3111 338.5,460.6311 338.5,487.3611 " fill="none" id="Agenda-TaskAgenda" style="stroke:#181818;stroke-width:1.0;"/><polygon fill="#000000" points="343.5,453.2666,346.4389,444.2215,340.5611,444.2215,343.5,453.2666" style="stroke:#000000;stroke-width:1.0;"/><text fill="#000000" font-family="sans-serif" font-size="13" lengthAdjust="spacing" textLength="49" x="352.5" y="453.6494">contains</text><text fill="#000000" font-family="sans-serif" font-size="13" lengthAdjust="spacing" textLength="7" x="330.5594" y="430.1606">1</text><text fill="#000000" font-family="sans-serif" font-size="13" lengthAdjust="spacing" textLength="5" x="333.1328" y="476.3323">*</text></g><!--link Team to EmailService--><g id="link_Team_EmailService"><path codeLine="60" d="M498.78,839.1211 C529.24,839.1211 585.97,839.1211 625.65,839.1211 " fill="none" id="Team-EmailService" style="stroke:#181818;stroke-width:1.0;"/><polygon fill="#000000" points="525.75,826.7666,516.7049,823.8277,516.7049,829.7055,525.75,826.7666" style="stroke:#000000;stroke-width:1.0;"/><text fill="#000000" font-family="sans-serif" font-size="13" lengthAdjust="spacing" textLength="78" x="529.75" y="832.1494">makes use of</text><text fill="#000000" font-family="sans-serif" font-size="13" lengthAdjust="spacing" textLength="5" x="506.3599" y="855.8666">*</text><text fill="#000000" font-family="sans-serif" font-size="13" lengthAdjust="spacing" textLength="7" x="611.1036" y="834.8481">1</text></g><!--link Collaborator to Team--><g id="link_Collaborator_Team"><path codeLine="62" d="M555.68,194.9111 C567.13,221.5311 576.5,252.4011 576.5,282.1211 C576.5,282.1211 576.5,282.1211 576.5,705.6211 C576.5,757.0211 528.1,801.3211 498.98,823.3211 " fill="none" id="Collaborator-Team" style="stroke:#181818;stroke-width:1.0;"/><polygon fill="#000000" points="581.9493,443.2868,578.2095,452.0312,584.0635,452.5594,581.9493,443.2868" style="stroke:#000000;stroke-width:1.0;"/><text fill="#000000" font-family="sans-serif" font-size="13" lengthAdjust="spacing" textLength="51" x="590.5" y="453.6494">Contains</text><text fill="#000000" font-family="sans-serif" font-size="13" lengthAdjust="spacing" textLength="20" x="538.7493" y="217.0863">1..*</text><text fill="#000000" font-family="sans-serif" font-size="13" lengthAdjust="spacing" textLength="7" x="506.6301" y="812.915">1</text></g><!--link Task to apoint18--><g id="link_Task_apoint18"><path d="M155.54,310.8911 C143.99,339.0811 127.06,380.4311 123.99,387.9311 " fill="none" id="Task-apoint18" style="stroke:#181818;stroke-width:1.0;"/></g><!--link apoint18 to ToDoList--><g id="link_apoint18_ToDoList"><path d="M122.55,392.7111 C115.41,404.5811 70.16,479.9211 49.17,514.8611 " fill="none" id="apoint18-ToDoList" style="stroke:#181818;stroke-width:1.0;"/></g><!--link apoint18 to TaskToDoList--><g id="link_apoint18_TaskToDoList"><path d="M123.62,392.2511 C125.24,407.6311 143.02,575.9411 151.73,658.4911 " fill="none" id="apoint18-TaskToDoList" style="stroke:#181818;stroke-width:1.0;stroke-dasharray:7.0,7.0;"/></g><!--link GreenSpaceManager to apoint24--><g id="link_GreenSpaceManager_apoint24"><path d="M452.5,301.9311 C452.5,329.5511 452.5,380.3411 452.5,388.1111 " fill="none" id="GreenSpaceManager-apoint24" style="stroke:#181818;stroke-width:1.0;"/></g><!--link apoint24 to TaskAgenda--><g id="link_apoint24_TaskAgenda"><path d="M451.96,392.1011 C448.51,398.3011 429.21,432.5411 409.5,457.6211 C401.63,467.6311 392.67,477.8611 383.82,487.4111 " fill="none" id="apoint24-TaskAgenda" style="stroke:#181818;stroke-width:1.0;"/></g><!--link apoint24 to Team--><g id="link_apoint24_Team"><path d="M452.57,392.4011 C453.81,414.6011 470.82,718.7311 476.01,811.4711 " fill="none" id="apoint24-Team" style="stroke:#181818;stroke-width:1.0;stroke-dasharray:7.0,7.0;"/><text fill="#000000" font-family="sans-serif" font-size="13" lengthAdjust="spacing" textLength="74" x="466.5" y="624.6494">assign Team</text></g><!--link TaskAgenda to TaskToDoList--><g id="link_TaskAgenda_TaskToDoList"><path codeLine="68" d="M283.23,579.8611 C271.91,589.5011 260.19,599.7511 249.5,609.6211 C232.8,625.0411 215.11,642.5911 199.69,658.3211 " fill="none" id="TaskAgenda-TaskToDoList" style="stroke:#181818;stroke-width:1.0;"/><polygon fill="#000000" points="250.8554,622.6896,259.4605,618.6396,255.4366,614.3551,250.8554,622.6896" style="stroke:#000000;stroke-width:1.0;"/><text fill="#000000" font-family="sans-serif" font-size="13" lengthAdjust="spacing" textLength="48" x="263.5" y="624.6494">includes</text><text fill="#000000" font-family="sans-serif" font-size="13" lengthAdjust="spacing" textLength="7" x="267.2308" y="602.2567">1</text><text fill="#000000" font-family="sans-serif" font-size="13" lengthAdjust="spacing" textLength="7" x="198.5195" y="647.2865">1</text></g><!--link ToDoList to TaskToDoList--><g id="link_ToDoList_TaskToDoList"><path codeLine="70" d="M32.56,552.1711 C26.95,572.0611 21.19,604.8111 34.5,628.6211 C44.27,646.0911 59.96,659.9911 76.87,670.8311 " fill="none" id="ToDoList-TaskToDoList" style="stroke:#181818;stroke-width:1.0;"/><polygon fill="#000000" points="41.2491,623.9507,40.8382,614.449,35.3317,616.5052,41.2491,623.9507" style="stroke:#000000;stroke-width:1.0;"/><text fill="#000000" font-family="sans-serif" font-size="13" lengthAdjust="spacing" textLength="48" x="48.5" y="624.6494">includes</text><text fill="#000000" font-family="sans-serif" font-size="13" lengthAdjust="spacing" textLength="7" x="22.905" y="573.9014">1</text><text fill="#000000" font-family="sans-serif" font-size="13" lengthAdjust="spacing" textLength="5" x="64.042" y="663.8194">*</text></g><!--link Task to TaskToDoList--><g id="link_Task_TaskToDoList"><path codeLine="72" d="M168.15,310.8411 C168.67,320.2511 169.19,330.9011 169.5,340.6211 C173.34,460.1211 171.83,490.0611 172.5,609.6211 C172.55,618.0611 173.39,620.2211 172.5,628.6211 C171.48,638.2911 169.74,648.5411 167.78,658.2511 " fill="none" id="Task-TaskToDoList" style="stroke:#181818;stroke-width:1.0;"/><polygon fill="#000000" points="177.5053,443.2666,174.5568,452.3086,180.4346,452.3148,177.5053,443.2666" style="stroke:#000000;stroke-width:1.0;"/><text fill="#000000" font-family="sans-serif" font-size="13" lengthAdjust="spacing" textLength="49" x="186.5" y="453.6494">contains</text><text fill="#000000" font-family="sans-serif" font-size="13" lengthAdjust="spacing" textLength="7" x="160.7453" y="332.7979">1</text><text fill="#000000" font-family="sans-serif" font-size="13" lengthAdjust="spacing" textLength="7" x="161.9227" y="647.2062">1</text></g><!--SRC=[RLBBRjim4BppAnOwjK5arEqj20guSL0KQDg3smzOask9i4GAvAgr-lZthiJeLKSdQdSuipFBUBQkmO0rrDvvNGPV4t1eISMfqw0-Oq47xYg2G9hH5TKI44iq_gTr1PomYikEhZ367NEmnvRfa_RkO7yHl56bDGJQ1Yr4mxacBhs9Ih5baTdx6gs39s-eWXo-7zw-WrsCjd3mZOIOFP3Zq860k2JO5UGCAgK6HNZmLOL77v1zWDyAv7DOqt0moFJrzC46BeT_DBKLPk_sqXWgJUaTVMdh8uNXd_7IO4TXKI8Phr9_HxsFWSWT92XwGYTPzQ9JinyupM3DN7ti6GuKVbXDIx3V-yysyee0utci9wB8o6qSZcqGwxfBLfhWBu-NHdP4Pj-AVR6rvab1JIo19zTIdyylS2n8dYCr57MmpG2OLKO5AQpM0FT_yXoker9gs6YspI3FsnoocsmnATp9CAJbzKGuTd2lr7CzuQ_HyiPOdaw4zqejCquNsdIX5xo36i_2saO2V-gPL-DcsytcffVeHRRJdOUHNl2lUk7RSJElORDPhKe0LsPlvraJFh7Y_BGbZjdEQ7ARhPZbXdMwQcK1lSsf_5ycBy47_BANOfarLX7-0m00]--></g></svg>