<?xml version="1.0" encoding="us-ascii" standalone="no"?><svg xmlns="http://www.w3.org/2000/svg" xmlns:xlink="http://www.w3.org/1999/xlink" contentStyleType="text/css" height="838px" preserveAspectRatio="none" style="width:920px;height:838px;background:#FFFFFF;" version="1.1" viewBox="0 0 920 838" width="920px" zoomAndPan="magnify"><defs/><g><text fill="#000000" font-family="sans-serif" font-size="14" font-weight="bold" lengthAdjust="spacing" textLength="399" x="253.5692" y="25.1074">Domain Model - US23 Assign Team to entry in the Agenda</text><!--class Collaborator--><g id="elem_Collaborator"><rect codeLine="11" fill="#F1F1F1" height="148.3477" id="Collaborator" rx="2.5" ry="2.5" style="stroke:#181818;stroke-width:0.5;" width="105" x="377.1385" y="46.6211"/><text fill="#000000" font-family="sans-serif" font-size="14" lengthAdjust="spacing" textLength="78" x="390.6385" y="66.7285">Collaborator</text><line style="stroke:#181818;stroke-width:0.5;" x1="378.1385" x2="481.1385" y1="75.2422" y2="75.2422"/><text fill="#000000" font-family="sans-serif" font-size="14" lengthAdjust="spacing" textLength="35" x="383.1385" y="94.3496">name</text><text fill="#000000" font-family="sans-serif" font-size="14" lengthAdjust="spacing" textLength="72" x="383.1385" y="112.9707">dateOfBirth</text><text fill="#000000" font-family="sans-serif" font-size="14" lengthAdjust="spacing" textLength="93" x="383.1385" y="131.5918">admissionDate</text><text fill="#000000" font-family="sans-serif" font-size="14" lengthAdjust="spacing" textLength="89" x="383.1385" y="150.2129">phoneNumber</text><text fill="#000000" font-family="sans-serif" font-size="14" lengthAdjust="spacing" textLength="54" x="383.1385" y="168.834">taxpayer</text><text fill="#000000" font-family="sans-serif" font-size="14" lengthAdjust="spacing" textLength="33" x="383.1385" y="187.4551">email</text></g><!--class Document--><g id="elem_Document"><rect codeLine="20" fill="#F1F1F1" height="73.8633" id="Document" rx="2.5" ry="2.5" style="stroke:#181818;stroke-width:0.5;" width="70" x="552.6385" y="83.6211"/><text fill="#000000" font-family="sans-serif" font-size="14" lengthAdjust="spacing" textLength="64" x="555.6385" y="103.7285">Document</text><line style="stroke:#181818;stroke-width:0.5;" x1="553.6385" x2="621.6385" y1="112.2422" y2="112.2422"/><text fill="#000000" font-family="sans-serif" font-size="14" lengthAdjust="spacing" textLength="55" x="558.6385" y="131.3496">docType</text><text fill="#000000" font-family="sans-serif" font-size="14" lengthAdjust="spacing" textLength="48" x="558.6385" y="149.9707">number</text></g><!--class Address--><g id="elem_Address"><rect codeLine="25" fill="#F1F1F1" height="92.4844" id="Address" rx="2.5" ry="2.5" style="stroke:#181818;stroke-width:0.5;" width="90" x="482.6385" y="273.6211"/><text fill="#000000" font-family="sans-serif" font-size="14" lengthAdjust="spacing" textLength="52" x="501.6385" y="293.7285">Address</text><line style="stroke:#181818;stroke-width:0.5;" x1="483.6385" x2="571.6385" y1="302.2422" y2="302.2422"/><text fill="#000000" font-family="sans-serif" font-size="14" lengthAdjust="spacing" textLength="72" x="488.6385" y="321.3496">streetName</text><text fill="#000000" font-family="sans-serif" font-size="14" lengthAdjust="spacing" textLength="61" x="488.6385" y="339.9707">postCode</text><text fill="#000000" font-family="sans-serif" font-size="14" lengthAdjust="spacing" textLength="78" x="488.6385" y="358.5918">doorNumber</text></g><!--class GreenSpaceManager--><g id="elem_GreenSpaceManager"><rect codeLine="32" fill="#F1F1F1" height="36.6211" id="GreenSpaceManager" rx="2.5" ry="2.5" style="stroke:#181818;stroke-width:0.5;" width="142" x="146.6385" y="395.6211"/><text fill="#000000" font-family="sans-serif" font-size="14" lengthAdjust="spacing" textLength="136" x="149.6385" y="415.7285">GreenSpaceManager</text><line style="stroke:#181818;stroke-width:0.5;" x1="147.6385" x2="287.6385" y1="424.2422" y2="424.2422"/></g><!--class Team--><g id="elem_Team"><rect codeLine="35" fill="#F1F1F1" height="36.6211" id="Team" rx="2.5" ry="2.5" style="stroke:#181818;stroke-width:0.5;" width="42" x="510.6385" y="524.6211"/><text fill="#000000" font-family="sans-serif" font-size="14" lengthAdjust="spacing" textLength="36" x="513.6385" y="544.7285">Team</text><line style="stroke:#181818;stroke-width:0.5;" x1="511.6385" x2="551.6385" y1="553.2422" y2="553.2422"/></g><!--class EmailService--><g id="elem_EmailService"><rect codeLine="38" fill="#F1F1F1" height="36.6211" id="EmailService" rx="2.5" ry="2.5" style="stroke:#181818;stroke-width:0.5;" width="87" x="208.1385" y="524.6211"/><text fill="#000000" font-family="sans-serif" font-size="14" lengthAdjust="spacing" textLength="81" x="211.1385" y="544.7285">EmailService</text><line style="stroke:#181818;stroke-width:0.5;" x1="209.1385" x2="294.1385" y1="553.2422" y2="553.2422"/></g><!--class ToDoList--><g id="elem_ToDoList"><rect codeLine="41" fill="#F1F1F1" height="36.6211" id="ToDoList" rx="2.5" ry="2.5" style="stroke:#181818;stroke-width:0.5;" width="63" x="850.1385" y="631.6211"/><text fill="#000000" font-family="sans-serif" font-size="14" lengthAdjust="spacing" textLength="57" x="853.1385" y="651.7285">ToDoList</text><line style="stroke:#181818;stroke-width:0.5;" x1="851.1385" x2="912.1385" y1="660.2422" y2="660.2422"/></g><!--class TaskToDoList--><g id="elem_TaskToDoList"><rect codeLine="44" fill="#F1F1F1" height="92.4844" id="TaskToDoList" rx="2.5" ry="2.5" style="stroke:#181818;stroke-width:0.5;" width="94" x="595.6385" y="738.6211"/><text fill="#000000" font-family="sans-serif" font-size="14" lengthAdjust="spacing" textLength="88" x="598.6385" y="758.7285">TaskToDoList</text><line style="stroke:#181818;stroke-width:0.5;" x1="596.6385" x2="688.6385" y1="767.2422" y2="767.2422"/><text fill="#000000" font-family="sans-serif" font-size="14" lengthAdjust="spacing" textLength="38" x="601.6385" y="786.3496">status</text><text fill="#000000" font-family="sans-serif" font-size="14" lengthAdjust="spacing" textLength="51" x="601.6385" y="804.9707">urgency</text><text fill="#000000" font-family="sans-serif" font-size="14" lengthAdjust="spacing" textLength="52" x="601.6385" y="823.5918">duration</text></g><!--class TaskAgenda--><g id="elem_TaskAgenda"><rect codeLine="50" fill="#F1F1F1" height="73.8633" id="TaskAgenda" rx="2.5" ry="2.5" style="stroke:#181818;stroke-width:0.5;" width="86" x="365.6385" y="747.6211"/><text fill="#000000" font-family="sans-serif" font-size="14" lengthAdjust="spacing" textLength="80" x="368.6385" y="767.7285">TaskAgenda</text><line style="stroke:#181818;stroke-width:0.5;" x1="366.6385" x2="450.6385" y1="776.2422" y2="776.2422"/><text fill="#000000" font-family="sans-serif" font-size="14" lengthAdjust="spacing" textLength="58" x="371.6385" y="795.3496">startDate</text><text fill="#000000" font-family="sans-serif" font-size="14" lengthAdjust="spacing" textLength="54" x="371.6385" y="813.9707">endDate</text></g><!--class Task--><g id="elem_Task"><rect codeLine="55" fill="#F1F1F1" height="55.2422" id="Task" rx="2.5" ry="2.5" style="stroke:#181818;stroke-width:0.5;" width="81" x="632.1385" y="622.6211"/><text fill="#000000" font-family="sans-serif" font-size="14" lengthAdjust="spacing" textLength="31" x="657.1385" y="642.7285">Task</text><line style="stroke:#181818;stroke-width:0.5;" x1="633.1385" x2="712.1385" y1="651.2422" y2="651.2422"/><text fill="#000000" font-family="sans-serif" font-size="14" lengthAdjust="spacing" textLength="69" x="638.1385" y="670.3496">description</text></g><!--class Agenda--><g id="elem_Agenda"><rect codeLine="60" fill="#F1F1F1" height="36.6211" id="Agenda" rx="2.5" ry="2.5" style="stroke:#181818;stroke-width:0.5;" width="55" x="439.1385" y="631.6211"/><text fill="#000000" font-family="sans-serif" font-size="14" lengthAdjust="spacing" textLength="49" x="442.1385" y="651.7285">Agenda</text><line style="stroke:#181818;stroke-width:0.5;" x1="440.1385" x2="493.1385" y1="660.2422" y2="660.2422"/></g><ellipse cx="812.6385" cy="650.1211" fill="#181818" rx="2" ry="2" style="stroke:#181818;stroke-width:1.0;"/><ellipse cx="594.6385" cy="650.1211" fill="#181818" rx="2" ry="2" style="stroke:#181818;stroke-width:1.0;"/><!--link Collaborator to Document--><g id="link_Collaborator_Document"><path codeLine="63" d="M482.2485,120.6211 C505.2285,120.6211 531.5785,120.6211 552.1785,120.6211 " fill="none" id="Collaborator-Document" style="stroke:#181818;stroke-width:1.0;"/><polygon fill="#000000" points="509.3885,108.2666,500.3434,105.3277,500.3434,111.2055,509.3885,108.2666" style="stroke:#000000;stroke-width:1.0;"/><text fill="#000000" font-family="sans-serif" font-size="13" lengthAdjust="spacing" textLength="21" x="513.3885" y="113.6494">has</text><text fill="#000000" font-family="sans-serif" font-size="13" lengthAdjust="spacing" textLength="7" x="490.139" y="116.4501">1</text><text fill="#000000" font-family="sans-serif" font-size="13" lengthAdjust="spacing" textLength="7" x="537.7517" y="116.0699">1</text></g><!--link Collaborator to Address--><g id="link_Collaborator_Address"><path codeLine="65" d="M465.9885,194.7011 C479.1185,221.0911 493.5485,250.0911 505.1385,273.4011 " fill="none" id="Collaborator-Address" style="stroke:#181818;stroke-width:1.0;"/><polygon fill="#000000" points="497.8654,238.7433,496.4682,229.3359,491.2055,231.9539,497.8654,238.7433" style="stroke:#000000;stroke-width:1.0;"/><text fill="#000000" font-family="sans-serif" font-size="13" lengthAdjust="spacing" textLength="25" x="504.6385" y="239.6494">lives</text><text fill="#000000" font-family="sans-serif" font-size="13" lengthAdjust="spacing" textLength="20" x="448.7058" y="217.2426">1..*</text><text fill="#000000" font-family="sans-serif" font-size="13" lengthAdjust="spacing" textLength="7" x="494.3197" y="262.3782">1</text></g><!--reverse link Collaborator to GreenSpaceManager--><g id="link_Collaborator_GreenSpaceManager"><path codeLine="67" d="M366.3724,208.6091 C317.5724,275.7191 258.9585,356.3111 230.5585,395.3611 " fill="none" id="Collaborator-backto-GreenSpaceManager" style="stroke:#181818;stroke-width:1.0;"/><polygon fill="none" points="376.9585,194.0511,361.5198,205.0804,371.2251,212.1378,376.9585,194.0511" style="stroke:#181818;stroke-width:1.0;"/></g><!--link GreenSpaceManager to TaskAgenda--><g id="link_GreenSpaceManager_TaskAgenda"><path codeLine="69" d="M146.4185,428.9111 C88.2685,442.2711 15.6385,464.7411 15.6385,493.6211 C15.6385,493.6211 15.6385,493.6211 15.6385,651.1211 C15.6385,724.2911 263.3685,764.8011 365.4585,778.3811 " fill="none" id="GreenSpaceManager-TaskAgenda" style="stroke:#181818;stroke-width:1.0;"/><polygon fill="#000000" points="23.2939,547.5032,20.9804,538.2783,16,541.3999,23.2939,547.5032" style="stroke:#000000;stroke-width:1.0;"/><text fill="#000000" font-family="sans-serif" font-size="13" lengthAdjust="spacing" textLength="142" x="29.6385" y="548.6494">Assign Team to an entry</text><text fill="#000000" font-family="sans-serif" font-size="13" lengthAdjust="spacing" textLength="20" x="118.6772" y="426.5709">1..*</text><text fill="#000000" font-family="sans-serif" font-size="13" lengthAdjust="spacing" textLength="7" x="350.7271" y="773.0035">1</text></g><!--link Team to TaskAgenda--><g id="link_Team_TaskAgenda"><path codeLine="71" d="M510.3785,545.2811 C468.4485,548.8611 375.6985,563.4211 335.6385,622.6211 C308.7185,662.4011 341.9985,713.7111 371.9285,747.5911 " fill="none" id="Team-TaskAgenda" style="stroke:#181818;stroke-width:1.0;"/><polygon fill="#000000" points="343.4623,646.1403,335.9286,651.945,340.7793,655.2646,343.4623,646.1403" style="stroke:#000000;stroke-width:1.0;"/><text fill="#000000" font-family="sans-serif" font-size="13" lengthAdjust="spacing" textLength="71" x="349.6385" y="655.6494">executes by</text><text fill="#000000" font-family="sans-serif" font-size="13" lengthAdjust="spacing" textLength="7" x="495.4862" y="562.8141">1</text><text fill="#000000" font-family="sans-serif" font-size="13" lengthAdjust="spacing" textLength="5" x="359.6991" y="736.2643">*</text></g><!--link EmailService to Team--><g id="link_EmailService_Team"><path codeLine="75" d="M295.3885,543.1211 C356.4485,543.1211 464.8585,543.1211 510.4785,543.1211 " fill="none" id="EmailService-Team" style="stroke:#181818;stroke-width:1.0;"/><polygon fill="#000000" points="322.3885,530.7666,313.3434,527.8277,313.3434,533.7055,322.3885,530.7666" style="stroke:#000000;stroke-width:1.0;"/><text fill="#000000" font-family="sans-serif" font-size="13" lengthAdjust="spacing" textLength="166" x="326.3885" y="536.1494">send email to all elements of</text><text fill="#000000" font-family="sans-serif" font-size="13" lengthAdjust="spacing" textLength="7" x="303.2143" y="538.7971">1</text><text fill="#000000" font-family="sans-serif" font-size="13" lengthAdjust="spacing" textLength="5" x="497.6411" y="537.4447">*</text></g><!--link Collaborator to Team--><g id="link_Collaborator_Team"><path codeLine="77" d="M435.8785,194.7811 C441.0885,243.6911 450.0685,309.1611 464.6385,365.6211 C480.1185,425.6011 509.2585,493.2211 523.4585,524.5011 " fill="none" id="Collaborator-Team" style="stroke:#181818;stroke-width:1.0;"/><polygon fill="#000000" points="490.3549,409.4342,489.8365,418.9306,495.5174,417.4216,490.3549,409.4342" style="stroke:#000000;stroke-width:1.0;"/><text fill="#000000" font-family="sans-serif" font-size="13" lengthAdjust="spacing" textLength="51" x="500.6385" y="419.6494">Contains</text><text fill="#000000" font-family="sans-serif" font-size="13" lengthAdjust="spacing" textLength="20" x="415.5084" y="216.9435">1..*</text><text fill="#000000" font-family="sans-serif" font-size="13" lengthAdjust="spacing" textLength="7" x="512.8815" y="513.3265">1</text></g><!--link Task to apoint22--><g id="link_Task_apoint22"><path d="M713.5085,650.1211 C749.9885,650.1211 799.3185,650.1211 810.3785,650.1211 " fill="none" id="Task-apoint22" style="stroke:#181818;stroke-width:1.0;"/><polygon fill="#000000" points="730.3885,637.7666,739.4336,640.7055,739.4336,634.8277,730.3885,637.7666" style="stroke:#000000;stroke-width:1.0;"/><text fill="#000000" font-family="sans-serif" font-size="13" lengthAdjust="spacing" textLength="48" x="744.3885" y="643.1494">includes</text><text fill="#000000" font-family="sans-serif" font-size="13" lengthAdjust="spacing" textLength="5" x="721.2338" y="645.6397">*</text></g><!--link apoint22 to ToDoList--><g id="link_apoint22_ToDoList"><path d="M814.7985,650.1211 C826.5485,650.1211 838.2985,650.1211 850.0485,650.1211 " fill="none" id="apoint22-ToDoList" style="stroke:#181818;stroke-width:1.0;"/><text fill="#000000" font-family="sans-serif" font-size="13" lengthAdjust="spacing" textLength="7" x="834.9339" y="645.2612">1</text></g><!--link apoint22 to TaskToDoList--><g id="link_apoint22_TaskToDoList"><path d="M811.5485,651.9711 C802.3385,659.1511 736.3785,710.5611 689.6685,746.9611 " fill="none" id="apoint22-TaskToDoList" style="stroke:#181818;stroke-width:1.0;stroke-dasharray:7.0,7.0;"/></g><!--link Agenda to apoint27--><g id="link_Agenda_apoint27"><path d="M494.4085,650.1211 C527.9385,650.1211 581.2485,650.1211 592.5085,650.1211 " fill="none" id="Agenda-apoint27" style="stroke:#181818;stroke-width:1.0;"/><polygon fill="#000000" points="521.3885,637.7666,512.3434,634.8277,512.3434,640.7055,521.3885,637.7666" style="stroke:#000000;stroke-width:1.0;"/><text fill="#000000" font-family="sans-serif" font-size="13" lengthAdjust="spacing" textLength="49" x="525.3885" y="643.1494">contains</text><text fill="#000000" font-family="sans-serif" font-size="13" lengthAdjust="spacing" textLength="7" x="502.0305" y="645.1592">1</text></g><!--link apoint27 to Task--><g id="link_apoint27_Task"><path d="M596.7685,650.1211 C608.5285,650.1211 620.2785,650.1211 632.0385,650.1211 " fill="none" id="apoint27-Task" style="stroke:#181818;stroke-width:1.0;"/><text fill="#000000" font-family="sans-serif" font-size="13" lengthAdjust="spacing" textLength="5" x="619.0919" y="645.5867">*</text></g><!--link apoint27 to TaskAgenda--><g id="link_apoint27_TaskAgenda"><path d="M593.4485,651.9711 C582.8085,659.5511 503.0385,716.3711 451.8385,752.8511 " fill="none" id="apoint27-TaskAgenda" style="stroke:#181818;stroke-width:1.0;stroke-dasharray:7.0,7.0;"/></g><!--link TaskAgenda to TaskToDoList--><g id="link_TaskAgenda_TaskToDoList"><path codeLine="84" d="M451.8285,784.6211 C492.5085,784.6211 553.2885,784.6211 595.2785,784.6211 " fill="none" id="TaskAgenda-TaskToDoList" style="stroke:#181818;stroke-width:1.0;"/><polygon fill="#000000" points="502.1385,772.2666,493.0934,769.3277,493.0934,775.2055,502.1385,772.2666" style="stroke:#000000;stroke-width:1.0;"/><text fill="#000000" font-family="sans-serif" font-size="13" lengthAdjust="spacing" textLength="48" x="506.1385" y="777.6494">includes</text></g><!--SRC=[TLFBRjim4BppAnO-fK5Zz74pWW2ENHG56lVWz0DeScqHfaY1NALH7__U5KKgKepu89FBsTdPuJAUZMjaa3NKtdbL1LyZK6XHnF6aaUeiJxYdpY84L2JToKu1iPBQ_pBk14Tfu_H4MHdZcYYOGqluJNctDxyHFeZAQ0HbWcAYjAwHAg-Z46I8osnzBOs31w_HmWtyt7_w3EiOpSd18p8nUK17eGC6KOMmFg7JKWYHAiB6MoiFFaZo0Vu8u9-JDQQ5beG_ZlScK9NsKjU6cRtRya6AD9Ltk6lh0uQq9_dSo2vla8LPyQzKsdhLrYnbAAAzUkoQWSKD12DohNL0_X-GaG8YxOgenaVQSBEPnOVTc9tJlpBUxVaky44wlew-hv6xzsIo_T9ht6DuCWgdAB_rtqsaMQQCvn8loYIrCItRmBQgRX3LifliqZnry7rC33IQoF6qdi5pyngZ2gP9T1E3CXS7PlUt-BZW4UY_nMnOGIKZt5q0byjhnWxWulSAh7d2IpJS_cNafQz2N5fTc1FnIz_C_MeefSjpoTLIB8dl5Ls_IiHdLFmc8Xmwk1KYntEl6SmmVZB4Bo79drxh5DdNMR7_p32CPr9YBQ35tgu8_lYsMTckpB8fzLXJah1uwRkCpufVdR8jtsAFkkfXxylXErWkPqELpuV-njFoNYUMtCpIfaNk_WC0]--></g></svg>