<?xml version="1.0" encoding="us-ascii" standalone="no"?><svg xmlns="http://www.w3.org/2000/svg" xmlns:xlink="http://www.w3.org/1999/xlink" contentStyleType="text/css" height="650px" preserveAspectRatio="none" style="width:1418px;height:650px;background:#FFFFFF;" version="1.1" viewBox="0 0 1418 650" width="1418px" zoomAndPan="magnify"><defs/><g><!--class Job--><g id="elem_Job"><rect codeLine="11" fill="#F1F1F1" height="103.8633" id="Job" rx="2.5" ry="2.5" style="stroke:#181818;stroke-width:0.5;" width="117" x="674" y="540"/><ellipse cx="717.35" cy="556" fill="#ADD1B2" rx="11" ry="11" style="stroke:#181818;stroke-width:1.0;"/><path d="M720.1156,551.875 Q720.2719,551.6563 720.4594,551.5469 Q720.6469,551.4375 720.8656,551.4375 Q721.2406,551.4375 721.475,551.7031 Q721.7094,551.9531 721.7094,552.5625 L721.7094,554.0156 Q721.7094,554.625 721.475,554.8906 Q721.2406,555.1563 720.8656,555.1563 Q720.5219,555.1563 720.3188,554.9531 Q720.1156,554.7656 720.0063,554.25 Q719.9594,553.8906 719.7719,553.7031 Q719.4438,553.3281 718.8344,553.1094 Q718.225,552.8906 717.6,552.8906 Q716.8344,552.8906 716.1938,553.2188 Q715.5688,553.5469 715.0688,554.2969 Q714.5844,555.0469 714.5844,556.0781 L714.5844,557.1719 Q714.5844,558.4063 715.475,559.2344 Q716.3656,560.0469 717.9594,560.0469 Q718.8969,560.0469 719.5531,559.7969 Q719.9438,559.6406 720.3656,559.2031 Q720.6313,558.9375 720.7719,558.8594 Q720.9281,558.7813 721.1313,558.7813 Q721.4594,558.7813 721.7094,559.0469 Q721.975,559.2969 721.975,559.6406 Q721.975,559.9844 721.6313,560.3906 Q721.1313,560.9688 720.3344,561.2969 Q719.2563,561.75 717.9594,561.75 Q716.4438,561.75 715.2406,561.125 Q714.2563,560.625 713.5688,559.5625 Q712.8813,558.4844 712.8813,557.2031 L712.8813,556.0469 Q712.8813,554.7188 713.4906,553.5781 Q714.1156,552.4219 715.2094,551.8125 Q716.3031,551.1875 717.5375,551.1875 Q718.2719,551.1875 718.9125,551.3594 Q719.5688,551.5156 720.1156,551.875 Z " fill="#000000"/><text fill="#000000" font-family="sans-serif" font-size="14" lengthAdjust="spacing" textLength="22" x="737.65" y="561.7969">Job</text><line style="stroke:#181818;stroke-width:0.5;" x1="675" x2="790" y1="572" y2="572"/><text fill="#000000" font-family="sans-serif" font-size="14" lengthAdjust="spacing" textLength="81" x="680" y="591.1074">-String name</text><line style="stroke:#181818;stroke-width:0.5;" x1="675" x2="790" y1="598.6211" y2="598.6211"/><text fill="#000000" font-family="sans-serif" font-size="14" lengthAdjust="spacing" textLength="75" x="680" y="617.7285">+Job(name)</text><text fill="#000000" font-family="sans-serif" font-size="14" lengthAdjust="spacing" textLength="105" x="680" y="636.3496">-validateJob(job)</text></g><!--class RegisterJobController--><g id="elem_RegisterJobController"><rect codeLine="18" fill="#F1F1F1" height="85.2422" id="RegisterJobController" rx="2.5" ry="2.5" style="stroke:#181818;stroke-width:0.5;" width="169" x="849" y="91"/><ellipse cx="864" cy="107" fill="#ADD1B2" rx="11" ry="11" style="stroke:#181818;stroke-width:1.0;"/><path d="M866.7656,102.875 Q866.9219,102.6563 867.1094,102.5469 Q867.2969,102.4375 867.5156,102.4375 Q867.8906,102.4375 868.125,102.7031 Q868.3594,102.9531 868.3594,103.5625 L868.3594,105.0156 Q868.3594,105.625 868.125,105.8906 Q867.8906,106.1563 867.5156,106.1563 Q867.1719,106.1563 866.9688,105.9531 Q866.7656,105.7656 866.6563,105.25 Q866.6094,104.8906 866.4219,104.7031 Q866.0938,104.3281 865.4844,104.1094 Q864.875,103.8906 864.25,103.8906 Q863.4844,103.8906 862.8438,104.2188 Q862.2188,104.5469 861.7188,105.2969 Q861.2344,106.0469 861.2344,107.0781 L861.2344,108.1719 Q861.2344,109.4063 862.125,110.2344 Q863.0156,111.0469 864.6094,111.0469 Q865.5469,111.0469 866.2031,110.7969 Q866.5938,110.6406 867.0156,110.2031 Q867.2813,109.9375 867.4219,109.8594 Q867.5781,109.7813 867.7813,109.7813 Q868.1094,109.7813 868.3594,110.0469 Q868.625,110.2969 868.625,110.6406 Q868.625,110.9844 868.2813,111.3906 Q867.7813,111.9688 866.9844,112.2969 Q865.9063,112.75 864.6094,112.75 Q863.0938,112.75 861.8906,112.125 Q860.9063,111.625 860.2188,110.5625 Q859.5313,109.4844 859.5313,108.2031 L859.5313,107.0469 Q859.5313,105.7188 860.1406,104.5781 Q860.7656,103.4219 861.8594,102.8125 Q862.9531,102.1875 864.1875,102.1875 Q864.9219,102.1875 865.5625,102.3594 Q866.2188,102.5156 866.7656,102.875 Z " fill="#000000"/><text fill="#000000" font-family="sans-serif" font-size="14" lengthAdjust="spacing" textLength="137" x="878" y="112.7969">RegisterJobController</text><line style="stroke:#181818;stroke-width:0.5;" x1="850" x2="1017" y1="123" y2="123"/><line style="stroke:#181818;stroke-width:0.5;" x1="850" x2="1017" y1="131" y2="131"/><text fill="#000000" font-family="sans-serif" font-size="14" lengthAdjust="spacing" textLength="155" x="855" y="150.1074">+RegisterJobController()</text><text fill="#000000" font-family="sans-serif" font-size="14" lengthAdjust="spacing" textLength="123" x="855" y="168.7285">+registerJob(name)</text></g><!--class RegisterJobUI--><g id="elem_RegisterJobUI"><rect codeLine="24" fill="#F1F1F1" height="48" id="RegisterJobUI" rx="2.5" ry="2.5" style="stroke:#181818;stroke-width:0.5;" width="119" x="695" y="109.5"/><ellipse cx="710" cy="125.5" fill="#ADD1B2" rx="11" ry="11" style="stroke:#181818;stroke-width:1.0;"/><path d="M712.7656,121.375 Q712.9219,121.1563 713.1094,121.0469 Q713.2969,120.9375 713.5156,120.9375 Q713.8906,120.9375 714.125,121.2031 Q714.3594,121.4531 714.3594,122.0625 L714.3594,123.5156 Q714.3594,124.125 714.125,124.3906 Q713.8906,124.6563 713.5156,124.6563 Q713.1719,124.6563 712.9688,124.4531 Q712.7656,124.2656 712.6563,123.75 Q712.6094,123.3906 712.4219,123.2031 Q712.0938,122.8281 711.4844,122.6094 Q710.875,122.3906 710.25,122.3906 Q709.4844,122.3906 708.8438,122.7188 Q708.2188,123.0469 707.7188,123.7969 Q707.2344,124.5469 707.2344,125.5781 L707.2344,126.6719 Q707.2344,127.9063 708.125,128.7344 Q709.0156,129.5469 710.6094,129.5469 Q711.5469,129.5469 712.2031,129.2969 Q712.5938,129.1406 713.0156,128.7031 Q713.2813,128.4375 713.4219,128.3594 Q713.5781,128.2813 713.7813,128.2813 Q714.1094,128.2813 714.3594,128.5469 Q714.625,128.7969 714.625,129.1406 Q714.625,129.4844 714.2813,129.8906 Q713.7813,130.4688 712.9844,130.7969 Q711.9063,131.25 710.6094,131.25 Q709.0938,131.25 707.8906,130.625 Q706.9063,130.125 706.2188,129.0625 Q705.5313,127.9844 705.5313,126.7031 L705.5313,125.5469 Q705.5313,124.2188 706.1406,123.0781 Q706.7656,121.9219 707.8594,121.3125 Q708.9531,120.6875 710.1875,120.6875 Q710.9219,120.6875 711.5625,120.8594 Q712.2188,121.0156 712.7656,121.375 Z " fill="#000000"/><text fill="#000000" font-family="sans-serif" font-size="14" lengthAdjust="spacing" textLength="87" x="724" y="131.2969">RegisterJobUI</text><line style="stroke:#181818;stroke-width:0.5;" x1="696" x2="813" y1="141.5" y2="141.5"/><line style="stroke:#181818;stroke-width:0.5;" x1="696" x2="813" y1="149.5" y2="149.5"/></g><!--class Collaborator--><g id="elem_Collaborator"><rect codeLine="27" fill="#F1F1F1" height="252.832" id="Collaborator" rx="2.5" ry="2.5" style="stroke:#181818;stroke-width:0.5;" width="653" x="7" y="7"/><ellipse cx="290.25" cy="23" fill="#ADD1B2" rx="11" ry="11" style="stroke:#181818;stroke-width:1.0;"/><path d="M293.0156,18.875 Q293.1719,18.6563 293.3594,18.5469 Q293.5469,18.4375 293.7656,18.4375 Q294.1406,18.4375 294.375,18.7031 Q294.6094,18.9531 294.6094,19.5625 L294.6094,21.0156 Q294.6094,21.625 294.375,21.8906 Q294.1406,22.1563 293.7656,22.1563 Q293.4219,22.1563 293.2188,21.9531 Q293.0156,21.7656 292.9063,21.25 Q292.8594,20.8906 292.6719,20.7031 Q292.3438,20.3281 291.7344,20.1094 Q291.125,19.8906 290.5,19.8906 Q289.7344,19.8906 289.0938,20.2188 Q288.4688,20.5469 287.9688,21.2969 Q287.4844,22.0469 287.4844,23.0781 L287.4844,24.1719 Q287.4844,25.4063 288.375,26.2344 Q289.2656,27.0469 290.8594,27.0469 Q291.7969,27.0469 292.4531,26.7969 Q292.8438,26.6406 293.2656,26.2031 Q293.5313,25.9375 293.6719,25.8594 Q293.8281,25.7813 294.0313,25.7813 Q294.3594,25.7813 294.6094,26.0469 Q294.875,26.2969 294.875,26.6406 Q294.875,26.9844 294.5313,27.3906 Q294.0313,27.9688 293.2344,28.2969 Q292.1563,28.75 290.8594,28.75 Q289.3438,28.75 288.1406,28.125 Q287.1563,27.625 286.4688,26.5625 Q285.7813,25.4844 285.7813,24.2031 L285.7813,23.0469 Q285.7813,21.7188 286.3906,20.5781 Q287.0156,19.4219 288.1094,18.8125 Q289.2031,18.1875 290.4375,18.1875 Q291.1719,18.1875 291.8125,18.3594 Q292.4688,18.5156 293.0156,18.875 Z " fill="#000000"/><text fill="#000000" font-family="sans-serif" font-size="14" lengthAdjust="spacing" textLength="78" x="310.75" y="28.7969">Collaborator</text><line style="stroke:#181818;stroke-width:0.5;" x1="8" x2="659" y1="39" y2="39"/><text fill="#000000" font-family="sans-serif" font-size="14" lengthAdjust="spacing" textLength="81" x="13" y="58.1074">-String name</text><text fill="#000000" font-family="sans-serif" font-size="14" lengthAdjust="spacing" textLength="117" x="13" y="76.7285">-List&lt;Skill&gt; skillList</text><text fill="#000000" font-family="sans-serif" font-size="14" lengthAdjust="spacing" textLength="50" x="13" y="95.3496">-Job job</text><text fill="#000000" font-family="sans-serif" font-size="14" lengthAdjust="spacing" textLength="111" x="13" y="113.9707">-Date dateOfBirth</text><text fill="#000000" font-family="sans-serif" font-size="14" lengthAdjust="spacing" textLength="132" x="13" y="132.5918">-Date admissionDate</text><text fill="#000000" font-family="sans-serif" font-size="14" lengthAdjust="spacing" textLength="112" x="13" y="151.2129">-Address address</text><text fill="#000000" font-family="sans-serif" font-size="14" lengthAdjust="spacing" textLength="135" x="13" y="169.834">-Document document</text><text fill="#000000" font-family="sans-serif" font-size="14" lengthAdjust="spacing" textLength="135" x="13" y="188.4551">-String phoneNumber</text><text fill="#000000" font-family="sans-serif" font-size="14" lengthAdjust="spacing" textLength="79" x="13" y="207.0762">-String email</text><text fill="#000000" font-family="sans-serif" font-size="14" lengthAdjust="spacing" textLength="78" x="13" y="225.6973">-int taxpayer</text><line style="stroke:#181818;stroke-width:0.5;" x1="8" x2="659" y1="233.2109" y2="233.2109"/><text fill="#000000" font-family="sans-serif" font-size="14" lengthAdjust="spacing" textLength="641" x="13" y="252.3184">+Collaborator(name, dateOfBirth, admissionDate, address, document, phoneNumber, email, taxpayer)</text></g><!--class HumanResourcesManager--><g id="elem_HumanResourcesManager"><rect codeLine="42" fill="#F1F1F1" height="48" id="HumanResourcesManager" rx="2.5" ry="2.5" style="stroke:#181818;stroke-width:0.5;" width="200" x="365.5" y="376"/><ellipse cx="380.5" cy="392" fill="#ADD1B2" rx="11" ry="11" style="stroke:#181818;stroke-width:1.0;"/><path d="M383.2656,387.875 Q383.4219,387.6563 383.6094,387.5469 Q383.7969,387.4375 384.0156,387.4375 Q384.3906,387.4375 384.625,387.7031 Q384.8594,387.9531 384.8594,388.5625 L384.8594,390.0156 Q384.8594,390.625 384.625,390.8906 Q384.3906,391.1563 384.0156,391.1563 Q383.6719,391.1563 383.4688,390.9531 Q383.2656,390.7656 383.1563,390.25 Q383.1094,389.8906 382.9219,389.7031 Q382.5938,389.3281 381.9844,389.1094 Q381.375,388.8906 380.75,388.8906 Q379.9844,388.8906 379.3438,389.2188 Q378.7188,389.5469 378.2188,390.2969 Q377.7344,391.0469 377.7344,392.0781 L377.7344,393.1719 Q377.7344,394.4063 378.625,395.2344 Q379.5156,396.0469 381.1094,396.0469 Q382.0469,396.0469 382.7031,395.7969 Q383.0938,395.6406 383.5156,395.2031 Q383.7813,394.9375 383.9219,394.8594 Q384.0781,394.7813 384.2813,394.7813 Q384.6094,394.7813 384.8594,395.0469 Q385.125,395.2969 385.125,395.6406 Q385.125,395.9844 384.7813,396.3906 Q384.2813,396.9688 383.4844,397.2969 Q382.4063,397.75 381.1094,397.75 Q379.5938,397.75 378.3906,397.125 Q377.4063,396.625 376.7188,395.5625 Q376.0313,394.4844 376.0313,393.2031 L376.0313,392.0469 Q376.0313,390.7188 376.6406,389.5781 Q377.2656,388.4219 378.3594,387.8125 Q379.4531,387.1875 380.6875,387.1875 Q381.4219,387.1875 382.0625,387.3594 Q382.7188,387.5156 383.2656,387.875 Z " fill="#000000"/><text fill="#000000" font-family="sans-serif" font-size="14" lengthAdjust="spacing" textLength="168" x="394.5" y="397.7969">HumanResourcesManager</text><line style="stroke:#181818;stroke-width:0.5;" x1="366.5" x2="564.5" y1="408" y2="408"/><line style="stroke:#181818;stroke-width:0.5;" x1="366.5" x2="564.5" y1="416" y2="416"/></g><!--class Repositories--><g id="elem_Repositories"><rect codeLine="45" fill="#F1F1F1" height="103.8633" id="Repositories" rx="2.5" ry="2.5" style="stroke:#181818;stroke-width:0.5;" width="194" x="1121.5" y="81.5"/><ellipse cx="1174.75" cy="97.5" fill="#ADD1B2" rx="11" ry="11" style="stroke:#181818;stroke-width:1.0;"/><path d="M1177.5156,93.375 Q1177.6719,93.1563 1177.8594,93.0469 Q1178.0469,92.9375 1178.2656,92.9375 Q1178.6406,92.9375 1178.875,93.2031 Q1179.1094,93.4531 1179.1094,94.0625 L1179.1094,95.5156 Q1179.1094,96.125 1178.875,96.3906 Q1178.6406,96.6563 1178.2656,96.6563 Q1177.9219,96.6563 1177.7188,96.4531 Q1177.5156,96.2656 1177.4063,95.75 Q1177.3594,95.3906 1177.1719,95.2031 Q1176.8438,94.8281 1176.2344,94.6094 Q1175.625,94.3906 1175,94.3906 Q1174.2344,94.3906 1173.5938,94.7188 Q1172.9688,95.0469 1172.4688,95.7969 Q1171.9844,96.5469 1171.9844,97.5781 L1171.9844,98.6719 Q1171.9844,99.9063 1172.875,100.7344 Q1173.7656,101.5469 1175.3594,101.5469 Q1176.2969,101.5469 1176.9531,101.2969 Q1177.3438,101.1406 1177.7656,100.7031 Q1178.0313,100.4375 1178.1719,100.3594 Q1178.3281,100.2813 1178.5313,100.2813 Q1178.8594,100.2813 1179.1094,100.5469 Q1179.375,100.7969 1179.375,101.1406 Q1179.375,101.4844 1179.0313,101.8906 Q1178.5313,102.4688 1177.7344,102.7969 Q1176.6563,103.25 1175.3594,103.25 Q1173.8438,103.25 1172.6406,102.625 Q1171.6563,102.125 1170.9688,101.0625 Q1170.2813,99.9844 1170.2813,98.7031 L1170.2813,97.5469 Q1170.2813,96.2188 1170.8906,95.0781 Q1171.5156,93.9219 1172.6094,93.3125 Q1173.7031,92.6875 1174.9375,92.6875 Q1175.6719,92.6875 1176.3125,92.8594 Q1176.9688,93.0156 1177.5156,93.375 Z " fill="#000000"/><text fill="#000000" font-family="sans-serif" font-size="14" lengthAdjust="spacing" textLength="79" x="1195.25" y="103.2969">Repositories</text><line style="stroke:#181818;stroke-width:0.5;" x1="1122.5" x2="1314.5" y1="113.5" y2="113.5"/><line style="stroke:#181818;stroke-width:0.5;" x1="1122.5" x2="1314.5" y1="121.5" y2="121.5"/><text fill="#000000" font-family="sans-serif" font-size="14" lengthAdjust="spacing" textLength="94" x="1127.5" y="140.6074">-Repositories()</text><text fill="#000000" font-family="sans-serif" font-size="14" lengthAdjust="spacing" textLength="182" x="1127.5" y="159.2285">+getInstance() : Repositories</text><text fill="#000000" font-family="sans-serif" font-size="14" lengthAdjust="spacing" textLength="128" x="1127.5" y="177.8496">+getJobRepository()</text></g><!--class JobRepository--><g id="elem_JobRepository"><rect codeLine="52" fill="#F1F1F1" height="122.4844" id="JobRepository" rx="2.5" ry="2.5" style="stroke:#181818;stroke-width:0.5;" width="127" x="870" y="339"/><ellipse cx="887.25" cy="355" fill="#ADD1B2" rx="11" ry="11" style="stroke:#181818;stroke-width:1.0;"/><path d="M890.0156,350.875 Q890.1719,350.6563 890.3594,350.5469 Q890.5469,350.4375 890.7656,350.4375 Q891.1406,350.4375 891.375,350.7031 Q891.6094,350.9531 891.6094,351.5625 L891.6094,353.0156 Q891.6094,353.625 891.375,353.8906 Q891.1406,354.1563 890.7656,354.1563 Q890.4219,354.1563 890.2188,353.9531 Q890.0156,353.7656 889.9063,353.25 Q889.8594,352.8906 889.6719,352.7031 Q889.3438,352.3281 888.7344,352.1094 Q888.125,351.8906 887.5,351.8906 Q886.7344,351.8906 886.0938,352.2188 Q885.4688,352.5469 884.9688,353.2969 Q884.4844,354.0469 884.4844,355.0781 L884.4844,356.1719 Q884.4844,357.4063 885.375,358.2344 Q886.2656,359.0469 887.8594,359.0469 Q888.7969,359.0469 889.4531,358.7969 Q889.8438,358.6406 890.2656,358.2031 Q890.5313,357.9375 890.6719,357.8594 Q890.8281,357.7813 891.0313,357.7813 Q891.3594,357.7813 891.6094,358.0469 Q891.875,358.2969 891.875,358.6406 Q891.875,358.9844 891.5313,359.3906 Q891.0313,359.9688 890.2344,360.2969 Q889.1563,360.75 887.8594,360.75 Q886.3438,360.75 885.1406,360.125 Q884.1563,359.625 883.4688,358.5625 Q882.7813,357.4844 882.7813,356.2031 L882.7813,355.0469 Q882.7813,353.7188 883.3906,352.5781 Q884.0156,351.4219 885.1094,350.8125 Q886.2031,350.1875 887.4375,350.1875 Q888.1719,350.1875 888.8125,350.3594 Q889.4688,350.5156 890.0156,350.875 Z " fill="#000000"/><text fill="#000000" font-family="sans-serif" font-size="14" lengthAdjust="spacing" textLength="90" x="901.75" y="360.7969">JobRepository</text><line style="stroke:#181818;stroke-width:0.5;" x1="871" x2="996" y1="371" y2="371"/><text fill="#000000" font-family="sans-serif" font-size="14" lengthAdjust="spacing" textLength="88" x="876" y="390.1074">-List&lt;Job&gt; job</text><line style="stroke:#181818;stroke-width:0.5;" x1="871" x2="996" y1="397.6211" y2="397.6211"/><text fill="#000000" font-family="sans-serif" font-size="14" lengthAdjust="spacing" textLength="80" x="876" y="416.7285">-addJob(job)</text><text fill="#000000" font-family="sans-serif" font-size="14" lengthAdjust="spacing" textLength="105" x="876" y="435.3496">-validateJob(job)</text><text fill="#000000" font-family="sans-serif" font-size="14" lengthAdjust="spacing" textLength="115" x="876" y="453.9707">+createJob(name)</text></g><!--link RegisterJobController to Repositories--><g id="link_RegisterJobController_Repositories"><path codeLine="60" d="M1018.24,133.5 C1050.64,133.5 1081.85,133.5 1115.33,133.5 " fill="none" id="RegisterJobController-to-Repositories" style="stroke:#181818;stroke-width:1.0;stroke-dasharray:7.0,7.0;"/><polygon fill="#181818" points="1121.33,133.5,1112.33,129.5,1116.33,133.5,1112.33,137.5,1121.33,133.5" style="stroke:#181818;stroke-width:1.0;"/><text fill="#000000" font-family="sans-serif" font-size="13" lengthAdjust="spacing" textLength="67" x="1036.25" y="126.5283">repositories</text></g><!--link RegisterJobController to Job--><g id="link_RegisterJobController_Job"><path codeLine="61" d="M915.13,176.22 C878.21,260.08 797.5177,443.3287 757.4177,534.4087 " fill="none" id="RegisterJobController-to-Job" style="stroke:#181818;stroke-width:1.0;stroke-dasharray:7.0,7.0;"/><polygon fill="#181818" points="755,539.9,762.2874,533.2748,757.0147,535.3239,754.9656,530.0512,755,539.9" style="stroke:#181818;stroke-width:1.0;"/><text fill="#000000" font-family="sans-serif" font-size="13" lengthAdjust="spacing" textLength="7" x="750.5531" y="528.8139">1</text></g><!--link RegisterJobController to JobRepository--><g id="link_RegisterJobController_JobRepository"><path codeLine="62" d="M933.5,176.12 C933.5,219.91 933.5,283.24 933.5,332.95 " fill="none" id="RegisterJobController-to-JobRepository" style="stroke:#181818;stroke-width:1.0;stroke-dasharray:7.0,7.0;"/><polygon fill="#181818" points="933.5,338.95,937.5,329.95,933.5,333.95,929.5,329.95,933.5,338.95" style="stroke:#181818;stroke-width:1.0;"/><text fill="#000000" font-family="sans-serif" font-size="13" lengthAdjust="spacing" textLength="7" x="926.0953" y="327.9254">1</text></g><!--link RegisterJobUI to RegisterJobController--><g id="link_RegisterJobUI_RegisterJobController"><path codeLine="64" d="M814,133.5 C814.11,133.5 814.17,133.5 814.17,133.5 C814.17,133.5 826.52,133.5 842.88,133.5 " fill="none" id="RegisterJobUI-to-RegisterJobController" style="stroke:#181818;stroke-width:1.0;stroke-dasharray:7.0,7.0;"/><polygon fill="#181818" points="848.88,133.5,839.88,129.5,843.88,133.5,839.88,137.5,848.88,133.5" style="stroke:#181818;stroke-width:1.0;"/></g><!--link Repositories to Repositories--><g id="link_Repositories_Repositories"><path codeLine="66" d="M1315.78,103.47 C1335.98,106.63 1350.5,116.64 1350.5,133.5 C1350.5,150.36 1341.9079,159.4427 1321.7079,162.6027 " fill="none" id="Repositories-to-Repositories" style="stroke:#181818;stroke-width:1.0;"/><polygon fill="#181818" points="1315.78,163.53,1325.2901,166.0909,1320.7199,162.7572,1324.0536,158.1871,1315.78,163.53" style="stroke:#181818;stroke-width:1.0;"/><text fill="#000000" font-family="sans-serif" font-size="13" lengthAdjust="spacing" textLength="49" x="1356.5" y="139.0283">instance</text></g><!--link Repositories to JobRepository--><g id="link_Repositories_JobRepository"><path codeLine="67" d="M1163.21,185.81 C1115.62,229.98 1051.3376,289.6382 1001.4876,335.9082 " fill="none" id="Repositories-to-JobRepository" style="stroke:#181818;stroke-width:1.0;"/><polygon fill="#181818" points="997.09,339.99,1006.4076,336.7991,1000.7547,336.5885,1000.9652,330.9356,997.09,339.99" style="stroke:#181818;stroke-width:1.0;"/><text fill="#000000" font-family="sans-serif" font-size="13" lengthAdjust="spacing" textLength="79" x="1051.5" y="305.0283">jobRepository</text><text fill="#000000" font-family="sans-serif" font-size="13" lengthAdjust="spacing" textLength="7" x="1004.8473" y="329.0857">1</text></g><!--link JobRepository to Job--><g id="link_JobRepository_Job"><path codeLine="69" d="M874.92,461.24 C850.4,486.45 827.5,510 827.5,510 C827.5,510 815.1556,520.527 795.6056,537.197 " fill="none" id="JobRepository-to-Job" style="stroke:#181818;stroke-width:1.0;"/><polygon fill="#181818" points="791.04,541.09,800.4837,538.2942,794.8447,537.8458,795.293,532.2068,791.04,541.09" style="stroke:#181818;stroke-width:1.0;"/><text fill="#000000" font-family="sans-serif" font-size="13" lengthAdjust="spacing" textLength="17" x="846.5" y="506.0283">job</text><text fill="#000000" font-family="sans-serif" font-size="13" lengthAdjust="spacing" textLength="5" x="798.8607" y="530.5338">*</text></g><!--reverse link Collaborator to HumanResourcesManager--><g id="link_Collaborator_HumanResourcesManager"><path codeLine="71" d="M404.2497,276.2748 C426.3397,320.5248 440.88,349.66 454.02,376 " fill="none" id="Collaborator-backto-HumanResourcesManager" style="stroke:#181818;stroke-width:1.0;"/><polygon fill="none" points="396.21,260.17,398.8814,278.9547,409.6179,273.5949,396.21,260.17" style="stroke:#181818;stroke-width:1.0;"/></g><!--link Collaborator to Job--><g id="link_Collaborator_Job"><path codeLine="72" d="M486.59,260.23 C537.98,302.43 582.5,339 582.5,339 C582.5,339 655.0415,460.864 698.8915,534.544 " fill="none" id="Collaborator-to-Job" style="stroke:#181818;stroke-width:1.0;"/><polygon fill="#181818" points="701.96,539.7,700.7945,529.9203,699.4029,535.4034,693.9199,534.0117,701.96,539.7" style="stroke:#181818;stroke-width:1.0;"/><text fill="#000000" font-family="sans-serif" font-size="13" lengthAdjust="spacing" textLength="24" x="656.5" y="405.5283">jobs</text><text fill="#000000" font-family="sans-serif" font-size="13" lengthAdjust="spacing" textLength="20" x="474.4152" y="281.6663">1..*</text><text fill="#000000" font-family="sans-serif" font-size="13" lengthAdjust="spacing" textLength="7" x="690.3859" y="528.5871">1</text></g><!--reverse link HumanResourcesManager to Job--><g id="link_HumanResourcesManager_Job"><path codeLine="74" d="M500.1473,427.7892 C541.5373,459.7792 606.5,510 606.5,510 C606.5,510 641.02,532.19 673.93,553.35 " fill="none" id="HumanResourcesManager-backto-Job" style="stroke:#181818;stroke-width:1.0;"/><polygon fill="#181818" points="495.4,424.12,500.0749,432.7886,499.3561,427.1776,504.9671,426.4589,495.4,424.12" style="stroke:#181818;stroke-width:1.0;"/><text fill="#000000" font-family="sans-serif" font-size="13" lengthAdjust="spacing" textLength="59" x="607.5" y="506.0283">createdBy</text></g><!--SRC=[XLFBhfim4DtxAwnialH2rBkDeaZtiRYf-f0IzGCCJC0tnaQsQKiV_zun3iHkNPKD-9mpCsV6mz9SkEoOPYrjbLHberKBrEeUo8tfM7bXDPpi881gA2sJjGW5fc6L-ifbJSzCc90HN88TEg2T4eCxa6M2LDeg4aILWXdpOAtcHM_XK2fvuj-1lYLaAU1igLLKyxgnjEBE3bUIa366lbC5_K4eFla9mz6HP2sG4Rb3SkMEQo_umWIlc0K7lwfYJNvDMOvGSsD18_EafDLA2D2OrwT9iYkVz4xVo6kjLDRF1yms4q-OWHLACwjqolq8lCVOtUd2XTXJuruEy9Hh6XlmXsViYBgsFfqVkRPDWBAgvSRWjDp9umzLfG4jCF- -YbNPjo1nlDUFo5BNA0aV-xO07U7GCYuymZ7MicyT6r3Zvn8rEKuc2rrciRbiCfJD7hAmSEQhPNELOCmlVSla4OpgTGdc0vEukZeSzn4wPJZQu62cIyr3SBhB6kn16jps4bPhkeq2PmKEVyQ7LU0Z8gPh7MyHcVruOHx3LkSLJ2_cMAlKSCNclKhlwMOVjxZ5VpOm_eyWZ5hSBvph_ojkVKKUSAl7sebefmiivNzPvDT1_w7B4pLH_HfxYEanwCqOvAM4H7yOtVtCSvhUarYvkDziC57WmYSqXAItRESIesnB_MrLZmFv3G00]--></g></svg>