<?xml version="1.0" encoding="us-ascii" standalone="no"?><svg xmlns="http://www.w3.org/2000/svg" xmlns:xlink="http://www.w3.org/1999/xlink" contentStyleType="text/css" height="1421px" preserveAspectRatio="none" style="width:1604px;height:1421px;background:#FFFFFF;" version="1.1" viewBox="0 0 1604 1421" width="1604px" zoomAndPan="magnify"><defs/><g><text fill="#000000" font-family="sans-serif" font-size="14" font-weight="bold" lengthAdjust="spacing" textLength="412" x="595" y="30.1074">UI Sequence Diagram (SSD) - US23 - Assign Team in Entries</text><rect fill="#FFFFFF" height="1186.6699" style="stroke:#181818;stroke-width:1.0;" width="10" x="97.5" y="133.2422"/><rect fill="#FFFFFF" height="582.5488" style="stroke:#181818;stroke-width:1.0;" width="10" x="481.5" y="156.5332"/><rect fill="#FFFFFF" height="281.6191" style="stroke:#181818;stroke-width:1.0;" width="10" x="481.5" y="770.373"/><rect fill="#FFFFFF" height="31.291" style="stroke:#181818;stroke-width:1.0;" width="10" x="481.5" y="1083.2832"/><rect fill="#FFFFFF" height="174.0469" style="stroke:#181818;stroke-width:1.0;" width="10" x="481.5" y="1145.8652"/><rect fill="#FFFFFF" height="519.9668" style="stroke:#181818;stroke-width:1.0;" width="10" x="692.5" y="187.8242"/><rect fill="#FFFFFF" height="122.4648" style="stroke:#181818;stroke-width:1.0;" width="10" x="697.5" y="227.1152"/><rect fill="#FFFFFF" height="104.873" style="stroke:#181818;stroke-width:1.0;" width="10" x="697.5" y="395.8711"/><rect fill="#FFFFFF" height="122.4648" style="stroke:#181818;stroke-width:1.0;" width="10" x="697.5" y="547.0352"/><rect fill="#FFFFFF" height="219.0371" style="stroke:#181818;stroke-width:1.0;" width="10" x="692.5" y="801.6641"/><rect fill="#FFFFFF" height="111.4648" style="stroke:#181818;stroke-width:1.0;" width="10" x="692.5" y="1177.1563"/><rect fill="#FFFFFF" height="31.291" style="stroke:#181818;stroke-width:1.0;" width="10" x="1005.5" y="832.9551"/><rect fill="#FFFFFF" height="31.291" style="stroke:#181818;stroke-width:1.0;" width="10" x="1112.5" y="895.5371"/><rect fill="#FFFFFF" height="31.291" style="stroke:#181818;stroke-width:1.0;" width="10" x="1232" y="958.1191"/><rect fill="#FFFFFF" height="31.291" style="stroke:#181818;stroke-width:1.0;" width="10" x="1516" y="432.1621"/><line style="stroke:#181818;stroke-width:0.5;stroke-dasharray:5.0,5.0;" x1="102" x2="102" y1="123.2422" y2="1337.9121"/><line style="stroke:#181818;stroke-width:0.5;stroke-dasharray:5.0,5.0;" x1="486" x2="486" y1="123.2422" y2="1337.9121"/><line style="stroke:#181818;stroke-width:0.5;stroke-dasharray:5.0,5.0;" x1="697" x2="697" y1="123.2422" y2="1337.9121"/><line style="stroke:#181818;stroke-width:0.5;stroke-dasharray:5.0,5.0;" x1="1010" x2="1010" y1="123.2422" y2="1337.9121"/><line style="stroke:#181818;stroke-width:0.5;stroke-dasharray:5.0,5.0;" x1="1117" x2="1117" y1="123.2422" y2="1337.9121"/><line style="stroke:#181818;stroke-width:0.5;stroke-dasharray:5.0,5.0;" x1="1237" x2="1237" y1="123.2422" y2="1337.9121"/><line style="stroke:#181818;stroke-width:0.5;stroke-dasharray:5.0,5.0;" x1="1341" x2="1341" y1="123.2422" y2="1337.9121"/><line style="stroke:#181818;stroke-width:0.5;stroke-dasharray:5.0,5.0;" x1="1409" x2="1409" y1="123.2422" y2="1337.9121"/><line style="stroke:#181818;stroke-width:0.5;stroke-dasharray:5.0,5.0;" x1="1521" x2="1521" y1="123.2422" y2="1337.9121"/><text fill="#000000" font-family="sans-serif" font-size="14" lengthAdjust="spacing" textLength="189" x="5" y="119.7285">Green Space Manager (GSM)</text><ellipse cx="102.5" cy="53.1211" fill="#E3E3E3" rx="8" ry="8" style="stroke:#181818;stroke-width:0.5;"/><path d="M102.5,61.1211 L102.5,88.1211 M89.5,69.1211 L115.5,69.1211 M102.5,88.1211 L89.5,103.1211 M102.5,88.1211 L115.5,103.1211 " fill="none" style="stroke:#181818;stroke-width:0.5;"/><text fill="#000000" font-family="sans-serif" font-size="14" lengthAdjust="spacing" textLength="189" x="5" y="1352.0195">Green Space Manager (GSM)</text><ellipse cx="102.5" cy="1364.0332" fill="#E3E3E3" rx="8" ry="8" style="stroke:#181818;stroke-width:0.5;"/><path d="M102.5,1372.0332 L102.5,1399.0332 M89.5,1380.0332 L115.5,1380.0332 M102.5,1399.0332 L89.5,1414.0332 M102.5,1399.0332 L115.5,1414.0332 " fill="none" style="stroke:#181818;stroke-width:0.5;"/><rect fill="#E3E3E3" height="32.6211" rx="2.5" ry="2.5" style="stroke:#181818;stroke-width:0.5;" width="157" x="408" y="89.6211"/><text fill="#000000" font-family="sans-serif" font-size="14" lengthAdjust="spacing" textLength="143" x="415" y="111.7285">:AssignTeamAgendaUI</text><rect fill="#E3E3E3" height="32.6211" rx="2.5" ry="2.5" style="stroke:#181818;stroke-width:0.5;" width="157" x="408" y="1336.9121"/><text fill="#000000" font-family="sans-serif" font-size="14" lengthAdjust="spacing" textLength="143" x="415" y="1359.0195">:AssignTeamAgendaUI</text><rect fill="#E3E3E3" height="32.6211" rx="2.5" ry="2.5" style="stroke:#181818;stroke-width:0.5;" width="207" x="594" y="89.6211"/><text fill="#000000" font-family="sans-serif" font-size="14" lengthAdjust="spacing" textLength="193" x="601" y="111.7285">:AssignTeamAgendaController</text><rect fill="#E3E3E3" height="32.6211" rx="2.5" ry="2.5" style="stroke:#181818;stroke-width:0.5;" width="207" x="594" y="1336.9121"/><text fill="#000000" font-family="sans-serif" font-size="14" lengthAdjust="spacing" textLength="193" x="601" y="1359.0195">:AssignTeamAgendaController</text><rect fill="#E3E3E3" height="32.6211" rx="2.5" ry="2.5" style="stroke:#181818;stroke-width:0.5;" width="97" x="962" y="89.6211"/><text fill="#000000" font-family="sans-serif" font-size="14" lengthAdjust="spacing" textLength="83" x="969" y="111.7285">:Repositories</text><rect fill="#E3E3E3" height="32.6211" rx="2.5" ry="2.5" style="stroke:#181818;stroke-width:0.5;" width="97" x="962" y="1336.9121"/><text fill="#000000" font-family="sans-serif" font-size="14" lengthAdjust="spacing" textLength="83" x="969" y="1359.0195">:Repositories</text><rect fill="#E3E3E3" height="51.2422" rx="2.5" ry="2.5" style="stroke:#181818;stroke-width:0.5;" width="97" x="1069" y="71"/><text fill="#000000" font-family="sans-serif" font-size="14" lengthAdjust="spacing" textLength="74" x="1080.5" y="93.1074">repositories</text><text fill="#000000" font-family="sans-serif" font-size="14" lengthAdjust="spacing" textLength="83" x="1076" y="111.7285">:Repositories</text><rect fill="#E3E3E3" height="51.2422" rx="2.5" ry="2.5" style="stroke:#181818;stroke-width:0.5;" width="97" x="1069" y="1336.9121"/><text fill="#000000" font-family="sans-serif" font-size="14" lengthAdjust="spacing" textLength="74" x="1080.5" y="1359.0195">repositories</text><text fill="#000000" font-family="sans-serif" font-size="14" lengthAdjust="spacing" textLength="83" x="1076" y="1377.6406">:Repositories</text><rect fill="#E3E3E3" height="51.2422" rx="2.5" ry="2.5" style="stroke:#181818;stroke-width:0.5;" width="122" x="1176" y="71"/><text fill="#000000" font-family="sans-serif" font-size="14" lengthAdjust="spacing" textLength="99" x="1187.5" y="93.1074">teamRepository</text><text fill="#000000" font-family="sans-serif" font-size="14" lengthAdjust="spacing" textLength="108" x="1183" y="111.7285">:TeamRepository</text><rect fill="#E3E3E3" height="51.2422" rx="2.5" ry="2.5" style="stroke:#181818;stroke-width:0.5;" width="122" x="1176" y="1336.9121"/><text fill="#000000" font-family="sans-serif" font-size="14" lengthAdjust="spacing" textLength="99" x="1187.5" y="1359.0195">teamRepository</text><text fill="#000000" font-family="sans-serif" font-size="14" lengthAdjust="spacing" textLength="108" x="1183" y="1377.6406">:TeamRepository</text><rect fill="#E3E3E3" height="51.2422" rx="2.5" ry="2.5" style="stroke:#181818;stroke-width:0.5;" width="67" x="1308" y="71"/><text fill="#000000" font-family="sans-serif" font-size="14" lengthAdjust="spacing" textLength="48" x="1317.5" y="93.1074">agenda</text><text fill="#000000" font-family="sans-serif" font-size="14" lengthAdjust="spacing" textLength="53" x="1315" y="111.7285">:Agenda</text><rect fill="#E3E3E3" height="51.2422" rx="2.5" ry="2.5" style="stroke:#181818;stroke-width:0.5;" width="67" x="1308" y="1336.9121"/><text fill="#000000" font-family="sans-serif" font-size="14" lengthAdjust="spacing" textLength="48" x="1317.5" y="1359.0195">agenda</text><text fill="#000000" font-family="sans-serif" font-size="14" lengthAdjust="spacing" textLength="53" x="1315" y="1377.6406">:Agenda</text><rect fill="#E3E3E3" height="51.2422" rx="2.5" ry="2.5" style="stroke:#181818;stroke-width:0.5;" width="49" x="1385" y="71"/><text fill="#000000" font-family="sans-serif" font-size="14" lengthAdjust="spacing" textLength="26" x="1396.5" y="93.1074">task</text><text fill="#000000" font-family="sans-serif" font-size="14" lengthAdjust="spacing" textLength="35" x="1392" y="111.7285">:Task</text><rect fill="#E3E3E3" height="51.2422" rx="2.5" ry="2.5" style="stroke:#181818;stroke-width:0.5;" width="49" x="1385" y="1336.9121"/><text fill="#000000" font-family="sans-serif" font-size="14" lengthAdjust="spacing" textLength="26" x="1396.5" y="1359.0195">task</text><text fill="#000000" font-family="sans-serif" font-size="14" lengthAdjust="spacing" textLength="35" x="1392" y="1377.6406">:Task</text><rect fill="#E3E3E3" height="51.2422" rx="2.5" ry="2.5" style="stroke:#181818;stroke-width:0.5;" width="154" x="1444" y="71"/><text fill="#000000" font-family="sans-serif" font-size="14" lengthAdjust="spacing" textLength="133" x="1454.5" y="93.1074">greenSpaceManager</text><text fill="#000000" font-family="sans-serif" font-size="14" lengthAdjust="spacing" textLength="140" x="1451" y="111.7285">:GreenSpaceManager</text><rect fill="#E3E3E3" height="51.2422" rx="2.5" ry="2.5" style="stroke:#181818;stroke-width:0.5;" width="154" x="1444" y="1336.9121"/><text fill="#000000" font-family="sans-serif" font-size="14" lengthAdjust="spacing" textLength="133" x="1454.5" y="1359.0195">greenSpaceManager</text><text fill="#000000" font-family="sans-serif" font-size="14" lengthAdjust="spacing" textLength="140" x="1451" y="1377.6406">:GreenSpaceManager</text><rect fill="#FFFFFF" height="1186.6699" style="stroke:#181818;stroke-width:1.0;" width="10" x="97.5" y="133.2422"/><rect fill="#FFFFFF" height="582.5488" style="stroke:#181818;stroke-width:1.0;" width="10" x="481.5" y="156.5332"/><rect fill="#FFFFFF" height="281.6191" style="stroke:#181818;stroke-width:1.0;" width="10" x="481.5" y="770.373"/><rect fill="#FFFFFF" height="31.291" style="stroke:#181818;stroke-width:1.0;" width="10" x="481.5" y="1083.2832"/><rect fill="#FFFFFF" height="174.0469" style="stroke:#181818;stroke-width:1.0;" width="10" x="481.5" y="1145.8652"/><rect fill="#FFFFFF" height="519.9668" style="stroke:#181818;stroke-width:1.0;" width="10" x="692.5" y="187.8242"/><rect fill="#FFFFFF" height="122.4648" style="stroke:#181818;stroke-width:1.0;" width="10" x="697.5" y="227.1152"/><rect fill="#FFFFFF" height="104.873" style="stroke:#181818;stroke-width:1.0;" width="10" x="697.5" y="395.8711"/><rect fill="#FFFFFF" height="122.4648" style="stroke:#181818;stroke-width:1.0;" width="10" x="697.5" y="547.0352"/><rect fill="#FFFFFF" height="219.0371" style="stroke:#181818;stroke-width:1.0;" width="10" x="692.5" y="801.6641"/><rect fill="#FFFFFF" height="111.4648" style="stroke:#181818;stroke-width:1.0;" width="10" x="692.5" y="1177.1563"/><rect fill="#FFFFFF" height="31.291" style="stroke:#181818;stroke-width:1.0;" width="10" x="1005.5" y="832.9551"/><rect fill="#FFFFFF" height="31.291" style="stroke:#181818;stroke-width:1.0;" width="10" x="1112.5" y="895.5371"/><rect fill="#FFFFFF" height="31.291" style="stroke:#181818;stroke-width:1.0;" width="10" x="1232" y="958.1191"/><rect fill="#FFFFFF" height="31.291" style="stroke:#181818;stroke-width:1.0;" width="10" x="1516" y="432.1621"/><polygon fill="#181818" points="469.5,152.5332,479.5,156.5332,469.5,160.5332,473.5,156.5332" style="stroke:#181818;stroke-width:1.0;"/><line style="stroke:#181818;stroke-width:1.0;" x1="107.5" x2="475.5" y1="156.5332" y2="156.5332"/><text fill="#000000" font-family="sans-serif" font-size="13" font-weight="bold" lengthAdjust="spacing" textLength="7" x="114.5" y="151.2705">1</text><text fill="#000000" font-family="sans-serif" font-size="13" lengthAdjust="spacing" textLength="253" x="125.5" y="151.2705">asks to assign Team to entry in the Agenda</text><polygon fill="#181818" points="680.5,183.8242,690.5,187.8242,680.5,191.8242,684.5,187.8242" style="stroke:#181818;stroke-width:1.0;"/><line style="stroke:#181818;stroke-width:1.0;" x1="491.5" x2="686.5" y1="187.8242" y2="187.8242"/><text fill="#000000" font-family="sans-serif" font-size="13" font-weight="bold" lengthAdjust="spacing" textLength="7" x="498.5" y="182.5615">2</text><text fill="#000000" font-family="sans-serif" font-size="13" lengthAdjust="spacing" textLength="115" x="509.5" y="182.5615">getAllTaskByGSM()</text><line style="stroke:#181818;stroke-width:1.0;" x1="702.5" x2="749.5" y1="214.1152" y2="214.1152"/><line style="stroke:#181818;stroke-width:1.0;" x1="749.5" x2="749.5" y1="214.1152" y2="227.1152"/><line style="stroke:#181818;stroke-width:1.0;" x1="708.5" x2="749.5" y1="227.1152" y2="227.1152"/><polygon fill="#181818" points="718.5,223.1152,708.5,227.1152,718.5,231.1152,714.5,227.1152" style="stroke:#181818;stroke-width:1.0;"/><text fill="#000000" font-family="sans-serif" font-size="13" font-weight="bold" lengthAdjust="spacing" textLength="7" x="714.5" y="208.8525">3</text><text fill="#000000" font-family="sans-serif" font-size="13" lengthAdjust="spacing" textLength="133" x="725.5" y="208.8525">getGSMFromSession()</text><rect fill="none" height="75.1738" style="stroke:#000000;stroke-width:1.5;" width="213" x="591" y="240.1152"/><path d="M591,240.1152 L653,240.1152 L653,249.1152 L643,259.1152 L591,259.1152 L591,240.1152 " fill="#EEEEEE" style="stroke:#000000;stroke-width:2.0;"/><text fill="#000000" font-family="sans-serif" font-size="13" font-weight="bold" lengthAdjust="spacing" textLength="17" x="604" y="256.1436">ref</text><text fill="#000000" font-family="sans-serif" font-size="12" lengthAdjust="spacing" textLength="3" x="696" y="276.0645">&#160;</text><text fill="#000000" font-family="sans-serif" font-size="12" lengthAdjust="spacing" textLength="139" x="628" y="292.0254">Get GreenSpaceManager</text><text fill="#000000" font-family="sans-serif" font-size="12" lengthAdjust="spacing" textLength="3" x="696" y="307.9863">&#160;</text><line style="stroke:#181818;stroke-width:1.0;stroke-dasharray:2.0,2.0;" x1="707.5" x2="749.5" y1="348.5801" y2="348.5801"/><line style="stroke:#181818;stroke-width:1.0;stroke-dasharray:2.0,2.0;" x1="749.5" x2="749.5" y1="348.5801" y2="361.5801"/><line style="stroke:#181818;stroke-width:1.0;stroke-dasharray:2.0,2.0;" x1="702.5" x2="749.5" y1="361.5801" y2="361.5801"/><polygon fill="#181818" points="712.5,357.5801,702.5,361.5801,712.5,365.5801,708.5,361.5801" style="stroke:#181818;stroke-width:1.0;"/><text fill="#000000" font-family="sans-serif" font-size="13" font-weight="bold" lengthAdjust="spacing" textLength="7" x="714.5" y="343.3174">4</text><text fill="#000000" font-family="sans-serif" font-size="13" lengthAdjust="spacing" textLength="119" x="725.5" y="343.3174">greenSpaceManager</text><line style="stroke:#181818;stroke-width:1.0;" x1="702.5" x2="749.5" y1="382.8711" y2="382.8711"/><line style="stroke:#181818;stroke-width:1.0;" x1="749.5" x2="749.5" y1="382.8711" y2="395.8711"/><line style="stroke:#181818;stroke-width:1.0;" x1="708.5" x2="749.5" y1="395.8711" y2="395.8711"/><polygon fill="#181818" points="718.5,391.8711,708.5,395.8711,718.5,399.8711,714.5,395.8711" style="stroke:#181818;stroke-width:1.0;"/><text fill="#000000" font-family="sans-serif" font-size="13" font-weight="bold" lengthAdjust="spacing" textLength="7" x="714.5" y="377.6084">5</text><text fill="#000000" font-family="sans-serif" font-size="13" lengthAdjust="spacing" textLength="278" x="725.5" y="377.6084">getAllGreenSpaceByGSM(greenSpaceManager)</text><polygon fill="#181818" points="1504,428.1621,1514,432.1621,1504,436.1621,1508,432.1621" style="stroke:#181818;stroke-width:1.0;"/><line style="stroke:#181818;stroke-width:1.0;" x1="707.5" x2="1510" y1="432.1621" y2="432.1621"/><text fill="#000000" font-family="sans-serif" font-size="13" font-weight="bold" lengthAdjust="spacing" textLength="7" x="714.5" y="426.8994">6</text><text fill="#000000" font-family="sans-serif" font-size="13" lengthAdjust="spacing" textLength="119" x="725.5" y="426.8994">getListGreenSpace()</text><polygon fill="#181818" points="718.5,459.4531,708.5,463.4531,718.5,467.4531,714.5,463.4531" style="stroke:#181818;stroke-width:1.0;"/><line style="stroke:#181818;stroke-width:1.0;stroke-dasharray:2.0,2.0;" x1="712.5" x2="1520" y1="463.4531" y2="463.4531"/><text fill="#000000" font-family="sans-serif" font-size="13" font-weight="bold" lengthAdjust="spacing" textLength="7" x="724.5" y="458.1904">7</text><text fill="#000000" font-family="sans-serif" font-size="13" lengthAdjust="spacing" textLength="94" x="735.5" y="458.1904">List greenSpace</text><line style="stroke:#181818;stroke-width:1.0;stroke-dasharray:2.0,2.0;" x1="707.5" x2="749.5" y1="499.7441" y2="499.7441"/><line style="stroke:#181818;stroke-width:1.0;stroke-dasharray:2.0,2.0;" x1="749.5" x2="749.5" y1="499.7441" y2="512.7441"/><line style="stroke:#181818;stroke-width:1.0;stroke-dasharray:2.0,2.0;" x1="702.5" x2="749.5" y1="512.7441" y2="512.7441"/><polygon fill="#181818" points="712.5,508.7441,702.5,512.7441,712.5,516.7441,708.5,512.7441" style="stroke:#181818;stroke-width:1.0;"/><text fill="#000000" font-family="sans-serif" font-size="13" font-weight="bold" lengthAdjust="spacing" textLength="7" x="714.5" y="494.4814">8</text><text fill="#000000" font-family="sans-serif" font-size="13" lengthAdjust="spacing" textLength="94" x="725.5" y="494.4814">List greenSpace</text><line style="stroke:#181818;stroke-width:1.0;" x1="702.5" x2="749.5" y1="534.0352" y2="534.0352"/><line style="stroke:#181818;stroke-width:1.0;" x1="749.5" x2="749.5" y1="534.0352" y2="547.0352"/><line style="stroke:#181818;stroke-width:1.0;" x1="708.5" x2="749.5" y1="547.0352" y2="547.0352"/><polygon fill="#181818" points="718.5,543.0352,708.5,547.0352,718.5,551.0352,714.5,547.0352" style="stroke:#181818;stroke-width:1.0;"/><text fill="#000000" font-family="sans-serif" font-size="13" font-weight="bold" lengthAdjust="spacing" textLength="7" x="714.5" y="528.7725">9</text><text fill="#000000" font-family="sans-serif" font-size="13" lengthAdjust="spacing" textLength="246" x="725.5" y="528.7725">getAllTaskByGreenSpace(listGreenSpace)</text><rect fill="none" height="75.1738" style="stroke:#000000;stroke-width:1.5;" width="213" x="591" y="560.0352"/><path d="M591,560.0352 L653,560.0352 L653,569.0352 L643,579.0352 L591,579.0352 L591,560.0352 " fill="#EEEEEE" style="stroke:#000000;stroke-width:2.0;"/><text fill="#000000" font-family="sans-serif" font-size="13" font-weight="bold" lengthAdjust="spacing" textLength="17" x="604" y="576.0635">ref</text><text fill="#000000" font-family="sans-serif" font-size="12" lengthAdjust="spacing" textLength="3" x="696" y="595.9844">&#160;</text><text fill="#000000" font-family="sans-serif" font-size="12" lengthAdjust="spacing" textLength="153" x="621" y="611.9453">Get All Task By GreenSpace</text><text fill="#000000" font-family="sans-serif" font-size="12" lengthAdjust="spacing" textLength="3" x="696" y="627.9063">&#160;</text><line style="stroke:#181818;stroke-width:1.0;stroke-dasharray:2.0,2.0;" x1="707.5" x2="749.5" y1="668.5" y2="668.5"/><line style="stroke:#181818;stroke-width:1.0;stroke-dasharray:2.0,2.0;" x1="749.5" x2="749.5" y1="668.5" y2="681.5"/><line style="stroke:#181818;stroke-width:1.0;stroke-dasharray:2.0,2.0;" x1="702.5" x2="749.5" y1="681.5" y2="681.5"/><polygon fill="#181818" points="712.5,677.5,702.5,681.5,712.5,685.5,708.5,681.5" style="stroke:#181818;stroke-width:1.0;"/><text fill="#000000" font-family="sans-serif" font-size="13" font-weight="bold" lengthAdjust="spacing" textLength="14" x="714.5" y="663.2373">10</text><text fill="#000000" font-family="sans-serif" font-size="13" lengthAdjust="spacing" textLength="45" x="732.5" y="663.2373">listTask</text><polygon fill="#181818" points="502.5,703.791,492.5,707.791,502.5,711.791,498.5,707.791" style="stroke:#181818;stroke-width:1.0;"/><line style="stroke:#181818;stroke-width:1.0;stroke-dasharray:2.0,2.0;" x1="496.5" x2="696.5" y1="707.791" y2="707.791"/><text fill="#000000" font-family="sans-serif" font-size="13" font-weight="bold" lengthAdjust="spacing" textLength="14" x="508.5" y="702.5283">11</text><text fill="#000000" font-family="sans-serif" font-size="13" lengthAdjust="spacing" textLength="45" x="526.5" y="702.5283">listTask</text><polygon fill="#181818" points="118.5,735.082,108.5,739.082,118.5,743.082,114.5,739.082" style="stroke:#181818;stroke-width:1.0;"/><line style="stroke:#181818;stroke-width:1.0;stroke-dasharray:2.0,2.0;" x1="112.5" x2="485.5" y1="739.082" y2="739.082"/><text fill="#000000" font-family="sans-serif" font-size="13" font-weight="bold" lengthAdjust="spacing" textLength="14" x="124.5" y="733.8193">12</text><text fill="#000000" font-family="sans-serif" font-size="13" lengthAdjust="spacing" textLength="218" x="142.5" y="733.8193">Show Task List and ask to select one</text><polygon fill="#181818" points="469.5,766.373,479.5,770.373,469.5,774.373,473.5,770.373" style="stroke:#181818;stroke-width:1.0;"/><line style="stroke:#181818;stroke-width:1.0;" x1="107.5" x2="475.5" y1="770.373" y2="770.373"/><text fill="#000000" font-family="sans-serif" font-size="13" font-weight="bold" lengthAdjust="spacing" textLength="14" x="114.5" y="765.1104">13</text><text fill="#000000" font-family="sans-serif" font-size="13" lengthAdjust="spacing" textLength="65" x="132.5" y="765.1104">type a task</text><polygon fill="#181818" points="680.5,797.6641,690.5,801.6641,680.5,805.6641,684.5,801.6641" style="stroke:#181818;stroke-width:1.0;"/><line style="stroke:#181818;stroke-width:1.0;" x1="491.5" x2="686.5" y1="801.6641" y2="801.6641"/><text fill="#000000" font-family="sans-serif" font-size="13" font-weight="bold" lengthAdjust="spacing" textLength="14" x="498.5" y="796.4014">14</text><text fill="#000000" font-family="sans-serif" font-size="13" lengthAdjust="spacing" textLength="80" x="516.5" y="796.4014">getAllTeams()</text><polygon fill="#181818" points="993.5,828.9551,1003.5,832.9551,993.5,836.9551,997.5,832.9551" style="stroke:#181818;stroke-width:1.0;"/><line style="stroke:#181818;stroke-width:1.0;" x1="702.5" x2="999.5" y1="832.9551" y2="832.9551"/><text fill="#000000" font-family="sans-serif" font-size="13" font-weight="bold" lengthAdjust="spacing" textLength="14" x="709.5" y="827.6924">15</text><text fill="#000000" font-family="sans-serif" font-size="13" lengthAdjust="spacing" textLength="75" x="727.5" y="827.6924">getInstance()</text><polygon fill="#181818" points="713.5,860.2461,703.5,864.2461,713.5,868.2461,709.5,864.2461" style="stroke:#181818;stroke-width:1.0;"/><line style="stroke:#181818;stroke-width:1.0;stroke-dasharray:2.0,2.0;" x1="707.5" x2="1009.5" y1="864.2461" y2="864.2461"/><text fill="#000000" font-family="sans-serif" font-size="13" font-weight="bold" lengthAdjust="spacing" textLength="14" x="719.5" y="858.9834">16</text><text fill="#000000" font-family="sans-serif" font-size="13" lengthAdjust="spacing" textLength="67" x="737.5" y="858.9834">repositories</text><polygon fill="#181818" points="1100.5,891.5371,1110.5,895.5371,1100.5,899.5371,1104.5,895.5371" style="stroke:#181818;stroke-width:1.0;"/><line style="stroke:#181818;stroke-width:1.0;" x1="702.5" x2="1106.5" y1="895.5371" y2="895.5371"/><text fill="#000000" font-family="sans-serif" font-size="13" font-weight="bold" lengthAdjust="spacing" textLength="14" x="709.5" y="890.2744">17</text><text fill="#000000" font-family="sans-serif" font-size="13" lengthAdjust="spacing" textLength="120" x="727.5" y="890.2744">getTeamRepository()</text><polygon fill="#181818" points="713.5,922.8281,703.5,926.8281,713.5,930.8281,709.5,926.8281" style="stroke:#181818;stroke-width:1.0;"/><line style="stroke:#181818;stroke-width:1.0;stroke-dasharray:2.0,2.0;" x1="707.5" x2="1116.5" y1="926.8281" y2="926.8281"/><text fill="#000000" font-family="sans-serif" font-size="13" font-weight="bold" lengthAdjust="spacing" textLength="14" x="719.5" y="921.5654">18</text><text fill="#000000" font-family="sans-serif" font-size="13" lengthAdjust="spacing" textLength="91" x="737.5" y="921.5654">teamRepository</text><polygon fill="#181818" points="1220,954.1191,1230,958.1191,1220,962.1191,1224,958.1191" style="stroke:#181818;stroke-width:1.0;"/><line style="stroke:#181818;stroke-width:1.0;" x1="702.5" x2="1226" y1="958.1191" y2="958.1191"/><text fill="#000000" font-family="sans-serif" font-size="13" font-weight="bold" lengthAdjust="spacing" textLength="14" x="709.5" y="952.8564">19</text><text fill="#000000" font-family="sans-serif" font-size="13" lengthAdjust="spacing" textLength="80" x="727.5" y="952.8564">getAllTeams()</text><polygon fill="#181818" points="713.5,985.4102,703.5,989.4102,713.5,993.4102,709.5,989.4102" style="stroke:#181818;stroke-width:1.0;"/><line style="stroke:#181818;stroke-width:1.0;stroke-dasharray:2.0,2.0;" x1="707.5" x2="1236" y1="989.4102" y2="989.4102"/><text fill="#000000" font-family="sans-serif" font-size="13" font-weight="bold" lengthAdjust="spacing" textLength="14" x="719.5" y="984.1475">20</text><text fill="#000000" font-family="sans-serif" font-size="13" lengthAdjust="spacing" textLength="49" x="737.5" y="984.1475">listTeam</text><polygon fill="#181818" points="502.5,1016.7012,492.5,1020.7012,502.5,1024.7012,498.5,1020.7012" style="stroke:#181818;stroke-width:1.0;"/><line style="stroke:#181818;stroke-width:1.0;stroke-dasharray:2.0,2.0;" x1="496.5" x2="696.5" y1="1020.7012" y2="1020.7012"/><text fill="#000000" font-family="sans-serif" font-size="13" font-weight="bold" lengthAdjust="spacing" textLength="14" x="508.5" y="1015.4385">21</text><text fill="#000000" font-family="sans-serif" font-size="13" lengthAdjust="spacing" textLength="49" x="526.5" y="1015.4385">listTeam</text><polygon fill="#181818" points="118.5,1047.9922,108.5,1051.9922,118.5,1055.9922,114.5,1051.9922" style="stroke:#181818;stroke-width:1.0;"/><line style="stroke:#181818;stroke-width:1.0;stroke-dasharray:2.0,2.0;" x1="112.5" x2="485.5" y1="1051.9922" y2="1051.9922"/><text fill="#000000" font-family="sans-serif" font-size="13" font-weight="bold" lengthAdjust="spacing" textLength="14" x="124.5" y="1046.7295">22</text><text fill="#000000" font-family="sans-serif" font-size="13" lengthAdjust="spacing" textLength="332" x="142.5" y="1046.7295">show the list of the teams and ask to choose one of them</text><polygon fill="#181818" points="469.5,1079.2832,479.5,1083.2832,469.5,1087.2832,473.5,1083.2832" style="stroke:#181818;stroke-width:1.0;"/><line style="stroke:#181818;stroke-width:1.0;" x1="107.5" x2="475.5" y1="1083.2832" y2="1083.2832"/><text fill="#000000" font-family="sans-serif" font-size="13" font-weight="bold" lengthAdjust="spacing" textLength="14" x="114.5" y="1078.0205">23</text><text fill="#000000" font-family="sans-serif" font-size="13" lengthAdjust="spacing" textLength="69" x="132.5" y="1078.0205">type a team</text><polygon fill="#181818" points="118.5,1110.5742,108.5,1114.5742,118.5,1118.5742,114.5,1114.5742" style="stroke:#181818;stroke-width:1.0;"/><line style="stroke:#181818;stroke-width:1.0;stroke-dasharray:2.0,2.0;" x1="112.5" x2="485.5" y1="1114.5742" y2="1114.5742"/><text fill="#000000" font-family="sans-serif" font-size="13" font-weight="bold" lengthAdjust="spacing" textLength="14" x="124.5" y="1109.3115">24</text><text fill="#000000" font-family="sans-serif" font-size="13" lengthAdjust="spacing" textLength="222" x="142.5" y="1109.3115">show all data and request confirmation</text><polygon fill="#181818" points="469.5,1141.8652,479.5,1145.8652,469.5,1149.8652,473.5,1145.8652" style="stroke:#181818;stroke-width:1.0;"/><line style="stroke:#181818;stroke-width:1.0;" x1="107.5" x2="475.5" y1="1145.8652" y2="1145.8652"/><text fill="#000000" font-family="sans-serif" font-size="13" font-weight="bold" lengthAdjust="spacing" textLength="14" x="114.5" y="1140.6025">25</text><text fill="#000000" font-family="sans-serif" font-size="13" lengthAdjust="spacing" textLength="78" x="132.5" y="1140.6025">confirms data</text><polygon fill="#181818" points="680.5,1173.1563,690.5,1177.1563,680.5,1181.1563,684.5,1177.1563" style="stroke:#181818;stroke-width:1.0;"/><line style="stroke:#181818;stroke-width:1.0;" x1="491.5" x2="686.5" y1="1177.1563" y2="1177.1563"/><text fill="#000000" font-family="sans-serif" font-size="13" font-weight="bold" lengthAdjust="spacing" textLength="14" x="498.5" y="1171.8936">26</text><text fill="#000000" font-family="sans-serif" font-size="13" lengthAdjust="spacing" textLength="164" x="516.5" y="1171.8936">assignTeamTask(team,task)</text><rect fill="none" height="75.1738" style="stroke:#000000;stroke-width:1.5;" width="213" x="591" y="1185.1563"/><path d="M591,1185.1563 L653,1185.1563 L653,1194.1563 L643,1204.1563 L591,1204.1563 L591,1185.1563 " fill="#EEEEEE" style="stroke:#000000;stroke-width:2.0;"/><text fill="#000000" font-family="sans-serif" font-size="13" font-weight="bold" lengthAdjust="spacing" textLength="17" x="604" y="1201.1846">ref</text><text fill="#000000" font-family="sans-serif" font-size="12" lengthAdjust="spacing" textLength="3" x="696" y="1221.1055">&#160;</text><text fill="#000000" font-family="sans-serif" font-size="12" lengthAdjust="spacing" textLength="103" x="646" y="1237.0664">Assign Team Task</text><text fill="#000000" font-family="sans-serif" font-size="12" lengthAdjust="spacing" textLength="3" x="696" y="1253.0273">&#160;</text><polygon fill="#181818" points="502.5,1284.6211,492.5,1288.6211,502.5,1292.6211,498.5,1288.6211" style="stroke:#181818;stroke-width:1.0;"/><line style="stroke:#181818;stroke-width:1.0;stroke-dasharray:2.0,2.0;" x1="496.5" x2="696.5" y1="1288.6211" y2="1288.6211"/><text fill="#000000" font-family="sans-serif" font-size="13" font-weight="bold" lengthAdjust="spacing" textLength="14" x="508.5" y="1283.3584">27</text><text fill="#000000" font-family="sans-serif" font-size="13" lengthAdjust="spacing" textLength="53" x="526.5" y="1283.3584">true/false</text><polygon fill="#181818" points="113.5,1315.9121,103.5,1319.9121,113.5,1323.9121,109.5,1319.9121" style="stroke:#181818;stroke-width:1.0;"/><line style="stroke:#181818;stroke-width:1.0;stroke-dasharray:2.0,2.0;" x1="107.5" x2="485.5" y1="1319.9121" y2="1319.9121"/><text fill="#000000" font-family="sans-serif" font-size="13" font-weight="bold" lengthAdjust="spacing" textLength="14" x="119.5" y="1314.6494">28</text><text fill="#000000" font-family="sans-serif" font-size="13" lengthAdjust="spacing" textLength="158" x="137.5" y="1314.6494">displays operation success</text><!--SRC=[ZLPDZzem43tNlsAqbx9ILvNQ6uULs8yYrDss8d3hnHk6O17ir3QxvTztnax0XYpqGaXuy-RDpFC4jrQwaLPkO6EqALVMR12ytQ9m-ryQMQvbXONVrGWMIozrLQS0jv8BywPq1KjPEnJ2Aq_G-GGA_BD5NI8yA5anT50K3zTm0_FYorUwZ9nJbOOPqazAmwFsLg4JGcwzqTlD2reXFgxK0c5fZ7ynVuKilR5mDRQ86WgIXl0iDScpC1WNpzTN81tG5o58crUbQgJsS3MCcJZHg4AzaFD9GCud5t3tXZIPkaORyFUpwTDHn1GRunIf8kK1it-mAnHtYah9GsmIyLkV4lnw6ito24zw3hGKCyiUXAZPD8-HGJzXOo41Cne__dWO7N5BjsP6kaIUKV4zHrJSxD3hjjK47ny_wnh_K_2CrAlqoBSVXE1FkBbbFmm9j7RW3LqFawTRf2xls09-XH059pmq9K7HnC7z9vOA_QYkMVBTZkW7rmauZ4W4O1P0k6zaxm8fiz4z8HQNO5x9IF5sZ1vEgXI2f7Ni2VqfRe4N5L49XmIna1EYzolZNaUU9-NyWIYhB0uaG1Ev791epiJ6YEC2pqMSAQ-Tq45RdKdzhnaG3J0FtEsIURmp2EPdS2emGGKBzc7QV6oosDeF12nMvYsc3kLBlM3xibqTrhG7mMXCETYc77fpEvyCmUyQ10a-PBfePJe7xeoDUtPAZ9reH_luQEfz6qZqKIITIvTIrfbUiauNhwee9Dz8cPompqI0TWcfFHa-onZnNOhPz4oNQEa90XmxW70P8yDwJ70CwpE1OnFmLk88CClmdSMxr13boXY7R8WMaXDtpjYlmSuSGS69EMBsBhca0x2GNePybj-e9AGqUgdiHdh5upXDjS_K0bsWUDU8mtOXSqlOyGDMzeczU_6Cfk_mUApoandhfRyKdzj_1nSQlb2kgUNEWMdGXlh0RSkIrlP9dVdQ-WS0]--></g></svg>