<?xml version="1.0" encoding="us-ascii" standalone="no"?><svg xmlns="http://www.w3.org/2000/svg" xmlns:xlink="http://www.w3.org/1999/xlink" contentStyleType="text/css" height="525px" preserveAspectRatio="none" style="width:736px;height:525px;background:#FFFFFF;" version="1.1" viewBox="0 0 736 525" width="736px" zoomAndPan="magnify"><defs/><g><rect fill="#FFFFFF" height="360.8613" style="stroke:#181818;stroke-width:1.0;" width="10" x="171" y="90.5332"/><rect fill="#FFFFFF" height="36.291" style="stroke:#181818;stroke-width:1.0;" width="10" x="176" y="276.2793"/><rect fill="#FFFFFF" height="31.291" style="stroke:#181818;stroke-width:1.0;" width="10" x="339" y="205.6973"/><rect fill="#FFFFFF" height="31.291" style="stroke:#181818;stroke-width:1.0;" width="10" x="496" y="374.8125"/><rect fill="none" height="315.5703" style="stroke:#000000;stroke-width:1.5;" width="647" x="83" y="105.5332"/><rect fill="none" height="250.9883" style="stroke:#000000;stroke-width:1.5;" width="627" x="93" y="163.1152"/><line style="stroke:#181818;stroke-width:0.5;stroke-dasharray:5.0,5.0;" x1="176" x2="176" y1="57.2422" y2="469.3945"/><line style="stroke:#181818;stroke-width:0.5;stroke-dasharray:5.0,5.0;" x1="344" x2="344" y1="57.2422" y2="469.3945"/><line style="stroke:#181818;stroke-width:0.5;stroke-dasharray:5.0,5.0;" x1="501" x2="501" y1="57.2422" y2="469.3945"/><line style="stroke:#181818;stroke-width:0.5;stroke-dasharray:5.0,5.0;" x1="650" x2="650" y1="330.4004" y2="469.3945"/><rect fill="#E3E3E3" height="32.6211" rx="2.5" ry="2.5" style="stroke:#181818;stroke-width:0.5;" width="146" x="103" y="23.6211"/><text fill="#000000" font-family="sans-serif" font-size="14" lengthAdjust="spacing" textLength="132" x="110" y="45.7285">:TaskAgendaMapper</text><rect fill="#E3E3E3" height="32.6211" rx="2.5" ry="2.5" style="stroke:#181818;stroke-width:0.5;" width="146" x="103" y="468.3945"/><text fill="#000000" font-family="sans-serif" font-size="14" lengthAdjust="spacing" textLength="132" x="110" y="490.502">:TaskAgendaMapper</text><rect fill="#E3E3E3" height="51.2422" rx="2.5" ry="2.5" style="stroke:#181818;stroke-width:0.5;" width="136" x="276" y="5"/><text fill="#000000" font-family="sans-serif" font-size="14" lengthAdjust="spacing" textLength="97" x="295.5" y="27.1074">listTaskAgenda</text><text fill="#000000" font-family="sans-serif" font-size="14" lengthAdjust="spacing" textLength="122" x="283" y="45.7285">:List&lt;TaskAgenda&gt;</text><rect fill="#E3E3E3" height="51.2422" rx="2.5" ry="2.5" style="stroke:#181818;stroke-width:0.5;" width="136" x="276" y="468.3945"/><text fill="#000000" font-family="sans-serif" font-size="14" lengthAdjust="spacing" textLength="97" x="295.5" y="490.502">listTaskAgenda</text><text fill="#000000" font-family="sans-serif" font-size="14" lengthAdjust="spacing" textLength="122" x="283" y="509.123">:List&lt;TaskAgenda&gt;</text><rect fill="#E3E3E3" height="51.2422" rx="2.5" ry="2.5" style="stroke:#181818;stroke-width:0.5;" width="158" x="422" y="5"/><text fill="#000000" font-family="sans-serif" font-size="14" lengthAdjust="spacing" textLength="119" x="441.5" y="27.1074">listTaskAgendaDto</text><text fill="#000000" font-family="sans-serif" font-size="14" lengthAdjust="spacing" textLength="144" x="429" y="45.7285">:List&lt;TaskAgendaDto&gt;</text><rect fill="#E3E3E3" height="51.2422" rx="2.5" ry="2.5" style="stroke:#181818;stroke-width:0.5;" width="158" x="422" y="468.3945"/><text fill="#000000" font-family="sans-serif" font-size="14" lengthAdjust="spacing" textLength="119" x="441.5" y="490.502">listTaskAgendaDto</text><text fill="#000000" font-family="sans-serif" font-size="14" lengthAdjust="spacing" textLength="144" x="429" y="509.123">:List&lt;TaskAgendaDto&gt;</text><rect fill="#E3E3E3" height="51.2422" rx="2.5" ry="2.5" style="stroke:#181818;stroke-width:0.5;" width="120" x="590" y="468.3945"/><text fill="#000000" font-family="sans-serif" font-size="14" lengthAdjust="spacing" textLength="41" x="629.5" y="490.502">objDto</text><text fill="#000000" font-family="sans-serif" font-size="14" lengthAdjust="spacing" textLength="106" x="597" y="509.123">:TaskAgendaDto</text><rect fill="#FFFFFF" height="360.8613" style="stroke:#181818;stroke-width:1.0;" width="10" x="171" y="90.5332"/><rect fill="#FFFFFF" height="36.291" style="stroke:#181818;stroke-width:1.0;" width="10" x="176" y="276.2793"/><rect fill="#FFFFFF" height="31.291" style="stroke:#181818;stroke-width:1.0;" width="10" x="339" y="205.6973"/><rect fill="#FFFFFF" height="31.291" style="stroke:#181818;stroke-width:1.0;" width="10" x="496" y="374.8125"/><polygon fill="#181818" points="159,86.5332,169,90.5332,159,94.5332,163,90.5332" style="stroke:#181818;stroke-width:1.0;"/><line style="stroke:#181818;stroke-width:1.0;stroke-dasharray:2.0,2.0;" x1="0" x2="165" y1="90.5332" y2="90.5332"/><text fill="#000000" font-family="sans-serif" font-size="13" font-weight="bold" lengthAdjust="spacing" textLength="14" x="7" y="85.2705">13</text><text fill="#000000" font-family="sans-serif" font-size="13" lengthAdjust="spacing" textLength="134" x="25" y="85.2705">toDTO(listTaskAgenda)</text><path d="M83,105.5332 L201,105.5332 L201,114.8242 L191,124.8242 L83,124.8242 L83,105.5332 " fill="#EEEEEE" style="stroke:#000000;stroke-width:1.5;"/><rect fill="none" height="315.5703" style="stroke:#000000;stroke-width:1.5;" width="647" x="83" y="105.5332"/><text fill="#000000" font-family="sans-serif" font-size="13" font-weight="bold" lengthAdjust="spacing" textLength="73" x="98" y="120.5615">To DTO List</text><polygon fill="#181818" points="489,144.1152,499,148.1152,489,152.1152,493,148.1152" style="stroke:#181818;stroke-width:1.0;"/><line style="stroke:#181818;stroke-width:1.0;stroke-dasharray:2.0,2.0;" x1="181" x2="495" y1="148.1152" y2="148.1152"/><text fill="#000000" font-family="sans-serif" font-size="13" font-weight="bold" lengthAdjust="spacing" textLength="25" x="188" y="142.8525">13.1</text><text fill="#000000" font-family="sans-serif" font-size="13" lengthAdjust="spacing" textLength="44" x="217" y="142.8525">create()</text><path d="M93,163.1152 L166,163.1152 L166,172.4063 L156,182.4063 L93,182.4063 L93,163.1152 " fill="#EEEEEE" style="stroke:#000000;stroke-width:1.5;"/><rect fill="none" height="250.9883" style="stroke:#000000;stroke-width:1.5;" width="627" x="93" y="163.1152"/><text fill="#000000" font-family="sans-serif" font-size="13" font-weight="bold" lengthAdjust="spacing" textLength="28" x="108" y="178.1436">loop</text><text fill="#000000" font-family="sans-serif" font-size="11" font-weight="bold" lengthAdjust="spacing" textLength="192" x="181" y="176.9854">[for each object in listTaskAgenda]</text><polygon fill="#181818" points="327,201.6973,337,205.6973,327,209.6973,331,205.6973" style="stroke:#181818;stroke-width:1.0;"/><line style="stroke:#181818;stroke-width:1.0;" x1="181" x2="333" y1="205.6973" y2="205.6973"/><text fill="#000000" font-family="sans-serif" font-size="13" font-weight="bold" lengthAdjust="spacing" textLength="25" x="188" y="200.4346">13.2</text><text fill="#000000" font-family="sans-serif" font-size="13" lengthAdjust="spacing" textLength="29" x="217" y="200.4346">get(i)</text><polygon fill="#181818" points="192,232.9883,182,236.9883,192,240.9883,188,236.9883" style="stroke:#181818;stroke-width:1.0;"/><line style="stroke:#181818;stroke-width:1.0;stroke-dasharray:2.0,2.0;" x1="186" x2="343" y1="236.9883" y2="236.9883"/><text fill="#000000" font-family="sans-serif" font-size="13" font-weight="bold" lengthAdjust="spacing" textLength="25" x="198" y="231.7256">13.3</text><text fill="#000000" font-family="sans-serif" font-size="13" lengthAdjust="spacing" textLength="17" x="227" y="231.7256">obj</text><line style="stroke:#181818;stroke-width:1.0;" x1="181" x2="228" y1="263.2793" y2="263.2793"/><line style="stroke:#181818;stroke-width:1.0;" x1="228" x2="228" y1="263.2793" y2="276.2793"/><line style="stroke:#181818;stroke-width:1.0;" x1="187" x2="228" y1="276.2793" y2="276.2793"/><polygon fill="#181818" points="197,272.2793,187,276.2793,197,280.2793,193,276.2793" style="stroke:#181818;stroke-width:1.0;"/><text fill="#000000" font-family="sans-serif" font-size="13" font-weight="bold" lengthAdjust="spacing" textLength="25" x="193" y="258.0166">13.4</text><text fill="#000000" font-family="sans-serif" font-size="13" lengthAdjust="spacing" textLength="115" x="222" y="258.0166">objDto = toDTO(obj)</text><polygon fill="#181818" points="578,308.5703,588,312.5703,578,316.5703,582,312.5703" style="stroke:#181818;stroke-width:1.0;"/><line style="stroke:#181818;stroke-width:1.0;stroke-dasharray:2.0,2.0;" x1="181" x2="584" y1="312.5703" y2="312.5703"/><text fill="#000000" font-family="sans-serif" font-size="13" font-weight="bold" lengthAdjust="spacing" textLength="25" x="188" y="307.3076">13.5</text><text fill="#000000" font-family="sans-serif" font-size="13" lengthAdjust="spacing" textLength="61" x="217" y="307.3076">create(obj)</text><rect fill="#E3E3E3" height="51.2422" rx="2.5" ry="2.5" style="stroke:#181818;stroke-width:0.5;" width="120" x="590" y="289.2793"/><text fill="#000000" font-family="sans-serif" font-size="14" lengthAdjust="spacing" textLength="41" x="629.5" y="311.3867">objDto</text><text fill="#000000" font-family="sans-serif" font-size="14" lengthAdjust="spacing" textLength="106" x="597" y="330.0078">:TaskAgendaDto</text><polygon fill="#181818" points="484,370.8125,494,374.8125,484,378.8125,488,374.8125" style="stroke:#181818;stroke-width:1.0;"/><line style="stroke:#181818;stroke-width:1.0;" x1="181" x2="490" y1="374.8125" y2="374.8125"/><text fill="#000000" font-family="sans-serif" font-size="13" font-weight="bold" lengthAdjust="spacing" textLength="25" x="188" y="369.5498">13.6</text><text fill="#000000" font-family="sans-serif" font-size="13" lengthAdjust="spacing" textLength="66" x="217" y="369.5498">add(objDto)</text><polygon fill="#181818" points="192,402.1035,182,406.1035,192,410.1035,188,406.1035" style="stroke:#181818;stroke-width:1.0;"/><line style="stroke:#181818;stroke-width:1.0;stroke-dasharray:2.0,2.0;" x1="186" x2="500" y1="406.1035" y2="406.1035"/><text fill="#000000" font-family="sans-serif" font-size="13" font-weight="bold" lengthAdjust="spacing" textLength="25" x="198" y="400.8408">13.7</text><text fill="#000000" font-family="sans-serif" font-size="13" lengthAdjust="spacing" textLength="53" x="227" y="400.8408">true/false</text><polygon fill="#181818" points="11,447.3945,1,451.3945,11,455.3945,7,451.3945" style="stroke:#181818;stroke-width:1.0;"/><line style="stroke:#181818;stroke-width:1.0;stroke-dasharray:2.0,2.0;" x1="5" x2="175" y1="451.3945" y2="451.3945"/><text fill="#000000" font-family="sans-serif" font-size="13" font-weight="bold" lengthAdjust="spacing" textLength="14" x="17" y="446.1318">14</text><text fill="#000000" font-family="sans-serif" font-size="13" lengthAdjust="spacing" textLength="109" x="35" y="446.1318">listTaskAgendaDto</text><!--SRC=[VL9DRy8m3BtdLrYx390AGji9CIGaTfW4sYHwtCMafcIqIPQcc_RlvzBIfi1sgLhtVTZFlZzuRulPP68prBxCix4q-QIWpvAqf2XHc3hCHN5KsYA_GMwqaGTdSWBlIWh-M9H7J6dhVp82HzAZJhCGK1mmCTzAfx37h20XkEoLL9QTuMuMOt5SfgGJtA2rvEu02uYVbvlDMn-PgS9tu7SzMtDXtbKMBNFziet_uwwykQPpiLPORokDLVpQbp2xZvhNevmOZAqeGc3fZIxp7JcOFWWHHOjc4fY1DmmRz1iPNb36Kov8hxxGqpa3aJfJMeXDPGDLqq8qefL-sorRI4TC7B1gPeo5lN50A0_0hVDUG6destT2YpOtbad93zJmefDJfg95zKPZVI4I-WFVwP_1d1iyDO7mv_36qC64JRgZKJTXJRfm36dzN3191hLjQDNjMNJW_ihuqYVDqGPc0P5JR1xX7X-5c4THftDrVJTw_mK0]--></g></svg>