<?xml version="1.0" encoding="us-ascii" standalone="no"?><svg xmlns="http://www.w3.org/2000/svg" xmlns:xlink="http://www.w3.org/1999/xlink" contentStyleType="text/css" height="525px" preserveAspectRatio="none" style="width:586px;height:525px;background:#FFFFFF;" version="1.1" viewBox="0 0 586 525" width="586px" zoomAndPan="magnify"><defs/><g><rect fill="#FFFFFF" height="360.8613" style="stroke:#181818;stroke-width:1.0;" width="10" x="131" y="90.5332"/><rect fill="#FFFFFF" height="36.291" style="stroke:#181818;stroke-width:1.0;" width="10" x="136" y="276.2793"/><rect fill="#FFFFFF" height="31.291" style="stroke:#181818;stroke-width:1.0;" width="10" x="299" y="205.6973"/><rect fill="#FFFFFF" height="31.291" style="stroke:#181818;stroke-width:1.0;" width="10" x="412" y="374.8125"/><rect fill="none" height="315.5703" style="stroke:#000000;stroke-width:1.5;" width="515" x="65" y="105.5332"/><rect fill="none" height="250.9883" style="stroke:#000000;stroke-width:1.5;" width="495" x="75" y="163.1152"/><line style="stroke:#181818;stroke-width:0.5;stroke-dasharray:5.0,5.0;" x1="136" x2="136" y1="57.2422" y2="469.3945"/><line style="stroke:#181818;stroke-width:0.5;stroke-dasharray:5.0,5.0;" x1="304" x2="304" y1="57.2422" y2="469.3945"/><line style="stroke:#181818;stroke-width:0.5;stroke-dasharray:5.0,5.0;" x1="417" x2="417" y1="57.2422" y2="469.3945"/><line style="stroke:#181818;stroke-width:0.5;stroke-dasharray:5.0,5.0;" x1="522" x2="522" y1="330.4004" y2="469.3945"/><rect fill="#E3E3E3" height="32.6211" rx="2.5" ry="2.5" style="stroke:#181818;stroke-width:0.5;" width="102" x="85" y="23.6211"/><text fill="#000000" font-family="sans-serif" font-size="14" lengthAdjust="spacing" textLength="88" x="92" y="45.7285">:TeamMapper</text><rect fill="#E3E3E3" height="32.6211" rx="2.5" ry="2.5" style="stroke:#181818;stroke-width:0.5;" width="102" x="85" y="468.3945"/><text fill="#000000" font-family="sans-serif" font-size="14" lengthAdjust="spacing" textLength="88" x="92" y="490.502">:TeamMapper</text><rect fill="#E3E3E3" height="51.2422" rx="2.5" ry="2.5" style="stroke:#181818;stroke-width:0.5;" width="92" x="258" y="5"/><text fill="#000000" font-family="sans-serif" font-size="14" lengthAdjust="spacing" textLength="53" x="277.5" y="27.1074">listTeam</text><text fill="#000000" font-family="sans-serif" font-size="14" lengthAdjust="spacing" textLength="78" x="265" y="45.7285">:List&lt;Team&gt;</text><rect fill="#E3E3E3" height="51.2422" rx="2.5" ry="2.5" style="stroke:#181818;stroke-width:0.5;" width="92" x="258" y="468.3945"/><text fill="#000000" font-family="sans-serif" font-size="14" lengthAdjust="spacing" textLength="53" x="277.5" y="490.502">listTeam</text><text fill="#000000" font-family="sans-serif" font-size="14" lengthAdjust="spacing" textLength="78" x="265" y="509.123">:List&lt;Team&gt;</text><rect fill="#E3E3E3" height="51.2422" rx="2.5" ry="2.5" style="stroke:#181818;stroke-width:0.5;" width="114" x="360" y="5"/><text fill="#000000" font-family="sans-serif" font-size="14" lengthAdjust="spacing" textLength="75" x="379.5" y="27.1074">listTeamDto</text><text fill="#000000" font-family="sans-serif" font-size="14" lengthAdjust="spacing" textLength="100" x="367" y="45.7285">:List&lt;TeamDto&gt;</text><rect fill="#E3E3E3" height="51.2422" rx="2.5" ry="2.5" style="stroke:#181818;stroke-width:0.5;" width="114" x="360" y="468.3945"/><text fill="#000000" font-family="sans-serif" font-size="14" lengthAdjust="spacing" textLength="75" x="379.5" y="490.502">listTeamDto</text><text fill="#000000" font-family="sans-serif" font-size="14" lengthAdjust="spacing" textLength="100" x="367" y="509.123">:List&lt;TeamDto&gt;</text><rect fill="#E3E3E3" height="51.2422" rx="2.5" ry="2.5" style="stroke:#181818;stroke-width:0.5;" width="76" x="484" y="468.3945"/><text fill="#000000" font-family="sans-serif" font-size="14" lengthAdjust="spacing" textLength="41" x="501.5" y="490.502">objDto</text><text fill="#000000" font-family="sans-serif" font-size="14" lengthAdjust="spacing" textLength="62" x="491" y="509.123">:TeamDto</text><rect fill="#FFFFFF" height="360.8613" style="stroke:#181818;stroke-width:1.0;" width="10" x="131" y="90.5332"/><rect fill="#FFFFFF" height="36.291" style="stroke:#181818;stroke-width:1.0;" width="10" x="136" y="276.2793"/><rect fill="#FFFFFF" height="31.291" style="stroke:#181818;stroke-width:1.0;" width="10" x="299" y="205.6973"/><rect fill="#FFFFFF" height="31.291" style="stroke:#181818;stroke-width:1.0;" width="10" x="412" y="374.8125"/><polygon fill="#181818" points="119,86.5332,129,90.5332,119,94.5332,123,90.5332" style="stroke:#181818;stroke-width:1.0;"/><line style="stroke:#181818;stroke-width:1.0;stroke-dasharray:2.0,2.0;" x1="0" x2="125" y1="90.5332" y2="90.5332"/><text fill="#000000" font-family="sans-serif" font-size="13" font-weight="bold" lengthAdjust="spacing" textLength="14" x="7" y="85.2705">21</text><text fill="#000000" font-family="sans-serif" font-size="13" lengthAdjust="spacing" textLength="94" x="25" y="85.2705">toDTO(listTeam)</text><path d="M65,105.5332 L183,105.5332 L183,114.8242 L173,124.8242 L65,124.8242 L65,105.5332 " fill="#EEEEEE" style="stroke:#000000;stroke-width:1.5;"/><rect fill="none" height="315.5703" style="stroke:#000000;stroke-width:1.5;" width="515" x="65" y="105.5332"/><text fill="#000000" font-family="sans-serif" font-size="13" font-weight="bold" lengthAdjust="spacing" textLength="73" x="80" y="120.5615">To DTO List</text><polygon fill="#181818" points="405,144.1152,415,148.1152,405,152.1152,409,148.1152" style="stroke:#181818;stroke-width:1.0;"/><line style="stroke:#181818;stroke-width:1.0;stroke-dasharray:2.0,2.0;" x1="141" x2="411" y1="148.1152" y2="148.1152"/><text fill="#000000" font-family="sans-serif" font-size="13" font-weight="bold" lengthAdjust="spacing" textLength="25" x="148" y="142.8525">21.1</text><text fill="#000000" font-family="sans-serif" font-size="13" lengthAdjust="spacing" textLength="44" x="177" y="142.8525">create()</text><path d="M75,163.1152 L148,163.1152 L148,172.4063 L138,182.4063 L75,182.4063 L75,163.1152 " fill="#EEEEEE" style="stroke:#000000;stroke-width:1.5;"/><rect fill="none" height="250.9883" style="stroke:#000000;stroke-width:1.5;" width="495" x="75" y="163.1152"/><text fill="#000000" font-family="sans-serif" font-size="13" font-weight="bold" lengthAdjust="spacing" textLength="28" x="90" y="178.1436">loop</text><text fill="#000000" font-family="sans-serif" font-size="11" font-weight="bold" lengthAdjust="spacing" textLength="154" x="163" y="176.9854">[for each object in listTeam]</text><polygon fill="#181818" points="287,201.6973,297,205.6973,287,209.6973,291,205.6973" style="stroke:#181818;stroke-width:1.0;"/><line style="stroke:#181818;stroke-width:1.0;" x1="141" x2="293" y1="205.6973" y2="205.6973"/><text fill="#000000" font-family="sans-serif" font-size="13" font-weight="bold" lengthAdjust="spacing" textLength="25" x="148" y="200.4346">21.2</text><text fill="#000000" font-family="sans-serif" font-size="13" lengthAdjust="spacing" textLength="29" x="177" y="200.4346">get(i)</text><polygon fill="#181818" points="152,232.9883,142,236.9883,152,240.9883,148,236.9883" style="stroke:#181818;stroke-width:1.0;"/><line style="stroke:#181818;stroke-width:1.0;stroke-dasharray:2.0,2.0;" x1="146" x2="303" y1="236.9883" y2="236.9883"/><text fill="#000000" font-family="sans-serif" font-size="13" font-weight="bold" lengthAdjust="spacing" textLength="25" x="158" y="231.7256">21.3</text><text fill="#000000" font-family="sans-serif" font-size="13" lengthAdjust="spacing" textLength="17" x="187" y="231.7256">obj</text><line style="stroke:#181818;stroke-width:1.0;" x1="141" x2="188" y1="263.2793" y2="263.2793"/><line style="stroke:#181818;stroke-width:1.0;" x1="188" x2="188" y1="263.2793" y2="276.2793"/><line style="stroke:#181818;stroke-width:1.0;" x1="147" x2="188" y1="276.2793" y2="276.2793"/><polygon fill="#181818" points="157,272.2793,147,276.2793,157,280.2793,153,276.2793" style="stroke:#181818;stroke-width:1.0;"/><text fill="#000000" font-family="sans-serif" font-size="13" font-weight="bold" lengthAdjust="spacing" textLength="25" x="153" y="258.0166">21.4</text><text fill="#000000" font-family="sans-serif" font-size="13" lengthAdjust="spacing" textLength="115" x="182" y="258.0166">objDto = toDTO(obj)</text><polygon fill="#181818" points="472,308.5703,482,312.5703,472,316.5703,476,312.5703" style="stroke:#181818;stroke-width:1.0;"/><line style="stroke:#181818;stroke-width:1.0;stroke-dasharray:2.0,2.0;" x1="141" x2="478" y1="312.5703" y2="312.5703"/><text fill="#000000" font-family="sans-serif" font-size="13" font-weight="bold" lengthAdjust="spacing" textLength="25" x="148" y="307.3076">21.5</text><text fill="#000000" font-family="sans-serif" font-size="13" lengthAdjust="spacing" textLength="61" x="177" y="307.3076">create(obj)</text><rect fill="#E3E3E3" height="51.2422" rx="2.5" ry="2.5" style="stroke:#181818;stroke-width:0.5;" width="76" x="484" y="289.2793"/><text fill="#000000" font-family="sans-serif" font-size="14" lengthAdjust="spacing" textLength="41" x="501.5" y="311.3867">objDto</text><text fill="#000000" font-family="sans-serif" font-size="14" lengthAdjust="spacing" textLength="62" x="491" y="330.0078">:TeamDto</text><polygon fill="#181818" points="400,370.8125,410,374.8125,400,378.8125,404,374.8125" style="stroke:#181818;stroke-width:1.0;"/><line style="stroke:#181818;stroke-width:1.0;" x1="141" x2="406" y1="374.8125" y2="374.8125"/><text fill="#000000" font-family="sans-serif" font-size="13" font-weight="bold" lengthAdjust="spacing" textLength="25" x="148" y="369.5498">21.6</text><text fill="#000000" font-family="sans-serif" font-size="13" lengthAdjust="spacing" textLength="66" x="177" y="369.5498">add(objDto)</text><polygon fill="#181818" points="152,402.1035,142,406.1035,152,410.1035,148,406.1035" style="stroke:#181818;stroke-width:1.0;"/><line style="stroke:#181818;stroke-width:1.0;stroke-dasharray:2.0,2.0;" x1="146" x2="416" y1="406.1035" y2="406.1035"/><text fill="#000000" font-family="sans-serif" font-size="13" font-weight="bold" lengthAdjust="spacing" textLength="25" x="158" y="400.8408">21.7</text><text fill="#000000" font-family="sans-serif" font-size="13" lengthAdjust="spacing" textLength="53" x="187" y="400.8408">true/false</text><polygon fill="#181818" points="11,447.3945,1,451.3945,11,455.3945,7,451.3945" style="stroke:#181818;stroke-width:1.0;"/><line style="stroke:#181818;stroke-width:1.0;stroke-dasharray:2.0,2.0;" x1="5" x2="135" y1="451.3945" y2="451.3945"/><text fill="#000000" font-family="sans-serif" font-size="13" font-weight="bold" lengthAdjust="spacing" textLength="14" x="17" y="446.1318">22</text><text fill="#000000" font-family="sans-serif" font-size="13" lengthAdjust="spacing" textLength="69" x="35" y="446.1318">listTeamDto</text><!--SRC=[TP8nRy8m48Lt_ufJbmQa49KneaYLw509r4fax78uHt19RDTnMlNVzq82SIXT8jlvtdjtPzyVlBTrcYIsHEsRgfn9KoKrVJQa9SMvmi9X9UgZqXPv1PNHHXwSgGYyQoZuOr4UiQ2j_oa974cFkYX3e3vWRhwLBc2FPKr2yB5NKbbEXhiq8wmsQ2svEy0QikUdpUPjp9IgzYtshjCrBnVjUdcXro_Rx3Q_yYQKyBPJhRUjRfMzZcLczz4fUlZ4CjN2Gc3ZZMwg7JcOFmWHnyk-LaZ16yQYS-pa2funZjAhB_HqxayKpZGMCjC6G5kY4BrTwtofaCsb8nP6x5eQOs5l713A0t2vF6rG6ix1WyNoCXasACX7Qd9LmsbguaADsc5d8NBwXn_ypp3F2Xxx8V1sSgFTeBT-ejFfq5id-fCP2iSpmJoFkk0mRBXNCS3ZY-Atc_JFC0WBXAJp_XFUuLo8HHmFFi4Bkr7rBm00]--></g></svg>