<?xml version="1.0" encoding="us-ascii" standalone="no"?><svg xmlns="http://www.w3.org/2000/svg" xmlns:xlink="http://www.w3.org/1999/xlink" contentStyleType="text/css" height="2295px" preserveAspectRatio="none" style="width:2196px;height:2295px;background:#FFFFFF;" version="1.1" viewBox="0 0 2196 2295" width="2196px" zoomAndPan="magnify"><defs/><g><text fill="#000000" font-family="sans-serif" font-size="14" font-weight="bold" lengthAdjust="spacing" textLength="412" x="889.75" y="30.1074">UI Sequence Diagram (SSD) - US23 - Assign Team in Entries</text><rect fill="#FFFFFF" height="2061.3906" style="stroke:#181818;stroke-width:1.0;" width="10" x="97.5" y="133.2422"/><rect fill="#FFFFFF" height="693.3828" style="stroke:#181818;stroke-width:1.0;" width="10" x="481.5" y="156.5332"/><rect fill="#FFFFFF" height="281.6191" style="stroke:#181818;stroke-width:1.0;" width="10" x="481.5" y="881.207"/><rect fill="#FFFFFF" height="31.291" style="stroke:#181818;stroke-width:1.0;" width="10" x="481.5" y="1194.1172"/><rect fill="#FFFFFF" height="937.9336" style="stroke:#181818;stroke-width:1.0;" width="10" x="481.5" y="1256.6992"/><rect fill="#FFFFFF" height="630.8008" style="stroke:#181818;stroke-width:1.0;" width="10" x="919.5" y="187.8242"/><rect fill="#FFFFFF" height="122.4648" style="stroke:#181818;stroke-width:1.0;" width="10" x="924.5" y="227.1152"/><rect fill="#FFFFFF" height="215.707" style="stroke:#181818;stroke-width:1.0;" width="10" x="924.5" y="395.8711"/><rect fill="#FFFFFF" height="122.4648" style="stroke:#181818;stroke-width:1.0;" width="10" x="924.5" y="657.8691"/><rect fill="#FFFFFF" height="219.0371" style="stroke:#181818;stroke-width:1.0;" width="10" x="919.5" y="912.498"/><rect fill="#FFFFFF" height="875.3516" style="stroke:#181818;stroke-width:1.0;" width="10" x="919.5" y="1287.9902"/><rect fill="#FFFFFF" height="122.4648" style="stroke:#181818;stroke-width:1.0;" width="10" x="924.5" y="1800.5391"/><rect fill="#FFFFFF" height="122.4648" style="stroke:#181818;stroke-width:1.0;" width="10" x="924.5" y="1995.5859"/><rect fill="#FFFFFF" height="31.291" style="stroke:#181818;stroke-width:1.0;" width="10" x="1232.5" y="943.7891"/><rect fill="#FFFFFF" height="31.291" style="stroke:#181818;stroke-width:1.0;" width="10" x="1232.5" y="1319.2813"/><rect fill="#FFFFFF" height="31.291" style="stroke:#181818;stroke-width:1.0;" width="10" x="1339.5" y="1006.3711"/><rect fill="#FFFFFF" height="31.291" style="stroke:#181818;stroke-width:1.0;" width="10" x="1339.5" y="1381.8633"/><rect fill="#FFFFFF" height="31.291" style="stroke:#181818;stroke-width:1.0;" width="10" x="1339.5" y="1587.2012"/><rect fill="#FFFFFF" height="31.291" style="stroke:#181818;stroke-width:1.0;" width="10" x="1459" y="1068.9531"/><rect fill="#FFFFFF" height="142.125" style="stroke:#181818;stroke-width:1.0;" width="10" x="1607" y="432.1621"/><rect fill="#FFFFFF" height="79.543" style="stroke:#181818;stroke-width:1.0;" width="10" x="1790" y="463.4531"/><rect fill="#FFFFFF" height="111.4648" style="stroke:#181818;stroke-width:1.0;" width="10" x="1911.5" y="1444.4453"/><rect fill="#FFFFFF" height="111.4648" style="stroke:#181818;stroke-width:1.0;" width="10" x="2016" y="1649.7832"/><rect fill="none" height="188.0469" style="stroke:#000000;stroke-width:1.5;" width="323.5" x="811" y="1945.0039"/><line style="stroke:#181818;stroke-width:0.5;stroke-dasharray:5.0,5.0;" x1="102" x2="102" y1="123.2422" y2="2212.6328"/><line style="stroke:#181818;stroke-width:0.5;stroke-dasharray:5.0,5.0;" x1="486" x2="486" y1="123.2422" y2="2212.6328"/><line style="stroke:#181818;stroke-width:0.5;stroke-dasharray:5.0,5.0;" x1="924" x2="924" y1="123.2422" y2="2212.6328"/><line style="stroke:#181818;stroke-width:0.5;stroke-dasharray:5.0,5.0;" x1="1237" x2="1237" y1="123.2422" y2="2212.6328"/><line style="stroke:#181818;stroke-width:0.5;stroke-dasharray:5.0,5.0;" x1="1344" x2="1344" y1="123.2422" y2="2212.6328"/><line style="stroke:#181818;stroke-width:0.5;stroke-dasharray:5.0,5.0;" x1="1464" x2="1464" y1="123.2422" y2="2212.6328"/><line style="stroke:#181818;stroke-width:0.5;stroke-dasharray:5.0,5.0;" x1="1612" x2="1612" y1="123.2422" y2="2212.6328"/><line style="stroke:#181818;stroke-width:0.5;stroke-dasharray:5.0,5.0;" x1="1794.5" x2="1794.5" y1="123.2422" y2="2212.6328"/><line style="stroke:#181818;stroke-width:0.5;stroke-dasharray:5.0,5.0;" x1="1916.5" x2="1916.5" y1="123.2422" y2="2212.6328"/><line style="stroke:#181818;stroke-width:0.5;stroke-dasharray:5.0,5.0;" x1="2020.5" x2="2020.5" y1="123.2422" y2="2212.6328"/><text fill="#000000" font-family="sans-serif" font-size="14" lengthAdjust="spacing" textLength="189" x="5" y="119.7285">Green Space Manager (GSM)</text><ellipse cx="102.5" cy="53.1211" fill="#E3E3E3" rx="8" ry="8" style="stroke:#181818;stroke-width:0.5;"/><path d="M102.5,61.1211 L102.5,88.1211 M89.5,69.1211 L115.5,69.1211 M102.5,88.1211 L89.5,103.1211 M102.5,88.1211 L115.5,103.1211 " fill="none" style="stroke:#181818;stroke-width:0.5;"/><text fill="#000000" font-family="sans-serif" font-size="14" lengthAdjust="spacing" textLength="189" x="5" y="2226.7402">Green Space Manager (GSM)</text><ellipse cx="102.5" cy="2238.7539" fill="#E3E3E3" rx="8" ry="8" style="stroke:#181818;stroke-width:0.5;"/><path d="M102.5,2246.7539 L102.5,2273.7539 M89.5,2254.7539 L115.5,2254.7539 M102.5,2273.7539 L89.5,2288.7539 M102.5,2273.7539 L115.5,2288.7539 " fill="none" style="stroke:#181818;stroke-width:0.5;"/><rect fill="#E3E3E3" height="32.6211" rx="2.5" ry="2.5" style="stroke:#181818;stroke-width:0.5;" width="157" x="408" y="89.6211"/><text fill="#000000" font-family="sans-serif" font-size="14" lengthAdjust="spacing" textLength="143" x="415" y="111.7285">:AssignTeamAgendaUI</text><rect fill="#E3E3E3" height="32.6211" rx="2.5" ry="2.5" style="stroke:#181818;stroke-width:0.5;" width="157" x="408" y="2211.6328"/><text fill="#000000" font-family="sans-serif" font-size="14" lengthAdjust="spacing" textLength="143" x="415" y="2233.7402">:AssignTeamAgendaUI</text><rect fill="#E3E3E3" height="32.6211" rx="2.5" ry="2.5" style="stroke:#181818;stroke-width:0.5;" width="207" x="821" y="89.6211"/><text fill="#000000" font-family="sans-serif" font-size="14" lengthAdjust="spacing" textLength="193" x="828" y="111.7285">:AssignTeamAgendaController</text><rect fill="#E3E3E3" height="32.6211" rx="2.5" ry="2.5" style="stroke:#181818;stroke-width:0.5;" width="207" x="821" y="2211.6328"/><text fill="#000000" font-family="sans-serif" font-size="14" lengthAdjust="spacing" textLength="193" x="828" y="2233.7402">:AssignTeamAgendaController</text><rect fill="#E3E3E3" height="32.6211" rx="2.5" ry="2.5" style="stroke:#181818;stroke-width:0.5;" width="97" x="1189" y="89.6211"/><text fill="#000000" font-family="sans-serif" font-size="14" lengthAdjust="spacing" textLength="83" x="1196" y="111.7285">:Repositories</text><rect fill="#E3E3E3" height="32.6211" rx="2.5" ry="2.5" style="stroke:#181818;stroke-width:0.5;" width="97" x="1189" y="2211.6328"/><text fill="#000000" font-family="sans-serif" font-size="14" lengthAdjust="spacing" textLength="83" x="1196" y="2233.7402">:Repositories</text><rect fill="#E3E3E3" height="51.2422" rx="2.5" ry="2.5" style="stroke:#181818;stroke-width:0.5;" width="97" x="1296" y="71"/><text fill="#000000" font-family="sans-serif" font-size="14" lengthAdjust="spacing" textLength="74" x="1307.5" y="93.1074">repositories</text><text fill="#000000" font-family="sans-serif" font-size="14" lengthAdjust="spacing" textLength="83" x="1303" y="111.7285">:Repositories</text><rect fill="#E3E3E3" height="51.2422" rx="2.5" ry="2.5" style="stroke:#181818;stroke-width:0.5;" width="97" x="1296" y="2211.6328"/><text fill="#000000" font-family="sans-serif" font-size="14" lengthAdjust="spacing" textLength="74" x="1307.5" y="2233.7402">repositories</text><text fill="#000000" font-family="sans-serif" font-size="14" lengthAdjust="spacing" textLength="83" x="1303" y="2252.3613">:Repositories</text><rect fill="#E3E3E3" height="51.2422" rx="2.5" ry="2.5" style="stroke:#181818;stroke-width:0.5;" width="122" x="1403" y="71"/><text fill="#000000" font-family="sans-serif" font-size="14" lengthAdjust="spacing" textLength="99" x="1414.5" y="93.1074">teamRepository</text><text fill="#000000" font-family="sans-serif" font-size="14" lengthAdjust="spacing" textLength="108" x="1410" y="111.7285">:TeamRepository</text><rect fill="#E3E3E3" height="51.2422" rx="2.5" ry="2.5" style="stroke:#181818;stroke-width:0.5;" width="122" x="1403" y="2211.6328"/><text fill="#000000" font-family="sans-serif" font-size="14" lengthAdjust="spacing" textLength="99" x="1414.5" y="2233.7402">teamRepository</text><text fill="#000000" font-family="sans-serif" font-size="14" lengthAdjust="spacing" textLength="108" x="1410" y="2252.3613">:TeamRepository</text><rect fill="#E3E3E3" height="51.2422" rx="2.5" ry="2.5" style="stroke:#181818;stroke-width:0.5;" width="154" x="1535" y="71"/><text fill="#000000" font-family="sans-serif" font-size="14" lengthAdjust="spacing" textLength="133" x="1545.5" y="93.1074">greenSpaceManager</text><text fill="#000000" font-family="sans-serif" font-size="14" lengthAdjust="spacing" textLength="140" x="1542" y="111.7285">:GreenSpaceManager</text><rect fill="#E3E3E3" height="51.2422" rx="2.5" ry="2.5" style="stroke:#181818;stroke-width:0.5;" width="154" x="1535" y="2211.6328"/><text fill="#000000" font-family="sans-serif" font-size="14" lengthAdjust="spacing" textLength="133" x="1545.5" y="2233.7402">greenSpaceManager</text><text fill="#000000" font-family="sans-serif" font-size="14" lengthAdjust="spacing" textLength="140" x="1542" y="2252.3613">:GreenSpaceManager</text><rect fill="#E3E3E3" height="51.2422" rx="2.5" ry="2.5" style="stroke:#181818;stroke-width:0.5;" width="101" x="1744.5" y="71"/><text fill="#000000" font-family="sans-serif" font-size="14" lengthAdjust="spacing" textLength="84" x="1753" y="93.1074">greenSpaces</text><text fill="#000000" font-family="sans-serif" font-size="14" lengthAdjust="spacing" textLength="87" x="1751.5" y="111.7285">GreenSpaces</text><rect fill="#E3E3E3" height="51.2422" rx="2.5" ry="2.5" style="stroke:#181818;stroke-width:0.5;" width="101" x="1744.5" y="2211.6328"/><text fill="#000000" font-family="sans-serif" font-size="14" lengthAdjust="spacing" textLength="84" x="1753" y="2233.7402">greenSpaces</text><text fill="#000000" font-family="sans-serif" font-size="14" lengthAdjust="spacing" textLength="87" x="1751.5" y="2252.3613">GreenSpaces</text><rect fill="#E3E3E3" height="51.2422" rx="2.5" ry="2.5" style="stroke:#181818;stroke-width:0.5;" width="122" x="1855.5" y="71"/><text fill="#000000" font-family="sans-serif" font-size="14" lengthAdjust="spacing" textLength="99" x="1867" y="93.1074">teamRepository</text><text fill="#000000" font-family="sans-serif" font-size="14" lengthAdjust="spacing" textLength="108" x="1862.5" y="111.7285">:TeamRepository</text><rect fill="#E3E3E3" height="51.2422" rx="2.5" ry="2.5" style="stroke:#181818;stroke-width:0.5;" width="122" x="1855.5" y="2211.6328"/><text fill="#000000" font-family="sans-serif" font-size="14" lengthAdjust="spacing" textLength="99" x="1867" y="2233.7402">teamRepository</text><text fill="#000000" font-family="sans-serif" font-size="14" lengthAdjust="spacing" textLength="108" x="1862.5" y="2252.3613">:TeamRepository</text><rect fill="#E3E3E3" height="51.2422" rx="2.5" ry="2.5" style="stroke:#181818;stroke-width:0.5;" width="67" x="1987.5" y="71"/><text fill="#000000" font-family="sans-serif" font-size="14" lengthAdjust="spacing" textLength="48" x="1997" y="93.1074">agenda</text><text fill="#000000" font-family="sans-serif" font-size="14" lengthAdjust="spacing" textLength="53" x="1994.5" y="111.7285">:Agenda</text><rect fill="#E3E3E3" height="51.2422" rx="2.5" ry="2.5" style="stroke:#181818;stroke-width:0.5;" width="67" x="1987.5" y="2211.6328"/><text fill="#000000" font-family="sans-serif" font-size="14" lengthAdjust="spacing" textLength="48" x="1997" y="2233.7402">agenda</text><text fill="#000000" font-family="sans-serif" font-size="14" lengthAdjust="spacing" textLength="53" x="1994.5" y="2252.3613">:Agenda</text><rect fill="#FFFFFF" height="2061.3906" style="stroke:#181818;stroke-width:1.0;" width="10" x="97.5" y="133.2422"/><rect fill="#FFFFFF" height="693.3828" style="stroke:#181818;stroke-width:1.0;" width="10" x="481.5" y="156.5332"/><rect fill="#FFFFFF" height="281.6191" style="stroke:#181818;stroke-width:1.0;" width="10" x="481.5" y="881.207"/><rect fill="#FFFFFF" height="31.291" style="stroke:#181818;stroke-width:1.0;" width="10" x="481.5" y="1194.1172"/><rect fill="#FFFFFF" height="937.9336" style="stroke:#181818;stroke-width:1.0;" width="10" x="481.5" y="1256.6992"/><rect fill="#FFFFFF" height="630.8008" style="stroke:#181818;stroke-width:1.0;" width="10" x="919.5" y="187.8242"/><rect fill="#FFFFFF" height="122.4648" style="stroke:#181818;stroke-width:1.0;" width="10" x="924.5" y="227.1152"/><rect fill="#FFFFFF" height="215.707" style="stroke:#181818;stroke-width:1.0;" width="10" x="924.5" y="395.8711"/><rect fill="#FFFFFF" height="122.4648" style="stroke:#181818;stroke-width:1.0;" width="10" x="924.5" y="657.8691"/><rect fill="#FFFFFF" height="219.0371" style="stroke:#181818;stroke-width:1.0;" width="10" x="919.5" y="912.498"/><rect fill="#FFFFFF" height="875.3516" style="stroke:#181818;stroke-width:1.0;" width="10" x="919.5" y="1287.9902"/><rect fill="#FFFFFF" height="122.4648" style="stroke:#181818;stroke-width:1.0;" width="10" x="924.5" y="1800.5391"/><rect fill="#FFFFFF" height="122.4648" style="stroke:#181818;stroke-width:1.0;" width="10" x="924.5" y="1995.5859"/><rect fill="#FFFFFF" height="31.291" style="stroke:#181818;stroke-width:1.0;" width="10" x="1232.5" y="943.7891"/><rect fill="#FFFFFF" height="31.291" style="stroke:#181818;stroke-width:1.0;" width="10" x="1232.5" y="1319.2813"/><rect fill="#FFFFFF" height="31.291" style="stroke:#181818;stroke-width:1.0;" width="10" x="1339.5" y="1006.3711"/><rect fill="#FFFFFF" height="31.291" style="stroke:#181818;stroke-width:1.0;" width="10" x="1339.5" y="1381.8633"/><rect fill="#FFFFFF" height="31.291" style="stroke:#181818;stroke-width:1.0;" width="10" x="1339.5" y="1587.2012"/><rect fill="#FFFFFF" height="31.291" style="stroke:#181818;stroke-width:1.0;" width="10" x="1459" y="1068.9531"/><rect fill="#FFFFFF" height="142.125" style="stroke:#181818;stroke-width:1.0;" width="10" x="1607" y="432.1621"/><rect fill="#FFFFFF" height="79.543" style="stroke:#181818;stroke-width:1.0;" width="10" x="1790" y="463.4531"/><rect fill="#FFFFFF" height="111.4648" style="stroke:#181818;stroke-width:1.0;" width="10" x="1911.5" y="1444.4453"/><rect fill="#FFFFFF" height="111.4648" style="stroke:#181818;stroke-width:1.0;" width="10" x="2016" y="1649.7832"/><polygon fill="#181818" points="469.5,152.5332,479.5,156.5332,469.5,160.5332,473.5,156.5332" style="stroke:#181818;stroke-width:1.0;"/><line style="stroke:#181818;stroke-width:1.0;" x1="107.5" x2="475.5" y1="156.5332" y2="156.5332"/><text fill="#000000" font-family="sans-serif" font-size="13" font-weight="bold" lengthAdjust="spacing" textLength="7" x="114.5" y="151.2705">1</text><text fill="#000000" font-family="sans-serif" font-size="13" lengthAdjust="spacing" textLength="253" x="125.5" y="151.2705">asks to assign Team to entry in the Agenda</text><polygon fill="#181818" points="907.5,183.8242,917.5,187.8242,907.5,191.8242,911.5,187.8242" style="stroke:#181818;stroke-width:1.0;"/><line style="stroke:#181818;stroke-width:1.0;" x1="491.5" x2="913.5" y1="187.8242" y2="187.8242"/><text fill="#000000" font-family="sans-serif" font-size="13" font-weight="bold" lengthAdjust="spacing" textLength="7" x="498.5" y="182.5615">2</text><text fill="#000000" font-family="sans-serif" font-size="13" lengthAdjust="spacing" textLength="115" x="509.5" y="182.5615">getAllTaskByGSM()</text><line style="stroke:#181818;stroke-width:1.0;" x1="929.5" x2="976.5" y1="214.1152" y2="214.1152"/><line style="stroke:#181818;stroke-width:1.0;" x1="976.5" x2="976.5" y1="214.1152" y2="227.1152"/><line style="stroke:#181818;stroke-width:1.0;" x1="935.5" x2="976.5" y1="227.1152" y2="227.1152"/><polygon fill="#181818" points="945.5,223.1152,935.5,227.1152,945.5,231.1152,941.5,227.1152" style="stroke:#181818;stroke-width:1.0;"/><text fill="#000000" font-family="sans-serif" font-size="13" font-weight="bold" lengthAdjust="spacing" textLength="7" x="941.5" y="208.8525">3</text><text fill="#000000" font-family="sans-serif" font-size="13" lengthAdjust="spacing" textLength="133" x="952.5" y="208.8525">getGSMFromSession()</text><rect fill="none" height="75.1738" style="stroke:#000000;stroke-width:1.5;" width="213" x="818" y="240.1152"/><path d="M818,240.1152 L880,240.1152 L880,249.1152 L870,259.1152 L818,259.1152 L818,240.1152 " fill="#EEEEEE" style="stroke:#000000;stroke-width:2.0;"/><text fill="#000000" font-family="sans-serif" font-size="13" font-weight="bold" lengthAdjust="spacing" textLength="17" x="831" y="256.1436">ref</text><text fill="#000000" font-family="sans-serif" font-size="12" lengthAdjust="spacing" textLength="3" x="923" y="276.0645">&#160;</text><text fill="#000000" font-family="sans-serif" font-size="12" lengthAdjust="spacing" textLength="139" x="855" y="292.0254">Get GreenSpaceManager</text><text fill="#000000" font-family="sans-serif" font-size="12" lengthAdjust="spacing" textLength="3" x="923" y="307.9863">&#160;</text><line style="stroke:#181818;stroke-width:1.0;stroke-dasharray:2.0,2.0;" x1="934.5" x2="976.5" y1="348.5801" y2="348.5801"/><line style="stroke:#181818;stroke-width:1.0;stroke-dasharray:2.0,2.0;" x1="976.5" x2="976.5" y1="348.5801" y2="361.5801"/><line style="stroke:#181818;stroke-width:1.0;stroke-dasharray:2.0,2.0;" x1="929.5" x2="976.5" y1="361.5801" y2="361.5801"/><polygon fill="#181818" points="939.5,357.5801,929.5,361.5801,939.5,365.5801,935.5,361.5801" style="stroke:#181818;stroke-width:1.0;"/><text fill="#000000" font-family="sans-serif" font-size="13" font-weight="bold" lengthAdjust="spacing" textLength="7" x="941.5" y="343.3174">4</text><text fill="#000000" font-family="sans-serif" font-size="13" lengthAdjust="spacing" textLength="119" x="952.5" y="343.3174">greenSpaceManager</text><line style="stroke:#181818;stroke-width:1.0;" x1="929.5" x2="976.5" y1="382.8711" y2="382.8711"/><line style="stroke:#181818;stroke-width:1.0;" x1="976.5" x2="976.5" y1="382.8711" y2="395.8711"/><line style="stroke:#181818;stroke-width:1.0;" x1="935.5" x2="976.5" y1="395.8711" y2="395.8711"/><polygon fill="#181818" points="945.5,391.8711,935.5,395.8711,945.5,399.8711,941.5,395.8711" style="stroke:#181818;stroke-width:1.0;"/><text fill="#000000" font-family="sans-serif" font-size="13" font-weight="bold" lengthAdjust="spacing" textLength="7" x="941.5" y="377.6084">5</text><text fill="#000000" font-family="sans-serif" font-size="13" lengthAdjust="spacing" textLength="278" x="952.5" y="377.6084">getAllGreenSpaceByGSM(greenSpaceManager)</text><polygon fill="#181818" points="1595,428.1621,1605,432.1621,1595,436.1621,1599,432.1621" style="stroke:#181818;stroke-width:1.0;"/><line style="stroke:#181818;stroke-width:1.0;" x1="934.5" x2="1601" y1="432.1621" y2="432.1621"/><text fill="#000000" font-family="sans-serif" font-size="13" font-weight="bold" lengthAdjust="spacing" textLength="7" x="941.5" y="426.8994">6</text><text fill="#000000" font-family="sans-serif" font-size="13" lengthAdjust="spacing" textLength="119" x="952.5" y="426.8994">getListGreenSpace()</text><polygon fill="#181818" points="1778,459.4531,1788,463.4531,1778,467.4531,1782,463.4531" style="stroke:#181818;stroke-width:1.0;"/><line style="stroke:#181818;stroke-width:1.0;" x1="1617" x2="1784" y1="463.4531" y2="463.4531"/><text fill="#000000" font-family="sans-serif" font-size="13" font-weight="bold" lengthAdjust="spacing" textLength="7" x="1624" y="458.1904">7</text><text fill="#000000" font-family="sans-serif" font-size="13" lengthAdjust="spacing" textLength="143" x="1635" y="458.1904">getSortedGreenSpaces()</text><rect fill="none" height="43.252" style="stroke:#000000;stroke-width:1.5;" width="107" x="1741.5" y="471.4531"/><path d="M1741.5,471.4531 L1803.5,471.4531 L1803.5,480.4531 L1793.5,490.4531 L1741.5,490.4531 L1741.5,471.4531 " fill="#EEEEEE" style="stroke:#000000;stroke-width:2.0;"/><text fill="#000000" font-family="sans-serif" font-size="13" font-weight="bold" lengthAdjust="spacing" textLength="17" x="1754.5" y="487.4814">ref</text><text fill="#000000" font-family="sans-serif" font-size="12" lengthAdjust="spacing" textLength="87" x="1751.5" y="507.4023">Design in US27</text><polygon fill="#181818" points="1628,538.9961,1618,542.9961,1628,546.9961,1624,542.9961" style="stroke:#181818;stroke-width:1.0;"/><line style="stroke:#181818;stroke-width:1.0;stroke-dasharray:2.0,2.0;" x1="1622" x2="1794" y1="542.9961" y2="542.9961"/><text fill="#000000" font-family="sans-serif" font-size="13" font-weight="bold" lengthAdjust="spacing" textLength="7" x="1634" y="537.7334">8</text><text fill="#000000" font-family="sans-serif" font-size="13" lengthAdjust="spacing" textLength="90" x="1645" y="537.7334">greenSpaceList</text><polygon fill="#181818" points="945.5,570.2871,935.5,574.2871,945.5,578.2871,941.5,574.2871" style="stroke:#181818;stroke-width:1.0;"/><line style="stroke:#181818;stroke-width:1.0;stroke-dasharray:2.0,2.0;" x1="939.5" x2="1611" y1="574.2871" y2="574.2871"/><text fill="#000000" font-family="sans-serif" font-size="13" font-weight="bold" lengthAdjust="spacing" textLength="7" x="951.5" y="569.0244">9</text><text fill="#000000" font-family="sans-serif" font-size="13" lengthAdjust="spacing" textLength="94" x="962.5" y="569.0244">List greenSpace</text><line style="stroke:#181818;stroke-width:1.0;stroke-dasharray:2.0,2.0;" x1="934.5" x2="976.5" y1="610.5781" y2="610.5781"/><line style="stroke:#181818;stroke-width:1.0;stroke-dasharray:2.0,2.0;" x1="976.5" x2="976.5" y1="610.5781" y2="623.5781"/><line style="stroke:#181818;stroke-width:1.0;stroke-dasharray:2.0,2.0;" x1="929.5" x2="976.5" y1="623.5781" y2="623.5781"/><polygon fill="#181818" points="939.5,619.5781,929.5,623.5781,939.5,627.5781,935.5,623.5781" style="stroke:#181818;stroke-width:1.0;"/><text fill="#000000" font-family="sans-serif" font-size="13" font-weight="bold" lengthAdjust="spacing" textLength="14" x="941.5" y="605.3154">10</text><text fill="#000000" font-family="sans-serif" font-size="13" lengthAdjust="spacing" textLength="94" x="959.5" y="605.3154">List greenSpace</text><line style="stroke:#181818;stroke-width:1.0;" x1="929.5" x2="976.5" y1="644.8691" y2="644.8691"/><line style="stroke:#181818;stroke-width:1.0;" x1="976.5" x2="976.5" y1="644.8691" y2="657.8691"/><line style="stroke:#181818;stroke-width:1.0;" x1="935.5" x2="976.5" y1="657.8691" y2="657.8691"/><polygon fill="#181818" points="945.5,653.8691,935.5,657.8691,945.5,661.8691,941.5,657.8691" style="stroke:#181818;stroke-width:1.0;"/><text fill="#000000" font-family="sans-serif" font-size="13" font-weight="bold" lengthAdjust="spacing" textLength="14" x="941.5" y="639.6064">11</text><text fill="#000000" font-family="sans-serif" font-size="13" lengthAdjust="spacing" textLength="246" x="959.5" y="639.6064">getAllTaskByGreenSpace(listGreenSpace)</text><rect fill="none" height="75.1738" style="stroke:#000000;stroke-width:1.5;" width="213" x="818" y="670.8691"/><path d="M818,670.8691 L880,670.8691 L880,679.8691 L870,689.8691 L818,689.8691 L818,670.8691 " fill="#EEEEEE" style="stroke:#000000;stroke-width:2.0;"/><text fill="#000000" font-family="sans-serif" font-size="13" font-weight="bold" lengthAdjust="spacing" textLength="17" x="831" y="686.8975">ref</text><text fill="#000000" font-family="sans-serif" font-size="12" lengthAdjust="spacing" textLength="3" x="923" y="706.8184">&#160;</text><text fill="#000000" font-family="sans-serif" font-size="12" lengthAdjust="spacing" textLength="153" x="848" y="722.7793">Get All Task By GreenSpace</text><text fill="#000000" font-family="sans-serif" font-size="12" lengthAdjust="spacing" textLength="3" x="923" y="738.7402">&#160;</text><line style="stroke:#181818;stroke-width:1.0;stroke-dasharray:2.0,2.0;" x1="934.5" x2="976.5" y1="779.334" y2="779.334"/><line style="stroke:#181818;stroke-width:1.0;stroke-dasharray:2.0,2.0;" x1="976.5" x2="976.5" y1="779.334" y2="792.334"/><line style="stroke:#181818;stroke-width:1.0;stroke-dasharray:2.0,2.0;" x1="929.5" x2="976.5" y1="792.334" y2="792.334"/><polygon fill="#181818" points="939.5,788.334,929.5,792.334,939.5,796.334,935.5,792.334" style="stroke:#181818;stroke-width:1.0;"/><text fill="#000000" font-family="sans-serif" font-size="13" font-weight="bold" lengthAdjust="spacing" textLength="14" x="941.5" y="774.0713">12</text><text fill="#000000" font-family="sans-serif" font-size="13" lengthAdjust="spacing" textLength="45" x="959.5" y="774.0713">listTask</text><polygon fill="#181818" points="502.5,814.625,492.5,818.625,502.5,822.625,498.5,818.625" style="stroke:#181818;stroke-width:1.0;"/><line style="stroke:#181818;stroke-width:1.0;stroke-dasharray:2.0,2.0;" x1="496.5" x2="923.5" y1="818.625" y2="818.625"/><text fill="#000000" font-family="sans-serif" font-size="13" font-weight="bold" lengthAdjust="spacing" textLength="14" x="508.5" y="813.3623">13</text><text fill="#000000" font-family="sans-serif" font-size="13" lengthAdjust="spacing" textLength="45" x="526.5" y="813.3623">listTask</text><polygon fill="#181818" points="118.5,845.916,108.5,849.916,118.5,853.916,114.5,849.916" style="stroke:#181818;stroke-width:1.0;"/><line style="stroke:#181818;stroke-width:1.0;stroke-dasharray:2.0,2.0;" x1="112.5" x2="485.5" y1="849.916" y2="849.916"/><text fill="#000000" font-family="sans-serif" font-size="13" font-weight="bold" lengthAdjust="spacing" textLength="14" x="124.5" y="844.6533">14</text><text fill="#000000" font-family="sans-serif" font-size="13" lengthAdjust="spacing" textLength="218" x="142.5" y="844.6533">Show Task List and ask to select one</text><polygon fill="#181818" points="469.5,877.207,479.5,881.207,469.5,885.207,473.5,881.207" style="stroke:#181818;stroke-width:1.0;"/><line style="stroke:#181818;stroke-width:1.0;" x1="107.5" x2="475.5" y1="881.207" y2="881.207"/><text fill="#000000" font-family="sans-serif" font-size="13" font-weight="bold" lengthAdjust="spacing" textLength="14" x="114.5" y="875.9443">15</text><text fill="#000000" font-family="sans-serif" font-size="13" lengthAdjust="spacing" textLength="82" x="132.5" y="875.9443">choose a task</text><polygon fill="#181818" points="907.5,908.498,917.5,912.498,907.5,916.498,911.5,912.498" style="stroke:#181818;stroke-width:1.0;"/><line style="stroke:#181818;stroke-width:1.0;" x1="491.5" x2="913.5" y1="912.498" y2="912.498"/><text fill="#000000" font-family="sans-serif" font-size="13" font-weight="bold" lengthAdjust="spacing" textLength="14" x="498.5" y="907.2354">16</text><text fill="#000000" font-family="sans-serif" font-size="13" lengthAdjust="spacing" textLength="80" x="516.5" y="907.2354">getAllTeams()</text><polygon fill="#181818" points="1220.5,939.7891,1230.5,943.7891,1220.5,947.7891,1224.5,943.7891" style="stroke:#181818;stroke-width:1.0;"/><line style="stroke:#181818;stroke-width:1.0;" x1="929.5" x2="1226.5" y1="943.7891" y2="943.7891"/><text fill="#000000" font-family="sans-serif" font-size="13" font-weight="bold" lengthAdjust="spacing" textLength="14" x="936.5" y="938.5264">17</text><text fill="#000000" font-family="sans-serif" font-size="13" lengthAdjust="spacing" textLength="75" x="954.5" y="938.5264">getInstance()</text><polygon fill="#181818" points="940.5,971.0801,930.5,975.0801,940.5,979.0801,936.5,975.0801" style="stroke:#181818;stroke-width:1.0;"/><line style="stroke:#181818;stroke-width:1.0;stroke-dasharray:2.0,2.0;" x1="934.5" x2="1236.5" y1="975.0801" y2="975.0801"/><text fill="#000000" font-family="sans-serif" font-size="13" font-weight="bold" lengthAdjust="spacing" textLength="14" x="946.5" y="969.8174">18</text><text fill="#000000" font-family="sans-serif" font-size="13" lengthAdjust="spacing" textLength="67" x="964.5" y="969.8174">repositories</text><polygon fill="#181818" points="1327.5,1002.3711,1337.5,1006.3711,1327.5,1010.3711,1331.5,1006.3711" style="stroke:#181818;stroke-width:1.0;"/><line style="stroke:#181818;stroke-width:1.0;" x1="929.5" x2="1333.5" y1="1006.3711" y2="1006.3711"/><text fill="#000000" font-family="sans-serif" font-size="13" font-weight="bold" lengthAdjust="spacing" textLength="14" x="936.5" y="1001.1084">19</text><text fill="#000000" font-family="sans-serif" font-size="13" lengthAdjust="spacing" textLength="120" x="954.5" y="1001.1084">getTeamRepository()</text><polygon fill="#181818" points="940.5,1033.6621,930.5,1037.6621,940.5,1041.6621,936.5,1037.6621" style="stroke:#181818;stroke-width:1.0;"/><line style="stroke:#181818;stroke-width:1.0;stroke-dasharray:2.0,2.0;" x1="934.5" x2="1343.5" y1="1037.6621" y2="1037.6621"/><text fill="#000000" font-family="sans-serif" font-size="13" font-weight="bold" lengthAdjust="spacing" textLength="14" x="946.5" y="1032.3994">20</text><text fill="#000000" font-family="sans-serif" font-size="13" lengthAdjust="spacing" textLength="91" x="964.5" y="1032.3994">teamRepository</text><polygon fill="#181818" points="1447,1064.9531,1457,1068.9531,1447,1072.9531,1451,1068.9531" style="stroke:#181818;stroke-width:1.0;"/><line style="stroke:#181818;stroke-width:1.0;" x1="929.5" x2="1453" y1="1068.9531" y2="1068.9531"/><text fill="#000000" font-family="sans-serif" font-size="13" font-weight="bold" lengthAdjust="spacing" textLength="14" x="936.5" y="1063.6904">21</text><text fill="#000000" font-family="sans-serif" font-size="13" lengthAdjust="spacing" textLength="80" x="954.5" y="1063.6904">getAllTeams()</text><polygon fill="#181818" points="940.5,1096.2441,930.5,1100.2441,940.5,1104.2441,936.5,1100.2441" style="stroke:#181818;stroke-width:1.0;"/><line style="stroke:#181818;stroke-width:1.0;stroke-dasharray:2.0,2.0;" x1="934.5" x2="1463" y1="1100.2441" y2="1100.2441"/><text fill="#000000" font-family="sans-serif" font-size="13" font-weight="bold" lengthAdjust="spacing" textLength="14" x="946.5" y="1094.9814">22</text><text fill="#000000" font-family="sans-serif" font-size="13" lengthAdjust="spacing" textLength="49" x="964.5" y="1094.9814">listTeam</text><polygon fill="#181818" points="502.5,1127.5352,492.5,1131.5352,502.5,1135.5352,498.5,1131.5352" style="stroke:#181818;stroke-width:1.0;"/><line style="stroke:#181818;stroke-width:1.0;stroke-dasharray:2.0,2.0;" x1="496.5" x2="923.5" y1="1131.5352" y2="1131.5352"/><text fill="#000000" font-family="sans-serif" font-size="13" font-weight="bold" lengthAdjust="spacing" textLength="14" x="508.5" y="1126.2725">23</text><text fill="#000000" font-family="sans-serif" font-size="13" lengthAdjust="spacing" textLength="49" x="526.5" y="1126.2725">listTeam</text><polygon fill="#181818" points="118.5,1158.8262,108.5,1162.8262,118.5,1166.8262,114.5,1162.8262" style="stroke:#181818;stroke-width:1.0;"/><line style="stroke:#181818;stroke-width:1.0;stroke-dasharray:2.0,2.0;" x1="112.5" x2="485.5" y1="1162.8262" y2="1162.8262"/><text fill="#000000" font-family="sans-serif" font-size="13" font-weight="bold" lengthAdjust="spacing" textLength="14" x="124.5" y="1157.5635">24</text><text fill="#000000" font-family="sans-serif" font-size="13" lengthAdjust="spacing" textLength="332" x="142.5" y="1157.5635">show the list of the teams and ask to choose one of them</text><polygon fill="#181818" points="469.5,1190.1172,479.5,1194.1172,469.5,1198.1172,473.5,1194.1172" style="stroke:#181818;stroke-width:1.0;"/><line style="stroke:#181818;stroke-width:1.0;" x1="107.5" x2="475.5" y1="1194.1172" y2="1194.1172"/><text fill="#000000" font-family="sans-serif" font-size="13" font-weight="bold" lengthAdjust="spacing" textLength="14" x="114.5" y="1188.8545">25</text><text fill="#000000" font-family="sans-serif" font-size="13" lengthAdjust="spacing" textLength="69" x="132.5" y="1188.8545">type a team</text><polygon fill="#181818" points="118.5,1221.4082,108.5,1225.4082,118.5,1229.4082,114.5,1225.4082" style="stroke:#181818;stroke-width:1.0;"/><line style="stroke:#181818;stroke-width:1.0;stroke-dasharray:2.0,2.0;" x1="112.5" x2="485.5" y1="1225.4082" y2="1225.4082"/><text fill="#000000" font-family="sans-serif" font-size="13" font-weight="bold" lengthAdjust="spacing" textLength="14" x="124.5" y="1220.1455">26</text><text fill="#000000" font-family="sans-serif" font-size="13" lengthAdjust="spacing" textLength="222" x="142.5" y="1220.1455">show all data and request confirmation</text><polygon fill="#181818" points="469.5,1252.6992,479.5,1256.6992,469.5,1260.6992,473.5,1256.6992" style="stroke:#181818;stroke-width:1.0;"/><line style="stroke:#181818;stroke-width:1.0;" x1="107.5" x2="475.5" y1="1256.6992" y2="1256.6992"/><text fill="#000000" font-family="sans-serif" font-size="13" font-weight="bold" lengthAdjust="spacing" textLength="14" x="114.5" y="1251.4365">27</text><text fill="#000000" font-family="sans-serif" font-size="13" lengthAdjust="spacing" textLength="78" x="132.5" y="1251.4365">confirms data</text><polygon fill="#181818" points="907.5,1283.9902,917.5,1287.9902,907.5,1291.9902,911.5,1287.9902" style="stroke:#181818;stroke-width:1.0;"/><line style="stroke:#181818;stroke-width:1.0;" x1="491.5" x2="913.5" y1="1287.9902" y2="1287.9902"/><text fill="#000000" font-family="sans-serif" font-size="13" font-weight="bold" lengthAdjust="spacing" textLength="14" x="498.5" y="1282.7275">28</text><text fill="#000000" font-family="sans-serif" font-size="13" lengthAdjust="spacing" textLength="391" x="516.5" y="1282.7275">assignTeamTask(teamCollaboratorName,taskParkName,taskName)</text><polygon fill="#181818" points="1220.5,1315.2813,1230.5,1319.2813,1220.5,1323.2813,1224.5,1319.2813" style="stroke:#181818;stroke-width:1.0;"/><line style="stroke:#181818;stroke-width:1.0;" x1="929.5" x2="1226.5" y1="1319.2813" y2="1319.2813"/><text fill="#000000" font-family="sans-serif" font-size="13" font-weight="bold" lengthAdjust="spacing" textLength="14" x="936.5" y="1314.0186">29</text><text fill="#000000" font-family="sans-serif" font-size="13" lengthAdjust="spacing" textLength="75" x="954.5" y="1314.0186">getInstance()</text><polygon fill="#181818" points="940.5,1346.5723,930.5,1350.5723,940.5,1354.5723,936.5,1350.5723" style="stroke:#181818;stroke-width:1.0;"/><line style="stroke:#181818;stroke-width:1.0;stroke-dasharray:2.0,2.0;" x1="934.5" x2="1236.5" y1="1350.5723" y2="1350.5723"/><text fill="#000000" font-family="sans-serif" font-size="13" font-weight="bold" lengthAdjust="spacing" textLength="14" x="946.5" y="1345.3096">30</text><text fill="#000000" font-family="sans-serif" font-size="13" lengthAdjust="spacing" textLength="67" x="964.5" y="1345.3096">repositories</text><polygon fill="#181818" points="1327.5,1377.8633,1337.5,1381.8633,1327.5,1385.8633,1331.5,1381.8633" style="stroke:#181818;stroke-width:1.0;"/><line style="stroke:#181818;stroke-width:1.0;" x1="929.5" x2="1333.5" y1="1381.8633" y2="1381.8633"/><text fill="#000000" font-family="sans-serif" font-size="13" font-weight="bold" lengthAdjust="spacing" textLength="14" x="936.5" y="1376.6006">31</text><text fill="#000000" font-family="sans-serif" font-size="13" lengthAdjust="spacing" textLength="120" x="954.5" y="1376.6006">getTeamRepository()</text><polygon fill="#181818" points="940.5,1409.1543,930.5,1413.1543,940.5,1417.1543,936.5,1413.1543" style="stroke:#181818;stroke-width:1.0;"/><line style="stroke:#181818;stroke-width:1.0;stroke-dasharray:2.0,2.0;" x1="934.5" x2="1343.5" y1="1413.1543" y2="1413.1543"/><text fill="#000000" font-family="sans-serif" font-size="13" font-weight="bold" lengthAdjust="spacing" textLength="14" x="946.5" y="1407.8916">32</text><text fill="#000000" font-family="sans-serif" font-size="13" lengthAdjust="spacing" textLength="91" x="964.5" y="1407.8916">teamRepository</text><polygon fill="#181818" points="1899.5,1440.4453,1909.5,1444.4453,1899.5,1448.4453,1903.5,1444.4453" style="stroke:#181818;stroke-width:1.0;"/><line style="stroke:#181818;stroke-width:1.0;" x1="929.5" x2="1905.5" y1="1444.4453" y2="1444.4453"/><text fill="#000000" font-family="sans-serif" font-size="13" font-weight="bold" lengthAdjust="spacing" textLength="14" x="936.5" y="1439.1826">33</text><text fill="#000000" font-family="sans-serif" font-size="13" lengthAdjust="spacing" textLength="309" x="954.5" y="1439.1826">getTeamByCollaboratorName(teamCollaboratorName)</text><rect fill="none" height="75.1738" style="stroke:#000000;stroke-width:1.5;" width="145" x="1852.5" y="1452.4453"/><path d="M1852.5,1452.4453 L1914.5,1452.4453 L1914.5,1461.4453 L1904.5,1471.4453 L1852.5,1471.4453 L1852.5,1452.4453 " fill="#EEEEEE" style="stroke:#000000;stroke-width:2.0;"/><text fill="#000000" font-family="sans-serif" font-size="13" font-weight="bold" lengthAdjust="spacing" textLength="17" x="1865.5" y="1468.4736">ref</text><text fill="#000000" font-family="sans-serif" font-size="12" lengthAdjust="spacing" textLength="3" x="1923.5" y="1488.3945">&#160;</text><text fill="#000000" font-family="sans-serif" font-size="12" lengthAdjust="spacing" textLength="137" x="1856.5" y="1504.3555">Get team By Collaborator</text><text fill="#000000" font-family="sans-serif" font-size="12" lengthAdjust="spacing" textLength="3" x="1923.5" y="1520.3164">&#160;</text><polygon fill="#181818" points="940.5,1551.9102,930.5,1555.9102,940.5,1559.9102,936.5,1555.9102" style="stroke:#181818;stroke-width:1.0;"/><line style="stroke:#181818;stroke-width:1.0;stroke-dasharray:2.0,2.0;" x1="934.5" x2="1915.5" y1="1555.9102" y2="1555.9102"/><text fill="#000000" font-family="sans-serif" font-size="13" font-weight="bold" lengthAdjust="spacing" textLength="14" x="946.5" y="1550.6475">34</text><text fill="#000000" font-family="sans-serif" font-size="13" lengthAdjust="spacing" textLength="29" x="964.5" y="1550.6475">team</text><polygon fill="#181818" points="1327.5,1583.2012,1337.5,1587.2012,1327.5,1591.2012,1331.5,1587.2012" style="stroke:#181818;stroke-width:1.0;"/><line style="stroke:#181818;stroke-width:1.0;" x1="929.5" x2="1333.5" y1="1587.2012" y2="1587.2012"/><text fill="#000000" font-family="sans-serif" font-size="13" font-weight="bold" lengthAdjust="spacing" textLength="14" x="936.5" y="1581.9385">35</text><text fill="#000000" font-family="sans-serif" font-size="13" lengthAdjust="spacing" textLength="70" x="954.5" y="1581.9385">getAgenda()</text><polygon fill="#181818" points="940.5,1614.4922,930.5,1618.4922,940.5,1622.4922,936.5,1618.4922" style="stroke:#181818;stroke-width:1.0;"/><line style="stroke:#181818;stroke-width:1.0;stroke-dasharray:2.0,2.0;" x1="934.5" x2="1343.5" y1="1618.4922" y2="1618.4922"/><text fill="#000000" font-family="sans-serif" font-size="13" font-weight="bold" lengthAdjust="spacing" textLength="14" x="946.5" y="1613.2295">36</text><text fill="#000000" font-family="sans-serif" font-size="13" lengthAdjust="spacing" textLength="42" x="964.5" y="1613.2295">agenda</text><polygon fill="#181818" points="2004,1645.7832,2014,1649.7832,2004,1653.7832,2008,1649.7832" style="stroke:#181818;stroke-width:1.0;"/><line style="stroke:#181818;stroke-width:1.0;" x1="929.5" x2="2010" y1="1649.7832" y2="1649.7832"/><text fill="#000000" font-family="sans-serif" font-size="13" font-weight="bold" lengthAdjust="spacing" textLength="14" x="936.5" y="1644.5205">37</text><text fill="#000000" font-family="sans-serif" font-size="13" lengthAdjust="spacing" textLength="352" x="954.5" y="1644.5205">getTaskByNameAndGreenSpace(taskParkName, taskName)</text><rect fill="none" height="75.1738" style="stroke:#000000;stroke-width:1.5;" width="206" x="1984.5" y="1657.7832"/><path d="M1984.5,1657.7832 L2046.5,1657.7832 L2046.5,1666.7832 L2036.5,1676.7832 L1984.5,1676.7832 L1984.5,1657.7832 " fill="#EEEEEE" style="stroke:#000000;stroke-width:2.0;"/><text fill="#000000" font-family="sans-serif" font-size="13" font-weight="bold" lengthAdjust="spacing" textLength="17" x="1997.5" y="1673.8115">ref</text><text fill="#000000" font-family="sans-serif" font-size="12" lengthAdjust="spacing" textLength="3" x="2086" y="1693.7324">&#160;</text><text fill="#000000" font-family="sans-serif" font-size="12" lengthAdjust="spacing" textLength="198" x="1988.5" y="1709.6934">Get Task By Name and GreenSpace</text><text fill="#000000" font-family="sans-serif" font-size="12" lengthAdjust="spacing" textLength="3" x="2086" y="1725.6543">&#160;</text><polygon fill="#181818" points="940.5,1757.248,930.5,1761.248,940.5,1765.248,936.5,1761.248" style="stroke:#181818;stroke-width:1.0;"/><line style="stroke:#181818;stroke-width:1.0;stroke-dasharray:2.0,2.0;" x1="934.5" x2="2020" y1="1761.248" y2="1761.248"/><text fill="#000000" font-family="sans-serif" font-size="13" font-weight="bold" lengthAdjust="spacing" textLength="14" x="946.5" y="1755.9854">38</text><text fill="#000000" font-family="sans-serif" font-size="13" lengthAdjust="spacing" textLength="25" x="964.5" y="1755.9854">task</text><line style="stroke:#181818;stroke-width:1.0;" x1="929.5" x2="976.5" y1="1787.5391" y2="1787.5391"/><line style="stroke:#181818;stroke-width:1.0;" x1="976.5" x2="976.5" y1="1787.5391" y2="1800.5391"/><line style="stroke:#181818;stroke-width:1.0;" x1="935.5" x2="976.5" y1="1800.5391" y2="1800.5391"/><polygon fill="#181818" points="945.5,1796.5391,935.5,1800.5391,945.5,1804.5391,941.5,1800.5391" style="stroke:#181818;stroke-width:1.0;"/><text fill="#000000" font-family="sans-serif" font-size="13" font-weight="bold" lengthAdjust="spacing" textLength="14" x="941.5" y="1782.2764">39</text><text fill="#000000" font-family="sans-serif" font-size="13" lengthAdjust="spacing" textLength="136" x="959.5" y="1782.2764">assignTeam(team,task)</text><rect fill="none" height="75.1738" style="stroke:#000000;stroke-width:1.5;" width="213" x="818" y="1813.5391"/><path d="M818,1813.5391 L880,1813.5391 L880,1822.5391 L870,1832.5391 L818,1832.5391 L818,1813.5391 " fill="#EEEEEE" style="stroke:#000000;stroke-width:2.0;"/><text fill="#000000" font-family="sans-serif" font-size="13" font-weight="bold" lengthAdjust="spacing" textLength="17" x="831" y="1829.5674">ref</text><text fill="#000000" font-family="sans-serif" font-size="12" lengthAdjust="spacing" textLength="3" x="923" y="1849.4883">&#160;</text><text fill="#000000" font-family="sans-serif" font-size="12" lengthAdjust="spacing" textLength="103" x="873" y="1865.4492">Assign Team Task</text><text fill="#000000" font-family="sans-serif" font-size="12" lengthAdjust="spacing" textLength="3" x="923" y="1881.4102">&#160;</text><line style="stroke:#181818;stroke-width:1.0;stroke-dasharray:2.0,2.0;" x1="934.5" x2="976.5" y1="1922.0039" y2="1922.0039"/><line style="stroke:#181818;stroke-width:1.0;stroke-dasharray:2.0,2.0;" x1="976.5" x2="976.5" y1="1922.0039" y2="1935.0039"/><line style="stroke:#181818;stroke-width:1.0;stroke-dasharray:2.0,2.0;" x1="929.5" x2="976.5" y1="1935.0039" y2="1935.0039"/><polygon fill="#181818" points="939.5,1931.0039,929.5,1935.0039,939.5,1939.0039,935.5,1935.0039" style="stroke:#181818;stroke-width:1.0;"/><text fill="#000000" font-family="sans-serif" font-size="13" font-weight="bold" lengthAdjust="spacing" textLength="14" x="941.5" y="1916.7412">40</text><text fill="#000000" font-family="sans-serif" font-size="13" lengthAdjust="spacing" textLength="53" x="959.5" y="1916.7412">true/false</text><path d="M811,1945.0039 L872,1945.0039 L872,1954.2949 L862,1964.2949 L811,1964.2949 L811,1945.0039 " fill="#EEEEEE" style="stroke:#000000;stroke-width:1.5;"/><rect fill="none" height="188.0469" style="stroke:#000000;stroke-width:1.5;" width="323.5" x="811" y="1945.0039"/><text fill="#000000" font-family="sans-serif" font-size="13" font-weight="bold" lengthAdjust="spacing" textLength="16" x="826" y="1960.0322">alt</text><text fill="#000000" font-family="sans-serif" font-size="11" font-weight="bold" lengthAdjust="spacing" textLength="117" x="887" y="1958.874">[assignTeam == true]</text><line style="stroke:#181818;stroke-width:1.0;" x1="929.5" x2="976.5" y1="1982.5859" y2="1982.5859"/><line style="stroke:#181818;stroke-width:1.0;" x1="976.5" x2="976.5" y1="1982.5859" y2="1995.5859"/><line style="stroke:#181818;stroke-width:1.0;" x1="935.5" x2="976.5" y1="1995.5859" y2="1995.5859"/><polygon fill="#181818" points="945.5,1991.5859,935.5,1995.5859,945.5,1999.5859,941.5,1995.5859" style="stroke:#181818;stroke-width:1.0;"/><text fill="#000000" font-family="sans-serif" font-size="13" font-weight="bold" lengthAdjust="spacing" textLength="14" x="941.5" y="1977.3232">41</text><text fill="#000000" font-family="sans-serif" font-size="13" lengthAdjust="spacing" textLength="163" x="959.5" y="1977.3232">sendEmailTeam(team, msg)</text><rect fill="none" height="75.1738" style="stroke:#000000;stroke-width:1.5;" width="213" x="818" y="2008.5859"/><path d="M818,2008.5859 L880,2008.5859 L880,2017.5859 L870,2027.5859 L818,2027.5859 L818,2008.5859 " fill="#EEEEEE" style="stroke:#000000;stroke-width:2.0;"/><text fill="#000000" font-family="sans-serif" font-size="13" font-weight="bold" lengthAdjust="spacing" textLength="17" x="831" y="2024.6143">ref</text><text fill="#000000" font-family="sans-serif" font-size="12" lengthAdjust="spacing" textLength="3" x="923" y="2044.5352">&#160;</text><text fill="#000000" font-family="sans-serif" font-size="12" lengthAdjust="spacing" textLength="115" x="867" y="2060.4961">Send Email By Team</text><text fill="#000000" font-family="sans-serif" font-size="12" lengthAdjust="spacing" textLength="3" x="923" y="2076.457">&#160;</text><line style="stroke:#181818;stroke-width:1.0;stroke-dasharray:2.0,2.0;" x1="934.5" x2="976.5" y1="2117.0508" y2="2117.0508"/><line style="stroke:#181818;stroke-width:1.0;stroke-dasharray:2.0,2.0;" x1="976.5" x2="976.5" y1="2117.0508" y2="2130.0508"/><line style="stroke:#181818;stroke-width:1.0;stroke-dasharray:2.0,2.0;" x1="929.5" x2="976.5" y1="2130.0508" y2="2130.0508"/><polygon fill="#181818" points="939.5,2126.0508,929.5,2130.0508,939.5,2134.0508,935.5,2130.0508" style="stroke:#181818;stroke-width:1.0;"/><text fill="#000000" font-family="sans-serif" font-size="13" font-weight="bold" lengthAdjust="spacing" textLength="14" x="941.5" y="2111.7881">42</text><text fill="#000000" font-family="sans-serif" font-size="13" lengthAdjust="spacing" textLength="53" x="959.5" y="2111.7881">true/false</text><polygon fill="#181818" points="502.5,2159.3418,492.5,2163.3418,502.5,2167.3418,498.5,2163.3418" style="stroke:#181818;stroke-width:1.0;"/><line style="stroke:#181818;stroke-width:1.0;stroke-dasharray:2.0,2.0;" x1="496.5" x2="923.5" y1="2163.3418" y2="2163.3418"/><text fill="#000000" font-family="sans-serif" font-size="13" font-weight="bold" lengthAdjust="spacing" textLength="14" x="508.5" y="2158.0791">43</text><text fill="#000000" font-family="sans-serif" font-size="13" lengthAdjust="spacing" textLength="53" x="526.5" y="2158.0791">true/false</text><polygon fill="#181818" points="113.5,2190.6328,103.5,2194.6328,113.5,2198.6328,109.5,2194.6328" style="stroke:#181818;stroke-width:1.0;"/><line style="stroke:#181818;stroke-width:1.0;stroke-dasharray:2.0,2.0;" x1="107.5" x2="485.5" y1="2194.6328" y2="2194.6328"/><text fill="#000000" font-family="sans-serif" font-size="13" font-weight="bold" lengthAdjust="spacing" textLength="14" x="119.5" y="2189.3701">44</text><text fill="#000000" font-family="sans-serif" font-size="13" lengthAdjust="spacing" textLength="158" x="137.5" y="2189.3701">displays operation success</text><!--SRC=[xLTDZ-8u43sFVqMfBz3IjbRQFQo4D2Eb6nOXzGSYS5jfv0ucM1riDZOpox_VAZiVTX9WPi_RXuQ4gbSlpw_AZlcGwiXBVe23LZhRb_eWm9OdmKppov5d7pmNgJqN0agHMQxo8WmmUxxLtwNAOSSB8nYpqcBePW6f-FiaL2PWAdbEeUCqdTx30spIttx7ZyGOcIjO2_n9AfWfMqfX6ECdgzNfy2vAnaPxkHMmqzg-wtyOpwmkuMvU2g4WHMe2NhX2UYMCv-dB_Hrm0_Y5CUHcPIQFN5cuc_XAL2Z9XThopS95RXOtufuqSj958KeN_xHUFNSoLkAeZKHMoDp5D3VEgIIby57Yb3B8-4lr0PRFoJhEiCYdXSMSTNJ3PQrNSKvE4Zc5Ae4mRTwzLylrTYaN2RP9djvyDPkzfilaQPR-1vQpv6KrMtRgSQSrPdZHNMGodxrE4qOhBhznAuZc9yReFpny8NTDCEp3WDNusVe8BmMksPaCPVS2F6I0WslEC1inQ3KH9HSsAOerWZsU4Nvy7mIx1MSkC4h0k3-nMLA1bRKQI2d53lGtjAM_d0iBFVKPGserUW3VZzkAcupm4Te2_a5wG9UVZ3pWSPwbiIqGFbcu06zk0TvSHci3dvZgqefju9P8bT0rhJZXtQbmYuZBXjFX3v86fyqE2mQ57WAgJI5Y72eKbV9qMwKeECYDfFKFs5sEQnbN5gFoKwja4GdxGuv1620SU3m7xhbW6yAdu91W4EKQPYYcgaSjuTNzX87fNd_tfTtZSrmCki3cCgB0FG2q4Y46DHMbFdpPB2QGxRKs0ZXOL-jcws7VcYjjDp1HVUv26ToDd4lRtA7vouOW0kt2aHnfCmXMyw91xOd4aowYuwOvSw5rmGd4epAgwEFh4klL5PLmv3CCw7e0uo942XirW3Y0NvOOQlLq_JQk4n1sr2Qu6BpJMBAwCmByIwTVNUvNrtSZvyLH1Jj0PMer6xHXb-QG3GtPaAOuPO3UkUyadWajMTaDBLc5nC2rDvjjmvwFpfoEGS-SldfTd6CBRhdbhbv9vnaaaccra-M1Mqbsw9TgAbM1na5SR8H9jO6H9DHpOsBsXASE_gvBZWvvvGVn2_NIafSVpGLz-RzfXfgcEcIqPHxFNJa7DOwQgpwfiAWB_2qQpWH0Wpa4gKPpGo1Go_RQia7hI-CFBRSbuTNXvg8K_XHL2U5s97hEH0Nxz3Wo5WmvgpwBDKhKDqY7UeEY9DSblPsg8X6AqTs3Qi3ELjhsXLilP_kREsVuLk4tky7zabvpVgtUM7fZY1SsA0wVF_kteYu_WyYp0vT5In4E9hz9CQNJZKiavVme_7cISOOVRTVYuzcwbUPOyBC1VHIb6sLWJXcUsqnlfCLdf7y1]--></g></svg>