<?xml version="1.0" encoding="us-ascii" standalone="no"?><svg xmlns="http://www.w3.org/2000/svg" xmlns:xlink="http://www.w3.org/1999/xlink" contentStyleType="text/css" height="421px" preserveAspectRatio="none" style="width:1064px;height:421px;background:#FFFFFF;" version="1.1" viewBox="0 0 1064 421" width="1064px" zoomAndPan="magnify"><defs/><g><rect fill="#FFFFFF" height="256.3281" style="stroke:#181818;stroke-width:1.0;" width="10" x="357" y="90.5332"/><rect fill="#FFFFFF" height="127.1641" style="stroke:#181818;stroke-width:1.0;" width="10" x="698" y="174.4063"/><rect fill="#FFFFFF" height="31.291" style="stroke:#181818;stroke-width:1.0;" width="10" x="962" y="231.9883"/><rect fill="none" height="211.0371" style="stroke:#000000;stroke-width:1.5;" width="777" x="281" y="105.5332"/><rect fill="none" height="177.7461" style="stroke:#000000;stroke-width:1.5;" width="757" x="291" y="131.8242"/><rect fill="none" height="81.873" style="stroke:#000000;stroke-width:1.5;" width="372" x="666" y="189.4063"/><line style="stroke:#181818;stroke-width:0.5;stroke-dasharray:5.0,5.0;" x1="362" x2="362" y1="57.2422" y2="364.8613"/><line style="stroke:#181818;stroke-width:0.5;stroke-dasharray:5.0,5.0;" x1="703" x2="703" y1="57.2422" y2="364.8613"/><line style="stroke:#181818;stroke-width:0.5;stroke-dasharray:5.0,5.0;" x1="967" x2="967" y1="57.2422" y2="364.8613"/><rect fill="#E3E3E3" height="51.2422" rx="2.5" ry="2.5" style="stroke:#181818;stroke-width:0.5;" width="122" x="301" y="5"/><text fill="#000000" font-family="sans-serif" font-size="14" lengthAdjust="spacing" textLength="99" x="312.5" y="27.1074">teamRepository</text><text fill="#000000" font-family="sans-serif" font-size="14" lengthAdjust="spacing" textLength="108" x="308" y="45.7285">:TeamRepository</text><rect fill="#E3E3E3" height="51.2422" rx="2.5" ry="2.5" style="stroke:#181818;stroke-width:0.5;" width="122" x="301" y="363.8613"/><text fill="#000000" font-family="sans-serif" font-size="14" lengthAdjust="spacing" textLength="99" x="312.5" y="385.9688">teamRepository</text><text fill="#000000" font-family="sans-serif" font-size="14" lengthAdjust="spacing" textLength="108" x="308" y="404.5898">:TeamRepository</text><rect fill="#E3E3E3" height="51.2422" rx="2.5" ry="2.5" style="stroke:#181818;stroke-width:0.5;" width="54" x="676" y="5"/><text fill="#000000" font-family="sans-serif" font-size="14" lengthAdjust="spacing" textLength="31" x="687.5" y="27.1074">team</text><text fill="#000000" font-family="sans-serif" font-size="14" lengthAdjust="spacing" textLength="40" x="683" y="45.7285">:Team</text><rect fill="#E3E3E3" height="51.2422" rx="2.5" ry="2.5" style="stroke:#181818;stroke-width:0.5;" width="54" x="676" y="363.8613"/><text fill="#000000" font-family="sans-serif" font-size="14" lengthAdjust="spacing" textLength="31" x="687.5" y="385.9688">team</text><text fill="#000000" font-family="sans-serif" font-size="14" lengthAdjust="spacing" textLength="40" x="683" y="404.5898">:Team</text><rect fill="#E3E3E3" height="51.2422" rx="2.5" ry="2.5" style="stroke:#181818;stroke-width:0.5;" width="96" x="919" y="5"/><text fill="#000000" font-family="sans-serif" font-size="14" lengthAdjust="spacing" textLength="75" x="929.5" y="27.1074">collaborator</text><text fill="#000000" font-family="sans-serif" font-size="14" lengthAdjust="spacing" textLength="82" x="926" y="45.7285">:Collaborator</text><rect fill="#E3E3E3" height="51.2422" rx="2.5" ry="2.5" style="stroke:#181818;stroke-width:0.5;" width="96" x="919" y="363.8613"/><text fill="#000000" font-family="sans-serif" font-size="14" lengthAdjust="spacing" textLength="75" x="929.5" y="385.9688">collaborator</text><text fill="#000000" font-family="sans-serif" font-size="14" lengthAdjust="spacing" textLength="82" x="926" y="404.5898">:Collaborator</text><rect fill="#FFFFFF" height="256.3281" style="stroke:#181818;stroke-width:1.0;" width="10" x="357" y="90.5332"/><rect fill="#FFFFFF" height="127.1641" style="stroke:#181818;stroke-width:1.0;" width="10" x="698" y="174.4063"/><rect fill="#FFFFFF" height="31.291" style="stroke:#181818;stroke-width:1.0;" width="10" x="962" y="231.9883"/><polygon fill="#181818" points="345,86.5332,355,90.5332,345,94.5332,349,90.5332" style="stroke:#181818;stroke-width:1.0;"/><line style="stroke:#181818;stroke-width:1.0;stroke-dasharray:2.0,2.0;" x1="0" x2="351" y1="90.5332" y2="90.5332"/><text fill="#000000" font-family="sans-serif" font-size="13" font-weight="bold" lengthAdjust="spacing" textLength="25" x="7" y="85.2705">35.1</text><text fill="#000000" font-family="sans-serif" font-size="13" lengthAdjust="spacing" textLength="309" x="36" y="85.2705">getTeamByCollaboratorName(teamCollaboratorName)</text><path d="M281,105.5332 L487,105.5332 L487,114.8242 L477,124.8242 L281,124.8242 L281,105.5332 " fill="#EEEEEE" style="stroke:#000000;stroke-width:1.5;"/><rect fill="none" height="211.0371" style="stroke:#000000;stroke-width:1.5;" width="777" x="281" y="105.5332"/><text fill="#000000" font-family="sans-serif" font-size="13" font-weight="bold" lengthAdjust="spacing" textLength="161" x="296" y="120.5615">Get team By Collaborator</text><path d="M291,131.8242 L364,131.8242 L364,141.1152 L354,151.1152 L291,151.1152 L291,131.8242 " fill="#EEEEEE" style="stroke:#000000;stroke-width:1.5;"/><rect fill="none" height="177.7461" style="stroke:#000000;stroke-width:1.5;" width="757" x="291" y="131.8242"/><text fill="#000000" font-family="sans-serif" font-size="13" font-weight="bold" lengthAdjust="spacing" textLength="28" x="306" y="146.8525">loop</text><text fill="#000000" font-family="sans-serif" font-size="11" font-weight="bold" lengthAdjust="spacing" textLength="261" x="379" y="145.6943">[for each team in teamList[in TeamRepository]]</text><polygon fill="#181818" points="686,170.4063,696,174.4063,686,178.4063,690,174.4063" style="stroke:#181818;stroke-width:1.0;"/><line style="stroke:#181818;stroke-width:1.0;" x1="367" x2="692" y1="174.4063" y2="174.4063"/><text fill="#000000" font-family="sans-serif" font-size="13" font-weight="bold" lengthAdjust="spacing" textLength="36" x="374" y="169.1436">35.1.1</text><text fill="#000000" font-family="sans-serif" font-size="13" lengthAdjust="spacing" textLength="272" x="414" y="169.1436">verifyCollaboratorName(teamCollaboratorName)</text><path d="M666,189.4063 L739,189.4063 L739,198.6973 L729,208.6973 L666,208.6973 L666,189.4063 " fill="#EEEEEE" style="stroke:#000000;stroke-width:1.5;"/><rect fill="none" height="81.873" style="stroke:#000000;stroke-width:1.5;" width="372" x="666" y="189.4063"/><text fill="#000000" font-family="sans-serif" font-size="13" font-weight="bold" lengthAdjust="spacing" textLength="28" x="681" y="204.4346">loop</text><text fill="#000000" font-family="sans-serif" font-size="11" font-weight="bold" lengthAdjust="spacing" textLength="279" x="754" y="203.2764">[for each Collaborator in collaboratorList[in Team]]</text><polygon fill="#181818" points="950,227.9883,960,231.9883,950,235.9883,954,231.9883" style="stroke:#181818;stroke-width:1.0;"/><line style="stroke:#181818;stroke-width:1.0;" x1="708" x2="956" y1="231.9883" y2="231.9883"/><text fill="#000000" font-family="sans-serif" font-size="13" font-weight="bold" lengthAdjust="spacing" textLength="36" x="715" y="226.7256">35.1.2</text><text fill="#000000" font-family="sans-serif" font-size="13" lengthAdjust="spacing" textLength="195" x="755" y="226.7256">hasName(teamCollaboratorName)</text><polygon fill="#181818" points="719,259.2793,709,263.2793,719,267.2793,715,263.2793" style="stroke:#181818;stroke-width:1.0;"/><line style="stroke:#181818;stroke-width:1.0;stroke-dasharray:2.0,2.0;" x1="713" x2="966" y1="263.2793" y2="263.2793"/><text fill="#000000" font-family="sans-serif" font-size="13" font-weight="bold" lengthAdjust="spacing" textLength="36" x="725" y="258.0166">35.1.3</text><text fill="#000000" font-family="sans-serif" font-size="13" lengthAdjust="spacing" textLength="53" x="765" y="258.0166">true/false</text><polygon fill="#181818" points="378,297.5703,368,301.5703,378,305.5703,374,301.5703" style="stroke:#181818;stroke-width:1.0;"/><line style="stroke:#181818;stroke-width:1.0;stroke-dasharray:2.0,2.0;" x1="372" x2="702" y1="301.5703" y2="301.5703"/><text fill="#000000" font-family="sans-serif" font-size="13" font-weight="bold" lengthAdjust="spacing" textLength="36" x="384" y="296.3076">35.1.4</text><text fill="#000000" font-family="sans-serif" font-size="13" lengthAdjust="spacing" textLength="53" x="424" y="296.3076">true/false</text><polygon fill="#181818" points="11,342.8613,1,346.8613,11,350.8613,7,346.8613" style="stroke:#181818;stroke-width:1.0;"/><line style="stroke:#181818;stroke-width:1.0;stroke-dasharray:2.0,2.0;" x1="5" x2="361" y1="346.8613" y2="346.8613"/><text fill="#000000" font-family="sans-serif" font-size="13" font-weight="bold" lengthAdjust="spacing" textLength="25" x="17" y="341.5986">35.2</text><text fill="#000000" font-family="sans-serif" font-size="13" lengthAdjust="spacing" textLength="55" x="46" y="341.5986">true/team</text><!--SRC=[ZP9DJyCm38Rl-HKM5-3GLO2uJ0Y9JHENmT3O3JXugTT6Qpv8qg7zUvAkREacf5tQr7tz-h6ToyfxuuPvRcfKlf7rW6kPE_fkI77A2e6bHSdSMYY3uGHIAyqhgoM1jmqbVmpoDPRqxhSrWINkKPLrAd0L5lf7g19MM3jYB8IzuCA4od3X2UMSZ7R2QxlzLCD5Bt01w60nUNgPJzvcfvcTVg_gAxYkQrngYy4fACV9PvindaqPmyPhrSWbMRYx7zmmbcMF-uemX99yB37QfkclAEag0Xm7hqyCeoLoBpRewT09Awrk33oJXsW3eosaLepLMXjOQGk4lDffX6hVK-7yHpZt1_N5s1wwQo30RyYArVdaAUOnGggFAEbmKwGE94A4-GQ62jrPHTjjn9Jim1_lMjvTcuBwKbB5Nwd-nlv9sZNLPhMF_fvk6Nl8icENo7nY4WM_]--></g></svg>