<?xml version="1.0" encoding="us-ascii" standalone="no"?><svg xmlns="http://www.w3.org/2000/svg" xmlns:xlink="http://www.w3.org/1999/xlink" contentStyleType="text/css" height="450px" preserveAspectRatio="none" style="width:988px;height:450px;background:#FFFFFF;" version="1.1" viewBox="0 0 988 450" width="988px" zoomAndPan="magnify"><defs/><g><rect fill="#FFFFFF" height="285.6191" style="stroke:#181818;stroke-width:1.0;" width="10" x="400" y="90.5332"/><rect fill="#FFFFFF" height="31.291" style="stroke:#181818;stroke-width:1.0;" width="10" x="690" y="174.4063"/><rect fill="#FFFFFF" height="93.873" style="stroke:#181818;stroke-width:1.0;" width="10" x="690" y="236.9883"/><rect fill="#FFFFFF" height="31.291" style="stroke:#181818;stroke-width:1.0;" width="10" x="908" y="268.2793"/><rect fill="none" height="240.3281" style="stroke:#000000;stroke-width:1.5;" width="630.5" x="351.5" y="105.5332"/><rect fill="none" height="207.0371" style="stroke:#000000;stroke-width:1.5;" width="610.5" x="361.5" y="131.8242"/><line style="stroke:#181818;stroke-width:0.5;stroke-dasharray:5.0,5.0;" x1="404.5" x2="404.5" y1="57.2422" y2="394.1523"/><line style="stroke:#181818;stroke-width:0.5;stroke-dasharray:5.0,5.0;" x1="695" x2="695" y1="57.2422" y2="394.1523"/><line style="stroke:#181818;stroke-width:0.5;stroke-dasharray:5.0,5.0;" x1="913" x2="913" y1="57.2422" y2="394.1523"/><rect fill="#E3E3E3" height="51.2422" rx="2.5" ry="2.5" style="stroke:#181818;stroke-width:0.5;" width="67" x="371.5" y="5"/><text fill="#000000" font-family="sans-serif" font-size="14" lengthAdjust="spacing" textLength="48" x="381" y="27.1074">agenda</text><text fill="#000000" font-family="sans-serif" font-size="14" lengthAdjust="spacing" textLength="53" x="378.5" y="45.7285">:Agenda</text><rect fill="#E3E3E3" height="51.2422" rx="2.5" ry="2.5" style="stroke:#181818;stroke-width:0.5;" width="67" x="371.5" y="393.1523"/><text fill="#000000" font-family="sans-serif" font-size="14" lengthAdjust="spacing" textLength="48" x="381" y="415.2598">agenda</text><text fill="#000000" font-family="sans-serif" font-size="14" lengthAdjust="spacing" textLength="53" x="378.5" y="433.8809">:Agenda</text><rect fill="#E3E3E3" height="51.2422" rx="2.5" ry="2.5" style="stroke:#181818;stroke-width:0.5;" width="98" x="646" y="5"/><text fill="#000000" font-family="sans-serif" font-size="14" lengthAdjust="spacing" textLength="79" x="655.5" y="27.1074">agendaTask</text><text fill="#000000" font-family="sans-serif" font-size="14" lengthAdjust="spacing" textLength="84" x="653" y="45.7285">:AgendaTask</text><rect fill="#E3E3E3" height="51.2422" rx="2.5" ry="2.5" style="stroke:#181818;stroke-width:0.5;" width="98" x="646" y="393.1523"/><text fill="#000000" font-family="sans-serif" font-size="14" lengthAdjust="spacing" textLength="79" x="655.5" y="415.2598">agendaTask</text><text fill="#000000" font-family="sans-serif" font-size="14" lengthAdjust="spacing" textLength="84" x="653" y="433.8809">:AgendaTask</text><rect fill="#E3E3E3" height="51.2422" rx="2.5" ry="2.5" style="stroke:#181818;stroke-width:0.5;" width="98" x="864" y="5"/><text fill="#000000" font-family="sans-serif" font-size="14" lengthAdjust="spacing" textLength="77" x="874.5" y="27.1074">greenSpace</text><text fill="#000000" font-family="sans-serif" font-size="14" lengthAdjust="spacing" textLength="84" x="871" y="45.7285">:GreenSpace</text><rect fill="#E3E3E3" height="51.2422" rx="2.5" ry="2.5" style="stroke:#181818;stroke-width:0.5;" width="98" x="864" y="393.1523"/><text fill="#000000" font-family="sans-serif" font-size="14" lengthAdjust="spacing" textLength="77" x="874.5" y="415.2598">greenSpace</text><text fill="#000000" font-family="sans-serif" font-size="14" lengthAdjust="spacing" textLength="84" x="871" y="433.8809">:GreenSpace</text><rect fill="#FFFFFF" height="285.6191" style="stroke:#181818;stroke-width:1.0;" width="10" x="400" y="90.5332"/><rect fill="#FFFFFF" height="31.291" style="stroke:#181818;stroke-width:1.0;" width="10" x="690" y="174.4063"/><rect fill="#FFFFFF" height="93.873" style="stroke:#181818;stroke-width:1.0;" width="10" x="690" y="236.9883"/><rect fill="#FFFFFF" height="31.291" style="stroke:#181818;stroke-width:1.0;" width="10" x="908" y="268.2793"/><polygon fill="#181818" points="388,86.5332,398,90.5332,388,94.5332,392,90.5332" style="stroke:#181818;stroke-width:1.0;"/><line style="stroke:#181818;stroke-width:1.0;stroke-dasharray:2.0,2.0;" x1="0" x2="394" y1="90.5332" y2="90.5332"/><text fill="#000000" font-family="sans-serif" font-size="13" font-weight="bold" lengthAdjust="spacing" textLength="25" x="7" y="85.2705">35.3</text><text fill="#000000" font-family="sans-serif" font-size="13" lengthAdjust="spacing" textLength="352" x="36" y="85.2705">getTaskByNameAndGreenSpace(taskParkName, taskName)</text><path d="M351.5,105.5332 L623.5,105.5332 L623.5,114.8242 L613.5,124.8242 L351.5,124.8242 L351.5,105.5332 " fill="#EEEEEE" style="stroke:#000000;stroke-width:1.5;"/><rect fill="none" height="240.3281" style="stroke:#000000;stroke-width:1.5;" width="630.5" x="351.5" y="105.5332"/><text fill="#000000" font-family="sans-serif" font-size="13" font-weight="bold" lengthAdjust="spacing" textLength="227" x="366.5" y="120.5615">Get Task By Name and GreenSpace</text><path d="M361.5,131.8242 L434.5,131.8242 L434.5,141.1152 L424.5,151.1152 L361.5,151.1152 L361.5,131.8242 " fill="#EEEEEE" style="stroke:#000000;stroke-width:1.5;"/><rect fill="none" height="207.0371" style="stroke:#000000;stroke-width:1.5;" width="610.5" x="361.5" y="131.8242"/><text fill="#000000" font-family="sans-serif" font-size="13" font-weight="bold" lengthAdjust="spacing" textLength="28" x="376.5" y="146.8525">loop</text><text fill="#000000" font-family="sans-serif" font-size="11" font-weight="bold" lengthAdjust="spacing" textLength="183" x="449.5" y="145.6943">[for each TaskAgenda in Agenda]</text><polygon fill="#181818" points="678,170.4063,688,174.4063,678,178.4063,682,174.4063" style="stroke:#181818;stroke-width:1.0;"/><line style="stroke:#181818;stroke-width:1.0;" x1="410" x2="684" y1="174.4063" y2="174.4063"/><text fill="#000000" font-family="sans-serif" font-size="13" font-weight="bold" lengthAdjust="spacing" textLength="36" x="417" y="169.1436">35.3.1</text><text fill="#000000" font-family="sans-serif" font-size="13" lengthAdjust="spacing" textLength="150" x="457" y="169.1436">hasTaskName(taskName)</text><polygon fill="#181818" points="421,201.6973,411,205.6973,421,209.6973,417,205.6973" style="stroke:#181818;stroke-width:1.0;"/><line style="stroke:#181818;stroke-width:1.0;stroke-dasharray:2.0,2.0;" x1="415" x2="694" y1="205.6973" y2="205.6973"/><text fill="#000000" font-family="sans-serif" font-size="13" font-weight="bold" lengthAdjust="spacing" textLength="36" x="427" y="200.4346">35.3.2</text><text fill="#000000" font-family="sans-serif" font-size="13" lengthAdjust="spacing" textLength="53" x="467" y="200.4346">true/false</text><polygon fill="#181818" points="678,232.9883,688,236.9883,678,240.9883,682,236.9883" style="stroke:#181818;stroke-width:1.0;"/><line style="stroke:#181818;stroke-width:1.0;" x1="410" x2="684" y1="236.9883" y2="236.9883"/><text fill="#000000" font-family="sans-serif" font-size="13" font-weight="bold" lengthAdjust="spacing" textLength="36" x="417" y="231.7256">35.3.3</text><text fill="#000000" font-family="sans-serif" font-size="13" lengthAdjust="spacing" textLength="221" x="457" y="231.7256">hasGreenSpaceName(taskParkName)</text><polygon fill="#181818" points="896,264.2793,906,268.2793,896,272.2793,900,268.2793" style="stroke:#181818;stroke-width:1.0;"/><line style="stroke:#181818;stroke-width:1.0;" x1="700" x2="902" y1="268.2793" y2="268.2793"/><text fill="#000000" font-family="sans-serif" font-size="13" font-weight="bold" lengthAdjust="spacing" textLength="36" x="707" y="263.0166">35.3.4</text><text fill="#000000" font-family="sans-serif" font-size="13" lengthAdjust="spacing" textLength="149" x="747" y="263.0166">hasName(taskParkName)</text><polygon fill="#181818" points="711,295.5703,701,299.5703,711,303.5703,707,299.5703" style="stroke:#181818;stroke-width:1.0;"/><line style="stroke:#181818;stroke-width:1.0;stroke-dasharray:2.0,2.0;" x1="705" x2="912" y1="299.5703" y2="299.5703"/><text fill="#000000" font-family="sans-serif" font-size="13" font-weight="bold" lengthAdjust="spacing" textLength="36" x="717" y="294.3076">35.3.5</text><text fill="#000000" font-family="sans-serif" font-size="13" lengthAdjust="spacing" textLength="53" x="757" y="294.3076">true/false</text><polygon fill="#181818" points="421,326.8613,411,330.8613,421,334.8613,417,330.8613" style="stroke:#181818;stroke-width:1.0;"/><line style="stroke:#181818;stroke-width:1.0;stroke-dasharray:2.0,2.0;" x1="415" x2="694" y1="330.8613" y2="330.8613"/><text fill="#000000" font-family="sans-serif" font-size="13" font-weight="bold" lengthAdjust="spacing" textLength="36" x="427" y="325.5986">35.3.6</text><text fill="#000000" font-family="sans-serif" font-size="13" lengthAdjust="spacing" textLength="53" x="467" y="325.5986">true/false</text><polygon fill="#181818" points="11,372.1523,1,376.1523,11,380.1523,7,376.1523" style="stroke:#181818;stroke-width:1.0;"/><line style="stroke:#181818;stroke-width:1.0;stroke-dasharray:2.0,2.0;" x1="5" x2="404" y1="376.1523" y2="376.1523"/><text fill="#000000" font-family="sans-serif" font-size="13" font-weight="bold" lengthAdjust="spacing" textLength="25" x="17" y="370.8896">35.4</text><text fill="#000000" font-family="sans-serif" font-size="13" lengthAdjust="spacing" textLength="25" x="46" y="370.8896">task</text><!--SRC=[bPB1JiCm38RlVWgB2qEYgz3WCg59dPXwG9eGsv6BIRssQfkK90NjxKdQhkjWG-9IESbd_x_jNcVMrcOUXdL9qZPLEHMg2Wr_D2m51qbEgQOAJ97Bcbo4bP9AP5fLZ5OtF7gfIHIKyiRkIqRDmf9Cop5WCahKLovJt55f6C1TsrpajLF6AvSg4tgJywWDhf0CHl5g_HITuxPaYe7rXvRVHfldKphLp7BZhB6Zu-7Gql7hQhK6eCOgsLJlh77sC9q11C6YLyOvfcnz-UL-JHL7CZdMc5Xt_qAwy2-tw4y-klbLSNhdheJDFydoeIL8jMfgZDcYBu_BFVfa99dWKGAWLAh6dTB89B8MxLh6N68N0VHUdMlVl_ESaTdsRYPZMmSFxPYWXSUz-ds6_MeI_a6V4paQ7QGEyxWaj-Ycxl9zWJ_J-lLqV70Klc2pn__NbHjW_pdTsJt0On0CFu6tU9BTlNm3]--></g></svg>