<?xml version="1.0" encoding="us-ascii" standalone="no"?><svg xmlns="http://www.w3.org/2000/svg" xmlns:xlink="http://www.w3.org/1999/xlink" contentStyleType="text/css" height="556px" preserveAspectRatio="none" style="width:586px;height:556px;background:#FFFFFF;" version="1.1" viewBox="0 0 586 556" width="586px" zoomAndPan="magnify"><defs/><g><rect fill="#FFFFFF" height="391.8125" style="stroke:#181818;stroke-width:1.0;" width="10" x="131" y="90.5332"/><rect fill="#FFFFFF" height="36.291" style="stroke:#181818;stroke-width:1.0;" width="10" x="136" y="307.2305"/><rect fill="#FFFFFF" height="31.291" style="stroke:#181818;stroke-width:1.0;" width="10" x="299" y="236.6484"/><rect fill="#FFFFFF" height="31.291" style="stroke:#181818;stroke-width:1.0;" width="10" x="412" y="405.7637"/><rect fill="none" height="346.5215" style="stroke:#000000;stroke-width:1.5;" width="515" x="65" y="105.5332"/><rect fill="none" height="250.9883" style="stroke:#000000;stroke-width:1.5;" width="495" x="75" y="194.0664"/><line style="stroke:#181818;stroke-width:0.5;stroke-dasharray:5.0,5.0;" x1="136" x2="136" y1="57.2422" y2="500.3457"/><line style="stroke:#181818;stroke-width:0.5;stroke-dasharray:5.0,5.0;" x1="304" x2="304" y1="57.2422" y2="500.3457"/><line style="stroke:#181818;stroke-width:0.5;stroke-dasharray:5.0,5.0;" x1="417" x2="417" y1="165.9453" y2="500.3457"/><line style="stroke:#181818;stroke-width:0.5;stroke-dasharray:5.0,5.0;" x1="522" x2="522" y1="361.3516" y2="500.3457"/><rect fill="#E3E3E3" height="32.6211" rx="2.5" ry="2.5" style="stroke:#181818;stroke-width:0.5;" width="102" x="85" y="23.6211"/><text fill="#000000" font-family="sans-serif" font-size="14" lengthAdjust="spacing" textLength="88" x="92" y="45.7285">:TeamMapper</text><rect fill="#E3E3E3" height="32.6211" rx="2.5" ry="2.5" style="stroke:#181818;stroke-width:0.5;" width="102" x="85" y="499.3457"/><text fill="#000000" font-family="sans-serif" font-size="14" lengthAdjust="spacing" textLength="88" x="92" y="521.4531">:TeamMapper</text><rect fill="#E3E3E3" height="51.2422" rx="2.5" ry="2.5" style="stroke:#181818;stroke-width:0.5;" width="92" x="258" y="5"/><text fill="#000000" font-family="sans-serif" font-size="14" lengthAdjust="spacing" textLength="53" x="277.5" y="27.1074">listTeam</text><text fill="#000000" font-family="sans-serif" font-size="14" lengthAdjust="spacing" textLength="78" x="265" y="45.7285">:List&lt;Team&gt;</text><rect fill="#E3E3E3" height="51.2422" rx="2.5" ry="2.5" style="stroke:#181818;stroke-width:0.5;" width="92" x="258" y="499.3457"/><text fill="#000000" font-family="sans-serif" font-size="14" lengthAdjust="spacing" textLength="53" x="277.5" y="521.4531">listTeam</text><text fill="#000000" font-family="sans-serif" font-size="14" lengthAdjust="spacing" textLength="78" x="265" y="540.0742">:List&lt;Team&gt;</text><rect fill="#E3E3E3" height="51.2422" rx="2.5" ry="2.5" style="stroke:#181818;stroke-width:0.5;" width="114" x="360" y="499.3457"/><text fill="#000000" font-family="sans-serif" font-size="14" lengthAdjust="spacing" textLength="75" x="379.5" y="521.4531">listTeamDto</text><text fill="#000000" font-family="sans-serif" font-size="14" lengthAdjust="spacing" textLength="100" x="367" y="540.0742">:List&lt;TeamDto&gt;</text><rect fill="#E3E3E3" height="51.2422" rx="2.5" ry="2.5" style="stroke:#181818;stroke-width:0.5;" width="76" x="484" y="499.3457"/><text fill="#000000" font-family="sans-serif" font-size="14" lengthAdjust="spacing" textLength="41" x="501.5" y="521.4531">objDto</text><text fill="#000000" font-family="sans-serif" font-size="14" lengthAdjust="spacing" textLength="62" x="491" y="540.0742">:TeamDto</text><rect fill="#FFFFFF" height="391.8125" style="stroke:#181818;stroke-width:1.0;" width="10" x="131" y="90.5332"/><rect fill="#FFFFFF" height="36.291" style="stroke:#181818;stroke-width:1.0;" width="10" x="136" y="307.2305"/><rect fill="#FFFFFF" height="31.291" style="stroke:#181818;stroke-width:1.0;" width="10" x="299" y="236.6484"/><rect fill="#FFFFFF" height="31.291" style="stroke:#181818;stroke-width:1.0;" width="10" x="412" y="405.7637"/><polygon fill="#181818" points="119,86.5332,129,90.5332,119,94.5332,123,90.5332" style="stroke:#181818;stroke-width:1.0;"/><line style="stroke:#181818;stroke-width:1.0;stroke-dasharray:2.0,2.0;" x1="0" x2="125" y1="90.5332" y2="90.5332"/><text fill="#000000" font-family="sans-serif" font-size="13" font-weight="bold" lengthAdjust="spacing" textLength="14" x="7" y="85.2705">25</text><text fill="#000000" font-family="sans-serif" font-size="13" lengthAdjust="spacing" textLength="94" x="25" y="85.2705">toDTO(listTeam)</text><path d="M65,105.5332 L183,105.5332 L183,114.8242 L173,124.8242 L65,124.8242 L65,105.5332 " fill="#EEEEEE" style="stroke:#000000;stroke-width:1.5;"/><rect fill="none" height="346.5215" style="stroke:#000000;stroke-width:1.5;" width="515" x="65" y="105.5332"/><text fill="#000000" font-family="sans-serif" font-size="13" font-weight="bold" lengthAdjust="spacing" textLength="73" x="80" y="120.5615">To DTO List</text><polygon fill="#181818" points="348,144.1152,358,148.1152,348,152.1152,352,148.1152" style="stroke:#181818;stroke-width:1.0;"/><line style="stroke:#181818;stroke-width:1.0;stroke-dasharray:2.0,2.0;" x1="141" x2="354" y1="148.1152" y2="148.1152"/><text fill="#000000" font-family="sans-serif" font-size="13" font-weight="bold" lengthAdjust="spacing" textLength="25" x="148" y="142.8525">25.1</text><text fill="#000000" font-family="sans-serif" font-size="13" lengthAdjust="spacing" textLength="44" x="177" y="142.8525">create()</text><rect fill="#E3E3E3" height="51.2422" rx="2.5" ry="2.5" style="stroke:#181818;stroke-width:0.5;" width="114" x="360" y="124.8242"/><text fill="#000000" font-family="sans-serif" font-size="14" lengthAdjust="spacing" textLength="75" x="379.5" y="146.9316">listTeamDto</text><text fill="#000000" font-family="sans-serif" font-size="14" lengthAdjust="spacing" textLength="100" x="367" y="165.5527">:List&lt;TeamDto&gt;</text><path d="M75,194.0664 L148,194.0664 L148,203.3574 L138,213.3574 L75,213.3574 L75,194.0664 " fill="#EEEEEE" style="stroke:#000000;stroke-width:1.5;"/><rect fill="none" height="250.9883" style="stroke:#000000;stroke-width:1.5;" width="495" x="75" y="194.0664"/><text fill="#000000" font-family="sans-serif" font-size="13" font-weight="bold" lengthAdjust="spacing" textLength="28" x="90" y="209.0947">loop</text><text fill="#000000" font-family="sans-serif" font-size="11" font-weight="bold" lengthAdjust="spacing" textLength="154" x="163" y="207.9365">[for each object in listTeam]</text><polygon fill="#181818" points="287,232.6484,297,236.6484,287,240.6484,291,236.6484" style="stroke:#181818;stroke-width:1.0;"/><line style="stroke:#181818;stroke-width:1.0;" x1="141" x2="293" y1="236.6484" y2="236.6484"/><text fill="#000000" font-family="sans-serif" font-size="13" font-weight="bold" lengthAdjust="spacing" textLength="25" x="148" y="231.3857">25.2</text><text fill="#000000" font-family="sans-serif" font-size="13" lengthAdjust="spacing" textLength="29" x="177" y="231.3857">get(i)</text><polygon fill="#181818" points="152,263.9395,142,267.9395,152,271.9395,148,267.9395" style="stroke:#181818;stroke-width:1.0;"/><line style="stroke:#181818;stroke-width:1.0;stroke-dasharray:2.0,2.0;" x1="146" x2="303" y1="267.9395" y2="267.9395"/><text fill="#000000" font-family="sans-serif" font-size="13" font-weight="bold" lengthAdjust="spacing" textLength="25" x="158" y="262.6768">25.3</text><text fill="#000000" font-family="sans-serif" font-size="13" lengthAdjust="spacing" textLength="17" x="187" y="262.6768">obj</text><line style="stroke:#181818;stroke-width:1.0;" x1="141" x2="188" y1="294.2305" y2="294.2305"/><line style="stroke:#181818;stroke-width:1.0;" x1="188" x2="188" y1="294.2305" y2="307.2305"/><line style="stroke:#181818;stroke-width:1.0;" x1="147" x2="188" y1="307.2305" y2="307.2305"/><polygon fill="#181818" points="157,303.2305,147,307.2305,157,311.2305,153,307.2305" style="stroke:#181818;stroke-width:1.0;"/><text fill="#000000" font-family="sans-serif" font-size="13" font-weight="bold" lengthAdjust="spacing" textLength="25" x="153" y="288.9678">25.4</text><text fill="#000000" font-family="sans-serif" font-size="13" lengthAdjust="spacing" textLength="115" x="182" y="288.9678">objDto = toDTO(obj)</text><polygon fill="#181818" points="472,339.5215,482,343.5215,472,347.5215,476,343.5215" style="stroke:#181818;stroke-width:1.0;"/><line style="stroke:#181818;stroke-width:1.0;stroke-dasharray:2.0,2.0;" x1="141" x2="478" y1="343.5215" y2="343.5215"/><text fill="#000000" font-family="sans-serif" font-size="13" font-weight="bold" lengthAdjust="spacing" textLength="25" x="148" y="338.2588">25.5</text><text fill="#000000" font-family="sans-serif" font-size="13" lengthAdjust="spacing" textLength="61" x="177" y="338.2588">create(obj)</text><rect fill="#E3E3E3" height="51.2422" rx="2.5" ry="2.5" style="stroke:#181818;stroke-width:0.5;" width="76" x="484" y="320.2305"/><text fill="#000000" font-family="sans-serif" font-size="14" lengthAdjust="spacing" textLength="41" x="501.5" y="342.3379">objDto</text><text fill="#000000" font-family="sans-serif" font-size="14" lengthAdjust="spacing" textLength="62" x="491" y="360.959">:TeamDto</text><polygon fill="#181818" points="400,401.7637,410,405.7637,400,409.7637,404,405.7637" style="stroke:#181818;stroke-width:1.0;"/><line style="stroke:#181818;stroke-width:1.0;" x1="141" x2="406" y1="405.7637" y2="405.7637"/><text fill="#000000" font-family="sans-serif" font-size="13" font-weight="bold" lengthAdjust="spacing" textLength="25" x="148" y="400.501">25.6</text><text fill="#000000" font-family="sans-serif" font-size="13" lengthAdjust="spacing" textLength="66" x="177" y="400.501">add(objDto)</text><polygon fill="#181818" points="152,433.0547,142,437.0547,152,441.0547,148,437.0547" style="stroke:#181818;stroke-width:1.0;"/><line style="stroke:#181818;stroke-width:1.0;stroke-dasharray:2.0,2.0;" x1="146" x2="416" y1="437.0547" y2="437.0547"/><text fill="#000000" font-family="sans-serif" font-size="13" font-weight="bold" lengthAdjust="spacing" textLength="25" x="158" y="431.792">25.7</text><text fill="#000000" font-family="sans-serif" font-size="13" lengthAdjust="spacing" textLength="53" x="187" y="431.792">true/false</text><polygon fill="#181818" points="11,478.3457,1,482.3457,11,486.3457,7,482.3457" style="stroke:#181818;stroke-width:1.0;"/><line style="stroke:#181818;stroke-width:1.0;stroke-dasharray:2.0,2.0;" x1="5" x2="135" y1="482.3457" y2="482.3457"/><text fill="#000000" font-family="sans-serif" font-size="13" font-weight="bold" lengthAdjust="spacing" textLength="14" x="17" y="477.083">26</text><text fill="#000000" font-family="sans-serif" font-size="13" lengthAdjust="spacing" textLength="69" x="35" y="477.083">listTeamDto</text><!--SRC=[TP8nJyCm48Nt-nMdBgILqWWa6AfI2QaCIAr0QaOMurmJqyGsZWFYttDfayQfoXBPplVUkplxfl3UreiaiQNGlgdAkJHLKjDNGrfId2cHEr51VL3Q2bvXPRIHXJCLeNSD1N-ia0UHqyx_beIEf1SwBqEWBaHcVfJESI_AcW3us2kfB2VZP96IgBR2Md8J53Mcpq_RxTkOALNjM-nTBpQyNBRhrPdUlEpIw_pQcr32svDgisjrw_HrB3CVdoT51nzPfbeOG3JUwARw88Ttzm1nlEfgnGLwmrZKnquluFaj7qYlleMdlZ_8dMaifgODmBP4WCwkTJvNE9knlNJ4qeXzIsCixer34h90BfZdZKfZ7psOhCwpOOESVAIc5rKSvmPdQjGGEmDaz0y_-FSmJmiVkp7mTdgbuQ2xRgPXRoVHHM8e2sR2Af5bqIasZ1hk5GPuV57yTfFk6GPXWP1qrdt2Etm0MCRnu1Eyi2jL_m40]--></g></svg>