<?xml version="1.0" encoding="us-ascii" standalone="no"?><svg xmlns="http://www.w3.org/2000/svg" xmlns:xlink="http://www.w3.org/1999/xlink" contentStyleType="text/css" height="951px" preserveAspectRatio="none" style="width:1592px;height:951px;background:#FFFFFF;" version="1.1" viewBox="0 0 1592 951" width="1592px" zoomAndPan="magnify"><defs/><g><rect fill="#FFFFFF" height="786.6445" style="stroke:#181818;stroke-width:1.0;" width="10" x="284" y="90.5332"/><rect fill="#FFFFFF" height="31.291" style="stroke:#181818;stroke-width:1.0;" width="10" x="446" y="148.1152"/><rect fill="#FFFFFF" height="31.291" style="stroke:#181818;stroke-width:1.0;" width="10" x="553" y="210.6973"/><rect fill="#FFFFFF" height="565.6074" style="stroke:#181818;stroke-width:1.0;" width="10" x="645" y="273.2793"/><rect fill="#FFFFFF" height="503.0254" style="stroke:#181818;stroke-width:1.0;" width="10" x="950" y="304.5703"/><rect fill="#FFFFFF" height="31.291" style="stroke:#181818;stroke-width:1.0;" width="10" x="1113" y="731.0137"/><rect fill="#FFFFFF" height="249.0371" style="stroke:#181818;stroke-width:1.0;" width="10" x="1240" y="424.3945"/><rect fill="#FFFFFF" height="42.291" style="stroke:#181818;stroke-width:1.0;" width="10" x="1245" y="463.6855"/><rect fill="#FFFFFF" height="31.291" style="stroke:#181818;stroke-width:1.0;" width="10" x="1492" y="596.8496"/><rect fill="none" height="741.3535" style="stroke:#000000;stroke-width:1.5;" width="1410.5" x="175.5" y="105.5332"/><rect fill="none" height="395.4922" style="stroke:#000000;stroke-width:1.5;" width="693.5" x="882.5" y="381.8125"/><rect fill="none" height="115.1641" style="stroke:#000000;stroke-width:1.5;" width="390" x="1176" y="527.9766"/><rect fill="none" height="81.873" style="stroke:#000000;stroke-width:1.5;" width="370" x="1186" y="554.2676"/><rect fill="none" height="81.873" style="stroke:#000000;stroke-width:1.5;" width="303.5" x="892.5" y="688.4316"/><line style="stroke:#181818;stroke-width:0.5;stroke-dasharray:5.0,5.0;" x1="288.5" x2="288.5" y1="57.2422" y2="895.1777"/><line style="stroke:#181818;stroke-width:0.5;stroke-dasharray:5.0,5.0;" x1="450.5" x2="450.5" y1="57.2422" y2="895.1777"/><line style="stroke:#181818;stroke-width:0.5;stroke-dasharray:5.0,5.0;" x1="557.5" x2="557.5" y1="57.2422" y2="895.1777"/><line style="stroke:#181818;stroke-width:0.5;stroke-dasharray:5.0,5.0;" x1="649.5" x2="649.5" y1="57.2422" y2="895.1777"/><line style="stroke:#181818;stroke-width:0.5;stroke-dasharray:5.0,5.0;" x1="954.5" x2="954.5" y1="57.2422" y2="895.1777"/><line style="stroke:#181818;stroke-width:0.5;stroke-dasharray:5.0,5.0;" x1="1118" x2="1118" y1="353.6914" y2="895.1777"/><line style="stroke:#181818;stroke-width:0.5;stroke-dasharray:5.0,5.0;" x1="1245" x2="1245" y1="57.2422" y2="895.1777"/><line style="stroke:#181818;stroke-width:0.5;stroke-dasharray:5.0,5.0;" x1="1497" x2="1497" y1="57.2422" y2="895.1777"/><rect fill="#E3E3E3" height="32.6211" rx="2.5" ry="2.5" style="stroke:#181818;stroke-width:0.5;" width="207" x="185.5" y="23.6211"/><text fill="#000000" font-family="sans-serif" font-size="14" lengthAdjust="spacing" textLength="193" x="192.5" y="45.7285">:AssignTeamAgendaController</text><rect fill="#E3E3E3" height="32.6211" rx="2.5" ry="2.5" style="stroke:#181818;stroke-width:0.5;" width="207" x="185.5" y="894.1777"/><text fill="#000000" font-family="sans-serif" font-size="14" lengthAdjust="spacing" textLength="193" x="192.5" y="916.2852">:AssignTeamAgendaController</text><rect fill="#E3E3E3" height="32.6211" rx="2.5" ry="2.5" style="stroke:#181818;stroke-width:0.5;" width="97" x="402.5" y="23.6211"/><text fill="#000000" font-family="sans-serif" font-size="14" lengthAdjust="spacing" textLength="83" x="409.5" y="45.7285">:Repositories</text><rect fill="#E3E3E3" height="32.6211" rx="2.5" ry="2.5" style="stroke:#181818;stroke-width:0.5;" width="97" x="402.5" y="894.1777"/><text fill="#000000" font-family="sans-serif" font-size="14" lengthAdjust="spacing" textLength="83" x="409.5" y="916.2852">:Repositories</text><rect fill="#E3E3E3" height="51.2422" rx="2.5" ry="2.5" style="stroke:#181818;stroke-width:0.5;" width="97" x="509.5" y="5"/><text fill="#000000" font-family="sans-serif" font-size="14" lengthAdjust="spacing" textLength="74" x="521" y="27.1074">repositories</text><text fill="#000000" font-family="sans-serif" font-size="14" lengthAdjust="spacing" textLength="83" x="516.5" y="45.7285">:Repositories</text><rect fill="#E3E3E3" height="51.2422" rx="2.5" ry="2.5" style="stroke:#181818;stroke-width:0.5;" width="97" x="509.5" y="894.1777"/><text fill="#000000" font-family="sans-serif" font-size="14" lengthAdjust="spacing" textLength="74" x="521" y="916.2852">repositories</text><text fill="#000000" font-family="sans-serif" font-size="14" lengthAdjust="spacing" textLength="83" x="516.5" y="934.9063">:Repositories</text><rect fill="#E3E3E3" height="51.2422" rx="2.5" ry="2.5" style="stroke:#181818;stroke-width:0.5;" width="67" x="616.5" y="5"/><text fill="#000000" font-family="sans-serif" font-size="14" lengthAdjust="spacing" textLength="48" x="626" y="27.1074">agenda</text><text fill="#000000" font-family="sans-serif" font-size="14" lengthAdjust="spacing" textLength="53" x="623.5" y="45.7285">:Agenda</text><rect fill="#E3E3E3" height="51.2422" rx="2.5" ry="2.5" style="stroke:#181818;stroke-width:0.5;" width="67" x="616.5" y="894.1777"/><text fill="#000000" font-family="sans-serif" font-size="14" lengthAdjust="spacing" textLength="48" x="626" y="916.2852">agenda</text><text fill="#000000" font-family="sans-serif" font-size="14" lengthAdjust="spacing" textLength="53" x="623.5" y="934.9063">:Agenda</text><rect fill="#E3E3E3" height="51.2422" rx="2.5" ry="2.5" style="stroke:#181818;stroke-width:0.5;" width="105" x="902.5" y="5"/><text fill="#000000" font-family="sans-serif" font-size="14" lengthAdjust="spacing" textLength="82" x="914" y="27.1074">tasksAgenda</text><text fill="#000000" font-family="sans-serif" font-size="14" lengthAdjust="spacing" textLength="91" x="909.5" y="45.7285">:TasksAgenda</text><rect fill="#E3E3E3" height="51.2422" rx="2.5" ry="2.5" style="stroke:#181818;stroke-width:0.5;" width="105" x="902.5" y="894.1777"/><text fill="#000000" font-family="sans-serif" font-size="14" lengthAdjust="spacing" textLength="82" x="914" y="916.2852">tasksAgenda</text><text fill="#000000" font-family="sans-serif" font-size="14" lengthAdjust="spacing" textLength="91" x="909.5" y="934.9063">:TasksAgenda</text><rect fill="#E3E3E3" height="51.2422" rx="2.5" ry="2.5" style="stroke:#181818;stroke-width:0.5;" width="136" x="1050" y="894.1777"/><text fill="#000000" font-family="sans-serif" font-size="14" lengthAdjust="spacing" textLength="97" x="1069.5" y="916.2852">listTaskAgenda</text><text fill="#000000" font-family="sans-serif" font-size="14" lengthAdjust="spacing" textLength="122" x="1057" y="934.9063">:List&lt;AgendaTask&gt;</text><rect fill="#E3E3E3" height="51.2422" rx="2.5" ry="2.5" style="stroke:#181818;stroke-width:0.5;" width="98" x="1196" y="5"/><text fill="#000000" font-family="sans-serif" font-size="14" lengthAdjust="spacing" textLength="75" x="1207.5" y="27.1074">taskAgenda</text><text fill="#000000" font-family="sans-serif" font-size="14" lengthAdjust="spacing" textLength="84" x="1203" y="45.7285">:TaskAgenda</text><rect fill="#E3E3E3" height="51.2422" rx="2.5" ry="2.5" style="stroke:#181818;stroke-width:0.5;" width="98" x="1196" y="894.1777"/><text fill="#000000" font-family="sans-serif" font-size="14" lengthAdjust="spacing" textLength="75" x="1207.5" y="916.2852">taskAgenda</text><text fill="#000000" font-family="sans-serif" font-size="14" lengthAdjust="spacing" textLength="84" x="1203" y="934.9063">:TaskAgenda</text><rect fill="#E3E3E3" height="51.2422" rx="2.5" ry="2.5" style="stroke:#181818;stroke-width:0.5;" width="98" x="1448" y="5"/><text fill="#000000" font-family="sans-serif" font-size="14" lengthAdjust="spacing" textLength="77" x="1458.5" y="27.1074">greenSpace</text><text fill="#000000" font-family="sans-serif" font-size="14" lengthAdjust="spacing" textLength="84" x="1455" y="45.7285">:GreenSpace</text><rect fill="#E3E3E3" height="51.2422" rx="2.5" ry="2.5" style="stroke:#181818;stroke-width:0.5;" width="98" x="1448" y="894.1777"/><text fill="#000000" font-family="sans-serif" font-size="14" lengthAdjust="spacing" textLength="77" x="1458.5" y="916.2852">greenSpace</text><text fill="#000000" font-family="sans-serif" font-size="14" lengthAdjust="spacing" textLength="84" x="1455" y="934.9063">:GreenSpace</text><rect fill="#FFFFFF" height="786.6445" style="stroke:#181818;stroke-width:1.0;" width="10" x="284" y="90.5332"/><rect fill="#FFFFFF" height="31.291" style="stroke:#181818;stroke-width:1.0;" width="10" x="446" y="148.1152"/><rect fill="#FFFFFF" height="31.291" style="stroke:#181818;stroke-width:1.0;" width="10" x="553" y="210.6973"/><rect fill="#FFFFFF" height="565.6074" style="stroke:#181818;stroke-width:1.0;" width="10" x="645" y="273.2793"/><rect fill="#FFFFFF" height="503.0254" style="stroke:#181818;stroke-width:1.0;" width="10" x="950" y="304.5703"/><rect fill="#FFFFFF" height="31.291" style="stroke:#181818;stroke-width:1.0;" width="10" x="1113" y="731.0137"/><rect fill="#FFFFFF" height="249.0371" style="stroke:#181818;stroke-width:1.0;" width="10" x="1240" y="424.3945"/><rect fill="#FFFFFF" height="42.291" style="stroke:#181818;stroke-width:1.0;" width="10" x="1245" y="463.6855"/><rect fill="#FFFFFF" height="31.291" style="stroke:#181818;stroke-width:1.0;" width="10" x="1492" y="596.8496"/><polygon fill="#181818" points="272,86.5332,282,90.5332,272,94.5332,276,90.5332" style="stroke:#181818;stroke-width:1.0;"/><line style="stroke:#181818;stroke-width:1.0;stroke-dasharray:2.0,2.0;" x1="0" x2="278" y1="90.5332" y2="90.5332"/><text fill="#000000" font-family="sans-serif" font-size="13" font-weight="bold" lengthAdjust="spacing" textLength="14" x="7" y="85.2705">11</text><text fill="#000000" font-family="sans-serif" font-size="13" lengthAdjust="spacing" textLength="247" x="25" y="85.2705">getAllTaskByGreenSpace(greenSpaceList)</text><path d="M175.5,105.5332 L399.5,105.5332 L399.5,114.8242 L389.5,124.8242 L175.5,124.8242 L175.5,105.5332 " fill="#EEEEEE" style="stroke:#000000;stroke-width:1.5;"/><rect fill="none" height="741.3535" style="stroke:#000000;stroke-width:1.5;" width="1410.5" x="175.5" y="105.5332"/><text fill="#000000" font-family="sans-serif" font-size="13" font-weight="bold" lengthAdjust="spacing" textLength="179" x="190.5" y="120.5615">Get All Task By GreenSpace</text><polygon fill="#181818" points="434,144.1152,444,148.1152,434,152.1152,438,148.1152" style="stroke:#181818;stroke-width:1.0;"/><line style="stroke:#181818;stroke-width:1.0;" x1="294" x2="440" y1="148.1152" y2="148.1152"/><text fill="#000000" font-family="sans-serif" font-size="13" font-weight="bold" lengthAdjust="spacing" textLength="25" x="301" y="142.8525">11.1</text><text fill="#000000" font-family="sans-serif" font-size="13" lengthAdjust="spacing" textLength="75" x="330" y="142.8525">getInstance()</text><polygon fill="#181818" points="305,175.4063,295,179.4063,305,183.4063,301,179.4063" style="stroke:#181818;stroke-width:1.0;"/><line style="stroke:#181818;stroke-width:1.0;stroke-dasharray:2.0,2.0;" x1="299" x2="450" y1="179.4063" y2="179.4063"/><text fill="#000000" font-family="sans-serif" font-size="13" font-weight="bold" lengthAdjust="spacing" textLength="25" x="311" y="174.1436">11.2</text><text fill="#000000" font-family="sans-serif" font-size="13" lengthAdjust="spacing" textLength="67" x="340" y="174.1436">repositories</text><polygon fill="#181818" points="541,206.6973,551,210.6973,541,214.6973,545,210.6973" style="stroke:#181818;stroke-width:1.0;"/><line style="stroke:#181818;stroke-width:1.0;" x1="294" x2="547" y1="210.6973" y2="210.6973"/><text fill="#000000" font-family="sans-serif" font-size="13" font-weight="bold" lengthAdjust="spacing" textLength="25" x="301" y="205.4346">11.3</text><text fill="#000000" font-family="sans-serif" font-size="13" lengthAdjust="spacing" textLength="70" x="330" y="205.4346">getAgenda()</text><polygon fill="#181818" points="305,237.9883,295,241.9883,305,245.9883,301,241.9883" style="stroke:#181818;stroke-width:1.0;"/><line style="stroke:#181818;stroke-width:1.0;stroke-dasharray:2.0,2.0;" x1="299" x2="557" y1="241.9883" y2="241.9883"/><text fill="#000000" font-family="sans-serif" font-size="13" font-weight="bold" lengthAdjust="spacing" textLength="25" x="311" y="236.7256">11.4</text><text fill="#000000" font-family="sans-serif" font-size="13" lengthAdjust="spacing" textLength="42" x="340" y="236.7256">agenda</text><polygon fill="#181818" points="633,269.2793,643,273.2793,633,277.2793,637,273.2793" style="stroke:#181818;stroke-width:1.0;"/><line style="stroke:#181818;stroke-width:1.0;" x1="294" x2="639" y1="273.2793" y2="273.2793"/><text fill="#000000" font-family="sans-serif" font-size="13" font-weight="bold" lengthAdjust="spacing" textLength="25" x="301" y="268.0166">11.5</text><text fill="#000000" font-family="sans-serif" font-size="13" lengthAdjust="spacing" textLength="247" x="330" y="268.0166">getAllTaskByGreenSpace(greenSpaceList)</text><polygon fill="#181818" points="938,300.5703,948,304.5703,938,308.5703,942,304.5703" style="stroke:#181818;stroke-width:1.0;"/><line style="stroke:#181818;stroke-width:1.0;" x1="655" x2="944" y1="304.5703" y2="304.5703"/><text fill="#000000" font-family="sans-serif" font-size="13" font-weight="bold" lengthAdjust="spacing" textLength="25" x="662" y="299.3076">11.6</text><text fill="#000000" font-family="sans-serif" font-size="13" lengthAdjust="spacing" textLength="247" x="691" y="299.3076">getAllTaskByGreenSpace(greenSpaceList)</text><polygon fill="#181818" points="1038,331.8613,1048,335.8613,1038,339.8613,1042,335.8613" style="stroke:#181818;stroke-width:1.0;"/><line style="stroke:#181818;stroke-width:1.0;" x1="960" x2="1044" y1="335.8613" y2="335.8613"/><text fill="#000000" font-family="sans-serif" font-size="13" font-weight="bold" lengthAdjust="spacing" textLength="25" x="967" y="330.5986">11.7</text><text fill="#000000" font-family="sans-serif" font-size="13" lengthAdjust="spacing" textLength="36" x="996" y="330.5986">create</text><rect fill="#E3E3E3" height="51.2422" rx="2.5" ry="2.5" style="stroke:#181818;stroke-width:0.5;" width="136" x="1050" y="312.5703"/><text fill="#000000" font-family="sans-serif" font-size="14" lengthAdjust="spacing" textLength="97" x="1069.5" y="334.6777">listTaskAgenda</text><text fill="#000000" font-family="sans-serif" font-size="14" lengthAdjust="spacing" textLength="122" x="1057" y="353.2988">:List&lt;AgendaTask&gt;</text><path d="M882.5,381.8125 L955.5,381.8125 L955.5,391.1035 L945.5,401.1035 L882.5,401.1035 L882.5,381.8125 " fill="#EEEEEE" style="stroke:#000000;stroke-width:1.5;"/><rect fill="none" height="395.4922" style="stroke:#000000;stroke-width:1.5;" width="693.5" x="882.5" y="381.8125"/><text fill="#000000" font-family="sans-serif" font-size="13" font-weight="bold" lengthAdjust="spacing" textLength="28" x="897.5" y="396.8408">loop</text><text fill="#000000" font-family="sans-serif" font-size="11" font-weight="bold" lengthAdjust="spacing" textLength="289" x="970.5" y="395.6826">[for each Task in listTasksAgenda[in TasksAgenda]]</text><polygon fill="#181818" points="1228,420.3945,1238,424.3945,1228,428.3945,1232,424.3945" style="stroke:#181818;stroke-width:1.0;"/><line style="stroke:#181818;stroke-width:1.0;" x1="960" x2="1234" y1="424.3945" y2="424.3945"/><text fill="#000000" font-family="sans-serif" font-size="13" font-weight="bold" lengthAdjust="spacing" textLength="25" x="967" y="419.1318">11.8</text><text fill="#000000" font-family="sans-serif" font-size="13" lengthAdjust="spacing" textLength="199" x="996" y="419.1318">verifyGreenSpace(greenSpaceList)</text><line style="stroke:#181818;stroke-width:1.0;" x1="1250" x2="1297" y1="450.6855" y2="450.6855"/><line style="stroke:#181818;stroke-width:1.0;" x1="1297" x2="1297" y1="450.6855" y2="463.6855"/><line style="stroke:#181818;stroke-width:1.0;" x1="1256" x2="1297" y1="463.6855" y2="463.6855"/><polygon fill="#181818" points="1266,459.6855,1256,463.6855,1266,467.6855,1262,463.6855" style="stroke:#181818;stroke-width:1.0;"/><text fill="#000000" font-family="sans-serif" font-size="13" font-weight="bold" lengthAdjust="spacing" textLength="25" x="1262" y="445.4229">11.9</text><text fill="#000000" font-family="sans-serif" font-size="13" lengthAdjust="spacing" textLength="91" x="1291" y="445.4229">verifyNullTeam()</text><line style="stroke:#181818;stroke-width:1.0;stroke-dasharray:2.0,2.0;" x1="1255" x2="1297" y1="504.9766" y2="504.9766"/><line style="stroke:#181818;stroke-width:1.0;stroke-dasharray:2.0,2.0;" x1="1297" x2="1297" y1="504.9766" y2="517.9766"/><line style="stroke:#181818;stroke-width:1.0;stroke-dasharray:2.0,2.0;" x1="1250" x2="1297" y1="517.9766" y2="517.9766"/><polygon fill="#181818" points="1260,513.9766,1250,517.9766,1260,521.9766,1256,517.9766" style="stroke:#181818;stroke-width:1.0;"/><text fill="#000000" font-family="sans-serif" font-size="13" font-weight="bold" lengthAdjust="spacing" textLength="32" x="1262" y="499.7139">11.10</text><text fill="#000000" font-family="sans-serif" font-size="13" lengthAdjust="spacing" textLength="53" x="1298" y="499.7139">true/false</text><path d="M1176,527.9766 L1237,527.9766 L1237,537.2676 L1227,547.2676 L1176,547.2676 L1176,527.9766 " fill="#EEEEEE" style="stroke:#000000;stroke-width:1.5;"/><rect fill="none" height="115.1641" style="stroke:#000000;stroke-width:1.5;" width="390" x="1176" y="527.9766"/><text fill="#000000" font-family="sans-serif" font-size="13" font-weight="bold" lengthAdjust="spacing" textLength="16" x="1191" y="543.0049">alt</text><text fill="#000000" font-family="sans-serif" font-size="11" font-weight="bold" lengthAdjust="spacing" textLength="131" x="1252" y="541.8467">[verifyNullTeam == true]</text><path d="M1186,554.2676 L1259,554.2676 L1259,563.5586 L1249,573.5586 L1186,573.5586 L1186,554.2676 " fill="#EEEEEE" style="stroke:#000000;stroke-width:1.5;"/><rect fill="none" height="81.873" style="stroke:#000000;stroke-width:1.5;" width="370" x="1186" y="554.2676"/><text fill="#000000" font-family="sans-serif" font-size="13" font-weight="bold" lengthAdjust="spacing" textLength="28" x="1201" y="569.2959">loop</text><text fill="#000000" font-family="sans-serif" font-size="11" font-weight="bold" lengthAdjust="spacing" textLength="227" x="1274" y="568.1377">[for each GreenSpace in ListGreenSpace]</text><polygon fill="#181818" points="1480,592.8496,1490,596.8496,1480,600.8496,1484,596.8496" style="stroke:#181818;stroke-width:1.0;"/><line style="stroke:#181818;stroke-width:1.0;" x1="1250" x2="1486" y1="596.8496" y2="596.8496"/><text fill="#000000" font-family="sans-serif" font-size="13" font-weight="bold" lengthAdjust="spacing" textLength="32" x="1257" y="591.5869">11.11</text><text fill="#000000" font-family="sans-serif" font-size="13" lengthAdjust="spacing" textLength="187" x="1293" y="591.5869">equalsGreenSpace(greenSpace)</text><polygon fill="#181818" points="1261,624.1406,1251,628.1406,1261,632.1406,1257,628.1406" style="stroke:#181818;stroke-width:1.0;"/><line style="stroke:#181818;stroke-width:1.0;stroke-dasharray:2.0,2.0;" x1="1255" x2="1496" y1="628.1406" y2="628.1406"/><text fill="#000000" font-family="sans-serif" font-size="13" font-weight="bold" lengthAdjust="spacing" textLength="32" x="1267" y="622.8779">11.12</text><text fill="#000000" font-family="sans-serif" font-size="13" lengthAdjust="spacing" textLength="53" x="1303" y="622.8779">true/false</text><polygon fill="#181818" points="971,669.4316,961,673.4316,971,677.4316,967,673.4316" style="stroke:#181818;stroke-width:1.0;"/><line style="stroke:#181818;stroke-width:1.0;" x1="965" x2="1244" y1="673.4316" y2="673.4316"/><text fill="#000000" font-family="sans-serif" font-size="13" font-weight="bold" lengthAdjust="spacing" textLength="32" x="977" y="668.1689">11.13</text><text fill="#000000" font-family="sans-serif" font-size="13" lengthAdjust="spacing" textLength="69" x="1013" y="668.1689">taskAgenda</text><path d="M892.5,688.4316 L953.5,688.4316 L953.5,697.7227 L943.5,707.7227 L892.5,707.7227 L892.5,688.4316 " fill="#EEEEEE" style="stroke:#000000;stroke-width:1.5;"/><rect fill="none" height="81.873" style="stroke:#000000;stroke-width:1.5;" width="303.5" x="892.5" y="688.4316"/><text fill="#000000" font-family="sans-serif" font-size="13" font-weight="bold" lengthAdjust="spacing" textLength="16" x="907.5" y="703.46">alt</text><text fill="#000000" font-family="sans-serif" font-size="11" font-weight="bold" lengthAdjust="spacing" textLength="141" x="968.5" y="702.3018">[verifyGreenSpace != null]</text><polygon fill="#181818" points="1101,727.0137,1111,731.0137,1101,735.0137,1105,731.0137" style="stroke:#181818;stroke-width:1.0;"/><line style="stroke:#181818;stroke-width:1.0;" x1="960" x2="1107" y1="731.0137" y2="731.0137"/><text fill="#000000" font-family="sans-serif" font-size="13" font-weight="bold" lengthAdjust="spacing" textLength="32" x="967" y="725.751">11.14</text><text fill="#000000" font-family="sans-serif" font-size="13" lengthAdjust="spacing" textLength="98" x="1003" y="725.751">add(taskAgenda)</text><polygon fill="#181818" points="971,758.3047,961,762.3047,971,766.3047,967,762.3047" style="stroke:#181818;stroke-width:1.0;"/><line style="stroke:#181818;stroke-width:1.0;stroke-dasharray:2.0,2.0;" x1="965" x2="1117" y1="762.3047" y2="762.3047"/><text fill="#000000" font-family="sans-serif" font-size="13" font-weight="bold" lengthAdjust="spacing" textLength="32" x="977" y="757.042">11.15</text><text fill="#000000" font-family="sans-serif" font-size="13" lengthAdjust="spacing" textLength="53" x="1013" y="757.042">true/false</text><polygon fill="#181818" points="666,803.5957,656,807.5957,666,811.5957,662,807.5957" style="stroke:#181818;stroke-width:1.0;"/><line style="stroke:#181818;stroke-width:1.0;stroke-dasharray:2.0,2.0;" x1="660" x2="954" y1="807.5957" y2="807.5957"/><text fill="#000000" font-family="sans-serif" font-size="13" font-weight="bold" lengthAdjust="spacing" textLength="32" x="672" y="802.333">11.16</text><text fill="#000000" font-family="sans-serif" font-size="13" lengthAdjust="spacing" textLength="89" x="708" y="802.333">listTaskAgenda</text><polygon fill="#181818" points="305,834.8867,295,838.8867,305,842.8867,301,838.8867" style="stroke:#181818;stroke-width:1.0;"/><line style="stroke:#181818;stroke-width:1.0;stroke-dasharray:2.0,2.0;" x1="299" x2="649" y1="838.8867" y2="838.8867"/><text fill="#000000" font-family="sans-serif" font-size="13" font-weight="bold" lengthAdjust="spacing" textLength="32" x="311" y="833.624">11.17</text><text fill="#000000" font-family="sans-serif" font-size="13" lengthAdjust="spacing" textLength="89" x="347" y="833.624">listTaskAgenda</text><polygon fill="#181818" points="11,873.1777,1,877.1777,11,881.1777,7,877.1777" style="stroke:#181818;stroke-width:1.0;"/><line style="stroke:#181818;stroke-width:1.0;stroke-dasharray:2.0,2.0;" x1="5" x2="288" y1="877.1777" y2="877.1777"/><text fill="#000000" font-family="sans-serif" font-size="13" font-weight="bold" lengthAdjust="spacing" textLength="14" x="17" y="871.915">12</text><text fill="#000000" font-family="sans-serif" font-size="13" lengthAdjust="spacing" textLength="89" x="35" y="871.915">listTaskAgenda</text><!--SRC=[dLHRRzem57xth_3wCbefHTqZAfLIXj0qX2h2sxO7Bno2HM9djjE9VxzZEo7EfNJR2yBETpatduz7OqezcqxBd0bJ5VbzAekfXbyLY1IYFMUPOWNH9ovAXlze8OLCZqeMG8sg8FXIilJ4CaZCEGUg83LCP7a8q4Usbx-voEY1vHe8mMl3KrwYCxsPnLhpJEo05N46OiyMKXWbynpK3MMQBdRRTO-nXL9gRgJYe1tcSd5Ek3KtKdGfAc1y5qE1btMywpAOYmMnFYY7YbVBpUUuYpDCdtJSW7VjoJ5sSV8r6QFbN1iBlZ3NUF7eJ_R-oT7NYHKO6dRyUdPTTAO0H88j0aIlBWU7NcsNoqto4Y-MXB0AQrOLFq7HXmT2ekZ95PxEQ0OcpdDhz7nk1IQji8tyjgTmZneiDVoL6V0T99cILKbNO2ZAKQj7dy-qLIJ46QBnI3Tz75-4nk52yzj0VQptP4mYo2aS1qBsS5siYSiEILqGL_9E66w2Y8CqHZFgXwZZu76Df1-DVwboerCF5QaLK2kOjVyH34ULX5eexUVmxWvrKmM89YINigG7gIYcTlJjv88sOrs_WMzu5Hn_38Jj4KLVGV73tuVfPGRyJOK9ungPl8Ll2NQ5JUjj53J7WrbkUefqFlTRhvTs6x5DteOQpdCJPFlEq1atBDgEfXg67RxDWFz-2Y4HQ-v_mdAr8z9kagj529ByCAS2I_B6VA0as-ydhMoOKBtAI0sDXj6CvzFmBhbqlSCtrDsfWvoI_fDfzy4LPaDork6E-qJ8OnIzBs0HVm00]--></g></svg>