<?xml version="1.0" encoding="us-ascii" standalone="no"?><svg xmlns="http://www.w3.org/2000/svg" xmlns:xlink="http://www.w3.org/1999/xlink" contentStyleType="text/css" height="483px" preserveAspectRatio="none" style="width:858px;height:483px;background:#FFFFFF;" version="1.1" viewBox="0 0 858 483" width="858px" zoomAndPan="magnify"><defs/><g><rect fill="#FFFFFF" height="318.9102" style="stroke:#181818;stroke-width:1.0;" width="10" x="245" y="90.5332"/><rect fill="#FFFFFF" height="223.0371" style="stroke:#181818;stroke-width:1.0;" width="10" x="511" y="148.1152"/><rect fill="#FFFFFF" height="31.291" style="stroke:#181818;stroke-width:1.0;" width="10" x="712" y="205.6973"/><rect fill="#FFFFFF" height="31.291" style="stroke:#181818;stroke-width:1.0;" width="10" x="712" y="294.5703"/><rect fill="none" height="273.6191" style="stroke:#000000;stroke-width:1.5;" width="716" x="136.5" y="105.5332"/><rect fill="none" height="177.7461" style="stroke:#000000;stroke-width:1.5;" width="380" x="462.5" y="163.1152"/><rect fill="none" height="81.873" style="stroke:#000000;stroke-width:1.5;" width="303.5" x="472.5" y="251.9883"/><line style="stroke:#181818;stroke-width:0.5;stroke-dasharray:5.0,5.0;" x1="249.5" x2="249.5" y1="57.2422" y2="427.4434"/><line style="stroke:#181818;stroke-width:0.5;stroke-dasharray:5.0,5.0;" x1="515.5" x2="515.5" y1="57.2422" y2="427.4434"/><line style="stroke:#181818;stroke-width:0.5;stroke-dasharray:5.0,5.0;" x1="717" x2="717" y1="57.2422" y2="427.4434"/><rect fill="#E3E3E3" height="32.6211" rx="2.5" ry="2.5" style="stroke:#181818;stroke-width:0.5;" width="207" x="146.5" y="23.6211"/><text fill="#000000" font-family="sans-serif" font-size="14" lengthAdjust="spacing" textLength="193" x="153.5" y="45.7285">:AssignTeamAgendaController</text><rect fill="#E3E3E3" height="32.6211" rx="2.5" ry="2.5" style="stroke:#181818;stroke-width:0.5;" width="207" x="146.5" y="426.4434"/><text fill="#000000" font-family="sans-serif" font-size="14" lengthAdjust="spacing" textLength="193" x="153.5" y="448.5508">:AssignTeamAgendaController</text><rect fill="#E3E3E3" height="51.2422" rx="2.5" ry="2.5" style="stroke:#181818;stroke-width:0.5;" width="67" x="482.5" y="5"/><text fill="#000000" font-family="sans-serif" font-size="14" lengthAdjust="spacing" textLength="48" x="492" y="27.1074">agenda</text><text fill="#000000" font-family="sans-serif" font-size="14" lengthAdjust="spacing" textLength="53" x="489.5" y="45.7285">:Agenda</text><rect fill="#E3E3E3" height="51.2422" rx="2.5" ry="2.5" style="stroke:#181818;stroke-width:0.5;" width="67" x="482.5" y="426.4434"/><text fill="#000000" font-family="sans-serif" font-size="14" lengthAdjust="spacing" textLength="48" x="492" y="448.5508">agenda</text><text fill="#000000" font-family="sans-serif" font-size="14" lengthAdjust="spacing" textLength="53" x="489.5" y="467.1719">:Agenda</text><rect fill="#E3E3E3" height="51.2422" rx="2.5" ry="2.5" style="stroke:#181818;stroke-width:0.5;" width="98" x="668" y="5"/><text fill="#000000" font-family="sans-serif" font-size="14" lengthAdjust="spacing" textLength="79" x="677.5" y="27.1074">agendaTask</text><text fill="#000000" font-family="sans-serif" font-size="14" lengthAdjust="spacing" textLength="84" x="675" y="45.7285">:AgendaTask</text><rect fill="#E3E3E3" height="51.2422" rx="2.5" ry="2.5" style="stroke:#181818;stroke-width:0.5;" width="98" x="668" y="426.4434"/><text fill="#000000" font-family="sans-serif" font-size="14" lengthAdjust="spacing" textLength="79" x="677.5" y="448.5508">agendaTask</text><text fill="#000000" font-family="sans-serif" font-size="14" lengthAdjust="spacing" textLength="84" x="675" y="467.1719">:AgendaTask</text><rect fill="#FFFFFF" height="318.9102" style="stroke:#181818;stroke-width:1.0;" width="10" x="245" y="90.5332"/><rect fill="#FFFFFF" height="223.0371" style="stroke:#181818;stroke-width:1.0;" width="10" x="511" y="148.1152"/><rect fill="#FFFFFF" height="31.291" style="stroke:#181818;stroke-width:1.0;" width="10" x="712" y="205.6973"/><rect fill="#FFFFFF" height="31.291" style="stroke:#181818;stroke-width:1.0;" width="10" x="712" y="294.5703"/><polygon fill="#181818" points="233,86.5332,243,90.5332,233,94.5332,237,90.5332" style="stroke:#181818;stroke-width:1.0;"/><line style="stroke:#181818;stroke-width:1.0;stroke-dasharray:2.0,2.0;" x1="0" x2="239" y1="90.5332" y2="90.5332"/><text fill="#000000" font-family="sans-serif" font-size="13" font-weight="bold" lengthAdjust="spacing" textLength="14" x="7" y="85.2705">43</text><text fill="#000000" font-family="sans-serif" font-size="13" lengthAdjust="spacing" textLength="208" x="25" y="85.2705">assignTeamTask(team,taskAgenda)</text><path d="M136.5,105.5332 L295.5,105.5332 L295.5,114.8242 L285.5,124.8242 L136.5,124.8242 L136.5,105.5332 " fill="#EEEEEE" style="stroke:#000000;stroke-width:1.5;"/><rect fill="none" height="273.6191" style="stroke:#000000;stroke-width:1.5;" width="716" x="136.5" y="105.5332"/><text fill="#000000" font-family="sans-serif" font-size="13" font-weight="bold" lengthAdjust="spacing" textLength="114" x="151.5" y="120.5615">Assign Team Task</text><polygon fill="#181818" points="499,144.1152,509,148.1152,499,152.1152,503,148.1152" style="stroke:#181818;stroke-width:1.0;"/><line style="stroke:#181818;stroke-width:1.0;" x1="255" x2="505" y1="148.1152" y2="148.1152"/><text fill="#000000" font-family="sans-serif" font-size="13" font-weight="bold" lengthAdjust="spacing" textLength="25" x="262" y="142.8525">43.1</text><text fill="#000000" font-family="sans-serif" font-size="13" lengthAdjust="spacing" textLength="208" x="291" y="142.8525">assignTeamTask(team,taskAgenda)</text><path d="M462.5,163.1152 L535.5,163.1152 L535.5,172.4063 L525.5,182.4063 L462.5,182.4063 L462.5,163.1152 " fill="#EEEEEE" style="stroke:#000000;stroke-width:1.5;"/><rect fill="none" height="177.7461" style="stroke:#000000;stroke-width:1.5;" width="380" x="462.5" y="163.1152"/><text fill="#000000" font-family="sans-serif" font-size="13" font-weight="bold" lengthAdjust="spacing" textLength="28" x="477.5" y="178.1436">loop</text><text fill="#000000" font-family="sans-serif" font-size="11" font-weight="bold" lengthAdjust="spacing" textLength="287" x="550.5" y="176.9854">[for each taskAgenda in listTaskAgenda[in Agenda]]</text><polygon fill="#181818" points="700,201.6973,710,205.6973,700,209.6973,704,205.6973" style="stroke:#181818;stroke-width:1.0;"/><line style="stroke:#181818;stroke-width:1.0;" x1="521" x2="706" y1="205.6973" y2="205.6973"/><text fill="#000000" font-family="sans-serif" font-size="13" font-weight="bold" lengthAdjust="spacing" textLength="25" x="528" y="200.4346">43.2</text><text fill="#000000" font-family="sans-serif" font-size="13" lengthAdjust="spacing" textLength="143" x="557" y="200.4346">equalsTask(taskAgenda)</text><polygon fill="#181818" points="532,232.9883,522,236.9883,532,240.9883,528,236.9883" style="stroke:#181818;stroke-width:1.0;"/><line style="stroke:#181818;stroke-width:1.0;stroke-dasharray:2.0,2.0;" x1="526" x2="716" y1="236.9883" y2="236.9883"/><text fill="#000000" font-family="sans-serif" font-size="13" font-weight="bold" lengthAdjust="spacing" textLength="25" x="538" y="231.7256">43.3</text><text fill="#000000" font-family="sans-serif" font-size="13" lengthAdjust="spacing" textLength="53" x="567" y="231.7256">true/false</text><path d="M472.5,251.9883 L533.5,251.9883 L533.5,261.2793 L523.5,271.2793 L472.5,271.2793 L472.5,251.9883 " fill="#EEEEEE" style="stroke:#000000;stroke-width:1.5;"/><rect fill="none" height="81.873" style="stroke:#000000;stroke-width:1.5;" width="303.5" x="472.5" y="251.9883"/><text fill="#000000" font-family="sans-serif" font-size="13" font-weight="bold" lengthAdjust="spacing" textLength="16" x="487.5" y="267.0166">alt</text><text fill="#000000" font-family="sans-serif" font-size="11" font-weight="bold" lengthAdjust="spacing" textLength="113" x="548.5" y="265.8584">[equalsTask == true]</text><polygon fill="#181818" points="700,290.5703,710,294.5703,700,298.5703,704,294.5703" style="stroke:#181818;stroke-width:1.0;"/><line style="stroke:#181818;stroke-width:1.0;" x1="521" x2="706" y1="294.5703" y2="294.5703"/><text fill="#000000" font-family="sans-serif" font-size="13" font-weight="bold" lengthAdjust="spacing" textLength="25" x="528" y="289.3076">43.4</text><text fill="#000000" font-family="sans-serif" font-size="13" lengthAdjust="spacing" textLength="108" x="557" y="289.3076">updateTeam(team)</text><polygon fill="#181818" points="532,321.8613,522,325.8613,532,329.8613,528,325.8613" style="stroke:#181818;stroke-width:1.0;"/><line style="stroke:#181818;stroke-width:1.0;stroke-dasharray:2.0,2.0;" x1="526" x2="716" y1="325.8613" y2="325.8613"/><text fill="#000000" font-family="sans-serif" font-size="13" font-weight="bold" lengthAdjust="spacing" textLength="25" x="538" y="320.5986">43.5</text><text fill="#000000" font-family="sans-serif" font-size="13" lengthAdjust="spacing" textLength="53" x="567" y="320.5986">true/false</text><polygon fill="#181818" points="266,367.1523,256,371.1523,266,375.1523,262,371.1523" style="stroke:#181818;stroke-width:1.0;"/><line style="stroke:#181818;stroke-width:1.0;stroke-dasharray:2.0,2.0;" x1="260" x2="515" y1="371.1523" y2="371.1523"/><text fill="#000000" font-family="sans-serif" font-size="13" font-weight="bold" lengthAdjust="spacing" textLength="25" x="272" y="365.8896">43.6</text><text fill="#000000" font-family="sans-serif" font-size="13" lengthAdjust="spacing" textLength="53" x="301" y="365.8896">true/false</text><polygon fill="#181818" points="11,405.4434,1,409.4434,11,413.4434,7,409.4434" style="stroke:#181818;stroke-width:1.0;"/><line style="stroke:#181818;stroke-width:1.0;stroke-dasharray:2.0,2.0;" x1="5" x2="249" y1="409.4434" y2="409.4434"/><text fill="#000000" font-family="sans-serif" font-size="13" font-weight="bold" lengthAdjust="spacing" textLength="14" x="17" y="404.1807">44</text><text fill="#000000" font-family="sans-serif" font-size="13" lengthAdjust="spacing" textLength="53" x="35" y="404.1807">true/false</text><!--SRC=[fP9DJyCm38Rl-HNMBe14Lo5sgXXIDH0740VM6t0mQTP6IvEGf23-FVbOjp86Gk9IkSxx-h7Z7BNEQLlakHOeNT-9ALLTRjbhpoHbMSsnCTWHk-PIeu-WKrBHrgYEWJCz6vref6jisD9z20Q6KOUo4ME1RR5Mxrmsi49X6I4-xJZbsfDXKfJMyaPM3BkoORB6XPBEA26OcG1QM5GFTryT66LFiaZwg2flhk-lId98MA5TRyNX9nggSdbB2FPEoRvxOGPcvuHasMNaGU4bGrV1SknySEfybCgSx5cdPwGngjUGXe7WWs3qEkhu6pgM1Y6nlCUaXly46WeCCmgbDAoK0OQqXPqMk0J1hQkscKUVIT4p8HkYPuVPFTals-yZKGy2qnr5TJPkEJo0VBFBckt9KRXHPPZFqtlvZkzrxLrXy3Zqly6- -yrdGEss-ODnkD7e6YzqHiX5blrk3gUV]--></g></svg>