<?xml version="1.0" encoding="us-ascii" standalone="no"?><svg xmlns="http://www.w3.org/2000/svg" xmlns:xlink="http://www.w3.org/1999/xlink" contentStyleType="text/css" height="888px" preserveAspectRatio="none" style="width:1287px;height:888px;background:#FFFFFF;" version="1.1" viewBox="0 0 1287 888" width="1287px" zoomAndPan="magnify"><defs/><g><rect fill="#FFFFFF" height="724.0625" style="stroke:#181818;stroke-width:1.0;" width="10" x="284" y="90.5332"/><rect fill="#FFFFFF" height="31.291" style="stroke:#181818;stroke-width:1.0;" width="10" x="446" y="148.1152"/><rect fill="#FFFFFF" height="31.291" style="stroke:#181818;stroke-width:1.0;" width="10" x="553" y="210.6973"/><rect fill="#FFFFFF" height="503.0254" style="stroke:#181818;stroke-width:1.0;" width="10" x="645" y="273.2793"/><rect fill="#FFFFFF" height="31.291" style="stroke:#181818;stroke-width:1.0;" width="10" x="808" y="699.7227"/><rect fill="#FFFFFF" height="249.0371" style="stroke:#181818;stroke-width:1.0;" width="10" x="935" y="393.1035"/><rect fill="#FFFFFF" height="42.291" style="stroke:#181818;stroke-width:1.0;" width="10" x="940" y="432.3945"/><rect fill="#FFFFFF" height="31.291" style="stroke:#181818;stroke-width:1.0;" width="10" x="1187" y="565.5586"/><rect fill="none" height="678.7715" style="stroke:#000000;stroke-width:1.5;" width="1105.5" x="175.5" y="105.5332"/><rect fill="none" height="395.4922" style="stroke:#000000;stroke-width:1.5;" width="674.5" x="596.5" y="350.5215"/><rect fill="none" height="115.1641" style="stroke:#000000;stroke-width:1.5;" width="390" x="871" y="496.6855"/><rect fill="none" height="81.873" style="stroke:#000000;stroke-width:1.5;" width="370" x="881" y="522.9766"/><rect fill="none" height="81.873" style="stroke:#000000;stroke-width:1.5;" width="284.5" x="606.5" y="657.1406"/><line style="stroke:#181818;stroke-width:0.5;stroke-dasharray:5.0,5.0;" x1="288.5" x2="288.5" y1="57.2422" y2="832.5957"/><line style="stroke:#181818;stroke-width:0.5;stroke-dasharray:5.0,5.0;" x1="450.5" x2="450.5" y1="57.2422" y2="832.5957"/><line style="stroke:#181818;stroke-width:0.5;stroke-dasharray:5.0,5.0;" x1="557.5" x2="557.5" y1="57.2422" y2="832.5957"/><line style="stroke:#181818;stroke-width:0.5;stroke-dasharray:5.0,5.0;" x1="649.5" x2="649.5" y1="57.2422" y2="832.5957"/><line style="stroke:#181818;stroke-width:0.5;stroke-dasharray:5.0,5.0;" x1="813" x2="813" y1="322.4004" y2="832.5957"/><line style="stroke:#181818;stroke-width:0.5;stroke-dasharray:5.0,5.0;" x1="940" x2="940" y1="57.2422" y2="832.5957"/><line style="stroke:#181818;stroke-width:0.5;stroke-dasharray:5.0,5.0;" x1="1192" x2="1192" y1="57.2422" y2="832.5957"/><rect fill="#E3E3E3" height="32.6211" rx="2.5" ry="2.5" style="stroke:#181818;stroke-width:0.5;" width="207" x="185.5" y="23.6211"/><text fill="#000000" font-family="sans-serif" font-size="14" lengthAdjust="spacing" textLength="193" x="192.5" y="45.7285">:AssignTeamAgendaController</text><rect fill="#E3E3E3" height="32.6211" rx="2.5" ry="2.5" style="stroke:#181818;stroke-width:0.5;" width="207" x="185.5" y="831.5957"/><text fill="#000000" font-family="sans-serif" font-size="14" lengthAdjust="spacing" textLength="193" x="192.5" y="853.7031">:AssignTeamAgendaController</text><rect fill="#E3E3E3" height="32.6211" rx="2.5" ry="2.5" style="stroke:#181818;stroke-width:0.5;" width="97" x="402.5" y="23.6211"/><text fill="#000000" font-family="sans-serif" font-size="14" lengthAdjust="spacing" textLength="83" x="409.5" y="45.7285">:Repositories</text><rect fill="#E3E3E3" height="32.6211" rx="2.5" ry="2.5" style="stroke:#181818;stroke-width:0.5;" width="97" x="402.5" y="831.5957"/><text fill="#000000" font-family="sans-serif" font-size="14" lengthAdjust="spacing" textLength="83" x="409.5" y="853.7031">:Repositories</text><rect fill="#E3E3E3" height="51.2422" rx="2.5" ry="2.5" style="stroke:#181818;stroke-width:0.5;" width="97" x="509.5" y="5"/><text fill="#000000" font-family="sans-serif" font-size="14" lengthAdjust="spacing" textLength="74" x="521" y="27.1074">repositories</text><text fill="#000000" font-family="sans-serif" font-size="14" lengthAdjust="spacing" textLength="83" x="516.5" y="45.7285">:Repositories</text><rect fill="#E3E3E3" height="51.2422" rx="2.5" ry="2.5" style="stroke:#181818;stroke-width:0.5;" width="97" x="509.5" y="831.5957"/><text fill="#000000" font-family="sans-serif" font-size="14" lengthAdjust="spacing" textLength="74" x="521" y="853.7031">repositories</text><text fill="#000000" font-family="sans-serif" font-size="14" lengthAdjust="spacing" textLength="83" x="516.5" y="872.3242">:Repositories</text><rect fill="#E3E3E3" height="51.2422" rx="2.5" ry="2.5" style="stroke:#181818;stroke-width:0.5;" width="67" x="616.5" y="5"/><text fill="#000000" font-family="sans-serif" font-size="14" lengthAdjust="spacing" textLength="48" x="626" y="27.1074">agenda</text><text fill="#000000" font-family="sans-serif" font-size="14" lengthAdjust="spacing" textLength="53" x="623.5" y="45.7285">:Agenda</text><rect fill="#E3E3E3" height="51.2422" rx="2.5" ry="2.5" style="stroke:#181818;stroke-width:0.5;" width="67" x="616.5" y="831.5957"/><text fill="#000000" font-family="sans-serif" font-size="14" lengthAdjust="spacing" textLength="48" x="626" y="853.7031">agenda</text><text fill="#000000" font-family="sans-serif" font-size="14" lengthAdjust="spacing" textLength="53" x="623.5" y="872.3242">:Agenda</text><rect fill="#E3E3E3" height="51.2422" rx="2.5" ry="2.5" style="stroke:#181818;stroke-width:0.5;" width="136" x="745" y="831.5957"/><text fill="#000000" font-family="sans-serif" font-size="14" lengthAdjust="spacing" textLength="97" x="764.5" y="853.7031">listTaskAgenda</text><text fill="#000000" font-family="sans-serif" font-size="14" lengthAdjust="spacing" textLength="122" x="752" y="872.3242">:List&lt;AgendaTask&gt;</text><rect fill="#E3E3E3" height="51.2422" rx="2.5" ry="2.5" style="stroke:#181818;stroke-width:0.5;" width="98" x="891" y="5"/><text fill="#000000" font-family="sans-serif" font-size="14" lengthAdjust="spacing" textLength="79" x="900.5" y="27.1074">agendaTask</text><text fill="#000000" font-family="sans-serif" font-size="14" lengthAdjust="spacing" textLength="84" x="898" y="45.7285">:AgendaTask</text><rect fill="#E3E3E3" height="51.2422" rx="2.5" ry="2.5" style="stroke:#181818;stroke-width:0.5;" width="98" x="891" y="831.5957"/><text fill="#000000" font-family="sans-serif" font-size="14" lengthAdjust="spacing" textLength="79" x="900.5" y="853.7031">agendaTask</text><text fill="#000000" font-family="sans-serif" font-size="14" lengthAdjust="spacing" textLength="84" x="898" y="872.3242">:AgendaTask</text><rect fill="#E3E3E3" height="51.2422" rx="2.5" ry="2.5" style="stroke:#181818;stroke-width:0.5;" width="98" x="1143" y="5"/><text fill="#000000" font-family="sans-serif" font-size="14" lengthAdjust="spacing" textLength="77" x="1153.5" y="27.1074">greenSpace</text><text fill="#000000" font-family="sans-serif" font-size="14" lengthAdjust="spacing" textLength="84" x="1150" y="45.7285">:GreenSpace</text><rect fill="#E3E3E3" height="51.2422" rx="2.5" ry="2.5" style="stroke:#181818;stroke-width:0.5;" width="98" x="1143" y="831.5957"/><text fill="#000000" font-family="sans-serif" font-size="14" lengthAdjust="spacing" textLength="77" x="1153.5" y="853.7031">greenSpace</text><text fill="#000000" font-family="sans-serif" font-size="14" lengthAdjust="spacing" textLength="84" x="1150" y="872.3242">:GreenSpace</text><rect fill="#FFFFFF" height="724.0625" style="stroke:#181818;stroke-width:1.0;" width="10" x="284" y="90.5332"/><rect fill="#FFFFFF" height="31.291" style="stroke:#181818;stroke-width:1.0;" width="10" x="446" y="148.1152"/><rect fill="#FFFFFF" height="31.291" style="stroke:#181818;stroke-width:1.0;" width="10" x="553" y="210.6973"/><rect fill="#FFFFFF" height="503.0254" style="stroke:#181818;stroke-width:1.0;" width="10" x="645" y="273.2793"/><rect fill="#FFFFFF" height="31.291" style="stroke:#181818;stroke-width:1.0;" width="10" x="808" y="699.7227"/><rect fill="#FFFFFF" height="249.0371" style="stroke:#181818;stroke-width:1.0;" width="10" x="935" y="393.1035"/><rect fill="#FFFFFF" height="42.291" style="stroke:#181818;stroke-width:1.0;" width="10" x="940" y="432.3945"/><rect fill="#FFFFFF" height="31.291" style="stroke:#181818;stroke-width:1.0;" width="10" x="1187" y="565.5586"/><polygon fill="#181818" points="272,86.5332,282,90.5332,272,94.5332,276,90.5332" style="stroke:#181818;stroke-width:1.0;"/><line style="stroke:#181818;stroke-width:1.0;stroke-dasharray:2.0,2.0;" x1="0" x2="278" y1="90.5332" y2="90.5332"/><text fill="#000000" font-family="sans-serif" font-size="13" font-weight="bold" lengthAdjust="spacing" textLength="14" x="7" y="85.2705">11</text><text fill="#000000" font-family="sans-serif" font-size="13" lengthAdjust="spacing" textLength="247" x="25" y="85.2705">getAllTaskByGreenSpace(greenSpaceList)</text><path d="M175.5,105.5332 L399.5,105.5332 L399.5,114.8242 L389.5,124.8242 L175.5,124.8242 L175.5,105.5332 " fill="#EEEEEE" style="stroke:#000000;stroke-width:1.5;"/><rect fill="none" height="678.7715" style="stroke:#000000;stroke-width:1.5;" width="1105.5" x="175.5" y="105.5332"/><text fill="#000000" font-family="sans-serif" font-size="13" font-weight="bold" lengthAdjust="spacing" textLength="179" x="190.5" y="120.5615">Get All Task By GreenSpace</text><polygon fill="#181818" points="434,144.1152,444,148.1152,434,152.1152,438,148.1152" style="stroke:#181818;stroke-width:1.0;"/><line style="stroke:#181818;stroke-width:1.0;" x1="294" x2="440" y1="148.1152" y2="148.1152"/><text fill="#000000" font-family="sans-serif" font-size="13" font-weight="bold" lengthAdjust="spacing" textLength="25" x="301" y="142.8525">11.1</text><text fill="#000000" font-family="sans-serif" font-size="13" lengthAdjust="spacing" textLength="75" x="330" y="142.8525">getInstance()</text><polygon fill="#181818" points="305,175.4063,295,179.4063,305,183.4063,301,179.4063" style="stroke:#181818;stroke-width:1.0;"/><line style="stroke:#181818;stroke-width:1.0;stroke-dasharray:2.0,2.0;" x1="299" x2="450" y1="179.4063" y2="179.4063"/><text fill="#000000" font-family="sans-serif" font-size="13" font-weight="bold" lengthAdjust="spacing" textLength="25" x="311" y="174.1436">11.2</text><text fill="#000000" font-family="sans-serif" font-size="13" lengthAdjust="spacing" textLength="67" x="340" y="174.1436">repositories</text><polygon fill="#181818" points="541,206.6973,551,210.6973,541,214.6973,545,210.6973" style="stroke:#181818;stroke-width:1.0;"/><line style="stroke:#181818;stroke-width:1.0;" x1="294" x2="547" y1="210.6973" y2="210.6973"/><text fill="#000000" font-family="sans-serif" font-size="13" font-weight="bold" lengthAdjust="spacing" textLength="25" x="301" y="205.4346">11.3</text><text fill="#000000" font-family="sans-serif" font-size="13" lengthAdjust="spacing" textLength="70" x="330" y="205.4346">getAgenda()</text><polygon fill="#181818" points="305,237.9883,295,241.9883,305,245.9883,301,241.9883" style="stroke:#181818;stroke-width:1.0;"/><line style="stroke:#181818;stroke-width:1.0;stroke-dasharray:2.0,2.0;" x1="299" x2="557" y1="241.9883" y2="241.9883"/><text fill="#000000" font-family="sans-serif" font-size="13" font-weight="bold" lengthAdjust="spacing" textLength="25" x="311" y="236.7256">11.4</text><text fill="#000000" font-family="sans-serif" font-size="13" lengthAdjust="spacing" textLength="42" x="340" y="236.7256">agenda</text><polygon fill="#181818" points="633,269.2793,643,273.2793,633,277.2793,637,273.2793" style="stroke:#181818;stroke-width:1.0;"/><line style="stroke:#181818;stroke-width:1.0;" x1="294" x2="639" y1="273.2793" y2="273.2793"/><text fill="#000000" font-family="sans-serif" font-size="13" font-weight="bold" lengthAdjust="spacing" textLength="25" x="301" y="268.0166">11.5</text><text fill="#000000" font-family="sans-serif" font-size="13" lengthAdjust="spacing" textLength="247" x="330" y="268.0166">getAllTaskByGreenSpace(greenSpaceList)</text><polygon fill="#181818" points="733,300.5703,743,304.5703,733,308.5703,737,304.5703" style="stroke:#181818;stroke-width:1.0;"/><line style="stroke:#181818;stroke-width:1.0;" x1="655" x2="739" y1="304.5703" y2="304.5703"/><text fill="#000000" font-family="sans-serif" font-size="13" font-weight="bold" lengthAdjust="spacing" textLength="25" x="662" y="299.3076">11.6</text><text fill="#000000" font-family="sans-serif" font-size="13" lengthAdjust="spacing" textLength="36" x="691" y="299.3076">create</text><rect fill="#E3E3E3" height="51.2422" rx="2.5" ry="2.5" style="stroke:#181818;stroke-width:0.5;" width="136" x="745" y="281.2793"/><text fill="#000000" font-family="sans-serif" font-size="14" lengthAdjust="spacing" textLength="97" x="764.5" y="303.3867">listTaskAgenda</text><text fill="#000000" font-family="sans-serif" font-size="14" lengthAdjust="spacing" textLength="122" x="752" y="322.0078">:List&lt;AgendaTask&gt;</text><path d="M596.5,350.5215 L669.5,350.5215 L669.5,359.8125 L659.5,369.8125 L596.5,369.8125 L596.5,350.5215 " fill="#EEEEEE" style="stroke:#000000;stroke-width:1.5;"/><rect fill="none" height="395.4922" style="stroke:#000000;stroke-width:1.5;" width="674.5" x="596.5" y="350.5215"/><text fill="#000000" font-family="sans-serif" font-size="13" font-weight="bold" lengthAdjust="spacing" textLength="28" x="611.5" y="365.5498">loop</text><text fill="#000000" font-family="sans-serif" font-size="11" font-weight="bold" lengthAdjust="spacing" textLength="206" x="684.5" y="364.3916">[for each Task in listTask[in Agenda]]</text><polygon fill="#181818" points="923,389.1035,933,393.1035,923,397.1035,927,393.1035" style="stroke:#181818;stroke-width:1.0;"/><line style="stroke:#181818;stroke-width:1.0;" x1="655" x2="929" y1="393.1035" y2="393.1035"/><text fill="#000000" font-family="sans-serif" font-size="13" font-weight="bold" lengthAdjust="spacing" textLength="25" x="662" y="387.8408">11.7</text><text fill="#000000" font-family="sans-serif" font-size="13" lengthAdjust="spacing" textLength="199" x="691" y="387.8408">verifyGreenSpace(greenSpaceList)</text><line style="stroke:#181818;stroke-width:1.0;" x1="945" x2="992" y1="419.3945" y2="419.3945"/><line style="stroke:#181818;stroke-width:1.0;" x1="992" x2="992" y1="419.3945" y2="432.3945"/><line style="stroke:#181818;stroke-width:1.0;" x1="951" x2="992" y1="432.3945" y2="432.3945"/><polygon fill="#181818" points="961,428.3945,951,432.3945,961,436.3945,957,432.3945" style="stroke:#181818;stroke-width:1.0;"/><text fill="#000000" font-family="sans-serif" font-size="13" font-weight="bold" lengthAdjust="spacing" textLength="25" x="957" y="414.1318">11.8</text><text fill="#000000" font-family="sans-serif" font-size="13" lengthAdjust="spacing" textLength="91" x="986" y="414.1318">verifyNullTeam()</text><line style="stroke:#181818;stroke-width:1.0;stroke-dasharray:2.0,2.0;" x1="950" x2="992" y1="473.6855" y2="473.6855"/><line style="stroke:#181818;stroke-width:1.0;stroke-dasharray:2.0,2.0;" x1="992" x2="992" y1="473.6855" y2="486.6855"/><line style="stroke:#181818;stroke-width:1.0;stroke-dasharray:2.0,2.0;" x1="945" x2="992" y1="486.6855" y2="486.6855"/><polygon fill="#181818" points="955,482.6855,945,486.6855,955,490.6855,951,486.6855" style="stroke:#181818;stroke-width:1.0;"/><text fill="#000000" font-family="sans-serif" font-size="13" font-weight="bold" lengthAdjust="spacing" textLength="25" x="957" y="468.4229">11.9</text><text fill="#000000" font-family="sans-serif" font-size="13" lengthAdjust="spacing" textLength="53" x="986" y="468.4229">true/false</text><path d="M871,496.6855 L932,496.6855 L932,505.9766 L922,515.9766 L871,515.9766 L871,496.6855 " fill="#EEEEEE" style="stroke:#000000;stroke-width:1.5;"/><rect fill="none" height="115.1641" style="stroke:#000000;stroke-width:1.5;" width="390" x="871" y="496.6855"/><text fill="#000000" font-family="sans-serif" font-size="13" font-weight="bold" lengthAdjust="spacing" textLength="16" x="886" y="511.7139">alt</text><text fill="#000000" font-family="sans-serif" font-size="11" font-weight="bold" lengthAdjust="spacing" textLength="131" x="947" y="510.5557">[verifyNullTeam == true]</text><path d="M881,522.9766 L954,522.9766 L954,532.2676 L944,542.2676 L881,542.2676 L881,522.9766 " fill="#EEEEEE" style="stroke:#000000;stroke-width:1.5;"/><rect fill="none" height="81.873" style="stroke:#000000;stroke-width:1.5;" width="370" x="881" y="522.9766"/><text fill="#000000" font-family="sans-serif" font-size="13" font-weight="bold" lengthAdjust="spacing" textLength="28" x="896" y="538.0049">loop</text><text fill="#000000" font-family="sans-serif" font-size="11" font-weight="bold" lengthAdjust="spacing" textLength="227" x="969" y="536.8467">[for each GreenSpace in ListGreenSpace]</text><polygon fill="#181818" points="1175,561.5586,1185,565.5586,1175,569.5586,1179,565.5586" style="stroke:#181818;stroke-width:1.0;"/><line style="stroke:#181818;stroke-width:1.0;" x1="945" x2="1181" y1="565.5586" y2="565.5586"/><text fill="#000000" font-family="sans-serif" font-size="13" font-weight="bold" lengthAdjust="spacing" textLength="32" x="952" y="560.2959">11.10</text><text fill="#000000" font-family="sans-serif" font-size="13" lengthAdjust="spacing" textLength="187" x="988" y="560.2959">equalsGreenSpace(greenSpace)</text><polygon fill="#181818" points="956,592.8496,946,596.8496,956,600.8496,952,596.8496" style="stroke:#181818;stroke-width:1.0;"/><line style="stroke:#181818;stroke-width:1.0;stroke-dasharray:2.0,2.0;" x1="950" x2="1191" y1="596.8496" y2="596.8496"/><text fill="#000000" font-family="sans-serif" font-size="13" font-weight="bold" lengthAdjust="spacing" textLength="32" x="962" y="591.5869">11.11</text><text fill="#000000" font-family="sans-serif" font-size="13" lengthAdjust="spacing" textLength="53" x="998" y="591.5869">true/false</text><polygon fill="#181818" points="666,638.1406,656,642.1406,666,646.1406,662,642.1406" style="stroke:#181818;stroke-width:1.0;"/><line style="stroke:#181818;stroke-width:1.0;" x1="660" x2="939" y1="642.1406" y2="642.1406"/><text fill="#000000" font-family="sans-serif" font-size="13" font-weight="bold" lengthAdjust="spacing" textLength="32" x="672" y="636.8779">11.12</text><text fill="#000000" font-family="sans-serif" font-size="13" lengthAdjust="spacing" textLength="69" x="708" y="636.8779">taskAgenda</text><path d="M606.5,657.1406 L667.5,657.1406 L667.5,666.4316 L657.5,676.4316 L606.5,676.4316 L606.5,657.1406 " fill="#EEEEEE" style="stroke:#000000;stroke-width:1.5;"/><rect fill="none" height="81.873" style="stroke:#000000;stroke-width:1.5;" width="284.5" x="606.5" y="657.1406"/><text fill="#000000" font-family="sans-serif" font-size="13" font-weight="bold" lengthAdjust="spacing" textLength="16" x="621.5" y="672.1689">alt</text><text fill="#000000" font-family="sans-serif" font-size="11" font-weight="bold" lengthAdjust="spacing" textLength="141" x="682.5" y="671.0107">[verifyGreenSpace != null]</text><polygon fill="#181818" points="796,695.7227,806,699.7227,796,703.7227,800,699.7227" style="stroke:#181818;stroke-width:1.0;"/><line style="stroke:#181818;stroke-width:1.0;" x1="655" x2="802" y1="699.7227" y2="699.7227"/><text fill="#000000" font-family="sans-serif" font-size="13" font-weight="bold" lengthAdjust="spacing" textLength="32" x="662" y="694.46">11.13</text><text fill="#000000" font-family="sans-serif" font-size="13" lengthAdjust="spacing" textLength="98" x="698" y="694.46">add(taskAgenda)</text><polygon fill="#181818" points="666,727.0137,656,731.0137,666,735.0137,662,731.0137" style="stroke:#181818;stroke-width:1.0;"/><line style="stroke:#181818;stroke-width:1.0;stroke-dasharray:2.0,2.0;" x1="660" x2="812" y1="731.0137" y2="731.0137"/><text fill="#000000" font-family="sans-serif" font-size="13" font-weight="bold" lengthAdjust="spacing" textLength="32" x="672" y="725.751">11.14</text><text fill="#000000" font-family="sans-serif" font-size="13" lengthAdjust="spacing" textLength="53" x="708" y="725.751">true/false</text><polygon fill="#181818" points="305,772.3047,295,776.3047,305,780.3047,301,776.3047" style="stroke:#181818;stroke-width:1.0;"/><line style="stroke:#181818;stroke-width:1.0;stroke-dasharray:2.0,2.0;" x1="299" x2="649" y1="776.3047" y2="776.3047"/><text fill="#000000" font-family="sans-serif" font-size="13" font-weight="bold" lengthAdjust="spacing" textLength="32" x="311" y="771.042">11.15</text><text fill="#000000" font-family="sans-serif" font-size="13" lengthAdjust="spacing" textLength="89" x="347" y="771.042">listTaskAgenda</text><polygon fill="#181818" points="11,810.5957,1,814.5957,11,818.5957,7,814.5957" style="stroke:#181818;stroke-width:1.0;"/><line style="stroke:#181818;stroke-width:1.0;stroke-dasharray:2.0,2.0;" x1="5" x2="288" y1="814.5957" y2="814.5957"/><text fill="#000000" font-family="sans-serif" font-size="13" font-weight="bold" lengthAdjust="spacing" textLength="14" x="17" y="809.333">12</text><text fill="#000000" font-family="sans-serif" font-size="13" lengthAdjust="spacing" textLength="89" x="35" y="809.333">listTaskAgenda</text><!--SRC=[bLHTRzem57tth_3wCbefHTqZAfLIXj0qXAg6jsuFNd895ewTsKud_lskRP8ua57j1SNct7FE_V3zlBUsDhFfj1PCsgOIzxcgfWP-Do1pI0hEIiqgOWvSrWo_QAMaolTQLK2jRY3wfsRvWPMGsQC0gY6tJ9OY1fWzAzGVBakwOy808NXjUSvhLAOtizGONieji2ejGHPieQJLIWZGDvGPkjY-hiyYNg5MXbkbEHYFwIwE6NVYLibXY8uYViXBWfTrkXr6CEy5iS6KHwMhvUPhEiG9RkoMcKFQujTuyHXExlx9HwwpRPfz7rDmc4x57Jp-4brg09bXhG7Hg-xWqQlNvNAJlQIB9I6imUIRwXTe-l10I98y-GhI6It1fa8uYUTZJp3fYPtpspE6U-HWkUNlp49e1IcrQcgw0akHZZe- -doaFICXNX25HzeIV7oJ1gS4nMyZzh4caZ6AAAUuhuGKS9sizUMwVIg8B_l0XXy5uY6jq8o6NWqK0gwb3AFn7rNk1KzJHKuKI1QcvUuEwN8DY254A5NJdT8K3Un3qRcaxV2zuNT8vMVCurYGunqqtrrlUUl5pntnSUVncmRJmaSw-HU-3t0BOdfwwr750fW9UyP8v_EmKywox1sxN9tLUCXQa_tmepBkBvGTJJMs7J-OAFxZ5E90B7VuQPrqCs2xVN0r_oY_JtCgiHgNGu1ih2WcFMESnccha1Cq6NWOJw0DwSntYlsZ6gwqGNWxgpuoNXHV27bCaey97E8l]--></g></svg>