<?xml version="1.0" encoding="us-ascii" standalone="no"?><svg xmlns="http://www.w3.org/2000/svg" xmlns:xlink="http://www.w3.org/1999/xlink" contentStyleType="text/css" height="450px" preserveAspectRatio="none" style="width:1008px;height:450px;background:#FFFFFF;" version="1.1" viewBox="0 0 1008 450" width="1008px" zoomAndPan="magnify"><defs/><g><rect fill="#FFFFFF" height="285.6191" style="stroke:#181818;stroke-width:1.0;" width="10" x="248" y="90.5332"/><rect fill="#FFFFFF" height="189.7461" style="stroke:#181818;stroke-width:1.0;" width="10" x="517" y="148.1152"/><rect fill="#FFFFFF" height="93.873" style="stroke:#181818;stroke-width:1.0;" width="10" x="804" y="205.6973"/><rect fill="#FFFFFF" height="31.291" style="stroke:#181818;stroke-width:1.0;" width="10" x="924" y="236.9883"/><rect fill="none" height="240.3281" style="stroke:#000000;stroke-width:1.5;" width="792.5" x="209.5" y="105.5332"/><rect fill="none" height="144.4551" style="stroke:#000000;stroke-width:1.5;" width="532.5" x="459.5" y="163.1152"/><line style="stroke:#181818;stroke-width:0.5;stroke-dasharray:5.0,5.0;" x1="252.5" x2="252.5" y1="57.2422" y2="394.1523"/><line style="stroke:#181818;stroke-width:0.5;stroke-dasharray:5.0,5.0;" x1="521.5" x2="521.5" y1="57.2422" y2="394.1523"/><line style="stroke:#181818;stroke-width:0.5;stroke-dasharray:5.0,5.0;" x1="809" x2="809" y1="57.2422" y2="394.1523"/><line style="stroke:#181818;stroke-width:0.5;stroke-dasharray:5.0,5.0;" x1="929" x2="929" y1="57.2422" y2="394.1523"/><rect fill="#E3E3E3" height="51.2422" rx="2.5" ry="2.5" style="stroke:#181818;stroke-width:0.5;" width="67" x="219.5" y="5"/><text fill="#000000" font-family="sans-serif" font-size="14" lengthAdjust="spacing" textLength="48" x="229" y="27.1074">agenda</text><text fill="#000000" font-family="sans-serif" font-size="14" lengthAdjust="spacing" textLength="53" x="226.5" y="45.7285">:Agenda</text><rect fill="#E3E3E3" height="51.2422" rx="2.5" ry="2.5" style="stroke:#181818;stroke-width:0.5;" width="67" x="219.5" y="393.1523"/><text fill="#000000" font-family="sans-serif" font-size="14" lengthAdjust="spacing" textLength="48" x="229" y="415.2598">agenda</text><text fill="#000000" font-family="sans-serif" font-size="14" lengthAdjust="spacing" textLength="53" x="226.5" y="433.8809">:Agenda</text><rect fill="#E3E3E3" height="51.2422" rx="2.5" ry="2.5" style="stroke:#181818;stroke-width:0.5;" width="105" x="469.5" y="5"/><text fill="#000000" font-family="sans-serif" font-size="14" lengthAdjust="spacing" textLength="82" x="481" y="27.1074">tasksAgenda</text><text fill="#000000" font-family="sans-serif" font-size="14" lengthAdjust="spacing" textLength="91" x="476.5" y="45.7285">:TasksAgenda</text><rect fill="#E3E3E3" height="51.2422" rx="2.5" ry="2.5" style="stroke:#181818;stroke-width:0.5;" width="105" x="469.5" y="393.1523"/><text fill="#000000" font-family="sans-serif" font-size="14" lengthAdjust="spacing" textLength="82" x="481" y="415.2598">tasksAgenda</text><text fill="#000000" font-family="sans-serif" font-size="14" lengthAdjust="spacing" textLength="91" x="476.5" y="433.8809">:TasksAgenda</text><rect fill="#E3E3E3" height="51.2422" rx="2.5" ry="2.5" style="stroke:#181818;stroke-width:0.5;" width="98" x="760" y="5"/><text fill="#000000" font-family="sans-serif" font-size="14" lengthAdjust="spacing" textLength="75" x="771.5" y="27.1074">taskAgenda</text><text fill="#000000" font-family="sans-serif" font-size="14" lengthAdjust="spacing" textLength="84" x="767" y="45.7285">:TaskAgenda</text><rect fill="#E3E3E3" height="51.2422" rx="2.5" ry="2.5" style="stroke:#181818;stroke-width:0.5;" width="98" x="760" y="393.1523"/><text fill="#000000" font-family="sans-serif" font-size="14" lengthAdjust="spacing" textLength="75" x="771.5" y="415.2598">taskAgenda</text><text fill="#000000" font-family="sans-serif" font-size="14" lengthAdjust="spacing" textLength="84" x="767" y="433.8809">:TaskAgenda</text><rect fill="#E3E3E3" height="51.2422" rx="2.5" ry="2.5" style="stroke:#181818;stroke-width:0.5;" width="106" x="876" y="5"/><text fill="#000000" font-family="sans-serif" font-size="14" lengthAdjust="spacing" textLength="83" x="887.5" y="27.1074">taskToDoList</text><text fill="#000000" font-family="sans-serif" font-size="14" lengthAdjust="spacing" textLength="92" x="883" y="45.7285">:TaskToDoList</text><rect fill="#E3E3E3" height="51.2422" rx="2.5" ry="2.5" style="stroke:#181818;stroke-width:0.5;" width="106" x="876" y="393.1523"/><text fill="#000000" font-family="sans-serif" font-size="14" lengthAdjust="spacing" textLength="83" x="887.5" y="415.2598">taskToDoList</text><text fill="#000000" font-family="sans-serif" font-size="14" lengthAdjust="spacing" textLength="92" x="883" y="433.8809">:TaskToDoList</text><rect fill="#FFFFFF" height="285.6191" style="stroke:#181818;stroke-width:1.0;" width="10" x="248" y="90.5332"/><rect fill="#FFFFFF" height="189.7461" style="stroke:#181818;stroke-width:1.0;" width="10" x="517" y="148.1152"/><rect fill="#FFFFFF" height="93.873" style="stroke:#181818;stroke-width:1.0;" width="10" x="804" y="205.6973"/><rect fill="#FFFFFF" height="31.291" style="stroke:#181818;stroke-width:1.0;" width="10" x="924" y="236.9883"/><polygon fill="#181818" points="236,86.5332,246,90.5332,236,94.5332,240,90.5332" style="stroke:#181818;stroke-width:1.0;"/><line style="stroke:#181818;stroke-width:1.0;stroke-dasharray:2.0,2.0;" x1="0" x2="242" y1="90.5332" y2="90.5332"/><text fill="#000000" font-family="sans-serif" font-size="13" font-weight="bold" lengthAdjust="spacing" textLength="14" x="7" y="85.2705">41</text><text fill="#000000" font-family="sans-serif" font-size="13" lengthAdjust="spacing" textLength="211" x="25" y="85.2705">getTaskByReference(taskReference)</text><path d="M209.5,105.5332 L398.5,105.5332 L398.5,114.8242 L388.5,124.8242 L209.5,124.8242 L209.5,105.5332 " fill="#EEEEEE" style="stroke:#000000;stroke-width:1.5;"/><rect fill="none" height="240.3281" style="stroke:#000000;stroke-width:1.5;" width="792.5" x="209.5" y="105.5332"/><text fill="#000000" font-family="sans-serif" font-size="13" font-weight="bold" lengthAdjust="spacing" textLength="144" x="224.5" y="120.5615">Get Task By Reference</text><polygon fill="#181818" points="505,144.1152,515,148.1152,505,152.1152,509,148.1152" style="stroke:#181818;stroke-width:1.0;"/><line style="stroke:#181818;stroke-width:1.0;" x1="258" x2="511" y1="148.1152" y2="148.1152"/><text fill="#000000" font-family="sans-serif" font-size="13" font-weight="bold" lengthAdjust="spacing" textLength="25" x="265" y="142.8525">41.1</text><text fill="#000000" font-family="sans-serif" font-size="13" lengthAdjust="spacing" textLength="211" x="294" y="142.8525">getTaskByReference(taskReference)</text><path d="M459.5,163.1152 L532.5,163.1152 L532.5,172.4063 L522.5,182.4063 L459.5,182.4063 L459.5,163.1152 " fill="#EEEEEE" style="stroke:#000000;stroke-width:1.5;"/><rect fill="none" height="144.4551" style="stroke:#000000;stroke-width:1.5;" width="532.5" x="459.5" y="163.1152"/><text fill="#000000" font-family="sans-serif" font-size="13" font-weight="bold" lengthAdjust="spacing" textLength="28" x="474.5" y="178.1436">loop</text><text fill="#000000" font-family="sans-serif" font-size="11" font-weight="bold" lengthAdjust="spacing" textLength="318" x="547.5" y="176.9854">[for each TaskAgenda in taskAgendaList[in TaskAgenda]]</text><polygon fill="#181818" points="792,201.6973,802,205.6973,792,209.6973,796,205.6973" style="stroke:#181818;stroke-width:1.0;"/><line style="stroke:#181818;stroke-width:1.0;" x1="527" x2="798" y1="205.6973" y2="205.6973"/><text fill="#000000" font-family="sans-serif" font-size="13" font-weight="bold" lengthAdjust="spacing" textLength="25" x="534" y="200.4346">41.2</text><text fill="#000000" font-family="sans-serif" font-size="13" lengthAdjust="spacing" textLength="229" x="563" y="200.4346">verifyHasTaskReference(taskReference)</text><polygon fill="#181818" points="912,232.9883,922,236.9883,912,240.9883,916,236.9883" style="stroke:#181818;stroke-width:1.0;"/><line style="stroke:#181818;stroke-width:1.0;" x1="814" x2="918" y1="236.9883" y2="236.9883"/><text fill="#000000" font-family="sans-serif" font-size="13" font-weight="bold" lengthAdjust="spacing" textLength="25" x="821" y="231.7256">41.3</text><text fill="#000000" font-family="sans-serif" font-size="13" lengthAdjust="spacing" textLength="62" x="850" y="231.7256">hasRef(ref)</text><polygon fill="#181818" points="825,264.2793,815,268.2793,825,272.2793,821,268.2793" style="stroke:#181818;stroke-width:1.0;"/><line style="stroke:#181818;stroke-width:1.0;stroke-dasharray:2.0,2.0;" x1="819" x2="928" y1="268.2793" y2="268.2793"/><text fill="#000000" font-family="sans-serif" font-size="13" font-weight="bold" lengthAdjust="spacing" textLength="25" x="831" y="263.0166">41.4</text><text fill="#000000" font-family="sans-serif" font-size="13" lengthAdjust="spacing" textLength="53" x="860" y="263.0166">true/false</text><polygon fill="#181818" points="538,295.5703,528,299.5703,538,303.5703,534,299.5703" style="stroke:#181818;stroke-width:1.0;"/><line style="stroke:#181818;stroke-width:1.0;stroke-dasharray:2.0,2.0;" x1="532" x2="808" y1="299.5703" y2="299.5703"/><text fill="#000000" font-family="sans-serif" font-size="13" font-weight="bold" lengthAdjust="spacing" textLength="25" x="544" y="294.3076">41.5</text><text fill="#000000" font-family="sans-serif" font-size="13" lengthAdjust="spacing" textLength="53" x="573" y="294.3076">true/false</text><polygon fill="#181818" points="269,333.8613,259,337.8613,269,341.8613,265,337.8613" style="stroke:#181818;stroke-width:1.0;"/><line style="stroke:#181818;stroke-width:1.0;" x1="263" x2="521" y1="337.8613" y2="337.8613"/><text fill="#000000" font-family="sans-serif" font-size="13" font-weight="bold" lengthAdjust="spacing" textLength="25" x="275" y="332.5986">41.6</text><text fill="#000000" font-family="sans-serif" font-size="13" lengthAdjust="spacing" textLength="69" x="304" y="332.5986">taskAgenda</text><polygon fill="#181818" points="11,372.1523,1,376.1523,11,380.1523,7,376.1523" style="stroke:#181818;stroke-width:1.0;"/><line style="stroke:#181818;stroke-width:1.0;stroke-dasharray:2.0,2.0;" x1="5" x2="252" y1="376.1523" y2="376.1523"/><text fill="#000000" font-family="sans-serif" font-size="13" font-weight="bold" lengthAdjust="spacing" textLength="14" x="17" y="370.8896">42</text><text fill="#000000" font-family="sans-serif" font-size="13" lengthAdjust="spacing" textLength="69" x="35" y="370.8896">taskAgenda</text><!--SRC=[ZL8xJyCm4DxzAqvTA4CQWPWgX1HKL2GGbMWsO3YSIs8riOFj5ENVuwHvDLM1pUVx7dUVVP5QMvYbxnSPIblcsOAht3VqLPBav4K24uqvCpiX2tGdo9LKFDKg9x2wf56dGBx3XBQsoWWqSOiooSO0asAaleLC8CRC46FksWek2kSCCqUL4RxBPT0SPe06WlN3ooeunbaqEnDqu72e6aOOR9-svsX7h0df51sgbNeMnhRuhZmmDgiDOrXQ9SlyapJSN37cUNVjnB24X6pDkgzUAIPTXpclHVlgSa9VE07aLkpHKhStIxGg2rYJXLeBxYle-OorLivqjFG_dJkZSLmiKwg0M6aWv2aC6O6GCCHNP_3cReR-1sFZ2Tg1t2HxqYAk7j64O__VfpbeDI8kOoUIed7WkQRu2DeyG0Fn1iFwH_hjvufe2cvqft6TepIZkErETkjp7Y8vOVQHDWBZTxvcxDRp_j8uz7y0]--></g></svg>