<?xml version="1.0" encoding="us-ascii" standalone="no"?><svg xmlns="http://www.w3.org/2000/svg" xmlns:xlink="http://www.w3.org/1999/xlink" contentStyleType="text/css" height="697px" preserveAspectRatio="none" style="width:1125px;height:697px;background:#FFFFFF;" version="1.1" viewBox="0 0 1125 697" width="1125px" zoomAndPan="magnify"><defs/><g><rect fill="#FFFFFF" height="532.6563" style="stroke:#181818;stroke-width:1.0;" width="10" x="187" y="90.5332"/><rect fill="#FFFFFF" height="31.291" style="stroke:#181818;stroke-width:1.0;" width="10" x="349" y="148.1152"/><rect fill="#FFFFFF" height="31.291" style="stroke:#181818;stroke-width:1.0;" width="10" x="456" y="210.6973"/><rect fill="#FFFFFF" height="311.6191" style="stroke:#181818;stroke-width:1.0;" width="10" x="548" y="273.2793"/><rect fill="#FFFFFF" height="42.291" style="stroke:#181818;stroke-width:1.0;" width="10" x="553" y="497.3164"/><rect fill="#FFFFFF" height="127.1641" style="stroke:#181818;stroke-width:1.0;" width="10" x="797" y="330.8613"/><rect fill="#FFFFFF" height="31.291" style="stroke:#181818;stroke-width:1.0;" width="10" x="1035" y="388.4434"/><rect fill="none" height="487.3652" style="stroke:#000000;stroke-width:1.5;" width="1040.5" x="78.5" y="105.5332"/><rect fill="none" height="266.3281" style="stroke:#000000;stroke-width:1.5;" width="599.5" x="509.5" y="288.2793"/><rect fill="none" height="81.873" style="stroke:#000000;stroke-width:1.5;" width="331.5" x="767.5" y="345.8613"/><line style="stroke:#181818;stroke-width:0.5;stroke-dasharray:5.0,5.0;" x1="191.5" x2="191.5" y1="57.2422" y2="641.1895"/><line style="stroke:#181818;stroke-width:0.5;stroke-dasharray:5.0,5.0;" x1="353.5" x2="353.5" y1="57.2422" y2="641.1895"/><line style="stroke:#181818;stroke-width:0.5;stroke-dasharray:5.0,5.0;" x1="460.5" x2="460.5" y1="57.2422" y2="641.1895"/><line style="stroke:#181818;stroke-width:0.5;stroke-dasharray:5.0,5.0;" x1="552.5" x2="552.5" y1="57.2422" y2="641.1895"/><line style="stroke:#181818;stroke-width:0.5;stroke-dasharray:5.0,5.0;" x1="801.5" x2="801.5" y1="57.2422" y2="641.1895"/><line style="stroke:#181818;stroke-width:0.5;stroke-dasharray:5.0,5.0;" x1="1040" x2="1040" y1="57.2422" y2="641.1895"/><rect fill="#E3E3E3" height="32.6211" rx="2.5" ry="2.5" style="stroke:#181818;stroke-width:0.5;" width="207" x="88.5" y="23.6211"/><text fill="#000000" font-family="sans-serif" font-size="14" lengthAdjust="spacing" textLength="193" x="95.5" y="45.7285">:AssignTeamAgendaController</text><rect fill="#E3E3E3" height="32.6211" rx="2.5" ry="2.5" style="stroke:#181818;stroke-width:0.5;" width="207" x="88.5" y="640.1895"/><text fill="#000000" font-family="sans-serif" font-size="14" lengthAdjust="spacing" textLength="193" x="95.5" y="662.2969">:AssignTeamAgendaController</text><rect fill="#E3E3E3" height="32.6211" rx="2.5" ry="2.5" style="stroke:#181818;stroke-width:0.5;" width="97" x="305.5" y="23.6211"/><text fill="#000000" font-family="sans-serif" font-size="14" lengthAdjust="spacing" textLength="83" x="312.5" y="45.7285">:Repositories</text><rect fill="#E3E3E3" height="32.6211" rx="2.5" ry="2.5" style="stroke:#181818;stroke-width:0.5;" width="97" x="305.5" y="640.1895"/><text fill="#000000" font-family="sans-serif" font-size="14" lengthAdjust="spacing" textLength="83" x="312.5" y="662.2969">:Repositories</text><rect fill="#E3E3E3" height="51.2422" rx="2.5" ry="2.5" style="stroke:#181818;stroke-width:0.5;" width="97" x="412.5" y="5"/><text fill="#000000" font-family="sans-serif" font-size="14" lengthAdjust="spacing" textLength="74" x="424" y="27.1074">repositories</text><text fill="#000000" font-family="sans-serif" font-size="14" lengthAdjust="spacing" textLength="83" x="419.5" y="45.7285">:Repositories</text><rect fill="#E3E3E3" height="51.2422" rx="2.5" ry="2.5" style="stroke:#181818;stroke-width:0.5;" width="97" x="412.5" y="640.1895"/><text fill="#000000" font-family="sans-serif" font-size="14" lengthAdjust="spacing" textLength="74" x="424" y="662.2969">repositories</text><text fill="#000000" font-family="sans-serif" font-size="14" lengthAdjust="spacing" textLength="83" x="419.5" y="680.918">:Repositories</text><rect fill="#E3E3E3" height="51.2422" rx="2.5" ry="2.5" style="stroke:#181818;stroke-width:0.5;" width="67" x="519.5" y="5"/><text fill="#000000" font-family="sans-serif" font-size="14" lengthAdjust="spacing" textLength="48" x="529" y="27.1074">agenda</text><text fill="#000000" font-family="sans-serif" font-size="14" lengthAdjust="spacing" textLength="53" x="526.5" y="45.7285">:Agenda</text><rect fill="#E3E3E3" height="51.2422" rx="2.5" ry="2.5" style="stroke:#181818;stroke-width:0.5;" width="67" x="519.5" y="640.1895"/><text fill="#000000" font-family="sans-serif" font-size="14" lengthAdjust="spacing" textLength="48" x="529" y="662.2969">agenda</text><text fill="#000000" font-family="sans-serif" font-size="14" lengthAdjust="spacing" textLength="53" x="526.5" y="680.918">:Agenda</text><rect fill="#E3E3E3" height="51.2422" rx="2.5" ry="2.5" style="stroke:#181818;stroke-width:0.5;" width="49" x="777.5" y="5"/><text fill="#000000" font-family="sans-serif" font-size="14" lengthAdjust="spacing" textLength="26" x="789" y="27.1074">task</text><text fill="#000000" font-family="sans-serif" font-size="14" lengthAdjust="spacing" textLength="35" x="784.5" y="45.7285">:Task</text><rect fill="#E3E3E3" height="51.2422" rx="2.5" ry="2.5" style="stroke:#181818;stroke-width:0.5;" width="49" x="777.5" y="640.1895"/><text fill="#000000" font-family="sans-serif" font-size="14" lengthAdjust="spacing" textLength="26" x="789" y="662.2969">task</text><text fill="#000000" font-family="sans-serif" font-size="14" lengthAdjust="spacing" textLength="35" x="784.5" y="680.918">:Task</text><rect fill="#E3E3E3" height="51.2422" rx="2.5" ry="2.5" style="stroke:#181818;stroke-width:0.5;" width="98" x="991" y="5"/><text fill="#000000" font-family="sans-serif" font-size="14" lengthAdjust="spacing" textLength="77" x="1001.5" y="27.1074">greenSpace</text><text fill="#000000" font-family="sans-serif" font-size="14" lengthAdjust="spacing" textLength="84" x="998" y="45.7285">:GreenSpace</text><rect fill="#E3E3E3" height="51.2422" rx="2.5" ry="2.5" style="stroke:#181818;stroke-width:0.5;" width="98" x="991" y="640.1895"/><text fill="#000000" font-family="sans-serif" font-size="14" lengthAdjust="spacing" textLength="77" x="1001.5" y="662.2969">greenSpace</text><text fill="#000000" font-family="sans-serif" font-size="14" lengthAdjust="spacing" textLength="84" x="998" y="680.918">:GreenSpace</text><rect fill="#FFFFFF" height="532.6563" style="stroke:#181818;stroke-width:1.0;" width="10" x="187" y="90.5332"/><rect fill="#FFFFFF" height="31.291" style="stroke:#181818;stroke-width:1.0;" width="10" x="349" y="148.1152"/><rect fill="#FFFFFF" height="31.291" style="stroke:#181818;stroke-width:1.0;" width="10" x="456" y="210.6973"/><rect fill="#FFFFFF" height="311.6191" style="stroke:#181818;stroke-width:1.0;" width="10" x="548" y="273.2793"/><rect fill="#FFFFFF" height="42.291" style="stroke:#181818;stroke-width:1.0;" width="10" x="553" y="497.3164"/><rect fill="#FFFFFF" height="127.1641" style="stroke:#181818;stroke-width:1.0;" width="10" x="797" y="330.8613"/><rect fill="#FFFFFF" height="31.291" style="stroke:#181818;stroke-width:1.0;" width="10" x="1035" y="388.4434"/><polygon fill="#181818" points="175,86.5332,185,90.5332,175,94.5332,179,90.5332" style="stroke:#181818;stroke-width:1.0;"/><line style="stroke:#181818;stroke-width:1.0;stroke-dasharray:2.0,2.0;" x1="0" x2="181" y1="90.5332" y2="90.5332"/><text fill="#000000" font-family="sans-serif" font-size="13" font-weight="bold" lengthAdjust="spacing" textLength="7" x="7" y="85.2705">9</text><text fill="#000000" font-family="sans-serif" font-size="13" lengthAdjust="spacing" textLength="157" x="18" y="85.2705">getAllTaskByGreenSpace()</text><path d="M78.5,105.5332 L302.5,105.5332 L302.5,114.8242 L292.5,124.8242 L78.5,124.8242 L78.5,105.5332 " fill="#EEEEEE" style="stroke:#000000;stroke-width:1.5;"/><rect fill="none" height="487.3652" style="stroke:#000000;stroke-width:1.5;" width="1040.5" x="78.5" y="105.5332"/><text fill="#000000" font-family="sans-serif" font-size="13" font-weight="bold" lengthAdjust="spacing" textLength="179" x="93.5" y="120.5615">Get All Task By GreenSpace</text><polygon fill="#181818" points="337,144.1152,347,148.1152,337,152.1152,341,148.1152" style="stroke:#181818;stroke-width:1.0;"/><line style="stroke:#181818;stroke-width:1.0;" x1="197" x2="343" y1="148.1152" y2="148.1152"/><text fill="#000000" font-family="sans-serif" font-size="13" font-weight="bold" lengthAdjust="spacing" textLength="18" x="204" y="142.8525">9.1</text><text fill="#000000" font-family="sans-serif" font-size="13" lengthAdjust="spacing" textLength="75" x="226" y="142.8525">getInstance()</text><polygon fill="#181818" points="208,175.4063,198,179.4063,208,183.4063,204,179.4063" style="stroke:#181818;stroke-width:1.0;"/><line style="stroke:#181818;stroke-width:1.0;stroke-dasharray:2.0,2.0;" x1="202" x2="353" y1="179.4063" y2="179.4063"/><text fill="#000000" font-family="sans-serif" font-size="13" font-weight="bold" lengthAdjust="spacing" textLength="18" x="214" y="174.1436">9.2</text><text fill="#000000" font-family="sans-serif" font-size="13" lengthAdjust="spacing" textLength="67" x="236" y="174.1436">repositories</text><polygon fill="#181818" points="444,206.6973,454,210.6973,444,214.6973,448,210.6973" style="stroke:#181818;stroke-width:1.0;"/><line style="stroke:#181818;stroke-width:1.0;" x1="197" x2="450" y1="210.6973" y2="210.6973"/><text fill="#000000" font-family="sans-serif" font-size="13" font-weight="bold" lengthAdjust="spacing" textLength="18" x="204" y="205.4346">9.3</text><text fill="#000000" font-family="sans-serif" font-size="13" lengthAdjust="spacing" textLength="70" x="226" y="205.4346">getAgenda()</text><polygon fill="#181818" points="208,237.9883,198,241.9883,208,245.9883,204,241.9883" style="stroke:#181818;stroke-width:1.0;"/><line style="stroke:#181818;stroke-width:1.0;stroke-dasharray:2.0,2.0;" x1="202" x2="460" y1="241.9883" y2="241.9883"/><text fill="#000000" font-family="sans-serif" font-size="13" font-weight="bold" lengthAdjust="spacing" textLength="18" x="214" y="236.7256">9.4</text><text fill="#000000" font-family="sans-serif" font-size="13" lengthAdjust="spacing" textLength="42" x="236" y="236.7256">agenda</text><polygon fill="#181818" points="536,269.2793,546,273.2793,536,277.2793,540,273.2793" style="stroke:#181818;stroke-width:1.0;"/><line style="stroke:#181818;stroke-width:1.0;" x1="197" x2="542" y1="273.2793" y2="273.2793"/><text fill="#000000" font-family="sans-serif" font-size="13" font-weight="bold" lengthAdjust="spacing" textLength="18" x="204" y="268.0166">9.5</text><text fill="#000000" font-family="sans-serif" font-size="13" lengthAdjust="spacing" textLength="246" x="226" y="268.0166">getAllTaskByGreenSpace(listGreenSpace)</text><path d="M509.5,288.2793 L582.5,288.2793 L582.5,297.5703 L572.5,307.5703 L509.5,307.5703 L509.5,288.2793 " fill="#EEEEEE" style="stroke:#000000;stroke-width:1.5;"/><rect fill="none" height="266.3281" style="stroke:#000000;stroke-width:1.5;" width="599.5" x="509.5" y="288.2793"/><text fill="#000000" font-family="sans-serif" font-size="13" font-weight="bold" lengthAdjust="spacing" textLength="28" x="524.5" y="303.3076">loop</text><text fill="#000000" font-family="sans-serif" font-size="11" font-weight="bold" lengthAdjust="spacing" textLength="206" x="597.5" y="302.1494">[for each Task in listTask[in Agenda]]</text><polygon fill="#181818" points="785,326.8613,795,330.8613,785,334.8613,789,330.8613" style="stroke:#181818;stroke-width:1.0;"/><line style="stroke:#181818;stroke-width:1.0;" x1="558" x2="791" y1="330.8613" y2="330.8613"/><text fill="#000000" font-family="sans-serif" font-size="13" font-weight="bold" lengthAdjust="spacing" textLength="18" x="565" y="325.5986">9.6</text><text fill="#000000" font-family="sans-serif" font-size="13" lengthAdjust="spacing" textLength="198" x="587" y="325.5986">verifyGreenSpace(listGreenSpace)</text><path d="M767.5,345.8613 L840.5,345.8613 L840.5,355.1523 L830.5,365.1523 L767.5,365.1523 L767.5,345.8613 " fill="#EEEEEE" style="stroke:#000000;stroke-width:1.5;"/><rect fill="none" height="81.873" style="stroke:#000000;stroke-width:1.5;" width="331.5" x="767.5" y="345.8613"/><text fill="#000000" font-family="sans-serif" font-size="13" font-weight="bold" lengthAdjust="spacing" textLength="28" x="782.5" y="360.8896">loop</text><text fill="#000000" font-family="sans-serif" font-size="11" font-weight="bold" lengthAdjust="spacing" textLength="227" x="855.5" y="359.7314">[for each GreenSpace in ListGreenSpace]</text><polygon fill="#181818" points="1023,384.4434,1033,388.4434,1023,392.4434,1027,388.4434" style="stroke:#181818;stroke-width:1.0;"/><line style="stroke:#181818;stroke-width:1.0;" x1="807" x2="1029" y1="388.4434" y2="388.4434"/><text fill="#000000" font-family="sans-serif" font-size="13" font-weight="bold" lengthAdjust="spacing" textLength="18" x="814" y="383.1807">9.7</text><text fill="#000000" font-family="sans-serif" font-size="13" lengthAdjust="spacing" textLength="187" x="836" y="383.1807">equalsGreenSpace(greenSpace)</text><polygon fill="#181818" points="818,415.7344,808,419.7344,818,423.7344,814,419.7344" style="stroke:#181818;stroke-width:1.0;"/><line style="stroke:#181818;stroke-width:1.0;stroke-dasharray:2.0,2.0;" x1="812" x2="1039" y1="419.7344" y2="419.7344"/><text fill="#000000" font-family="sans-serif" font-size="13" font-weight="bold" lengthAdjust="spacing" textLength="18" x="824" y="414.4717">9.8</text><text fill="#000000" font-family="sans-serif" font-size="13" lengthAdjust="spacing" textLength="53" x="846" y="414.4717">true/false</text><polygon fill="#181818" points="569,454.0254,559,458.0254,569,462.0254,565,458.0254" style="stroke:#181818;stroke-width:1.0;"/><line style="stroke:#181818;stroke-width:1.0;" x1="563" x2="801" y1="458.0254" y2="458.0254"/><text fill="#000000" font-family="sans-serif" font-size="13" font-weight="bold" lengthAdjust="spacing" textLength="18" x="575" y="452.7627">9.9</text><text fill="#000000" font-family="sans-serif" font-size="13" lengthAdjust="spacing" textLength="53" x="597" y="452.7627">true/false</text><line style="stroke:#181818;stroke-width:1.0;" x1="558" x2="605" y1="484.3164" y2="484.3164"/><line style="stroke:#181818;stroke-width:1.0;" x1="605" x2="605" y1="484.3164" y2="497.3164"/><line style="stroke:#181818;stroke-width:1.0;" x1="564" x2="605" y1="497.3164" y2="497.3164"/><polygon fill="#181818" points="574,493.3164,564,497.3164,574,501.3164,570,497.3164" style="stroke:#181818;stroke-width:1.0;"/><text fill="#000000" font-family="sans-serif" font-size="13" font-weight="bold" lengthAdjust="spacing" textLength="25" x="570" y="479.0537">9.10</text><text fill="#000000" font-family="sans-serif" font-size="13" lengthAdjust="spacing" textLength="191" x="599" y="479.0537">addListTaskByGreenSpace(task)</text><line style="stroke:#181818;stroke-width:1.0;stroke-dasharray:2.0,2.0;" x1="563" x2="605" y1="538.6074" y2="538.6074"/><line style="stroke:#181818;stroke-width:1.0;stroke-dasharray:2.0,2.0;" x1="605" x2="605" y1="538.6074" y2="551.6074"/><line style="stroke:#181818;stroke-width:1.0;stroke-dasharray:2.0,2.0;" x1="558" x2="605" y1="551.6074" y2="551.6074"/><polygon fill="#181818" points="568,547.6074,558,551.6074,568,555.6074,564,551.6074" style="stroke:#181818;stroke-width:1.0;"/><text fill="#000000" font-family="sans-serif" font-size="13" font-weight="bold" lengthAdjust="spacing" textLength="25" x="570" y="533.3447">9.11</text><text fill="#000000" font-family="sans-serif" font-size="13" lengthAdjust="spacing" textLength="4" x="599" y="533.3447">&#160;</text><polygon fill="#181818" points="208,580.8984,198,584.8984,208,588.8984,204,584.8984" style="stroke:#181818;stroke-width:1.0;"/><line style="stroke:#181818;stroke-width:1.0;stroke-dasharray:2.0,2.0;" x1="202" x2="552" y1="584.8984" y2="584.8984"/><text fill="#000000" font-family="sans-serif" font-size="13" font-weight="bold" lengthAdjust="spacing" textLength="25" x="214" y="579.6357">9.12</text><text fill="#000000" font-family="sans-serif" font-size="13" lengthAdjust="spacing" textLength="45" x="243" y="579.6357">listTask</text><polygon fill="#181818" points="11,619.1895,1,623.1895,11,627.1895,7,623.1895" style="stroke:#181818;stroke-width:1.0;"/><line style="stroke:#181818;stroke-width:1.0;stroke-dasharray:2.0,2.0;" x1="5" x2="191" y1="623.1895" y2="623.1895"/><text fill="#000000" font-family="sans-serif" font-size="13" font-weight="bold" lengthAdjust="spacing" textLength="14" x="17" y="617.9268">10</text><text fill="#000000" font-family="sans-serif" font-size="13" lengthAdjust="spacing" textLength="45" x="35" y="617.9268">listTask</text><!--SRC=[ZPDDRzim38Rl_1L2BziERjRZWc60cmR1iA0eOj-s7ZIRSOJ8aYV97VBlHybVSkSKFLcItvSFHOeVJiurThrQDP8hrzRojj3rokAV5bM1IIbuPNWDzYnKmsd5QgrqSJAwHkPCYz6VXXTdNc7cBXAPmS9nLSbOO4-yr7-5gjYHIui0TEn48HeYivjrQgseL8wyJYjK9TzevOoM4iqDuvPjyiF-bUE0ZRR2QIFG1iruSCc4XpkjvXOJENwf_mCyxTDyxk0X5z9sIGLLkji-FgHpdUFsJAgSFa6JfzcFkQ8oY2gZAY7fTkCcg7U7xVOnUqetMm3UKjfj_HiD-mAG9D_2rTcQLUXIAJtX_ZBvFtwQMsxlQ5yuyS8TTaM3okYsOJjqZFpC1s3t5pQ500W48YqKi0D_LvRwsTE6w4lbXgKGqINY3W2K-7Qm8I_Vbxu2eGspD4BJ84W6q9frVPiHEjqGiclYzR9AOTsqZNbz-q5gtR2ZDemGfwwiGZ7ly-kVjEwIVGReOOJrxuAWBsZ4yNsuy99UmIQbH-vdNe308DRqgeX88qrJ5n6hHLhy4YD_CgNkntxLJt1KtTX8jvwo60jznTZTRwhGgETbkU-BEUkC7xMbVWmXnXWpp70KSeka_RiSsdRT4mtPtMU0hqdobjN_-mS0]--></g></svg>