<?xml version="1.0" encoding="us-ascii" standalone="no"?><svg xmlns="http://www.w3.org/2000/svg" xmlns:xlink="http://www.w3.org/1999/xlink" contentStyleType="text/css" height="450px" preserveAspectRatio="none" style="width:955px;height:450px;background:#FFFFFF;" version="1.1" viewBox="0 0 955 450" width="955px" zoomAndPan="magnify"><defs/><g><rect fill="#FFFFFF" height="285.6191" style="stroke:#181818;stroke-width:1.0;" width="10" x="389" y="90.5332"/><rect fill="#FFFFFF" height="31.291" style="stroke:#181818;stroke-width:1.0;" width="10" x="668" y="174.4063"/><rect fill="#FFFFFF" height="93.873" style="stroke:#181818;stroke-width:1.0;" width="10" x="668" y="236.9883"/><rect fill="#FFFFFF" height="31.291" style="stroke:#181818;stroke-width:1.0;" width="10" x="875" y="268.2793"/><rect fill="none" height="240.3281" style="stroke:#000000;stroke-width:1.5;" width="608.5" x="340.5" y="105.5332"/><rect fill="none" height="207.0371" style="stroke:#000000;stroke-width:1.5;" width="588.5" x="350.5" y="131.8242"/><line style="stroke:#181818;stroke-width:0.5;stroke-dasharray:5.0,5.0;" x1="393.5" x2="393.5" y1="57.2422" y2="394.1523"/><line style="stroke:#181818;stroke-width:0.5;stroke-dasharray:5.0,5.0;" x1="673" x2="673" y1="57.2422" y2="394.1523"/><line style="stroke:#181818;stroke-width:0.5;stroke-dasharray:5.0,5.0;" x1="880" x2="880" y1="57.2422" y2="394.1523"/><rect fill="#E3E3E3" height="51.2422" rx="2.5" ry="2.5" style="stroke:#181818;stroke-width:0.5;" width="67" x="360.5" y="5"/><text fill="#000000" font-family="sans-serif" font-size="14" lengthAdjust="spacing" textLength="48" x="370" y="27.1074">agenda</text><text fill="#000000" font-family="sans-serif" font-size="14" lengthAdjust="spacing" textLength="53" x="367.5" y="45.7285">:Agenda</text><rect fill="#E3E3E3" height="51.2422" rx="2.5" ry="2.5" style="stroke:#181818;stroke-width:0.5;" width="67" x="360.5" y="393.1523"/><text fill="#000000" font-family="sans-serif" font-size="14" lengthAdjust="spacing" textLength="48" x="370" y="415.2598">agenda</text><text fill="#000000" font-family="sans-serif" font-size="14" lengthAdjust="spacing" textLength="53" x="367.5" y="433.8809">:Agenda</text><rect fill="#E3E3E3" height="51.2422" rx="2.5" ry="2.5" style="stroke:#181818;stroke-width:0.5;" width="98" x="624" y="5"/><text fill="#000000" font-family="sans-serif" font-size="14" lengthAdjust="spacing" textLength="79" x="633.5" y="27.1074">agendaTask</text><text fill="#000000" font-family="sans-serif" font-size="14" lengthAdjust="spacing" textLength="84" x="631" y="45.7285">:AgendaTask</text><rect fill="#E3E3E3" height="51.2422" rx="2.5" ry="2.5" style="stroke:#181818;stroke-width:0.5;" width="98" x="624" y="393.1523"/><text fill="#000000" font-family="sans-serif" font-size="14" lengthAdjust="spacing" textLength="79" x="633.5" y="415.2598">agendaTask</text><text fill="#000000" font-family="sans-serif" font-size="14" lengthAdjust="spacing" textLength="84" x="631" y="433.8809">:AgendaTask</text><rect fill="#E3E3E3" height="51.2422" rx="2.5" ry="2.5" style="stroke:#181818;stroke-width:0.5;" width="98" x="831" y="5"/><text fill="#000000" font-family="sans-serif" font-size="14" lengthAdjust="spacing" textLength="77" x="841.5" y="27.1074">greenSpace</text><text fill="#000000" font-family="sans-serif" font-size="14" lengthAdjust="spacing" textLength="84" x="838" y="45.7285">:GreenSpace</text><rect fill="#E3E3E3" height="51.2422" rx="2.5" ry="2.5" style="stroke:#181818;stroke-width:0.5;" width="98" x="831" y="393.1523"/><text fill="#000000" font-family="sans-serif" font-size="14" lengthAdjust="spacing" textLength="77" x="841.5" y="415.2598">greenSpace</text><text fill="#000000" font-family="sans-serif" font-size="14" lengthAdjust="spacing" textLength="84" x="838" y="433.8809">:GreenSpace</text><rect fill="#FFFFFF" height="285.6191" style="stroke:#181818;stroke-width:1.0;" width="10" x="389" y="90.5332"/><rect fill="#FFFFFF" height="31.291" style="stroke:#181818;stroke-width:1.0;" width="10" x="668" y="174.4063"/><rect fill="#FFFFFF" height="93.873" style="stroke:#181818;stroke-width:1.0;" width="10" x="668" y="236.9883"/><rect fill="#FFFFFF" height="31.291" style="stroke:#181818;stroke-width:1.0;" width="10" x="875" y="268.2793"/><polygon fill="#181818" points="377,86.5332,387,90.5332,377,94.5332,381,90.5332" style="stroke:#181818;stroke-width:1.0;"/><line style="stroke:#181818;stroke-width:1.0;stroke-dasharray:2.0,2.0;" x1="0" x2="383" y1="90.5332" y2="90.5332"/><text fill="#000000" font-family="sans-serif" font-size="13" font-weight="bold" lengthAdjust="spacing" textLength="14" x="7" y="85.2705">37</text><text fill="#000000" font-family="sans-serif" font-size="13" lengthAdjust="spacing" textLength="352" x="25" y="85.2705">getTaskByNameAndGreenSpace(taskParkName, taskName)</text><path d="M340.5,105.5332 L612.5,105.5332 L612.5,114.8242 L602.5,124.8242 L340.5,124.8242 L340.5,105.5332 " fill="#EEEEEE" style="stroke:#000000;stroke-width:1.5;"/><rect fill="none" height="240.3281" style="stroke:#000000;stroke-width:1.5;" width="608.5" x="340.5" y="105.5332"/><text fill="#000000" font-family="sans-serif" font-size="13" font-weight="bold" lengthAdjust="spacing" textLength="227" x="355.5" y="120.5615">Get Task By Name and GreenSpace</text><path d="M350.5,131.8242 L423.5,131.8242 L423.5,141.1152 L413.5,151.1152 L350.5,151.1152 L350.5,131.8242 " fill="#EEEEEE" style="stroke:#000000;stroke-width:1.5;"/><rect fill="none" height="207.0371" style="stroke:#000000;stroke-width:1.5;" width="588.5" x="350.5" y="131.8242"/><text fill="#000000" font-family="sans-serif" font-size="13" font-weight="bold" lengthAdjust="spacing" textLength="28" x="365.5" y="146.8525">loop</text><text fill="#000000" font-family="sans-serif" font-size="11" font-weight="bold" lengthAdjust="spacing" textLength="183" x="438.5" y="145.6943">[for each TaskAgenda in Agenda]</text><polygon fill="#181818" points="656,170.4063,666,174.4063,656,178.4063,660,174.4063" style="stroke:#181818;stroke-width:1.0;"/><line style="stroke:#181818;stroke-width:1.0;" x1="399" x2="662" y1="174.4063" y2="174.4063"/><text fill="#000000" font-family="sans-serif" font-size="13" font-weight="bold" lengthAdjust="spacing" textLength="25" x="406" y="169.1436">37.1</text><text fill="#000000" font-family="sans-serif" font-size="13" lengthAdjust="spacing" textLength="150" x="435" y="169.1436">hasTaskName(taskName)</text><polygon fill="#181818" points="410,201.6973,400,205.6973,410,209.6973,406,205.6973" style="stroke:#181818;stroke-width:1.0;"/><line style="stroke:#181818;stroke-width:1.0;stroke-dasharray:2.0,2.0;" x1="404" x2="672" y1="205.6973" y2="205.6973"/><text fill="#000000" font-family="sans-serif" font-size="13" font-weight="bold" lengthAdjust="spacing" textLength="25" x="416" y="200.4346">37.2</text><text fill="#000000" font-family="sans-serif" font-size="13" lengthAdjust="spacing" textLength="53" x="445" y="200.4346">true/false</text><polygon fill="#181818" points="656,232.9883,666,236.9883,656,240.9883,660,236.9883" style="stroke:#181818;stroke-width:1.0;"/><line style="stroke:#181818;stroke-width:1.0;" x1="399" x2="662" y1="236.9883" y2="236.9883"/><text fill="#000000" font-family="sans-serif" font-size="13" font-weight="bold" lengthAdjust="spacing" textLength="25" x="406" y="231.7256">37.3</text><text fill="#000000" font-family="sans-serif" font-size="13" lengthAdjust="spacing" textLength="221" x="435" y="231.7256">hasGreenSpaceName(taskParkName)</text><polygon fill="#181818" points="863,264.2793,873,268.2793,863,272.2793,867,268.2793" style="stroke:#181818;stroke-width:1.0;"/><line style="stroke:#181818;stroke-width:1.0;" x1="678" x2="869" y1="268.2793" y2="268.2793"/><text fill="#000000" font-family="sans-serif" font-size="13" font-weight="bold" lengthAdjust="spacing" textLength="25" x="685" y="263.0166">37.4</text><text fill="#000000" font-family="sans-serif" font-size="13" lengthAdjust="spacing" textLength="149" x="714" y="263.0166">hasName(taskParkName)</text><polygon fill="#181818" points="689,295.5703,679,299.5703,689,303.5703,685,299.5703" style="stroke:#181818;stroke-width:1.0;"/><line style="stroke:#181818;stroke-width:1.0;stroke-dasharray:2.0,2.0;" x1="683" x2="879" y1="299.5703" y2="299.5703"/><text fill="#000000" font-family="sans-serif" font-size="13" font-weight="bold" lengthAdjust="spacing" textLength="25" x="695" y="294.3076">37.5</text><text fill="#000000" font-family="sans-serif" font-size="13" lengthAdjust="spacing" textLength="53" x="724" y="294.3076">true/false</text><polygon fill="#181818" points="410,326.8613,400,330.8613,410,334.8613,406,330.8613" style="stroke:#181818;stroke-width:1.0;"/><line style="stroke:#181818;stroke-width:1.0;stroke-dasharray:2.0,2.0;" x1="404" x2="672" y1="330.8613" y2="330.8613"/><text fill="#000000" font-family="sans-serif" font-size="13" font-weight="bold" lengthAdjust="spacing" textLength="25" x="416" y="325.5986">37.6</text><text fill="#000000" font-family="sans-serif" font-size="13" lengthAdjust="spacing" textLength="53" x="445" y="325.5986">true/false</text><polygon fill="#181818" points="11,372.1523,1,376.1523,11,380.1523,7,376.1523" style="stroke:#181818;stroke-width:1.0;"/><line style="stroke:#181818;stroke-width:1.0;stroke-dasharray:2.0,2.0;" x1="5" x2="393" y1="376.1523" y2="376.1523"/><text fill="#000000" font-family="sans-serif" font-size="13" font-weight="bold" lengthAdjust="spacing" textLength="14" x="17" y="370.8896">38</text><text fill="#000000" font-family="sans-serif" font-size="13" lengthAdjust="spacing" textLength="25" x="35" y="370.8896">task</text><!--SRC=[bPB1QiCm38RlUWhHopfO6iOE6sKKKbPo69InzhYBvgX9I69djhFHjv-Tf6bQsi4kGRO_wVybvIQpjZRpCAnBahQfofbGLMZugs4fE4XoIZLLO8fSrkGYh9HK8jEgOhIwuT5BJQAWb3TsNp9g5fPaMeu1ar6YVdAPuevAmm3kskOYhvqoJbogJEX3pgCsc20PZEBL-YMwn6t950Fh3os_ZJQlftIgcUN6MMD7nyEXfUFtrMeDG8rLiga-MUF38q0GB7fTd6FArXTVxjTKSIIJOuMfTVTlf0l_SeV-vAFRitgpUtSXRFvDbW_jGAfLKsFC5drnNExHfoB918y20ALIDUwKHYQHjMZNBkOIkmYWT-ey-zwTuupCjlSo7PiwU6X712qyxjJlCkpNal0PVKdaQ7IGEapZcjoYcxZBzmN-JEjNq_71KVYApHx_NrTkWFrdlB4dWESW67u0R_0ajtlv1G00]--></g></svg>