<?xml version="1.0" encoding="us-ascii" standalone="no"?><svg xmlns="http://www.w3.org/2000/svg" xmlns:xlink="http://www.w3.org/1999/xlink" contentStyleType="text/css" height="2108px" preserveAspectRatio="none" style="width:2039px;height:2108px;background:#FFFFFF;" version="1.1" viewBox="0 0 2039 2108" width="2039px" zoomAndPan="magnify"><defs/><g><text fill="#000000" font-family="sans-serif" font-size="14" font-weight="bold" lengthAdjust="spacing" textLength="362" x="837.75" y="30.1074">UI Sequence Diagram (SSD) - US01 - Register Teams</text><rect fill="#FFFFFF" height="1873.8887" style="stroke:#181818;stroke-width:1.0;" width="10" x="97.5" y="133.2422"/><rect fill="#FFFFFF" height="970.4492" style="stroke:#181818;stroke-width:1.0;" width="10" x="481.5" y="156.5332"/><rect fill="#FFFFFF" height="281.6191" style="stroke:#181818;stroke-width:1.0;" width="10" x="481.5" y="1158.2734"/><rect fill="#FFFFFF" height="31.291" style="stroke:#181818;stroke-width:1.0;" width="10" x="481.5" y="1471.1836"/><rect fill="#FFFFFF" height="473.3652" style="stroke:#181818;stroke-width:1.0;" width="10" x="481.5" y="1533.7656"/><rect fill="#FFFFFF" height="907.8672" style="stroke:#181818;stroke-width:1.0;" width="10" x="692.5" y="187.8242"/><rect fill="#FFFFFF" height="122.4648" style="stroke:#181818;stroke-width:1.0;" width="10" x="697.5" y="227.1152"/><rect fill="#FFFFFF" height="104.873" style="stroke:#181818;stroke-width:1.0;" width="10" x="697.5" y="395.8711"/><rect fill="#FFFFFF" height="510.3652" style="stroke:#181818;stroke-width:1.0;" width="10" x="697.5" y="547.0352"/><rect fill="#FFFFFF" height="219.0371" style="stroke:#181818;stroke-width:1.0;" width="10" x="692.5" y="1189.5645"/><rect fill="#FFFFFF" height="410.7832" style="stroke:#181818;stroke-width:1.0;" width="10" x="692.5" y="1565.0566"/><rect fill="#FFFFFF" height="31.291" style="stroke:#181818;stroke-width:1.0;" width="10" x="1005.5" y="583.3262"/><rect fill="#FFFFFF" height="31.291" style="stroke:#181818;stroke-width:1.0;" width="10" x="1005.5" y="1220.8555"/><rect fill="#FFFFFF" height="31.291" style="stroke:#181818;stroke-width:1.0;" width="10" x="1005.5" y="1596.3477"/><rect fill="#FFFFFF" height="31.291" style="stroke:#181818;stroke-width:1.0;" width="10" x="1112.5" y="645.9082"/><rect fill="#FFFFFF" height="31.291" style="stroke:#181818;stroke-width:1.0;" width="10" x="1112.5" y="1283.4375"/><rect fill="#FFFFFF" height="31.291" style="stroke:#181818;stroke-width:1.0;" width="10" x="1112.5" y="1658.9297"/><rect fill="#FFFFFF" height="31.291" style="stroke:#181818;stroke-width:1.0;" width="10" x="1232" y="1346.0195"/><rect fill="#FFFFFF" height="311.6191" style="stroke:#181818;stroke-width:1.0;" width="10" x="1336.5" y="708.4902"/><rect fill="#FFFFFF" height="42.291" style="stroke:#181818;stroke-width:1.0;" width="10" x="1341.5" y="932.5273"/><rect fill="#FFFFFF" height="223.0371" style="stroke:#181818;stroke-width:1.0;" width="10" x="1336.5" y="1721.5117"/><rect fill="#FFFFFF" height="127.1641" style="stroke:#181818;stroke-width:1.0;" width="10" x="1581.5" y="766.0723"/><rect fill="#FFFFFF" height="31.291" style="stroke:#181818;stroke-width:1.0;" width="10" x="1581.5" y="1779.0938"/><rect fill="#FFFFFF" height="31.291" style="stroke:#181818;stroke-width:1.0;" width="10" x="1581.5" y="1867.9668"/><rect fill="#FFFFFF" height="31.291" style="stroke:#181818;stroke-width:1.0;" width="10" x="1815.5" y="823.6543"/><rect fill="#FFFFFF" height="31.291" style="stroke:#181818;stroke-width:1.0;" width="10" x="1951.5" y="432.1621"/><rect fill="none" height="266.3281" style="stroke:#000000;stroke-width:1.5;" width="591.5" x="1298" y="723.4902"/><rect fill="none" height="81.873" style="stroke:#000000;stroke-width:1.5;" width="327.5" x="1552" y="781.0723"/><rect fill="none" height="177.7461" style="stroke:#000000;stroke-width:1.5;" width="343" x="1288" y="1736.5117"/><rect fill="none" height="81.873" style="stroke:#000000;stroke-width:1.5;" width="323" x="1298" y="1825.3848"/><line style="stroke:#181818;stroke-width:0.5;stroke-dasharray:5.0,5.0;" x1="102" x2="102" y1="123.2422" y2="2025.1309"/><line style="stroke:#181818;stroke-width:0.5;stroke-dasharray:5.0,5.0;" x1="486" x2="486" y1="123.2422" y2="2025.1309"/><line style="stroke:#181818;stroke-width:0.5;stroke-dasharray:5.0,5.0;" x1="697" x2="697" y1="123.2422" y2="2025.1309"/><line style="stroke:#181818;stroke-width:0.5;stroke-dasharray:5.0,5.0;" x1="1010" x2="1010" y1="123.2422" y2="2025.1309"/><line style="stroke:#181818;stroke-width:0.5;stroke-dasharray:5.0,5.0;" x1="1117" x2="1117" y1="123.2422" y2="2025.1309"/><line style="stroke:#181818;stroke-width:0.5;stroke-dasharray:5.0,5.0;" x1="1237" x2="1237" y1="123.2422" y2="2025.1309"/><line style="stroke:#181818;stroke-width:0.5;stroke-dasharray:5.0,5.0;" x1="1341" x2="1341" y1="123.2422" y2="2025.1309"/><line style="stroke:#181818;stroke-width:0.5;stroke-dasharray:5.0,5.0;" x1="1586" x2="1586" y1="123.2422" y2="2025.1309"/><line style="stroke:#181818;stroke-width:0.5;stroke-dasharray:5.0,5.0;" x1="1820.5" x2="1820.5" y1="123.2422" y2="2025.1309"/><line style="stroke:#181818;stroke-width:0.5;stroke-dasharray:5.0,5.0;" x1="1956.5" x2="1956.5" y1="123.2422" y2="2025.1309"/><text fill="#000000" font-family="sans-serif" font-size="14" lengthAdjust="spacing" textLength="189" x="5" y="119.7285">Green Space Manager (GSM)</text><ellipse cx="102.5" cy="53.1211" fill="#E3E3E3" rx="8" ry="8" style="stroke:#181818;stroke-width:0.5;"/><path d="M102.5,61.1211 L102.5,88.1211 M89.5,69.1211 L115.5,69.1211 M102.5,88.1211 L89.5,103.1211 M102.5,88.1211 L115.5,103.1211 " fill="none" style="stroke:#181818;stroke-width:0.5;"/><text fill="#000000" font-family="sans-serif" font-size="14" lengthAdjust="spacing" textLength="189" x="5" y="2039.2383">Green Space Manager (GSM)</text><ellipse cx="102.5" cy="2051.252" fill="#E3E3E3" rx="8" ry="8" style="stroke:#181818;stroke-width:0.5;"/><path d="M102.5,2059.252 L102.5,2086.252 M89.5,2067.252 L115.5,2067.252 M102.5,2086.252 L89.5,2101.252 M102.5,2086.252 L115.5,2101.252 " fill="none" style="stroke:#181818;stroke-width:0.5;"/><rect fill="#E3E3E3" height="32.6211" rx="2.5" ry="2.5" style="stroke:#181818;stroke-width:0.5;" width="157" x="408" y="89.6211"/><text fill="#000000" font-family="sans-serif" font-size="14" lengthAdjust="spacing" textLength="143" x="415" y="111.7285">:AssignTeamAgendaUI</text><rect fill="#E3E3E3" height="32.6211" rx="2.5" ry="2.5" style="stroke:#181818;stroke-width:0.5;" width="157" x="408" y="2024.1309"/><text fill="#000000" font-family="sans-serif" font-size="14" lengthAdjust="spacing" textLength="143" x="415" y="2046.2383">:AssignTeamAgendaUI</text><rect fill="#E3E3E3" height="32.6211" rx="2.5" ry="2.5" style="stroke:#181818;stroke-width:0.5;" width="207" x="594" y="89.6211"/><text fill="#000000" font-family="sans-serif" font-size="14" lengthAdjust="spacing" textLength="193" x="601" y="111.7285">:AssignTeamAgendaController</text><rect fill="#E3E3E3" height="32.6211" rx="2.5" ry="2.5" style="stroke:#181818;stroke-width:0.5;" width="207" x="594" y="2024.1309"/><text fill="#000000" font-family="sans-serif" font-size="14" lengthAdjust="spacing" textLength="193" x="601" y="2046.2383">:AssignTeamAgendaController</text><rect fill="#E3E3E3" height="32.6211" rx="2.5" ry="2.5" style="stroke:#181818;stroke-width:0.5;" width="97" x="962" y="89.6211"/><text fill="#000000" font-family="sans-serif" font-size="14" lengthAdjust="spacing" textLength="83" x="969" y="111.7285">:Repositories</text><rect fill="#E3E3E3" height="32.6211" rx="2.5" ry="2.5" style="stroke:#181818;stroke-width:0.5;" width="97" x="962" y="2024.1309"/><text fill="#000000" font-family="sans-serif" font-size="14" lengthAdjust="spacing" textLength="83" x="969" y="2046.2383">:Repositories</text><rect fill="#E3E3E3" height="51.2422" rx="2.5" ry="2.5" style="stroke:#181818;stroke-width:0.5;" width="97" x="1069" y="71"/><text fill="#000000" font-family="sans-serif" font-size="14" lengthAdjust="spacing" textLength="74" x="1080.5" y="93.1074">repositories</text><text fill="#000000" font-family="sans-serif" font-size="14" lengthAdjust="spacing" textLength="83" x="1076" y="111.7285">:Repositories</text><rect fill="#E3E3E3" height="51.2422" rx="2.5" ry="2.5" style="stroke:#181818;stroke-width:0.5;" width="97" x="1069" y="2024.1309"/><text fill="#000000" font-family="sans-serif" font-size="14" lengthAdjust="spacing" textLength="74" x="1080.5" y="2046.2383">repositories</text><text fill="#000000" font-family="sans-serif" font-size="14" lengthAdjust="spacing" textLength="83" x="1076" y="2064.8594">:Repositories</text><rect fill="#E3E3E3" height="51.2422" rx="2.5" ry="2.5" style="stroke:#181818;stroke-width:0.5;" width="122" x="1176" y="71"/><text fill="#000000" font-family="sans-serif" font-size="14" lengthAdjust="spacing" textLength="99" x="1187.5" y="93.1074">teamRepository</text><text fill="#000000" font-family="sans-serif" font-size="14" lengthAdjust="spacing" textLength="108" x="1183" y="111.7285">:TeamRepository</text><rect fill="#E3E3E3" height="51.2422" rx="2.5" ry="2.5" style="stroke:#181818;stroke-width:0.5;" width="122" x="1176" y="2024.1309"/><text fill="#000000" font-family="sans-serif" font-size="14" lengthAdjust="spacing" textLength="99" x="1187.5" y="2046.2383">teamRepository</text><text fill="#000000" font-family="sans-serif" font-size="14" lengthAdjust="spacing" textLength="108" x="1183" y="2064.8594">:TeamRepository</text><rect fill="#E3E3E3" height="51.2422" rx="2.5" ry="2.5" style="stroke:#181818;stroke-width:0.5;" width="67" x="1308" y="71"/><text fill="#000000" font-family="sans-serif" font-size="14" lengthAdjust="spacing" textLength="48" x="1317.5" y="93.1074">agenda</text><text fill="#000000" font-family="sans-serif" font-size="14" lengthAdjust="spacing" textLength="53" x="1315" y="111.7285">:Agenda</text><rect fill="#E3E3E3" height="51.2422" rx="2.5" ry="2.5" style="stroke:#181818;stroke-width:0.5;" width="67" x="1308" y="2024.1309"/><text fill="#000000" font-family="sans-serif" font-size="14" lengthAdjust="spacing" textLength="48" x="1317.5" y="2046.2383">agenda</text><text fill="#000000" font-family="sans-serif" font-size="14" lengthAdjust="spacing" textLength="53" x="1315" y="2064.8594">:Agenda</text><rect fill="#E3E3E3" height="51.2422" rx="2.5" ry="2.5" style="stroke:#181818;stroke-width:0.5;" width="49" x="1562" y="71"/><text fill="#000000" font-family="sans-serif" font-size="14" lengthAdjust="spacing" textLength="26" x="1573.5" y="93.1074">task</text><text fill="#000000" font-family="sans-serif" font-size="14" lengthAdjust="spacing" textLength="35" x="1569" y="111.7285">:Task</text><rect fill="#E3E3E3" height="51.2422" rx="2.5" ry="2.5" style="stroke:#181818;stroke-width:0.5;" width="49" x="1562" y="2024.1309"/><text fill="#000000" font-family="sans-serif" font-size="14" lengthAdjust="spacing" textLength="26" x="1573.5" y="2046.2383">task</text><text fill="#000000" font-family="sans-serif" font-size="14" lengthAdjust="spacing" textLength="35" x="1569" y="2064.8594">:Task</text><rect fill="#E3E3E3" height="51.2422" rx="2.5" ry="2.5" style="stroke:#181818;stroke-width:0.5;" width="98" x="1771.5" y="71"/><text fill="#000000" font-family="sans-serif" font-size="14" lengthAdjust="spacing" textLength="77" x="1782" y="93.1074">greenSpace</text><text fill="#000000" font-family="sans-serif" font-size="14" lengthAdjust="spacing" textLength="84" x="1778.5" y="111.7285">:GreenSpace</text><rect fill="#E3E3E3" height="51.2422" rx="2.5" ry="2.5" style="stroke:#181818;stroke-width:0.5;" width="98" x="1771.5" y="2024.1309"/><text fill="#000000" font-family="sans-serif" font-size="14" lengthAdjust="spacing" textLength="77" x="1782" y="2046.2383">greenSpace</text><text fill="#000000" font-family="sans-serif" font-size="14" lengthAdjust="spacing" textLength="84" x="1778.5" y="2064.8594">:GreenSpace</text><rect fill="#E3E3E3" height="51.2422" rx="2.5" ry="2.5" style="stroke:#181818;stroke-width:0.5;" width="154" x="1879.5" y="71"/><text fill="#000000" font-family="sans-serif" font-size="14" lengthAdjust="spacing" textLength="133" x="1890" y="93.1074">greenSpaceManager</text><text fill="#000000" font-family="sans-serif" font-size="14" lengthAdjust="spacing" textLength="140" x="1886.5" y="111.7285">:GreenSpaceManager</text><rect fill="#E3E3E3" height="51.2422" rx="2.5" ry="2.5" style="stroke:#181818;stroke-width:0.5;" width="154" x="1879.5" y="2024.1309"/><text fill="#000000" font-family="sans-serif" font-size="14" lengthAdjust="spacing" textLength="133" x="1890" y="2046.2383">greenSpaceManager</text><text fill="#000000" font-family="sans-serif" font-size="14" lengthAdjust="spacing" textLength="140" x="1886.5" y="2064.8594">:GreenSpaceManager</text><rect fill="#FFFFFF" height="1873.8887" style="stroke:#181818;stroke-width:1.0;" width="10" x="97.5" y="133.2422"/><rect fill="#FFFFFF" height="970.4492" style="stroke:#181818;stroke-width:1.0;" width="10" x="481.5" y="156.5332"/><rect fill="#FFFFFF" height="281.6191" style="stroke:#181818;stroke-width:1.0;" width="10" x="481.5" y="1158.2734"/><rect fill="#FFFFFF" height="31.291" style="stroke:#181818;stroke-width:1.0;" width="10" x="481.5" y="1471.1836"/><rect fill="#FFFFFF" height="473.3652" style="stroke:#181818;stroke-width:1.0;" width="10" x="481.5" y="1533.7656"/><rect fill="#FFFFFF" height="907.8672" style="stroke:#181818;stroke-width:1.0;" width="10" x="692.5" y="187.8242"/><rect fill="#FFFFFF" height="122.4648" style="stroke:#181818;stroke-width:1.0;" width="10" x="697.5" y="227.1152"/><rect fill="#FFFFFF" height="104.873" style="stroke:#181818;stroke-width:1.0;" width="10" x="697.5" y="395.8711"/><rect fill="#FFFFFF" height="510.3652" style="stroke:#181818;stroke-width:1.0;" width="10" x="697.5" y="547.0352"/><rect fill="#FFFFFF" height="219.0371" style="stroke:#181818;stroke-width:1.0;" width="10" x="692.5" y="1189.5645"/><rect fill="#FFFFFF" height="410.7832" style="stroke:#181818;stroke-width:1.0;" width="10" x="692.5" y="1565.0566"/><rect fill="#FFFFFF" height="31.291" style="stroke:#181818;stroke-width:1.0;" width="10" x="1005.5" y="583.3262"/><rect fill="#FFFFFF" height="31.291" style="stroke:#181818;stroke-width:1.0;" width="10" x="1005.5" y="1220.8555"/><rect fill="#FFFFFF" height="31.291" style="stroke:#181818;stroke-width:1.0;" width="10" x="1005.5" y="1596.3477"/><rect fill="#FFFFFF" height="31.291" style="stroke:#181818;stroke-width:1.0;" width="10" x="1112.5" y="645.9082"/><rect fill="#FFFFFF" height="31.291" style="stroke:#181818;stroke-width:1.0;" width="10" x="1112.5" y="1283.4375"/><rect fill="#FFFFFF" height="31.291" style="stroke:#181818;stroke-width:1.0;" width="10" x="1112.5" y="1658.9297"/><rect fill="#FFFFFF" height="31.291" style="stroke:#181818;stroke-width:1.0;" width="10" x="1232" y="1346.0195"/><rect fill="#FFFFFF" height="311.6191" style="stroke:#181818;stroke-width:1.0;" width="10" x="1336.5" y="708.4902"/><rect fill="#FFFFFF" height="42.291" style="stroke:#181818;stroke-width:1.0;" width="10" x="1341.5" y="932.5273"/><rect fill="#FFFFFF" height="223.0371" style="stroke:#181818;stroke-width:1.0;" width="10" x="1336.5" y="1721.5117"/><rect fill="#FFFFFF" height="127.1641" style="stroke:#181818;stroke-width:1.0;" width="10" x="1581.5" y="766.0723"/><rect fill="#FFFFFF" height="31.291" style="stroke:#181818;stroke-width:1.0;" width="10" x="1581.5" y="1779.0938"/><rect fill="#FFFFFF" height="31.291" style="stroke:#181818;stroke-width:1.0;" width="10" x="1581.5" y="1867.9668"/><rect fill="#FFFFFF" height="31.291" style="stroke:#181818;stroke-width:1.0;" width="10" x="1815.5" y="823.6543"/><rect fill="#FFFFFF" height="31.291" style="stroke:#181818;stroke-width:1.0;" width="10" x="1951.5" y="432.1621"/><polygon fill="#181818" points="469.5,152.5332,479.5,156.5332,469.5,160.5332,473.5,156.5332" style="stroke:#181818;stroke-width:1.0;"/><line style="stroke:#181818;stroke-width:1.0;" x1="107.5" x2="475.5" y1="156.5332" y2="156.5332"/><text fill="#000000" font-family="sans-serif" font-size="13" font-weight="bold" lengthAdjust="spacing" textLength="7" x="114.5" y="151.2705">1</text><text fill="#000000" font-family="sans-serif" font-size="13" lengthAdjust="spacing" textLength="253" x="125.5" y="151.2705">asks to assign Team to entry in the Agenda</text><polygon fill="#181818" points="680.5,183.8242,690.5,187.8242,680.5,191.8242,684.5,187.8242" style="stroke:#181818;stroke-width:1.0;"/><line style="stroke:#181818;stroke-width:1.0;" x1="491.5" x2="686.5" y1="187.8242" y2="187.8242"/><text fill="#000000" font-family="sans-serif" font-size="13" font-weight="bold" lengthAdjust="spacing" textLength="7" x="498.5" y="182.5615">2</text><text fill="#000000" font-family="sans-serif" font-size="13" lengthAdjust="spacing" textLength="115" x="509.5" y="182.5615">getAllTaskByGSM()</text><line style="stroke:#181818;stroke-width:1.0;" x1="702.5" x2="749.5" y1="214.1152" y2="214.1152"/><line style="stroke:#181818;stroke-width:1.0;" x1="749.5" x2="749.5" y1="214.1152" y2="227.1152"/><line style="stroke:#181818;stroke-width:1.0;" x1="708.5" x2="749.5" y1="227.1152" y2="227.1152"/><polygon fill="#181818" points="718.5,223.1152,708.5,227.1152,718.5,231.1152,714.5,227.1152" style="stroke:#181818;stroke-width:1.0;"/><text fill="#000000" font-family="sans-serif" font-size="13" font-weight="bold" lengthAdjust="spacing" textLength="7" x="714.5" y="208.8525">3</text><text fill="#000000" font-family="sans-serif" font-size="13" lengthAdjust="spacing" textLength="133" x="725.5" y="208.8525">getGSMFromSession()</text><rect fill="none" height="75.1738" style="stroke:#000000;stroke-width:1.5;" width="213" x="591" y="240.1152"/><path d="M591,240.1152 L653,240.1152 L653,249.1152 L643,259.1152 L591,259.1152 L591,240.1152 " fill="#EEEEEE" style="stroke:#000000;stroke-width:2.0;"/><text fill="#000000" font-family="sans-serif" font-size="13" font-weight="bold" lengthAdjust="spacing" textLength="17" x="604" y="256.1436">ref</text><text fill="#000000" font-family="sans-serif" font-size="12" lengthAdjust="spacing" textLength="3" x="696" y="276.0645">&#160;</text><text fill="#000000" font-family="sans-serif" font-size="12" lengthAdjust="spacing" textLength="139" x="628" y="292.0254">Get GreenSpaceManager</text><text fill="#000000" font-family="sans-serif" font-size="12" lengthAdjust="spacing" textLength="3" x="696" y="307.9863">&#160;</text><line style="stroke:#181818;stroke-width:1.0;stroke-dasharray:2.0,2.0;" x1="707.5" x2="749.5" y1="348.5801" y2="348.5801"/><line style="stroke:#181818;stroke-width:1.0;stroke-dasharray:2.0,2.0;" x1="749.5" x2="749.5" y1="348.5801" y2="361.5801"/><line style="stroke:#181818;stroke-width:1.0;stroke-dasharray:2.0,2.0;" x1="702.5" x2="749.5" y1="361.5801" y2="361.5801"/><polygon fill="#181818" points="712.5,357.5801,702.5,361.5801,712.5,365.5801,708.5,361.5801" style="stroke:#181818;stroke-width:1.0;"/><text fill="#000000" font-family="sans-serif" font-size="13" font-weight="bold" lengthAdjust="spacing" textLength="7" x="714.5" y="343.3174">4</text><text fill="#000000" font-family="sans-serif" font-size="13" lengthAdjust="spacing" textLength="119" x="725.5" y="343.3174">greenSpaceManager</text><line style="stroke:#181818;stroke-width:1.0;" x1="702.5" x2="749.5" y1="382.8711" y2="382.8711"/><line style="stroke:#181818;stroke-width:1.0;" x1="749.5" x2="749.5" y1="382.8711" y2="395.8711"/><line style="stroke:#181818;stroke-width:1.0;" x1="708.5" x2="749.5" y1="395.8711" y2="395.8711"/><polygon fill="#181818" points="718.5,391.8711,708.5,395.8711,718.5,399.8711,714.5,395.8711" style="stroke:#181818;stroke-width:1.0;"/><text fill="#000000" font-family="sans-serif" font-size="13" font-weight="bold" lengthAdjust="spacing" textLength="7" x="714.5" y="377.6084">5</text><text fill="#000000" font-family="sans-serif" font-size="13" lengthAdjust="spacing" textLength="278" x="725.5" y="377.6084">getAllGreenSpaceByGSM(greenSpaceManager)</text><polygon fill="#181818" points="1939.5,428.1621,1949.5,432.1621,1939.5,436.1621,1943.5,432.1621" style="stroke:#181818;stroke-width:1.0;"/><line style="stroke:#181818;stroke-width:1.0;" x1="707.5" x2="1945.5" y1="432.1621" y2="432.1621"/><text fill="#000000" font-family="sans-serif" font-size="13" font-weight="bold" lengthAdjust="spacing" textLength="7" x="714.5" y="426.8994">6</text><text fill="#000000" font-family="sans-serif" font-size="13" lengthAdjust="spacing" textLength="119" x="725.5" y="426.8994">getListGreenSpace()</text><polygon fill="#181818" points="718.5,459.4531,708.5,463.4531,718.5,467.4531,714.5,463.4531" style="stroke:#181818;stroke-width:1.0;"/><line style="stroke:#181818;stroke-width:1.0;stroke-dasharray:2.0,2.0;" x1="712.5" x2="1955.5" y1="463.4531" y2="463.4531"/><text fill="#000000" font-family="sans-serif" font-size="13" font-weight="bold" lengthAdjust="spacing" textLength="7" x="724.5" y="458.1904">7</text><text fill="#000000" font-family="sans-serif" font-size="13" lengthAdjust="spacing" textLength="94" x="735.5" y="458.1904">List greenSpace</text><line style="stroke:#181818;stroke-width:1.0;stroke-dasharray:2.0,2.0;" x1="707.5" x2="749.5" y1="499.7441" y2="499.7441"/><line style="stroke:#181818;stroke-width:1.0;stroke-dasharray:2.0,2.0;" x1="749.5" x2="749.5" y1="499.7441" y2="512.7441"/><line style="stroke:#181818;stroke-width:1.0;stroke-dasharray:2.0,2.0;" x1="702.5" x2="749.5" y1="512.7441" y2="512.7441"/><polygon fill="#181818" points="712.5,508.7441,702.5,512.7441,712.5,516.7441,708.5,512.7441" style="stroke:#181818;stroke-width:1.0;"/><text fill="#000000" font-family="sans-serif" font-size="13" font-weight="bold" lengthAdjust="spacing" textLength="7" x="714.5" y="494.4814">8</text><text fill="#000000" font-family="sans-serif" font-size="13" lengthAdjust="spacing" textLength="94" x="725.5" y="494.4814">List greenSpace</text><line style="stroke:#181818;stroke-width:1.0;" x1="702.5" x2="749.5" y1="534.0352" y2="534.0352"/><line style="stroke:#181818;stroke-width:1.0;" x1="749.5" x2="749.5" y1="534.0352" y2="547.0352"/><line style="stroke:#181818;stroke-width:1.0;" x1="708.5" x2="749.5" y1="547.0352" y2="547.0352"/><polygon fill="#181818" points="718.5,543.0352,708.5,547.0352,718.5,551.0352,714.5,547.0352" style="stroke:#181818;stroke-width:1.0;"/><text fill="#000000" font-family="sans-serif" font-size="13" font-weight="bold" lengthAdjust="spacing" textLength="7" x="714.5" y="528.7725">9</text><text fill="#000000" font-family="sans-serif" font-size="13" lengthAdjust="spacing" textLength="246" x="725.5" y="528.7725">getAllTaskByGreenSpace(listGreenSpace)</text><polygon fill="#181818" points="993.5,579.3262,1003.5,583.3262,993.5,587.3262,997.5,583.3262" style="stroke:#181818;stroke-width:1.0;"/><line style="stroke:#181818;stroke-width:1.0;" x1="707.5" x2="999.5" y1="583.3262" y2="583.3262"/><text fill="#000000" font-family="sans-serif" font-size="13" font-weight="bold" lengthAdjust="spacing" textLength="14" x="714.5" y="578.0635">10</text><text fill="#000000" font-family="sans-serif" font-size="13" lengthAdjust="spacing" textLength="75" x="732.5" y="578.0635">getInstance()</text><polygon fill="#181818" points="718.5,610.6172,708.5,614.6172,718.5,618.6172,714.5,614.6172" style="stroke:#181818;stroke-width:1.0;"/><line style="stroke:#181818;stroke-width:1.0;stroke-dasharray:2.0,2.0;" x1="712.5" x2="1009.5" y1="614.6172" y2="614.6172"/><text fill="#000000" font-family="sans-serif" font-size="13" font-weight="bold" lengthAdjust="spacing" textLength="14" x="724.5" y="609.3545">11</text><text fill="#000000" font-family="sans-serif" font-size="13" lengthAdjust="spacing" textLength="67" x="742.5" y="609.3545">repositories</text><polygon fill="#181818" points="1100.5,641.9082,1110.5,645.9082,1100.5,649.9082,1104.5,645.9082" style="stroke:#181818;stroke-width:1.0;"/><line style="stroke:#181818;stroke-width:1.0;" x1="707.5" x2="1106.5" y1="645.9082" y2="645.9082"/><text fill="#000000" font-family="sans-serif" font-size="13" font-weight="bold" lengthAdjust="spacing" textLength="14" x="714.5" y="640.6455">12</text><text fill="#000000" font-family="sans-serif" font-size="13" lengthAdjust="spacing" textLength="70" x="732.5" y="640.6455">getAgenda()</text><polygon fill="#181818" points="718.5,673.1992,708.5,677.1992,718.5,681.1992,714.5,677.1992" style="stroke:#181818;stroke-width:1.0;"/><line style="stroke:#181818;stroke-width:1.0;stroke-dasharray:2.0,2.0;" x1="712.5" x2="1116.5" y1="677.1992" y2="677.1992"/><text fill="#000000" font-family="sans-serif" font-size="13" font-weight="bold" lengthAdjust="spacing" textLength="14" x="724.5" y="671.9365">13</text><text fill="#000000" font-family="sans-serif" font-size="13" lengthAdjust="spacing" textLength="42" x="742.5" y="671.9365">agenda</text><polygon fill="#181818" points="1324.5,704.4902,1334.5,708.4902,1324.5,712.4902,1328.5,708.4902" style="stroke:#181818;stroke-width:1.0;"/><line style="stroke:#181818;stroke-width:1.0;" x1="707.5" x2="1330.5" y1="708.4902" y2="708.4902"/><text fill="#000000" font-family="sans-serif" font-size="13" font-weight="bold" lengthAdjust="spacing" textLength="14" x="714.5" y="703.2275">14</text><text fill="#000000" font-family="sans-serif" font-size="13" lengthAdjust="spacing" textLength="246" x="732.5" y="703.2275">getAllTaskByGreenSpace(listGreenSpace)</text><path d="M1298,723.4902 L1371,723.4902 L1371,732.7813 L1361,742.7813 L1298,742.7813 L1298,723.4902 " fill="#EEEEEE" style="stroke:#000000;stroke-width:1.5;"/><rect fill="none" height="266.3281" style="stroke:#000000;stroke-width:1.5;" width="591.5" x="1298" y="723.4902"/><text fill="#000000" font-family="sans-serif" font-size="13" font-weight="bold" lengthAdjust="spacing" textLength="28" x="1313" y="738.5186">loop</text><text fill="#000000" font-family="sans-serif" font-size="11" font-weight="bold" lengthAdjust="spacing" textLength="206" x="1386" y="737.3604">[for each Task in listTask[in Agenda]]</text><polygon fill="#181818" points="1569.5,762.0723,1579.5,766.0723,1569.5,770.0723,1573.5,766.0723" style="stroke:#181818;stroke-width:1.0;"/><line style="stroke:#181818;stroke-width:1.0;" x1="1346.5" x2="1575.5" y1="766.0723" y2="766.0723"/><text fill="#000000" font-family="sans-serif" font-size="13" font-weight="bold" lengthAdjust="spacing" textLength="14" x="1353.5" y="760.8096">15</text><text fill="#000000" font-family="sans-serif" font-size="13" lengthAdjust="spacing" textLength="198" x="1371.5" y="760.8096">verifyGreenSpace(listGreenSpace)</text><path d="M1552,781.0723 L1625,781.0723 L1625,790.3633 L1615,800.3633 L1552,800.3633 L1552,781.0723 " fill="#EEEEEE" style="stroke:#000000;stroke-width:1.5;"/><rect fill="none" height="81.873" style="stroke:#000000;stroke-width:1.5;" width="327.5" x="1552" y="781.0723"/><text fill="#000000" font-family="sans-serif" font-size="13" font-weight="bold" lengthAdjust="spacing" textLength="28" x="1567" y="796.1006">loop</text><text fill="#000000" font-family="sans-serif" font-size="11" font-weight="bold" lengthAdjust="spacing" textLength="227" x="1640" y="794.9424">[for each GreenSpace in ListGreenSpace]</text><polygon fill="#181818" points="1803.5,819.6543,1813.5,823.6543,1803.5,827.6543,1807.5,823.6543" style="stroke:#181818;stroke-width:1.0;"/><line style="stroke:#181818;stroke-width:1.0;" x1="1591.5" x2="1809.5" y1="823.6543" y2="823.6543"/><text fill="#000000" font-family="sans-serif" font-size="13" font-weight="bold" lengthAdjust="spacing" textLength="14" x="1598.5" y="818.3916">16</text><text fill="#000000" font-family="sans-serif" font-size="13" lengthAdjust="spacing" textLength="187" x="1616.5" y="818.3916">equalsGreenSpace(greenSpace)</text><polygon fill="#181818" points="1602.5,850.9453,1592.5,854.9453,1602.5,858.9453,1598.5,854.9453" style="stroke:#181818;stroke-width:1.0;"/><line style="stroke:#181818;stroke-width:1.0;stroke-dasharray:2.0,2.0;" x1="1596.5" x2="1819.5" y1="854.9453" y2="854.9453"/><text fill="#000000" font-family="sans-serif" font-size="13" font-weight="bold" lengthAdjust="spacing" textLength="14" x="1608.5" y="849.6826">17</text><text fill="#000000" font-family="sans-serif" font-size="13" lengthAdjust="spacing" textLength="53" x="1626.5" y="849.6826">true/false</text><polygon fill="#181818" points="1357.5,889.2363,1347.5,893.2363,1357.5,897.2363,1353.5,893.2363" style="stroke:#181818;stroke-width:1.0;"/><line style="stroke:#181818;stroke-width:1.0;" x1="1351.5" x2="1585.5" y1="893.2363" y2="893.2363"/><text fill="#000000" font-family="sans-serif" font-size="13" font-weight="bold" lengthAdjust="spacing" textLength="14" x="1363.5" y="887.9736">18</text><text fill="#000000" font-family="sans-serif" font-size="13" lengthAdjust="spacing" textLength="53" x="1381.5" y="887.9736">true/false</text><line style="stroke:#181818;stroke-width:1.0;" x1="1346.5" x2="1393.5" y1="919.5273" y2="919.5273"/><line style="stroke:#181818;stroke-width:1.0;" x1="1393.5" x2="1393.5" y1="919.5273" y2="932.5273"/><line style="stroke:#181818;stroke-width:1.0;" x1="1352.5" x2="1393.5" y1="932.5273" y2="932.5273"/><polygon fill="#181818" points="1362.5,928.5273,1352.5,932.5273,1362.5,936.5273,1358.5,932.5273" style="stroke:#181818;stroke-width:1.0;"/><text fill="#000000" font-family="sans-serif" font-size="13" font-weight="bold" lengthAdjust="spacing" textLength="14" x="1358.5" y="914.2646">19</text><text fill="#000000" font-family="sans-serif" font-size="13" lengthAdjust="spacing" textLength="191" x="1376.5" y="914.2646">addListTaskByGreenSpace(task)</text><line style="stroke:#181818;stroke-width:1.0;stroke-dasharray:2.0,2.0;" x1="1351.5" x2="1393.5" y1="973.8184" y2="973.8184"/><line style="stroke:#181818;stroke-width:1.0;stroke-dasharray:2.0,2.0;" x1="1393.5" x2="1393.5" y1="973.8184" y2="986.8184"/><line style="stroke:#181818;stroke-width:1.0;stroke-dasharray:2.0,2.0;" x1="1346.5" x2="1393.5" y1="986.8184" y2="986.8184"/><polygon fill="#181818" points="1356.5,982.8184,1346.5,986.8184,1356.5,990.8184,1352.5,986.8184" style="stroke:#181818;stroke-width:1.0;"/><text fill="#000000" font-family="sans-serif" font-size="13" font-weight="bold" lengthAdjust="spacing" textLength="14" x="1358.5" y="968.5557">20</text><text fill="#000000" font-family="sans-serif" font-size="13" lengthAdjust="spacing" textLength="4" x="1376.5" y="968.5557">&#160;</text><polygon fill="#181818" points="718.5,1016.1094,708.5,1020.1094,718.5,1024.1094,714.5,1020.1094" style="stroke:#181818;stroke-width:1.0;"/><line style="stroke:#181818;stroke-width:1.0;stroke-dasharray:2.0,2.0;" x1="712.5" x2="1340.5" y1="1020.1094" y2="1020.1094"/><text fill="#000000" font-family="sans-serif" font-size="13" font-weight="bold" lengthAdjust="spacing" textLength="14" x="724.5" y="1014.8467">21</text><text fill="#000000" font-family="sans-serif" font-size="13" lengthAdjust="spacing" textLength="45" x="742.5" y="1014.8467">listTask</text><line style="stroke:#181818;stroke-width:1.0;stroke-dasharray:2.0,2.0;" x1="707.5" x2="749.5" y1="1056.4004" y2="1056.4004"/><line style="stroke:#181818;stroke-width:1.0;stroke-dasharray:2.0,2.0;" x1="749.5" x2="749.5" y1="1056.4004" y2="1069.4004"/><line style="stroke:#181818;stroke-width:1.0;stroke-dasharray:2.0,2.0;" x1="702.5" x2="749.5" y1="1069.4004" y2="1069.4004"/><polygon fill="#181818" points="712.5,1065.4004,702.5,1069.4004,712.5,1073.4004,708.5,1069.4004" style="stroke:#181818;stroke-width:1.0;"/><text fill="#000000" font-family="sans-serif" font-size="13" font-weight="bold" lengthAdjust="spacing" textLength="14" x="714.5" y="1051.1377">22</text><text fill="#000000" font-family="sans-serif" font-size="13" lengthAdjust="spacing" textLength="45" x="732.5" y="1051.1377">listTask</text><polygon fill="#181818" points="502.5,1091.6914,492.5,1095.6914,502.5,1099.6914,498.5,1095.6914" style="stroke:#181818;stroke-width:1.0;"/><line style="stroke:#181818;stroke-width:1.0;stroke-dasharray:2.0,2.0;" x1="496.5" x2="696.5" y1="1095.6914" y2="1095.6914"/><text fill="#000000" font-family="sans-serif" font-size="13" font-weight="bold" lengthAdjust="spacing" textLength="14" x="508.5" y="1090.4287">23</text><text fill="#000000" font-family="sans-serif" font-size="13" lengthAdjust="spacing" textLength="45" x="526.5" y="1090.4287">listTask</text><polygon fill="#181818" points="118.5,1122.9824,108.5,1126.9824,118.5,1130.9824,114.5,1126.9824" style="stroke:#181818;stroke-width:1.0;"/><line style="stroke:#181818;stroke-width:1.0;stroke-dasharray:2.0,2.0;" x1="112.5" x2="485.5" y1="1126.9824" y2="1126.9824"/><text fill="#000000" font-family="sans-serif" font-size="13" font-weight="bold" lengthAdjust="spacing" textLength="14" x="124.5" y="1121.7197">24</text><text fill="#000000" font-family="sans-serif" font-size="13" lengthAdjust="spacing" textLength="218" x="142.5" y="1121.7197">Show Task List and ask to select one</text><polygon fill="#181818" points="469.5,1154.2734,479.5,1158.2734,469.5,1162.2734,473.5,1158.2734" style="stroke:#181818;stroke-width:1.0;"/><line style="stroke:#181818;stroke-width:1.0;" x1="107.5" x2="475.5" y1="1158.2734" y2="1158.2734"/><text fill="#000000" font-family="sans-serif" font-size="13" font-weight="bold" lengthAdjust="spacing" textLength="14" x="114.5" y="1153.0107">25</text><text fill="#000000" font-family="sans-serif" font-size="13" lengthAdjust="spacing" textLength="65" x="132.5" y="1153.0107">type a task</text><polygon fill="#181818" points="680.5,1185.5645,690.5,1189.5645,680.5,1193.5645,684.5,1189.5645" style="stroke:#181818;stroke-width:1.0;"/><line style="stroke:#181818;stroke-width:1.0;" x1="491.5" x2="686.5" y1="1189.5645" y2="1189.5645"/><text fill="#000000" font-family="sans-serif" font-size="13" font-weight="bold" lengthAdjust="spacing" textLength="14" x="498.5" y="1184.3018">26</text><text fill="#000000" font-family="sans-serif" font-size="13" lengthAdjust="spacing" textLength="80" x="516.5" y="1184.3018">getAllTeams()</text><polygon fill="#181818" points="993.5,1216.8555,1003.5,1220.8555,993.5,1224.8555,997.5,1220.8555" style="stroke:#181818;stroke-width:1.0;"/><line style="stroke:#181818;stroke-width:1.0;" x1="702.5" x2="999.5" y1="1220.8555" y2="1220.8555"/><text fill="#000000" font-family="sans-serif" font-size="13" font-weight="bold" lengthAdjust="spacing" textLength="14" x="709.5" y="1215.5928">27</text><text fill="#000000" font-family="sans-serif" font-size="13" lengthAdjust="spacing" textLength="75" x="727.5" y="1215.5928">getInstance()</text><polygon fill="#181818" points="713.5,1248.1465,703.5,1252.1465,713.5,1256.1465,709.5,1252.1465" style="stroke:#181818;stroke-width:1.0;"/><line style="stroke:#181818;stroke-width:1.0;stroke-dasharray:2.0,2.0;" x1="707.5" x2="1009.5" y1="1252.1465" y2="1252.1465"/><text fill="#000000" font-family="sans-serif" font-size="13" font-weight="bold" lengthAdjust="spacing" textLength="14" x="719.5" y="1246.8838">28</text><text fill="#000000" font-family="sans-serif" font-size="13" lengthAdjust="spacing" textLength="67" x="737.5" y="1246.8838">repositories</text><polygon fill="#181818" points="1100.5,1279.4375,1110.5,1283.4375,1100.5,1287.4375,1104.5,1283.4375" style="stroke:#181818;stroke-width:1.0;"/><line style="stroke:#181818;stroke-width:1.0;" x1="702.5" x2="1106.5" y1="1283.4375" y2="1283.4375"/><text fill="#000000" font-family="sans-serif" font-size="13" font-weight="bold" lengthAdjust="spacing" textLength="14" x="709.5" y="1278.1748">29</text><text fill="#000000" font-family="sans-serif" font-size="13" lengthAdjust="spacing" textLength="120" x="727.5" y="1278.1748">getTeamRepository()</text><polygon fill="#181818" points="713.5,1310.7285,703.5,1314.7285,713.5,1318.7285,709.5,1314.7285" style="stroke:#181818;stroke-width:1.0;"/><line style="stroke:#181818;stroke-width:1.0;stroke-dasharray:2.0,2.0;" x1="707.5" x2="1116.5" y1="1314.7285" y2="1314.7285"/><text fill="#000000" font-family="sans-serif" font-size="13" font-weight="bold" lengthAdjust="spacing" textLength="14" x="719.5" y="1309.4658">30</text><text fill="#000000" font-family="sans-serif" font-size="13" lengthAdjust="spacing" textLength="91" x="737.5" y="1309.4658">teamRepository</text><polygon fill="#181818" points="1220,1342.0195,1230,1346.0195,1220,1350.0195,1224,1346.0195" style="stroke:#181818;stroke-width:1.0;"/><line style="stroke:#181818;stroke-width:1.0;" x1="702.5" x2="1226" y1="1346.0195" y2="1346.0195"/><text fill="#000000" font-family="sans-serif" font-size="13" font-weight="bold" lengthAdjust="spacing" textLength="14" x="709.5" y="1340.7568">31</text><text fill="#000000" font-family="sans-serif" font-size="13" lengthAdjust="spacing" textLength="80" x="727.5" y="1340.7568">getAllTeams()</text><polygon fill="#181818" points="713.5,1373.3105,703.5,1377.3105,713.5,1381.3105,709.5,1377.3105" style="stroke:#181818;stroke-width:1.0;"/><line style="stroke:#181818;stroke-width:1.0;stroke-dasharray:2.0,2.0;" x1="707.5" x2="1236" y1="1377.3105" y2="1377.3105"/><text fill="#000000" font-family="sans-serif" font-size="13" font-weight="bold" lengthAdjust="spacing" textLength="14" x="719.5" y="1372.0479">32</text><text fill="#000000" font-family="sans-serif" font-size="13" lengthAdjust="spacing" textLength="49" x="737.5" y="1372.0479">listTeam</text><polygon fill="#181818" points="502.5,1404.6016,492.5,1408.6016,502.5,1412.6016,498.5,1408.6016" style="stroke:#181818;stroke-width:1.0;"/><line style="stroke:#181818;stroke-width:1.0;stroke-dasharray:2.0,2.0;" x1="496.5" x2="696.5" y1="1408.6016" y2="1408.6016"/><text fill="#000000" font-family="sans-serif" font-size="13" font-weight="bold" lengthAdjust="spacing" textLength="14" x="508.5" y="1403.3389">33</text><text fill="#000000" font-family="sans-serif" font-size="13" lengthAdjust="spacing" textLength="49" x="526.5" y="1403.3389">listTeam</text><polygon fill="#181818" points="118.5,1435.8926,108.5,1439.8926,118.5,1443.8926,114.5,1439.8926" style="stroke:#181818;stroke-width:1.0;"/><line style="stroke:#181818;stroke-width:1.0;stroke-dasharray:2.0,2.0;" x1="112.5" x2="485.5" y1="1439.8926" y2="1439.8926"/><text fill="#000000" font-family="sans-serif" font-size="13" font-weight="bold" lengthAdjust="spacing" textLength="14" x="124.5" y="1434.6299">34</text><text fill="#000000" font-family="sans-serif" font-size="13" lengthAdjust="spacing" textLength="332" x="142.5" y="1434.6299">show the list of the teams and ask to choose one of them</text><polygon fill="#181818" points="469.5,1467.1836,479.5,1471.1836,469.5,1475.1836,473.5,1471.1836" style="stroke:#181818;stroke-width:1.0;"/><line style="stroke:#181818;stroke-width:1.0;" x1="107.5" x2="475.5" y1="1471.1836" y2="1471.1836"/><text fill="#000000" font-family="sans-serif" font-size="13" font-weight="bold" lengthAdjust="spacing" textLength="14" x="114.5" y="1465.9209">35</text><text fill="#000000" font-family="sans-serif" font-size="13" lengthAdjust="spacing" textLength="69" x="132.5" y="1465.9209">type a team</text><polygon fill="#181818" points="118.5,1498.4746,108.5,1502.4746,118.5,1506.4746,114.5,1502.4746" style="stroke:#181818;stroke-width:1.0;"/><line style="stroke:#181818;stroke-width:1.0;stroke-dasharray:2.0,2.0;" x1="112.5" x2="485.5" y1="1502.4746" y2="1502.4746"/><text fill="#000000" font-family="sans-serif" font-size="13" font-weight="bold" lengthAdjust="spacing" textLength="14" x="124.5" y="1497.2119">36</text><text fill="#000000" font-family="sans-serif" font-size="13" lengthAdjust="spacing" textLength="222" x="142.5" y="1497.2119">show all data and request confirmation</text><polygon fill="#181818" points="469.5,1529.7656,479.5,1533.7656,469.5,1537.7656,473.5,1533.7656" style="stroke:#181818;stroke-width:1.0;"/><line style="stroke:#181818;stroke-width:1.0;" x1="107.5" x2="475.5" y1="1533.7656" y2="1533.7656"/><text fill="#000000" font-family="sans-serif" font-size="13" font-weight="bold" lengthAdjust="spacing" textLength="14" x="114.5" y="1528.5029">37</text><text fill="#000000" font-family="sans-serif" font-size="13" lengthAdjust="spacing" textLength="78" x="132.5" y="1528.5029">confirms data</text><polygon fill="#181818" points="680.5,1561.0566,690.5,1565.0566,680.5,1569.0566,684.5,1565.0566" style="stroke:#181818;stroke-width:1.0;"/><line style="stroke:#181818;stroke-width:1.0;" x1="491.5" x2="686.5" y1="1565.0566" y2="1565.0566"/><text fill="#000000" font-family="sans-serif" font-size="13" font-weight="bold" lengthAdjust="spacing" textLength="14" x="498.5" y="1559.7939">38</text><text fill="#000000" font-family="sans-serif" font-size="13" lengthAdjust="spacing" textLength="164" x="516.5" y="1559.7939">assignTeamTask(team,task)</text><polygon fill="#181818" points="993.5,1592.3477,1003.5,1596.3477,993.5,1600.3477,997.5,1596.3477" style="stroke:#181818;stroke-width:1.0;"/><line style="stroke:#181818;stroke-width:1.0;" x1="702.5" x2="999.5" y1="1596.3477" y2="1596.3477"/><text fill="#000000" font-family="sans-serif" font-size="13" font-weight="bold" lengthAdjust="spacing" textLength="14" x="709.5" y="1591.085">39</text><text fill="#000000" font-family="sans-serif" font-size="13" lengthAdjust="spacing" textLength="75" x="727.5" y="1591.085">getInstance()</text><polygon fill="#181818" points="713.5,1623.6387,703.5,1627.6387,713.5,1631.6387,709.5,1627.6387" style="stroke:#181818;stroke-width:1.0;"/><line style="stroke:#181818;stroke-width:1.0;stroke-dasharray:2.0,2.0;" x1="707.5" x2="1009.5" y1="1627.6387" y2="1627.6387"/><text fill="#000000" font-family="sans-serif" font-size="13" font-weight="bold" lengthAdjust="spacing" textLength="14" x="719.5" y="1622.376">40</text><text fill="#000000" font-family="sans-serif" font-size="13" lengthAdjust="spacing" textLength="67" x="737.5" y="1622.376">repositories</text><polygon fill="#181818" points="1100.5,1654.9297,1110.5,1658.9297,1100.5,1662.9297,1104.5,1658.9297" style="stroke:#181818;stroke-width:1.0;"/><line style="stroke:#181818;stroke-width:1.0;" x1="702.5" x2="1106.5" y1="1658.9297" y2="1658.9297"/><text fill="#000000" font-family="sans-serif" font-size="13" font-weight="bold" lengthAdjust="spacing" textLength="14" x="709.5" y="1653.667">41</text><text fill="#000000" font-family="sans-serif" font-size="13" lengthAdjust="spacing" textLength="70" x="727.5" y="1653.667">getAgenda()</text><polygon fill="#181818" points="713.5,1686.2207,703.5,1690.2207,713.5,1694.2207,709.5,1690.2207" style="stroke:#181818;stroke-width:1.0;"/><line style="stroke:#181818;stroke-width:1.0;stroke-dasharray:2.0,2.0;" x1="707.5" x2="1116.5" y1="1690.2207" y2="1690.2207"/><text fill="#000000" font-family="sans-serif" font-size="13" font-weight="bold" lengthAdjust="spacing" textLength="14" x="719.5" y="1684.958">42</text><text fill="#000000" font-family="sans-serif" font-size="13" lengthAdjust="spacing" textLength="42" x="737.5" y="1684.958">agenda</text><polygon fill="#181818" points="1324.5,1717.5117,1334.5,1721.5117,1324.5,1725.5117,1328.5,1721.5117" style="stroke:#181818;stroke-width:1.0;"/><line style="stroke:#181818;stroke-width:1.0;" x1="702.5" x2="1330.5" y1="1721.5117" y2="1721.5117"/><text fill="#000000" font-family="sans-serif" font-size="13" font-weight="bold" lengthAdjust="spacing" textLength="14" x="709.5" y="1716.249">43</text><text fill="#000000" font-family="sans-serif" font-size="13" lengthAdjust="spacing" textLength="164" x="727.5" y="1716.249">assignTeamTask(team,task)</text><path d="M1288,1736.5117 L1361,1736.5117 L1361,1745.8027 L1351,1755.8027 L1288,1755.8027 L1288,1736.5117 " fill="#EEEEEE" style="stroke:#000000;stroke-width:1.5;"/><rect fill="none" height="177.7461" style="stroke:#000000;stroke-width:1.5;" width="343" x="1288" y="1736.5117"/><text fill="#000000" font-family="sans-serif" font-size="13" font-weight="bold" lengthAdjust="spacing" textLength="28" x="1303" y="1751.54">loop</text><text fill="#000000" font-family="sans-serif" font-size="11" font-weight="bold" lengthAdjust="spacing" textLength="203" x="1376" y="1750.3818">[for each task in listTask[in Agenda]]</text><polygon fill="#181818" points="1569.5,1775.0938,1579.5,1779.0938,1569.5,1783.0938,1573.5,1779.0938" style="stroke:#181818;stroke-width:1.0;"/><line style="stroke:#181818;stroke-width:1.0;" x1="1346.5" x2="1575.5" y1="1779.0938" y2="1779.0938"/><text fill="#000000" font-family="sans-serif" font-size="13" font-weight="bold" lengthAdjust="spacing" textLength="14" x="1353.5" y="1773.8311">44</text><text fill="#000000" font-family="sans-serif" font-size="13" lengthAdjust="spacing" textLength="99" x="1371.5" y="1773.8311">equalsTask(task)</text><polygon fill="#181818" points="1357.5,1806.3848,1347.5,1810.3848,1357.5,1814.3848,1353.5,1810.3848" style="stroke:#181818;stroke-width:1.0;"/><line style="stroke:#181818;stroke-width:1.0;stroke-dasharray:2.0,2.0;" x1="1351.5" x2="1585.5" y1="1810.3848" y2="1810.3848"/><text fill="#000000" font-family="sans-serif" font-size="13" font-weight="bold" lengthAdjust="spacing" textLength="14" x="1363.5" y="1805.1221">45</text><text fill="#000000" font-family="sans-serif" font-size="13" lengthAdjust="spacing" textLength="53" x="1381.5" y="1805.1221">true/false</text><path d="M1298,1825.3848 L1359,1825.3848 L1359,1834.6758 L1349,1844.6758 L1298,1844.6758 L1298,1825.3848 " fill="#EEEEEE" style="stroke:#000000;stroke-width:1.5;"/><rect fill="none" height="81.873" style="stroke:#000000;stroke-width:1.5;" width="323" x="1298" y="1825.3848"/><text fill="#000000" font-family="sans-serif" font-size="13" font-weight="bold" lengthAdjust="spacing" textLength="16" x="1313" y="1840.4131">alt</text><text fill="#000000" font-family="sans-serif" font-size="11" font-weight="bold" lengthAdjust="spacing" textLength="113" x="1374" y="1839.2549">[equalsTask == true]</text><polygon fill="#181818" points="1569.5,1863.9668,1579.5,1867.9668,1569.5,1871.9668,1573.5,1867.9668" style="stroke:#181818;stroke-width:1.0;"/><line style="stroke:#181818;stroke-width:1.0;" x1="1346.5" x2="1575.5" y1="1867.9668" y2="1867.9668"/><text fill="#000000" font-family="sans-serif" font-size="13" font-weight="bold" lengthAdjust="spacing" textLength="14" x="1353.5" y="1862.7041">46</text><text fill="#000000" font-family="sans-serif" font-size="13" lengthAdjust="spacing" textLength="108" x="1371.5" y="1862.7041">updateTeam(team)</text><polygon fill="#181818" points="1357.5,1895.2578,1347.5,1899.2578,1357.5,1903.2578,1353.5,1899.2578" style="stroke:#181818;stroke-width:1.0;"/><line style="stroke:#181818;stroke-width:1.0;stroke-dasharray:2.0,2.0;" x1="1351.5" x2="1585.5" y1="1899.2578" y2="1899.2578"/><text fill="#000000" font-family="sans-serif" font-size="13" font-weight="bold" lengthAdjust="spacing" textLength="14" x="1363.5" y="1893.9951">47</text><text fill="#000000" font-family="sans-serif" font-size="13" lengthAdjust="spacing" textLength="53" x="1381.5" y="1893.9951">true/false</text><polygon fill="#181818" points="713.5,1940.5488,703.5,1944.5488,713.5,1948.5488,709.5,1944.5488" style="stroke:#181818;stroke-width:1.0;"/><line style="stroke:#181818;stroke-width:1.0;stroke-dasharray:2.0,2.0;" x1="707.5" x2="1340.5" y1="1944.5488" y2="1944.5488"/><text fill="#000000" font-family="sans-serif" font-size="13" font-weight="bold" lengthAdjust="spacing" textLength="14" x="719.5" y="1939.2861">48</text><text fill="#000000" font-family="sans-serif" font-size="13" lengthAdjust="spacing" textLength="53" x="737.5" y="1939.2861">true/false</text><polygon fill="#181818" points="502.5,1971.8398,492.5,1975.8398,502.5,1979.8398,498.5,1975.8398" style="stroke:#181818;stroke-width:1.0;"/><line style="stroke:#181818;stroke-width:1.0;stroke-dasharray:2.0,2.0;" x1="496.5" x2="696.5" y1="1975.8398" y2="1975.8398"/><text fill="#000000" font-family="sans-serif" font-size="13" font-weight="bold" lengthAdjust="spacing" textLength="14" x="508.5" y="1970.5771">49</text><text fill="#000000" font-family="sans-serif" font-size="13" lengthAdjust="spacing" textLength="53" x="526.5" y="1970.5771">true/false</text><polygon fill="#181818" points="113.5,2003.1309,103.5,2007.1309,113.5,2011.1309,109.5,2007.1309" style="stroke:#181818;stroke-width:1.0;"/><line style="stroke:#181818;stroke-width:1.0;stroke-dasharray:2.0,2.0;" x1="107.5" x2="485.5" y1="2007.1309" y2="2007.1309"/><text fill="#000000" font-family="sans-serif" font-size="13" font-weight="bold" lengthAdjust="spacing" textLength="14" x="119.5" y="2001.8682">50</text><text fill="#000000" font-family="sans-serif" font-size="13" lengthAdjust="spacing" textLength="158" x="137.5" y="2001.8682">displays operation success</text><!--SRC=[xLTDRziu43sNlsAGopf0WzrU0xI0cwI6qRHRMFPfjmTM6ij4P58hqktwt-yCASca92VfzbIWbrfItxpvUZDax8FIjMpa7lP6ctpNc3s2QmueRFy_jSmVP8cPErO83UPEwhAA0NOd2_DDwHAsih8eX5EEe9ibPFZF0NMESAjaoT1PbjrUmXLiiZzUqSyAIsKTDh16kRT2o8Cp-h3_WeqGl-rKWR0rndqn_mgPEzF0nQ91r91HI0WVfAQm6fWjiW-N5o0jq8EWa9pALIsrWulhkRMgrCm-Br4NShFqmCto2ToDqQunLOMDnz-iL_S3YnNMnYeAIg7rcFx3CLDS8CeaDMaYYx_rcE3J_NoTMZYAvqHBDklaWxTQhr8RwUCdR4Z4O-QBku-tym6tj0_CI3-1PvwzJn4brzgNcd2B_YLKUdLtzp7xDB-vEsVJTYSnRRzrlVfJ2Ewh-YeTyliB8VXVk7h3shacr8C5P-YNc-Crmgz8hJc2qk1s227BY8TQAyYQEBXfn5AYcrSLv_dsIFIpomZi-oeyC34Wt3iQXGp9iz4J9WrkmNmbyONN1JeOfIa4XTQnH_HZN85FHaGfd1o4H4P4vpFZOWUUUvgt4r6IMUY8XqRXia4KSn9ii1Wc-9Z58-cr7Jh5LYMXdazkOl02wL9RsbM3BAV6L4nHH1d5avkaCqdMnSNpt6RdHPg4uOTTU4ZdY0JVYZdo470TPHZa_rEoTWM8ofYQbce3v687JC2Jn7Ry_1SzXs0_2z4w8xUy6yWfwLrjd-VERvE1inEINQP25CBxOAdscuKyql519qhaiPpq5cqZ4TbVdKBd8-ttzdIA1HmP-c7jekWBVSOmv7UgK8-NHN7V5ZFf3A_RgNvq53r7ugRxv6EBeAqkkxPDsWp7SWeSeVp6dIGCqyOxDMoI5mJCTkPRK8-VTgaBtjQydIrMT4K0ep7cuAtCfbTlDaigwh56aE2yfoStDryDPZ_p-AUdzjDh83ts7ra7wzKZLQABWI30K064IvMycXJ143Ob0iiYu4EOBS1i_JC7RsD1v3jZBB8WMaXAt2cZF_KxSVW8Hk88tZldiggWa4vwVmrVDYcGtEYjQlRIAMx7s5NlgGLQJt5MYDVj_ODBmegVSMGlX_FywqXwJfMcJo7tNQTGE1E2Zm5zsCfXXpzxYSlAHPpm-dNu-sVi-52JJf0JzCdzi6E_rCzizZE6ezqU9cOQF3MoXR9r9OyMJ8sDdn2mXpodU-veKj9xtdy0]--></g></svg>