<?xml version="1.0" encoding="us-ascii" standalone="no"?><svg xmlns="http://www.w3.org/2000/svg" xmlns:xlink="http://www.w3.org/1999/xlink" contentStyleType="text/css" height="483px" preserveAspectRatio="none" style="width:913px;height:483px;background:#FFFFFF;" version="1.1" viewBox="0 0 913 483" width="913px" zoomAndPan="magnify"><defs/><g><rect fill="#FFFFFF" height="318.9102" style="stroke:#181818;stroke-width:1.0;" width="10" x="428" y="90.5332"/><rect fill="#FFFFFF" height="223.0371" style="stroke:#181818;stroke-width:1.0;" width="10" x="650" y="148.1152"/><rect fill="#FFFFFF" height="31.291" style="stroke:#181818;stroke-width:1.0;" width="10" x="816" y="205.6973"/><rect fill="#FFFFFF" height="31.291" style="stroke:#181818;stroke-width:1.0;" width="10" x="816" y="294.5703"/><rect fill="none" height="273.6191" style="stroke:#000000;stroke-width:1.5;" width="588" x="319.5" y="105.5332"/><rect fill="none" height="177.7461" style="stroke:#000000;stroke-width:1.5;" width="296" x="601.5" y="163.1152"/><rect fill="none" height="81.873" style="stroke:#000000;stroke-width:1.5;" width="268.5" x="611.5" y="251.9883"/><line style="stroke:#181818;stroke-width:0.5;stroke-dasharray:5.0,5.0;" x1="432.5" x2="432.5" y1="57.2422" y2="427.4434"/><line style="stroke:#181818;stroke-width:0.5;stroke-dasharray:5.0,5.0;" x1="654.5" x2="654.5" y1="57.2422" y2="427.4434"/><line style="stroke:#181818;stroke-width:0.5;stroke-dasharray:5.0,5.0;" x1="821" x2="821" y1="57.2422" y2="427.4434"/><rect fill="#E3E3E3" height="32.6211" rx="2.5" ry="2.5" style="stroke:#181818;stroke-width:0.5;" width="207" x="329.5" y="23.6211"/><text fill="#000000" font-family="sans-serif" font-size="14" lengthAdjust="spacing" textLength="193" x="336.5" y="45.7285">:AssignTeamAgendaController</text><rect fill="#E3E3E3" height="32.6211" rx="2.5" ry="2.5" style="stroke:#181818;stroke-width:0.5;" width="207" x="329.5" y="426.4434"/><text fill="#000000" font-family="sans-serif" font-size="14" lengthAdjust="spacing" textLength="193" x="336.5" y="448.5508">:AssignTeamAgendaController</text><rect fill="#E3E3E3" height="51.2422" rx="2.5" ry="2.5" style="stroke:#181818;stroke-width:0.5;" width="67" x="621.5" y="5"/><text fill="#000000" font-family="sans-serif" font-size="14" lengthAdjust="spacing" textLength="48" x="631" y="27.1074">agenda</text><text fill="#000000" font-family="sans-serif" font-size="14" lengthAdjust="spacing" textLength="53" x="628.5" y="45.7285">:Agenda</text><rect fill="#E3E3E3" height="51.2422" rx="2.5" ry="2.5" style="stroke:#181818;stroke-width:0.5;" width="67" x="621.5" y="426.4434"/><text fill="#000000" font-family="sans-serif" font-size="14" lengthAdjust="spacing" textLength="48" x="631" y="448.5508">agenda</text><text fill="#000000" font-family="sans-serif" font-size="14" lengthAdjust="spacing" textLength="53" x="628.5" y="467.1719">:Agenda</text><rect fill="#E3E3E3" height="51.2422" rx="2.5" ry="2.5" style="stroke:#181818;stroke-width:0.5;" width="98" x="772" y="5"/><text fill="#000000" font-family="sans-serif" font-size="14" lengthAdjust="spacing" textLength="79" x="781.5" y="27.1074">agendaTask</text><text fill="#000000" font-family="sans-serif" font-size="14" lengthAdjust="spacing" textLength="84" x="779" y="45.7285">:AgendaTask</text><rect fill="#E3E3E3" height="51.2422" rx="2.5" ry="2.5" style="stroke:#181818;stroke-width:0.5;" width="98" x="772" y="426.4434"/><text fill="#000000" font-family="sans-serif" font-size="14" lengthAdjust="spacing" textLength="79" x="781.5" y="448.5508">agendaTask</text><text fill="#000000" font-family="sans-serif" font-size="14" lengthAdjust="spacing" textLength="84" x="779" y="467.1719">:AgendaTask</text><rect fill="#FFFFFF" height="318.9102" style="stroke:#181818;stroke-width:1.0;" width="10" x="428" y="90.5332"/><rect fill="#FFFFFF" height="223.0371" style="stroke:#181818;stroke-width:1.0;" width="10" x="650" y="148.1152"/><rect fill="#FFFFFF" height="31.291" style="stroke:#181818;stroke-width:1.0;" width="10" x="816" y="205.6973"/><rect fill="#FFFFFF" height="31.291" style="stroke:#181818;stroke-width:1.0;" width="10" x="816" y="294.5703"/><polygon fill="#181818" points="416,86.5332,426,90.5332,416,94.5332,420,90.5332" style="stroke:#181818;stroke-width:1.0;"/><line style="stroke:#181818;stroke-width:1.0;stroke-dasharray:2.0,2.0;" x1="0" x2="422" y1="90.5332" y2="90.5332"/><text fill="#000000" font-family="sans-serif" font-size="13" font-weight="bold" lengthAdjust="spacing" textLength="14" x="7" y="85.2705">39</text><text fill="#000000" font-family="sans-serif" font-size="13" lengthAdjust="spacing" textLength="391" x="25" y="85.2705">assignTeamTask(teamCollaboratorName,taskParkName,taskName)</text><path d="M319.5,105.5332 L478.5,105.5332 L478.5,114.8242 L468.5,124.8242 L319.5,124.8242 L319.5,105.5332 " fill="#EEEEEE" style="stroke:#000000;stroke-width:1.5;"/><rect fill="none" height="273.6191" style="stroke:#000000;stroke-width:1.5;" width="588" x="319.5" y="105.5332"/><text fill="#000000" font-family="sans-serif" font-size="13" font-weight="bold" lengthAdjust="spacing" textLength="114" x="334.5" y="120.5615">Assign Team Task</text><polygon fill="#181818" points="638,144.1152,648,148.1152,638,152.1152,642,148.1152" style="stroke:#181818;stroke-width:1.0;"/><line style="stroke:#181818;stroke-width:1.0;" x1="438" x2="644" y1="148.1152" y2="148.1152"/><text fill="#000000" font-family="sans-serif" font-size="13" font-weight="bold" lengthAdjust="spacing" textLength="25" x="445" y="142.8525">39.1</text><text fill="#000000" font-family="sans-serif" font-size="13" lengthAdjust="spacing" textLength="164" x="474" y="142.8525">assignTeamTask(team,task)</text><path d="M601.5,163.1152 L674.5,163.1152 L674.5,172.4063 L664.5,182.4063 L601.5,182.4063 L601.5,163.1152 " fill="#EEEEEE" style="stroke:#000000;stroke-width:1.5;"/><rect fill="none" height="177.7461" style="stroke:#000000;stroke-width:1.5;" width="296" x="601.5" y="163.1152"/><text fill="#000000" font-family="sans-serif" font-size="13" font-weight="bold" lengthAdjust="spacing" textLength="28" x="616.5" y="178.1436">loop</text><text fill="#000000" font-family="sans-serif" font-size="11" font-weight="bold" lengthAdjust="spacing" textLength="203" x="689.5" y="176.9854">[for each task in listTask[in Agenda]]</text><polygon fill="#181818" points="804,201.6973,814,205.6973,804,209.6973,808,205.6973" style="stroke:#181818;stroke-width:1.0;"/><line style="stroke:#181818;stroke-width:1.0;" x1="660" x2="810" y1="205.6973" y2="205.6973"/><text fill="#000000" font-family="sans-serif" font-size="13" font-weight="bold" lengthAdjust="spacing" textLength="25" x="667" y="200.4346">39.2</text><text fill="#000000" font-family="sans-serif" font-size="13" lengthAdjust="spacing" textLength="99" x="696" y="200.4346">equalsTask(task)</text><polygon fill="#181818" points="671,232.9883,661,236.9883,671,240.9883,667,236.9883" style="stroke:#181818;stroke-width:1.0;"/><line style="stroke:#181818;stroke-width:1.0;stroke-dasharray:2.0,2.0;" x1="665" x2="820" y1="236.9883" y2="236.9883"/><text fill="#000000" font-family="sans-serif" font-size="13" font-weight="bold" lengthAdjust="spacing" textLength="25" x="677" y="231.7256">39.3</text><text fill="#000000" font-family="sans-serif" font-size="13" lengthAdjust="spacing" textLength="53" x="706" y="231.7256">true/false</text><path d="M611.5,251.9883 L672.5,251.9883 L672.5,261.2793 L662.5,271.2793 L611.5,271.2793 L611.5,251.9883 " fill="#EEEEEE" style="stroke:#000000;stroke-width:1.5;"/><rect fill="none" height="81.873" style="stroke:#000000;stroke-width:1.5;" width="268.5" x="611.5" y="251.9883"/><text fill="#000000" font-family="sans-serif" font-size="13" font-weight="bold" lengthAdjust="spacing" textLength="16" x="626.5" y="267.0166">alt</text><text fill="#000000" font-family="sans-serif" font-size="11" font-weight="bold" lengthAdjust="spacing" textLength="113" x="687.5" y="265.8584">[equalsTask == true]</text><polygon fill="#181818" points="804,290.5703,814,294.5703,804,298.5703,808,294.5703" style="stroke:#181818;stroke-width:1.0;"/><line style="stroke:#181818;stroke-width:1.0;" x1="660" x2="810" y1="294.5703" y2="294.5703"/><text fill="#000000" font-family="sans-serif" font-size="13" font-weight="bold" lengthAdjust="spacing" textLength="25" x="667" y="289.3076">39.4</text><text fill="#000000" font-family="sans-serif" font-size="13" lengthAdjust="spacing" textLength="108" x="696" y="289.3076">updateTeam(team)</text><polygon fill="#181818" points="671,321.8613,661,325.8613,671,329.8613,667,325.8613" style="stroke:#181818;stroke-width:1.0;"/><line style="stroke:#181818;stroke-width:1.0;stroke-dasharray:2.0,2.0;" x1="665" x2="820" y1="325.8613" y2="325.8613"/><text fill="#000000" font-family="sans-serif" font-size="13" font-weight="bold" lengthAdjust="spacing" textLength="25" x="677" y="320.5986">39.5</text><text fill="#000000" font-family="sans-serif" font-size="13" lengthAdjust="spacing" textLength="53" x="706" y="320.5986">true/false</text><polygon fill="#181818" points="449,367.1523,439,371.1523,449,375.1523,445,371.1523" style="stroke:#181818;stroke-width:1.0;"/><line style="stroke:#181818;stroke-width:1.0;stroke-dasharray:2.0,2.0;" x1="443" x2="654" y1="371.1523" y2="371.1523"/><text fill="#000000" font-family="sans-serif" font-size="13" font-weight="bold" lengthAdjust="spacing" textLength="25" x="455" y="365.8896">39.6</text><text fill="#000000" font-family="sans-serif" font-size="13" lengthAdjust="spacing" textLength="53" x="484" y="365.8896">true/false</text><polygon fill="#181818" points="11,405.4434,1,409.4434,11,413.4434,7,409.4434" style="stroke:#181818;stroke-width:1.0;"/><line style="stroke:#181818;stroke-width:1.0;stroke-dasharray:2.0,2.0;" x1="5" x2="432" y1="409.4434" y2="409.4434"/><text fill="#000000" font-family="sans-serif" font-size="13" font-weight="bold" lengthAdjust="spacing" textLength="14" x="17" y="404.1807">40</text><text fill="#000000" font-family="sans-serif" font-size="13" lengthAdjust="spacing" textLength="53" x="35" y="404.1807">true/false</text><!--SRC=[fL8zJyCm4DtzAquiK8aq85Y8A59K40EeGZGRC5oJQsB5iOFjWFZts4vJGYaiBD4vVX_txdnOMTkQ98vRWT9sZPZcgeaDlNOaSueAZgN6XfcQonPT1OsIAg-qQWYixcXqqs9UOqbB-o48DEKMPId605DXeTwvB66DmX1ZxhVbEM-TCnmagJ6yb1bXavOa2vmhQRKIWlG1e85vzdZ_dO41zYoJ7XzGwUtDuZfb-u0PcdeBzeT0oDBb7MFOMIMxPaKQpYuOYwAhu0U9WmnTUSgHTSNSDOKhfT4glS26ZgsxUK1TRm- -cEoeJazPgLNNGfyJl2HuJOVBBNz3Itr65fnT1tsM_Jq4cyc8EWGNIhMmLXe8ymey2hW4mOtrt2TNzmDuOMoZxvpy49oFsxfRJE-n8z-FAU2YSMl-3SIRTHQq0qTXHvemc_LFvgTnrnQEvGE6SFysTW4tdy7gQw6_48Vv1TPeSUSdZ5r6qTzaV_i9]--></g></svg>