<?xml version="1.0" encoding="us-ascii" standalone="no"?><svg xmlns="http://www.w3.org/2000/svg" xmlns:xlink="http://www.w3.org/1999/xlink" contentStyleType="text/css" height="730px" preserveAspectRatio="none" style="width:1146px;height:730px;background:#FFFFFF;" version="1.1" viewBox="0 0 1146 730" width="1146px" zoomAndPan="magnify"><defs/><g><rect fill="#FFFFFF" height="565.9473" style="stroke:#181818;stroke-width:1.0;" width="10" x="194" y="90.5332"/><rect fill="#FFFFFF" height="31.291" style="stroke:#181818;stroke-width:1.0;" width="10" x="356" y="148.1152"/><rect fill="#FFFFFF" height="31.291" style="stroke:#181818;stroke-width:1.0;" width="10" x="463" y="210.6973"/><rect fill="#FFFFFF" height="344.9102" style="stroke:#181818;stroke-width:1.0;" width="10" x="555" y="273.2793"/><rect fill="#FFFFFF" height="42.291" style="stroke:#181818;stroke-width:1.0;" width="10" x="560" y="523.6074"/><rect fill="#FFFFFF" height="127.1641" style="stroke:#181818;stroke-width:1.0;" width="10" x="811" y="330.8613"/><rect fill="#FFFFFF" height="31.291" style="stroke:#181818;stroke-width:1.0;" width="10" x="1056" y="388.4434"/><rect fill="none" height="520.6563" style="stroke:#000000;stroke-width:1.5;" width="1054.5" x="85.5" y="105.5332"/><rect fill="none" height="299.6191" style="stroke:#000000;stroke-width:1.5;" width="623.5" x="506.5" y="288.2793"/><rect fill="none" height="81.873" style="stroke:#000000;stroke-width:1.5;" width="363" x="757" y="345.8613"/><rect fill="none" height="107.873" style="stroke:#000000;stroke-width:1.5;" width="299.5" x="516.5" y="473.0254"/><line style="stroke:#181818;stroke-width:0.5;stroke-dasharray:5.0,5.0;" x1="198.5" x2="198.5" y1="57.2422" y2="674.4805"/><line style="stroke:#181818;stroke-width:0.5;stroke-dasharray:5.0,5.0;" x1="360.5" x2="360.5" y1="57.2422" y2="674.4805"/><line style="stroke:#181818;stroke-width:0.5;stroke-dasharray:5.0,5.0;" x1="467.5" x2="467.5" y1="57.2422" y2="674.4805"/><line style="stroke:#181818;stroke-width:0.5;stroke-dasharray:5.0,5.0;" x1="559.5" x2="559.5" y1="57.2422" y2="674.4805"/><line style="stroke:#181818;stroke-width:0.5;stroke-dasharray:5.0,5.0;" x1="816" x2="816" y1="57.2422" y2="674.4805"/><line style="stroke:#181818;stroke-width:0.5;stroke-dasharray:5.0,5.0;" x1="1061" x2="1061" y1="57.2422" y2="674.4805"/><rect fill="#E3E3E3" height="32.6211" rx="2.5" ry="2.5" style="stroke:#181818;stroke-width:0.5;" width="207" x="95.5" y="23.6211"/><text fill="#000000" font-family="sans-serif" font-size="14" lengthAdjust="spacing" textLength="193" x="102.5" y="45.7285">:AssignTeamAgendaController</text><rect fill="#E3E3E3" height="32.6211" rx="2.5" ry="2.5" style="stroke:#181818;stroke-width:0.5;" width="207" x="95.5" y="673.4805"/><text fill="#000000" font-family="sans-serif" font-size="14" lengthAdjust="spacing" textLength="193" x="102.5" y="695.5879">:AssignTeamAgendaController</text><rect fill="#E3E3E3" height="32.6211" rx="2.5" ry="2.5" style="stroke:#181818;stroke-width:0.5;" width="97" x="312.5" y="23.6211"/><text fill="#000000" font-family="sans-serif" font-size="14" lengthAdjust="spacing" textLength="83" x="319.5" y="45.7285">:Repositories</text><rect fill="#E3E3E3" height="32.6211" rx="2.5" ry="2.5" style="stroke:#181818;stroke-width:0.5;" width="97" x="312.5" y="673.4805"/><text fill="#000000" font-family="sans-serif" font-size="14" lengthAdjust="spacing" textLength="83" x="319.5" y="695.5879">:Repositories</text><rect fill="#E3E3E3" height="51.2422" rx="2.5" ry="2.5" style="stroke:#181818;stroke-width:0.5;" width="97" x="419.5" y="5"/><text fill="#000000" font-family="sans-serif" font-size="14" lengthAdjust="spacing" textLength="74" x="431" y="27.1074">repositories</text><text fill="#000000" font-family="sans-serif" font-size="14" lengthAdjust="spacing" textLength="83" x="426.5" y="45.7285">:Repositories</text><rect fill="#E3E3E3" height="51.2422" rx="2.5" ry="2.5" style="stroke:#181818;stroke-width:0.5;" width="97" x="419.5" y="673.4805"/><text fill="#000000" font-family="sans-serif" font-size="14" lengthAdjust="spacing" textLength="74" x="431" y="695.5879">repositories</text><text fill="#000000" font-family="sans-serif" font-size="14" lengthAdjust="spacing" textLength="83" x="426.5" y="714.209">:Repositories</text><rect fill="#E3E3E3" height="51.2422" rx="2.5" ry="2.5" style="stroke:#181818;stroke-width:0.5;" width="67" x="526.5" y="5"/><text fill="#000000" font-family="sans-serif" font-size="14" lengthAdjust="spacing" textLength="48" x="536" y="27.1074">agenda</text><text fill="#000000" font-family="sans-serif" font-size="14" lengthAdjust="spacing" textLength="53" x="533.5" y="45.7285">:Agenda</text><rect fill="#E3E3E3" height="51.2422" rx="2.5" ry="2.5" style="stroke:#181818;stroke-width:0.5;" width="67" x="526.5" y="673.4805"/><text fill="#000000" font-family="sans-serif" font-size="14" lengthAdjust="spacing" textLength="48" x="536" y="695.5879">agenda</text><text fill="#000000" font-family="sans-serif" font-size="14" lengthAdjust="spacing" textLength="53" x="533.5" y="714.209">:Agenda</text><rect fill="#E3E3E3" height="51.2422" rx="2.5" ry="2.5" style="stroke:#181818;stroke-width:0.5;" width="98" x="767" y="5"/><text fill="#000000" font-family="sans-serif" font-size="14" lengthAdjust="spacing" textLength="79" x="776.5" y="27.1074">agendaTask</text><text fill="#000000" font-family="sans-serif" font-size="14" lengthAdjust="spacing" textLength="84" x="774" y="45.7285">:AgendaTask</text><rect fill="#E3E3E3" height="51.2422" rx="2.5" ry="2.5" style="stroke:#181818;stroke-width:0.5;" width="98" x="767" y="673.4805"/><text fill="#000000" font-family="sans-serif" font-size="14" lengthAdjust="spacing" textLength="79" x="776.5" y="695.5879">agendaTask</text><text fill="#000000" font-family="sans-serif" font-size="14" lengthAdjust="spacing" textLength="84" x="774" y="714.209">:AgendaTask</text><rect fill="#E3E3E3" height="51.2422" rx="2.5" ry="2.5" style="stroke:#181818;stroke-width:0.5;" width="98" x="1012" y="5"/><text fill="#000000" font-family="sans-serif" font-size="14" lengthAdjust="spacing" textLength="77" x="1022.5" y="27.1074">greenSpace</text><text fill="#000000" font-family="sans-serif" font-size="14" lengthAdjust="spacing" textLength="84" x="1019" y="45.7285">:GreenSpace</text><rect fill="#E3E3E3" height="51.2422" rx="2.5" ry="2.5" style="stroke:#181818;stroke-width:0.5;" width="98" x="1012" y="673.4805"/><text fill="#000000" font-family="sans-serif" font-size="14" lengthAdjust="spacing" textLength="77" x="1022.5" y="695.5879">greenSpace</text><text fill="#000000" font-family="sans-serif" font-size="14" lengthAdjust="spacing" textLength="84" x="1019" y="714.209">:GreenSpace</text><rect fill="#FFFFFF" height="565.9473" style="stroke:#181818;stroke-width:1.0;" width="10" x="194" y="90.5332"/><rect fill="#FFFFFF" height="31.291" style="stroke:#181818;stroke-width:1.0;" width="10" x="356" y="148.1152"/><rect fill="#FFFFFF" height="31.291" style="stroke:#181818;stroke-width:1.0;" width="10" x="463" y="210.6973"/><rect fill="#FFFFFF" height="344.9102" style="stroke:#181818;stroke-width:1.0;" width="10" x="555" y="273.2793"/><rect fill="#FFFFFF" height="42.291" style="stroke:#181818;stroke-width:1.0;" width="10" x="560" y="523.6074"/><rect fill="#FFFFFF" height="127.1641" style="stroke:#181818;stroke-width:1.0;" width="10" x="811" y="330.8613"/><rect fill="#FFFFFF" height="31.291" style="stroke:#181818;stroke-width:1.0;" width="10" x="1056" y="388.4434"/><polygon fill="#181818" points="182,86.5332,192,90.5332,182,94.5332,186,90.5332" style="stroke:#181818;stroke-width:1.0;"/><line style="stroke:#181818;stroke-width:1.0;stroke-dasharray:2.0,2.0;" x1="0" x2="188" y1="90.5332" y2="90.5332"/><text fill="#000000" font-family="sans-serif" font-size="13" font-weight="bold" lengthAdjust="spacing" textLength="14" x="7" y="85.2705">11</text><text fill="#000000" font-family="sans-serif" font-size="13" lengthAdjust="spacing" textLength="157" x="25" y="85.2705">getAllTaskByGreenSpace()</text><path d="M85.5,105.5332 L309.5,105.5332 L309.5,114.8242 L299.5,124.8242 L85.5,124.8242 L85.5,105.5332 " fill="#EEEEEE" style="stroke:#000000;stroke-width:1.5;"/><rect fill="none" height="520.6563" style="stroke:#000000;stroke-width:1.5;" width="1054.5" x="85.5" y="105.5332"/><text fill="#000000" font-family="sans-serif" font-size="13" font-weight="bold" lengthAdjust="spacing" textLength="179" x="100.5" y="120.5615">Get All Task By GreenSpace</text><polygon fill="#181818" points="344,144.1152,354,148.1152,344,152.1152,348,148.1152" style="stroke:#181818;stroke-width:1.0;"/><line style="stroke:#181818;stroke-width:1.0;" x1="204" x2="350" y1="148.1152" y2="148.1152"/><text fill="#000000" font-family="sans-serif" font-size="13" font-weight="bold" lengthAdjust="spacing" textLength="25" x="211" y="142.8525">11.1</text><text fill="#000000" font-family="sans-serif" font-size="13" lengthAdjust="spacing" textLength="75" x="240" y="142.8525">getInstance()</text><polygon fill="#181818" points="215,175.4063,205,179.4063,215,183.4063,211,179.4063" style="stroke:#181818;stroke-width:1.0;"/><line style="stroke:#181818;stroke-width:1.0;stroke-dasharray:2.0,2.0;" x1="209" x2="360" y1="179.4063" y2="179.4063"/><text fill="#000000" font-family="sans-serif" font-size="13" font-weight="bold" lengthAdjust="spacing" textLength="25" x="221" y="174.1436">11.2</text><text fill="#000000" font-family="sans-serif" font-size="13" lengthAdjust="spacing" textLength="67" x="250" y="174.1436">repositories</text><polygon fill="#181818" points="451,206.6973,461,210.6973,451,214.6973,455,210.6973" style="stroke:#181818;stroke-width:1.0;"/><line style="stroke:#181818;stroke-width:1.0;" x1="204" x2="457" y1="210.6973" y2="210.6973"/><text fill="#000000" font-family="sans-serif" font-size="13" font-weight="bold" lengthAdjust="spacing" textLength="25" x="211" y="205.4346">11.3</text><text fill="#000000" font-family="sans-serif" font-size="13" lengthAdjust="spacing" textLength="70" x="240" y="205.4346">getAgenda()</text><polygon fill="#181818" points="215,237.9883,205,241.9883,215,245.9883,211,241.9883" style="stroke:#181818;stroke-width:1.0;"/><line style="stroke:#181818;stroke-width:1.0;stroke-dasharray:2.0,2.0;" x1="209" x2="467" y1="241.9883" y2="241.9883"/><text fill="#000000" font-family="sans-serif" font-size="13" font-weight="bold" lengthAdjust="spacing" textLength="25" x="221" y="236.7256">11.4</text><text fill="#000000" font-family="sans-serif" font-size="13" lengthAdjust="spacing" textLength="42" x="250" y="236.7256">agenda</text><polygon fill="#181818" points="543,269.2793,553,273.2793,543,277.2793,547,273.2793" style="stroke:#181818;stroke-width:1.0;"/><line style="stroke:#181818;stroke-width:1.0;" x1="204" x2="549" y1="273.2793" y2="273.2793"/><text fill="#000000" font-family="sans-serif" font-size="13" font-weight="bold" lengthAdjust="spacing" textLength="25" x="211" y="268.0166">11.5</text><text fill="#000000" font-family="sans-serif" font-size="13" lengthAdjust="spacing" textLength="246" x="240" y="268.0166">getAllTaskByGreenSpace(listGreenSpace)</text><path d="M506.5,288.2793 L579.5,288.2793 L579.5,297.5703 L569.5,307.5703 L506.5,307.5703 L506.5,288.2793 " fill="#EEEEEE" style="stroke:#000000;stroke-width:1.5;"/><rect fill="none" height="299.6191" style="stroke:#000000;stroke-width:1.5;" width="623.5" x="506.5" y="288.2793"/><text fill="#000000" font-family="sans-serif" font-size="13" font-weight="bold" lengthAdjust="spacing" textLength="28" x="521.5" y="303.3076">loop</text><text fill="#000000" font-family="sans-serif" font-size="11" font-weight="bold" lengthAdjust="spacing" textLength="206" x="594.5" y="302.1494">[for each Task in listTask[in Agenda]]</text><polygon fill="#181818" points="799,326.8613,809,330.8613,799,334.8613,803,330.8613" style="stroke:#181818;stroke-width:1.0;"/><line style="stroke:#181818;stroke-width:1.0;" x1="565" x2="805" y1="330.8613" y2="330.8613"/><text fill="#000000" font-family="sans-serif" font-size="13" font-weight="bold" lengthAdjust="spacing" textLength="25" x="572" y="325.5986">11.6</text><text fill="#000000" font-family="sans-serif" font-size="13" lengthAdjust="spacing" textLength="198" x="601" y="325.5986">verifyGreenSpace(listGreenSpace)</text><path d="M757,345.8613 L830,345.8613 L830,355.1523 L820,365.1523 L757,365.1523 L757,345.8613 " fill="#EEEEEE" style="stroke:#000000;stroke-width:1.5;"/><rect fill="none" height="81.873" style="stroke:#000000;stroke-width:1.5;" width="363" x="757" y="345.8613"/><text fill="#000000" font-family="sans-serif" font-size="13" font-weight="bold" lengthAdjust="spacing" textLength="28" x="772" y="360.8896">loop</text><text fill="#000000" font-family="sans-serif" font-size="11" font-weight="bold" lengthAdjust="spacing" textLength="227" x="845" y="359.7314">[for each GreenSpace in ListGreenSpace]</text><polygon fill="#181818" points="1044,384.4434,1054,388.4434,1044,392.4434,1048,388.4434" style="stroke:#181818;stroke-width:1.0;"/><line style="stroke:#181818;stroke-width:1.0;" x1="821" x2="1050" y1="388.4434" y2="388.4434"/><text fill="#000000" font-family="sans-serif" font-size="13" font-weight="bold" lengthAdjust="spacing" textLength="25" x="828" y="383.1807">11.7</text><text fill="#000000" font-family="sans-serif" font-size="13" lengthAdjust="spacing" textLength="187" x="857" y="383.1807">equalsGreenSpace(greenSpace)</text><polygon fill="#181818" points="832,415.7344,822,419.7344,832,423.7344,828,419.7344" style="stroke:#181818;stroke-width:1.0;"/><line style="stroke:#181818;stroke-width:1.0;stroke-dasharray:2.0,2.0;" x1="826" x2="1060" y1="419.7344" y2="419.7344"/><text fill="#000000" font-family="sans-serif" font-size="13" font-weight="bold" lengthAdjust="spacing" textLength="25" x="838" y="414.4717">11.8</text><text fill="#000000" font-family="sans-serif" font-size="13" lengthAdjust="spacing" textLength="53" x="867" y="414.4717">true/false</text><polygon fill="#181818" points="576,454.0254,566,458.0254,576,462.0254,572,458.0254" style="stroke:#181818;stroke-width:1.0;"/><line style="stroke:#181818;stroke-width:1.0;" x1="570" x2="815" y1="458.0254" y2="458.0254"/><text fill="#000000" font-family="sans-serif" font-size="13" font-weight="bold" lengthAdjust="spacing" textLength="25" x="582" y="452.7627">11.9</text><text fill="#000000" font-family="sans-serif" font-size="13" lengthAdjust="spacing" textLength="53" x="611" y="452.7627">true/false</text><path d="M516.5,473.0254 L577.5,473.0254 L577.5,482.3164 L567.5,492.3164 L516.5,492.3164 L516.5,473.0254 " fill="#EEEEEE" style="stroke:#000000;stroke-width:1.5;"/><rect fill="none" height="107.873" style="stroke:#000000;stroke-width:1.5;" width="299.5" x="516.5" y="473.0254"/><text fill="#000000" font-family="sans-serif" font-size="13" font-weight="bold" lengthAdjust="spacing" textLength="16" x="531.5" y="488.0537">alt</text><text fill="#000000" font-family="sans-serif" font-size="11" font-weight="bold" lengthAdjust="spacing" textLength="147" x="592.5" y="486.8955">[verifyGreenSpace == true]</text><line style="stroke:#181818;stroke-width:1.0;" x1="565" x2="612" y1="510.6074" y2="510.6074"/><line style="stroke:#181818;stroke-width:1.0;" x1="612" x2="612" y1="510.6074" y2="523.6074"/><line style="stroke:#181818;stroke-width:1.0;" x1="571" x2="612" y1="523.6074" y2="523.6074"/><polygon fill="#181818" points="581,519.6074,571,523.6074,581,527.6074,577,523.6074" style="stroke:#181818;stroke-width:1.0;"/><text fill="#000000" font-family="sans-serif" font-size="13" font-weight="bold" lengthAdjust="spacing" textLength="32" x="577" y="505.3447">11.10</text><text fill="#000000" font-family="sans-serif" font-size="13" lengthAdjust="spacing" textLength="191" x="613" y="505.3447">addListTaskByGreenSpace(task)</text><line style="stroke:#181818;stroke-width:1.0;stroke-dasharray:2.0,2.0;" x1="570" x2="612" y1="564.8984" y2="564.8984"/><line style="stroke:#181818;stroke-width:1.0;stroke-dasharray:2.0,2.0;" x1="612" x2="612" y1="564.8984" y2="577.8984"/><line style="stroke:#181818;stroke-width:1.0;stroke-dasharray:2.0,2.0;" x1="565" x2="612" y1="577.8984" y2="577.8984"/><polygon fill="#181818" points="575,573.8984,565,577.8984,575,581.8984,571,577.8984" style="stroke:#181818;stroke-width:1.0;"/><text fill="#000000" font-family="sans-serif" font-size="13" font-weight="bold" lengthAdjust="spacing" textLength="32" x="577" y="559.6357">11.11</text><text fill="#000000" font-family="sans-serif" font-size="13" lengthAdjust="spacing" textLength="53" x="613" y="559.6357">true/false</text><polygon fill="#181818" points="215,614.1895,205,618.1895,215,622.1895,211,618.1895" style="stroke:#181818;stroke-width:1.0;"/><line style="stroke:#181818;stroke-width:1.0;stroke-dasharray:2.0,2.0;" x1="209" x2="559" y1="618.1895" y2="618.1895"/><text fill="#000000" font-family="sans-serif" font-size="13" font-weight="bold" lengthAdjust="spacing" textLength="32" x="221" y="612.9268">11.12</text><text fill="#000000" font-family="sans-serif" font-size="13" lengthAdjust="spacing" textLength="45" x="257" y="612.9268">listTask</text><polygon fill="#181818" points="11,652.4805,1,656.4805,11,660.4805,7,656.4805" style="stroke:#181818;stroke-width:1.0;"/><line style="stroke:#181818;stroke-width:1.0;stroke-dasharray:2.0,2.0;" x1="5" x2="198" y1="656.4805" y2="656.4805"/><text fill="#000000" font-family="sans-serif" font-size="13" font-weight="bold" lengthAdjust="spacing" textLength="14" x="17" y="651.2178">12</text><text fill="#000000" font-family="sans-serif" font-size="13" lengthAdjust="spacing" textLength="45" x="35" y="651.2178">listTask</text><!--SRC=[ZLJFRvim5Bw_lyBgPTk1HjqnMYVHB8ggHbKLk6qxUF12h1YRsQPJ_liz6mWc9LKlo9Zln_FtdlbqSAwnoyMYaLovjfQtXQuN5l-sg0fCIi4hmskmHw4QJYjMQwMBWz4rCcTQZBuql3Zo2ZDtaiWC5ewhIiO0U-2b_YTKnVPSMWIWRISAqP0pkrccrefAvSZhj49LyfLMpcWfqTmmRjagtsql63jij1LE6u4sOCuRfqnuSwVLb68YnY_rLk1bc-PJ1W-r4BOhAg3IpVhvHpg7oxazdh7-9U3pD7kQeYk3g39A30czERy4z6QtNZzdB-bg3S1REa9R_q73xku0akHxo84jMOKkbT9RF9n6WSzVBZYtnEA54w_SOHSXL4Qt3TkWOoJ0l09xEB5H0o1OaDLCd9tpexBKtTvkK9yB7-OaebF4_G0eyNsneIxVfJw24FIaZD122931QCcwxamSEjmWsRNqUgvIM3U-ndxzC83Kkc5xRHXP7BfOXMAUvzS_QTqL-nkWDoDRFnba-ef6x3zc5sRfmcn4UiljX0iGFCXhd2jof0jETp1oh6RTubcC-CbOkly9BFhx7AKR4-dKOnNdeAyGk_DnwTw4mkxlkrzEbDzPZPVbjezwqZT76tFT6YG-KD502SS8ZuZSp_7Gvkl4-5P-1VYM9EzH_RV_]--></g></svg>