<?xml version="1.0" encoding="us-ascii" standalone="no"?><svg xmlns="http://www.w3.org/2000/svg" xmlns:xlink="http://www.w3.org/1999/xlink" contentStyleType="text/css" height="2594px" preserveAspectRatio="none" style="width:1977px;height:2594px;background:#FFFFFF;" version="1.1" viewBox="0 0 1977 2594" width="1977px" zoomAndPan="magnify"><defs/><g><!--cluster UI--><g id="cluster_UI"><path d="M1441.5,6.0137 L1456.5,6.0137 A3.75,3.75 0 0 1 1459,8.5137 L1466,30.6348 L1640.5,30.6348 A2.5,2.5 0 0 1 1643,33.1348 L1643,104.5137 A2.5,2.5 0 0 1 1640.5,107.0137 L1441.5,107.0137 A2.5,2.5 0 0 1 1439,104.5137 L1439,8.5137 A2.5,2.5 0 0 1 1441.5,6.0137 " fill="none" style="stroke:#000000;stroke-width:1.5;"/><line style="stroke:#000000;stroke-width:1.5;" x1="1439" x2="1466" y1="30.6348" y2="30.6348"/><text fill="#000000" font-family="sans-serif" font-size="14" font-weight="bold" lengthAdjust="spacing" textLength="14" x="1443" y="23.1211">UI</text></g><!--cluster Controller--><g id="cluster_Controller"><path d="M1263.5,140.0137 L1335.5,140.0137 A3.75,3.75 0 0 1 1338,142.5137 L1345,164.6348 L1818.5,164.6348 A2.5,2.5 0 0 1 1821,167.1348 L1821,406.5137 A2.5,2.5 0 0 1 1818.5,409.0137 L1263.5,409.0137 A2.5,2.5 0 0 1 1261,406.5137 L1261,142.5137 A2.5,2.5 0 0 1 1263.5,140.0137 " fill="none" style="stroke:#000000;stroke-width:1.5;"/><line style="stroke:#000000;stroke-width:1.5;" x1="1261" x2="1345" y1="164.6348" y2="164.6348"/><text fill="#000000" font-family="sans-serif" font-size="14" font-weight="bold" lengthAdjust="spacing" textLength="71" x="1265" y="157.1211">Controller</text></g><!--cluster Domain--><g id="cluster_Domain"><path d="M163.5,460.0137 L216.5,460.0137 A3.75,3.75 0 0 1 219,462.5137 L226,484.6348 L1864.5,484.6348 A2.5,2.5 0 0 1 1867,487.1348 L1867,2584.5137 A2.5,2.5 0 0 1 1864.5,2587.0137 L163.5,2587.0137 A2.5,2.5 0 0 1 161,2584.5137 L161,462.5137 A2.5,2.5 0 0 1 163.5,460.0137 " fill="none" style="stroke:#000000;stroke-width:1.5;"/><line style="stroke:#000000;stroke-width:1.5;" x1="161" x2="226" y1="484.6348" y2="484.6348"/><text fill="#000000" font-family="sans-serif" font-size="14" font-weight="bold" lengthAdjust="spacing" textLength="52" x="165" y="477.1211">Domain</text></g><!--cluster Application--><g id="cluster_Application"><path d="M1315.5,533.0137 L1394.5,533.0137 A3.75,3.75 0 0 1 1397,535.5137 L1404,557.6348 L1575.5,557.6348 A2.5,2.5 0 0 1 1578,560.1348 L1578,842.5137 A2.5,2.5 0 0 1 1575.5,845.0137 L1315.5,845.0137 A2.5,2.5 0 0 1 1313,842.5137 L1313,535.5137 A2.5,2.5 0 0 1 1315.5,533.0137 " fill="none" style="stroke:#000000;stroke-width:1.5;"/><line style="stroke:#000000;stroke-width:1.5;" x1="1313" x2="1404" y1="557.6348" y2="557.6348"/><text fill="#000000" font-family="sans-serif" font-size="14" font-weight="bold" lengthAdjust="spacing" textLength="78" x="1317" y="550.1211">Application</text></g><!--cluster Model--><g id="cluster_Model"><path d="M187.5,1063.0137 L232.5,1063.0137 A3.75,3.75 0 0 1 235,1065.5137 L242,1087.6348 L1840.5,1087.6348 A2.5,2.5 0 0 1 1843,1090.1348 L1843,2560.5137 A2.5,2.5 0 0 1 1840.5,2563.0137 L187.5,2563.0137 A2.5,2.5 0 0 1 185,2560.5137 L185,1065.5137 A2.5,2.5 0 0 1 187.5,1063.0137 " fill="none" style="stroke:#000000;stroke-width:1.5;"/><line style="stroke:#000000;stroke-width:1.5;" x1="185" x2="242" y1="1087.6348" y2="1087.6348"/><text fill="#000000" font-family="sans-serif" font-size="14" font-weight="bold" lengthAdjust="spacing" textLength="44" x="189" y="1080.1211">Model</text></g><!--cluster Repository--><g id="cluster_Repository"><path d="M187.5,505.0137 L264.5,505.0137 A3.75,3.75 0 0 1 267,507.5137 L274,529.6348 L1286.5,529.6348 A2.5,2.5 0 0 1 1289,532.1348 L1289,1009.5137 A2.5,2.5 0 0 1 1286.5,1012.0137 L187.5,1012.0137 A2.5,2.5 0 0 1 185,1009.5137 L185,507.5137 A2.5,2.5 0 0 1 187.5,505.0137 " fill="none" style="stroke:#000000;stroke-width:1.5;"/><line style="stroke:#000000;stroke-width:1.5;" x1="185" x2="274" y1="529.6348" y2="529.6348"/><text fill="#000000" font-family="sans-serif" font-size="14" font-weight="bold" lengthAdjust="spacing" textLength="76" x="189" y="522.1211">Repository</text></g><!--class AssignTeamAgendaUI--><g id="elem_AssignTeamAgendaUI"><rect codeLine="28" fill="#F1F1F1" height="48" id="AssignTeamAgendaUI" rx="2.5" ry="2.5" style="stroke:#181818;stroke-width:0.5;" width="171" x="1455.5" y="43.0137"/><ellipse cx="1470.5" cy="59.0137" fill="#ADD1B2" rx="11" ry="11" style="stroke:#181818;stroke-width:1.0;"/><path d="M1473.2656,54.8887 Q1473.4219,54.6699 1473.6094,54.5605 Q1473.7969,54.4512 1474.0156,54.4512 Q1474.3906,54.4512 1474.625,54.7168 Q1474.8594,54.9668 1474.8594,55.5762 L1474.8594,57.0293 Q1474.8594,57.6387 1474.625,57.9043 Q1474.3906,58.1699 1474.0156,58.1699 Q1473.6719,58.1699 1473.4688,57.9668 Q1473.2656,57.7793 1473.1563,57.2637 Q1473.1094,56.9043 1472.9219,56.7168 Q1472.5938,56.3418 1471.9844,56.123 Q1471.375,55.9043 1470.75,55.9043 Q1469.9844,55.9043 1469.3438,56.2324 Q1468.7188,56.5605 1468.2188,57.3105 Q1467.7344,58.0605 1467.7344,59.0918 L1467.7344,60.1855 Q1467.7344,61.4199 1468.625,62.248 Q1469.5156,63.0605 1471.1094,63.0605 Q1472.0469,63.0605 1472.7031,62.8105 Q1473.0938,62.6543 1473.5156,62.2168 Q1473.7813,61.9512 1473.9219,61.873 Q1474.0781,61.7949 1474.2813,61.7949 Q1474.6094,61.7949 1474.8594,62.0605 Q1475.125,62.3105 1475.125,62.6543 Q1475.125,62.998 1474.7813,63.4043 Q1474.2813,63.9824 1473.4844,64.3105 Q1472.4063,64.7637 1471.1094,64.7637 Q1469.5938,64.7637 1468.3906,64.1387 Q1467.4063,63.6387 1466.7188,62.5762 Q1466.0313,61.498 1466.0313,60.2168 L1466.0313,59.0605 Q1466.0313,57.7324 1466.6406,56.5918 Q1467.2656,55.4355 1468.3594,54.8262 Q1469.4531,54.2012 1470.6875,54.2012 Q1471.4219,54.2012 1472.0625,54.373 Q1472.7188,54.5293 1473.2656,54.8887 Z " fill="#000000"/><text fill="#000000" font-family="sans-serif" font-size="14" lengthAdjust="spacing" textLength="139" x="1484.5" y="64.8105">AssignTeamAgendaUI</text><line style="stroke:#181818;stroke-width:0.5;" x1="1456.5" x2="1625.5" y1="75.0137" y2="75.0137"/><line style="stroke:#181818;stroke-width:0.5;" x1="1456.5" x2="1625.5" y1="83.0137" y2="83.0137"/></g><!--class AssignTeamAgendaController--><g id="elem_AssignTeamAgendaController"><rect codeLine="15" fill="#F1F1F1" height="215.5898" id="AssignTeamAgendaController" rx="2.5" ry="2.5" style="stroke:#181818;stroke-width:0.5;" width="527" x="1277.5" y="177.0137"/><ellipse cx="1442.25" cy="193.0137" fill="#ADD1B2" rx="11" ry="11" style="stroke:#181818;stroke-width:1.0;"/><path d="M1445.0156,188.8887 Q1445.1719,188.6699 1445.3594,188.5605 Q1445.5469,188.4512 1445.7656,188.4512 Q1446.1406,188.4512 1446.375,188.7168 Q1446.6094,188.9668 1446.6094,189.5762 L1446.6094,191.0293 Q1446.6094,191.6387 1446.375,191.9043 Q1446.1406,192.1699 1445.7656,192.1699 Q1445.4219,192.1699 1445.2188,191.9668 Q1445.0156,191.7793 1444.9063,191.2637 Q1444.8594,190.9043 1444.6719,190.7168 Q1444.3438,190.3418 1443.7344,190.123 Q1443.125,189.9043 1442.5,189.9043 Q1441.7344,189.9043 1441.0938,190.2324 Q1440.4688,190.5605 1439.9688,191.3105 Q1439.4844,192.0605 1439.4844,193.0918 L1439.4844,194.1855 Q1439.4844,195.4199 1440.375,196.248 Q1441.2656,197.0605 1442.8594,197.0605 Q1443.7969,197.0605 1444.4531,196.8105 Q1444.8438,196.6543 1445.2656,196.2168 Q1445.5313,195.9512 1445.6719,195.873 Q1445.8281,195.7949 1446.0313,195.7949 Q1446.3594,195.7949 1446.6094,196.0605 Q1446.875,196.3105 1446.875,196.6543 Q1446.875,196.998 1446.5313,197.4043 Q1446.0313,197.9824 1445.2344,198.3105 Q1444.1563,198.7637 1442.8594,198.7637 Q1441.3438,198.7637 1440.1406,198.1387 Q1439.1563,197.6387 1438.4688,196.5762 Q1437.7813,195.498 1437.7813,194.2168 L1437.7813,193.0605 Q1437.7813,191.7324 1438.3906,190.5918 Q1439.0156,189.4355 1440.1094,188.8262 Q1441.2031,188.2012 1442.4375,188.2012 Q1443.1719,188.2012 1443.8125,188.373 Q1444.4688,188.5293 1445.0156,188.8887 Z " fill="#000000"/><text fill="#000000" font-family="sans-serif" font-size="14" lengthAdjust="spacing" textLength="189" x="1462.75" y="198.8105">AssignTeamAgendaController</text><line style="stroke:#181818;stroke-width:0.5;" x1="1278.5" x2="1803.5" y1="209.0137" y2="209.0137"/><line style="stroke:#181818;stroke-width:0.5;" x1="1278.5" x2="1803.5" y1="217.0137" y2="217.0137"/><ellipse cx="1288.5" cy="231.8242" fill="#84BE84" rx="3" ry="3" style="stroke:#038048;stroke-width:1.0;"/><text fill="#000000" font-family="sans-serif" font-size="14" lengthAdjust="spacing" textLength="501" x="1297.5" y="236.1211">AssignTeamAgendaController(collaboratorRepository, agenda,teamRepository)</text><ellipse cx="1288.5" cy="250.4453" fill="#84BE84" rx="3" ry="3" style="stroke:#038048;stroke-width:1.0;"/><text fill="#000000" font-family="sans-serif" font-size="14" lengthAdjust="spacing" textLength="92" x="1297.5" y="254.7422">getAllByGSM()</text><ellipse cx="1288.5" cy="269.0664" fill="#84BE84" rx="3" ry="3" style="stroke:#038048;stroke-width:1.0;"/><text fill="#000000" font-family="sans-serif" font-size="14" lengthAdjust="spacing" textLength="81" x="1297.5" y="273.3633">getAllTeam()</text><ellipse cx="1288.5" cy="287.6875" fill="#84BE84" rx="3" ry="3" style="stroke:#038048;stroke-width:1.0;"/><text fill="#000000" font-family="sans-serif" font-size="14" lengthAdjust="spacing" textLength="424" x="1297.5" y="291.9844">assignTeamTask(teamCollaboratorName,taskParkName,taskName)</text><rect fill="#F24D5C" height="6" style="stroke:#C82930;stroke-width:1.0;" width="6" x="1285.5" y="303.3086"/><text fill="#000000" font-family="sans-serif" font-size="14" lengthAdjust="spacing" textLength="148" x="1297.5" y="310.6055">assignTeam(team,task)</text><rect fill="#F24D5C" height="6" style="stroke:#C82930;stroke-width:1.0;" width="6" x="1285.5" y="321.9297"/><text fill="#000000" font-family="sans-serif" font-size="14" lengthAdjust="spacing" textLength="172" x="1297.5" y="329.2266">sendEmailTeam(team,msg)</text><rect fill="#F24D5C" height="6" style="stroke:#C82930;stroke-width:1.0;" width="6" x="1285.5" y="340.5508"/><text fill="#000000" font-family="sans-serif" font-size="14" lengthAdjust="spacing" textLength="305" x="1297.5" y="347.8477">getAllGreenSpaceByGSM(greenSpaceManager)</text><rect fill="#F24D5C" height="6" style="stroke:#C82930;stroke-width:1.0;" width="6" x="1285.5" y="359.1719"/><text fill="#000000" font-family="sans-serif" font-size="14" lengthAdjust="spacing" textLength="269" x="1297.5" y="366.4688">getAllTaskByGreenSpace(listGreenSpace)</text><rect fill="#F24D5C" height="6" style="stroke:#C82930;stroke-width:1.0;" width="6" x="1285.5" y="377.793"/><text fill="#000000" font-family="sans-serif" font-size="14" lengthAdjust="spacing" textLength="144" x="1297.5" y="385.0898">getGSMFromSession()</text></g><!--class ApplicationSession--><g id="elem_ApplicationSession"><rect codeLine="39" fill="#F1F1F1" height="85.2422" id="ApplicationSession" rx="2.5" ry="2.5" style="stroke:#181818;stroke-width:0.5;" width="154" x="1329" y="570.0137"/><ellipse cx="1345.35" cy="586.0137" fill="#ADD1B2" rx="11" ry="11" style="stroke:#181818;stroke-width:1.0;"/><path d="M1348.1156,581.8887 Q1348.2719,581.6699 1348.4594,581.5605 Q1348.6469,581.4512 1348.8656,581.4512 Q1349.2406,581.4512 1349.475,581.7168 Q1349.7094,581.9668 1349.7094,582.5762 L1349.7094,584.0293 Q1349.7094,584.6387 1349.475,584.9043 Q1349.2406,585.1699 1348.8656,585.1699 Q1348.5219,585.1699 1348.3188,584.9668 Q1348.1156,584.7793 1348.0063,584.2637 Q1347.9594,583.9043 1347.7719,583.7168 Q1347.4438,583.3418 1346.8344,583.123 Q1346.225,582.9043 1345.6,582.9043 Q1344.8344,582.9043 1344.1938,583.2324 Q1343.5688,583.5605 1343.0688,584.3105 Q1342.5844,585.0605 1342.5844,586.0918 L1342.5844,587.1855 Q1342.5844,588.4199 1343.475,589.248 Q1344.3656,590.0605 1345.9594,590.0605 Q1346.8969,590.0605 1347.5531,589.8105 Q1347.9438,589.6543 1348.3656,589.2168 Q1348.6313,588.9512 1348.7719,588.873 Q1348.9281,588.7949 1349.1313,588.7949 Q1349.4594,588.7949 1349.7094,589.0605 Q1349.975,589.3105 1349.975,589.6543 Q1349.975,589.998 1349.6313,590.4043 Q1349.1313,590.9824 1348.3344,591.3105 Q1347.2563,591.7637 1345.9594,591.7637 Q1344.4438,591.7637 1343.2406,591.1387 Q1342.2563,590.6387 1341.5688,589.5762 Q1340.8813,588.498 1340.8813,587.2168 L1340.8813,586.0605 Q1340.8813,584.7324 1341.4906,583.5918 Q1342.1156,582.4355 1343.2094,581.8262 Q1344.3031,581.2012 1345.5375,581.2012 Q1346.2719,581.2012 1346.9125,581.373 Q1347.5688,581.5293 1348.1156,581.8887 Z " fill="#000000"/><text fill="#000000" font-family="sans-serif" font-size="14" lengthAdjust="spacing" textLength="119" x="1359.65" y="591.8105">ApplicationSession</text><line style="stroke:#181818;stroke-width:0.5;" x1="1330" x2="1482" y1="602.0137" y2="602.0137"/><line style="stroke:#181818;stroke-width:0.5;" x1="1330" x2="1482" y1="610.0137" y2="610.0137"/><ellipse cx="1340" cy="624.8242" fill="#84BE84" rx="3" ry="3" style="stroke:#038048;stroke-width:1.0;"/><text fill="#000000" font-family="sans-serif" font-size="14" lengthAdjust="spacing" textLength="120" x="1349" y="629.1211">static getInstance()</text><ellipse cx="1340" cy="643.4453" fill="#84BE84" rx="3" ry="3" style="stroke:#038048;stroke-width:1.0;"/><text fill="#000000" font-family="sans-serif" font-size="14" lengthAdjust="spacing" textLength="128" x="1349" y="647.7422">getCurrentSession()</text></g><!--class UserSession--><g id="elem_UserSession"><rect codeLine="45" fill="#F1F1F1" height="66.6211" id="UserSession" rx="2.5" ry="2.5" style="stroke:#181818;stroke-width:0.5;" width="119" x="1418.5" y="762.0137"/><ellipse cx="1437.1" cy="778.0137" fill="#ADD1B2" rx="11" ry="11" style="stroke:#181818;stroke-width:1.0;"/><path d="M1439.8656,773.8887 Q1440.0219,773.6699 1440.2094,773.5605 Q1440.3969,773.4512 1440.6156,773.4512 Q1440.9906,773.4512 1441.225,773.7168 Q1441.4594,773.9668 1441.4594,774.5762 L1441.4594,776.0293 Q1441.4594,776.6387 1441.225,776.9043 Q1440.9906,777.1699 1440.6156,777.1699 Q1440.2719,777.1699 1440.0688,776.9668 Q1439.8656,776.7793 1439.7563,776.2637 Q1439.7094,775.9043 1439.5219,775.7168 Q1439.1938,775.3418 1438.5844,775.123 Q1437.975,774.9043 1437.35,774.9043 Q1436.5844,774.9043 1435.9438,775.2324 Q1435.3188,775.5605 1434.8188,776.3105 Q1434.3344,777.0605 1434.3344,778.0918 L1434.3344,779.1855 Q1434.3344,780.4199 1435.225,781.248 Q1436.1156,782.0605 1437.7094,782.0605 Q1438.6469,782.0605 1439.3031,781.8105 Q1439.6938,781.6543 1440.1156,781.2168 Q1440.3813,780.9512 1440.5219,780.873 Q1440.6781,780.7949 1440.8813,780.7949 Q1441.2094,780.7949 1441.4594,781.0605 Q1441.725,781.3105 1441.725,781.6543 Q1441.725,781.998 1441.3813,782.4043 Q1440.8813,782.9824 1440.0844,783.3105 Q1439.0063,783.7637 1437.7094,783.7637 Q1436.1938,783.7637 1434.9906,783.1387 Q1434.0063,782.6387 1433.3188,781.5762 Q1432.6313,780.498 1432.6313,779.2168 L1432.6313,778.0605 Q1432.6313,776.7324 1433.2406,775.5918 Q1433.8656,774.4355 1434.9594,773.8262 Q1436.0531,773.2012 1437.2875,773.2012 Q1438.0219,773.2012 1438.6625,773.373 Q1439.3188,773.5293 1439.8656,773.8887 Z " fill="#000000"/><text fill="#000000" font-family="sans-serif" font-size="14" lengthAdjust="spacing" textLength="79" x="1451.9" y="783.8105">UserSession</text><line style="stroke:#181818;stroke-width:0.5;" x1="1419.5" x2="1536.5" y1="794.0137" y2="794.0137"/><line style="stroke:#181818;stroke-width:0.5;" x1="1419.5" x2="1536.5" y1="802.0137" y2="802.0137"/><ellipse cx="1429.5" cy="816.8242" fill="#84BE84" rx="3" ry="3" style="stroke:#038048;stroke-width:1.0;"/><text fill="#000000" font-family="sans-serif" font-size="14" lengthAdjust="spacing" textLength="93" x="1438.5" y="821.1211">getUserEmail()</text></g><!--class EmailService--><g id="elem_EmailService"><rect codeLine="53" fill="#F1F1F1" height="66.6211" id="EmailService" rx="2.5" ry="2.5" style="stroke:#181818;stroke-width:0.5;" width="227" x="201.5" y="2306.0137"/><ellipse cx="270.75" cy="2322.0137" fill="#B4A7E5" rx="11" ry="11" style="stroke:#181818;stroke-width:1.0;"/><path d="M271.7031,2318.6543 L271.7031,2325.3105 L273.4219,2325.3105 Q274.0313,2325.3105 274.2969,2325.5449 Q274.5625,2325.7793 274.5625,2326.1699 Q274.5625,2326.5449 274.2969,2326.7793 Q274.0313,2327.0137 273.4219,2327.0137 L268.2813,2327.0137 Q267.6719,2327.0137 267.4063,2326.7793 Q267.1406,2326.5449 267.1406,2326.1543 Q267.1406,2325.7793 267.4063,2325.5449 Q267.6719,2325.3105 268.2813,2325.3105 L270,2325.3105 L270,2318.6543 L268.2813,2318.6543 Q267.6719,2318.6543 267.4063,2318.4199 Q267.1406,2318.1855 267.1406,2317.7949 Q267.1406,2317.4199 267.4063,2317.1855 Q267.6719,2316.9512 268.2813,2316.9512 L273.4219,2316.9512 Q274.0313,2316.9512 274.2969,2317.1855 Q274.5625,2317.4199 274.5625,2317.7949 Q274.5625,2318.1855 274.2969,2318.4199 Q274.0313,2318.6543 273.4219,2318.6543 L271.7031,2318.6543 Z " fill="#000000"/><text fill="#000000" font-family="sans-serif" font-size="14" font-style="italic" lengthAdjust="spacing" textLength="80" x="291.25" y="2327.8105">EmailService</text><line style="stroke:#181818;stroke-width:0.5;" x1="202.5" x2="427.5" y1="2338.0137" y2="2338.0137"/><line style="stroke:#181818;stroke-width:0.5;" x1="202.5" x2="427.5" y1="2346.0137" y2="2346.0137"/><ellipse cx="212.5" cy="2360.8242" fill="#84BE84" rx="3" ry="3" style="stroke:#038048;stroke-width:1.0;"/><text fill="#000000" font-family="sans-serif" font-size="14" lengthAdjust="spacing" textLength="201" x="221.5" y="2365.1211">sendEmailByService(email,msg)</text></g><!--class DeiEmailService--><g id="elem_DeiEmailService"><rect codeLine="57" fill="#F1F1F1" height="48" id="DeiEmailService" rx="2.5" ry="2.5" style="stroke:#181818;stroke-width:0.5;" width="134" x="221" y="2499.0137"/><ellipse cx="236" cy="2515.0137" fill="#ADD1B2" rx="11" ry="11" style="stroke:#181818;stroke-width:1.0;"/><path d="M238.7656,2510.8887 Q238.9219,2510.6699 239.1094,2510.5605 Q239.2969,2510.4512 239.5156,2510.4512 Q239.8906,2510.4512 240.125,2510.7168 Q240.3594,2510.9668 240.3594,2511.5762 L240.3594,2513.0293 Q240.3594,2513.6387 240.125,2513.9043 Q239.8906,2514.1699 239.5156,2514.1699 Q239.1719,2514.1699 238.9688,2513.9668 Q238.7656,2513.7793 238.6563,2513.2637 Q238.6094,2512.9043 238.4219,2512.7168 Q238.0938,2512.3418 237.4844,2512.123 Q236.875,2511.9043 236.25,2511.9043 Q235.4844,2511.9043 234.8438,2512.2324 Q234.2188,2512.5605 233.7188,2513.3105 Q233.2344,2514.0605 233.2344,2515.0918 L233.2344,2516.1855 Q233.2344,2517.4199 234.125,2518.248 Q235.0156,2519.0605 236.6094,2519.0605 Q237.5469,2519.0605 238.2031,2518.8105 Q238.5938,2518.6543 239.0156,2518.2168 Q239.2813,2517.9512 239.4219,2517.873 Q239.5781,2517.7949 239.7813,2517.7949 Q240.1094,2517.7949 240.3594,2518.0605 Q240.625,2518.3105 240.625,2518.6543 Q240.625,2518.998 240.2813,2519.4043 Q239.7813,2519.9824 238.9844,2520.3105 Q237.9063,2520.7637 236.6094,2520.7637 Q235.0938,2520.7637 233.8906,2520.1387 Q232.9063,2519.6387 232.2188,2518.5762 Q231.5313,2517.498 231.5313,2516.2168 L231.5313,2515.0605 Q231.5313,2513.7324 232.1406,2512.5918 Q232.7656,2511.4355 233.8594,2510.8262 Q234.9531,2510.2012 236.1875,2510.2012 Q236.9219,2510.2012 237.5625,2510.373 Q238.2188,2510.5293 238.7656,2510.8887 Z " fill="#000000"/><text fill="#000000" font-family="sans-serif" font-size="14" lengthAdjust="spacing" textLength="102" x="250" y="2520.8105">DeiEmailService</text><line style="stroke:#181818;stroke-width:0.5;" x1="222" x2="354" y1="2531.0137" y2="2531.0137"/><line style="stroke:#181818;stroke-width:0.5;" x1="222" x2="354" y1="2539.0137" y2="2539.0137"/></g><!--class GmailEmailService--><g id="elem_GmailEmailService"><rect codeLine="61" fill="#F1F1F1" height="48" id="GmailEmailService" rx="2.5" ry="2.5" style="stroke:#181818;stroke-width:0.5;" width="149" x="390.5" y="2499.0137"/><ellipse cx="405.5" cy="2515.0137" fill="#ADD1B2" rx="11" ry="11" style="stroke:#181818;stroke-width:1.0;"/><path d="M408.2656,2510.8887 Q408.4219,2510.6699 408.6094,2510.5605 Q408.7969,2510.4512 409.0156,2510.4512 Q409.3906,2510.4512 409.625,2510.7168 Q409.8594,2510.9668 409.8594,2511.5762 L409.8594,2513.0293 Q409.8594,2513.6387 409.625,2513.9043 Q409.3906,2514.1699 409.0156,2514.1699 Q408.6719,2514.1699 408.4688,2513.9668 Q408.2656,2513.7793 408.1563,2513.2637 Q408.1094,2512.9043 407.9219,2512.7168 Q407.5938,2512.3418 406.9844,2512.123 Q406.375,2511.9043 405.75,2511.9043 Q404.9844,2511.9043 404.3438,2512.2324 Q403.7188,2512.5605 403.2188,2513.3105 Q402.7344,2514.0605 402.7344,2515.0918 L402.7344,2516.1855 Q402.7344,2517.4199 403.625,2518.248 Q404.5156,2519.0605 406.1094,2519.0605 Q407.0469,2519.0605 407.7031,2518.8105 Q408.0938,2518.6543 408.5156,2518.2168 Q408.7813,2517.9512 408.9219,2517.873 Q409.0781,2517.7949 409.2813,2517.7949 Q409.6094,2517.7949 409.8594,2518.0605 Q410.125,2518.3105 410.125,2518.6543 Q410.125,2518.998 409.7813,2519.4043 Q409.2813,2519.9824 408.4844,2520.3105 Q407.4063,2520.7637 406.1094,2520.7637 Q404.5938,2520.7637 403.3906,2520.1387 Q402.4063,2519.6387 401.7188,2518.5762 Q401.0313,2517.498 401.0313,2516.2168 L401.0313,2515.0605 Q401.0313,2513.7324 401.6406,2512.5918 Q402.2656,2511.4355 403.3594,2510.8262 Q404.4531,2510.2012 405.6875,2510.2012 Q406.4219,2510.2012 407.0625,2510.373 Q407.7188,2510.5293 408.2656,2510.8887 Z " fill="#000000"/><text fill="#000000" font-family="sans-serif" font-size="14" lengthAdjust="spacing" textLength="117" x="419.5" y="2520.8105">GmailEmailService</text><line style="stroke:#181818;stroke-width:0.5;" x1="391.5" x2="538.5" y1="2531.0137" y2="2531.0137"/><line style="stroke:#181818;stroke-width:0.5;" x1="391.5" x2="538.5" y1="2539.0137" y2="2539.0137"/></g><!--class Team--><g id="elem_Team"><rect codeLine="65" fill="#F1F1F1" height="85.2422" id="Team" rx="2.5" ry="2.5" style="stroke:#181818;stroke-width:0.5;" width="329" x="206.5" y="2049.0137"/><ellipse cx="348.75" cy="2065.0137" fill="#ADD1B2" rx="11" ry="11" style="stroke:#181818;stroke-width:1.0;"/><path d="M351.5156,2060.8887 Q351.6719,2060.6699 351.8594,2060.5605 Q352.0469,2060.4512 352.2656,2060.4512 Q352.6406,2060.4512 352.875,2060.7168 Q353.1094,2060.9668 353.1094,2061.5762 L353.1094,2063.0293 Q353.1094,2063.6387 352.875,2063.9043 Q352.6406,2064.1699 352.2656,2064.1699 Q351.9219,2064.1699 351.7188,2063.9668 Q351.5156,2063.7793 351.4063,2063.2637 Q351.3594,2062.9043 351.1719,2062.7168 Q350.8438,2062.3418 350.2344,2062.123 Q349.625,2061.9043 349,2061.9043 Q348.2344,2061.9043 347.5938,2062.2324 Q346.9688,2062.5605 346.4688,2063.3105 Q345.9844,2064.0605 345.9844,2065.0918 L345.9844,2066.1855 Q345.9844,2067.4199 346.875,2068.248 Q347.7656,2069.0605 349.3594,2069.0605 Q350.2969,2069.0605 350.9531,2068.8105 Q351.3438,2068.6543 351.7656,2068.2168 Q352.0313,2067.9512 352.1719,2067.873 Q352.3281,2067.7949 352.5313,2067.7949 Q352.8594,2067.7949 353.1094,2068.0605 Q353.375,2068.3105 353.375,2068.6543 Q353.375,2068.998 353.0313,2069.4043 Q352.5313,2069.9824 351.7344,2070.3105 Q350.6563,2070.7637 349.3594,2070.7637 Q347.8438,2070.7637 346.6406,2070.1387 Q345.6563,2069.6387 344.9688,2068.5762 Q344.2813,2067.498 344.2813,2066.2168 L344.2813,2065.0605 Q344.2813,2063.7324 344.8906,2062.5918 Q345.5156,2061.4355 346.6094,2060.8262 Q347.7031,2060.2012 348.9375,2060.2012 Q349.6719,2060.2012 350.3125,2060.373 Q350.9688,2060.5293 351.5156,2060.8887 Z " fill="#000000"/><text fill="#000000" font-family="sans-serif" font-size="14" lengthAdjust="spacing" textLength="36" x="369.25" y="2070.8105">Team</text><line style="stroke:#181818;stroke-width:0.5;" x1="207.5" x2="534.5" y1="2081.0137" y2="2081.0137"/><line style="stroke:#181818;stroke-width:0.5;" x1="207.5" x2="534.5" y1="2089.0137" y2="2089.0137"/><ellipse cx="217.5" cy="2103.8242" fill="#84BE84" rx="3" ry="3" style="stroke:#038048;stroke-width:1.0;"/><text fill="#000000" font-family="sans-serif" font-size="14" lengthAdjust="spacing" textLength="303" x="226.5" y="2108.1211">verifyCollaboratorName(teamCollaboratorName)</text><ellipse cx="217.5" cy="2122.4453" fill="#84BE84" rx="3" ry="3" style="stroke:#038048;stroke-width:1.0;"/><text fill="#000000" font-family="sans-serif" font-size="14" lengthAdjust="spacing" textLength="101" x="226.5" y="2126.7422">sendEmail(msg)</text></g><!--class ICollaborator--><g id="elem_ICollaborator"><rect codeLine="70" fill="#F1F1F1" height="271.4531" id="ICollaborator" rx="2.5" ry="2.5" style="stroke:#181818;stroke-width:0.5;" width="150" x="976" y="1100.0137"/><ellipse cx="1007.2" cy="1116.0137" fill="#B4A7E5" rx="11" ry="11" style="stroke:#181818;stroke-width:1.0;"/><path d="M1008.1531,1112.6543 L1008.1531,1119.3105 L1009.8719,1119.3105 Q1010.4813,1119.3105 1010.7469,1119.5449 Q1011.0125,1119.7793 1011.0125,1120.1699 Q1011.0125,1120.5449 1010.7469,1120.7793 Q1010.4813,1121.0137 1009.8719,1121.0137 L1004.7313,1121.0137 Q1004.1219,1121.0137 1003.8563,1120.7793 Q1003.5906,1120.5449 1003.5906,1120.1543 Q1003.5906,1119.7793 1003.8563,1119.5449 Q1004.1219,1119.3105 1004.7313,1119.3105 L1006.45,1119.3105 L1006.45,1112.6543 L1004.7313,1112.6543 Q1004.1219,1112.6543 1003.8563,1112.4199 Q1003.5906,1112.1855 1003.5906,1111.7949 Q1003.5906,1111.4199 1003.8563,1111.1855 Q1004.1219,1110.9512 1004.7313,1110.9512 L1009.8719,1110.9512 Q1010.4813,1110.9512 1010.7469,1111.1855 Q1011.0125,1111.4199 1011.0125,1111.7949 Q1011.0125,1112.1855 1010.7469,1112.4199 Q1010.4813,1112.6543 1009.8719,1112.6543 L1008.1531,1112.6543 Z " fill="#000000"/><text fill="#000000" font-family="sans-serif" font-size="14" font-style="italic" lengthAdjust="spacing" textLength="82" x="1024.8" y="1121.8105">ICollaborator</text><line style="stroke:#181818;stroke-width:0.5;" x1="977" x2="1125" y1="1132.0137" y2="1132.0137"/><line style="stroke:#181818;stroke-width:0.5;" x1="977" x2="1125" y1="1140.0137" y2="1140.0137"/><ellipse cx="987" cy="1154.8242" fill="#84BE84" rx="3" ry="3" style="stroke:#038048;stroke-width:1.0;"/><text fill="#000000" font-family="sans-serif" font-size="14" lengthAdjust="spacing" textLength="66" x="996" y="1159.1211">getName()</text><ellipse cx="987" cy="1173.4453" fill="#84BE84" rx="3" ry="3" style="stroke:#038048;stroke-width:1.0;"/><text fill="#000000" font-family="sans-serif" font-size="14" lengthAdjust="spacing" textLength="77" x="996" y="1177.7422">getListSkill()</text><ellipse cx="987" cy="1192.0664" fill="#84BE84" rx="3" ry="3" style="stroke:#038048;stroke-width:1.0;"/><text fill="#000000" font-family="sans-serif" font-size="14" lengthAdjust="spacing" textLength="52" x="996" y="1196.3633">getJob()</text><ellipse cx="987" cy="1210.6875" fill="#84BE84" rx="3" ry="3" style="stroke:#038048;stroke-width:1.0;"/><text fill="#000000" font-family="sans-serif" font-size="14" lengthAdjust="spacing" textLength="104" x="996" y="1214.9844">getDateOfBirth()</text><ellipse cx="987" cy="1229.3086" fill="#84BE84" rx="3" ry="3" style="stroke:#038048;stroke-width:1.0;"/><text fill="#000000" font-family="sans-serif" font-size="14" lengthAdjust="spacing" textLength="124" x="996" y="1233.6055">getAdmissionDate()</text><ellipse cx="987" cy="1247.9297" fill="#84BE84" rx="3" ry="3" style="stroke:#038048;stroke-width:1.0;"/><text fill="#000000" font-family="sans-serif" font-size="14" lengthAdjust="spacing" textLength="82" x="996" y="1252.2266">getAddress()</text><ellipse cx="987" cy="1266.5508" fill="#84BE84" rx="3" ry="3" style="stroke:#038048;stroke-width:1.0;"/><text fill="#000000" font-family="sans-serif" font-size="14" lengthAdjust="spacing" textLength="94" x="996" y="1270.8477">getDocument()</text><ellipse cx="987" cy="1285.1719" fill="#84BE84" rx="3" ry="3" style="stroke:#038048;stroke-width:1.0;"/><text fill="#000000" font-family="sans-serif" font-size="14" lengthAdjust="spacing" textLength="120" x="996" y="1289.4688">getPhoneNumber()</text><ellipse cx="987" cy="1303.793" fill="#84BE84" rx="3" ry="3" style="stroke:#038048;stroke-width:1.0;"/><text fill="#000000" font-family="sans-serif" font-size="14" lengthAdjust="spacing" textLength="64" x="996" y="1308.0898">getEmail()</text><ellipse cx="987" cy="1322.4141" fill="#84BE84" rx="3" ry="3" style="stroke:#038048;stroke-width:1.0;"/><text fill="#000000" font-family="sans-serif" font-size="14" lengthAdjust="spacing" textLength="89" x="996" y="1326.7109">getTaxpayer()</text><ellipse cx="987" cy="1341.0352" fill="#84BE84" rx="3" ry="3" style="stroke:#038048;stroke-width:1.0;"/><text fill="#000000" font-family="sans-serif" font-size="14" lengthAdjust="spacing" textLength="100" x="996" y="1345.332">hasEmail(email)</text><ellipse cx="987" cy="1359.6563" fill="#84BE84" rx="3" ry="3" style="stroke:#038048;stroke-width:1.0;"/><text fill="#000000" font-family="sans-serif" font-size="14" lengthAdjust="spacing" textLength="104" x="996" y="1363.9531">hasName(name)</text></g><!--class Collaborator--><g id="elem_Collaborator"><rect codeLine="86" fill="#F1F1F1" height="159.7266" id="Collaborator" rx="2.5" ry="2.5" style="stroke:#181818;stroke-width:0.5;" width="240" x="875" y="1441.0137"/><ellipse cx="951.75" cy="1457.0137" fill="#ADD1B2" rx="11" ry="11" style="stroke:#181818;stroke-width:1.0;"/><path d="M954.5156,1452.8887 Q954.6719,1452.6699 954.8594,1452.5605 Q955.0469,1452.4512 955.2656,1452.4512 Q955.6406,1452.4512 955.875,1452.7168 Q956.1094,1452.9668 956.1094,1453.5762 L956.1094,1455.0293 Q956.1094,1455.6387 955.875,1455.9043 Q955.6406,1456.1699 955.2656,1456.1699 Q954.9219,1456.1699 954.7188,1455.9668 Q954.5156,1455.7793 954.4063,1455.2637 Q954.3594,1454.9043 954.1719,1454.7168 Q953.8438,1454.3418 953.2344,1454.123 Q952.625,1453.9043 952,1453.9043 Q951.2344,1453.9043 950.5938,1454.2324 Q949.9688,1454.5605 949.4688,1455.3105 Q948.9844,1456.0605 948.9844,1457.0918 L948.9844,1458.1855 Q948.9844,1459.4199 949.875,1460.248 Q950.7656,1461.0605 952.3594,1461.0605 Q953.2969,1461.0605 953.9531,1460.8105 Q954.3438,1460.6543 954.7656,1460.2168 Q955.0313,1459.9512 955.1719,1459.873 Q955.3281,1459.7949 955.5313,1459.7949 Q955.8594,1459.7949 956.1094,1460.0605 Q956.375,1460.3105 956.375,1460.6543 Q956.375,1460.998 956.0313,1461.4043 Q955.5313,1461.9824 954.7344,1462.3105 Q953.6563,1462.7637 952.3594,1462.7637 Q950.8438,1462.7637 949.6406,1462.1387 Q948.6563,1461.6387 947.9688,1460.5762 Q947.2813,1459.498 947.2813,1458.2168 L947.2813,1457.0605 Q947.2813,1455.7324 947.8906,1454.5918 Q948.5156,1453.4355 949.6094,1452.8262 Q950.7031,1452.2012 951.9375,1452.2012 Q952.6719,1452.2012 953.3125,1452.373 Q953.9688,1452.5293 954.5156,1452.8887 Z " fill="#000000"/><text fill="#000000" font-family="sans-serif" font-size="14" lengthAdjust="spacing" textLength="78" x="972.25" y="1462.8105">Collaborator</text><line style="stroke:#181818;stroke-width:0.5;" x1="876" x2="1114" y1="1473.0137" y2="1473.0137"/><rect fill="none" height="6" style="stroke:#C82930;stroke-width:1.0;" width="6" x="883" y="1484.8242"/><text fill="#000000" font-family="sans-serif" font-size="14" lengthAdjust="spacing" textLength="76" x="895" y="1492.1211">String name</text><rect fill="none" height="6" style="stroke:#C82930;stroke-width:1.0;" width="6" x="883" y="1503.4453"/><text fill="#000000" font-family="sans-serif" font-size="14" lengthAdjust="spacing" textLength="106" x="895" y="1510.7422">Date dateOfBirth</text><rect fill="none" height="6" style="stroke:#C82930;stroke-width:1.0;" width="6" x="883" y="1522.0664"/><text fill="#000000" font-family="sans-serif" font-size="14" lengthAdjust="spacing" textLength="127" x="895" y="1529.3633">Date admissionDate</text><rect fill="none" height="6" style="stroke:#C82930;stroke-width:1.0;" width="6" x="883" y="1540.6875"/><text fill="#000000" font-family="sans-serif" font-size="14" lengthAdjust="spacing" textLength="74" x="895" y="1547.9844">String email</text><rect fill="none" height="6" style="stroke:#C82930;stroke-width:1.0;" width="6" x="883" y="1559.3086"/><text fill="#000000" font-family="sans-serif" font-size="14" lengthAdjust="spacing" textLength="73" x="895" y="1566.6055">int taxpayer</text><line style="stroke:#181818;stroke-width:0.5;" x1="876" x2="1114" y1="1574.1191" y2="1574.1191"/><ellipse cx="886" cy="1588.9297" fill="#84BE84" rx="3" ry="3" style="stroke:#038048;stroke-width:1.0;"/><text fill="#000000" font-family="sans-serif" font-size="14" lengthAdjust="spacing" textLength="214" x="895" y="1593.2266">hasName(teamCollaboratorName)</text></g><!--class GreenSpaceManager--><g id="elem_GreenSpaceManager"><rect codeLine="95" fill="#F1F1F1" height="178.3477" id="GreenSpaceManager" rx="2.5" ry="2.5" style="stroke:#181818;stroke-width:0.5;" width="240" x="1150" y="1432.0137"/><ellipse cx="1197.75" cy="1448.0137" fill="#ADD1B2" rx="11" ry="11" style="stroke:#181818;stroke-width:1.0;"/><path d="M1200.5156,1443.8887 Q1200.6719,1443.6699 1200.8594,1443.5605 Q1201.0469,1443.4512 1201.2656,1443.4512 Q1201.6406,1443.4512 1201.875,1443.7168 Q1202.1094,1443.9668 1202.1094,1444.5762 L1202.1094,1446.0293 Q1202.1094,1446.6387 1201.875,1446.9043 Q1201.6406,1447.1699 1201.2656,1447.1699 Q1200.9219,1447.1699 1200.7188,1446.9668 Q1200.5156,1446.7793 1200.4063,1446.2637 Q1200.3594,1445.9043 1200.1719,1445.7168 Q1199.8438,1445.3418 1199.2344,1445.123 Q1198.625,1444.9043 1198,1444.9043 Q1197.2344,1444.9043 1196.5938,1445.2324 Q1195.9688,1445.5605 1195.4688,1446.3105 Q1194.9844,1447.0605 1194.9844,1448.0918 L1194.9844,1449.1855 Q1194.9844,1450.4199 1195.875,1451.248 Q1196.7656,1452.0605 1198.3594,1452.0605 Q1199.2969,1452.0605 1199.9531,1451.8105 Q1200.3438,1451.6543 1200.7656,1451.2168 Q1201.0313,1450.9512 1201.1719,1450.873 Q1201.3281,1450.7949 1201.5313,1450.7949 Q1201.8594,1450.7949 1202.1094,1451.0605 Q1202.375,1451.3105 1202.375,1451.6543 Q1202.375,1451.998 1202.0313,1452.4043 Q1201.5313,1452.9824 1200.7344,1453.3105 Q1199.6563,1453.7637 1198.3594,1453.7637 Q1196.8438,1453.7637 1195.6406,1453.1387 Q1194.6563,1452.6387 1193.9688,1451.5762 Q1193.2813,1450.498 1193.2813,1449.2168 L1193.2813,1448.0605 Q1193.2813,1446.7324 1193.8906,1445.5918 Q1194.5156,1444.4355 1195.6094,1443.8262 Q1196.7031,1443.2012 1197.9375,1443.2012 Q1198.6719,1443.2012 1199.3125,1443.373 Q1199.9688,1443.5293 1200.5156,1443.8887 Z " fill="#000000"/><text fill="#000000" font-family="sans-serif" font-size="14" lengthAdjust="spacing" textLength="136" x="1218.25" y="1453.8105">GreenSpaceManager</text><line style="stroke:#181818;stroke-width:0.5;" x1="1151" x2="1389" y1="1464.0137" y2="1464.0137"/><rect fill="none" height="6" style="stroke:#C82930;stroke-width:1.0;" width="6" x="1158" y="1475.8242"/><text fill="#000000" font-family="sans-serif" font-size="14" lengthAdjust="spacing" textLength="76" x="1170" y="1483.1211">String name</text><rect fill="none" height="6" style="stroke:#C82930;stroke-width:1.0;" width="6" x="1158" y="1494.4453"/><text fill="#000000" font-family="sans-serif" font-size="14" lengthAdjust="spacing" textLength="106" x="1170" y="1501.7422">Date dateOfBirth</text><rect fill="none" height="6" style="stroke:#C82930;stroke-width:1.0;" width="6" x="1158" y="1513.0664"/><text fill="#000000" font-family="sans-serif" font-size="14" lengthAdjust="spacing" textLength="127" x="1170" y="1520.3633">Date admissionDate</text><rect fill="none" height="6" style="stroke:#C82930;stroke-width:1.0;" width="6" x="1158" y="1531.6875"/><text fill="#000000" font-family="sans-serif" font-size="14" lengthAdjust="spacing" textLength="74" x="1170" y="1538.9844">String email</text><rect fill="none" height="6" style="stroke:#C82930;stroke-width:1.0;" width="6" x="1158" y="1550.3086"/><text fill="#000000" font-family="sans-serif" font-size="14" lengthAdjust="spacing" textLength="73" x="1170" y="1557.6055">int taxpayer</text><line style="stroke:#181818;stroke-width:0.5;" x1="1151" x2="1389" y1="1565.1191" y2="1565.1191"/><ellipse cx="1161" cy="1579.9297" fill="#84BE84" rx="3" ry="3" style="stroke:#038048;stroke-width:1.0;"/><text fill="#000000" font-family="sans-serif" font-size="14" lengthAdjust="spacing" textLength="214" x="1170" y="1584.2266">hasName(teamCollaboratorName)</text><ellipse cx="1161" cy="1598.5508" fill="#84BE84" rx="3" ry="3" style="stroke:#038048;stroke-width:1.0;"/><text fill="#000000" font-family="sans-serif" font-size="14" lengthAdjust="spacing" textLength="132" x="1170" y="1602.8477">getListGreenSpace()</text></g><!--class GreenSpace--><g id="elem_GreenSpace"><rect codeLine="105" fill="#F1F1F1" height="141.1055" id="GreenSpace" rx="2.5" ry="2.5" style="stroke:#181818;stroke-width:0.5;" width="235" x="1489.5" y="2021.0137"/><ellipse cx="1562.75" cy="2037.0137" fill="#B4A7E5" rx="11" ry="11" style="stroke:#181818;stroke-width:1.0;"/><path d="M1563.7031,2033.6543 L1563.7031,2040.3105 L1565.4219,2040.3105 Q1566.0313,2040.3105 1566.2969,2040.5449 Q1566.5625,2040.7793 1566.5625,2041.1699 Q1566.5625,2041.5449 1566.2969,2041.7793 Q1566.0313,2042.0137 1565.4219,2042.0137 L1560.2813,2042.0137 Q1559.6719,2042.0137 1559.4063,2041.7793 Q1559.1406,2041.5449 1559.1406,2041.1543 Q1559.1406,2040.7793 1559.4063,2040.5449 Q1559.6719,2040.3105 1560.2813,2040.3105 L1562,2040.3105 L1562,2033.6543 L1560.2813,2033.6543 Q1559.6719,2033.6543 1559.4063,2033.4199 Q1559.1406,2033.1855 1559.1406,2032.7949 Q1559.1406,2032.4199 1559.4063,2032.1855 Q1559.6719,2031.9512 1560.2813,2031.9512 L1565.4219,2031.9512 Q1566.0313,2031.9512 1566.2969,2032.1855 Q1566.5625,2032.4199 1566.5625,2032.7949 Q1566.5625,2033.1855 1566.2969,2033.4199 Q1566.0313,2033.6543 1565.4219,2033.6543 L1563.7031,2033.6543 Z " fill="#000000"/><text fill="#000000" font-family="sans-serif" font-size="14" font-style="italic" lengthAdjust="spacing" textLength="80" x="1583.25" y="2042.8105">GreenSpace</text><line style="stroke:#181818;stroke-width:0.5;" x1="1490.5" x2="1723.5" y1="2053.0137" y2="2053.0137"/><line style="stroke:#181818;stroke-width:0.5;" x1="1490.5" x2="1723.5" y1="2061.0137" y2="2061.0137"/><ellipse cx="1500.5" cy="2075.8242" fill="#84BE84" rx="3" ry="3" style="stroke:#038048;stroke-width:1.0;"/><text fill="#000000" font-family="sans-serif" font-size="14" lengthAdjust="spacing" textLength="66" x="1509.5" y="2080.1211">getName()</text><ellipse cx="1500.5" cy="2094.4453" fill="#84BE84" rx="3" ry="3" style="stroke:#038048;stroke-width:1.0;"/><text fill="#000000" font-family="sans-serif" font-size="14" lengthAdjust="spacing" textLength="60" x="1509.5" y="2098.7422">getArea()</text><ellipse cx="1500.5" cy="2113.0664" fill="#84BE84" rx="3" ry="3" style="stroke:#038048;stroke-width:1.0;"/><text fill="#000000" font-family="sans-serif" font-size="14" lengthAdjust="spacing" textLength="82" x="1509.5" y="2117.3633">getAddress()</text><ellipse cx="1500.5" cy="2131.6875" fill="#84BE84" rx="3" ry="3" style="stroke:#038048;stroke-width:1.0;"/><text fill="#000000" font-family="sans-serif" font-size="14" lengthAdjust="spacing" textLength="209" x="1509.5" y="2135.9844">equalsGreenSpace(greenSpace)</text><ellipse cx="1500.5" cy="2150.3086" fill="#84BE84" rx="3" ry="3" style="stroke:#038048;stroke-width:1.0;"/><text fill="#000000" font-family="sans-serif" font-size="14" lengthAdjust="spacing" textLength="104" x="1509.5" y="2154.6055">hasName(name)</text></g><!--class Garden--><g id="elem_Garden"><rect codeLine="114" fill="#F1F1F1" height="196.9688" id="Garden" rx="2.5" ry="2.5" style="stroke:#181818;stroke-width:0.5;" width="415" x="463.5" y="2241.0137"/><ellipse cx="642.75" cy="2257.0137" fill="#ADD1B2" rx="11" ry="11" style="stroke:#181818;stroke-width:1.0;"/><path d="M645.5156,2252.8887 Q645.6719,2252.6699 645.8594,2252.5605 Q646.0469,2252.4512 646.2656,2252.4512 Q646.6406,2252.4512 646.875,2252.7168 Q647.1094,2252.9668 647.1094,2253.5762 L647.1094,2255.0293 Q647.1094,2255.6387 646.875,2255.9043 Q646.6406,2256.1699 646.2656,2256.1699 Q645.9219,2256.1699 645.7188,2255.9668 Q645.5156,2255.7793 645.4063,2255.2637 Q645.3594,2254.9043 645.1719,2254.7168 Q644.8438,2254.3418 644.2344,2254.123 Q643.625,2253.9043 643,2253.9043 Q642.2344,2253.9043 641.5938,2254.2324 Q640.9688,2254.5605 640.4688,2255.3105 Q639.9844,2256.0605 639.9844,2257.0918 L639.9844,2258.1855 Q639.9844,2259.4199 640.875,2260.248 Q641.7656,2261.0605 643.3594,2261.0605 Q644.2969,2261.0605 644.9531,2260.8105 Q645.3438,2260.6543 645.7656,2260.2168 Q646.0313,2259.9512 646.1719,2259.873 Q646.3281,2259.7949 646.5313,2259.7949 Q646.8594,2259.7949 647.1094,2260.0605 Q647.375,2260.3105 647.375,2260.6543 Q647.375,2260.998 647.0313,2261.4043 Q646.5313,2261.9824 645.7344,2262.3105 Q644.6563,2262.7637 643.3594,2262.7637 Q641.8438,2262.7637 640.6406,2262.1387 Q639.6563,2261.6387 638.9688,2260.5762 Q638.2813,2259.498 638.2813,2258.2168 L638.2813,2257.0605 Q638.2813,2255.7324 638.8906,2254.5918 Q639.5156,2253.4355 640.6094,2252.8262 Q641.7031,2252.2012 642.9375,2252.2012 Q643.6719,2252.2012 644.3125,2252.373 Q644.9688,2252.5293 645.5156,2252.8887 Z " fill="#000000"/><text fill="#000000" font-family="sans-serif" font-size="14" lengthAdjust="spacing" textLength="48" x="663.25" y="2262.8105">Garden</text><line style="stroke:#181818;stroke-width:0.5;" x1="464.5" x2="877.5" y1="2273.0137" y2="2273.0137"/><rect fill="none" height="6" style="stroke:#C82930;stroke-width:1.0;" width="6" x="471.5" y="2284.8242"/><text fill="#000000" font-family="sans-serif" font-size="14" lengthAdjust="spacing" textLength="76" x="483.5" y="2292.1211">String name</text><rect fill="none" height="6" style="stroke:#C82930;stroke-width:1.0;" width="6" x="471.5" y="2303.4453"/><text fill="#000000" font-family="sans-serif" font-size="14" lengthAdjust="spacing" textLength="48" x="483.5" y="2310.7422">int area</text><rect fill="none" height="6" style="stroke:#C82930;stroke-width:1.0;" width="6" x="471.5" y="2322.0664"/><text fill="#000000" font-family="sans-serif" font-size="14" lengthAdjust="spacing" textLength="52" x="483.5" y="2329.3633">Address</text><line style="stroke:#181818;stroke-width:0.5;" x1="464.5" x2="877.5" y1="2336.877" y2="2336.877"/><ellipse cx="474.5" cy="2351.6875" fill="#84BE84" rx="3" ry="3" style="stroke:#038048;stroke-width:1.0;"/><text fill="#000000" font-family="sans-serif" font-size="14" lengthAdjust="spacing" textLength="389" x="483.5" y="2355.9844">Garden(name,area,streetName,postCodeNumber,localization)</text><ellipse cx="474.5" cy="2370.3086" fill="#84BE84" rx="3" ry="3" style="stroke:#038048;stroke-width:1.0;"/><text fill="#000000" font-family="sans-serif" font-size="14" lengthAdjust="spacing" textLength="66" x="483.5" y="2374.6055">getName()</text><ellipse cx="474.5" cy="2388.9297" fill="#84BE84" rx="3" ry="3" style="stroke:#038048;stroke-width:1.0;"/><text fill="#000000" font-family="sans-serif" font-size="14" lengthAdjust="spacing" textLength="60" x="483.5" y="2393.2266">getArea()</text><ellipse cx="474.5" cy="2407.5508" fill="#84BE84" rx="3" ry="3" style="stroke:#038048;stroke-width:1.0;"/><text fill="#000000" font-family="sans-serif" font-size="14" lengthAdjust="spacing" textLength="82" x="483.5" y="2411.8477">getAddress()</text><rect fill="#F24D5C" height="6" style="stroke:#C82930;stroke-width:1.0;" width="6" x="471.5" y="2423.1719"/><text fill="#000000" font-family="sans-serif" font-size="14" lengthAdjust="spacing" textLength="150" x="483.5" y="2430.4688">validationGreenSpace()</text></g><!--class MediumPark--><g id="elem_MediumPark"><rect codeLine="126" fill="#F1F1F1" height="196.9688" id="MediumPark" rx="2.5" ry="2.5" style="stroke:#181818;stroke-width:0.5;" width="445" x="913.5" y="2241.0137"/><ellipse cx="1092.75" cy="2257.0137" fill="#ADD1B2" rx="11" ry="11" style="stroke:#181818;stroke-width:1.0;"/><path d="M1095.5156,2252.8887 Q1095.6719,2252.6699 1095.8594,2252.5605 Q1096.0469,2252.4512 1096.2656,2252.4512 Q1096.6406,2252.4512 1096.875,2252.7168 Q1097.1094,2252.9668 1097.1094,2253.5762 L1097.1094,2255.0293 Q1097.1094,2255.6387 1096.875,2255.9043 Q1096.6406,2256.1699 1096.2656,2256.1699 Q1095.9219,2256.1699 1095.7188,2255.9668 Q1095.5156,2255.7793 1095.4063,2255.2637 Q1095.3594,2254.9043 1095.1719,2254.7168 Q1094.8438,2254.3418 1094.2344,2254.123 Q1093.625,2253.9043 1093,2253.9043 Q1092.2344,2253.9043 1091.5938,2254.2324 Q1090.9688,2254.5605 1090.4688,2255.3105 Q1089.9844,2256.0605 1089.9844,2257.0918 L1089.9844,2258.1855 Q1089.9844,2259.4199 1090.875,2260.248 Q1091.7656,2261.0605 1093.3594,2261.0605 Q1094.2969,2261.0605 1094.9531,2260.8105 Q1095.3438,2260.6543 1095.7656,2260.2168 Q1096.0313,2259.9512 1096.1719,2259.873 Q1096.3281,2259.7949 1096.5313,2259.7949 Q1096.8594,2259.7949 1097.1094,2260.0605 Q1097.375,2260.3105 1097.375,2260.6543 Q1097.375,2260.998 1097.0313,2261.4043 Q1096.5313,2261.9824 1095.7344,2262.3105 Q1094.6563,2262.7637 1093.3594,2262.7637 Q1091.8438,2262.7637 1090.6406,2262.1387 Q1089.6563,2261.6387 1088.9688,2260.5762 Q1088.2813,2259.498 1088.2813,2258.2168 L1088.2813,2257.0605 Q1088.2813,2255.7324 1088.8906,2254.5918 Q1089.5156,2253.4355 1090.6094,2252.8262 Q1091.7031,2252.2012 1092.9375,2252.2012 Q1093.6719,2252.2012 1094.3125,2252.373 Q1094.9688,2252.5293 1095.5156,2252.8887 Z " fill="#000000"/><text fill="#000000" font-family="sans-serif" font-size="14" lengthAdjust="spacing" textLength="78" x="1113.25" y="2262.8105">MediumPark</text><line style="stroke:#181818;stroke-width:0.5;" x1="914.5" x2="1357.5" y1="2273.0137" y2="2273.0137"/><rect fill="none" height="6" style="stroke:#C82930;stroke-width:1.0;" width="6" x="921.5" y="2284.8242"/><text fill="#000000" font-family="sans-serif" font-size="14" lengthAdjust="spacing" textLength="76" x="933.5" y="2292.1211">String name</text><rect fill="none" height="6" style="stroke:#C82930;stroke-width:1.0;" width="6" x="921.5" y="2303.4453"/><text fill="#000000" font-family="sans-serif" font-size="14" lengthAdjust="spacing" textLength="48" x="933.5" y="2310.7422">int area</text><rect fill="none" height="6" style="stroke:#C82930;stroke-width:1.0;" width="6" x="921.5" y="2322.0664"/><text fill="#000000" font-family="sans-serif" font-size="14" lengthAdjust="spacing" textLength="52" x="933.5" y="2329.3633">Address</text><line style="stroke:#181818;stroke-width:0.5;" x1="914.5" x2="1357.5" y1="2336.877" y2="2336.877"/><ellipse cx="924.5" cy="2351.6875" fill="#84BE84" rx="3" ry="3" style="stroke:#038048;stroke-width:1.0;"/><text fill="#000000" font-family="sans-serif" font-size="14" lengthAdjust="spacing" textLength="66" x="933.5" y="2355.9844">getName()</text><ellipse cx="924.5" cy="2370.3086" fill="#84BE84" rx="3" ry="3" style="stroke:#038048;stroke-width:1.0;"/><text fill="#000000" font-family="sans-serif" font-size="14" lengthAdjust="spacing" textLength="60" x="933.5" y="2374.6055">getArea()</text><ellipse cx="924.5" cy="2388.9297" fill="#84BE84" rx="3" ry="3" style="stroke:#038048;stroke-width:1.0;"/><text fill="#000000" font-family="sans-serif" font-size="14" lengthAdjust="spacing" textLength="82" x="933.5" y="2393.2266">getAddress()</text><ellipse cx="924.5" cy="2407.5508" fill="#84BE84" rx="3" ry="3" style="stroke:#038048;stroke-width:1.0;"/><text fill="#000000" font-family="sans-serif" font-size="14" lengthAdjust="spacing" textLength="419" x="933.5" y="2411.8477">MediumPark(name,area,streetName,postCodeNumber,localization)</text><rect fill="#F24D5C" height="6" style="stroke:#C82930;stroke-width:1.0;" width="6" x="921.5" y="2423.1719"/><text fill="#000000" font-family="sans-serif" font-size="14" lengthAdjust="spacing" textLength="150" x="933.5" y="2430.4688">validationGreenSpace()</text></g><!--class LargePark--><g id="elem_LargePark"><rect codeLine="138" fill="#F1F1F1" height="196.9688" id="LargePark" rx="2.5" ry="2.5" style="stroke:#181818;stroke-width:0.5;" width="433" x="1393.5" y="2241.0137"/><ellipse cx="1572.75" cy="2257.0137" fill="#ADD1B2" rx="11" ry="11" style="stroke:#181818;stroke-width:1.0;"/><path d="M1575.5156,2252.8887 Q1575.6719,2252.6699 1575.8594,2252.5605 Q1576.0469,2252.4512 1576.2656,2252.4512 Q1576.6406,2252.4512 1576.875,2252.7168 Q1577.1094,2252.9668 1577.1094,2253.5762 L1577.1094,2255.0293 Q1577.1094,2255.6387 1576.875,2255.9043 Q1576.6406,2256.1699 1576.2656,2256.1699 Q1575.9219,2256.1699 1575.7188,2255.9668 Q1575.5156,2255.7793 1575.4063,2255.2637 Q1575.3594,2254.9043 1575.1719,2254.7168 Q1574.8438,2254.3418 1574.2344,2254.123 Q1573.625,2253.9043 1573,2253.9043 Q1572.2344,2253.9043 1571.5938,2254.2324 Q1570.9688,2254.5605 1570.4688,2255.3105 Q1569.9844,2256.0605 1569.9844,2257.0918 L1569.9844,2258.1855 Q1569.9844,2259.4199 1570.875,2260.248 Q1571.7656,2261.0605 1573.3594,2261.0605 Q1574.2969,2261.0605 1574.9531,2260.8105 Q1575.3438,2260.6543 1575.7656,2260.2168 Q1576.0313,2259.9512 1576.1719,2259.873 Q1576.3281,2259.7949 1576.5313,2259.7949 Q1576.8594,2259.7949 1577.1094,2260.0605 Q1577.375,2260.3105 1577.375,2260.6543 Q1577.375,2260.998 1577.0313,2261.4043 Q1576.5313,2261.9824 1575.7344,2262.3105 Q1574.6563,2262.7637 1573.3594,2262.7637 Q1571.8438,2262.7637 1570.6406,2262.1387 Q1569.6563,2261.6387 1568.9688,2260.5762 Q1568.2813,2259.498 1568.2813,2258.2168 L1568.2813,2257.0605 Q1568.2813,2255.7324 1568.8906,2254.5918 Q1569.5156,2253.4355 1570.6094,2252.8262 Q1571.7031,2252.2012 1572.9375,2252.2012 Q1573.6719,2252.2012 1574.3125,2252.373 Q1574.9688,2252.5293 1575.5156,2252.8887 Z " fill="#000000"/><text fill="#000000" font-family="sans-serif" font-size="14" lengthAdjust="spacing" textLength="66" x="1593.25" y="2262.8105">LargePark</text><line style="stroke:#181818;stroke-width:0.5;" x1="1394.5" x2="1825.5" y1="2273.0137" y2="2273.0137"/><rect fill="none" height="6" style="stroke:#C82930;stroke-width:1.0;" width="6" x="1401.5" y="2284.8242"/><text fill="#000000" font-family="sans-serif" font-size="14" lengthAdjust="spacing" textLength="76" x="1413.5" y="2292.1211">String name</text><rect fill="none" height="6" style="stroke:#C82930;stroke-width:1.0;" width="6" x="1401.5" y="2303.4453"/><text fill="#000000" font-family="sans-serif" font-size="14" lengthAdjust="spacing" textLength="48" x="1413.5" y="2310.7422">int area</text><rect fill="none" height="6" style="stroke:#C82930;stroke-width:1.0;" width="6" x="1401.5" y="2322.0664"/><text fill="#000000" font-family="sans-serif" font-size="14" lengthAdjust="spacing" textLength="52" x="1413.5" y="2329.3633">Address</text><line style="stroke:#181818;stroke-width:0.5;" x1="1394.5" x2="1825.5" y1="2336.877" y2="2336.877"/><ellipse cx="1404.5" cy="2351.6875" fill="#84BE84" rx="3" ry="3" style="stroke:#038048;stroke-width:1.0;"/><text fill="#000000" font-family="sans-serif" font-size="14" lengthAdjust="spacing" textLength="66" x="1413.5" y="2355.9844">getName()</text><ellipse cx="1404.5" cy="2370.3086" fill="#84BE84" rx="3" ry="3" style="stroke:#038048;stroke-width:1.0;"/><text fill="#000000" font-family="sans-serif" font-size="14" lengthAdjust="spacing" textLength="60" x="1413.5" y="2374.6055">getArea()</text><ellipse cx="1404.5" cy="2388.9297" fill="#84BE84" rx="3" ry="3" style="stroke:#038048;stroke-width:1.0;"/><text fill="#000000" font-family="sans-serif" font-size="14" lengthAdjust="spacing" textLength="82" x="1413.5" y="2393.2266">getAddress()</text><ellipse cx="1404.5" cy="2407.5508" fill="#84BE84" rx="3" ry="3" style="stroke:#038048;stroke-width:1.0;"/><text fill="#000000" font-family="sans-serif" font-size="14" lengthAdjust="spacing" textLength="407" x="1413.5" y="2411.8477">LargePark(name,area,streetName,postCodeNumber,localization)</text><rect fill="#F24D5C" height="6" style="stroke:#C82930;stroke-width:1.0;" width="6" x="1401.5" y="2423.1719"/><text fill="#000000" font-family="sans-serif" font-size="14" lengthAdjust="spacing" textLength="150" x="1413.5" y="2430.4688">validationGreenSpace()</text></g><!--class GreenSpaces--><g id="elem_GreenSpaces"><rect codeLine="151" fill="#F1F1F1" height="66.6211" id="GreenSpaces" rx="2.5" ry="2.5" style="stroke:#181818;stroke-width:0.5;" width="185" x="1177.5" y="2058.0137"/><ellipse cx="1222.25" cy="2074.0137" fill="#ADD1B2" rx="11" ry="11" style="stroke:#181818;stroke-width:1.0;"/><path d="M1225.0156,2069.8887 Q1225.1719,2069.6699 1225.3594,2069.5605 Q1225.5469,2069.4512 1225.7656,2069.4512 Q1226.1406,2069.4512 1226.375,2069.7168 Q1226.6094,2069.9668 1226.6094,2070.5762 L1226.6094,2072.0293 Q1226.6094,2072.6387 1226.375,2072.9043 Q1226.1406,2073.1699 1225.7656,2073.1699 Q1225.4219,2073.1699 1225.2188,2072.9668 Q1225.0156,2072.7793 1224.9063,2072.2637 Q1224.8594,2071.9043 1224.6719,2071.7168 Q1224.3438,2071.3418 1223.7344,2071.123 Q1223.125,2070.9043 1222.5,2070.9043 Q1221.7344,2070.9043 1221.0938,2071.2324 Q1220.4688,2071.5605 1219.9688,2072.3105 Q1219.4844,2073.0605 1219.4844,2074.0918 L1219.4844,2075.1855 Q1219.4844,2076.4199 1220.375,2077.248 Q1221.2656,2078.0605 1222.8594,2078.0605 Q1223.7969,2078.0605 1224.4531,2077.8105 Q1224.8438,2077.6543 1225.2656,2077.2168 Q1225.5313,2076.9512 1225.6719,2076.873 Q1225.8281,2076.7949 1226.0313,2076.7949 Q1226.3594,2076.7949 1226.6094,2077.0605 Q1226.875,2077.3105 1226.875,2077.6543 Q1226.875,2077.998 1226.5313,2078.4043 Q1226.0313,2078.9824 1225.2344,2079.3105 Q1224.1563,2079.7637 1222.8594,2079.7637 Q1221.3438,2079.7637 1220.1406,2079.1387 Q1219.1563,2078.6387 1218.4688,2077.5762 Q1217.7813,2076.498 1217.7813,2075.2168 L1217.7813,2074.0605 Q1217.7813,2072.7324 1218.3906,2071.5918 Q1219.0156,2070.4355 1220.1094,2069.8262 Q1221.2031,2069.2012 1222.4375,2069.2012 Q1223.1719,2069.2012 1223.8125,2069.373 Q1224.4688,2069.5293 1225.0156,2069.8887 Z " fill="#000000"/><text fill="#000000" font-family="sans-serif" font-size="14" lengthAdjust="spacing" textLength="87" x="1242.75" y="2079.8105">GreenSpaces</text><line style="stroke:#181818;stroke-width:0.5;" x1="1178.5" x2="1361.5" y1="2090.0137" y2="2090.0137"/><line style="stroke:#181818;stroke-width:0.5;" x1="1178.5" x2="1361.5" y1="2098.0137" y2="2098.0137"/><ellipse cx="1188.5" cy="2112.8242" fill="#84BE84" rx="3" ry="3" style="stroke:#038048;stroke-width:1.0;"/><text fill="#000000" font-family="sans-serif" font-size="14" lengthAdjust="spacing" textLength="159" x="1197.5" y="2117.1211">getSortedGreenSpaces()</text></g><!--class Agenda--><g id="elem_Agenda"><rect codeLine="155" fill="#F1F1F1" height="122.4844" id="Agenda" rx="2.5" ry="2.5" style="stroke:#181818;stroke-width:0.5;" width="401" x="1425.5" y="1460.0137"/><ellipse cx="1597.25" cy="1476.0137" fill="#ADD1B2" rx="11" ry="11" style="stroke:#181818;stroke-width:1.0;"/><path d="M1600.0156,1471.8887 Q1600.1719,1471.6699 1600.3594,1471.5605 Q1600.5469,1471.4512 1600.7656,1471.4512 Q1601.1406,1471.4512 1601.375,1471.7168 Q1601.6094,1471.9668 1601.6094,1472.5762 L1601.6094,1474.0293 Q1601.6094,1474.6387 1601.375,1474.9043 Q1601.1406,1475.1699 1600.7656,1475.1699 Q1600.4219,1475.1699 1600.2188,1474.9668 Q1600.0156,1474.7793 1599.9063,1474.2637 Q1599.8594,1473.9043 1599.6719,1473.7168 Q1599.3438,1473.3418 1598.7344,1473.123 Q1598.125,1472.9043 1597.5,1472.9043 Q1596.7344,1472.9043 1596.0938,1473.2324 Q1595.4688,1473.5605 1594.9688,1474.3105 Q1594.4844,1475.0605 1594.4844,1476.0918 L1594.4844,1477.1855 Q1594.4844,1478.4199 1595.375,1479.248 Q1596.2656,1480.0605 1597.8594,1480.0605 Q1598.7969,1480.0605 1599.4531,1479.8105 Q1599.8438,1479.6543 1600.2656,1479.2168 Q1600.5313,1478.9512 1600.6719,1478.873 Q1600.8281,1478.7949 1601.0313,1478.7949 Q1601.3594,1478.7949 1601.6094,1479.0605 Q1601.875,1479.3105 1601.875,1479.6543 Q1601.875,1479.998 1601.5313,1480.4043 Q1601.0313,1480.9824 1600.2344,1481.3105 Q1599.1563,1481.7637 1597.8594,1481.7637 Q1596.3438,1481.7637 1595.1406,1481.1387 Q1594.1563,1480.6387 1593.4688,1479.5762 Q1592.7813,1478.498 1592.7813,1477.2168 L1592.7813,1476.0605 Q1592.7813,1474.7324 1593.3906,1473.5918 Q1594.0156,1472.4355 1595.1094,1471.8262 Q1596.2031,1471.2012 1597.4375,1471.2012 Q1598.1719,1471.2012 1598.8125,1471.373 Q1599.4688,1471.5293 1600.0156,1471.8887 Z " fill="#000000"/><text fill="#000000" font-family="sans-serif" font-size="14" lengthAdjust="spacing" textLength="49" x="1617.75" y="1481.8105">Agenda</text><line style="stroke:#181818;stroke-width:0.5;" x1="1426.5" x2="1825.5" y1="1492.0137" y2="1492.0137"/><line style="stroke:#181818;stroke-width:0.5;" x1="1426.5" x2="1825.5" y1="1500.0137" y2="1500.0137"/><ellipse cx="1436.5" cy="1514.8242" fill="#84BE84" rx="3" ry="3" style="stroke:#038048;stroke-width:1.0;"/><text fill="#000000" font-family="sans-serif" font-size="14" lengthAdjust="spacing" textLength="269" x="1445.5" y="1519.1211">getAllTaskByGreenSpace(listGreenSpace)</text><ellipse cx="1436.5" cy="1533.4453" fill="#84BE84" rx="3" ry="3" style="stroke:#038048;stroke-width:1.0;"/><text fill="#000000" font-family="sans-serif" font-size="14" lengthAdjust="spacing" textLength="375" x="1445.5" y="1537.7422">getTaskByNameAndGreenSpace(taskParkName,taskName)</text><ellipse cx="1436.5" cy="1552.0664" fill="#84BE84" rx="3" ry="3" style="stroke:#038048;stroke-width:1.0;"/><text fill="#000000" font-family="sans-serif" font-size="14" lengthAdjust="spacing" textLength="180" x="1445.5" y="1556.3633">assignTeamTask(teamTask)</text><rect fill="#F24D5C" height="6" style="stroke:#C82930;stroke-width:1.0;" width="6" x="1433.5" y="1567.6875"/><text fill="#000000" font-family="sans-serif" font-size="14" lengthAdjust="spacing" textLength="209" x="1445.5" y="1574.9844">addListTaskByGreenSpace(task)</text></g><!--class AgendaTask--><g id="elem_AgendaTask"><rect codeLine="164" fill="#F1F1F1" height="252.832" id="AgendaTask" rx="2.5" ry="2.5" style="stroke:#181818;stroke-width:0.5;" width="266" x="1486" y="1689.0137"/><ellipse cx="1574.75" cy="1705.0137" fill="#ADD1B2" rx="11" ry="11" style="stroke:#181818;stroke-width:1.0;"/><path d="M1577.5156,1700.8887 Q1577.6719,1700.6699 1577.8594,1700.5605 Q1578.0469,1700.4512 1578.2656,1700.4512 Q1578.6406,1700.4512 1578.875,1700.7168 Q1579.1094,1700.9668 1579.1094,1701.5762 L1579.1094,1703.0293 Q1579.1094,1703.6387 1578.875,1703.9043 Q1578.6406,1704.1699 1578.2656,1704.1699 Q1577.9219,1704.1699 1577.7188,1703.9668 Q1577.5156,1703.7793 1577.4063,1703.2637 Q1577.3594,1702.9043 1577.1719,1702.7168 Q1576.8438,1702.3418 1576.2344,1702.123 Q1575.625,1701.9043 1575,1701.9043 Q1574.2344,1701.9043 1573.5938,1702.2324 Q1572.9688,1702.5605 1572.4688,1703.3105 Q1571.9844,1704.0605 1571.9844,1705.0918 L1571.9844,1706.1855 Q1571.9844,1707.4199 1572.875,1708.248 Q1573.7656,1709.0605 1575.3594,1709.0605 Q1576.2969,1709.0605 1576.9531,1708.8105 Q1577.3438,1708.6543 1577.7656,1708.2168 Q1578.0313,1707.9512 1578.1719,1707.873 Q1578.3281,1707.7949 1578.5313,1707.7949 Q1578.8594,1707.7949 1579.1094,1708.0605 Q1579.375,1708.3105 1579.375,1708.6543 Q1579.375,1708.998 1579.0313,1709.4043 Q1578.5313,1709.9824 1577.7344,1710.3105 Q1576.6563,1710.7637 1575.3594,1710.7637 Q1573.8438,1710.7637 1572.6406,1710.1387 Q1571.6563,1709.6387 1570.9688,1708.5762 Q1570.2813,1707.498 1570.2813,1706.2168 L1570.2813,1705.0605 Q1570.2813,1703.7324 1570.8906,1702.5918 Q1571.5156,1701.4355 1572.6094,1700.8262 Q1573.7031,1700.2012 1574.9375,1700.2012 Q1575.6719,1700.2012 1576.3125,1700.373 Q1576.9688,1700.5293 1577.5156,1700.8887 Z " fill="#000000"/><text fill="#000000" font-family="sans-serif" font-size="14" lengthAdjust="spacing" textLength="80" x="1595.25" y="1710.8105">AgendaTask</text><line style="stroke:#181818;stroke-width:0.5;" x1="1487" x2="1751" y1="1721.0137" y2="1721.0137"/><rect fill="none" height="6" style="stroke:#C82930;stroke-width:1.0;" width="6" x="1494" y="1732.8242"/><text fill="#000000" font-family="sans-serif" font-size="14" lengthAdjust="spacing" textLength="92" x="1506" y="1740.1211">String urgency</text><rect fill="none" height="6" style="stroke:#C82930;stroke-width:1.0;" width="6" x="1494" y="1751.4453"/><text fill="#000000" font-family="sans-serif" font-size="14" lengthAdjust="spacing" textLength="130" x="1506" y="1758.7422">int expectedDuration</text><rect fill="none" height="6" style="stroke:#C82930;stroke-width:1.0;" width="6" x="1494" y="1770.0664"/><text fill="#000000" font-family="sans-serif" font-size="14" lengthAdjust="spacing" textLength="90" x="1506" y="1777.3633">date startDate</text><rect fill="none" height="6" style="stroke:#C82930;stroke-width:1.0;" width="6" x="1494" y="1788.6875"/><text fill="#000000" font-family="sans-serif" font-size="14" lengthAdjust="spacing" textLength="86" x="1506" y="1795.9844">date endDate</text><rect fill="none" height="6" style="stroke:#C82930;stroke-width:1.0;" width="6" x="1494" y="1807.3086"/><text fill="#000000" font-family="sans-serif" font-size="14" lengthAdjust="spacing" textLength="79" x="1506" y="1814.6055">String status</text><line style="stroke:#181818;stroke-width:0.5;" x1="1487" x2="1751" y1="1822.1191" y2="1822.1191"/><ellipse cx="1497" cy="1836.9297" fill="#84BE84" rx="3" ry="3" style="stroke:#038048;stroke-width:1.0;"/><text fill="#000000" font-family="sans-serif" font-size="14" lengthAdjust="spacing" textLength="162" x="1506" y="1841.2266">hasTaskName(taskName)</text><ellipse cx="1497" cy="1855.5508" fill="#84BE84" rx="3" ry="3" style="stroke:#038048;stroke-width:1.0;"/><text fill="#000000" font-family="sans-serif" font-size="14" lengthAdjust="spacing" textLength="240" x="1506" y="1859.8477">hasGreenSpaceName(taskParkName)</text><ellipse cx="1497" cy="1874.1719" fill="#84BE84" rx="3" ry="3" style="stroke:#038048;stroke-width:1.0;"/><text fill="#000000" font-family="sans-serif" font-size="14" lengthAdjust="spacing" textLength="221" x="1506" y="1878.4688">verifyGreenSpace(listGreenSpace)</text><rect fill="#F24D5C" height="6" style="stroke:#C82930;stroke-width:1.0;" width="6" x="1494" y="1889.793"/><text fill="#000000" font-family="sans-serif" font-size="14" lengthAdjust="spacing" textLength="67" x="1506" y="1897.0898">verifyNull()</text><rect fill="#F24D5C" height="6" style="stroke:#C82930;stroke-width:1.0;" width="6" x="1494" y="1908.4141"/><text fill="#000000" font-family="sans-serif" font-size="14" lengthAdjust="spacing" textLength="109" x="1506" y="1915.7109">equalsTask(task)</text><rect fill="#F24D5C" height="6" style="stroke:#C82930;stroke-width:1.0;" width="6" x="1494" y="1927.0352"/><text fill="#000000" font-family="sans-serif" font-size="14" lengthAdjust="spacing" textLength="121" x="1506" y="1934.332">updateTeam(team)</text></g><!--class Repositories--><g id="elem_Repositories"><rect codeLine="185" fill="#F1F1F1" height="141.1055" id="Repositories" rx="2.5" ry="2.5" style="stroke:#181818;stroke-width:0.5;" width="202" x="992" y="542.0137"/><ellipse cx="1049.25" cy="558.0137" fill="#ADD1B2" rx="11" ry="11" style="stroke:#181818;stroke-width:1.0;"/><path d="M1052.0156,553.8887 Q1052.1719,553.6699 1052.3594,553.5605 Q1052.5469,553.4512 1052.7656,553.4512 Q1053.1406,553.4512 1053.375,553.7168 Q1053.6094,553.9668 1053.6094,554.5762 L1053.6094,556.0293 Q1053.6094,556.6387 1053.375,556.9043 Q1053.1406,557.1699 1052.7656,557.1699 Q1052.4219,557.1699 1052.2188,556.9668 Q1052.0156,556.7793 1051.9063,556.2637 Q1051.8594,555.9043 1051.6719,555.7168 Q1051.3438,555.3418 1050.7344,555.123 Q1050.125,554.9043 1049.5,554.9043 Q1048.7344,554.9043 1048.0938,555.2324 Q1047.4688,555.5605 1046.9688,556.3105 Q1046.4844,557.0605 1046.4844,558.0918 L1046.4844,559.1855 Q1046.4844,560.4199 1047.375,561.248 Q1048.2656,562.0605 1049.8594,562.0605 Q1050.7969,562.0605 1051.4531,561.8105 Q1051.8438,561.6543 1052.2656,561.2168 Q1052.5313,560.9512 1052.6719,560.873 Q1052.8281,560.7949 1053.0313,560.7949 Q1053.3594,560.7949 1053.6094,561.0605 Q1053.875,561.3105 1053.875,561.6543 Q1053.875,561.998 1053.5313,562.4043 Q1053.0313,562.9824 1052.2344,563.3105 Q1051.1563,563.7637 1049.8594,563.7637 Q1048.3438,563.7637 1047.1406,563.1387 Q1046.1563,562.6387 1045.4688,561.5762 Q1044.7813,560.498 1044.7813,559.2168 L1044.7813,558.0605 Q1044.7813,556.7324 1045.3906,555.5918 Q1046.0156,554.4355 1047.1094,553.8262 Q1048.2031,553.2012 1049.4375,553.2012 Q1050.1719,553.2012 1050.8125,553.373 Q1051.4688,553.5293 1052.0156,553.8887 Z " fill="#000000"/><text fill="#000000" font-family="sans-serif" font-size="14" lengthAdjust="spacing" textLength="79" x="1069.75" y="563.8105">Repositories</text><line style="stroke:#181818;stroke-width:0.5;" x1="993" x2="1193" y1="574.0137" y2="574.0137"/><line style="stroke:#181818;stroke-width:0.5;" x1="993" x2="1193" y1="582.0137" y2="582.0137"/><rect fill="#F24D5C" height="6" style="stroke:#C82930;stroke-width:1.0;" width="6" x="1000" y="593.8242"/><text fill="#000000" font-family="sans-serif" font-size="14" lengthAdjust="spacing" textLength="89" x="1012" y="601.1211">Repositories()</text><ellipse cx="1003" cy="615.4453" fill="#84BE84" rx="3" ry="3" style="stroke:#038048;stroke-width:1.0;"/><text fill="#000000" font-family="sans-serif" font-size="14" lengthAdjust="spacing" textLength="174" x="1012" y="619.7422">getInstance() : Repositories</text><ellipse cx="1003" cy="634.0664" fill="#84BE84" rx="3" ry="3" style="stroke:#038048;stroke-width:1.0;"/><text fill="#000000" font-family="sans-serif" font-size="14" lengthAdjust="spacing" textLength="134" x="1012" y="638.3633">getTeamRepository()</text><ellipse cx="1003" cy="652.6875" fill="#84BE84" rx="3" ry="3" style="stroke:#038048;stroke-width:1.0;"/><text fill="#000000" font-family="sans-serif" font-size="14" lengthAdjust="spacing" textLength="79" x="1012" y="656.9844">getAgenda()</text><ellipse cx="1003" cy="671.3086" fill="#84BE84" rx="3" ry="3" style="stroke:#038048;stroke-width:1.0;"/><text fill="#000000" font-family="sans-serif" font-size="14" lengthAdjust="spacing" textLength="176" x="1012" y="675.6055">getCollaboratorRepository()</text></g><!--class CollaboratorRepository--><g id="elem_CollaboratorRepository"><rect codeLine="194" fill="#F1F1F1" height="66.6211" id="CollaboratorRepository" rx="2.5" ry="2.5" style="stroke:#181818;stroke-width:0.5;" width="261" x="1011.5" y="910.5137"/><ellipse cx="1064.75" cy="926.5137" fill="#ADD1B2" rx="11" ry="11" style="stroke:#181818;stroke-width:1.0;"/><path d="M1067.5156,922.3887 Q1067.6719,922.1699 1067.8594,922.0605 Q1068.0469,921.9512 1068.2656,921.9512 Q1068.6406,921.9512 1068.875,922.2168 Q1069.1094,922.4668 1069.1094,923.0762 L1069.1094,924.5293 Q1069.1094,925.1387 1068.875,925.4043 Q1068.6406,925.6699 1068.2656,925.6699 Q1067.9219,925.6699 1067.7188,925.4668 Q1067.5156,925.2793 1067.4063,924.7637 Q1067.3594,924.4043 1067.1719,924.2168 Q1066.8438,923.8418 1066.2344,923.623 Q1065.625,923.4043 1065,923.4043 Q1064.2344,923.4043 1063.5938,923.7324 Q1062.9688,924.0605 1062.4688,924.8105 Q1061.9844,925.5605 1061.9844,926.5918 L1061.9844,927.6855 Q1061.9844,928.9199 1062.875,929.748 Q1063.7656,930.5605 1065.3594,930.5605 Q1066.2969,930.5605 1066.9531,930.3105 Q1067.3438,930.1543 1067.7656,929.7168 Q1068.0313,929.4512 1068.1719,929.373 Q1068.3281,929.2949 1068.5313,929.2949 Q1068.8594,929.2949 1069.1094,929.5605 Q1069.375,929.8105 1069.375,930.1543 Q1069.375,930.498 1069.0313,930.9043 Q1068.5313,931.4824 1067.7344,931.8105 Q1066.6563,932.2637 1065.3594,932.2637 Q1063.8438,932.2637 1062.6406,931.6387 Q1061.6563,931.1387 1060.9688,930.0762 Q1060.2813,928.998 1060.2813,927.7168 L1060.2813,926.5605 Q1060.2813,925.2324 1060.8906,924.0918 Q1061.5156,922.9355 1062.6094,922.3262 Q1063.7031,921.7012 1064.9375,921.7012 Q1065.6719,921.7012 1066.3125,921.873 Q1066.9688,922.0293 1067.5156,922.3887 Z " fill="#000000"/><text fill="#000000" font-family="sans-serif" font-size="14" lengthAdjust="spacing" textLength="146" x="1085.25" y="932.3105">CollaboratorRepository</text><line style="stroke:#181818;stroke-width:0.5;" x1="1012.5" x2="1271.5" y1="942.5137" y2="942.5137"/><line style="stroke:#181818;stroke-width:0.5;" x1="1012.5" x2="1271.5" y1="950.5137" y2="950.5137"/><ellipse cx="1022.5" cy="965.3242" fill="#84BE84" rx="3" ry="3" style="stroke:#038048;stroke-width:1.0;"/><text fill="#000000" font-family="sans-serif" font-size="14" lengthAdjust="spacing" textLength="235" x="1031.5" y="969.6211">getCollaboratorByEmail(greenSpace)</text></g><!--class GreenSpaceRepository--><g id="elem_GreenSpaceRepository"><rect codeLine="198" fill="#F1F1F1" height="103.8633" id="GreenSpaceRepository" rx="2.5" ry="2.5" style="stroke:#181818;stroke-width:0.5;" width="373" x="603.5" y="892.0137"/><ellipse cx="711.75" cy="908.0137" fill="#ADD1B2" rx="11" ry="11" style="stroke:#181818;stroke-width:1.0;"/><path d="M714.5156,903.8887 Q714.6719,903.6699 714.8594,903.5605 Q715.0469,903.4512 715.2656,903.4512 Q715.6406,903.4512 715.875,903.7168 Q716.1094,903.9668 716.1094,904.5762 L716.1094,906.0293 Q716.1094,906.6387 715.875,906.9043 Q715.6406,907.1699 715.2656,907.1699 Q714.9219,907.1699 714.7188,906.9668 Q714.5156,906.7793 714.4063,906.2637 Q714.3594,905.9043 714.1719,905.7168 Q713.8438,905.3418 713.2344,905.123 Q712.625,904.9043 712,904.9043 Q711.2344,904.9043 710.5938,905.2324 Q709.9688,905.5605 709.4688,906.3105 Q708.9844,907.0605 708.9844,908.0918 L708.9844,909.1855 Q708.9844,910.4199 709.875,911.248 Q710.7656,912.0605 712.3594,912.0605 Q713.2969,912.0605 713.9531,911.8105 Q714.3438,911.6543 714.7656,911.2168 Q715.0313,910.9512 715.1719,910.873 Q715.3281,910.7949 715.5313,910.7949 Q715.8594,910.7949 716.1094,911.0605 Q716.375,911.3105 716.375,911.6543 Q716.375,911.998 716.0313,912.4043 Q715.5313,912.9824 714.7344,913.3105 Q713.6563,913.7637 712.3594,913.7637 Q710.8438,913.7637 709.6406,913.1387 Q708.6563,912.6387 707.9688,911.5762 Q707.2813,910.498 707.2813,909.2168 L707.2813,908.0605 Q707.2813,906.7324 707.8906,905.5918 Q708.5156,904.4355 709.6094,903.8262 Q710.7031,903.2012 711.9375,903.2012 Q712.6719,903.2012 713.3125,903.373 Q713.9688,903.5293 714.5156,903.8887 Z " fill="#000000"/><text fill="#000000" font-family="sans-serif" font-size="14" lengthAdjust="spacing" textLength="148" x="732.25" y="913.8105">GreenSpaceRepository</text><line style="stroke:#181818;stroke-width:0.5;" x1="604.5" x2="975.5" y1="924.0137" y2="924.0137"/><line style="stroke:#181818;stroke-width:0.5;" x1="604.5" x2="975.5" y1="932.0137" y2="932.0137"/><rect fill="#F24D5C" height="6" style="stroke:#C82930;stroke-width:1.0;" width="6" x="611.5" y="943.8242"/><text fill="#000000" font-family="sans-serif" font-size="14" lengthAdjust="spacing" textLength="191" x="623.5" y="951.1211">addGreenSpace(greenSpace)</text><rect fill="#F24D5C" height="6" style="stroke:#C82930;stroke-width:1.0;" width="6" x="611.5" y="962.4453"/><text fill="#000000" font-family="sans-serif" font-size="14" lengthAdjust="spacing" textLength="242" x="623.5" y="969.7422">validationAllGreenSpace(greenSpace)</text><ellipse cx="614.5" cy="984.0664" fill="#84BE84" rx="3" ry="3" style="stroke:#038048;stroke-width:1.0;"/><text fill="#000000" font-family="sans-serif" font-size="14" lengthAdjust="spacing" textLength="347" x="623.5" y="988.3633">registerGreenSpace(name,area,streetName,postCode)</text></g><!--class TeamRepository--><g id="elem_TeamRepository"><rect codeLine="204" fill="#F1F1F1" height="85.2422" id="TeamRepository" rx="2.5" ry="2.5" style="stroke:#181818;stroke-width:0.5;" width="367" x="201.5" y="901.5137"/><ellipse cx="328.75" cy="917.5137" fill="#ADD1B2" rx="11" ry="11" style="stroke:#181818;stroke-width:1.0;"/><path d="M331.5156,913.3887 Q331.6719,913.1699 331.8594,913.0605 Q332.0469,912.9512 332.2656,912.9512 Q332.6406,912.9512 332.875,913.2168 Q333.1094,913.4668 333.1094,914.0762 L333.1094,915.5293 Q333.1094,916.1387 332.875,916.4043 Q332.6406,916.6699 332.2656,916.6699 Q331.9219,916.6699 331.7188,916.4668 Q331.5156,916.2793 331.4063,915.7637 Q331.3594,915.4043 331.1719,915.2168 Q330.8438,914.8418 330.2344,914.623 Q329.625,914.4043 329,914.4043 Q328.2344,914.4043 327.5938,914.7324 Q326.9688,915.0605 326.4688,915.8105 Q325.9844,916.5605 325.9844,917.5918 L325.9844,918.6855 Q325.9844,919.9199 326.875,920.748 Q327.7656,921.5605 329.3594,921.5605 Q330.2969,921.5605 330.9531,921.3105 Q331.3438,921.1543 331.7656,920.7168 Q332.0313,920.4512 332.1719,920.373 Q332.3281,920.2949 332.5313,920.2949 Q332.8594,920.2949 333.1094,920.5605 Q333.375,920.8105 333.375,921.1543 Q333.375,921.498 333.0313,921.9043 Q332.5313,922.4824 331.7344,922.8105 Q330.6563,923.2637 329.3594,923.2637 Q327.8438,923.2637 326.6406,922.6387 Q325.6563,922.1387 324.9688,921.0762 Q324.2813,919.998 324.2813,918.7168 L324.2813,917.5605 Q324.2813,916.2324 324.8906,915.0918 Q325.5156,913.9355 326.6094,913.3262 Q327.7031,912.7012 328.9375,912.7012 Q329.6719,912.7012 330.3125,912.873 Q330.9688,913.0293 331.5156,913.3887 Z " fill="#000000"/><text fill="#000000" font-family="sans-serif" font-size="14" lengthAdjust="spacing" textLength="104" x="349.25" y="923.3105">TeamRepository</text><line style="stroke:#181818;stroke-width:0.5;" x1="202.5" x2="567.5" y1="933.5137" y2="933.5137"/><line style="stroke:#181818;stroke-width:0.5;" x1="202.5" x2="567.5" y1="941.5137" y2="941.5137"/><ellipse cx="212.5" cy="956.3242" fill="#84BE84" rx="3" ry="3" style="stroke:#038048;stroke-width:1.0;"/><text fill="#000000" font-family="sans-serif" font-size="14" lengthAdjust="spacing" textLength="88" x="221.5" y="960.6211">getAllTeams()</text><ellipse cx="212.5" cy="974.9453" fill="#84BE84" rx="3" ry="3" style="stroke:#038048;stroke-width:1.0;"/><text fill="#000000" font-family="sans-serif" font-size="14" lengthAdjust="spacing" textLength="341" x="221.5" y="979.2422">getTeamByCollaboratorName(teamCollaboratorName)</text></g><!--reverse link EmailService to DeiEmailService--><g id="link_EmailService_DeiEmailService"><path d="M307.4634,2391.188 C302.0734,2427.448 296.17,2467.0737 291.44,2498.8837 " fill="none" id="EmailService-backto-DeiEmailService" style="stroke:#181818;stroke-width:1.0;stroke-dasharray:7.0,7.0;"/><polygon fill="none" points="310.11,2373.3837,301.5286,2390.3058,313.3982,2392.0702,310.11,2373.3837" style="stroke:#181818;stroke-width:1.0;"/></g><!--reverse link EmailService to GmailEmailService--><g id="link_EmailService_GmailEmailService"><path d="M353.6275,2387.258 C383.5975,2423.518 419.6,2467.0737 445.89,2498.8837 " fill="none" id="EmailService-backto-GmailEmailService" style="stroke:#181818;stroke-width:1.0;stroke-dasharray:7.0,7.0;"/><polygon fill="none" points="342.16,2373.3837,349.0028,2391.0805,358.2523,2383.4355,342.16,2373.3837" style="stroke:#181818;stroke-width:1.0;"/></g><!--reverse link ICollaborator to Collaborator--><g id="link_ICollaborator_Collaborator"><path d="M1020.904,1388.8629 C1016.194,1412.7229 1014.92,1419.1937 1010.63,1440.8737 " fill="none" id="ICollaborator-backto-Collaborator" style="stroke:#181818;stroke-width:1.0;stroke-dasharray:7.0,7.0;"/><polygon fill="none" points="1024.39,1371.2037,1015.0176,1387.7009,1026.7905,1390.0249,1024.39,1371.2037" style="stroke:#181818;stroke-width:1.0;"/></g><!--reverse link ICollaborator to GreenSpaceManager--><g id="link_ICollaborator_GreenSpaceManager"><path d="M1137.0633,1347.929 C1161.7033,1379.829 1177.93,1400.8337 1202.02,1432.0037 " fill="none" id="ICollaborator-backto-GreenSpaceManager" style="stroke:#181818;stroke-width:1.0;stroke-dasharray:7.0,7.0;"/><polygon fill="none" points="1126.06,1333.6837,1132.3148,1351.5967,1141.8117,1344.2612,1126.06,1333.6837" style="stroke:#181818;stroke-width:1.0;"/></g><!--reverse link GreenSpace to Garden--><g id="link_GreenSpace_Garden"><path d="M1472.2196,2137.129 C1437.2696,2147.909 1415.92,2153.6237 1380,2162.0137 C1167.75,2211.5837 1105.14,2179.6637 896,2241.0137 C890.28,2242.6937 884.51,2244.4737 878.72,2246.3537 " fill="none" id="GreenSpace-backto-Garden" style="stroke:#181818;stroke-width:1.0;stroke-dasharray:7.0,7.0;"/><polygon fill="none" points="1489.42,2131.8237,1470.4512,2131.3955,1473.988,2142.8624,1489.42,2131.8237" style="stroke:#181818;stroke-width:1.0;"/></g><!--reverse link GreenSpace to MediumPark--><g id="link_GreenSpace_MediumPark"><path d="M1473.4057,2162.2879 C1423.1357,2188.5479 1379.16,2211.5137 1323.07,2240.8037 " fill="none" id="GreenSpace-backto-MediumPark" style="stroke:#181818;stroke-width:1.0;stroke-dasharray:7.0,7.0;"/><polygon fill="none" points="1489.36,2153.9537,1470.6276,2156.9698,1476.1837,2167.606,1489.36,2153.9537" style="stroke:#181818;stroke-width:1.0;"/></g><!--reverse link GreenSpace to LargePark--><g id="link_GreenSpace_LargePark"><path d="M1608.0709,2180.0223 C1608.3709,2204.4623 1608.49,2214.3937 1608.81,2240.7237 " fill="none" id="GreenSpace-backto-LargePark" style="stroke:#181818;stroke-width:1.0;stroke-dasharray:7.0,7.0;"/><polygon fill="none" points="1607.85,2162.0237,1602.0714,2180.096,1614.0705,2179.9487,1607.85,2162.0237" style="stroke:#181818;stroke-width:1.0;"/></g><!--link Repositories to Repositories--><g id="link_Repositories_Repositories"><path codeLine="212" d="M1194.12,592.7037 C1214.46,594.9037 1229,601.5037 1229,612.5137 C1229,623.5237 1220.4252,629.4785 1200.0852,631.6785 " fill="none" id="Repositories-to-Repositories" style="stroke:#181818;stroke-width:1.0;"/><polygon fill="#181818" points="1194.12,632.3237,1203.4979,635.3327,1199.091,631.786,1202.6377,627.3791,1194.12,632.3237" style="stroke:#181818;stroke-width:1.0;"/><text fill="#000000" font-family="sans-serif" font-size="13" lengthAdjust="spacing" textLength="49" x="1235" y="618.042">instance</text></g><!--link ApplicationSession to ApplicationSession--><g id="link_ApplicationSession_ApplicationSession"><path codeLine="213" d="M1483.21,592.1137 C1503.06,593.4137 1518,600.2137 1518,612.5137 C1518,624.8137 1509.0472,631.2216 1489.1972,632.5216 " fill="none" id="ApplicationSession-to-ApplicationSession" style="stroke:#181818;stroke-width:1.0;"/><polygon fill="#181818" points="1483.21,632.9137,1492.4522,636.317,1488.1993,632.5869,1491.9294,628.3341,1483.21,632.9137" style="stroke:#181818;stroke-width:1.0;"/><text fill="#000000" font-family="sans-serif" font-size="13" lengthAdjust="spacing" textLength="49" x="1524" y="618.042">instance</text></g><!--link AssignTeamAgendaUI to AssignTeamAgendaController--><g id="link_AssignTeamAgendaUI_AssignTeamAgendaController"><path codeLine="216" d="M1541,91.1337 C1541,112.0837 1541,138.5437 1541,170.8937 " fill="none" id="AssignTeamAgendaUI-to-AssignTeamAgendaController" style="stroke:#181818;stroke-width:1.0;stroke-dasharray:7.0,7.0;"/><polygon fill="#181818" points="1541,176.8937,1545,167.8937,1541,171.8937,1537,167.8937,1541,176.8937" style="stroke:#181818;stroke-width:1.0;"/></g><!--link AssignTeamAgendaController to Repositories--><g id="link_AssignTeamAgendaController_Repositories"><path codeLine="219" d="M1393.69,393.0437 C1326.36,441.9637 1253.3737,494.9864 1193.7637,538.3064 " fill="none" id="AssignTeamAgendaController-to-Repositories" style="stroke:#181818;stroke-width:1.0;stroke-dasharray:7.0,7.0;"/><polygon fill="#181818" points="1188.91,541.8337,1198.5421,539.7785,1192.9547,538.8943,1193.839,533.307,1188.91,541.8337" style="stroke:#181818;stroke-width:1.0;"/><text fill="#000000" font-family="sans-serif" font-size="13" lengthAdjust="spacing" textLength="67" x="1344" y="440.042">repositories</text></g><!--link AssignTeamAgendaController to ApplicationSession--><g id="link_AssignTeamAgendaController_ApplicationSession"><path codeLine="220" d="M1496.61,393.0437 C1471.56,453.4537 1443.9679,519.9612 1425.5679,564.3412 " fill="none" id="AssignTeamAgendaController-to-ApplicationSession" style="stroke:#181818;stroke-width:1.0;stroke-dasharray:7.0,7.0;"/><polygon fill="#181818" points="1423.27,569.8837,1430.4119,563.1019,1425.1849,565.2649,1423.0219,560.0379,1423.27,569.8837" style="stroke:#181818;stroke-width:1.0;"/></g><!--link AssignTeamAgendaController to UserSession--><g id="link_AssignTeamAgendaController_UserSession"><path codeLine="221" d="M1577.37,393.2537 C1599.14,475.2637 1616.23,589.7337 1580,683.0137 C1567.89,714.1937 1547.0126,737.9742 1524.6126,758.0042 " fill="none" id="AssignTeamAgendaController-to-UserSession" style="stroke:#181818;stroke-width:1.0;stroke-dasharray:7.0,7.0;"/><polygon fill="#181818" points="1520.14,762.0037,1529.5153,758.9863,1523.8672,758.6708,1524.1827,753.0228,1520.14,762.0037" style="stroke:#181818;stroke-width:1.0;"/></g><!--link AssignTeamAgendaController to GreenSpaceRepository--><g id="link_AssignTeamAgendaController_GreenSpaceRepository"><path codeLine="222" d="M1601.38,393.2837 C1605.82,403.8037 1609.81,414.4837 1613,425.0137 C1668.36,607.6637 1722.89,728.7837 1578,853.0137 C1528.63,895.3437 1058.25,881.9237 994,892.0137 C988.32,892.9037 988.4758,892.8247 982.6758,893.8647 " fill="none" id="AssignTeamAgendaController-to-GreenSpaceRepository" style="stroke:#181818;stroke-width:1.0;stroke-dasharray:7.0,7.0;"/><polygon fill="#181818" points="976.77,894.9237,986.3347,897.2724,981.6915,894.0412,984.9227,889.398,976.77,894.9237" style="stroke:#181818;stroke-width:1.0;"/></g><!--link AssignTeamAgendaController to ICollaborator--><g id="link_AssignTeamAgendaController_ICollaborator"><path codeLine="224" d="M1277.12,302.1637 C905.61,327.3137 264.56,380.4837 185,452.0137 C130.89,500.6737 148,538.7437 148,611.5137 C148,611.5137 148,611.5137 148,945.0137 C148,982.1837 156.04,996.7137 185,1020.0137 C308.61,1119.4937 783.0818,1196.2648 970.0318,1223.3048 " fill="none" id="AssignTeamAgendaController-to-ICollaborator" style="stroke:#181818;stroke-width:1.0;stroke-dasharray:7.0,7.0;"/><polygon fill="#181818" points="975.97,1224.1637,967.6353,1218.9165,971.0215,1223.4479,966.4901,1226.8341,975.97,1224.1637" style="stroke:#181818;stroke-width:1.0;"/></g><!--link AssignTeamAgendaController to Agenda--><g id="link_AssignTeamAgendaController_Agenda"><path codeLine="225" d="M1729.77,393.1437 C1750.5,410.7537 1769.63,430.4137 1785,452.0137 C1827.56,511.8337 1828,538.0937 1828,611.5137 C1828,611.5137 1828,611.5137 1828,1236.5137 C1828,1326.4137 1764.2294,1403.5064 1707.0894,1455.7164 " fill="none" id="AssignTeamAgendaController-to-Agenda" style="stroke:#181818;stroke-width:1.0;stroke-dasharray:7.0,7.0;"/><polygon fill="#181818" points="1702.66,1459.7637,1712.0023,1456.6457,1706.3512,1456.391,1706.606,1450.7398,1702.66,1459.7637" style="stroke:#181818;stroke-width:1.0;"/></g><!--link AssignTeamAgendaController to CollaboratorRepository--><g id="link_AssignTeamAgendaController_CollaboratorRepository"><path codeLine="226" d="M1692.22,393.1837 C1699.92,403.1737 1706.66,413.7837 1712,425.0137 C1795.45,600.3937 1844.25,719.7737 1712,862.0137 C1680.75,895.6237 1345.05,883.2337 1300,892.0137 C1276.94,896.5037 1258.2662,901.4803 1235.7262,908.6703 " fill="none" id="AssignTeamAgendaController-to-CollaboratorRepository" style="stroke:#181818;stroke-width:1.0;stroke-dasharray:7.0,7.0;"/><polygon fill="#181818" points="1230.01,910.4937,1239.7999,911.5694,1234.7735,908.9742,1237.3687,903.9477,1230.01,910.4937" style="stroke:#181818;stroke-width:1.0;"/></g><!--link AssignTeamAgendaController to TeamRepository--><g id="link_AssignTeamAgendaController_TeamRepository"><path codeLine="227" d="M1277.36,344.3737 C1179.78,370.8337 1069.89,406.5437 975,452.0137 C757.63,556.1737 706.05,597.3737 530,762.0137 C484.12,804.9137 443.7769,857.8396 416.5469,896.4696 " fill="none" id="AssignTeamAgendaController-to-TeamRepository" style="stroke:#181818;stroke-width:1.0;stroke-dasharray:7.0,7.0;"/><polygon fill="#181818" points="413.09,901.3737,421.5447,896.3221,415.9707,897.2869,415.0059,891.713,413.09,901.3737" style="stroke:#181818;stroke-width:1.0;"/></g><!--link AssignTeamAgendaController to GreenSpace--><g id="link_AssignTeamAgendaController_GreenSpace"><path codeLine="228" d="M1804.75,385.0037 C1893.29,436.4937 1970,510.3137 1970,611.5137 C1970,611.5137 1970,611.5137 1970,1816.5137 C1970,1941.7637 1836.2593,2014.9173 1730.2293,2054.0273 " fill="none" id="AssignTeamAgendaController-to-GreenSpace" style="stroke:#181818;stroke-width:1.0;stroke-dasharray:7.0,7.0;"/><polygon fill="#181818" points="1724.6,2056.1037,1734.4282,2056.7419,1729.2911,2054.3733,1731.6596,2049.2362,1724.6,2056.1037" style="stroke:#181818;stroke-width:1.0;"/></g><!--link AssignTeamAgendaController to AgendaTask--><g id="link_AssignTeamAgendaController_AgendaTask"><path codeLine="229" d="M1771.14,393.1037 C1793.87,410.4037 1814.83,430.0037 1832,452.0137 C1879.29,512.6337 1899,534.6237 1899,611.5137 C1899,611.5137 1899,611.5137 1899,1522.0137 C1899,1614.9837 1829.1793,1686.5041 1756.9393,1737.2641 " fill="none" id="AssignTeamAgendaController-to-AgendaTask" style="stroke:#181818;stroke-width:1.0;stroke-dasharray:7.0,7.0;"/><polygon fill="#181818" points="1752.03,1740.7137,1761.6936,1738.8122,1756.121,1737.8391,1757.0942,1732.2665,1752.03,1740.7137" style="stroke:#181818;stroke-width:1.0;"/></g><!--link AssignTeamAgendaController to EmailService--><g id="link_AssignTeamAgendaController_EmailService"><path codeLine="230" d="M1277.35,292.2237 C993.67,303.5137 530.86,335.3437 142,425.0137 C108.29,432.7837 93.73,427.8237 69,452.0137 C14.52,505.3137 6,535.2937 6,611.5137 C6,611.5137 6,611.5137 6,2092.5137 C6,2201.1937 118.8844,2267.3621 209.1144,2303.7021 " fill="none" id="AssignTeamAgendaController-to-EmailService" style="stroke:#181818;stroke-width:1.0;stroke-dasharray:7.0,7.0;"/><polygon fill="#181818" points="214.68,2305.9437,207.826,2298.871,210.042,2304.0757,204.8373,2306.2918,214.68,2305.9437" style="stroke:#181818;stroke-width:1.0;"/></g><!--link AssignTeamAgendaController to Team--><g id="link_AssignTeamAgendaController_Team"><path codeLine="232" d="M1277.19,302.6237 C944.5,325.4137 392.12,369.9037 195,425.0137 C100.54,451.4237 77,513.4237 77,611.5137 C77,611.5137 77,611.5137 77,1816.5137 C77,1926.4037 182.9444,2002.0493 268.5844,2046.0993 " fill="none" id="AssignTeamAgendaController-to-Team" style="stroke:#181818;stroke-width:1.0;stroke-dasharray:7.0,7.0;"/><polygon fill="#181818" points="273.92,2048.8437,267.7463,2041.17,269.4737,2046.5567,264.0871,2048.2841,273.92,2048.8437" style="stroke:#181818;stroke-width:1.0;"/></g><!--link ApplicationSession to UserSession--><g id="link_ApplicationSession_UserSession"><path codeLine="236" d="M1422.52,655.0437 C1435.43,687.4937 1450.9132,726.4082 1462.8132,756.3382 " fill="none" id="ApplicationSession-to-UserSession" style="stroke:#181818;stroke-width:1.0;"/><polygon fill="#181818" points="1465.03,761.9137,1465.4218,752.0726,1463.1827,757.2674,1457.9879,755.0283,1465.03,761.9137" style="stroke:#181818;stroke-width:1.0;"/><text fill="#000000" font-family="sans-serif" font-size="13" lengthAdjust="spacing" textLength="72" x="1453" y="728.042">userSession</text><text fill="#000000" font-family="sans-serif" font-size="13" lengthAdjust="spacing" textLength="7" x="1454.7875" y="750.7195">1</text></g><!--link Repositories to TeamRepository--><g id="link_Repositories_TeamRepository"><path codeLine="239" d="M991.77,647.9237 C912.92,675.8037 801.37,717.6237 707,762.0137 C616.33,804.6637 521.5258,859.5815 457.4058,898.3115 " fill="none" id="Repositories-to-TeamRepository" style="stroke:#181818;stroke-width:1.0;"/><polygon fill="#181818" points="452.27,901.4137,462.0418,900.1843,456.5498,898.8285,457.9056,893.3366,452.27,901.4137" style="stroke:#181818;stroke-width:1.0;"/><text fill="#000000" font-family="sans-serif" font-size="13" lengthAdjust="spacing" textLength="156" x="708" y="801.042">TeamRepositoryRepository</text><text fill="#000000" font-family="sans-serif" font-size="13" lengthAdjust="spacing" textLength="7" x="455.4333" y="890.3018">1</text></g><!--link Repositories to CollaboratorRepository--><g id="link_Repositories_CollaboratorRepository"><path codeLine="240" d="M1103.39,683.3937 C1113.79,753.2937 1128.4372,851.809 1136.2572,904.379 " fill="none" id="Repositories-to-CollaboratorRepository" style="stroke:#181818;stroke-width:1.0;"/><polygon fill="#181818" points="1137.14,910.3137,1139.7723,900.8231,1136.4043,905.3681,1131.8593,902.0002,1137.14,910.3137" style="stroke:#181818;stroke-width:1.0;"/><text fill="#000000" font-family="sans-serif" font-size="13" lengthAdjust="spacing" textLength="131" x="1129" y="801.042">CollaboratorRepository</text><text fill="#000000" font-family="sans-serif" font-size="13" lengthAdjust="spacing" textLength="7" x="1128.5464" y="899.3615">1</text></g><!--link Repositories to Agenda--><g id="link_Repositories_Agenda"><path codeLine="241" d="M1190.47,683.1037 C1218.19,706.0637 1246.84,733.1637 1269,762.0137 C1274.86,769.6337 1512.168,1276.6087 1595.378,1454.5187 " fill="none" id="Repositories-to-Agenda" style="stroke:#181818;stroke-width:1.0;"/><polygon fill="#181818" points="1597.92,1459.9537,1597.7303,1450.1066,1595.8017,1455.4246,1590.4838,1453.4959,1597.92,1459.9537" style="stroke:#181818;stroke-width:1.0;"/><text fill="#000000" font-family="sans-serif" font-size="13" lengthAdjust="spacing" textLength="44" x="1391" y="949.542">Agenda</text><text fill="#000000" font-family="sans-serif" font-size="13" lengthAdjust="spacing" textLength="7" x="1587.2686" y="1448.9279">1</text></g><!--link Repositories to GreenSpaceRepository--><g id="link_Repositories_GreenSpaceRepository"><path codeLine="242" d="M1028.74,683.3937 C971.33,745.8237 892.6214,831.4172 841.1514,887.3872 " fill="none" id="Repositories-to-GreenSpaceRepository" style="stroke:#181818;stroke-width:1.0;"/><polygon fill="#181818" points="837.09,891.8037,846.1264,887.8866,840.4745,888.1233,840.2378,882.4714,837.09,891.8037" style="stroke:#181818;stroke-width:1.0;"/><text fill="#000000" font-family="sans-serif" font-size="13" lengthAdjust="spacing" textLength="134" x="956" y="801.042">GreenSpaceRepository</text><text fill="#000000" font-family="sans-serif" font-size="13" lengthAdjust="spacing" textLength="7" x="835.9474" y="880.7028">1</text></g><!--link GreenSpaceManager to GreenSpaces--><g id="link_GreenSpaceManager_GreenSpaces"><path codeLine="243" d="M1270,1610.2137 C1270,1738.8637 1270,1965.9737 1270,2051.7237 " fill="none" id="GreenSpaceManager-to-GreenSpaces" style="stroke:#181818;stroke-width:1.0;"/><polygon fill="#181818" points="1270,2057.7237,1274,2048.7237,1270,2052.7237,1266,2048.7237,1270,2057.7237" style="stroke:#181818;stroke-width:1.0;"/><text fill="#000000" font-family="sans-serif" font-size="13" lengthAdjust="spacing" textLength="76" x="1271" y="1821.042">greenSpaces</text><text fill="#000000" font-family="sans-serif" font-size="13" lengthAdjust="spacing" textLength="7" x="1262.7102" y="1632.3304">1</text><text fill="#000000" font-family="sans-serif" font-size="13" lengthAdjust="spacing" textLength="7" x="1262.3328" y="2046.7543">1</text></g><!--link CollaboratorRepository to ICollaborator--><g id="link_CollaboratorRepository_ICollaborator"><path codeLine="247" d="M1131.74,977.6637 C1122.28,1007.7537 1109.3788,1048.7796 1095.1088,1094.1896 " fill="none" id="CollaboratorRepository-to-ICollaborator" style="stroke:#181818;stroke-width:1.0;"/><polygon fill="#181818" points="1093.31,1099.9137,1099.8242,1092.5268,1094.809,1095.1437,1092.1921,1090.1285,1093.31,1099.9137" style="stroke:#181818;stroke-width:1.0;"/><text fill="#000000" font-family="sans-serif" font-size="13" lengthAdjust="spacing" textLength="88" x="1116" y="1043.042">collaboratorList</text><text fill="#000000" font-family="sans-serif" font-size="13" lengthAdjust="spacing" textLength="7" x="1122.289" y="999.2596">1</text><text fill="#000000" font-family="sans-serif" font-size="13" lengthAdjust="spacing" textLength="5" x="1090.6115" y="1088.6065">*</text></g><!--link GreenSpaceRepository to GreenSpace--><g id="link_GreenSpaceRepository_GreenSpace"><path codeLine="250" d="M778.02,996.2037 C765.61,1053.8037 748,1150.3337 748,1234.5137 C748,1234.5137 748,1234.5137 748,1816.5137 C748,2111.7437 1091.73,1957.2937 1380,2021.0137 C1415.92,2028.9537 1448.6472,2038.033 1483.5172,2048.803 " fill="none" id="GreenSpaceRepository-to-GreenSpace" style="stroke:#181818;stroke-width:1.0;"/><polygon fill="#181818" points="1489.25,2050.5737,1481.8312,2044.0959,1484.4727,2049.0981,1479.4704,2051.7396,1489.25,2050.5737" style="stroke:#181818;stroke-width:1.0;"/><text fill="#000000" font-family="sans-serif" font-size="13" lengthAdjust="spacing" textLength="90" x="749" y="1526.542">greenSpaceList</text><text fill="#000000" font-family="sans-serif" font-size="13" lengthAdjust="spacing" textLength="7" x="769.0366" y="1018.0353">1</text><text fill="#000000" font-family="sans-serif" font-size="13" lengthAdjust="spacing" textLength="5" x="1476.5465" y="2044.4407">*</text></g><!--link TeamRepository to Team--><g id="link_TeamRepository_Team"><path codeLine="253" d="M382.89,986.7137 C380.23,1042.9537 376,1146.2637 376,1234.5137 C376,1234.5137 376,1234.5137 376,1816.5137 C376,1898.8237 373.8852,1989.0159 372.4052,2042.7459 " fill="none" id="TeamRepository-to-Team" style="stroke:#181818;stroke-width:1.0;"/><polygon fill="#181818" points="372.24,2048.7437,376.4863,2039.8572,372.3777,2043.7456,368.4893,2039.6369,372.24,2048.7437" style="stroke:#181818;stroke-width:1.0;"/><text fill="#000000" font-family="sans-serif" font-size="13" lengthAdjust="spacing" textLength="50" x="377" y="1526.542">teamList</text><text fill="#000000" font-family="sans-serif" font-size="13" lengthAdjust="spacing" textLength="7" x="374.9959" y="1008.9059">1</text><text fill="#000000" font-family="sans-serif" font-size="13" lengthAdjust="spacing" textLength="5" x="367.0392" y="2037.6047">*</text></g><!--link GreenSpaces to GreenSpace--><g id="link_GreenSpaces_GreenSpace"><path codeLine="256" d="M1362.53,2091.5137 C1401.7,2091.5137 1441.79,2091.5137 1483.33,2091.5137 " fill="none" id="GreenSpaces-to-GreenSpace" style="stroke:#181818;stroke-width:1.0;"/><polygon fill="#181818" points="1489.33,2091.5137,1480.33,2087.5137,1484.33,2091.5137,1480.33,2095.5137,1489.33,2091.5137" style="stroke:#181818;stroke-width:1.0;"/><text fill="#000000" font-family="sans-serif" font-size="13" lengthAdjust="spacing" textLength="90" x="1381" y="2084.542">greenSpaceList</text><text fill="#000000" font-family="sans-serif" font-size="13" lengthAdjust="spacing" textLength="7" x="1370.4825" y="2087.8658">1</text><text fill="#000000" font-family="sans-serif" font-size="13" lengthAdjust="spacing" textLength="5" x="1476.6316" y="2088.0034">*</text></g><!--link Agenda to AgendaTask--><g id="link_Agenda_AgendaTask"><path codeLine="258" d="M1624.56,1582.2637 C1623.82,1613.1237 1623.0327,1645.8954 1622.1527,1682.8754 " fill="none" id="Agenda-to-AgendaTask" style="stroke:#181818;stroke-width:1.0;"/><polygon fill="#181818" points="1622.01,1688.8737,1626.223,1679.9714,1622.1289,1683.8751,1618.2252,1679.7811,1622.01,1688.8737" style="stroke:#181818;stroke-width:1.0;"/><text fill="#000000" font-family="sans-serif" font-size="13" lengthAdjust="spacing" textLength="46" x="1624" y="1655.042">taskList</text><text fill="#000000" font-family="sans-serif" font-size="13" lengthAdjust="spacing" textLength="7" x="1616.9888" y="1604.3457">1</text><text fill="#000000" font-family="sans-serif" font-size="13" lengthAdjust="spacing" textLength="5" x="1617.0411" y="1677.6809">*</text></g><!--link AgendaTask to GreenSpace--><g id="link_AgendaTask_GreenSpace"><path codeLine="259" d="M1613.49,1942.2837 C1612.31,1969.2937 1611.3628,1990.8994 1610.3128,2014.8494 " fill="none" id="AgendaTask-to-GreenSpace" style="stroke:#181818;stroke-width:1.0;"/><polygon fill="#181818" points="1610.05,2020.8437,1614.4404,2012.0275,1610.269,2015.8485,1606.448,2011.6771,1610.05,2020.8437" style="stroke:#181818;stroke-width:1.0;"/><text fill="#000000" font-family="sans-serif" font-size="13" lengthAdjust="spacing" textLength="69" x="1612" y="1987.042">greenSpace</text><text fill="#000000" font-family="sans-serif" font-size="13" lengthAdjust="spacing" textLength="5" x="1608.052" y="1963.7221">*</text><text fill="#000000" font-family="sans-serif" font-size="13" lengthAdjust="spacing" textLength="7" x="1603.0036" y="2009.7172">1</text></g><!--link AgendaTask to Team--><g id="link_AgendaTask_Team"><path codeLine="260" d="M1485.91,1889.3937 C1445.22,1909.0837 1399.65,1928.6337 1356,1942.0137 C1075.33,2028.0437 739.7722,2064.8215 541.4922,2080.1415 " fill="none" id="AgendaTask-to-Team" style="stroke:#181818;stroke-width:1.0;"/><polygon fill="#181818" points="535.51,2080.6037,544.7914,2083.8985,540.4951,2080.2185,544.1751,2075.9222,535.51,2080.6037" style="stroke:#181818;stroke-width:1.0;"/><text fill="#000000" font-family="sans-serif" font-size="13" lengthAdjust="spacing" textLength="29" x="1226" y="1987.042">team</text><text fill="#000000" font-family="sans-serif" font-size="13" lengthAdjust="spacing" textLength="5" x="1473.0712" y="1890.215">*</text><text fill="#000000" font-family="sans-serif" font-size="13" lengthAdjust="spacing" textLength="7" x="543.648" y="2076.693">1</text></g><!--reverse link Team to EmailService--><g id="link_Team_EmailService"><path codeLine="262" d="M360.1677,2140.0939 C349.1477,2188.4839 332.56,2261.3937 322.48,2305.6537 " fill="none" id="Team-backto-EmailService" style="stroke:#181818;stroke-width:1.0;"/><polygon fill="#181818" points="361.5,2134.2437,355.6014,2142.1308,360.3898,2139.1189,363.4017,2143.9072,361.5,2134.2437" style="stroke:#181818;stroke-width:1.0;"/><text fill="#000000" font-family="sans-serif" font-size="13" lengthAdjust="spacing" textLength="166" x="349" y="2207.042">send email to all elements of</text><text fill="#000000" font-family="sans-serif" font-size="13" lengthAdjust="spacing" textLength="5" x="354.5875" y="2156.4407">*</text><text fill="#000000" font-family="sans-serif" font-size="13" lengthAdjust="spacing" textLength="7" x="316.2387" y="2294.671">1</text></g><!--SRC=[tLXVRzis47_Nfo3y4cUr0_Gr208uoHfuQB9YJZu08vrb8XJfKLHMj-Xttv5I94ewIGwo3jZyOfltk__78uyd-RDGUsvunZAjTBmpEWDcJG5HGzdp-9cdiB472Sn0RBbAPGZ8TppHVmcLiYsNUKYHGe4zx85fOtKK46B9ytnbhH5FXOLrhDL6V0Cs-pYBeXC9MykiPaQaEyiIuNGAhQBA43PxNC_OnSKdBHCmbvViUyJmuqMoLPwBL3q0prOfg8G_hYloZ-X7r4YurieQBIMOeoKrB1NCVJwCmEOnVl4dRRZLvW_OwrpWZyE2SGzSMEHfbay3cIdObPHNXzlDtRo_xdIrbdbjmWFFd-TExdMW-fvdiB18-SBDS_t7_MY4B0CXNe37XFGSRVuruq8sa2nFGqHftQq1K1iCD9Jsf_N_EwxGSzDdSLOZk0REfSXjyxV3W48_OPbk00tMgWg4o-xxo-EOshlH60JLKU15T21dg_rUYfWxTWeU6DK0AwzgG5DfPQfpYx3OXM6jyBV2O9rs84YxBem1PTiXAhtig7xCmKpfH84EvfFVaXL8xFf-fnEGGruBPS5iCRFCozo0UH4njDH-QEhjwb01vk3-jgkkvz0DY50e4zbUGeR1o3lAXaNSEjnxXRWIwmRo1OpO7hfRazoltQJMqPWFkTy4THqA8vBfbH9LynbttUPPI4aHVzDFrF8Dj_3xzaeOkwF8goGJlhWSZWOa1ikF5AtZmiMSedtPQGNtHVQ4NPOWTqkr9Zpmhtj-89XsF2-PV8qHL1yqvJCpdFGmy67HZ6HaoJPu2EBHwMHtA2veB6aYJ95v665QidUfGy9gOROAne2pusNPtpNTFly_3q1hsmHdryJcR91XHvpScoi3_2tx1_uiy2eMc9KInobLtCFvvIO15IQraNvyHbtOEVhIMQxSw0QarEajMpYkHMvHfm_I0kzDzXfFcR8BBAIEkHJV_25w-hFYkcGlg2JnIgPINaRj3X9HPExYzUz6xXyifSQ5ToRYxT7xp4qA_-dWrHxyhDWTqv1puXAmmOaCaW0pbeVohaprgxVSteDJs76u0AnKOC9yOaOP77OUMgDADSuaYMlCFUFQOusxyrEkEhPkVwxhgy2KglX0b1XytUEu0CbDONocEX1tahaRlB74MUM9g7lu67Dt_w9NhDY-7wfGpOTYXfWc13NoDTIdv3Nro8GkA_XzqRitBgjJgCmJaQDYxvokvyb-CGyC5ytGF3vNrJW1UJ-R8PNQqis0nSvROAAWMvCysHzyMP6p6lb8CBORQGvgR0kHLuVoWajT14Pwnw02lyMEk624dQlrF31o9J6GOic12S2ZxVDqV0vhVFXETp34a2NW25Tl7TX-DEy99yl-vxMi25BKAjZbPRk0px75bAnH_y70eOdLW8Sqvd5DcK4yafoTNOwyTD726_enIeBdDQUiuxe9zzy4A_6SCig1BE4po1IMsXlH95Th0ff4bwkJCBeJJBArzyGR73xIRjVm9w7XGqfqbCaHNMRzT9FbHcmPt3EpZxCm-LXfHL0AfBwmCgStyQkITinHJtiXI0VDFz3qpuTgW9PI1XUvgWAZKMJtFoVhlZ_rEm649BU9cuQVHqCjWtA6Yl90F9pICh6_pDfx3lM7x_7kSaZRGFb9MK16gVI-L1-C-g7lxzVSgQLGfoEXDdT27QDdtA-y57s4DrLTXPO45scq1xyyCbXre7wTj8GFmRsNbPkH3uSdNooNdjnwkpttRwVb6v1xsETICdYT9VNsRm00]--></g></svg>