<?xml version="1.0" encoding="us-ascii" standalone="no"?><svg xmlns="http://www.w3.org/2000/svg" xmlns:xlink="http://www.w3.org/1999/xlink" contentStyleType="text/css" height="730px" preserveAspectRatio="none" style="width:1125px;height:730px;background:#FFFFFF;" version="1.1" viewBox="0 0 1125 730" width="1125px" zoomAndPan="magnify"><defs/><g><rect fill="#FFFFFF" height="565.9473" style="stroke:#181818;stroke-width:1.0;" width="10" x="187" y="90.5332"/><rect fill="#FFFFFF" height="31.291" style="stroke:#181818;stroke-width:1.0;" width="10" x="349" y="148.1152"/><rect fill="#FFFFFF" height="31.291" style="stroke:#181818;stroke-width:1.0;" width="10" x="456" y="210.6973"/><rect fill="#FFFFFF" height="344.9102" style="stroke:#181818;stroke-width:1.0;" width="10" x="548" y="273.2793"/><rect fill="#FFFFFF" height="42.291" style="stroke:#181818;stroke-width:1.0;" width="10" x="553" y="523.6074"/><rect fill="#FFFFFF" height="127.1641" style="stroke:#181818;stroke-width:1.0;" width="10" x="797" y="330.8613"/><rect fill="#FFFFFF" height="31.291" style="stroke:#181818;stroke-width:1.0;" width="10" x="1035" y="388.4434"/><rect fill="none" height="520.6563" style="stroke:#000000;stroke-width:1.5;" width="1040.5" x="78.5" y="105.5332"/><rect fill="none" height="299.6191" style="stroke:#000000;stroke-width:1.5;" width="609.5" x="499.5" y="288.2793"/><rect fill="none" height="81.873" style="stroke:#000000;stroke-width:1.5;" width="356" x="743" y="345.8613"/><rect fill="none" height="107.873" style="stroke:#000000;stroke-width:1.5;" width="292.5" x="509.5" y="473.0254"/><line style="stroke:#181818;stroke-width:0.5;stroke-dasharray:5.0,5.0;" x1="191.5" x2="191.5" y1="57.2422" y2="674.4805"/><line style="stroke:#181818;stroke-width:0.5;stroke-dasharray:5.0,5.0;" x1="353.5" x2="353.5" y1="57.2422" y2="674.4805"/><line style="stroke:#181818;stroke-width:0.5;stroke-dasharray:5.0,5.0;" x1="460.5" x2="460.5" y1="57.2422" y2="674.4805"/><line style="stroke:#181818;stroke-width:0.5;stroke-dasharray:5.0,5.0;" x1="552.5" x2="552.5" y1="57.2422" y2="674.4805"/><line style="stroke:#181818;stroke-width:0.5;stroke-dasharray:5.0,5.0;" x1="802" x2="802" y1="57.2422" y2="674.4805"/><line style="stroke:#181818;stroke-width:0.5;stroke-dasharray:5.0,5.0;" x1="1040" x2="1040" y1="57.2422" y2="674.4805"/><rect fill="#E3E3E3" height="32.6211" rx="2.5" ry="2.5" style="stroke:#181818;stroke-width:0.5;" width="207" x="88.5" y="23.6211"/><text fill="#000000" font-family="sans-serif" font-size="14" lengthAdjust="spacing" textLength="193" x="95.5" y="45.7285">:AssignTeamAgendaController</text><rect fill="#E3E3E3" height="32.6211" rx="2.5" ry="2.5" style="stroke:#181818;stroke-width:0.5;" width="207" x="88.5" y="673.4805"/><text fill="#000000" font-family="sans-serif" font-size="14" lengthAdjust="spacing" textLength="193" x="95.5" y="695.5879">:AssignTeamAgendaController</text><rect fill="#E3E3E3" height="32.6211" rx="2.5" ry="2.5" style="stroke:#181818;stroke-width:0.5;" width="97" x="305.5" y="23.6211"/><text fill="#000000" font-family="sans-serif" font-size="14" lengthAdjust="spacing" textLength="83" x="312.5" y="45.7285">:Repositories</text><rect fill="#E3E3E3" height="32.6211" rx="2.5" ry="2.5" style="stroke:#181818;stroke-width:0.5;" width="97" x="305.5" y="673.4805"/><text fill="#000000" font-family="sans-serif" font-size="14" lengthAdjust="spacing" textLength="83" x="312.5" y="695.5879">:Repositories</text><rect fill="#E3E3E3" height="51.2422" rx="2.5" ry="2.5" style="stroke:#181818;stroke-width:0.5;" width="97" x="412.5" y="5"/><text fill="#000000" font-family="sans-serif" font-size="14" lengthAdjust="spacing" textLength="74" x="424" y="27.1074">repositories</text><text fill="#000000" font-family="sans-serif" font-size="14" lengthAdjust="spacing" textLength="83" x="419.5" y="45.7285">:Repositories</text><rect fill="#E3E3E3" height="51.2422" rx="2.5" ry="2.5" style="stroke:#181818;stroke-width:0.5;" width="97" x="412.5" y="673.4805"/><text fill="#000000" font-family="sans-serif" font-size="14" lengthAdjust="spacing" textLength="74" x="424" y="695.5879">repositories</text><text fill="#000000" font-family="sans-serif" font-size="14" lengthAdjust="spacing" textLength="83" x="419.5" y="714.209">:Repositories</text><rect fill="#E3E3E3" height="51.2422" rx="2.5" ry="2.5" style="stroke:#181818;stroke-width:0.5;" width="67" x="519.5" y="5"/><text fill="#000000" font-family="sans-serif" font-size="14" lengthAdjust="spacing" textLength="48" x="529" y="27.1074">agenda</text><text fill="#000000" font-family="sans-serif" font-size="14" lengthAdjust="spacing" textLength="53" x="526.5" y="45.7285">:Agenda</text><rect fill="#E3E3E3" height="51.2422" rx="2.5" ry="2.5" style="stroke:#181818;stroke-width:0.5;" width="67" x="519.5" y="673.4805"/><text fill="#000000" font-family="sans-serif" font-size="14" lengthAdjust="spacing" textLength="48" x="529" y="695.5879">agenda</text><text fill="#000000" font-family="sans-serif" font-size="14" lengthAdjust="spacing" textLength="53" x="526.5" y="714.209">:Agenda</text><rect fill="#E3E3E3" height="51.2422" rx="2.5" ry="2.5" style="stroke:#181818;stroke-width:0.5;" width="98" x="753" y="5"/><text fill="#000000" font-family="sans-serif" font-size="14" lengthAdjust="spacing" textLength="79" x="762.5" y="27.1074">agendaTask</text><text fill="#000000" font-family="sans-serif" font-size="14" lengthAdjust="spacing" textLength="84" x="760" y="45.7285">:AgendaTask</text><rect fill="#E3E3E3" height="51.2422" rx="2.5" ry="2.5" style="stroke:#181818;stroke-width:0.5;" width="98" x="753" y="673.4805"/><text fill="#000000" font-family="sans-serif" font-size="14" lengthAdjust="spacing" textLength="79" x="762.5" y="695.5879">agendaTask</text><text fill="#000000" font-family="sans-serif" font-size="14" lengthAdjust="spacing" textLength="84" x="760" y="714.209">:AgendaTask</text><rect fill="#E3E3E3" height="51.2422" rx="2.5" ry="2.5" style="stroke:#181818;stroke-width:0.5;" width="98" x="991" y="5"/><text fill="#000000" font-family="sans-serif" font-size="14" lengthAdjust="spacing" textLength="77" x="1001.5" y="27.1074">greenSpace</text><text fill="#000000" font-family="sans-serif" font-size="14" lengthAdjust="spacing" textLength="84" x="998" y="45.7285">:GreenSpace</text><rect fill="#E3E3E3" height="51.2422" rx="2.5" ry="2.5" style="stroke:#181818;stroke-width:0.5;" width="98" x="991" y="673.4805"/><text fill="#000000" font-family="sans-serif" font-size="14" lengthAdjust="spacing" textLength="77" x="1001.5" y="695.5879">greenSpace</text><text fill="#000000" font-family="sans-serif" font-size="14" lengthAdjust="spacing" textLength="84" x="998" y="714.209">:GreenSpace</text><rect fill="#FFFFFF" height="565.9473" style="stroke:#181818;stroke-width:1.0;" width="10" x="187" y="90.5332"/><rect fill="#FFFFFF" height="31.291" style="stroke:#181818;stroke-width:1.0;" width="10" x="349" y="148.1152"/><rect fill="#FFFFFF" height="31.291" style="stroke:#181818;stroke-width:1.0;" width="10" x="456" y="210.6973"/><rect fill="#FFFFFF" height="344.9102" style="stroke:#181818;stroke-width:1.0;" width="10" x="548" y="273.2793"/><rect fill="#FFFFFF" height="42.291" style="stroke:#181818;stroke-width:1.0;" width="10" x="553" y="523.6074"/><rect fill="#FFFFFF" height="127.1641" style="stroke:#181818;stroke-width:1.0;" width="10" x="797" y="330.8613"/><rect fill="#FFFFFF" height="31.291" style="stroke:#181818;stroke-width:1.0;" width="10" x="1035" y="388.4434"/><polygon fill="#181818" points="175,86.5332,185,90.5332,175,94.5332,179,90.5332" style="stroke:#181818;stroke-width:1.0;"/><line style="stroke:#181818;stroke-width:1.0;stroke-dasharray:2.0,2.0;" x1="0" x2="181" y1="90.5332" y2="90.5332"/><text fill="#000000" font-family="sans-serif" font-size="13" font-weight="bold" lengthAdjust="spacing" textLength="7" x="7" y="85.2705">9</text><text fill="#000000" font-family="sans-serif" font-size="13" lengthAdjust="spacing" textLength="157" x="18" y="85.2705">getAllTaskByGreenSpace()</text><path d="M78.5,105.5332 L302.5,105.5332 L302.5,114.8242 L292.5,124.8242 L78.5,124.8242 L78.5,105.5332 " fill="#EEEEEE" style="stroke:#000000;stroke-width:1.5;"/><rect fill="none" height="520.6563" style="stroke:#000000;stroke-width:1.5;" width="1040.5" x="78.5" y="105.5332"/><text fill="#000000" font-family="sans-serif" font-size="13" font-weight="bold" lengthAdjust="spacing" textLength="179" x="93.5" y="120.5615">Get All Task By GreenSpace</text><polygon fill="#181818" points="337,144.1152,347,148.1152,337,152.1152,341,148.1152" style="stroke:#181818;stroke-width:1.0;"/><line style="stroke:#181818;stroke-width:1.0;" x1="197" x2="343" y1="148.1152" y2="148.1152"/><text fill="#000000" font-family="sans-serif" font-size="13" font-weight="bold" lengthAdjust="spacing" textLength="18" x="204" y="142.8525">9.1</text><text fill="#000000" font-family="sans-serif" font-size="13" lengthAdjust="spacing" textLength="75" x="226" y="142.8525">getInstance()</text><polygon fill="#181818" points="208,175.4063,198,179.4063,208,183.4063,204,179.4063" style="stroke:#181818;stroke-width:1.0;"/><line style="stroke:#181818;stroke-width:1.0;stroke-dasharray:2.0,2.0;" x1="202" x2="353" y1="179.4063" y2="179.4063"/><text fill="#000000" font-family="sans-serif" font-size="13" font-weight="bold" lengthAdjust="spacing" textLength="18" x="214" y="174.1436">9.2</text><text fill="#000000" font-family="sans-serif" font-size="13" lengthAdjust="spacing" textLength="67" x="236" y="174.1436">repositories</text><polygon fill="#181818" points="444,206.6973,454,210.6973,444,214.6973,448,210.6973" style="stroke:#181818;stroke-width:1.0;"/><line style="stroke:#181818;stroke-width:1.0;" x1="197" x2="450" y1="210.6973" y2="210.6973"/><text fill="#000000" font-family="sans-serif" font-size="13" font-weight="bold" lengthAdjust="spacing" textLength="18" x="204" y="205.4346">9.3</text><text fill="#000000" font-family="sans-serif" font-size="13" lengthAdjust="spacing" textLength="70" x="226" y="205.4346">getAgenda()</text><polygon fill="#181818" points="208,237.9883,198,241.9883,208,245.9883,204,241.9883" style="stroke:#181818;stroke-width:1.0;"/><line style="stroke:#181818;stroke-width:1.0;stroke-dasharray:2.0,2.0;" x1="202" x2="460" y1="241.9883" y2="241.9883"/><text fill="#000000" font-family="sans-serif" font-size="13" font-weight="bold" lengthAdjust="spacing" textLength="18" x="214" y="236.7256">9.4</text><text fill="#000000" font-family="sans-serif" font-size="13" lengthAdjust="spacing" textLength="42" x="236" y="236.7256">agenda</text><polygon fill="#181818" points="536,269.2793,546,273.2793,536,277.2793,540,273.2793" style="stroke:#181818;stroke-width:1.0;"/><line style="stroke:#181818;stroke-width:1.0;" x1="197" x2="542" y1="273.2793" y2="273.2793"/><text fill="#000000" font-family="sans-serif" font-size="13" font-weight="bold" lengthAdjust="spacing" textLength="18" x="204" y="268.0166">9.5</text><text fill="#000000" font-family="sans-serif" font-size="13" lengthAdjust="spacing" textLength="246" x="226" y="268.0166">getAllTaskByGreenSpace(listGreenSpace)</text><path d="M499.5,288.2793 L572.5,288.2793 L572.5,297.5703 L562.5,307.5703 L499.5,307.5703 L499.5,288.2793 " fill="#EEEEEE" style="stroke:#000000;stroke-width:1.5;"/><rect fill="none" height="299.6191" style="stroke:#000000;stroke-width:1.5;" width="609.5" x="499.5" y="288.2793"/><text fill="#000000" font-family="sans-serif" font-size="13" font-weight="bold" lengthAdjust="spacing" textLength="28" x="514.5" y="303.3076">loop</text><text fill="#000000" font-family="sans-serif" font-size="11" font-weight="bold" lengthAdjust="spacing" textLength="206" x="587.5" y="302.1494">[for each Task in listTask[in Agenda]]</text><polygon fill="#181818" points="785,326.8613,795,330.8613,785,334.8613,789,330.8613" style="stroke:#181818;stroke-width:1.0;"/><line style="stroke:#181818;stroke-width:1.0;" x1="558" x2="791" y1="330.8613" y2="330.8613"/><text fill="#000000" font-family="sans-serif" font-size="13" font-weight="bold" lengthAdjust="spacing" textLength="18" x="565" y="325.5986">9.6</text><text fill="#000000" font-family="sans-serif" font-size="13" lengthAdjust="spacing" textLength="198" x="587" y="325.5986">verifyGreenSpace(listGreenSpace)</text><path d="M743,345.8613 L816,345.8613 L816,355.1523 L806,365.1523 L743,365.1523 L743,345.8613 " fill="#EEEEEE" style="stroke:#000000;stroke-width:1.5;"/><rect fill="none" height="81.873" style="stroke:#000000;stroke-width:1.5;" width="356" x="743" y="345.8613"/><text fill="#000000" font-family="sans-serif" font-size="13" font-weight="bold" lengthAdjust="spacing" textLength="28" x="758" y="360.8896">loop</text><text fill="#000000" font-family="sans-serif" font-size="11" font-weight="bold" lengthAdjust="spacing" textLength="227" x="831" y="359.7314">[for each GreenSpace in ListGreenSpace]</text><polygon fill="#181818" points="1023,384.4434,1033,388.4434,1023,392.4434,1027,388.4434" style="stroke:#181818;stroke-width:1.0;"/><line style="stroke:#181818;stroke-width:1.0;" x1="807" x2="1029" y1="388.4434" y2="388.4434"/><text fill="#000000" font-family="sans-serif" font-size="13" font-weight="bold" lengthAdjust="spacing" textLength="18" x="814" y="383.1807">9.7</text><text fill="#000000" font-family="sans-serif" font-size="13" lengthAdjust="spacing" textLength="187" x="836" y="383.1807">equalsGreenSpace(greenSpace)</text><polygon fill="#181818" points="818,415.7344,808,419.7344,818,423.7344,814,419.7344" style="stroke:#181818;stroke-width:1.0;"/><line style="stroke:#181818;stroke-width:1.0;stroke-dasharray:2.0,2.0;" x1="812" x2="1039" y1="419.7344" y2="419.7344"/><text fill="#000000" font-family="sans-serif" font-size="13" font-weight="bold" lengthAdjust="spacing" textLength="18" x="824" y="414.4717">9.8</text><text fill="#000000" font-family="sans-serif" font-size="13" lengthAdjust="spacing" textLength="53" x="846" y="414.4717">true/false</text><polygon fill="#181818" points="569,454.0254,559,458.0254,569,462.0254,565,458.0254" style="stroke:#181818;stroke-width:1.0;"/><line style="stroke:#181818;stroke-width:1.0;" x1="563" x2="801" y1="458.0254" y2="458.0254"/><text fill="#000000" font-family="sans-serif" font-size="13" font-weight="bold" lengthAdjust="spacing" textLength="18" x="575" y="452.7627">9.9</text><text fill="#000000" font-family="sans-serif" font-size="13" lengthAdjust="spacing" textLength="53" x="597" y="452.7627">true/false</text><path d="M509.5,473.0254 L570.5,473.0254 L570.5,482.3164 L560.5,492.3164 L509.5,492.3164 L509.5,473.0254 " fill="#EEEEEE" style="stroke:#000000;stroke-width:1.5;"/><rect fill="none" height="107.873" style="stroke:#000000;stroke-width:1.5;" width="292.5" x="509.5" y="473.0254"/><text fill="#000000" font-family="sans-serif" font-size="13" font-weight="bold" lengthAdjust="spacing" textLength="16" x="524.5" y="488.0537">alt</text><text fill="#000000" font-family="sans-serif" font-size="11" font-weight="bold" lengthAdjust="spacing" textLength="147" x="585.5" y="486.8955">[verifyGreenSpace == true]</text><line style="stroke:#181818;stroke-width:1.0;" x1="558" x2="605" y1="510.6074" y2="510.6074"/><line style="stroke:#181818;stroke-width:1.0;" x1="605" x2="605" y1="510.6074" y2="523.6074"/><line style="stroke:#181818;stroke-width:1.0;" x1="564" x2="605" y1="523.6074" y2="523.6074"/><polygon fill="#181818" points="574,519.6074,564,523.6074,574,527.6074,570,523.6074" style="stroke:#181818;stroke-width:1.0;"/><text fill="#000000" font-family="sans-serif" font-size="13" font-weight="bold" lengthAdjust="spacing" textLength="25" x="570" y="505.3447">9.10</text><text fill="#000000" font-family="sans-serif" font-size="13" lengthAdjust="spacing" textLength="191" x="599" y="505.3447">addListTaskByGreenSpace(task)</text><line style="stroke:#181818;stroke-width:1.0;stroke-dasharray:2.0,2.0;" x1="563" x2="605" y1="564.8984" y2="564.8984"/><line style="stroke:#181818;stroke-width:1.0;stroke-dasharray:2.0,2.0;" x1="605" x2="605" y1="564.8984" y2="577.8984"/><line style="stroke:#181818;stroke-width:1.0;stroke-dasharray:2.0,2.0;" x1="558" x2="605" y1="577.8984" y2="577.8984"/><polygon fill="#181818" points="568,573.8984,558,577.8984,568,581.8984,564,577.8984" style="stroke:#181818;stroke-width:1.0;"/><text fill="#000000" font-family="sans-serif" font-size="13" font-weight="bold" lengthAdjust="spacing" textLength="25" x="570" y="559.6357">9.11</text><text fill="#000000" font-family="sans-serif" font-size="13" lengthAdjust="spacing" textLength="53" x="599" y="559.6357">true/false</text><polygon fill="#181818" points="208,614.1895,198,618.1895,208,622.1895,204,618.1895" style="stroke:#181818;stroke-width:1.0;"/><line style="stroke:#181818;stroke-width:1.0;stroke-dasharray:2.0,2.0;" x1="202" x2="552" y1="618.1895" y2="618.1895"/><text fill="#000000" font-family="sans-serif" font-size="13" font-weight="bold" lengthAdjust="spacing" textLength="25" x="214" y="612.9268">9.12</text><text fill="#000000" font-family="sans-serif" font-size="13" lengthAdjust="spacing" textLength="45" x="243" y="612.9268">listTask</text><polygon fill="#181818" points="11,652.4805,1,656.4805,11,660.4805,7,656.4805" style="stroke:#181818;stroke-width:1.0;"/><line style="stroke:#181818;stroke-width:1.0;stroke-dasharray:2.0,2.0;" x1="5" x2="191" y1="656.4805" y2="656.4805"/><text fill="#000000" font-family="sans-serif" font-size="13" font-weight="bold" lengthAdjust="spacing" textLength="14" x="17" y="651.2178">10</text><text fill="#000000" font-family="sans-serif" font-size="13" lengthAdjust="spacing" textLength="45" x="35" y="651.2178">listTask</text><!--SRC=[ZLHDRzim3BtpLmYzR3kuQOyBrW5k6WJ3WgA8Srjtq6p64I9BdYHtoByV9N_9hLFqOaZoUtpa8wLFH-TgkrmiQicLQofvdUjgOV5lWoh7f12yDBm2UnAgvhHYbLOwFnfT8NEcmUXFpVCJBp5pPudCOEwuAcKCi4TUw7z2bUp0fKK0EdOY5pKfiwjbQgqerHvvbPQe2hxIoXaj9PehnYrRxNVRLumTrjeAfur06p33mJaJNjnfDQMOYF6itWPusgRxAOE7N0ZR9XLGwMRz-93EuVRSdWQitmJyFir-Jj6bGLGPEOQ4tWoRWDxirkl7x2bThG5uGoKqrHyqx2j0admFDh0bAz6bKdg5-_F8__nbIhc-fNtkn0jts1e8fT5DpJRe6F6P3y3kpsmC0H0KI6d6p5RuXxBKsqwjZpvdFSo5Y8g8km5GuFl1-hnyZpe7WisJD4838K1weILhUpDHQ75zoBQXbssLmhfn6-jrem1IwveTj64aSMnj5Ofvdb__edMRx6-0Jena_LoGw0iQSVYON9YaLs8Zqajk9ro0e45QurIH8brlke6HOZch5azYn4_6rFqJiEXkS-HkJAIgnom6eoyGs_guT6zCONTtxOCJ-JT4uqMnxQoUzCtHmLot-X0VoAYdX3B29o9tSzot-J8nkfItDm3VakGzgl_t7m00]--></g></svg>