<?xml version="1.0" encoding="us-ascii" standalone="no"?><svg xmlns="http://www.w3.org/2000/svg" xmlns:xlink="http://www.w3.org/1999/xlink" contentStyleType="text/css" height="556px" preserveAspectRatio="none" style="width:736px;height:556px;background:#FFFFFF;" version="1.1" viewBox="0 0 736 556" width="736px" zoomAndPan="magnify"><defs/><g><rect fill="#FFFFFF" height="391.8125" style="stroke:#181818;stroke-width:1.0;" width="10" x="171" y="90.5332"/><rect fill="#FFFFFF" height="36.291" style="stroke:#181818;stroke-width:1.0;" width="10" x="176" y="307.2305"/><rect fill="#FFFFFF" height="31.291" style="stroke:#181818;stroke-width:1.0;" width="10" x="339" y="236.6484"/><rect fill="#FFFFFF" height="31.291" style="stroke:#181818;stroke-width:1.0;" width="10" x="496" y="405.7637"/><rect fill="none" height="346.5215" style="stroke:#000000;stroke-width:1.5;" width="647" x="83" y="105.5332"/><rect fill="none" height="250.9883" style="stroke:#000000;stroke-width:1.5;" width="627" x="93" y="194.0664"/><line style="stroke:#181818;stroke-width:0.5;stroke-dasharray:5.0,5.0;" x1="176" x2="176" y1="57.2422" y2="500.3457"/><line style="stroke:#181818;stroke-width:0.5;stroke-dasharray:5.0,5.0;" x1="344" x2="344" y1="57.2422" y2="500.3457"/><line style="stroke:#181818;stroke-width:0.5;stroke-dasharray:5.0,5.0;" x1="501" x2="501" y1="165.9453" y2="500.3457"/><line style="stroke:#181818;stroke-width:0.5;stroke-dasharray:5.0,5.0;" x1="650" x2="650" y1="361.3516" y2="500.3457"/><rect fill="#E3E3E3" height="32.6211" rx="2.5" ry="2.5" style="stroke:#181818;stroke-width:0.5;" width="146" x="103" y="23.6211"/><text fill="#000000" font-family="sans-serif" font-size="14" lengthAdjust="spacing" textLength="132" x="110" y="45.7285">:TaskAgendaMapper</text><rect fill="#E3E3E3" height="32.6211" rx="2.5" ry="2.5" style="stroke:#181818;stroke-width:0.5;" width="146" x="103" y="499.3457"/><text fill="#000000" font-family="sans-serif" font-size="14" lengthAdjust="spacing" textLength="132" x="110" y="521.4531">:TaskAgendaMapper</text><rect fill="#E3E3E3" height="51.2422" rx="2.5" ry="2.5" style="stroke:#181818;stroke-width:0.5;" width="136" x="276" y="5"/><text fill="#000000" font-family="sans-serif" font-size="14" lengthAdjust="spacing" textLength="97" x="295.5" y="27.1074">listTaskAgenda</text><text fill="#000000" font-family="sans-serif" font-size="14" lengthAdjust="spacing" textLength="122" x="283" y="45.7285">:List&lt;TaskAgenda&gt;</text><rect fill="#E3E3E3" height="51.2422" rx="2.5" ry="2.5" style="stroke:#181818;stroke-width:0.5;" width="136" x="276" y="499.3457"/><text fill="#000000" font-family="sans-serif" font-size="14" lengthAdjust="spacing" textLength="97" x="295.5" y="521.4531">listTaskAgenda</text><text fill="#000000" font-family="sans-serif" font-size="14" lengthAdjust="spacing" textLength="122" x="283" y="540.0742">:List&lt;TaskAgenda&gt;</text><rect fill="#E3E3E3" height="51.2422" rx="2.5" ry="2.5" style="stroke:#181818;stroke-width:0.5;" width="158" x="422" y="499.3457"/><text fill="#000000" font-family="sans-serif" font-size="14" lengthAdjust="spacing" textLength="119" x="441.5" y="521.4531">listTaskAgendaDto</text><text fill="#000000" font-family="sans-serif" font-size="14" lengthAdjust="spacing" textLength="144" x="429" y="540.0742">:List&lt;TaskAgendaDto&gt;</text><rect fill="#E3E3E3" height="51.2422" rx="2.5" ry="2.5" style="stroke:#181818;stroke-width:0.5;" width="120" x="590" y="499.3457"/><text fill="#000000" font-family="sans-serif" font-size="14" lengthAdjust="spacing" textLength="41" x="629.5" y="521.4531">objDto</text><text fill="#000000" font-family="sans-serif" font-size="14" lengthAdjust="spacing" textLength="106" x="597" y="540.0742">:TaskAgendaDto</text><rect fill="#FFFFFF" height="391.8125" style="stroke:#181818;stroke-width:1.0;" width="10" x="171" y="90.5332"/><rect fill="#FFFFFF" height="36.291" style="stroke:#181818;stroke-width:1.0;" width="10" x="176" y="307.2305"/><rect fill="#FFFFFF" height="31.291" style="stroke:#181818;stroke-width:1.0;" width="10" x="339" y="236.6484"/><rect fill="#FFFFFF" height="31.291" style="stroke:#181818;stroke-width:1.0;" width="10" x="496" y="405.7637"/><polygon fill="#181818" points="159,86.5332,169,90.5332,159,94.5332,163,90.5332" style="stroke:#181818;stroke-width:1.0;"/><line style="stroke:#181818;stroke-width:1.0;stroke-dasharray:2.0,2.0;" x1="0" x2="165" y1="90.5332" y2="90.5332"/><text fill="#000000" font-family="sans-serif" font-size="13" font-weight="bold" lengthAdjust="spacing" textLength="14" x="7" y="85.2705">13</text><text fill="#000000" font-family="sans-serif" font-size="13" lengthAdjust="spacing" textLength="134" x="25" y="85.2705">toDTO(listTaskAgenda)</text><path d="M83,105.5332 L201,105.5332 L201,114.8242 L191,124.8242 L83,124.8242 L83,105.5332 " fill="#EEEEEE" style="stroke:#000000;stroke-width:1.5;"/><rect fill="none" height="346.5215" style="stroke:#000000;stroke-width:1.5;" width="647" x="83" y="105.5332"/><text fill="#000000" font-family="sans-serif" font-size="13" font-weight="bold" lengthAdjust="spacing" textLength="73" x="98" y="120.5615">To DTO List</text><polygon fill="#181818" points="410,144.1152,420,148.1152,410,152.1152,414,148.1152" style="stroke:#181818;stroke-width:1.0;"/><line style="stroke:#181818;stroke-width:1.0;stroke-dasharray:2.0,2.0;" x1="181" x2="416" y1="148.1152" y2="148.1152"/><text fill="#000000" font-family="sans-serif" font-size="13" font-weight="bold" lengthAdjust="spacing" textLength="25" x="188" y="142.8525">13.1</text><text fill="#000000" font-family="sans-serif" font-size="13" lengthAdjust="spacing" textLength="44" x="217" y="142.8525">create()</text><rect fill="#E3E3E3" height="51.2422" rx="2.5" ry="2.5" style="stroke:#181818;stroke-width:0.5;" width="158" x="422" y="124.8242"/><text fill="#000000" font-family="sans-serif" font-size="14" lengthAdjust="spacing" textLength="119" x="441.5" y="146.9316">listTaskAgendaDto</text><text fill="#000000" font-family="sans-serif" font-size="14" lengthAdjust="spacing" textLength="144" x="429" y="165.5527">:List&lt;TaskAgendaDto&gt;</text><path d="M93,194.0664 L166,194.0664 L166,203.3574 L156,213.3574 L93,213.3574 L93,194.0664 " fill="#EEEEEE" style="stroke:#000000;stroke-width:1.5;"/><rect fill="none" height="250.9883" style="stroke:#000000;stroke-width:1.5;" width="627" x="93" y="194.0664"/><text fill="#000000" font-family="sans-serif" font-size="13" font-weight="bold" lengthAdjust="spacing" textLength="28" x="108" y="209.0947">loop</text><text fill="#000000" font-family="sans-serif" font-size="11" font-weight="bold" lengthAdjust="spacing" textLength="192" x="181" y="207.9365">[for each object in listTaskAgenda]</text><polygon fill="#181818" points="327,232.6484,337,236.6484,327,240.6484,331,236.6484" style="stroke:#181818;stroke-width:1.0;"/><line style="stroke:#181818;stroke-width:1.0;" x1="181" x2="333" y1="236.6484" y2="236.6484"/><text fill="#000000" font-family="sans-serif" font-size="13" font-weight="bold" lengthAdjust="spacing" textLength="25" x="188" y="231.3857">13.2</text><text fill="#000000" font-family="sans-serif" font-size="13" lengthAdjust="spacing" textLength="29" x="217" y="231.3857">get(i)</text><polygon fill="#181818" points="192,263.9395,182,267.9395,192,271.9395,188,267.9395" style="stroke:#181818;stroke-width:1.0;"/><line style="stroke:#181818;stroke-width:1.0;stroke-dasharray:2.0,2.0;" x1="186" x2="343" y1="267.9395" y2="267.9395"/><text fill="#000000" font-family="sans-serif" font-size="13" font-weight="bold" lengthAdjust="spacing" textLength="25" x="198" y="262.6768">13.3</text><text fill="#000000" font-family="sans-serif" font-size="13" lengthAdjust="spacing" textLength="17" x="227" y="262.6768">obj</text><line style="stroke:#181818;stroke-width:1.0;" x1="181" x2="228" y1="294.2305" y2="294.2305"/><line style="stroke:#181818;stroke-width:1.0;" x1="228" x2="228" y1="294.2305" y2="307.2305"/><line style="stroke:#181818;stroke-width:1.0;" x1="187" x2="228" y1="307.2305" y2="307.2305"/><polygon fill="#181818" points="197,303.2305,187,307.2305,197,311.2305,193,307.2305" style="stroke:#181818;stroke-width:1.0;"/><text fill="#000000" font-family="sans-serif" font-size="13" font-weight="bold" lengthAdjust="spacing" textLength="25" x="193" y="288.9678">13.4</text><text fill="#000000" font-family="sans-serif" font-size="13" lengthAdjust="spacing" textLength="115" x="222" y="288.9678">objDto = toDTO(obj)</text><polygon fill="#181818" points="578,339.5215,588,343.5215,578,347.5215,582,343.5215" style="stroke:#181818;stroke-width:1.0;"/><line style="stroke:#181818;stroke-width:1.0;stroke-dasharray:2.0,2.0;" x1="181" x2="584" y1="343.5215" y2="343.5215"/><text fill="#000000" font-family="sans-serif" font-size="13" font-weight="bold" lengthAdjust="spacing" textLength="25" x="188" y="338.2588">13.5</text><text fill="#000000" font-family="sans-serif" font-size="13" lengthAdjust="spacing" textLength="61" x="217" y="338.2588">create(obj)</text><rect fill="#E3E3E3" height="51.2422" rx="2.5" ry="2.5" style="stroke:#181818;stroke-width:0.5;" width="120" x="590" y="320.2305"/><text fill="#000000" font-family="sans-serif" font-size="14" lengthAdjust="spacing" textLength="41" x="629.5" y="342.3379">objDto</text><text fill="#000000" font-family="sans-serif" font-size="14" lengthAdjust="spacing" textLength="106" x="597" y="360.959">:TaskAgendaDto</text><polygon fill="#181818" points="484,401.7637,494,405.7637,484,409.7637,488,405.7637" style="stroke:#181818;stroke-width:1.0;"/><line style="stroke:#181818;stroke-width:1.0;" x1="181" x2="490" y1="405.7637" y2="405.7637"/><text fill="#000000" font-family="sans-serif" font-size="13" font-weight="bold" lengthAdjust="spacing" textLength="25" x="188" y="400.501">13.6</text><text fill="#000000" font-family="sans-serif" font-size="13" lengthAdjust="spacing" textLength="66" x="217" y="400.501">add(objDto)</text><polygon fill="#181818" points="192,433.0547,182,437.0547,192,441.0547,188,437.0547" style="stroke:#181818;stroke-width:1.0;"/><line style="stroke:#181818;stroke-width:1.0;stroke-dasharray:2.0,2.0;" x1="186" x2="500" y1="437.0547" y2="437.0547"/><text fill="#000000" font-family="sans-serif" font-size="13" font-weight="bold" lengthAdjust="spacing" textLength="25" x="198" y="431.792">13.7</text><text fill="#000000" font-family="sans-serif" font-size="13" lengthAdjust="spacing" textLength="53" x="227" y="431.792">true/false</text><polygon fill="#181818" points="11,478.3457,1,482.3457,11,486.3457,7,482.3457" style="stroke:#181818;stroke-width:1.0;"/><line style="stroke:#181818;stroke-width:1.0;stroke-dasharray:2.0,2.0;" x1="5" x2="175" y1="482.3457" y2="482.3457"/><text fill="#000000" font-family="sans-serif" font-size="13" font-weight="bold" lengthAdjust="spacing" textLength="14" x="17" y="477.083">14</text><text fill="#000000" font-family="sans-serif" font-size="13" lengthAdjust="spacing" textLength="109" x="35" y="477.083">listTaskAgendaDto</text><!--SRC=[VL9DRy8m3BtdLrYxh20LXBPJnP2Gs64IQ9FeSHUJcfBH9bcQRjg_dmk5fi1sgLhtVTZFljzvRwjaFBO5Qb-NnKYQSbpHPqrQKfmfp1sMejehRP7Ve3JQo9qp9O5tDGL_BCezvhJsFmM18-bHvqK8g7QOcM-bSzXYKP4GNFPAAilES9UaMEtdEUaCLsWjkJl02jBd-MhrraSMgl8T-5qdIovCkyhip5o-hDF_k0jlhkbSF2eirut68dtjIvZDnv7NenmOZ6qeGc3jZQxB3JcOF0WHnxDs4aZ06uP5_KO65vJHX0lIgo_qTCf0vCxK5bBJs43Jj12jQAD_xdOuP1FfYAaHwnR6MDWQ1uHo1zmyRmQKXdu3dTJid1pBvEGZDRZevP2gEADwmx6-41dzWU_qJs1E3fxQIFXpS6FiOCOstt328-d2CQG5oJ0BiomwsePMtQP51-ulZMzzt9vjO1OGESNs4MxoKOXf77SwL_Tte_TV]--></g></svg>