<?xml version="1.0" encoding="us-ascii" standalone="no"?><svg xmlns="http://www.w3.org/2000/svg" xmlns:xlink="http://www.w3.org/1999/xlink" contentStyleType="text/css" height="325px" preserveAspectRatio="none" style="width:464px;height:325px;background:#FFFFFF;" version="1.1" viewBox="0 0 464 325" width="464px" zoomAndPan="magnify"><defs/><g><rect fill="#FFFFFF" height="160.4551" style="stroke:#181818;stroke-width:1.0;" width="10" x="160" y="90.5332"/><rect fill="#FFFFFF" height="31.291" style="stroke:#181818;stroke-width:1.0;" width="10" x="336" y="174.4063"/><rect fill="none" height="115.1641" style="stroke:#000000;stroke-width:1.5;" width="374" x="84" y="105.5332"/><rect fill="none" height="81.873" style="stroke:#000000;stroke-width:1.5;" width="354" x="94" y="131.8242"/><line style="stroke:#181818;stroke-width:0.5;stroke-dasharray:5.0,5.0;" x1="165" x2="165" y1="57.2422" y2="268.9883"/><line style="stroke:#181818;stroke-width:0.5;stroke-dasharray:5.0,5.0;" x1="341" x2="341" y1="57.2422" y2="268.9883"/><rect fill="#E3E3E3" height="51.2422" rx="2.5" ry="2.5" style="stroke:#181818;stroke-width:0.5;" width="122" x="104" y="5"/><text fill="#000000" font-family="sans-serif" font-size="14" lengthAdjust="spacing" textLength="99" x="115.5" y="27.1074">teamRepository</text><text fill="#000000" font-family="sans-serif" font-size="14" lengthAdjust="spacing" textLength="108" x="111" y="45.7285">:TeamRepository</text><rect fill="#E3E3E3" height="51.2422" rx="2.5" ry="2.5" style="stroke:#181818;stroke-width:0.5;" width="122" x="104" y="267.9883"/><text fill="#000000" font-family="sans-serif" font-size="14" lengthAdjust="spacing" textLength="99" x="115.5" y="290.0957">teamRepository</text><text fill="#000000" font-family="sans-serif" font-size="14" lengthAdjust="spacing" textLength="108" x="111" y="308.7168">:TeamRepository</text><rect fill="#E3E3E3" height="51.2422" rx="2.5" ry="2.5" style="stroke:#181818;stroke-width:0.5;" width="54" x="314" y="5"/><text fill="#000000" font-family="sans-serif" font-size="14" lengthAdjust="spacing" textLength="31" x="325.5" y="27.1074">team</text><text fill="#000000" font-family="sans-serif" font-size="14" lengthAdjust="spacing" textLength="40" x="321" y="45.7285">:Team</text><rect fill="#E3E3E3" height="51.2422" rx="2.5" ry="2.5" style="stroke:#181818;stroke-width:0.5;" width="54" x="314" y="267.9883"/><text fill="#000000" font-family="sans-serif" font-size="14" lengthAdjust="spacing" textLength="31" x="325.5" y="290.0957">team</text><text fill="#000000" font-family="sans-serif" font-size="14" lengthAdjust="spacing" textLength="40" x="321" y="308.7168">:Team</text><rect fill="#FFFFFF" height="160.4551" style="stroke:#181818;stroke-width:1.0;" width="10" x="160" y="90.5332"/><rect fill="#FFFFFF" height="31.291" style="stroke:#181818;stroke-width:1.0;" width="10" x="336" y="174.4063"/><polygon fill="#181818" points="148,86.5332,158,90.5332,148,94.5332,152,90.5332" style="stroke:#181818;stroke-width:1.0;"/><line style="stroke:#181818;stroke-width:1.0;stroke-dasharray:2.0,2.0;" x1="0" x2="154" y1="90.5332" y2="90.5332"/><text fill="#000000" font-family="sans-serif" font-size="13" font-weight="bold" lengthAdjust="spacing" textLength="14" x="7" y="85.2705">37</text><text fill="#000000" font-family="sans-serif" font-size="13" lengthAdjust="spacing" textLength="123" x="25" y="85.2705">getTeamById(teamId)</text><path d="M84,105.5332 L223,105.5332 L223,114.8242 L213,124.8242 L84,124.8242 L84,105.5332 " fill="#EEEEEE" style="stroke:#000000;stroke-width:1.5;"/><rect fill="none" height="115.1641" style="stroke:#000000;stroke-width:1.5;" width="374" x="84" y="105.5332"/><text fill="#000000" font-family="sans-serif" font-size="13" font-weight="bold" lengthAdjust="spacing" textLength="94" x="99" y="120.5615">Get team By Id</text><path d="M94,131.8242 L167,131.8242 L167,141.1152 L157,151.1152 L94,151.1152 L94,131.8242 " fill="#EEEEEE" style="stroke:#000000;stroke-width:1.5;"/><rect fill="none" height="81.873" style="stroke:#000000;stroke-width:1.5;" width="354" x="94" y="131.8242"/><text fill="#000000" font-family="sans-serif" font-size="13" font-weight="bold" lengthAdjust="spacing" textLength="28" x="109" y="146.8525">loop</text><text fill="#000000" font-family="sans-serif" font-size="11" font-weight="bold" lengthAdjust="spacing" textLength="261" x="182" y="145.6943">[for each team in teamList[in TeamRepository]]</text><polygon fill="#181818" points="324,170.4063,334,174.4063,324,178.4063,328,174.4063" style="stroke:#181818;stroke-width:1.0;"/><line style="stroke:#181818;stroke-width:1.0;" x1="170" x2="330" y1="174.4063" y2="174.4063"/><text fill="#000000" font-family="sans-serif" font-size="13" font-weight="bold" lengthAdjust="spacing" textLength="25" x="177" y="169.1436">37.1</text><text fill="#000000" font-family="sans-serif" font-size="13" lengthAdjust="spacing" textLength="118" x="206" y="169.1436">verifyIdTeam(teamId)</text><polygon fill="#181818" points="181,201.6973,171,205.6973,181,209.6973,177,205.6973" style="stroke:#181818;stroke-width:1.0;"/><line style="stroke:#181818;stroke-width:1.0;stroke-dasharray:2.0,2.0;" x1="175" x2="340" y1="205.6973" y2="205.6973"/><text fill="#000000" font-family="sans-serif" font-size="13" font-weight="bold" lengthAdjust="spacing" textLength="25" x="187" y="200.4346">37.2</text><text fill="#000000" font-family="sans-serif" font-size="13" lengthAdjust="spacing" textLength="53" x="216" y="200.4346">true/false</text><polygon fill="#181818" points="11,246.9883,1,250.9883,11,254.9883,7,250.9883" style="stroke:#181818;stroke-width:1.0;"/><line style="stroke:#181818;stroke-width:1.0;stroke-dasharray:2.0,2.0;" x1="5" x2="164" y1="250.9883" y2="250.9883"/><text fill="#000000" font-family="sans-serif" font-size="13" font-weight="bold" lengthAdjust="spacing" textLength="14" x="17" y="245.7256">38</text><text fill="#000000" font-family="sans-serif" font-size="13" lengthAdjust="spacing" textLength="29" x="35" y="245.7256">team</text><!--SRC=[PP5DJyCm38Rl_XNMBi2Xgn07q8IGc3IXII3Gs0qucCHhepKV9EvG_pqfgqOtBebblu_zEZchHKAQbMLeo4bhcwdojapyrR9JN6X3LIGBQMjSe1oXzSwhEdhBAB7bKIMGsbB5hz8rZ96LaAkQiI3LfFstSHLkg4aCaDDYb0bvCaw4oQuu-6J4n-xTpTP7YGbImlNY_ccrU7d-JmxwWmg0Ml6kjPySyUeQe2Zk3ZZEi6BfzVDkgSzxVgalJf3fPKueCJiI_XiCLVHjm0SMx36STxZK08tt0JS-8fEgznNZVkz7a-GjnyVRV00Sp0p6igaTHxF9ZdhjoDNOn9x3astwdoY7HzLy0h3Jmp7UxmRWjYZ6FVAyVtHV-m40]--></g></svg>