<?xml version="1.0" encoding="us-ascii" standalone="no"?><svg xmlns="http://www.w3.org/2000/svg" xmlns:xlink="http://www.w3.org/1999/xlink" contentStyleType="text/css" height="1531px" preserveAspectRatio="none" style="width:1583px;height:1531px;background:#FFFFFF;" version="1.1" viewBox="0 0 1583 1531" width="1583px" zoomAndPan="magnify"><defs/><g><text fill="#000000" font-family="sans-serif" font-size="14" font-weight="bold" lengthAdjust="spacing" textLength="412" x="583" y="30.1074">UI Sequence Diagram (SSD) - US23 - Assign Team in Entries</text><rect fill="#FFFFFF" height="1297.5039" style="stroke:#181818;stroke-width:1.0;" width="10" x="97.5" y="133.2422"/><rect fill="#FFFFFF" height="582.5488" style="stroke:#181818;stroke-width:1.0;" width="10" x="481.5" y="156.5332"/><rect fill="#FFFFFF" height="392.4531" style="stroke:#181818;stroke-width:1.0;" width="10" x="481.5" y="770.373"/><rect fill="#FFFFFF" height="31.291" style="stroke:#181818;stroke-width:1.0;" width="10" x="481.5" y="1194.1172"/><rect fill="#FFFFFF" height="174.0469" style="stroke:#181818;stroke-width:1.0;" width="10" x="481.5" y="1256.6992"/><rect fill="#FFFFFF" height="519.9668" style="stroke:#181818;stroke-width:1.0;" width="10" x="692.5" y="187.8242"/><rect fill="#FFFFFF" height="122.4648" style="stroke:#181818;stroke-width:1.0;" width="10" x="697.5" y="227.1152"/><rect fill="#FFFFFF" height="104.873" style="stroke:#181818;stroke-width:1.0;" width="10" x="697.5" y="395.8711"/><rect fill="#FFFFFF" height="122.4648" style="stroke:#181818;stroke-width:1.0;" width="10" x="697.5" y="547.0352"/><rect fill="#FFFFFF" height="329.8711" style="stroke:#181818;stroke-width:1.0;" width="10" x="692.5" y="801.6641"/><rect fill="#FFFFFF" height="111.4648" style="stroke:#181818;stroke-width:1.0;" width="10" x="692.5" y="1287.9902"/><rect fill="#FFFFFF" height="31.291" style="stroke:#181818;stroke-width:1.0;" width="10" x="1005.5" y="832.9551"/><rect fill="#FFFFFF" height="31.291" style="stroke:#181818;stroke-width:1.0;" width="10" x="1112.5" y="895.5371"/><rect fill="#FFFFFF" height="31.291" style="stroke:#181818;stroke-width:1.0;" width="10" x="1232" y="958.1191"/><rect fill="#FFFFFF" height="31.291" style="stroke:#181818;stroke-width:1.0;" width="10" x="1380" y="432.1621"/><rect fill="#FFFFFF" height="79.543" style="stroke:#181818;stroke-width:1.0;" width="10" x="1518" y="1020.7012"/><line style="stroke:#181818;stroke-width:0.5;stroke-dasharray:5.0,5.0;" x1="102" x2="102" y1="123.2422" y2="1448.7461"/><line style="stroke:#181818;stroke-width:0.5;stroke-dasharray:5.0,5.0;" x1="486" x2="486" y1="123.2422" y2="1448.7461"/><line style="stroke:#181818;stroke-width:0.5;stroke-dasharray:5.0,5.0;" x1="697" x2="697" y1="123.2422" y2="1448.7461"/><line style="stroke:#181818;stroke-width:0.5;stroke-dasharray:5.0,5.0;" x1="1010" x2="1010" y1="123.2422" y2="1448.7461"/><line style="stroke:#181818;stroke-width:0.5;stroke-dasharray:5.0,5.0;" x1="1117" x2="1117" y1="123.2422" y2="1448.7461"/><line style="stroke:#181818;stroke-width:0.5;stroke-dasharray:5.0,5.0;" x1="1237" x2="1237" y1="123.2422" y2="1448.7461"/><line style="stroke:#181818;stroke-width:0.5;stroke-dasharray:5.0,5.0;" x1="1385" x2="1385" y1="123.2422" y2="1448.7461"/><line style="stroke:#181818;stroke-width:0.5;stroke-dasharray:5.0,5.0;" x1="1523" x2="1523" y1="123.2422" y2="1448.7461"/><text fill="#000000" font-family="sans-serif" font-size="14" lengthAdjust="spacing" textLength="189" x="5" y="119.7285">Green Space Manager (GSM)</text><ellipse cx="102.5" cy="53.1211" fill="#E3E3E3" rx="8" ry="8" style="stroke:#181818;stroke-width:0.5;"/><path d="M102.5,61.1211 L102.5,88.1211 M89.5,69.1211 L115.5,69.1211 M102.5,88.1211 L89.5,103.1211 M102.5,88.1211 L115.5,103.1211 " fill="none" style="stroke:#181818;stroke-width:0.5;"/><text fill="#000000" font-family="sans-serif" font-size="14" lengthAdjust="spacing" textLength="189" x="5" y="1462.8535">Green Space Manager (GSM)</text><ellipse cx="102.5" cy="1474.8672" fill="#E3E3E3" rx="8" ry="8" style="stroke:#181818;stroke-width:0.5;"/><path d="M102.5,1482.8672 L102.5,1509.8672 M89.5,1490.8672 L115.5,1490.8672 M102.5,1509.8672 L89.5,1524.8672 M102.5,1509.8672 L115.5,1524.8672 " fill="none" style="stroke:#181818;stroke-width:0.5;"/><rect fill="#E3E3E3" height="32.6211" rx="2.5" ry="2.5" style="stroke:#181818;stroke-width:0.5;" width="157" x="408" y="89.6211"/><text fill="#000000" font-family="sans-serif" font-size="14" lengthAdjust="spacing" textLength="143" x="415" y="111.7285">:AssignTeamAgendaUI</text><rect fill="#E3E3E3" height="32.6211" rx="2.5" ry="2.5" style="stroke:#181818;stroke-width:0.5;" width="157" x="408" y="1447.7461"/><text fill="#000000" font-family="sans-serif" font-size="14" lengthAdjust="spacing" textLength="143" x="415" y="1469.8535">:AssignTeamAgendaUI</text><rect fill="#E3E3E3" height="32.6211" rx="2.5" ry="2.5" style="stroke:#181818;stroke-width:0.5;" width="207" x="594" y="89.6211"/><text fill="#000000" font-family="sans-serif" font-size="14" lengthAdjust="spacing" textLength="193" x="601" y="111.7285">:AssignTeamAgendaController</text><rect fill="#E3E3E3" height="32.6211" rx="2.5" ry="2.5" style="stroke:#181818;stroke-width:0.5;" width="207" x="594" y="1447.7461"/><text fill="#000000" font-family="sans-serif" font-size="14" lengthAdjust="spacing" textLength="193" x="601" y="1469.8535">:AssignTeamAgendaController</text><rect fill="#E3E3E3" height="32.6211" rx="2.5" ry="2.5" style="stroke:#181818;stroke-width:0.5;" width="97" x="962" y="89.6211"/><text fill="#000000" font-family="sans-serif" font-size="14" lengthAdjust="spacing" textLength="83" x="969" y="111.7285">:Repositories</text><rect fill="#E3E3E3" height="32.6211" rx="2.5" ry="2.5" style="stroke:#181818;stroke-width:0.5;" width="97" x="962" y="1447.7461"/><text fill="#000000" font-family="sans-serif" font-size="14" lengthAdjust="spacing" textLength="83" x="969" y="1469.8535">:Repositories</text><rect fill="#E3E3E3" height="51.2422" rx="2.5" ry="2.5" style="stroke:#181818;stroke-width:0.5;" width="97" x="1069" y="71"/><text fill="#000000" font-family="sans-serif" font-size="14" lengthAdjust="spacing" textLength="74" x="1080.5" y="93.1074">repositories</text><text fill="#000000" font-family="sans-serif" font-size="14" lengthAdjust="spacing" textLength="83" x="1076" y="111.7285">:Repositories</text><rect fill="#E3E3E3" height="51.2422" rx="2.5" ry="2.5" style="stroke:#181818;stroke-width:0.5;" width="97" x="1069" y="1447.7461"/><text fill="#000000" font-family="sans-serif" font-size="14" lengthAdjust="spacing" textLength="74" x="1080.5" y="1469.8535">repositories</text><text fill="#000000" font-family="sans-serif" font-size="14" lengthAdjust="spacing" textLength="83" x="1076" y="1488.4746">:Repositories</text><rect fill="#E3E3E3" height="51.2422" rx="2.5" ry="2.5" style="stroke:#181818;stroke-width:0.5;" width="122" x="1176" y="71"/><text fill="#000000" font-family="sans-serif" font-size="14" lengthAdjust="spacing" textLength="99" x="1187.5" y="93.1074">teamRepository</text><text fill="#000000" font-family="sans-serif" font-size="14" lengthAdjust="spacing" textLength="108" x="1183" y="111.7285">:TeamRepository</text><rect fill="#E3E3E3" height="51.2422" rx="2.5" ry="2.5" style="stroke:#181818;stroke-width:0.5;" width="122" x="1176" y="1447.7461"/><text fill="#000000" font-family="sans-serif" font-size="14" lengthAdjust="spacing" textLength="99" x="1187.5" y="1469.8535">teamRepository</text><text fill="#000000" font-family="sans-serif" font-size="14" lengthAdjust="spacing" textLength="108" x="1183" y="1488.4746">:TeamRepository</text><rect fill="#E3E3E3" height="51.2422" rx="2.5" ry="2.5" style="stroke:#181818;stroke-width:0.5;" width="154" x="1308" y="71"/><text fill="#000000" font-family="sans-serif" font-size="14" lengthAdjust="spacing" textLength="133" x="1318.5" y="93.1074">greenSpaceManager</text><text fill="#000000" font-family="sans-serif" font-size="14" lengthAdjust="spacing" textLength="140" x="1315" y="111.7285">:GreenSpaceManager</text><rect fill="#E3E3E3" height="51.2422" rx="2.5" ry="2.5" style="stroke:#181818;stroke-width:0.5;" width="154" x="1308" y="1447.7461"/><text fill="#000000" font-family="sans-serif" font-size="14" lengthAdjust="spacing" textLength="133" x="1318.5" y="1469.8535">greenSpaceManager</text><text fill="#000000" font-family="sans-serif" font-size="14" lengthAdjust="spacing" textLength="140" x="1315" y="1488.4746">:GreenSpaceManager</text><rect fill="#E3E3E3" height="32.6211" rx="2.5" ry="2.5" style="stroke:#181818;stroke-width:0.5;" width="102" x="1472" y="89.6211"/><text fill="#000000" font-family="sans-serif" font-size="14" lengthAdjust="spacing" textLength="88" x="1479" y="111.7285">:TeamMapper</text><rect fill="#E3E3E3" height="32.6211" rx="2.5" ry="2.5" style="stroke:#181818;stroke-width:0.5;" width="102" x="1472" y="1447.7461"/><text fill="#000000" font-family="sans-serif" font-size="14" lengthAdjust="spacing" textLength="88" x="1479" y="1469.8535">:TeamMapper</text><rect fill="#FFFFFF" height="1297.5039" style="stroke:#181818;stroke-width:1.0;" width="10" x="97.5" y="133.2422"/><rect fill="#FFFFFF" height="582.5488" style="stroke:#181818;stroke-width:1.0;" width="10" x="481.5" y="156.5332"/><rect fill="#FFFFFF" height="392.4531" style="stroke:#181818;stroke-width:1.0;" width="10" x="481.5" y="770.373"/><rect fill="#FFFFFF" height="31.291" style="stroke:#181818;stroke-width:1.0;" width="10" x="481.5" y="1194.1172"/><rect fill="#FFFFFF" height="174.0469" style="stroke:#181818;stroke-width:1.0;" width="10" x="481.5" y="1256.6992"/><rect fill="#FFFFFF" height="519.9668" style="stroke:#181818;stroke-width:1.0;" width="10" x="692.5" y="187.8242"/><rect fill="#FFFFFF" height="122.4648" style="stroke:#181818;stroke-width:1.0;" width="10" x="697.5" y="227.1152"/><rect fill="#FFFFFF" height="104.873" style="stroke:#181818;stroke-width:1.0;" width="10" x="697.5" y="395.8711"/><rect fill="#FFFFFF" height="122.4648" style="stroke:#181818;stroke-width:1.0;" width="10" x="697.5" y="547.0352"/><rect fill="#FFFFFF" height="329.8711" style="stroke:#181818;stroke-width:1.0;" width="10" x="692.5" y="801.6641"/><rect fill="#FFFFFF" height="111.4648" style="stroke:#181818;stroke-width:1.0;" width="10" x="692.5" y="1287.9902"/><rect fill="#FFFFFF" height="31.291" style="stroke:#181818;stroke-width:1.0;" width="10" x="1005.5" y="832.9551"/><rect fill="#FFFFFF" height="31.291" style="stroke:#181818;stroke-width:1.0;" width="10" x="1112.5" y="895.5371"/><rect fill="#FFFFFF" height="31.291" style="stroke:#181818;stroke-width:1.0;" width="10" x="1232" y="958.1191"/><rect fill="#FFFFFF" height="31.291" style="stroke:#181818;stroke-width:1.0;" width="10" x="1380" y="432.1621"/><rect fill="#FFFFFF" height="79.543" style="stroke:#181818;stroke-width:1.0;" width="10" x="1518" y="1020.7012"/><polygon fill="#181818" points="469.5,152.5332,479.5,156.5332,469.5,160.5332,473.5,156.5332" style="stroke:#181818;stroke-width:1.0;"/><line style="stroke:#181818;stroke-width:1.0;" x1="107.5" x2="475.5" y1="156.5332" y2="156.5332"/><text fill="#000000" font-family="sans-serif" font-size="13" font-weight="bold" lengthAdjust="spacing" textLength="7" x="114.5" y="151.2705">1</text><text fill="#000000" font-family="sans-serif" font-size="13" lengthAdjust="spacing" textLength="253" x="125.5" y="151.2705">asks to assign Team to entry in the Agenda</text><polygon fill="#181818" points="680.5,183.8242,690.5,187.8242,680.5,191.8242,684.5,187.8242" style="stroke:#181818;stroke-width:1.0;"/><line style="stroke:#181818;stroke-width:1.0;" x1="491.5" x2="686.5" y1="187.8242" y2="187.8242"/><text fill="#000000" font-family="sans-serif" font-size="13" font-weight="bold" lengthAdjust="spacing" textLength="7" x="498.5" y="182.5615">2</text><text fill="#000000" font-family="sans-serif" font-size="13" lengthAdjust="spacing" textLength="115" x="509.5" y="182.5615">getAllTaskByGSM()</text><line style="stroke:#181818;stroke-width:1.0;" x1="702.5" x2="749.5" y1="214.1152" y2="214.1152"/><line style="stroke:#181818;stroke-width:1.0;" x1="749.5" x2="749.5" y1="214.1152" y2="227.1152"/><line style="stroke:#181818;stroke-width:1.0;" x1="708.5" x2="749.5" y1="227.1152" y2="227.1152"/><polygon fill="#181818" points="718.5,223.1152,708.5,227.1152,718.5,231.1152,714.5,227.1152" style="stroke:#181818;stroke-width:1.0;"/><text fill="#000000" font-family="sans-serif" font-size="13" font-weight="bold" lengthAdjust="spacing" textLength="7" x="714.5" y="208.8525">3</text><text fill="#000000" font-family="sans-serif" font-size="13" lengthAdjust="spacing" textLength="133" x="725.5" y="208.8525">getGSMFromSession()</text><rect fill="none" height="75.1738" style="stroke:#000000;stroke-width:1.5;" width="213" x="591" y="240.1152"/><path d="M591,240.1152 L653,240.1152 L653,249.1152 L643,259.1152 L591,259.1152 L591,240.1152 " fill="#EEEEEE" style="stroke:#000000;stroke-width:2.0;"/><text fill="#000000" font-family="sans-serif" font-size="13" font-weight="bold" lengthAdjust="spacing" textLength="17" x="604" y="256.1436">ref</text><text fill="#000000" font-family="sans-serif" font-size="12" lengthAdjust="spacing" textLength="3" x="696" y="276.0645">&#160;</text><text fill="#000000" font-family="sans-serif" font-size="12" lengthAdjust="spacing" textLength="139" x="628" y="292.0254">Get GreenSpaceManager</text><text fill="#000000" font-family="sans-serif" font-size="12" lengthAdjust="spacing" textLength="3" x="696" y="307.9863">&#160;</text><line style="stroke:#181818;stroke-width:1.0;stroke-dasharray:2.0,2.0;" x1="707.5" x2="749.5" y1="348.5801" y2="348.5801"/><line style="stroke:#181818;stroke-width:1.0;stroke-dasharray:2.0,2.0;" x1="749.5" x2="749.5" y1="348.5801" y2="361.5801"/><line style="stroke:#181818;stroke-width:1.0;stroke-dasharray:2.0,2.0;" x1="702.5" x2="749.5" y1="361.5801" y2="361.5801"/><polygon fill="#181818" points="712.5,357.5801,702.5,361.5801,712.5,365.5801,708.5,361.5801" style="stroke:#181818;stroke-width:1.0;"/><text fill="#000000" font-family="sans-serif" font-size="13" font-weight="bold" lengthAdjust="spacing" textLength="7" x="714.5" y="343.3174">4</text><text fill="#000000" font-family="sans-serif" font-size="13" lengthAdjust="spacing" textLength="119" x="725.5" y="343.3174">greenSpaceManager</text><line style="stroke:#181818;stroke-width:1.0;" x1="702.5" x2="749.5" y1="382.8711" y2="382.8711"/><line style="stroke:#181818;stroke-width:1.0;" x1="749.5" x2="749.5" y1="382.8711" y2="395.8711"/><line style="stroke:#181818;stroke-width:1.0;" x1="708.5" x2="749.5" y1="395.8711" y2="395.8711"/><polygon fill="#181818" points="718.5,391.8711,708.5,395.8711,718.5,399.8711,714.5,395.8711" style="stroke:#181818;stroke-width:1.0;"/><text fill="#000000" font-family="sans-serif" font-size="13" font-weight="bold" lengthAdjust="spacing" textLength="7" x="714.5" y="377.6084">5</text><text fill="#000000" font-family="sans-serif" font-size="13" lengthAdjust="spacing" textLength="278" x="725.5" y="377.6084">getAllGreenSpaceByGSM(greenSpaceManager)</text><polygon fill="#181818" points="1368,428.1621,1378,432.1621,1368,436.1621,1372,432.1621" style="stroke:#181818;stroke-width:1.0;"/><line style="stroke:#181818;stroke-width:1.0;" x1="707.5" x2="1374" y1="432.1621" y2="432.1621"/><text fill="#000000" font-family="sans-serif" font-size="13" font-weight="bold" lengthAdjust="spacing" textLength="7" x="714.5" y="426.8994">6</text><text fill="#000000" font-family="sans-serif" font-size="13" lengthAdjust="spacing" textLength="119" x="725.5" y="426.8994">getListGreenSpace()</text><polygon fill="#181818" points="718.5,459.4531,708.5,463.4531,718.5,467.4531,714.5,463.4531" style="stroke:#181818;stroke-width:1.0;"/><line style="stroke:#181818;stroke-width:1.0;stroke-dasharray:2.0,2.0;" x1="712.5" x2="1384" y1="463.4531" y2="463.4531"/><text fill="#000000" font-family="sans-serif" font-size="13" font-weight="bold" lengthAdjust="spacing" textLength="7" x="724.5" y="458.1904">7</text><text fill="#000000" font-family="sans-serif" font-size="13" lengthAdjust="spacing" textLength="94" x="735.5" y="458.1904">List greenSpace</text><line style="stroke:#181818;stroke-width:1.0;stroke-dasharray:2.0,2.0;" x1="707.5" x2="749.5" y1="499.7441" y2="499.7441"/><line style="stroke:#181818;stroke-width:1.0;stroke-dasharray:2.0,2.0;" x1="749.5" x2="749.5" y1="499.7441" y2="512.7441"/><line style="stroke:#181818;stroke-width:1.0;stroke-dasharray:2.0,2.0;" x1="702.5" x2="749.5" y1="512.7441" y2="512.7441"/><polygon fill="#181818" points="712.5,508.7441,702.5,512.7441,712.5,516.7441,708.5,512.7441" style="stroke:#181818;stroke-width:1.0;"/><text fill="#000000" font-family="sans-serif" font-size="13" font-weight="bold" lengthAdjust="spacing" textLength="7" x="714.5" y="494.4814">8</text><text fill="#000000" font-family="sans-serif" font-size="13" lengthAdjust="spacing" textLength="94" x="725.5" y="494.4814">List greenSpace</text><line style="stroke:#181818;stroke-width:1.0;" x1="702.5" x2="749.5" y1="534.0352" y2="534.0352"/><line style="stroke:#181818;stroke-width:1.0;" x1="749.5" x2="749.5" y1="534.0352" y2="547.0352"/><line style="stroke:#181818;stroke-width:1.0;" x1="708.5" x2="749.5" y1="547.0352" y2="547.0352"/><polygon fill="#181818" points="718.5,543.0352,708.5,547.0352,718.5,551.0352,714.5,547.0352" style="stroke:#181818;stroke-width:1.0;"/><text fill="#000000" font-family="sans-serif" font-size="13" font-weight="bold" lengthAdjust="spacing" textLength="7" x="714.5" y="528.7725">9</text><text fill="#000000" font-family="sans-serif" font-size="13" lengthAdjust="spacing" textLength="246" x="725.5" y="528.7725">getAllTaskByGreenSpace(listGreenSpace)</text><rect fill="none" height="75.1738" style="stroke:#000000;stroke-width:1.5;" width="213" x="591" y="560.0352"/><path d="M591,560.0352 L653,560.0352 L653,569.0352 L643,579.0352 L591,579.0352 L591,560.0352 " fill="#EEEEEE" style="stroke:#000000;stroke-width:2.0;"/><text fill="#000000" font-family="sans-serif" font-size="13" font-weight="bold" lengthAdjust="spacing" textLength="17" x="604" y="576.0635">ref</text><text fill="#000000" font-family="sans-serif" font-size="12" lengthAdjust="spacing" textLength="3" x="696" y="595.9844">&#160;</text><text fill="#000000" font-family="sans-serif" font-size="12" lengthAdjust="spacing" textLength="153" x="621" y="611.9453">Get All Task By GreenSpace</text><text fill="#000000" font-family="sans-serif" font-size="12" lengthAdjust="spacing" textLength="3" x="696" y="627.9063">&#160;</text><line style="stroke:#181818;stroke-width:1.0;stroke-dasharray:2.0,2.0;" x1="707.5" x2="749.5" y1="668.5" y2="668.5"/><line style="stroke:#181818;stroke-width:1.0;stroke-dasharray:2.0,2.0;" x1="749.5" x2="749.5" y1="668.5" y2="681.5"/><line style="stroke:#181818;stroke-width:1.0;stroke-dasharray:2.0,2.0;" x1="702.5" x2="749.5" y1="681.5" y2="681.5"/><polygon fill="#181818" points="712.5,677.5,702.5,681.5,712.5,685.5,708.5,681.5" style="stroke:#181818;stroke-width:1.0;"/><text fill="#000000" font-family="sans-serif" font-size="13" font-weight="bold" lengthAdjust="spacing" textLength="14" x="714.5" y="663.2373">10</text><text fill="#000000" font-family="sans-serif" font-size="13" lengthAdjust="spacing" textLength="45" x="732.5" y="663.2373">listTask</text><polygon fill="#181818" points="502.5,703.791,492.5,707.791,502.5,711.791,498.5,707.791" style="stroke:#181818;stroke-width:1.0;"/><line style="stroke:#181818;stroke-width:1.0;stroke-dasharray:2.0,2.0;" x1="496.5" x2="696.5" y1="707.791" y2="707.791"/><text fill="#000000" font-family="sans-serif" font-size="13" font-weight="bold" lengthAdjust="spacing" textLength="14" x="508.5" y="702.5283">11</text><text fill="#000000" font-family="sans-serif" font-size="13" lengthAdjust="spacing" textLength="45" x="526.5" y="702.5283">listTask</text><polygon fill="#181818" points="118.5,735.082,108.5,739.082,118.5,743.082,114.5,739.082" style="stroke:#181818;stroke-width:1.0;"/><line style="stroke:#181818;stroke-width:1.0;stroke-dasharray:2.0,2.0;" x1="112.5" x2="485.5" y1="739.082" y2="739.082"/><text fill="#000000" font-family="sans-serif" font-size="13" font-weight="bold" lengthAdjust="spacing" textLength="14" x="124.5" y="733.8193">12</text><text fill="#000000" font-family="sans-serif" font-size="13" lengthAdjust="spacing" textLength="218" x="142.5" y="733.8193">Show Task List and ask to select one</text><polygon fill="#181818" points="469.5,766.373,479.5,770.373,469.5,774.373,473.5,770.373" style="stroke:#181818;stroke-width:1.0;"/><line style="stroke:#181818;stroke-width:1.0;" x1="107.5" x2="475.5" y1="770.373" y2="770.373"/><text fill="#000000" font-family="sans-serif" font-size="13" font-weight="bold" lengthAdjust="spacing" textLength="14" x="114.5" y="765.1104">13</text><text fill="#000000" font-family="sans-serif" font-size="13" lengthAdjust="spacing" textLength="82" x="132.5" y="765.1104">choose a task</text><polygon fill="#181818" points="680.5,797.6641,690.5,801.6641,680.5,805.6641,684.5,801.6641" style="stroke:#181818;stroke-width:1.0;"/><line style="stroke:#181818;stroke-width:1.0;" x1="491.5" x2="686.5" y1="801.6641" y2="801.6641"/><text fill="#000000" font-family="sans-serif" font-size="13" font-weight="bold" lengthAdjust="spacing" textLength="14" x="498.5" y="796.4014">14</text><text fill="#000000" font-family="sans-serif" font-size="13" lengthAdjust="spacing" textLength="80" x="516.5" y="796.4014">getAllTeams()</text><polygon fill="#181818" points="993.5,828.9551,1003.5,832.9551,993.5,836.9551,997.5,832.9551" style="stroke:#181818;stroke-width:1.0;"/><line style="stroke:#181818;stroke-width:1.0;" x1="702.5" x2="999.5" y1="832.9551" y2="832.9551"/><text fill="#000000" font-family="sans-serif" font-size="13" font-weight="bold" lengthAdjust="spacing" textLength="14" x="709.5" y="827.6924">15</text><text fill="#000000" font-family="sans-serif" font-size="13" lengthAdjust="spacing" textLength="75" x="727.5" y="827.6924">getInstance()</text><polygon fill="#181818" points="713.5,860.2461,703.5,864.2461,713.5,868.2461,709.5,864.2461" style="stroke:#181818;stroke-width:1.0;"/><line style="stroke:#181818;stroke-width:1.0;stroke-dasharray:2.0,2.0;" x1="707.5" x2="1009.5" y1="864.2461" y2="864.2461"/><text fill="#000000" font-family="sans-serif" font-size="13" font-weight="bold" lengthAdjust="spacing" textLength="14" x="719.5" y="858.9834">16</text><text fill="#000000" font-family="sans-serif" font-size="13" lengthAdjust="spacing" textLength="67" x="737.5" y="858.9834">repositories</text><polygon fill="#181818" points="1100.5,891.5371,1110.5,895.5371,1100.5,899.5371,1104.5,895.5371" style="stroke:#181818;stroke-width:1.0;"/><line style="stroke:#181818;stroke-width:1.0;" x1="702.5" x2="1106.5" y1="895.5371" y2="895.5371"/><text fill="#000000" font-family="sans-serif" font-size="13" font-weight="bold" lengthAdjust="spacing" textLength="14" x="709.5" y="890.2744">17</text><text fill="#000000" font-family="sans-serif" font-size="13" lengthAdjust="spacing" textLength="120" x="727.5" y="890.2744">getTeamRepository()</text><polygon fill="#181818" points="713.5,922.8281,703.5,926.8281,713.5,930.8281,709.5,926.8281" style="stroke:#181818;stroke-width:1.0;"/><line style="stroke:#181818;stroke-width:1.0;stroke-dasharray:2.0,2.0;" x1="707.5" x2="1116.5" y1="926.8281" y2="926.8281"/><text fill="#000000" font-family="sans-serif" font-size="13" font-weight="bold" lengthAdjust="spacing" textLength="14" x="719.5" y="921.5654">18</text><text fill="#000000" font-family="sans-serif" font-size="13" lengthAdjust="spacing" textLength="91" x="737.5" y="921.5654">teamRepository</text><polygon fill="#181818" points="1220,954.1191,1230,958.1191,1220,962.1191,1224,958.1191" style="stroke:#181818;stroke-width:1.0;"/><line style="stroke:#181818;stroke-width:1.0;" x1="702.5" x2="1226" y1="958.1191" y2="958.1191"/><text fill="#000000" font-family="sans-serif" font-size="13" font-weight="bold" lengthAdjust="spacing" textLength="14" x="709.5" y="952.8564">19</text><text fill="#000000" font-family="sans-serif" font-size="13" lengthAdjust="spacing" textLength="80" x="727.5" y="952.8564">getAllTeams()</text><polygon fill="#181818" points="713.5,985.4102,703.5,989.4102,713.5,993.4102,709.5,989.4102" style="stroke:#181818;stroke-width:1.0;"/><line style="stroke:#181818;stroke-width:1.0;stroke-dasharray:2.0,2.0;" x1="707.5" x2="1236" y1="989.4102" y2="989.4102"/><text fill="#000000" font-family="sans-serif" font-size="13" font-weight="bold" lengthAdjust="spacing" textLength="14" x="719.5" y="984.1475">20</text><text fill="#000000" font-family="sans-serif" font-size="13" lengthAdjust="spacing" textLength="49" x="737.5" y="984.1475">listTeam</text><polygon fill="#181818" points="1506,1016.7012,1516,1020.7012,1506,1024.7012,1510,1020.7012" style="stroke:#181818;stroke-width:1.0;"/><line style="stroke:#181818;stroke-width:1.0;" x1="702.5" x2="1512" y1="1020.7012" y2="1020.7012"/><text fill="#000000" font-family="sans-serif" font-size="13" font-weight="bold" lengthAdjust="spacing" textLength="14" x="709.5" y="1015.4385">21</text><text fill="#000000" font-family="sans-serif" font-size="13" lengthAdjust="spacing" textLength="94" x="727.5" y="1015.4385">toDTO(listTeam)</text><rect fill="none" height="43.252" style="stroke:#000000;stroke-width:1.5;" width="108" x="1469" y="1028.7012"/><path d="M1469,1028.7012 L1531,1028.7012 L1531,1037.7012 L1521,1047.7012 L1469,1047.7012 L1469,1028.7012 " fill="#EEEEEE" style="stroke:#000000;stroke-width:2.0;"/><text fill="#000000" font-family="sans-serif" font-size="13" font-weight="bold" lengthAdjust="spacing" textLength="17" x="1482" y="1044.7295">ref</text><text fill="#000000" font-family="sans-serif" font-size="12" lengthAdjust="spacing" textLength="86" x="1480" y="1064.6504">SD_toDTO_List</text><polygon fill="#181818" points="713.5,1096.2441,703.5,1100.2441,713.5,1104.2441,709.5,1100.2441" style="stroke:#181818;stroke-width:1.0;"/><line style="stroke:#181818;stroke-width:1.0;stroke-dasharray:2.0,2.0;" x1="707.5" x2="1522" y1="1100.2441" y2="1100.2441"/><text fill="#000000" font-family="sans-serif" font-size="13" font-weight="bold" lengthAdjust="spacing" textLength="14" x="719.5" y="1094.9814">22</text><text fill="#000000" font-family="sans-serif" font-size="13" lengthAdjust="spacing" textLength="69" x="737.5" y="1094.9814">listTeamDto</text><polygon fill="#181818" points="502.5,1127.5352,492.5,1131.5352,502.5,1135.5352,498.5,1131.5352" style="stroke:#181818;stroke-width:1.0;"/><line style="stroke:#181818;stroke-width:1.0;stroke-dasharray:2.0,2.0;" x1="496.5" x2="696.5" y1="1131.5352" y2="1131.5352"/><text fill="#000000" font-family="sans-serif" font-size="13" font-weight="bold" lengthAdjust="spacing" textLength="14" x="508.5" y="1126.2725">23</text><text fill="#000000" font-family="sans-serif" font-size="13" lengthAdjust="spacing" textLength="69" x="526.5" y="1126.2725">listTeamDto</text><polygon fill="#181818" points="118.5,1158.8262,108.5,1162.8262,118.5,1166.8262,114.5,1162.8262" style="stroke:#181818;stroke-width:1.0;"/><line style="stroke:#181818;stroke-width:1.0;stroke-dasharray:2.0,2.0;" x1="112.5" x2="485.5" y1="1162.8262" y2="1162.8262"/><text fill="#000000" font-family="sans-serif" font-size="13" font-weight="bold" lengthAdjust="spacing" textLength="14" x="124.5" y="1157.5635">24</text><text fill="#000000" font-family="sans-serif" font-size="13" lengthAdjust="spacing" textLength="332" x="142.5" y="1157.5635">show the list of the teams and ask to choose one of them</text><polygon fill="#181818" points="469.5,1190.1172,479.5,1194.1172,469.5,1198.1172,473.5,1194.1172" style="stroke:#181818;stroke-width:1.0;"/><line style="stroke:#181818;stroke-width:1.0;" x1="107.5" x2="475.5" y1="1194.1172" y2="1194.1172"/><text fill="#000000" font-family="sans-serif" font-size="13" font-weight="bold" lengthAdjust="spacing" textLength="14" x="114.5" y="1188.8545">25</text><text fill="#000000" font-family="sans-serif" font-size="13" lengthAdjust="spacing" textLength="69" x="132.5" y="1188.8545">type a team</text><polygon fill="#181818" points="118.5,1221.4082,108.5,1225.4082,118.5,1229.4082,114.5,1225.4082" style="stroke:#181818;stroke-width:1.0;"/><line style="stroke:#181818;stroke-width:1.0;stroke-dasharray:2.0,2.0;" x1="112.5" x2="485.5" y1="1225.4082" y2="1225.4082"/><text fill="#000000" font-family="sans-serif" font-size="13" font-weight="bold" lengthAdjust="spacing" textLength="14" x="124.5" y="1220.1455">26</text><text fill="#000000" font-family="sans-serif" font-size="13" lengthAdjust="spacing" textLength="222" x="142.5" y="1220.1455">show all data and request confirmation</text><polygon fill="#181818" points="469.5,1252.6992,479.5,1256.6992,469.5,1260.6992,473.5,1256.6992" style="stroke:#181818;stroke-width:1.0;"/><line style="stroke:#181818;stroke-width:1.0;" x1="107.5" x2="475.5" y1="1256.6992" y2="1256.6992"/><text fill="#000000" font-family="sans-serif" font-size="13" font-weight="bold" lengthAdjust="spacing" textLength="14" x="114.5" y="1251.4365">27</text><text fill="#000000" font-family="sans-serif" font-size="13" lengthAdjust="spacing" textLength="78" x="132.5" y="1251.4365">confirms data</text><polygon fill="#181818" points="680.5,1283.9902,690.5,1287.9902,680.5,1291.9902,684.5,1287.9902" style="stroke:#181818;stroke-width:1.0;"/><line style="stroke:#181818;stroke-width:1.0;" x1="491.5" x2="686.5" y1="1287.9902" y2="1287.9902"/><text fill="#000000" font-family="sans-serif" font-size="13" font-weight="bold" lengthAdjust="spacing" textLength="14" x="498.5" y="1282.7275">28</text><text fill="#000000" font-family="sans-serif" font-size="13" lengthAdjust="spacing" textLength="164" x="516.5" y="1282.7275">assignTeamTask(team,task)</text><rect fill="none" height="75.1738" style="stroke:#000000;stroke-width:1.5;" width="213" x="591" y="1295.9902"/><path d="M591,1295.9902 L653,1295.9902 L653,1304.9902 L643,1314.9902 L591,1314.9902 L591,1295.9902 " fill="#EEEEEE" style="stroke:#000000;stroke-width:2.0;"/><text fill="#000000" font-family="sans-serif" font-size="13" font-weight="bold" lengthAdjust="spacing" textLength="17" x="604" y="1312.0186">ref</text><text fill="#000000" font-family="sans-serif" font-size="12" lengthAdjust="spacing" textLength="3" x="696" y="1331.9395">&#160;</text><text fill="#000000" font-family="sans-serif" font-size="12" lengthAdjust="spacing" textLength="103" x="646" y="1347.9004">Assign Team Task</text><text fill="#000000" font-family="sans-serif" font-size="12" lengthAdjust="spacing" textLength="3" x="696" y="1363.8613">&#160;</text><polygon fill="#181818" points="502.5,1395.4551,492.5,1399.4551,502.5,1403.4551,498.5,1399.4551" style="stroke:#181818;stroke-width:1.0;"/><line style="stroke:#181818;stroke-width:1.0;stroke-dasharray:2.0,2.0;" x1="496.5" x2="696.5" y1="1399.4551" y2="1399.4551"/><text fill="#000000" font-family="sans-serif" font-size="13" font-weight="bold" lengthAdjust="spacing" textLength="14" x="508.5" y="1394.1924">29</text><text fill="#000000" font-family="sans-serif" font-size="13" lengthAdjust="spacing" textLength="53" x="526.5" y="1394.1924">true/false</text><polygon fill="#181818" points="113.5,1426.7461,103.5,1430.7461,113.5,1434.7461,109.5,1430.7461" style="stroke:#181818;stroke-width:1.0;"/><line style="stroke:#181818;stroke-width:1.0;stroke-dasharray:2.0,2.0;" x1="107.5" x2="485.5" y1="1430.7461" y2="1430.7461"/><text fill="#000000" font-family="sans-serif" font-size="13" font-weight="bold" lengthAdjust="spacing" textLength="14" x="119.5" y="1425.4834">30</text><text fill="#000000" font-family="sans-serif" font-size="13" lengthAdjust="spacing" textLength="158" x="137.5" y="1425.4834">displays operation success</text><!--SRC=[ZLPDRzf043rtVyKebnAfKQNsnY4I2Ib22ag4pQrIj363MSNikjubAV- -Cxisx883vS27UVFcpSpRiUsRqhLiv0OsHfjYtPWDWcksAEp-dreMRxB4pEqgX0OB9tLPnG2xbalpeNG9ArbP5C8fHz3553ByiqLT88oLB1awoBBnDTp08llnapv6rgfIGuxqbzBme5sZq0eXjyxexUOL6o6-hjKIOMMCUpL_XIoSQU1gqY1go4WQmangajV0O9BDhgz0Mg0lGf0sfmfLI-tWQXWoSQ9HYNef5rEFN4mluEuDQJ9LXOt7t-VpnwE8ETR6Ab95oZrcVs6NAUuKbPA6D574RtrAyFmuojC8HteEj1IJ9nTyL3vFOqfkaUzGso0AcnnVwzhrT5GKyyzaNRU8_64qcpqBUb7_rRjqo45VXE1tkBdbMGy9-6R16VeyJ9L-8dLmn-DrQuJGrOY79Y0ecZYujyHIeXjLLKvaTpkY7rn7ODz-uO590E5-aNKpfCn6zuGqk0BpJYO9FoVeuAGNGf2qZZsYFyKjyQ8YAk6G81HoGlHvPJoHmFEeh3iG9PNviGaFZUHoGAGv4HiYZWiy5t6cl7P21srL8lM_Pa0qm3nmjulcySaWc9_1iS08vItOXsdpiSb2QxyGC5kRZv3Qbo_raktBThLOqOu3ep7cO9jowCtjOZg4OcsCHP3WVAwBPgQJOCyOkMTZXDYfjhHjZ-RUjrz47qNKktZb9Btf9UjqyI8AGj9zayZnsqfuQ9Tm2Ed2IZ86V9SYdv_f4gqqGO1Z3n0kOMJOdizlAa8wCywV1Xq-OMsNsTwFxGMWLpP-yO4lx8fWmvQnHyJOcLH7IznZoGvzqPUMVScBaiF0hFntxgQDFThwZppQGjA6T6RTRsQtgxrRVUTEt1goTyabdScbTDBdQ_W6Ja8AerUgsKYds1-dgVQPMg3r59-UZ65xZ-2-y24SiB9lV9WkhetuaI6Sz7HPX7hf2UPx-p1oeU5BPUjAxYmOkjdv-i1kYuBk92Trfflq7m00]--></g></svg>