<?xml version="1.0" encoding="us-ascii" standalone="no"?><svg xmlns="http://www.w3.org/2000/svg" xmlns:xlink="http://www.w3.org/1999/xlink" contentStyleType="text/css" height="638px" preserveAspectRatio="none" style="width:1284px;height:638px;background:#FFFFFF;" version="1.1" viewBox="0 0 1284 638" width="1284px" zoomAndPan="magnify"><defs/><g><rect fill="#FFFFFF" height="473.3652" style="stroke:#181818;stroke-width:1.0;" width="10" x="163" y="90.5332"/><rect fill="#FFFFFF" height="31.291" style="stroke:#181818;stroke-width:1.0;" width="10" x="348" y="148.1152"/><rect fill="#FFFFFF" height="31.291" style="stroke:#181818;stroke-width:1.0;" width="10" x="495" y="210.6973"/><rect fill="#FFFFFF" height="31.291" style="stroke:#181818;stroke-width:1.0;" width="10" x="628" y="273.2793"/><rect fill="#FFFFFF" height="31.291" style="stroke:#181818;stroke-width:1.0;" width="10" x="741" y="335.8613"/><rect fill="#FFFFFF" height="127.1641" style="stroke:#181818;stroke-width:1.0;" width="10" x="881.5" y="398.4434"/><rect fill="#FFFFFF" height="31.291" style="stroke:#181818;stroke-width:1.0;" width="10" x="1032.5" y="456.0254"/><rect fill="none" height="428.0742" style="stroke:#000000;stroke-width:1.5;" width="1227" x="51.5" y="105.5332"/><rect fill="none" height="81.873" style="stroke:#000000;stroke-width:1.5;" width="474" x="794.5" y="413.4434"/><line style="stroke:#181818;stroke-width:0.5;stroke-dasharray:5.0,5.0;" x1="167.5" x2="167.5" y1="57.2422" y2="581.8984"/><line style="stroke:#181818;stroke-width:0.5;stroke-dasharray:5.0,5.0;" x1="352.5" x2="352.5" y1="57.2422" y2="581.8984"/><line style="stroke:#181818;stroke-width:0.5;stroke-dasharray:5.0,5.0;" x1="499.5" x2="499.5" y1="57.2422" y2="581.8984"/><line style="stroke:#181818;stroke-width:0.5;stroke-dasharray:5.0,5.0;" x1="632.5" x2="632.5" y1="57.2422" y2="581.8984"/><line style="stroke:#181818;stroke-width:0.5;stroke-dasharray:5.0,5.0;" x1="745.5" x2="745.5" y1="57.2422" y2="581.8984"/><line style="stroke:#181818;stroke-width:0.5;stroke-dasharray:5.0,5.0;" x1="886.5" x2="886.5" y1="57.2422" y2="581.8984"/><line style="stroke:#181818;stroke-width:0.5;stroke-dasharray:5.0,5.0;" x1="1037.5" x2="1037.5" y1="57.2422" y2="581.8984"/><rect fill="#E3E3E3" height="32.6211" rx="2.5" ry="2.5" style="stroke:#181818;stroke-width:0.5;" width="213" x="61.5" y="23.6211"/><text fill="#000000" font-family="sans-serif" font-size="14" lengthAdjust="spacing" textLength="199" x="68.5" y="45.7285">:RegisterGreenSpaceController</text><rect fill="#E3E3E3" height="32.6211" rx="2.5" ry="2.5" style="stroke:#181818;stroke-width:0.5;" width="213" x="61.5" y="580.8984"/><text fill="#000000" font-family="sans-serif" font-size="14" lengthAdjust="spacing" textLength="199" x="68.5" y="603.0059">:RegisterGreenSpaceController</text><rect fill="#E3E3E3" height="32.6211" rx="2.5" ry="2.5" style="stroke:#181818;stroke-width:0.5;" width="137" x="284.5" y="23.6211"/><text fill="#000000" font-family="sans-serif" font-size="14" lengthAdjust="spacing" textLength="123" x="291.5" y="45.7285">:ApplicationSession</text><rect fill="#E3E3E3" height="32.6211" rx="2.5" ry="2.5" style="stroke:#181818;stroke-width:0.5;" width="137" x="284.5" y="580.8984"/><text fill="#000000" font-family="sans-serif" font-size="14" lengthAdjust="spacing" textLength="123" x="291.5" y="603.0059">:ApplicationSession</text><rect fill="#E3E3E3" height="51.2422" rx="2.5" ry="2.5" style="stroke:#181818;stroke-width:0.5;" width="137" x="431.5" y="5"/><text fill="#000000" font-family="sans-serif" font-size="14" lengthAdjust="spacing" textLength="74" x="463" y="27.1074">appSession</text><text fill="#000000" font-family="sans-serif" font-size="14" lengthAdjust="spacing" textLength="123" x="438.5" y="45.7285">:ApplicationSession</text><rect fill="#E3E3E3" height="51.2422" rx="2.5" ry="2.5" style="stroke:#181818;stroke-width:0.5;" width="137" x="431.5" y="580.8984"/><text fill="#000000" font-family="sans-serif" font-size="14" lengthAdjust="spacing" textLength="74" x="463" y="603.0059">appSession</text><text fill="#000000" font-family="sans-serif" font-size="14" lengthAdjust="spacing" textLength="123" x="438.5" y="621.627">:ApplicationSession</text><rect fill="#E3E3E3" height="51.2422" rx="2.5" ry="2.5" style="stroke:#181818;stroke-width:0.5;" width="109" x="578.5" y="5"/><text fill="#000000" font-family="sans-serif" font-size="14" lengthAdjust="spacing" textLength="95" x="585.5" y="27.1074">currentSession</text><text fill="#000000" font-family="sans-serif" font-size="14" lengthAdjust="spacing" textLength="83" x="591.5" y="45.7285">:UserSession</text><rect fill="#E3E3E3" height="51.2422" rx="2.5" ry="2.5" style="stroke:#181818;stroke-width:0.5;" width="109" x="578.5" y="580.8984"/><text fill="#000000" font-family="sans-serif" font-size="14" lengthAdjust="spacing" textLength="95" x="585.5" y="603.0059">currentSession</text><text fill="#000000" font-family="sans-serif" font-size="14" lengthAdjust="spacing" textLength="83" x="591.5" y="621.627">:UserSession</text><rect fill="#E3E3E3" height="51.2422" rx="2.5" ry="2.5" style="stroke:#181818;stroke-width:0.5;" width="97" x="697.5" y="5"/><text fill="#000000" font-family="sans-serif" font-size="14" lengthAdjust="spacing" textLength="74" x="709" y="27.1074">repositories</text><text fill="#000000" font-family="sans-serif" font-size="14" lengthAdjust="spacing" textLength="83" x="704.5" y="45.7285">:Repositories</text><rect fill="#E3E3E3" height="51.2422" rx="2.5" ry="2.5" style="stroke:#181818;stroke-width:0.5;" width="97" x="697.5" y="580.8984"/><text fill="#000000" font-family="sans-serif" font-size="14" lengthAdjust="spacing" textLength="74" x="709" y="603.0059">repositories</text><text fill="#000000" font-family="sans-serif" font-size="14" lengthAdjust="spacing" textLength="83" x="704.5" y="621.627">:Repositories</text><rect fill="#E3E3E3" height="51.2422" rx="2.5" ry="2.5" style="stroke:#181818;stroke-width:0.5;" width="164" x="804.5" y="5"/><text fill="#000000" font-family="sans-serif" font-size="14" lengthAdjust="spacing" textLength="143" x="815" y="27.1074">collaboratorRepository</text><text fill="#000000" font-family="sans-serif" font-size="14" lengthAdjust="spacing" textLength="150" x="811.5" y="45.7285">:CollaboratorRepository</text><rect fill="#E3E3E3" height="51.2422" rx="2.5" ry="2.5" style="stroke:#181818;stroke-width:0.5;" width="164" x="804.5" y="580.8984"/><text fill="#000000" font-family="sans-serif" font-size="14" lengthAdjust="spacing" textLength="143" x="815" y="603.0059">collaboratorRepository</text><text fill="#000000" font-family="sans-serif" font-size="14" lengthAdjust="spacing" textLength="150" x="811.5" y="621.627">:CollaboratorRepository</text><rect fill="#E3E3E3" height="51.2422" rx="2.5" ry="2.5" style="stroke:#181818;stroke-width:0.5;" width="96" x="989.5" y="5"/><text fill="#000000" font-family="sans-serif" font-size="14" lengthAdjust="spacing" textLength="78" x="998.5" y="27.1074">iColaborator</text><text fill="#000000" font-family="sans-serif" font-size="14" lengthAdjust="spacing" textLength="82" x="996.5" y="45.7285">:IColaborator</text><rect fill="#E3E3E3" height="51.2422" rx="2.5" ry="2.5" style="stroke:#181818;stroke-width:0.5;" width="96" x="989.5" y="580.8984"/><text fill="#000000" font-family="sans-serif" font-size="14" lengthAdjust="spacing" textLength="78" x="998.5" y="603.0059">iColaborator</text><text fill="#000000" font-family="sans-serif" font-size="14" lengthAdjust="spacing" textLength="82" x="996.5" y="621.627">:IColaborator</text><rect fill="#FFFFFF" height="473.3652" style="stroke:#181818;stroke-width:1.0;" width="10" x="163" y="90.5332"/><rect fill="#FFFFFF" height="31.291" style="stroke:#181818;stroke-width:1.0;" width="10" x="348" y="148.1152"/><rect fill="#FFFFFF" height="31.291" style="stroke:#181818;stroke-width:1.0;" width="10" x="495" y="210.6973"/><rect fill="#FFFFFF" height="31.291" style="stroke:#181818;stroke-width:1.0;" width="10" x="628" y="273.2793"/><rect fill="#FFFFFF" height="31.291" style="stroke:#181818;stroke-width:1.0;" width="10" x="741" y="335.8613"/><rect fill="#FFFFFF" height="127.1641" style="stroke:#181818;stroke-width:1.0;" width="10" x="881.5" y="398.4434"/><rect fill="#FFFFFF" height="31.291" style="stroke:#181818;stroke-width:1.0;" width="10" x="1032.5" y="456.0254"/><polygon fill="#181818" points="151,86.5332,161,90.5332,151,94.5332,155,90.5332" style="stroke:#181818;stroke-width:1.0;"/><line style="stroke:#181818;stroke-width:1.0;stroke-dasharray:2.0,2.0;" x1="0" x2="157" y1="90.5332" y2="90.5332"/><text fill="#000000" font-family="sans-serif" font-size="13" font-weight="bold" lengthAdjust="spacing" textLength="7" x="7" y="85.2705">3</text><text fill="#000000" font-family="sans-serif" font-size="13" lengthAdjust="spacing" textLength="133" x="18" y="85.2705">getGSMFromSession()</text><path d="M51.5,105.5332 L257.5,105.5332 L257.5,114.8242 L247.5,124.8242 L51.5,124.8242 L51.5,105.5332 " fill="#EEEEEE" style="stroke:#000000;stroke-width:1.5;"/><rect fill="none" height="428.0742" style="stroke:#000000;stroke-width:1.5;" width="1227" x="51.5" y="105.5332"/><text fill="#000000" font-family="sans-serif" font-size="13" font-weight="bold" lengthAdjust="spacing" textLength="161" x="66.5" y="120.5615">Get GreenSpaceManager</text><polygon fill="#181818" points="336,144.1152,346,148.1152,336,152.1152,340,148.1152" style="stroke:#181818;stroke-width:1.0;"/><line style="stroke:#181818;stroke-width:1.0;" x1="173" x2="342" y1="148.1152" y2="148.1152"/><text fill="#000000" font-family="sans-serif" font-size="13" font-weight="bold" lengthAdjust="spacing" textLength="18" x="180" y="142.8525">3.1</text><text fill="#000000" font-family="sans-serif" font-size="13" lengthAdjust="spacing" textLength="75" x="202" y="142.8525">getInstance()</text><polygon fill="#181818" points="184,175.4063,174,179.4063,184,183.4063,180,179.4063" style="stroke:#181818;stroke-width:1.0;"/><line style="stroke:#181818;stroke-width:1.0;stroke-dasharray:2.0,2.0;" x1="178" x2="352" y1="179.4063" y2="179.4063"/><text fill="#000000" font-family="sans-serif" font-size="13" font-weight="bold" lengthAdjust="spacing" textLength="18" x="190" y="174.1436">3.2</text><text fill="#000000" font-family="sans-serif" font-size="13" lengthAdjust="spacing" textLength="68" x="212" y="174.1436">appSession</text><polygon fill="#181818" points="483,206.6973,493,210.6973,483,214.6973,487,210.6973" style="stroke:#181818;stroke-width:1.0;"/><line style="stroke:#181818;stroke-width:1.0;" x1="173" x2="489" y1="210.6973" y2="210.6973"/><text fill="#000000" font-family="sans-serif" font-size="13" font-weight="bold" lengthAdjust="spacing" textLength="18" x="180" y="205.4346">3.3</text><text fill="#000000" font-family="sans-serif" font-size="13" lengthAdjust="spacing" textLength="115" x="202" y="205.4346">getCurrentSession()</text><polygon fill="#181818" points="184,237.9883,174,241.9883,184,245.9883,180,241.9883" style="stroke:#181818;stroke-width:1.0;"/><line style="stroke:#181818;stroke-width:1.0;stroke-dasharray:2.0,2.0;" x1="178" x2="499" y1="241.9883" y2="241.9883"/><text fill="#000000" font-family="sans-serif" font-size="13" font-weight="bold" lengthAdjust="spacing" textLength="18" x="190" y="236.7256">3.4</text><text fill="#000000" font-family="sans-serif" font-size="13" lengthAdjust="spacing" textLength="87" x="212" y="236.7256">currentSession</text><polygon fill="#181818" points="616,269.2793,626,273.2793,616,277.2793,620,273.2793" style="stroke:#181818;stroke-width:1.0;"/><line style="stroke:#181818;stroke-width:1.0;" x1="173" x2="622" y1="273.2793" y2="273.2793"/><text fill="#000000" font-family="sans-serif" font-size="13" font-weight="bold" lengthAdjust="spacing" textLength="18" x="180" y="268.0166">3.5</text><text fill="#000000" font-family="sans-serif" font-size="13" lengthAdjust="spacing" textLength="133" x="202" y="268.0166">email = getUserEmail()</text><polygon fill="#181818" points="184,300.5703,174,304.5703,184,308.5703,180,304.5703" style="stroke:#181818;stroke-width:1.0;"/><line style="stroke:#181818;stroke-width:1.0;stroke-dasharray:2.0,2.0;" x1="178" x2="632" y1="304.5703" y2="304.5703"/><text fill="#000000" font-family="sans-serif" font-size="13" font-weight="bold" lengthAdjust="spacing" textLength="18" x="190" y="299.3076">3.6</text><text fill="#000000" font-family="sans-serif" font-size="13" lengthAdjust="spacing" textLength="31" x="212" y="299.3076">email</text><polygon fill="#181818" points="729,331.8613,739,335.8613,729,339.8613,733,335.8613" style="stroke:#181818;stroke-width:1.0;"/><line style="stroke:#181818;stroke-width:1.0;" x1="173" x2="735" y1="335.8613" y2="335.8613"/><text fill="#000000" font-family="sans-serif" font-size="13" font-weight="bold" lengthAdjust="spacing" textLength="18" x="180" y="330.5986">3.7</text><text fill="#000000" font-family="sans-serif" font-size="13" lengthAdjust="spacing" textLength="157" x="202" y="330.5986">getCollaboratorRepository()</text><polygon fill="#181818" points="184,363.1523,174,367.1523,184,371.1523,180,367.1523" style="stroke:#181818;stroke-width:1.0;"/><line style="stroke:#181818;stroke-width:1.0;stroke-dasharray:2.0,2.0;" x1="178" x2="745" y1="367.1523" y2="367.1523"/><text fill="#000000" font-family="sans-serif" font-size="13" font-weight="bold" lengthAdjust="spacing" textLength="18" x="190" y="361.8896">3.8</text><text fill="#000000" font-family="sans-serif" font-size="13" lengthAdjust="spacing" textLength="126" x="212" y="361.8896">collaboratorReporitory</text><polygon fill="#181818" points="869.5,394.4434,879.5,398.4434,869.5,402.4434,873.5,398.4434" style="stroke:#181818;stroke-width:1.0;"/><line style="stroke:#181818;stroke-width:1.0;" x1="173" x2="875.5" y1="398.4434" y2="398.4434"/><text fill="#000000" font-family="sans-serif" font-size="13" font-weight="bold" lengthAdjust="spacing" textLength="18" x="180" y="393.1807">3.9</text><text fill="#000000" font-family="sans-serif" font-size="13" lengthAdjust="spacing" textLength="175" x="202" y="393.1807">getCollaboratorByEmail(email)</text><path d="M794.5,413.4434 L867.5,413.4434 L867.5,422.7344 L857.5,432.7344 L794.5,432.7344 L794.5,413.4434 " fill="#EEEEEE" style="stroke:#000000;stroke-width:1.5;"/><rect fill="none" height="81.873" style="stroke:#000000;stroke-width:1.5;" width="474" x="794.5" y="413.4434"/><text fill="#000000" font-family="sans-serif" font-size="13" font-weight="bold" lengthAdjust="spacing" textLength="28" x="809.5" y="428.4717">loop</text><text fill="#000000" font-family="sans-serif" font-size="11" font-weight="bold" lengthAdjust="spacing" textLength="381" x="882.5" y="427.3135">[for each collaborator in collaboratorList [in CollaboratorRepository]]]</text><polygon fill="#181818" points="1020.5,452.0254,1030.5,456.0254,1020.5,460.0254,1024.5,456.0254" style="stroke:#181818;stroke-width:1.0;"/><line style="stroke:#181818;stroke-width:1.0;" x1="891.5" x2="1026.5" y1="456.0254" y2="456.0254"/><text fill="#000000" font-family="sans-serif" font-size="13" font-weight="bold" lengthAdjust="spacing" textLength="25" x="898.5" y="450.7627">3.10</text><text fill="#000000" font-family="sans-serif" font-size="13" lengthAdjust="spacing" textLength="93" x="927.5" y="450.7627">hasEmail(email)</text><polygon fill="#181818" points="902.5,483.3164,892.5,487.3164,902.5,491.3164,898.5,487.3164" style="stroke:#181818;stroke-width:1.0;"/><line style="stroke:#181818;stroke-width:1.0;stroke-dasharray:2.0,2.0;" x1="896.5" x2="1036.5" y1="487.3164" y2="487.3164"/><text fill="#000000" font-family="sans-serif" font-size="13" font-weight="bold" lengthAdjust="spacing" textLength="25" x="908.5" y="482.0537">3.11</text><text fill="#000000" font-family="sans-serif" font-size="13" lengthAdjust="spacing" textLength="53" x="937.5" y="482.0537">true/false</text><polygon fill="#181818" points="184,521.6074,174,525.6074,184,529.6074,180,525.6074" style="stroke:#181818;stroke-width:1.0;"/><line style="stroke:#181818;stroke-width:1.0;stroke-dasharray:2.0,2.0;" x1="178" x2="885.5" y1="525.6074" y2="525.6074"/><text fill="#000000" font-family="sans-serif" font-size="13" font-weight="bold" lengthAdjust="spacing" textLength="25" x="190" y="520.3447">3.12</text><text fill="#000000" font-family="sans-serif" font-size="13" lengthAdjust="spacing" textLength="67" x="219" y="520.3447">collaborator</text><polygon fill="#181818" points="11,559.8984,1,563.8984,11,567.8984,7,563.8984" style="stroke:#181818;stroke-width:1.0;"/><line style="stroke:#181818;stroke-width:1.0;stroke-dasharray:2.0,2.0;" x1="5" x2="167" y1="563.8984" y2="563.8984"/><text fill="#000000" font-family="sans-serif" font-size="13" font-weight="bold" lengthAdjust="spacing" textLength="7" x="17" y="558.6357">4</text><text fill="#000000" font-family="sans-serif" font-size="13" lengthAdjust="spacing" textLength="119" x="28" y="558.6357">greenSpaceManager</text><!--SRC=[TPH1Rzim38Nl-XL2BziERb1ifs0Ra0Lf4215WtWxRSMWAgmjL9OqIjwGVpzQjXF9IK-9xFVnaNwqtzKXE3-VpPmM9hIDlfMscNduquAHK1oKg50qpBygumJzuuqrLjPe6-01MqZkE25VHGLbE6hW2388K-bKu6jniF-KgVYBq1uONGrAAaV6_6Q-Xqhv0BX605DICLXQ4z1g3NZ3XUVBx_ljX5aufvKKGLbJWlVq4vM_5xjThXJE3O9VvYtg0f8j8fXm1dzum9GeLsMvUCmX16Uz2XOLU4BsoJ4o-zLkGaWQKJnR5AGwoO_4Bg_Uw9_5u_Qoa29Wr1E-IOuHsX35c6Y3DMtp3CW_CbOKN-E3vNDUGLYN3_SKxJ3Z-m-v-lQEpZAelo90dmQhqBQEho7mSsmFmj0Q86Ci5YQ3Be_UO6CyhOM4M7ei5UDYKPIqSuwCiGDCn6FbK-5bbbLMFWAJudcqcK5Mlq-O06Y4qlnBPzLjmQexPYx3Bh21IBmYcbcCsj6bYt8OushacL7CdKKa7MW2OWGprnuSFSSLklJzTkodYtsdpkFICMsjuoyMEHMlCskkJ7RUqYlDVzB5wuCzFL53Gn_KKxUWr4yj_1iTz1iSPN7sqmZTfsZMVrNIaNizc4DYS_sPPTXfq8vCte1FZ7qkYl5rkLZuj09f_WC0]--></g></svg>