<?xml version="1.0" encoding="us-ascii" standalone="no"?><svg xmlns="http://www.w3.org/2000/svg" xmlns:xlink="http://www.w3.org/1999/xlink" contentStyleType="text/css" height="546px" preserveAspectRatio="none" style="width:1139px;height:546px;background:#FFFFFF;" version="1.1" viewBox="0 0 1139 546" width="1139px" zoomAndPan="magnify"><defs/><g><rect fill="#FFFFFF" height="381.4922" style="stroke:#181818;stroke-width:1.0;" width="10" x="245" y="90.5332"/><rect fill="#FFFFFF" height="285.6191" style="stroke:#181818;stroke-width:1.0;" width="10" x="511" y="148.1152"/><rect fill="#FFFFFF" height="223.0371" style="stroke:#181818;stroke-width:1.0;" width="10" x="777" y="179.4063"/><rect fill="#FFFFFF" height="31.291" style="stroke:#181818;stroke-width:1.0;" width="10" x="978" y="236.9883"/><rect fill="#FFFFFF" height="31.291" style="stroke:#181818;stroke-width:1.0;" width="10" x="978" y="325.8613"/><rect fill="none" height="336.2012" style="stroke:#000000;stroke-width:1.5;" width="997" x="136.5" y="105.5332"/><rect fill="none" height="177.7461" style="stroke:#000000;stroke-width:1.5;" width="414" x="709.5" y="194.4063"/><rect fill="none" height="81.873" style="stroke:#000000;stroke-width:1.5;" width="322.5" x="719.5" y="283.2793"/><line style="stroke:#181818;stroke-width:0.5;stroke-dasharray:5.0,5.0;" x1="249.5" x2="249.5" y1="57.2422" y2="490.0254"/><line style="stroke:#181818;stroke-width:0.5;stroke-dasharray:5.0,5.0;" x1="515.5" x2="515.5" y1="57.2422" y2="490.0254"/><line style="stroke:#181818;stroke-width:0.5;stroke-dasharray:5.0,5.0;" x1="781.5" x2="781.5" y1="57.2422" y2="490.0254"/><line style="stroke:#181818;stroke-width:0.5;stroke-dasharray:5.0,5.0;" x1="983" x2="983" y1="57.2422" y2="490.0254"/><rect fill="#E3E3E3" height="32.6211" rx="2.5" ry="2.5" style="stroke:#181818;stroke-width:0.5;" width="207" x="146.5" y="23.6211"/><text fill="#000000" font-family="sans-serif" font-size="14" lengthAdjust="spacing" textLength="193" x="153.5" y="45.7285">:AssignTeamAgendaController</text><rect fill="#E3E3E3" height="32.6211" rx="2.5" ry="2.5" style="stroke:#181818;stroke-width:0.5;" width="207" x="146.5" y="489.0254"/><text fill="#000000" font-family="sans-serif" font-size="14" lengthAdjust="spacing" textLength="193" x="153.5" y="511.1328">:AssignTeamAgendaController</text><rect fill="#E3E3E3" height="51.2422" rx="2.5" ry="2.5" style="stroke:#181818;stroke-width:0.5;" width="67" x="482.5" y="5"/><text fill="#000000" font-family="sans-serif" font-size="14" lengthAdjust="spacing" textLength="48" x="492" y="27.1074">agenda</text><text fill="#000000" font-family="sans-serif" font-size="14" lengthAdjust="spacing" textLength="53" x="489.5" y="45.7285">:Agenda</text><rect fill="#E3E3E3" height="51.2422" rx="2.5" ry="2.5" style="stroke:#181818;stroke-width:0.5;" width="67" x="482.5" y="489.0254"/><text fill="#000000" font-family="sans-serif" font-size="14" lengthAdjust="spacing" textLength="48" x="492" y="511.1328">agenda</text><text fill="#000000" font-family="sans-serif" font-size="14" lengthAdjust="spacing" textLength="53" x="489.5" y="529.7539">:Agenda</text><rect fill="#E3E3E3" height="51.2422" rx="2.5" ry="2.5" style="stroke:#181818;stroke-width:0.5;" width="105" x="729.5" y="5"/><text fill="#000000" font-family="sans-serif" font-size="14" lengthAdjust="spacing" textLength="82" x="741" y="27.1074">tasksAgenda</text><text fill="#000000" font-family="sans-serif" font-size="14" lengthAdjust="spacing" textLength="91" x="736.5" y="45.7285">:TasksAgenda</text><rect fill="#E3E3E3" height="51.2422" rx="2.5" ry="2.5" style="stroke:#181818;stroke-width:0.5;" width="105" x="729.5" y="489.0254"/><text fill="#000000" font-family="sans-serif" font-size="14" lengthAdjust="spacing" textLength="82" x="741" y="511.1328">tasksAgenda</text><text fill="#000000" font-family="sans-serif" font-size="14" lengthAdjust="spacing" textLength="91" x="736.5" y="529.7539">:TasksAgenda</text><rect fill="#E3E3E3" height="51.2422" rx="2.5" ry="2.5" style="stroke:#181818;stroke-width:0.5;" width="98" x="934" y="5"/><text fill="#000000" font-family="sans-serif" font-size="14" lengthAdjust="spacing" textLength="75" x="945.5" y="27.1074">taskAgenda</text><text fill="#000000" font-family="sans-serif" font-size="14" lengthAdjust="spacing" textLength="84" x="941" y="45.7285">:TaskAgenda</text><rect fill="#E3E3E3" height="51.2422" rx="2.5" ry="2.5" style="stroke:#181818;stroke-width:0.5;" width="98" x="934" y="489.0254"/><text fill="#000000" font-family="sans-serif" font-size="14" lengthAdjust="spacing" textLength="75" x="945.5" y="511.1328">taskAgenda</text><text fill="#000000" font-family="sans-serif" font-size="14" lengthAdjust="spacing" textLength="84" x="941" y="529.7539">:TaskAgenda</text><rect fill="#FFFFFF" height="381.4922" style="stroke:#181818;stroke-width:1.0;" width="10" x="245" y="90.5332"/><rect fill="#FFFFFF" height="285.6191" style="stroke:#181818;stroke-width:1.0;" width="10" x="511" y="148.1152"/><rect fill="#FFFFFF" height="223.0371" style="stroke:#181818;stroke-width:1.0;" width="10" x="777" y="179.4063"/><rect fill="#FFFFFF" height="31.291" style="stroke:#181818;stroke-width:1.0;" width="10" x="978" y="236.9883"/><rect fill="#FFFFFF" height="31.291" style="stroke:#181818;stroke-width:1.0;" width="10" x="978" y="325.8613"/><polygon fill="#181818" points="233,86.5332,243,90.5332,233,94.5332,237,90.5332" style="stroke:#181818;stroke-width:1.0;"/><line style="stroke:#181818;stroke-width:1.0;stroke-dasharray:2.0,2.0;" x1="0" x2="239" y1="90.5332" y2="90.5332"/><text fill="#000000" font-family="sans-serif" font-size="13" font-weight="bold" lengthAdjust="spacing" textLength="14" x="7" y="85.2705">43</text><text fill="#000000" font-family="sans-serif" font-size="13" lengthAdjust="spacing" textLength="208" x="25" y="85.2705">assignTeamTask(team,taskAgenda)</text><path d="M136.5,105.5332 L295.5,105.5332 L295.5,114.8242 L285.5,124.8242 L136.5,124.8242 L136.5,105.5332 " fill="#EEEEEE" style="stroke:#000000;stroke-width:1.5;"/><rect fill="none" height="336.2012" style="stroke:#000000;stroke-width:1.5;" width="997" x="136.5" y="105.5332"/><text fill="#000000" font-family="sans-serif" font-size="13" font-weight="bold" lengthAdjust="spacing" textLength="114" x="151.5" y="120.5615">Assign Team Task</text><polygon fill="#181818" points="499,144.1152,509,148.1152,499,152.1152,503,148.1152" style="stroke:#181818;stroke-width:1.0;"/><line style="stroke:#181818;stroke-width:1.0;" x1="255" x2="505" y1="148.1152" y2="148.1152"/><text fill="#000000" font-family="sans-serif" font-size="13" font-weight="bold" lengthAdjust="spacing" textLength="25" x="262" y="142.8525">43.1</text><text fill="#000000" font-family="sans-serif" font-size="13" lengthAdjust="spacing" textLength="208" x="291" y="142.8525">assignTeamTask(team,taskAgenda)</text><polygon fill="#181818" points="765,175.4063,775,179.4063,765,183.4063,769,179.4063" style="stroke:#181818;stroke-width:1.0;"/><line style="stroke:#181818;stroke-width:1.0;" x1="521" x2="771" y1="179.4063" y2="179.4063"/><text fill="#000000" font-family="sans-serif" font-size="13" font-weight="bold" lengthAdjust="spacing" textLength="25" x="528" y="174.1436">43.2</text><text fill="#000000" font-family="sans-serif" font-size="13" lengthAdjust="spacing" textLength="208" x="557" y="174.1436">assignTeamTask(team,taskAgenda)</text><path d="M709.5,194.4063 L782.5,194.4063 L782.5,203.6973 L772.5,213.6973 L709.5,213.6973 L709.5,194.4063 " fill="#EEEEEE" style="stroke:#000000;stroke-width:1.5;"/><rect fill="none" height="177.7461" style="stroke:#000000;stroke-width:1.5;" width="414" x="709.5" y="194.4063"/><text fill="#000000" font-family="sans-serif" font-size="13" font-weight="bold" lengthAdjust="spacing" textLength="28" x="724.5" y="209.4346">loop</text><text fill="#000000" font-family="sans-serif" font-size="11" font-weight="bold" lengthAdjust="spacing" textLength="321" x="797.5" y="208.2764">[for each taskAgenda in listTaskAgenda[in TasksAgenda]]</text><polygon fill="#181818" points="966,232.9883,976,236.9883,966,240.9883,970,236.9883" style="stroke:#181818;stroke-width:1.0;"/><line style="stroke:#181818;stroke-width:1.0;" x1="787" x2="972" y1="236.9883" y2="236.9883"/><text fill="#000000" font-family="sans-serif" font-size="13" font-weight="bold" lengthAdjust="spacing" textLength="25" x="794" y="231.7256">43.3</text><text fill="#000000" font-family="sans-serif" font-size="13" lengthAdjust="spacing" textLength="143" x="823" y="231.7256">equalsTask(taskAgenda)</text><polygon fill="#181818" points="798,264.2793,788,268.2793,798,272.2793,794,268.2793" style="stroke:#181818;stroke-width:1.0;"/><line style="stroke:#181818;stroke-width:1.0;stroke-dasharray:2.0,2.0;" x1="792" x2="982" y1="268.2793" y2="268.2793"/><text fill="#000000" font-family="sans-serif" font-size="13" font-weight="bold" lengthAdjust="spacing" textLength="25" x="804" y="263.0166">43.4</text><text fill="#000000" font-family="sans-serif" font-size="13" lengthAdjust="spacing" textLength="53" x="833" y="263.0166">true/false</text><path d="M719.5,283.2793 L780.5,283.2793 L780.5,292.5703 L770.5,302.5703 L719.5,302.5703 L719.5,283.2793 " fill="#EEEEEE" style="stroke:#000000;stroke-width:1.5;"/><rect fill="none" height="81.873" style="stroke:#000000;stroke-width:1.5;" width="322.5" x="719.5" y="283.2793"/><text fill="#000000" font-family="sans-serif" font-size="13" font-weight="bold" lengthAdjust="spacing" textLength="16" x="734.5" y="298.3076">alt</text><text fill="#000000" font-family="sans-serif" font-size="11" font-weight="bold" lengthAdjust="spacing" textLength="113" x="795.5" y="297.1494">[equalsTask == true]</text><polygon fill="#181818" points="966,321.8613,976,325.8613,966,329.8613,970,325.8613" style="stroke:#181818;stroke-width:1.0;"/><line style="stroke:#181818;stroke-width:1.0;" x1="787" x2="972" y1="325.8613" y2="325.8613"/><text fill="#000000" font-family="sans-serif" font-size="13" font-weight="bold" lengthAdjust="spacing" textLength="25" x="794" y="320.5986">43.5</text><text fill="#000000" font-family="sans-serif" font-size="13" lengthAdjust="spacing" textLength="108" x="823" y="320.5986">updateTeam(team)</text><polygon fill="#181818" points="798,353.1523,788,357.1523,798,361.1523,794,357.1523" style="stroke:#181818;stroke-width:1.0;"/><line style="stroke:#181818;stroke-width:1.0;stroke-dasharray:2.0,2.0;" x1="792" x2="982" y1="357.1523" y2="357.1523"/><text fill="#000000" font-family="sans-serif" font-size="13" font-weight="bold" lengthAdjust="spacing" textLength="25" x="804" y="351.8896">43.6</text><text fill="#000000" font-family="sans-serif" font-size="13" lengthAdjust="spacing" textLength="53" x="833" y="351.8896">true/false</text><polygon fill="#181818" points="532,398.4434,522,402.4434,532,406.4434,528,402.4434" style="stroke:#181818;stroke-width:1.0;"/><line style="stroke:#181818;stroke-width:1.0;stroke-dasharray:2.0,2.0;" x1="526" x2="781" y1="402.4434" y2="402.4434"/><text fill="#000000" font-family="sans-serif" font-size="13" font-weight="bold" lengthAdjust="spacing" textLength="25" x="538" y="397.1807">43.7</text><text fill="#000000" font-family="sans-serif" font-size="13" lengthAdjust="spacing" textLength="53" x="567" y="397.1807">true/false</text><polygon fill="#181818" points="266,429.7344,256,433.7344,266,437.7344,262,433.7344" style="stroke:#181818;stroke-width:1.0;"/><line style="stroke:#181818;stroke-width:1.0;stroke-dasharray:2.0,2.0;" x1="260" x2="515" y1="433.7344" y2="433.7344"/><text fill="#000000" font-family="sans-serif" font-size="13" font-weight="bold" lengthAdjust="spacing" textLength="25" x="272" y="428.4717">43.8</text><text fill="#000000" font-family="sans-serif" font-size="13" lengthAdjust="spacing" textLength="53" x="301" y="428.4717">true/false</text><polygon fill="#181818" points="11,468.0254,1,472.0254,11,476.0254,7,472.0254" style="stroke:#181818;stroke-width:1.0;"/><line style="stroke:#181818;stroke-width:1.0;stroke-dasharray:2.0,2.0;" x1="5" x2="249" y1="472.0254" y2="472.0254"/><text fill="#000000" font-family="sans-serif" font-size="13" font-weight="bold" lengthAdjust="spacing" textLength="14" x="17" y="466.7627">44</text><text fill="#000000" font-family="sans-serif" font-size="13" lengthAdjust="spacing" textLength="53" x="35" y="466.7627">true/false</text><!--SRC=[hP8_JyCm4CLtVufJ5q0YZH2T8eeK5SG0Og3PWE58hebLnpQs0-BRu_ofuaQq0eabSfBtktTtVYULSzecSQm5IjVKOfwhEhRqtf3CAIeubWPhPhTSQlGdg9LKUMLKJU1CGy4VZVaMIrgxBq5WA7SeIn4AR8M5-kIoX0qAIupvpuxdN7jdc2MfjRoK6M6TbYGBN2dfZ1A2p0pGmYfxUjWdi9EzoAJNTwhqxlRn9jtNERHRc-x4sVZM4LcwlZz4xK4JXZ5id99D_KO65fUCHT5rroGaNh8RfGLFdJ-SZ_NE9kZyWfL6DHhw3K3BGGjwNUxu1phgfsTTUM_Jz_ihers1OKGseBx8EFYV2WNxOa8f3HjbW32lODG3bo2uTUFQdlsNOFElZ0NsGpE-3Pyx7us-XOFkFGlHT8OsZ_4GhO8c20eNL8Vbie_lpsqqkl1akurk4__IW9zaU8IMuMKUmQUtDqRj0BG3EiCmRGl6hgBeEDp-_GO0]--></g></svg>