<?xml version="1.0" encoding="us-ascii" standalone="no"?><svg xmlns="http://www.w3.org/2000/svg" xmlns:xlink="http://www.w3.org/1999/xlink" contentStyleType="text/css" height="702px" preserveAspectRatio="none" style="width:350px;height:702px;background:#FFFFFF;" version="1.1" viewBox="0 0 350 702" width="350px" zoomAndPan="magnify"><defs/><g><text fill="#000000" font-family="sans-serif" font-size="14" font-weight="bold" lengthAdjust="spacing" textLength="100" x="118" y="25.1074">Domain Model</text><!--class Collaborator--><g id="elem_Collaborator"><rect codeLine="10" fill="#F1F1F1" height="129.7266" id="Collaborator" rx="2.5" ry="2.5" style="stroke:#181818;stroke-width:0.5;" width="105" x="97.5" y="180.6211"/><text fill="#000000" font-family="sans-serif" font-size="14" lengthAdjust="spacing" textLength="78" x="111" y="200.7285">Collaborator</text><line style="stroke:#181818;stroke-width:0.5;" x1="98.5" x2="201.5" y1="209.2422" y2="209.2422"/><text fill="#000000" font-family="sans-serif" font-size="14" lengthAdjust="spacing" textLength="35" x="103.5" y="228.3496">name</text><text fill="#000000" font-family="sans-serif" font-size="14" lengthAdjust="spacing" textLength="72" x="103.5" y="246.9707">dateOfBirth</text><text fill="#000000" font-family="sans-serif" font-size="14" lengthAdjust="spacing" textLength="93" x="103.5" y="265.5918">admissionDate</text><text fill="#000000" font-family="sans-serif" font-size="14" lengthAdjust="spacing" textLength="89" x="103.5" y="284.2129">phoneNumber</text><text fill="#000000" font-family="sans-serif" font-size="14" lengthAdjust="spacing" textLength="77" x="103.5" y="302.834">cardNumber</text></g><!--class Document--><g id="elem_Document"><rect codeLine="18" fill="#F1F1F1" height="73.8633" id="Document" rx="2.5" ry="2.5" style="stroke:#181818;stroke-width:0.5;" width="70" x="273" y="208.6211"/><text fill="#000000" font-family="sans-serif" font-size="14" lengthAdjust="spacing" textLength="64" x="276" y="228.7285">Document</text><line style="stroke:#181818;stroke-width:0.5;" x1="274" x2="342" y1="237.2422" y2="237.2422"/><text fill="#000000" font-family="sans-serif" font-size="14" lengthAdjust="spacing" textLength="55" x="279" y="256.3496">docType</text><text fill="#000000" font-family="sans-serif" font-size="14" lengthAdjust="spacing" textLength="48" x="279" y="274.9707">number</text></g><!--class Address--><g id="elem_Address"><rect codeLine="23" fill="#F1F1F1" height="92.4844" id="Address" rx="2.5" ry="2.5" style="stroke:#181818;stroke-width:0.5;" width="90" x="7" y="389.6211"/><text fill="#000000" font-family="sans-serif" font-size="14" lengthAdjust="spacing" textLength="52" x="26" y="409.7285">Address</text><line style="stroke:#181818;stroke-width:0.5;" x1="8" x2="96" y1="418.2422" y2="418.2422"/><text fill="#000000" font-family="sans-serif" font-size="14" lengthAdjust="spacing" textLength="72" x="13" y="437.3496">streetName</text><text fill="#000000" font-family="sans-serif" font-size="14" lengthAdjust="spacing" textLength="61" x="13" y="455.9707">postCode</text><text fill="#000000" font-family="sans-serif" font-size="14" lengthAdjust="spacing" textLength="78" x="13" y="474.5918">doorNumber</text></g><!--class HumanResourceManager--><g id="elem_HumanResourceManager"><rect codeLine="29" fill="#F1F1F1" height="36.6211" id="HumanResourceManager" rx="2.5" ry="2.5" style="stroke:#181818;stroke-width:0.5;" width="167" x="40.5" y="511.6211"/><text fill="#000000" font-family="sans-serif" font-size="14" lengthAdjust="spacing" textLength="161" x="43.5" y="531.7285">HumanResourceManager</text><line style="stroke:#181818;stroke-width:0.5;" x1="41.5" x2="206.5" y1="540.2422" y2="540.2422"/></g><!--class Team--><g id="elem_Team"><rect codeLine="32" fill="#F1F1F1" height="36.6211" id="Team" rx="2.5" ry="2.5" style="stroke:#181818;stroke-width:0.5;" width="42" x="165" y="658.6211"/><text fill="#000000" font-family="sans-serif" font-size="14" lengthAdjust="spacing" textLength="36" x="168" y="678.7285">Team</text><line style="stroke:#181818;stroke-width:0.5;" x1="166" x2="206" y1="687.2422" y2="687.2422"/></g><!--class Skill--><g id="elem_Skill"><rect codeLine="35" fill="#F1F1F1" height="55.2422" id="Skill" rx="2.5" ry="2.5" style="stroke:#181818;stroke-width:0.5;" width="47" x="126.5" y="46.6211"/><text fill="#000000" font-family="sans-serif" font-size="14" lengthAdjust="spacing" textLength="25" x="137.5" y="66.7285">Skill</text><line style="stroke:#181818;stroke-width:0.5;" x1="127.5" x2="172.5" y1="75.2422" y2="75.2422"/><text fill="#000000" font-family="sans-serif" font-size="14" lengthAdjust="spacing" textLength="35" x="132.5" y="94.3496">name</text></g><!--link Collaborator to Document--><g id="link_Collaborator_Document"><path codeLine="39" d="M202.61,245.6211 C225.59,245.6211 251.94,245.6211 272.54,245.6211 " fill="none" id="Collaborator-Document" style="stroke:#181818;stroke-width:1.0;"/><polygon fill="#000000" points="229.75,233.2666,220.7049,230.3277,220.7049,236.2055,229.75,233.2666" style="stroke:#000000;stroke-width:1.0;"/><text fill="#000000" font-family="sans-serif" font-size="13" lengthAdjust="spacing" textLength="21" x="233.75" y="238.6494">has</text><text fill="#000000" font-family="sans-serif" font-size="13" lengthAdjust="spacing" textLength="7" x="210.5005" y="241.4938">1</text><text fill="#000000" font-family="sans-serif" font-size="13" lengthAdjust="spacing" textLength="7" x="258.1133" y="241.0699">1</text></g><!--link Collaborator to Address--><g id="link_Collaborator_Address"><path codeLine="41" d="M101.36,310.8711 C95.06,320.5711 89.06,330.6611 84,340.6211 C76.19,355.9911 69.6,373.6911 64.47,389.5711 " fill="none" id="Collaborator-Address" style="stroke:#181818;stroke-width:1.0;"/><polygon fill="#000000" points="86.8779,354.7939,93.3779,347.8513,88.0558,345.3566,86.8779,354.7939" style="stroke:#000000;stroke-width:1.0;"/><text fill="#000000" font-family="sans-serif" font-size="13" lengthAdjust="spacing" textLength="25" x="98" y="355.6494">lives</text><text fill="#000000" font-family="sans-serif" font-size="13" lengthAdjust="spacing" textLength="20" x="75.3128" y="332.534">1..*</text><text fill="#000000" font-family="sans-serif" font-size="13" lengthAdjust="spacing" textLength="7" x="58.8435" y="378.2316">1</text></g><!--reverse link Collaborator to HumanResourceManager--><g id="link_Collaborator_HumanResourceManager"><path codeLine="44" d="M142.45,328.6453 C136.47,393.6053 129.25,472.0311 125.63,511.3911 " fill="none" id="Collaborator-backto-HumanResourceManager" style="stroke:#181818;stroke-width:1.0;"/><polygon fill="none" points="144.1,310.7211,136.4752,328.0953,148.4247,329.1953,144.1,310.7211" style="stroke:#181818;stroke-width:1.0;"/></g><!--link HumanResourceManager to Team--><g id="link_HumanResourceManager_Team"><path codeLine="46" d="M131.6,548.9011 C143.5,576.7311 166.4,630.2811 178.34,658.1911 " fill="none" id="HumanResourceManager-Team" style="stroke:#181818;stroke-width:1.0;"/><polygon fill="#000000" points="159.9661,592.8638,159.1116,583.3917,153.7072,585.703,159.9661,592.8638" style="stroke:#000000;stroke-width:1.0;"/><text fill="#000000" font-family="sans-serif" font-size="13" lengthAdjust="spacing" textLength="41" x="167" y="593.6494">defines</text><text fill="#000000" font-family="sans-serif" font-size="13" lengthAdjust="spacing" textLength="7" x="125.7019" y="570.3509">1</text><text fill="#000000" font-family="sans-serif" font-size="13" lengthAdjust="spacing" textLength="20" x="153.1524" y="647.2602">1..*</text></g><!--link Collaborator to Team--><g id="link_Collaborator_Team"><path codeLine="48" d="M168.51,310.8111 C186.33,377.1711 211.38,484.1211 217,578.6211 C217.5,587.0511 218.58,589.3211 217,597.6211 C212.84,619.5011 202.69,643.0711 195.13,658.6111 " fill="none" id="Collaborator-Team" style="stroke:#181818;stroke-width:1.0;"/><polygon fill="#000000" points="219.6184,525.2812,217.3783,534.5242,223.2391,534.0756,219.6184,525.2812" style="stroke:#000000;stroke-width:1.0;"/><text fill="#000000" font-family="sans-serif" font-size="13" lengthAdjust="spacing" textLength="51" x="229" y="535.6494">Contains</text><text fill="#000000" font-family="sans-serif" font-size="13" lengthAdjust="spacing" textLength="20" x="149.3876" y="332.4678">1..*</text><text fill="#000000" font-family="sans-serif" font-size="13" lengthAdjust="spacing" textLength="7" x="189.8542" y="647.4702">1</text></g><!--link Skill to Collaborator--><g id="link_Skill_Collaborator"><path codeLine="50" d="M150,101.9811 C150,123.0711 150,153.3411 150,180.5711 " fill="none" id="Skill-Collaborator" style="stroke:#181818;stroke-width:1.0;"/><polygon fill="#000000" points="155,136.2666,152.0611,145.3117,157.9389,145.3117,155,136.2666" style="stroke:#000000;stroke-width:1.0;"/><text fill="#000000" font-family="sans-serif" font-size="13" lengthAdjust="spacing" textLength="21" x="164" y="146.6494">has</text><text fill="#000000" font-family="sans-serif" font-size="13" lengthAdjust="spacing" textLength="5" x="144.4531" y="123.9685">*</text><text fill="#000000" font-family="sans-serif" font-size="13" lengthAdjust="spacing" textLength="5" x="144.7266" y="169.5858">*</text></g><!--SRC=[VP5DRi8m48NtFiM8PILGkqMe4eL5ku1AXGiCza0iR4zaJrhHdxlNE0a2Yff5xCbyVlEUa_Osr1ZHW-V0kehi2IGsfDAfKwFUuuvMSd04aRHWsBbp85Le-CE67MpHfVEETfZIL2JQJIFqeZcix2V1lQgi8T0swYnKzfwaOfEK4Yjvp9mzsW0BDkIKAZ8mO-Tmmn658tmfo4z0JsLZKEXr-sIZLAL6usrAbiCyDygNkk90oyPlA9PQOpHT-TDFcBDkF0LfnGthzQ5kJuShScfCfBosP9989ClUJCr9PjbvfyBnUivpup6yKU8cQbfWoBTxJ7JghmdzMRdQM-VE0kV6nLqC7WOmBEy-08oXmWIFVy3Hw2wpBTnd68EpxrJeInmctnczwLQfcncAas4_vnWZgnlQsa3_kEdyTFYCW-H_ds2YL4aEWyvpNYu4sf0JzGi0]--></g></svg>