<?xml version="1.0" encoding="us-ascii" standalone="no"?><svg xmlns="http://www.w3.org/2000/svg" xmlns:xlink="http://www.w3.org/1999/xlink" contentStyleType="text/css" height="668px" preserveAspectRatio="none" style="width:1494px;height:668px;background:#FFFFFF;" version="1.1" viewBox="0 0 1494 668" width="1494px" zoomAndPan="magnify"><defs/><g><!--class Skill--><g id="elem_Skill"><rect codeLine="11" fill="#F1F1F1" height="103.8633" id="Skill" rx="2.5" ry="2.5" style="stroke:#181818;stroke-width:0.5;" width="126" x="622" y="558"/><ellipse cx="668.25" cy="574" fill="#ADD1B2" rx="11" ry="11" style="stroke:#181818;stroke-width:1.0;"/><path d="M671.0156,569.875 Q671.1719,569.6563 671.3594,569.5469 Q671.5469,569.4375 671.7656,569.4375 Q672.1406,569.4375 672.375,569.7031 Q672.6094,569.9531 672.6094,570.5625 L672.6094,572.0156 Q672.6094,572.625 672.375,572.8906 Q672.1406,573.1563 671.7656,573.1563 Q671.4219,573.1563 671.2188,572.9531 Q671.0156,572.7656 670.9063,572.25 Q670.8594,571.8906 670.6719,571.7031 Q670.3438,571.3281 669.7344,571.1094 Q669.125,570.8906 668.5,570.8906 Q667.7344,570.8906 667.0938,571.2188 Q666.4688,571.5469 665.9688,572.2969 Q665.4844,573.0469 665.4844,574.0781 L665.4844,575.1719 Q665.4844,576.4063 666.375,577.2344 Q667.2656,578.0469 668.8594,578.0469 Q669.7969,578.0469 670.4531,577.7969 Q670.8438,577.6406 671.2656,577.2031 Q671.5313,576.9375 671.6719,576.8594 Q671.8281,576.7813 672.0313,576.7813 Q672.3594,576.7813 672.6094,577.0469 Q672.875,577.2969 672.875,577.6406 Q672.875,577.9844 672.5313,578.3906 Q672.0313,578.9688 671.2344,579.2969 Q670.1563,579.75 668.8594,579.75 Q667.3438,579.75 666.1406,579.125 Q665.1563,578.625 664.4688,577.5625 Q663.7813,576.4844 663.7813,575.2031 L663.7813,574.0469 Q663.7813,572.7188 664.3906,571.5781 Q665.0156,570.4219 666.1094,569.8125 Q667.2031,569.1875 668.4375,569.1875 Q669.1719,569.1875 669.8125,569.3594 Q670.4688,569.5156 671.0156,569.875 Z " fill="#000000"/><text fill="#000000" font-family="sans-serif" font-size="14" lengthAdjust="spacing" textLength="25" x="688.75" y="579.7969">Skill</text><line style="stroke:#181818;stroke-width:0.5;" x1="623" x2="747" y1="590" y2="590"/><text fill="#000000" font-family="sans-serif" font-size="14" lengthAdjust="spacing" textLength="81" x="628" y="609.1074">-String name</text><line style="stroke:#181818;stroke-width:0.5;" x1="623" x2="747" y1="616.6211" y2="616.6211"/><text fill="#000000" font-family="sans-serif" font-size="14" lengthAdjust="spacing" textLength="114" x="628" y="635.7285">-validateSkill(Skill)</text><text fill="#000000" font-family="sans-serif" font-size="14" lengthAdjust="spacing" textLength="78" x="628" y="654.3496">+Skill(name)</text></g><!--class AssignSkillController--><g id="elem_AssignSkillController"><rect codeLine="17" fill="#F1F1F1" height="159.7266" id="AssignSkillController" rx="2.5" ry="2.5" style="stroke:#181818;stroke-width:0.5;" width="277" x="816.5" y="62.5"/><ellipse cx="886.25" cy="78.5" fill="#ADD1B2" rx="11" ry="11" style="stroke:#181818;stroke-width:1.0;"/><path d="M889.0156,74.375 Q889.1719,74.1563 889.3594,74.0469 Q889.5469,73.9375 889.7656,73.9375 Q890.1406,73.9375 890.375,74.2031 Q890.6094,74.4531 890.6094,75.0625 L890.6094,76.5156 Q890.6094,77.125 890.375,77.3906 Q890.1406,77.6563 889.7656,77.6563 Q889.4219,77.6563 889.2188,77.4531 Q889.0156,77.2656 888.9063,76.75 Q888.8594,76.3906 888.6719,76.2031 Q888.3438,75.8281 887.7344,75.6094 Q887.125,75.3906 886.5,75.3906 Q885.7344,75.3906 885.0938,75.7188 Q884.4688,76.0469 883.9688,76.7969 Q883.4844,77.5469 883.4844,78.5781 L883.4844,79.6719 Q883.4844,80.9063 884.375,81.7344 Q885.2656,82.5469 886.8594,82.5469 Q887.7969,82.5469 888.4531,82.2969 Q888.8438,82.1406 889.2656,81.7031 Q889.5313,81.4375 889.6719,81.3594 Q889.8281,81.2813 890.0313,81.2813 Q890.3594,81.2813 890.6094,81.5469 Q890.875,81.7969 890.875,82.1406 Q890.875,82.4844 890.5313,82.8906 Q890.0313,83.4688 889.2344,83.7969 Q888.1563,84.25 886.8594,84.25 Q885.3438,84.25 884.1406,83.625 Q883.1563,83.125 882.4688,82.0625 Q881.7813,80.9844 881.7813,79.7031 L881.7813,78.5469 Q881.7813,77.2188 882.3906,76.0781 Q883.0156,74.9219 884.1094,74.3125 Q885.2031,73.6875 886.4375,73.6875 Q887.1719,73.6875 887.8125,73.8594 Q888.4688,74.0156 889.0156,74.375 Z " fill="#000000"/><text fill="#000000" font-family="sans-serif" font-size="14" lengthAdjust="spacing" textLength="129" x="906.75" y="84.2969">AssignSkillController</text><line style="stroke:#181818;stroke-width:0.5;" x1="817.5" x2="1092.5" y1="94.5" y2="94.5"/><line style="stroke:#181818;stroke-width:0.5;" x1="817.5" x2="1092.5" y1="102.5" y2="102.5"/><text fill="#000000" font-family="sans-serif" font-size="14" lengthAdjust="spacing" textLength="147" x="822.5" y="121.6074">+AssignSkillController()</text><text fill="#000000" font-family="sans-serif" font-size="14" lengthAdjust="spacing" textLength="119" x="822.5" y="140.2285">+assignSkill(name)</text><text fill="#000000" font-family="sans-serif" font-size="14" lengthAdjust="spacing" textLength="265" x="822.5" y="158.8496">+AssignSkillCollaborator(collaborator,skill)</text><text fill="#000000" font-family="sans-serif" font-size="14" lengthAdjust="spacing" textLength="173" x="822.5" y="177.4707">+getCollaboratorList(name)</text><text fill="#000000" font-family="sans-serif" font-size="14" lengthAdjust="spacing" textLength="111" x="822.5" y="196.0918">+skillListAdd(skill)</text><text fill="#000000" font-family="sans-serif" font-size="14" lengthAdjust="spacing" textLength="166" x="822.5" y="214.7129">+getSkillList(skillListName)</text></g><!--class AssignSkillUI--><g id="elem_AssignSkillUI"><rect codeLine="27" fill="#F1F1F1" height="48" id="AssignSkillUI" rx="2.5" ry="2.5" style="stroke:#181818;stroke-width:0.5;" width="111" x="670.5" y="118.5"/><ellipse cx="685.5" cy="134.5" fill="#ADD1B2" rx="11" ry="11" style="stroke:#181818;stroke-width:1.0;"/><path d="M688.2656,130.375 Q688.4219,130.1563 688.6094,130.0469 Q688.7969,129.9375 689.0156,129.9375 Q689.3906,129.9375 689.625,130.2031 Q689.8594,130.4531 689.8594,131.0625 L689.8594,132.5156 Q689.8594,133.125 689.625,133.3906 Q689.3906,133.6563 689.0156,133.6563 Q688.6719,133.6563 688.4688,133.4531 Q688.2656,133.2656 688.1563,132.75 Q688.1094,132.3906 687.9219,132.2031 Q687.5938,131.8281 686.9844,131.6094 Q686.375,131.3906 685.75,131.3906 Q684.9844,131.3906 684.3438,131.7188 Q683.7188,132.0469 683.2188,132.7969 Q682.7344,133.5469 682.7344,134.5781 L682.7344,135.6719 Q682.7344,136.9063 683.625,137.7344 Q684.5156,138.5469 686.1094,138.5469 Q687.0469,138.5469 687.7031,138.2969 Q688.0938,138.1406 688.5156,137.7031 Q688.7813,137.4375 688.9219,137.3594 Q689.0781,137.2813 689.2813,137.2813 Q689.6094,137.2813 689.8594,137.5469 Q690.125,137.7969 690.125,138.1406 Q690.125,138.4844 689.7813,138.8906 Q689.2813,139.4688 688.4844,139.7969 Q687.4063,140.25 686.1094,140.25 Q684.5938,140.25 683.3906,139.625 Q682.4063,139.125 681.7188,138.0625 Q681.0313,136.9844 681.0313,135.7031 L681.0313,134.5469 Q681.0313,133.2188 681.6406,132.0781 Q682.2656,130.9219 683.3594,130.3125 Q684.4531,129.6875 685.6875,129.6875 Q686.4219,129.6875 687.0625,129.8594 Q687.7188,130.0156 688.2656,130.375 Z " fill="#000000"/><text fill="#000000" font-family="sans-serif" font-size="14" lengthAdjust="spacing" textLength="79" x="699.5" y="140.2969">AssignSkillUI</text><line style="stroke:#181818;stroke-width:0.5;" x1="671.5" x2="780.5" y1="150.5" y2="150.5"/><line style="stroke:#181818;stroke-width:0.5;" x1="671.5" x2="780.5" y1="158.5" y2="158.5"/></g><!--class Collaborator--><g id="elem_Collaborator"><rect codeLine="30" fill="#F1F1F1" height="271.4531" id="Collaborator" rx="2.5" ry="2.5" style="stroke:#181818;stroke-width:0.5;" width="628" x="7" y="7"/><ellipse cx="277.75" cy="23" fill="#ADD1B2" rx="11" ry="11" style="stroke:#181818;stroke-width:1.0;"/><path d="M280.5156,18.875 Q280.6719,18.6563 280.8594,18.5469 Q281.0469,18.4375 281.2656,18.4375 Q281.6406,18.4375 281.875,18.7031 Q282.1094,18.9531 282.1094,19.5625 L282.1094,21.0156 Q282.1094,21.625 281.875,21.8906 Q281.6406,22.1563 281.2656,22.1563 Q280.9219,22.1563 280.7188,21.9531 Q280.5156,21.7656 280.4063,21.25 Q280.3594,20.8906 280.1719,20.7031 Q279.8438,20.3281 279.2344,20.1094 Q278.625,19.8906 278,19.8906 Q277.2344,19.8906 276.5938,20.2188 Q275.9688,20.5469 275.4688,21.2969 Q274.9844,22.0469 274.9844,23.0781 L274.9844,24.1719 Q274.9844,25.4063 275.875,26.2344 Q276.7656,27.0469 278.3594,27.0469 Q279.2969,27.0469 279.9531,26.7969 Q280.3438,26.6406 280.7656,26.2031 Q281.0313,25.9375 281.1719,25.8594 Q281.3281,25.7813 281.5313,25.7813 Q281.8594,25.7813 282.1094,26.0469 Q282.375,26.2969 282.375,26.6406 Q282.375,26.9844 282.0313,27.3906 Q281.5313,27.9688 280.7344,28.2969 Q279.6563,28.75 278.3594,28.75 Q276.8438,28.75 275.6406,28.125 Q274.6563,27.625 273.9688,26.5625 Q273.2813,25.4844 273.2813,24.2031 L273.2813,23.0469 Q273.2813,21.7188 273.8906,20.5781 Q274.5156,19.4219 275.6094,18.8125 Q276.7031,18.1875 277.9375,18.1875 Q278.6719,18.1875 279.3125,18.3594 Q279.9688,18.5156 280.5156,18.875 Z " fill="#000000"/><text fill="#000000" font-family="sans-serif" font-size="14" lengthAdjust="spacing" textLength="78" x="298.25" y="28.7969">Collaborator</text><line style="stroke:#181818;stroke-width:0.5;" x1="8" x2="634" y1="39" y2="39"/><text fill="#000000" font-family="sans-serif" font-size="14" lengthAdjust="spacing" textLength="81" x="13" y="58.1074">-String name</text><text fill="#000000" font-family="sans-serif" font-size="14" lengthAdjust="spacing" textLength="95" x="13" y="76.7285">-List&lt;Skill&gt; skill</text><text fill="#000000" font-family="sans-serif" font-size="14" lengthAdjust="spacing" textLength="50" x="13" y="95.3496">-Job job</text><text fill="#000000" font-family="sans-serif" font-size="14" lengthAdjust="spacing" textLength="111" x="13" y="113.9707">-Date dateOfBirth</text><text fill="#000000" font-family="sans-serif" font-size="14" lengthAdjust="spacing" textLength="132" x="13" y="132.5918">-Date admissionDate</text><text fill="#000000" font-family="sans-serif" font-size="14" lengthAdjust="spacing" textLength="112" x="13" y="151.2129">-Address address</text><text fill="#000000" font-family="sans-serif" font-size="14" lengthAdjust="spacing" textLength="113" x="13" y="169.834">-int phoneNumber</text><text fill="#000000" font-family="sans-serif" font-size="14" lengthAdjust="spacing" textLength="79" x="13" y="188.4551">-String email</text><text fill="#000000" font-family="sans-serif" font-size="14" lengthAdjust="spacing" textLength="38" x="13" y="207.0762">-int cc</text><text fill="#000000" font-family="sans-serif" font-size="14" lengthAdjust="spacing" textLength="101" x="13" y="225.6973">-int cardNumber</text><line style="stroke:#181818;stroke-width:0.5;" x1="8" x2="634" y1="233.2109" y2="233.2109"/><text fill="#000000" font-family="sans-serif" font-size="14" lengthAdjust="spacing" textLength="616" x="13" y="252.3184">+Collaborator(name, dateOfBirth, admissionDate, address, phoneNumber, email, cc, cardNumber)</text><text fill="#000000" font-family="sans-serif" font-size="14" lengthAdjust="spacing" textLength="113" x="13" y="270.9395">+skillListAdd(Skill)</text></g><!--class HumanResourcesManager--><g id="elem_HumanResourcesManager"><rect codeLine="46" fill="#F1F1F1" height="48" id="HumanResourcesManager" rx="2.5" ry="2.5" style="stroke:#181818;stroke-width:0.5;" width="200" x="221" y="394"/><ellipse cx="236" cy="410" fill="#ADD1B2" rx="11" ry="11" style="stroke:#181818;stroke-width:1.0;"/><path d="M238.7656,405.875 Q238.9219,405.6563 239.1094,405.5469 Q239.2969,405.4375 239.5156,405.4375 Q239.8906,405.4375 240.125,405.7031 Q240.3594,405.9531 240.3594,406.5625 L240.3594,408.0156 Q240.3594,408.625 240.125,408.8906 Q239.8906,409.1563 239.5156,409.1563 Q239.1719,409.1563 238.9688,408.9531 Q238.7656,408.7656 238.6563,408.25 Q238.6094,407.8906 238.4219,407.7031 Q238.0938,407.3281 237.4844,407.1094 Q236.875,406.8906 236.25,406.8906 Q235.4844,406.8906 234.8438,407.2188 Q234.2188,407.5469 233.7188,408.2969 Q233.2344,409.0469 233.2344,410.0781 L233.2344,411.1719 Q233.2344,412.4063 234.125,413.2344 Q235.0156,414.0469 236.6094,414.0469 Q237.5469,414.0469 238.2031,413.7969 Q238.5938,413.6406 239.0156,413.2031 Q239.2813,412.9375 239.4219,412.8594 Q239.5781,412.7813 239.7813,412.7813 Q240.1094,412.7813 240.3594,413.0469 Q240.625,413.2969 240.625,413.6406 Q240.625,413.9844 240.2813,414.3906 Q239.7813,414.9688 238.9844,415.2969 Q237.9063,415.75 236.6094,415.75 Q235.0938,415.75 233.8906,415.125 Q232.9063,414.625 232.2188,413.5625 Q231.5313,412.4844 231.5313,411.2031 L231.5313,410.0469 Q231.5313,408.7188 232.1406,407.5781 Q232.7656,406.4219 233.8594,405.8125 Q234.9531,405.1875 236.1875,405.1875 Q236.9219,405.1875 237.5625,405.3594 Q238.2188,405.5156 238.7656,405.875 Z " fill="#000000"/><text fill="#000000" font-family="sans-serif" font-size="14" lengthAdjust="spacing" textLength="168" x="250" y="415.7969">HumanResourcesManager</text><line style="stroke:#181818;stroke-width:0.5;" x1="222" x2="420" y1="426" y2="426"/><line style="stroke:#181818;stroke-width:0.5;" x1="222" x2="420" y1="434" y2="434"/></g><!--class Repositories--><g id="elem_Repositories"><rect codeLine="49" fill="#F1F1F1" height="103.8633" id="Repositories" rx="2.5" ry="2.5" style="stroke:#181818;stroke-width:0.5;" width="194" x="1197" y="90.5"/><ellipse cx="1250.25" cy="106.5" fill="#ADD1B2" rx="11" ry="11" style="stroke:#181818;stroke-width:1.0;"/><path d="M1253.0156,102.375 Q1253.1719,102.1563 1253.3594,102.0469 Q1253.5469,101.9375 1253.7656,101.9375 Q1254.1406,101.9375 1254.375,102.2031 Q1254.6094,102.4531 1254.6094,103.0625 L1254.6094,104.5156 Q1254.6094,105.125 1254.375,105.3906 Q1254.1406,105.6563 1253.7656,105.6563 Q1253.4219,105.6563 1253.2188,105.4531 Q1253.0156,105.2656 1252.9063,104.75 Q1252.8594,104.3906 1252.6719,104.2031 Q1252.3438,103.8281 1251.7344,103.6094 Q1251.125,103.3906 1250.5,103.3906 Q1249.7344,103.3906 1249.0938,103.7188 Q1248.4688,104.0469 1247.9688,104.7969 Q1247.4844,105.5469 1247.4844,106.5781 L1247.4844,107.6719 Q1247.4844,108.9063 1248.375,109.7344 Q1249.2656,110.5469 1250.8594,110.5469 Q1251.7969,110.5469 1252.4531,110.2969 Q1252.8438,110.1406 1253.2656,109.7031 Q1253.5313,109.4375 1253.6719,109.3594 Q1253.8281,109.2813 1254.0313,109.2813 Q1254.3594,109.2813 1254.6094,109.5469 Q1254.875,109.7969 1254.875,110.1406 Q1254.875,110.4844 1254.5313,110.8906 Q1254.0313,111.4688 1253.2344,111.7969 Q1252.1563,112.25 1250.8594,112.25 Q1249.3438,112.25 1248.1406,111.625 Q1247.1563,111.125 1246.4688,110.0625 Q1245.7813,108.9844 1245.7813,107.7031 L1245.7813,106.5469 Q1245.7813,105.2188 1246.3906,104.0781 Q1247.0156,102.9219 1248.1094,102.3125 Q1249.2031,101.6875 1250.4375,101.6875 Q1251.1719,101.6875 1251.8125,101.8594 Q1252.4688,102.0156 1253.0156,102.375 Z " fill="#000000"/><text fill="#000000" font-family="sans-serif" font-size="14" lengthAdjust="spacing" textLength="79" x="1270.75" y="112.2969">Repositories</text><line style="stroke:#181818;stroke-width:0.5;" x1="1198" x2="1390" y1="122.5" y2="122.5"/><line style="stroke:#181818;stroke-width:0.5;" x1="1198" x2="1390" y1="130.5" y2="130.5"/><text fill="#000000" font-family="sans-serif" font-size="14" lengthAdjust="spacing" textLength="94" x="1203" y="149.6074">-Repositories()</text><text fill="#000000" font-family="sans-serif" font-size="14" lengthAdjust="spacing" textLength="182" x="1203" y="168.2285">+getInstance() : Repositories</text><text fill="#000000" font-family="sans-serif" font-size="14" lengthAdjust="spacing" textLength="131" x="1203" y="186.8496">+getSkillRepository()</text></g><!--class SkillRepository--><g id="elem_SkillRepository"><rect codeLine="56" fill="#F1F1F1" height="122.4844" id="SkillRepository" rx="2.5" ry="2.5" style="stroke:#181818;stroke-width:0.5;" width="175" x="933.5" y="357"/><ellipse cx="971" cy="373" fill="#ADD1B2" rx="11" ry="11" style="stroke:#181818;stroke-width:1.0;"/><path d="M973.7656,368.875 Q973.9219,368.6563 974.1094,368.5469 Q974.2969,368.4375 974.5156,368.4375 Q974.8906,368.4375 975.125,368.7031 Q975.3594,368.9531 975.3594,369.5625 L975.3594,371.0156 Q975.3594,371.625 975.125,371.8906 Q974.8906,372.1563 974.5156,372.1563 Q974.1719,372.1563 973.9688,371.9531 Q973.7656,371.7656 973.6563,371.25 Q973.6094,370.8906 973.4219,370.7031 Q973.0938,370.3281 972.4844,370.1094 Q971.875,369.8906 971.25,369.8906 Q970.4844,369.8906 969.8438,370.2188 Q969.2188,370.5469 968.7188,371.2969 Q968.2344,372.0469 968.2344,373.0781 L968.2344,374.1719 Q968.2344,375.4063 969.125,376.2344 Q970.0156,377.0469 971.6094,377.0469 Q972.5469,377.0469 973.2031,376.7969 Q973.5938,376.6406 974.0156,376.2031 Q974.2813,375.9375 974.4219,375.8594 Q974.5781,375.7813 974.7813,375.7813 Q975.1094,375.7813 975.3594,376.0469 Q975.625,376.2969 975.625,376.6406 Q975.625,376.9844 975.2813,377.3906 Q974.7813,377.9688 973.9844,378.2969 Q972.9063,378.75 971.6094,378.75 Q970.0938,378.75 968.8906,378.125 Q967.9063,377.625 967.2188,376.5625 Q966.5313,375.4844 966.5313,374.2031 L966.5313,373.0469 Q966.5313,371.7188 967.1406,370.5781 Q967.7656,369.4219 968.8594,368.8125 Q969.9531,368.1875 971.1875,368.1875 Q971.9219,368.1875 972.5625,368.3594 Q973.2188,368.5156 973.7656,368.875 Z " fill="#000000"/><text fill="#000000" font-family="sans-serif" font-size="14" lengthAdjust="spacing" textLength="93" x="990" y="378.7969">SkillRepository</text><line style="stroke:#181818;stroke-width:0.5;" x1="934.5" x2="1107.5" y1="389" y2="389"/><text fill="#000000" font-family="sans-serif" font-size="14" lengthAdjust="spacing" textLength="99" x="939.5" y="408.1074">-List &lt;Skill&gt; skill</text><line style="stroke:#181818;stroke-width:0.5;" x1="934.5" x2="1107.5" y1="415.6211" y2="415.6211"/><text fill="#000000" font-family="sans-serif" font-size="14" lengthAdjust="spacing" textLength="114" x="939.5" y="434.7285">-validateSkill(Skill)</text><text fill="#000000" font-family="sans-serif" font-size="14" lengthAdjust="spacing" textLength="108" x="939.5" y="453.3496">-skillListAdd(skill)</text><text fill="#000000" font-family="sans-serif" font-size="14" lengthAdjust="spacing" textLength="163" x="939.5" y="471.9707">-getSkillList(skillListName)</text></g><!--class CollaboratorRepository--><g id="elem_CollaboratorRepository"><rect codeLine="78" fill="#F1F1F1" height="85.2422" id="CollaboratorRepository" rx="2.5" ry="2.5" style="stroke:#181818;stroke-width:0.5;" width="277" x="549.5" y="375.5"/><ellipse cx="610.75" cy="391.5" fill="#ADD1B2" rx="11" ry="11" style="stroke:#181818;stroke-width:1.0;"/><path d="M613.5156,387.375 Q613.6719,387.1563 613.8594,387.0469 Q614.0469,386.9375 614.2656,386.9375 Q614.6406,386.9375 614.875,387.2031 Q615.1094,387.4531 615.1094,388.0625 L615.1094,389.5156 Q615.1094,390.125 614.875,390.3906 Q614.6406,390.6563 614.2656,390.6563 Q613.9219,390.6563 613.7188,390.4531 Q613.5156,390.2656 613.4063,389.75 Q613.3594,389.3906 613.1719,389.2031 Q612.8438,388.8281 612.2344,388.6094 Q611.625,388.3906 611,388.3906 Q610.2344,388.3906 609.5938,388.7188 Q608.9688,389.0469 608.4688,389.7969 Q607.9844,390.5469 607.9844,391.5781 L607.9844,392.6719 Q607.9844,393.9063 608.875,394.7344 Q609.7656,395.5469 611.3594,395.5469 Q612.2969,395.5469 612.9531,395.2969 Q613.3438,395.1406 613.7656,394.7031 Q614.0313,394.4375 614.1719,394.3594 Q614.3281,394.2813 614.5313,394.2813 Q614.8594,394.2813 615.1094,394.5469 Q615.375,394.7969 615.375,395.1406 Q615.375,395.4844 615.0313,395.8906 Q614.5313,396.4688 613.7344,396.7969 Q612.6563,397.25 611.3594,397.25 Q609.8438,397.25 608.6406,396.625 Q607.6563,396.125 606.9688,395.0625 Q606.2813,393.9844 606.2813,392.7031 L606.2813,391.5469 Q606.2813,390.2188 606.8906,389.0781 Q607.5156,387.9219 608.6094,387.3125 Q609.7031,386.6875 610.9375,386.6875 Q611.6719,386.6875 612.3125,386.8594 Q612.9688,387.0156 613.5156,387.375 Z " fill="#000000"/><text fill="#000000" font-family="sans-serif" font-size="14" lengthAdjust="spacing" textLength="146" x="631.25" y="397.2969">CollaboratorRepository</text><line style="stroke:#181818;stroke-width:0.5;" x1="550.5" x2="825.5" y1="407.5" y2="407.5"/><line style="stroke:#181818;stroke-width:0.5;" x1="550.5" x2="825.5" y1="415.5" y2="415.5"/><text fill="#000000" font-family="sans-serif" font-size="14" lengthAdjust="spacing" textLength="173" x="555.5" y="434.6074">+getCollaboratorList(name)</text><text fill="#000000" font-family="sans-serif" font-size="14" lengthAdjust="spacing" textLength="265" x="555.5" y="453.2285">+AssignSkillCollaborator(collaborator,skill)</text></g><!--link AssignSkillController to Repositories--><g id="link_AssignSkillController_Repositories"><path codeLine="64" d="M1093.86,142.5 C1128.42,142.5 1158.74,142.5 1190.8,142.5 " fill="none" id="AssignSkillController-to-Repositories" style="stroke:#181818;stroke-width:1.0;stroke-dasharray:7.0,7.0;"/><polygon fill="#181818" points="1196.8,142.5,1187.8,138.5,1191.8,142.5,1187.8,146.5,1196.8,142.5" style="stroke:#181818;stroke-width:1.0;"/><text fill="#000000" font-family="sans-serif" font-size="13" lengthAdjust="spacing" textLength="67" x="1111.75" y="135.5283">repositories</text></g><!--link AssignSkillUI to AssignSkillController--><g id="link_AssignSkillUI_AssignSkillController"><path codeLine="65" d="M781.88,142.5 C793.52,142.5 802.33,142.5 802.33,142.5 C802.33,142.5 802.04,142.5 810.33,142.5 " fill="none" id="AssignSkillUI-to-AssignSkillController" style="stroke:#181818;stroke-width:1.0;stroke-dasharray:7.0,7.0;"/><polygon fill="#181818" points="816.33,142.5,807.33,138.5,811.33,142.5,807.33,146.5,816.33,142.5" style="stroke:#181818;stroke-width:1.0;"/></g><!--link Repositories to Repositories--><g id="link_Repositories_Repositories"><path codeLine="66" d="M1391.28,111.02 C1411.48,114.34 1426,124.83 1426,142.5 C1426,160.17 1417.4006,169.6869 1397.2006,173.0069 " fill="none" id="Repositories-to-Repositories" style="stroke:#181818;stroke-width:1.0;"/><polygon fill="#181818" points="1391.28,173.98,1400.8096,176.4674,1396.2138,173.1691,1399.5121,168.5733,1391.28,173.98" style="stroke:#181818;stroke-width:1.0;"/><text fill="#000000" font-family="sans-serif" font-size="13" lengthAdjust="spacing" textLength="49" x="1432" y="148.0283">instance</text></g><!--link Repositories to CollaboratorRepository--><g id="link_Repositories_CollaboratorRepository"><path codeLine="67" d="M1224.55,194.54 C1172.79,232.59 1111,278 1111,278 C1111,278 944.6802,332.6572 820.0402,373.6072 " fill="none" id="Repositories-to-CollaboratorRepository" style="stroke:#181818;stroke-width:1.0;"/><polygon fill="#181818" points="814.34,375.48,824.1389,376.471,819.0902,373.9193,821.6418,368.8707,814.34,375.48" style="stroke:#181818;stroke-width:1.0;"/><text fill="#000000" font-family="sans-serif" font-size="13" lengthAdjust="spacing" textLength="131" x="1020" y="323.0283">CollaboratorRepository</text><text fill="#000000" font-family="sans-serif" font-size="13" lengthAdjust="spacing" textLength="7" x="826.9176" y="364.3809">1</text></g><!--link Repositories to SkillRepository--><g id="link_Repositories_SkillRepository"><path codeLine="68" d="M1273.67,194.61 C1252.07,248.91 1221,327 1221,327 C1221,327 1167.9316,350.8781 1114.1916,375.0581 " fill="none" id="Repositories-to-SkillRepository" style="stroke:#181818;stroke-width:1.0;"/><polygon fill="#181818" points="1108.72,377.52,1118.5688,377.4749,1113.2797,375.4684,1115.2862,370.1793,1108.72,377.52" style="stroke:#181818;stroke-width:1.0;"/><text fill="#000000" font-family="sans-serif" font-size="13" lengthAdjust="spacing" textLength="87" x="1228" y="323.0283">SkillRepository</text><text fill="#000000" font-family="sans-serif" font-size="13" lengthAdjust="spacing" textLength="7" x="1116.5592" y="370.3308">1</text></g><!--link SkillRepository to Skill--><g id="link_SkillRepository_Skill"><path codeLine="69" d="M957.45,479.24 C930.85,504.45 906,528 906,528 C906,528 818.9937,559.8956 753.6637,583.8356 " fill="none" id="SkillRepository-to-Skill" style="stroke:#181818;stroke-width:1.0;"/><polygon fill="#181818" points="748.03,585.9,757.8568,586.5591,752.7247,584.1796,755.1042,579.0476,748.03,585.9" style="stroke:#181818;stroke-width:1.0;"/><text fill="#000000" font-family="sans-serif" font-size="13" lengthAdjust="spacing" textLength="23" x="926" y="524.0283">skill</text><text fill="#000000" font-family="sans-serif" font-size="13" lengthAdjust="spacing" textLength="7" x="942.6973" y="501.3208">1</text><text fill="#000000" font-family="sans-serif" font-size="13" lengthAdjust="spacing" textLength="5" x="756.0165" y="578.9813">*</text></g><!--reverse link Collaborator to HumanResourcesManager--><g id="link_Collaborator_HumanResourcesManager"><path codeLine="70" d="M321,296.25 C321,340.74 321,367.52 321,393.73 " fill="none" id="Collaborator-backto-HumanResourcesManager" style="stroke:#181818;stroke-width:1.0;"/><polygon fill="none" points="321,278.25,315,296.25,327,296.25,321,278.25" style="stroke:#181818;stroke-width:1.0;"/></g><!--link AssignSkillController to Skill--><g id="link_AssignSkillController_Skill"><path codeLine="71" d="M928.84,222.58 C896.02,321.77 844,479 844,479 C844,479 796.5753,517.7724 752.0253,554.1924 " fill="none" id="AssignSkillController-to-Skill" style="stroke:#181818;stroke-width:1.0;stroke-dasharray:7.0,7.0;"/><polygon fill="#181818" points="747.38,557.99,756.8796,555.3905,751.2511,554.8254,751.8162,549.1968,747.38,557.99" style="stroke:#181818;stroke-width:1.0;"/></g><!--link AssignSkillController to SkillRepository--><g id="link_AssignSkillController_SkillRepository"><path codeLine="72" d="M974.09,222.61 C984.41,265.36 995.5318,311.4876 1005.0518,350.9176 " fill="none" id="AssignSkillController-to-SkillRepository" style="stroke:#181818;stroke-width:1.0;stroke-dasharray:7.0,7.0;"/><polygon fill="#181818" points="1006.46,356.75,1008.236,347.0626,1005.2865,351.8897,1000.4595,348.9402,1006.46,356.75" style="stroke:#181818;stroke-width:1.0;"/></g><!--reverse link HumanResourcesManager to Skill--><g id="link_HumanResourcesManager_Skill"><path codeLine="74" d="M342.9565,446.8304 C368.1965,478.8204 407,528 407,528 C407,528 539.9,566.72 621.92,590.62 " fill="none" id="HumanResourcesManager-backto-Skill" style="stroke:#181818;stroke-width:1.0;"/><polygon fill="#181818" points="339.24,442.12,341.6745,451.6632,342.3371,446.0453,347.955,446.7079,339.24,442.12" style="stroke:#181818;stroke-width:1.0;"/><text fill="#000000" font-family="sans-serif" font-size="13" lengthAdjust="spacing" textLength="56" x="408" y="524.0283">AssignBy</text></g><!--link Collaborator to Skill--><g id="link_Collaborator_Skill"><path codeLine="75" d="M396.38,278.03 C448.69,371.37 509,479 509,479 C509,479 566.6338,521.5653 617.1338,558.8653 " fill="none" id="Collaborator-to-Skill" style="stroke:#181818;stroke-width:1.0;"/><polygon fill="#181818" points="621.96,562.43,617.0971,553.8654,617.9381,559.4594,612.3441,560.3004,621.96,562.43" style="stroke:#181818;stroke-width:1.0;"/><text fill="#000000" font-family="sans-serif" font-size="13" lengthAdjust="spacing" textLength="21" x="510" y="423.5283">has</text><text fill="#000000" font-family="sans-serif" font-size="13" lengthAdjust="spacing" textLength="5" x="395.5934" y="300.3804">*</text><text fill="#000000" font-family="sans-serif" font-size="13" lengthAdjust="spacing" textLength="5" x="608.9723" y="552.6509">*</text></g><!--link Collaborator to CollaboratorRepository--><g id="link_Collaborator_CollaboratorRepository"><path codeLine="76" d="M501.54,278.05 C548.99,313.41 591.8995,345.374 627.1795,371.674 " fill="none" id="Collaborator-to-CollaboratorRepository" style="stroke:#181818;stroke-width:1.0;stroke-dasharray:7.0,7.0;"/><polygon fill="#181818" points="631.99,375.26,627.165,366.674,627.9813,372.2716,622.3836,373.0879,631.99,375.26" style="stroke:#181818;stroke-width:1.0;"/><text fill="#000000" font-family="sans-serif" font-size="13" lengthAdjust="spacing" textLength="129" x="560" y="323.0283">collaboratorRepository</text></g><!--SRC=[bLHDZzCm4BtxLrXxQKeJ1DUgMgaB1ufWaRRY1qoTQMBgs97jWWhiVyVEHsjd7H0zjFMyDpFFpsClp8dB5ZGqj55IiLgh1gdLPoGtf0LsWWhtzYAGQcGMP2L2WgcXL3-uhEWHX0aHmINQIukqLUBY5sIH09MsYWHPJ80nMsirFvmjxfYIU_uJwHj25WAFbbf5DQzgIqlkvN0b2UbowFx4XQ2_27MVWkvT1ITAGeD3v3i8NeB5ZfTrtyiEMlMfcUSkoVDORsiChsG7lLFIQYK4QbT_o4d2sLWHRkXGDv4b11oK1gjqne95Ra9j5TgG-OaR6rNio3wwBSjichaVmUnAUvpTvTUTszqL29kEhhumrHVSTCdtlP0-_54Tw3Trw1VldUVK6__b-C2rhOCeb0rt_PNqgpxkTg7HjOV-jmzoQMbRAucFv-Q0EXA33N1nep4M_0TT3Xc39P7dVXjvg2oF1UMZY3nidlSTSzSf3peCfaUdCSpOrT8FvmRa4nfrrWpDPv3kPkdGyoTibU5E6qSpJbeHHRFWS7VIkEl8C5lITKIQdFyLkcI1c0bqlJXUF4sSwVpzAMPdiFZh37ejwKls-ZwsOksUdc1xySmwSh8AYKeKBqhomRu9pn7ltjv5anAuj9u1qaMc7g-d4J9b-Amk-zMGxNBwGuZk8ztyBWgQ7gWvJvrFNUnVUA2Ef2TsutjttFLW_SCbrkVbJxTHWub9hk6ioopjSk9jYaQOhEQVozN_lBtFv0y0]--></g></svg>