<?xml version="1.0" encoding="us-ascii" standalone="no"?><svg xmlns="http://www.w3.org/2000/svg" xmlns:xlink="http://www.w3.org/1999/xlink" contentStyleType="text/css" height="841px" preserveAspectRatio="none" style="width:1429px;height:841px;background:#FFFFFF;" version="1.1" viewBox="0 0 1429 841" width="1429px" zoomAndPan="magnify"><defs/><g><text fill="#000000" font-family="sans-serif" font-size="14" font-weight="bold" lengthAdjust="spacing" textLength="341" x="543.25" y="30.1074">UI Sequence Diagram (SSD) - US04 - Assign Skills</text><rect fill="#FFFFFF" height="606.8301" style="stroke:#181818;stroke-width:1.0;" width="10" x="128" y="133.2422"/><rect fill="#FFFFFF" height="410.123" style="stroke:#181818;stroke-width:1.0;" width="10" x="514" y="156.5332"/><rect fill="#FFFFFF" height="142.125" style="stroke:#181818;stroke-width:1.0;" width="10" x="514" y="597.9473"/><rect fill="#FFFFFF" height="109.543" style="stroke:#181818;stroke-width:1.0;" width="10" x="730" y="187.8242"/><rect fill="#FFFFFF" height="79.543" style="stroke:#181818;stroke-width:1.0;" width="10" x="730" y="359.9492"/><rect fill="#FFFFFF" height="79.543" style="stroke:#181818;stroke-width:1.0;" width="10" x="730" y="629.2383"/><rect fill="none" height="81.873" style="stroke:#000000;stroke-width:1.5;" width="567.5" x="10" y="454.4922"/><line style="stroke:#181818;stroke-width:0.5;stroke-dasharray:5.0,5.0;" x1="133" x2="133" y1="123.2422" y2="758.0723"/><line style="stroke:#181818;stroke-width:0.5;stroke-dasharray:5.0,5.0;" x1="518.5" x2="518.5" y1="123.2422" y2="758.0723"/><line style="stroke:#181818;stroke-width:0.5;stroke-dasharray:5.0,5.0;" x1="734.5" x2="734.5" y1="123.2422" y2="758.0723"/><line style="stroke:#181818;stroke-width:0.5;stroke-dasharray:5.0,5.0;" x1="866.5" x2="866.5" y1="123.2422" y2="758.0723"/><line style="stroke:#181818;stroke-width:0.5;stroke-dasharray:5.0,5.0;" x1="973.5" x2="973.5" y1="123.2422" y2="758.0723"/><line style="stroke:#181818;stroke-width:0.5;stroke-dasharray:5.0,5.0;" x1="1087.5" x2="1087.5" y1="123.2422" y2="758.0723"/><line style="stroke:#181818;stroke-width:0.5;stroke-dasharray:5.0,5.0;" x1="1235.5" x2="1235.5" y1="123.2422" y2="758.0723"/><line style="stroke:#181818;stroke-width:0.5;stroke-dasharray:5.0,5.0;" x1="1375.5" x2="1375.5" y1="123.2422" y2="758.0723"/><text fill="#000000" font-family="sans-serif" font-size="14" lengthAdjust="spacing" textLength="220" x="20" y="119.7285">Human Resources Manager (HRM)</text><ellipse cx="133" cy="53.1211" fill="#E3E3E3" rx="8" ry="8" style="stroke:#181818;stroke-width:0.5;"/><path d="M133,61.1211 L133,88.1211 M120,69.1211 L146,69.1211 M133,88.1211 L120,103.1211 M133,88.1211 L146,103.1211 " fill="none" style="stroke:#181818;stroke-width:0.5;"/><text fill="#000000" font-family="sans-serif" font-size="14" lengthAdjust="spacing" textLength="220" x="20" y="772.1797">Human Resources Manager (HRM)</text><ellipse cx="133" cy="784.1934" fill="#E3E3E3" rx="8" ry="8" style="stroke:#181818;stroke-width:0.5;"/><path d="M133,792.1934 L133,819.1934 M120,800.1934 L146,800.1934 M133,819.1934 L120,834.1934 M133,819.1934 L146,834.1934 " fill="none" style="stroke:#181818;stroke-width:0.5;"/><rect fill="#E3E3E3" height="32.6211" rx="2.5" ry="2.5" style="stroke:#181818;stroke-width:0.5;" width="97" x="470.5" y="89.6211"/><text fill="#000000" font-family="sans-serif" font-size="14" lengthAdjust="spacing" textLength="83" x="477.5" y="111.7285">:AssignSkillUI</text><rect fill="#E3E3E3" height="32.6211" rx="2.5" ry="2.5" style="stroke:#181818;stroke-width:0.5;" width="97" x="470.5" y="757.0723"/><text fill="#000000" font-family="sans-serif" font-size="14" lengthAdjust="spacing" textLength="83" x="477.5" y="779.1797">:AssignSkillUI</text><rect fill="#E3E3E3" height="32.6211" rx="2.5" ry="2.5" style="stroke:#181818;stroke-width:0.5;" width="147" x="661.5" y="89.6211"/><text fill="#000000" font-family="sans-serif" font-size="14" lengthAdjust="spacing" textLength="133" x="668.5" y="111.7285">:AssignSkillController</text><rect fill="#E3E3E3" height="32.6211" rx="2.5" ry="2.5" style="stroke:#181818;stroke-width:0.5;" width="147" x="661.5" y="757.0723"/><text fill="#000000" font-family="sans-serif" font-size="14" lengthAdjust="spacing" textLength="133" x="668.5" y="779.1797">:AssignSkillController</text><rect fill="#E3E3E3" height="32.6211" rx="2.5" ry="2.5" style="stroke:#181818;stroke-width:0.5;" width="97" x="818.5" y="89.6211"/><text fill="#000000" font-family="sans-serif" font-size="14" lengthAdjust="spacing" textLength="83" x="825.5" y="111.7285">:Repositories</text><rect fill="#E3E3E3" height="32.6211" rx="2.5" ry="2.5" style="stroke:#181818;stroke-width:0.5;" width="97" x="818.5" y="757.0723"/><text fill="#000000" font-family="sans-serif" font-size="14" lengthAdjust="spacing" textLength="83" x="825.5" y="779.1797">:Repositories</text><rect fill="#E3E3E3" height="51.2422" rx="2.5" ry="2.5" style="stroke:#181818;stroke-width:0.5;" width="97" x="925.5" y="71"/><text fill="#000000" font-family="sans-serif" font-size="14" lengthAdjust="spacing" textLength="74" x="937" y="93.1074">repositories</text><text fill="#000000" font-family="sans-serif" font-size="14" lengthAdjust="spacing" textLength="83" x="932.5" y="111.7285">:Repositories</text><rect fill="#E3E3E3" height="51.2422" rx="2.5" ry="2.5" style="stroke:#181818;stroke-width:0.5;" width="97" x="925.5" y="757.0723"/><text fill="#000000" font-family="sans-serif" font-size="14" lengthAdjust="spacing" textLength="74" x="937" y="779.1797">repositories</text><text fill="#000000" font-family="sans-serif" font-size="14" lengthAdjust="spacing" textLength="83" x="932.5" y="797.8008">:Repositories</text><rect fill="#E3E3E3" height="51.2422" rx="2.5" ry="2.5" style="stroke:#181818;stroke-width:0.5;" width="111" x="1032.5" y="71"/><text fill="#000000" font-family="sans-serif" font-size="14" lengthAdjust="spacing" textLength="91" x="1042.5" y="93.1074">skillRepository</text><text fill="#000000" font-family="sans-serif" font-size="14" lengthAdjust="spacing" textLength="97" x="1039.5" y="111.7285">:SkillRepository</text><rect fill="#E3E3E3" height="51.2422" rx="2.5" ry="2.5" style="stroke:#181818;stroke-width:0.5;" width="111" x="1032.5" y="757.0723"/><text fill="#000000" font-family="sans-serif" font-size="14" lengthAdjust="spacing" textLength="91" x="1042.5" y="779.1797">skillRepository</text><text fill="#000000" font-family="sans-serif" font-size="14" lengthAdjust="spacing" textLength="97" x="1039.5" y="797.8008">:SkillRepository</text><rect fill="#E3E3E3" height="51.2422" rx="2.5" ry="2.5" style="stroke:#181818;stroke-width:0.5;" width="164" x="1153.5" y="71"/><text fill="#000000" font-family="sans-serif" font-size="14" lengthAdjust="spacing" textLength="143" x="1164" y="93.1074">collaboratorRepository</text><text fill="#000000" font-family="sans-serif" font-size="14" lengthAdjust="spacing" textLength="150" x="1160.5" y="111.7285">:CollaboratorRepository</text><rect fill="#E3E3E3" height="51.2422" rx="2.5" ry="2.5" style="stroke:#181818;stroke-width:0.5;" width="164" x="1153.5" y="757.0723"/><text fill="#000000" font-family="sans-serif" font-size="14" lengthAdjust="spacing" textLength="143" x="1164" y="779.1797">collaboratorRepository</text><text fill="#000000" font-family="sans-serif" font-size="14" lengthAdjust="spacing" textLength="150" x="1160.5" y="797.8008">:CollaboratorRepository</text><rect fill="#E3E3E3" height="51.2422" rx="2.5" ry="2.5" style="stroke:#181818;stroke-width:0.5;" width="96" x="1327.5" y="71"/><text fill="#000000" font-family="sans-serif" font-size="14" lengthAdjust="spacing" textLength="75" x="1338" y="93.1074">collaborator</text><text fill="#000000" font-family="sans-serif" font-size="14" lengthAdjust="spacing" textLength="82" x="1334.5" y="111.7285">:Collaborator</text><rect fill="#E3E3E3" height="51.2422" rx="2.5" ry="2.5" style="stroke:#181818;stroke-width:0.5;" width="96" x="1327.5" y="757.0723"/><text fill="#000000" font-family="sans-serif" font-size="14" lengthAdjust="spacing" textLength="75" x="1338" y="779.1797">collaborator</text><text fill="#000000" font-family="sans-serif" font-size="14" lengthAdjust="spacing" textLength="82" x="1334.5" y="797.8008">:Collaborator</text><rect fill="#FFFFFF" height="606.8301" style="stroke:#181818;stroke-width:1.0;" width="10" x="128" y="133.2422"/><rect fill="#FFFFFF" height="410.123" style="stroke:#181818;stroke-width:1.0;" width="10" x="514" y="156.5332"/><rect fill="#FFFFFF" height="142.125" style="stroke:#181818;stroke-width:1.0;" width="10" x="514" y="597.9473"/><rect fill="#FFFFFF" height="109.543" style="stroke:#181818;stroke-width:1.0;" width="10" x="730" y="187.8242"/><rect fill="#FFFFFF" height="79.543" style="stroke:#181818;stroke-width:1.0;" width="10" x="730" y="359.9492"/><rect fill="#FFFFFF" height="79.543" style="stroke:#181818;stroke-width:1.0;" width="10" x="730" y="629.2383"/><polygon fill="#181818" points="502,152.5332,512,156.5332,502,160.5332,506,156.5332" style="stroke:#181818;stroke-width:1.0;"/><line style="stroke:#181818;stroke-width:1.0;" x1="138" x2="508" y1="156.5332" y2="156.5332"/><text fill="#000000" font-family="sans-serif" font-size="13" font-weight="bold" lengthAdjust="spacing" textLength="7" x="145" y="151.2705">1</text><text fill="#000000" font-family="sans-serif" font-size="13" lengthAdjust="spacing" textLength="282" x="156" y="151.2705">asks to assign one or more skill to a collaborator</text><polygon fill="#181818" points="718,183.8242,728,187.8242,718,191.8242,722,187.8242" style="stroke:#181818;stroke-width:1.0;"/><line style="stroke:#181818;stroke-width:1.0;" x1="524" x2="724" y1="187.8242" y2="187.8242"/><text fill="#000000" font-family="sans-serif" font-size="13" font-weight="bold" lengthAdjust="spacing" textLength="7" x="531" y="182.5615">2</text><text fill="#000000" font-family="sans-serif" font-size="13" lengthAdjust="spacing" textLength="148" x="542" y="182.5615">getCollaboratorList(name)</text><rect fill="none" height="43.252" style="stroke:#000000;stroke-width:1.5;" width="153" x="658.5" y="225.8242"/><path d="M658.5,225.8242 L720.5,225.8242 L720.5,234.8242 L710.5,244.8242 L658.5,244.8242 L658.5,225.8242 " fill="#EEEEEE" style="stroke:#000000;stroke-width:2.0;"/><text fill="#000000" font-family="sans-serif" font-size="13" font-weight="bold" lengthAdjust="spacing" textLength="17" x="671.5" y="241.8525">ref</text><text fill="#000000" font-family="sans-serif" font-size="12" lengthAdjust="spacing" textLength="113" x="678.5" y="261.7734">Get Collaborator List</text><polygon fill="#181818" points="535,293.3672,525,297.3672,535,301.3672,531,297.3672" style="stroke:#181818;stroke-width:1.0;"/><line style="stroke:#181818;stroke-width:1.0;stroke-dasharray:2.0,2.0;" x1="529" x2="734" y1="297.3672" y2="297.3672"/><text fill="#000000" font-family="sans-serif" font-size="13" font-weight="bold" lengthAdjust="spacing" textLength="7" x="541" y="292.1045">3</text><text fill="#000000" font-family="sans-serif" font-size="13" lengthAdjust="spacing" textLength="88" x="552" y="292.1045">collaboratorList</text><polygon fill="#181818" points="502,324.6582,512,328.6582,502,332.6582,506,328.6582" style="stroke:#181818;stroke-width:1.0;"/><line style="stroke:#181818;stroke-width:1.0;stroke-dasharray:2.0,2.0;" x1="138" x2="508" y1="328.6582" y2="328.6582"/><text fill="#000000" font-family="sans-serif" font-size="13" font-weight="bold" lengthAdjust="spacing" textLength="7" x="145" y="323.3955">4</text><text fill="#000000" font-family="sans-serif" font-size="13" lengthAdjust="spacing" textLength="233" x="156" y="323.3955">show collaborator list and asks to select</text><polygon fill="#181818" points="718,355.9492,728,359.9492,718,363.9492,722,359.9492" style="stroke:#181818;stroke-width:1.0;"/><line style="stroke:#181818;stroke-width:1.0;" x1="524" x2="724" y1="359.9492" y2="359.9492"/><text fill="#000000" font-family="sans-serif" font-size="13" font-weight="bold" lengthAdjust="spacing" textLength="7" x="531" y="354.6865">5</text><text fill="#000000" font-family="sans-serif" font-size="13" lengthAdjust="spacing" textLength="72" x="542" y="354.6865">getSkillList()</text><rect fill="none" height="43.252" style="stroke:#000000;stroke-width:1.5;" width="153" x="658.5" y="367.9492"/><path d="M658.5,367.9492 L720.5,367.9492 L720.5,376.9492 L710.5,386.9492 L658.5,386.9492 L658.5,367.9492 " fill="#EEEEEE" style="stroke:#000000;stroke-width:2.0;"/><text fill="#000000" font-family="sans-serif" font-size="13" font-weight="bold" lengthAdjust="spacing" textLength="17" x="671.5" y="383.9775">ref</text><text fill="#000000" font-family="sans-serif" font-size="12" lengthAdjust="spacing" textLength="68" x="701" y="403.8984">Get Skill List</text><polygon fill="#181818" points="535,435.4922,525,439.4922,535,443.4922,531,439.4922" style="stroke:#181818;stroke-width:1.0;"/><line style="stroke:#181818;stroke-width:1.0;" x1="529" x2="734" y1="439.4922" y2="439.4922"/><text fill="#000000" font-family="sans-serif" font-size="13" font-weight="bold" lengthAdjust="spacing" textLength="7" x="541" y="434.2295">6</text><text fill="#000000" font-family="sans-serif" font-size="13" lengthAdjust="spacing" textLength="44" x="552" y="434.2295">skillList</text><path d="M10,454.4922 L83,454.4922 L83,463.7832 L73,473.7832 L10,473.7832 L10,454.4922 " fill="#EEEEEE" style="stroke:#000000;stroke-width:1.5;"/><rect fill="none" height="81.873" style="stroke:#000000;stroke-width:1.5;" width="567.5" x="10" y="454.4922"/><text fill="#000000" font-family="sans-serif" font-size="13" font-weight="bold" lengthAdjust="spacing" textLength="28" x="25" y="469.5205">loop</text><text fill="#000000" font-family="sans-serif" font-size="11" font-weight="bold" lengthAdjust="spacing" textLength="104" x="98" y="468.3623">[skill number size]</text><polygon fill="#181818" points="502,493.0742,512,497.0742,502,501.0742,506,497.0742" style="stroke:#181818;stroke-width:1.0;"/><line style="stroke:#181818;stroke-width:1.0;" x1="138" x2="508" y1="497.0742" y2="497.0742"/><text fill="#000000" font-family="sans-serif" font-size="13" font-weight="bold" lengthAdjust="spacing" textLength="7" x="145" y="491.8115">7</text><text fill="#000000" font-family="sans-serif" font-size="13" lengthAdjust="spacing" textLength="341" x="156" y="491.8115">chose one of collaborator to add skill, from collaboratorlist()</text><polygon fill="#181818" points="502,524.3652,512,528.3652,502,532.3652,506,528.3652" style="stroke:#181818;stroke-width:1.0;"/><line style="stroke:#181818;stroke-width:1.0;" x1="138" x2="508" y1="528.3652" y2="528.3652"/><text fill="#000000" font-family="sans-serif" font-size="13" font-weight="bold" lengthAdjust="spacing" textLength="7" x="145" y="523.1025">8</text><text fill="#000000" font-family="sans-serif" font-size="13" lengthAdjust="spacing" textLength="122" x="156" y="523.1025">types requested data</text><polygon fill="#181818" points="149,562.6563,139,566.6563,149,570.6563,145,566.6563" style="stroke:#181818;stroke-width:1.0;"/><line style="stroke:#181818;stroke-width:1.0;stroke-dasharray:2.0,2.0;" x1="143" x2="518" y1="566.6563" y2="566.6563"/><text fill="#000000" font-family="sans-serif" font-size="13" font-weight="bold" lengthAdjust="spacing" textLength="7" x="155" y="561.3936">9</text><text fill="#000000" font-family="sans-serif" font-size="13" lengthAdjust="spacing" textLength="252" x="166" y="561.3936">displays the data and requests confirmation</text><polygon fill="#181818" points="502,593.9473,512,597.9473,502,601.9473,506,597.9473" style="stroke:#181818;stroke-width:1.0;"/><line style="stroke:#181818;stroke-width:1.0;" x1="138" x2="508" y1="597.9473" y2="597.9473"/><text fill="#000000" font-family="sans-serif" font-size="13" font-weight="bold" lengthAdjust="spacing" textLength="14" x="145" y="592.6846">10</text><text fill="#000000" font-family="sans-serif" font-size="13" lengthAdjust="spacing" textLength="153" x="163" y="592.6846">confirms and submits data</text><polygon fill="#181818" points="718,625.2383,728,629.2383,718,633.2383,722,629.2383" style="stroke:#181818;stroke-width:1.0;"/><line style="stroke:#181818;stroke-width:1.0;" x1="524" x2="724" y1="629.2383" y2="629.2383"/><text fill="#000000" font-family="sans-serif" font-size="13" font-weight="bold" lengthAdjust="spacing" textLength="14" x="531" y="623.9756">11</text><text fill="#000000" font-family="sans-serif" font-size="13" lengthAdjust="spacing" textLength="169" x="549" y="623.9756">assignSkill(collaborator, skill)</text><rect fill="none" height="43.252" style="stroke:#000000;stroke-width:1.5;" width="153" x="658.5" y="637.2383"/><path d="M658.5,637.2383 L720.5,637.2383 L720.5,646.2383 L710.5,656.2383 L658.5,656.2383 L658.5,637.2383 " fill="#EEEEEE" style="stroke:#000000;stroke-width:2.0;"/><text fill="#000000" font-family="sans-serif" font-size="13" font-weight="bold" lengthAdjust="spacing" textLength="17" x="671.5" y="653.2666">ref</text><text fill="#000000" font-family="sans-serif" font-size="12" lengthAdjust="spacing" textLength="135" x="667.5" y="673.1875">Assign Skill Collaborator</text><polygon fill="#181818" points="535,704.7813,525,708.7813,535,712.7813,531,708.7813" style="stroke:#181818;stroke-width:1.0;"/><line style="stroke:#181818;stroke-width:1.0;stroke-dasharray:2.0,2.0;" x1="529" x2="734" y1="708.7813" y2="708.7813"/><text fill="#000000" font-family="sans-serif" font-size="13" font-weight="bold" lengthAdjust="spacing" textLength="14" x="541" y="703.5186">12</text><text fill="#000000" font-family="sans-serif" font-size="13" lengthAdjust="spacing" textLength="67" x="559" y="703.5186">collaborator</text><polygon fill="#181818" points="144,736.0723,134,740.0723,144,744.0723,140,740.0723" style="stroke:#181818;stroke-width:1.0;"/><line style="stroke:#181818;stroke-width:1.0;stroke-dasharray:2.0,2.0;" x1="138" x2="518" y1="740.0723" y2="740.0723"/><text fill="#000000" font-family="sans-serif" font-size="13" font-weight="bold" lengthAdjust="spacing" textLength="14" x="150" y="734.8096">13</text><text fill="#000000" font-family="sans-serif" font-size="13" lengthAdjust="spacing" textLength="158" x="168" y="734.8096">displays operation success</text><!--SRC=[TLJBZjim3BphAuXScW0Re8UUWgB08Wjq0sI18jxSUb5inX5YIwuexpRz-b9K7d8UljYME4CEXnBjZUsqrosqphfovrsB47oFYiuxdIxtkiOY71e4ZsNGjcxo0DhfodqQMyDMDuHA1HCuTBs00l_qQ4k45wFh63ekYfS9J65TVFt6hsSYKriezgPfI2dT1sVxTeDUgIyxKo5idGiRzrVfCZWFezU-rHPMIAxt9HAyQSkLUHY_hjuc8z04_A6ugc1AqsaRO3HBEIJ5UY4nwyNZaBcpmRkcGI-Xy_VLyYfuXPqZm-KO98avBnmA4pl36eOGdo5-srk2Nyldzo62OYaNNWOLmnN15QiXgkIwzSPvpH43yFpkHXAuVCnnXKpnlB1HAXfYFdH0QRY2uyC_CFqHdPzny9uWE7wBnyuYi8MjymWYJ_OWpoSqPs9sYNcOBNh0V3M6l9gbeJ2skiN9fHPnItdSWllWgP3VdnWWnq44AhILKXLUa4bMH4nF0ighR4E0fEAuxzEfo9xnCN2V0n0qZ09jgtCl21i-Fx5VkJHM9lQAf8dAUY1P08QA0A8cGIGn054E9BPJzNHYZDbk2e-TRfphZbQaGmTa_g7AFIntZZ1PjnrAY-PLLO8_mPRlZS5-awJaNE7GyOdryKQWW1LKEkZeWzIH3HJxVjlekqkdgOkzv2p9XSfGr-W3jtk7aaCCEAObBj9kZMzrC7nASzAOzjuO7m4aDDHlMiCiKlkmv3CuitPs77xnQfptvobrRdA1NNkUdcldqvDVcuFXFaV8V5zAWjDmt9ljOzZT6NdKNDUXbnvoIqg-YKbTKN1BiZz6_mS0]--></g></svg>