<?xml version="1.0" encoding="UTF-8" standalone="no"?><svg xmlns="http://www.w3.org/2000/svg" xmlns:xlink="http://www.w3.org/1999/xlink" contentStyleType="text/css" height="630px" preserveAspectRatio="none" style="width:1378px;height:630px;background:#FFFFFF;" version="1.1" viewBox="0 0 1378 630" width="1378px" zoomAndPan="magnify"><defs/><g><!--MD5=[42e1add689e888dd7b55d3ee3f1dd6d7]
class Skill--><g id="elem_Skill"><rect codeLine="11" fill="#F1F1F1" height="100.8281" id="Skill" rx="2.5" ry="2.5" style="stroke:#181818;stroke-width:0.5;" width="126" x="639" y="523"/><ellipse cx="685.25" cy="539" fill="#ADD1B2" rx="11" ry="11" style="stroke:#181818;stroke-width:1.0;"/><path d="M687.25,535.5 Q687.4531,535 687.6875,534.75 Q687.9219,534.5 688.1875,534.5 Q688.6563,534.5 688.9531,534.7813 Q689.25,535.0625 689.25,535.7188 L689.25,537.2813 Q689.25,537.9375 688.9688,538.2188 Q688.6875,538.5 688.25,538.5 Q687.8594,538.5 687.6094,538.3281 Q687.3594,538.1563 687.25,537.7031 Q687.2031,537.3906 687.0313,537.2188 Q686.7188,536.8906 686.1563,536.7031 Q685.5938,536.5 685.0313,536.5 Q684.3281,536.5 683.7344,536.7813 Q683.1563,537.0625 682.7031,537.6875 Q682.25,538.3125 682.25,539.1719 L682.25,540.0938 Q682.25,541.125 683.0938,541.8125 Q683.9375,542.5 685.4375,542.5 Q686.3281,542.5 686.9531,542.2969 Q687.3125,542.1875 687.7188,541.8281 Q687.9844,541.625 688.125,541.5625 Q688.2656,541.5 688.4375,541.5 Q688.7656,541.5 689,541.7656 Q689.25,542.0156 689.25,542.375 Q689.25,542.7188 688.9063,543.125 Q688.4063,543.7188 687.6094,544.0469 Q686.5625,544.5 685.2813,544.5 Q683.7813,544.5 682.5781,543.9063 Q681.6094,543.4375 680.9219,542.4219 Q680.25,541.4063 680.25,540.2031 L680.25,539.1094 Q680.25,537.8594 680.8438,536.7656 Q681.4531,535.6719 682.5,535.0938 Q683.5625,534.5 684.75,534.5 Q685.4688,534.5 686.0938,534.75 Q686.7188,535 687.25,535.5 Z " fill="#000000"/><text fill="#000000" font-family="sans-serif" font-size="14" lengthAdjust="spacing" textLength="25" x="705.75" y="544.7285">Skill</text><line style="stroke:#181818;stroke-width:0.5;" x1="640" x2="764" y1="555" y2="555"/><text fill="#000000" font-family="sans-serif" font-size="14" lengthAdjust="spacing" textLength="81" x="645" y="573.5332">-String name</text><line style="stroke:#181818;stroke-width:0.5;" x1="640" x2="764" y1="580.6094" y2="580.6094"/><text fill="#000000" font-family="sans-serif" font-size="14" lengthAdjust="spacing" textLength="114" x="645" y="599.1426">-validateSkill(Skill)</text><text fill="#000000" font-family="sans-serif" font-size="14" lengthAdjust="spacing" textLength="78" x="645" y="616.752">+Skill(name)</text></g><!--MD5=[23b08ac82fb181243eda838b77bda2fd]
class AssignSkillController--><g id="elem_AssignSkillController"><rect codeLine="18" fill="#F1F1F1" height="83.2188" id="AssignSkillController" rx="2.5" ry="2.5" style="stroke:#181818;stroke-width:0.5;" width="161" x="816.5" y="86.5"/><ellipse cx="831.5" cy="102.5" fill="#ADD1B2" rx="11" ry="11" style="stroke:#181818;stroke-width:1.0;"/><path d="M833.5,99 Q833.7031,98.5 833.9375,98.25 Q834.1719,98 834.4375,98 Q834.9063,98 835.2031,98.2813 Q835.5,98.5625 835.5,99.2188 L835.5,100.7813 Q835.5,101.4375 835.2188,101.7188 Q834.9375,102 834.5,102 Q834.1094,102 833.8594,101.8281 Q833.6094,101.6563 833.5,101.2031 Q833.4531,100.8906 833.2813,100.7188 Q832.9688,100.3906 832.4063,100.2031 Q831.8438,100 831.2813,100 Q830.5781,100 829.9844,100.2813 Q829.4063,100.5625 828.9531,101.1875 Q828.5,101.8125 828.5,102.6719 L828.5,103.5938 Q828.5,104.625 829.3438,105.3125 Q830.1875,106 831.6875,106 Q832.5781,106 833.2031,105.7969 Q833.5625,105.6875 833.9688,105.3281 Q834.2344,105.125 834.375,105.0625 Q834.5156,105 834.6875,105 Q835.0156,105 835.25,105.2656 Q835.5,105.5156 835.5,105.875 Q835.5,106.2188 835.1563,106.625 Q834.6563,107.2188 833.8594,107.5469 Q832.8125,108 831.5313,108 Q830.0313,108 828.8281,107.4063 Q827.8594,106.9375 827.1719,105.9219 Q826.5,104.9063 826.5,103.7031 L826.5,102.6094 Q826.5,101.3594 827.0938,100.2656 Q827.7031,99.1719 828.75,98.5938 Q829.8125,98 831,98 Q831.7188,98 832.3438,98.25 Q832.9688,98.5 833.5,99 Z " fill="#000000"/><text fill="#000000" font-family="sans-serif" font-size="14" lengthAdjust="spacing" textLength="129" x="845.5" y="108.2285">AssignSkillController</text><line style="stroke:#181818;stroke-width:0.5;" x1="817.5" x2="976.5" y1="118.5" y2="118.5"/><line style="stroke:#181818;stroke-width:0.5;" x1="817.5" x2="976.5" y1="126.5" y2="126.5"/><text fill="#000000" font-family="sans-serif" font-size="14" lengthAdjust="spacing" textLength="147" x="822.5" y="145.0332">+AssignSkillController()</text><text fill="#000000" font-family="sans-serif" font-size="14" lengthAdjust="spacing" textLength="119" x="822.5" y="162.6426">+assignSkill(name)</text></g><!--MD5=[7dabedaf7e4be9b2cc1970e32a4dae8f]
class AssignSkillUI--><g id="elem_AssignSkillUI"><rect codeLine="24" fill="#F1F1F1" height="48" id="AssignSkillUI" rx="2.5" ry="2.5" style="stroke:#181818;stroke-width:0.5;" width="111" x="670.5" y="104"/><ellipse cx="685.5" cy="120" fill="#ADD1B2" rx="11" ry="11" style="stroke:#181818;stroke-width:1.0;"/><path d="M687.5,116.5 Q687.7031,116 687.9375,115.75 Q688.1719,115.5 688.4375,115.5 Q688.9063,115.5 689.2031,115.7813 Q689.5,116.0625 689.5,116.7188 L689.5,118.2813 Q689.5,118.9375 689.2188,119.2188 Q688.9375,119.5 688.5,119.5 Q688.1094,119.5 687.8594,119.3281 Q687.6094,119.1563 687.5,118.7031 Q687.4531,118.3906 687.2813,118.2188 Q686.9688,117.8906 686.4063,117.7031 Q685.8438,117.5 685.2813,117.5 Q684.5781,117.5 683.9844,117.7813 Q683.4063,118.0625 682.9531,118.6875 Q682.5,119.3125 682.5,120.1719 L682.5,121.0938 Q682.5,122.125 683.3438,122.8125 Q684.1875,123.5 685.6875,123.5 Q686.5781,123.5 687.2031,123.2969 Q687.5625,123.1875 687.9688,122.8281 Q688.2344,122.625 688.375,122.5625 Q688.5156,122.5 688.6875,122.5 Q689.0156,122.5 689.25,122.7656 Q689.5,123.0156 689.5,123.375 Q689.5,123.7188 689.1563,124.125 Q688.6563,124.7188 687.8594,125.0469 Q686.8125,125.5 685.5313,125.5 Q684.0313,125.5 682.8281,124.9063 Q681.8594,124.4375 681.1719,123.4219 Q680.5,122.4063 680.5,121.2031 L680.5,120.1094 Q680.5,118.8594 681.0938,117.7656 Q681.7031,116.6719 682.75,116.0938 Q683.8125,115.5 685,115.5 Q685.7188,115.5 686.3438,115.75 Q686.9688,116 687.5,116.5 Z " fill="#000000"/><text fill="#000000" font-family="sans-serif" font-size="14" lengthAdjust="spacing" textLength="79" x="699.5" y="125.7285">AssignSkillUI</text><line style="stroke:#181818;stroke-width:0.5;" x1="671.5" x2="780.5" y1="136" y2="136"/><line style="stroke:#181818;stroke-width:0.5;" x1="671.5" x2="780.5" y1="144" y2="144"/></g><!--MD5=[f483d6e5de34a60207b28a5563be5e8b]
class Collaborator--><g id="elem_Collaborator"><rect codeLine="27" fill="#F1F1F1" height="241.7031" id="Collaborator" rx="2.5" ry="2.5" style="stroke:#181818;stroke-width:0.5;" width="628" x="7" y="7"/><ellipse cx="277.75" cy="23" fill="#ADD1B2" rx="11" ry="11" style="stroke:#181818;stroke-width:1.0;"/><path d="M279.75,19.5 Q279.9531,19 280.1875,18.75 Q280.4219,18.5 280.6875,18.5 Q281.1563,18.5 281.4531,18.7813 Q281.75,19.0625 281.75,19.7188 L281.75,21.2813 Q281.75,21.9375 281.4688,22.2188 Q281.1875,22.5 280.75,22.5 Q280.3594,22.5 280.1094,22.3281 Q279.8594,22.1563 279.75,21.7031 Q279.7031,21.3906 279.5313,21.2188 Q279.2188,20.8906 278.6563,20.7031 Q278.0938,20.5 277.5313,20.5 Q276.8281,20.5 276.2344,20.7813 Q275.6563,21.0625 275.2031,21.6875 Q274.75,22.3125 274.75,23.1719 L274.75,24.0938 Q274.75,25.125 275.5938,25.8125 Q276.4375,26.5 277.9375,26.5 Q278.8281,26.5 279.4531,26.2969 Q279.8125,26.1875 280.2188,25.8281 Q280.4844,25.625 280.625,25.5625 Q280.7656,25.5 280.9375,25.5 Q281.2656,25.5 281.5,25.7656 Q281.75,26.0156 281.75,26.375 Q281.75,26.7188 281.4063,27.125 Q280.9063,27.7188 280.1094,28.0469 Q279.0625,28.5 277.7813,28.5 Q276.2813,28.5 275.0781,27.9063 Q274.1094,27.4375 273.4219,26.4219 Q272.75,25.4063 272.75,24.2031 L272.75,23.1094 Q272.75,21.8594 273.3438,20.7656 Q273.9531,19.6719 275,19.0938 Q276.0625,18.5 277.25,18.5 Q277.9688,18.5 278.5938,18.75 Q279.2188,19 279.75,19.5 Z " fill="#000000"/><text fill="#000000" font-family="sans-serif" font-size="14" lengthAdjust="spacing" textLength="78" x="298.25" y="28.7285">Collaborator</text><line style="stroke:#181818;stroke-width:0.5;" x1="8" x2="634" y1="39" y2="39"/><text fill="#000000" font-family="sans-serif" font-size="14" lengthAdjust="spacing" textLength="81" x="13" y="57.5332">-String name</text><text fill="#000000" font-family="sans-serif" font-size="14" lengthAdjust="spacing" textLength="95" x="13" y="75.1426">-List&lt;Skill&gt; skill</text><text fill="#000000" font-family="sans-serif" font-size="14" lengthAdjust="spacing" textLength="50" x="13" y="92.752">-Job job</text><text fill="#000000" font-family="sans-serif" font-size="14" lengthAdjust="spacing" textLength="111" x="13" y="110.3613">-Date dateOfBirth</text><text fill="#000000" font-family="sans-serif" font-size="14" lengthAdjust="spacing" textLength="132" x="13" y="127.9707">-Date admissionDate</text><text fill="#000000" font-family="sans-serif" font-size="14" lengthAdjust="spacing" textLength="112" x="13" y="145.5801">-Address address</text><text fill="#000000" font-family="sans-serif" font-size="14" lengthAdjust="spacing" textLength="113" x="13" y="163.1895">-int phoneNumber</text><text fill="#000000" font-family="sans-serif" font-size="14" lengthAdjust="spacing" textLength="79" x="13" y="180.7988">-String email</text><text fill="#000000" font-family="sans-serif" font-size="14" lengthAdjust="spacing" textLength="38" x="13" y="198.4082">-int cc</text><text fill="#000000" font-family="sans-serif" font-size="14" lengthAdjust="spacing" textLength="101" x="13" y="216.0176">-int cardNumber</text><line style="stroke:#181818;stroke-width:0.5;" x1="8" x2="634" y1="223.0938" y2="223.0938"/><text fill="#000000" font-family="sans-serif" font-size="14" lengthAdjust="spacing" textLength="616" x="13" y="241.627">+Collaborator(name, dateOfBirth, admissionDate, address, phoneNumber, email, cc, cardNumber)</text></g><!--MD5=[17e00d5ea56ecd111f381cd1084c4da3]
class HumanResourcesManager--><g id="elem_HumanResourcesManager"><rect codeLine="42" fill="#F1F1F1" height="48" id="HumanResourcesManager" rx="2.5" ry="2.5" style="stroke:#181818;stroke-width:0.5;" width="200" x="341" y="362"/><ellipse cx="356" cy="378" fill="#ADD1B2" rx="11" ry="11" style="stroke:#181818;stroke-width:1.0;"/><path d="M358,374.5 Q358.2031,374 358.4375,373.75 Q358.6719,373.5 358.9375,373.5 Q359.4063,373.5 359.7031,373.7813 Q360,374.0625 360,374.7188 L360,376.2813 Q360,376.9375 359.7188,377.2188 Q359.4375,377.5 359,377.5 Q358.6094,377.5 358.3594,377.3281 Q358.1094,377.1563 358,376.7031 Q357.9531,376.3906 357.7813,376.2188 Q357.4688,375.8906 356.9063,375.7031 Q356.3438,375.5 355.7813,375.5 Q355.0781,375.5 354.4844,375.7813 Q353.9063,376.0625 353.4531,376.6875 Q353,377.3125 353,378.1719 L353,379.0938 Q353,380.125 353.8438,380.8125 Q354.6875,381.5 356.1875,381.5 Q357.0781,381.5 357.7031,381.2969 Q358.0625,381.1875 358.4688,380.8281 Q358.7344,380.625 358.875,380.5625 Q359.0156,380.5 359.1875,380.5 Q359.5156,380.5 359.75,380.7656 Q360,381.0156 360,381.375 Q360,381.7188 359.6563,382.125 Q359.1563,382.7188 358.3594,383.0469 Q357.3125,383.5 356.0313,383.5 Q354.5313,383.5 353.3281,382.9063 Q352.3594,382.4375 351.6719,381.4219 Q351,380.4063 351,379.2031 L351,378.1094 Q351,376.8594 351.5938,375.7656 Q352.2031,374.6719 353.25,374.0938 Q354.3125,373.5 355.5,373.5 Q356.2188,373.5 356.8438,373.75 Q357.4688,374 358,374.5 Z " fill="#000000"/><text fill="#000000" font-family="sans-serif" font-size="14" lengthAdjust="spacing" textLength="168" x="370" y="383.7285">HumanResourcesManager</text><line style="stroke:#181818;stroke-width:0.5;" x1="342" x2="540" y1="394" y2="394"/><line style="stroke:#181818;stroke-width:0.5;" x1="342" x2="540" y1="402" y2="402"/></g><!--MD5=[35ae6afabc28cfceb76ccc01ee55d1fe]
class Repositories--><g id="elem_Repositories"><rect codeLine="45" fill="#F1F1F1" height="100.8281" id="Repositories" rx="2.5" ry="2.5" style="stroke:#181818;stroke-width:0.5;" width="194" x="1081" y="77.5"/><ellipse cx="1134.25" cy="93.5" fill="#ADD1B2" rx="11" ry="11" style="stroke:#181818;stroke-width:1.0;"/><path d="M1136.25,90 Q1136.4531,89.5 1136.6875,89.25 Q1136.9219,89 1137.1875,89 Q1137.6563,89 1137.9531,89.2813 Q1138.25,89.5625 1138.25,90.2188 L1138.25,91.7813 Q1138.25,92.4375 1137.9688,92.7188 Q1137.6875,93 1137.25,93 Q1136.8594,93 1136.6094,92.8281 Q1136.3594,92.6563 1136.25,92.2031 Q1136.2031,91.8906 1136.0313,91.7188 Q1135.7188,91.3906 1135.1563,91.2031 Q1134.5938,91 1134.0313,91 Q1133.3281,91 1132.7344,91.2813 Q1132.1563,91.5625 1131.7031,92.1875 Q1131.25,92.8125 1131.25,93.6719 L1131.25,94.5938 Q1131.25,95.625 1132.0938,96.3125 Q1132.9375,97 1134.4375,97 Q1135.3281,97 1135.9531,96.7969 Q1136.3125,96.6875 1136.7188,96.3281 Q1136.9844,96.125 1137.125,96.0625 Q1137.2656,96 1137.4375,96 Q1137.7656,96 1138,96.2656 Q1138.25,96.5156 1138.25,96.875 Q1138.25,97.2188 1137.9063,97.625 Q1137.4063,98.2188 1136.6094,98.5469 Q1135.5625,99 1134.2813,99 Q1132.7813,99 1131.5781,98.4063 Q1130.6094,97.9375 1129.9219,96.9219 Q1129.25,95.9063 1129.25,94.7031 L1129.25,93.6094 Q1129.25,92.3594 1129.8438,91.2656 Q1130.4531,90.1719 1131.5,89.5938 Q1132.5625,89 1133.75,89 Q1134.4688,89 1135.0938,89.25 Q1135.7188,89.5 1136.25,90 Z " fill="#000000"/><text fill="#000000" font-family="sans-serif" font-size="14" lengthAdjust="spacing" textLength="79" x="1154.75" y="99.2285">Repositories</text><line style="stroke:#181818;stroke-width:0.5;" x1="1082" x2="1274" y1="109.5" y2="109.5"/><line style="stroke:#181818;stroke-width:0.5;" x1="1082" x2="1274" y1="117.5" y2="117.5"/><text fill="#000000" font-family="sans-serif" font-size="14" lengthAdjust="spacing" textLength="94" x="1087" y="136.0332">-Repositories()</text><text fill="#000000" font-family="sans-serif" font-size="14" lengthAdjust="spacing" textLength="182" x="1087" y="153.6426">+getInstance() : Repositories</text><text fill="#000000" font-family="sans-serif" font-size="14" lengthAdjust="spacing" textLength="131" x="1087" y="171.252">+getSkillRepository()</text></g><!--MD5=[578ce1823615e51643fd9b6d597944a1]
class SkillRepository--><g id="elem_SkillRepository"><rect codeLine="52" fill="#F1F1F1" height="118.4375" id="SkillRepository" rx="2.5" ry="2.5" style="stroke:#181818;stroke-width:0.5;" width="130" x="832" y="327"/><ellipse cx="849.25" cy="343" fill="#ADD1B2" rx="11" ry="11" style="stroke:#181818;stroke-width:1.0;"/><path d="M851.25,339.5 Q851.4531,339 851.6875,338.75 Q851.9219,338.5 852.1875,338.5 Q852.6563,338.5 852.9531,338.7813 Q853.25,339.0625 853.25,339.7188 L853.25,341.2813 Q853.25,341.9375 852.9688,342.2188 Q852.6875,342.5 852.25,342.5 Q851.8594,342.5 851.6094,342.3281 Q851.3594,342.1563 851.25,341.7031 Q851.2031,341.3906 851.0313,341.2188 Q850.7188,340.8906 850.1563,340.7031 Q849.5938,340.5 849.0313,340.5 Q848.3281,340.5 847.7344,340.7813 Q847.1563,341.0625 846.7031,341.6875 Q846.25,342.3125 846.25,343.1719 L846.25,344.0938 Q846.25,345.125 847.0938,345.8125 Q847.9375,346.5 849.4375,346.5 Q850.3281,346.5 850.9531,346.2969 Q851.3125,346.1875 851.7188,345.8281 Q851.9844,345.625 852.125,345.5625 Q852.2656,345.5 852.4375,345.5 Q852.7656,345.5 853,345.7656 Q853.25,346.0156 853.25,346.375 Q853.25,346.7188 852.9063,347.125 Q852.4063,347.7188 851.6094,348.0469 Q850.5625,348.5 849.2813,348.5 Q847.7813,348.5 846.5781,347.9063 Q845.6094,347.4375 844.9219,346.4219 Q844.25,345.4063 844.25,344.2031 L844.25,343.1094 Q844.25,341.8594 844.8438,340.7656 Q845.4531,339.6719 846.5,339.0938 Q847.5625,338.5 848.75,338.5 Q849.4688,338.5 850.0938,338.75 Q850.7188,339 851.25,339.5 Z " fill="#000000"/><text fill="#000000" font-family="sans-serif" font-size="14" lengthAdjust="spacing" textLength="93" x="863.75" y="348.7285">SkillRepository</text><line style="stroke:#181818;stroke-width:0.5;" x1="833" x2="961" y1="359" y2="359"/><text fill="#000000" font-family="sans-serif" font-size="14" lengthAdjust="spacing" textLength="99" x="838" y="377.5332">-List &lt;Skill&gt; skill</text><line style="stroke:#181818;stroke-width:0.5;" x1="833" x2="961" y1="384.6094" y2="384.6094"/><text fill="#000000" font-family="sans-serif" font-size="14" lengthAdjust="spacing" textLength="89" x="838" y="403.1426">-addSkill(Skill)</text><text fill="#000000" font-family="sans-serif" font-size="14" lengthAdjust="spacing" textLength="114" x="838" y="420.752">-validateSkill(Skill)</text><text fill="#000000" font-family="sans-serif" font-size="14" lengthAdjust="spacing" textLength="118" x="838" y="438.3613">+createSkill(name)</text></g><!--MD5=[e312dce6d19a95aafd50dbe7043cadc8]
link AssignSkillController to Repositories--><g id="link_AssignSkillController_Repositories"><path codeLine="60" d="M977.52,128 C1008.08,128 1043.3,128 1075.61,128 " fill="none" id="AssignSkillController-to-Repositories" style="stroke:#181818;stroke-width:1.0;stroke-dasharray:7.0,7.0;"/><polygon fill="#181818" points="1080.77,128,1071.77,124,1075.77,128,1071.77,132,1080.77,128" style="stroke:#181818;stroke-width:1.0;"/><text fill="#000000" font-family="sans-serif" font-size="13" lengthAdjust="spacing" textLength="67" x="995.75" y="121.4951">repositories</text></g><!--MD5=[84297ea2380697c38320e85b183d341f]
link AssignSkillUI to AssignSkillController--><g id="link_AssignSkillUI_AssignSkillController"><path codeLine="61" d="M781.59,128 C782.5,128 783,128 783,128 C783,128 797.11,128 811.29,128 " fill="none" id="AssignSkillUI-to-AssignSkillController" style="stroke:#181818;stroke-width:1.0;stroke-dasharray:7.0,7.0;"/><polygon fill="#181818" points="816.49,128,807.49,124,811.49,128,807.49,132,816.49,128" style="stroke:#181818;stroke-width:1.0;"/></g><!--MD5=[fff48e9c385a875a0ec7f6b68c295159]
link Repositories to Repositories--><g id="link_Repositories_Repositories"><path codeLine="62" d="M1275.28,99.05 C1295.48,102.1 1310,111.75 1310,128 C1310,142.85 1297.87,152.19 1280.36,156.01 " fill="none" id="Repositories-to-Repositories" style="stroke:#181818;stroke-width:1.0;"/><polygon fill="#181818" points="1275.28,156.95,1284.8533,159.2633,1280.1982,156.0493,1283.4122,151.3941,1275.28,156.95" style="stroke:#181818;stroke-width:1.0;"/><text fill="#000000" font-family="sans-serif" font-size="13" lengthAdjust="spacing" textLength="49" x="1316" y="133.4951">instance</text></g><!--MD5=[4fb2fc788ea69ea563aebb6212afbfcc]
link Repositories to SkillRepository--><g id="link_Repositories_SkillRepository"><path codeLine="63" d="M1123.49,178.66 C1078.07,220.04 1013.17,279.17 964.47,323.53 " fill="none" id="Repositories-to-SkillRepository" style="stroke:#181818;stroke-width:1.0;"/><polygon fill="#181818" points="960.7,326.97,970.0472,323.8667,964.3965,323.6031,964.6601,317.9524,960.7,326.97" style="stroke:#181818;stroke-width:1.0;"/><text fill="#000000" font-family="sans-serif" font-size="13" lengthAdjust="spacing" textLength="87" x="1014" y="293.4951">SkillRepository</text><text fill="#000000" font-family="sans-serif" font-size="13" lengthAdjust="spacing" textLength="7" x="961.0369" y="316.2906">1</text></g><!--MD5=[e95fb8a610a48ef2ab983045a2806f0f]
link SkillRepository to Skill--><g id="link_SkillRepository_Skill"><path codeLine="64" d="M839.28,445.27 C814.88,469.9 792,493 792,493 C792,493 778.54,504.89 762.03,519.48 " fill="none" id="SkillRepository-to-Skill" style="stroke:#181818;stroke-width:1.0;"/><polygon fill="#181818" points="758.23,522.83,767.6198,519.8582,761.9733,519.5153,762.3162,513.8688,758.23,522.83" style="stroke:#181818;stroke-width:1.0;"/><text fill="#000000" font-family="sans-serif" font-size="13" lengthAdjust="spacing" textLength="23" x="811" y="489.4951">skill</text><text fill="#000000" font-family="sans-serif" font-size="13" lengthAdjust="spacing" textLength="7" x="824.8188" y="466.9584">1</text><text fill="#000000" font-family="sans-serif" font-size="13" lengthAdjust="spacing" textLength="5" x="760.7858" y="512.1115">*</text></g><!--MD5=[544a46bcb255937ac9594d56036d4f96]
reverse link Collaborator to HumanResourcesManager--><g id="link_Collaborator_HumanResourcesManager"><path codeLine="65" d="M385.91,267.48 C403.12,304.19 419.79,339.74 430.2,361.95 " fill="none" id="Collaborator-backto-HumanResourcesManager" style="stroke:#181818;stroke-width:1.0;"/><polygon fill="none" points="379.46,270.21,377.31,249.13,392.14,264.27,379.46,270.21" style="stroke:#181818;stroke-width:1.0;"/></g><!--MD5=[7072e5dd2e1d88c4dbb1bf029ef3c97f]
link AssignSkillController to Skill--><g id="link_AssignSkillController_Skill"><path codeLine="66" d="M879.18,169.53 C843.99,249.57 765.56,427.95 725.92,518.11 " fill="none" id="AssignSkillController-to-Skill" style="stroke:#181818;stroke-width:1.0;stroke-dasharray:7.0,7.0;"/><polygon fill="#181818" points="723.83,522.86,731.1194,516.2369,725.8461,518.2845,723.7985,513.0112,723.83,522.86" style="stroke:#181818;stroke-width:1.0;"/></g><!--MD5=[20a050ebc9eef2cc4a7d84e8522139e6]
link AssignSkillController to SkillRepository--><g id="link_AssignSkillController_SkillRepository"><path codeLine="67" d="M897,169.56 C897,210.37 897,273.9 897,321.41 " fill="none" id="AssignSkillController-to-SkillRepository" style="stroke:#181818;stroke-width:1.0;stroke-dasharray:7.0,7.0;"/><polygon fill="#181818" points="897,326.53,901,317.53,897,321.53,893,317.53,897,326.53" style="stroke:#181818;stroke-width:1.0;"/></g><!--MD5=[613a50d87c46e6ff51db10564170c19f]
reverse link HumanResourcesManager to Skill--><g id="link_HumanResourcesManager_Skill"><path codeLine="69" d="M475.32,413.17 C516.48,444.56 580,493 580,493 C580,493 609.09,511.95 638.86,531.35 " fill="none" id="HumanResourcesManager-backto-Skill" style="stroke:#181818;stroke-width:1.0;"/><polygon fill="#181818" points="471.16,410,475.891,418.6382,475.1358,413.0319,480.7421,412.2768,471.16,410" style="stroke:#181818;stroke-width:1.0;"/><text fill="#000000" font-family="sans-serif" font-size="13" lengthAdjust="spacing" textLength="56" x="581" y="489.4951">AssignBy</text></g><!--MD5=[5c225dcb092439c1245b259451476d8e]
link Collaborator to Skill--><g id="link_Collaborator_Skill"><path codeLine="70" d="M464.67,249.03 C514.44,290.61 558,327 558,327 C558,327 627.69,445.81 670.11,518.13 " fill="none" id="Collaborator-to-Skill" style="stroke:#181818;stroke-width:1.0;"/><polygon fill="#181818" points="672.86,522.82,671.7601,513.0327,670.3318,518.5063,664.8582,517.0779,672.86,522.82" style="stroke:#181818;stroke-width:1.0;"/><text fill="#000000" font-family="sans-serif" font-size="13" lengthAdjust="spacing" textLength="21" x="627" y="391.4951">has</text><text fill="#000000" font-family="sans-serif" font-size="13" lengthAdjust="spacing" textLength="5" x="467.8314" y="270.0034">*</text><text fill="#000000" font-family="sans-serif" font-size="13" lengthAdjust="spacing" textLength="5" x="663.4106" y="512.1">*</text></g><!--MD5=[60b774d57453c74f9bf43b4598567092]
@startuml
'skinparam monochrome true
skinparam packageStyle rectangle
skinparam shadowing false
skinparam linetype polyline
'skinparam linetype orto

skinparam classAttributeIconSize 0

'left to right direction

class Skill {
    - String name

    - validateSkill(Skill)
    + Skill(name)
}

class AssignSkillController {

    + AssignSkillController()
    + assignSkill(name)
}

class AssignSkillUI {
}

class Collaborator {
    -String name
    -List<Skill> skill
    -Job job
    -Date dateOfBirth
    -Date admissionDate
    -Address address
    -int phoneNumber
    -String email
    -int cc
    -int cardNumber

    + Collaborator(name, dateOfBirth, admissionDate, address, phoneNumber, email, cc, cardNumber)
}

class HumanResourcesManager {
}

class Repositories {

    - Repositories()
    + getInstance() : Repositories
    + getSkillRepository()
}

class SkillRepository {
    - List <Skill> skill

    - addSkill(Skill)
    - validateSkill(Skill)
    + createSkill(name)
}

AssignSkillController .> Repositories : repositories
AssignSkillUI .> AssignSkillController
Repositories -> Repositories : instance
Repositories - -> "1" SkillRepository : SkillRepository
SkillRepository "1" - -> "*" Skill : skill
Collaborator  <|- -  HumanResourcesManager
AssignSkillController ..> Skill
AssignSkillController ..> SkillRepository

HumanResourcesManager <- -  Skill: AssignBy
Collaborator "*" - -> "*" Skill : has

@enduml

@startuml
skinparam packageStyle rectangle
skinparam shadowing false
skinparam linetype polyline

skinparam classAttributeIconSize 0


class Skill {
    - String name

    - validateSkill(Skill)
    + Skill(name)
}

class AssignSkillController {

    + AssignSkillController()
    + assignSkill(name)
}

class AssignSkillUI {
}

class Collaborator {
    -String name
    -List<Skill> skill
    -Job job
    -Date dateOfBirth
    -Date admissionDate
    -Address address
    -int phoneNumber
    -String email
    -int cc
    -int cardNumber

    + Collaborator(name, dateOfBirth, admissionDate, address, phoneNumber, email, cc, cardNumber)
}

class HumanResourcesManager {
}

class Repositories {

    - Repositories()
    + getInstance() : Repositories
    + getSkillRepository()
}

class SkillRepository {
    - List <Skill> skill

    - addSkill(Skill)
    - validateSkill(Skill)
    + createSkill(name)
}

AssignSkillController .> Repositories : repositories
AssignSkillUI .> AssignSkillController
Repositories -> Repositories : instance
Repositories - -> "1" SkillRepository : SkillRepository
SkillRepository "1" - -> "*" Skill : skill
Collaborator  <|- -  HumanResourcesManager
AssignSkillController ..> Skill
AssignSkillController ..> SkillRepository

HumanResourcesManager <- -  Skill: AssignBy
Collaborator "*" - -> "*" Skill : has

@enduml

PlantUML version 1.2022.12(Sun Oct 23 19:12:26 BST 2022)
(GPL source distribution)
Java Runtime: OpenJDK Runtime Environment
JVM: OpenJDK 64-Bit Server VM
Default Encoding: Cp1252
Language: pt
Country: PT
--></g></svg>