<?xml version="1.0" encoding="UTF-8" standalone="no"?><svg xmlns="http://www.w3.org/2000/svg" xmlns:xlink="http://www.w3.org/1999/xlink" contentStyleType="text/css" height="868px" preserveAspectRatio="none" style="width:1173px;height:868px;background:#FFFFFF;" version="1.1" viewBox="0 0 1173 868" width="1173px" zoomAndPan="magnify"><defs/><g><rect fill="none" height="27.6094" id="_title" style="stroke:none;stroke-width:1.0;" width="364" x="406.75" y="10"/><text fill="#000000" font-family="sans-serif" font-size="14" font-weight="bold" lengthAdjust="spacing" textLength="354" x="411.75" y="29.5332">UI Sequence Diagram (SSD) - US01 - Register Skills</text><rect fill="#FFFFFF" height="637.5469" style="stroke:#181818;stroke-width:1.0;" width="10" x="113" y="131.2188"/><rect fill="#FFFFFF" height="30.3516" style="stroke:#181818;stroke-width:1.0;" width="10" x="410" y="153.5703"/><rect fill="#FFFFFF" height="30.3516" style="stroke:#181818;stroke-width:1.0;" width="10" x="410" y="214.2734"/><rect fill="#FFFFFF" height="493.7891" style="stroke:#181818;stroke-width:1.0;" width="10" x="410" y="274.9766"/><rect fill="#FFFFFF" height="433.0859" style="stroke:#181818;stroke-width:1.0;" width="10" x="553" y="305.3281"/><rect fill="#FFFFFF" height="30.3516" style="stroke:#181818;stroke-width:1.0;" width="10" x="685" y="335.6797"/><rect fill="#FFFFFF" height="30.3516" style="stroke:#181818;stroke-width:1.0;" width="10" x="792" y="396.3828"/><rect fill="#FFFFFF" height="213.625" style="stroke:#181818;stroke-width:1.0;" width="10" x="906" y="457.0859"/><rect fill="#FFFFFF" height="36.3516" style="stroke:#181818;stroke-width:1.0;" width="10" x="911" y="591.0078"/><rect fill="#FFFFFF" height="93.5703" style="stroke:#181818;stroke-width:1.0;" width="10" x="1032.5" y="497.4375"/><line style="stroke:#181818;stroke-width:0.5;stroke-dasharray:5.0,5.0;" x1="118" x2="118" y1="121.2188" y2="786.7656"/><line style="stroke:#181818;stroke-width:0.5;stroke-dasharray:5.0,5.0;" x1="414.5" x2="414.5" y1="121.2188" y2="786.7656"/><line style="stroke:#181818;stroke-width:0.5;stroke-dasharray:5.0,5.0;" x1="557.5" x2="557.5" y1="121.2188" y2="786.7656"/><line style="stroke:#181818;stroke-width:0.5;stroke-dasharray:5.0,5.0;" x1="689.5" x2="689.5" y1="121.2188" y2="786.7656"/><line style="stroke:#181818;stroke-width:0.5;stroke-dasharray:5.0,5.0;" x1="796.5" x2="796.5" y1="121.2188" y2="786.7656"/><line style="stroke:#181818;stroke-width:0.5;stroke-dasharray:5.0,5.0;" x1="910.5" x2="910.5" y1="121.2188" y2="786.7656"/><line style="stroke:#181818;stroke-width:0.5;stroke-dasharray:5.0,5.0;" x1="1037" x2="1037" y1="505.1953" y2="786.7656"/><text fill="#000000" font-family="sans-serif" font-size="14" lengthAdjust="spacing" textLength="220" x="5" y="118.1426">Human Resources Manager (HRM)</text><ellipse cx="118" cy="52.1094" fill="#E3E3E3" rx="8" ry="8" style="stroke:#181818;stroke-width:0.5;"/><path d="M118,60.1094 L118,87.1094 M105,68.1094 L131,68.1094 M118,87.1094 L105,102.1094 M118,87.1094 L131,102.1094 " fill="none" style="stroke:#181818;stroke-width:0.5;"/><text fill="#000000" font-family="sans-serif" font-size="14" lengthAdjust="spacing" textLength="220" x="5" y="800.2988">Human Resources Manager (HRM)</text><ellipse cx="118" cy="811.875" fill="#E3E3E3" rx="8" ry="8" style="stroke:#181818;stroke-width:0.5;"/><path d="M118,819.875 L118,846.875 M105,827.875 L131,827.875 M118,846.875 L105,861.875 M118,846.875 L131,861.875 " fill="none" style="stroke:#181818;stroke-width:0.5;"/><rect fill="#E3E3E3" height="31.6094" rx="2.5" ry="2.5" style="stroke:#181818;stroke-width:0.5;" width="97" x="366.5" y="88.6094"/><text fill="#000000" font-family="sans-serif" font-size="14" lengthAdjust="spacing" textLength="83" x="373.5" y="110.1426">:AssignSkillUI</text><rect fill="#E3E3E3" height="31.6094" rx="2.5" ry="2.5" style="stroke:#181818;stroke-width:0.5;" width="97" x="366.5" y="785.7656"/><text fill="#000000" font-family="sans-serif" font-size="14" lengthAdjust="spacing" textLength="83" x="373.5" y="807.2988">:AssignSkillUI</text><rect fill="#E3E3E3" height="31.6094" rx="2.5" ry="2.5" style="stroke:#181818;stroke-width:0.5;" width="147" x="484.5" y="88.6094"/><text fill="#000000" font-family="sans-serif" font-size="14" lengthAdjust="spacing" textLength="133" x="491.5" y="110.1426">:AssignSkillController</text><rect fill="#E3E3E3" height="31.6094" rx="2.5" ry="2.5" style="stroke:#181818;stroke-width:0.5;" width="147" x="484.5" y="785.7656"/><text fill="#000000" font-family="sans-serif" font-size="14" lengthAdjust="spacing" textLength="133" x="491.5" y="807.2988">:AssignSkillController</text><rect fill="#E3E3E3" height="31.6094" rx="2.5" ry="2.5" style="stroke:#181818;stroke-width:0.5;" width="97" x="641.5" y="88.6094"/><text fill="#000000" font-family="sans-serif" font-size="14" lengthAdjust="spacing" textLength="83" x="648.5" y="110.1426">:Repositories</text><rect fill="#E3E3E3" height="31.6094" rx="2.5" ry="2.5" style="stroke:#181818;stroke-width:0.5;" width="97" x="641.5" y="785.7656"/><text fill="#000000" font-family="sans-serif" font-size="14" lengthAdjust="spacing" textLength="83" x="648.5" y="807.2988">:Repositories</text><rect fill="#E3E3E3" height="49.2188" rx="2.5" ry="2.5" style="stroke:#181818;stroke-width:0.5;" width="97" x="748.5" y="71"/><text fill="#000000" font-family="sans-serif" font-size="14" lengthAdjust="spacing" textLength="74" x="760" y="92.5332">repositories</text><text fill="#000000" font-family="sans-serif" font-size="14" lengthAdjust="spacing" textLength="83" x="755.5" y="110.1426">:Repositories</text><rect fill="#E3E3E3" height="49.2188" rx="2.5" ry="2.5" style="stroke:#181818;stroke-width:0.5;" width="97" x="748.5" y="785.7656"/><text fill="#000000" font-family="sans-serif" font-size="14" lengthAdjust="spacing" textLength="74" x="760" y="807.2988">repositories</text><text fill="#000000" font-family="sans-serif" font-size="14" lengthAdjust="spacing" textLength="83" x="755.5" y="824.9082">:Repositories</text><rect fill="#E3E3E3" height="49.2188" rx="2.5" ry="2.5" style="stroke:#181818;stroke-width:0.5;" width="111" x="855.5" y="71"/><text fill="#000000" font-family="sans-serif" font-size="14" lengthAdjust="spacing" textLength="91" x="865.5" y="92.5332">skillRepository</text><text fill="#000000" font-family="sans-serif" font-size="14" lengthAdjust="spacing" textLength="97" x="862.5" y="110.1426">:SkillRepository</text><rect fill="#E3E3E3" height="49.2188" rx="2.5" ry="2.5" style="stroke:#181818;stroke-width:0.5;" width="111" x="855.5" y="785.7656"/><text fill="#000000" font-family="sans-serif" font-size="14" lengthAdjust="spacing" textLength="91" x="865.5" y="807.2988">skillRepository</text><text fill="#000000" font-family="sans-serif" font-size="14" lengthAdjust="spacing" textLength="97" x="862.5" y="824.9082">:SkillRepository</text><rect fill="#E3E3E3" height="49.2188" rx="2.5" ry="2.5" style="stroke:#181818;stroke-width:0.5;" width="43" x="1016" y="785.7656"/><text fill="#000000" font-family="sans-serif" font-size="14" lengthAdjust="spacing" textLength="23" x="1026" y="807.2988">skill</text><text fill="#000000" font-family="sans-serif" font-size="14" lengthAdjust="spacing" textLength="29" x="1023" y="824.9082">:Skill</text><rect fill="#FFFFFF" height="637.5469" style="stroke:#181818;stroke-width:1.0;" width="10" x="113" y="131.2188"/><rect fill="#FFFFFF" height="30.3516" style="stroke:#181818;stroke-width:1.0;" width="10" x="410" y="153.5703"/><rect fill="#FFFFFF" height="30.3516" style="stroke:#181818;stroke-width:1.0;" width="10" x="410" y="214.2734"/><rect fill="#FFFFFF" height="493.7891" style="stroke:#181818;stroke-width:1.0;" width="10" x="410" y="274.9766"/><rect fill="#FFFFFF" height="433.0859" style="stroke:#181818;stroke-width:1.0;" width="10" x="553" y="305.3281"/><rect fill="#FFFFFF" height="30.3516" style="stroke:#181818;stroke-width:1.0;" width="10" x="685" y="335.6797"/><rect fill="#FFFFFF" height="30.3516" style="stroke:#181818;stroke-width:1.0;" width="10" x="792" y="396.3828"/><rect fill="#FFFFFF" height="213.625" style="stroke:#181818;stroke-width:1.0;" width="10" x="906" y="457.0859"/><rect fill="#FFFFFF" height="36.3516" style="stroke:#181818;stroke-width:1.0;" width="10" x="911" y="591.0078"/><rect fill="#FFFFFF" height="93.5703" style="stroke:#181818;stroke-width:1.0;" width="10" x="1032.5" y="497.4375"/><polygon fill="#181818" points="398,149.5703,408,153.5703,398,157.5703,402,153.5703" style="stroke:#181818;stroke-width:1.0;"/><line style="stroke:#181818;stroke-width:1.0;" x1="123" x2="404" y1="153.5703" y2="153.5703"/><text fill="#000000" font-family="sans-serif" font-size="13" font-weight="bold" lengthAdjust="spacing" textLength="7" x="130" y="148.7139">1</text><text fill="#000000" font-family="sans-serif" font-size="13" lengthAdjust="spacing" textLength="185" x="141" y="148.7139">asks to assign one or more skill</text><polygon fill="#181818" points="134,179.9219,124,183.9219,134,187.9219,130,183.9219" style="stroke:#181818;stroke-width:1.0;"/><line style="stroke:#181818;stroke-width:1.0;stroke-dasharray:2.0,2.0;" x1="128" x2="414" y1="183.9219" y2="183.9219"/><text fill="#000000" font-family="sans-serif" font-size="13" font-weight="bold" lengthAdjust="spacing" textLength="7" x="140" y="179.0654">2</text><text fill="#000000" font-family="sans-serif" font-size="13" lengthAdjust="spacing" textLength="123" x="151" y="179.0654">requests data (name)</text><polygon fill="#181818" points="398,210.2734,408,214.2734,398,218.2734,402,214.2734" style="stroke:#181818;stroke-width:1.0;"/><line style="stroke:#181818;stroke-width:1.0;" x1="123" x2="404" y1="214.2734" y2="214.2734"/><text fill="#000000" font-family="sans-serif" font-size="13" font-weight="bold" lengthAdjust="spacing" textLength="7" x="130" y="209.417">3</text><text fill="#000000" font-family="sans-serif" font-size="13" lengthAdjust="spacing" textLength="98" x="141" y="209.417">type data (name)</text><polygon fill="#181818" points="134,240.625,124,244.625,134,248.625,130,244.625" style="stroke:#181818;stroke-width:1.0;"/><line style="stroke:#181818;stroke-width:1.0;stroke-dasharray:2.0,2.0;" x1="128" x2="414" y1="244.625" y2="244.625"/><text fill="#000000" font-family="sans-serif" font-size="13" font-weight="bold" lengthAdjust="spacing" textLength="7" x="140" y="239.7686">4</text><text fill="#000000" font-family="sans-serif" font-size="13" lengthAdjust="spacing" textLength="252" x="151" y="239.7686">displays the data and requests confirmation</text><polygon fill="#181818" points="398,270.9766,408,274.9766,398,278.9766,402,274.9766" style="stroke:#181818;stroke-width:1.0;"/><line style="stroke:#181818;stroke-width:1.0;" x1="123" x2="404" y1="274.9766" y2="274.9766"/><text fill="#000000" font-family="sans-serif" font-size="13" font-weight="bold" lengthAdjust="spacing" textLength="7" x="130" y="270.1201">5</text><text fill="#000000" font-family="sans-serif" font-size="13" lengthAdjust="spacing" textLength="153" x="141" y="270.1201">confirms and submits data</text><polygon fill="#181818" points="541,301.3281,551,305.3281,541,309.3281,545,305.3281" style="stroke:#181818;stroke-width:1.0;"/><line style="stroke:#181818;stroke-width:1.0;" x1="420" x2="547" y1="305.3281" y2="305.3281"/><text fill="#000000" font-family="sans-serif" font-size="13" font-weight="bold" lengthAdjust="spacing" textLength="7" x="427" y="300.4717">6</text><text fill="#000000" font-family="sans-serif" font-size="13" lengthAdjust="spacing" textLength="103" x="438" y="300.4717">assignSkill(name)</text><polygon fill="#181818" points="673,331.6797,683,335.6797,673,339.6797,677,335.6797" style="stroke:#181818;stroke-width:1.0;"/><line style="stroke:#181818;stroke-width:1.0;" x1="563" x2="679" y1="335.6797" y2="335.6797"/><text fill="#000000" font-family="sans-serif" font-size="13" font-weight="bold" lengthAdjust="spacing" textLength="7" x="570" y="330.8232">7</text><text fill="#000000" font-family="sans-serif" font-size="13" lengthAdjust="spacing" textLength="75" x="581" y="330.8232">getInstance()</text><polygon fill="#181818" points="574,362.0313,564,366.0313,574,370.0313,570,366.0313" style="stroke:#181818;stroke-width:1.0;"/><line style="stroke:#181818;stroke-width:1.0;stroke-dasharray:2.0,2.0;" x1="568" x2="689" y1="366.0313" y2="366.0313"/><text fill="#000000" font-family="sans-serif" font-size="13" font-weight="bold" lengthAdjust="spacing" textLength="7" x="580" y="361.1748">8</text><text fill="#000000" font-family="sans-serif" font-size="13" lengthAdjust="spacing" textLength="67" x="591" y="361.1748">repositories</text><polygon fill="#181818" points="780,392.3828,790,396.3828,780,400.3828,784,396.3828" style="stroke:#181818;stroke-width:1.0;"/><line style="stroke:#181818;stroke-width:1.0;" x1="563" x2="786" y1="396.3828" y2="396.3828"/><text fill="#000000" font-family="sans-serif" font-size="13" font-weight="bold" lengthAdjust="spacing" textLength="7" x="570" y="391.5264">9</text><text fill="#000000" font-family="sans-serif" font-size="13" lengthAdjust="spacing" textLength="113" x="581" y="391.5264">getSkillRepository()</text><polygon fill="#181818" points="574,422.7344,564,426.7344,574,430.7344,570,426.7344" style="stroke:#181818;stroke-width:1.0;"/><line style="stroke:#181818;stroke-width:1.0;stroke-dasharray:2.0,2.0;" x1="568" x2="796" y1="426.7344" y2="426.7344"/><text fill="#000000" font-family="sans-serif" font-size="13" font-weight="bold" lengthAdjust="spacing" textLength="14" x="580" y="421.8779">10</text><text fill="#000000" font-family="sans-serif" font-size="13" lengthAdjust="spacing" textLength="85" x="598" y="421.8779">skillRepository</text><polygon fill="#181818" points="894,453.0859,904,457.0859,894,461.0859,898,457.0859" style="stroke:#181818;stroke-width:1.0;"/><line style="stroke:#181818;stroke-width:1.0;" x1="563" x2="900" y1="457.0859" y2="457.0859"/><text fill="#000000" font-family="sans-serif" font-size="13" font-weight="bold" lengthAdjust="spacing" textLength="14" x="570" y="452.2295">11</text><text fill="#000000" font-family="sans-serif" font-size="13" lengthAdjust="spacing" textLength="103" x="588" y="452.2295">assignSkill(name)</text><polygon fill="#181818" points="1004,483.4375,1014,487.4375,1004,491.4375,1008,487.4375" style="stroke:#181818;stroke-width:1.0;"/><line style="stroke:#181818;stroke-width:1.0;" x1="916" x2="1010" y1="487.4375" y2="487.4375"/><text fill="#000000" font-family="sans-serif" font-size="13" font-weight="bold" lengthAdjust="spacing" textLength="14" x="923" y="482.5811">12</text><text fill="#000000" font-family="sans-serif" font-size="13" lengthAdjust="spacing" textLength="58" x="941" y="482.5811">get(name)</text><rect fill="#E3E3E3" height="49.2188" rx="2.5" ry="2.5" style="stroke:#181818;stroke-width:0.5;" width="43" x="1016" y="465.0859"/><text fill="#000000" font-family="sans-serif" font-size="14" lengthAdjust="spacing" textLength="23" x="1026" y="486.6191">skill</text><text fill="#000000" font-family="sans-serif" font-size="14" lengthAdjust="spacing" textLength="29" x="1023" y="504.2285">:Skill</text><line style="stroke:#181818;stroke-width:1.0;" x1="1042.5" x2="1084.5" y1="547.6563" y2="547.6563"/><line style="stroke:#181818;stroke-width:1.0;" x1="1084.5" x2="1084.5" y1="547.6563" y2="560.6563"/><line style="stroke:#181818;stroke-width:1.0;" x1="1043.5" x2="1084.5" y1="560.6563" y2="560.6563"/><polygon fill="#181818" points="1053.5,556.6563,1043.5,560.6563,1053.5,564.6563,1049.5,560.6563" style="stroke:#181818;stroke-width:1.0;"/><text fill="#000000" font-family="sans-serif" font-size="13" font-weight="bold" lengthAdjust="spacing" textLength="14" x="1049.5" y="542.7998">13</text><text fill="#000000" font-family="sans-serif" font-size="13" lengthAdjust="spacing" textLength="99" x="1067.5" y="542.7998">validateSkill(skill)</text><polygon fill="#181818" points="932,587.0078,922,591.0078,932,595.0078,928,591.0078" style="stroke:#181818;stroke-width:1.0;"/><line style="stroke:#181818;stroke-width:1.0;stroke-dasharray:2.0,2.0;" x1="926" x2="1036.5" y1="591.0078" y2="591.0078"/><text fill="#000000" font-family="sans-serif" font-size="13" font-weight="bold" lengthAdjust="spacing" textLength="14" x="938" y="586.1514">14</text><text fill="#000000" font-family="sans-serif" font-size="13" lengthAdjust="spacing" textLength="23" x="956" y="586.1514">skill</text><line style="stroke:#181818;stroke-width:1.0;stroke-dasharray:2.0,2.0;" x1="921" x2="963" y1="626.3594" y2="626.3594"/><line style="stroke:#181818;stroke-width:1.0;stroke-dasharray:2.0,2.0;" x1="963" x2="963" y1="626.3594" y2="639.3594"/><line style="stroke:#181818;stroke-width:1.0;stroke-dasharray:2.0,2.0;" x1="916" x2="963" y1="639.3594" y2="639.3594"/><polygon fill="#181818" points="926,635.3594,916,639.3594,926,643.3594,922,639.3594" style="stroke:#181818;stroke-width:1.0;"/><text fill="#000000" font-family="sans-serif" font-size="13" font-weight="bold" lengthAdjust="spacing" textLength="14" x="928" y="621.5029">15</text><text fill="#000000" font-family="sans-serif" font-size="13" lengthAdjust="spacing" textLength="53" x="946" y="621.5029">true/false</text><line style="stroke:#181818;stroke-width:1.0;stroke-dasharray:2.0,2.0;" x1="916" x2="958" y1="669.7109" y2="669.7109"/><line style="stroke:#181818;stroke-width:1.0;stroke-dasharray:2.0,2.0;" x1="958" x2="958" y1="669.7109" y2="682.7109"/><line style="stroke:#181818;stroke-width:1.0;stroke-dasharray:2.0,2.0;" x1="911" x2="958" y1="682.7109" y2="682.7109"/><polygon fill="#181818" points="921,678.7109,911,682.7109,921,686.7109,917,682.7109" style="stroke:#181818;stroke-width:1.0;"/><text fill="#000000" font-family="sans-serif" font-size="13" font-weight="bold" lengthAdjust="spacing" textLength="14" x="923" y="664.8545">16</text><text fill="#000000" font-family="sans-serif" font-size="13" lengthAdjust="spacing" textLength="53" x="941" y="664.8545">true/false</text><polygon fill="#181818" points="574,704.0625,564,708.0625,574,712.0625,570,708.0625" style="stroke:#181818;stroke-width:1.0;"/><line style="stroke:#181818;stroke-width:1.0;stroke-dasharray:2.0,2.0;" x1="568" x2="910" y1="708.0625" y2="708.0625"/><text fill="#000000" font-family="sans-serif" font-size="13" font-weight="bold" lengthAdjust="spacing" textLength="14" x="580" y="703.2061">17</text><text fill="#000000" font-family="sans-serif" font-size="13" lengthAdjust="spacing" textLength="23" x="598" y="703.2061">skill</text><polygon fill="#181818" points="431,734.4141,421,738.4141,431,742.4141,427,738.4141" style="stroke:#181818;stroke-width:1.0;"/><line style="stroke:#181818;stroke-width:1.0;stroke-dasharray:2.0,2.0;" x1="425" x2="557" y1="738.4141" y2="738.4141"/><text fill="#000000" font-family="sans-serif" font-size="13" font-weight="bold" lengthAdjust="spacing" textLength="14" x="437" y="733.5576">18</text><text fill="#000000" font-family="sans-serif" font-size="13" lengthAdjust="spacing" textLength="23" x="455" y="733.5576">skill</text><polygon fill="#181818" points="129,764.7656,119,768.7656,129,772.7656,125,768.7656" style="stroke:#181818;stroke-width:1.0;"/><line style="stroke:#181818;stroke-width:1.0;stroke-dasharray:2.0,2.0;" x1="123" x2="414" y1="768.7656" y2="768.7656"/><text fill="#000000" font-family="sans-serif" font-size="13" font-weight="bold" lengthAdjust="spacing" textLength="14" x="135" y="763.9092">19</text><text fill="#000000" font-family="sans-serif" font-size="13" lengthAdjust="spacing" textLength="158" x="153" y="763.9092">displays operation success</text><!--MD5=[fbae231617d14f62dd58eac427a4f9cf]
@startuml
skinparam monochrome true
skinparam packageStyle rectangle
skinparam shadowing false

title UI Sequence Diagram (SSD) - US01 - Register Skills

autonumber

'hide footbox
actor "Human Resources Manager (HRM)" as HRM
participant ":AssignSkillUI" as UI
participant ":AssignSkillController" as CTRL
participant ":Repositories" as RepositorySingleton
participant "repositories\n:Repositories" as PLAT
participant "skillRepository\n:SkillRepository" as SR
participant "skill\n:Skill" as SKILL

activate HRM

        HRM -> UI : asks to assign one or more skill
    activate UI

        UI - -> HRM : requests data (name)
    deactivate UI

        HRM->UI: type data (name)

    activate UI

        UI - -> HRM : displays the data and requests confirmation

    deactivate UI

        HRM -> UI : confirms and submits data

    activate UI

         UI -> CTRL: assignSkill(name)
        activate CTRL

        CTRL -> RepositorySingleton : getInstance()

            activate RepositorySingleton

                RepositorySingleton - -> CTRL : repositories
            deactivate RepositorySingleton

            CTRL -> PLAT : getSkillRepository()
            activate PLAT

            PLAT - -> CTRL: skillRepository
            deactivate PLAT

        CTRL -> SR : assignSkill(name)

        activate SR

            SR -> SKILL**: get(name)
                activate SKILL
                        SKILL -> SKILL: validateSkill(skill)
                    SKILL - -> SR : skill
                    deactivate SKILL
                        activate SR
                            SR - -> SR : true/false
                        deactivate
                            SR - -> SR : true/false

deactivate SR

            SR - -> CTRL : skill

            deactivate SR

            CTRL - -> UI : skill
      deactivate CTRL

      UI - -> HRM : displays operation success
    deactivate UI
deactivate HRM
@enduml

@startuml
skinparam monochrome true
skinparam packageStyle rectangle
skinparam shadowing false

title UI Sequence Diagram (SSD) - US01 - Register Skills

autonumber

actor "Human Resources Manager (HRM)" as HRM
participant ":AssignSkillUI" as UI
participant ":AssignSkillController" as CTRL
participant ":Repositories" as RepositorySingleton
participant "repositories\n:Repositories" as PLAT
participant "skillRepository\n:SkillRepository" as SR
participant "skill\n:Skill" as SKILL

activate HRM

        HRM -> UI : asks to assign one or more skill
    activate UI

        UI - -> HRM : requests data (name)
    deactivate UI

        HRM->UI: type data (name)

    activate UI

        UI - -> HRM : displays the data and requests confirmation

    deactivate UI

        HRM -> UI : confirms and submits data

    activate UI

         UI -> CTRL: assignSkill(name)
        activate CTRL

        CTRL -> RepositorySingleton : getInstance()

            activate RepositorySingleton

                RepositorySingleton - -> CTRL : repositories
            deactivate RepositorySingleton

            CTRL -> PLAT : getSkillRepository()
            activate PLAT

            PLAT - -> CTRL: skillRepository
            deactivate PLAT

        CTRL -> SR : assignSkill(name)

        activate SR

            SR -> SKILL**: get(name)
                activate SKILL
                        SKILL -> SKILL: validateSkill(skill)
                    SKILL - -> SR : skill
                    deactivate SKILL
                        activate SR
                            SR - -> SR : true/false
                        deactivate
                            SR - -> SR : true/false

deactivate SR

            SR - -> CTRL : skill

            deactivate SR

            CTRL - -> UI : skill
      deactivate CTRL

      UI - -> HRM : displays operation success
    deactivate UI
deactivate HRM
@enduml

PlantUML version 1.2022.12(Sun Oct 23 19:12:26 BST 2022)
(GPL source distribution)
Java Runtime: OpenJDK Runtime Environment
JVM: OpenJDK 64-Bit Server VM
Default Encoding: Cp1252
Language: pt
Country: PT
--></g></svg>