<?xml version="1.0" encoding="us-ascii" standalone="no"?><svg xmlns="http://www.w3.org/2000/svg" xmlns:xlink="http://www.w3.org/1999/xlink" contentStyleType="text/css" height="734.8px" preserveAspectRatio="none" style="width:1643px;height:734px;background:#FFFFFF;" version="1.1" viewBox="0 0 1643 734" width="1643.4px" zoomAndPan="magnify"><defs/><g><!--class Skill--><g id="elem_Skill"><rect codeLine="11" fill="#F1F1F1" height="114.2496" id="Skill" rx="2.75" ry="2.75" style="stroke:#181818;stroke-width:0.55;" width="138.6" x="625.35" y="613.8"/><ellipse cx="676.225" cy="631.4" fill="#ADD1B2" rx="12.1" ry="12.1" style="stroke:#181818;stroke-width:1.1;"/><path d="M679.2672,626.8625 Q679.4391,626.6219 679.6453,626.5016 Q679.8516,626.3813 680.0922,626.3813 Q680.5047,626.3813 680.7625,626.6734 Q681.0203,626.9484 681.0203,627.6188 L681.0203,629.2172 Q681.0203,629.8875 680.7625,630.1797 Q680.5047,630.4719 680.0922,630.4719 Q679.7141,630.4719 679.4906,630.2484 Q679.2672,630.0422 679.1469,629.475 Q679.0953,629.0797 678.8891,628.8734 Q678.5281,628.4609 677.8578,628.2203 Q677.1875,627.9797 676.5,627.9797 Q675.6578,627.9797 674.9531,628.3406 Q674.2656,628.7016 673.7156,629.5266 Q673.1828,630.3516 673.1828,631.4859 L673.1828,632.6891 Q673.1828,634.0469 674.1625,634.9578 Q675.1422,635.8516 676.8953,635.8516 Q677.9266,635.8516 678.6484,635.5766 Q679.0781,635.4047 679.5422,634.9234 Q679.8344,634.6313 679.9891,634.5453 Q680.1609,634.4594 680.3844,634.4594 Q680.7453,634.4594 681.0203,634.7516 Q681.3125,635.0266 681.3125,635.4047 Q681.3125,635.7828 680.9344,636.2297 Q680.3844,636.8656 679.5078,637.2266 Q678.3219,637.725 676.8953,637.725 Q675.2281,637.725 673.9047,637.0375 Q672.8219,636.4875 672.0656,635.3188 Q671.3094,634.1328 671.3094,632.7234 L671.3094,631.4516 Q671.3094,629.9906 671.9797,628.7359 Q672.6672,627.4641 673.8703,626.7938 Q675.0734,626.1063 676.4313,626.1063 Q677.2391,626.1063 677.9438,626.2953 Q678.6656,626.4672 679.2672,626.8625 Z " fill="#000000"/><text fill="#000000" font-family="sans-serif" font-size="15.4" lengthAdjust="spacing" textLength="27.5" x="698.775" y="637.7766">Skill</text><line style="stroke:#181818;stroke-width:0.55;" x1="626.45" x2="762.85" y1="649" y2="649"/><text fill="#000000" font-family="sans-serif" font-size="15.4" lengthAdjust="spacing" textLength="89.1" x="631.95" y="670.0182">-String name</text><line style="stroke:#181818;stroke-width:0.55;" x1="626.45" x2="762.85" y1="678.2832" y2="678.2832"/><text fill="#000000" font-family="sans-serif" font-size="15.4" lengthAdjust="spacing" textLength="125.4" x="631.95" y="699.3014">-validateSkill(Skill)</text><text fill="#000000" font-family="sans-serif" font-size="15.4" lengthAdjust="spacing" textLength="85.8" x="631.95" y="719.7846">+Skill(name)</text></g><!--class AssignSkillController--><g id="elem_AssignSkillController"><rect codeLine="17" fill="#F1F1F1" height="175.6992" id="AssignSkillController" rx="2.75" ry="2.75" style="stroke:#181818;stroke-width:0.55;" width="304.7" x="898.7" y="68.75"/><ellipse cx="975.425" cy="86.35" fill="#ADD1B2" rx="12.1" ry="12.1" style="stroke:#181818;stroke-width:1.1;"/><path d="M978.4672,81.8125 Q978.6391,81.5719 978.8453,81.4516 Q979.0516,81.3313 979.2922,81.3313 Q979.7047,81.3313 979.9625,81.6234 Q980.2203,81.8984 980.2203,82.5688 L980.2203,84.1672 Q980.2203,84.8375 979.9625,85.1297 Q979.7047,85.4219 979.2922,85.4219 Q978.9141,85.4219 978.6906,85.1984 Q978.4672,84.9922 978.3469,84.425 Q978.2953,84.0297 978.0891,83.8234 Q977.7281,83.4109 977.0578,83.1703 Q976.3875,82.9297 975.7,82.9297 Q974.8578,82.9297 974.1531,83.2906 Q973.4656,83.6516 972.9156,84.4766 Q972.3828,85.3016 972.3828,86.4359 L972.3828,87.6391 Q972.3828,88.9969 973.3625,89.9078 Q974.3422,90.8016 976.0953,90.8016 Q977.1266,90.8016 977.8484,90.5266 Q978.2781,90.3547 978.7422,89.8734 Q979.0344,89.5813 979.1891,89.4953 Q979.3609,89.4094 979.5844,89.4094 Q979.9453,89.4094 980.2203,89.7016 Q980.5125,89.9766 980.5125,90.3547 Q980.5125,90.7328 980.1344,91.1797 Q979.5844,91.8156 978.7078,92.1766 Q977.5219,92.675 976.0953,92.675 Q974.4281,92.675 973.1047,91.9875 Q972.0219,91.4375 971.2656,90.2688 Q970.5094,89.0828 970.5094,87.6734 L970.5094,86.4016 Q970.5094,84.9406 971.1797,83.6859 Q971.8672,82.4141 973.0703,81.7438 Q974.2734,81.0563 975.6313,81.0563 Q976.4391,81.0563 977.1438,81.2453 Q977.8656,81.4172 978.4672,81.8125 Z " fill="#000000"/><text fill="#000000" font-family="sans-serif" font-size="15.4" lengthAdjust="spacing" textLength="141.9" x="997.975" y="92.7266">AssignSkillController</text><line style="stroke:#181818;stroke-width:0.55;" x1="899.8" x2="1202.3" y1="103.95" y2="103.95"/><line style="stroke:#181818;stroke-width:0.55;" x1="899.8" x2="1202.3" y1="112.75" y2="112.75"/><text fill="#000000" font-family="sans-serif" font-size="15.4" lengthAdjust="spacing" textLength="161.7" x="905.3" y="133.7682">+AssignSkillController()</text><text fill="#000000" font-family="sans-serif" font-size="15.4" lengthAdjust="spacing" textLength="130.9" x="905.3" y="154.2514">+assignSkill(name)</text><text fill="#000000" font-family="sans-serif" font-size="15.4" lengthAdjust="spacing" textLength="291.5" x="905.3" y="174.7346">+AssignSkillCollaborator(collaborator,skill)</text><text fill="#000000" font-family="sans-serif" font-size="15.4" lengthAdjust="spacing" textLength="190.3" x="905.3" y="195.2178">+getCollaboratorList(name)</text><text fill="#000000" font-family="sans-serif" font-size="15.4" lengthAdjust="spacing" textLength="122.1" x="905.3" y="215.701">+skillListAdd(skill)</text><text fill="#000000" font-family="sans-serif" font-size="15.4" lengthAdjust="spacing" textLength="182.6" x="905.3" y="236.1842">+getSkillList(skillListName)</text></g><!--class AssignSkillUI--><g id="elem_AssignSkillUI"><rect codeLine="27" fill="#F1F1F1" height="52.8" id="AssignSkillUI" rx="2.75" ry="2.75" style="stroke:#181818;stroke-width:0.55;" width="122.1" x="738.1" y="130.35"/><ellipse cx="754.6" cy="147.95" fill="#ADD1B2" rx="12.1" ry="12.1" style="stroke:#181818;stroke-width:1.1;"/><path d="M757.6422,143.4125 Q757.8141,143.1719 758.0203,143.0516 Q758.2266,142.9313 758.4672,142.9313 Q758.8797,142.9313 759.1375,143.2234 Q759.3953,143.4984 759.3953,144.1688 L759.3953,145.7672 Q759.3953,146.4375 759.1375,146.7297 Q758.8797,147.0219 758.4672,147.0219 Q758.0891,147.0219 757.8656,146.7984 Q757.6422,146.5922 757.5219,146.025 Q757.4703,145.6297 757.2641,145.4234 Q756.9031,145.0109 756.2328,144.7703 Q755.5625,144.5297 754.875,144.5297 Q754.0328,144.5297 753.3281,144.8906 Q752.6406,145.2516 752.0906,146.0766 Q751.5578,146.9016 751.5578,148.0359 L751.5578,149.2391 Q751.5578,150.5969 752.5375,151.5078 Q753.5172,152.4016 755.2703,152.4016 Q756.3016,152.4016 757.0234,152.1266 Q757.4531,151.9547 757.9172,151.4734 Q758.2094,151.1813 758.3641,151.0953 Q758.5359,151.0094 758.7594,151.0094 Q759.1203,151.0094 759.3953,151.3016 Q759.6875,151.5766 759.6875,151.9547 Q759.6875,152.3328 759.3094,152.7797 Q758.7594,153.4156 757.8828,153.7766 Q756.6969,154.275 755.2703,154.275 Q753.6031,154.275 752.2797,153.5875 Q751.1969,153.0375 750.4406,151.8688 Q749.6844,150.6828 749.6844,149.2734 L749.6844,148.0016 Q749.6844,146.5406 750.3547,145.2859 Q751.0422,144.0141 752.2453,143.3438 Q753.4484,142.6563 754.8063,142.6563 Q755.6141,142.6563 756.3188,142.8453 Q757.0406,143.0172 757.6422,143.4125 Z " fill="#000000"/><text fill="#000000" font-family="sans-serif" font-size="15.4" lengthAdjust="spacing" textLength="86.9" x="770" y="154.3266">AssignSkillUI</text><line style="stroke:#181818;stroke-width:0.55;" x1="739.2" x2="859.1" y1="165.55" y2="165.55"/><line style="stroke:#181818;stroke-width:0.55;" x1="739.2" x2="859.1" y1="174.35" y2="174.35"/></g><!--class Document--><g id="elem_Document"><rect codeLine="30" fill="#F1F1F1" height="93.7664" id="Document" rx="2.75" ry="2.75" style="stroke:#181818;stroke-width:0.55;" width="105.6" x="472.45" y="413.05"/><ellipse cx="488.95" cy="430.65" fill="#ADD1B2" rx="12.1" ry="12.1" style="stroke:#181818;stroke-width:1.1;"/><path d="M491.9922,426.1125 Q492.1641,425.8719 492.3703,425.7516 Q492.5766,425.6313 492.8172,425.6313 Q493.2297,425.6313 493.4875,425.9234 Q493.7453,426.1984 493.7453,426.8688 L493.7453,428.4672 Q493.7453,429.1375 493.4875,429.4297 Q493.2297,429.7219 492.8172,429.7219 Q492.4391,429.7219 492.2156,429.4984 Q491.9922,429.2922 491.8719,428.725 Q491.8203,428.3297 491.6141,428.1234 Q491.2531,427.7109 490.5828,427.4703 Q489.9125,427.2297 489.225,427.2297 Q488.3828,427.2297 487.6781,427.5906 Q486.9906,427.9516 486.4406,428.7766 Q485.9078,429.6016 485.9078,430.7359 L485.9078,431.9391 Q485.9078,433.2969 486.8875,434.2078 Q487.8672,435.1016 489.6203,435.1016 Q490.6516,435.1016 491.3734,434.8266 Q491.8031,434.6547 492.2672,434.1734 Q492.5594,433.8813 492.7141,433.7953 Q492.8859,433.7094 493.1094,433.7094 Q493.4703,433.7094 493.7453,434.0016 Q494.0375,434.2766 494.0375,434.6547 Q494.0375,435.0328 493.6594,435.4797 Q493.1094,436.1156 492.2328,436.4766 Q491.0469,436.975 489.6203,436.975 Q487.9531,436.975 486.6297,436.2875 Q485.5469,435.7375 484.7906,434.5688 Q484.0344,433.3828 484.0344,431.9734 L484.0344,430.7016 Q484.0344,429.2406 484.7047,427.9859 Q485.3922,426.7141 486.5953,426.0438 Q487.7984,425.3563 489.1563,425.3563 Q489.9641,425.3563 490.6688,425.5453 Q491.3906,425.7172 491.9922,426.1125 Z " fill="#000000"/><text fill="#000000" font-family="sans-serif" font-size="15.4" lengthAdjust="spacing" textLength="70.4" x="504.35" y="437.0266">Document</text><line style="stroke:#181818;stroke-width:0.55;" x1="473.55" x2="576.95" y1="448.25" y2="448.25"/><text fill="#000000" font-family="sans-serif" font-size="15.4" lengthAdjust="spacing" textLength="60.5" x="479.05" y="469.2682">docType</text><text fill="#000000" font-family="sans-serif" font-size="15.4" lengthAdjust="spacing" textLength="52.8" x="479.05" y="489.7514">number</text><line style="stroke:#181818;stroke-width:0.55;" x1="473.55" x2="576.95" y1="498.0164" y2="498.0164"/></g><!--class Collaborator--><g id="elem_Collaborator"><rect codeLine="35" fill="#F1F1F1" height="298.5984" id="Collaborator" rx="2.75" ry="2.75" style="stroke:#181818;stroke-width:0.55;" width="691.9" x="7.7" y="7.7"/><ellipse cx="306.075" cy="25.3" fill="#ADD1B2" rx="12.1" ry="12.1" style="stroke:#181818;stroke-width:1.1;"/><path d="M309.1172,20.7625 Q309.2891,20.5219 309.4953,20.4016 Q309.7016,20.2813 309.9422,20.2813 Q310.3547,20.2813 310.6125,20.5734 Q310.8703,20.8484 310.8703,21.5188 L310.8703,23.1172 Q310.8703,23.7875 310.6125,24.0797 Q310.3547,24.3719 309.9422,24.3719 Q309.5641,24.3719 309.3406,24.1484 Q309.1172,23.9422 308.9969,23.375 Q308.9453,22.9797 308.7391,22.7734 Q308.3781,22.3609 307.7078,22.1203 Q307.0375,21.8797 306.35,21.8797 Q305.5078,21.8797 304.8031,22.2406 Q304.1156,22.6016 303.5656,23.4266 Q303.0328,24.2516 303.0328,25.3859 L303.0328,26.5891 Q303.0328,27.9469 304.0125,28.8578 Q304.9922,29.7516 306.7453,29.7516 Q307.7766,29.7516 308.4984,29.4766 Q308.9281,29.3047 309.3922,28.8234 Q309.6844,28.5313 309.8391,28.4453 Q310.0109,28.3594 310.2344,28.3594 Q310.5953,28.3594 310.8703,28.6516 Q311.1625,28.9266 311.1625,29.3047 Q311.1625,29.6828 310.7844,30.1297 Q310.2344,30.7656 309.3578,31.1266 Q308.1719,31.625 306.7453,31.625 Q305.0781,31.625 303.7547,30.9375 Q302.6719,30.3875 301.9156,29.2188 Q301.1594,28.0328 301.1594,26.6234 L301.1594,25.3516 Q301.1594,23.8906 301.8297,22.6359 Q302.5172,21.3641 303.7203,20.6938 Q304.9234,20.0063 306.2813,20.0063 Q307.0891,20.0063 307.7938,20.1953 Q308.5156,20.3672 309.1172,20.7625 Z " fill="#000000"/><text fill="#000000" font-family="sans-serif" font-size="15.4" lengthAdjust="spacing" textLength="85.8" x="328.625" y="31.6766">Collaborator</text><line style="stroke:#181818;stroke-width:0.55;" x1="8.8" x2="698.5" y1="42.9" y2="42.9"/><text fill="#000000" font-family="sans-serif" font-size="15.4" lengthAdjust="spacing" textLength="89.1" x="14.3" y="63.9182">-String name</text><text fill="#000000" font-family="sans-serif" font-size="15.4" lengthAdjust="spacing" textLength="128.7" x="14.3" y="84.4014">-List&lt;Skill&gt; skillList</text><text fill="#000000" font-family="sans-serif" font-size="15.4" lengthAdjust="spacing" textLength="55" x="14.3" y="104.8846">-Job job</text><text fill="#000000" font-family="sans-serif" font-size="15.4" lengthAdjust="spacing" textLength="122.1" x="14.3" y="125.3678">-Date dateOfBirth</text><text fill="#000000" font-family="sans-serif" font-size="15.4" lengthAdjust="spacing" textLength="145.2" x="14.3" y="145.851">-Date admissionDate</text><text fill="#000000" font-family="sans-serif" font-size="15.4" lengthAdjust="spacing" textLength="148.5" x="14.3" y="166.3342">-String phoneNumber</text><text fill="#000000" font-family="sans-serif" font-size="15.4" lengthAdjust="spacing" textLength="86.9" x="14.3" y="186.8174">-String email</text><text fill="#000000" font-family="sans-serif" font-size="15.4" lengthAdjust="spacing" textLength="85.8" x="14.3" y="207.3006">-int taxpayer</text><text fill="#000000" font-family="sans-serif" font-size="15.4" lengthAdjust="spacing" textLength="148.5" x="14.3" y="227.7838">-Document document</text><text fill="#000000" font-family="sans-serif" font-size="15.4" lengthAdjust="spacing" textLength="105.6" x="14.3" y="248.267">-Adress adress</text><line style="stroke:#181818;stroke-width:0.55;" x1="8.8" x2="698.5" y1="256.532" y2="256.532"/><text fill="#000000" font-family="sans-serif" font-size="15.4" lengthAdjust="spacing" textLength="678.7" x="14.3" y="277.5502">+Collaborator(name,adress,document,dateOfBirth, admissionDate,phoneNumber, email, taxpayer)</text><text fill="#000000" font-family="sans-serif" font-size="15.4" lengthAdjust="spacing" textLength="124.3" x="14.3" y="298.0334">+skillListAdd(Skill)</text></g><!--class HumanResourcesManager--><g id="elem_HumanResourcesManager"><rect codeLine="50" fill="#F1F1F1" height="52.8" id="HumanResourcesManager" rx="2.75" ry="2.75" style="stroke:#181818;stroke-width:0.55;" width="220" x="111.65" y="433.4"/><ellipse cx="128.15" cy="451" fill="#ADD1B2" rx="12.1" ry="12.1" style="stroke:#181818;stroke-width:1.1;"/><path d="M131.1922,446.4625 Q131.3641,446.2219 131.5703,446.1016 Q131.7766,445.9813 132.0172,445.9813 Q132.4297,445.9813 132.6875,446.2734 Q132.9453,446.5484 132.9453,447.2188 L132.9453,448.8172 Q132.9453,449.4875 132.6875,449.7797 Q132.4297,450.0719 132.0172,450.0719 Q131.6391,450.0719 131.4156,449.8484 Q131.1922,449.6422 131.0719,449.075 Q131.0203,448.6797 130.8141,448.4734 Q130.4531,448.0609 129.7828,447.8203 Q129.1125,447.5797 128.425,447.5797 Q127.5828,447.5797 126.8781,447.9406 Q126.1906,448.3016 125.6406,449.1266 Q125.1078,449.9516 125.1078,451.0859 L125.1078,452.2891 Q125.1078,453.6469 126.0875,454.5578 Q127.0672,455.4516 128.8203,455.4516 Q129.8516,455.4516 130.5734,455.1766 Q131.0031,455.0047 131.4672,454.5234 Q131.7594,454.2313 131.9141,454.1453 Q132.0859,454.0594 132.3094,454.0594 Q132.6703,454.0594 132.9453,454.3516 Q133.2375,454.6266 133.2375,455.0047 Q133.2375,455.3828 132.8594,455.8297 Q132.3094,456.4656 131.4328,456.8266 Q130.2469,457.325 128.8203,457.325 Q127.1531,457.325 125.8297,456.6375 Q124.7469,456.0875 123.9906,454.9188 Q123.2344,453.7328 123.2344,452.3234 L123.2344,451.0516 Q123.2344,449.5906 123.9047,448.3359 Q124.5922,447.0641 125.7953,446.3938 Q126.9984,445.7063 128.3563,445.7063 Q129.1641,445.7063 129.8688,445.8953 Q130.5906,446.0672 131.1922,446.4625 Z " fill="#000000"/><text fill="#000000" font-family="sans-serif" font-size="15.4" lengthAdjust="spacing" textLength="184.8" x="143.55" y="457.3766">HumanResourcesManager</text><line style="stroke:#181818;stroke-width:0.55;" x1="112.75" x2="330.55" y1="468.6" y2="468.6"/><line style="stroke:#181818;stroke-width:0.55;" x1="112.75" x2="330.55" y1="477.4" y2="477.4"/></g><!--class Repositories--><g id="elem_Repositories"><rect codeLine="53" fill="#F1F1F1" height="114.2496" id="Repositories" rx="2.75" ry="2.75" style="stroke:#181818;stroke-width:0.55;" width="213.4" x="1317.25" y="99.55"/><ellipse cx="1375.825" cy="117.15" fill="#ADD1B2" rx="12.1" ry="12.1" style="stroke:#181818;stroke-width:1.1;"/><path d="M1378.8672,112.6125 Q1379.0391,112.3719 1379.2453,112.2516 Q1379.4516,112.1313 1379.6922,112.1313 Q1380.1047,112.1313 1380.3625,112.4234 Q1380.6203,112.6984 1380.6203,113.3688 L1380.6203,114.9672 Q1380.6203,115.6375 1380.3625,115.9297 Q1380.1047,116.2219 1379.6922,116.2219 Q1379.3141,116.2219 1379.0906,115.9984 Q1378.8672,115.7922 1378.7469,115.225 Q1378.6953,114.8297 1378.4891,114.6234 Q1378.1281,114.2109 1377.4578,113.9703 Q1376.7875,113.7297 1376.1,113.7297 Q1375.2578,113.7297 1374.5531,114.0906 Q1373.8656,114.4516 1373.3156,115.2766 Q1372.7828,116.1016 1372.7828,117.2359 L1372.7828,118.4391 Q1372.7828,119.7969 1373.7625,120.7078 Q1374.7422,121.6016 1376.4953,121.6016 Q1377.5266,121.6016 1378.2484,121.3266 Q1378.6781,121.1547 1379.1422,120.6734 Q1379.4344,120.3813 1379.5891,120.2953 Q1379.7609,120.2094 1379.9844,120.2094 Q1380.3453,120.2094 1380.6203,120.5016 Q1380.9125,120.7766 1380.9125,121.1547 Q1380.9125,121.5328 1380.5344,121.9797 Q1379.9844,122.6156 1379.1078,122.9766 Q1377.9219,123.475 1376.4953,123.475 Q1374.8281,123.475 1373.5047,122.7875 Q1372.4219,122.2375 1371.6656,121.0688 Q1370.9094,119.8828 1370.9094,118.4734 L1370.9094,117.2016 Q1370.9094,115.7406 1371.5797,114.4859 Q1372.2672,113.2141 1373.4703,112.5438 Q1374.6734,111.8563 1376.0313,111.8563 Q1376.8391,111.8563 1377.5438,112.0453 Q1378.2656,112.2172 1378.8672,112.6125 Z " fill="#000000"/><text fill="#000000" font-family="sans-serif" font-size="15.4" lengthAdjust="spacing" textLength="86.9" x="1398.375" y="123.5266">Repositories</text><line style="stroke:#181818;stroke-width:0.55;" x1="1318.35" x2="1529.55" y1="134.75" y2="134.75"/><line style="stroke:#181818;stroke-width:0.55;" x1="1318.35" x2="1529.55" y1="143.55" y2="143.55"/><text fill="#000000" font-family="sans-serif" font-size="15.4" lengthAdjust="spacing" textLength="103.4" x="1323.85" y="164.5682">-Repositories()</text><text fill="#000000" font-family="sans-serif" font-size="15.4" lengthAdjust="spacing" textLength="200.2" x="1323.85" y="185.0514">+getInstance() : Repositories</text><text fill="#000000" font-family="sans-serif" font-size="15.4" lengthAdjust="spacing" textLength="144.1" x="1323.85" y="205.5346">+getSkillRepository()</text></g><!--class SkillRepository--><g id="elem_SkillRepository"><rect codeLine="60" fill="#F1F1F1" height="134.7328" id="SkillRepository" rx="2.75" ry="2.75" style="stroke:#181818;stroke-width:0.55;" width="192.5" x="1039.5" y="392.7"/><ellipse cx="1080.75" cy="410.3" fill="#ADD1B2" rx="12.1" ry="12.1" style="stroke:#181818;stroke-width:1.1;"/><path d="M1083.7922,405.7625 Q1083.9641,405.5219 1084.1703,405.4016 Q1084.3766,405.2813 1084.6172,405.2813 Q1085.0297,405.2813 1085.2875,405.5734 Q1085.5453,405.8484 1085.5453,406.5188 L1085.5453,408.1172 Q1085.5453,408.7875 1085.2875,409.0797 Q1085.0297,409.3719 1084.6172,409.3719 Q1084.2391,409.3719 1084.0156,409.1484 Q1083.7922,408.9422 1083.6719,408.375 Q1083.6203,407.9797 1083.4141,407.7734 Q1083.0531,407.3609 1082.3828,407.1203 Q1081.7125,406.8797 1081.025,406.8797 Q1080.1828,406.8797 1079.4781,407.2406 Q1078.7906,407.6016 1078.2406,408.4266 Q1077.7078,409.2516 1077.7078,410.3859 L1077.7078,411.5891 Q1077.7078,412.9469 1078.6875,413.8578 Q1079.6672,414.7516 1081.4203,414.7516 Q1082.4516,414.7516 1083.1734,414.4766 Q1083.6031,414.3047 1084.0672,413.8234 Q1084.3594,413.5313 1084.5141,413.4453 Q1084.6859,413.3594 1084.9094,413.3594 Q1085.2703,413.3594 1085.5453,413.6516 Q1085.8375,413.9266 1085.8375,414.3047 Q1085.8375,414.6828 1085.4594,415.1297 Q1084.9094,415.7656 1084.0328,416.1266 Q1082.8469,416.625 1081.4203,416.625 Q1079.7531,416.625 1078.4297,415.9375 Q1077.3469,415.3875 1076.5906,414.2188 Q1075.8344,413.0328 1075.8344,411.6234 L1075.8344,410.3516 Q1075.8344,408.8906 1076.5047,407.6359 Q1077.1922,406.3641 1078.3953,405.6938 Q1079.5984,405.0063 1080.9563,405.0063 Q1081.7641,405.0063 1082.4688,405.1953 Q1083.1906,405.3672 1083.7922,405.7625 Z " fill="#000000"/><text fill="#000000" font-family="sans-serif" font-size="15.4" lengthAdjust="spacing" textLength="102.3" x="1101.65" y="416.6766">SkillRepository</text><line style="stroke:#181818;stroke-width:0.55;" x1="1040.6" x2="1230.9" y1="427.9" y2="427.9"/><text fill="#000000" font-family="sans-serif" font-size="15.4" lengthAdjust="spacing" textLength="108.9" x="1046.1" y="448.9182">-List &lt;Skill&gt; skill</text><line style="stroke:#181818;stroke-width:0.55;" x1="1040.6" x2="1230.9" y1="457.1832" y2="457.1832"/><text fill="#000000" font-family="sans-serif" font-size="15.4" lengthAdjust="spacing" textLength="125.4" x="1046.1" y="478.2014">-validateSkill(Skill)</text><text fill="#000000" font-family="sans-serif" font-size="15.4" lengthAdjust="spacing" textLength="118.8" x="1046.1" y="498.6846">-skillListAdd(skill)</text><text fill="#000000" font-family="sans-serif" font-size="15.4" lengthAdjust="spacing" textLength="179.3" x="1046.1" y="519.1678">-getSkillList(skillListName)</text></g><!--class CollaboratorRepository--><g id="elem_CollaboratorRepository"><rect codeLine="68" fill="#F1F1F1" height="93.7664" id="CollaboratorRepository" rx="2.75" ry="2.75" style="stroke:#181818;stroke-width:0.55;" width="304.7" x="617.1" y="413.05"/><ellipse cx="684.475" cy="430.65" fill="#ADD1B2" rx="12.1" ry="12.1" style="stroke:#181818;stroke-width:1.1;"/><path d="M687.5172,426.1125 Q687.6891,425.8719 687.8953,425.7516 Q688.1016,425.6313 688.3422,425.6313 Q688.7547,425.6313 689.0125,425.9234 Q689.2703,426.1984 689.2703,426.8688 L689.2703,428.4672 Q689.2703,429.1375 689.0125,429.4297 Q688.7547,429.7219 688.3422,429.7219 Q687.9641,429.7219 687.7406,429.4984 Q687.5172,429.2922 687.3969,428.725 Q687.3453,428.3297 687.1391,428.1234 Q686.7781,427.7109 686.1078,427.4703 Q685.4375,427.2297 684.75,427.2297 Q683.9078,427.2297 683.2031,427.5906 Q682.5156,427.9516 681.9656,428.7766 Q681.4328,429.6016 681.4328,430.7359 L681.4328,431.9391 Q681.4328,433.2969 682.4125,434.2078 Q683.3922,435.1016 685.1453,435.1016 Q686.1766,435.1016 686.8984,434.8266 Q687.3281,434.6547 687.7922,434.1734 Q688.0844,433.8813 688.2391,433.7953 Q688.4109,433.7094 688.6344,433.7094 Q688.9953,433.7094 689.2703,434.0016 Q689.5625,434.2766 689.5625,434.6547 Q689.5625,435.0328 689.1844,435.4797 Q688.6344,436.1156 687.7578,436.4766 Q686.5719,436.975 685.1453,436.975 Q683.4781,436.975 682.1547,436.2875 Q681.0719,435.7375 680.3156,434.5688 Q679.5594,433.3828 679.5594,431.9734 L679.5594,430.7016 Q679.5594,429.2406 680.2297,427.9859 Q680.9172,426.7141 682.1203,426.0438 Q683.3234,425.3563 684.6813,425.3563 Q685.4891,425.3563 686.1938,425.5453 Q686.9156,425.7172 687.5172,426.1125 Z " fill="#000000"/><text fill="#000000" font-family="sans-serif" font-size="15.4" lengthAdjust="spacing" textLength="160.6" x="707.025" y="437.0266">CollaboratorRepository</text><line style="stroke:#181818;stroke-width:0.55;" x1="618.2" x2="920.7" y1="448.25" y2="448.25"/><line style="stroke:#181818;stroke-width:0.55;" x1="618.2" x2="920.7" y1="457.05" y2="457.05"/><text fill="#000000" font-family="sans-serif" font-size="15.4" lengthAdjust="spacing" textLength="190.3" x="623.7" y="478.0682">+getCollaboratorList(name)</text><text fill="#000000" font-family="sans-serif" font-size="15.4" lengthAdjust="spacing" textLength="291.5" x="623.7" y="498.5514">+AssignSkillCollaborator(collaborator,skill)</text></g><!--link AssignSkillController to Repositories--><g id="link_AssignSkillController_Repositories"><path codeLine="74" d="M1203.796,156.75 C1241.812,156.75 1275.164,156.75 1310.43,156.75 " fill="none" id="AssignSkillController-to-Repositories" style="stroke:#181818;stroke-width:1.1;stroke-dasharray:7.0,7.0;"/><polygon fill="#181818" points="1317.03,156.75,1307.13,152.35,1311.53,156.75,1307.13,161.15,1317.03,156.75" style="stroke:#181818;stroke-width:1.1;"/><text fill="#000000" font-family="sans-serif" font-size="14.3" lengthAdjust="spacing" textLength="73.7" x="1223.475" y="149.0812">repositories</text></g><!--link AssignSkillUI to AssignSkillController--><g id="link_AssignSkillUI_AssignSkillController"><path codeLine="75" d="M860.618,156.75 C873.422,156.75 883.113,156.75 883.113,156.75 C883.113,156.75 882.794,156.75 891.913,156.75 " fill="none" id="AssignSkillUI-to-AssignSkillController" style="stroke:#181818;stroke-width:1.1;stroke-dasharray:7.0,7.0;"/><polygon fill="#181818" points="898.513,156.75,888.613,152.35,893.013,156.75,888.613,161.15,898.513,156.75" style="stroke:#181818;stroke-width:1.1;"/></g><!--link Repositories to Repositories--><g id="link_Repositories_Repositories"><path codeLine="76" d="M1530.958,122.122 C1553.178,125.774 1569.15,137.313 1569.15,156.75 C1569.15,176.187 1559.6906,186.6556 1537.4706,190.3076 " fill="none" id="Repositories-to-Repositories" style="stroke:#181818;stroke-width:1.1;"/><polygon fill="#181818" points="1530.958,191.378,1541.4405,194.1142,1536.3852,190.486,1540.0133,185.4307,1530.958,191.378" style="stroke:#181818;stroke-width:1.1;"/><text fill="#000000" font-family="sans-serif" font-size="14.3" lengthAdjust="spacing" textLength="53.9" x="1575.75" y="162.8312">instance</text></g><!--link Repositories to CollaboratorRepository--><g id="link_Repositories_CollaboratorRepository"><path codeLine="77" d="M1347.555,213.994 C1290.619,255.849 1222.65,305.8 1222.65,305.8 C1222.65,305.8 1044.6098,365.8735 911.0698,410.9185 " fill="none" id="Repositories-to-CollaboratorRepository" style="stroke:#181818;stroke-width:1.1;"/><polygon fill="#181818" points="904.816,413.028,915.603,414.033,910.0275,411.2701,912.7904,405.6946,904.816,413.028" style="stroke:#181818;stroke-width:1.1;"/><text fill="#000000" font-family="sans-serif" font-size="14.3" lengthAdjust="spacing" textLength="144.1" x="1125.85" y="355.3312">CollaboratorRepository</text><text fill="#000000" font-family="sans-serif" font-size="14.3" lengthAdjust="spacing" textLength="7.7" x="918.0764" y="400.819">1</text></g><!--link Repositories to SkillRepository--><g id="link_Repositories_SkillRepository"><path codeLine="78" d="M1401.587,214.071 C1377.827,273.801 1343.65,359.7 1343.65,359.7 C1343.65,359.7 1292.431,384.0877 1238.047,409.9817 " fill="none" id="Repositories-to-SkillRepository" style="stroke:#181818;stroke-width:1.1;"/><polygon fill="#181818" points="1232.088,412.819,1242.918,412.5358,1237.0538,410.4546,1239.135,404.5904,1232.088,412.819" style="stroke:#181818;stroke-width:1.1;"/><text fill="#000000" font-family="sans-serif" font-size="14.3" lengthAdjust="spacing" textLength="95.7" x="1351.35" y="355.3312">SkillRepository</text><text fill="#000000" font-family="sans-serif" font-size="14.3" lengthAdjust="spacing" textLength="7.7" x="1240.6979" y="404.7001">1</text></g><!--link SkillRepository to Skill--><g id="link_SkillRepository_Skill"><path codeLine="79" d="M1065.845,527.164 C1036.585,554.895 1009.25,580.8 1009.25,580.8 C1009.25,580.8 863.0743,622.1987 770.4323,648.4337 " fill="none" id="SkillRepository-to-Skill" style="stroke:#181818;stroke-width:1.1;"/><polygon fill="#181818" points="764.082,650.232,774.8063,651.768,769.3739,648.7334,772.4085,643.301,764.082,650.232" style="stroke:#181818;stroke-width:1.1;"/><text fill="#000000" font-family="sans-serif" font-size="14.3" lengthAdjust="spacing" textLength="25.3" x="1031.25" y="576.4312">skill</text><text fill="#000000" font-family="sans-serif" font-size="14.3" lengthAdjust="spacing" textLength="7.7" x="1049.6171" y="551.4529">1</text><text fill="#000000" font-family="sans-serif" font-size="14.3" lengthAdjust="spacing" textLength="5.5" x="772.8792" y="643.3212">*</text></g><!--reverse link Collaborator to HumanResourcesManager--><g id="link_Collaborator_HumanResourcesManager"><path codeLine="80" d="M280.6628,324.2066 C259.1908,373.1456 245.531,404.272 232.881,433.103 " fill="none" id="Collaborator-backto-HumanResourcesManager" style="stroke:#181818;stroke-width:1.1;"/><polygon fill="none" points="288.618,306.075,274.6189,321.5548,286.7066,326.8583,288.618,306.075" style="stroke:#181818;stroke-width:1.1;"/></g><!--link AssignSkillController to Skill--><g id="link_AssignSkillController_Skill"><path codeLine="81" d="M1025.123,244.838 C992.596,353.947 941.05,526.9 941.05,526.9 C941.05,526.9 842.8414,583.9003 769.9774,626.1843 " fill="none" id="AssignSkillController-to-Skill" style="stroke:#181818;stroke-width:1.1;stroke-dasharray:7.0,7.0;"/><polygon fill="#181818" points="764.269,629.497,775.0401,628.3336,769.026,626.7364,770.6232,620.7224,764.269,629.497" style="stroke:#181818;stroke-width:1.1;"/></g><!--link AssignSkillController to SkillRepository--><g id="link_AssignSkillController_SkillRepository"><path codeLine="82" d="M1075.547,244.871 C1088.791,291.896 1103.0955,342.6989 1115.3055,386.0719 " fill="none" id="AssignSkillController-to-SkillRepository" style="stroke:#181818;stroke-width:1.1;stroke-dasharray:7.0,7.0;"/><polygon fill="#181818" points="1117.094,392.425,1118.6467,381.7031,1115.6036,387.1308,1110.1759,384.0877,1117.094,392.425" style="stroke:#181818;stroke-width:1.1;"/></g><!--reverse link HumanResourcesManager to Skill--><g id="link_HumanResourcesManager_Skill"><path codeLine="84" d="M245.8021,491.5134 C273.5661,526.7024 316.25,580.8 316.25,580.8 C316.25,580.8 516.01,627.836 625.251,653.554 " fill="none" id="HumanResourcesManager-backto-Skill" style="stroke:#181818;stroke-width:1.1;"/><polygon fill="#181818" points="241.714,486.332,244.3919,496.8296,245.1208,490.6499,251.3005,491.3787,241.714,486.332" style="stroke:#181818;stroke-width:1.1;"/><text fill="#000000" font-family="sans-serif" font-size="14.3" lengthAdjust="spacing" textLength="61.6" x="317.35" y="576.4312">AssignBy</text></g><!--link Collaborator to Skill--><g id="link_Collaborator_Skill"><path codeLine="85" d="M383.647,305.833 C404.448,408.507 428.45,526.9 428.45,526.9 C428.45,526.9 540.3686,587.0271 619.2386,629.3881 " fill="none" id="Collaborator-to-Skill" style="stroke:#181818;stroke-width:1.1;"/><polygon fill="#181818" points="625.053,632.511,618.4133,623.9504,620.2077,629.9086,614.2494,631.7029,625.053,632.511" style="stroke:#181818;stroke-width:1.1;"/><text fill="#000000" font-family="sans-serif" font-size="14.3" lengthAdjust="spacing" textLength="23.1" x="429.55" y="465.8812">has</text><text fill="#000000" font-family="sans-serif" font-size="14.3" lengthAdjust="spacing" textLength="5.5" x="379.7222" y="330.4184">*</text><text fill="#000000" font-family="sans-serif" font-size="14.3" lengthAdjust="spacing" textLength="5.5" x="611.1879" y="623.738">*</text></g><!--link Collaborator to CollaboratorRepository--><g id="link_Collaborator_CollaboratorRepository"><path codeLine="86" d="M558.195,305.855 C611.963,344.751 660.6703,379.9865 700.6443,408.9165 " fill="none" id="Collaborator-to-CollaboratorRepository" style="stroke:#181818;stroke-width:1.1;stroke-dasharray:7.0,7.0;"/><polygon fill="#181818" points="705.991,412.786,700.5506,403.4173,701.5354,409.5614,695.3913,410.5462,705.991,412.786" style="stroke:#181818;stroke-width:1.1;"/><text fill="#000000" font-family="sans-serif" font-size="14.3" lengthAdjust="spacing" textLength="141.9" x="623.15" y="355.3312">collaboratorRepository</text></g><!--link Collaborator to Document--><g id="link_Collaborator_Document"><path codeLine="87" d="M438.196,306.075 C460.361,344.927 479.3664,378.2548 495.8334,407.1298 " fill="none" id="Collaborator-to-Document" style="stroke:#181818;stroke-width:1.1;"/><polygon fill="#181818" points="499.103,412.863,498.0208,402.0834,496.3784,408.0853,490.3765,406.4429,499.103,412.863" style="stroke:#181818;stroke-width:1.1;"/><text fill="#000000" font-family="sans-serif" font-size="14.3" lengthAdjust="spacing" textLength="23.1" x="465.85" y="355.3312">has</text><text fill="#000000" font-family="sans-serif" font-size="14.3" lengthAdjust="spacing" textLength="7.7" x="435.1612" y="330.6744">1</text><text fill="#000000" font-family="sans-serif" font-size="14.3" lengthAdjust="spacing" textLength="7.7" x="486.6222" y="400.6277">1</text></g><!--SRC=[bLJRZjCm47ttLrZxqfGc25whQgKk-q0HBD8MFi1rfecfOqUs0uJBlsCxbzhPP5VqeKdcd9avdejN-i94JHIfS2M5fAMI5M2Z6a1Nf2RqGWeucfO3La0D4GKF2ReakVp1H87FXEiGuKo0QMl0jUIj-q2h6L0g8r7WHJdHUc-COgV6m85ASMI_0Bz1QCNXRB2HMB6YD3XdJWwJ0Y7lWuyNnZd-ZR3zPVXe8rXHWbJGMxuJpd9YmFCI_x_sqAPpJHntZVuEyVPQiq9uw9qKHadEGTdulSyid0mHoHNjuyvuSKvEKX4ZLKA3ZrI7sWem8VCZqoQAwCdEki_pPEfv7C1af3qidlBhmPvk1EubRIeGfYjeBkaNsox_Bfhg1EhA3EKDzNzIVfTwvzFSNYLtq0Tvmj_agVkujnt2hasVptTCcJAmahnYLgqKxYjAKvTIm4CdAxH3HHZlB4pOsI4_Qz8EdE60xcp-fJFlSmNsKCG_-af6hN9dIZiu7LpJG74Q2qq3SMcdA1sLzAsAUjXFvbZUzqr5n2DesIWA-XCHTXzLsAb7gALcLXe3FSnd5bcJO2GEGjibff2iyJOYJQPcXDea43E1ndLpud7KtvUsBbkStEpPoPsVkqWIsYmlpUP_Dj2cchy5Nj_6LT_Qkp6ePBnKbZmR1KKXiYSXMT-f2SyIRzxUB9r-km3C1vcsSpkre2d3UNdlLxstzUdw7Lq3UFSdo_3yx2xLrDR9srx20tLeVZbsBhVdRllItxMnFYT_UeoIw9Xa4ovMcSvNEKuorCe-nzkcouFGFm00]--></g></svg>