<?xml version="1.0" encoding="us-ascii" standalone="no"?><svg xmlns="http://www.w3.org/2000/svg" xmlns:xlink="http://www.w3.org/1999/xlink" contentStyleType="text/css" height="786px" preserveAspectRatio="none" style="width:1427px;height:786px;background:#FFFFFF;" version="1.1" viewBox="0 0 1427 786" width="1427px" zoomAndPan="magnify"><defs/><g><text fill="#000000" font-family="sans-serif" font-size="14" font-weight="bold" lengthAdjust="spacing" textLength="372" x="525" y="30.1074">UI Sequence Diagram (SD) - US27 - List Green Spaces</text><rect fill="#FFFFFF" height="552.5781" style="stroke:#181818;stroke-width:1.0;" width="10" x="101" y="133.2422"/><rect fill="#FFFFFF" height="529.2871" style="stroke:#181818;stroke-width:1.0;" width="10" x="371" y="156.5332"/><rect fill="#FFFFFF" height="466.7051" style="stroke:#181818;stroke-width:1.0;" width="10" x="644" y="187.8242"/><rect fill="#FFFFFF" height="90.543" style="stroke:#181818;stroke-width:1.0;" width="10" x="649" y="227.1152"/><rect fill="#FFFFFF" height="156.4551" style="stroke:#181818;stroke-width:1.0;" width="10" x="825.5" y="355.9492"/><rect fill="#FFFFFF" height="93.873" style="stroke:#181818;stroke-width:1.0;" width="10" x="1006.5" y="387.2402"/><rect fill="#FFFFFF" height="31.291" style="stroke:#181818;stroke-width:1.0;" width="10" x="1221.5" y="418.5313"/><rect fill="#FFFFFF" height="79.543" style="stroke:#181818;stroke-width:1.0;" width="10" x="1340" y="543.6953"/><line style="stroke:#181818;stroke-width:0.5;stroke-dasharray:5.0,5.0;" x1="106" x2="106" y1="123.2422" y2="703.8203"/><line style="stroke:#181818;stroke-width:0.5;stroke-dasharray:5.0,5.0;" x1="375.5" x2="375.5" y1="123.2422" y2="703.8203"/><line style="stroke:#181818;stroke-width:0.5;stroke-dasharray:5.0,5.0;" x1="648.5" x2="648.5" y1="123.2422" y2="703.8203"/><line style="stroke:#181818;stroke-width:0.5;stroke-dasharray:5.0,5.0;" x1="830.5" x2="830.5" y1="123.2422" y2="703.8203"/><line style="stroke:#181818;stroke-width:0.5;stroke-dasharray:5.0,5.0;" x1="1011" x2="1011" y1="123.2422" y2="703.8203"/><line style="stroke:#181818;stroke-width:0.5;stroke-dasharray:5.0,5.0;" x1="1226" x2="1226" y1="123.2422" y2="703.8203"/><line style="stroke:#181818;stroke-width:0.5;stroke-dasharray:5.0,5.0;" x1="1345" x2="1345" y1="123.2422" y2="703.8203"/><text fill="#000000" font-family="sans-serif" font-size="14" lengthAdjust="spacing" textLength="196" x="5" y="119.7285">Green Spaces Manager (GSM)</text><ellipse cx="106" cy="53.1211" fill="#E3E3E3" rx="8" ry="8" style="stroke:#181818;stroke-width:0.5;"/><path d="M106,61.1211 L106,88.1211 M93,69.1211 L119,69.1211 M106,88.1211 L93,103.1211 M106,88.1211 L119,103.1211 " fill="none" style="stroke:#181818;stroke-width:0.5;"/><text fill="#000000" font-family="sans-serif" font-size="14" lengthAdjust="spacing" textLength="196" x="5" y="717.9277">Green Spaces Manager (GSM)</text><ellipse cx="106" cy="729.9414" fill="#E3E3E3" rx="8" ry="8" style="stroke:#181818;stroke-width:0.5;"/><path d="M106,737.9414 L106,764.9414 M93,745.9414 L119,745.9414 M106,764.9414 L93,779.9414 M106,764.9414 L119,779.9414 " fill="none" style="stroke:#181818;stroke-width:0.5;"/><rect fill="#E3E3E3" height="32.6211" rx="2.5" ry="2.5" style="stroke:#181818;stroke-width:0.5;" width="139" x="306.5" y="89.6211"/><text fill="#000000" font-family="sans-serif" font-size="14" lengthAdjust="spacing" textLength="125" x="313.5" y="111.7285">:ListGreenSpacesUI</text><rect fill="#E3E3E3" height="32.6211" rx="2.5" ry="2.5" style="stroke:#181818;stroke-width:0.5;" width="139" x="306.5" y="702.8203"/><text fill="#000000" font-family="sans-serif" font-size="14" lengthAdjust="spacing" textLength="125" x="313.5" y="724.9277">:ListGreenSpacesUI</text><rect fill="#E3E3E3" height="32.6211" rx="2.5" ry="2.5" style="stroke:#181818;stroke-width:0.5;" width="189" x="554.5" y="89.6211"/><text fill="#000000" font-family="sans-serif" font-size="14" lengthAdjust="spacing" textLength="175" x="561.5" y="111.7285">:ListGreenSpacesController</text><rect fill="#E3E3E3" height="32.6211" rx="2.5" ry="2.5" style="stroke:#181818;stroke-width:0.5;" width="189" x="554.5" y="702.8203"/><text fill="#000000" font-family="sans-serif" font-size="14" lengthAdjust="spacing" textLength="175" x="561.5" y="724.9277">:ListGreenSpacesController</text><rect fill="#E3E3E3" height="51.2422" rx="2.5" ry="2.5" style="stroke:#181818;stroke-width:0.5;" width="154" x="753.5" y="71"/><text fill="#000000" font-family="sans-serif" font-size="14" lengthAdjust="spacing" textLength="56" x="802.5" y="93.1074">manager</text><text fill="#000000" font-family="sans-serif" font-size="14" lengthAdjust="spacing" textLength="140" x="760.5" y="111.7285">:GreenSpaceManager</text><rect fill="#E3E3E3" height="51.2422" rx="2.5" ry="2.5" style="stroke:#181818;stroke-width:0.5;" width="154" x="753.5" y="702.8203"/><text fill="#000000" font-family="sans-serif" font-size="14" lengthAdjust="spacing" textLength="56" x="802.5" y="724.9277">manager</text><text fill="#000000" font-family="sans-serif" font-size="14" lengthAdjust="spacing" textLength="140" x="760.5" y="743.5488">:GreenSpaceManager</text><rect fill="#E3E3E3" height="51.2422" rx="2.5" ry="2.5" style="stroke:#181818;stroke-width:0.5;" width="105" x="959" y="71"/><text fill="#000000" font-family="sans-serif" font-size="14" lengthAdjust="spacing" textLength="84" x="969.5" y="93.1074">greenSpaces</text><text fill="#000000" font-family="sans-serif" font-size="14" lengthAdjust="spacing" textLength="91" x="966" y="111.7285">:GreenSpaces</text><rect fill="#E3E3E3" height="51.2422" rx="2.5" ry="2.5" style="stroke:#181818;stroke-width:0.5;" width="105" x="959" y="702.8203"/><text fill="#000000" font-family="sans-serif" font-size="14" lengthAdjust="spacing" textLength="84" x="969.5" y="724.9277">greenSpaces</text><text fill="#000000" font-family="sans-serif" font-size="14" lengthAdjust="spacing" textLength="91" x="966" y="743.5488">:GreenSpaces</text><rect fill="#E3E3E3" height="51.2422" rx="2.5" ry="2.5" style="stroke:#181818;stroke-width:0.5;" width="71" x="1191" y="71"/><text fill="#000000" font-family="sans-serif" font-size="14" lengthAdjust="spacing" textLength="44" x="1204.5" y="93.1074">sortAlg</text><text fill="#000000" font-family="sans-serif" font-size="14" lengthAdjust="spacing" textLength="57" x="1198" y="111.7285">:Sortable</text><rect fill="#E3E3E3" height="51.2422" rx="2.5" ry="2.5" style="stroke:#181818;stroke-width:0.5;" width="71" x="1191" y="702.8203"/><text fill="#000000" font-family="sans-serif" font-size="14" lengthAdjust="spacing" textLength="44" x="1204.5" y="724.9277">sortAlg</text><text fill="#000000" font-family="sans-serif" font-size="14" lengthAdjust="spacing" textLength="57" x="1198" y="743.5488">:Sortable</text><rect fill="#E3E3E3" height="51.2422" rx="2.5" ry="2.5" style="stroke:#181818;stroke-width:0.5;" width="146" x="1272" y="71"/><text fill="#000000" font-family="sans-serif" font-size="14" lengthAdjust="spacing" textLength="125" x="1282.5" y="93.1074">greenSpaceMapper</text><text fill="#000000" font-family="sans-serif" font-size="14" lengthAdjust="spacing" textLength="132" x="1279" y="111.7285">:GreenSpaceMapper</text><rect fill="#E3E3E3" height="51.2422" rx="2.5" ry="2.5" style="stroke:#181818;stroke-width:0.5;" width="146" x="1272" y="702.8203"/><text fill="#000000" font-family="sans-serif" font-size="14" lengthAdjust="spacing" textLength="125" x="1282.5" y="724.9277">greenSpaceMapper</text><text fill="#000000" font-family="sans-serif" font-size="14" lengthAdjust="spacing" textLength="132" x="1279" y="743.5488">:GreenSpaceMapper</text><rect fill="#FFFFFF" height="552.5781" style="stroke:#181818;stroke-width:1.0;" width="10" x="101" y="133.2422"/><rect fill="#FFFFFF" height="529.2871" style="stroke:#181818;stroke-width:1.0;" width="10" x="371" y="156.5332"/><rect fill="#FFFFFF" height="466.7051" style="stroke:#181818;stroke-width:1.0;" width="10" x="644" y="187.8242"/><rect fill="#FFFFFF" height="90.543" style="stroke:#181818;stroke-width:1.0;" width="10" x="649" y="227.1152"/><rect fill="#FFFFFF" height="156.4551" style="stroke:#181818;stroke-width:1.0;" width="10" x="825.5" y="355.9492"/><rect fill="#FFFFFF" height="93.873" style="stroke:#181818;stroke-width:1.0;" width="10" x="1006.5" y="387.2402"/><rect fill="#FFFFFF" height="31.291" style="stroke:#181818;stroke-width:1.0;" width="10" x="1221.5" y="418.5313"/><rect fill="#FFFFFF" height="79.543" style="stroke:#181818;stroke-width:1.0;" width="10" x="1340" y="543.6953"/><polygon fill="#181818" points="359,152.5332,369,156.5332,359,160.5332,363,156.5332" style="stroke:#181818;stroke-width:1.0;"/><line style="stroke:#181818;stroke-width:1.0;" x1="111" x2="365" y1="156.5332" y2="156.5332"/><text fill="#000000" font-family="sans-serif" font-size="13" font-weight="bold" lengthAdjust="spacing" textLength="7" x="118" y="151.2705">1</text><text fill="#000000" font-family="sans-serif" font-size="13" lengthAdjust="spacing" textLength="230" x="129" y="151.2705">asks to list all associated green spaces</text><polygon fill="#181818" points="632,183.8242,642,187.8242,632,191.8242,636,187.8242" style="stroke:#181818;stroke-width:1.0;"/><line style="stroke:#181818;stroke-width:1.0;" x1="381" x2="638" y1="187.8242" y2="187.8242"/><text fill="#000000" font-family="sans-serif" font-size="13" font-weight="bold" lengthAdjust="spacing" textLength="7" x="388" y="182.5615">2</text><text fill="#000000" font-family="sans-serif" font-size="13" lengthAdjust="spacing" textLength="233" x="399" y="182.5615">getGreenSpaceManagerGSpaceSorted()</text><line style="stroke:#181818;stroke-width:1.0;" x1="654" x2="701" y1="214.1152" y2="214.1152"/><line style="stroke:#181818;stroke-width:1.0;" x1="701" x2="701" y1="214.1152" y2="227.1152"/><line style="stroke:#181818;stroke-width:1.0;" x1="660" x2="701" y1="227.1152" y2="227.1152"/><polygon fill="#181818" points="670,223.1152,660,227.1152,670,231.1152,666,227.1152" style="stroke:#181818;stroke-width:1.0;"/><text fill="#000000" font-family="sans-serif" font-size="13" font-weight="bold" lengthAdjust="spacing" textLength="7" x="666" y="208.8525">3</text><text fill="#000000" font-family="sans-serif" font-size="13" lengthAdjust="spacing" textLength="133" x="677" y="208.8525">getGSMFromSession()</text><rect fill="none" height="43.252" style="stroke:#000000;stroke-width:1.5;" width="195" x="551.5" y="240.1152"/><path d="M551.5,240.1152 L613.5,240.1152 L613.5,249.1152 L603.5,259.1152 L551.5,259.1152 L551.5,240.1152 " fill="#EEEEEE" style="stroke:#000000;stroke-width:2.0;"/><text fill="#000000" font-family="sans-serif" font-size="13" font-weight="bold" lengthAdjust="spacing" textLength="17" x="564.5" y="256.1436">ref</text><text fill="#000000" font-family="sans-serif" font-size="12" lengthAdjust="spacing" textLength="87" x="605.5" y="276.0645">Design in US20</text><line style="stroke:#181818;stroke-width:1.0;stroke-dasharray:2.0,2.0;" x1="659" x2="701" y1="316.6582" y2="316.6582"/><line style="stroke:#181818;stroke-width:1.0;stroke-dasharray:2.0,2.0;" x1="701" x2="701" y1="316.6582" y2="329.6582"/><line style="stroke:#181818;stroke-width:1.0;stroke-dasharray:2.0,2.0;" x1="654" x2="701" y1="329.6582" y2="329.6582"/><polygon fill="#181818" points="664,325.6582,654,329.6582,664,333.6582,660,329.6582" style="stroke:#181818;stroke-width:1.0;"/><text fill="#000000" font-family="sans-serif" font-size="13" font-weight="bold" lengthAdjust="spacing" textLength="7" x="666" y="311.3955">4</text><text fill="#000000" font-family="sans-serif" font-size="13" lengthAdjust="spacing" textLength="50" x="677" y="311.3955">manager</text><polygon fill="#181818" points="813.5,351.9492,823.5,355.9492,813.5,359.9492,817.5,355.9492" style="stroke:#181818;stroke-width:1.0;"/><line style="stroke:#181818;stroke-width:1.0;" x1="654" x2="819.5" y1="355.9492" y2="355.9492"/><text fill="#000000" font-family="sans-serif" font-size="13" font-weight="bold" lengthAdjust="spacing" textLength="7" x="661" y="350.6865">5</text><text fill="#000000" font-family="sans-serif" font-size="13" lengthAdjust="spacing" textLength="105" x="672" y="350.6865">getGreenSpaces()</text><polygon fill="#181818" points="994.5,383.2402,1004.5,387.2402,994.5,391.2402,998.5,387.2402" style="stroke:#181818;stroke-width:1.0;"/><line style="stroke:#181818;stroke-width:1.0;" x1="835.5" x2="1000.5" y1="387.2402" y2="387.2402"/><text fill="#000000" font-family="sans-serif" font-size="13" font-weight="bold" lengthAdjust="spacing" textLength="7" x="842.5" y="381.9775">6</text><text fill="#000000" font-family="sans-serif" font-size="13" lengthAdjust="spacing" textLength="141" x="853.5" y="381.9775">getSortedGreenspaces()</text><polygon fill="#181818" points="1209.5,414.5313,1219.5,418.5313,1209.5,422.5313,1213.5,418.5313" style="stroke:#181818;stroke-width:1.0;"/><line style="stroke:#181818;stroke-width:1.0;" x1="1016.5" x2="1215.5" y1="418.5313" y2="418.5313"/><text fill="#000000" font-family="sans-serif" font-size="13" font-weight="bold" lengthAdjust="spacing" textLength="7" x="1023.5" y="413.2686">7</text><text fill="#000000" font-family="sans-serif" font-size="13" lengthAdjust="spacing" textLength="175" x="1034.5" y="413.2686">getSortedList(greenSpaceList)</text><polygon fill="#181818" points="1027.5,445.8223,1017.5,449.8223,1027.5,453.8223,1023.5,449.8223" style="stroke:#181818;stroke-width:1.0;"/><line style="stroke:#181818;stroke-width:1.0;stroke-dasharray:2.0,2.0;" x1="1021.5" x2="1225.5" y1="449.8223" y2="449.8223"/><text fill="#000000" font-family="sans-serif" font-size="13" font-weight="bold" lengthAdjust="spacing" textLength="7" x="1033.5" y="444.5596">8</text><text fill="#000000" font-family="sans-serif" font-size="13" lengthAdjust="spacing" textLength="128" x="1044.5" y="444.5596">greenSpaceListSorted</text><polygon fill="#181818" points="846.5,477.1133,836.5,481.1133,846.5,485.1133,842.5,481.1133" style="stroke:#181818;stroke-width:1.0;"/><line style="stroke:#181818;stroke-width:1.0;stroke-dasharray:2.0,2.0;" x1="840.5" x2="1010.5" y1="481.1133" y2="481.1133"/><text fill="#000000" font-family="sans-serif" font-size="13" font-weight="bold" lengthAdjust="spacing" textLength="7" x="852.5" y="475.8506">9</text><text fill="#000000" font-family="sans-serif" font-size="13" lengthAdjust="spacing" textLength="128" x="863.5" y="475.8506">greenSpaceListSorted</text><polygon fill="#181818" points="665,508.4043,655,512.4043,665,516.4043,661,512.4043" style="stroke:#181818;stroke-width:1.0;"/><line style="stroke:#181818;stroke-width:1.0;stroke-dasharray:2.0,2.0;" x1="659" x2="829.5" y1="512.4043" y2="512.4043"/><text fill="#000000" font-family="sans-serif" font-size="13" font-weight="bold" lengthAdjust="spacing" textLength="14" x="671" y="507.1416">10</text><text fill="#000000" font-family="sans-serif" font-size="13" lengthAdjust="spacing" textLength="128" x="689" y="507.1416">greenSpaceListSorted</text><polygon fill="#181818" points="1328,539.6953,1338,543.6953,1328,547.6953,1332,543.6953" style="stroke:#181818;stroke-width:1.0;"/><line style="stroke:#181818;stroke-width:1.0;" x1="654" x2="1334" y1="543.6953" y2="543.6953"/><text fill="#000000" font-family="sans-serif" font-size="13" font-weight="bold" lengthAdjust="spacing" textLength="14" x="661" y="538.4326">11</text><text fill="#000000" font-family="sans-serif" font-size="13" lengthAdjust="spacing" textLength="245" x="679" y="538.4326">toDTOGreenSpace(greenSpaceListSorted)</text><rect fill="none" height="43.252" style="stroke:#000000;stroke-width:1.5;" width="152" x="1269" y="551.6953"/><path d="M1269,551.6953 L1331,551.6953 L1331,560.6953 L1321,570.6953 L1269,570.6953 L1269,551.6953 " fill="#EEEEEE" style="stroke:#000000;stroke-width:2.0;"/><text fill="#000000" font-family="sans-serif" font-size="13" font-weight="bold" lengthAdjust="spacing" textLength="17" x="1282" y="567.7236">ref</text><text fill="#000000" font-family="sans-serif" font-size="12" lengthAdjust="spacing" textLength="87" x="1301.5" y="587.6445">Design in US21</text><polygon fill="#181818" points="665,619.2383,655,623.2383,665,627.2383,661,623.2383" style="stroke:#181818;stroke-width:1.0;"/><line style="stroke:#181818;stroke-width:1.0;stroke-dasharray:2.0,2.0;" x1="659" x2="1344" y1="623.2383" y2="623.2383"/><text fill="#000000" font-family="sans-serif" font-size="13" font-weight="bold" lengthAdjust="spacing" textLength="14" x="671" y="617.9756">12</text><text fill="#000000" font-family="sans-serif" font-size="13" lengthAdjust="spacing" textLength="110" x="689" y="617.9756">greenSpaceListDto</text><polygon fill="#181818" points="392,650.5293,382,654.5293,392,658.5293,388,654.5293" style="stroke:#181818;stroke-width:1.0;"/><line style="stroke:#181818;stroke-width:1.0;stroke-dasharray:2.0,2.0;" x1="386" x2="648" y1="654.5293" y2="654.5293"/><text fill="#000000" font-family="sans-serif" font-size="13" font-weight="bold" lengthAdjust="spacing" textLength="14" x="398" y="649.2666">13</text><text fill="#000000" font-family="sans-serif" font-size="13" lengthAdjust="spacing" textLength="110" x="416" y="649.2666">greenSpaceListDto</text><polygon fill="#181818" points="117,681.8203,107,685.8203,117,689.8203,113,685.8203" style="stroke:#181818;stroke-width:1.0;"/><line style="stroke:#181818;stroke-width:1.0;stroke-dasharray:2.0,2.0;" x1="111" x2="375" y1="685.8203" y2="685.8203"/><text fill="#000000" font-family="sans-serif" font-size="13" font-weight="bold" lengthAdjust="spacing" textLength="14" x="123" y="680.5576">14</text><text fill="#000000" font-family="sans-serif" font-size="13" lengthAdjust="spacing" textLength="154" x="141" y="680.5576">shows list of green spaces</text><!--SRC=[ZLF1Rk8m4BtxAqPS6Wv8kxsin64brAW82GHQbzjUJ384YyJEsgRT_ViTEpHn0ccR2yIPz-RDcsTxbgeMHbHGQQMpaz4LWZCNPBRzKeliB0haxb-9O31pGXLbN61F8jTlKXLm5AL5nfnqLBfV0SS_5rGPGYf5uKiJdavX1dl- -8D-rj8wM1f41Powe6LCN9nMb-g0Xh67aymHZbgxW_xBHEQqWKbS3XkXI9c1PCatqma82_I7aIedCraBvM0ozqq2gC7iLw5kl_gux4ahPtHPeWdbJo-_rdr0rRJ-hUOTwYhdNSYsZoWwzXxANki73QmsRb4MLChfdpYK6EhuOenr8-hwHf0_UjUpOzv4-IeS1fyON1zwWTbFlx0vbPujE0sbtuqeIpgmEfE4oI7q0jkioWDREhApPICQ8lEE4Ls1xiQVPNZnKs6UJFj4mUYMAf3qoVZccKBAqLgfrSTeWqVGhnIFS0pHawALXGAfV1A_jPzGvHuqxDy9k2uzVC_n4z4-0KC7x51nY4cyY6q3lOxRc1JmTWI_Zk6XCL_4O1_if4k9VnrmKAHQ2iBEEW4zL4Ctd3q6X_xHv5-03_JxyQDzVuaWDZ3oVaS4JgSlsyxzv1xXxK9sTo8KZaSZz7qqGa78w4YfqtVcsTq9OBYRduBxGVGNiV62iFQatsnpg_NnzYP79FukzmNz1m00]--></g></svg>