<?xml version="1.0" encoding="us-ascii" standalone="no"?><svg xmlns="http://www.w3.org/2000/svg" xmlns:xlink="http://www.w3.org/1999/xlink" contentStyleType="text/css" height="676px" preserveAspectRatio="none" style="width:1251px;height:676px;background:#FFFFFF;" version="1.1" viewBox="0 0 1251 676" width="1251px" zoomAndPan="magnify"><defs/><g><text fill="#000000" font-family="sans-serif" font-size="14" font-weight="bold" lengthAdjust="spacing" textLength="372" x="438.5" y="30.1074">UI Sequence Diagram (SD) - US27 - List Green Spaces</text><rect fill="#FFFFFF" height="441.7441" style="stroke:#181818;stroke-width:1.0;" width="10" x="101" y="133.2422"/><rect fill="#FFFFFF" height="418.4531" style="stroke:#181818;stroke-width:1.0;" width="10" x="371" y="156.5332"/><rect fill="#FFFFFF" height="355.8711" style="stroke:#181818;stroke-width:1.0;" width="10" x="627" y="187.8242"/><rect fill="#FFFFFF" height="90.543" style="stroke:#181818;stroke-width:1.0;" width="10" x="632" y="227.1152"/><rect fill="#FFFFFF" height="156.4551" style="stroke:#181818;stroke-width:1.0;" width="10" x="808.5" y="355.9492"/><rect fill="#FFFFFF" height="93.873" style="stroke:#181818;stroke-width:1.0;" width="10" x="989.5" y="387.2402"/><rect fill="#FFFFFF" height="31.291" style="stroke:#181818;stroke-width:1.0;" width="10" x="1204.5" y="418.5313"/><line style="stroke:#181818;stroke-width:0.5;stroke-dasharray:5.0,5.0;" x1="106" x2="106" y1="123.2422" y2="592.9863"/><line style="stroke:#181818;stroke-width:0.5;stroke-dasharray:5.0,5.0;" x1="375.5" x2="375.5" y1="123.2422" y2="592.9863"/><line style="stroke:#181818;stroke-width:0.5;stroke-dasharray:5.0,5.0;" x1="631.5" x2="631.5" y1="123.2422" y2="592.9863"/><line style="stroke:#181818;stroke-width:0.5;stroke-dasharray:5.0,5.0;" x1="813.5" x2="813.5" y1="123.2422" y2="592.9863"/><line style="stroke:#181818;stroke-width:0.5;stroke-dasharray:5.0,5.0;" x1="994" x2="994" y1="123.2422" y2="592.9863"/><line style="stroke:#181818;stroke-width:0.5;stroke-dasharray:5.0,5.0;" x1="1209" x2="1209" y1="123.2422" y2="592.9863"/><text fill="#000000" font-family="sans-serif" font-size="14" lengthAdjust="spacing" textLength="196" x="5" y="119.7285">Green Spaces Manager (GSM)</text><ellipse cx="106" cy="53.1211" fill="#E3E3E3" rx="8" ry="8" style="stroke:#181818;stroke-width:0.5;"/><path d="M106,61.1211 L106,88.1211 M93,69.1211 L119,69.1211 M106,88.1211 L93,103.1211 M106,88.1211 L119,103.1211 " fill="none" style="stroke:#181818;stroke-width:0.5;"/><text fill="#000000" font-family="sans-serif" font-size="14" lengthAdjust="spacing" textLength="196" x="5" y="607.0938">Green Spaces Manager (GSM)</text><ellipse cx="106" cy="619.1074" fill="#E3E3E3" rx="8" ry="8" style="stroke:#181818;stroke-width:0.5;"/><path d="M106,627.1074 L106,654.1074 M93,635.1074 L119,635.1074 M106,654.1074 L93,669.1074 M106,654.1074 L119,669.1074 " fill="none" style="stroke:#181818;stroke-width:0.5;"/><rect fill="#E3E3E3" height="32.6211" rx="2.5" ry="2.5" style="stroke:#181818;stroke-width:0.5;" width="139" x="306.5" y="89.6211"/><text fill="#000000" font-family="sans-serif" font-size="14" lengthAdjust="spacing" textLength="125" x="313.5" y="111.7285">:ListGreenSpacesUI</text><rect fill="#E3E3E3" height="32.6211" rx="2.5" ry="2.5" style="stroke:#181818;stroke-width:0.5;" width="139" x="306.5" y="591.9863"/><text fill="#000000" font-family="sans-serif" font-size="14" lengthAdjust="spacing" textLength="125" x="313.5" y="614.0938">:ListGreenSpacesUI</text><rect fill="#E3E3E3" height="32.6211" rx="2.5" ry="2.5" style="stroke:#181818;stroke-width:0.5;" width="189" x="537.5" y="89.6211"/><text fill="#000000" font-family="sans-serif" font-size="14" lengthAdjust="spacing" textLength="175" x="544.5" y="111.7285">:ListGreenSpacesController</text><rect fill="#E3E3E3" height="32.6211" rx="2.5" ry="2.5" style="stroke:#181818;stroke-width:0.5;" width="189" x="537.5" y="591.9863"/><text fill="#000000" font-family="sans-serif" font-size="14" lengthAdjust="spacing" textLength="175" x="544.5" y="614.0938">:ListGreenSpacesController</text><rect fill="#E3E3E3" height="51.2422" rx="2.5" ry="2.5" style="stroke:#181818;stroke-width:0.5;" width="154" x="736.5" y="71"/><text fill="#000000" font-family="sans-serif" font-size="14" lengthAdjust="spacing" textLength="56" x="785.5" y="93.1074">manager</text><text fill="#000000" font-family="sans-serif" font-size="14" lengthAdjust="spacing" textLength="140" x="743.5" y="111.7285">:GreenSpaceManager</text><rect fill="#E3E3E3" height="51.2422" rx="2.5" ry="2.5" style="stroke:#181818;stroke-width:0.5;" width="154" x="736.5" y="591.9863"/><text fill="#000000" font-family="sans-serif" font-size="14" lengthAdjust="spacing" textLength="56" x="785.5" y="614.0938">manager</text><text fill="#000000" font-family="sans-serif" font-size="14" lengthAdjust="spacing" textLength="140" x="743.5" y="632.7148">:GreenSpaceManager</text><rect fill="#E3E3E3" height="51.2422" rx="2.5" ry="2.5" style="stroke:#181818;stroke-width:0.5;" width="105" x="942" y="71"/><text fill="#000000" font-family="sans-serif" font-size="14" lengthAdjust="spacing" textLength="84" x="952.5" y="93.1074">greenSpaces</text><text fill="#000000" font-family="sans-serif" font-size="14" lengthAdjust="spacing" textLength="91" x="949" y="111.7285">:GreenSpaces</text><rect fill="#E3E3E3" height="51.2422" rx="2.5" ry="2.5" style="stroke:#181818;stroke-width:0.5;" width="105" x="942" y="591.9863"/><text fill="#000000" font-family="sans-serif" font-size="14" lengthAdjust="spacing" textLength="84" x="952.5" y="614.0938">greenSpaces</text><text fill="#000000" font-family="sans-serif" font-size="14" lengthAdjust="spacing" textLength="91" x="949" y="632.7148">:GreenSpaces</text><rect fill="#E3E3E3" height="51.2422" rx="2.5" ry="2.5" style="stroke:#181818;stroke-width:0.5;" width="71" x="1174" y="71"/><text fill="#000000" font-family="sans-serif" font-size="14" lengthAdjust="spacing" textLength="44" x="1187.5" y="93.1074">sortAlg</text><text fill="#000000" font-family="sans-serif" font-size="14" lengthAdjust="spacing" textLength="57" x="1181" y="111.7285">:Sortable</text><rect fill="#E3E3E3" height="51.2422" rx="2.5" ry="2.5" style="stroke:#181818;stroke-width:0.5;" width="71" x="1174" y="591.9863"/><text fill="#000000" font-family="sans-serif" font-size="14" lengthAdjust="spacing" textLength="44" x="1187.5" y="614.0938">sortAlg</text><text fill="#000000" font-family="sans-serif" font-size="14" lengthAdjust="spacing" textLength="57" x="1181" y="632.7148">:Sortable</text><rect fill="#FFFFFF" height="441.7441" style="stroke:#181818;stroke-width:1.0;" width="10" x="101" y="133.2422"/><rect fill="#FFFFFF" height="418.4531" style="stroke:#181818;stroke-width:1.0;" width="10" x="371" y="156.5332"/><rect fill="#FFFFFF" height="355.8711" style="stroke:#181818;stroke-width:1.0;" width="10" x="627" y="187.8242"/><rect fill="#FFFFFF" height="90.543" style="stroke:#181818;stroke-width:1.0;" width="10" x="632" y="227.1152"/><rect fill="#FFFFFF" height="156.4551" style="stroke:#181818;stroke-width:1.0;" width="10" x="808.5" y="355.9492"/><rect fill="#FFFFFF" height="93.873" style="stroke:#181818;stroke-width:1.0;" width="10" x="989.5" y="387.2402"/><rect fill="#FFFFFF" height="31.291" style="stroke:#181818;stroke-width:1.0;" width="10" x="1204.5" y="418.5313"/><polygon fill="#181818" points="359,152.5332,369,156.5332,359,160.5332,363,156.5332" style="stroke:#181818;stroke-width:1.0;"/><line style="stroke:#181818;stroke-width:1.0;" x1="111" x2="365" y1="156.5332" y2="156.5332"/><text fill="#000000" font-family="sans-serif" font-size="13" font-weight="bold" lengthAdjust="spacing" textLength="7" x="118" y="151.2705">1</text><text fill="#000000" font-family="sans-serif" font-size="13" lengthAdjust="spacing" textLength="230" x="129" y="151.2705">asks to list all associated green spaces</text><polygon fill="#181818" points="615,183.8242,625,187.8242,615,191.8242,619,187.8242" style="stroke:#181818;stroke-width:1.0;"/><line style="stroke:#181818;stroke-width:1.0;" x1="381" x2="621" y1="187.8242" y2="187.8242"/><text fill="#000000" font-family="sans-serif" font-size="13" font-weight="bold" lengthAdjust="spacing" textLength="7" x="388" y="182.5615">2</text><text fill="#000000" font-family="sans-serif" font-size="13" lengthAdjust="spacing" textLength="216" x="399" y="182.5615">getGreenSpaceManagerGSpaceList()</text><line style="stroke:#181818;stroke-width:1.0;" x1="637" x2="684" y1="214.1152" y2="214.1152"/><line style="stroke:#181818;stroke-width:1.0;" x1="684" x2="684" y1="214.1152" y2="227.1152"/><line style="stroke:#181818;stroke-width:1.0;" x1="643" x2="684" y1="227.1152" y2="227.1152"/><polygon fill="#181818" points="653,223.1152,643,227.1152,653,231.1152,649,227.1152" style="stroke:#181818;stroke-width:1.0;"/><text fill="#000000" font-family="sans-serif" font-size="13" font-weight="bold" lengthAdjust="spacing" textLength="7" x="649" y="208.8525">3</text><text fill="#000000" font-family="sans-serif" font-size="13" lengthAdjust="spacing" textLength="133" x="660" y="208.8525">getGSMFromSession()</text><rect fill="none" height="43.252" style="stroke:#000000;stroke-width:1.5;" width="195" x="534.5" y="240.1152"/><path d="M534.5,240.1152 L596.5,240.1152 L596.5,249.1152 L586.5,259.1152 L534.5,259.1152 L534.5,240.1152 " fill="#EEEEEE" style="stroke:#000000;stroke-width:2.0;"/><text fill="#000000" font-family="sans-serif" font-size="13" font-weight="bold" lengthAdjust="spacing" textLength="17" x="547.5" y="256.1436">ref</text><text fill="#000000" font-family="sans-serif" font-size="12" lengthAdjust="spacing" textLength="70" x="597" y="276.0645">Get Manager</text><line style="stroke:#181818;stroke-width:1.0;stroke-dasharray:2.0,2.0;" x1="642" x2="684" y1="316.6582" y2="316.6582"/><line style="stroke:#181818;stroke-width:1.0;stroke-dasharray:2.0,2.0;" x1="684" x2="684" y1="316.6582" y2="329.6582"/><line style="stroke:#181818;stroke-width:1.0;stroke-dasharray:2.0,2.0;" x1="637" x2="684" y1="329.6582" y2="329.6582"/><polygon fill="#181818" points="647,325.6582,637,329.6582,647,333.6582,643,329.6582" style="stroke:#181818;stroke-width:1.0;"/><text fill="#000000" font-family="sans-serif" font-size="13" font-weight="bold" lengthAdjust="spacing" textLength="7" x="649" y="311.3955">4</text><text fill="#000000" font-family="sans-serif" font-size="13" lengthAdjust="spacing" textLength="50" x="660" y="311.3955">manager</text><polygon fill="#181818" points="796.5,351.9492,806.5,355.9492,796.5,359.9492,800.5,355.9492" style="stroke:#181818;stroke-width:1.0;"/><line style="stroke:#181818;stroke-width:1.0;" x1="637" x2="802.5" y1="355.9492" y2="355.9492"/><text fill="#000000" font-family="sans-serif" font-size="13" font-weight="bold" lengthAdjust="spacing" textLength="7" x="644" y="350.6865">5</text><text fill="#000000" font-family="sans-serif" font-size="13" lengthAdjust="spacing" textLength="105" x="655" y="350.6865">getGreenSpaces()</text><polygon fill="#181818" points="977.5,383.2402,987.5,387.2402,977.5,391.2402,981.5,387.2402" style="stroke:#181818;stroke-width:1.0;"/><line style="stroke:#181818;stroke-width:1.0;" x1="818.5" x2="983.5" y1="387.2402" y2="387.2402"/><text fill="#000000" font-family="sans-serif" font-size="13" font-weight="bold" lengthAdjust="spacing" textLength="7" x="825.5" y="381.9775">6</text><text fill="#000000" font-family="sans-serif" font-size="13" lengthAdjust="spacing" textLength="141" x="836.5" y="381.9775">getSortedGreenspaces()</text><polygon fill="#181818" points="1192.5,414.5313,1202.5,418.5313,1192.5,422.5313,1196.5,418.5313" style="stroke:#181818;stroke-width:1.0;"/><line style="stroke:#181818;stroke-width:1.0;" x1="999.5" x2="1198.5" y1="418.5313" y2="418.5313"/><text fill="#000000" font-family="sans-serif" font-size="13" font-weight="bold" lengthAdjust="spacing" textLength="7" x="1006.5" y="413.2686">7</text><text fill="#000000" font-family="sans-serif" font-size="13" lengthAdjust="spacing" textLength="175" x="1017.5" y="413.2686">getSortedList(greenSpaceList)</text><polygon fill="#181818" points="1010.5,445.8223,1000.5,449.8223,1010.5,453.8223,1006.5,449.8223" style="stroke:#181818;stroke-width:1.0;"/><line style="stroke:#181818;stroke-width:1.0;stroke-dasharray:2.0,2.0;" x1="1004.5" x2="1208.5" y1="449.8223" y2="449.8223"/><text fill="#000000" font-family="sans-serif" font-size="13" font-weight="bold" lengthAdjust="spacing" textLength="7" x="1016.5" y="444.5596">8</text><text fill="#000000" font-family="sans-serif" font-size="13" lengthAdjust="spacing" textLength="128" x="1027.5" y="444.5596">greenSpaceListSorted</text><polygon fill="#181818" points="829.5,477.1133,819.5,481.1133,829.5,485.1133,825.5,481.1133" style="stroke:#181818;stroke-width:1.0;"/><line style="stroke:#181818;stroke-width:1.0;stroke-dasharray:2.0,2.0;" x1="823.5" x2="993.5" y1="481.1133" y2="481.1133"/><text fill="#000000" font-family="sans-serif" font-size="13" font-weight="bold" lengthAdjust="spacing" textLength="7" x="835.5" y="475.8506">9</text><text fill="#000000" font-family="sans-serif" font-size="13" lengthAdjust="spacing" textLength="128" x="846.5" y="475.8506">greenSpaceListSorted</text><polygon fill="#181818" points="648,508.4043,638,512.4043,648,516.4043,644,512.4043" style="stroke:#181818;stroke-width:1.0;"/><line style="stroke:#181818;stroke-width:1.0;stroke-dasharray:2.0,2.0;" x1="642" x2="812.5" y1="512.4043" y2="512.4043"/><text fill="#000000" font-family="sans-serif" font-size="13" font-weight="bold" lengthAdjust="spacing" textLength="14" x="654" y="507.1416">10</text><text fill="#000000" font-family="sans-serif" font-size="13" lengthAdjust="spacing" textLength="128" x="672" y="507.1416">greenSpaceListSorted</text><polygon fill="#181818" points="392,539.6953,382,543.6953,392,547.6953,388,543.6953" style="stroke:#181818;stroke-width:1.0;"/><line style="stroke:#181818;stroke-width:1.0;stroke-dasharray:2.0,2.0;" x1="386" x2="631" y1="543.6953" y2="543.6953"/><text fill="#000000" font-family="sans-serif" font-size="13" font-weight="bold" lengthAdjust="spacing" textLength="14" x="398" y="538.4326">11</text><text fill="#000000" font-family="sans-serif" font-size="13" lengthAdjust="spacing" textLength="128" x="416" y="538.4326">greenSpaceListSorted</text><polygon fill="#181818" points="117,570.9863,107,574.9863,117,578.9863,113,574.9863" style="stroke:#181818;stroke-width:1.0;"/><line style="stroke:#181818;stroke-width:1.0;stroke-dasharray:2.0,2.0;" x1="111" x2="375" y1="574.9863" y2="574.9863"/><text fill="#000000" font-family="sans-serif" font-size="13" font-weight="bold" lengthAdjust="spacing" textLength="14" x="123" y="569.7236">12</text><text fill="#000000" font-family="sans-serif" font-size="13" lengthAdjust="spacing" textLength="154" x="141" y="569.7236">shows list of green spaces</text><!--SRC=[ZPDDZzem48Rl_XKZBeK3brugSQY4TbM415gfBhTUJ3842yT3FMQt_VSTEn2ShBeb5sBpFkzyXa_MdqqmBRJagJe6QX5YkA3Y_f-pgKwcGHt_E8I0LJI-SQM0ZwQcD-iRE1Z7g5IqKQIxDMZyTK5V8JnRqoJfL3_FO0ux_VcB_6miHrW5H0zQeY0hPIwH_ANTOr3gqz7M20UYkAVVobIH0anAEMoDbym2J5TwEvk0OP0N9Lb5MzcpyH4cYnGaGnspMsVTRlsnx8by3EGSXYn_-l5zCmJQBlHFlxXJrtHkYRmCYURkFg3ugXy5O0fnwHgHQdapUuTPfvSgjSA-ceYvMWNNHmum_vhQlX3XYI4IkDHXuvnSC5LMc1fo7i1TmnFOsqbJUZUn4RDKjzWr6DzLkSg7rBRfR6YJczKRPOkXbTv-aqNJo6p9Vqm7F02zoeZpDHJF2kDj_lqz-ZeHu-3tw6q1rFYVZDC8nyNpEDqyvt86BnrwhJND3klCyp_uJOddm7fPmhd5z-L9nv57secRXR3pUm83ghCRrrx2ENvH-GFuAFzKVZ7iXmpA1lO3osly23-SNLhRhW31-KXlt7q3T7Y_zuL9slnXJdy1]--></g></svg>