<?xml version="1.0" encoding="us-ascii" standalone="no"?><svg xmlns="http://www.w3.org/2000/svg" xmlns:xlink="http://www.w3.org/1999/xlink" contentStyleType="text/css" height="1749px" preserveAspectRatio="none" style="width:1909px;height:1749px;background:#FFFFFF;" version="1.1" viewBox="0 0 1909 1749" width="1909px" zoomAndPan="magnify"><defs/><g><!--cluster UI--><g id="cluster_UI"><path d="M1718.5,6.0137 L1733.5,6.0137 A3.75,3.75 0 0 1 1736,8.5137 L1743,30.6348 L1899.5,30.6348 A2.5,2.5 0 0 1 1902,33.1348 L1902,104.5137 A2.5,2.5 0 0 1 1899.5,107.0137 L1718.5,107.0137 A2.5,2.5 0 0 1 1716,104.5137 L1716,8.5137 A2.5,2.5 0 0 1 1718.5,6.0137 " fill="none" style="stroke:#000000;stroke-width:1.5;"/><line style="stroke:#000000;stroke-width:1.5;" x1="1716" x2="1743" y1="30.6348" y2="30.6348"/><text fill="#000000" font-family="sans-serif" font-size="14" font-weight="bold" lengthAdjust="spacing" textLength="14" x="1720" y="23.1211">UI</text></g><!--cluster Controller--><g id="cluster_Controller"><path d="M211.5,140.0137 L283.5,140.0137 A3.75,3.75 0 0 1 286,142.5137 L293,164.6348 L582.5,164.6348 A2.5,2.5 0 0 1 585,167.1348 L585,294.5137 A2.5,2.5 0 0 1 582.5,297.0137 L211.5,297.0137 A2.5,2.5 0 0 1 209,294.5137 L209,142.5137 A2.5,2.5 0 0 1 211.5,140.0137 " fill="none" style="stroke:#000000;stroke-width:1.5;"/><line style="stroke:#000000;stroke-width:1.5;" x1="209" x2="293" y1="164.6348" y2="164.6348"/><text fill="#000000" font-family="sans-serif" font-size="14" font-weight="bold" lengthAdjust="spacing" textLength="71" x="213" y="157.1211">Controller</text></g><!--cluster Domain--><g id="cluster_Domain"><path d="M373.5,410.0137 L426.5,410.0137 A3.75,3.75 0 0 1 429,412.5137 L436,434.6348 L1846.5,434.6348 A2.5,2.5 0 0 1 1849,437.1348 L1849,1739.5137 A2.5,2.5 0 0 1 1846.5,1742.0137 L373.5,1742.0137 A2.5,2.5 0 0 1 371,1739.5137 L371,412.5137 A2.5,2.5 0 0 1 373.5,410.0137 " fill="none" style="stroke:#000000;stroke-width:1.5;"/><line style="stroke:#000000;stroke-width:1.5;" x1="371" x2="436" y1="434.6348" y2="434.6348"/><text fill="#000000" font-family="sans-serif" font-size="14" font-weight="bold" lengthAdjust="spacing" textLength="52" x="375" y="427.1211">Domain</text></g><!--cluster Application--><g id="cluster_Application"><path d="M471.5,464.5137 L550.5,464.5137 A3.75,3.75 0 0 1 553,467.0137 L560,489.1348 L729.5,489.1348 A2.5,2.5 0 0 1 732,491.6348 L732,755.5137 A2.5,2.5 0 0 1 729.5,758.0137 L471.5,758.0137 A2.5,2.5 0 0 1 469,755.5137 L469,467.0137 A2.5,2.5 0 0 1 471.5,464.5137 " fill="none" style="stroke:#000000;stroke-width:1.5;"/><line style="stroke:#000000;stroke-width:1.5;" x1="469" x2="560" y1="489.1348" y2="489.1348"/><text fill="#000000" font-family="sans-serif" font-size="14" font-weight="bold" lengthAdjust="spacing" textLength="78" x="473" y="481.6211">Application</text></g><!--cluster DTO--><g id="cluster_DTO"><path d="M1443.5,1183.0137 L1473.5,1183.0137 A3.75,3.75 0 0 1 1476,1185.5137 L1483,1207.6348 L1822.5,1207.6348 A2.5,2.5 0 0 1 1825,1210.1348 L1825,1507.5137 A2.5,2.5 0 0 1 1822.5,1510.0137 L1443.5,1510.0137 A2.5,2.5 0 0 1 1441,1507.5137 L1441,1185.5137 A2.5,2.5 0 0 1 1443.5,1183.0137 " fill="none" style="stroke:#000000;stroke-width:1.5;"/><line style="stroke:#000000;stroke-width:1.5;" x1="1441" x2="1483" y1="1207.6348" y2="1207.6348"/><text fill="#000000" font-family="sans-serif" font-size="14" font-weight="bold" lengthAdjust="spacing" textLength="29" x="1445" y="1200.1211">DTO</text></g><!--cluster Model--><g id="cluster_Model"><path d="M397.5,1001.0137 L442.5,1001.0137 A3.75,3.75 0 0 1 445,1003.5137 L452,1025.6348 L1414.5,1025.6348 A2.5,2.5 0 0 1 1417,1028.1348 L1417,1715.5137 A2.5,2.5 0 0 1 1414.5,1718.0137 L397.5,1718.0137 A2.5,2.5 0 0 1 395,1715.5137 L395,1003.5137 A2.5,2.5 0 0 1 397.5,1001.0137 " fill="none" style="stroke:#000000;stroke-width:1.5;"/><line style="stroke:#000000;stroke-width:1.5;" x1="395" x2="452" y1="1025.6348" y2="1025.6348"/><text fill="#000000" font-family="sans-serif" font-size="14" font-weight="bold" lengthAdjust="spacing" textLength="44" x="399" y="1018.1211">Model</text></g><!--cluster Repository--><g id="cluster_Repository"><path d="M758.5,455.0137 L835.5,455.0137 A3.75,3.75 0 0 1 838,457.5137 L845,479.6348 L1060.5,479.6348 A2.5,2.5 0 0 1 1063,482.1348 L1063,885.5137 A2.5,2.5 0 0 1 1060.5,888.0137 L758.5,888.0137 A2.5,2.5 0 0 1 756,885.5137 L756,457.5137 A2.5,2.5 0 0 1 758.5,455.0137 " fill="none" style="stroke:#000000;stroke-width:1.5;"/><line style="stroke:#000000;stroke-width:1.5;" x1="756" x2="845" y1="479.6348" y2="479.6348"/><text fill="#000000" font-family="sans-serif" font-size="14" font-weight="bold" lengthAdjust="spacing" textLength="76" x="760" y="472.1211">Repository</text></g><!--class ListGreenSpacesUI--><g id="elem_ListGreenSpacesUI"><rect codeLine="10" fill="#F1F1F1" height="48" id="ListGreenSpacesUI" rx="2.5" ry="2.5" style="stroke:#181818;stroke-width:0.5;" width="153" x="1732.5" y="43.0137"/><ellipse cx="1747.5" cy="59.0137" fill="#ADD1B2" rx="11" ry="11" style="stroke:#181818;stroke-width:1.0;"/><path d="M1750.2656,54.8887 Q1750.4219,54.6699 1750.6094,54.5605 Q1750.7969,54.4512 1751.0156,54.4512 Q1751.3906,54.4512 1751.625,54.7168 Q1751.8594,54.9668 1751.8594,55.5762 L1751.8594,57.0293 Q1751.8594,57.6387 1751.625,57.9043 Q1751.3906,58.1699 1751.0156,58.1699 Q1750.6719,58.1699 1750.4688,57.9668 Q1750.2656,57.7793 1750.1563,57.2637 Q1750.1094,56.9043 1749.9219,56.7168 Q1749.5938,56.3418 1748.9844,56.123 Q1748.375,55.9043 1747.75,55.9043 Q1746.9844,55.9043 1746.3438,56.2324 Q1745.7188,56.5605 1745.2188,57.3105 Q1744.7344,58.0605 1744.7344,59.0918 L1744.7344,60.1855 Q1744.7344,61.4199 1745.625,62.248 Q1746.5156,63.0605 1748.1094,63.0605 Q1749.0469,63.0605 1749.7031,62.8105 Q1750.0938,62.6543 1750.5156,62.2168 Q1750.7813,61.9512 1750.9219,61.873 Q1751.0781,61.7949 1751.2813,61.7949 Q1751.6094,61.7949 1751.8594,62.0605 Q1752.125,62.3105 1752.125,62.6543 Q1752.125,62.998 1751.7813,63.4043 Q1751.2813,63.9824 1750.4844,64.3105 Q1749.4063,64.7637 1748.1094,64.7637 Q1746.5938,64.7637 1745.3906,64.1387 Q1744.4063,63.6387 1743.7188,62.5762 Q1743.0313,61.498 1743.0313,60.2168 L1743.0313,59.0605 Q1743.0313,57.7324 1743.6406,56.5918 Q1744.2656,55.4355 1745.3594,54.8262 Q1746.4531,54.2012 1747.6875,54.2012 Q1748.4219,54.2012 1749.0625,54.373 Q1749.7188,54.5293 1750.2656,54.8887 Z " fill="#000000"/><text fill="#000000" font-family="sans-serif" font-size="14" lengthAdjust="spacing" textLength="121" x="1761.5" y="64.8105">ListGreenSpacesUI</text><line style="stroke:#181818;stroke-width:0.5;" x1="1733.5" x2="1884.5" y1="75.0137" y2="75.0137"/><line style="stroke:#181818;stroke-width:0.5;" x1="1733.5" x2="1884.5" y1="83.0137" y2="83.0137"/></g><!--class ListGreenSpacesController--><g id="elem_ListGreenSpacesController"><rect codeLine="17" fill="#F1F1F1" height="103.8633" id="ListGreenSpacesController" rx="2.5" ry="2.5" style="stroke:#181818;stroke-width:0.5;" width="344" x="225" y="177.0137"/><ellipse cx="307.25" cy="193.0137" fill="#ADD1B2" rx="11" ry="11" style="stroke:#181818;stroke-width:1.0;"/><path d="M310.0156,188.8887 Q310.1719,188.6699 310.3594,188.5605 Q310.5469,188.4512 310.7656,188.4512 Q311.1406,188.4512 311.375,188.7168 Q311.6094,188.9668 311.6094,189.5762 L311.6094,191.0293 Q311.6094,191.6387 311.375,191.9043 Q311.1406,192.1699 310.7656,192.1699 Q310.4219,192.1699 310.2188,191.9668 Q310.0156,191.7793 309.9063,191.2637 Q309.8594,190.9043 309.6719,190.7168 Q309.3438,190.3418 308.7344,190.123 Q308.125,189.9043 307.5,189.9043 Q306.7344,189.9043 306.0938,190.2324 Q305.4688,190.5605 304.9688,191.3105 Q304.4844,192.0605 304.4844,193.0918 L304.4844,194.1855 Q304.4844,195.4199 305.375,196.248 Q306.2656,197.0605 307.8594,197.0605 Q308.7969,197.0605 309.4531,196.8105 Q309.8438,196.6543 310.2656,196.2168 Q310.5313,195.9512 310.6719,195.873 Q310.8281,195.7949 311.0313,195.7949 Q311.3594,195.7949 311.6094,196.0605 Q311.875,196.3105 311.875,196.6543 Q311.875,196.998 311.5313,197.4043 Q311.0313,197.9824 310.2344,198.3105 Q309.1563,198.7637 307.8594,198.7637 Q306.3438,198.7637 305.1406,198.1387 Q304.1563,197.6387 303.4688,196.5762 Q302.7813,195.498 302.7813,194.2168 L302.7813,193.0605 Q302.7813,191.7324 303.3906,190.5918 Q304.0156,189.4355 305.1094,188.8262 Q306.2031,188.2012 307.4375,188.2012 Q308.1719,188.2012 308.8125,188.373 Q309.4688,188.5293 310.0156,188.8887 Z " fill="#000000"/><text fill="#000000" font-family="sans-serif" font-size="14" lengthAdjust="spacing" textLength="171" x="327.75" y="198.8105">ListGreenSpacesController</text><line style="stroke:#181818;stroke-width:0.5;" x1="226" x2="568" y1="209.0137" y2="209.0137"/><line style="stroke:#181818;stroke-width:0.5;" x1="226" x2="568" y1="217.0137" y2="217.0137"/><text fill="#000000" font-family="sans-serif" font-size="14" lengthAdjust="spacing" textLength="332" x="231" y="236.1211">+ListGreenSpacesController(collaboratorRepository)</text><text fill="#000000" font-family="sans-serif" font-size="14" lengthAdjust="spacing" textLength="247" x="231" y="254.7422">+getGreenSpaceManagerGSpaceList()</text><text fill="#000000" font-family="sans-serif" font-size="14" lengthAdjust="spacing" textLength="149" x="231" y="273.3633">-getGSMFromSession()</text></g><!--class ApplicationSession--><g id="elem_ApplicationSession"><rect codeLine="30" fill="#F1F1F1" height="85.2422" id="ApplicationSession" rx="2.5" ry="2.5" style="stroke:#181818;stroke-width:0.5;" width="151" x="485.5" y="501.5137"/><ellipse cx="500.5" cy="517.5137" fill="#ADD1B2" rx="11" ry="11" style="stroke:#181818;stroke-width:1.0;"/><path d="M503.2656,513.3887 Q503.4219,513.1699 503.6094,513.0605 Q503.7969,512.9512 504.0156,512.9512 Q504.3906,512.9512 504.625,513.2168 Q504.8594,513.4668 504.8594,514.0762 L504.8594,515.5293 Q504.8594,516.1387 504.625,516.4043 Q504.3906,516.6699 504.0156,516.6699 Q503.6719,516.6699 503.4688,516.4668 Q503.2656,516.2793 503.1563,515.7637 Q503.1094,515.4043 502.9219,515.2168 Q502.5938,514.8418 501.9844,514.623 Q501.375,514.4043 500.75,514.4043 Q499.9844,514.4043 499.3438,514.7324 Q498.7188,515.0605 498.2188,515.8105 Q497.7344,516.5605 497.7344,517.5918 L497.7344,518.6855 Q497.7344,519.9199 498.625,520.748 Q499.5156,521.5605 501.1094,521.5605 Q502.0469,521.5605 502.7031,521.3105 Q503.0938,521.1543 503.5156,520.7168 Q503.7813,520.4512 503.9219,520.373 Q504.0781,520.2949 504.2813,520.2949 Q504.6094,520.2949 504.8594,520.5605 Q505.125,520.8105 505.125,521.1543 Q505.125,521.498 504.7813,521.9043 Q504.2813,522.4824 503.4844,522.8105 Q502.4063,523.2637 501.1094,523.2637 Q499.5938,523.2637 498.3906,522.6387 Q497.4063,522.1387 496.7188,521.0762 Q496.0313,519.998 496.0313,518.7168 L496.0313,517.5605 Q496.0313,516.2324 496.6406,515.0918 Q497.2656,513.9355 498.3594,513.3262 Q499.4531,512.7012 500.6875,512.7012 Q501.4219,512.7012 502.0625,512.873 Q502.7188,513.0293 503.2656,513.3887 Z " fill="#000000"/><text fill="#000000" font-family="sans-serif" font-size="14" lengthAdjust="spacing" textLength="119" x="514.5" y="523.3105">ApplicationSession</text><line style="stroke:#181818;stroke-width:0.5;" x1="486.5" x2="635.5" y1="533.5137" y2="533.5137"/><line style="stroke:#181818;stroke-width:0.5;" x1="486.5" x2="635.5" y1="541.5137" y2="541.5137"/><text fill="#000000" font-family="sans-serif" font-size="14" lengthAdjust="spacing" textLength="128" x="491.5" y="560.6211">+static getInstance()</text><text fill="#000000" font-family="sans-serif" font-size="14" lengthAdjust="spacing" textLength="136" x="491.5" y="579.2422">+getCurrentSession()</text></g><!--class UserSession--><g id="elem_UserSession"><rect codeLine="36" fill="#F1F1F1" height="66.6211" id="UserSession" rx="2.5" ry="2.5" style="stroke:#181818;stroke-width:0.5;" width="113" x="577.5" y="675.0137"/><ellipse cx="593.4" cy="691.0137" fill="#ADD1B2" rx="11" ry="11" style="stroke:#181818;stroke-width:1.0;"/><path d="M596.1656,686.8887 Q596.3219,686.6699 596.5094,686.5605 Q596.6969,686.4512 596.9156,686.4512 Q597.2906,686.4512 597.525,686.7168 Q597.7594,686.9668 597.7594,687.5762 L597.7594,689.0293 Q597.7594,689.6387 597.525,689.9043 Q597.2906,690.1699 596.9156,690.1699 Q596.5719,690.1699 596.3688,689.9668 Q596.1656,689.7793 596.0563,689.2637 Q596.0094,688.9043 595.8219,688.7168 Q595.4938,688.3418 594.8844,688.123 Q594.275,687.9043 593.65,687.9043 Q592.8844,687.9043 592.2438,688.2324 Q591.6188,688.5605 591.1188,689.3105 Q590.6344,690.0605 590.6344,691.0918 L590.6344,692.1855 Q590.6344,693.4199 591.525,694.248 Q592.4156,695.0605 594.0094,695.0605 Q594.9469,695.0605 595.6031,694.8105 Q595.9938,694.6543 596.4156,694.2168 Q596.6813,693.9512 596.8219,693.873 Q596.9781,693.7949 597.1813,693.7949 Q597.5094,693.7949 597.7594,694.0605 Q598.025,694.3105 598.025,694.6543 Q598.025,694.998 597.6813,695.4043 Q597.1813,695.9824 596.3844,696.3105 Q595.3063,696.7637 594.0094,696.7637 Q592.4938,696.7637 591.2906,696.1387 Q590.3063,695.6387 589.6188,694.5762 Q588.9313,693.498 588.9313,692.2168 L588.9313,691.0605 Q588.9313,689.7324 589.5406,688.5918 Q590.1656,687.4355 591.2594,686.8262 Q592.3531,686.2012 593.5875,686.2012 Q594.3219,686.2012 594.9625,686.373 Q595.6188,686.5293 596.1656,686.8887 Z " fill="#000000"/><text fill="#000000" font-family="sans-serif" font-size="14" lengthAdjust="spacing" textLength="79" x="607.6" y="696.8105">UserSession</text><line style="stroke:#181818;stroke-width:0.5;" x1="578.5" x2="689.5" y1="707.0137" y2="707.0137"/><line style="stroke:#181818;stroke-width:0.5;" x1="578.5" x2="689.5" y1="715.0137" y2="715.0137"/><text fill="#000000" font-family="sans-serif" font-size="14" lengthAdjust="spacing" textLength="101" x="583.5" y="734.1211">+getUserEmail()</text></g><!--class GreenSpaceMapper--><g id="elem_GreenSpaceMapper"><rect codeLine="44" fill="#F1F1F1" height="85.2422" id="GreenSpaceMapper" rx="2.5" ry="2.5" style="stroke:#181818;stroke-width:0.5;" width="351" x="1457.5" y="1220.0137"/><ellipse cx="1564.75" cy="1236.0137" fill="#ADD1B2" rx="11" ry="11" style="stroke:#181818;stroke-width:1.0;"/><path d="M1567.5156,1231.8887 Q1567.6719,1231.6699 1567.8594,1231.5605 Q1568.0469,1231.4512 1568.2656,1231.4512 Q1568.6406,1231.4512 1568.875,1231.7168 Q1569.1094,1231.9668 1569.1094,1232.5762 L1569.1094,1234.0293 Q1569.1094,1234.6387 1568.875,1234.9043 Q1568.6406,1235.1699 1568.2656,1235.1699 Q1567.9219,1235.1699 1567.7188,1234.9668 Q1567.5156,1234.7793 1567.4063,1234.2637 Q1567.3594,1233.9043 1567.1719,1233.7168 Q1566.8438,1233.3418 1566.2344,1233.123 Q1565.625,1232.9043 1565,1232.9043 Q1564.2344,1232.9043 1563.5938,1233.2324 Q1562.9688,1233.5605 1562.4688,1234.3105 Q1561.9844,1235.0605 1561.9844,1236.0918 L1561.9844,1237.1855 Q1561.9844,1238.4199 1562.875,1239.248 Q1563.7656,1240.0605 1565.3594,1240.0605 Q1566.2969,1240.0605 1566.9531,1239.8105 Q1567.3438,1239.6543 1567.7656,1239.2168 Q1568.0313,1238.9512 1568.1719,1238.873 Q1568.3281,1238.7949 1568.5313,1238.7949 Q1568.8594,1238.7949 1569.1094,1239.0605 Q1569.375,1239.3105 1569.375,1239.6543 Q1569.375,1239.998 1569.0313,1240.4043 Q1568.5313,1240.9824 1567.7344,1241.3105 Q1566.6563,1241.7637 1565.3594,1241.7637 Q1563.8438,1241.7637 1562.6406,1241.1387 Q1561.6563,1240.6387 1560.9688,1239.5762 Q1560.2813,1238.498 1560.2813,1237.2168 L1560.2813,1236.0605 Q1560.2813,1234.7324 1560.8906,1233.5918 Q1561.5156,1232.4355 1562.6094,1231.8262 Q1563.7031,1231.2012 1564.9375,1231.2012 Q1565.6719,1231.2012 1566.3125,1231.373 Q1566.9688,1231.5293 1567.5156,1231.8887 Z " fill="#000000"/><text fill="#000000" font-family="sans-serif" font-size="14" lengthAdjust="spacing" textLength="128" x="1585.25" y="1241.8105">GreenSpaceMapper</text><line style="stroke:#181818;stroke-width:0.5;" x1="1458.5" x2="1807.5" y1="1252.0137" y2="1252.0137"/><line style="stroke:#181818;stroke-width:0.5;" x1="1458.5" x2="1807.5" y1="1260.0137" y2="1260.0137"/><text fill="#000000" font-family="sans-serif" font-size="14" lengthAdjust="spacing" textLength="339" x="1463.5" y="1279.1211">+List&lt;GreenSpaceDto&gt; toDTO(List&lt;GreenSpace&gt;list)</text><text fill="#000000" font-family="sans-serif" font-size="14" lengthAdjust="spacing" textLength="269" x="1463.5" y="1297.7422">+GreenSpaceDto toDTO(GreenSpace obj)</text></g><!--class GreenSpaceDto--><g id="elem_GreenSpaceDto"><rect codeLine="49" fill="#F1F1F1" height="103.8633" id="GreenSpaceDto" rx="2.5" ry="2.5" style="stroke:#181818;stroke-width:0.5;" width="282" x="1492" y="1390.0137"/><ellipse cx="1577.75" cy="1406.0137" fill="#ADD1B2" rx="11" ry="11" style="stroke:#181818;stroke-width:1.0;"/><path d="M1580.5156,1401.8887 Q1580.6719,1401.6699 1580.8594,1401.5605 Q1581.0469,1401.4512 1581.2656,1401.4512 Q1581.6406,1401.4512 1581.875,1401.7168 Q1582.1094,1401.9668 1582.1094,1402.5762 L1582.1094,1404.0293 Q1582.1094,1404.6387 1581.875,1404.9043 Q1581.6406,1405.1699 1581.2656,1405.1699 Q1580.9219,1405.1699 1580.7188,1404.9668 Q1580.5156,1404.7793 1580.4063,1404.2637 Q1580.3594,1403.9043 1580.1719,1403.7168 Q1579.8438,1403.3418 1579.2344,1403.123 Q1578.625,1402.9043 1578,1402.9043 Q1577.2344,1402.9043 1576.5938,1403.2324 Q1575.9688,1403.5605 1575.4688,1404.3105 Q1574.9844,1405.0605 1574.9844,1406.0918 L1574.9844,1407.1855 Q1574.9844,1408.4199 1575.875,1409.248 Q1576.7656,1410.0605 1578.3594,1410.0605 Q1579.2969,1410.0605 1579.9531,1409.8105 Q1580.3438,1409.6543 1580.7656,1409.2168 Q1581.0313,1408.9512 1581.1719,1408.873 Q1581.3281,1408.7949 1581.5313,1408.7949 Q1581.8594,1408.7949 1582.1094,1409.0605 Q1582.375,1409.3105 1582.375,1409.6543 Q1582.375,1409.998 1582.0313,1410.4043 Q1581.5313,1410.9824 1580.7344,1411.3105 Q1579.6563,1411.7637 1578.3594,1411.7637 Q1576.8438,1411.7637 1575.6406,1411.1387 Q1574.6563,1410.6387 1573.9688,1409.5762 Q1573.2813,1408.498 1573.2813,1407.2168 L1573.2813,1406.0605 Q1573.2813,1404.7324 1573.8906,1403.5918 Q1574.5156,1402.4355 1575.6094,1401.8262 Q1576.7031,1401.2012 1577.9375,1401.2012 Q1578.6719,1401.2012 1579.3125,1401.373 Q1579.9688,1401.5293 1580.5156,1401.8887 Z " fill="#000000"/><text fill="#000000" font-family="sans-serif" font-size="14" lengthAdjust="spacing" textLength="102" x="1598.25" y="1411.8105">GreenSpaceDto</text><line style="stroke:#181818;stroke-width:0.5;" x1="1493" x2="1773" y1="1422.0137" y2="1422.0137"/><text fill="#000000" font-family="sans-serif" font-size="14" lengthAdjust="spacing" textLength="162" x="1498" y="1441.1211">+String greenSpaceName</text><text fill="#000000" font-family="sans-serif" font-size="14" lengthAdjust="spacing" textLength="56" x="1498" y="1459.7422">+int area</text><line style="stroke:#181818;stroke-width:0.5;" x1="1493" x2="1773" y1="1467.2559" y2="1467.2559"/><text fill="#000000" font-family="sans-serif" font-size="14" lengthAdjust="spacing" textLength="270" x="1498" y="1486.3633">+GreenSpaceDto(greenSpaceName, area)</text></g><!--class GreenSpace--><g id="elem_GreenSpace"><rect codeLine="59" fill="#F1F1F1" height="116.4453" id="GreenSpace" rx="2.5" ry="2.5" style="stroke:#181818;stroke-width:0.5;" width="141" x="1064.5" y="1384.0137"/><ellipse cx="1092.55" cy="1406.3047" fill="#B4A7E5" rx="11" ry="11" style="stroke:#181818;stroke-width:1.0;"/><path d="M1093.5031,1402.9453 L1093.5031,1409.6016 L1095.2219,1409.6016 Q1095.8313,1409.6016 1096.0969,1409.8359 Q1096.3625,1410.0703 1096.3625,1410.4609 Q1096.3625,1410.8359 1096.0969,1411.0703 Q1095.8313,1411.3047 1095.2219,1411.3047 L1090.0813,1411.3047 Q1089.4719,1411.3047 1089.2063,1411.0703 Q1088.9406,1410.8359 1088.9406,1410.4453 Q1088.9406,1410.0703 1089.2063,1409.8359 Q1089.4719,1409.6016 1090.0813,1409.6016 L1091.8,1409.6016 L1091.8,1402.9453 L1090.0813,1402.9453 Q1089.4719,1402.9453 1089.2063,1402.7109 Q1088.9406,1402.4766 1088.9406,1402.0859 Q1088.9406,1401.7109 1089.2063,1401.4766 Q1089.4719,1401.2422 1090.0813,1401.2422 L1095.2219,1401.2422 Q1095.8313,1401.2422 1096.0969,1401.4766 Q1096.3625,1401.7109 1096.3625,1402.0859 Q1096.3625,1402.4766 1096.0969,1402.7109 Q1095.8313,1402.9453 1095.2219,1402.9453 L1093.5031,1402.9453 Z " fill="#000000"/><text fill="#000000" font-family="sans-serif" font-size="12" font-style="italic" lengthAdjust="spacing" textLength="62" x="1118.45" y="1401.9629">&#171;Interface&#187;</text><text fill="#000000" font-family="sans-serif" font-size="14" font-style="italic" lengthAdjust="spacing" textLength="80" x="1109.45" y="1420.082">GreenSpace</text><line style="stroke:#181818;stroke-width:0.5;" x1="1065.5" x2="1204.5" y1="1428.5957" y2="1428.5957"/><line style="stroke:#181818;stroke-width:0.5;" x1="1065.5" x2="1204.5" y1="1436.5957" y2="1436.5957"/><text fill="#000000" font-family="sans-serif" font-size="14" lengthAdjust="spacing" textLength="74" x="1070.5" y="1455.7031">+getName()</text><text fill="#000000" font-family="sans-serif" font-size="14" lengthAdjust="spacing" textLength="68" x="1070.5" y="1474.3242">+getArea()</text><text fill="#000000" font-family="sans-serif" font-size="14" lengthAdjust="spacing" textLength="129" x="1070.5" y="1492.9453">+isAreaLarger(area)</text></g><!--class GreenSpaces--><g id="elem_GreenSpaces"><rect codeLine="65" fill="#F1F1F1" height="66.6211" id="GreenSpaces" rx="2.5" ry="2.5" style="stroke:#181818;stroke-width:0.5;" width="179" x="739.5" y="1408.5137"/><ellipse cx="781.5" cy="1424.5137" fill="#ADD1B2" rx="11" ry="11" style="stroke:#181818;stroke-width:1.0;"/><path d="M784.2656,1420.3887 Q784.4219,1420.1699 784.6094,1420.0605 Q784.7969,1419.9512 785.0156,1419.9512 Q785.3906,1419.9512 785.625,1420.2168 Q785.8594,1420.4668 785.8594,1421.0762 L785.8594,1422.5293 Q785.8594,1423.1387 785.625,1423.4043 Q785.3906,1423.6699 785.0156,1423.6699 Q784.6719,1423.6699 784.4688,1423.4668 Q784.2656,1423.2793 784.1563,1422.7637 Q784.1094,1422.4043 783.9219,1422.2168 Q783.5938,1421.8418 782.9844,1421.623 Q782.375,1421.4043 781.75,1421.4043 Q780.9844,1421.4043 780.3438,1421.7324 Q779.7188,1422.0605 779.2188,1422.8105 Q778.7344,1423.5605 778.7344,1424.5918 L778.7344,1425.6855 Q778.7344,1426.9199 779.625,1427.748 Q780.5156,1428.5605 782.1094,1428.5605 Q783.0469,1428.5605 783.7031,1428.3105 Q784.0938,1428.1543 784.5156,1427.7168 Q784.7813,1427.4512 784.9219,1427.373 Q785.0781,1427.2949 785.2813,1427.2949 Q785.6094,1427.2949 785.8594,1427.5605 Q786.125,1427.8105 786.125,1428.1543 Q786.125,1428.498 785.7813,1428.9043 Q785.2813,1429.4824 784.4844,1429.8105 Q783.4063,1430.2637 782.1094,1430.2637 Q780.5938,1430.2637 779.3906,1429.6387 Q778.4063,1429.1387 777.7188,1428.0762 Q777.0313,1426.998 777.0313,1425.7168 L777.0313,1424.5605 Q777.0313,1423.2324 777.6406,1422.0918 Q778.2656,1420.9355 779.3594,1420.3262 Q780.4531,1419.7012 781.6875,1419.7012 Q782.4219,1419.7012 783.0625,1419.873 Q783.7188,1420.0293 784.2656,1420.3887 Z " fill="#000000"/><text fill="#000000" font-family="sans-serif" font-size="14" lengthAdjust="spacing" textLength="87" x="801.5" y="1430.3105">GreenSpaces</text><line style="stroke:#181818;stroke-width:0.5;" x1="740.5" x2="917.5" y1="1440.5137" y2="1440.5137"/><line style="stroke:#181818;stroke-width:0.5;" x1="740.5" x2="917.5" y1="1448.5137" y2="1448.5137"/><text fill="#000000" font-family="sans-serif" font-size="14" lengthAdjust="spacing" textLength="167" x="745.5" y="1467.6211">+getSortedGreenSpaces()</text></g><!--class Garden--><g id="elem_Garden"><rect codeLine="70" fill="#F1F1F1" height="141.1055" id="Garden" rx="2.5" ry="2.5" style="stroke:#181818;stroke-width:0.5;" width="141" x="1259.5" y="1561.0137"/><ellipse cx="1301.95" cy="1577.0137" fill="#ADD1B2" rx="11" ry="11" style="stroke:#181818;stroke-width:1.0;"/><path d="M1304.7156,1572.8887 Q1304.8719,1572.6699 1305.0594,1572.5605 Q1305.2469,1572.4512 1305.4656,1572.4512 Q1305.8406,1572.4512 1306.075,1572.7168 Q1306.3094,1572.9668 1306.3094,1573.5762 L1306.3094,1575.0293 Q1306.3094,1575.6387 1306.075,1575.9043 Q1305.8406,1576.1699 1305.4656,1576.1699 Q1305.1219,1576.1699 1304.9188,1575.9668 Q1304.7156,1575.7793 1304.6063,1575.2637 Q1304.5594,1574.9043 1304.3719,1574.7168 Q1304.0438,1574.3418 1303.4344,1574.123 Q1302.825,1573.9043 1302.2,1573.9043 Q1301.4344,1573.9043 1300.7938,1574.2324 Q1300.1688,1574.5605 1299.6688,1575.3105 Q1299.1844,1576.0605 1299.1844,1577.0918 L1299.1844,1578.1855 Q1299.1844,1579.4199 1300.075,1580.248 Q1300.9656,1581.0605 1302.5594,1581.0605 Q1303.4969,1581.0605 1304.1531,1580.8105 Q1304.5438,1580.6543 1304.9656,1580.2168 Q1305.2313,1579.9512 1305.3719,1579.873 Q1305.5281,1579.7949 1305.7313,1579.7949 Q1306.0594,1579.7949 1306.3094,1580.0605 Q1306.575,1580.3105 1306.575,1580.6543 Q1306.575,1580.998 1306.2313,1581.4043 Q1305.7313,1581.9824 1304.9344,1582.3105 Q1303.8563,1582.7637 1302.5594,1582.7637 Q1301.0438,1582.7637 1299.8406,1582.1387 Q1298.8563,1581.6387 1298.1688,1580.5762 Q1297.4813,1579.498 1297.4813,1578.2168 L1297.4813,1577.0605 Q1297.4813,1575.7324 1298.0906,1574.5918 Q1298.7156,1573.4355 1299.8094,1572.8262 Q1300.9031,1572.2012 1302.1375,1572.2012 Q1302.8719,1572.2012 1303.5125,1572.373 Q1304.1688,1572.5293 1304.7156,1572.8887 Z " fill="#000000"/><text fill="#000000" font-family="sans-serif" font-size="14" lengthAdjust="spacing" textLength="48" x="1322.05" y="1582.8105">Garden</text><line style="stroke:#181818;stroke-width:0.5;" x1="1260.5" x2="1399.5" y1="1593.0137" y2="1593.0137"/><text fill="#000000" font-family="sans-serif" font-size="14" lengthAdjust="spacing" textLength="81" x="1265.5" y="1612.1211">-String name</text><text fill="#000000" font-family="sans-serif" font-size="14" lengthAdjust="spacing" textLength="53" x="1265.5" y="1630.7422">-int area</text><line style="stroke:#181818;stroke-width:0.5;" x1="1260.5" x2="1399.5" y1="1638.2559" y2="1638.2559"/><text fill="#000000" font-family="sans-serif" font-size="14" lengthAdjust="spacing" textLength="74" x="1265.5" y="1657.3633">+getName()</text><text fill="#000000" font-family="sans-serif" font-size="14" lengthAdjust="spacing" textLength="68" x="1265.5" y="1675.9844">+getArea()</text><text fill="#000000" font-family="sans-serif" font-size="14" lengthAdjust="spacing" textLength="129" x="1265.5" y="1694.6055">+isAreaLarger(area)</text></g><!--class MediumPark--><g id="elem_MediumPark"><rect codeLine="79" fill="#F1F1F1" height="141.1055" id="MediumPark" rx="2.5" ry="2.5" style="stroke:#181818;stroke-width:0.5;" width="141" x="907.5" y="1561.0137"/><ellipse cx="936.45" cy="1577.0137" fill="#ADD1B2" rx="11" ry="11" style="stroke:#181818;stroke-width:1.0;"/><path d="M939.2156,1572.8887 Q939.3719,1572.6699 939.5594,1572.5605 Q939.7469,1572.4512 939.9656,1572.4512 Q940.3406,1572.4512 940.575,1572.7168 Q940.8094,1572.9668 940.8094,1573.5762 L940.8094,1575.0293 Q940.8094,1575.6387 940.575,1575.9043 Q940.3406,1576.1699 939.9656,1576.1699 Q939.6219,1576.1699 939.4188,1575.9668 Q939.2156,1575.7793 939.1063,1575.2637 Q939.0594,1574.9043 938.8719,1574.7168 Q938.5438,1574.3418 937.9344,1574.123 Q937.325,1573.9043 936.7,1573.9043 Q935.9344,1573.9043 935.2938,1574.2324 Q934.6688,1574.5605 934.1688,1575.3105 Q933.6844,1576.0605 933.6844,1577.0918 L933.6844,1578.1855 Q933.6844,1579.4199 934.575,1580.248 Q935.4656,1581.0605 937.0594,1581.0605 Q937.9969,1581.0605 938.6531,1580.8105 Q939.0438,1580.6543 939.4656,1580.2168 Q939.7313,1579.9512 939.8719,1579.873 Q940.0281,1579.7949 940.2313,1579.7949 Q940.5594,1579.7949 940.8094,1580.0605 Q941.075,1580.3105 941.075,1580.6543 Q941.075,1580.998 940.7313,1581.4043 Q940.2313,1581.9824 939.4344,1582.3105 Q938.3563,1582.7637 937.0594,1582.7637 Q935.5438,1582.7637 934.3406,1582.1387 Q933.3563,1581.6387 932.6688,1580.5762 Q931.9813,1579.498 931.9813,1578.2168 L931.9813,1577.0605 Q931.9813,1575.7324 932.5906,1574.5918 Q933.2156,1573.4355 934.3094,1572.8262 Q935.4031,1572.2012 936.6375,1572.2012 Q937.3719,1572.2012 938.0125,1572.373 Q938.6688,1572.5293 939.2156,1572.8887 Z " fill="#000000"/><text fill="#000000" font-family="sans-serif" font-size="14" lengthAdjust="spacing" textLength="78" x="953.55" y="1582.8105">MediumPark</text><line style="stroke:#181818;stroke-width:0.5;" x1="908.5" x2="1047.5" y1="1593.0137" y2="1593.0137"/><text fill="#000000" font-family="sans-serif" font-size="14" lengthAdjust="spacing" textLength="81" x="913.5" y="1612.1211">-String name</text><text fill="#000000" font-family="sans-serif" font-size="14" lengthAdjust="spacing" textLength="53" x="913.5" y="1630.7422">-int area</text><line style="stroke:#181818;stroke-width:0.5;" x1="908.5" x2="1047.5" y1="1638.2559" y2="1638.2559"/><text fill="#000000" font-family="sans-serif" font-size="14" lengthAdjust="spacing" textLength="74" x="913.5" y="1657.3633">+getName()</text><text fill="#000000" font-family="sans-serif" font-size="14" lengthAdjust="spacing" textLength="68" x="913.5" y="1675.9844">+getArea()</text><text fill="#000000" font-family="sans-serif" font-size="14" lengthAdjust="spacing" textLength="129" x="913.5" y="1694.6055">+isAreaLarger(area)</text></g><!--class LargePark--><g id="elem_LargePark"><rect codeLine="88" fill="#F1F1F1" height="141.1055" id="LargePark" rx="2.5" ry="2.5" style="stroke:#181818;stroke-width:0.5;" width="141" x="1083.5" y="1561.0137"/><ellipse cx="1117.85" cy="1577.0137" fill="#ADD1B2" rx="11" ry="11" style="stroke:#181818;stroke-width:1.0;"/><path d="M1120.6156,1572.8887 Q1120.7719,1572.6699 1120.9594,1572.5605 Q1121.1469,1572.4512 1121.3656,1572.4512 Q1121.7406,1572.4512 1121.975,1572.7168 Q1122.2094,1572.9668 1122.2094,1573.5762 L1122.2094,1575.0293 Q1122.2094,1575.6387 1121.975,1575.9043 Q1121.7406,1576.1699 1121.3656,1576.1699 Q1121.0219,1576.1699 1120.8188,1575.9668 Q1120.6156,1575.7793 1120.5063,1575.2637 Q1120.4594,1574.9043 1120.2719,1574.7168 Q1119.9438,1574.3418 1119.3344,1574.123 Q1118.725,1573.9043 1118.1,1573.9043 Q1117.3344,1573.9043 1116.6938,1574.2324 Q1116.0688,1574.5605 1115.5688,1575.3105 Q1115.0844,1576.0605 1115.0844,1577.0918 L1115.0844,1578.1855 Q1115.0844,1579.4199 1115.975,1580.248 Q1116.8656,1581.0605 1118.4594,1581.0605 Q1119.3969,1581.0605 1120.0531,1580.8105 Q1120.4438,1580.6543 1120.8656,1580.2168 Q1121.1313,1579.9512 1121.2719,1579.873 Q1121.4281,1579.7949 1121.6313,1579.7949 Q1121.9594,1579.7949 1122.2094,1580.0605 Q1122.475,1580.3105 1122.475,1580.6543 Q1122.475,1580.998 1122.1313,1581.4043 Q1121.6313,1581.9824 1120.8344,1582.3105 Q1119.7563,1582.7637 1118.4594,1582.7637 Q1116.9438,1582.7637 1115.7406,1582.1387 Q1114.7563,1581.6387 1114.0688,1580.5762 Q1113.3813,1579.498 1113.3813,1578.2168 L1113.3813,1577.0605 Q1113.3813,1575.7324 1113.9906,1574.5918 Q1114.6156,1573.4355 1115.7094,1572.8262 Q1116.8031,1572.2012 1118.0375,1572.2012 Q1118.7719,1572.2012 1119.4125,1572.373 Q1120.0688,1572.5293 1120.6156,1572.8887 Z " fill="#000000"/><text fill="#000000" font-family="sans-serif" font-size="14" lengthAdjust="spacing" textLength="66" x="1136.15" y="1582.8105">LargePark</text><line style="stroke:#181818;stroke-width:0.5;" x1="1084.5" x2="1223.5" y1="1593.0137" y2="1593.0137"/><text fill="#000000" font-family="sans-serif" font-size="14" lengthAdjust="spacing" textLength="81" x="1089.5" y="1612.1211">-String name</text><text fill="#000000" font-family="sans-serif" font-size="14" lengthAdjust="spacing" textLength="53" x="1089.5" y="1630.7422">-int area</text><line style="stroke:#181818;stroke-width:0.5;" x1="1084.5" x2="1223.5" y1="1638.2559" y2="1638.2559"/><text fill="#000000" font-family="sans-serif" font-size="14" lengthAdjust="spacing" textLength="74" x="1089.5" y="1657.3633">+getName()</text><text fill="#000000" font-family="sans-serif" font-size="14" lengthAdjust="spacing" textLength="68" x="1089.5" y="1675.9844">+getArea()</text><text fill="#000000" font-family="sans-serif" font-size="14" lengthAdjust="spacing" textLength="129" x="1089.5" y="1694.6055">+isAreaLarger(area)</text></g><!--class ICollaborator--><g id="elem_ICollaborator"><rect codeLine="97" fill="#F1F1F1" height="97.8242" id="ICollaborator" rx="2.5" ry="2.5" style="stroke:#181818;stroke-width:0.5;" width="120" x="537" y="1038.0137"/><ellipse cx="554.7" cy="1060.3047" fill="#B4A7E5" rx="11" ry="11" style="stroke:#181818;stroke-width:1.0;"/><path d="M555.6531,1056.9453 L555.6531,1063.6016 L557.3719,1063.6016 Q557.9813,1063.6016 558.2469,1063.8359 Q558.5125,1064.0703 558.5125,1064.4609 Q558.5125,1064.8359 558.2469,1065.0703 Q557.9813,1065.3047 557.3719,1065.3047 L552.2313,1065.3047 Q551.6219,1065.3047 551.3563,1065.0703 Q551.0906,1064.8359 551.0906,1064.4453 Q551.0906,1064.0703 551.3563,1063.8359 Q551.6219,1063.6016 552.2313,1063.6016 L553.95,1063.6016 L553.95,1056.9453 L552.2313,1056.9453 Q551.6219,1056.9453 551.3563,1056.7109 Q551.0906,1056.4766 551.0906,1056.0859 Q551.0906,1055.7109 551.3563,1055.4766 Q551.6219,1055.2422 552.2313,1055.2422 L557.3719,1055.2422 Q557.9813,1055.2422 558.2469,1055.4766 Q558.5125,1055.7109 558.5125,1056.0859 Q558.5125,1056.4766 558.2469,1056.7109 Q557.9813,1056.9453 557.3719,1056.9453 L555.6531,1056.9453 Z " fill="#000000"/><text fill="#000000" font-family="sans-serif" font-size="12" font-style="italic" lengthAdjust="spacing" textLength="62" x="579.3" y="1055.9629">&#171;Interface&#187;</text><text fill="#000000" font-family="sans-serif" font-size="14" font-style="italic" lengthAdjust="spacing" textLength="82" x="569.3" y="1074.082">ICollaborator</text><line style="stroke:#181818;stroke-width:0.5;" x1="538" x2="656" y1="1082.5957" y2="1082.5957"/><line style="stroke:#181818;stroke-width:0.5;" x1="538" x2="656" y1="1090.5957" y2="1090.5957"/><text fill="#000000" font-family="sans-serif" font-size="14" lengthAdjust="spacing" textLength="72" x="543" y="1109.7031">+getEmail()</text><text fill="#000000" font-family="sans-serif" font-size="14" lengthAdjust="spacing" textLength="108" x="543" y="1128.3242">+hasEmail(email)</text></g><!--class GreenSpaceManager--><g id="elem_GreenSpaceManager"><rect codeLine="102" fill="#F1F1F1" height="66.6211" id="GreenSpaceManager" rx="2.5" ry="2.5" style="stroke:#181818;stroke-width:0.5;" width="168" x="513" y="1229.0137"/><ellipse cx="528" cy="1245.0137" fill="#ADD1B2" rx="11" ry="11" style="stroke:#181818;stroke-width:1.0;"/><path d="M530.7656,1240.8887 Q530.9219,1240.6699 531.1094,1240.5605 Q531.2969,1240.4512 531.5156,1240.4512 Q531.8906,1240.4512 532.125,1240.7168 Q532.3594,1240.9668 532.3594,1241.5762 L532.3594,1243.0293 Q532.3594,1243.6387 532.125,1243.9043 Q531.8906,1244.1699 531.5156,1244.1699 Q531.1719,1244.1699 530.9688,1243.9668 Q530.7656,1243.7793 530.6563,1243.2637 Q530.6094,1242.9043 530.4219,1242.7168 Q530.0938,1242.3418 529.4844,1242.123 Q528.875,1241.9043 528.25,1241.9043 Q527.4844,1241.9043 526.8438,1242.2324 Q526.2188,1242.5605 525.7188,1243.3105 Q525.2344,1244.0605 525.2344,1245.0918 L525.2344,1246.1855 Q525.2344,1247.4199 526.125,1248.248 Q527.0156,1249.0605 528.6094,1249.0605 Q529.5469,1249.0605 530.2031,1248.8105 Q530.5938,1248.6543 531.0156,1248.2168 Q531.2813,1247.9512 531.4219,1247.873 Q531.5781,1247.7949 531.7813,1247.7949 Q532.1094,1247.7949 532.3594,1248.0605 Q532.625,1248.3105 532.625,1248.6543 Q532.625,1248.998 532.2813,1249.4043 Q531.7813,1249.9824 530.9844,1250.3105 Q529.9063,1250.7637 528.6094,1250.7637 Q527.0938,1250.7637 525.8906,1250.1387 Q524.9063,1249.6387 524.2188,1248.5762 Q523.5313,1247.498 523.5313,1246.2168 L523.5313,1245.0605 Q523.5313,1243.7324 524.1406,1242.5918 Q524.7656,1241.4355 525.8594,1240.8262 Q526.9531,1240.2012 528.1875,1240.2012 Q528.9219,1240.2012 529.5625,1240.373 Q530.2188,1240.5293 530.7656,1240.8887 Z " fill="#000000"/><text fill="#000000" font-family="sans-serif" font-size="14" lengthAdjust="spacing" textLength="136" x="542" y="1250.8105">GreenSpaceManager</text><line style="stroke:#181818;stroke-width:0.5;" x1="514" x2="680" y1="1261.0137" y2="1261.0137"/><line style="stroke:#181818;stroke-width:0.5;" x1="514" x2="680" y1="1269.0137" y2="1269.0137"/><text fill="#000000" font-family="sans-serif" font-size="14" lengthAdjust="spacing" textLength="118" x="519" y="1288.1211">+getGreenSpace()</text></g><!--class Sortable--><g id="elem_Sortable"><rect codeLine="107" fill="#F1F1F1" height="79.2031" id="Sortable" rx="2.5" ry="2.5" style="stroke:#181818;stroke-width:0.5;" width="213" x="411.5" y="1402.5137"/><ellipse cx="484.75" cy="1424.8047" fill="#B4A7E5" rx="11" ry="11" style="stroke:#181818;stroke-width:1.0;"/><path d="M485.7031,1421.4453 L485.7031,1428.1016 L487.4219,1428.1016 Q488.0313,1428.1016 488.2969,1428.3359 Q488.5625,1428.5703 488.5625,1428.9609 Q488.5625,1429.3359 488.2969,1429.5703 Q488.0313,1429.8047 487.4219,1429.8047 L482.2813,1429.8047 Q481.6719,1429.8047 481.4063,1429.5703 Q481.1406,1429.3359 481.1406,1428.9453 Q481.1406,1428.5703 481.4063,1428.3359 Q481.6719,1428.1016 482.2813,1428.1016 L484,1428.1016 L484,1421.4453 L482.2813,1421.4453 Q481.6719,1421.4453 481.4063,1421.2109 Q481.1406,1420.9766 481.1406,1420.5859 Q481.1406,1420.2109 481.4063,1419.9766 Q481.6719,1419.7422 482.2813,1419.7422 L487.4219,1419.7422 Q488.0313,1419.7422 488.2969,1419.9766 Q488.5625,1420.2109 488.5625,1420.5859 Q488.5625,1420.9766 488.2969,1421.2109 Q488.0313,1421.4453 487.4219,1421.4453 L485.7031,1421.4453 Z " fill="#000000"/><text fill="#000000" font-family="sans-serif" font-size="12" font-style="italic" lengthAdjust="spacing" textLength="62" x="503.25" y="1420.4629">&#171;Interface&#187;</text><text fill="#000000" font-family="sans-serif" font-size="14" font-style="italic" lengthAdjust="spacing" textLength="53" x="507.75" y="1438.582">Sortable</text><line style="stroke:#181818;stroke-width:0.5;" x1="412.5" x2="623.5" y1="1447.0957" y2="1447.0957"/><line style="stroke:#181818;stroke-width:0.5;" x1="412.5" x2="623.5" y1="1455.0957" y2="1455.0957"/><text fill="#000000" font-family="sans-serif" font-size="14" lengthAdjust="spacing" textLength="201" x="417.5" y="1474.2031">+getSortedList(greenSpaceList)</text></g><!--class BubbleSort--><g id="elem_BubbleSort"><rect codeLine="112" fill="#F1F1F1" height="66.6211" id="BubbleSort" rx="2.5" ry="2.5" style="stroke:#181818;stroke-width:0.5;" width="213" x="659.5" y="1598.0137"/><ellipse cx="726.75" cy="1614.0137" fill="#ADD1B2" rx="11" ry="11" style="stroke:#181818;stroke-width:1.0;"/><path d="M729.5156,1609.8887 Q729.6719,1609.6699 729.8594,1609.5605 Q730.0469,1609.4512 730.2656,1609.4512 Q730.6406,1609.4512 730.875,1609.7168 Q731.1094,1609.9668 731.1094,1610.5762 L731.1094,1612.0293 Q731.1094,1612.6387 730.875,1612.9043 Q730.6406,1613.1699 730.2656,1613.1699 Q729.9219,1613.1699 729.7188,1612.9668 Q729.5156,1612.7793 729.4063,1612.2637 Q729.3594,1611.9043 729.1719,1611.7168 Q728.8438,1611.3418 728.2344,1611.123 Q727.625,1610.9043 727,1610.9043 Q726.2344,1610.9043 725.5938,1611.2324 Q724.9688,1611.5605 724.4688,1612.3105 Q723.9844,1613.0605 723.9844,1614.0918 L723.9844,1615.1855 Q723.9844,1616.4199 724.875,1617.248 Q725.7656,1618.0605 727.3594,1618.0605 Q728.2969,1618.0605 728.9531,1617.8105 Q729.3438,1617.6543 729.7656,1617.2168 Q730.0313,1616.9512 730.1719,1616.873 Q730.3281,1616.7949 730.5313,1616.7949 Q730.8594,1616.7949 731.1094,1617.0605 Q731.375,1617.3105 731.375,1617.6543 Q731.375,1617.998 731.0313,1618.4043 Q730.5313,1618.9824 729.7344,1619.3105 Q728.6563,1619.7637 727.3594,1619.7637 Q725.8438,1619.7637 724.6406,1619.1387 Q723.6563,1618.6387 722.9688,1617.5762 Q722.2813,1616.498 722.2813,1615.2168 L722.2813,1614.0605 Q722.2813,1612.7324 722.8906,1611.5918 Q723.5156,1610.4355 724.6094,1609.8262 Q725.7031,1609.2012 726.9375,1609.2012 Q727.6719,1609.2012 728.3125,1609.373 Q728.9688,1609.5293 729.5156,1609.8887 Z " fill="#000000"/><text fill="#000000" font-family="sans-serif" font-size="14" lengthAdjust="spacing" textLength="70" x="747.25" y="1619.8105">BubbleSort</text><line style="stroke:#181818;stroke-width:0.5;" x1="660.5" x2="871.5" y1="1630.0137" y2="1630.0137"/><line style="stroke:#181818;stroke-width:0.5;" x1="660.5" x2="871.5" y1="1638.0137" y2="1638.0137"/><text fill="#000000" font-family="sans-serif" font-size="14" lengthAdjust="spacing" textLength="201" x="665.5" y="1657.1211">+getSortedList(greenSpaceList)</text></g><!--class SelectionSort--><g id="elem_SelectionSort"><rect codeLine="117" fill="#F1F1F1" height="66.6211" id="SelectionSort" rx="2.5" ry="2.5" style="stroke:#181818;stroke-width:0.5;" width="213" x="411.5" y="1598.0137"/><ellipse cx="471.75" cy="1614.0137" fill="#ADD1B2" rx="11" ry="11" style="stroke:#181818;stroke-width:1.0;"/><path d="M474.5156,1609.8887 Q474.6719,1609.6699 474.8594,1609.5605 Q475.0469,1609.4512 475.2656,1609.4512 Q475.6406,1609.4512 475.875,1609.7168 Q476.1094,1609.9668 476.1094,1610.5762 L476.1094,1612.0293 Q476.1094,1612.6387 475.875,1612.9043 Q475.6406,1613.1699 475.2656,1613.1699 Q474.9219,1613.1699 474.7188,1612.9668 Q474.5156,1612.7793 474.4063,1612.2637 Q474.3594,1611.9043 474.1719,1611.7168 Q473.8438,1611.3418 473.2344,1611.123 Q472.625,1610.9043 472,1610.9043 Q471.2344,1610.9043 470.5938,1611.2324 Q469.9688,1611.5605 469.4688,1612.3105 Q468.9844,1613.0605 468.9844,1614.0918 L468.9844,1615.1855 Q468.9844,1616.4199 469.875,1617.248 Q470.7656,1618.0605 472.3594,1618.0605 Q473.2969,1618.0605 473.9531,1617.8105 Q474.3438,1617.6543 474.7656,1617.2168 Q475.0313,1616.9512 475.1719,1616.873 Q475.3281,1616.7949 475.5313,1616.7949 Q475.8594,1616.7949 476.1094,1617.0605 Q476.375,1617.3105 476.375,1617.6543 Q476.375,1617.998 476.0313,1618.4043 Q475.5313,1618.9824 474.7344,1619.3105 Q473.6563,1619.7637 472.3594,1619.7637 Q470.8438,1619.7637 469.6406,1619.1387 Q468.6563,1618.6387 467.9688,1617.5762 Q467.2813,1616.498 467.2813,1615.2168 L467.2813,1614.0605 Q467.2813,1612.7324 467.8906,1611.5918 Q468.5156,1610.4355 469.6094,1609.8262 Q470.7031,1609.2012 471.9375,1609.2012 Q472.6719,1609.2012 473.3125,1609.373 Q473.9688,1609.5293 474.5156,1609.8887 Z " fill="#000000"/><text fill="#000000" font-family="sans-serif" font-size="14" lengthAdjust="spacing" textLength="84" x="492.25" y="1619.8105">SelectionSort</text><line style="stroke:#181818;stroke-width:0.5;" x1="412.5" x2="623.5" y1="1630.0137" y2="1630.0137"/><line style="stroke:#181818;stroke-width:0.5;" x1="412.5" x2="623.5" y1="1638.0137" y2="1638.0137"/><text fill="#000000" font-family="sans-serif" font-size="14" lengthAdjust="spacing" textLength="201" x="417.5" y="1657.1211">+getSortedList(greenSpaceList)</text></g><!--class Repositories--><g id="elem_Repositories"><rect codeLine="126" fill="#F1F1F1" height="103.8633" id="Repositories" rx="2.5" ry="2.5" style="stroke:#181818;stroke-width:0.5;" width="196" x="772" y="492.0137"/><ellipse cx="826.25" cy="508.0137" fill="#ADD1B2" rx="11" ry="11" style="stroke:#181818;stroke-width:1.0;"/><path d="M829.0156,503.8887 Q829.1719,503.6699 829.3594,503.5605 Q829.5469,503.4512 829.7656,503.4512 Q830.1406,503.4512 830.375,503.7168 Q830.6094,503.9668 830.6094,504.5762 L830.6094,506.0293 Q830.6094,506.6387 830.375,506.9043 Q830.1406,507.1699 829.7656,507.1699 Q829.4219,507.1699 829.2188,506.9668 Q829.0156,506.7793 828.9063,506.2637 Q828.8594,505.9043 828.6719,505.7168 Q828.3438,505.3418 827.7344,505.123 Q827.125,504.9043 826.5,504.9043 Q825.7344,504.9043 825.0938,505.2324 Q824.4688,505.5605 823.9688,506.3105 Q823.4844,507.0605 823.4844,508.0918 L823.4844,509.1855 Q823.4844,510.4199 824.375,511.248 Q825.2656,512.0605 826.8594,512.0605 Q827.7969,512.0605 828.4531,511.8105 Q828.8438,511.6543 829.2656,511.2168 Q829.5313,510.9512 829.6719,510.873 Q829.8281,510.7949 830.0313,510.7949 Q830.3594,510.7949 830.6094,511.0605 Q830.875,511.3105 830.875,511.6543 Q830.875,511.998 830.5313,512.4043 Q830.0313,512.9824 829.2344,513.3105 Q828.1563,513.7637 826.8594,513.7637 Q825.3438,513.7637 824.1406,513.1387 Q823.1563,512.6387 822.4688,511.5762 Q821.7813,510.498 821.7813,509.2168 L821.7813,508.0605 Q821.7813,506.7324 822.3906,505.5918 Q823.0156,504.4355 824.1094,503.8262 Q825.2031,503.2012 826.4375,503.2012 Q827.1719,503.2012 827.8125,503.373 Q828.4688,503.5293 829.0156,503.8887 Z " fill="#000000"/><text fill="#000000" font-family="sans-serif" font-size="14" lengthAdjust="spacing" textLength="79" x="846.75" y="513.8105">Repositories</text><line style="stroke:#181818;stroke-width:0.5;" x1="773" x2="967" y1="524.0137" y2="524.0137"/><line style="stroke:#181818;stroke-width:0.5;" x1="773" x2="967" y1="532.0137" y2="532.0137"/><text fill="#000000" font-family="sans-serif" font-size="14" lengthAdjust="spacing" textLength="94" x="778" y="551.1211">-Repositories()</text><text fill="#000000" font-family="sans-serif" font-size="14" lengthAdjust="spacing" textLength="182" x="778" y="569.7422">+getInstance() : Repositories</text><text fill="#000000" font-family="sans-serif" font-size="14" lengthAdjust="spacing" textLength="184" x="778" y="588.3633">+getCollaboratorRepository()</text></g><!--class CollaboratorRepository--><g id="elem_CollaboratorRepository"><rect codeLine="133" fill="#F1F1F1" height="66.6211" id="CollaboratorRepository" rx="2.5" ry="2.5" style="stroke:#181818;stroke-width:0.5;" width="211" x="772.5" y="805.0137"/><ellipse cx="802.35" cy="821.0137" fill="#ADD1B2" rx="11" ry="11" style="stroke:#181818;stroke-width:1.0;"/><path d="M805.1156,816.8887 Q805.2719,816.6699 805.4594,816.5605 Q805.6469,816.4512 805.8656,816.4512 Q806.2406,816.4512 806.475,816.7168 Q806.7094,816.9668 806.7094,817.5762 L806.7094,819.0293 Q806.7094,819.6387 806.475,819.9043 Q806.2406,820.1699 805.8656,820.1699 Q805.5219,820.1699 805.3188,819.9668 Q805.1156,819.7793 805.0063,819.2637 Q804.9594,818.9043 804.7719,818.7168 Q804.4438,818.3418 803.8344,818.123 Q803.225,817.9043 802.6,817.9043 Q801.8344,817.9043 801.1938,818.2324 Q800.5688,818.5605 800.0688,819.3105 Q799.5844,820.0605 799.5844,821.0918 L799.5844,822.1855 Q799.5844,823.4199 800.475,824.248 Q801.3656,825.0605 802.9594,825.0605 Q803.8969,825.0605 804.5531,824.8105 Q804.9438,824.6543 805.3656,824.2168 Q805.6313,823.9512 805.7719,823.873 Q805.9281,823.7949 806.1313,823.7949 Q806.4594,823.7949 806.7094,824.0605 Q806.975,824.3105 806.975,824.6543 Q806.975,824.998 806.6313,825.4043 Q806.1313,825.9824 805.3344,826.3105 Q804.2563,826.7637 802.9594,826.7637 Q801.4438,826.7637 800.2406,826.1387 Q799.2563,825.6387 798.5688,824.5762 Q797.8813,823.498 797.8813,822.2168 L797.8813,821.0605 Q797.8813,819.7324 798.4906,818.5918 Q799.1156,817.4355 800.2094,816.8262 Q801.3031,816.2012 802.5375,816.2012 Q803.2719,816.2012 803.9125,816.373 Q804.5688,816.5293 805.1156,816.8887 Z " fill="#000000"/><text fill="#000000" font-family="sans-serif" font-size="14" lengthAdjust="spacing" textLength="146" x="819.65" y="826.8105">CollaboratorRepository</text><line style="stroke:#181818;stroke-width:0.5;" x1="773.5" x2="982.5" y1="837.0137" y2="837.0137"/><line style="stroke:#181818;stroke-width:0.5;" x1="773.5" x2="982.5" y1="845.0137" y2="845.0137"/><text fill="#000000" font-family="sans-serif" font-size="14" lengthAdjust="spacing" textLength="199" x="778.5" y="864.1211">+getCollaboratorByEmail(email)</text></g><!--reverse link GreenSpace to Garden--><g id="link_GreenSpace_Garden"><path d="M1207.2754,1512.5092 C1227.7854,1532.2292 1237.99,1542.0437 1259.32,1562.5437 " fill="none" id="GreenSpace-backto-Garden" style="stroke:#181818;stroke-width:1.0;stroke-dasharray:7.0,7.0;"/><polygon fill="none" points="1194.3,1500.0337,1203.1168,1516.8344,1211.4339,1508.1841,1194.3,1500.0337" style="stroke:#181818;stroke-width:1.0;"/></g><!--reverse link GreenSpace to MediumPark--><g id="link_GreenSpace_MediumPark"><path d="M1075.7042,1513.8345 C1059.6442,1533.0145 1053.1,1540.8237 1036.32,1560.8637 " fill="none" id="GreenSpace-backto-MediumPark" style="stroke:#181818;stroke-width:1.0;stroke-dasharray:7.0,7.0;"/><polygon fill="none" points="1087.26,1500.0337,1071.1039,1509.9825,1080.3044,1517.6864,1087.26,1500.0337" style="stroke:#181818;stroke-width:1.0;"/></g><!--reverse link GreenSpace to LargePark--><g id="link_GreenSpace_LargePark"><path d="M1142.5914,1517.9423 C1144.5314,1537.1223 1144.91,1540.8237 1146.94,1560.8637 " fill="none" id="GreenSpace-backto-LargePark" style="stroke:#181818;stroke-width:1.0;stroke-dasharray:7.0,7.0;"/><polygon fill="none" points="1140.78,1500.0337,1136.6219,1518.5461,1148.5609,1517.3385,1140.78,1500.0337" style="stroke:#181818;stroke-width:1.0;"/></g><!--reverse link ICollaborator to GreenSpaceManager--><g id="link_ICollaborator_GreenSpaceManager"><path d="M597,1154.3437 C597,1183.8237 597,1202.7137 597,1228.7937 " fill="none" id="ICollaborator-backto-GreenSpaceManager" style="stroke:#181818;stroke-width:1.0;stroke-dasharray:7.0,7.0;"/><polygon fill="none" points="597,1136.3437,591,1154.3437,603,1154.3437,597,1136.3437" style="stroke:#181818;stroke-width:1.0;"/></g><!--reverse link Sortable to BubbleSort--><g id="link_Sortable_BubbleSort"><path d="M583.447,1492.4908 C628.817,1526.8008 680.04,1565.5237 722.84,1597.8837 " fill="none" id="Sortable-backto-BubbleSort" style="stroke:#181818;stroke-width:1.0;stroke-dasharray:7.0,7.0;"/><polygon fill="none" points="569.09,1481.6337,579.8279,1497.2765,587.066,1487.7051,569.09,1481.6337" style="stroke:#181818;stroke-width:1.0;"/></g><!--reverse link Sortable to SelectionSort--><g id="link_Sortable_SelectionSort"><path d="M518,1499.8637 C518,1534.1937 518,1565.6737 518,1597.9637 " fill="none" id="Sortable-backto-SelectionSort" style="stroke:#181818;stroke-width:1.0;stroke-dasharray:7.0,7.0;"/><polygon fill="none" points="518,1481.8637,512,1499.8637,524,1499.8637,518,1481.8637" style="stroke:#181818;stroke-width:1.0;"/></g><!--link GreenSpaceMapper to GreenSpaceDto--><g id="link_GreenSpaceMapper_GreenSpaceDto"><path codeLine="141" d="M1633,1305.1337 C1633,1330.4437 1633,1356.9537 1633,1383.8337 " fill="none" id="GreenSpaceMapper-to-GreenSpaceDto" style="stroke:#181818;stroke-width:1.0;stroke-dasharray:7.0,7.0;"/><polygon fill="#181818" points="1633,1389.8337,1637,1380.8337,1633,1384.8337,1629,1380.8337,1633,1389.8337" style="stroke:#181818;stroke-width:1.0;"/></g><!--link GreenSpaceMapper to GreenSpace--><g id="link_GreenSpaceMapper_GreenSpace"><path codeLine="142" d="M1516.56,1305.0137 C1420.26,1339.3437 1292.2819,1384.9597 1211.4019,1413.7797 " fill="none" id="GreenSpaceMapper-to-GreenSpace" style="stroke:#181818;stroke-width:1.0;stroke-dasharray:7.0,7.0;"/><polygon fill="#181818" points="1205.75,1415.7937,1215.5705,1416.5407,1210.4599,1414.1154,1212.8852,1409.0048,1205.75,1415.7937" style="stroke:#181818;stroke-width:1.0;"/></g><!--link Repositories to Repositories--><g id="link_Repositories_Repositories"><path codeLine="145" d="M968.02,527.7337 C988.37,529.4437 1003,534.8737 1003,544.0137 C1003,553.1537 994.3489,558.0813 973.9989,559.7913 " fill="none" id="Repositories-to-Repositories" style="stroke:#181818;stroke-width:1.0;"/><polygon fill="#181818" points="968.02,560.2937,977.3233,563.526,973.0024,559.875,976.6535,555.5541,968.02,560.2937" style="stroke:#181818;stroke-width:1.0;"/><text fill="#000000" font-family="sans-serif" font-size="13" lengthAdjust="spacing" textLength="49" x="1009" y="549.542">instance</text></g><!--link ApplicationSession to ApplicationSession--><g id="link_ApplicationSession_ApplicationSession"><path codeLine="146" d="M636.66,527.3037 C656.5,528.2937 671.5,533.8637 671.5,544.0137 C671.5,554.1637 662.4925,559.4346 642.6525,560.4246 " fill="none" id="ApplicationSession-to-ApplicationSession" style="stroke:#181818;stroke-width:1.0;"/><polygon fill="#181818" points="636.66,560.7237,645.8482,564.2702,641.6538,560.4745,645.4495,556.2801,636.66,560.7237" style="stroke:#181818;stroke-width:1.0;"/><text fill="#000000" font-family="sans-serif" font-size="13" lengthAdjust="spacing" textLength="49" x="677.5" y="549.542">instance</text></g><!--link ListGreenSpacesUI to ListGreenSpacesController--><g id="link_ListGreenSpacesUI_ListGreenSpacesController"><path codeLine="149" d="M1732.33,76.7037 C1512.75,101.5837 883.4618,172.8881 575.0418,207.8381 " fill="none" id="ListGreenSpacesUI-to-ListGreenSpacesController" style="stroke:#181818;stroke-width:1.0;stroke-dasharray:7.0,7.0;"/><polygon fill="#181818" points="569.08,208.5137,578.4732,211.4748,574.0482,207.9507,577.5724,203.5257,569.08,208.5137" style="stroke:#181818;stroke-width:1.0;"/></g><!--link ListGreenSpacesUI to GreenSpaceDto--><g id="link_ListGreenSpacesUI_GreenSpaceDto"><path codeLine="150" d="M1816.71,91.2837 C1831.41,135.6537 1862,228.0137 1862,228.0137 C1862,228.0137 1862,228.0137 1862,1263.5137 C1862,1263.5137 1826,1305.0137 1826,1305.0137 C1826,1305.0137 1765.0845,1347.9374 1710.3245,1386.5274 " fill="none" id="ListGreenSpacesUI-to-GreenSpaceDto" style="stroke:#181818;stroke-width:1.0;stroke-dasharray:7.0,7.0;"/><polygon fill="#181818" points="1705.42,1389.9837,1715.0809,1388.0689,1709.5071,1387.1035,1710.4726,1381.5296,1705.42,1389.9837" style="stroke:#181818;stroke-width:1.0;"/></g><!--link ListGreenSpacesController to Repositories--><g id="link_ListGreenSpacesController_Repositories"><path codeLine="153" d="M496.6,281.1537 C595.35,331.8537 732,402.0137 732,402.0137 C732,402.0137 776.1333,447.1055 815.5933,487.4255 " fill="none" id="ListGreenSpacesController-to-Repositories" style="stroke:#181818;stroke-width:1.0;stroke-dasharray:7.0,7.0;"/><polygon fill="#181818" points="819.79,491.7137,816.3538,482.4837,816.2928,488.1402,810.6363,488.0793,819.79,491.7137" style="stroke:#181818;stroke-width:1.0;"/><text fill="#000000" font-family="sans-serif" font-size="13" lengthAdjust="spacing" textLength="67" x="655" y="359.042">repositories</text></g><!--link ListGreenSpacesController to ApplicationSession--><g id="link_ListGreenSpacesController_ApplicationSession"><path codeLine="154" d="M434.59,281.1637 C447.14,298.2437 458,313.0137 458,313.0137 C458,313.0137 510.2178,429.6076 539.8978,495.8876 " fill="none" id="ListGreenSpacesController-to-ApplicationSession" style="stroke:#181818;stroke-width:1.0;stroke-dasharray:7.0,7.0;"/><polygon fill="#181818" points="542.35,501.3637,542.3225,491.5149,540.3065,496.8003,535.0211,494.7844,542.35,501.3637" style="stroke:#181818;stroke-width:1.0;"/></g><!--link ListGreenSpacesController to UserSession--><g id="link_ListGreenSpacesController_UserSession"><path codeLine="155" d="M569.38,274.5337 C766.71,325.4937 1063,402.0137 1063,402.0137 C1063,402.0137 1063,596.0137 1063,596.0137 C1063,596.0137 756,675.0137 756,675.0137 C756,675.0137 728.3677,682.3687 696.5077,690.8587 " fill="none" id="ListGreenSpacesController-to-UserSession" style="stroke:#181818;stroke-width:1.0;stroke-dasharray:7.0,7.0;"/><polygon fill="#181818" points="690.71,692.4037,700.4365,693.9514,695.5414,691.1162,698.3766,686.2211,690.71,692.4037" style="stroke:#181818;stroke-width:1.0;"/></g><!--link ListGreenSpacesController to CollaboratorRepository--><g id="link_ListGreenSpacesController_CollaboratorRepository"><path codeLine="156" d="M569.26,257.2737 C797.33,293.3737 1171,352.5137 1171,352.5137 C1171,352.5137 1171,352.5137 1171,709.5137 C1171,709.5137 1044.9983,764.5619 958.1883,802.4819 " fill="none" id="ListGreenSpacesController-to-CollaboratorRepository" style="stroke:#181818;stroke-width:1.0;stroke-dasharray:7.0,7.0;"/><polygon fill="#181818" points="952.69,804.8837,962.5387,804.9466,957.2719,802.8822,959.3363,797.6155,952.69,804.8837" style="stroke:#181818;stroke-width:1.0;"/></g><!--link ListGreenSpacesController to ICollaborator--><g id="link_ListGreenSpacesController_ICollaborator"><path codeLine="157" d="M411.64,281.2537 C421.23,314.8237 432,352.5137 432,352.5137 C432,352.5137 432,352.5137 432,945.5137 C432,945.5137 487.9216,993.1339 535.6516,1033.7739 " fill="none" id="ListGreenSpacesController-to-ICollaborator" style="stroke:#181818;stroke-width:1.0;stroke-dasharray:7.0,7.0;"/><polygon fill="#181818" points="540.22,1037.6637,535.9606,1028.7835,536.413,1034.4222,530.7743,1034.8746,540.22,1037.6637" style="stroke:#181818;stroke-width:1.0;"/></g><!--link ListGreenSpacesController to GreenSpace--><g id="link_ListGreenSpacesController_GreenSpace"><path codeLine="158" d="M271.58,281.0437 C229.48,298.1737 193,313.0137 193,313.0137 C193,313.0137 148,352.5137 148,352.5137 C148,352.5137 148,352.5137 148,1263.5137 C148,1263.5137 193,1354.0137 193,1354.0137 C193,1354.0137 936,1384.0137 936,1384.0137 C936,1384.0137 1001.3118,1402.7219 1058.5118,1419.1019 " fill="none" id="ListGreenSpacesController-to-GreenSpace" style="stroke:#181818;stroke-width:1.0;stroke-dasharray:7.0,7.0;"/><polygon fill="#181818" points="1064.28,1420.7537,1056.729,1414.4306,1059.4732,1419.3772,1054.5266,1422.1214,1064.28,1420.7537" style="stroke:#181818;stroke-width:1.0;"/></g><!--link ListGreenSpacesController to GreenSpaceManager--><g id="link_ListGreenSpacesController_GreenSpaceManager"><path codeLine="159" d="M352.24,281.2537 C322.92,314.8237 290,352.5137 290,352.5137 C290,352.5137 290,352.5137 290,1088.0137 C290,1088.0137 335,1167.0137 335,1167.0137 C335,1167.0137 430.426,1201.4276 507.016,1229.0576 " fill="none" id="ListGreenSpacesController-to-GreenSpaceManager" style="stroke:#181818;stroke-width:1.0;stroke-dasharray:7.0,7.0;"/><polygon fill="#181818" points="512.66,1231.0937,505.5514,1224.2769,507.9567,1229.3969,502.8367,1231.8022,512.66,1231.0937" style="stroke:#181818;stroke-width:1.0;"/></g><!--link ListGreenSpacesController to GreenSpaces--><g id="link_ListGreenSpacesController_GreenSpaces"><path codeLine="160" d="M227.93,281.0437 C171.17,298.1737 122,313.0137 122,313.0137 C122,313.0137 77,352.5137 77,352.5137 C77,352.5137 77,352.5137 77,1263.5137 C77,1263.5137 122,1354.0137 122,1354.0137 C122,1354.0137 642,1384.0137 642,1384.0137 C642,1384.0137 685.6008,1397.304 733.5908,1411.934 " fill="none" id="ListGreenSpacesController-to-GreenSpaces" style="stroke:#181818;stroke-width:1.0;stroke-dasharray:7.0,7.0;"/><polygon fill="#181818" points="739.33,1413.6837,731.8876,1407.2331,734.5473,1412.2256,729.5547,1414.8854,739.33,1413.6837" style="stroke:#181818;stroke-width:1.0;"/></g><!--link ListGreenSpacesController to Sortable--><g id="link_ListGreenSpacesController_Sortable"><path codeLine="161" d="M224.76,271.3337 C138.01,292.1437 51,313.0137 51,313.0137 C51,313.0137 6,352.5137 6,352.5137 C6,352.5137 6,352.5137 6,1263.5137 C6,1263.5137 51,1354.0137 51,1354.0137 C51,1354.0137 267.7215,1394.3847 405.5515,1420.0647 " fill="none" id="ListGreenSpacesController-to-Sortable" style="stroke:#181818;stroke-width:1.0;stroke-dasharray:7.0,7.0;"/><polygon fill="#181818" points="411.45,1421.1637,403.3349,1415.5829,406.5346,1420.2478,401.8696,1423.4475,411.45,1421.1637" style="stroke:#181818;stroke-width:1.0;"/></g><!--link ListGreenSpacesController to GreenSpaceMapper--><g id="link_ListGreenSpacesController_GreenSpaceMapper"><path codeLine="162" d="M381.94,281.2537 C372.08,314.8237 361,352.5137 361,352.5137 C361,352.5137 361,352.5137 361,1088.0137 C361,1088.0137 395,1136.0137 395,1136.0137 C395,1136.0137 1417,1175.0137 1417,1175.0137 C1417,1175.0137 1468.2101,1195.5229 1523.5401,1217.6829 " fill="none" id="ListGreenSpacesController-to-GreenSpaceMapper" style="stroke:#181818;stroke-width:1.0;stroke-dasharray:7.0,7.0;"/><polygon fill="#181818" points="1529.11,1219.9137,1522.2424,1212.8543,1524.4684,1218.0547,1519.268,1220.2808,1529.11,1219.9137" style="stroke:#181818;stroke-width:1.0;"/></g><!--link ListGreenSpacesController to GreenSpaceDto--><g id="link_ListGreenSpacesController_GreenSpaceDto"><path codeLine="163" d="M322.8,281.0737 C273.96,314.6937 219,352.5137 219,352.5137 C219,352.5137 219,352.5137 219,1263.5137 C219,1263.5137 395,1354.0137 395,1354.0137 C395,1354.0137 1417,1384.0137 1417,1384.0137 C1417,1384.0137 1445.1588,1391.442 1486.1388,1402.262 " fill="none" id="ListGreenSpacesController-to-GreenSpaceDto" style="stroke:#181818;stroke-width:1.0;stroke-dasharray:7.0,7.0;"/><polygon fill="#181818" points="1491.94,1403.7937,1484.2593,1397.6287,1487.1057,1402.5173,1482.2171,1405.3636,1491.94,1403.7937" style="stroke:#181818;stroke-width:1.0;"/></g><!--link ApplicationSession to UserSession--><g id="link_ApplicationSession_UserSession"><path codeLine="166" d="M579.8,586.8637 C592.09,614.2237 605.4613,643.9906 616.8313,669.3006 " fill="none" id="ApplicationSession-to-UserSession" style="stroke:#181818;stroke-width:1.0;"/><polygon fill="#181818" points="619.29,674.7737,619.2507,664.9249,617.2411,670.2128,611.9532,668.2031,619.29,674.7737" style="stroke:#181818;stroke-width:1.0;"/><text fill="#000000" font-family="sans-serif" font-size="13" lengthAdjust="spacing" textLength="72" x="605" y="641.042">userSession</text><text fill="#000000" font-family="sans-serif" font-size="13" lengthAdjust="spacing" textLength="7" x="608.8187" y="663.8138">1</text></g><!--link Repositories to CollaboratorRepository--><g id="link_Repositories_CollaboratorRepository"><path codeLine="169" d="M871.4,596.2937 C873.05,656.4237 875.5553,748.2959 876.9453,798.9059 " fill="none" id="Repositories-to-CollaboratorRepository" style="stroke:#181818;stroke-width:1.0;"/><polygon fill="#181818" points="877.11,804.9037,880.8614,795.7972,876.9727,799.9056,872.8644,796.0169,877.11,804.9037" style="stroke:#181818;stroke-width:1.0;"/><text fill="#000000" font-family="sans-serif" font-size="13" lengthAdjust="spacing" textLength="131" x="877" y="714.042">CollaboratorRepository</text><text fill="#000000" font-family="sans-serif" font-size="13" lengthAdjust="spacing" textLength="7" x="869.2457" y="793.7075">1</text></g><!--link CollaboratorRepository to ICollaborator--><g id="link_CollaboratorRepository_ICollaborator"><path codeLine="172" d="M840.69,872.2437 C792.31,914.6837 712.0909,985.0574 656.3809,1033.9174 " fill="none" id="CollaboratorRepository-to-ICollaborator" style="stroke:#181818;stroke-width:1.0;"/><polygon fill="#181818" points="651.87,1037.8737,661.2738,1034.9466,655.6291,1034.5768,655.9988,1028.932,651.87,1037.8737" style="stroke:#181818;stroke-width:1.0;"/><text fill="#000000" font-family="sans-serif" font-size="13" lengthAdjust="spacing" textLength="84" x="769" y="950.042">collaboratorLis</text><text fill="#000000" font-family="sans-serif" font-size="13" lengthAdjust="spacing" textLength="7" x="826.6758" y="893.5878">1</text><text fill="#000000" font-family="sans-serif" font-size="13" lengthAdjust="spacing" textLength="5" x="654.2345" y="1026.8292">*</text></g><!--link GreenSpaceManager to GreenSpaces--><g id="link_GreenSpaceManager_GreenSpaces"><path codeLine="175" d="M639.55,1296.0737 C681.28,1327.9937 739.7844,1372.7582 781.5644,1404.7182 " fill="none" id="GreenSpaceManager-to-GreenSpaces" style="stroke:#181818;stroke-width:1.0;"/><polygon fill="#181818" points="786.33,1408.3637,781.612,1399.7184,782.3587,1405.3258,776.7513,1406.0725,786.33,1408.3637" style="stroke:#181818;stroke-width:1.0;"/><text fill="#000000" font-family="sans-serif" font-size="13" lengthAdjust="spacing" textLength="76" x="714" y="1350.042">greenSpaces</text><text fill="#000000" font-family="sans-serif" font-size="13" lengthAdjust="spacing" textLength="7" x="639.5058" y="1317.6536">1</text><text fill="#000000" font-family="sans-serif" font-size="13" lengthAdjust="spacing" textLength="7" x="770.2403" y="1397.1597">1</text></g><!--link GreenSpaces to GreenSpace--><g id="link_GreenSpaces_GreenSpace"><path codeLine="178" d="M918.74,1442.0137 C965.12,1442.0137 1014.92,1442.0137 1058.21,1442.0137 " fill="none" id="GreenSpaces-to-GreenSpace" style="stroke:#181818;stroke-width:1.0;"/><polygon fill="#181818" points="1064.21,1442.0137,1055.21,1438.0137,1059.21,1442.0137,1055.21,1446.0137,1064.21,1442.0137" style="stroke:#181818;stroke-width:1.0;"/><text fill="#000000" font-family="sans-serif" font-size="13" lengthAdjust="spacing" textLength="90" x="946.5" y="1435.042">greenSpaceList</text><text fill="#000000" font-family="sans-serif" font-size="13" lengthAdjust="spacing" textLength="7" x="926.4614" y="1438.3658">1</text><text fill="#000000" font-family="sans-serif" font-size="13" lengthAdjust="spacing" textLength="5" x="1051.652" y="1438.1575">*</text></g><!--reverse link Sortable to GreenSpaces--><g id="link_Sortable_GreenSpaces"><path codeLine="181" d="M630.59,1442.0137 C667.96,1442.0137 703.52,1442.0137 739.35,1442.0137 " fill="none" id="Sortable-backto-GreenSpaces" style="stroke:#181818;stroke-width:1.0;"/><polygon fill="#181818" points="624.59,1442.0137,633.59,1446.0137,629.59,1442.0137,633.59,1438.0137,624.59,1442.0137" style="stroke:#181818;stroke-width:1.0;"/><text fill="#000000" font-family="sans-serif" font-size="13" lengthAdjust="spacing" textLength="78" x="643" y="1435.042">makes use of</text><text fill="#000000" font-family="sans-serif" font-size="13" lengthAdjust="spacing" textLength="7" x="632.3307" y="1438.4474">1</text><text fill="#000000" font-family="sans-serif" font-size="13" lengthAdjust="spacing" textLength="5" x="726.4309" y="1438.3403">*</text></g><!--SRC=[rLVRZjem47tFLrYyG2-WzXMXI7lfhf2MjchA1vWmW8jZHxPHHLVxxnsJX3YEGwZKVLYqMY0-CsVk7ePwpqHE5Sr89eLCTqfcG8mwG5IVv3JTqoqaviY1A4WD5Llk0lIEhkLl9hPaGxbsJpWJO8uva5poe_qI3GE7KXaPEL8ffrhV6AFOwc1WdagHi3z0FaLHQGePBES3CfizIBu65SVaEIBuEicH9wRDem8G2Q91B-VbwKlq4ZaQxgGmId8EojFKhQeMALNQruTkr2Z5DxgIYXgfVa0kDSCFntUEx1OSqGKLQ9fwF7snMaSrT7o29ei7p502MZCfobFq2l-673Q664aKs-uCMJERA0JL3j_BZ38HSjQ3J6xodBEKMl4Gl8wF0onjEWFg01MEQeEmr3en5_XPfE0uTux5tK4f4ARfOEbaatgfGVLnea8B-u9EyOOkHwFl-_tFRvTzTjELvw1yKfktMGswDpB6jA3QaNSIS_pknw0XMChLpuXS_ReGauQmRrU2xOGTkZrZlj8CF0mJXb05DBfarQYfukD9uiheBkGQU5TyaHtKnhhfU3oRpQl7SHn8i3KXL4atQ5JhETFsyHDLs6KZt-pEOEfdBnweFi6P1Mi7SwbM7wbQWo0iopbaMDwkygPBuofDma_Ek3Cvhnc41QpP8VjErVujMdz2lJtZwpwOtpaNI6yh-7EkEDXHNHo0_NzLmPVta1krXYNFWJZKqgCUfsphq1LljNPRPz5afukmdZbFZQdPykBsi4BTLj8rl-ByNom9yE9wVHsYZkbPhn2NhwWpZe4cdYNZncceSklxcKmRuC1r7TnlBet2i0G9XSk5tXuxQlYys0t7xPT_LGSWaOyXaqdSlE_w867kAeeXpaP-nd4pNrDibK8qQgzN5XruwiW4ZLdEGsQq5sNhMESssu5lnYf8N-kumWndoPvO_Lvmb5kGFQA1zRH7mjqgUw3XIkwJQipHFh1JOrSZozbzlK1l5AkHzYyss3Qv7jzPEEq4XWeer2RO9uFF0pUVM3i79xj1FhVM-Xkt8kcOQTEk4kdeaH0sP4G7dRMajEdzmDiSfiJz9OfvwP-Nfohg6vZ5cc2PgrWu-KRMhLDbFOpwCfSkM0hdd9y7BeUjjp1DLS8XZlCwOWbcOu_0Uf7HFRvZyH2vYVu2]--></g></svg>