<?xml version="1.0" encoding="us-ascii" standalone="no"?><svg xmlns="http://www.w3.org/2000/svg" xmlns:xlink="http://www.w3.org/1999/xlink" contentStyleType="text/css" height="1755px" preserveAspectRatio="none" style="width:1044px;height:1755px;background:#FFFFFF;" version="1.1" viewBox="0 0 1044 1755" width="1044px" zoomAndPan="magnify"><defs/><g><!--cluster UI--><g id="cluster_UI"><path d="M282.5,6.0137 L297.5,6.0137 A3.75,3.75 0 0 1 300,8.5137 L307,30.6348 L463.5,30.6348 A2.5,2.5 0 0 1 466,33.1348 L466,104.5137 A2.5,2.5 0 0 1 463.5,107.0137 L282.5,107.0137 A2.5,2.5 0 0 1 280,104.5137 L280,8.5137 A2.5,2.5 0 0 1 282.5,6.0137 " fill="none" style="stroke:#000000;stroke-width:1.5;"/><line style="stroke:#000000;stroke-width:1.5;" x1="280" x2="307" y1="30.6348" y2="30.6348"/><text fill="#000000" font-family="sans-serif" font-size="14" font-weight="bold" lengthAdjust="spacing" textLength="14" x="284" y="23.1211">UI</text></g><!--cluster Controller--><g id="cluster_Controller"><path d="M184.5,140.0137 L256.5,140.0137 A3.75,3.75 0 0 1 259,142.5137 L266,164.6348 L561.5,164.6348 A2.5,2.5 0 0 1 564,167.1348 L564,294.5137 A2.5,2.5 0 0 1 561.5,297.0137 L184.5,297.0137 A2.5,2.5 0 0 1 182,294.5137 L182,142.5137 A2.5,2.5 0 0 1 184.5,140.0137 " fill="none" style="stroke:#000000;stroke-width:1.5;"/><line style="stroke:#000000;stroke-width:1.5;" x1="182" x2="266" y1="164.6348" y2="164.6348"/><text fill="#000000" font-family="sans-serif" font-size="14" font-weight="bold" lengthAdjust="spacing" textLength="71" x="186" y="157.1211">Controller</text></g><!--cluster Domain--><g id="cluster_Domain"><path d="M132.5,410.0137 L185.5,410.0137 A3.75,3.75 0 0 1 188,412.5137 L195,434.6348 L879.5,434.6348 A2.5,2.5 0 0 1 882,437.1348 L882,1745.5137 A2.5,2.5 0 0 1 879.5,1748.0137 L132.5,1748.0137 A2.5,2.5 0 0 1 130,1745.5137 L130,412.5137 A2.5,2.5 0 0 1 132.5,410.0137 " fill="none" style="stroke:#000000;stroke-width:1.5;"/><line style="stroke:#000000;stroke-width:1.5;" x1="130" x2="195" y1="434.6348" y2="434.6348"/><text fill="#000000" font-family="sans-serif" font-size="14" font-weight="bold" lengthAdjust="spacing" textLength="52" x="134" y="427.1211">Domain</text></g><!--cluster Application--><g id="cluster_Application"><path d="M595.5,464.5137 L674.5,464.5137 A3.75,3.75 0 0 1 677,467.0137 L684,489.1348 L855.5,489.1348 A2.5,2.5 0 0 1 858,491.6348 L858,755.5137 A2.5,2.5 0 0 1 855.5,758.0137 L595.5,758.0137 A2.5,2.5 0 0 1 593,755.5137 L593,467.0137 A2.5,2.5 0 0 1 595.5,464.5137 " fill="none" style="stroke:#000000;stroke-width:1.5;"/><line style="stroke:#000000;stroke-width:1.5;" x1="593" x2="684" y1="489.1348" y2="489.1348"/><text fill="#000000" font-family="sans-serif" font-size="14" font-weight="bold" lengthAdjust="spacing" textLength="78" x="597" y="481.6211">Application</text></g><!--cluster Model--><g id="cluster_Model"><path d="M156.5,939.0137 L201.5,939.0137 A3.75,3.75 0 0 1 204,941.5137 L211,963.6348 L855.5,963.6348 A2.5,2.5 0 0 1 858,966.1348 L858,1721.5137 A2.5,2.5 0 0 1 855.5,1724.0137 L156.5,1724.0137 A2.5,2.5 0 0 1 154,1721.5137 L154,941.5137 A2.5,2.5 0 0 1 156.5,939.0137 " fill="none" style="stroke:#000000;stroke-width:1.5;"/><line style="stroke:#000000;stroke-width:1.5;" x1="154" x2="211" y1="963.6348" y2="963.6348"/><text fill="#000000" font-family="sans-serif" font-size="14" font-weight="bold" lengthAdjust="spacing" textLength="44" x="158" y="956.1211">Model</text></g><!--cluster Repository--><g id="cluster_Repository"><path d="M258.5,455.0137 L335.5,455.0137 A3.75,3.75 0 0 1 338,457.5137 L345,479.6348 L566.5,479.6348 A2.5,2.5 0 0 1 569,482.1348 L569,885.5137 A2.5,2.5 0 0 1 566.5,888.0137 L258.5,888.0137 A2.5,2.5 0 0 1 256,885.5137 L256,457.5137 A2.5,2.5 0 0 1 258.5,455.0137 " fill="none" style="stroke:#000000;stroke-width:1.5;"/><line style="stroke:#000000;stroke-width:1.5;" x1="256" x2="345" y1="479.6348" y2="479.6348"/><text fill="#000000" font-family="sans-serif" font-size="14" font-weight="bold" lengthAdjust="spacing" textLength="76" x="260" y="472.1211">Repository</text></g><!--class ListGreenSpacesUI--><g id="elem_ListGreenSpacesUI"><rect codeLine="9" fill="#F1F1F1" height="48" id="ListGreenSpacesUI" rx="2.5" ry="2.5" style="stroke:#181818;stroke-width:0.5;" width="153" x="296.5" y="43.0137"/><ellipse cx="311.5" cy="59.0137" fill="#ADD1B2" rx="11" ry="11" style="stroke:#181818;stroke-width:1.0;"/><path d="M314.2656,54.8887 Q314.4219,54.6699 314.6094,54.5605 Q314.7969,54.4512 315.0156,54.4512 Q315.3906,54.4512 315.625,54.7168 Q315.8594,54.9668 315.8594,55.5762 L315.8594,57.0293 Q315.8594,57.6387 315.625,57.9043 Q315.3906,58.1699 315.0156,58.1699 Q314.6719,58.1699 314.4688,57.9668 Q314.2656,57.7793 314.1563,57.2637 Q314.1094,56.9043 313.9219,56.7168 Q313.5938,56.3418 312.9844,56.123 Q312.375,55.9043 311.75,55.9043 Q310.9844,55.9043 310.3438,56.2324 Q309.7188,56.5605 309.2188,57.3105 Q308.7344,58.0605 308.7344,59.0918 L308.7344,60.1855 Q308.7344,61.4199 309.625,62.248 Q310.5156,63.0605 312.1094,63.0605 Q313.0469,63.0605 313.7031,62.8105 Q314.0938,62.6543 314.5156,62.2168 Q314.7813,61.9512 314.9219,61.873 Q315.0781,61.7949 315.2813,61.7949 Q315.6094,61.7949 315.8594,62.0605 Q316.125,62.3105 316.125,62.6543 Q316.125,62.998 315.7813,63.4043 Q315.2813,63.9824 314.4844,64.3105 Q313.4063,64.7637 312.1094,64.7637 Q310.5938,64.7637 309.3906,64.1387 Q308.4063,63.6387 307.7188,62.5762 Q307.0313,61.498 307.0313,60.2168 L307.0313,59.0605 Q307.0313,57.7324 307.6406,56.5918 Q308.2656,55.4355 309.3594,54.8262 Q310.4531,54.2012 311.6875,54.2012 Q312.4219,54.2012 313.0625,54.373 Q313.7188,54.5293 314.2656,54.8887 Z " fill="#000000"/><text fill="#000000" font-family="sans-serif" font-size="14" lengthAdjust="spacing" textLength="121" x="325.5" y="64.8105">ListGreenSpacesUI</text><line style="stroke:#181818;stroke-width:0.5;" x1="297.5" x2="448.5" y1="75.0137" y2="75.0137"/><line style="stroke:#181818;stroke-width:0.5;" x1="297.5" x2="448.5" y1="83.0137" y2="83.0137"/></g><!--class ListGreenSpacesController--><g id="elem_ListGreenSpacesController"><rect codeLine="16" fill="#F1F1F1" height="103.8633" id="ListGreenSpacesController" rx="2.5" ry="2.5" style="stroke:#181818;stroke-width:0.5;" width="350" x="198" y="177.0137"/><ellipse cx="283.25" cy="193.0137" fill="#ADD1B2" rx="11" ry="11" style="stroke:#181818;stroke-width:1.0;"/><path d="M286.0156,188.8887 Q286.1719,188.6699 286.3594,188.5605 Q286.5469,188.4512 286.7656,188.4512 Q287.1406,188.4512 287.375,188.7168 Q287.6094,188.9668 287.6094,189.5762 L287.6094,191.0293 Q287.6094,191.6387 287.375,191.9043 Q287.1406,192.1699 286.7656,192.1699 Q286.4219,192.1699 286.2188,191.9668 Q286.0156,191.7793 285.9063,191.2637 Q285.8594,190.9043 285.6719,190.7168 Q285.3438,190.3418 284.7344,190.123 Q284.125,189.9043 283.5,189.9043 Q282.7344,189.9043 282.0938,190.2324 Q281.4688,190.5605 280.9688,191.3105 Q280.4844,192.0605 280.4844,193.0918 L280.4844,194.1855 Q280.4844,195.4199 281.375,196.248 Q282.2656,197.0605 283.8594,197.0605 Q284.7969,197.0605 285.4531,196.8105 Q285.8438,196.6543 286.2656,196.2168 Q286.5313,195.9512 286.6719,195.873 Q286.8281,195.7949 287.0313,195.7949 Q287.3594,195.7949 287.6094,196.0605 Q287.875,196.3105 287.875,196.6543 Q287.875,196.998 287.5313,197.4043 Q287.0313,197.9824 286.2344,198.3105 Q285.1563,198.7637 283.8594,198.7637 Q282.3438,198.7637 281.1406,198.1387 Q280.1563,197.6387 279.4688,196.5762 Q278.7813,195.498 278.7813,194.2168 L278.7813,193.0605 Q278.7813,191.7324 279.3906,190.5918 Q280.0156,189.4355 281.1094,188.8262 Q282.2031,188.2012 283.4375,188.2012 Q284.1719,188.2012 284.8125,188.373 Q285.4688,188.5293 286.0156,188.8887 Z " fill="#000000"/><text fill="#000000" font-family="sans-serif" font-size="14" lengthAdjust="spacing" textLength="171" x="303.75" y="198.8105">ListGreenSpacesController</text><line style="stroke:#181818;stroke-width:0.5;" x1="199" x2="547" y1="209.0137" y2="209.0137"/><ellipse cx="209" cy="223.8242" fill="none" rx="3" ry="3" style="stroke:#038048;stroke-width:1.0;"/><text fill="#000000" font-family="sans-serif" font-size="14" lengthAdjust="spacing" textLength="229" x="218" y="228.1211">getGreenSpaceManagerGSpaceList</text><line style="stroke:#181818;stroke-width:0.5;" x1="199" x2="547" y1="235.6348" y2="235.6348"/><ellipse cx="209" cy="250.4453" fill="#84BE84" rx="3" ry="3" style="stroke:#038048;stroke-width:1.0;"/><text fill="#000000" font-family="sans-serif" font-size="14" lengthAdjust="spacing" textLength="324" x="218" y="254.7422">ListGreenSpacesController(collaboratorRepository)</text><rect fill="#F24D5C" height="6" style="stroke:#C82930;stroke-width:1.0;" width="6" x="206" y="266.0664"/><text fill="#000000" font-family="sans-serif" font-size="14" lengthAdjust="spacing" textLength="144" x="218" y="273.3633">getGSMFromSession()</text></g><!--class ApplicationSession--><g id="elem_ApplicationSession"><rect codeLine="29" fill="#F1F1F1" height="85.2422" id="ApplicationSession" rx="2.5" ry="2.5" style="stroke:#181818;stroke-width:0.5;" width="154" x="609" y="501.5137"/><ellipse cx="625.35" cy="517.5137" fill="#ADD1B2" rx="11" ry="11" style="stroke:#181818;stroke-width:1.0;"/><path d="M628.1156,513.3887 Q628.2719,513.1699 628.4594,513.0605 Q628.6469,512.9512 628.8656,512.9512 Q629.2406,512.9512 629.475,513.2168 Q629.7094,513.4668 629.7094,514.0762 L629.7094,515.5293 Q629.7094,516.1387 629.475,516.4043 Q629.2406,516.6699 628.8656,516.6699 Q628.5219,516.6699 628.3188,516.4668 Q628.1156,516.2793 628.0063,515.7637 Q627.9594,515.4043 627.7719,515.2168 Q627.4438,514.8418 626.8344,514.623 Q626.225,514.4043 625.6,514.4043 Q624.8344,514.4043 624.1938,514.7324 Q623.5688,515.0605 623.0688,515.8105 Q622.5844,516.5605 622.5844,517.5918 L622.5844,518.6855 Q622.5844,519.9199 623.475,520.748 Q624.3656,521.5605 625.9594,521.5605 Q626.8969,521.5605 627.5531,521.3105 Q627.9438,521.1543 628.3656,520.7168 Q628.6313,520.4512 628.7719,520.373 Q628.9281,520.2949 629.1313,520.2949 Q629.4594,520.2949 629.7094,520.5605 Q629.975,520.8105 629.975,521.1543 Q629.975,521.498 629.6313,521.9043 Q629.1313,522.4824 628.3344,522.8105 Q627.2563,523.2637 625.9594,523.2637 Q624.4438,523.2637 623.2406,522.6387 Q622.2563,522.1387 621.5688,521.0762 Q620.8813,519.998 620.8813,518.7168 L620.8813,517.5605 Q620.8813,516.2324 621.4906,515.0918 Q622.1156,513.9355 623.2094,513.3262 Q624.3031,512.7012 625.5375,512.7012 Q626.2719,512.7012 626.9125,512.873 Q627.5688,513.0293 628.1156,513.3887 Z " fill="#000000"/><text fill="#000000" font-family="sans-serif" font-size="14" lengthAdjust="spacing" textLength="119" x="639.65" y="523.3105">ApplicationSession</text><line style="stroke:#181818;stroke-width:0.5;" x1="610" x2="762" y1="533.5137" y2="533.5137"/><line style="stroke:#181818;stroke-width:0.5;" x1="610" x2="762" y1="541.5137" y2="541.5137"/><ellipse cx="620" cy="556.3242" fill="#84BE84" rx="3" ry="3" style="stroke:#038048;stroke-width:1.0;"/><text fill="#000000" font-family="sans-serif" font-size="14" lengthAdjust="spacing" textLength="120" x="629" y="560.6211">static getInstance()</text><ellipse cx="620" cy="574.9453" fill="#84BE84" rx="3" ry="3" style="stroke:#038048;stroke-width:1.0;"/><text fill="#000000" font-family="sans-serif" font-size="14" lengthAdjust="spacing" textLength="128" x="629" y="579.2422">getCurrentSession()</text></g><!--class UserSession--><g id="elem_UserSession"><rect codeLine="35" fill="#F1F1F1" height="66.6211" id="UserSession" rx="2.5" ry="2.5" style="stroke:#181818;stroke-width:0.5;" width="119" x="698.5" y="675.0137"/><ellipse cx="717.1" cy="691.0137" fill="#ADD1B2" rx="11" ry="11" style="stroke:#181818;stroke-width:1.0;"/><path d="M719.8656,686.8887 Q720.0219,686.6699 720.2094,686.5605 Q720.3969,686.4512 720.6156,686.4512 Q720.9906,686.4512 721.225,686.7168 Q721.4594,686.9668 721.4594,687.5762 L721.4594,689.0293 Q721.4594,689.6387 721.225,689.9043 Q720.9906,690.1699 720.6156,690.1699 Q720.2719,690.1699 720.0688,689.9668 Q719.8656,689.7793 719.7563,689.2637 Q719.7094,688.9043 719.5219,688.7168 Q719.1938,688.3418 718.5844,688.123 Q717.975,687.9043 717.35,687.9043 Q716.5844,687.9043 715.9438,688.2324 Q715.3188,688.5605 714.8188,689.3105 Q714.3344,690.0605 714.3344,691.0918 L714.3344,692.1855 Q714.3344,693.4199 715.225,694.248 Q716.1156,695.0605 717.7094,695.0605 Q718.6469,695.0605 719.3031,694.8105 Q719.6938,694.6543 720.1156,694.2168 Q720.3813,693.9512 720.5219,693.873 Q720.6781,693.7949 720.8813,693.7949 Q721.2094,693.7949 721.4594,694.0605 Q721.725,694.3105 721.725,694.6543 Q721.725,694.998 721.3813,695.4043 Q720.8813,695.9824 720.0844,696.3105 Q719.0063,696.7637 717.7094,696.7637 Q716.1938,696.7637 714.9906,696.1387 Q714.0063,695.6387 713.3188,694.5762 Q712.6313,693.498 712.6313,692.2168 L712.6313,691.0605 Q712.6313,689.7324 713.2406,688.5918 Q713.8656,687.4355 714.9594,686.8262 Q716.0531,686.2012 717.2875,686.2012 Q718.0219,686.2012 718.6625,686.373 Q719.3188,686.5293 719.8656,686.8887 Z " fill="#000000"/><text fill="#000000" font-family="sans-serif" font-size="14" lengthAdjust="spacing" textLength="79" x="731.9" y="696.8105">UserSession</text><line style="stroke:#181818;stroke-width:0.5;" x1="699.5" x2="816.5" y1="707.0137" y2="707.0137"/><line style="stroke:#181818;stroke-width:0.5;" x1="699.5" x2="816.5" y1="715.0137" y2="715.0137"/><ellipse cx="709.5" cy="729.8242" fill="#84BE84" rx="3" ry="3" style="stroke:#038048;stroke-width:1.0;"/><text fill="#000000" font-family="sans-serif" font-size="14" lengthAdjust="spacing" textLength="93" x="718.5" y="734.1211">getUserEmail()</text></g><!--class GreenSpace--><g id="elem_GreenSpace"><rect codeLine="43" fill="#F1F1F1" height="97.8242" id="GreenSpace" rx="2.5" ry="2.5" style="stroke:#181818;stroke-width:0.5;" width="112" x="504" y="1427.0137"/><ellipse cx="519" cy="1449.3047" fill="#B4A7E5" rx="11" ry="11" style="stroke:#181818;stroke-width:1.0;"/><path d="M519.9531,1445.9453 L519.9531,1452.6016 L521.6719,1452.6016 Q522.2813,1452.6016 522.5469,1452.8359 Q522.8125,1453.0703 522.8125,1453.4609 Q522.8125,1453.8359 522.5469,1454.0703 Q522.2813,1454.3047 521.6719,1454.3047 L516.5313,1454.3047 Q515.9219,1454.3047 515.6563,1454.0703 Q515.3906,1453.8359 515.3906,1453.4453 Q515.3906,1453.0703 515.6563,1452.8359 Q515.9219,1452.6016 516.5313,1452.6016 L518.25,1452.6016 L518.25,1445.9453 L516.5313,1445.9453 Q515.9219,1445.9453 515.6563,1445.7109 Q515.3906,1445.4766 515.3906,1445.0859 Q515.3906,1444.7109 515.6563,1444.4766 Q515.9219,1444.2422 516.5313,1444.2422 L521.6719,1444.2422 Q522.2813,1444.2422 522.5469,1444.4766 Q522.8125,1444.7109 522.8125,1445.0859 Q522.8125,1445.4766 522.5469,1445.7109 Q522.2813,1445.9453 521.6719,1445.9453 L519.9531,1445.9453 Z " fill="#000000"/><text fill="#000000" font-family="sans-serif" font-size="12" font-style="italic" lengthAdjust="spacing" textLength="62" x="542" y="1444.9629">&#171;Interface&#187;</text><text fill="#000000" font-family="sans-serif" font-size="14" font-style="italic" lengthAdjust="spacing" textLength="80" x="533" y="1463.082">GreenSpace</text><line style="stroke:#181818;stroke-width:0.5;" x1="505" x2="615" y1="1471.5957" y2="1471.5957"/><line style="stroke:#181818;stroke-width:0.5;" x1="505" x2="615" y1="1479.5957" y2="1479.5957"/><ellipse cx="515" cy="1494.4063" fill="#84BE84" rx="3" ry="3" style="stroke:#038048;stroke-width:1.0;"/><text fill="#000000" font-family="sans-serif" font-size="14" lengthAdjust="spacing" textLength="66" x="524" y="1498.7031">getName()</text><ellipse cx="515" cy="1513.0273" fill="#84BE84" rx="3" ry="3" style="stroke:#038048;stroke-width:1.0;"/><text fill="#000000" font-family="sans-serif" font-size="14" lengthAdjust="spacing" textLength="60" x="524" y="1517.3242">getArea()</text></g><!--class GreenSpaces--><g id="elem_GreenSpaces"><rect codeLine="48" fill="#F1F1F1" height="66.6211" id="GreenSpaces" rx="2.5" ry="2.5" style="stroke:#181818;stroke-width:0.5;" width="185" x="271.5" y="1281.0137"/><ellipse cx="316.25" cy="1297.0137" fill="#ADD1B2" rx="11" ry="11" style="stroke:#181818;stroke-width:1.0;"/><path d="M319.0156,1292.8887 Q319.1719,1292.6699 319.3594,1292.5605 Q319.5469,1292.4512 319.7656,1292.4512 Q320.1406,1292.4512 320.375,1292.7168 Q320.6094,1292.9668 320.6094,1293.5762 L320.6094,1295.0293 Q320.6094,1295.6387 320.375,1295.9043 Q320.1406,1296.1699 319.7656,1296.1699 Q319.4219,1296.1699 319.2188,1295.9668 Q319.0156,1295.7793 318.9063,1295.2637 Q318.8594,1294.9043 318.6719,1294.7168 Q318.3438,1294.3418 317.7344,1294.123 Q317.125,1293.9043 316.5,1293.9043 Q315.7344,1293.9043 315.0938,1294.2324 Q314.4688,1294.5605 313.9688,1295.3105 Q313.4844,1296.0605 313.4844,1297.0918 L313.4844,1298.1855 Q313.4844,1299.4199 314.375,1300.248 Q315.2656,1301.0605 316.8594,1301.0605 Q317.7969,1301.0605 318.4531,1300.8105 Q318.8438,1300.6543 319.2656,1300.2168 Q319.5313,1299.9512 319.6719,1299.873 Q319.8281,1299.7949 320.0313,1299.7949 Q320.3594,1299.7949 320.6094,1300.0605 Q320.875,1300.3105 320.875,1300.6543 Q320.875,1300.998 320.5313,1301.4043 Q320.0313,1301.9824 319.2344,1302.3105 Q318.1563,1302.7637 316.8594,1302.7637 Q315.3438,1302.7637 314.1406,1302.1387 Q313.1563,1301.6387 312.4688,1300.5762 Q311.7813,1299.498 311.7813,1298.2168 L311.7813,1297.0605 Q311.7813,1295.7324 312.3906,1294.5918 Q313.0156,1293.4355 314.1094,1292.8262 Q315.2031,1292.2012 316.4375,1292.2012 Q317.1719,1292.2012 317.8125,1292.373 Q318.4688,1292.5293 319.0156,1292.8887 Z " fill="#000000"/><text fill="#000000" font-family="sans-serif" font-size="14" lengthAdjust="spacing" textLength="87" x="336.75" y="1302.8105">GreenSpaces</text><line style="stroke:#181818;stroke-width:0.5;" x1="272.5" x2="455.5" y1="1313.0137" y2="1313.0137"/><line style="stroke:#181818;stroke-width:0.5;" x1="272.5" x2="455.5" y1="1321.0137" y2="1321.0137"/><ellipse cx="282.5" cy="1335.8242" fill="#84BE84" rx="3" ry="3" style="stroke:#038048;stroke-width:1.0;"/><text fill="#000000" font-family="sans-serif" font-size="14" lengthAdjust="spacing" textLength="159" x="291.5" y="1340.1211">getSortedGreenSpaces()</text></g><!--class Garden--><g id="elem_Garden"><rect codeLine="53" fill="#F1F1F1" height="122.4844" id="Garden" rx="2.5" ry="2.5" style="stroke:#181818;stroke-width:0.5;" width="102" x="595" y="1586.0137"/><ellipse cx="619.9" cy="1602.0137" fill="#ADD1B2" rx="11" ry="11" style="stroke:#181818;stroke-width:1.0;"/><path d="M622.6656,1597.8887 Q622.8219,1597.6699 623.0094,1597.5605 Q623.1969,1597.4512 623.4156,1597.4512 Q623.7906,1597.4512 624.025,1597.7168 Q624.2594,1597.9668 624.2594,1598.5762 L624.2594,1600.0293 Q624.2594,1600.6387 624.025,1600.9043 Q623.7906,1601.1699 623.4156,1601.1699 Q623.0719,1601.1699 622.8688,1600.9668 Q622.6656,1600.7793 622.5563,1600.2637 Q622.5094,1599.9043 622.3219,1599.7168 Q621.9938,1599.3418 621.3844,1599.123 Q620.775,1598.9043 620.15,1598.9043 Q619.3844,1598.9043 618.7438,1599.2324 Q618.1188,1599.5605 617.6188,1600.3105 Q617.1344,1601.0605 617.1344,1602.0918 L617.1344,1603.1855 Q617.1344,1604.4199 618.025,1605.248 Q618.9156,1606.0605 620.5094,1606.0605 Q621.4469,1606.0605 622.1031,1605.8105 Q622.4938,1605.6543 622.9156,1605.2168 Q623.1813,1604.9512 623.3219,1604.873 Q623.4781,1604.7949 623.6813,1604.7949 Q624.0094,1604.7949 624.2594,1605.0605 Q624.525,1605.3105 624.525,1605.6543 Q624.525,1605.998 624.1813,1606.4043 Q623.6813,1606.9824 622.8844,1607.3105 Q621.8063,1607.7637 620.5094,1607.7637 Q618.9938,1607.7637 617.7906,1607.1387 Q616.8063,1606.6387 616.1188,1605.5762 Q615.4313,1604.498 615.4313,1603.2168 L615.4313,1602.0605 Q615.4313,1600.7324 616.0406,1599.5918 Q616.6656,1598.4355 617.7594,1597.8262 Q618.8531,1597.2012 620.0875,1597.2012 Q620.8219,1597.2012 621.4625,1597.373 Q622.1188,1597.5293 622.6656,1597.8887 Z " fill="#000000"/><text fill="#000000" font-family="sans-serif" font-size="14" lengthAdjust="spacing" textLength="48" x="636.1" y="1607.8105">Garden</text><line style="stroke:#181818;stroke-width:0.5;" x1="596" x2="696" y1="1618.0137" y2="1618.0137"/><rect fill="none" height="6" style="stroke:#C82930;stroke-width:1.0;" width="6" x="603" y="1629.8242"/><text fill="#000000" font-family="sans-serif" font-size="14" lengthAdjust="spacing" textLength="76" x="615" y="1637.1211">String name</text><rect fill="none" height="6" style="stroke:#C82930;stroke-width:1.0;" width="6" x="603" y="1648.4453"/><text fill="#000000" font-family="sans-serif" font-size="14" lengthAdjust="spacing" textLength="48" x="615" y="1655.7422">int area</text><line style="stroke:#181818;stroke-width:0.5;" x1="596" x2="696" y1="1663.2559" y2="1663.2559"/><ellipse cx="606" cy="1678.0664" fill="#84BE84" rx="3" ry="3" style="stroke:#038048;stroke-width:1.0;"/><text fill="#000000" font-family="sans-serif" font-size="14" lengthAdjust="spacing" textLength="66" x="615" y="1682.3633">getName()</text><ellipse cx="606" cy="1696.6875" fill="#84BE84" rx="3" ry="3" style="stroke:#038048;stroke-width:1.0;"/><text fill="#000000" font-family="sans-serif" font-size="14" lengthAdjust="spacing" textLength="60" x="615" y="1700.9844">getArea()</text></g><!--class MediumPark--><g id="elem_MediumPark"><rect codeLine="61" fill="#F1F1F1" height="122.4844" id="MediumPark" rx="2.5" ry="2.5" style="stroke:#181818;stroke-width:0.5;" width="110" x="732" y="1586.0137"/><ellipse cx="747" cy="1602.0137" fill="#ADD1B2" rx="11" ry="11" style="stroke:#181818;stroke-width:1.0;"/><path d="M749.7656,1597.8887 Q749.9219,1597.6699 750.1094,1597.5605 Q750.2969,1597.4512 750.5156,1597.4512 Q750.8906,1597.4512 751.125,1597.7168 Q751.3594,1597.9668 751.3594,1598.5762 L751.3594,1600.0293 Q751.3594,1600.6387 751.125,1600.9043 Q750.8906,1601.1699 750.5156,1601.1699 Q750.1719,1601.1699 749.9688,1600.9668 Q749.7656,1600.7793 749.6563,1600.2637 Q749.6094,1599.9043 749.4219,1599.7168 Q749.0938,1599.3418 748.4844,1599.123 Q747.875,1598.9043 747.25,1598.9043 Q746.4844,1598.9043 745.8438,1599.2324 Q745.2188,1599.5605 744.7188,1600.3105 Q744.2344,1601.0605 744.2344,1602.0918 L744.2344,1603.1855 Q744.2344,1604.4199 745.125,1605.248 Q746.0156,1606.0605 747.6094,1606.0605 Q748.5469,1606.0605 749.2031,1605.8105 Q749.5938,1605.6543 750.0156,1605.2168 Q750.2813,1604.9512 750.4219,1604.873 Q750.5781,1604.7949 750.7813,1604.7949 Q751.1094,1604.7949 751.3594,1605.0605 Q751.625,1605.3105 751.625,1605.6543 Q751.625,1605.998 751.2813,1606.4043 Q750.7813,1606.9824 749.9844,1607.3105 Q748.9063,1607.7637 747.6094,1607.7637 Q746.0938,1607.7637 744.8906,1607.1387 Q743.9063,1606.6387 743.2188,1605.5762 Q742.5313,1604.498 742.5313,1603.2168 L742.5313,1602.0605 Q742.5313,1600.7324 743.1406,1599.5918 Q743.7656,1598.4355 744.8594,1597.8262 Q745.9531,1597.2012 747.1875,1597.2012 Q747.9219,1597.2012 748.5625,1597.373 Q749.2188,1597.5293 749.7656,1597.8887 Z " fill="#000000"/><text fill="#000000" font-family="sans-serif" font-size="14" lengthAdjust="spacing" textLength="78" x="761" y="1607.8105">MediumPark</text><line style="stroke:#181818;stroke-width:0.5;" x1="733" x2="841" y1="1618.0137" y2="1618.0137"/><rect fill="none" height="6" style="stroke:#C82930;stroke-width:1.0;" width="6" x="740" y="1629.8242"/><text fill="#000000" font-family="sans-serif" font-size="14" lengthAdjust="spacing" textLength="76" x="752" y="1637.1211">String name</text><rect fill="none" height="6" style="stroke:#C82930;stroke-width:1.0;" width="6" x="740" y="1648.4453"/><text fill="#000000" font-family="sans-serif" font-size="14" lengthAdjust="spacing" textLength="48" x="752" y="1655.7422">int area</text><line style="stroke:#181818;stroke-width:0.5;" x1="733" x2="841" y1="1663.2559" y2="1663.2559"/><ellipse cx="743" cy="1678.0664" fill="#84BE84" rx="3" ry="3" style="stroke:#038048;stroke-width:1.0;"/><text fill="#000000" font-family="sans-serif" font-size="14" lengthAdjust="spacing" textLength="66" x="752" y="1682.3633">getName()</text><ellipse cx="743" cy="1696.6875" fill="#84BE84" rx="3" ry="3" style="stroke:#038048;stroke-width:1.0;"/><text fill="#000000" font-family="sans-serif" font-size="14" lengthAdjust="spacing" textLength="60" x="752" y="1700.9844">getArea()</text></g><!--class LargePark--><g id="elem_LargePark"><rect codeLine="69" fill="#F1F1F1" height="122.4844" id="LargePark" rx="2.5" ry="2.5" style="stroke:#181818;stroke-width:0.5;" width="102" x="458" y="1586.0137"/><ellipse cx="474.8" cy="1602.0137" fill="#ADD1B2" rx="11" ry="11" style="stroke:#181818;stroke-width:1.0;"/><path d="M477.5656,1597.8887 Q477.7219,1597.6699 477.9094,1597.5605 Q478.0969,1597.4512 478.3156,1597.4512 Q478.6906,1597.4512 478.925,1597.7168 Q479.1594,1597.9668 479.1594,1598.5762 L479.1594,1600.0293 Q479.1594,1600.6387 478.925,1600.9043 Q478.6906,1601.1699 478.3156,1601.1699 Q477.9719,1601.1699 477.7688,1600.9668 Q477.5656,1600.7793 477.4563,1600.2637 Q477.4094,1599.9043 477.2219,1599.7168 Q476.8938,1599.3418 476.2844,1599.123 Q475.675,1598.9043 475.05,1598.9043 Q474.2844,1598.9043 473.6438,1599.2324 Q473.0188,1599.5605 472.5188,1600.3105 Q472.0344,1601.0605 472.0344,1602.0918 L472.0344,1603.1855 Q472.0344,1604.4199 472.925,1605.248 Q473.8156,1606.0605 475.4094,1606.0605 Q476.3469,1606.0605 477.0031,1605.8105 Q477.3938,1605.6543 477.8156,1605.2168 Q478.0813,1604.9512 478.2219,1604.873 Q478.3781,1604.7949 478.5813,1604.7949 Q478.9094,1604.7949 479.1594,1605.0605 Q479.425,1605.3105 479.425,1605.6543 Q479.425,1605.998 479.0813,1606.4043 Q478.5813,1606.9824 477.7844,1607.3105 Q476.7063,1607.7637 475.4094,1607.7637 Q473.8938,1607.7637 472.6906,1607.1387 Q471.7063,1606.6387 471.0188,1605.5762 Q470.3313,1604.498 470.3313,1603.2168 L470.3313,1602.0605 Q470.3313,1600.7324 470.9406,1599.5918 Q471.5656,1598.4355 472.6594,1597.8262 Q473.7531,1597.2012 474.9875,1597.2012 Q475.7219,1597.2012 476.3625,1597.373 Q477.0188,1597.5293 477.5656,1597.8887 Z " fill="#000000"/><text fill="#000000" font-family="sans-serif" font-size="14" lengthAdjust="spacing" textLength="66" x="489.2" y="1607.8105">LargePark</text><line style="stroke:#181818;stroke-width:0.5;" x1="459" x2="559" y1="1618.0137" y2="1618.0137"/><rect fill="none" height="6" style="stroke:#C82930;stroke-width:1.0;" width="6" x="466" y="1629.8242"/><text fill="#000000" font-family="sans-serif" font-size="14" lengthAdjust="spacing" textLength="76" x="478" y="1637.1211">String name</text><rect fill="none" height="6" style="stroke:#C82930;stroke-width:1.0;" width="6" x="466" y="1648.4453"/><text fill="#000000" font-family="sans-serif" font-size="14" lengthAdjust="spacing" textLength="48" x="478" y="1655.7422">int area</text><line style="stroke:#181818;stroke-width:0.5;" x1="459" x2="559" y1="1663.2559" y2="1663.2559"/><ellipse cx="469" cy="1678.0664" fill="#84BE84" rx="3" ry="3" style="stroke:#038048;stroke-width:1.0;"/><text fill="#000000" font-family="sans-serif" font-size="14" lengthAdjust="spacing" textLength="66" x="478" y="1682.3633">getName()</text><ellipse cx="469" cy="1696.6875" fill="#84BE84" rx="3" ry="3" style="stroke:#038048;stroke-width:1.0;"/><text fill="#000000" font-family="sans-serif" font-size="14" lengthAdjust="spacing" textLength="60" x="478" y="1700.9844">getArea()</text></g><!--class ICollaborator--><g id="elem_ICollaborator"><rect codeLine="77" fill="#F1F1F1" height="97.8242" id="ICollaborator" rx="2.5" ry="2.5" style="stroke:#181818;stroke-width:0.5;" width="126" x="350" y="976.0137"/><ellipse cx="370.4" cy="998.3047" fill="#B4A7E5" rx="11" ry="11" style="stroke:#181818;stroke-width:1.0;"/><path d="M371.3531,994.9453 L371.3531,1001.6016 L373.0719,1001.6016 Q373.6813,1001.6016 373.9469,1001.8359 Q374.2125,1002.0703 374.2125,1002.4609 Q374.2125,1002.8359 373.9469,1003.0703 Q373.6813,1003.3047 373.0719,1003.3047 L367.9313,1003.3047 Q367.3219,1003.3047 367.0563,1003.0703 Q366.7906,1002.8359 366.7906,1002.4453 Q366.7906,1002.0703 367.0563,1001.8359 Q367.3219,1001.6016 367.9313,1001.6016 L369.65,1001.6016 L369.65,994.9453 L367.9313,994.9453 Q367.3219,994.9453 367.0563,994.7109 Q366.7906,994.4766 366.7906,994.0859 Q366.7906,993.7109 367.0563,993.4766 Q367.3219,993.2422 367.9313,993.2422 L373.0719,993.2422 Q373.6813,993.2422 373.9469,993.4766 Q374.2125,993.7109 374.2125,994.0859 Q374.2125,994.4766 373.9469,994.7109 Q373.6813,994.9453 373.0719,994.9453 L371.3531,994.9453 Z " fill="#000000"/><text fill="#000000" font-family="sans-serif" font-size="12" font-style="italic" lengthAdjust="spacing" textLength="62" x="395.6" y="993.9629">&#171;Interface&#187;</text><text fill="#000000" font-family="sans-serif" font-size="14" font-style="italic" lengthAdjust="spacing" textLength="82" x="385.6" y="1012.082">ICollaborator</text><line style="stroke:#181818;stroke-width:0.5;" x1="351" x2="475" y1="1020.5957" y2="1020.5957"/><line style="stroke:#181818;stroke-width:0.5;" x1="351" x2="475" y1="1028.5957" y2="1028.5957"/><ellipse cx="361" cy="1043.4063" fill="#84BE84" rx="3" ry="3" style="stroke:#038048;stroke-width:1.0;"/><text fill="#000000" font-family="sans-serif" font-size="14" lengthAdjust="spacing" textLength="64" x="370" y="1047.7031">getEmail()</text><ellipse cx="361" cy="1062.0273" fill="#84BE84" rx="3" ry="3" style="stroke:#038048;stroke-width:1.0;"/><text fill="#000000" font-family="sans-serif" font-size="14" lengthAdjust="spacing" textLength="100" x="370" y="1066.3242">hasEmail(email)</text></g><!--class GreenSpaceManager--><g id="elem_GreenSpaceManager"><rect codeLine="82" fill="#F1F1F1" height="66.6211" id="GreenSpaceManager" rx="2.5" ry="2.5" style="stroke:#181818;stroke-width:0.5;" width="168" x="280" y="1135.0137"/><ellipse cx="295" cy="1151.0137" fill="#ADD1B2" rx="11" ry="11" style="stroke:#181818;stroke-width:1.0;"/><path d="M297.7656,1146.8887 Q297.9219,1146.6699 298.1094,1146.5605 Q298.2969,1146.4512 298.5156,1146.4512 Q298.8906,1146.4512 299.125,1146.7168 Q299.3594,1146.9668 299.3594,1147.5762 L299.3594,1149.0293 Q299.3594,1149.6387 299.125,1149.9043 Q298.8906,1150.1699 298.5156,1150.1699 Q298.1719,1150.1699 297.9688,1149.9668 Q297.7656,1149.7793 297.6563,1149.2637 Q297.6094,1148.9043 297.4219,1148.7168 Q297.0938,1148.3418 296.4844,1148.123 Q295.875,1147.9043 295.25,1147.9043 Q294.4844,1147.9043 293.8438,1148.2324 Q293.2188,1148.5605 292.7188,1149.3105 Q292.2344,1150.0605 292.2344,1151.0918 L292.2344,1152.1855 Q292.2344,1153.4199 293.125,1154.248 Q294.0156,1155.0605 295.6094,1155.0605 Q296.5469,1155.0605 297.2031,1154.8105 Q297.5938,1154.6543 298.0156,1154.2168 Q298.2813,1153.9512 298.4219,1153.873 Q298.5781,1153.7949 298.7813,1153.7949 Q299.1094,1153.7949 299.3594,1154.0605 Q299.625,1154.3105 299.625,1154.6543 Q299.625,1154.998 299.2813,1155.4043 Q298.7813,1155.9824 297.9844,1156.3105 Q296.9063,1156.7637 295.6094,1156.7637 Q294.0938,1156.7637 292.8906,1156.1387 Q291.9063,1155.6387 291.2188,1154.5762 Q290.5313,1153.498 290.5313,1152.2168 L290.5313,1151.0605 Q290.5313,1149.7324 291.1406,1148.5918 Q291.7656,1147.4355 292.8594,1146.8262 Q293.9531,1146.2012 295.1875,1146.2012 Q295.9219,1146.2012 296.5625,1146.373 Q297.2188,1146.5293 297.7656,1146.8887 Z " fill="#000000"/><text fill="#000000" font-family="sans-serif" font-size="14" lengthAdjust="spacing" textLength="136" x="309" y="1156.8105">GreenSpaceManager</text><line style="stroke:#181818;stroke-width:0.5;" x1="281" x2="447" y1="1167.0137" y2="1167.0137"/><line style="stroke:#181818;stroke-width:0.5;" x1="281" x2="447" y1="1175.0137" y2="1175.0137"/><ellipse cx="291" cy="1189.8242" fill="#84BE84" rx="3" ry="3" style="stroke:#038048;stroke-width:1.0;"/><text fill="#000000" font-family="sans-serif" font-size="14" lengthAdjust="spacing" textLength="110" x="300" y="1194.1211">getGreenSpace()</text></g><!--class Sortable--><g id="elem_Sortable"><rect codeLine="87" fill="#F1F1F1" height="79.2031" id="Sortable" rx="2.5" ry="2.5" style="stroke:#181818;stroke-width:0.5;" width="219" x="170.5" y="1436.5137"/><ellipse cx="246.75" cy="1458.8047" fill="#B4A7E5" rx="11" ry="11" style="stroke:#181818;stroke-width:1.0;"/><path d="M247.7031,1455.4453 L247.7031,1462.1016 L249.4219,1462.1016 Q250.0313,1462.1016 250.2969,1462.3359 Q250.5625,1462.5703 250.5625,1462.9609 Q250.5625,1463.3359 250.2969,1463.5703 Q250.0313,1463.8047 249.4219,1463.8047 L244.2813,1463.8047 Q243.6719,1463.8047 243.4063,1463.5703 Q243.1406,1463.3359 243.1406,1462.9453 Q243.1406,1462.5703 243.4063,1462.3359 Q243.6719,1462.1016 244.2813,1462.1016 L246,1462.1016 L246,1455.4453 L244.2813,1455.4453 Q243.6719,1455.4453 243.4063,1455.2109 Q243.1406,1454.9766 243.1406,1454.5859 Q243.1406,1454.2109 243.4063,1453.9766 Q243.6719,1453.7422 244.2813,1453.7422 L249.4219,1453.7422 Q250.0313,1453.7422 250.2969,1453.9766 Q250.5625,1454.2109 250.5625,1454.5859 Q250.5625,1454.9766 250.2969,1455.2109 Q250.0313,1455.4453 249.4219,1455.4453 L247.7031,1455.4453 Z " fill="#000000"/><text fill="#000000" font-family="sans-serif" font-size="12" font-style="italic" lengthAdjust="spacing" textLength="62" x="265.25" y="1454.4629">&#171;Interface&#187;</text><text fill="#000000" font-family="sans-serif" font-size="14" font-style="italic" lengthAdjust="spacing" textLength="53" x="269.75" y="1472.582">Sortable</text><line style="stroke:#181818;stroke-width:0.5;" x1="171.5" x2="388.5" y1="1481.0957" y2="1481.0957"/><line style="stroke:#181818;stroke-width:0.5;" x1="171.5" x2="388.5" y1="1489.0957" y2="1489.0957"/><ellipse cx="181.5" cy="1503.9063" fill="#84BE84" rx="3" ry="3" style="stroke:#038048;stroke-width:1.0;"/><text fill="#000000" font-family="sans-serif" font-size="14" lengthAdjust="spacing" textLength="193" x="190.5" y="1508.2031">getSortedList(greenSpaceList)</text></g><!--class BubbleSort--><g id="elem_BubbleSort"><rect codeLine="92" fill="#F1F1F1" height="48" id="BubbleSort" rx="2.5" ry="2.5" style="stroke:#181818;stroke-width:0.5;" width="102" x="321" y="1623.0137"/><ellipse cx="336" cy="1639.0137" fill="#ADD1B2" rx="11" ry="11" style="stroke:#181818;stroke-width:1.0;"/><path d="M338.7656,1634.8887 Q338.9219,1634.6699 339.1094,1634.5605 Q339.2969,1634.4512 339.5156,1634.4512 Q339.8906,1634.4512 340.125,1634.7168 Q340.3594,1634.9668 340.3594,1635.5762 L340.3594,1637.0293 Q340.3594,1637.6387 340.125,1637.9043 Q339.8906,1638.1699 339.5156,1638.1699 Q339.1719,1638.1699 338.9688,1637.9668 Q338.7656,1637.7793 338.6563,1637.2637 Q338.6094,1636.9043 338.4219,1636.7168 Q338.0938,1636.3418 337.4844,1636.123 Q336.875,1635.9043 336.25,1635.9043 Q335.4844,1635.9043 334.8438,1636.2324 Q334.2188,1636.5605 333.7188,1637.3105 Q333.2344,1638.0605 333.2344,1639.0918 L333.2344,1640.1855 Q333.2344,1641.4199 334.125,1642.248 Q335.0156,1643.0605 336.6094,1643.0605 Q337.5469,1643.0605 338.2031,1642.8105 Q338.5938,1642.6543 339.0156,1642.2168 Q339.2813,1641.9512 339.4219,1641.873 Q339.5781,1641.7949 339.7813,1641.7949 Q340.1094,1641.7949 340.3594,1642.0605 Q340.625,1642.3105 340.625,1642.6543 Q340.625,1642.998 340.2813,1643.4043 Q339.7813,1643.9824 338.9844,1644.3105 Q337.9063,1644.7637 336.6094,1644.7637 Q335.0938,1644.7637 333.8906,1644.1387 Q332.9063,1643.6387 332.2188,1642.5762 Q331.5313,1641.498 331.5313,1640.2168 L331.5313,1639.0605 Q331.5313,1637.7324 332.1406,1636.5918 Q332.7656,1635.4355 333.8594,1634.8262 Q334.9531,1634.2012 336.1875,1634.2012 Q336.9219,1634.2012 337.5625,1634.373 Q338.2188,1634.5293 338.7656,1634.8887 Z " fill="#000000"/><text fill="#000000" font-family="sans-serif" font-size="14" lengthAdjust="spacing" textLength="70" x="350" y="1644.8105">BubbleSort</text><line style="stroke:#181818;stroke-width:0.5;" x1="322" x2="422" y1="1655.0137" y2="1655.0137"/><line style="stroke:#181818;stroke-width:0.5;" x1="322" x2="422" y1="1663.0137" y2="1663.0137"/></g><!--class SelectionSort--><g id="elem_SelectionSort"><rect codeLine="95" fill="#F1F1F1" height="48" id="SelectionSort" rx="2.5" ry="2.5" style="stroke:#181818;stroke-width:0.5;" width="116" x="170" y="1623.0137"/><ellipse cx="185" cy="1639.0137" fill="#ADD1B2" rx="11" ry="11" style="stroke:#181818;stroke-width:1.0;"/><path d="M187.7656,1634.8887 Q187.9219,1634.6699 188.1094,1634.5605 Q188.2969,1634.4512 188.5156,1634.4512 Q188.8906,1634.4512 189.125,1634.7168 Q189.3594,1634.9668 189.3594,1635.5762 L189.3594,1637.0293 Q189.3594,1637.6387 189.125,1637.9043 Q188.8906,1638.1699 188.5156,1638.1699 Q188.1719,1638.1699 187.9688,1637.9668 Q187.7656,1637.7793 187.6563,1637.2637 Q187.6094,1636.9043 187.4219,1636.7168 Q187.0938,1636.3418 186.4844,1636.123 Q185.875,1635.9043 185.25,1635.9043 Q184.4844,1635.9043 183.8438,1636.2324 Q183.2188,1636.5605 182.7188,1637.3105 Q182.2344,1638.0605 182.2344,1639.0918 L182.2344,1640.1855 Q182.2344,1641.4199 183.125,1642.248 Q184.0156,1643.0605 185.6094,1643.0605 Q186.5469,1643.0605 187.2031,1642.8105 Q187.5938,1642.6543 188.0156,1642.2168 Q188.2813,1641.9512 188.4219,1641.873 Q188.5781,1641.7949 188.7813,1641.7949 Q189.1094,1641.7949 189.3594,1642.0605 Q189.625,1642.3105 189.625,1642.6543 Q189.625,1642.998 189.2813,1643.4043 Q188.7813,1643.9824 187.9844,1644.3105 Q186.9063,1644.7637 185.6094,1644.7637 Q184.0938,1644.7637 182.8906,1644.1387 Q181.9063,1643.6387 181.2188,1642.5762 Q180.5313,1641.498 180.5313,1640.2168 L180.5313,1639.0605 Q180.5313,1637.7324 181.1406,1636.5918 Q181.7656,1635.4355 182.8594,1634.8262 Q183.9531,1634.2012 185.1875,1634.2012 Q185.9219,1634.2012 186.5625,1634.373 Q187.2188,1634.5293 187.7656,1634.8887 Z " fill="#000000"/><text fill="#000000" font-family="sans-serif" font-size="14" lengthAdjust="spacing" textLength="84" x="199" y="1644.8105">SelectionSort</text><line style="stroke:#181818;stroke-width:0.5;" x1="171" x2="285" y1="1655.0137" y2="1655.0137"/><line style="stroke:#181818;stroke-width:0.5;" x1="171" x2="285" y1="1663.0137" y2="1663.0137"/></g><!--class Repositories--><g id="elem_Repositories"><rect codeLine="102" fill="#F1F1F1" height="103.8633" id="Repositories" rx="2.5" ry="2.5" style="stroke:#181818;stroke-width:0.5;" width="202" x="272" y="492.0137"/><ellipse cx="329.25" cy="508.0137" fill="#ADD1B2" rx="11" ry="11" style="stroke:#181818;stroke-width:1.0;"/><path d="M332.0156,503.8887 Q332.1719,503.6699 332.3594,503.5605 Q332.5469,503.4512 332.7656,503.4512 Q333.1406,503.4512 333.375,503.7168 Q333.6094,503.9668 333.6094,504.5762 L333.6094,506.0293 Q333.6094,506.6387 333.375,506.9043 Q333.1406,507.1699 332.7656,507.1699 Q332.4219,507.1699 332.2188,506.9668 Q332.0156,506.7793 331.9063,506.2637 Q331.8594,505.9043 331.6719,505.7168 Q331.3438,505.3418 330.7344,505.123 Q330.125,504.9043 329.5,504.9043 Q328.7344,504.9043 328.0938,505.2324 Q327.4688,505.5605 326.9688,506.3105 Q326.4844,507.0605 326.4844,508.0918 L326.4844,509.1855 Q326.4844,510.4199 327.375,511.248 Q328.2656,512.0605 329.8594,512.0605 Q330.7969,512.0605 331.4531,511.8105 Q331.8438,511.6543 332.2656,511.2168 Q332.5313,510.9512 332.6719,510.873 Q332.8281,510.7949 333.0313,510.7949 Q333.3594,510.7949 333.6094,511.0605 Q333.875,511.3105 333.875,511.6543 Q333.875,511.998 333.5313,512.4043 Q333.0313,512.9824 332.2344,513.3105 Q331.1563,513.7637 329.8594,513.7637 Q328.3438,513.7637 327.1406,513.1387 Q326.1563,512.6387 325.4688,511.5762 Q324.7813,510.498 324.7813,509.2168 L324.7813,508.0605 Q324.7813,506.7324 325.3906,505.5918 Q326.0156,504.4355 327.1094,503.8262 Q328.2031,503.2012 329.4375,503.2012 Q330.1719,503.2012 330.8125,503.373 Q331.4688,503.5293 332.0156,503.8887 Z " fill="#000000"/><text fill="#000000" font-family="sans-serif" font-size="14" lengthAdjust="spacing" textLength="79" x="349.75" y="513.8105">Repositories</text><line style="stroke:#181818;stroke-width:0.5;" x1="273" x2="473" y1="524.0137" y2="524.0137"/><line style="stroke:#181818;stroke-width:0.5;" x1="273" x2="473" y1="532.0137" y2="532.0137"/><rect fill="#F24D5C" height="6" style="stroke:#C82930;stroke-width:1.0;" width="6" x="280" y="543.8242"/><text fill="#000000" font-family="sans-serif" font-size="14" lengthAdjust="spacing" textLength="89" x="292" y="551.1211">Repositories()</text><ellipse cx="283" cy="565.4453" fill="#84BE84" rx="3" ry="3" style="stroke:#038048;stroke-width:1.0;"/><text fill="#000000" font-family="sans-serif" font-size="14" lengthAdjust="spacing" textLength="174" x="292" y="569.7422">getInstance() : Repositories</text><ellipse cx="283" cy="584.0664" fill="#84BE84" rx="3" ry="3" style="stroke:#038048;stroke-width:1.0;"/><text fill="#000000" font-family="sans-serif" font-size="14" lengthAdjust="spacing" textLength="176" x="292" y="588.3633">getCollaboratorRepository()</text></g><!--class CollaboratorRepository--><g id="elem_CollaboratorRepository"><rect codeLine="109" fill="#F1F1F1" height="66.6211" id="CollaboratorRepository" rx="2.5" ry="2.5" style="stroke:#181818;stroke-width:0.5;" width="217" x="304.5" y="805.0137"/><ellipse cx="337.05" cy="821.0137" fill="#ADD1B2" rx="11" ry="11" style="stroke:#181818;stroke-width:1.0;"/><path d="M339.8156,816.8887 Q339.9719,816.6699 340.1594,816.5605 Q340.3469,816.4512 340.5656,816.4512 Q340.9406,816.4512 341.175,816.7168 Q341.4094,816.9668 341.4094,817.5762 L341.4094,819.0293 Q341.4094,819.6387 341.175,819.9043 Q340.9406,820.1699 340.5656,820.1699 Q340.2219,820.1699 340.0188,819.9668 Q339.8156,819.7793 339.7063,819.2637 Q339.6594,818.9043 339.4719,818.7168 Q339.1438,818.3418 338.5344,818.123 Q337.925,817.9043 337.3,817.9043 Q336.5344,817.9043 335.8938,818.2324 Q335.2688,818.5605 334.7688,819.3105 Q334.2844,820.0605 334.2844,821.0918 L334.2844,822.1855 Q334.2844,823.4199 335.175,824.248 Q336.0656,825.0605 337.6594,825.0605 Q338.5969,825.0605 339.2531,824.8105 Q339.6438,824.6543 340.0656,824.2168 Q340.3313,823.9512 340.4719,823.873 Q340.6281,823.7949 340.8313,823.7949 Q341.1594,823.7949 341.4094,824.0605 Q341.675,824.3105 341.675,824.6543 Q341.675,824.998 341.3313,825.4043 Q340.8313,825.9824 340.0344,826.3105 Q338.9563,826.7637 337.6594,826.7637 Q336.1438,826.7637 334.9406,826.1387 Q333.9563,825.6387 333.2688,824.5762 Q332.5813,823.498 332.5813,822.2168 L332.5813,821.0605 Q332.5813,819.7324 333.1906,818.5918 Q333.8156,817.4355 334.9094,816.8262 Q336.0031,816.2012 337.2375,816.2012 Q337.9719,816.2012 338.6125,816.373 Q339.2688,816.5293 339.8156,816.8887 Z " fill="#000000"/><text fill="#000000" font-family="sans-serif" font-size="14" lengthAdjust="spacing" textLength="146" x="354.95" y="826.8105">CollaboratorRepository</text><line style="stroke:#181818;stroke-width:0.5;" x1="305.5" x2="520.5" y1="837.0137" y2="837.0137"/><line style="stroke:#181818;stroke-width:0.5;" x1="305.5" x2="520.5" y1="845.0137" y2="845.0137"/><ellipse cx="315.5" cy="859.8242" fill="#84BE84" rx="3" ry="3" style="stroke:#038048;stroke-width:1.0;"/><text fill="#000000" font-family="sans-serif" font-size="14" lengthAdjust="spacing" textLength="191" x="324.5" y="864.1211">getCollaboratorByEmail(email)</text></g><!--reverse link GreenSpace to Garden--><g id="link_GreenSpace_Garden"><path d="M592.8056,1541.485 C602.3856,1560.305 605.3,1566.0337 615.38,1585.8437 " fill="none" id="GreenSpace-backto-Garden" style="stroke:#181818;stroke-width:1.0;stroke-dasharray:7.0,7.0;"/><polygon fill="none" points="584.64,1525.4437,587.4585,1544.2068,598.1527,1538.7631,584.64,1525.4437" style="stroke:#181818;stroke-width:1.0;"/></g><!--reverse link GreenSpace to MediumPark--><g id="link_GreenSpace_MediumPark"><path d="M630.8591,1524.9765 C660.6691,1545.4865 682.88,1561.4037 715,1586.0137 C720.55,1590.2737 726.27,1594.7837 731.95,1599.3637 " fill="none" id="GreenSpace-backto-MediumPark" style="stroke:#181818;stroke-width:1.0;stroke-dasharray:7.0,7.0;"/><polygon fill="none" points="616.03,1514.7737,627.4582,1529.9195,634.2601,1520.0334,616.03,1514.7737" style="stroke:#181818;stroke-width:1.0;"/></g><!--reverse link GreenSpace to LargePark--><g id="link_GreenSpace_LargePark"><path d="M540.1808,1542.6734 C534.4908,1561.4934 533.14,1566.0337 527.16,1585.8437 " fill="none" id="GreenSpace-backto-LargePark" style="stroke:#181818;stroke-width:1.0;stroke-dasharray:7.0,7.0;"/><polygon fill="none" points="545.39,1525.4437,534.4375,1540.937,545.924,1544.4098,545.39,1525.4437" style="stroke:#181818;stroke-width:1.0;"/></g><!--reverse link ICollaborator to GreenSpaceManager--><g id="link_ICollaborator_GreenSpaceManager"><path d="M390.382,1091.3234 C383.452,1111.3434 381.49,1117.0237 375.26,1135.0037 " fill="none" id="ICollaborator-backto-GreenSpaceManager" style="stroke:#181818;stroke-width:1.0;stroke-dasharray:7.0,7.0;"/><polygon fill="none" points="396.27,1074.3137,384.7121,1089.3608,396.0519,1093.2861,396.27,1074.3137" style="stroke:#181818;stroke-width:1.0;"/></g><!--reverse link Sortable to BubbleSort--><g id="link_Sortable_BubbleSort"><path d="M309.7155,1531.5933 C327.6455,1564.5333 344.19,1594.9237 359.21,1622.5237 " fill="none" id="Sortable-backto-BubbleSort" style="stroke:#181818;stroke-width:1.0;stroke-dasharray:7.0,7.0;"/><polygon fill="none" points="301.11,1515.7837,304.4457,1534.4618,314.9854,1528.7248,301.11,1515.7837" style="stroke:#181818;stroke-width:1.0;"/></g><!--reverse link Sortable to SelectionSort--><g id="link_Sortable_SelectionSort"><path d="M262.779,1532.9885 C252.649,1565.9285 243.72,1594.9237 235.23,1622.5237 " fill="none" id="Sortable-backto-SelectionSort" style="stroke:#181818;stroke-width:1.0;stroke-dasharray:7.0,7.0;"/><polygon fill="none" points="268.07,1515.7837,257.0441,1531.2248,268.514,1534.7521,268.07,1515.7837" style="stroke:#181818;stroke-width:1.0;"/></g><!--link Repositories to Repositories--><g id="link_Repositories_Repositories"><path codeLine="117" d="M474.12,527.8037 C494.46,529.6037 509,535.0037 509,544.0137 C509,553.0237 500.4366,557.8948 480.0966,559.6948 " fill="none" id="Repositories-to-Repositories" style="stroke:#181818;stroke-width:1.0;"/><polygon fill="#181818" points="474.12,560.2237,483.4376,563.4147,479.1005,559.7829,482.7324,555.4459,474.12,560.2237" style="stroke:#181818;stroke-width:1.0;"/><text fill="#000000" font-family="sans-serif" font-size="13" lengthAdjust="spacing" textLength="49" x="515" y="549.542">instance</text></g><!--link ApplicationSession to ApplicationSession--><g id="link_ApplicationSession_ApplicationSession"><path codeLine="118" d="M763.21,527.3237 C783.06,528.3837 798,533.9537 798,544.0137 C798,554.0737 789.0515,559.3237 769.2015,560.3837 " fill="none" id="ApplicationSession-to-ApplicationSession" style="stroke:#181818;stroke-width:1.0;"/><polygon fill="#181818" points="763.21,560.7037,772.4105,564.2181,768.2029,560.437,771.9839,556.2294,763.21,560.7037" style="stroke:#181818;stroke-width:1.0;"/><text fill="#000000" font-family="sans-serif" font-size="13" lengthAdjust="spacing" textLength="49" x="804" y="549.542">instance</text></g><!--link ListGreenSpacesUI to ListGreenSpacesController--><g id="link_ListGreenSpacesUI_ListGreenSpacesController"><path codeLine="121" d="M373,91.2837 C373,113.6437 373,142.1837 373,170.9537 " fill="none" id="ListGreenSpacesUI-to-ListGreenSpacesController" style="stroke:#181818;stroke-width:1.0;stroke-dasharray:7.0,7.0;"/><polygon fill="#181818" points="373,176.9537,377,167.9537,373,171.9537,369,167.9537,373,176.9537" style="stroke:#181818;stroke-width:1.0;"/></g><!--link ListGreenSpacesController to Repositories--><g id="link_ListGreenSpacesController_Repositories"><path codeLine="124" d="M373,281.3537 C373,339.5337 373,427.8237 373,485.9137 " fill="none" id="ListGreenSpacesController-to-Repositories" style="stroke:#181818;stroke-width:1.0;stroke-dasharray:7.0,7.0;"/><polygon fill="#181818" points="373,491.9137,377,482.9137,373,486.9137,369,482.9137,373,491.9137" style="stroke:#181818;stroke-width:1.0;"/><text fill="#000000" font-family="sans-serif" font-size="13" lengthAdjust="spacing" textLength="67" x="374" y="359.042">repositories</text></g><!--link ListGreenSpacesController to ApplicationSession--><g id="link_ListGreenSpacesController_ApplicationSession"><path codeLine="125" d="M436.18,281.0837 C475.75,314.1137 527.02,358.8537 569,402.0137 C599.83,433.7037 627.966,467.8334 650.636,496.7234 " fill="none" id="ListGreenSpacesController-to-ApplicationSession" style="stroke:#181818;stroke-width:1.0;stroke-dasharray:7.0,7.0;"/><polygon fill="#181818" points="654.34,501.4437,651.9309,491.894,651.2534,497.5101,645.6372,496.8326,654.34,501.4437" style="stroke:#181818;stroke-width:1.0;"/></g><!--link ListGreenSpacesController to UserSession--><g id="link_ListGreenSpacesController_UserSession"><path codeLine="126" d="M548.18,242.4837 C657.27,260.3737 789.77,302.7337 860,402.0137 C909.79,472.4037 891.22,515.6437 860,596.0137 C847.89,627.1937 827.0126,650.9742 804.6126,671.0042 " fill="none" id="ListGreenSpacesController-to-UserSession" style="stroke:#181818;stroke-width:1.0;stroke-dasharray:7.0,7.0;"/><polygon fill="#181818" points="800.14,675.0037,809.5153,671.9863,803.8672,671.6708,804.1827,666.0228,800.14,675.0037" style="stroke:#181818;stroke-width:1.0;"/></g><!--link ListGreenSpacesController to CollaboratorRepository--><g id="link_ListGreenSpacesController_CollaboratorRepository"><path codeLine="127" d="M548.11,232.7237 C723,240.3237 966,266.3737 966,352.5137 C966,352.5137 966,352.5137 966,709.5137 C966,799.8037 688.6329,826.1323 527.5929,833.9623 " fill="none" id="ListGreenSpacesController-to-CollaboratorRepository" style="stroke:#181818;stroke-width:1.0;stroke-dasharray:7.0,7.0;"/><polygon fill="#181818" points="521.6,834.2537,530.7836,837.8119,526.5941,834.0109,530.3951,829.8213,521.6,834.2537" style="stroke:#181818;stroke-width:1.0;"/></g><!--link ListGreenSpacesController to ICollaborator--><g id="link_ListGreenSpacesController_ICollaborator"><path codeLine="128" d="M548.33,245.4237 C745.05,265.1337 1037,302.7637 1037,352.5137 C1037,352.5137 1037,352.5137 1037,839.5137 C1037,955.5937 640.8845,1003.6416 482.2445,1018.3016 " fill="none" id="ListGreenSpacesController-to-ICollaborator" style="stroke:#181818;stroke-width:1.0;stroke-dasharray:7.0,7.0;"/><polygon fill="#181818" points="476.27,1018.8537,485.5999,1022.0085,481.2488,1018.3936,484.8637,1014.0425,476.27,1018.8537" style="stroke:#181818;stroke-width:1.0;"/></g><!--link ListGreenSpacesController to GreenSpace--><g id="link_ListGreenSpacesController_GreenSpace"><path codeLine="129" d="M197.82,243.4537 C133.91,258.8537 77,290.0837 77,352.5137 C77,352.5137 77,352.5137 77,1315.5137 C77,1321.0737 370.5215,1414.8773 497.9315,1455.3473 " fill="none" id="ListGreenSpacesController-to-GreenSpace" style="stroke:#181818;stroke-width:1.0;stroke-dasharray:7.0,7.0;"/><polygon fill="#181818" points="503.65,1457.1637,496.2832,1450.6268,498.8846,1455.65,493.8614,1458.2514,503.65,1457.1637" style="stroke:#181818;stroke-width:1.0;"/></g><!--link ListGreenSpacesController to GreenSpaceManager--><g id="link_ListGreenSpacesController_GreenSpaceManager"><path codeLine="130" d="M259.86,281.1437 C236.58,299.3937 219,322.9637 219,352.5137 C219,352.5137 219,352.5137 219,1026.0137 C219,1073.8537 254.8409,1107.5995 293.2109,1131.7295 " fill="none" id="ListGreenSpacesController-to-GreenSpaceManager" style="stroke:#181818;stroke-width:1.0;stroke-dasharray:7.0,7.0;"/><polygon fill="#181818" points="298.29,1134.9237,292.8007,1126.7464,294.0574,1132.2619,288.5419,1133.5185,298.29,1134.9237" style="stroke:#181818;stroke-width:1.0;"/></g><!--link ListGreenSpacesController to GreenSpaces--><g id="link_ListGreenSpacesController_GreenSpaces"><path codeLine="131" d="M197.93,275.0137 C168.89,292.8937 148,317.8237 148,352.5137 C148,352.5137 148,352.5137 148,1169.5137 C148,1232.7237 207.172,1267.897 265.802,1288.587 " fill="none" id="ListGreenSpacesController-to-GreenSpaces" style="stroke:#181818;stroke-width:1.0;stroke-dasharray:7.0,7.0;"/><polygon fill="#181818" points="271.46,1290.5837,264.3041,1283.8166,266.745,1288.9198,261.6418,1291.3607,271.46,1290.5837" style="stroke:#181818;stroke-width:1.0;"/></g><!--link ListGreenSpacesController to Sortable--><g id="link_ListGreenSpacesController_Sortable"><path codeLine="132" d="M197.83,257.2437 C103.39,277.0537 6,308.2237 6,352.5137 C6,352.5137 6,352.5137 6,1315.5137 C6,1395.3237 88.0998,1434.3582 164.3298,1454.5382 " fill="none" id="ListGreenSpacesController-to-Sortable" style="stroke:#181818;stroke-width:1.0;stroke-dasharray:7.0,7.0;"/><polygon fill="#181818" points="170.13,1456.0737,162.4533,1449.9037,165.2965,1454.7941,160.4061,1457.6373,170.13,1456.0737" style="stroke:#181818;stroke-width:1.0;"/></g><!--link ApplicationSession to UserSession--><g id="link_ApplicationSession_UserSession"><path codeLine="135" d="M704.54,586.8637 C716.67,614.2237 729.8484,643.9785 741.0684,669.2885 " fill="none" id="ApplicationSession-to-UserSession" style="stroke:#181818;stroke-width:1.0;"/><polygon fill="#181818" points="743.5,674.7737,743.5094,664.9248,741.4737,670.2027,736.1958,668.167,743.5,674.7737" style="stroke:#181818;stroke-width:1.0;"/><text fill="#000000" font-family="sans-serif" font-size="13" lengthAdjust="spacing" textLength="72" x="729" y="641.042">userSession</text><text fill="#000000" font-family="sans-serif" font-size="13" lengthAdjust="spacing" textLength="7" x="733.0688" y="663.8138">1</text></g><!--link Repositories to CollaboratorRepository--><g id="link_Repositories_CollaboratorRepository"><path codeLine="138" d="M380.01,596.2937 C388.24,656.4237 400.8072,748.349 407.7272,798.959 " fill="none" id="Repositories-to-CollaboratorRepository" style="stroke:#181818;stroke-width:1.0;"/><polygon fill="#181818" points="408.54,804.9037,411.2839,795.4448,407.8626,799.9498,403.3576,796.5285,408.54,804.9037" style="stroke:#181818;stroke-width:1.0;"/><text fill="#000000" font-family="sans-serif" font-size="13" lengthAdjust="spacing" textLength="131" x="404" y="714.042">CollaboratorRepository</text><text fill="#000000" font-family="sans-serif" font-size="13" lengthAdjust="spacing" textLength="7" x="399.9729" y="793.7075">1</text></g><!--link CollaboratorRepository to ICollaborator--><g id="link_CollaboratorRepository_ICollaborator"><path codeLine="141" d="M413,872.0737 C413,900.8337 413,937.1537 413,969.8337 " fill="none" id="CollaboratorRepository-to-ICollaborator" style="stroke:#181818;stroke-width:1.0;"/><polygon fill="#181818" points="413,975.8337,417,966.8337,413,970.8337,409,966.8337,413,975.8337" style="stroke:#181818;stroke-width:1.0;"/><text fill="#000000" font-family="sans-serif" font-size="13" lengthAdjust="spacing" textLength="84" x="414" y="919.042">collaboratorLis</text><text fill="#000000" font-family="sans-serif" font-size="13" lengthAdjust="spacing" textLength="7" x="405.3766" y="893.6536">1</text><text fill="#000000" font-family="sans-serif" font-size="13" lengthAdjust="spacing" textLength="5" x="407.6484" y="964.7836">*</text></g><!--link GreenSpaceManager to GreenSpaces--><g id="link_GreenSpaceManager_GreenSpaces"><path codeLine="144" d="M364,1202.1937 C364,1225.7537 364,1251.4337 364,1274.9637 " fill="none" id="GreenSpaceManager-to-GreenSpaces" style="stroke:#181818;stroke-width:1.0;"/><polygon fill="#181818" points="364,1280.9637,368,1271.9637,364,1275.9637,360,1271.9637,364,1280.9637" style="stroke:#181818;stroke-width:1.0;"/><text fill="#000000" font-family="sans-serif" font-size="13" lengthAdjust="spacing" textLength="76" x="365" y="1247.042">greenSpaces</text><text fill="#000000" font-family="sans-serif" font-size="13" lengthAdjust="spacing" textLength="7" x="356.3766" y="1223.795">1</text><text fill="#000000" font-family="sans-serif" font-size="13" lengthAdjust="spacing" textLength="7" x="356.3109" y="1269.7793">1</text></g><!--link GreenSpaces to GreenSpace--><g id="link_GreenSpaces_GreenSpace"><path codeLine="147" d="M404.14,1348.1737 C432.92,1371.6037 467.4264,1399.6763 499.2864,1425.6063 " fill="none" id="GreenSpaces-to-GreenSpace" style="stroke:#181818;stroke-width:1.0;"/><polygon fill="#181818" points="503.94,1429.3937,499.4846,1420.6102,500.062,1426.2375,494.4347,1426.8149,503.94,1429.3937" style="stroke:#181818;stroke-width:1.0;"/><text fill="#000000" font-family="sans-serif" font-size="13" lengthAdjust="spacing" textLength="90" x="463" y="1393.042">greenSpaceList</text><text fill="#000000" font-family="sans-serif" font-size="13" lengthAdjust="spacing" textLength="7" x="403.6665" y="1369.7714">1</text><text fill="#000000" font-family="sans-serif" font-size="13" lengthAdjust="spacing" textLength="5" x="491.071" y="1419.0466">*</text></g><!--reverse link Sortable to GreenSpace--><g id="link_Sortable_GreenSpace"><path codeLine="150" d="M395.86,1476.0137 C434.93,1476.0137 471.28,1476.0137 503.96,1476.0137 " fill="none" id="Sortable-backto-GreenSpace" style="stroke:#181818;stroke-width:1.0;"/><polygon fill="#181818" points="389.86,1476.0137,398.86,1480.0137,394.86,1476.0137,398.86,1472.0137,389.86,1476.0137" style="stroke:#181818;stroke-width:1.0;"/><text fill="#000000" font-family="sans-serif" font-size="13" lengthAdjust="spacing" textLength="78" x="407.75" y="1469.042">makes use of</text><text fill="#000000" font-family="sans-serif" font-size="13" lengthAdjust="spacing" textLength="7" x="397.4764" y="1472.4739">1</text><text fill="#000000" font-family="sans-serif" font-size="13" lengthAdjust="spacing" textLength="5" x="491.0937" y="1471.9312">*</text></g><!--SRC=[pLR1Zjem4BtdAomkoxO2gLUqGjhTTbUHbgfgn0UOP0WMZXtPHXLTxRztJ0AP90xXqCFc085vCs-UPppsdTqBLNB32rPefTETqGKmPmuGDPQIftkUG-AE4fY1r76LImgmEvxfFqBbRCkbfHOf5BXZ2KmRfoDYI2Mtzj4v8pO71t6gLIB-0fjycqHHpSScwtZ27XvUjCp0B9ViFMBud3pPcx3krG2e1D5Wrt5j_OW-8XBXMIjdj9HWEf66GpKkTKZ_V1r6JLFyuXjjkDFcDvJQ2dmvtXFV78ZhYYjCpRoUVlYe5-3i14nMBrY41AmLMatlQrLUrfs4hMDECoFodMEPyBL0K2FtkowuK26f7SZyiIobIBbt3y6RrI70EgSBe5cUIgPr24kzY5ZXkqfXUj-1eEtvO0mernPOYsnJhosOCKuCw64_K9HinI8HkzfNEWCvf5ee1sQBfM5DoH0Qd_zUBWCf_EH5KEkZ0NvD8MaeaiB97RqJt3IG4SpLKDnae9WeIWa5hYyDtivunXBSThXP5MRTiQ1wnZ7fwFzfN44c3iKlRlQVCBatRdBuTBarFHW_a-4oseRTNL0PTjnM1l2VDtLZFQFeehGoUG_8RBp7HFc-vXlPsrRzcDKEy4Docb_2-vzNL3mTDXZRUzBqpvplmuu9o6gUtkmxC5-QG-3wQBtW15ZMaJzhMKFjqynOjcY10oCtU49TsnTX3nQg4OK-7GSwxN8qtytwprb9m1IrrcYsRA_P0fkgSetwnvH71_ubFi5ard4eZVvrOpvV3jy9mg4R-mqKv1eozrmTuOOMVCGrS8IFUD2JTmGQxfGnhzOq6GCtfjkHzGIxtM5q5SzJ85pR_Xg7QXpgKcnJlFNI9SVo7aW1Wdoq7SRtpPbaO5ilXgeuqCOXR2Y90JgVIQNxowHpmYqOlKrZHS8fzEeSOkyVPvxul1IaqiYQapuOORJNkMp3yeMoj4XEr_uWpxdBGYINSzCpFCpw10NV8p_s3jFRw1y0]--></g></svg>