<?xml version="1.0" encoding="us-ascii" standalone="no"?><svg xmlns="http://www.w3.org/2000/svg" xmlns:xlink="http://www.w3.org/1999/xlink" contentStyleType="text/css" height="661px" preserveAspectRatio="none" style="width:1035px;height:661px;background:#FFFFFF;" version="1.1" viewBox="0 0 1035 661" width="1035px" zoomAndPan="magnify"><defs/><g><text fill="#000000" font-family="sans-serif" font-size="14" font-weight="bold" lengthAdjust="spacing" textLength="372" x="329" y="30.1074">UI Sequence Diagram (SD) - US27 - List Green Spaces</text><rect fill="#FFFFFF" height="427.4141" style="stroke:#181818;stroke-width:1.0;" width="10" x="101" y="133.2422"/><rect fill="#FFFFFF" height="404.123" style="stroke:#181818;stroke-width:1.0;" width="10" x="371" y="156.5332"/><rect fill="#FFFFFF" height="341.541" style="stroke:#181818;stroke-width:1.0;" width="10" x="606" y="187.8242"/><rect fill="#FFFFFF" height="90.543" style="stroke:#181818;stroke-width:1.0;" width="10" x="611" y="227.1152"/><rect fill="#FFFFFF" height="142.125" style="stroke:#181818;stroke-width:1.0;" width="10" x="787.5" y="355.9492"/><rect fill="#FFFFFF" height="79.543" style="stroke:#181818;stroke-width:1.0;" width="10" x="968.5" y="387.2402"/><line style="stroke:#181818;stroke-width:0.5;stroke-dasharray:5.0,5.0;" x1="106" x2="106" y1="123.2422" y2="578.6563"/><line style="stroke:#181818;stroke-width:0.5;stroke-dasharray:5.0,5.0;" x1="375.5" x2="375.5" y1="123.2422" y2="578.6563"/><line style="stroke:#181818;stroke-width:0.5;stroke-dasharray:5.0,5.0;" x1="610.5" x2="610.5" y1="123.2422" y2="578.6563"/><line style="stroke:#181818;stroke-width:0.5;stroke-dasharray:5.0,5.0;" x1="792.5" x2="792.5" y1="123.2422" y2="578.6563"/><line style="stroke:#181818;stroke-width:0.5;stroke-dasharray:5.0,5.0;" x1="973" x2="973" y1="123.2422" y2="578.6563"/><text fill="#000000" font-family="sans-serif" font-size="14" lengthAdjust="spacing" textLength="196" x="5" y="119.7285">Green Spaces Manager (GSM)</text><ellipse cx="106" cy="53.1211" fill="#E3E3E3" rx="8" ry="8" style="stroke:#181818;stroke-width:0.5;"/><path d="M106,61.1211 L106,88.1211 M93,69.1211 L119,69.1211 M106,88.1211 L93,103.1211 M106,88.1211 L119,103.1211 " fill="none" style="stroke:#181818;stroke-width:0.5;"/><text fill="#000000" font-family="sans-serif" font-size="14" lengthAdjust="spacing" textLength="196" x="5" y="592.7637">Green Spaces Manager (GSM)</text><ellipse cx="106" cy="604.7773" fill="#E3E3E3" rx="8" ry="8" style="stroke:#181818;stroke-width:0.5;"/><path d="M106,612.7773 L106,639.7773 M93,620.7773 L119,620.7773 M106,639.7773 L93,654.7773 M106,639.7773 L119,654.7773 " fill="none" style="stroke:#181818;stroke-width:0.5;"/><rect fill="#E3E3E3" height="32.6211" rx="2.5" ry="2.5" style="stroke:#181818;stroke-width:0.5;" width="139" x="306.5" y="89.6211"/><text fill="#000000" font-family="sans-serif" font-size="14" lengthAdjust="spacing" textLength="125" x="313.5" y="111.7285">:ListGreenSpacesUI</text><rect fill="#E3E3E3" height="32.6211" rx="2.5" ry="2.5" style="stroke:#181818;stroke-width:0.5;" width="139" x="306.5" y="577.6563"/><text fill="#000000" font-family="sans-serif" font-size="14" lengthAdjust="spacing" textLength="125" x="313.5" y="599.7637">:ListGreenSpacesUI</text><rect fill="#E3E3E3" height="32.6211" rx="2.5" ry="2.5" style="stroke:#181818;stroke-width:0.5;" width="189" x="516.5" y="89.6211"/><text fill="#000000" font-family="sans-serif" font-size="14" lengthAdjust="spacing" textLength="175" x="523.5" y="111.7285">:ListGreenSpacesController</text><rect fill="#E3E3E3" height="32.6211" rx="2.5" ry="2.5" style="stroke:#181818;stroke-width:0.5;" width="189" x="516.5" y="577.6563"/><text fill="#000000" font-family="sans-serif" font-size="14" lengthAdjust="spacing" textLength="175" x="523.5" y="599.7637">:ListGreenSpacesController</text><rect fill="#E3E3E3" height="51.2422" rx="2.5" ry="2.5" style="stroke:#181818;stroke-width:0.5;" width="154" x="715.5" y="71"/><text fill="#000000" font-family="sans-serif" font-size="14" lengthAdjust="spacing" textLength="56" x="764.5" y="93.1074">manager</text><text fill="#000000" font-family="sans-serif" font-size="14" lengthAdjust="spacing" textLength="140" x="722.5" y="111.7285">:GreenSpaceManager</text><rect fill="#E3E3E3" height="51.2422" rx="2.5" ry="2.5" style="stroke:#181818;stroke-width:0.5;" width="154" x="715.5" y="577.6563"/><text fill="#000000" font-family="sans-serif" font-size="14" lengthAdjust="spacing" textLength="56" x="764.5" y="599.7637">manager</text><text fill="#000000" font-family="sans-serif" font-size="14" lengthAdjust="spacing" textLength="140" x="722.5" y="618.3848">:GreenSpaceManager</text><rect fill="#E3E3E3" height="51.2422" rx="2.5" ry="2.5" style="stroke:#181818;stroke-width:0.5;" width="105" x="921" y="71"/><text fill="#000000" font-family="sans-serif" font-size="14" lengthAdjust="spacing" textLength="84" x="931.5" y="93.1074">greenSpaces</text><text fill="#000000" font-family="sans-serif" font-size="14" lengthAdjust="spacing" textLength="91" x="928" y="111.7285">:GreenSpaces</text><rect fill="#E3E3E3" height="51.2422" rx="2.5" ry="2.5" style="stroke:#181818;stroke-width:0.5;" width="105" x="921" y="577.6563"/><text fill="#000000" font-family="sans-serif" font-size="14" lengthAdjust="spacing" textLength="84" x="931.5" y="599.7637">greenSpaces</text><text fill="#000000" font-family="sans-serif" font-size="14" lengthAdjust="spacing" textLength="91" x="928" y="618.3848">:GreenSpaces</text><rect fill="#FFFFFF" height="427.4141" style="stroke:#181818;stroke-width:1.0;" width="10" x="101" y="133.2422"/><rect fill="#FFFFFF" height="404.123" style="stroke:#181818;stroke-width:1.0;" width="10" x="371" y="156.5332"/><rect fill="#FFFFFF" height="341.541" style="stroke:#181818;stroke-width:1.0;" width="10" x="606" y="187.8242"/><rect fill="#FFFFFF" height="90.543" style="stroke:#181818;stroke-width:1.0;" width="10" x="611" y="227.1152"/><rect fill="#FFFFFF" height="142.125" style="stroke:#181818;stroke-width:1.0;" width="10" x="787.5" y="355.9492"/><rect fill="#FFFFFF" height="79.543" style="stroke:#181818;stroke-width:1.0;" width="10" x="968.5" y="387.2402"/><polygon fill="#181818" points="359,152.5332,369,156.5332,359,160.5332,363,156.5332" style="stroke:#181818;stroke-width:1.0;"/><line style="stroke:#181818;stroke-width:1.0;" x1="111" x2="365" y1="156.5332" y2="156.5332"/><text fill="#000000" font-family="sans-serif" font-size="13" font-weight="bold" lengthAdjust="spacing" textLength="7" x="118" y="151.2705">1</text><text fill="#000000" font-family="sans-serif" font-size="13" lengthAdjust="spacing" textLength="230" x="129" y="151.2705">asks to list all associated green spaces</text><polygon fill="#181818" points="594,183.8242,604,187.8242,594,191.8242,598,187.8242" style="stroke:#181818;stroke-width:1.0;"/><line style="stroke:#181818;stroke-width:1.0;" x1="381" x2="600" y1="187.8242" y2="187.8242"/><text fill="#000000" font-family="sans-serif" font-size="13" font-weight="bold" lengthAdjust="spacing" textLength="7" x="388" y="182.5615">2</text><text fill="#000000" font-family="sans-serif" font-size="13" lengthAdjust="spacing" textLength="195" x="399" y="182.5615">getGreenSpaceManagerGSpace()</text><line style="stroke:#181818;stroke-width:1.0;" x1="616" x2="663" y1="214.1152" y2="214.1152"/><line style="stroke:#181818;stroke-width:1.0;" x1="663" x2="663" y1="214.1152" y2="227.1152"/><line style="stroke:#181818;stroke-width:1.0;" x1="622" x2="663" y1="227.1152" y2="227.1152"/><polygon fill="#181818" points="632,223.1152,622,227.1152,632,231.1152,628,227.1152" style="stroke:#181818;stroke-width:1.0;"/><text fill="#000000" font-family="sans-serif" font-size="13" font-weight="bold" lengthAdjust="spacing" textLength="7" x="628" y="208.8525">3</text><text fill="#000000" font-family="sans-serif" font-size="13" lengthAdjust="spacing" textLength="133" x="639" y="208.8525">getGSMFromSession()</text><rect fill="none" height="43.252" style="stroke:#000000;stroke-width:1.5;" width="195" x="513.5" y="240.1152"/><path d="M513.5,240.1152 L575.5,240.1152 L575.5,249.1152 L565.5,259.1152 L513.5,259.1152 L513.5,240.1152 " fill="#EEEEEE" style="stroke:#000000;stroke-width:2.0;"/><text fill="#000000" font-family="sans-serif" font-size="13" font-weight="bold" lengthAdjust="spacing" textLength="17" x="526.5" y="256.1436">ref</text><text fill="#000000" font-family="sans-serif" font-size="12" lengthAdjust="spacing" textLength="70" x="576" y="276.0645">Get Manager</text><line style="stroke:#181818;stroke-width:1.0;stroke-dasharray:2.0,2.0;" x1="621" x2="663" y1="316.6582" y2="316.6582"/><line style="stroke:#181818;stroke-width:1.0;stroke-dasharray:2.0,2.0;" x1="663" x2="663" y1="316.6582" y2="329.6582"/><line style="stroke:#181818;stroke-width:1.0;stroke-dasharray:2.0,2.0;" x1="616" x2="663" y1="329.6582" y2="329.6582"/><polygon fill="#181818" points="626,325.6582,616,329.6582,626,333.6582,622,329.6582" style="stroke:#181818;stroke-width:1.0;"/><text fill="#000000" font-family="sans-serif" font-size="13" font-weight="bold" lengthAdjust="spacing" textLength="7" x="628" y="311.3955">4</text><text fill="#000000" font-family="sans-serif" font-size="13" lengthAdjust="spacing" textLength="50" x="639" y="311.3955">manager</text><polygon fill="#181818" points="775.5,351.9492,785.5,355.9492,775.5,359.9492,779.5,355.9492" style="stroke:#181818;stroke-width:1.0;"/><line style="stroke:#181818;stroke-width:1.0;" x1="616" x2="781.5" y1="355.9492" y2="355.9492"/><text fill="#000000" font-family="sans-serif" font-size="13" font-weight="bold" lengthAdjust="spacing" textLength="7" x="623" y="350.6865">5</text><text fill="#000000" font-family="sans-serif" font-size="13" lengthAdjust="spacing" textLength="105" x="634" y="350.6865">getGreenSpaces()</text><polygon fill="#181818" points="956.5,383.2402,966.5,387.2402,956.5,391.2402,960.5,387.2402" style="stroke:#181818;stroke-width:1.0;"/><line style="stroke:#181818;stroke-width:1.0;" x1="797.5" x2="962.5" y1="387.2402" y2="387.2402"/><text fill="#000000" font-family="sans-serif" font-size="13" font-weight="bold" lengthAdjust="spacing" textLength="7" x="804.5" y="381.9775">6</text><text fill="#000000" font-family="sans-serif" font-size="13" lengthAdjust="spacing" textLength="141" x="815.5" y="381.9775">getSortedGreenspaces()</text><rect fill="none" height="43.252" style="stroke:#000000;stroke-width:1.5;" width="111" x="918" y="395.2402"/><path d="M918,395.2402 L980,395.2402 L980,404.2402 L970,414.2402 L918,414.2402 L918,395.2402 " fill="#EEEEEE" style="stroke:#000000;stroke-width:2.0;"/><text fill="#000000" font-family="sans-serif" font-size="13" font-weight="bold" lengthAdjust="spacing" textLength="17" x="931" y="411.2686">ref</text><text fill="#000000" font-family="sans-serif" font-size="12" lengthAdjust="spacing" textLength="81" x="933" y="431.1895">Get Sorted List</text><polygon fill="#181818" points="808.5,462.7832,798.5,466.7832,808.5,470.7832,804.5,466.7832" style="stroke:#181818;stroke-width:1.0;"/><line style="stroke:#181818;stroke-width:1.0;stroke-dasharray:2.0,2.0;" x1="802.5" x2="972.5" y1="466.7832" y2="466.7832"/><text fill="#000000" font-family="sans-serif" font-size="13" font-weight="bold" lengthAdjust="spacing" textLength="7" x="814.5" y="461.5205">7</text><text fill="#000000" font-family="sans-serif" font-size="13" lengthAdjust="spacing" textLength="128" x="825.5" y="461.5205">greenSpaceListSorted</text><polygon fill="#181818" points="627,494.0742,617,498.0742,627,502.0742,623,498.0742" style="stroke:#181818;stroke-width:1.0;"/><line style="stroke:#181818;stroke-width:1.0;stroke-dasharray:2.0,2.0;" x1="621" x2="791.5" y1="498.0742" y2="498.0742"/><text fill="#000000" font-family="sans-serif" font-size="13" font-weight="bold" lengthAdjust="spacing" textLength="7" x="633" y="492.8115">8</text><text fill="#000000" font-family="sans-serif" font-size="13" lengthAdjust="spacing" textLength="128" x="644" y="492.8115">greenSpaceListSorted</text><polygon fill="#181818" points="392,525.3652,382,529.3652,392,533.3652,388,529.3652" style="stroke:#181818;stroke-width:1.0;"/><line style="stroke:#181818;stroke-width:1.0;stroke-dasharray:2.0,2.0;" x1="386" x2="610" y1="529.3652" y2="529.3652"/><text fill="#000000" font-family="sans-serif" font-size="13" font-weight="bold" lengthAdjust="spacing" textLength="7" x="398" y="524.1025">9</text><text fill="#000000" font-family="sans-serif" font-size="13" lengthAdjust="spacing" textLength="128" x="409" y="524.1025">greenSpaceListSorted</text><polygon fill="#181818" points="117,556.6563,107,560.6563,117,564.6563,113,560.6563" style="stroke:#181818;stroke-width:1.0;"/><line style="stroke:#181818;stroke-width:1.0;stroke-dasharray:2.0,2.0;" x1="111" x2="375" y1="560.6563" y2="560.6563"/><text fill="#000000" font-family="sans-serif" font-size="13" font-weight="bold" lengthAdjust="spacing" textLength="14" x="123" y="555.3936">10</text><text fill="#000000" font-family="sans-serif" font-size="13" lengthAdjust="spacing" textLength="154" x="141" y="555.3936">shows list of green spaces</text><!--SRC=[ZLEnRkCm3Dtr5KIM9aEMBWKotDBYWW092bINxHRLPXmXjfYAIdltzqT9gIExrxHURCllFRv7qdomxcYywQ0ZHzNUKuSG_0aLzr-EfZgO1dNuso9uh89nJLi2U6zgUhEkWPrf6PKADWXqkmADBoTq5SA3DKs4JlN33EQmrRTtSbjR3h3qY0wqL45Mofm2kLFtZ5wfcxsj4NP4uPd-A5C5yZ0fuR0nJfnvc2xrPZO1mo0FIbm5MzcZSG4cYrWaaJ9dkqguxUewx9vSyDIsw1Fy_jVJUaZeSkdVRd5XdUsy6taSCfgB-e35P_nQnOpsrGHCCHISBtc1-O_OpuKW3mo1e8sjCsqh1qoL5KuDgG1mxcGazdAIjbSJ6H6BWKIkmV31_ZAzJ6T3YTI1NYJHXp9wyrEsHoEp9NUTxN47z2fpIyTGN4iCxqFjpz7LaJ4kVgdU5OGQlt0Svp8EpcExQNXb_nypzPnLavT-9pv_mlzVsdWw3fkbqf_mUU1OU5vuxur7MbOOXnyuo06ASNrBe6n1t_AqXD_X3xiVbou743hlwOtp1jFkuzOM8d5lXvx-0G00]--></g></svg>