<?xml version="1.0" encoding="us-ascii" standalone="no"?><svg xmlns="http://www.w3.org/2000/svg" xmlns:xlink="http://www.w3.org/1999/xlink" contentStyleType="text/css" height="882px" preserveAspectRatio="none" style="width:1586px;height:882px;background:#FFFFFF;" version="1.1" viewBox="0 0 1586 882" width="1586px" zoomAndPan="magnify"><defs/><g><text fill="#000000" font-family="sans-serif" font-size="14" font-weight="bold" lengthAdjust="spacing" textLength="372" x="604.75" y="30.1074">UI Sequence Diagram (SD) - US27 - List Green Spaces</text><rect fill="#FFFFFF" height="648.4512" style="stroke:#181818;stroke-width:1.0;" width="10" x="101" y="133.2422"/><rect fill="#FFFFFF" height="625.1602" style="stroke:#181818;stroke-width:1.0;" width="10" x="371" y="156.5332"/><rect fill="#FFFFFF" height="562.5781" style="stroke:#181818;stroke-width:1.0;" width="10" x="644" y="187.8242"/><rect fill="#FFFFFF" height="90.543" style="stroke:#181818;stroke-width:1.0;" width="10" x="649" y="227.1152"/><rect fill="#FFFFFF" height="252.3281" style="stroke:#181818;stroke-width:1.0;" width="10" x="825.5" y="355.9492"/><rect fill="#FFFFFF" height="189.7461" style="stroke:#181818;stroke-width:1.0;" width="10" x="1006.5" y="387.2402"/><rect fill="#FFFFFF" height="127.1641" style="stroke:#181818;stroke-width:1.0;" width="10" x="1221.5" y="418.5313"/><rect fill="#FFFFFF" height="31.291" style="stroke:#181818;stroke-width:1.0;" width="10" x="1367.5" y="476.1133"/><rect fill="#FFFFFF" height="79.543" style="stroke:#181818;stroke-width:1.0;" width="10" x="1499.5" y="639.5684"/><rect fill="none" height="81.873" style="stroke:#000000;stroke-width:1.5;" width="286" x="1181" y="433.5313"/><line style="stroke:#181818;stroke-width:0.5;stroke-dasharray:5.0,5.0;" x1="106" x2="106" y1="123.2422" y2="799.6934"/><line style="stroke:#181818;stroke-width:0.5;stroke-dasharray:5.0,5.0;" x1="375.5" x2="375.5" y1="123.2422" y2="799.6934"/><line style="stroke:#181818;stroke-width:0.5;stroke-dasharray:5.0,5.0;" x1="648.5" x2="648.5" y1="123.2422" y2="799.6934"/><line style="stroke:#181818;stroke-width:0.5;stroke-dasharray:5.0,5.0;" x1="830.5" x2="830.5" y1="123.2422" y2="799.6934"/><line style="stroke:#181818;stroke-width:0.5;stroke-dasharray:5.0,5.0;" x1="1011" x2="1011" y1="123.2422" y2="799.6934"/><line style="stroke:#181818;stroke-width:0.5;stroke-dasharray:5.0,5.0;" x1="1226" x2="1226" y1="123.2422" y2="799.6934"/><line style="stroke:#181818;stroke-width:0.5;stroke-dasharray:5.0,5.0;" x1="1372.5" x2="1372.5" y1="123.2422" y2="799.6934"/><line style="stroke:#181818;stroke-width:0.5;stroke-dasharray:5.0,5.0;" x1="1504.5" x2="1504.5" y1="123.2422" y2="799.6934"/><text fill="#000000" font-family="sans-serif" font-size="14" lengthAdjust="spacing" textLength="196" x="5" y="119.7285">Green Spaces Manager (GSM)</text><ellipse cx="106" cy="53.1211" fill="#E3E3E3" rx="8" ry="8" style="stroke:#181818;stroke-width:0.5;"/><path d="M106,61.1211 L106,88.1211 M93,69.1211 L119,69.1211 M106,88.1211 L93,103.1211 M106,88.1211 L119,103.1211 " fill="none" style="stroke:#181818;stroke-width:0.5;"/><text fill="#000000" font-family="sans-serif" font-size="14" lengthAdjust="spacing" textLength="196" x="5" y="813.8008">Green Spaces Manager (GSM)</text><ellipse cx="106" cy="825.8145" fill="#E3E3E3" rx="8" ry="8" style="stroke:#181818;stroke-width:0.5;"/><path d="M106,833.8145 L106,860.8145 M93,841.8145 L119,841.8145 M106,860.8145 L93,875.8145 M106,860.8145 L119,875.8145 " fill="none" style="stroke:#181818;stroke-width:0.5;"/><rect fill="#E3E3E3" height="32.6211" rx="2.5" ry="2.5" style="stroke:#181818;stroke-width:0.5;" width="139" x="306.5" y="89.6211"/><text fill="#000000" font-family="sans-serif" font-size="14" lengthAdjust="spacing" textLength="125" x="313.5" y="111.7285">:ListGreenSpacesUI</text><rect fill="#E3E3E3" height="32.6211" rx="2.5" ry="2.5" style="stroke:#181818;stroke-width:0.5;" width="139" x="306.5" y="798.6934"/><text fill="#000000" font-family="sans-serif" font-size="14" lengthAdjust="spacing" textLength="125" x="313.5" y="820.8008">:ListGreenSpacesUI</text><rect fill="#E3E3E3" height="32.6211" rx="2.5" ry="2.5" style="stroke:#181818;stroke-width:0.5;" width="189" x="554.5" y="89.6211"/><text fill="#000000" font-family="sans-serif" font-size="14" lengthAdjust="spacing" textLength="175" x="561.5" y="111.7285">:ListGreenSpacesController</text><rect fill="#E3E3E3" height="32.6211" rx="2.5" ry="2.5" style="stroke:#181818;stroke-width:0.5;" width="189" x="554.5" y="798.6934"/><text fill="#000000" font-family="sans-serif" font-size="14" lengthAdjust="spacing" textLength="175" x="561.5" y="820.8008">:ListGreenSpacesController</text><rect fill="#E3E3E3" height="51.2422" rx="2.5" ry="2.5" style="stroke:#181818;stroke-width:0.5;" width="154" x="753.5" y="71"/><text fill="#000000" font-family="sans-serif" font-size="14" lengthAdjust="spacing" textLength="56" x="802.5" y="93.1074">manager</text><text fill="#000000" font-family="sans-serif" font-size="14" lengthAdjust="spacing" textLength="140" x="760.5" y="111.7285">:GreenSpaceManager</text><rect fill="#E3E3E3" height="51.2422" rx="2.5" ry="2.5" style="stroke:#181818;stroke-width:0.5;" width="154" x="753.5" y="798.6934"/><text fill="#000000" font-family="sans-serif" font-size="14" lengthAdjust="spacing" textLength="56" x="802.5" y="820.8008">manager</text><text fill="#000000" font-family="sans-serif" font-size="14" lengthAdjust="spacing" textLength="140" x="760.5" y="839.4219">:GreenSpaceManager</text><rect fill="#E3E3E3" height="51.2422" rx="2.5" ry="2.5" style="stroke:#181818;stroke-width:0.5;" width="105" x="959" y="71"/><text fill="#000000" font-family="sans-serif" font-size="14" lengthAdjust="spacing" textLength="84" x="969.5" y="93.1074">greenSpaces</text><text fill="#000000" font-family="sans-serif" font-size="14" lengthAdjust="spacing" textLength="91" x="966" y="111.7285">:GreenSpaces</text><rect fill="#E3E3E3" height="51.2422" rx="2.5" ry="2.5" style="stroke:#181818;stroke-width:0.5;" width="105" x="959" y="798.6934"/><text fill="#000000" font-family="sans-serif" font-size="14" lengthAdjust="spacing" textLength="84" x="969.5" y="820.8008">greenSpaces</text><text fill="#000000" font-family="sans-serif" font-size="14" lengthAdjust="spacing" textLength="91" x="966" y="839.4219">:GreenSpaces</text><rect fill="#E3E3E3" height="51.2422" rx="2.5" ry="2.5" style="stroke:#181818;stroke-width:0.5;" width="71" x="1191" y="71"/><text fill="#000000" font-family="sans-serif" font-size="14" lengthAdjust="spacing" textLength="44" x="1204.5" y="93.1074">sortAlg</text><text fill="#000000" font-family="sans-serif" font-size="14" lengthAdjust="spacing" textLength="57" x="1198" y="111.7285">:Sortable</text><rect fill="#E3E3E3" height="51.2422" rx="2.5" ry="2.5" style="stroke:#181818;stroke-width:0.5;" width="71" x="1191" y="798.6934"/><text fill="#000000" font-family="sans-serif" font-size="14" lengthAdjust="spacing" textLength="44" x="1204.5" y="820.8008">sortAlg</text><text fill="#000000" font-family="sans-serif" font-size="14" lengthAdjust="spacing" textLength="57" x="1198" y="839.4219">:Sortable</text><rect fill="#E3E3E3" height="51.2422" rx="2.5" ry="2.5" style="stroke:#181818;stroke-width:0.5;" width="98" x="1323.5" y="71"/><text fill="#000000" font-family="sans-serif" font-size="14" lengthAdjust="spacing" textLength="77" x="1334" y="93.1074">greenSpace</text><text fill="#000000" font-family="sans-serif" font-size="14" lengthAdjust="spacing" textLength="84" x="1330.5" y="111.7285">:GreenSpace</text><rect fill="#E3E3E3" height="51.2422" rx="2.5" ry="2.5" style="stroke:#181818;stroke-width:0.5;" width="98" x="1323.5" y="798.6934"/><text fill="#000000" font-family="sans-serif" font-size="14" lengthAdjust="spacing" textLength="77" x="1334" y="820.8008">greenSpace</text><text fill="#000000" font-family="sans-serif" font-size="14" lengthAdjust="spacing" textLength="84" x="1330.5" y="839.4219">:GreenSpace</text><rect fill="#E3E3E3" height="51.2422" rx="2.5" ry="2.5" style="stroke:#181818;stroke-width:0.5;" width="146" x="1431.5" y="71"/><text fill="#000000" font-family="sans-serif" font-size="14" lengthAdjust="spacing" textLength="125" x="1442" y="93.1074">greenSpaceMapper</text><text fill="#000000" font-family="sans-serif" font-size="14" lengthAdjust="spacing" textLength="132" x="1438.5" y="111.7285">:GreenSpaceMapper</text><rect fill="#E3E3E3" height="51.2422" rx="2.5" ry="2.5" style="stroke:#181818;stroke-width:0.5;" width="146" x="1431.5" y="798.6934"/><text fill="#000000" font-family="sans-serif" font-size="14" lengthAdjust="spacing" textLength="125" x="1442" y="820.8008">greenSpaceMapper</text><text fill="#000000" font-family="sans-serif" font-size="14" lengthAdjust="spacing" textLength="132" x="1438.5" y="839.4219">:GreenSpaceMapper</text><rect fill="#FFFFFF" height="648.4512" style="stroke:#181818;stroke-width:1.0;" width="10" x="101" y="133.2422"/><rect fill="#FFFFFF" height="625.1602" style="stroke:#181818;stroke-width:1.0;" width="10" x="371" y="156.5332"/><rect fill="#FFFFFF" height="562.5781" style="stroke:#181818;stroke-width:1.0;" width="10" x="644" y="187.8242"/><rect fill="#FFFFFF" height="90.543" style="stroke:#181818;stroke-width:1.0;" width="10" x="649" y="227.1152"/><rect fill="#FFFFFF" height="252.3281" style="stroke:#181818;stroke-width:1.0;" width="10" x="825.5" y="355.9492"/><rect fill="#FFFFFF" height="189.7461" style="stroke:#181818;stroke-width:1.0;" width="10" x="1006.5" y="387.2402"/><rect fill="#FFFFFF" height="127.1641" style="stroke:#181818;stroke-width:1.0;" width="10" x="1221.5" y="418.5313"/><rect fill="#FFFFFF" height="31.291" style="stroke:#181818;stroke-width:1.0;" width="10" x="1367.5" y="476.1133"/><rect fill="#FFFFFF" height="79.543" style="stroke:#181818;stroke-width:1.0;" width="10" x="1499.5" y="639.5684"/><polygon fill="#181818" points="359,152.5332,369,156.5332,359,160.5332,363,156.5332" style="stroke:#181818;stroke-width:1.0;"/><line style="stroke:#181818;stroke-width:1.0;" x1="111" x2="365" y1="156.5332" y2="156.5332"/><text fill="#000000" font-family="sans-serif" font-size="13" font-weight="bold" lengthAdjust="spacing" textLength="7" x="118" y="151.2705">1</text><text fill="#000000" font-family="sans-serif" font-size="13" lengthAdjust="spacing" textLength="230" x="129" y="151.2705">asks to list all associated green spaces</text><polygon fill="#181818" points="632,183.8242,642,187.8242,632,191.8242,636,187.8242" style="stroke:#181818;stroke-width:1.0;"/><line style="stroke:#181818;stroke-width:1.0;" x1="381" x2="638" y1="187.8242" y2="187.8242"/><text fill="#000000" font-family="sans-serif" font-size="13" font-weight="bold" lengthAdjust="spacing" textLength="7" x="388" y="182.5615">2</text><text fill="#000000" font-family="sans-serif" font-size="13" lengthAdjust="spacing" textLength="233" x="399" y="182.5615">getGreenSpaceManagerGSpaceSorted()</text><line style="stroke:#181818;stroke-width:1.0;" x1="654" x2="701" y1="214.1152" y2="214.1152"/><line style="stroke:#181818;stroke-width:1.0;" x1="701" x2="701" y1="214.1152" y2="227.1152"/><line style="stroke:#181818;stroke-width:1.0;" x1="660" x2="701" y1="227.1152" y2="227.1152"/><polygon fill="#181818" points="670,223.1152,660,227.1152,670,231.1152,666,227.1152" style="stroke:#181818;stroke-width:1.0;"/><text fill="#000000" font-family="sans-serif" font-size="13" font-weight="bold" lengthAdjust="spacing" textLength="7" x="666" y="208.8525">3</text><text fill="#000000" font-family="sans-serif" font-size="13" lengthAdjust="spacing" textLength="133" x="677" y="208.8525">getGSMFromSession()</text><rect fill="none" height="43.252" style="stroke:#000000;stroke-width:1.5;" width="195" x="551.5" y="240.1152"/><path d="M551.5,240.1152 L613.5,240.1152 L613.5,249.1152 L603.5,259.1152 L551.5,259.1152 L551.5,240.1152 " fill="#EEEEEE" style="stroke:#000000;stroke-width:2.0;"/><text fill="#000000" font-family="sans-serif" font-size="13" font-weight="bold" lengthAdjust="spacing" textLength="17" x="564.5" y="256.1436">ref</text><text fill="#000000" font-family="sans-serif" font-size="12" lengthAdjust="spacing" textLength="87" x="605.5" y="276.0645">Design in US20</text><line style="stroke:#181818;stroke-width:1.0;stroke-dasharray:2.0,2.0;" x1="659" x2="701" y1="316.6582" y2="316.6582"/><line style="stroke:#181818;stroke-width:1.0;stroke-dasharray:2.0,2.0;" x1="701" x2="701" y1="316.6582" y2="329.6582"/><line style="stroke:#181818;stroke-width:1.0;stroke-dasharray:2.0,2.0;" x1="654" x2="701" y1="329.6582" y2="329.6582"/><polygon fill="#181818" points="664,325.6582,654,329.6582,664,333.6582,660,329.6582" style="stroke:#181818;stroke-width:1.0;"/><text fill="#000000" font-family="sans-serif" font-size="13" font-weight="bold" lengthAdjust="spacing" textLength="7" x="666" y="311.3955">4</text><text fill="#000000" font-family="sans-serif" font-size="13" lengthAdjust="spacing" textLength="50" x="677" y="311.3955">manager</text><polygon fill="#181818" points="813.5,351.9492,823.5,355.9492,813.5,359.9492,817.5,355.9492" style="stroke:#181818;stroke-width:1.0;"/><line style="stroke:#181818;stroke-width:1.0;" x1="654" x2="819.5" y1="355.9492" y2="355.9492"/><text fill="#000000" font-family="sans-serif" font-size="13" font-weight="bold" lengthAdjust="spacing" textLength="7" x="661" y="350.6865">5</text><text fill="#000000" font-family="sans-serif" font-size="13" lengthAdjust="spacing" textLength="105" x="672" y="350.6865">getGreenSpaces()</text><polygon fill="#181818" points="994.5,383.2402,1004.5,387.2402,994.5,391.2402,998.5,387.2402" style="stroke:#181818;stroke-width:1.0;"/><line style="stroke:#181818;stroke-width:1.0;" x1="835.5" x2="1000.5" y1="387.2402" y2="387.2402"/><text fill="#000000" font-family="sans-serif" font-size="13" font-weight="bold" lengthAdjust="spacing" textLength="7" x="842.5" y="381.9775">6</text><text fill="#000000" font-family="sans-serif" font-size="13" lengthAdjust="spacing" textLength="141" x="853.5" y="381.9775">getSortedGreenspaces()</text><polygon fill="#181818" points="1209.5,414.5313,1219.5,418.5313,1209.5,422.5313,1213.5,418.5313" style="stroke:#181818;stroke-width:1.0;"/><line style="stroke:#181818;stroke-width:1.0;" x1="1016.5" x2="1215.5" y1="418.5313" y2="418.5313"/><text fill="#000000" font-family="sans-serif" font-size="13" font-weight="bold" lengthAdjust="spacing" textLength="7" x="1023.5" y="413.2686">7</text><text fill="#000000" font-family="sans-serif" font-size="13" lengthAdjust="spacing" textLength="175" x="1034.5" y="413.2686">getSortedList(greenSpaceList)</text><path d="M1181,433.5313 L1254,433.5313 L1254,442.8223 L1244,452.8223 L1181,452.8223 L1181,433.5313 " fill="#EEEEEE" style="stroke:#000000;stroke-width:1.5;"/><rect fill="none" height="81.873" style="stroke:#000000;stroke-width:1.5;" width="286" x="1181" y="433.5313"/><text fill="#000000" font-family="sans-serif" font-size="13" font-weight="bold" lengthAdjust="spacing" textLength="28" x="1196" y="448.5596">loop</text><text fill="#000000" font-family="sans-serif" font-size="11" font-weight="bold" lengthAdjust="spacing" textLength="193" x="1269" y="447.4014">[for each object in greenSpaceList]</text><polygon fill="#181818" points="1355.5,472.1133,1365.5,476.1133,1355.5,480.1133,1359.5,476.1133" style="stroke:#181818;stroke-width:1.0;"/><line style="stroke:#181818;stroke-width:1.0;" x1="1231.5" x2="1361.5" y1="476.1133" y2="476.1133"/><text fill="#000000" font-family="sans-serif" font-size="13" font-weight="bold" lengthAdjust="spacing" textLength="7" x="1238.5" y="470.8506">8</text><text fill="#000000" font-family="sans-serif" font-size="13" lengthAdjust="spacing" textLength="106" x="1249.5" y="470.8506">isAreaLarger(area)</text><polygon fill="#181818" points="1242.5,503.4043,1232.5,507.4043,1242.5,511.4043,1238.5,507.4043" style="stroke:#181818;stroke-width:1.0;"/><line style="stroke:#181818;stroke-width:1.0;stroke-dasharray:2.0,2.0;" x1="1236.5" x2="1371.5" y1="507.4043" y2="507.4043"/><text fill="#000000" font-family="sans-serif" font-size="13" font-weight="bold" lengthAdjust="spacing" textLength="7" x="1248.5" y="502.1416">9</text><text fill="#000000" font-family="sans-serif" font-size="13" lengthAdjust="spacing" textLength="53" x="1259.5" y="502.1416">true/false</text><polygon fill="#181818" points="1027.5,541.6953,1017.5,545.6953,1027.5,549.6953,1023.5,545.6953" style="stroke:#181818;stroke-width:1.0;"/><line style="stroke:#181818;stroke-width:1.0;stroke-dasharray:2.0,2.0;" x1="1021.5" x2="1225.5" y1="545.6953" y2="545.6953"/><text fill="#000000" font-family="sans-serif" font-size="13" font-weight="bold" lengthAdjust="spacing" textLength="14" x="1033.5" y="540.4326">10</text><text fill="#000000" font-family="sans-serif" font-size="13" lengthAdjust="spacing" textLength="128" x="1051.5" y="540.4326">greenSpaceListSorted</text><polygon fill="#181818" points="846.5,572.9863,836.5,576.9863,846.5,580.9863,842.5,576.9863" style="stroke:#181818;stroke-width:1.0;"/><line style="stroke:#181818;stroke-width:1.0;stroke-dasharray:2.0,2.0;" x1="840.5" x2="1010.5" y1="576.9863" y2="576.9863"/><text fill="#000000" font-family="sans-serif" font-size="13" font-weight="bold" lengthAdjust="spacing" textLength="14" x="852.5" y="571.7236">11</text><text fill="#000000" font-family="sans-serif" font-size="13" lengthAdjust="spacing" textLength="128" x="870.5" y="571.7236">greenSpaceListSorted</text><polygon fill="#181818" points="665,604.2773,655,608.2773,665,612.2773,661,608.2773" style="stroke:#181818;stroke-width:1.0;"/><line style="stroke:#181818;stroke-width:1.0;stroke-dasharray:2.0,2.0;" x1="659" x2="829.5" y1="608.2773" y2="608.2773"/><text fill="#000000" font-family="sans-serif" font-size="13" font-weight="bold" lengthAdjust="spacing" textLength="14" x="671" y="603.0146">12</text><text fill="#000000" font-family="sans-serif" font-size="13" lengthAdjust="spacing" textLength="128" x="689" y="603.0146">greenSpaceListSorted</text><polygon fill="#181818" points="1487.5,635.5684,1497.5,639.5684,1487.5,643.5684,1491.5,639.5684" style="stroke:#181818;stroke-width:1.0;"/><line style="stroke:#181818;stroke-width:1.0;" x1="654" x2="1493.5" y1="639.5684" y2="639.5684"/><text fill="#000000" font-family="sans-serif" font-size="13" font-weight="bold" lengthAdjust="spacing" textLength="14" x="661" y="634.3057">13</text><text fill="#000000" font-family="sans-serif" font-size="13" lengthAdjust="spacing" textLength="245" x="679" y="634.3057">toDTOGreenSpace(greenSpaceListSorted)</text><rect fill="none" height="43.252" style="stroke:#000000;stroke-width:1.5;" width="152" x="1428.5" y="647.5684"/><path d="M1428.5,647.5684 L1490.5,647.5684 L1490.5,656.5684 L1480.5,666.5684 L1428.5,666.5684 L1428.5,647.5684 " fill="#EEEEEE" style="stroke:#000000;stroke-width:2.0;"/><text fill="#000000" font-family="sans-serif" font-size="13" font-weight="bold" lengthAdjust="spacing" textLength="17" x="1441.5" y="663.5967">ref</text><text fill="#000000" font-family="sans-serif" font-size="12" lengthAdjust="spacing" textLength="87" x="1461" y="683.5176">Design in US21</text><polygon fill="#181818" points="665,715.1113,655,719.1113,665,723.1113,661,719.1113" style="stroke:#181818;stroke-width:1.0;"/><line style="stroke:#181818;stroke-width:1.0;stroke-dasharray:2.0,2.0;" x1="659" x2="1503.5" y1="719.1113" y2="719.1113"/><text fill="#000000" font-family="sans-serif" font-size="13" font-weight="bold" lengthAdjust="spacing" textLength="14" x="671" y="713.8486">14</text><text fill="#000000" font-family="sans-serif" font-size="13" lengthAdjust="spacing" textLength="110" x="689" y="713.8486">greenSpaceListDto</text><polygon fill="#181818" points="392,746.4023,382,750.4023,392,754.4023,388,750.4023" style="stroke:#181818;stroke-width:1.0;"/><line style="stroke:#181818;stroke-width:1.0;stroke-dasharray:2.0,2.0;" x1="386" x2="648" y1="750.4023" y2="750.4023"/><text fill="#000000" font-family="sans-serif" font-size="13" font-weight="bold" lengthAdjust="spacing" textLength="14" x="398" y="745.1396">15</text><text fill="#000000" font-family="sans-serif" font-size="13" lengthAdjust="spacing" textLength="110" x="416" y="745.1396">greenSpaceListDto</text><polygon fill="#181818" points="117,777.6934,107,781.6934,117,785.6934,113,781.6934" style="stroke:#181818;stroke-width:1.0;"/><line style="stroke:#181818;stroke-width:1.0;stroke-dasharray:2.0,2.0;" x1="111" x2="375" y1="781.6934" y2="781.6934"/><text fill="#000000" font-family="sans-serif" font-size="13" font-weight="bold" lengthAdjust="spacing" textLength="14" x="123" y="776.4307">16</text><text fill="#000000" font-family="sans-serif" font-size="13" lengthAdjust="spacing" textLength="154" x="141" y="776.4307">shows list of green spaces</text><!--SRC=[ZLJ1Zjem4BtxAqPSDXpGRdkfnA4IMbI4108rowqNamp19TYfRNRRl-_O2OaToEvo8RRdlNb-Cnvp4hBYcf_XhAJAZbgT4Qo-83FjISMp4oymjVzA18sPvR8emm1pvBbw4xA00oyDCcQ5fT3T4bBySq6P8Sm5Brneaix7C85T-lKR_Qs4iR3GY19IoeA6CNwnIbxEUzICFHn5Zd1GokxLNyOpgpICmd1OSqdAD2IBT3qU0JT07unKMP69YaiBewbBua4rPhVqSRlb-s7FIbgjoXAr3tz- -RcA0USwzIyvxL2DdAkGJOmeElO8PPhuNWAZj9sL1OMczCNt9VguT3R46f4sd4EnQrvLD-BTrbNxbZd3nIktw3rbqFne0PFlhhXJ2ZqPi0fALqTUbhHXL2O8auFF1QOkgmEsT6HzoqOqHERS9Re2xOsN2xzm3c2UZ6CYNvIMofF4PEdw1pLqYiO89Tz7Qpo0UgLMyjiG_EPeH251IDUrJ-qHojo1-lax0Ks3-FCSFn3jkgNlWEahzYqL5c9JGvlhrYPvl1d0hqAuJvpEGh1x14dN9MxPuw3sQobAfIfwdXheTaTG-zyq6vnFCG6BtAHyNZDb5MQcaQ-u9fSIJf_ZDZAG7CC9EBcgTcFgiPuur-F0vn19jUeMJa5dMoIrDg5ViV3AthMWNf-0zrntHGkwz5C4OTc3Zjaw4zJyPTFrJ7AFyBQDjdSQtsyFDlwNmSRtGWQlDBVgpdssTvwDdoWVWkFduyP7xGLXpL6zcNeMgSFj_0b8t0IA1Vq7]--></g></svg>