<?xml version="1.0" encoding="us-ascii" standalone="no"?><svg xmlns="http://www.w3.org/2000/svg" xmlns:xlink="http://www.w3.org/1999/xlink" contentStyleType="text/css" height="1701px" preserveAspectRatio="none" style="width:3003px;height:1701px;background:#FFFFFF;" version="1.1" viewBox="0 0 3003 1701" width="3003px" zoomAndPan="magnify"><defs/><g><!--cluster UI--><g id="cluster_UI"><path d="M2637.5,6.0137 L2652.5,6.0137 A3.75,3.75 0 0 1 2655,8.5137 L2662,30.6348 L2874.5,30.6348 A2.5,2.5 0 0 1 2877,33.1348 L2877,125.5137 A2.5,2.5 0 0 1 2874.5,128.0137 L2637.5,128.0137 A2.5,2.5 0 0 1 2635,125.5137 L2635,8.5137 A2.5,2.5 0 0 1 2637.5,6.0137 " fill="none" style="stroke:#000000;stroke-width:1.5;"/><line style="stroke:#000000;stroke-width:1.5;" x1="2635" x2="2662" y1="30.6348" y2="30.6348"/><text fill="#000000" font-family="sans-serif" font-size="14" font-weight="bold" lengthAdjust="spacing" textLength="14" x="2639" y="23.1211">UI</text></g><!--cluster Controller--><g id="cluster_Controller"><path d="M1620.5,161.0137 L1692.5,161.0137 A3.75,3.75 0 0 1 1695,163.5137 L1702,185.6348 L2025.5,185.6348 A2.5,2.5 0 0 1 2028,188.1348 L2028,317.5137 A2.5,2.5 0 0 1 2025.5,320.0137 L1620.5,320.0137 A2.5,2.5 0 0 1 1618,317.5137 L1618,163.5137 A2.5,2.5 0 0 1 1620.5,161.0137 " fill="none" style="stroke:#000000;stroke-width:1.5;"/><line style="stroke:#000000;stroke-width:1.5;" x1="1618" x2="1702" y1="185.6348" y2="185.6348"/><text fill="#000000" font-family="sans-serif" font-size="14" font-weight="bold" lengthAdjust="spacing" textLength="71" x="1622" y="178.1211">Controller</text></g><!--cluster Domain--><g id="cluster_Domain"><path d="M8.5,433.0137 L61.5,433.0137 A3.75,3.75 0 0 1 64,435.5137 L71,457.6348 L2700.5,457.6348 A2.5,2.5 0 0 1 2703,460.1348 L2703,1692.0137 A2.5,2.5 0 0 1 2700.5,1694.5137 L8.5,1694.5137 A2.5,2.5 0 0 1 6,1692.0137 L6,435.5137 A2.5,2.5 0 0 1 8.5,433.0137 " fill="none" style="stroke:#000000;stroke-width:1.5;"/><line style="stroke:#000000;stroke-width:1.5;" x1="6" x2="71" y1="457.6348" y2="457.6348"/><text fill="#000000" font-family="sans-serif" font-size="14" font-weight="bold" lengthAdjust="spacing" textLength="52" x="10" y="450.1211">Domain</text></g><!--cluster Application--><g id="cluster_Application"><path d="M2416.5,506.0137 L2495.5,506.0137 A3.75,3.75 0 0 1 2498,508.5137 L2505,530.6348 L2676.5,530.6348 A2.5,2.5 0 0 1 2679,533.1348 L2679,908.0137 A2.5,2.5 0 0 1 2676.5,910.5137 L2416.5,910.5137 A2.5,2.5 0 0 1 2414,908.0137 L2414,508.5137 A2.5,2.5 0 0 1 2416.5,506.0137 " fill="none" style="stroke:#000000;stroke-width:1.5;"/><line style="stroke:#000000;stroke-width:1.5;" x1="2414" x2="2505" y1="530.6348" y2="530.6348"/><text fill="#000000" font-family="sans-serif" font-size="14" font-weight="bold" lengthAdjust="spacing" textLength="78" x="2418" y="523.1211">Application</text></g><!--cluster DTO--><g id="cluster_DTO"><path d="M32.5,1446.0137 L62.5,1446.0137 A3.75,3.75 0 0 1 65,1448.5137 L72,1470.6348 L846.5,1470.6348 A2.5,2.5 0 0 1 849,1473.1348 L849,1658.5137 A2.5,2.5 0 0 1 846.5,1661.0137 L32.5,1661.0137 A2.5,2.5 0 0 1 30,1658.5137 L30,1448.5137 A2.5,2.5 0 0 1 32.5,1446.0137 " fill="none" style="stroke:#000000;stroke-width:1.5;"/><line style="stroke:#000000;stroke-width:1.5;" x1="30" x2="72" y1="1470.6348" y2="1470.6348"/><text fill="#000000" font-family="sans-serif" font-size="14" font-weight="bold" lengthAdjust="spacing" textLength="29" x="34" y="1463.1211">DTO</text></g><!--cluster Model--><g id="cluster_Model"><path d="M875.5,742.0137 L920.5,742.0137 A3.75,3.75 0 0 1 923,744.5137 L930,766.6348 L1866.5,766.6348 A2.5,2.5 0 0 1 1869,769.1348 L1869,1668.0137 A2.5,2.5 0 0 1 1866.5,1670.5137 L875.5,1670.5137 A2.5,2.5 0 0 1 873,1668.0137 L873,744.5137 A2.5,2.5 0 0 1 875.5,742.0137 " fill="none" style="stroke:#000000;stroke-width:1.5;"/><line style="stroke:#000000;stroke-width:1.5;" x1="873" x2="930" y1="766.6348" y2="766.6348"/><text fill="#000000" font-family="sans-serif" font-size="14" font-weight="bold" lengthAdjust="spacing" textLength="44" x="877" y="759.1211">Model</text></g><!--cluster Repository--><g id="cluster_Repository"><path d="M1895.5,478.0137 L1972.5,478.0137 A3.75,3.75 0 0 1 1975,480.5137 L1982,502.6348 L2387.5,502.6348 A2.5,2.5 0 0 1 2390,505.1348 L2390,1146.5137 A2.5,2.5 0 0 1 2387.5,1149.0137 L1895.5,1149.0137 A2.5,2.5 0 0 1 1893,1146.5137 L1893,480.5137 A2.5,2.5 0 0 1 1895.5,478.0137 " fill="none" style="stroke:#000000;stroke-width:1.5;"/><line style="stroke:#000000;stroke-width:1.5;" x1="1893" x2="1982" y1="502.6348" y2="502.6348"/><text fill="#000000" font-family="sans-serif" font-size="14" font-weight="bold" lengthAdjust="spacing" textLength="76" x="1897" y="495.1211">Repository</text></g><!--class ConsultAssignedTasksListUI--><g id="elem_ConsultAssignedTasksListUI"><rect codeLine="9" fill="#F1F1F1" height="48" id="ConsultAssignedTasksListUI" rx="2.5" ry="2.5" style="stroke:#181818;stroke-width:0.5;" width="210" x="2651" y="64.0137"/><ellipse cx="2666" cy="80.0137" fill="#ADD1B2" rx="11" ry="11" style="stroke:#181818;stroke-width:1.0;"/><path d="M2668.7656,75.8887 Q2668.9219,75.6699 2669.1094,75.5605 Q2669.2969,75.4512 2669.5156,75.4512 Q2669.8906,75.4512 2670.125,75.7168 Q2670.3594,75.9668 2670.3594,76.5762 L2670.3594,78.0293 Q2670.3594,78.6387 2670.125,78.9043 Q2669.8906,79.1699 2669.5156,79.1699 Q2669.1719,79.1699 2668.9688,78.9668 Q2668.7656,78.7793 2668.6563,78.2637 Q2668.6094,77.9043 2668.4219,77.7168 Q2668.0938,77.3418 2667.4844,77.123 Q2666.875,76.9043 2666.25,76.9043 Q2665.4844,76.9043 2664.8438,77.2324 Q2664.2188,77.5605 2663.7188,78.3105 Q2663.2344,79.0605 2663.2344,80.0918 L2663.2344,81.1855 Q2663.2344,82.4199 2664.125,83.248 Q2665.0156,84.0605 2666.6094,84.0605 Q2667.5469,84.0605 2668.2031,83.8105 Q2668.5938,83.6543 2669.0156,83.2168 Q2669.2813,82.9512 2669.4219,82.873 Q2669.5781,82.7949 2669.7813,82.7949 Q2670.1094,82.7949 2670.3594,83.0605 Q2670.625,83.3105 2670.625,83.6543 Q2670.625,83.998 2670.2813,84.4043 Q2669.7813,84.9824 2668.9844,85.3105 Q2667.9063,85.7637 2666.6094,85.7637 Q2665.0938,85.7637 2663.8906,85.1387 Q2662.9063,84.6387 2662.2188,83.5762 Q2661.5313,82.498 2661.5313,81.2168 L2661.5313,80.0605 Q2661.5313,78.7324 2662.1406,77.5918 Q2662.7656,76.4355 2663.8594,75.8262 Q2664.9531,75.2012 2666.1875,75.2012 Q2666.9219,75.2012 2667.5625,75.373 Q2668.2188,75.5293 2668.7656,75.8887 Z " fill="#000000"/><text fill="#000000" font-family="sans-serif" font-size="14" lengthAdjust="spacing" textLength="178" x="2680" y="85.8105">ConsultAssignedTasksListUI</text><line style="stroke:#181818;stroke-width:0.5;" x1="2652" x2="2860" y1="96.0137" y2="96.0137"/><line style="stroke:#181818;stroke-width:0.5;" x1="2652" x2="2860" y1="104.0137" y2="104.0137"/></g><!--class ConsultAssignedTasksController--><g id="elem_ConsultAssignedTasksController"><rect codeLine="16" fill="#F1F1F1" height="85.2422" id="ConsultAssignedTasksController" rx="2.5" ry="2.5" style="stroke:#181818;stroke-width:0.5;" width="377" x="1634.5" y="219.0137"/><ellipse cx="1715.75" cy="235.0137" fill="#ADD1B2" rx="11" ry="11" style="stroke:#181818;stroke-width:1.0;"/><path d="M1718.5156,230.8887 Q1718.6719,230.6699 1718.8594,230.5605 Q1719.0469,230.4512 1719.2656,230.4512 Q1719.6406,230.4512 1719.875,230.7168 Q1720.1094,230.9668 1720.1094,231.5762 L1720.1094,233.0293 Q1720.1094,233.6387 1719.875,233.9043 Q1719.6406,234.1699 1719.2656,234.1699 Q1718.9219,234.1699 1718.7188,233.9668 Q1718.5156,233.7793 1718.4063,233.2637 Q1718.3594,232.9043 1718.1719,232.7168 Q1717.8438,232.3418 1717.2344,232.123 Q1716.625,231.9043 1716,231.9043 Q1715.2344,231.9043 1714.5938,232.2324 Q1713.9688,232.5605 1713.4688,233.3105 Q1712.9844,234.0605 1712.9844,235.0918 L1712.9844,236.1855 Q1712.9844,237.4199 1713.875,238.248 Q1714.7656,239.0605 1716.3594,239.0605 Q1717.2969,239.0605 1717.9531,238.8105 Q1718.3438,238.6543 1718.7656,238.2168 Q1719.0313,237.9512 1719.1719,237.873 Q1719.3281,237.7949 1719.5313,237.7949 Q1719.8594,237.7949 1720.1094,238.0605 Q1720.375,238.3105 1720.375,238.6543 Q1720.375,238.998 1720.0313,239.4043 Q1719.5313,239.9824 1718.7344,240.3105 Q1717.6563,240.7637 1716.3594,240.7637 Q1714.8438,240.7637 1713.6406,240.1387 Q1712.6563,239.6387 1711.9688,238.5762 Q1711.2813,237.498 1711.2813,236.2168 L1711.2813,235.0605 Q1711.2813,233.7324 1711.8906,232.5918 Q1712.5156,231.4355 1713.6094,230.8262 Q1714.7031,230.2012 1715.9375,230.2012 Q1716.6719,230.2012 1717.3125,230.373 Q1717.9688,230.5293 1718.5156,230.8887 Z " fill="#000000"/><text fill="#000000" font-family="sans-serif" font-size="14" lengthAdjust="spacing" textLength="206" x="1736.25" y="240.8105">ConsultAssignedTasksController</text><line style="stroke:#181818;stroke-width:0.5;" x1="1635.5" x2="2010.5" y1="251.0137" y2="251.0137"/><line style="stroke:#181818;stroke-width:0.5;" x1="1635.5" x2="2010.5" y1="259.0137" y2="259.0137"/><ellipse cx="1645.5" cy="273.8242" fill="#84BE84" rx="3" ry="3" style="stroke:#038048;stroke-width:1.0;"/><text fill="#000000" font-family="sans-serif" font-size="14" lengthAdjust="spacing" textLength="351" x="1654.5" y="278.1211">getTasksBetweenTwoDates(startDate, endDate, status)</text><rect fill="#F24D5C" height="6" style="stroke:#C82930;stroke-width:1.0;" width="6" x="1642.5" y="289.4453"/><text fill="#000000" font-family="sans-serif" font-size="14" lengthAdjust="spacing" textLength="191" x="1654.5" y="296.7422">getCollaboratorFromSession()</text></g><!--class ApplicationSession--><g id="elem_ApplicationSession"><rect codeLine="28" fill="#F1F1F1" height="85.2422" id="ApplicationSession" rx="2.5" ry="2.5" style="stroke:#181818;stroke-width:0.5;" width="154" x="2430" y="564.0137"/><ellipse cx="2446.35" cy="580.0137" fill="#ADD1B2" rx="11" ry="11" style="stroke:#181818;stroke-width:1.0;"/><path d="M2449.1156,575.8887 Q2449.2719,575.6699 2449.4594,575.5605 Q2449.6469,575.4512 2449.8656,575.4512 Q2450.2406,575.4512 2450.475,575.7168 Q2450.7094,575.9668 2450.7094,576.5762 L2450.7094,578.0293 Q2450.7094,578.6387 2450.475,578.9043 Q2450.2406,579.1699 2449.8656,579.1699 Q2449.5219,579.1699 2449.3188,578.9668 Q2449.1156,578.7793 2449.0063,578.2637 Q2448.9594,577.9043 2448.7719,577.7168 Q2448.4438,577.3418 2447.8344,577.123 Q2447.225,576.9043 2446.6,576.9043 Q2445.8344,576.9043 2445.1938,577.2324 Q2444.5688,577.5605 2444.0688,578.3105 Q2443.5844,579.0605 2443.5844,580.0918 L2443.5844,581.1855 Q2443.5844,582.4199 2444.475,583.248 Q2445.3656,584.0605 2446.9594,584.0605 Q2447.8969,584.0605 2448.5531,583.8105 Q2448.9438,583.6543 2449.3656,583.2168 Q2449.6313,582.9512 2449.7719,582.873 Q2449.9281,582.7949 2450.1313,582.7949 Q2450.4594,582.7949 2450.7094,583.0605 Q2450.975,583.3105 2450.975,583.6543 Q2450.975,583.998 2450.6313,584.4043 Q2450.1313,584.9824 2449.3344,585.3105 Q2448.2563,585.7637 2446.9594,585.7637 Q2445.4438,585.7637 2444.2406,585.1387 Q2443.2563,584.6387 2442.5688,583.5762 Q2441.8813,582.498 2441.8813,581.2168 L2441.8813,580.0605 Q2441.8813,578.7324 2442.4906,577.5918 Q2443.1156,576.4355 2444.2094,575.8262 Q2445.3031,575.2012 2446.5375,575.2012 Q2447.2719,575.2012 2447.9125,575.373 Q2448.5688,575.5293 2449.1156,575.8887 Z " fill="#000000"/><text fill="#000000" font-family="sans-serif" font-size="14" lengthAdjust="spacing" textLength="119" x="2460.65" y="585.8105">ApplicationSession</text><line style="stroke:#181818;stroke-width:0.5;" x1="2431" x2="2583" y1="596.0137" y2="596.0137"/><line style="stroke:#181818;stroke-width:0.5;" x1="2431" x2="2583" y1="604.0137" y2="604.0137"/><ellipse cx="2441" cy="618.8242" fill="#84BE84" rx="3" ry="3" style="stroke:#038048;stroke-width:1.0;"/><text fill="#000000" font-family="sans-serif" font-size="14" lengthAdjust="spacing" textLength="120" x="2450" y="623.1211">static getInstance()</text><ellipse cx="2441" cy="637.4453" fill="#84BE84" rx="3" ry="3" style="stroke:#038048;stroke-width:1.0;"/><text fill="#000000" font-family="sans-serif" font-size="14" lengthAdjust="spacing" textLength="128" x="2450" y="641.7422">getCurrentSession()</text></g><!--class UserSession--><g id="elem_UserSession"><rect codeLine="34" fill="#F1F1F1" height="66.6211" id="UserSession" rx="2.5" ry="2.5" style="stroke:#181818;stroke-width:0.5;" width="119" x="2438.5" y="827.5137"/><ellipse cx="2457.1" cy="843.5137" fill="#ADD1B2" rx="11" ry="11" style="stroke:#181818;stroke-width:1.0;"/><path d="M2459.8656,839.3887 Q2460.0219,839.1699 2460.2094,839.0605 Q2460.3969,838.9512 2460.6156,838.9512 Q2460.9906,838.9512 2461.225,839.2168 Q2461.4594,839.4668 2461.4594,840.0762 L2461.4594,841.5293 Q2461.4594,842.1387 2461.225,842.4043 Q2460.9906,842.6699 2460.6156,842.6699 Q2460.2719,842.6699 2460.0688,842.4668 Q2459.8656,842.2793 2459.7563,841.7637 Q2459.7094,841.4043 2459.5219,841.2168 Q2459.1938,840.8418 2458.5844,840.623 Q2457.975,840.4043 2457.35,840.4043 Q2456.5844,840.4043 2455.9438,840.7324 Q2455.3188,841.0605 2454.8188,841.8105 Q2454.3344,842.5605 2454.3344,843.5918 L2454.3344,844.6855 Q2454.3344,845.9199 2455.225,846.748 Q2456.1156,847.5605 2457.7094,847.5605 Q2458.6469,847.5605 2459.3031,847.3105 Q2459.6938,847.1543 2460.1156,846.7168 Q2460.3813,846.4512 2460.5219,846.373 Q2460.6781,846.2949 2460.8813,846.2949 Q2461.2094,846.2949 2461.4594,846.5605 Q2461.725,846.8105 2461.725,847.1543 Q2461.725,847.498 2461.3813,847.9043 Q2460.8813,848.4824 2460.0844,848.8105 Q2459.0063,849.2637 2457.7094,849.2637 Q2456.1938,849.2637 2454.9906,848.6387 Q2454.0063,848.1387 2453.3188,847.0762 Q2452.6313,845.998 2452.6313,844.7168 L2452.6313,843.5605 Q2452.6313,842.2324 2453.2406,841.0918 Q2453.8656,839.9355 2454.9594,839.3262 Q2456.0531,838.7012 2457.2875,838.7012 Q2458.0219,838.7012 2458.6625,838.873 Q2459.3188,839.0293 2459.8656,839.3887 Z " fill="#000000"/><text fill="#000000" font-family="sans-serif" font-size="14" lengthAdjust="spacing" textLength="79" x="2471.9" y="849.3105">UserSession</text><line style="stroke:#181818;stroke-width:0.5;" x1="2439.5" x2="2556.5" y1="859.5137" y2="859.5137"/><line style="stroke:#181818;stroke-width:0.5;" x1="2439.5" x2="2556.5" y1="867.5137" y2="867.5137"/><ellipse cx="2449.5" cy="882.3242" fill="#84BE84" rx="3" ry="3" style="stroke:#038048;stroke-width:1.0;"/><text fill="#000000" font-family="sans-serif" font-size="14" lengthAdjust="spacing" textLength="93" x="2458.5" y="886.6211">getUserEmail()</text></g><!--class TaskAgendaMapper--><g id="elem_TaskAgendaMapper"><rect codeLine="42" fill="#F1F1F1" height="85.2422" id="TaskAgendaMapper" rx="2.5" ry="2.5" style="stroke:#181818;stroke-width:0.5;" width="357" x="46.5" y="1532.0137"/><ellipse cx="156.75" cy="1548.0137" fill="#ADD1B2" rx="11" ry="11" style="stroke:#181818;stroke-width:1.0;"/><path d="M159.5156,1543.8887 Q159.6719,1543.6699 159.8594,1543.5605 Q160.0469,1543.4512 160.2656,1543.4512 Q160.6406,1543.4512 160.875,1543.7168 Q161.1094,1543.9668 161.1094,1544.5762 L161.1094,1546.0293 Q161.1094,1546.6387 160.875,1546.9043 Q160.6406,1547.1699 160.2656,1547.1699 Q159.9219,1547.1699 159.7188,1546.9668 Q159.5156,1546.7793 159.4063,1546.2637 Q159.3594,1545.9043 159.1719,1545.7168 Q158.8438,1545.3418 158.2344,1545.123 Q157.625,1544.9043 157,1544.9043 Q156.2344,1544.9043 155.5938,1545.2324 Q154.9688,1545.5605 154.4688,1546.3105 Q153.9844,1547.0605 153.9844,1548.0918 L153.9844,1549.1855 Q153.9844,1550.4199 154.875,1551.248 Q155.7656,1552.0605 157.3594,1552.0605 Q158.2969,1552.0605 158.9531,1551.8105 Q159.3438,1551.6543 159.7656,1551.2168 Q160.0313,1550.9512 160.1719,1550.873 Q160.3281,1550.7949 160.5313,1550.7949 Q160.8594,1550.7949 161.1094,1551.0605 Q161.375,1551.3105 161.375,1551.6543 Q161.375,1551.998 161.0313,1552.4043 Q160.5313,1552.9824 159.7344,1553.3105 Q158.6563,1553.7637 157.3594,1553.7637 Q155.8438,1553.7637 154.6406,1553.1387 Q153.6563,1552.6387 152.9688,1551.5762 Q152.2813,1550.498 152.2813,1549.2168 L152.2813,1548.0605 Q152.2813,1546.7324 152.8906,1545.5918 Q153.5156,1544.4355 154.6094,1543.8262 Q155.7031,1543.2012 156.9375,1543.2012 Q157.6719,1543.2012 158.3125,1543.373 Q158.9688,1543.5293 159.5156,1543.8887 Z " fill="#000000"/><text fill="#000000" font-family="sans-serif" font-size="14" lengthAdjust="spacing" textLength="128" x="177.25" y="1553.8105">TaskAgendaMapper</text><line style="stroke:#181818;stroke-width:0.5;" x1="47.5" x2="402.5" y1="1564.0137" y2="1564.0137"/><line style="stroke:#181818;stroke-width:0.5;" x1="47.5" x2="402.5" y1="1572.0137" y2="1572.0137"/><ellipse cx="57.5" cy="1586.8242" fill="#84BE84" rx="3" ry="3" style="stroke:#038048;stroke-width:1.0;"/><text fill="#000000" font-family="sans-serif" font-size="14" lengthAdjust="spacing" textLength="331" x="66.5" y="1591.1211">List&lt;TaskAgendaDto&gt; toDTO(List&lt;TaskAgenda&gt;list)</text><ellipse cx="57.5" cy="1605.4453" fill="#84BE84" rx="3" ry="3" style="stroke:#038048;stroke-width:1.0;"/><text fill="#000000" font-family="sans-serif" font-size="14" lengthAdjust="spacing" textLength="261" x="66.5" y="1609.7422">TaskAgendaDto toDTO(TaskAgenda obj)</text></g><!--class TaskAgendaDto--><g id="elem_TaskAgendaDto"><rect codeLine="47" fill="#F1F1F1" height="141.1055" id="TaskAgendaDto" rx="2.5" ry="2.5" style="stroke:#181818;stroke-width:0.5;" width="394" x="439" y="1504.0137"/><ellipse cx="580.75" cy="1520.0137" fill="#ADD1B2" rx="11" ry="11" style="stroke:#181818;stroke-width:1.0;"/><path d="M583.5156,1515.8887 Q583.6719,1515.6699 583.8594,1515.5605 Q584.0469,1515.4512 584.2656,1515.4512 Q584.6406,1515.4512 584.875,1515.7168 Q585.1094,1515.9668 585.1094,1516.5762 L585.1094,1518.0293 Q585.1094,1518.6387 584.875,1518.9043 Q584.6406,1519.1699 584.2656,1519.1699 Q583.9219,1519.1699 583.7188,1518.9668 Q583.5156,1518.7793 583.4063,1518.2637 Q583.3594,1517.9043 583.1719,1517.7168 Q582.8438,1517.3418 582.2344,1517.123 Q581.625,1516.9043 581,1516.9043 Q580.2344,1516.9043 579.5938,1517.2324 Q578.9688,1517.5605 578.4688,1518.3105 Q577.9844,1519.0605 577.9844,1520.0918 L577.9844,1521.1855 Q577.9844,1522.4199 578.875,1523.248 Q579.7656,1524.0605 581.3594,1524.0605 Q582.2969,1524.0605 582.9531,1523.8105 Q583.3438,1523.6543 583.7656,1523.2168 Q584.0313,1522.9512 584.1719,1522.873 Q584.3281,1522.7949 584.5313,1522.7949 Q584.8594,1522.7949 585.1094,1523.0605 Q585.375,1523.3105 585.375,1523.6543 Q585.375,1523.998 585.0313,1524.4043 Q584.5313,1524.9824 583.7344,1525.3105 Q582.6563,1525.7637 581.3594,1525.7637 Q579.8438,1525.7637 578.6406,1525.1387 Q577.6563,1524.6387 576.9688,1523.5762 Q576.2813,1522.498 576.2813,1521.2168 L576.2813,1520.0605 Q576.2813,1518.7324 576.8906,1517.5918 Q577.5156,1516.4355 578.6094,1515.8262 Q579.7031,1515.2012 580.9375,1515.2012 Q581.6719,1515.2012 582.3125,1515.373 Q582.9688,1515.5293 583.5156,1515.8887 Z " fill="#000000"/><text fill="#000000" font-family="sans-serif" font-size="14" lengthAdjust="spacing" textLength="102" x="601.25" y="1525.8105">TaskAgendaDto</text><line style="stroke:#181818;stroke-width:0.5;" x1="440" x2="832" y1="1536.0137" y2="1536.0137"/><ellipse cx="450" cy="1550.8242" fill="none" rx="3" ry="3" style="stroke:#038048;stroke-width:1.0;"/><text fill="#000000" font-family="sans-serif" font-size="14" lengthAdjust="spacing" textLength="133" x="459" y="1555.1211">String taskReference</text><ellipse cx="450" cy="1569.4453" fill="none" rx="3" ry="3" style="stroke:#038048;stroke-width:1.0;"/><text fill="#000000" font-family="sans-serif" font-size="14" lengthAdjust="spacing" textLength="110" x="459" y="1573.7422">String description</text><ellipse cx="450" cy="1588.0664" fill="none" rx="3" ry="3" style="stroke:#038048;stroke-width:1.0;"/><text fill="#000000" font-family="sans-serif" font-size="14" lengthAdjust="spacing" textLength="154" x="459" y="1592.3633">String greenSpaceName</text><ellipse cx="450" cy="1606.6875" fill="none" rx="3" ry="3" style="stroke:#038048;stroke-width:1.0;"/><text fill="#000000" font-family="sans-serif" font-size="14" lengthAdjust="spacing" textLength="92" x="459" y="1610.9844">Date startDate</text><line style="stroke:#181818;stroke-width:0.5;" x1="440" x2="832" y1="1618.498" y2="1618.498"/><ellipse cx="450" cy="1633.3086" fill="#84BE84" rx="3" ry="3" style="stroke:#038048;stroke-width:1.0;"/><text fill="#000000" font-family="sans-serif" font-size="14" lengthAdjust="spacing" textLength="368" x="459" y="1637.6055">TaskAgendaDto(description, greenSpaceName, startDate)</text></g><!--class GreenSpace--><g id="elem_GreenSpace"><rect codeLine="60" fill="#F1F1F1" height="103.8633" id="GreenSpace" rx="2.5" ry="2.5" style="stroke:#181818;stroke-width:0.5;" width="112" x="946" y="1277.0137"/><ellipse cx="961" cy="1293.0137" fill="#B4A7E5" rx="11" ry="11" style="stroke:#181818;stroke-width:1.0;"/><path d="M961.9531,1289.6543 L961.9531,1296.3105 L963.6719,1296.3105 Q964.2813,1296.3105 964.5469,1296.5449 Q964.8125,1296.7793 964.8125,1297.1699 Q964.8125,1297.5449 964.5469,1297.7793 Q964.2813,1298.0137 963.6719,1298.0137 L958.5313,1298.0137 Q957.9219,1298.0137 957.6563,1297.7793 Q957.3906,1297.5449 957.3906,1297.1543 Q957.3906,1296.7793 957.6563,1296.5449 Q957.9219,1296.3105 958.5313,1296.3105 L960.25,1296.3105 L960.25,1289.6543 L958.5313,1289.6543 Q957.9219,1289.6543 957.6563,1289.4199 Q957.3906,1289.1855 957.3906,1288.7949 Q957.3906,1288.4199 957.6563,1288.1855 Q957.9219,1287.9512 958.5313,1287.9512 L963.6719,1287.9512 Q964.2813,1287.9512 964.5469,1288.1855 Q964.8125,1288.4199 964.8125,1288.7949 Q964.8125,1289.1855 964.5469,1289.4199 Q964.2813,1289.6543 963.6719,1289.6543 L961.9531,1289.6543 Z " fill="#000000"/><text fill="#000000" font-family="sans-serif" font-size="14" font-style="italic" lengthAdjust="spacing" textLength="80" x="975" y="1298.8105">GreenSpace</text><line style="stroke:#181818;stroke-width:0.5;" x1="947" x2="1057" y1="1309.0137" y2="1309.0137"/><line style="stroke:#181818;stroke-width:0.5;" x1="947" x2="1057" y1="1317.0137" y2="1317.0137"/><ellipse cx="957" cy="1331.8242" fill="#84BE84" rx="3" ry="3" style="stroke:#038048;stroke-width:1.0;"/><text fill="#000000" font-family="sans-serif" font-size="14" lengthAdjust="spacing" textLength="66" x="966" y="1336.1211">getName()</text><ellipse cx="957" cy="1350.4453" fill="#84BE84" rx="3" ry="3" style="stroke:#038048;stroke-width:1.0;"/><text fill="#000000" font-family="sans-serif" font-size="14" lengthAdjust="spacing" textLength="60" x="966" y="1354.7422">getArea()</text><ellipse cx="957" cy="1369.0664" fill="#84BE84" rx="3" ry="3" style="stroke:#038048;stroke-width:1.0;"/><text fill="#000000" font-family="sans-serif" font-size="14" lengthAdjust="spacing" textLength="82" x="966" y="1373.3633">getAddress()</text></g><!--class Team--><g id="elem_Team"><rect codeLine="66" fill="#F1F1F1" height="66.6211" id="Team" rx="2.5" ry="2.5" style="stroke:#181818;stroke-width:0.5;" width="264" x="1589" y="1295.5137"/><ellipse cx="1698.75" cy="1311.5137" fill="#ADD1B2" rx="11" ry="11" style="stroke:#181818;stroke-width:1.0;"/><path d="M1701.5156,1307.3887 Q1701.6719,1307.1699 1701.8594,1307.0605 Q1702.0469,1306.9512 1702.2656,1306.9512 Q1702.6406,1306.9512 1702.875,1307.2168 Q1703.1094,1307.4668 1703.1094,1308.0762 L1703.1094,1309.5293 Q1703.1094,1310.1387 1702.875,1310.4043 Q1702.6406,1310.6699 1702.2656,1310.6699 Q1701.9219,1310.6699 1701.7188,1310.4668 Q1701.5156,1310.2793 1701.4063,1309.7637 Q1701.3594,1309.4043 1701.1719,1309.2168 Q1700.8438,1308.8418 1700.2344,1308.623 Q1699.625,1308.4043 1699,1308.4043 Q1698.2344,1308.4043 1697.5938,1308.7324 Q1696.9688,1309.0605 1696.4688,1309.8105 Q1695.9844,1310.5605 1695.9844,1311.5918 L1695.9844,1312.6855 Q1695.9844,1313.9199 1696.875,1314.748 Q1697.7656,1315.5605 1699.3594,1315.5605 Q1700.2969,1315.5605 1700.9531,1315.3105 Q1701.3438,1315.1543 1701.7656,1314.7168 Q1702.0313,1314.4512 1702.1719,1314.373 Q1702.3281,1314.2949 1702.5313,1314.2949 Q1702.8594,1314.2949 1703.1094,1314.5605 Q1703.375,1314.8105 1703.375,1315.1543 Q1703.375,1315.498 1703.0313,1315.9043 Q1702.5313,1316.4824 1701.7344,1316.8105 Q1700.6563,1317.2637 1699.3594,1317.2637 Q1697.8438,1317.2637 1696.6406,1316.6387 Q1695.6563,1316.1387 1694.9688,1315.0762 Q1694.2813,1313.998 1694.2813,1312.7168 L1694.2813,1311.5605 Q1694.2813,1310.2324 1694.8906,1309.0918 Q1695.5156,1307.9355 1696.6094,1307.3262 Q1697.7031,1306.7012 1698.9375,1306.7012 Q1699.6719,1306.7012 1700.3125,1306.873 Q1700.9688,1307.0293 1701.5156,1307.3887 Z " fill="#000000"/><text fill="#000000" font-family="sans-serif" font-size="14" lengthAdjust="spacing" textLength="36" x="1719.25" y="1317.3105">Team</text><line style="stroke:#181818;stroke-width:0.5;" x1="1590" x2="1852" y1="1327.5137" y2="1327.5137"/><line style="stroke:#181818;stroke-width:0.5;" x1="1590" x2="1852" y1="1335.5137" y2="1335.5137"/><ellipse cx="1600" cy="1350.3242" fill="#84BE84" rx="3" ry="3" style="stroke:#038048;stroke-width:1.0;"/><text fill="#000000" font-family="sans-serif" font-size="14" lengthAdjust="spacing" textLength="238" x="1609" y="1354.6211">hasTeamByCollaborator(collaborator)</text></g><!--class Garden--><g id="elem_Garden"><rect codeLine="71" fill="#F1F1F1" height="48" id="Garden" rx="2.5" ry="2.5" style="stroke:#181818;stroke-width:0.5;" width="80" x="1167" y="1550.5137"/><ellipse cx="1182" cy="1566.5137" fill="#ADD1B2" rx="11" ry="11" style="stroke:#181818;stroke-width:1.0;"/><path d="M1184.7656,1562.3887 Q1184.9219,1562.1699 1185.1094,1562.0605 Q1185.2969,1561.9512 1185.5156,1561.9512 Q1185.8906,1561.9512 1186.125,1562.2168 Q1186.3594,1562.4668 1186.3594,1563.0762 L1186.3594,1564.5293 Q1186.3594,1565.1387 1186.125,1565.4043 Q1185.8906,1565.6699 1185.5156,1565.6699 Q1185.1719,1565.6699 1184.9688,1565.4668 Q1184.7656,1565.2793 1184.6563,1564.7637 Q1184.6094,1564.4043 1184.4219,1564.2168 Q1184.0938,1563.8418 1183.4844,1563.623 Q1182.875,1563.4043 1182.25,1563.4043 Q1181.4844,1563.4043 1180.8438,1563.7324 Q1180.2188,1564.0605 1179.7188,1564.8105 Q1179.2344,1565.5605 1179.2344,1566.5918 L1179.2344,1567.6855 Q1179.2344,1568.9199 1180.125,1569.748 Q1181.0156,1570.5605 1182.6094,1570.5605 Q1183.5469,1570.5605 1184.2031,1570.3105 Q1184.5938,1570.1543 1185.0156,1569.7168 Q1185.2813,1569.4512 1185.4219,1569.373 Q1185.5781,1569.2949 1185.7813,1569.2949 Q1186.1094,1569.2949 1186.3594,1569.5605 Q1186.625,1569.8105 1186.625,1570.1543 Q1186.625,1570.498 1186.2813,1570.9043 Q1185.7813,1571.4824 1184.9844,1571.8105 Q1183.9063,1572.2637 1182.6094,1572.2637 Q1181.0938,1572.2637 1179.8906,1571.6387 Q1178.9063,1571.1387 1178.2188,1570.0762 Q1177.5313,1568.998 1177.5313,1567.7168 L1177.5313,1566.5605 Q1177.5313,1565.2324 1178.1406,1564.0918 Q1178.7656,1562.9355 1179.8594,1562.3262 Q1180.9531,1561.7012 1182.1875,1561.7012 Q1182.9219,1561.7012 1183.5625,1561.873 Q1184.2188,1562.0293 1184.7656,1562.3887 Z " fill="#000000"/><text fill="#000000" font-family="sans-serif" font-size="14" lengthAdjust="spacing" textLength="48" x="1196" y="1572.3105">Garden</text><line style="stroke:#181818;stroke-width:0.5;" x1="1168" x2="1246" y1="1582.5137" y2="1582.5137"/><line style="stroke:#181818;stroke-width:0.5;" x1="1168" x2="1246" y1="1590.5137" y2="1590.5137"/></g><!--class MediumPark--><g id="elem_MediumPark"><rect codeLine="75" fill="#F1F1F1" height="48" id="MediumPark" rx="2.5" ry="2.5" style="stroke:#181818;stroke-width:0.5;" width="110" x="889" y="1550.5137"/><ellipse cx="904" cy="1566.5137" fill="#ADD1B2" rx="11" ry="11" style="stroke:#181818;stroke-width:1.0;"/><path d="M906.7656,1562.3887 Q906.9219,1562.1699 907.1094,1562.0605 Q907.2969,1561.9512 907.5156,1561.9512 Q907.8906,1561.9512 908.125,1562.2168 Q908.3594,1562.4668 908.3594,1563.0762 L908.3594,1564.5293 Q908.3594,1565.1387 908.125,1565.4043 Q907.8906,1565.6699 907.5156,1565.6699 Q907.1719,1565.6699 906.9688,1565.4668 Q906.7656,1565.2793 906.6563,1564.7637 Q906.6094,1564.4043 906.4219,1564.2168 Q906.0938,1563.8418 905.4844,1563.623 Q904.875,1563.4043 904.25,1563.4043 Q903.4844,1563.4043 902.8438,1563.7324 Q902.2188,1564.0605 901.7188,1564.8105 Q901.2344,1565.5605 901.2344,1566.5918 L901.2344,1567.6855 Q901.2344,1568.9199 902.125,1569.748 Q903.0156,1570.5605 904.6094,1570.5605 Q905.5469,1570.5605 906.2031,1570.3105 Q906.5938,1570.1543 907.0156,1569.7168 Q907.2813,1569.4512 907.4219,1569.373 Q907.5781,1569.2949 907.7813,1569.2949 Q908.1094,1569.2949 908.3594,1569.5605 Q908.625,1569.8105 908.625,1570.1543 Q908.625,1570.498 908.2813,1570.9043 Q907.7813,1571.4824 906.9844,1571.8105 Q905.9063,1572.2637 904.6094,1572.2637 Q903.0938,1572.2637 901.8906,1571.6387 Q900.9063,1571.1387 900.2188,1570.0762 Q899.5313,1568.998 899.5313,1567.7168 L899.5313,1566.5605 Q899.5313,1565.2324 900.1406,1564.0918 Q900.7656,1562.9355 901.8594,1562.3262 Q902.9531,1561.7012 904.1875,1561.7012 Q904.9219,1561.7012 905.5625,1561.873 Q906.2188,1562.0293 906.7656,1562.3887 Z " fill="#000000"/><text fill="#000000" font-family="sans-serif" font-size="14" lengthAdjust="spacing" textLength="78" x="918" y="1572.3105">MediumPark</text><line style="stroke:#181818;stroke-width:0.5;" x1="890" x2="998" y1="1582.5137" y2="1582.5137"/><line style="stroke:#181818;stroke-width:0.5;" x1="890" x2="998" y1="1590.5137" y2="1590.5137"/></g><!--class LargePark--><g id="elem_LargePark"><rect codeLine="79" fill="#F1F1F1" height="48" id="LargePark" rx="2.5" ry="2.5" style="stroke:#181818;stroke-width:0.5;" width="98" x="1034" y="1550.5137"/><ellipse cx="1049" cy="1566.5137" fill="#ADD1B2" rx="11" ry="11" style="stroke:#181818;stroke-width:1.0;"/><path d="M1051.7656,1562.3887 Q1051.9219,1562.1699 1052.1094,1562.0605 Q1052.2969,1561.9512 1052.5156,1561.9512 Q1052.8906,1561.9512 1053.125,1562.2168 Q1053.3594,1562.4668 1053.3594,1563.0762 L1053.3594,1564.5293 Q1053.3594,1565.1387 1053.125,1565.4043 Q1052.8906,1565.6699 1052.5156,1565.6699 Q1052.1719,1565.6699 1051.9688,1565.4668 Q1051.7656,1565.2793 1051.6563,1564.7637 Q1051.6094,1564.4043 1051.4219,1564.2168 Q1051.0938,1563.8418 1050.4844,1563.623 Q1049.875,1563.4043 1049.25,1563.4043 Q1048.4844,1563.4043 1047.8438,1563.7324 Q1047.2188,1564.0605 1046.7188,1564.8105 Q1046.2344,1565.5605 1046.2344,1566.5918 L1046.2344,1567.6855 Q1046.2344,1568.9199 1047.125,1569.748 Q1048.0156,1570.5605 1049.6094,1570.5605 Q1050.5469,1570.5605 1051.2031,1570.3105 Q1051.5938,1570.1543 1052.0156,1569.7168 Q1052.2813,1569.4512 1052.4219,1569.373 Q1052.5781,1569.2949 1052.7813,1569.2949 Q1053.1094,1569.2949 1053.3594,1569.5605 Q1053.625,1569.8105 1053.625,1570.1543 Q1053.625,1570.498 1053.2813,1570.9043 Q1052.7813,1571.4824 1051.9844,1571.8105 Q1050.9063,1572.2637 1049.6094,1572.2637 Q1048.0938,1572.2637 1046.8906,1571.6387 Q1045.9063,1571.1387 1045.2188,1570.0762 Q1044.5313,1568.998 1044.5313,1567.7168 L1044.5313,1566.5605 Q1044.5313,1565.2324 1045.1406,1564.0918 Q1045.7656,1562.9355 1046.8594,1562.3262 Q1047.9531,1561.7012 1049.1875,1561.7012 Q1049.9219,1561.7012 1050.5625,1561.873 Q1051.2188,1562.0293 1051.7656,1562.3887 Z " fill="#000000"/><text fill="#000000" font-family="sans-serif" font-size="14" lengthAdjust="spacing" textLength="66" x="1063" y="1572.3105">LargePark</text><line style="stroke:#181818;stroke-width:0.5;" x1="1035" x2="1131" y1="1582.5137" y2="1582.5137"/><line style="stroke:#181818;stroke-width:0.5;" x1="1035" x2="1131" y1="1590.5137" y2="1590.5137"/></g><!--class ICollaborator--><g id="elem_ICollaborator"><rect codeLine="83" fill="#F1F1F1" height="85.2422" id="ICollaborator" rx="2.5" ry="2.5" style="stroke:#181818;stroke-width:0.5;" width="126" x="1428" y="1286.5137"/><ellipse cx="1448.4" cy="1302.5137" fill="#B4A7E5" rx="11" ry="11" style="stroke:#181818;stroke-width:1.0;"/><path d="M1449.3531,1299.1543 L1449.3531,1305.8105 L1451.0719,1305.8105 Q1451.6813,1305.8105 1451.9469,1306.0449 Q1452.2125,1306.2793 1452.2125,1306.6699 Q1452.2125,1307.0449 1451.9469,1307.2793 Q1451.6813,1307.5137 1451.0719,1307.5137 L1445.9313,1307.5137 Q1445.3219,1307.5137 1445.0563,1307.2793 Q1444.7906,1307.0449 1444.7906,1306.6543 Q1444.7906,1306.2793 1445.0563,1306.0449 Q1445.3219,1305.8105 1445.9313,1305.8105 L1447.65,1305.8105 L1447.65,1299.1543 L1445.9313,1299.1543 Q1445.3219,1299.1543 1445.0563,1298.9199 Q1444.7906,1298.6855 1444.7906,1298.2949 Q1444.7906,1297.9199 1445.0563,1297.6855 Q1445.3219,1297.4512 1445.9313,1297.4512 L1451.0719,1297.4512 Q1451.6813,1297.4512 1451.9469,1297.6855 Q1452.2125,1297.9199 1452.2125,1298.2949 Q1452.2125,1298.6855 1451.9469,1298.9199 Q1451.6813,1299.1543 1451.0719,1299.1543 L1449.3531,1299.1543 Z " fill="#000000"/><text fill="#000000" font-family="sans-serif" font-size="14" font-style="italic" lengthAdjust="spacing" textLength="82" x="1463.6" y="1308.3105">ICollaborator</text><line style="stroke:#181818;stroke-width:0.5;" x1="1429" x2="1553" y1="1318.5137" y2="1318.5137"/><line style="stroke:#181818;stroke-width:0.5;" x1="1429" x2="1553" y1="1326.5137" y2="1326.5137"/><ellipse cx="1439" cy="1341.3242" fill="#84BE84" rx="3" ry="3" style="stroke:#038048;stroke-width:1.0;"/><text fill="#000000" font-family="sans-serif" font-size="14" lengthAdjust="spacing" textLength="64" x="1448" y="1345.6211">getEmail()</text><ellipse cx="1439" cy="1359.9453" fill="#84BE84" rx="3" ry="3" style="stroke:#038048;stroke-width:1.0;"/><text fill="#000000" font-family="sans-serif" font-size="14" lengthAdjust="spacing" textLength="100" x="1448" y="1364.2422">hasEmail(email)</text></g><!--class Task--><g id="elem_Task"><rect codeLine="89" fill="#F1F1F1" height="85.2422" id="Task" rx="2.5" ry="2.5" style="stroke:#181818;stroke-width:0.5;" width="164" x="1208" y="1057.0137"/><ellipse cx="1270.25" cy="1073.0137" fill="#ADD1B2" rx="11" ry="11" style="stroke:#181818;stroke-width:1.0;"/><path d="M1273.0156,1068.8887 Q1273.1719,1068.6699 1273.3594,1068.5605 Q1273.5469,1068.4512 1273.7656,1068.4512 Q1274.1406,1068.4512 1274.375,1068.7168 Q1274.6094,1068.9668 1274.6094,1069.5762 L1274.6094,1071.0293 Q1274.6094,1071.6387 1274.375,1071.9043 Q1274.1406,1072.1699 1273.7656,1072.1699 Q1273.4219,1072.1699 1273.2188,1071.9668 Q1273.0156,1071.7793 1272.9063,1071.2637 Q1272.8594,1070.9043 1272.6719,1070.7168 Q1272.3438,1070.3418 1271.7344,1070.123 Q1271.125,1069.9043 1270.5,1069.9043 Q1269.7344,1069.9043 1269.0938,1070.2324 Q1268.4688,1070.5605 1267.9688,1071.3105 Q1267.4844,1072.0605 1267.4844,1073.0918 L1267.4844,1074.1855 Q1267.4844,1075.4199 1268.375,1076.248 Q1269.2656,1077.0605 1270.8594,1077.0605 Q1271.7969,1077.0605 1272.4531,1076.8105 Q1272.8438,1076.6543 1273.2656,1076.2168 Q1273.5313,1075.9512 1273.6719,1075.873 Q1273.8281,1075.7949 1274.0313,1075.7949 Q1274.3594,1075.7949 1274.6094,1076.0605 Q1274.875,1076.3105 1274.875,1076.6543 Q1274.875,1076.998 1274.5313,1077.4043 Q1274.0313,1077.9824 1273.2344,1078.3105 Q1272.1563,1078.7637 1270.8594,1078.7637 Q1269.3438,1078.7637 1268.1406,1078.1387 Q1267.1563,1077.6387 1266.4688,1076.5762 Q1265.7813,1075.498 1265.7813,1074.2168 L1265.7813,1073.0605 Q1265.7813,1071.7324 1266.3906,1070.5918 Q1267.0156,1069.4355 1268.1094,1068.8262 Q1269.2031,1068.2012 1270.4375,1068.2012 Q1271.1719,1068.2012 1271.8125,1068.373 Q1272.4688,1068.5293 1273.0156,1068.8887 Z " fill="#000000"/><text fill="#000000" font-family="sans-serif" font-size="14" lengthAdjust="spacing" textLength="31" x="1290.75" y="1078.8105">Task</text><line style="stroke:#181818;stroke-width:0.5;" x1="1209" x2="1371" y1="1089.0137" y2="1089.0137"/><rect fill="none" height="6" style="stroke:#C82930;stroke-width:1.0;" width="6" x="1216" y="1100.8242"/><text fill="#000000" font-family="sans-serif" font-size="14" lengthAdjust="spacing" textLength="138" x="1228" y="1108.1211">String taskDescription</text><line style="stroke:#181818;stroke-width:0.5;" x1="1209" x2="1371" y1="1115.6348" y2="1115.6348"/><ellipse cx="1219" cy="1130.4453" fill="#84BE84" rx="3" ry="3" style="stroke:#038048;stroke-width:1.0;"/><text fill="#000000" font-family="sans-serif" font-size="14" lengthAdjust="spacing" textLength="138" x="1228" y="1134.7422">Task(taskDescription)</text></g><!--class TasksAgenda--><g id="elem_TasksAgenda"><rect codeLine="95" fill="#F1F1F1" height="122.4844" id="TasksAgenda" rx="2.5" ry="2.5" style="stroke:#181818;stroke-width:0.5;" width="445" x="1407.5" y="1038.5137"/><ellipse cx="1582.25" cy="1054.5137" fill="#ADD1B2" rx="11" ry="11" style="stroke:#181818;stroke-width:1.0;"/><path d="M1585.0156,1050.3887 Q1585.1719,1050.1699 1585.3594,1050.0605 Q1585.5469,1049.9512 1585.7656,1049.9512 Q1586.1406,1049.9512 1586.375,1050.2168 Q1586.6094,1050.4668 1586.6094,1051.0762 L1586.6094,1052.5293 Q1586.6094,1053.1387 1586.375,1053.4043 Q1586.1406,1053.6699 1585.7656,1053.6699 Q1585.4219,1053.6699 1585.2188,1053.4668 Q1585.0156,1053.2793 1584.9063,1052.7637 Q1584.8594,1052.4043 1584.6719,1052.2168 Q1584.3438,1051.8418 1583.7344,1051.623 Q1583.125,1051.4043 1582.5,1051.4043 Q1581.7344,1051.4043 1581.0938,1051.7324 Q1580.4688,1052.0605 1579.9688,1052.8105 Q1579.4844,1053.5605 1579.4844,1054.5918 L1579.4844,1055.6855 Q1579.4844,1056.9199 1580.375,1057.748 Q1581.2656,1058.5605 1582.8594,1058.5605 Q1583.7969,1058.5605 1584.4531,1058.3105 Q1584.8438,1058.1543 1585.2656,1057.7168 Q1585.5313,1057.4512 1585.6719,1057.373 Q1585.8281,1057.2949 1586.0313,1057.2949 Q1586.3594,1057.2949 1586.6094,1057.5605 Q1586.875,1057.8105 1586.875,1058.1543 Q1586.875,1058.498 1586.5313,1058.9043 Q1586.0313,1059.4824 1585.2344,1059.8105 Q1584.1563,1060.2637 1582.8594,1060.2637 Q1581.3438,1060.2637 1580.1406,1059.6387 Q1579.1563,1059.1387 1578.4688,1058.0762 Q1577.7813,1056.998 1577.7813,1055.7168 L1577.7813,1054.5605 Q1577.7813,1053.2324 1578.3906,1052.0918 Q1579.0156,1050.9355 1580.1094,1050.3262 Q1581.2031,1049.7012 1582.4375,1049.7012 Q1583.1719,1049.7012 1583.8125,1049.873 Q1584.4688,1050.0293 1585.0156,1050.3887 Z " fill="#000000"/><text fill="#000000" font-family="sans-serif" font-size="14" lengthAdjust="spacing" textLength="87" x="1602.75" y="1060.3105">TasksAgenda</text><line style="stroke:#181818;stroke-width:0.5;" x1="1408.5" x2="1851.5" y1="1070.5137" y2="1070.5137"/><line style="stroke:#181818;stroke-width:0.5;" x1="1408.5" x2="1851.5" y1="1078.5137" y2="1078.5137"/><ellipse cx="1418.5" cy="1093.3242" fill="#84BE84" rx="3" ry="3" style="stroke:#038048;stroke-width:1.0;"/><text fill="#000000" font-family="sans-serif" font-size="14" lengthAdjust="spacing" textLength="419" x="1427.5" y="1097.6211">filterTasksByStatusDate(taskListTeam, status, startDate, endDate)</text><ellipse cx="1418.5" cy="1111.9453" fill="#84BE84" rx="3" ry="3" style="stroke:#038048;stroke-width:1.0;"/><text fill="#000000" font-family="sans-serif" font-size="14" lengthAdjust="spacing" textLength="292" x="1427.5" y="1116.2422">sortTaskAgendaByDate(filteredTaskListTeam)</text><rect fill="#F24D5C" height="6" style="stroke:#C82930;stroke-width:1.0;" width="6" x="1415.5" y="1127.5664"/><text fill="#000000" font-family="sans-serif" font-size="14" lengthAdjust="spacing" textLength="123" x="1427.5" y="1134.8633">addTaskListTeam()</text><rect fill="#F24D5C" height="6" style="stroke:#C82930;stroke-width:1.0;" width="6" x="1415.5" y="1146.1875"/><text fill="#000000" font-family="sans-serif" font-size="14" lengthAdjust="spacing" textLength="171" x="1427.5" y="1153.4844">addFilteredTaskListTeam()</text></g><!--class TaskAgenda--><g id="elem_TaskAgenda"><rect codeLine="103" fill="#F1F1F1" height="196.9688" id="TaskAgenda" rx="2.5" ry="2.5" style="stroke:#181818;stroke-width:0.5;" width="257" x="889.5" y="1001.0137"/><ellipse cx="973.75" cy="1017.0137" fill="#ADD1B2" rx="11" ry="11" style="stroke:#181818;stroke-width:1.0;"/><path d="M976.5156,1012.8887 Q976.6719,1012.6699 976.8594,1012.5605 Q977.0469,1012.4512 977.2656,1012.4512 Q977.6406,1012.4512 977.875,1012.7168 Q978.1094,1012.9668 978.1094,1013.5762 L978.1094,1015.0293 Q978.1094,1015.6387 977.875,1015.9043 Q977.6406,1016.1699 977.2656,1016.1699 Q976.9219,1016.1699 976.7188,1015.9668 Q976.5156,1015.7793 976.4063,1015.2637 Q976.3594,1014.9043 976.1719,1014.7168 Q975.8438,1014.3418 975.2344,1014.123 Q974.625,1013.9043 974,1013.9043 Q973.2344,1013.9043 972.5938,1014.2324 Q971.9688,1014.5605 971.4688,1015.3105 Q970.9844,1016.0605 970.9844,1017.0918 L970.9844,1018.1855 Q970.9844,1019.4199 971.875,1020.248 Q972.7656,1021.0605 974.3594,1021.0605 Q975.2969,1021.0605 975.9531,1020.8105 Q976.3438,1020.6543 976.7656,1020.2168 Q977.0313,1019.9512 977.1719,1019.873 Q977.3281,1019.7949 977.5313,1019.7949 Q977.8594,1019.7949 978.1094,1020.0605 Q978.375,1020.3105 978.375,1020.6543 Q978.375,1020.998 978.0313,1021.4043 Q977.5313,1021.9824 976.7344,1022.3105 Q975.6563,1022.7637 974.3594,1022.7637 Q972.8438,1022.7637 971.6406,1022.1387 Q970.6563,1021.6387 969.9688,1020.5762 Q969.2813,1019.498 969.2813,1018.2168 L969.2813,1017.0605 Q969.2813,1015.7324 969.8906,1014.5918 Q970.5156,1013.4355 971.6094,1012.8262 Q972.7031,1012.2012 973.9375,1012.2012 Q974.6719,1012.2012 975.3125,1012.373 Q975.9688,1012.5293 976.5156,1012.8887 Z " fill="#000000"/><text fill="#000000" font-family="sans-serif" font-size="14" lengthAdjust="spacing" textLength="80" x="994.25" y="1022.8105">TaskAgenda</text><line style="stroke:#181818;stroke-width:0.5;" x1="890.5" x2="1145.5" y1="1033.0137" y2="1033.0137"/><rect fill="none" height="6" style="stroke:#C82930;stroke-width:1.0;" width="6" x="897.5" y="1044.8242"/><text fill="#000000" font-family="sans-serif" font-size="14" lengthAdjust="spacing" textLength="92" x="909.5" y="1052.1211">String urgency</text><rect fill="none" height="6" style="stroke:#C82930;stroke-width:1.0;" width="6" x="897.5" y="1063.4453"/><text fill="#000000" font-family="sans-serif" font-size="14" lengthAdjust="spacing" textLength="130" x="909.5" y="1070.7422">int expectedDuration</text><rect fill="none" height="6" style="stroke:#C82930;stroke-width:1.0;" width="6" x="897.5" y="1082.0664"/><text fill="#000000" font-family="sans-serif" font-size="14" lengthAdjust="spacing" textLength="79" x="909.5" y="1089.3633">String status</text><rect fill="none" height="6" style="stroke:#C82930;stroke-width:1.0;" width="6" x="897.5" y="1100.6875"/><text fill="#000000" font-family="sans-serif" font-size="14" lengthAdjust="spacing" textLength="92" x="909.5" y="1107.9844">Date startDate</text><rect fill="none" height="6" style="stroke:#C82930;stroke-width:1.0;" width="6" x="897.5" y="1119.3086"/><text fill="#000000" font-family="sans-serif" font-size="14" lengthAdjust="spacing" textLength="88" x="909.5" y="1126.6055">Date endDate</text><line style="stroke:#181818;stroke-width:0.5;" x1="890.5" x2="1145.5" y1="1134.1191" y2="1134.1191"/><rect fill="#F24D5C" height="6" style="stroke:#C82930;stroke-width:1.0;" width="6" x="897.5" y="1145.9297"/><text fill="#000000" font-family="sans-serif" font-size="14" lengthAdjust="spacing" textLength="147" x="909.5" y="1153.2266">hasTaskByTeam(team)</text><rect fill="#F24D5C" height="6" style="stroke:#C82930;stroke-width:1.0;" width="6" x="897.5" y="1164.5508"/><text fill="#000000" font-family="sans-serif" font-size="14" lengthAdjust="spacing" textLength="231" x="909.5" y="1171.8477">isBetweenDates(startDate, endDate)</text><ellipse cx="900.5" cy="1186.1719" fill="#84BE84" rx="3" ry="3" style="stroke:#038048;stroke-width:1.0;"/><text fill="#000000" font-family="sans-serif" font-size="14" lengthAdjust="spacing" textLength="147" x="909.5" y="1190.4688">hasTaskByTeam(team)</text></g><!--class Collaborator--><g id="elem_Collaborator"><rect codeLine="115" fill="#F1F1F1" height="159.7266" id="Collaborator" rx="2.5" ry="2.5" style="stroke:#181818;stroke-width:0.5;" width="164" x="1524" y="1494.5137"/><ellipse cx="1563.3" cy="1510.5137" fill="#ADD1B2" rx="11" ry="11" style="stroke:#181818;stroke-width:1.0;"/><path d="M1566.0656,1506.3887 Q1566.2219,1506.1699 1566.4094,1506.0605 Q1566.5969,1505.9512 1566.8156,1505.9512 Q1567.1906,1505.9512 1567.425,1506.2168 Q1567.6594,1506.4668 1567.6594,1507.0762 L1567.6594,1508.5293 Q1567.6594,1509.1387 1567.425,1509.4043 Q1567.1906,1509.6699 1566.8156,1509.6699 Q1566.4719,1509.6699 1566.2688,1509.4668 Q1566.0656,1509.2793 1565.9563,1508.7637 Q1565.9094,1508.4043 1565.7219,1508.2168 Q1565.3938,1507.8418 1564.7844,1507.623 Q1564.175,1507.4043 1563.55,1507.4043 Q1562.7844,1507.4043 1562.1438,1507.7324 Q1561.5188,1508.0605 1561.0188,1508.8105 Q1560.5344,1509.5605 1560.5344,1510.5918 L1560.5344,1511.6855 Q1560.5344,1512.9199 1561.425,1513.748 Q1562.3156,1514.5605 1563.9094,1514.5605 Q1564.8469,1514.5605 1565.5031,1514.3105 Q1565.8938,1514.1543 1566.3156,1513.7168 Q1566.5813,1513.4512 1566.7219,1513.373 Q1566.8781,1513.2949 1567.0813,1513.2949 Q1567.4094,1513.2949 1567.6594,1513.5605 Q1567.925,1513.8105 1567.925,1514.1543 Q1567.925,1514.498 1567.5813,1514.9043 Q1567.0813,1515.4824 1566.2844,1515.8105 Q1565.2063,1516.2637 1563.9094,1516.2637 Q1562.3938,1516.2637 1561.1906,1515.6387 Q1560.2063,1515.1387 1559.5188,1514.0762 Q1558.8313,1512.998 1558.8313,1511.7168 L1558.8313,1510.5605 Q1558.8313,1509.2324 1559.4406,1508.0918 Q1560.0656,1506.9355 1561.1594,1506.3262 Q1562.2531,1505.7012 1563.4875,1505.7012 Q1564.2219,1505.7012 1564.8625,1505.873 Q1565.5188,1506.0293 1566.0656,1506.3887 Z " fill="#000000"/><text fill="#000000" font-family="sans-serif" font-size="14" lengthAdjust="spacing" textLength="78" x="1582.7" y="1516.3105">Collaborator</text><line style="stroke:#181818;stroke-width:0.5;" x1="1525" x2="1687" y1="1526.5137" y2="1526.5137"/><rect fill="none" height="6" style="stroke:#C82930;stroke-width:1.0;" width="6" x="1532" y="1538.3242"/><text fill="#000000" font-family="sans-serif" font-size="14" lengthAdjust="spacing" textLength="76" x="1544" y="1545.6211">String name</text><rect fill="none" height="6" style="stroke:#C82930;stroke-width:1.0;" width="6" x="1532" y="1556.9453"/><text fill="#000000" font-family="sans-serif" font-size="14" lengthAdjust="spacing" textLength="106" x="1544" y="1564.2422">Date dateOfBirth</text><rect fill="none" height="6" style="stroke:#C82930;stroke-width:1.0;" width="6" x="1532" y="1575.5664"/><text fill="#000000" font-family="sans-serif" font-size="14" lengthAdjust="spacing" textLength="127" x="1544" y="1582.8633">Date admissionDate</text><rect fill="none" height="6" style="stroke:#C82930;stroke-width:1.0;" width="6" x="1532" y="1594.1875"/><text fill="#000000" font-family="sans-serif" font-size="14" lengthAdjust="spacing" textLength="74" x="1544" y="1601.4844">String email</text><rect fill="none" height="6" style="stroke:#C82930;stroke-width:1.0;" width="6" x="1532" y="1612.8086"/><text fill="#000000" font-family="sans-serif" font-size="14" lengthAdjust="spacing" textLength="73" x="1544" y="1620.1055">int taxpayer</text><line style="stroke:#181818;stroke-width:0.5;" x1="1525" x2="1687" y1="1627.6191" y2="1627.6191"/><ellipse cx="1535" cy="1642.4297" fill="#84BE84" rx="3" ry="3" style="stroke:#038048;stroke-width:1.0;"/><text fill="#000000" font-family="sans-serif" font-size="14" lengthAdjust="spacing" textLength="138" x="1544" y="1646.7266">isEquals(collaborator)</text></g><!--class Agenda--><g id="elem_Agenda"><rect codeLine="125" fill="#F1F1F1" height="122.4844" id="Agenda" rx="2.5" ry="2.5" style="stroke:#181818;stroke-width:0.5;" width="445" x="1407.5" y="800.0137"/><ellipse cx="1601.25" cy="816.0137" fill="#ADD1B2" rx="11" ry="11" style="stroke:#181818;stroke-width:1.0;"/><path d="M1604.0156,811.8887 Q1604.1719,811.6699 1604.3594,811.5605 Q1604.5469,811.4512 1604.7656,811.4512 Q1605.1406,811.4512 1605.375,811.7168 Q1605.6094,811.9668 1605.6094,812.5762 L1605.6094,814.0293 Q1605.6094,814.6387 1605.375,814.9043 Q1605.1406,815.1699 1604.7656,815.1699 Q1604.4219,815.1699 1604.2188,814.9668 Q1604.0156,814.7793 1603.9063,814.2637 Q1603.8594,813.9043 1603.6719,813.7168 Q1603.3438,813.3418 1602.7344,813.123 Q1602.125,812.9043 1601.5,812.9043 Q1600.7344,812.9043 1600.0938,813.2324 Q1599.4688,813.5605 1598.9688,814.3105 Q1598.4844,815.0605 1598.4844,816.0918 L1598.4844,817.1855 Q1598.4844,818.4199 1599.375,819.248 Q1600.2656,820.0605 1601.8594,820.0605 Q1602.7969,820.0605 1603.4531,819.8105 Q1603.8438,819.6543 1604.2656,819.2168 Q1604.5313,818.9512 1604.6719,818.873 Q1604.8281,818.7949 1605.0313,818.7949 Q1605.3594,818.7949 1605.6094,819.0605 Q1605.875,819.3105 1605.875,819.6543 Q1605.875,819.998 1605.5313,820.4043 Q1605.0313,820.9824 1604.2344,821.3105 Q1603.1563,821.7637 1601.8594,821.7637 Q1600.3438,821.7637 1599.1406,821.1387 Q1598.1563,820.6387 1597.4688,819.5762 Q1596.7813,818.498 1596.7813,817.2168 L1596.7813,816.0605 Q1596.7813,814.7324 1597.3906,813.5918 Q1598.0156,812.4355 1599.1094,811.8262 Q1600.2031,811.2012 1601.4375,811.2012 Q1602.1719,811.2012 1602.8125,811.373 Q1603.4688,811.5293 1604.0156,811.8887 Z " fill="#000000"/><text fill="#000000" font-family="sans-serif" font-size="14" lengthAdjust="spacing" textLength="49" x="1621.75" y="821.8105">Agenda</text><line style="stroke:#181818;stroke-width:0.5;" x1="1408.5" x2="1851.5" y1="832.0137" y2="832.0137"/><line style="stroke:#181818;stroke-width:0.5;" x1="1408.5" x2="1851.5" y1="840.0137" y2="840.0137"/><ellipse cx="1418.5" cy="854.8242" fill="#84BE84" rx="3" ry="3" style="stroke:#038048;stroke-width:1.0;"/><text fill="#000000" font-family="sans-serif" font-size="14" lengthAdjust="spacing" textLength="59" x="1427.5" y="859.1211">Agenda()</text><ellipse cx="1418.5" cy="873.4453" fill="#84BE84" rx="3" ry="3" style="stroke:#038048;stroke-width:1.0;"/><text fill="#000000" font-family="sans-serif" font-size="14" lengthAdjust="spacing" textLength="166" x="1427.5" y="877.7422">getTaskListByTeam(team)</text><ellipse cx="1418.5" cy="892.0664" fill="#84BE84" rx="3" ry="3" style="stroke:#038048;stroke-width:1.0;"/><text fill="#000000" font-family="sans-serif" font-size="14" lengthAdjust="spacing" textLength="419" x="1427.5" y="896.3633">filterTasksByStatusDate(taskListTeam, status, startDate, endDate)</text><ellipse cx="1418.5" cy="910.6875" fill="#84BE84" rx="3" ry="3" style="stroke:#038048;stroke-width:1.0;"/><text fill="#000000" font-family="sans-serif" font-size="14" lengthAdjust="spacing" textLength="292" x="1427.5" y="914.9844">sortTaskAgendaByDate(filteredTaskListTeam)</text></g><!--class TaskToDoList--><g id="elem_TaskToDoList"><rect codeLine="133" fill="#F1F1F1" height="66.6211" id="TaskToDoList" rx="2.5" ry="2.5" style="stroke:#181818;stroke-width:0.5;" width="137" x="1093.5" y="1295.5137"/><ellipse cx="1116.15" cy="1311.5137" fill="#ADD1B2" rx="11" ry="11" style="stroke:#181818;stroke-width:1.0;"/><path d="M1118.9156,1307.3887 Q1119.0719,1307.1699 1119.2594,1307.0605 Q1119.4469,1306.9512 1119.6656,1306.9512 Q1120.0406,1306.9512 1120.275,1307.2168 Q1120.5094,1307.4668 1120.5094,1308.0762 L1120.5094,1309.5293 Q1120.5094,1310.1387 1120.275,1310.4043 Q1120.0406,1310.6699 1119.6656,1310.6699 Q1119.3219,1310.6699 1119.1188,1310.4668 Q1118.9156,1310.2793 1118.8063,1309.7637 Q1118.7594,1309.4043 1118.5719,1309.2168 Q1118.2438,1308.8418 1117.6344,1308.623 Q1117.025,1308.4043 1116.4,1308.4043 Q1115.6344,1308.4043 1114.9938,1308.7324 Q1114.3688,1309.0605 1113.8688,1309.8105 Q1113.3844,1310.5605 1113.3844,1311.5918 L1113.3844,1312.6855 Q1113.3844,1313.9199 1114.275,1314.748 Q1115.1656,1315.5605 1116.7594,1315.5605 Q1117.6969,1315.5605 1118.3531,1315.3105 Q1118.7438,1315.1543 1119.1656,1314.7168 Q1119.4313,1314.4512 1119.5719,1314.373 Q1119.7281,1314.2949 1119.9313,1314.2949 Q1120.2594,1314.2949 1120.5094,1314.5605 Q1120.775,1314.8105 1120.775,1315.1543 Q1120.775,1315.498 1120.4313,1315.9043 Q1119.9313,1316.4824 1119.1344,1316.8105 Q1118.0563,1317.2637 1116.7594,1317.2637 Q1115.2438,1317.2637 1114.0406,1316.6387 Q1113.0563,1316.1387 1112.3688,1315.0762 Q1111.6813,1313.998 1111.6813,1312.7168 L1111.6813,1311.5605 Q1111.6813,1310.2324 1112.2906,1309.0918 Q1112.9156,1307.9355 1114.0094,1307.3262 Q1115.1031,1306.7012 1116.3375,1306.7012 Q1117.0719,1306.7012 1117.7125,1306.873 Q1118.3688,1307.0293 1118.9156,1307.3887 Z " fill="#000000"/><text fill="#000000" font-family="sans-serif" font-size="14" lengthAdjust="spacing" textLength="88" x="1131.85" y="1317.3105">TaskToDoList</text><line style="stroke:#181818;stroke-width:0.5;" x1="1094.5" x2="1229.5" y1="1327.5137" y2="1327.5137"/><line style="stroke:#181818;stroke-width:0.5;" x1="1094.5" x2="1229.5" y1="1335.5137" y2="1335.5137"/><rect fill="#F24D5C" height="6" style="stroke:#C82930;stroke-width:1.0;" width="6" x="1101.5" y="1347.3242"/><text fill="#000000" font-family="sans-serif" font-size="14" lengthAdjust="spacing" textLength="111" x="1113.5" y="1354.6211">hasStatus(status)</text></g><!--class Repositories--><g id="elem_Repositories"><rect codeLine="142" fill="#F1F1F1" height="141.1055" id="Repositories" rx="2.5" ry="2.5" style="stroke:#181818;stroke-width:0.5;" width="202" x="1919" y="536.0137"/><ellipse cx="1976.25" cy="552.0137" fill="#ADD1B2" rx="11" ry="11" style="stroke:#181818;stroke-width:1.0;"/><path d="M1979.0156,547.8887 Q1979.1719,547.6699 1979.3594,547.5605 Q1979.5469,547.4512 1979.7656,547.4512 Q1980.1406,547.4512 1980.375,547.7168 Q1980.6094,547.9668 1980.6094,548.5762 L1980.6094,550.0293 Q1980.6094,550.6387 1980.375,550.9043 Q1980.1406,551.1699 1979.7656,551.1699 Q1979.4219,551.1699 1979.2188,550.9668 Q1979.0156,550.7793 1978.9063,550.2637 Q1978.8594,549.9043 1978.6719,549.7168 Q1978.3438,549.3418 1977.7344,549.123 Q1977.125,548.9043 1976.5,548.9043 Q1975.7344,548.9043 1975.0938,549.2324 Q1974.4688,549.5605 1973.9688,550.3105 Q1973.4844,551.0605 1973.4844,552.0918 L1973.4844,553.1855 Q1973.4844,554.4199 1974.375,555.248 Q1975.2656,556.0605 1976.8594,556.0605 Q1977.7969,556.0605 1978.4531,555.8105 Q1978.8438,555.6543 1979.2656,555.2168 Q1979.5313,554.9512 1979.6719,554.873 Q1979.8281,554.7949 1980.0313,554.7949 Q1980.3594,554.7949 1980.6094,555.0605 Q1980.875,555.3105 1980.875,555.6543 Q1980.875,555.998 1980.5313,556.4043 Q1980.0313,556.9824 1979.2344,557.3105 Q1978.1563,557.7637 1976.8594,557.7637 Q1975.3438,557.7637 1974.1406,557.1387 Q1973.1563,556.6387 1972.4688,555.5762 Q1971.7813,554.498 1971.7813,553.2168 L1971.7813,552.0605 Q1971.7813,550.7324 1972.3906,549.5918 Q1973.0156,548.4355 1974.1094,547.8262 Q1975.2031,547.2012 1976.4375,547.2012 Q1977.1719,547.2012 1977.8125,547.373 Q1978.4688,547.5293 1979.0156,547.8887 Z " fill="#000000"/><text fill="#000000" font-family="sans-serif" font-size="14" lengthAdjust="spacing" textLength="79" x="1996.75" y="557.8105">Repositories</text><line style="stroke:#181818;stroke-width:0.5;" x1="1920" x2="2120" y1="568.0137" y2="568.0137"/><line style="stroke:#181818;stroke-width:0.5;" x1="1920" x2="2120" y1="576.0137" y2="576.0137"/><rect fill="#F24D5C" height="6" style="stroke:#C82930;stroke-width:1.0;" width="6" x="1927" y="587.8242"/><text fill="#000000" font-family="sans-serif" font-size="14" lengthAdjust="spacing" textLength="89" x="1939" y="595.1211">Repositories()</text><ellipse cx="1930" cy="609.4453" fill="#84BE84" rx="3" ry="3" style="stroke:#038048;stroke-width:1.0;"/><text fill="#000000" font-family="sans-serif" font-size="14" lengthAdjust="spacing" textLength="174" x="1939" y="613.7422">getInstance() : Repositories</text><ellipse cx="1930" cy="628.0664" fill="#84BE84" rx="3" ry="3" style="stroke:#038048;stroke-width:1.0;"/><text fill="#000000" font-family="sans-serif" font-size="14" lengthAdjust="spacing" textLength="176" x="1939" y="632.3633">getCollaboratorRepository()</text><ellipse cx="1930" cy="646.6875" fill="#84BE84" rx="3" ry="3" style="stroke:#038048;stroke-width:1.0;"/><text fill="#000000" font-family="sans-serif" font-size="14" lengthAdjust="spacing" textLength="138" x="1939" y="650.9844">getTeamRepository();</text><ellipse cx="1930" cy="665.3086" fill="#84BE84" rx="3" ry="3" style="stroke:#038048;stroke-width:1.0;"/><text fill="#000000" font-family="sans-serif" font-size="14" lengthAdjust="spacing" textLength="79" x="1939" y="669.6055">getAgenda()</text></g><!--class CollaboratorRepository--><g id="elem_CollaboratorRepository"><rect codeLine="151" fill="#F1F1F1" height="66.6211" id="CollaboratorRepository" rx="2.5" ry="2.5" style="stroke:#181818;stroke-width:0.5;" width="217" x="2132.5" y="1066.0137"/><ellipse cx="2165.05" cy="1082.0137" fill="#ADD1B2" rx="11" ry="11" style="stroke:#181818;stroke-width:1.0;"/><path d="M2167.8156,1077.8887 Q2167.9719,1077.6699 2168.1594,1077.5605 Q2168.3469,1077.4512 2168.5656,1077.4512 Q2168.9406,1077.4512 2169.175,1077.7168 Q2169.4094,1077.9668 2169.4094,1078.5762 L2169.4094,1080.0293 Q2169.4094,1080.6387 2169.175,1080.9043 Q2168.9406,1081.1699 2168.5656,1081.1699 Q2168.2219,1081.1699 2168.0188,1080.9668 Q2167.8156,1080.7793 2167.7063,1080.2637 Q2167.6594,1079.9043 2167.4719,1079.7168 Q2167.1438,1079.3418 2166.5344,1079.123 Q2165.925,1078.9043 2165.3,1078.9043 Q2164.5344,1078.9043 2163.8938,1079.2324 Q2163.2688,1079.5605 2162.7688,1080.3105 Q2162.2844,1081.0605 2162.2844,1082.0918 L2162.2844,1083.1855 Q2162.2844,1084.4199 2163.175,1085.248 Q2164.0656,1086.0605 2165.6594,1086.0605 Q2166.5969,1086.0605 2167.2531,1085.8105 Q2167.6438,1085.6543 2168.0656,1085.2168 Q2168.3313,1084.9512 2168.4719,1084.873 Q2168.6281,1084.7949 2168.8313,1084.7949 Q2169.1594,1084.7949 2169.4094,1085.0605 Q2169.675,1085.3105 2169.675,1085.6543 Q2169.675,1085.998 2169.3313,1086.4043 Q2168.8313,1086.9824 2168.0344,1087.3105 Q2166.9563,1087.7637 2165.6594,1087.7637 Q2164.1438,1087.7637 2162.9406,1087.1387 Q2161.9563,1086.6387 2161.2688,1085.5762 Q2160.5813,1084.498 2160.5813,1083.2168 L2160.5813,1082.0605 Q2160.5813,1080.7324 2161.1906,1079.5918 Q2161.8156,1078.4355 2162.9094,1077.8262 Q2164.0031,1077.2012 2165.2375,1077.2012 Q2165.9719,1077.2012 2166.6125,1077.373 Q2167.2688,1077.5293 2167.8156,1077.8887 Z " fill="#000000"/><text fill="#000000" font-family="sans-serif" font-size="14" lengthAdjust="spacing" textLength="146" x="2182.95" y="1087.8105">CollaboratorRepository</text><line style="stroke:#181818;stroke-width:0.5;" x1="2133.5" x2="2348.5" y1="1098.0137" y2="1098.0137"/><line style="stroke:#181818;stroke-width:0.5;" x1="2133.5" x2="2348.5" y1="1106.0137" y2="1106.0137"/><ellipse cx="2143.5" cy="1120.8242" fill="#84BE84" rx="3" ry="3" style="stroke:#038048;stroke-width:1.0;"/><text fill="#000000" font-family="sans-serif" font-size="14" lengthAdjust="spacing" textLength="191" x="2152.5" y="1125.1211">getCollaboratorByEmail(email)</text></g><!--class TeamRepository--><g id="elem_TeamRepository"><rect codeLine="156" fill="#F1F1F1" height="66.6211" id="TeamRepository" rx="2.5" ry="2.5" style="stroke:#181818;stroke-width:0.5;" width="261" x="1909.5" y="827.5137"/><ellipse cx="1983.75" cy="843.5137" fill="#ADD1B2" rx="11" ry="11" style="stroke:#181818;stroke-width:1.0;"/><path d="M1986.5156,839.3887 Q1986.6719,839.1699 1986.8594,839.0605 Q1987.0469,838.9512 1987.2656,838.9512 Q1987.6406,838.9512 1987.875,839.2168 Q1988.1094,839.4668 1988.1094,840.0762 L1988.1094,841.5293 Q1988.1094,842.1387 1987.875,842.4043 Q1987.6406,842.6699 1987.2656,842.6699 Q1986.9219,842.6699 1986.7188,842.4668 Q1986.5156,842.2793 1986.4063,841.7637 Q1986.3594,841.4043 1986.1719,841.2168 Q1985.8438,840.8418 1985.2344,840.623 Q1984.625,840.4043 1984,840.4043 Q1983.2344,840.4043 1982.5938,840.7324 Q1981.9688,841.0605 1981.4688,841.8105 Q1980.9844,842.5605 1980.9844,843.5918 L1980.9844,844.6855 Q1980.9844,845.9199 1981.875,846.748 Q1982.7656,847.5605 1984.3594,847.5605 Q1985.2969,847.5605 1985.9531,847.3105 Q1986.3438,847.1543 1986.7656,846.7168 Q1987.0313,846.4512 1987.1719,846.373 Q1987.3281,846.2949 1987.5313,846.2949 Q1987.8594,846.2949 1988.1094,846.5605 Q1988.375,846.8105 1988.375,847.1543 Q1988.375,847.498 1988.0313,847.9043 Q1987.5313,848.4824 1986.7344,848.8105 Q1985.6563,849.2637 1984.3594,849.2637 Q1982.8438,849.2637 1981.6406,848.6387 Q1980.6563,848.1387 1979.9688,847.0762 Q1979.2813,845.998 1979.2813,844.7168 L1979.2813,843.5605 Q1979.2813,842.2324 1979.8906,841.0918 Q1980.5156,839.9355 1981.6094,839.3262 Q1982.7031,838.7012 1983.9375,838.7012 Q1984.6719,838.7012 1985.3125,838.873 Q1985.9688,839.0293 1986.5156,839.3887 Z " fill="#000000"/><text fill="#000000" font-family="sans-serif" font-size="14" lengthAdjust="spacing" textLength="104" x="2004.25" y="849.3105">TeamRepository</text><line style="stroke:#181818;stroke-width:0.5;" x1="1910.5" x2="2169.5" y1="859.5137" y2="859.5137"/><line style="stroke:#181818;stroke-width:0.5;" x1="1910.5" x2="2169.5" y1="867.5137" y2="867.5137"/><ellipse cx="1920.5" cy="882.3242" fill="#84BE84" rx="3" ry="3" style="stroke:#038048;stroke-width:1.0;"/><text fill="#000000" font-family="sans-serif" font-size="14" lengthAdjust="spacing" textLength="235" x="1929.5" y="886.6211">getTeamByCollaborator(collaborator)</text></g><!--reverse link GreenSpace to Garden--><g id="link_GreenSpace_Garden"><path d="M1072.8258,1379.4734 C1111.3058,1406.6334 1141.94,1429.1137 1149,1438.0137 C1176.36,1472.4937 1193.14,1521.8037 1201.2,1550.4537 " fill="none" id="GreenSpace-backto-Garden" style="stroke:#181818;stroke-width:1.0;stroke-dasharray:7.0,7.0;"/><polygon fill="none" points="1058.12,1369.0937,1069.3659,1384.3753,1076.2857,1374.5714,1058.12,1369.0937" style="stroke:#181818;stroke-width:1.0;"/></g><!--reverse link GreenSpace to MediumPark--><g id="link_GreenSpace_MediumPark"><path d="M985.6698,1398.5739 C973.2498,1450.7239 958.68,1511.8637 949.49,1550.4737 " fill="none" id="GreenSpace-backto-MediumPark" style="stroke:#181818;stroke-width:1.0;stroke-dasharray:7.0,7.0;"/><polygon fill="none" points="989.84,1381.0637,979.833,1397.1839,991.5065,1399.964,989.84,1381.0637" style="stroke:#181818;stroke-width:1.0;"/></g><!--reverse link GreenSpace to LargePark--><g id="link_GreenSpace_LargePark"><path d="M1024.6623,1398.1432 C1042.0123,1450.2932 1062.49,1511.8637 1075.34,1550.4737 " fill="none" id="GreenSpace-backto-LargePark" style="stroke:#181818;stroke-width:1.0;stroke-dasharray:7.0,7.0;"/><polygon fill="none" points="1018.98,1381.0637,1018.9691,1400.0373,1030.3555,1396.2492,1018.98,1381.0637" style="stroke:#181818;stroke-width:1.0;"/></g><!--reverse link ICollaborator to Collaborator--><g id="link_ICollaborator_Collaborator"><path d="M1518.3249,1387.8707 C1534.1649,1421.4207 1549.23,1453.3237 1568.54,1494.1937 " fill="none" id="ICollaborator-backto-Collaborator" style="stroke:#181818;stroke-width:1.0;stroke-dasharray:7.0,7.0;"/><polygon fill="none" points="1510.64,1371.5937,1512.8992,1390.4324,1523.7506,1385.3091,1510.64,1371.5937" style="stroke:#181818;stroke-width:1.0;"/></g><!--link Repositories to Repositories--><g id="link_Repositories_Repositories"><path codeLine="165" d="M2121.12,586.7037 C2141.46,588.9037 2156,595.5037 2156,606.5137 C2156,617.5237 2147.4252,623.4785 2127.0852,625.6785 " fill="none" id="Repositories-to-Repositories" style="stroke:#181818;stroke-width:1.0;"/><polygon fill="#181818" points="2121.12,626.3237,2130.4979,629.3327,2126.091,625.786,2129.6377,621.3791,2121.12,626.3237" style="stroke:#181818;stroke-width:1.0;"/><text fill="#000000" font-family="sans-serif" font-size="13" lengthAdjust="spacing" textLength="49" x="2162" y="612.042">instance</text></g><!--link ApplicationSession to ApplicationSession--><g id="link_ApplicationSession_ApplicationSession"><path codeLine="166" d="M2584.21,586.1137 C2604.06,587.4137 2619,594.2137 2619,606.5137 C2619,618.8137 2610.0472,625.2216 2590.1972,626.5216 " fill="none" id="ApplicationSession-to-ApplicationSession" style="stroke:#181818;stroke-width:1.0;"/><polygon fill="#181818" points="2584.21,626.9137,2593.4522,630.317,2589.1993,626.5869,2592.9294,622.3341,2584.21,626.9137" style="stroke:#181818;stroke-width:1.0;"/><text fill="#000000" font-family="sans-serif" font-size="13" lengthAdjust="spacing" textLength="49" x="2625" y="612.042">instance</text></g><!--link ConsultAssignedTasksListUI to ConsultAssignedTasksController--><g id="link_ConsultAssignedTasksListUI_ConsultAssignedTasksController"><path codeLine="169" d="M2650.79,108.3537 C2495.9,136.8237 2210.0111,189.379 2017.5311,224.759 " fill="none" id="ConsultAssignedTasksListUI-to-ConsultAssignedTasksController" style="stroke:#181818;stroke-width:1.0;stroke-dasharray:7.0,7.0;"/><polygon fill="#181818" points="2011.63,225.8437,2021.2048,228.1507,2016.5476,224.9398,2019.7586,220.2825,2011.63,225.8437" style="stroke:#181818;stroke-width:1.0;"/></g><!--link ConsultAssignedTasksListUI to TaskAgendaDto--><g id="link_ConsultAssignedTasksListUI_TaskAgendaDto"><path codeLine="170" d="M2806.04,112.1637 C2857.13,139.6637 2929,190.7337 2929,260.5137 C2929,260.5137 2929,260.5137 2929,1330.0137 C2929,1466.4037 2996.39,1399.0837 2231,1430.0137 C2193.31,1431.5337 909.43,1428.2237 873,1438.0137 C823.22,1451.3937 778.0484,1474.6685 736.7084,1500.6785 " fill="none" id="ConsultAssignedTasksListUI-to-TaskAgendaDto" style="stroke:#181818;stroke-width:1.0;stroke-dasharray:7.0,7.0;"/><polygon fill="#181818" points="731.63,1503.8737,741.3778,1502.4665,735.862,1501.211,737.1175,1495.6952,731.63,1503.8737" style="stroke:#181818;stroke-width:1.0;"/></g><!--link ConsultAssignedTasksController to Repositories--><g id="link_ConsultAssignedTasksController_Repositories"><path codeLine="173" d="M1861.17,304.3237 C1869.5,314.3537 1877.93,325.2837 1885,336.0137 C1927.39,400.3637 1963.241,474.3618 1988.121,530.2818 " fill="none" id="ConsultAssignedTasksController-to-Repositories" style="stroke:#181818;stroke-width:1.0;stroke-dasharray:7.0,7.0;"/><polygon fill="#181818" points="1990.56,535.7637,1990.5561,525.9148,1988.5275,531.1954,1983.2469,529.1668,1990.56,535.7637" style="stroke:#181818;stroke-width:1.0;"/><text fill="#000000" font-family="sans-serif" font-size="13" lengthAdjust="spacing" textLength="67" x="1917" y="382.042">repositories</text></g><!--link ConsultAssignedTasksController to ApplicationSession--><g id="link_ConsultAssignedTasksController_ApplicationSession"><path codeLine="174" d="M2011.78,282.4737 C2129.83,302.7337 2279.83,343.4337 2390,425.0137 C2438.17,460.6837 2469.4754,517.0987 2487.9554,558.3187 " fill="none" id="ConsultAssignedTasksController-to-ApplicationSession" style="stroke:#181818;stroke-width:1.0;stroke-dasharray:7.0,7.0;"/><polygon fill="#181818" points="2490.41,563.7937,2490.3781,553.9449,2488.3645,559.2312,2483.0782,557.2176,2490.41,563.7937" style="stroke:#181818;stroke-width:1.0;"/></g><!--link ConsultAssignedTasksController to UserSession--><g id="link_ConsultAssignedTasksController_UserSession"><path codeLine="175" d="M1825.15,304.2737 C1831.16,412.9337 1849.79,698.0337 1881,726.0137 C1902.06,744.8937 2364.4,721.9937 2390,734.0137 C2431.21,753.3637 2459.6285,791.6635 2477.6885,822.1035 " fill="none" id="ConsultAssignedTasksController-to-UserSession" style="stroke:#181818;stroke-width:1.0;stroke-dasharray:7.0,7.0;"/><polygon fill="#181818" points="2480.75,827.2637,2479.5978,817.4824,2478.1987,822.9635,2472.7176,821.5645,2480.75,827.2637" style="stroke:#181818;stroke-width:1.0;"/></g><!--link ConsultAssignedTasksController to CollaboratorRepository--><g id="link_ConsultAssignedTasksController_CollaboratorRepository"><path codeLine="176" d="M2011.56,267.8537 C2273.59,277.8337 2716,305.1137 2716,375.5137 C2716,375.5137 2716,375.5137 2716,862.0137 C2716,1024.7237 2495.8521,1074.8201 2355.6421,1090.6601 " fill="none" id="ConsultAssignedTasksController-to-CollaboratorRepository" style="stroke:#181818;stroke-width:1.0;stroke-dasharray:7.0,7.0;"/><polygon fill="#181818" points="2349.68,1091.3337,2359.0721,1094.2981,2354.6484,1090.7724,2358.1741,1086.3486,2349.68,1091.3337" style="stroke:#181818;stroke-width:1.0;"/></g><!--link ConsultAssignedTasksController to TeamRepository--><g id="link_ConsultAssignedTasksController_TeamRepository"><path codeLine="177" d="M1808.75,304.1337 C1781.23,392.9037 1731.95,602.7837 1833,726.0137 C1843.39,738.6837 1854.08,727.2237 1869,734.0137 C1920.86,757.6037 1967.9068,794.6486 2000.6268,823.4586 " fill="none" id="ConsultAssignedTasksController-to-TeamRepository" style="stroke:#181818;stroke-width:1.0;stroke-dasharray:7.0,7.0;"/><polygon fill="#181818" points="2005.13,827.4237,2001.0186,818.474,2001.3774,824.1195,1995.7319,824.4782,2005.13,827.4237" style="stroke:#181818;stroke-width:1.0;"/></g><!--link ConsultAssignedTasksController to ICollaborator--><g id="link_ConsultAssignedTasksController_ICollaborator"><path codeLine="178" d="M1634.45,265.4337 C1347.97,272.4137 836,296.0137 836,375.5137 C836,375.5137 836,375.5137 836,1100.5137 C836,1299.7237 1051.46,1244.5137 1248,1277.0137 C1309.45,1287.1737 1373.0987,1300.7864 1421.9887,1311.8764 " fill="none" id="ConsultAssignedTasksController-to-ICollaborator" style="stroke:#181818;stroke-width:1.0;stroke-dasharray:7.0,7.0;"/><polygon fill="#181818" points="1427.84,1313.2037,1419.9478,1307.3118,1422.9639,1312.0976,1418.1781,1315.1136,1427.84,1313.2037" style="stroke:#181818;stroke-width:1.0;"/></g><!--link ConsultAssignedTasksController to GreenSpace--><g id="link_ConsultAssignedTasksController_GreenSpace"><path codeLine="179" d="M1634.46,263.8837 C1330.29,268.6337 765,289.0937 765,375.5137 C765,375.5137 765,375.5137 765,1100.5137 C765,1200.3237 870.3545,1267.3591 940.4345,1301.4491 " fill="none" id="ConsultAssignedTasksController-to-GreenSpace" style="stroke:#181818;stroke-width:1.0;stroke-dasharray:7.0,7.0;"/><polygon fill="#181818" points="945.83,1304.0737,939.4865,1296.5398,941.3337,1301.8865,935.987,1303.7338,945.83,1304.0737" style="stroke:#181818;stroke-width:1.0;"/></g><!--link ConsultAssignedTasksController to Task--><g id="link_ConsultAssignedTasksController_Task"><path codeLine="180" d="M1634.31,267.5737 C1481.34,276.9837 1291,303.2237 1291,375.5137 C1291,375.5137 1291,375.5137 1291,862.0137 C1291,930.1737 1290.6181,1003.3838 1290.3181,1050.6438 " fill="none" id="ConsultAssignedTasksController-to-Task" style="stroke:#181818;stroke-width:1.0;stroke-dasharray:7.0,7.0;"/><polygon fill="#181818" points="1290.28,1056.6437,1294.337,1047.6692,1290.3117,1051.6438,1286.3372,1047.6185,1290.28,1056.6437" style="stroke:#181818;stroke-width:1.0;"/></g><!--link ConsultAssignedTasksController to TaskAgenda--><g id="link_ConsultAssignedTasksController_TaskAgenda"><path codeLine="181" d="M1634.07,274.6537 C1425.24,290.6737 1118,323.1437 1118,375.5137 C1118,375.5137 1118,375.5137 1118,862.0137 C1118,910.0437 1102.9529,954.1719 1082.4429,995.3919 " fill="none" id="ConsultAssignedTasksController-to-TaskAgenda" style="stroke:#181818;stroke-width:1.0;stroke-dasharray:7.0,7.0;"/><polygon fill="#181818" points="1079.77,1000.7637,1087.3605,994.4879,1081.9974,996.2872,1080.1981,990.9241,1079.77,1000.7637" style="stroke:#181818;stroke-width:1.0;"/></g><!--link ConsultAssignedTasksController to Agenda--><g id="link_ConsultAssignedTasksController_Agenda"><path codeLine="182" d="M1783.08,304.1537 C1775.2,314.0237 1767.63,324.9237 1762,336.0137 C1682.8,492.0237 1649.6814,692.8697 1637.1314,793.6597 " fill="none" id="ConsultAssignedTasksController-to-Agenda" style="stroke:#181818;stroke-width:1.0;stroke-dasharray:7.0,7.0;"/><polygon fill="#181818" points="1636.39,799.6137,1641.4714,791.1769,1637.0078,794.652,1633.5327,790.1884,1636.39,799.6137" style="stroke:#181818;stroke-width:1.0;"/></g><!--link ConsultAssignedTasksController to Team--><g id="link_ConsultAssignedTasksController_Team"><path codeLine="183" d="M2011.73,265.9837 C2292.37,273.7037 2787,298.2637 2787,375.5137 C2787,375.5137 2787,375.5137 2787,1100.5137 C2787,1289.4537 2144.399,1321.9441 1859.049,1327.1541 " fill="none" id="ConsultAssignedTasksController-to-Team" style="stroke:#181818;stroke-width:1.0;stroke-dasharray:7.0,7.0;"/><polygon fill="#181818" points="1853.05,1327.2637,1862.1215,1331.0987,1858.0492,1327.1724,1861.9755,1323.1,1853.05,1327.2637" style="stroke:#181818;stroke-width:1.0;"/></g><!--link ConsultAssignedTasksController to TaskAgendaMapper--><g id="link_ConsultAssignedTasksController_TaskAgendaMapper"><path codeLine="184" d="M1634.2,268.6137 C1259.98,281.9637 460,317.3037 460,375.5137 C460,375.5137 460,375.5137 460,1330.0137 C460,1420.7837 379.5405,1487.5727 311.6605,1528.7327 " fill="none" id="ConsultAssignedTasksController-to-TaskAgendaMapper" style="stroke:#181818;stroke-width:1.0;stroke-dasharray:7.0,7.0;"/><polygon fill="#181818" points="306.53,1531.8437,316.2997,1530.5976,310.8054,1529.2512,312.1518,1523.7569,306.53,1531.8437" style="stroke:#181818;stroke-width:1.0;"/></g><!--link ConsultAssignedTasksController to TaskAgendaDto--><g id="link_ConsultAssignedTasksController_TaskAgendaDto"><path codeLine="185" d="M2011.63,264.3637 C2310.16,269.8337 2858,291.3537 2858,375.5137 C2858,375.5137 2858,375.5137 2858,1330.0137 C2858,1440.4637 1979.29,1424.0037 1869,1430.0137 C1841.37,1431.5137 899.71,1430.8037 873,1438.0137 C823.24,1451.4537 778.0688,1474.729 736.7188,1500.739 " fill="none" id="ConsultAssignedTasksController-to-TaskAgendaDto" style="stroke:#181818;stroke-width:1.0;stroke-dasharray:7.0,7.0;"/><polygon fill="#181818" points="731.64,1503.9337,741.388,1502.5275,735.8723,1501.2715,737.1284,1495.7558,731.64,1503.9337" style="stroke:#181818;stroke-width:1.0;"/></g><!--link ApplicationSession to UserSession--><g id="link_ApplicationSession_UserSession"><path codeLine="188" d="M2505.51,649.2137 C2503.73,699.2137 2500.9934,775.9775 2499.3734,821.5075 " fill="none" id="ApplicationSession-to-UserSession" style="stroke:#181818;stroke-width:1.0;"/><polygon fill="#181818" points="2499.16,827.5037,2503.4775,818.6516,2499.3378,822.5068,2495.4826,818.3671,2499.16,827.5037" style="stroke:#181818;stroke-width:1.0;"/><text fill="#000000" font-family="sans-serif" font-size="13" lengthAdjust="spacing" textLength="72" x="2504" y="722.042">userSession</text><text fill="#000000" font-family="sans-serif" font-size="13" lengthAdjust="spacing" textLength="7" x="2491.6993" y="816.3272">1</text></g><!--link Repositories to CollaboratorRepository--><g id="link_Repositories_CollaboratorRepository"><path codeLine="191" d="M2121.37,664.0637 C2146.94,683.0537 2171.72,706.5337 2188,734.0137 C2251.97,841.9837 2249.4435,992.6394 2244.5735,1059.8694 " fill="none" id="Repositories-to-CollaboratorRepository" style="stroke:#181818;stroke-width:1.0;"/><polygon fill="#181818" points="2244.14,1065.8537,2248.7798,1057.1662,2244.5012,1060.8667,2240.8007,1056.5882,2244.14,1065.8537" style="stroke:#181818;stroke-width:1.0;"/><text fill="#000000" font-family="sans-serif" font-size="13" lengthAdjust="spacing" textLength="131" x="2243" y="866.542">CollaboratorRepository</text><text fill="#000000" font-family="sans-serif" font-size="13" lengthAdjust="spacing" textLength="7" x="2237.0691" y="1054.6477">1</text></g><!--link Repositories to Agenda--><g id="link_Repositories_Agenda"><path codeLine="192" d="M1918.8,673.0337 C1858.21,712.2637 1786.7766,758.5129 1727.7566,796.7229 " fill="none" id="Repositories-to-Agenda" style="stroke:#181818;stroke-width:1.0;"/><polygon fill="#181818" points="1722.72,799.9837,1732.4488,798.4503,1726.9172,797.2664,1728.1011,791.7348,1722.72,799.9837" style="stroke:#181818;stroke-width:1.0;"/><text fill="#000000" font-family="sans-serif" font-size="13" lengthAdjust="spacing" textLength="44" x="1861" y="722.042">Agenda</text><text fill="#000000" font-family="sans-serif" font-size="13" lengthAdjust="spacing" textLength="7" x="1726.0361" y="788.9614">1</text></g><!--link Repositories to TeamRepository--><g id="link_Repositories_TeamRepository"><path codeLine="193" d="M2025.52,677.1837 C2029.4,726.2237 2033.9569,783.6624 2036.9469,821.4624 " fill="none" id="Repositories-to-TeamRepository" style="stroke:#181818;stroke-width:1.0;"/><polygon fill="#181818" points="2037.42,827.4437,2040.6979,818.1563,2037.0257,822.4592,2032.7228,818.7871,2037.42,827.4437" style="stroke:#181818;stroke-width:1.0;"/><text fill="#000000" font-family="sans-serif" font-size="13" lengthAdjust="spacing" textLength="94" x="2030" y="722.042">TeamRepository</text><text fill="#000000" font-family="sans-serif" font-size="13" lengthAdjust="spacing" textLength="7" x="2029.223" y="816.2554">1</text></g><!--link CollaboratorRepository to ICollaborator--><g id="link_CollaboratorRepository_ICollaborator"><path codeLine="196" d="M2185.05,1133.1937 C2145.92,1154.6837 2091.77,1181.7437 2041,1198.0137 C1839.28,1262.6437 1768.71,1201.0037 1571,1277.0137 C1564.24,1279.6137 1562.721,1279.9943 1556.101,1283.5343 " fill="none" id="CollaboratorRepository-to-ICollaborator" style="stroke:#181818;stroke-width:1.0;"/><polygon fill="#181818" points="1550.81,1286.3637,1560.6327,1285.647,1555.2192,1284.0059,1556.8603,1278.5923,1550.81,1286.3637" style="stroke:#181818;stroke-width:1.0;"/><text fill="#000000" font-family="sans-serif" font-size="13" lengthAdjust="spacing" textLength="88" x="1898" y="1243.042">collaboratorList</text><text fill="#000000" font-family="sans-serif" font-size="13" lengthAdjust="spacing" textLength="7" x="2167.4605" y="1154.795">1</text><text fill="#000000" font-family="sans-serif" font-size="13" lengthAdjust="spacing" textLength="5" x="1554.9438" y="1275.2439">*</text></g><!--link TeamRepository to Team--><g id="link_TeamRepository_Team"><path codeLine="199" d="M2044.89,894.5237 C2053.89,967.2237 2064.74,1144.5937 1976,1247.0137 C1944.97,1282.8237 1904.011,1301.4991 1858.951,1312.7591 " fill="none" id="TeamRepository-to-Team" style="stroke:#181818;stroke-width:1.0;"/><polygon fill="#181818" points="1853.13,1314.2137,1862.8312,1315.9124,1857.9808,1313.0015,1860.8918,1308.1511,1853.13,1314.2137" style="stroke:#181818;stroke-width:1.0;"/><text fill="#000000" font-family="sans-serif" font-size="13" lengthAdjust="spacing" textLength="50" x="2052" y="1105.042">teamList</text><text fill="#000000" font-family="sans-serif" font-size="13" lengthAdjust="spacing" textLength="7" x="2038.1376" y="916.0947">1</text><text fill="#000000" font-family="sans-serif" font-size="13" lengthAdjust="spacing" textLength="5" x="1860.9133" y="1309.9143">*</text></g><!--link Agenda to TasksAgenda--><g id="link_Agenda_TasksAgenda"><path codeLine="202" d="M1630,922.3037 C1630,957.8837 1630,996.7737 1630,1032.3337 " fill="none" id="Agenda-to-TasksAgenda" style="stroke:#181818;stroke-width:1.0;"/><polygon fill="#181818" points="1630,1038.3337,1634,1029.3337,1630,1033.3337,1626,1029.3337,1630,1038.3337" style="stroke:#181818;stroke-width:1.0;"/><text fill="#000000" font-family="sans-serif" font-size="13" lengthAdjust="spacing" textLength="76" x="1631" y="967.042">tasksAgenda</text><text fill="#000000" font-family="sans-serif" font-size="13" lengthAdjust="spacing" textLength="7" x="1622.5953" y="944.3903">1</text><text fill="#000000" font-family="sans-serif" font-size="13" lengthAdjust="spacing" textLength="7" x="1622.5953" y="1027.2941">1</text></g><!--link TasksAgenda to TaskAgenda--><g id="link_TasksAgenda_TaskAgenda"><path codeLine="204" d="M1544.91,1038.5137 C1505.06,1013.5937 1455.7,987.6837 1407,975.0137 C1319.16,952.1537 1227.2994,980.6466 1152.0094,1017.4866 " fill="none" id="TasksAgenda-to-TaskAgenda" style="stroke:#181818;stroke-width:1.0;"/><polygon fill="#181818" points="1146.62,1020.1237,1156.4622,1019.761,1151.1112,1017.9261,1152.9461,1012.5751,1146.62,1020.1237" style="stroke:#181818;stroke-width:1.0;"/><text fill="#000000" font-family="sans-serif" font-size="13" lengthAdjust="spacing" textLength="90" x="1316" y="967.042">taskAgendaList</text><text fill="#000000" font-family="sans-serif" font-size="13" lengthAdjust="spacing" textLength="7" x="1527.1131" y="1027.0599">1</text><text fill="#000000" font-family="sans-serif" font-size="13" lengthAdjust="spacing" textLength="5" x="1154.6101" y="1011.806">*</text></g><!--link TaskAgenda to GreenSpace--><g id="link_TaskAgenda_GreenSpace"><path codeLine="207" d="M1011.12,1198.3137 C1009.22,1225.4137 1007.6398,1247.7584 1006.0098,1270.9984 " fill="none" id="TaskAgenda-to-GreenSpace" style="stroke:#181818;stroke-width:1.0;"/><polygon fill="#181818" points="1005.59,1276.9837,1010.2099,1268.2856,1005.9398,1271.9959,1002.2295,1267.7259,1005.59,1276.9837" style="stroke:#181818;stroke-width:1.0;"/><text fill="#000000" font-family="sans-serif" font-size="13" lengthAdjust="spacing" textLength="69" x="1010" y="1243.042">greenSpace</text><text fill="#000000" font-family="sans-serif" font-size="13" lengthAdjust="spacing" textLength="5" x="1005.4605" y="1219.8979">*</text><text fill="#000000" font-family="sans-serif" font-size="13" lengthAdjust="spacing" textLength="7" x="998.6021" y="1265.907">1</text></g><!--link TaskAgenda to Task--><g id="link_TaskAgenda_Task"><path codeLine="208" d="M1146.83,1099.5137 C1167.57,1099.5137 1182.52,1099.5137 1201.77,1099.5137 " fill="none" id="TaskAgenda-to-Task" style="stroke:#181818;stroke-width:1.0;"/><polygon fill="#181818" points="1207.77,1099.5137,1198.77,1095.5137,1202.77,1099.5137,1198.77,1103.5137,1207.77,1099.5137" style="stroke:#181818;stroke-width:1.0;"/><text fill="#000000" font-family="sans-serif" font-size="13" lengthAdjust="spacing" textLength="25" x="1164.75" y="1092.542">task</text><text fill="#000000" font-family="sans-serif" font-size="13" lengthAdjust="spacing" textLength="20" x="1154.4223" y="1114.0156">1..*</text><text fill="#000000" font-family="sans-serif" font-size="13" lengthAdjust="spacing" textLength="7" x="1192.8668" y="1095.7606">1</text></g><!--link TaskAgenda to Team--><g id="link_TaskAgenda_Team"><path codeLine="209" d="M1146.94,1179.1837 C1161.18,1186.1737 1175.7,1192.6337 1190,1198.0137 C1351.84,1258.9437 1404.15,1231.5337 1571,1277.0137 C1590.64,1282.3637 1605.7691,1286.9828 1625.4391,1293.5528 " fill="none" id="TaskAgenda-to-Team" style="stroke:#181818;stroke-width:1.0;"/><polygon fill="#181818" points="1631.13,1295.4537,1623.8608,1288.8085,1626.3875,1293.8696,1621.3264,1296.3964,1631.13,1295.4537" style="stroke:#181818;stroke-width:1.0;"/><text fill="#000000" font-family="sans-serif" font-size="13" lengthAdjust="spacing" textLength="29" x="1406" y="1243.042">team</text><text fill="#000000" font-family="sans-serif" font-size="13" lengthAdjust="spacing" textLength="5" x="1154.5389" y="1180.3358">*</text><text fill="#000000" font-family="sans-serif" font-size="13" lengthAdjust="spacing" textLength="7" x="1605.7478" y="1284.2674">1</text></g><!--link TaskAgenda to TaskAgendaDto--><g id="link_TaskAgenda_TaskAgendaDto"><path codeLine="210" d="M964.99,1198.2737 C952.15,1223.5837 938.97,1251.0337 928,1277.0137 C900.06,1343.1737 921.15,1374.1537 876,1430.0137 C852.43,1459.1837 826.299,1480.6193 794.229,1500.7893 " fill="none" id="TaskAgenda-to-TaskAgendaDto" style="stroke:#181818;stroke-width:1.0;stroke-dasharray:7.0,7.0;"/><polygon fill="#181818" points="789.15,1503.9837,798.898,1502.5781,793.3825,1501.3217,794.6389,1495.8061,789.15,1503.9837" style="stroke:#181818;stroke-width:1.0;"/></g><!--link TaskAgenda to TaskAgendaMapper--><g id="link_TaskAgenda_TaskAgendaMapper"><path codeLine="211" d="M895.34,1198.0737 C792.3,1274.4937 637.92,1376.5337 486,1430.0137 C458.54,1439.6837 448.2,1427.6637 421,1438.0137 C364.55,1459.4937 313.3471,1496.6999 275.8071,1528.0199 " fill="none" id="TaskAgenda-to-TaskAgendaMapper" style="stroke:#181818;stroke-width:1.0;stroke-dasharray:7.0,7.0;"/><polygon fill="#181818" points="271.2,1531.8637,280.6732,1529.1694,275.0393,1528.6605,275.5482,1523.0266,271.2,1531.8637" style="stroke:#181818;stroke-width:1.0;"/></g><!--link TaskAgenda to TaskToDoList--><g id="link_TaskAgenda_TaskToDoList"><path codeLine="212" d="M1079.9,1198.3137 C1101.93,1233.1237 1122.0416,1264.8835 1138.1716,1290.3735 " fill="none" id="TaskAgenda-to-TaskToDoList" style="stroke:#181818;stroke-width:1.0;"/><polygon fill="#181818" points="1141.38,1295.4437,1139.9475,1285.6995,1138.7064,1291.2186,1133.1873,1289.9774,1141.38,1295.4437" style="stroke:#181818;stroke-width:1.0;"/><text fill="#000000" font-family="sans-serif" font-size="13" lengthAdjust="spacing" textLength="76" x="1109" y="1243.042">taskToDoList</text><text fill="#000000" font-family="sans-serif" font-size="13" lengthAdjust="spacing" textLength="7" x="1077.0063" y="1219.8979">1</text><text fill="#000000" font-family="sans-serif" font-size="13" lengthAdjust="spacing" textLength="7" x="1129.6314" y="1284.2554">1</text></g><!--link Team to Collaborator--><g id="link_Team_Collaborator"><path codeLine="215" d="M1705.61,1362.6037 C1689.76,1396.1637 1667.0118,1444.3181 1645.8818,1489.0681 " fill="none" id="Team-to-Collaborator" style="stroke:#181818;stroke-width:1.0;"/><polygon fill="#181818" points="1643.32,1494.4937,1650.7798,1488.0632,1645.4549,1489.9724,1643.5457,1484.6474,1643.32,1494.4937" style="stroke:#181818;stroke-width:1.0;"/><text fill="#000000" font-family="sans-serif" font-size="13" lengthAdjust="spacing" textLength="88" x="1682" y="1426.042">collaboratorList</text><text fill="#000000" font-family="sans-serif" font-size="13" lengthAdjust="spacing" textLength="7" x="1695.2452" y="1384.1889">1</text><text fill="#000000" font-family="sans-serif" font-size="13" lengthAdjust="spacing" textLength="20" x="1625.8386" y="1483.3876">1..*</text></g><!--SRC=[pLVBRjiu5DthAmXl8hU9WMmzWG6xRWe3pNHGEn_0IDSE6qdKa1HIJP1_7r9FYhfwP5Sl34dtVNZk9NabNrYIKa5Z4lE41y-2nq2KoC1h9IaDNkW5ZYgFW0W854qkaQqWdsd8Nrbo8MSQILiIiGHKdWBXGd7F4WGHbNAhb61FcO93m9CZ-m_8udRXULKyidWyBCZTtJsFGX2R3NdpYFuLbkGBJsGMgQsKx990UABoHNvdKZqUAhLtxzspN6bz9NWKWN1SJlXixIg_vlUPN40LuXseLu3azChtL87qfQ92cSTh0abOFkXlAfFBnlh6M7_HFkaJ5rHnSQz1FuAEoXD_MILlih-AuAo8uaImoxCY8JFOQwMsgZsFAKkmYXoLrJPD8nPGOuwfjo1OYbLEZK8BG0c2AOm5fff3ef-J0Fobes8gpOI0H7KBh8hiXdwK8APYQeT6xQikAkhuiZowjUzFFuPgReERvTnUzABH1vgc8Bg1o-26O7UjubxnZLuUxTvt99j8loyH3ntZohRzHlZJhwxL-tYgsWcMvr6tbMv6fVL-mXaq_04CguKW0y5IPSFUKxe8JVEZHXR-fZ7cp72TDFJtfchthQZNZlVhre-BniWgF_0G8dUT6tEMA11d7O1yQs9Xv3BnCHPl1L3qUnWAJTanMf-0ncwaPohDvrrkpm4_i5wMth37RrI4a10Mfn74khUaLTJRYDq3X2oB_w7YvUEstwcum4TDMzGFTg48xcv3Dp2L0Z3_Ov0OSZdhUMFtmTuYkTVdfU_eBCSZoQfVtrnVPnRfYikj8JyMWz_Gk71lPeHPz7f7i6ZUx1Ok05BlcstVxFB2MHcatA1gfqkdT1fsn3uYlqVS-1E5DtMZG6UQ8acGEq9D0WA_KxrtGRZF1EqDciQ-nCMHEOC54LROUOxCz9XEUPSNXIa495RltqERDyB7GPSzl6p6sqqpqWeD4eaxPAjIG_ttuxnZGZrZOXh6hDW_4QWgpqKd8IkawE-KvY1SHZFvzTzCd-gSuJHOTScGNcEKdx49MjDlS9t-YAv2k-74zzoelY7KAzFqtSDVvMTW3_i9APTC0voF7z8QFGQIzABRKWpnzhH6rXrbvF1cBNgR7BgC6YvRuozahtGvCDeohRF-c7Kos-MTNM9q9vvmExahksSHSykukkd_Qf0HaTTPlfjDTpdNkXrBKwz_5ZVQo5VB1atcyO2bCNA7Mgqs4zUXAUlEQG_FgdKsDplhDhOoGHpWXCtbEVR8PMUEcNrHcQEFqtgMQPUoiqmw-yiiY_OODoyd_N6sOic1UQinNzN0yi4KoclT1uq6kTjd3iPXh85r1ozk5pQ7D7CpYr5eF9lfqoEb3Z8mJzT3Z7G7a_5H7VdMzV8uaKebPxAkNTuEz3-M13uBq3fCv3A5JuikxNK6zjWsSmdFePid5jifpSIi8Xg93cHEBCC1IjHGSfJ05Wvh6AsxnRgujrHldcUBx1mQgfRwvVD8lOqEMcjxn3VEwxIiA_FQkgjtr6zNgqyBOjLH5J3aqmBFLa7wRrXQjNGdZIwOzGcjIgP-7UR240CipqMXKsJx7m00]--></g></svg>