<?xml version="1.0" encoding="us-ascii" standalone="no"?><svg xmlns="http://www.w3.org/2000/svg" xmlns:xlink="http://www.w3.org/1999/xlink" contentStyleType="text/css" height="1604px" preserveAspectRatio="none" style="width:2404px;height:1604px;background:#FFFFFF;" version="1.1" viewBox="0 0 2404 1604" width="2404px" zoomAndPan="magnify"><defs/><g><!--cluster UI--><g id="cluster_UI"><path d="M1923.5,6.0137 L1938.5,6.0137 A3.75,3.75 0 0 1 1941,8.5137 L1948,30.6348 L2160.5,30.6348 A2.5,2.5 0 0 1 2163,33.1348 L2163,125.5137 A2.5,2.5 0 0 1 2160.5,128.0137 L1923.5,128.0137 A2.5,2.5 0 0 1 1921,125.5137 L1921,8.5137 A2.5,2.5 0 0 1 1923.5,6.0137 " fill="none" style="stroke:#000000;stroke-width:1.5;"/><line style="stroke:#000000;stroke-width:1.5;" x1="1921" x2="1948" y1="30.6348" y2="30.6348"/><text fill="#000000" font-family="sans-serif" font-size="14" font-weight="bold" lengthAdjust="spacing" textLength="14" x="1925" y="23.1211">UI</text></g><!--cluster Controller--><g id="cluster_Controller"><path d="M1839.5,161.0137 L1911.5,161.0137 A3.75,3.75 0 0 1 1914,163.5137 L1921,185.6348 L2244.5,185.6348 A2.5,2.5 0 0 1 2247,188.1348 L2247,317.5137 A2.5,2.5 0 0 1 2244.5,320.0137 L1839.5,320.0137 A2.5,2.5 0 0 1 1837,317.5137 L1837,163.5137 A2.5,2.5 0 0 1 1839.5,161.0137 " fill="none" style="stroke:#000000;stroke-width:1.5;"/><line style="stroke:#000000;stroke-width:1.5;" x1="1837" x2="1921" y1="185.6348" y2="185.6348"/><text fill="#000000" font-family="sans-serif" font-size="14" font-weight="bold" lengthAdjust="spacing" textLength="71" x="1841" y="178.1211">Controller</text></g><!--cluster Domain--><g id="cluster_Domain"><path d="M89.5,451.0137 L142.5,451.0137 A3.75,3.75 0 0 1 145,453.5137 L152,475.6348 L2029.5,475.6348 A2.5,2.5 0 0 1 2032,478.1348 L2032,1594.5137 A2.5,2.5 0 0 1 2029.5,1597.0137 L89.5,1597.0137 A2.5,2.5 0 0 1 87,1594.5137 L87,453.5137 A2.5,2.5 0 0 1 89.5,451.0137 " fill="none" style="stroke:#000000;stroke-width:1.5;"/><line style="stroke:#000000;stroke-width:1.5;" x1="87" x2="152" y1="475.6348" y2="475.6348"/><text fill="#000000" font-family="sans-serif" font-size="14" font-weight="bold" lengthAdjust="spacing" textLength="52" x="91" y="468.1211">Domain</text></g><!--cluster Application--><g id="cluster_Application"><path d="M634.5,524.0137 L713.5,524.0137 A3.75,3.75 0 0 1 716,526.5137 L723,548.6348 L894.5,548.6348 A2.5,2.5 0 0 1 897,551.1348 L897,919.5137 A2.5,2.5 0 0 1 894.5,922.0137 L634.5,922.0137 A2.5,2.5 0 0 1 632,919.5137 L632,526.5137 A2.5,2.5 0 0 1 634.5,524.0137 " fill="none" style="stroke:#000000;stroke-width:1.5;"/><line style="stroke:#000000;stroke-width:1.5;" x1="632" x2="723" y1="548.6348" y2="548.6348"/><text fill="#000000" font-family="sans-serif" font-size="14" font-weight="bold" lengthAdjust="spacing" textLength="78" x="636" y="541.1211">Application</text></g><!--cluster Model--><g id="cluster_Model"><path d="M923.5,505.5137 L968.5,505.5137 A3.75,3.75 0 0 1 971,508.0137 L978,530.1348 L2005.5,530.1348 A2.5,2.5 0 0 1 2008,532.6348 L2008,1570.5137 A2.5,2.5 0 0 1 2005.5,1573.0137 L923.5,1573.0137 A2.5,2.5 0 0 1 921,1570.5137 L921,508.0137 A2.5,2.5 0 0 1 923.5,505.5137 " fill="none" style="stroke:#000000;stroke-width:1.5;"/><line style="stroke:#000000;stroke-width:1.5;" x1="921" x2="978" y1="530.1348" y2="530.1348"/><text fill="#000000" font-family="sans-serif" font-size="14" font-weight="bold" lengthAdjust="spacing" textLength="44" x="925" y="522.6211">Model</text></g><!--cluster Repository--><g id="cluster_Repository"><path d="M113.5,496.0137 L190.5,496.0137 A3.75,3.75 0 0 1 193,498.5137 L200,520.6348 L605.5,520.6348 A2.5,2.5 0 0 1 608,523.1348 L608,1149.0137 A2.5,2.5 0 0 1 605.5,1151.5137 L113.5,1151.5137 A2.5,2.5 0 0 1 111,1149.0137 L111,498.5137 A2.5,2.5 0 0 1 113.5,496.0137 " fill="none" style="stroke:#000000;stroke-width:1.5;"/><line style="stroke:#000000;stroke-width:1.5;" x1="111" x2="200" y1="520.6348" y2="520.6348"/><text fill="#000000" font-family="sans-serif" font-size="14" font-weight="bold" lengthAdjust="spacing" textLength="76" x="115" y="513.1211">Repository</text></g><!--class ConsultAssignedTasksListUI--><g id="elem_ConsultAssignedTasksListUI"><rect codeLine="9" fill="#F1F1F1" height="48" id="ConsultAssignedTasksListUI" rx="2.5" ry="2.5" style="stroke:#181818;stroke-width:0.5;" width="210" x="1937" y="64.0137"/><ellipse cx="1952" cy="80.0137" fill="#ADD1B2" rx="11" ry="11" style="stroke:#181818;stroke-width:1.0;"/><path d="M1954.7656,75.8887 Q1954.9219,75.6699 1955.1094,75.5605 Q1955.2969,75.4512 1955.5156,75.4512 Q1955.8906,75.4512 1956.125,75.7168 Q1956.3594,75.9668 1956.3594,76.5762 L1956.3594,78.0293 Q1956.3594,78.6387 1956.125,78.9043 Q1955.8906,79.1699 1955.5156,79.1699 Q1955.1719,79.1699 1954.9688,78.9668 Q1954.7656,78.7793 1954.6563,78.2637 Q1954.6094,77.9043 1954.4219,77.7168 Q1954.0938,77.3418 1953.4844,77.123 Q1952.875,76.9043 1952.25,76.9043 Q1951.4844,76.9043 1950.8438,77.2324 Q1950.2188,77.5605 1949.7188,78.3105 Q1949.2344,79.0605 1949.2344,80.0918 L1949.2344,81.1855 Q1949.2344,82.4199 1950.125,83.248 Q1951.0156,84.0605 1952.6094,84.0605 Q1953.5469,84.0605 1954.2031,83.8105 Q1954.5938,83.6543 1955.0156,83.2168 Q1955.2813,82.9512 1955.4219,82.873 Q1955.5781,82.7949 1955.7813,82.7949 Q1956.1094,82.7949 1956.3594,83.0605 Q1956.625,83.3105 1956.625,83.6543 Q1956.625,83.998 1956.2813,84.4043 Q1955.7813,84.9824 1954.9844,85.3105 Q1953.9063,85.7637 1952.6094,85.7637 Q1951.0938,85.7637 1949.8906,85.1387 Q1948.9063,84.6387 1948.2188,83.5762 Q1947.5313,82.498 1947.5313,81.2168 L1947.5313,80.0605 Q1947.5313,78.7324 1948.1406,77.5918 Q1948.7656,76.4355 1949.8594,75.8262 Q1950.9531,75.2012 1952.1875,75.2012 Q1952.9219,75.2012 1953.5625,75.373 Q1954.2188,75.5293 1954.7656,75.8887 Z " fill="#000000"/><text fill="#000000" font-family="sans-serif" font-size="14" lengthAdjust="spacing" textLength="178" x="1966" y="85.8105">ConsultAssignedTasksListUI</text><line style="stroke:#181818;stroke-width:0.5;" x1="1938" x2="2146" y1="96.0137" y2="96.0137"/><line style="stroke:#181818;stroke-width:0.5;" x1="1938" x2="2146" y1="104.0137" y2="104.0137"/></g><!--class ConsultAssignedTasksController--><g id="elem_ConsultAssignedTasksController"><rect codeLine="16" fill="#F1F1F1" height="85.2422" id="ConsultAssignedTasksController" rx="2.5" ry="2.5" style="stroke:#181818;stroke-width:0.5;" width="377" x="1853.5" y="219.0137"/><ellipse cx="1934.75" cy="235.0137" fill="#ADD1B2" rx="11" ry="11" style="stroke:#181818;stroke-width:1.0;"/><path d="M1937.5156,230.8887 Q1937.6719,230.6699 1937.8594,230.5605 Q1938.0469,230.4512 1938.2656,230.4512 Q1938.6406,230.4512 1938.875,230.7168 Q1939.1094,230.9668 1939.1094,231.5762 L1939.1094,233.0293 Q1939.1094,233.6387 1938.875,233.9043 Q1938.6406,234.1699 1938.2656,234.1699 Q1937.9219,234.1699 1937.7188,233.9668 Q1937.5156,233.7793 1937.4063,233.2637 Q1937.3594,232.9043 1937.1719,232.7168 Q1936.8438,232.3418 1936.2344,232.123 Q1935.625,231.9043 1935,231.9043 Q1934.2344,231.9043 1933.5938,232.2324 Q1932.9688,232.5605 1932.4688,233.3105 Q1931.9844,234.0605 1931.9844,235.0918 L1931.9844,236.1855 Q1931.9844,237.4199 1932.875,238.248 Q1933.7656,239.0605 1935.3594,239.0605 Q1936.2969,239.0605 1936.9531,238.8105 Q1937.3438,238.6543 1937.7656,238.2168 Q1938.0313,237.9512 1938.1719,237.873 Q1938.3281,237.7949 1938.5313,237.7949 Q1938.8594,237.7949 1939.1094,238.0605 Q1939.375,238.3105 1939.375,238.6543 Q1939.375,238.998 1939.0313,239.4043 Q1938.5313,239.9824 1937.7344,240.3105 Q1936.6563,240.7637 1935.3594,240.7637 Q1933.8438,240.7637 1932.6406,240.1387 Q1931.6563,239.6387 1930.9688,238.5762 Q1930.2813,237.498 1930.2813,236.2168 L1930.2813,235.0605 Q1930.2813,233.7324 1930.8906,232.5918 Q1931.5156,231.4355 1932.6094,230.8262 Q1933.7031,230.2012 1934.9375,230.2012 Q1935.6719,230.2012 1936.3125,230.373 Q1936.9688,230.5293 1937.5156,230.8887 Z " fill="#000000"/><text fill="#000000" font-family="sans-serif" font-size="14" lengthAdjust="spacing" textLength="206" x="1955.25" y="240.8105">ConsultAssignedTasksController</text><line style="stroke:#181818;stroke-width:0.5;" x1="1854.5" x2="2229.5" y1="251.0137" y2="251.0137"/><line style="stroke:#181818;stroke-width:0.5;" x1="1854.5" x2="2229.5" y1="259.0137" y2="259.0137"/><ellipse cx="1864.5" cy="273.8242" fill="#84BE84" rx="3" ry="3" style="stroke:#038048;stroke-width:1.0;"/><text fill="#000000" font-family="sans-serif" font-size="14" lengthAdjust="spacing" textLength="351" x="1873.5" y="278.1211">getTasksBetweenTwoDates(startDate, endDate, status)</text><rect fill="#F24D5C" height="6" style="stroke:#C82930;stroke-width:1.0;" width="6" x="1861.5" y="289.4453"/><text fill="#000000" font-family="sans-serif" font-size="14" lengthAdjust="spacing" textLength="191" x="1873.5" y="296.7422">getCollaboratorFromSession()</text></g><!--class ApplicationSession--><g id="elem_ApplicationSession"><rect codeLine="28" fill="#F1F1F1" height="85.2422" id="ApplicationSession" rx="2.5" ry="2.5" style="stroke:#181818;stroke-width:0.5;" width="154" x="648" y="582.0137"/><ellipse cx="664.35" cy="598.0137" fill="#ADD1B2" rx="11" ry="11" style="stroke:#181818;stroke-width:1.0;"/><path d="M667.1156,593.8887 Q667.2719,593.6699 667.4594,593.5605 Q667.6469,593.4512 667.8656,593.4512 Q668.2406,593.4512 668.475,593.7168 Q668.7094,593.9668 668.7094,594.5762 L668.7094,596.0293 Q668.7094,596.6387 668.475,596.9043 Q668.2406,597.1699 667.8656,597.1699 Q667.5219,597.1699 667.3188,596.9668 Q667.1156,596.7793 667.0063,596.2637 Q666.9594,595.9043 666.7719,595.7168 Q666.4438,595.3418 665.8344,595.123 Q665.225,594.9043 664.6,594.9043 Q663.8344,594.9043 663.1938,595.2324 Q662.5688,595.5605 662.0688,596.3105 Q661.5844,597.0605 661.5844,598.0918 L661.5844,599.1855 Q661.5844,600.4199 662.475,601.248 Q663.3656,602.0605 664.9594,602.0605 Q665.8969,602.0605 666.5531,601.8105 Q666.9438,601.6543 667.3656,601.2168 Q667.6313,600.9512 667.7719,600.873 Q667.9281,600.7949 668.1313,600.7949 Q668.4594,600.7949 668.7094,601.0605 Q668.975,601.3105 668.975,601.6543 Q668.975,601.998 668.6313,602.4043 Q668.1313,602.9824 667.3344,603.3105 Q666.2563,603.7637 664.9594,603.7637 Q663.4438,603.7637 662.2406,603.1387 Q661.2563,602.6387 660.5688,601.5762 Q659.8813,600.498 659.8813,599.2168 L659.8813,598.0605 Q659.8813,596.7324 660.4906,595.5918 Q661.1156,594.4355 662.2094,593.8262 Q663.3031,593.2012 664.5375,593.2012 Q665.2719,593.2012 665.9125,593.373 Q666.5688,593.5293 667.1156,593.8887 Z " fill="#000000"/><text fill="#000000" font-family="sans-serif" font-size="14" lengthAdjust="spacing" textLength="119" x="678.65" y="603.8105">ApplicationSession</text><line style="stroke:#181818;stroke-width:0.5;" x1="649" x2="801" y1="614.0137" y2="614.0137"/><line style="stroke:#181818;stroke-width:0.5;" x1="649" x2="801" y1="622.0137" y2="622.0137"/><ellipse cx="659" cy="636.8242" fill="#84BE84" rx="3" ry="3" style="stroke:#038048;stroke-width:1.0;"/><text fill="#000000" font-family="sans-serif" font-size="14" lengthAdjust="spacing" textLength="120" x="668" y="641.1211">static getInstance()</text><ellipse cx="659" cy="655.4453" fill="#84BE84" rx="3" ry="3" style="stroke:#038048;stroke-width:1.0;"/><text fill="#000000" font-family="sans-serif" font-size="14" lengthAdjust="spacing" textLength="128" x="668" y="659.7422">getCurrentSession()</text></g><!--class UserSession--><g id="elem_UserSession"><rect codeLine="34" fill="#F1F1F1" height="66.6211" id="UserSession" rx="2.5" ry="2.5" style="stroke:#181818;stroke-width:0.5;" width="119" x="656.5" y="839.0137"/><ellipse cx="675.1" cy="855.0137" fill="#ADD1B2" rx="11" ry="11" style="stroke:#181818;stroke-width:1.0;"/><path d="M677.8656,850.8887 Q678.0219,850.6699 678.2094,850.5605 Q678.3969,850.4512 678.6156,850.4512 Q678.9906,850.4512 679.225,850.7168 Q679.4594,850.9668 679.4594,851.5762 L679.4594,853.0293 Q679.4594,853.6387 679.225,853.9043 Q678.9906,854.1699 678.6156,854.1699 Q678.2719,854.1699 678.0688,853.9668 Q677.8656,853.7793 677.7563,853.2637 Q677.7094,852.9043 677.5219,852.7168 Q677.1938,852.3418 676.5844,852.123 Q675.975,851.9043 675.35,851.9043 Q674.5844,851.9043 673.9438,852.2324 Q673.3188,852.5605 672.8188,853.3105 Q672.3344,854.0605 672.3344,855.0918 L672.3344,856.1855 Q672.3344,857.4199 673.225,858.248 Q674.1156,859.0605 675.7094,859.0605 Q676.6469,859.0605 677.3031,858.8105 Q677.6938,858.6543 678.1156,858.2168 Q678.3813,857.9512 678.5219,857.873 Q678.6781,857.7949 678.8813,857.7949 Q679.2094,857.7949 679.4594,858.0605 Q679.725,858.3105 679.725,858.6543 Q679.725,858.998 679.3813,859.4043 Q678.8813,859.9824 678.0844,860.3105 Q677.0063,860.7637 675.7094,860.7637 Q674.1938,860.7637 672.9906,860.1387 Q672.0063,859.6387 671.3188,858.5762 Q670.6313,857.498 670.6313,856.2168 L670.6313,855.0605 Q670.6313,853.7324 671.2406,852.5918 Q671.8656,851.4355 672.9594,850.8262 Q674.0531,850.2012 675.2875,850.2012 Q676.0219,850.2012 676.6625,850.373 Q677.3188,850.5293 677.8656,850.8887 Z " fill="#000000"/><text fill="#000000" font-family="sans-serif" font-size="14" lengthAdjust="spacing" textLength="79" x="689.9" y="860.8105">UserSession</text><line style="stroke:#181818;stroke-width:0.5;" x1="657.5" x2="774.5" y1="871.0137" y2="871.0137"/><line style="stroke:#181818;stroke-width:0.5;" x1="657.5" x2="774.5" y1="879.0137" y2="879.0137"/><ellipse cx="667.5" cy="893.8242" fill="#84BE84" rx="3" ry="3" style="stroke:#038048;stroke-width:1.0;"/><text fill="#000000" font-family="sans-serif" font-size="14" lengthAdjust="spacing" textLength="93" x="676.5" y="898.1211">getUserEmail()</text></g><!--class GreenSpace--><g id="elem_GreenSpace"><rect codeLine="42" fill="#F1F1F1" height="103.8633" id="GreenSpace" rx="2.5" ry="2.5" style="stroke:#181818;stroke-width:0.5;" width="112" x="1582" y="1050.0137"/><ellipse cx="1597" cy="1066.0137" fill="#B4A7E5" rx="11" ry="11" style="stroke:#181818;stroke-width:1.0;"/><path d="M1597.9531,1062.6543 L1597.9531,1069.3105 L1599.6719,1069.3105 Q1600.2813,1069.3105 1600.5469,1069.5449 Q1600.8125,1069.7793 1600.8125,1070.1699 Q1600.8125,1070.5449 1600.5469,1070.7793 Q1600.2813,1071.0137 1599.6719,1071.0137 L1594.5313,1071.0137 Q1593.9219,1071.0137 1593.6563,1070.7793 Q1593.3906,1070.5449 1593.3906,1070.1543 Q1593.3906,1069.7793 1593.6563,1069.5449 Q1593.9219,1069.3105 1594.5313,1069.3105 L1596.25,1069.3105 L1596.25,1062.6543 L1594.5313,1062.6543 Q1593.9219,1062.6543 1593.6563,1062.4199 Q1593.3906,1062.1855 1593.3906,1061.7949 Q1593.3906,1061.4199 1593.6563,1061.1855 Q1593.9219,1060.9512 1594.5313,1060.9512 L1599.6719,1060.9512 Q1600.2813,1060.9512 1600.5469,1061.1855 Q1600.8125,1061.4199 1600.8125,1061.7949 Q1600.8125,1062.1855 1600.5469,1062.4199 Q1600.2813,1062.6543 1599.6719,1062.6543 L1597.9531,1062.6543 Z " fill="#000000"/><text fill="#000000" font-family="sans-serif" font-size="14" font-style="italic" lengthAdjust="spacing" textLength="80" x="1611" y="1071.8105">GreenSpace</text><line style="stroke:#181818;stroke-width:0.5;" x1="1583" x2="1693" y1="1082.0137" y2="1082.0137"/><line style="stroke:#181818;stroke-width:0.5;" x1="1583" x2="1693" y1="1090.0137" y2="1090.0137"/><ellipse cx="1593" cy="1104.8242" fill="#84BE84" rx="3" ry="3" style="stroke:#038048;stroke-width:1.0;"/><text fill="#000000" font-family="sans-serif" font-size="14" lengthAdjust="spacing" textLength="66" x="1602" y="1109.1211">getName()</text><ellipse cx="1593" cy="1123.4453" fill="#84BE84" rx="3" ry="3" style="stroke:#038048;stroke-width:1.0;"/><text fill="#000000" font-family="sans-serif" font-size="14" lengthAdjust="spacing" textLength="60" x="1602" y="1127.7422">getArea()</text><ellipse cx="1593" cy="1142.0664" fill="#84BE84" rx="3" ry="3" style="stroke:#038048;stroke-width:1.0;"/><text fill="#000000" font-family="sans-serif" font-size="14" lengthAdjust="spacing" textLength="82" x="1602" y="1146.3633">getAddress()</text></g><!--class Team--><g id="elem_Team"><rect codeLine="48" fill="#F1F1F1" height="66.6211" id="Team" rx="2.5" ry="2.5" style="stroke:#181818;stroke-width:0.5;" width="264" x="942" y="1242.0137"/><ellipse cx="1051.75" cy="1258.0137" fill="#ADD1B2" rx="11" ry="11" style="stroke:#181818;stroke-width:1.0;"/><path d="M1054.5156,1253.8887 Q1054.6719,1253.6699 1054.8594,1253.5605 Q1055.0469,1253.4512 1055.2656,1253.4512 Q1055.6406,1253.4512 1055.875,1253.7168 Q1056.1094,1253.9668 1056.1094,1254.5762 L1056.1094,1256.0293 Q1056.1094,1256.6387 1055.875,1256.9043 Q1055.6406,1257.1699 1055.2656,1257.1699 Q1054.9219,1257.1699 1054.7188,1256.9668 Q1054.5156,1256.7793 1054.4063,1256.2637 Q1054.3594,1255.9043 1054.1719,1255.7168 Q1053.8438,1255.3418 1053.2344,1255.123 Q1052.625,1254.9043 1052,1254.9043 Q1051.2344,1254.9043 1050.5938,1255.2324 Q1049.9688,1255.5605 1049.4688,1256.3105 Q1048.9844,1257.0605 1048.9844,1258.0918 L1048.9844,1259.1855 Q1048.9844,1260.4199 1049.875,1261.248 Q1050.7656,1262.0605 1052.3594,1262.0605 Q1053.2969,1262.0605 1053.9531,1261.8105 Q1054.3438,1261.6543 1054.7656,1261.2168 Q1055.0313,1260.9512 1055.1719,1260.873 Q1055.3281,1260.7949 1055.5313,1260.7949 Q1055.8594,1260.7949 1056.1094,1261.0605 Q1056.375,1261.3105 1056.375,1261.6543 Q1056.375,1261.998 1056.0313,1262.4043 Q1055.5313,1262.9824 1054.7344,1263.3105 Q1053.6563,1263.7637 1052.3594,1263.7637 Q1050.8438,1263.7637 1049.6406,1263.1387 Q1048.6563,1262.6387 1047.9688,1261.5762 Q1047.2813,1260.498 1047.2813,1259.2168 L1047.2813,1258.0605 Q1047.2813,1256.7324 1047.8906,1255.5918 Q1048.5156,1254.4355 1049.6094,1253.8262 Q1050.7031,1253.2012 1051.9375,1253.2012 Q1052.6719,1253.2012 1053.3125,1253.373 Q1053.9688,1253.5293 1054.5156,1253.8887 Z " fill="#000000"/><text fill="#000000" font-family="sans-serif" font-size="14" lengthAdjust="spacing" textLength="36" x="1072.25" y="1263.8105">Team</text><line style="stroke:#181818;stroke-width:0.5;" x1="943" x2="1205" y1="1274.0137" y2="1274.0137"/><line style="stroke:#181818;stroke-width:0.5;" x1="943" x2="1205" y1="1282.0137" y2="1282.0137"/><ellipse cx="953" cy="1296.8242" fill="#84BE84" rx="3" ry="3" style="stroke:#038048;stroke-width:1.0;"/><text fill="#000000" font-family="sans-serif" font-size="14" lengthAdjust="spacing" textLength="238" x="962" y="1301.1211">hasTeamByCollaborator(collaborator)</text></g><!--class Garden--><g id="elem_Garden"><rect codeLine="53" fill="#F1F1F1" height="48" id="Garden" rx="2.5" ry="2.5" style="stroke:#181818;stroke-width:0.5;" width="80" x="1276" y="1251.5137"/><ellipse cx="1291" cy="1267.5137" fill="#ADD1B2" rx="11" ry="11" style="stroke:#181818;stroke-width:1.0;"/><path d="M1293.7656,1263.3887 Q1293.9219,1263.1699 1294.1094,1263.0605 Q1294.2969,1262.9512 1294.5156,1262.9512 Q1294.8906,1262.9512 1295.125,1263.2168 Q1295.3594,1263.4668 1295.3594,1264.0762 L1295.3594,1265.5293 Q1295.3594,1266.1387 1295.125,1266.4043 Q1294.8906,1266.6699 1294.5156,1266.6699 Q1294.1719,1266.6699 1293.9688,1266.4668 Q1293.7656,1266.2793 1293.6563,1265.7637 Q1293.6094,1265.4043 1293.4219,1265.2168 Q1293.0938,1264.8418 1292.4844,1264.623 Q1291.875,1264.4043 1291.25,1264.4043 Q1290.4844,1264.4043 1289.8438,1264.7324 Q1289.2188,1265.0605 1288.7188,1265.8105 Q1288.2344,1266.5605 1288.2344,1267.5918 L1288.2344,1268.6855 Q1288.2344,1269.9199 1289.125,1270.748 Q1290.0156,1271.5605 1291.6094,1271.5605 Q1292.5469,1271.5605 1293.2031,1271.3105 Q1293.5938,1271.1543 1294.0156,1270.7168 Q1294.2813,1270.4512 1294.4219,1270.373 Q1294.5781,1270.2949 1294.7813,1270.2949 Q1295.1094,1270.2949 1295.3594,1270.5605 Q1295.625,1270.8105 1295.625,1271.1543 Q1295.625,1271.498 1295.2813,1271.9043 Q1294.7813,1272.4824 1293.9844,1272.8105 Q1292.9063,1273.2637 1291.6094,1273.2637 Q1290.0938,1273.2637 1288.8906,1272.6387 Q1287.9063,1272.1387 1287.2188,1271.0762 Q1286.5313,1269.998 1286.5313,1268.7168 L1286.5313,1267.5605 Q1286.5313,1266.2324 1287.1406,1265.0918 Q1287.7656,1263.9355 1288.8594,1263.3262 Q1289.9531,1262.7012 1291.1875,1262.7012 Q1291.9219,1262.7012 1292.5625,1262.873 Q1293.2188,1263.0293 1293.7656,1263.3887 Z " fill="#000000"/><text fill="#000000" font-family="sans-serif" font-size="14" lengthAdjust="spacing" textLength="48" x="1305" y="1273.3105">Garden</text><line style="stroke:#181818;stroke-width:0.5;" x1="1277" x2="1355" y1="1283.5137" y2="1283.5137"/><line style="stroke:#181818;stroke-width:0.5;" x1="1277" x2="1355" y1="1291.5137" y2="1291.5137"/></g><!--class MediumPark--><g id="elem_MediumPark"><rect codeLine="57" fill="#F1F1F1" height="48" id="MediumPark" rx="2.5" ry="2.5" style="stroke:#181818;stroke-width:0.5;" width="110" x="1570" y="1251.5137"/><ellipse cx="1585" cy="1267.5137" fill="#ADD1B2" rx="11" ry="11" style="stroke:#181818;stroke-width:1.0;"/><path d="M1587.7656,1263.3887 Q1587.9219,1263.1699 1588.1094,1263.0605 Q1588.2969,1262.9512 1588.5156,1262.9512 Q1588.8906,1262.9512 1589.125,1263.2168 Q1589.3594,1263.4668 1589.3594,1264.0762 L1589.3594,1265.5293 Q1589.3594,1266.1387 1589.125,1266.4043 Q1588.8906,1266.6699 1588.5156,1266.6699 Q1588.1719,1266.6699 1587.9688,1266.4668 Q1587.7656,1266.2793 1587.6563,1265.7637 Q1587.6094,1265.4043 1587.4219,1265.2168 Q1587.0938,1264.8418 1586.4844,1264.623 Q1585.875,1264.4043 1585.25,1264.4043 Q1584.4844,1264.4043 1583.8438,1264.7324 Q1583.2188,1265.0605 1582.7188,1265.8105 Q1582.2344,1266.5605 1582.2344,1267.5918 L1582.2344,1268.6855 Q1582.2344,1269.9199 1583.125,1270.748 Q1584.0156,1271.5605 1585.6094,1271.5605 Q1586.5469,1271.5605 1587.2031,1271.3105 Q1587.5938,1271.1543 1588.0156,1270.7168 Q1588.2813,1270.4512 1588.4219,1270.373 Q1588.5781,1270.2949 1588.7813,1270.2949 Q1589.1094,1270.2949 1589.3594,1270.5605 Q1589.625,1270.8105 1589.625,1271.1543 Q1589.625,1271.498 1589.2813,1271.9043 Q1588.7813,1272.4824 1587.9844,1272.8105 Q1586.9063,1273.2637 1585.6094,1273.2637 Q1584.0938,1273.2637 1582.8906,1272.6387 Q1581.9063,1272.1387 1581.2188,1271.0762 Q1580.5313,1269.998 1580.5313,1268.7168 L1580.5313,1267.5605 Q1580.5313,1266.2324 1581.1406,1265.0918 Q1581.7656,1263.9355 1582.8594,1263.3262 Q1583.9531,1262.7012 1585.1875,1262.7012 Q1585.9219,1262.7012 1586.5625,1262.873 Q1587.2188,1263.0293 1587.7656,1263.3887 Z " fill="#000000"/><text fill="#000000" font-family="sans-serif" font-size="14" lengthAdjust="spacing" textLength="78" x="1599" y="1273.3105">MediumPark</text><line style="stroke:#181818;stroke-width:0.5;" x1="1571" x2="1679" y1="1283.5137" y2="1283.5137"/><line style="stroke:#181818;stroke-width:0.5;" x1="1571" x2="1679" y1="1291.5137" y2="1291.5137"/></g><!--class LargePark--><g id="elem_LargePark"><rect codeLine="61" fill="#F1F1F1" height="48" id="LargePark" rx="2.5" ry="2.5" style="stroke:#181818;stroke-width:0.5;" width="98" x="1715" y="1251.5137"/><ellipse cx="1730" cy="1267.5137" fill="#ADD1B2" rx="11" ry="11" style="stroke:#181818;stroke-width:1.0;"/><path d="M1732.7656,1263.3887 Q1732.9219,1263.1699 1733.1094,1263.0605 Q1733.2969,1262.9512 1733.5156,1262.9512 Q1733.8906,1262.9512 1734.125,1263.2168 Q1734.3594,1263.4668 1734.3594,1264.0762 L1734.3594,1265.5293 Q1734.3594,1266.1387 1734.125,1266.4043 Q1733.8906,1266.6699 1733.5156,1266.6699 Q1733.1719,1266.6699 1732.9688,1266.4668 Q1732.7656,1266.2793 1732.6563,1265.7637 Q1732.6094,1265.4043 1732.4219,1265.2168 Q1732.0938,1264.8418 1731.4844,1264.623 Q1730.875,1264.4043 1730.25,1264.4043 Q1729.4844,1264.4043 1728.8438,1264.7324 Q1728.2188,1265.0605 1727.7188,1265.8105 Q1727.2344,1266.5605 1727.2344,1267.5918 L1727.2344,1268.6855 Q1727.2344,1269.9199 1728.125,1270.748 Q1729.0156,1271.5605 1730.6094,1271.5605 Q1731.5469,1271.5605 1732.2031,1271.3105 Q1732.5938,1271.1543 1733.0156,1270.7168 Q1733.2813,1270.4512 1733.4219,1270.373 Q1733.5781,1270.2949 1733.7813,1270.2949 Q1734.1094,1270.2949 1734.3594,1270.5605 Q1734.625,1270.8105 1734.625,1271.1543 Q1734.625,1271.498 1734.2813,1271.9043 Q1733.7813,1272.4824 1732.9844,1272.8105 Q1731.9063,1273.2637 1730.6094,1273.2637 Q1729.0938,1273.2637 1727.8906,1272.6387 Q1726.9063,1272.1387 1726.2188,1271.0762 Q1725.5313,1269.998 1725.5313,1268.7168 L1725.5313,1267.5605 Q1725.5313,1266.2324 1726.1406,1265.0918 Q1726.7656,1263.9355 1727.8594,1263.3262 Q1728.9531,1262.7012 1730.1875,1262.7012 Q1730.9219,1262.7012 1731.5625,1262.873 Q1732.2188,1263.0293 1732.7656,1263.3887 Z " fill="#000000"/><text fill="#000000" font-family="sans-serif" font-size="14" lengthAdjust="spacing" textLength="66" x="1744" y="1273.3105">LargePark</text><line style="stroke:#181818;stroke-width:0.5;" x1="1716" x2="1812" y1="1283.5137" y2="1283.5137"/><line style="stroke:#181818;stroke-width:0.5;" x1="1716" x2="1812" y1="1291.5137" y2="1291.5137"/></g><!--class ICollaborator--><g id="elem_ICollaborator"><rect codeLine="65" fill="#F1F1F1" height="85.2422" id="ICollaborator" rx="2.5" ry="2.5" style="stroke:#181818;stroke-width:0.5;" width="126" x="1391" y="1233.0137"/><ellipse cx="1411.4" cy="1249.0137" fill="#B4A7E5" rx="11" ry="11" style="stroke:#181818;stroke-width:1.0;"/><path d="M1412.3531,1245.6543 L1412.3531,1252.3105 L1414.0719,1252.3105 Q1414.6813,1252.3105 1414.9469,1252.5449 Q1415.2125,1252.7793 1415.2125,1253.1699 Q1415.2125,1253.5449 1414.9469,1253.7793 Q1414.6813,1254.0137 1414.0719,1254.0137 L1408.9313,1254.0137 Q1408.3219,1254.0137 1408.0563,1253.7793 Q1407.7906,1253.5449 1407.7906,1253.1543 Q1407.7906,1252.7793 1408.0563,1252.5449 Q1408.3219,1252.3105 1408.9313,1252.3105 L1410.65,1252.3105 L1410.65,1245.6543 L1408.9313,1245.6543 Q1408.3219,1245.6543 1408.0563,1245.4199 Q1407.7906,1245.1855 1407.7906,1244.7949 Q1407.7906,1244.4199 1408.0563,1244.1855 Q1408.3219,1243.9512 1408.9313,1243.9512 L1414.0719,1243.9512 Q1414.6813,1243.9512 1414.9469,1244.1855 Q1415.2125,1244.4199 1415.2125,1244.7949 Q1415.2125,1245.1855 1414.9469,1245.4199 Q1414.6813,1245.6543 1414.0719,1245.6543 L1412.3531,1245.6543 Z " fill="#000000"/><text fill="#000000" font-family="sans-serif" font-size="14" font-style="italic" lengthAdjust="spacing" textLength="82" x="1426.6" y="1254.8105">ICollaborator</text><line style="stroke:#181818;stroke-width:0.5;" x1="1392" x2="1516" y1="1265.0137" y2="1265.0137"/><line style="stroke:#181818;stroke-width:0.5;" x1="1392" x2="1516" y1="1273.0137" y2="1273.0137"/><ellipse cx="1402" cy="1287.8242" fill="#84BE84" rx="3" ry="3" style="stroke:#038048;stroke-width:1.0;"/><text fill="#000000" font-family="sans-serif" font-size="14" lengthAdjust="spacing" textLength="64" x="1411" y="1292.1211">getEmail()</text><ellipse cx="1402" cy="1306.4453" fill="#84BE84" rx="3" ry="3" style="stroke:#038048;stroke-width:1.0;"/><text fill="#000000" font-family="sans-serif" font-size="14" lengthAdjust="spacing" textLength="100" x="1411" y="1310.7422">hasEmail(email)</text></g><!--class Task--><g id="elem_Task"><rect codeLine="71" fill="#F1F1F1" height="85.2422" id="Task" rx="2.5" ry="2.5" style="stroke:#181818;stroke-width:0.5;" width="164" x="1828" y="830.0137"/><ellipse cx="1890.25" cy="846.0137" fill="#ADD1B2" rx="11" ry="11" style="stroke:#181818;stroke-width:1.0;"/><path d="M1893.0156,841.8887 Q1893.1719,841.6699 1893.3594,841.5605 Q1893.5469,841.4512 1893.7656,841.4512 Q1894.1406,841.4512 1894.375,841.7168 Q1894.6094,841.9668 1894.6094,842.5762 L1894.6094,844.0293 Q1894.6094,844.6387 1894.375,844.9043 Q1894.1406,845.1699 1893.7656,845.1699 Q1893.4219,845.1699 1893.2188,844.9668 Q1893.0156,844.7793 1892.9063,844.2637 Q1892.8594,843.9043 1892.6719,843.7168 Q1892.3438,843.3418 1891.7344,843.123 Q1891.125,842.9043 1890.5,842.9043 Q1889.7344,842.9043 1889.0938,843.2324 Q1888.4688,843.5605 1887.9688,844.3105 Q1887.4844,845.0605 1887.4844,846.0918 L1887.4844,847.1855 Q1887.4844,848.4199 1888.375,849.248 Q1889.2656,850.0605 1890.8594,850.0605 Q1891.7969,850.0605 1892.4531,849.8105 Q1892.8438,849.6543 1893.2656,849.2168 Q1893.5313,848.9512 1893.6719,848.873 Q1893.8281,848.7949 1894.0313,848.7949 Q1894.3594,848.7949 1894.6094,849.0605 Q1894.875,849.3105 1894.875,849.6543 Q1894.875,849.998 1894.5313,850.4043 Q1894.0313,850.9824 1893.2344,851.3105 Q1892.1563,851.7637 1890.8594,851.7637 Q1889.3438,851.7637 1888.1406,851.1387 Q1887.1563,850.6387 1886.4688,849.5762 Q1885.7813,848.498 1885.7813,847.2168 L1885.7813,846.0605 Q1885.7813,844.7324 1886.3906,843.5918 Q1887.0156,842.4355 1888.1094,841.8262 Q1889.2031,841.2012 1890.4375,841.2012 Q1891.1719,841.2012 1891.8125,841.373 Q1892.4688,841.5293 1893.0156,841.8887 Z " fill="#000000"/><text fill="#000000" font-family="sans-serif" font-size="14" lengthAdjust="spacing" textLength="31" x="1910.75" y="851.8105">Task</text><line style="stroke:#181818;stroke-width:0.5;" x1="1829" x2="1991" y1="862.0137" y2="862.0137"/><rect fill="none" height="6" style="stroke:#C82930;stroke-width:1.0;" width="6" x="1836" y="873.8242"/><text fill="#000000" font-family="sans-serif" font-size="14" lengthAdjust="spacing" textLength="138" x="1848" y="881.1211">String taskDescription</text><line style="stroke:#181818;stroke-width:0.5;" x1="1829" x2="1991" y1="888.6348" y2="888.6348"/><ellipse cx="1839" cy="903.4453" fill="#84BE84" rx="3" ry="3" style="stroke:#038048;stroke-width:1.0;"/><text fill="#000000" font-family="sans-serif" font-size="14" lengthAdjust="spacing" textLength="138" x="1848" y="907.7422">Task(taskDescription)</text></g><!--class TasksAgenda--><g id="elem_TasksAgenda"><rect codeLine="77" fill="#F1F1F1" height="122.4844" id="TasksAgenda" rx="2.5" ry="2.5" style="stroke:#181818;stroke-width:0.5;" width="445" x="937.5" y="811.5137"/><ellipse cx="1112.25" cy="827.5137" fill="#ADD1B2" rx="11" ry="11" style="stroke:#181818;stroke-width:1.0;"/><path d="M1115.0156,823.3887 Q1115.1719,823.1699 1115.3594,823.0605 Q1115.5469,822.9512 1115.7656,822.9512 Q1116.1406,822.9512 1116.375,823.2168 Q1116.6094,823.4668 1116.6094,824.0762 L1116.6094,825.5293 Q1116.6094,826.1387 1116.375,826.4043 Q1116.1406,826.6699 1115.7656,826.6699 Q1115.4219,826.6699 1115.2188,826.4668 Q1115.0156,826.2793 1114.9063,825.7637 Q1114.8594,825.4043 1114.6719,825.2168 Q1114.3438,824.8418 1113.7344,824.623 Q1113.125,824.4043 1112.5,824.4043 Q1111.7344,824.4043 1111.0938,824.7324 Q1110.4688,825.0605 1109.9688,825.8105 Q1109.4844,826.5605 1109.4844,827.5918 L1109.4844,828.6855 Q1109.4844,829.9199 1110.375,830.748 Q1111.2656,831.5605 1112.8594,831.5605 Q1113.7969,831.5605 1114.4531,831.3105 Q1114.8438,831.1543 1115.2656,830.7168 Q1115.5313,830.4512 1115.6719,830.373 Q1115.8281,830.2949 1116.0313,830.2949 Q1116.3594,830.2949 1116.6094,830.5605 Q1116.875,830.8105 1116.875,831.1543 Q1116.875,831.498 1116.5313,831.9043 Q1116.0313,832.4824 1115.2344,832.8105 Q1114.1563,833.2637 1112.8594,833.2637 Q1111.3438,833.2637 1110.1406,832.6387 Q1109.1563,832.1387 1108.4688,831.0762 Q1107.7813,829.998 1107.7813,828.7168 L1107.7813,827.5605 Q1107.7813,826.2324 1108.3906,825.0918 Q1109.0156,823.9355 1110.1094,823.3262 Q1111.2031,822.7012 1112.4375,822.7012 Q1113.1719,822.7012 1113.8125,822.873 Q1114.4688,823.0293 1115.0156,823.3887 Z " fill="#000000"/><text fill="#000000" font-family="sans-serif" font-size="14" lengthAdjust="spacing" textLength="87" x="1132.75" y="833.3105">TasksAgenda</text><line style="stroke:#181818;stroke-width:0.5;" x1="938.5" x2="1381.5" y1="843.5137" y2="843.5137"/><line style="stroke:#181818;stroke-width:0.5;" x1="938.5" x2="1381.5" y1="851.5137" y2="851.5137"/><ellipse cx="948.5" cy="866.3242" fill="#84BE84" rx="3" ry="3" style="stroke:#038048;stroke-width:1.0;"/><text fill="#000000" font-family="sans-serif" font-size="14" lengthAdjust="spacing" textLength="419" x="957.5" y="870.6211">filterTasksByStatusDate(taskListTeam, status, startDate, endDate)</text><ellipse cx="948.5" cy="884.9453" fill="#84BE84" rx="3" ry="3" style="stroke:#038048;stroke-width:1.0;"/><text fill="#000000" font-family="sans-serif" font-size="14" lengthAdjust="spacing" textLength="292" x="957.5" y="889.2422">sortTaskAgendaByDate(filteredTaskListTeam)</text><rect fill="#F24D5C" height="6" style="stroke:#C82930;stroke-width:1.0;" width="6" x="945.5" y="900.5664"/><text fill="#000000" font-family="sans-serif" font-size="14" lengthAdjust="spacing" textLength="123" x="957.5" y="907.8633">addTaskListTeam()</text><rect fill="#F24D5C" height="6" style="stroke:#C82930;stroke-width:1.0;" width="6" x="945.5" y="919.1875"/><text fill="#000000" font-family="sans-serif" font-size="14" lengthAdjust="spacing" textLength="171" x="957.5" y="926.4844">addFilteredTaskListTeam()</text></g><!--class TaskAgenda--><g id="elem_TaskAgenda"><rect codeLine="85" fill="#F1F1F1" height="196.9688" id="TaskAgenda" rx="2.5" ry="2.5" style="stroke:#181818;stroke-width:0.5;" width="257" x="1509.5" y="774.0137"/><ellipse cx="1593.75" cy="790.0137" fill="#ADD1B2" rx="11" ry="11" style="stroke:#181818;stroke-width:1.0;"/><path d="M1596.5156,785.8887 Q1596.6719,785.6699 1596.8594,785.5605 Q1597.0469,785.4512 1597.2656,785.4512 Q1597.6406,785.4512 1597.875,785.7168 Q1598.1094,785.9668 1598.1094,786.5762 L1598.1094,788.0293 Q1598.1094,788.6387 1597.875,788.9043 Q1597.6406,789.1699 1597.2656,789.1699 Q1596.9219,789.1699 1596.7188,788.9668 Q1596.5156,788.7793 1596.4063,788.2637 Q1596.3594,787.9043 1596.1719,787.7168 Q1595.8438,787.3418 1595.2344,787.123 Q1594.625,786.9043 1594,786.9043 Q1593.2344,786.9043 1592.5938,787.2324 Q1591.9688,787.5605 1591.4688,788.3105 Q1590.9844,789.0605 1590.9844,790.0918 L1590.9844,791.1855 Q1590.9844,792.4199 1591.875,793.248 Q1592.7656,794.0605 1594.3594,794.0605 Q1595.2969,794.0605 1595.9531,793.8105 Q1596.3438,793.6543 1596.7656,793.2168 Q1597.0313,792.9512 1597.1719,792.873 Q1597.3281,792.7949 1597.5313,792.7949 Q1597.8594,792.7949 1598.1094,793.0605 Q1598.375,793.3105 1598.375,793.6543 Q1598.375,793.998 1598.0313,794.4043 Q1597.5313,794.9824 1596.7344,795.3105 Q1595.6563,795.7637 1594.3594,795.7637 Q1592.8438,795.7637 1591.6406,795.1387 Q1590.6563,794.6387 1589.9688,793.5762 Q1589.2813,792.498 1589.2813,791.2168 L1589.2813,790.0605 Q1589.2813,788.7324 1589.8906,787.5918 Q1590.5156,786.4355 1591.6094,785.8262 Q1592.7031,785.2012 1593.9375,785.2012 Q1594.6719,785.2012 1595.3125,785.373 Q1595.9688,785.5293 1596.5156,785.8887 Z " fill="#000000"/><text fill="#000000" font-family="sans-serif" font-size="14" lengthAdjust="spacing" textLength="80" x="1614.25" y="795.8105">TaskAgenda</text><line style="stroke:#181818;stroke-width:0.5;" x1="1510.5" x2="1765.5" y1="806.0137" y2="806.0137"/><rect fill="none" height="6" style="stroke:#C82930;stroke-width:1.0;" width="6" x="1517.5" y="817.8242"/><text fill="#000000" font-family="sans-serif" font-size="14" lengthAdjust="spacing" textLength="92" x="1529.5" y="825.1211">String urgency</text><rect fill="none" height="6" style="stroke:#C82930;stroke-width:1.0;" width="6" x="1517.5" y="836.4453"/><text fill="#000000" font-family="sans-serif" font-size="14" lengthAdjust="spacing" textLength="130" x="1529.5" y="843.7422">int expectedDuration</text><rect fill="none" height="6" style="stroke:#C82930;stroke-width:1.0;" width="6" x="1517.5" y="855.0664"/><text fill="#000000" font-family="sans-serif" font-size="14" lengthAdjust="spacing" textLength="79" x="1529.5" y="862.3633">String status</text><rect fill="none" height="6" style="stroke:#C82930;stroke-width:1.0;" width="6" x="1517.5" y="873.6875"/><text fill="#000000" font-family="sans-serif" font-size="14" lengthAdjust="spacing" textLength="92" x="1529.5" y="880.9844">Date startDate</text><rect fill="none" height="6" style="stroke:#C82930;stroke-width:1.0;" width="6" x="1517.5" y="892.3086"/><text fill="#000000" font-family="sans-serif" font-size="14" lengthAdjust="spacing" textLength="88" x="1529.5" y="899.6055">Date endDate</text><line style="stroke:#181818;stroke-width:0.5;" x1="1510.5" x2="1765.5" y1="907.1191" y2="907.1191"/><rect fill="#F24D5C" height="6" style="stroke:#C82930;stroke-width:1.0;" width="6" x="1517.5" y="918.9297"/><text fill="#000000" font-family="sans-serif" font-size="14" lengthAdjust="spacing" textLength="147" x="1529.5" y="926.2266">hasTaskByTeam(team)</text><rect fill="#F24D5C" height="6" style="stroke:#C82930;stroke-width:1.0;" width="6" x="1517.5" y="937.5508"/><text fill="#000000" font-family="sans-serif" font-size="14" lengthAdjust="spacing" textLength="111" x="1529.5" y="944.8477">hasStatus(status)</text><rect fill="#F24D5C" height="6" style="stroke:#C82930;stroke-width:1.0;" width="6" x="1517.5" y="956.1719"/><text fill="#000000" font-family="sans-serif" font-size="14" lengthAdjust="spacing" textLength="231" x="1529.5" y="963.4688">isBetweenDates(startDate, endDate)</text></g><!--class Collaborator--><g id="elem_Collaborator"><rect codeLine="97" fill="#F1F1F1" height="159.7266" id="Collaborator" rx="2.5" ry="2.5" style="stroke:#181818;stroke-width:0.5;" width="164" x="1111" y="1397.0137"/><ellipse cx="1150.3" cy="1413.0137" fill="#ADD1B2" rx="11" ry="11" style="stroke:#181818;stroke-width:1.0;"/><path d="M1153.0656,1408.8887 Q1153.2219,1408.6699 1153.4094,1408.5605 Q1153.5969,1408.4512 1153.8156,1408.4512 Q1154.1906,1408.4512 1154.425,1408.7168 Q1154.6594,1408.9668 1154.6594,1409.5762 L1154.6594,1411.0293 Q1154.6594,1411.6387 1154.425,1411.9043 Q1154.1906,1412.1699 1153.8156,1412.1699 Q1153.4719,1412.1699 1153.2688,1411.9668 Q1153.0656,1411.7793 1152.9563,1411.2637 Q1152.9094,1410.9043 1152.7219,1410.7168 Q1152.3938,1410.3418 1151.7844,1410.123 Q1151.175,1409.9043 1150.55,1409.9043 Q1149.7844,1409.9043 1149.1438,1410.2324 Q1148.5188,1410.5605 1148.0188,1411.3105 Q1147.5344,1412.0605 1147.5344,1413.0918 L1147.5344,1414.1855 Q1147.5344,1415.4199 1148.425,1416.248 Q1149.3156,1417.0605 1150.9094,1417.0605 Q1151.8469,1417.0605 1152.5031,1416.8105 Q1152.8938,1416.6543 1153.3156,1416.2168 Q1153.5813,1415.9512 1153.7219,1415.873 Q1153.8781,1415.7949 1154.0813,1415.7949 Q1154.4094,1415.7949 1154.6594,1416.0605 Q1154.925,1416.3105 1154.925,1416.6543 Q1154.925,1416.998 1154.5813,1417.4043 Q1154.0813,1417.9824 1153.2844,1418.3105 Q1152.2063,1418.7637 1150.9094,1418.7637 Q1149.3938,1418.7637 1148.1906,1418.1387 Q1147.2063,1417.6387 1146.5188,1416.5762 Q1145.8313,1415.498 1145.8313,1414.2168 L1145.8313,1413.0605 Q1145.8313,1411.7324 1146.4406,1410.5918 Q1147.0656,1409.4355 1148.1594,1408.8262 Q1149.2531,1408.2012 1150.4875,1408.2012 Q1151.2219,1408.2012 1151.8625,1408.373 Q1152.5188,1408.5293 1153.0656,1408.8887 Z " fill="#000000"/><text fill="#000000" font-family="sans-serif" font-size="14" lengthAdjust="spacing" textLength="78" x="1169.7" y="1418.8105">Collaborator</text><line style="stroke:#181818;stroke-width:0.5;" x1="1112" x2="1274" y1="1429.0137" y2="1429.0137"/><rect fill="none" height="6" style="stroke:#C82930;stroke-width:1.0;" width="6" x="1119" y="1440.8242"/><text fill="#000000" font-family="sans-serif" font-size="14" lengthAdjust="spacing" textLength="76" x="1131" y="1448.1211">String name</text><rect fill="none" height="6" style="stroke:#C82930;stroke-width:1.0;" width="6" x="1119" y="1459.4453"/><text fill="#000000" font-family="sans-serif" font-size="14" lengthAdjust="spacing" textLength="106" x="1131" y="1466.7422">Date dateOfBirth</text><rect fill="none" height="6" style="stroke:#C82930;stroke-width:1.0;" width="6" x="1119" y="1478.0664"/><text fill="#000000" font-family="sans-serif" font-size="14" lengthAdjust="spacing" textLength="127" x="1131" y="1485.3633">Date admissionDate</text><rect fill="none" height="6" style="stroke:#C82930;stroke-width:1.0;" width="6" x="1119" y="1496.6875"/><text fill="#000000" font-family="sans-serif" font-size="14" lengthAdjust="spacing" textLength="74" x="1131" y="1503.9844">String email</text><rect fill="none" height="6" style="stroke:#C82930;stroke-width:1.0;" width="6" x="1119" y="1515.3086"/><text fill="#000000" font-family="sans-serif" font-size="14" lengthAdjust="spacing" textLength="73" x="1131" y="1522.6055">int taxpayer</text><line style="stroke:#181818;stroke-width:0.5;" x1="1112" x2="1274" y1="1530.1191" y2="1530.1191"/><ellipse cx="1122" cy="1544.9297" fill="#84BE84" rx="3" ry="3" style="stroke:#038048;stroke-width:1.0;"/><text fill="#000000" font-family="sans-serif" font-size="14" lengthAdjust="spacing" textLength="138" x="1131" y="1549.2266">isEquals(collaborator)</text></g><!--class Agenda--><g id="elem_Agenda"><rect codeLine="107" fill="#F1F1F1" height="122.4844" id="Agenda" rx="2.5" ry="2.5" style="stroke:#181818;stroke-width:0.5;" width="445" x="937.5" y="563.5137"/><ellipse cx="1131.25" cy="579.5137" fill="#ADD1B2" rx="11" ry="11" style="stroke:#181818;stroke-width:1.0;"/><path d="M1134.0156,575.3887 Q1134.1719,575.1699 1134.3594,575.0605 Q1134.5469,574.9512 1134.7656,574.9512 Q1135.1406,574.9512 1135.375,575.2168 Q1135.6094,575.4668 1135.6094,576.0762 L1135.6094,577.5293 Q1135.6094,578.1387 1135.375,578.4043 Q1135.1406,578.6699 1134.7656,578.6699 Q1134.4219,578.6699 1134.2188,578.4668 Q1134.0156,578.2793 1133.9063,577.7637 Q1133.8594,577.4043 1133.6719,577.2168 Q1133.3438,576.8418 1132.7344,576.623 Q1132.125,576.4043 1131.5,576.4043 Q1130.7344,576.4043 1130.0938,576.7324 Q1129.4688,577.0605 1128.9688,577.8105 Q1128.4844,578.5605 1128.4844,579.5918 L1128.4844,580.6855 Q1128.4844,581.9199 1129.375,582.748 Q1130.2656,583.5605 1131.8594,583.5605 Q1132.7969,583.5605 1133.4531,583.3105 Q1133.8438,583.1543 1134.2656,582.7168 Q1134.5313,582.4512 1134.6719,582.373 Q1134.8281,582.2949 1135.0313,582.2949 Q1135.3594,582.2949 1135.6094,582.5605 Q1135.875,582.8105 1135.875,583.1543 Q1135.875,583.498 1135.5313,583.9043 Q1135.0313,584.4824 1134.2344,584.8105 Q1133.1563,585.2637 1131.8594,585.2637 Q1130.3438,585.2637 1129.1406,584.6387 Q1128.1563,584.1387 1127.4688,583.0762 Q1126.7813,581.998 1126.7813,580.7168 L1126.7813,579.5605 Q1126.7813,578.2324 1127.3906,577.0918 Q1128.0156,575.9355 1129.1094,575.3262 Q1130.2031,574.7012 1131.4375,574.7012 Q1132.1719,574.7012 1132.8125,574.873 Q1133.4688,575.0293 1134.0156,575.3887 Z " fill="#000000"/><text fill="#000000" font-family="sans-serif" font-size="14" lengthAdjust="spacing" textLength="49" x="1151.75" y="585.3105">Agenda</text><line style="stroke:#181818;stroke-width:0.5;" x1="938.5" x2="1381.5" y1="595.5137" y2="595.5137"/><line style="stroke:#181818;stroke-width:0.5;" x1="938.5" x2="1381.5" y1="603.5137" y2="603.5137"/><ellipse cx="948.5" cy="618.3242" fill="#84BE84" rx="3" ry="3" style="stroke:#038048;stroke-width:1.0;"/><text fill="#000000" font-family="sans-serif" font-size="14" lengthAdjust="spacing" textLength="59" x="957.5" y="622.6211">Agenda()</text><ellipse cx="948.5" cy="636.9453" fill="#84BE84" rx="3" ry="3" style="stroke:#038048;stroke-width:1.0;"/><text fill="#000000" font-family="sans-serif" font-size="14" lengthAdjust="spacing" textLength="166" x="957.5" y="641.2422">getTaskListByTeam(team)</text><ellipse cx="948.5" cy="655.5664" fill="#84BE84" rx="3" ry="3" style="stroke:#038048;stroke-width:1.0;"/><text fill="#000000" font-family="sans-serif" font-size="14" lengthAdjust="spacing" textLength="419" x="957.5" y="659.8633">filterTasksByStatusDate(taskListTeam, status, startDate, endDate)</text><ellipse cx="948.5" cy="674.1875" fill="#84BE84" rx="3" ry="3" style="stroke:#038048;stroke-width:1.0;"/><text fill="#000000" font-family="sans-serif" font-size="14" lengthAdjust="spacing" textLength="292" x="957.5" y="678.4844">sortTaskAgendaByDate(filteredTaskListTeam)</text></g><!--class Repositories--><g id="elem_Repositories"><rect codeLine="119" fill="#F1F1F1" height="141.1055" id="Repositories" rx="2.5" ry="2.5" style="stroke:#181818;stroke-width:0.5;" width="202" x="311" y="554.0137"/><ellipse cx="368.25" cy="570.0137" fill="#ADD1B2" rx="11" ry="11" style="stroke:#181818;stroke-width:1.0;"/><path d="M371.0156,565.8887 Q371.1719,565.6699 371.3594,565.5605 Q371.5469,565.4512 371.7656,565.4512 Q372.1406,565.4512 372.375,565.7168 Q372.6094,565.9668 372.6094,566.5762 L372.6094,568.0293 Q372.6094,568.6387 372.375,568.9043 Q372.1406,569.1699 371.7656,569.1699 Q371.4219,569.1699 371.2188,568.9668 Q371.0156,568.7793 370.9063,568.2637 Q370.8594,567.9043 370.6719,567.7168 Q370.3438,567.3418 369.7344,567.123 Q369.125,566.9043 368.5,566.9043 Q367.7344,566.9043 367.0938,567.2324 Q366.4688,567.5605 365.9688,568.3105 Q365.4844,569.0605 365.4844,570.0918 L365.4844,571.1855 Q365.4844,572.4199 366.375,573.248 Q367.2656,574.0605 368.8594,574.0605 Q369.7969,574.0605 370.4531,573.8105 Q370.8438,573.6543 371.2656,573.2168 Q371.5313,572.9512 371.6719,572.873 Q371.8281,572.7949 372.0313,572.7949 Q372.3594,572.7949 372.6094,573.0605 Q372.875,573.3105 372.875,573.6543 Q372.875,573.998 372.5313,574.4043 Q372.0313,574.9824 371.2344,575.3105 Q370.1563,575.7637 368.8594,575.7637 Q367.3438,575.7637 366.1406,575.1387 Q365.1563,574.6387 364.4688,573.5762 Q363.7813,572.498 363.7813,571.2168 L363.7813,570.0605 Q363.7813,568.7324 364.3906,567.5918 Q365.0156,566.4355 366.1094,565.8262 Q367.2031,565.2012 368.4375,565.2012 Q369.1719,565.2012 369.8125,565.373 Q370.4688,565.5293 371.0156,565.8887 Z " fill="#000000"/><text fill="#000000" font-family="sans-serif" font-size="14" lengthAdjust="spacing" textLength="79" x="388.75" y="575.8105">Repositories</text><line style="stroke:#181818;stroke-width:0.5;" x1="312" x2="512" y1="586.0137" y2="586.0137"/><line style="stroke:#181818;stroke-width:0.5;" x1="312" x2="512" y1="594.0137" y2="594.0137"/><rect fill="#F24D5C" height="6" style="stroke:#C82930;stroke-width:1.0;" width="6" x="319" y="605.8242"/><text fill="#000000" font-family="sans-serif" font-size="14" lengthAdjust="spacing" textLength="89" x="331" y="613.1211">Repositories()</text><ellipse cx="322" cy="627.4453" fill="#84BE84" rx="3" ry="3" style="stroke:#038048;stroke-width:1.0;"/><text fill="#000000" font-family="sans-serif" font-size="14" lengthAdjust="spacing" textLength="174" x="331" y="631.7422">getInstance() : Repositories</text><ellipse cx="322" cy="646.0664" fill="#84BE84" rx="3" ry="3" style="stroke:#038048;stroke-width:1.0;"/><text fill="#000000" font-family="sans-serif" font-size="14" lengthAdjust="spacing" textLength="176" x="331" y="650.3633">getCollaboratorRepository()</text><ellipse cx="322" cy="664.6875" fill="#84BE84" rx="3" ry="3" style="stroke:#038048;stroke-width:1.0;"/><text fill="#000000" font-family="sans-serif" font-size="14" lengthAdjust="spacing" textLength="138" x="331" y="668.9844">getTeamRepository();</text><ellipse cx="322" cy="683.3086" fill="#84BE84" rx="3" ry="3" style="stroke:#038048;stroke-width:1.0;"/><text fill="#000000" font-family="sans-serif" font-size="14" lengthAdjust="spacing" textLength="79" x="331" y="687.6055">getAgenda()</text></g><!--class CollaboratorRepository--><g id="elem_CollaboratorRepository"><rect codeLine="128" fill="#F1F1F1" height="66.6211" id="CollaboratorRepository" rx="2.5" ry="2.5" style="stroke:#181818;stroke-width:0.5;" width="217" x="374.5" y="1068.5137"/><ellipse cx="407.05" cy="1084.5137" fill="#ADD1B2" rx="11" ry="11" style="stroke:#181818;stroke-width:1.0;"/><path d="M409.8156,1080.3887 Q409.9719,1080.1699 410.1594,1080.0605 Q410.3469,1079.9512 410.5656,1079.9512 Q410.9406,1079.9512 411.175,1080.2168 Q411.4094,1080.4668 411.4094,1081.0762 L411.4094,1082.5293 Q411.4094,1083.1387 411.175,1083.4043 Q410.9406,1083.6699 410.5656,1083.6699 Q410.2219,1083.6699 410.0188,1083.4668 Q409.8156,1083.2793 409.7063,1082.7637 Q409.6594,1082.4043 409.4719,1082.2168 Q409.1438,1081.8418 408.5344,1081.623 Q407.925,1081.4043 407.3,1081.4043 Q406.5344,1081.4043 405.8938,1081.7324 Q405.2688,1082.0605 404.7688,1082.8105 Q404.2844,1083.5605 404.2844,1084.5918 L404.2844,1085.6855 Q404.2844,1086.9199 405.175,1087.748 Q406.0656,1088.5605 407.6594,1088.5605 Q408.5969,1088.5605 409.2531,1088.3105 Q409.6438,1088.1543 410.0656,1087.7168 Q410.3313,1087.4512 410.4719,1087.373 Q410.6281,1087.2949 410.8313,1087.2949 Q411.1594,1087.2949 411.4094,1087.5605 Q411.675,1087.8105 411.675,1088.1543 Q411.675,1088.498 411.3313,1088.9043 Q410.8313,1089.4824 410.0344,1089.8105 Q408.9563,1090.2637 407.6594,1090.2637 Q406.1438,1090.2637 404.9406,1089.6387 Q403.9563,1089.1387 403.2688,1088.0762 Q402.5813,1086.998 402.5813,1085.7168 L402.5813,1084.5605 Q402.5813,1083.2324 403.1906,1082.0918 Q403.8156,1080.9355 404.9094,1080.3262 Q406.0031,1079.7012 407.2375,1079.7012 Q407.9719,1079.7012 408.6125,1079.873 Q409.2688,1080.0293 409.8156,1080.3887 Z " fill="#000000"/><text fill="#000000" font-family="sans-serif" font-size="14" lengthAdjust="spacing" textLength="146" x="424.95" y="1090.3105">CollaboratorRepository</text><line style="stroke:#181818;stroke-width:0.5;" x1="375.5" x2="590.5" y1="1100.5137" y2="1100.5137"/><line style="stroke:#181818;stroke-width:0.5;" x1="375.5" x2="590.5" y1="1108.5137" y2="1108.5137"/><ellipse cx="385.5" cy="1123.3242" fill="#84BE84" rx="3" ry="3" style="stroke:#038048;stroke-width:1.0;"/><text fill="#000000" font-family="sans-serif" font-size="14" lengthAdjust="spacing" textLength="191" x="394.5" y="1127.6211">getCollaboratorByEmail(email)</text></g><!--class TeamRepository--><g id="elem_TeamRepository"><rect codeLine="133" fill="#F1F1F1" height="66.6211" id="TeamRepository" rx="2.5" ry="2.5" style="stroke:#181818;stroke-width:0.5;" width="261" x="127.5" y="839.0137"/><ellipse cx="201.75" cy="855.0137" fill="#ADD1B2" rx="11" ry="11" style="stroke:#181818;stroke-width:1.0;"/><path d="M204.5156,850.8887 Q204.6719,850.6699 204.8594,850.5605 Q205.0469,850.4512 205.2656,850.4512 Q205.6406,850.4512 205.875,850.7168 Q206.1094,850.9668 206.1094,851.5762 L206.1094,853.0293 Q206.1094,853.6387 205.875,853.9043 Q205.6406,854.1699 205.2656,854.1699 Q204.9219,854.1699 204.7188,853.9668 Q204.5156,853.7793 204.4063,853.2637 Q204.3594,852.9043 204.1719,852.7168 Q203.8438,852.3418 203.2344,852.123 Q202.625,851.9043 202,851.9043 Q201.2344,851.9043 200.5938,852.2324 Q199.9688,852.5605 199.4688,853.3105 Q198.9844,854.0605 198.9844,855.0918 L198.9844,856.1855 Q198.9844,857.4199 199.875,858.248 Q200.7656,859.0605 202.3594,859.0605 Q203.2969,859.0605 203.9531,858.8105 Q204.3438,858.6543 204.7656,858.2168 Q205.0313,857.9512 205.1719,857.873 Q205.3281,857.7949 205.5313,857.7949 Q205.8594,857.7949 206.1094,858.0605 Q206.375,858.3105 206.375,858.6543 Q206.375,858.998 206.0313,859.4043 Q205.5313,859.9824 204.7344,860.3105 Q203.6563,860.7637 202.3594,860.7637 Q200.8438,860.7637 199.6406,860.1387 Q198.6563,859.6387 197.9688,858.5762 Q197.2813,857.498 197.2813,856.2168 L197.2813,855.0605 Q197.2813,853.7324 197.8906,852.5918 Q198.5156,851.4355 199.6094,850.8262 Q200.7031,850.2012 201.9375,850.2012 Q202.6719,850.2012 203.3125,850.373 Q203.9688,850.5293 204.5156,850.8887 Z " fill="#000000"/><text fill="#000000" font-family="sans-serif" font-size="14" lengthAdjust="spacing" textLength="104" x="222.25" y="860.8105">TeamRepository</text><line style="stroke:#181818;stroke-width:0.5;" x1="128.5" x2="387.5" y1="871.0137" y2="871.0137"/><line style="stroke:#181818;stroke-width:0.5;" x1="128.5" x2="387.5" y1="879.0137" y2="879.0137"/><ellipse cx="138.5" cy="893.8242" fill="#84BE84" rx="3" ry="3" style="stroke:#038048;stroke-width:1.0;"/><text fill="#000000" font-family="sans-serif" font-size="14" lengthAdjust="spacing" textLength="235" x="147.5" y="898.1211">getTeamByCollaborator(collaborator)</text></g><!--reverse link GreenSpace to Garden--><g id="link_GreenSpace_Garden"><path d="M1565.3265,1134.8404 C1510.9065,1159.2504 1443.15,1191.6237 1374,1233.0137 C1364.76,1238.5437 1355.1,1245.1137 1346.37,1251.3637 " fill="none" id="GreenSpace-backto-Garden" style="stroke:#181818;stroke-width:1.0;stroke-dasharray:7.0,7.0;"/><polygon fill="none" points="1581.75,1127.4737,1562.8709,1129.3659,1567.7821,1140.3149,1581.75,1127.4737" style="stroke:#181818;stroke-width:1.0;"/></g><!--reverse link GreenSpace to MediumPark--><g id="link_GreenSpace_MediumPark"><path d="M1632.7382,1172.4221 C1630.2982,1204.5821 1628.64,1226.5037 1626.76,1251.2337 " fill="none" id="GreenSpace-backto-MediumPark" style="stroke:#181818;stroke-width:1.0;stroke-dasharray:7.0,7.0;"/><polygon fill="none" points="1634.1,1154.4737,1626.7554,1171.9682,1638.721,1172.876,1634.1,1154.4737" style="stroke:#181818;stroke-width:1.0;"/></g><!--reverse link GreenSpace to LargePark--><g id="link_GreenSpace_LargePark"><path d="M1686.461,1168.9769 C1710.101,1201.1369 1728.73,1226.5037 1746.89,1251.2337 " fill="none" id="GreenSpace-backto-LargePark" style="stroke:#181818;stroke-width:1.0;stroke-dasharray:7.0,7.0;"/><polygon fill="none" points="1675.8,1154.4737,1681.6265,1172.5306,1691.2954,1165.4233,1675.8,1154.4737" style="stroke:#181818;stroke-width:1.0;"/></g><!--reverse link ICollaborator to Collaborator--><g id="link_ICollaborator_Collaborator"><path d="M1385.2998,1329.0254 C1349.2998,1356.5454 1315.71,1382.2137 1275.11,1413.2537 " fill="none" id="ICollaborator-backto-Collaborator" style="stroke:#181818;stroke-width:1.0;stroke-dasharray:7.0,7.0;"/><polygon fill="none" points="1399.6,1318.0937,1381.6558,1324.2587,1388.9437,1333.7922,1399.6,1318.0937" style="stroke:#181818;stroke-width:1.0;"/></g><!--link Repositories to Repositories--><g id="link_Repositories_Repositories"><path codeLine="141" d="M513.12,604.7037 C533.46,606.9037 548,613.5037 548,624.5137 C548,635.5237 539.4252,641.4785 519.0852,643.6785 " fill="none" id="Repositories-to-Repositories" style="stroke:#181818;stroke-width:1.0;"/><polygon fill="#181818" points="513.12,644.3237,522.4979,647.3327,518.091,643.786,521.6377,639.3791,513.12,644.3237" style="stroke:#181818;stroke-width:1.0;"/><text fill="#000000" font-family="sans-serif" font-size="13" lengthAdjust="spacing" textLength="49" x="554" y="630.042">instance</text></g><!--link ApplicationSession to ApplicationSession--><g id="link_ApplicationSession_ApplicationSession"><path codeLine="142" d="M802.21,604.1137 C822.06,605.4137 837,612.2137 837,624.5137 C837,636.8137 828.0472,643.2216 808.1972,644.5216 " fill="none" id="ApplicationSession-to-ApplicationSession" style="stroke:#181818;stroke-width:1.0;"/><polygon fill="#181818" points="802.21,644.9137,811.4522,648.317,807.1993,644.5869,810.9294,640.3341,802.21,644.9137" style="stroke:#181818;stroke-width:1.0;"/><text fill="#000000" font-family="sans-serif" font-size="13" lengthAdjust="spacing" textLength="49" x="843" y="630.042">instance</text></g><!--link ConsultAssignedTasksListUI to ConsultAssignedTasksController--><g id="link_ConsultAssignedTasksListUI_ConsultAssignedTasksController"><path codeLine="145" d="M2042,112.1437 C2042,139.3937 2042,179.1837 2042,212.7037 " fill="none" id="ConsultAssignedTasksListUI-to-ConsultAssignedTasksController" style="stroke:#181818;stroke-width:1.0;stroke-dasharray:7.0,7.0;"/><polygon fill="#181818" points="2042,218.7037,2046,209.7037,2042,213.7037,2038,209.7037,2042,218.7037" style="stroke:#181818;stroke-width:1.0;"/></g><!--link ConsultAssignedTasksController to Repositories--><g id="link_ConsultAssignedTasksController_Repositories"><path codeLine="148" d="M1853.25,271.6437 C1563.05,286.9037 1021.1,320.5437 833,367.0137 C740.28,389.9237 714.68,395.2037 632,443.0137 C578.75,473.8037 529.7312,513.3326 488.8312,549.9326 " fill="none" id="ConsultAssignedTasksController-to-Repositories" style="stroke:#181818;stroke-width:1.0;stroke-dasharray:7.0,7.0;"/><polygon fill="#181818" points="484.36,553.9337,493.7341,550.9128,488.086,550.5994,488.3994,544.9513,484.36,553.9337" style="stroke:#181818;stroke-width:1.0;"/><text fill="#000000" font-family="sans-serif" font-size="13" lengthAdjust="spacing" textLength="67" x="834" y="382.042">repositories</text></g><!--link ConsultAssignedTasksController to ApplicationSession--><g id="link_ConsultAssignedTasksController_ApplicationSession"><path codeLine="149" d="M1853.5,266.9137 C1559.65,277.0137 1009.3,309.9237 848,416.0137 C788.69,455.0237 755.9514,527.6699 739.2814,576.1399 " fill="none" id="ConsultAssignedTasksController-to-ApplicationSession" style="stroke:#181818;stroke-width:1.0;stroke-dasharray:7.0,7.0;"/><polygon fill="#181818" points="737.33,581.8137,744.0396,574.6039,738.9561,577.0855,736.4745,572.002,737.33,581.8137" style="stroke:#181818;stroke-width:1.0;"/></g><!--link ConsultAssignedTasksController to UserSession--><g id="link_ConsultAssignedTasksController_UserSession"><path codeLine="150" d="M1853.3,265.8437 C1389.91,276.0037 225.3,314.2237 111,443.0137 C22.2,543.0737 19.3,646.6137 111,744.0137 C148.92,784.2937 556.99,752.6037 608,774.0137 C641.08,787.8937 666.736,811.8608 686.546,834.4708 " fill="none" id="ConsultAssignedTasksController-to-UserSession" style="stroke:#181818;stroke-width:1.0;stroke-dasharray:7.0,7.0;"/><polygon fill="#181818" points="690.5,838.9837,687.5776,829.5784,687.205,835.223,681.5604,834.8504,690.5,838.9837" style="stroke:#181818;stroke-width:1.0;"/></g><!--link ConsultAssignedTasksController to CollaboratorRepository--><g id="link_ConsultAssignedTasksController_CollaboratorRepository"><path codeLine="151" d="M2209.31,304.0437 C2235.98,320.5137 2255,343.4937 2255,375.5137 C2255,375.5137 2255,375.5137 2255,873.5137 C2255,1001.1437 2130.61,984.5637 2008,1020.0137 C1891.93,1053.5737 1041.51,1041.3537 921,1050.0137 C808.37,1058.1137 686.0669,1073.0071 597.5969,1084.8571 " fill="none" id="ConsultAssignedTasksController-to-CollaboratorRepository" style="stroke:#181818;stroke-width:1.0;stroke-dasharray:7.0,7.0;"/><polygon fill="#181818" points="591.65,1085.6537,601.1014,1088.4234,596.6057,1084.9899,600.0393,1080.4943,591.65,1085.6537" style="stroke:#181818;stroke-width:1.0;"/></g><!--link ConsultAssignedTasksController to TeamRepository--><g id="link_ConsultAssignedTasksController_TeamRepository"><path codeLine="152" d="M2055.07,304.2737 C2081.67,398.4737 2129.81,628.2837 2008,744.0137 C1976.7,773.7537 495.93,763.7337 454,774.0137 C401.22,786.9537 351.3816,812.7712 313.1416,835.7712 " fill="none" id="ConsultAssignedTasksController-to-TeamRepository" style="stroke:#181818;stroke-width:1.0;stroke-dasharray:7.0,7.0;"/><polygon fill="#181818" points="308,838.8637,317.7741,837.6527,312.2847,836.2866,313.6508,830.7972,308,838.8637" style="stroke:#181818;stroke-width:1.0;"/></g><!--link ConsultAssignedTasksController to ICollaborator--><g id="link_ConsultAssignedTasksController_ICollaborator"><path codeLine="153" d="M2230.67,290.2737 C2315.55,308.2637 2397,335.8537 2397,375.5137 C2397,375.5137 2397,375.5137 2397,1103.0137 C2397,1292.7837 1735.64,1181.5037 1553,1233.0137 C1541.16,1236.3537 1534.428,1238.5133 1522.668,1243.1733 " fill="none" id="ConsultAssignedTasksController-to-ICollaborator" style="stroke:#181818;stroke-width:1.0;stroke-dasharray:7.0,7.0;"/><polygon fill="#181818" points="1517.09,1245.3837,1526.9306,1245.7868,1521.7384,1243.5417,1523.9835,1238.3495,1517.09,1245.3837" style="stroke:#181818;stroke-width:1.0;"/></g><!--link ConsultAssignedTasksController to GreenSpace--><g id="link_ConsultAssignedTasksController_GreenSpace"><path codeLine="154" d="M2219.04,304.0737 C2276.62,322.8437 2326,347.1937 2326,375.5137 C2326,375.5137 2326,375.5137 2326,873.5137 C2326,941.6237 2333.14,976.1837 2281,1020.0137 C2192.78,1094.1837 1839.94,1101.515 1700.14,1101.485 " fill="none" id="ConsultAssignedTasksController-to-GreenSpace" style="stroke:#181818;stroke-width:1.0;stroke-dasharray:7.0,7.0;"/><polygon fill="#181818" points="1694.14,1101.4837,1703.1391,1105.4856,1699.14,1101.4847,1703.1409,1097.4856,1694.14,1101.4837" style="stroke:#181818;stroke-width:1.0;"/></g><!--link ConsultAssignedTasksController to Task--><g id="link_ConsultAssignedTasksController_Task"><path codeLine="155" d="M2113.69,304.0937 C2123.91,313.2537 2132.98,323.9037 2139,336.0137 C2219.69,498.4037 2230.89,587.6837 2139,744.0137 C2107.47,797.6637 2049.9215,828.3309 1997.8915,847.1709 " fill="none" id="ConsultAssignedTasksController-to-Task" style="stroke:#181818;stroke-width:1.0;stroke-dasharray:7.0,7.0;"/><polygon fill="#181818" points="1992.25,849.2137,2002.0742,849.9105,1996.9513,847.5113,1999.3504,842.3885,1992.25,849.2137" style="stroke:#181818;stroke-width:1.0;"/></g><!--link ConsultAssignedTasksController to TaskAgenda--><g id="link_ConsultAssignedTasksController_TaskAgenda"><path codeLine="156" d="M2061.47,304.2937 C2101.22,396.5337 2179.04,619.2637 2068,744.0137 C2029.77,786.9637 1865.67,756.2137 1811,774.0137 C1796.25,778.8137 1786.7706,782.3925 1772.2106,789.2325 " fill="none" id="ConsultAssignedTasksController-to-TaskAgenda" style="stroke:#181818;stroke-width:1.0;stroke-dasharray:7.0,7.0;"/><polygon fill="#181818" points="1766.78,791.7837,1776.6267,791.5773,1771.3055,789.6577,1773.2251,784.3365,1766.78,791.7837" style="stroke:#181818;stroke-width:1.0;"/></g><!--link ConsultAssignedTasksController to Agenda--><g id="link_ConsultAssignedTasksController_Agenda"><path codeLine="157" d="M1940.39,304.1037 C1784.57,367.8837 1491.4028,487.8708 1312.1528,561.2408 " fill="none" id="ConsultAssignedTasksController-to-Agenda" style="stroke:#181818;stroke-width:1.0;stroke-dasharray:7.0,7.0;"/><polygon fill="#181818" points="1306.6,563.5137,1316.4445,563.8063,1311.2274,561.6196,1313.414,556.4025,1306.6,563.5137" style="stroke:#181818;stroke-width:1.0;"/></g><!--link ConsultAssignedTasksController to Team--><g id="link_ConsultAssignedTasksController_Team"><path codeLine="158" d="M1853.2,263.2437 C1348.46,266.4237 6,283.5237 6,375.5137 C6,375.5137 6,375.5137 6,1103.0137 C6,1196.7937 650.2422,1248.2612 935.9822,1266.5112 " fill="none" id="ConsultAssignedTasksController-to-Team" style="stroke:#181818;stroke-width:1.0;stroke-dasharray:7.0,7.0;"/><polygon fill="#181818" points="941.97,1266.8937,933.2433,1262.3282,936.9802,1266.575,932.7333,1270.3119,941.97,1266.8937" style="stroke:#181818;stroke-width:1.0;"/></g><!--link ApplicationSession to UserSession--><g id="link_ApplicationSession_UserSession"><path codeLine="161" d="M723.47,667.2437 C721.7,715.6337 719.0395,788.3977 717.4195,832.6577 " fill="none" id="ApplicationSession-to-UserSession" style="stroke:#181818;stroke-width:1.0;"/><polygon fill="#181818" points="717.2,838.6537,721.5265,829.806,717.3829,833.657,713.5319,829.5134,717.2,838.6537" style="stroke:#181818;stroke-width:1.0;"/><text fill="#000000" font-family="sans-serif" font-size="13" lengthAdjust="spacing" textLength="72" x="722" y="740.042">userSession</text><text fill="#000000" font-family="sans-serif" font-size="13" lengthAdjust="spacing" textLength="7" x="709.7616" y="827.671">1</text></g><!--link Repositories to CollaboratorRepository--><g id="link_Repositories_CollaboratorRepository"><path codeLine="164" d="M442.99,695.0537 C446.51,704.9637 449.66,715.1437 452,725.0137 C481.4,849.3037 484.0391,996.4138 483.6091,1062.3138 " fill="none" id="Repositories-to-CollaboratorRepository" style="stroke:#181818;stroke-width:1.0;"/><polygon fill="#181818" points="483.57,1068.3137,487.6286,1059.34,483.6026,1063.3138,479.6288,1059.2878,483.57,1068.3137" style="stroke:#181818;stroke-width:1.0;"/><text fill="#000000" font-family="sans-serif" font-size="13" lengthAdjust="spacing" textLength="131" x="482" y="878.042">CollaboratorRepository</text><text fill="#000000" font-family="sans-serif" font-size="13" lengthAdjust="spacing" textLength="7" x="476.0115" y="1057.3615">1</text></g><!--link Repositories to Agenda--><g id="link_Repositories_Agenda"><path codeLine="165" d="M485.87,553.8037 C525.77,520.5237 577.88,484.3837 632,467.0137 C744.14,431.0137 783.48,435.6237 897,467.0137 C965.22,485.8837 1028.6744,524.1567 1078.5744,559.9467 " fill="none" id="Repositories-to-Agenda" style="stroke:#181818;stroke-width:1.0;"/><polygon fill="#181818" points="1083.45,563.4437,1078.4679,554.9479,1079.387,560.5296,1073.8053,561.4487,1083.45,563.4437" style="stroke:#181818;stroke-width:1.0;"/><text fill="#000000" font-family="sans-serif" font-size="13" lengthAdjust="spacing" textLength="44" x="857" y="431.042">Agenda</text><text fill="#000000" font-family="sans-serif" font-size="13" lengthAdjust="spacing" textLength="7" x="1067.1942" y="552.4168">1</text></g><!--link Repositories to TeamRepository--><g id="link_Repositories_TeamRepository"><path codeLine="166" d="M368.49,695.0237 C338.96,742.1937 304.4531,797.3076 281.6031,833.8176 " fill="none" id="Repositories-to-TeamRepository" style="stroke:#181818;stroke-width:1.0;"/><polygon fill="#181818" points="278.42,838.9037,286.5854,833.3967,281.0726,834.6653,279.804,829.1525,278.42,838.9037" style="stroke:#181818;stroke-width:1.0;"/><text fill="#000000" font-family="sans-serif" font-size="13" lengthAdjust="spacing" textLength="94" x="349" y="740.042">TeamRepository</text><text fill="#000000" font-family="sans-serif" font-size="13" lengthAdjust="spacing" textLength="7" x="274.7511" y="827.7075">1</text></g><!--link CollaboratorRepository to ICollaborator--><g id="link_CollaboratorRepository_ICollaborator"><path codeLine="169" d="M591.91,1116.8337 C813.21,1145.2237 1300.77,1209.4137 1374,1233.0137 C1379.51,1234.7937 1379.5779,1234.567 1385.1079,1236.917 " fill="none" id="CollaboratorRepository-to-ICollaborator" style="stroke:#181818;stroke-width:1.0;"/><polygon fill="#181818" points="1390.63,1239.2637,1383.9113,1232.0623,1386.0283,1237.3081,1380.7825,1239.4251,1390.63,1239.2637" style="stroke:#181818;stroke-width:1.0;"/><text fill="#000000" font-family="sans-serif" font-size="13" lengthAdjust="spacing" textLength="88" x="1206" y="1199.042">collaboratorList</text><text fill="#000000" font-family="sans-serif" font-size="13" lengthAdjust="spacing" textLength="7" x="599.4625" y="1114.3091">1</text><text fill="#000000" font-family="sans-serif" font-size="13" lengthAdjust="spacing" textLength="5" x="1378.0138" y="1231.1206">*</text></g><!--link TeamRepository to Team--><g id="link_TeamRepository_Team"><path codeLine="172" d="M252.31,906.4137 C244.08,966.0537 236.55,1092.0437 305,1159.5137 C392.73,1245.9837 740.1922,1267.4516 935.9222,1272.7416 " fill="none" id="TeamRepository-to-Team" style="stroke:#181818;stroke-width:1.0;"/><polygon fill="#181818" points="941.92,1272.9037,933.0314,1268.662,936.9218,1272.7686,932.8152,1276.6591,941.92,1272.9037" style="stroke:#181818;stroke-width:1.0;"/><text fill="#000000" font-family="sans-serif" font-size="13" lengthAdjust="spacing" textLength="50" x="306" y="1107.542">teamList</text><text fill="#000000" font-family="sans-serif" font-size="13" lengthAdjust="spacing" textLength="7" x="243.7305" y="927.7871">1</text><text fill="#000000" font-family="sans-serif" font-size="13" lengthAdjust="spacing" textLength="5" x="929.1396" y="1269.3091">*</text></g><!--link Agenda to TasksAgenda--><g id="link_Agenda_TasksAgenda"><path codeLine="175" d="M1160,685.6937 C1160,723.8137 1160,766.9437 1160,805.1037 " fill="none" id="Agenda-to-TasksAgenda" style="stroke:#181818;stroke-width:1.0;"/><polygon fill="#181818" points="1160,811.1037,1164,802.1037,1160,806.1037,1156,802.1037,1160,811.1037" style="stroke:#181818;stroke-width:1.0;"/><text fill="#000000" font-family="sans-serif" font-size="13" lengthAdjust="spacing" textLength="76" x="1161" y="740.042">tasksAgenda</text><text fill="#000000" font-family="sans-serif" font-size="13" lengthAdjust="spacing" textLength="7" x="1152.5734" y="708.2025">1</text><text fill="#000000" font-family="sans-serif" font-size="13" lengthAdjust="spacing" textLength="7" x="1152.5953" y="800.0375">1</text></g><!--link TasksAgenda to TaskAgenda--><g id="link_TasksAgenda_TaskAgenda"><path codeLine="177" d="M1382.56,872.5137 C1426.04,872.5137 1464.25,872.5137 1503.4,872.5137 " fill="none" id="TasksAgenda-to-TaskAgenda" style="stroke:#181818;stroke-width:1.0;"/><polygon fill="#181818" points="1509.4,872.5137,1500.4,868.5137,1504.4,872.5137,1500.4,876.5137,1509.4,872.5137" style="stroke:#181818;stroke-width:1.0;"/><text fill="#000000" font-family="sans-serif" font-size="13" lengthAdjust="spacing" textLength="90" x="1401" y="865.542">taskAgendaList</text><text fill="#000000" font-family="sans-serif" font-size="13" lengthAdjust="spacing" textLength="7" x="1390.684" y="869.233">1</text><text fill="#000000" font-family="sans-serif" font-size="13" lengthAdjust="spacing" textLength="5" x="1496.4111" y="869.0338">*</text></g><!--link TaskAgenda to GreenSpace--><g id="link_TaskAgenda_GreenSpace"><path codeLine="180" d="M1638,971.3137 C1638,998.4137 1638,1020.7437 1638,1043.9837 " fill="none" id="TaskAgenda-to-GreenSpace" style="stroke:#181818;stroke-width:1.0;"/><polygon fill="#181818" points="1638,1049.9837,1642,1040.9837,1638,1044.9837,1634,1040.9837,1638,1049.9837" style="stroke:#181818;stroke-width:1.0;"/><text fill="#000000" font-family="sans-serif" font-size="13" lengthAdjust="spacing" textLength="69" x="1639" y="1016.042">greenSpace</text><text fill="#000000" font-family="sans-serif" font-size="13" lengthAdjust="spacing" textLength="5" x="1632.8242" y="992.8979">*</text><text fill="#000000" font-family="sans-serif" font-size="13" lengthAdjust="spacing" textLength="7" x="1630.5297" y="1038.907">1</text></g><!--link TaskAgenda to Task--><g id="link_TaskAgenda_Task"><path codeLine="181" d="M1766.83,872.5137 C1787.57,872.5137 1802.52,872.5137 1821.77,872.5137 " fill="none" id="TaskAgenda-to-Task" style="stroke:#181818;stroke-width:1.0;"/><polygon fill="#181818" points="1827.77,872.5137,1818.77,868.5137,1822.77,872.5137,1818.77,876.5137,1827.77,872.5137" style="stroke:#181818;stroke-width:1.0;"/><text fill="#000000" font-family="sans-serif" font-size="13" lengthAdjust="spacing" textLength="25" x="1784.75" y="865.542">task</text><text fill="#000000" font-family="sans-serif" font-size="13" lengthAdjust="spacing" textLength="20" x="1774.4223" y="887.0156">1..*</text><text fill="#000000" font-family="sans-serif" font-size="13" lengthAdjust="spacing" textLength="7" x="1812.8668" y="868.7606">1</text></g><!--link TaskAgenda to Team--><g id="link_TaskAgenda_Team"><path codeLine="182" d="M1546.84,971.0537 C1475.43,1042.9337 1370.63,1138.9437 1264,1203.0137 C1238.47,1218.3537 1214.7131,1229.2339 1186.8031,1239.7739 " fill="none" id="TaskAgenda-to-Team" style="stroke:#181818;stroke-width:1.0;"/><polygon fill="#181818" points="1181.19,1241.8937,1191.0228,1242.4561,1185.8676,1240.1272,1188.1965,1234.972,1181.19,1241.8937" style="stroke:#181818;stroke-width:1.0;"/><text fill="#000000" font-family="sans-serif" font-size="13" lengthAdjust="spacing" textLength="29" x="1462" y="1107.542">team</text><text fill="#000000" font-family="sans-serif" font-size="13" lengthAdjust="spacing" textLength="5" x="1534.9618" y="992.9546">*</text><text fill="#000000" font-family="sans-serif" font-size="13" lengthAdjust="spacing" textLength="7" x="1194.604" y="1230.6956">1</text></g><!--link Team to Collaborator--><g id="link_Team_Collaborator"><path codeLine="185" d="M1093.65,1309.4537 C1107.84,1333.2537 1124.5672,1361.2802 1142.7472,1391.7702 " fill="none" id="Team-to-Collaborator" style="stroke:#181818;stroke-width:1.0;"/><polygon fill="#181818" points="1145.82,1396.9237,1144.6464,1387.145,1143.2593,1392.6291,1137.7752,1391.242,1145.82,1396.9237" style="stroke:#181818;stroke-width:1.0;"/><text fill="#000000" font-family="sans-serif" font-size="13" lengthAdjust="spacing" textLength="88" x="1127" y="1363.042">collaboratorList</text><text fill="#000000" font-family="sans-serif" font-size="13" lengthAdjust="spacing" textLength="7" x="1089.3248" y="1330.5666">1</text><text fill="#000000" font-family="sans-serif" font-size="13" lengthAdjust="spacing" textLength="20" x="1120.5487" y="1385.8111">1..*</text></g><!--SRC=[pLVTZfiu5BxdAQpSD6ataNgRhKPAEfqgKhjTDJCFuC89iGOCQnjDQTLtxp66O9m3eNURYnd2-Vs-ysFdbNuMikIAvomlP16VLP43Cwg2g9UKF7xcAHnDdG5J41ikqynNq6UU52z2fkp4C-rBCY71r2MmGfaYyWHnnhNU6QF4jyh08IxaKVm0jdYxYA8s7biy7HRitRk78aj0tTsndn73JsF9tXTILvdPQIrI2SaZry_waz3cwT2g_Of-HPuhr3Ugo39GWSiRFdkxrg_zl64fc4Qy1_C281zVYdjkG2-ruShOnxyOoCGzu3jJwTN5UcsjtwDF_grGt1Jg0Ka_0aOjv7BL9c-pVvN1oJ1JC2NIis69iDoZKe_gliYva1IYG6MpAyjCnDoQK-ez2PvYczD5eIV0aM21YTYYEKXybZ4iLu6AHLef1T8C0ROWXw6VDAXRCT6XLVk0eBA1ByzZYFrpaK0sXbf80-h4Os0V5LRoMDf78ke_F2VXxHHmydsIACGoXVSHU1v6EdDjN-zhlq6MiVTb5Orx_CXL0fA9lCmWHzAr1-hdXDrdI4IL_ylLyv_RVk8gXJyrxLa_-409tiDANsXo0h1_foYnOnhKSysEk7TmMncKtOEEbIYRkGg2MDDbeBEQZgHtASuzznlC-Jg9316xdL4VcurWjqFZtkujM_HkLJJ_WpKI4g1neLflBjw-Rfov86vpTKvN0NIU3CHBGlv0k5dU07x1JH9TOOl8k0w4s0GClfUur22vhrIpSsXxnqiWiv1xfYXXorqKoEoCOShxkW5c299GmzLe6IxlDlDkyOzj_Gcs_7xtHsPY42uyI5n25D04_tmvxOKoPqhCarmqQvKWglNSp15H7yE_bxm65VQpq1_-g_2m3rRJA6hN7rTZuLvJ-xDhlj4g_IzcgiKvSl1yXRBG0ecffy_SYvu07QwEzK1ACTKVlcmxK2REOgzOVN8a_GZJr_YREE72sassUk_iUZa6cUthmMwVF3zlkBrvbeON27ljMbz_Eeu9KJIetlfkMCqjJf4pZQvlLbQRUElPaCay7QWq9cx4cytTZSij7QYNpmteNPStDch0XVAxSuuzSHkTO-RV9EVequqwotJOXBDC1fj-baL_dPgN4xwShUZ6U5urvgjQMkYckYufrLpKiE2quEz3lxZOKfLNQZAUtuAtnxSBChAwjcEj4Yu1wwEz4sqxte98JYbOOjkmeKO6aqg27b8IXutiKdYz6FOZPk1lIBj1w1o6ULAn0sWsPXlHIZ2GFTJ70pZMoEPmn3OEEngzo_UskTYttwB85_avN7hVwRld2RmN7H9hVmUsphkqlD-KMvRsK-ohlzriNY-OXwC5SEtJQvcMlV7IZ1N4Ows9Uwlslm40]--></g></svg>