<?xml version="1.0" encoding="us-ascii" standalone="no"?><svg xmlns="http://www.w3.org/2000/svg" xmlns:xlink="http://www.w3.org/1999/xlink" contentStyleType="text/css" height="2020px" preserveAspectRatio="none" style="width:1524px;height:2020px;background:#FFFFFF;" version="1.1" viewBox="0 0 1524 2020" width="1524.8px" zoomAndPan="magnify"><defs/><g><!--cluster UI--><g id="cluster_UI"><path d="M298,4.8109 L310,4.8109 A3,3 0 0 1 312,6.8109 L317.6,24.5078 L487.6,24.5078 A2,2 0 0 1 489.6,26.5078 L489.6,83.6109 A2,2 0 0 1 487.6,85.6109 L298,85.6109 A2,2 0 0 1 296,83.6109 L296,6.8109 A2,2 0 0 1 298,4.8109 " fill="none" style="stroke:#000000;stroke-width:1.2000000000000002;"/><line style="stroke:#000000;stroke-width:1.2000000000000002;" x1="296" x2="317.6" y1="24.5078" y2="24.5078"/><text fill="#000000" font-family="sans-serif" font-size="11.2" font-weight="bold" lengthAdjust="spacing" textLength="11.2" x="299.2" y="18.4969">UI</text></g><!--cluster Controller--><g id="cluster_Controller"><path d="M230.8,112.0109 L288.4,112.0109 A3,3 0 0 1 290.4,114.0109 L296,131.7078 L554.8,131.7078 A2,2 0 0 1 556.8,133.7078 L556.8,220.4109 A2,2 0 0 1 554.8,222.4109 L230.8,222.4109 A2,2 0 0 1 228.8,220.4109 L228.8,114.0109 A2,2 0 0 1 230.8,112.0109 " fill="none" style="stroke:#000000;stroke-width:1.2000000000000002;"/><line style="stroke:#000000;stroke-width:1.2000000000000002;" x1="228.8" x2="296" y1="131.7078" y2="131.7078"/><text fill="#000000" font-family="sans-serif" font-size="11.2" font-weight="bold" lengthAdjust="spacing" textLength="56.8" x="232" y="125.6969">Controller</text></g><!--cluster Domain--><g id="cluster_Domain"><path d="M137.2,312.8109 L179.6,312.8109 A3,3 0 0 1 181.6,314.8109 L187.2,332.5078 L1517.2,332.5078 A2,2 0 0 1 1519.2,334.5078 L1519.2,2012.4109 A2,2 0 0 1 1517.2,2014.4109 L137.2,2014.4109 A2,2 0 0 1 135.2,2012.4109 L135.2,314.8109 A2,2 0 0 1 137.2,312.8109 " fill="none" style="stroke:#000000;stroke-width:1.2000000000000002;"/><line style="stroke:#000000;stroke-width:1.2000000000000002;" x1="135.2" x2="187.2" y1="332.5078" y2="332.5078"/><text fill="#000000" font-family="sans-serif" font-size="11.2" font-weight="bold" lengthAdjust="spacing" textLength="41.6" x="138.4" y="326.4969">Domain</text></g><!--cluster Application--><g id="cluster_Application"><path d="M320.4,371.2109 L383.6,371.2109 A3,3 0 0 1 385.6,373.2109 L391.2,390.9078 L528.4,390.9078 A2,2 0 0 1 530.4,392.9078 L530.4,618.8109 A2,2 0 0 1 528.4,620.8109 L320.4,620.8109 A2,2 0 0 1 318.4,618.8109 L318.4,373.2109 A2,2 0 0 1 320.4,371.2109 " fill="none" style="stroke:#000000;stroke-width:1.2000000000000002;"/><line style="stroke:#000000;stroke-width:1.2000000000000002;" x1="318.4" x2="391.2" y1="390.9078" y2="390.9078"/><text fill="#000000" font-family="sans-serif" font-size="11.2" font-weight="bold" lengthAdjust="spacing" textLength="62.4" x="321.6" y="384.8969">Application</text></g><!--cluster Model--><g id="cluster_Model"><path d="M156.4,765.6109 L192.4,765.6109 A3,3 0 0 1 194.4,767.6109 L200,785.3078 L1498,785.3078 A2,2 0 0 1 1500,787.3078 L1500,1993.2109 A2,2 0 0 1 1498,1995.2109 L156.4,1995.2109 A2,2 0 0 1 154.4,1993.2109 L154.4,767.6109 A2,2 0 0 1 156.4,765.6109 " fill="none" style="stroke:#000000;stroke-width:1.2000000000000002;"/><line style="stroke:#000000;stroke-width:1.2000000000000002;" x1="154.4" x2="200" y1="785.3078" y2="785.3078"/><text fill="#000000" font-family="sans-serif" font-size="11.2" font-weight="bold" lengthAdjust="spacing" textLength="35.2" x="157.6" y="779.2969">Model</text></g><!--cluster Repository--><g id="cluster_Repository"><path d="M551.6,348.8109 L613.2,348.8109 A3,3 0 0 1 615.2,350.8109 L620.8,368.5078 L945.2,368.5078 A2,2 0 0 1 947.2,370.5078 L947.2,722.8109 A2,2 0 0 1 945.2,724.8109 L551.6,724.8109 A2,2 0 0 1 549.6,722.8109 L549.6,350.8109 A2,2 0 0 1 551.6,348.8109 " fill="none" style="stroke:#000000;stroke-width:1.2000000000000002;"/><line style="stroke:#000000;stroke-width:1.2000000000000002;" x1="549.6" x2="620.8" y1="368.5078" y2="368.5078"/><text fill="#000000" font-family="sans-serif" font-size="11.2" font-weight="bold" lengthAdjust="spacing" textLength="60.8" x="552.8" y="362.4969">Repository</text></g><!--class ConsultAssignedTasksListUI--><g id="elem_ConsultAssignedTasksListUI"><rect codeLine="9" fill="#F1F1F1" height="38.4" id="ConsultAssignedTasksListUI" rx="2" ry="2" style="stroke:#181818;stroke-width:0.4000000000000001;" width="168" x="308.8" y="34.4109"/><ellipse cx="320.8" cy="47.2109" fill="#ADD1B2" rx="8.8" ry="8.8" style="stroke:#181818;stroke-width:0.8000000000000002;"/><path d="M323.0125,43.9109 Q323.1375,43.7359 323.2875,43.6484 Q323.4375,43.5609 323.6125,43.5609 Q323.9125,43.5609 324.1,43.7734 Q324.2875,43.9734 324.2875,44.4609 L324.2875,45.6234 Q324.2875,46.1109 324.1,46.3234 Q323.9125,46.5359 323.6125,46.5359 Q323.3375,46.5359 323.175,46.3734 Q323.0125,46.2234 322.925,45.8109 Q322.8875,45.5234 322.7375,45.3734 Q322.475,45.0734 321.9875,44.8984 Q321.5,44.7234 321,44.7234 Q320.3875,44.7234 319.875,44.9859 Q319.375,45.2484 318.975,45.8484 Q318.5875,46.4484 318.5875,47.2734 L318.5875,48.1484 Q318.5875,49.1359 319.3,49.7984 Q320.0125,50.4484 321.2875,50.4484 Q322.0375,50.4484 322.5625,50.2484 Q322.875,50.1234 323.2125,49.7734 Q323.425,49.5609 323.5375,49.4984 Q323.6625,49.4359 323.825,49.4359 Q324.0875,49.4359 324.2875,49.6484 Q324.5,49.8484 324.5,50.1234 Q324.5,50.3984 324.225,50.7234 Q323.825,51.1859 323.1875,51.4484 Q322.325,51.8109 321.2875,51.8109 Q320.075,51.8109 319.1125,51.3109 Q318.325,50.9109 317.775,50.0609 Q317.225,49.1984 317.225,48.1734 L317.225,47.2484 Q317.225,46.1859 317.7125,45.2734 Q318.2125,44.3484 319.0875,43.8609 Q319.9625,43.3609 320.95,43.3609 Q321.5375,43.3609 322.05,43.4984 Q322.575,43.6234 323.0125,43.9109 Z " fill="#000000"/><text fill="#000000" font-family="sans-serif" font-size="11.2" lengthAdjust="spacing" textLength="142.4" x="332" y="51.8484">ConsultAssignedTasksListUI</text><line style="stroke:#181818;stroke-width:0.4000000000000001;" x1="309.6" x2="476" y1="60.0109" y2="60.0109"/><line style="stroke:#181818;stroke-width:0.4000000000000001;" x1="309.6" x2="476" y1="66.4109" y2="66.4109"/></g><!--class ConsultAssignedTasksController--><g id="elem_ConsultAssignedTasksController"><rect codeLine="16" fill="#F1F1F1" height="68.1938" id="ConsultAssignedTasksController" rx="2" ry="2" style="stroke:#181818;stroke-width:0.4000000000000001;" width="301.6" x="242" y="141.6109"/><ellipse cx="307" cy="154.4109" fill="#ADD1B2" rx="8.8" ry="8.8" style="stroke:#181818;stroke-width:0.8000000000000002;"/><path d="M309.2125,151.1109 Q309.3375,150.9359 309.4875,150.8484 Q309.6375,150.7609 309.8125,150.7609 Q310.1125,150.7609 310.3,150.9734 Q310.4875,151.1734 310.4875,151.6609 L310.4875,152.8234 Q310.4875,153.3109 310.3,153.5234 Q310.1125,153.7359 309.8125,153.7359 Q309.5375,153.7359 309.375,153.5734 Q309.2125,153.4234 309.125,153.0109 Q309.0875,152.7234 308.9375,152.5734 Q308.675,152.2734 308.1875,152.0984 Q307.7,151.9234 307.2,151.9234 Q306.5875,151.9234 306.075,152.1859 Q305.575,152.4484 305.175,153.0484 Q304.7875,153.6484 304.7875,154.4734 L304.7875,155.3484 Q304.7875,156.3359 305.5,156.9984 Q306.2125,157.6484 307.4875,157.6484 Q308.2375,157.6484 308.7625,157.4484 Q309.075,157.3234 309.4125,156.9734 Q309.625,156.7609 309.7375,156.6984 Q309.8625,156.6359 310.025,156.6359 Q310.2875,156.6359 310.4875,156.8484 Q310.7,157.0484 310.7,157.3234 Q310.7,157.5984 310.425,157.9234 Q310.025,158.3859 309.3875,158.6484 Q308.525,159.0109 307.4875,159.0109 Q306.275,159.0109 305.3125,158.5109 Q304.525,158.1109 303.975,157.2609 Q303.425,156.3984 303.425,155.3734 L303.425,154.4484 Q303.425,153.3859 303.9125,152.4734 Q304.4125,151.5484 305.2875,151.0609 Q306.1625,150.5609 307.15,150.5609 Q307.7375,150.5609 308.25,150.6984 Q308.775,150.8234 309.2125,151.1109 Z " fill="#000000"/><text fill="#000000" font-family="sans-serif" font-size="11.2" lengthAdjust="spacing" textLength="164.8" x="323.4" y="159.0484">ConsultAssignedTasksController</text><line style="stroke:#181818;stroke-width:0.4000000000000001;" x1="242.8" x2="542.8" y1="167.2109" y2="167.2109"/><line style="stroke:#181818;stroke-width:0.4000000000000001;" x1="242.8" x2="542.8" y1="173.6109" y2="173.6109"/><ellipse cx="250.8" cy="185.4594" fill="#84BE84" rx="2.4" ry="2.4" style="stroke:#038048;stroke-width:0.8000000000000002;"/><text fill="#000000" font-family="sans-serif" font-size="11.2" lengthAdjust="spacing" textLength="280.8" x="258" y="188.8969">getTasksBetweenTwoDates(startDate, endDate, status)</text><rect fill="#F24D5C" height="4.8" style="stroke:#C82930;stroke-width:0.8000000000000002;" width="4.8" x="248.4" y="197.9563"/><text fill="#000000" font-family="sans-serif" font-size="11.2" lengthAdjust="spacing" textLength="152.8" x="258" y="203.7938">getCollaboratorFromSession()</text></g><!--class ApplicationSession--><g id="elem_ApplicationSession"><rect codeLine="28" fill="#F1F1F1" height="68.1938" id="ApplicationSession" rx="2" ry="2" style="stroke:#181818;stroke-width:0.4000000000000001;" width="123.2" x="331.2" y="400.8109"/><ellipse cx="344.28" cy="413.6109" fill="#ADD1B2" rx="8.8" ry="8.8" style="stroke:#181818;stroke-width:0.8000000000000002;"/><path d="M346.4925,410.3109 Q346.6175,410.1359 346.7675,410.0484 Q346.9175,409.9609 347.0925,409.9609 Q347.3925,409.9609 347.58,410.1734 Q347.7675,410.3734 347.7675,410.8609 L347.7675,412.0234 Q347.7675,412.5109 347.58,412.7234 Q347.3925,412.9359 347.0925,412.9359 Q346.8175,412.9359 346.655,412.7734 Q346.4925,412.6234 346.405,412.2109 Q346.3675,411.9234 346.2175,411.7734 Q345.955,411.4734 345.4675,411.2984 Q344.98,411.1234 344.48,411.1234 Q343.8675,411.1234 343.355,411.3859 Q342.855,411.6484 342.455,412.2484 Q342.0675,412.8484 342.0675,413.6734 L342.0675,414.5484 Q342.0675,415.5359 342.78,416.1984 Q343.4925,416.8484 344.7675,416.8484 Q345.5175,416.8484 346.0425,416.6484 Q346.355,416.5234 346.6925,416.1734 Q346.905,415.9609 347.0175,415.8984 Q347.1425,415.8359 347.305,415.8359 Q347.5675,415.8359 347.7675,416.0484 Q347.98,416.2484 347.98,416.5234 Q347.98,416.7984 347.705,417.1234 Q347.305,417.5859 346.6675,417.8484 Q345.805,418.2109 344.7675,418.2109 Q343.555,418.2109 342.5925,417.7109 Q341.805,417.3109 341.255,416.4609 Q340.705,415.5984 340.705,414.5734 L340.705,413.6484 Q340.705,412.5859 341.1925,411.6734 Q341.6925,410.7484 342.5675,410.2609 Q343.4425,409.7609 344.43,409.7609 Q345.0175,409.7609 345.53,409.8984 Q346.055,410.0234 346.4925,410.3109 Z " fill="#000000"/><text fill="#000000" font-family="sans-serif" font-size="11.2" lengthAdjust="spacing" textLength="95.2" x="355.72" y="418.2484">ApplicationSession</text><line style="stroke:#181818;stroke-width:0.4000000000000001;" x1="332" x2="453.6" y1="426.4109" y2="426.4109"/><line style="stroke:#181818;stroke-width:0.4000000000000001;" x1="332" x2="453.6" y1="432.8109" y2="432.8109"/><ellipse cx="340" cy="444.6594" fill="#84BE84" rx="2.4" ry="2.4" style="stroke:#038048;stroke-width:0.8000000000000002;"/><text fill="#000000" font-family="sans-serif" font-size="11.2" lengthAdjust="spacing" textLength="96" x="347.2" y="448.0969">static getInstance()</text><ellipse cx="340" cy="459.5563" fill="#84BE84" rx="2.4" ry="2.4" style="stroke:#038048;stroke-width:0.8000000000000002;"/><text fill="#000000" font-family="sans-serif" font-size="11.2" lengthAdjust="spacing" textLength="102.4" x="347.2" y="462.9938">getCurrentSession()</text></g><!--class UserSession--><g id="elem_UserSession"><rect codeLine="34" fill="#F1F1F1" height="53.2969" id="UserSession" rx="2" ry="2" style="stroke:#181818;stroke-width:0.4000000000000001;" width="95.2" x="338" y="554.4109"/><ellipse cx="352.88" cy="567.2109" fill="#ADD1B2" rx="8.8" ry="8.8" style="stroke:#181818;stroke-width:0.8000000000000002;"/><path d="M355.0925,563.9109 Q355.2175,563.7359 355.3675,563.6484 Q355.5175,563.5609 355.6925,563.5609 Q355.9925,563.5609 356.18,563.7734 Q356.3675,563.9734 356.3675,564.4609 L356.3675,565.6234 Q356.3675,566.1109 356.18,566.3234 Q355.9925,566.5359 355.6925,566.5359 Q355.4175,566.5359 355.255,566.3734 Q355.0925,566.2234 355.005,565.8109 Q354.9675,565.5234 354.8175,565.3734 Q354.555,565.0734 354.0675,564.8984 Q353.58,564.7234 353.08,564.7234 Q352.4675,564.7234 351.955,564.9859 Q351.455,565.2484 351.055,565.8484 Q350.6675,566.4484 350.6675,567.2734 L350.6675,568.1484 Q350.6675,569.1359 351.38,569.7984 Q352.0925,570.4484 353.3675,570.4484 Q354.1175,570.4484 354.6425,570.2484 Q354.955,570.1234 355.2925,569.7734 Q355.505,569.5609 355.6175,569.4984 Q355.7425,569.4359 355.905,569.4359 Q356.1675,569.4359 356.3675,569.6484 Q356.58,569.8484 356.58,570.1234 Q356.58,570.3984 356.305,570.7234 Q355.905,571.1859 355.2675,571.4484 Q354.405,571.8109 353.3675,571.8109 Q352.155,571.8109 351.1925,571.3109 Q350.405,570.9109 349.855,570.0609 Q349.305,569.1984 349.305,568.1734 L349.305,567.2484 Q349.305,566.1859 349.7925,565.2734 Q350.2925,564.3484 351.1675,563.8609 Q352.0425,563.3609 353.03,563.3609 Q353.6175,563.3609 354.13,563.4984 Q354.655,563.6234 355.0925,563.9109 Z " fill="#000000"/><text fill="#000000" font-family="sans-serif" font-size="11.2" lengthAdjust="spacing" textLength="63.2" x="364.72" y="571.8484">UserSession</text><line style="stroke:#181818;stroke-width:0.4000000000000001;" x1="338.8" x2="432.4" y1="580.0109" y2="580.0109"/><line style="stroke:#181818;stroke-width:0.4000000000000001;" x1="338.8" x2="432.4" y1="586.4109" y2="586.4109"/><ellipse cx="346.8" cy="598.2594" fill="#84BE84" rx="2.4" ry="2.4" style="stroke:#038048;stroke-width:0.8000000000000002;"/><text fill="#000000" font-family="sans-serif" font-size="11.2" lengthAdjust="spacing" textLength="74.4" x="354" y="601.6969">getUserEmail()</text></g><!--class GreenSpace--><g id="elem_GreenSpace"><rect codeLine="42" fill="#F1F1F1" height="83.0906" id="GreenSpace" rx="2" ry="2" style="stroke:#181818;stroke-width:0.4000000000000001;" width="89.6" x="813.6" y="1495.2109"/><ellipse cx="825.6" cy="1508.0109" fill="#B4A7E5" rx="8.8" ry="8.8" style="stroke:#181818;stroke-width:0.8000000000000002;"/><path d="M826.3625,1505.3234 L826.3625,1510.6484 L827.7375,1510.6484 Q828.225,1510.6484 828.4375,1510.8359 Q828.65,1511.0234 828.65,1511.3359 Q828.65,1511.6359 828.4375,1511.8234 Q828.225,1512.0109 827.7375,1512.0109 L823.625,1512.0109 Q823.1375,1512.0109 822.925,1511.8234 Q822.7125,1511.6359 822.7125,1511.3234 Q822.7125,1511.0234 822.925,1510.8359 Q823.1375,1510.6484 823.625,1510.6484 L825,1510.6484 L825,1505.3234 L823.625,1505.3234 Q823.1375,1505.3234 822.925,1505.1359 Q822.7125,1504.9484 822.7125,1504.6359 Q822.7125,1504.3359 822.925,1504.1484 Q823.1375,1503.9609 823.625,1503.9609 L827.7375,1503.9609 Q828.225,1503.9609 828.4375,1504.1484 Q828.65,1504.3359 828.65,1504.6359 Q828.65,1504.9484 828.4375,1505.1359 Q828.225,1505.3234 827.7375,1505.3234 L826.3625,1505.3234 Z " fill="#000000"/><text fill="#000000" font-family="sans-serif" font-size="11.2" font-style="italic" lengthAdjust="spacing" textLength="64" x="836.8" y="1512.6484">GreenSpace</text><line style="stroke:#181818;stroke-width:0.4000000000000001;" x1="814.4" x2="902.4" y1="1520.8109" y2="1520.8109"/><line style="stroke:#181818;stroke-width:0.4000000000000001;" x1="814.4" x2="902.4" y1="1527.2109" y2="1527.2109"/><ellipse cx="822.4" cy="1539.0594" fill="#84BE84" rx="2.4" ry="2.4" style="stroke:#038048;stroke-width:0.8000000000000002;"/><text fill="#000000" font-family="sans-serif" font-size="11.2" lengthAdjust="spacing" textLength="52.8" x="829.6" y="1542.4969">getName()</text><ellipse cx="822.4" cy="1553.9563" fill="#84BE84" rx="2.4" ry="2.4" style="stroke:#038048;stroke-width:0.8000000000000002;"/><text fill="#000000" font-family="sans-serif" font-size="11.2" lengthAdjust="spacing" textLength="48" x="829.6" y="1557.3938">getArea()</text><ellipse cx="822.4" cy="1568.8531" fill="#84BE84" rx="2.4" ry="2.4" style="stroke:#038048;stroke-width:0.8000000000000002;"/><text fill="#000000" font-family="sans-serif" font-size="11.2" lengthAdjust="spacing" textLength="65.6" x="829.6" y="1572.2906">getAddress()</text></g><!--class Team--><g id="elem_Team"><rect codeLine="48" fill="#F1F1F1" height="53.2969" id="Team" rx="2" ry="2" style="stroke:#181818;stroke-width:0.4000000000000001;" width="211.2" x="167.2" y="1693.2109"/><ellipse cx="255" cy="1706.0109" fill="#ADD1B2" rx="8.8" ry="8.8" style="stroke:#181818;stroke-width:0.8000000000000002;"/><path d="M257.2125,1702.7109 Q257.3375,1702.5359 257.4875,1702.4484 Q257.6375,1702.3609 257.8125,1702.3609 Q258.1125,1702.3609 258.3,1702.5734 Q258.4875,1702.7734 258.4875,1703.2609 L258.4875,1704.4234 Q258.4875,1704.9109 258.3,1705.1234 Q258.1125,1705.3359 257.8125,1705.3359 Q257.5375,1705.3359 257.375,1705.1734 Q257.2125,1705.0234 257.125,1704.6109 Q257.0875,1704.3234 256.9375,1704.1734 Q256.675,1703.8734 256.1875,1703.6984 Q255.7,1703.5234 255.2,1703.5234 Q254.5875,1703.5234 254.075,1703.7859 Q253.575,1704.0484 253.175,1704.6484 Q252.7875,1705.2484 252.7875,1706.0734 L252.7875,1706.9484 Q252.7875,1707.9359 253.5,1708.5984 Q254.2125,1709.2484 255.4875,1709.2484 Q256.2375,1709.2484 256.7625,1709.0484 Q257.075,1708.9234 257.4125,1708.5734 Q257.625,1708.3609 257.7375,1708.2984 Q257.8625,1708.2359 258.025,1708.2359 Q258.2875,1708.2359 258.4875,1708.4484 Q258.7,1708.6484 258.7,1708.9234 Q258.7,1709.1984 258.425,1709.5234 Q258.025,1709.9859 257.3875,1710.2484 Q256.525,1710.6109 255.4875,1710.6109 Q254.275,1710.6109 253.3125,1710.1109 Q252.525,1709.7109 251.975,1708.8609 Q251.425,1707.9984 251.425,1706.9734 L251.425,1706.0484 Q251.425,1704.9859 251.9125,1704.0734 Q252.4125,1703.1484 253.2875,1702.6609 Q254.1625,1702.1609 255.15,1702.1609 Q255.7375,1702.1609 256.25,1702.2984 Q256.775,1702.4234 257.2125,1702.7109 Z " fill="#000000"/><text fill="#000000" font-family="sans-serif" font-size="11.2" lengthAdjust="spacing" textLength="28.8" x="271.4" y="1710.6484">Team</text><line style="stroke:#181818;stroke-width:0.4000000000000001;" x1="168" x2="377.6" y1="1718.8109" y2="1718.8109"/><line style="stroke:#181818;stroke-width:0.4000000000000001;" x1="168" x2="377.6" y1="1725.2109" y2="1725.2109"/><ellipse cx="176" cy="1737.0594" fill="#84BE84" rx="2.4" ry="2.4" style="stroke:#038048;stroke-width:0.8000000000000002;"/><text fill="#000000" font-family="sans-serif" font-size="11.2" lengthAdjust="spacing" textLength="190.4" x="183.2" y="1740.4969">hasTeamByCollaborator(collaborator)</text></g><!--class Garden--><g id="elem_Garden"><rect codeLine="53" fill="#F1F1F1" height="142.6781" id="Garden" rx="2" ry="2" style="stroke:#181818;stroke-width:0.4000000000000001;" width="234.4" x="713.2" y="1648.8109"/><ellipse cx="807.8" cy="1661.6109" fill="#ADD1B2" rx="8.8" ry="8.8" style="stroke:#181818;stroke-width:0.8000000000000002;"/><path d="M810.0125,1658.3109 Q810.1375,1658.1359 810.2875,1658.0484 Q810.4375,1657.9609 810.6125,1657.9609 Q810.9125,1657.9609 811.1,1658.1734 Q811.2875,1658.3734 811.2875,1658.8609 L811.2875,1660.0234 Q811.2875,1660.5109 811.1,1660.7234 Q810.9125,1660.9359 810.6125,1660.9359 Q810.3375,1660.9359 810.175,1660.7734 Q810.0125,1660.6234 809.925,1660.2109 Q809.8875,1659.9234 809.7375,1659.7734 Q809.475,1659.4734 808.9875,1659.2984 Q808.5,1659.1234 808,1659.1234 Q807.3875,1659.1234 806.875,1659.3859 Q806.375,1659.6484 805.975,1660.2484 Q805.5875,1660.8484 805.5875,1661.6734 L805.5875,1662.5484 Q805.5875,1663.5359 806.3,1664.1984 Q807.0125,1664.8484 808.2875,1664.8484 Q809.0375,1664.8484 809.5625,1664.6484 Q809.875,1664.5234 810.2125,1664.1734 Q810.425,1663.9609 810.5375,1663.8984 Q810.6625,1663.8359 810.825,1663.8359 Q811.0875,1663.8359 811.2875,1664.0484 Q811.5,1664.2484 811.5,1664.5234 Q811.5,1664.7984 811.225,1665.1234 Q810.825,1665.5859 810.1875,1665.8484 Q809.325,1666.2109 808.2875,1666.2109 Q807.075,1666.2109 806.1125,1665.7109 Q805.325,1665.3109 804.775,1664.4609 Q804.225,1663.5984 804.225,1662.5734 L804.225,1661.6484 Q804.225,1660.5859 804.7125,1659.6734 Q805.2125,1658.7484 806.0875,1658.2609 Q806.9625,1657.7609 807.95,1657.7609 Q808.5375,1657.7609 809.05,1657.8984 Q809.575,1658.0234 810.0125,1658.3109 Z " fill="#000000"/><text fill="#000000" font-family="sans-serif" font-size="11.2" lengthAdjust="spacing" textLength="38.4" x="824.2" y="1666.2484">Garden</text><line style="stroke:#181818;stroke-width:0.4000000000000001;" x1="714" x2="946.8" y1="1674.4109" y2="1674.4109"/><rect fill="none" height="4.8" style="stroke:#C82930;stroke-width:0.8000000000000002;" width="4.8" x="719.6" y="1683.8594"/><text fill="#000000" font-family="sans-serif" font-size="11.2" lengthAdjust="spacing" textLength="60.8" x="729.2" y="1689.6969">String name</text><rect fill="none" height="4.8" style="stroke:#C82930;stroke-width:0.8000000000000002;" width="4.8" x="719.6" y="1698.7563"/><text fill="#000000" font-family="sans-serif" font-size="11.2" lengthAdjust="spacing" textLength="38.4" x="729.2" y="1704.5938">int area</text><rect fill="none" height="4.8" style="stroke:#C82930;stroke-width:0.8000000000000002;" width="4.8" x="719.6" y="1713.6531"/><text fill="#000000" font-family="sans-serif" font-size="11.2" lengthAdjust="spacing" textLength="41.6" x="729.2" y="1719.4906">Address</text><line style="stroke:#181818;stroke-width:0.4000000000000001;" x1="714" x2="946.8" y1="1725.5016" y2="1725.5016"/><ellipse cx="722" cy="1737.35" fill="#84BE84" rx="2.4" ry="2.4" style="stroke:#038048;stroke-width:0.8000000000000002;"/><text fill="#000000" font-family="sans-serif" font-size="11.2" lengthAdjust="spacing" textLength="213.6" x="729.2" y="1740.7875">Garden(name,area,streetName,postCode)</text><ellipse cx="722" cy="1752.2469" fill="#84BE84" rx="2.4" ry="2.4" style="stroke:#038048;stroke-width:0.8000000000000002;"/><text fill="#000000" font-family="sans-serif" font-size="11.2" lengthAdjust="spacing" textLength="52.8" x="729.2" y="1755.6844">getName()</text><ellipse cx="722" cy="1767.1438" fill="#84BE84" rx="2.4" ry="2.4" style="stroke:#038048;stroke-width:0.8000000000000002;"/><text fill="#000000" font-family="sans-serif" font-size="11.2" lengthAdjust="spacing" textLength="48" x="729.2" y="1770.5813">getArea()</text><ellipse cx="722" cy="1782.0406" fill="#84BE84" rx="2.4" ry="2.4" style="stroke:#038048;stroke-width:0.8000000000000002;"/><text fill="#000000" font-family="sans-serif" font-size="11.2" lengthAdjust="spacing" textLength="65.6" x="729.2" y="1785.4781">getAddress()</text></g><!--class MediumPark--><g id="elem_MediumPark"><rect codeLine="64" fill="#F1F1F1" height="142.6781" id="MediumPark" rx="2" ry="2" style="stroke:#181818;stroke-width:0.4000000000000001;" width="258.4" x="975.6" y="1648.8109"/><ellipse cx="1070.2" cy="1661.6109" fill="#ADD1B2" rx="8.8" ry="8.8" style="stroke:#181818;stroke-width:0.8000000000000002;"/><path d="M1072.4125,1658.3109 Q1072.5375,1658.1359 1072.6875,1658.0484 Q1072.8375,1657.9609 1073.0125,1657.9609 Q1073.3125,1657.9609 1073.5,1658.1734 Q1073.6875,1658.3734 1073.6875,1658.8609 L1073.6875,1660.0234 Q1073.6875,1660.5109 1073.5,1660.7234 Q1073.3125,1660.9359 1073.0125,1660.9359 Q1072.7375,1660.9359 1072.575,1660.7734 Q1072.4125,1660.6234 1072.325,1660.2109 Q1072.2875,1659.9234 1072.1375,1659.7734 Q1071.875,1659.4734 1071.3875,1659.2984 Q1070.9,1659.1234 1070.4,1659.1234 Q1069.7875,1659.1234 1069.275,1659.3859 Q1068.775,1659.6484 1068.375,1660.2484 Q1067.9875,1660.8484 1067.9875,1661.6734 L1067.9875,1662.5484 Q1067.9875,1663.5359 1068.7,1664.1984 Q1069.4125,1664.8484 1070.6875,1664.8484 Q1071.4375,1664.8484 1071.9625,1664.6484 Q1072.275,1664.5234 1072.6125,1664.1734 Q1072.825,1663.9609 1072.9375,1663.8984 Q1073.0625,1663.8359 1073.225,1663.8359 Q1073.4875,1663.8359 1073.6875,1664.0484 Q1073.9,1664.2484 1073.9,1664.5234 Q1073.9,1664.7984 1073.625,1665.1234 Q1073.225,1665.5859 1072.5875,1665.8484 Q1071.725,1666.2109 1070.6875,1666.2109 Q1069.475,1666.2109 1068.5125,1665.7109 Q1067.725,1665.3109 1067.175,1664.4609 Q1066.625,1663.5984 1066.625,1662.5734 L1066.625,1661.6484 Q1066.625,1660.5859 1067.1125,1659.6734 Q1067.6125,1658.7484 1068.4875,1658.2609 Q1069.3625,1657.7609 1070.35,1657.7609 Q1070.9375,1657.7609 1071.45,1657.8984 Q1071.975,1658.0234 1072.4125,1658.3109 Z " fill="#000000"/><text fill="#000000" font-family="sans-serif" font-size="11.2" lengthAdjust="spacing" textLength="62.4" x="1086.6" y="1666.2484">MediumPark</text><line style="stroke:#181818;stroke-width:0.4000000000000001;" x1="976.4" x2="1233.2" y1="1674.4109" y2="1674.4109"/><rect fill="none" height="4.8" style="stroke:#C82930;stroke-width:0.8000000000000002;" width="4.8" x="982" y="1683.8594"/><text fill="#000000" font-family="sans-serif" font-size="11.2" lengthAdjust="spacing" textLength="60.8" x="991.6" y="1689.6969">String name</text><rect fill="none" height="4.8" style="stroke:#C82930;stroke-width:0.8000000000000002;" width="4.8" x="982" y="1698.7563"/><text fill="#000000" font-family="sans-serif" font-size="11.2" lengthAdjust="spacing" textLength="38.4" x="991.6" y="1704.5938">int area</text><rect fill="none" height="4.8" style="stroke:#C82930;stroke-width:0.8000000000000002;" width="4.8" x="982" y="1713.6531"/><text fill="#000000" font-family="sans-serif" font-size="11.2" lengthAdjust="spacing" textLength="41.6" x="991.6" y="1719.4906">Address</text><line style="stroke:#181818;stroke-width:0.4000000000000001;" x1="976.4" x2="1233.2" y1="1725.5016" y2="1725.5016"/><ellipse cx="984.4" cy="1737.35" fill="#84BE84" rx="2.4" ry="2.4" style="stroke:#038048;stroke-width:0.8000000000000002;"/><text fill="#000000" font-family="sans-serif" font-size="11.2" lengthAdjust="spacing" textLength="52.8" x="991.6" y="1740.7875">getName()</text><ellipse cx="984.4" cy="1752.2469" fill="#84BE84" rx="2.4" ry="2.4" style="stroke:#038048;stroke-width:0.8000000000000002;"/><text fill="#000000" font-family="sans-serif" font-size="11.2" lengthAdjust="spacing" textLength="48" x="991.6" y="1755.6844">getArea()</text><ellipse cx="984.4" cy="1767.1438" fill="#84BE84" rx="2.4" ry="2.4" style="stroke:#038048;stroke-width:0.8000000000000002;"/><text fill="#000000" font-family="sans-serif" font-size="11.2" lengthAdjust="spacing" textLength="65.6" x="991.6" y="1770.5813">getAddress()</text><ellipse cx="984.4" cy="1782.0406" fill="#84BE84" rx="2.4" ry="2.4" style="stroke:#038048;stroke-width:0.8000000000000002;"/><text fill="#000000" font-family="sans-serif" font-size="11.2" lengthAdjust="spacing" textLength="237.6" x="991.6" y="1785.4781">MediumPark(name,area,streetName,postCode)</text></g><!--class LargePark--><g id="elem_LargePark"><rect codeLine="75" fill="#F1F1F1" height="142.6781" id="LargePark" rx="2" ry="2" style="stroke:#181818;stroke-width:0.4000000000000001;" width="248.8" x="436.4" y="1648.8109"/><ellipse cx="531" cy="1661.6109" fill="#ADD1B2" rx="8.8" ry="8.8" style="stroke:#181818;stroke-width:0.8000000000000002;"/><path d="M533.2125,1658.3109 Q533.3375,1658.1359 533.4875,1658.0484 Q533.6375,1657.9609 533.8125,1657.9609 Q534.1125,1657.9609 534.3,1658.1734 Q534.4875,1658.3734 534.4875,1658.8609 L534.4875,1660.0234 Q534.4875,1660.5109 534.3,1660.7234 Q534.1125,1660.9359 533.8125,1660.9359 Q533.5375,1660.9359 533.375,1660.7734 Q533.2125,1660.6234 533.125,1660.2109 Q533.0875,1659.9234 532.9375,1659.7734 Q532.675,1659.4734 532.1875,1659.2984 Q531.7,1659.1234 531.2,1659.1234 Q530.5875,1659.1234 530.075,1659.3859 Q529.575,1659.6484 529.175,1660.2484 Q528.7875,1660.8484 528.7875,1661.6734 L528.7875,1662.5484 Q528.7875,1663.5359 529.5,1664.1984 Q530.2125,1664.8484 531.4875,1664.8484 Q532.2375,1664.8484 532.7625,1664.6484 Q533.075,1664.5234 533.4125,1664.1734 Q533.625,1663.9609 533.7375,1663.8984 Q533.8625,1663.8359 534.025,1663.8359 Q534.2875,1663.8359 534.4875,1664.0484 Q534.7,1664.2484 534.7,1664.5234 Q534.7,1664.7984 534.425,1665.1234 Q534.025,1665.5859 533.3875,1665.8484 Q532.525,1666.2109 531.4875,1666.2109 Q530.275,1666.2109 529.3125,1665.7109 Q528.525,1665.3109 527.975,1664.4609 Q527.425,1663.5984 527.425,1662.5734 L527.425,1661.6484 Q527.425,1660.5859 527.9125,1659.6734 Q528.4125,1658.7484 529.2875,1658.2609 Q530.1625,1657.7609 531.15,1657.7609 Q531.7375,1657.7609 532.25,1657.8984 Q532.775,1658.0234 533.2125,1658.3109 Z " fill="#000000"/><text fill="#000000" font-family="sans-serif" font-size="11.2" lengthAdjust="spacing" textLength="52.8" x="547.4" y="1666.2484">LargePark</text><line style="stroke:#181818;stroke-width:0.4000000000000001;" x1="437.2" x2="684.4" y1="1674.4109" y2="1674.4109"/><rect fill="none" height="4.8" style="stroke:#C82930;stroke-width:0.8000000000000002;" width="4.8" x="442.8" y="1683.8594"/><text fill="#000000" font-family="sans-serif" font-size="11.2" lengthAdjust="spacing" textLength="60.8" x="452.4" y="1689.6969">String name</text><rect fill="none" height="4.8" style="stroke:#C82930;stroke-width:0.8000000000000002;" width="4.8" x="442.8" y="1698.7563"/><text fill="#000000" font-family="sans-serif" font-size="11.2" lengthAdjust="spacing" textLength="38.4" x="452.4" y="1704.5938">int area</text><rect fill="none" height="4.8" style="stroke:#C82930;stroke-width:0.8000000000000002;" width="4.8" x="442.8" y="1713.6531"/><text fill="#000000" font-family="sans-serif" font-size="11.2" lengthAdjust="spacing" textLength="41.6" x="452.4" y="1719.4906">Address</text><line style="stroke:#181818;stroke-width:0.4000000000000001;" x1="437.2" x2="684.4" y1="1725.5016" y2="1725.5016"/><ellipse cx="445.2" cy="1737.35" fill="#84BE84" rx="2.4" ry="2.4" style="stroke:#038048;stroke-width:0.8000000000000002;"/><text fill="#000000" font-family="sans-serif" font-size="11.2" lengthAdjust="spacing" textLength="52.8" x="452.4" y="1740.7875">getName()</text><ellipse cx="445.2" cy="1752.2469" fill="#84BE84" rx="2.4" ry="2.4" style="stroke:#038048;stroke-width:0.8000000000000002;"/><text fill="#000000" font-family="sans-serif" font-size="11.2" lengthAdjust="spacing" textLength="48" x="452.4" y="1755.6844">getArea()</text><ellipse cx="445.2" cy="1767.1438" fill="#84BE84" rx="2.4" ry="2.4" style="stroke:#038048;stroke-width:0.8000000000000002;"/><text fill="#000000" font-family="sans-serif" font-size="11.2" lengthAdjust="spacing" textLength="65.6" x="452.4" y="1770.5813">getAddress()</text><ellipse cx="445.2" cy="1782.0406" fill="#84BE84" rx="2.4" ry="2.4" style="stroke:#038048;stroke-width:0.8000000000000002;"/><text fill="#000000" font-family="sans-serif" font-size="11.2" lengthAdjust="spacing" textLength="228" x="452.4" y="1785.4781">LargePark(name,area,streetName,postCode)</text></g><!--class ICollaborator--><g id="elem_ICollaborator"><rect codeLine="86" fill="#F1F1F1" height="202.2656" id="ICollaborator" rx="2" ry="2" style="stroke:#181818;stroke-width:0.4000000000000001;" width="120" x="368" y="795.2109"/><ellipse cx="392.96" cy="808.0109" fill="#B4A7E5" rx="8.8" ry="8.8" style="stroke:#181818;stroke-width:0.8000000000000002;"/><path d="M393.7225,805.3234 L393.7225,810.6484 L395.0975,810.6484 Q395.585,810.6484 395.7975,810.8359 Q396.01,811.0234 396.01,811.3359 Q396.01,811.6359 395.7975,811.8234 Q395.585,812.0109 395.0975,812.0109 L390.985,812.0109 Q390.4975,812.0109 390.285,811.8234 Q390.0725,811.6359 390.0725,811.3234 Q390.0725,811.0234 390.285,810.8359 Q390.4975,810.6484 390.985,810.6484 L392.36,810.6484 L392.36,805.3234 L390.985,805.3234 Q390.4975,805.3234 390.285,805.1359 Q390.0725,804.9484 390.0725,804.6359 Q390.0725,804.3359 390.285,804.1484 Q390.4975,803.9609 390.985,803.9609 L395.0975,803.9609 Q395.585,803.9609 395.7975,804.1484 Q396.01,804.3359 396.01,804.6359 Q396.01,804.9484 395.7975,805.1359 Q395.585,805.3234 395.0975,805.3234 L393.7225,805.3234 Z " fill="#000000"/><text fill="#000000" font-family="sans-serif" font-size="11.2" font-style="italic" lengthAdjust="spacing" textLength="65.6" x="407.04" y="812.6484">ICollaborator</text><line style="stroke:#181818;stroke-width:0.4000000000000001;" x1="368.8" x2="487.2" y1="820.8109" y2="820.8109"/><line style="stroke:#181818;stroke-width:0.4000000000000001;" x1="368.8" x2="487.2" y1="827.2109" y2="827.2109"/><ellipse cx="376.8" cy="839.0594" fill="#84BE84" rx="2.4" ry="2.4" style="stroke:#038048;stroke-width:0.8000000000000002;"/><text fill="#000000" font-family="sans-serif" font-size="11.2" lengthAdjust="spacing" textLength="52.8" x="384" y="842.4969">getName()</text><ellipse cx="376.8" cy="853.9563" fill="#84BE84" rx="2.4" ry="2.4" style="stroke:#038048;stroke-width:0.8000000000000002;"/><text fill="#000000" font-family="sans-serif" font-size="11.2" lengthAdjust="spacing" textLength="61.6" x="384" y="857.3938">getListSkill()</text><ellipse cx="376.8" cy="868.8531" fill="#84BE84" rx="2.4" ry="2.4" style="stroke:#038048;stroke-width:0.8000000000000002;"/><text fill="#000000" font-family="sans-serif" font-size="11.2" lengthAdjust="spacing" textLength="41.6" x="384" y="872.2906">getJob()</text><ellipse cx="376.8" cy="883.75" fill="#84BE84" rx="2.4" ry="2.4" style="stroke:#038048;stroke-width:0.8000000000000002;"/><text fill="#000000" font-family="sans-serif" font-size="11.2" lengthAdjust="spacing" textLength="83.2" x="384" y="887.1875">getDateOfBirth()</text><ellipse cx="376.8" cy="898.6469" fill="#84BE84" rx="2.4" ry="2.4" style="stroke:#038048;stroke-width:0.8000000000000002;"/><text fill="#000000" font-family="sans-serif" font-size="11.2" lengthAdjust="spacing" textLength="99.2" x="384" y="902.0844">getAdmissionDate()</text><ellipse cx="376.8" cy="913.5438" fill="#84BE84" rx="2.4" ry="2.4" style="stroke:#038048;stroke-width:0.8000000000000002;"/><text fill="#000000" font-family="sans-serif" font-size="11.2" lengthAdjust="spacing" textLength="65.6" x="384" y="916.9813">getAddress()</text><ellipse cx="376.8" cy="928.4406" fill="#84BE84" rx="2.4" ry="2.4" style="stroke:#038048;stroke-width:0.8000000000000002;"/><text fill="#000000" font-family="sans-serif" font-size="11.2" lengthAdjust="spacing" textLength="75.2" x="384" y="931.8781">getDocument()</text><ellipse cx="376.8" cy="943.3375" fill="#84BE84" rx="2.4" ry="2.4" style="stroke:#038048;stroke-width:0.8000000000000002;"/><text fill="#000000" font-family="sans-serif" font-size="11.2" lengthAdjust="spacing" textLength="96" x="384" y="946.775">getPhoneNumber()</text><ellipse cx="376.8" cy="958.2344" fill="#84BE84" rx="2.4" ry="2.4" style="stroke:#038048;stroke-width:0.8000000000000002;"/><text fill="#000000" font-family="sans-serif" font-size="11.2" lengthAdjust="spacing" textLength="51.2" x="384" y="961.6719">getEmail()</text><ellipse cx="376.8" cy="973.1313" fill="#84BE84" rx="2.4" ry="2.4" style="stroke:#038048;stroke-width:0.8000000000000002;"/><text fill="#000000" font-family="sans-serif" font-size="11.2" lengthAdjust="spacing" textLength="71.2" x="384" y="976.5688">getTaxpayer()</text><ellipse cx="376.8" cy="988.0281" fill="#84BE84" rx="2.4" ry="2.4" style="stroke:#038048;stroke-width:0.8000000000000002;"/><text fill="#000000" font-family="sans-serif" font-size="11.2" lengthAdjust="spacing" textLength="80" x="384" y="991.4656">hasEmail(email)</text></g><!--class Document--><g id="elem_Document"><rect codeLine="101" fill="#F1F1F1" height="53.2969" id="Document" rx="2" ry="2" style="stroke:#181818;stroke-width:0.4000000000000001;" width="124.8" x="534.4" y="869.6109"/><ellipse cx="568" cy="882.4109" fill="#ADD1B2" rx="8.8" ry="8.8" style="stroke:#181818;stroke-width:0.8000000000000002;"/><path d="M570.2125,879.1109 Q570.3375,878.9359 570.4875,878.8484 Q570.6375,878.7609 570.8125,878.7609 Q571.1125,878.7609 571.3,878.9734 Q571.4875,879.1734 571.4875,879.6609 L571.4875,880.8234 Q571.4875,881.3109 571.3,881.5234 Q571.1125,881.7359 570.8125,881.7359 Q570.5375,881.7359 570.375,881.5734 Q570.2125,881.4234 570.125,881.0109 Q570.0875,880.7234 569.9375,880.5734 Q569.675,880.2734 569.1875,880.0984 Q568.7,879.9234 568.2,879.9234 Q567.5875,879.9234 567.075,880.1859 Q566.575,880.4484 566.175,881.0484 Q565.7875,881.6484 565.7875,882.4734 L565.7875,883.3484 Q565.7875,884.3359 566.5,884.9984 Q567.2125,885.6484 568.4875,885.6484 Q569.2375,885.6484 569.7625,885.4484 Q570.075,885.3234 570.4125,884.9734 Q570.625,884.7609 570.7375,884.6984 Q570.8625,884.6359 571.025,884.6359 Q571.2875,884.6359 571.4875,884.8484 Q571.7,885.0484 571.7,885.3234 Q571.7,885.5984 571.425,885.9234 Q571.025,886.3859 570.3875,886.6484 Q569.525,887.0109 568.4875,887.0109 Q567.275,887.0109 566.3125,886.5109 Q565.525,886.1109 564.975,885.2609 Q564.425,884.3984 564.425,883.3734 L564.425,882.4484 Q564.425,881.3859 564.9125,880.4734 Q565.4125,879.5484 566.2875,879.0609 Q567.1625,878.5609 568.15,878.5609 Q568.7375,878.5609 569.25,878.6984 Q569.775,878.8234 570.2125,879.1109 Z " fill="#000000"/><text fill="#000000" font-family="sans-serif" font-size="11.2" lengthAdjust="spacing" textLength="51.2" x="584" y="887.0484">Document</text><line style="stroke:#181818;stroke-width:0.4000000000000001;" x1="535.2" x2="658.4" y1="895.2109" y2="895.2109"/><rect fill="none" height="4.8" style="stroke:#C82930;stroke-width:0.8000000000000002;" width="4.8" x="540.8" y="904.6594"/><text fill="#000000" font-family="sans-serif" font-size="11.2" lengthAdjust="spacing" textLength="104" x="550.4" y="910.4969">int documentNumber</text><line style="stroke:#181818;stroke-width:0.4000000000000001;" x1="535.2" x2="658.4" y1="916.5078" y2="916.5078"/></g><!--class DocumentType--><g id="elem_DocumentType"><rect codeLine="105" fill="#F1F1F1" height="53.2969" id="DocumentType" rx="2" ry="2" style="stroke:#181818;stroke-width:0.4000000000000001;" width="128.8" x="705.2" y="869.6109"/><ellipse cx="729.08" cy="882.4109" fill="#ADD1B2" rx="8.8" ry="8.8" style="stroke:#181818;stroke-width:0.8000000000000002;"/><path d="M731.2925,879.1109 Q731.4175,878.9359 731.5675,878.8484 Q731.7175,878.7609 731.8925,878.7609 Q732.1925,878.7609 732.38,878.9734 Q732.5675,879.1734 732.5675,879.6609 L732.5675,880.8234 Q732.5675,881.3109 732.38,881.5234 Q732.1925,881.7359 731.8925,881.7359 Q731.6175,881.7359 731.455,881.5734 Q731.2925,881.4234 731.205,881.0109 Q731.1675,880.7234 731.0175,880.5734 Q730.755,880.2734 730.2675,880.0984 Q729.78,879.9234 729.28,879.9234 Q728.6675,879.9234 728.155,880.1859 Q727.655,880.4484 727.255,881.0484 Q726.8675,881.6484 726.8675,882.4734 L726.8675,883.3484 Q726.8675,884.3359 727.58,884.9984 Q728.2925,885.6484 729.5675,885.6484 Q730.3175,885.6484 730.8425,885.4484 Q731.155,885.3234 731.4925,884.9734 Q731.705,884.7609 731.8175,884.6984 Q731.9425,884.6359 732.105,884.6359 Q732.3675,884.6359 732.5675,884.8484 Q732.78,885.0484 732.78,885.3234 Q732.78,885.5984 732.505,885.9234 Q732.105,886.3859 731.4675,886.6484 Q730.605,887.0109 729.5675,887.0109 Q728.355,887.0109 727.3925,886.5109 Q726.605,886.1109 726.055,885.2609 Q725.505,884.3984 725.505,883.3734 L725.505,882.4484 Q725.505,881.3859 725.9925,880.4734 Q726.4925,879.5484 727.3675,879.0609 Q728.2425,878.5609 729.23,878.5609 Q729.8175,878.5609 730.33,878.6984 Q730.855,878.8234 731.2925,879.1109 Z " fill="#000000"/><text fill="#000000" font-family="sans-serif" font-size="11.2" lengthAdjust="spacing" textLength="76.8" x="742.92" y="887.0484">DocumentType</text><line style="stroke:#181818;stroke-width:0.4000000000000001;" x1="706" x2="833.2" y1="895.2109" y2="895.2109"/><rect fill="none" height="4.8" style="stroke:#C82930;stroke-width:0.8000000000000002;" width="4.8" x="711.6" y="904.6594"/><text fill="#000000" font-family="sans-serif" font-size="11.2" lengthAdjust="spacing" textLength="108" x="721.2" y="910.4969">String documentType</text><line style="stroke:#181818;stroke-width:0.4000000000000001;" x1="706" x2="833.2" y1="916.5078" y2="916.5078"/></g><!--class Address--><g id="elem_Address"><rect codeLine="109" fill="#F1F1F1" height="97.9875" id="Address" rx="2" ry="2" style="stroke:#181818;stroke-width:0.4000000000000001;" width="280.8" x="1004.4" y="1488.0109"/><ellipse cx="1120.6" cy="1500.8109" fill="#ADD1B2" rx="8.8" ry="8.8" style="stroke:#181818;stroke-width:0.8000000000000002;"/><path d="M1122.8125,1497.5109 Q1122.9375,1497.3359 1123.0875,1497.2484 Q1123.2375,1497.1609 1123.4125,1497.1609 Q1123.7125,1497.1609 1123.9,1497.3734 Q1124.0875,1497.5734 1124.0875,1498.0609 L1124.0875,1499.2234 Q1124.0875,1499.7109 1123.9,1499.9234 Q1123.7125,1500.1359 1123.4125,1500.1359 Q1123.1375,1500.1359 1122.975,1499.9734 Q1122.8125,1499.8234 1122.725,1499.4109 Q1122.6875,1499.1234 1122.5375,1498.9734 Q1122.275,1498.6734 1121.7875,1498.4984 Q1121.3,1498.3234 1120.8,1498.3234 Q1120.1875,1498.3234 1119.675,1498.5859 Q1119.175,1498.8484 1118.775,1499.4484 Q1118.3875,1500.0484 1118.3875,1500.8734 L1118.3875,1501.7484 Q1118.3875,1502.7359 1119.1,1503.3984 Q1119.8125,1504.0484 1121.0875,1504.0484 Q1121.8375,1504.0484 1122.3625,1503.8484 Q1122.675,1503.7234 1123.0125,1503.3734 Q1123.225,1503.1609 1123.3375,1503.0984 Q1123.4625,1503.0359 1123.625,1503.0359 Q1123.8875,1503.0359 1124.0875,1503.2484 Q1124.3,1503.4484 1124.3,1503.7234 Q1124.3,1503.9984 1124.025,1504.3234 Q1123.625,1504.7859 1122.9875,1505.0484 Q1122.125,1505.4109 1121.0875,1505.4109 Q1119.875,1505.4109 1118.9125,1504.9109 Q1118.125,1504.5109 1117.575,1503.6609 Q1117.025,1502.7984 1117.025,1501.7734 L1117.025,1500.8484 Q1117.025,1499.7859 1117.5125,1498.8734 Q1118.0125,1497.9484 1118.8875,1497.4609 Q1119.7625,1496.9609 1120.75,1496.9609 Q1121.3375,1496.9609 1121.85,1497.0984 Q1122.375,1497.2234 1122.8125,1497.5109 Z " fill="#000000"/><text fill="#000000" font-family="sans-serif" font-size="11.2" lengthAdjust="spacing" textLength="41.6" x="1137" y="1505.4484">Address</text><line style="stroke:#181818;stroke-width:0.4000000000000001;" x1="1005.2" x2="1284.4" y1="1513.6109" y2="1513.6109"/><rect fill="none" height="4.8" style="stroke:#C82930;stroke-width:0.8000000000000002;" width="4.8" x="1010.8" y="1523.0594"/><text fill="#000000" font-family="sans-serif" font-size="11.2" lengthAdjust="spacing" textLength="90.4" x="1020.4" y="1528.8969">String streetName</text><rect fill="none" height="4.8" style="stroke:#C82930;stroke-width:0.8000000000000002;" width="4.8" x="1010.8" y="1537.9563"/><text fill="#000000" font-family="sans-serif" font-size="11.2" lengthAdjust="spacing" textLength="77.6" x="1020.4" y="1543.7938">int doorNumber</text><line style="stroke:#181818;stroke-width:0.4000000000000001;" x1="1005.2" x2="1284.4" y1="1549.8047" y2="1549.8047"/><ellipse cx="1013.2" cy="1561.6531" fill="#84BE84" rx="2.4" ry="2.4" style="stroke:#038048;stroke-width:0.8000000000000002;"/><text fill="#000000" font-family="sans-serif" font-size="11.2" lengthAdjust="spacing" textLength="260" x="1020.4" y="1565.0906">Address(streetName, postCodeNumber,localization)</text><rect fill="#F24D5C" height="4.8" style="stroke:#C82930;stroke-width:0.8000000000000002;" width="4.8" x="1010.8" y="1574.15"/><text fill="#000000" font-family="sans-serif" font-size="11.2" lengthAdjust="spacing" textLength="56" x="1020.4" y="1579.9875">validation()</text></g><!--class PostCode--><g id="elem_PostCode"><rect codeLine="117" fill="#F1F1F1" height="97.9875" id="PostCode" rx="2" ry="2" style="stroke:#181818;stroke-width:0.4000000000000001;" width="224.8" x="1262" y="1671.2109"/><ellipse cx="1346.2" cy="1684.0109" fill="#ADD1B2" rx="8.8" ry="8.8" style="stroke:#181818;stroke-width:0.8000000000000002;"/><path d="M1348.4125,1680.7109 Q1348.5375,1680.5359 1348.6875,1680.4484 Q1348.8375,1680.3609 1349.0125,1680.3609 Q1349.3125,1680.3609 1349.5,1680.5734 Q1349.6875,1680.7734 1349.6875,1681.2609 L1349.6875,1682.4234 Q1349.6875,1682.9109 1349.5,1683.1234 Q1349.3125,1683.3359 1349.0125,1683.3359 Q1348.7375,1683.3359 1348.575,1683.1734 Q1348.4125,1683.0234 1348.325,1682.6109 Q1348.2875,1682.3234 1348.1375,1682.1734 Q1347.875,1681.8734 1347.3875,1681.6984 Q1346.9,1681.5234 1346.4,1681.5234 Q1345.7875,1681.5234 1345.275,1681.7859 Q1344.775,1682.0484 1344.375,1682.6484 Q1343.9875,1683.2484 1343.9875,1684.0734 L1343.9875,1684.9484 Q1343.9875,1685.9359 1344.7,1686.5984 Q1345.4125,1687.2484 1346.6875,1687.2484 Q1347.4375,1687.2484 1347.9625,1687.0484 Q1348.275,1686.9234 1348.6125,1686.5734 Q1348.825,1686.3609 1348.9375,1686.2984 Q1349.0625,1686.2359 1349.225,1686.2359 Q1349.4875,1686.2359 1349.6875,1686.4484 Q1349.9,1686.6484 1349.9,1686.9234 Q1349.9,1687.1984 1349.625,1687.5234 Q1349.225,1687.9859 1348.5875,1688.2484 Q1347.725,1688.6109 1346.6875,1688.6109 Q1345.475,1688.6109 1344.5125,1688.1109 Q1343.725,1687.7109 1343.175,1686.8609 Q1342.625,1685.9984 1342.625,1684.9734 L1342.625,1684.0484 Q1342.625,1682.9859 1343.1125,1682.0734 Q1343.6125,1681.1484 1344.4875,1680.6609 Q1345.3625,1680.1609 1346.35,1680.1609 Q1346.9375,1680.1609 1347.45,1680.2984 Q1347.975,1680.4234 1348.4125,1680.7109 Z " fill="#000000"/><text fill="#000000" font-family="sans-serif" font-size="11.2" lengthAdjust="spacing" textLength="49.6" x="1362.6" y="1688.6484">PostCode</text><line style="stroke:#181818;stroke-width:0.4000000000000001;" x1="1262.8" x2="1486" y1="1696.8109" y2="1696.8109"/><rect fill="none" height="4.8" style="stroke:#C82930;stroke-width:0.8000000000000002;" width="4.8" x="1268.4" y="1706.2594"/><text fill="#000000" font-family="sans-serif" font-size="11.2" lengthAdjust="spacing" textLength="120.8" x="1278" y="1712.0969">String postCodeNumber</text><rect fill="none" height="4.8" style="stroke:#C82930;stroke-width:0.8000000000000002;" width="4.8" x="1268.4" y="1721.1563"/><text fill="#000000" font-family="sans-serif" font-size="11.2" lengthAdjust="spacing" textLength="88" x="1278" y="1726.9938">String localization</text><line style="stroke:#181818;stroke-width:0.4000000000000001;" x1="1262.8" x2="1486" y1="1733.0047" y2="1733.0047"/><ellipse cx="1270.8" cy="1744.8531" fill="#84BE84" rx="2.4" ry="2.4" style="stroke:#038048;stroke-width:0.8000000000000002;"/><text fill="#000000" font-family="sans-serif" font-size="11.2" lengthAdjust="spacing" textLength="204" x="1278" y="1748.2906">PostCode(postCodeNumber,localization)</text><rect fill="#F24D5C" height="4.8" style="stroke:#C82930;stroke-width:0.8000000000000002;" width="4.8" x="1268.4" y="1757.35"/><text fill="#000000" font-family="sans-serif" font-size="11.2" lengthAdjust="spacing" textLength="56" x="1278" y="1763.1875">validation()</text></g><!--class Task--><g id="elem_Task"><rect codeLine="125" fill="#F1F1F1" height="68.1938" id="Task" rx="2" ry="2" style="stroke:#181818;stroke-width:0.4000000000000001;" width="131.2" x="247.2" y="1297.2109"/><ellipse cx="297" cy="1310.0109" fill="#ADD1B2" rx="8.8" ry="8.8" style="stroke:#181818;stroke-width:0.8000000000000002;"/><path d="M299.2125,1306.7109 Q299.3375,1306.5359 299.4875,1306.4484 Q299.6375,1306.3609 299.8125,1306.3609 Q300.1125,1306.3609 300.3,1306.5734 Q300.4875,1306.7734 300.4875,1307.2609 L300.4875,1308.4234 Q300.4875,1308.9109 300.3,1309.1234 Q300.1125,1309.3359 299.8125,1309.3359 Q299.5375,1309.3359 299.375,1309.1734 Q299.2125,1309.0234 299.125,1308.6109 Q299.0875,1308.3234 298.9375,1308.1734 Q298.675,1307.8734 298.1875,1307.6984 Q297.7,1307.5234 297.2,1307.5234 Q296.5875,1307.5234 296.075,1307.7859 Q295.575,1308.0484 295.175,1308.6484 Q294.7875,1309.2484 294.7875,1310.0734 L294.7875,1310.9484 Q294.7875,1311.9359 295.5,1312.5984 Q296.2125,1313.2484 297.4875,1313.2484 Q298.2375,1313.2484 298.7625,1313.0484 Q299.075,1312.9234 299.4125,1312.5734 Q299.625,1312.3609 299.7375,1312.2984 Q299.8625,1312.2359 300.025,1312.2359 Q300.2875,1312.2359 300.4875,1312.4484 Q300.7,1312.6484 300.7,1312.9234 Q300.7,1313.1984 300.425,1313.5234 Q300.025,1313.9859 299.3875,1314.2484 Q298.525,1314.6109 297.4875,1314.6109 Q296.275,1314.6109 295.3125,1314.1109 Q294.525,1313.7109 293.975,1312.8609 Q293.425,1311.9984 293.425,1310.9734 L293.425,1310.0484 Q293.425,1308.9859 293.9125,1308.0734 Q294.4125,1307.1484 295.2875,1306.6609 Q296.1625,1306.1609 297.15,1306.1609 Q297.7375,1306.1609 298.25,1306.2984 Q298.775,1306.4234 299.2125,1306.7109 Z " fill="#000000"/><text fill="#000000" font-family="sans-serif" font-size="11.2" lengthAdjust="spacing" textLength="24.8" x="313.4" y="1314.6484">Task</text><line style="stroke:#181818;stroke-width:0.4000000000000001;" x1="248" x2="377.6" y1="1322.8109" y2="1322.8109"/><rect fill="none" height="4.8" style="stroke:#C82930;stroke-width:0.8000000000000002;" width="4.8" x="253.6" y="1332.2594"/><text fill="#000000" font-family="sans-serif" font-size="11.2" lengthAdjust="spacing" textLength="110.4" x="263.2" y="1338.0969">String taskDescription</text><line style="stroke:#181818;stroke-width:0.4000000000000001;" x1="248" x2="377.6" y1="1344.1078" y2="1344.1078"/><ellipse cx="256" cy="1355.9563" fill="#84BE84" rx="2.4" ry="2.4" style="stroke:#038048;stroke-width:0.8000000000000002;"/><text fill="#000000" font-family="sans-serif" font-size="11.2" lengthAdjust="spacing" textLength="110.4" x="263.2" y="1359.3938">Task(taskDescription)</text></g><!--class TaskAgenda--><g id="elem_TaskAgenda"><rect codeLine="131" fill="#F1F1F1" height="187.3688" id="TaskAgenda" rx="2" ry="2" style="stroke:#181818;stroke-width:0.4000000000000001;" width="379.2" x="662.4" y="1237.6109"/><ellipse cx="816.6" cy="1250.4109" fill="#ADD1B2" rx="8.8" ry="8.8" style="stroke:#181818;stroke-width:0.8000000000000002;"/><path d="M818.8125,1247.1109 Q818.9375,1246.9359 819.0875,1246.8484 Q819.2375,1246.7609 819.4125,1246.7609 Q819.7125,1246.7609 819.9,1246.9734 Q820.0875,1247.1734 820.0875,1247.6609 L820.0875,1248.8234 Q820.0875,1249.3109 819.9,1249.5234 Q819.7125,1249.7359 819.4125,1249.7359 Q819.1375,1249.7359 818.975,1249.5734 Q818.8125,1249.4234 818.725,1249.0109 Q818.6875,1248.7234 818.5375,1248.5734 Q818.275,1248.2734 817.7875,1248.0984 Q817.3,1247.9234 816.8,1247.9234 Q816.1875,1247.9234 815.675,1248.1859 Q815.175,1248.4484 814.775,1249.0484 Q814.3875,1249.6484 814.3875,1250.4734 L814.3875,1251.3484 Q814.3875,1252.3359 815.1,1252.9984 Q815.8125,1253.6484 817.0875,1253.6484 Q817.8375,1253.6484 818.3625,1253.4484 Q818.675,1253.3234 819.0125,1252.9734 Q819.225,1252.7609 819.3375,1252.6984 Q819.4625,1252.6359 819.625,1252.6359 Q819.8875,1252.6359 820.0875,1252.8484 Q820.3,1253.0484 820.3,1253.3234 Q820.3,1253.5984 820.025,1253.9234 Q819.625,1254.3859 818.9875,1254.6484 Q818.125,1255.0109 817.0875,1255.0109 Q815.875,1255.0109 814.9125,1254.5109 Q814.125,1254.1109 813.575,1253.2609 Q813.025,1252.3984 813.025,1251.3734 L813.025,1250.4484 Q813.025,1249.3859 813.5125,1248.4734 Q814.0125,1247.5484 814.8875,1247.0609 Q815.7625,1246.5609 816.75,1246.5609 Q817.3375,1246.5609 817.85,1246.6984 Q818.375,1246.8234 818.8125,1247.1109 Z " fill="#000000"/><text fill="#000000" font-family="sans-serif" font-size="11.2" lengthAdjust="spacing" textLength="64" x="833" y="1255.0484">TaskAgenda</text><line style="stroke:#181818;stroke-width:0.4000000000000001;" x1="663.2" x2="1040.8" y1="1263.2109" y2="1263.2109"/><rect fill="none" height="4.8" style="stroke:#C82930;stroke-width:0.8000000000000002;" width="4.8" x="668.8" y="1272.6594"/><text fill="#000000" font-family="sans-serif" font-size="11.2" lengthAdjust="spacing" textLength="73.6" x="678.4" y="1278.4969">String urgency</text><rect fill="none" height="4.8" style="stroke:#C82930;stroke-width:0.8000000000000002;" width="4.8" x="668.8" y="1287.5563"/><text fill="#000000" font-family="sans-serif" font-size="11.2" lengthAdjust="spacing" textLength="104" x="678.4" y="1293.3938">int expectedDuration</text><rect fill="none" height="4.8" style="stroke:#C82930;stroke-width:0.8000000000000002;" width="4.8" x="668.8" y="1302.4531"/><text fill="#000000" font-family="sans-serif" font-size="11.2" lengthAdjust="spacing" textLength="63.2" x="678.4" y="1308.2906">String status</text><rect fill="none" height="4.8" style="stroke:#C82930;stroke-width:0.8000000000000002;" width="4.8" x="668.8" y="1317.35"/><text fill="#000000" font-family="sans-serif" font-size="11.2" lengthAdjust="spacing" textLength="73.6" x="678.4" y="1323.1875">Date startDate</text><rect fill="none" height="4.8" style="stroke:#C82930;stroke-width:0.8000000000000002;" width="4.8" x="668.8" y="1332.2469"/><text fill="#000000" font-family="sans-serif" font-size="11.2" lengthAdjust="spacing" textLength="70.4" x="678.4" y="1338.0844">Date endDate</text><line style="stroke:#181818;stroke-width:0.4000000000000001;" x1="663.2" x2="1040.8" y1="1344.0953" y2="1344.0953"/><ellipse cx="671.2" cy="1355.9438" fill="#84BE84" rx="2.4" ry="2.4" style="stroke:#038048;stroke-width:0.8000000000000002;"/><text fill="#000000" font-family="sans-serif" font-size="11.2" lengthAdjust="spacing" textLength="358.4" x="678.4" y="1359.3813">TaskAgenda(greenSpace, task, urgency, duration, startDate, endDate)</text><rect fill="#F24D5C" height="4.8" style="stroke:#C82930;stroke-width:0.8000000000000002;" width="4.8" x="668.8" y="1368.4406"/><text fill="#000000" font-family="sans-serif" font-size="11.2" lengthAdjust="spacing" textLength="111.2" x="678.4" y="1374.2781">validateTaskAgenda()</text><rect fill="#F24D5C" height="4.8" style="stroke:#C82930;stroke-width:0.8000000000000002;" width="4.8" x="668.8" y="1383.3375"/><text fill="#000000" font-family="sans-serif" font-size="11.2" lengthAdjust="spacing" textLength="117.6" x="678.4" y="1389.175">hasTaskByTeam(team)</text><rect fill="#F24D5C" height="4.8" style="stroke:#C82930;stroke-width:0.8000000000000002;" width="4.8" x="668.8" y="1398.2344"/><text fill="#000000" font-family="sans-serif" font-size="11.2" lengthAdjust="spacing" textLength="88.8" x="678.4" y="1404.0719">hasStatus(status)</text><rect fill="#F24D5C" height="4.8" style="stroke:#C82930;stroke-width:0.8000000000000002;" width="4.8" x="668.8" y="1413.1313"/><text fill="#000000" font-family="sans-serif" font-size="11.2" lengthAdjust="spacing" textLength="184.8" x="678.4" y="1418.9688">isBetweenDates(startDate, endDate)</text></g><!--class Collaborator--><g id="elem_Collaborator"><rect codeLine="145" fill="#F1F1F1" height="127.7813" id="Collaborator" rx="2" ry="2" style="stroke:#181818;stroke-width:0.4000000000000001;" width="131.2" x="303.2" y="1854.4109"/><ellipse cx="334.64" cy="1867.2109" fill="#ADD1B2" rx="8.8" ry="8.8" style="stroke:#181818;stroke-width:0.8000000000000002;"/><path d="M336.8525,1863.9109 Q336.9775,1863.7359 337.1275,1863.6484 Q337.2775,1863.5609 337.4525,1863.5609 Q337.7525,1863.5609 337.94,1863.7734 Q338.1275,1863.9734 338.1275,1864.4609 L338.1275,1865.6234 Q338.1275,1866.1109 337.94,1866.3234 Q337.7525,1866.5359 337.4525,1866.5359 Q337.1775,1866.5359 337.015,1866.3734 Q336.8525,1866.2234 336.765,1865.8109 Q336.7275,1865.5234 336.5775,1865.3734 Q336.315,1865.0734 335.8275,1864.8984 Q335.34,1864.7234 334.84,1864.7234 Q334.2275,1864.7234 333.715,1864.9859 Q333.215,1865.2484 332.815,1865.8484 Q332.4275,1866.4484 332.4275,1867.2734 L332.4275,1868.1484 Q332.4275,1869.1359 333.14,1869.7984 Q333.8525,1870.4484 335.1275,1870.4484 Q335.8775,1870.4484 336.4025,1870.2484 Q336.715,1870.1234 337.0525,1869.7734 Q337.265,1869.5609 337.3775,1869.4984 Q337.5025,1869.4359 337.665,1869.4359 Q337.9275,1869.4359 338.1275,1869.6484 Q338.34,1869.8484 338.34,1870.1234 Q338.34,1870.3984 338.065,1870.7234 Q337.665,1871.1859 337.0275,1871.4484 Q336.165,1871.8109 335.1275,1871.8109 Q333.915,1871.8109 332.9525,1871.3109 Q332.165,1870.9109 331.615,1870.0609 Q331.065,1869.1984 331.065,1868.1734 L331.065,1867.2484 Q331.065,1866.1859 331.5525,1865.2734 Q332.0525,1864.3484 332.9275,1863.8609 Q333.8025,1863.3609 334.79,1863.3609 Q335.3775,1863.3609 335.89,1863.4984 Q336.415,1863.6234 336.8525,1863.9109 Z " fill="#000000"/><text fill="#000000" font-family="sans-serif" font-size="11.2" lengthAdjust="spacing" textLength="62.4" x="350.16" y="1871.8484">Collaborator</text><line style="stroke:#181818;stroke-width:0.4000000000000001;" x1="304" x2="433.6" y1="1880.0109" y2="1880.0109"/><rect fill="none" height="4.8" style="stroke:#C82930;stroke-width:0.8000000000000002;" width="4.8" x="309.6" y="1889.4594"/><text fill="#000000" font-family="sans-serif" font-size="11.2" lengthAdjust="spacing" textLength="60.8" x="319.2" y="1895.2969">String name</text><rect fill="none" height="4.8" style="stroke:#C82930;stroke-width:0.8000000000000002;" width="4.8" x="309.6" y="1904.3563"/><text fill="#000000" font-family="sans-serif" font-size="11.2" lengthAdjust="spacing" textLength="84.8" x="319.2" y="1910.1938">Date dateOfBirth</text><rect fill="none" height="4.8" style="stroke:#C82930;stroke-width:0.8000000000000002;" width="4.8" x="309.6" y="1919.2531"/><text fill="#000000" font-family="sans-serif" font-size="11.2" lengthAdjust="spacing" textLength="101.6" x="319.2" y="1925.0906">Date admissionDate</text><rect fill="none" height="4.8" style="stroke:#C82930;stroke-width:0.8000000000000002;" width="4.8" x="309.6" y="1934.15"/><text fill="#000000" font-family="sans-serif" font-size="11.2" lengthAdjust="spacing" textLength="59.2" x="319.2" y="1939.9875">String email</text><rect fill="none" height="4.8" style="stroke:#C82930;stroke-width:0.8000000000000002;" width="4.8" x="309.6" y="1949.0469"/><text fill="#000000" font-family="sans-serif" font-size="11.2" lengthAdjust="spacing" textLength="58.4" x="319.2" y="1954.8844">int taxpayer</text><line style="stroke:#181818;stroke-width:0.4000000000000001;" x1="304" x2="433.6" y1="1960.8953" y2="1960.8953"/><ellipse cx="312" cy="1972.7438" fill="#84BE84" rx="2.4" ry="2.4" style="stroke:#038048;stroke-width:0.8000000000000002;"/><text fill="#000000" font-family="sans-serif" font-size="11.2" lengthAdjust="spacing" textLength="110.4" x="319.2" y="1976.1813">isEquals(collaborator)</text></g><!--class Agenda--><g id="elem_Agenda"><rect codeLine="155" fill="#F1F1F1" height="127.7813" id="Agenda" rx="2" ry="2" style="stroke:#181818;stroke-width:0.4000000000000001;" width="356" x="664.4" y="1046.4109"/><ellipse cx="819.4" cy="1059.2109" fill="#ADD1B2" rx="8.8" ry="8.8" style="stroke:#181818;stroke-width:0.8000000000000002;"/><path d="M821.6125,1055.9109 Q821.7375,1055.7359 821.8875,1055.6484 Q822.0375,1055.5609 822.2125,1055.5609 Q822.5125,1055.5609 822.7,1055.7734 Q822.8875,1055.9734 822.8875,1056.4609 L822.8875,1057.6234 Q822.8875,1058.1109 822.7,1058.3234 Q822.5125,1058.5359 822.2125,1058.5359 Q821.9375,1058.5359 821.775,1058.3734 Q821.6125,1058.2234 821.525,1057.8109 Q821.4875,1057.5234 821.3375,1057.3734 Q821.075,1057.0734 820.5875,1056.8984 Q820.1,1056.7234 819.6,1056.7234 Q818.9875,1056.7234 818.475,1056.9859 Q817.975,1057.2484 817.575,1057.8484 Q817.1875,1058.4484 817.1875,1059.2734 L817.1875,1060.1484 Q817.1875,1061.1359 817.9,1061.7984 Q818.6125,1062.4484 819.8875,1062.4484 Q820.6375,1062.4484 821.1625,1062.2484 Q821.475,1062.1234 821.8125,1061.7734 Q822.025,1061.5609 822.1375,1061.4984 Q822.2625,1061.4359 822.425,1061.4359 Q822.6875,1061.4359 822.8875,1061.6484 Q823.1,1061.8484 823.1,1062.1234 Q823.1,1062.3984 822.825,1062.7234 Q822.425,1063.1859 821.7875,1063.4484 Q820.925,1063.8109 819.8875,1063.8109 Q818.675,1063.8109 817.7125,1063.3109 Q816.925,1062.9109 816.375,1062.0609 Q815.825,1061.1984 815.825,1060.1734 L815.825,1059.2484 Q815.825,1058.1859 816.3125,1057.2734 Q816.8125,1056.3484 817.6875,1055.8609 Q818.5625,1055.3609 819.55,1055.3609 Q820.1375,1055.3609 820.65,1055.4984 Q821.175,1055.6234 821.6125,1055.9109 Z " fill="#000000"/><text fill="#000000" font-family="sans-serif" font-size="11.2" lengthAdjust="spacing" textLength="39.2" x="835.8" y="1063.8484">Agenda</text><line style="stroke:#181818;stroke-width:0.4000000000000001;" x1="665.2" x2="1019.6" y1="1072.0109" y2="1072.0109"/><line style="stroke:#181818;stroke-width:0.4000000000000001;" x1="665.2" x2="1019.6" y1="1078.4109" y2="1078.4109"/><ellipse cx="673.2" cy="1090.2594" fill="#84BE84" rx="2.4" ry="2.4" style="stroke:#038048;stroke-width:0.8000000000000002;"/><text fill="#000000" font-family="sans-serif" font-size="11.2" lengthAdjust="spacing" textLength="47.2" x="680.4" y="1093.6969">Agenda()</text><ellipse cx="673.2" cy="1105.1563" fill="#84BE84" rx="2.4" ry="2.4" style="stroke:#038048;stroke-width:0.8000000000000002;"/><text fill="#000000" font-family="sans-serif" font-size="11.2" lengthAdjust="spacing" textLength="132.8" x="680.4" y="1108.5938">getTaskListByTeam(team)</text><ellipse cx="673.2" cy="1120.0531" fill="#84BE84" rx="2.4" ry="2.4" style="stroke:#038048;stroke-width:0.8000000000000002;"/><text fill="#000000" font-family="sans-serif" font-size="11.2" lengthAdjust="spacing" textLength="335.2" x="680.4" y="1123.4906">filterTasksByStatusDate(taskListTeam, status, startDate, endDate)</text><ellipse cx="673.2" cy="1134.95" fill="#84BE84" rx="2.4" ry="2.4" style="stroke:#038048;stroke-width:0.8000000000000002;"/><text fill="#000000" font-family="sans-serif" font-size="11.2" lengthAdjust="spacing" textLength="233.6" x="680.4" y="1138.3875">sortTaskAgendaByDate(filteredTaskListTeam)</text><rect fill="#F24D5C" height="4.8" style="stroke:#C82930;stroke-width:0.8000000000000002;" width="4.8" x="670.8" y="1147.4469"/><text fill="#000000" font-family="sans-serif" font-size="11.2" lengthAdjust="spacing" textLength="98.4" x="680.4" y="1153.2844">addTaskListTeam()</text><rect fill="#F24D5C" height="4.8" style="stroke:#C82930;stroke-width:0.8000000000000002;" width="4.8" x="670.8" y="1162.3438"/><text fill="#000000" font-family="sans-serif" font-size="11.2" lengthAdjust="spacing" textLength="136.8" x="680.4" y="1168.1813">addFilteredTaskListTeam()</text></g><!--class Repositories--><g id="elem_Repositories"><rect codeLine="170" fill="#F1F1F1" height="112.8844" id="Repositories" rx="2" ry="2" style="stroke:#181818;stroke-width:0.4000000000000001;" width="161.6" x="678.4" y="378.4109"/><ellipse cx="724.2" cy="391.2109" fill="#ADD1B2" rx="8.8" ry="8.8" style="stroke:#181818;stroke-width:0.8000000000000002;"/><path d="M726.4125,387.9109 Q726.5375,387.7359 726.6875,387.6484 Q726.8375,387.5609 727.0125,387.5609 Q727.3125,387.5609 727.5,387.7734 Q727.6875,387.9734 727.6875,388.4609 L727.6875,389.6234 Q727.6875,390.1109 727.5,390.3234 Q727.3125,390.5359 727.0125,390.5359 Q726.7375,390.5359 726.575,390.3734 Q726.4125,390.2234 726.325,389.8109 Q726.2875,389.5234 726.1375,389.3734 Q725.875,389.0734 725.3875,388.8984 Q724.9,388.7234 724.4,388.7234 Q723.7875,388.7234 723.275,388.9859 Q722.775,389.2484 722.375,389.8484 Q721.9875,390.4484 721.9875,391.2734 L721.9875,392.1484 Q721.9875,393.1359 722.7,393.7984 Q723.4125,394.4484 724.6875,394.4484 Q725.4375,394.4484 725.9625,394.2484 Q726.275,394.1234 726.6125,393.7734 Q726.825,393.5609 726.9375,393.4984 Q727.0625,393.4359 727.225,393.4359 Q727.4875,393.4359 727.6875,393.6484 Q727.9,393.8484 727.9,394.1234 Q727.9,394.3984 727.625,394.7234 Q727.225,395.1859 726.5875,395.4484 Q725.725,395.8109 724.6875,395.8109 Q723.475,395.8109 722.5125,395.3109 Q721.725,394.9109 721.175,394.0609 Q720.625,393.1984 720.625,392.1734 L720.625,391.2484 Q720.625,390.1859 721.1125,389.2734 Q721.6125,388.3484 722.4875,387.8609 Q723.3625,387.3609 724.35,387.3609 Q724.9375,387.3609 725.45,387.4984 Q725.975,387.6234 726.4125,387.9109 Z " fill="#000000"/><text fill="#000000" font-family="sans-serif" font-size="11.2" lengthAdjust="spacing" textLength="63.2" x="740.6" y="395.8484">Repositories</text><line style="stroke:#181818;stroke-width:0.4000000000000001;" x1="679.2" x2="839.2" y1="404.0109" y2="404.0109"/><line style="stroke:#181818;stroke-width:0.4000000000000001;" x1="679.2" x2="839.2" y1="410.4109" y2="410.4109"/><rect fill="#F24D5C" height="4.8" style="stroke:#C82930;stroke-width:0.8000000000000002;" width="4.8" x="684.8" y="419.8594"/><text fill="#000000" font-family="sans-serif" font-size="11.2" lengthAdjust="spacing" textLength="71.2" x="694.4" y="425.6969">Repositories()</text><ellipse cx="687.2" cy="437.1563" fill="#84BE84" rx="2.4" ry="2.4" style="stroke:#038048;stroke-width:0.8000000000000002;"/><text fill="#000000" font-family="sans-serif" font-size="11.2" lengthAdjust="spacing" textLength="139.2" x="694.4" y="440.5938">getInstance() : Repositories</text><ellipse cx="687.2" cy="452.0531" fill="#84BE84" rx="2.4" ry="2.4" style="stroke:#038048;stroke-width:0.8000000000000002;"/><text fill="#000000" font-family="sans-serif" font-size="11.2" lengthAdjust="spacing" textLength="140.8" x="694.4" y="455.4906">getCollaboratorRepository()</text><ellipse cx="687.2" cy="466.95" fill="#84BE84" rx="2.4" ry="2.4" style="stroke:#038048;stroke-width:0.8000000000000002;"/><text fill="#000000" font-family="sans-serif" font-size="11.2" lengthAdjust="spacing" textLength="110.4" x="694.4" y="470.3875">getTeamRepository();</text><ellipse cx="687.2" cy="481.8469" fill="#84BE84" rx="2.4" ry="2.4" style="stroke:#038048;stroke-width:0.8000000000000002;"/><text fill="#000000" font-family="sans-serif" font-size="11.2" lengthAdjust="spacing" textLength="63.2" x="694.4" y="485.2844">getAgenda()</text></g><!--class CollaboratorRepository--><g id="elem_CollaboratorRepository"><rect codeLine="179" fill="#F1F1F1" height="53.2969" id="CollaboratorRepository" rx="2" ry="2" style="stroke:#181818;stroke-width:0.4000000000000001;" width="173.6" x="562.8" y="658.4109"/><ellipse cx="588.84" cy="671.2109" fill="#ADD1B2" rx="8.8" ry="8.8" style="stroke:#181818;stroke-width:0.8000000000000002;"/><path d="M591.0525,667.9109 Q591.1775,667.7359 591.3275,667.6484 Q591.4775,667.5609 591.6525,667.5609 Q591.9525,667.5609 592.14,667.7734 Q592.3275,667.9734 592.3275,668.4609 L592.3275,669.6234 Q592.3275,670.1109 592.14,670.3234 Q591.9525,670.5359 591.6525,670.5359 Q591.3775,670.5359 591.215,670.3734 Q591.0525,670.2234 590.965,669.8109 Q590.9275,669.5234 590.7775,669.3734 Q590.515,669.0734 590.0275,668.8984 Q589.54,668.7234 589.04,668.7234 Q588.4275,668.7234 587.915,668.9859 Q587.415,669.2484 587.015,669.8484 Q586.6275,670.4484 586.6275,671.2734 L586.6275,672.1484 Q586.6275,673.1359 587.34,673.7984 Q588.0525,674.4484 589.3275,674.4484 Q590.0775,674.4484 590.6025,674.2484 Q590.915,674.1234 591.2525,673.7734 Q591.465,673.5609 591.5775,673.4984 Q591.7025,673.4359 591.865,673.4359 Q592.1275,673.4359 592.3275,673.6484 Q592.54,673.8484 592.54,674.1234 Q592.54,674.3984 592.265,674.7234 Q591.865,675.1859 591.2275,675.4484 Q590.365,675.8109 589.3275,675.8109 Q588.115,675.8109 587.1525,675.3109 Q586.365,674.9109 585.815,674.0609 Q585.265,673.1984 585.265,672.1734 L585.265,671.2484 Q585.265,670.1859 585.7525,669.2734 Q586.2525,668.3484 587.1275,667.8609 Q588.0025,667.3609 588.99,667.3609 Q589.5775,667.3609 590.09,667.4984 Q590.615,667.6234 591.0525,667.9109 Z " fill="#000000"/><text fill="#000000" font-family="sans-serif" font-size="11.2" lengthAdjust="spacing" textLength="116.8" x="603.16" y="675.8484">CollaboratorRepository</text><line style="stroke:#181818;stroke-width:0.4000000000000001;" x1="563.6" x2="735.6" y1="684.0109" y2="684.0109"/><line style="stroke:#181818;stroke-width:0.4000000000000001;" x1="563.6" x2="735.6" y1="690.4109" y2="690.4109"/><ellipse cx="571.6" cy="702.2594" fill="#84BE84" rx="2.4" ry="2.4" style="stroke:#038048;stroke-width:0.8000000000000002;"/><text fill="#000000" font-family="sans-serif" font-size="11.2" lengthAdjust="spacing" textLength="152.8" x="578.8" y="705.6969">getCollaboratorByEmail(email)</text></g><!--class TeamRepository--><g id="elem_TeamRepository"><rect codeLine="184" fill="#F1F1F1" height="53.2969" id="TeamRepository" rx="2" ry="2" style="stroke:#181818;stroke-width:0.4000000000000001;" width="208.8" x="562.8" y="554.4109"/><ellipse cx="622.2" cy="567.2109" fill="#ADD1B2" rx="8.8" ry="8.8" style="stroke:#181818;stroke-width:0.8000000000000002;"/><path d="M624.4125,563.9109 Q624.5375,563.7359 624.6875,563.6484 Q624.8375,563.5609 625.0125,563.5609 Q625.3125,563.5609 625.5,563.7734 Q625.6875,563.9734 625.6875,564.4609 L625.6875,565.6234 Q625.6875,566.1109 625.5,566.3234 Q625.3125,566.5359 625.0125,566.5359 Q624.7375,566.5359 624.575,566.3734 Q624.4125,566.2234 624.325,565.8109 Q624.2875,565.5234 624.1375,565.3734 Q623.875,565.0734 623.3875,564.8984 Q622.9,564.7234 622.4,564.7234 Q621.7875,564.7234 621.275,564.9859 Q620.775,565.2484 620.375,565.8484 Q619.9875,566.4484 619.9875,567.2734 L619.9875,568.1484 Q619.9875,569.1359 620.7,569.7984 Q621.4125,570.4484 622.6875,570.4484 Q623.4375,570.4484 623.9625,570.2484 Q624.275,570.1234 624.6125,569.7734 Q624.825,569.5609 624.9375,569.4984 Q625.0625,569.4359 625.225,569.4359 Q625.4875,569.4359 625.6875,569.6484 Q625.9,569.8484 625.9,570.1234 Q625.9,570.3984 625.625,570.7234 Q625.225,571.1859 624.5875,571.4484 Q623.725,571.8109 622.6875,571.8109 Q621.475,571.8109 620.5125,571.3109 Q619.725,570.9109 619.175,570.0609 Q618.625,569.1984 618.625,568.1734 L618.625,567.2484 Q618.625,566.1859 619.1125,565.2734 Q619.6125,564.3484 620.4875,563.8609 Q621.3625,563.3609 622.35,563.3609 Q622.9375,563.3609 623.45,563.4984 Q623.975,563.6234 624.4125,563.9109 Z " fill="#000000"/><text fill="#000000" font-family="sans-serif" font-size="11.2" lengthAdjust="spacing" textLength="83.2" x="638.6" y="571.8484">TeamRepository</text><line style="stroke:#181818;stroke-width:0.4000000000000001;" x1="563.6" x2="770.8" y1="580.0109" y2="580.0109"/><line style="stroke:#181818;stroke-width:0.4000000000000001;" x1="563.6" x2="770.8" y1="586.4109" y2="586.4109"/><ellipse cx="571.6" cy="598.2594" fill="#84BE84" rx="2.4" ry="2.4" style="stroke:#038048;stroke-width:0.8000000000000002;"/><text fill="#000000" font-family="sans-serif" font-size="11.2" lengthAdjust="spacing" textLength="188" x="578.8" y="601.6969">getTeamByCollaborator(collaborator)</text></g><!--reverse link GreenSpace to Garden--><g id="link_GreenSpace_Garden"><path d="M849.8867,1592.8269 C846.6947,1613.5389 844.92,1625.0269 841.256,1648.7869 " fill="none" id="GreenSpace-backto-Garden" style="stroke:#181818;stroke-width:0.8000000000000002;stroke-dasharray:7.0,7.0;"/><polygon fill="none" points="852.08,1578.5949,845.1427,1592.0958,854.6307,1593.558,852.08,1578.5949" style="stroke:#181818;stroke-width:0.8000000000000002;"/></g><!--reverse link GreenSpace to MediumPark--><g id="link_GreenSpace_MediumPark"><path d="M914.8959,1579.2503 C944.4639,1601.0423 972.712,1621.8589 1009.16,1648.7229 " fill="none" id="GreenSpace-backto-MediumPark" style="stroke:#181818;stroke-width:0.8000000000000002;stroke-dasharray:7.0,7.0;"/><polygon fill="none" points="903.304,1570.7069,912.0481,1583.1142,917.7436,1575.3863,903.304,1570.7069" style="stroke:#181818;stroke-width:0.8000000000000002;"/></g><!--reverse link GreenSpace to LargePark--><g id="link_GreenSpace_LargePark"><path d="M801.2351,1572.4945 C764.8591,1594.6865 724.232,1619.4829 676.208,1648.7869 " fill="none" id="GreenSpace-backto-LargePark" style="stroke:#181818;stroke-width:0.8000000000000002;stroke-dasharray:7.0,7.0;"/><polygon fill="none" points="813.528,1564.9949,798.7352,1568.3969,803.7349,1576.5922,813.528,1564.9949" style="stroke:#181818;stroke-width:0.8000000000000002;"/></g><!--reverse link ICollaborator to Collaborator--><g id="link_ICollaborator_Collaborator"><path d="M412.5546,1012.0802 C408.7546,1047.3762 407.2,1073.0189 407.2,1109.6109 C407.2,1109.6109 407.2,1109.6109 407.2,1720.8109 C407.2,1769.5869 411.552,1782.6589 401.6,1830.4109 C399.968,1838.2509 397.736,1846.3149 395.208,1854.2269 " fill="none" id="ICollaborator-backto-Collaborator" style="stroke:#181818;stroke-width:0.8000000000000002;stroke-dasharray:7.0,7.0;"/><polygon fill="none" points="414.096,997.7629,407.7822,1011.5664,417.327,1012.594,414.096,997.7629" style="stroke:#181818;stroke-width:0.8000000000000002;"/></g><!--link Repositories to Repositories--><g id="link_Repositories_Repositories"><path codeLine="192" d="M840.096,418.9629 C856.368,420.7229 868,426.0029 868,434.8109 C868,443.6189 861.1402,448.3828 844.8682,450.1428 " fill="none" id="Repositories-to-Repositories" style="stroke:#181818;stroke-width:0.8000000000000002;"/><polygon fill="#181818" points="840.096,450.6589,847.5984,453.0661,844.0728,450.2288,846.9101,446.7032,840.096,450.6589" style="stroke:#181818;stroke-width:0.8000000000000002;"/><text fill="#000000" font-family="sans-serif" font-size="10.4" lengthAdjust="spacing" textLength="39.2" x="872.8" y="439.2336">instance</text></g><!--link ApplicationSession to ApplicationSession--><g id="link_ApplicationSession_ApplicationSession"><path codeLine="193" d="M454.568,418.4909 C470.448,419.5309 482.4,424.9709 482.4,434.8109 C482.4,444.6509 475.2377,449.7773 459.3577,450.8173 " fill="none" id="ApplicationSession-to-ApplicationSession" style="stroke:#181818;stroke-width:0.8000000000000002;"/><polygon fill="#181818" points="454.568,451.1309,461.9617,453.8536,458.5594,450.8695,461.5435,447.4672,454.568,451.1309" style="stroke:#181818;stroke-width:0.8000000000000002;"/><text fill="#000000" font-family="sans-serif" font-size="10.4" lengthAdjust="spacing" textLength="39.2" x="487.2" y="439.2336">instance</text></g><!--link ConsultAssignedTasksListUI to ConsultAssignedTasksController--><g id="link_ConsultAssignedTasksListUI_ConsultAssignedTasksController"><path codeLine="196" d="M392.8,72.9629 C392.8,91.1629 392.8,114.5389 392.8,136.6429 " fill="none" id="ConsultAssignedTasksListUI-to-ConsultAssignedTasksController" style="stroke:#181818;stroke-width:0.8000000000000002;stroke-dasharray:7.0,7.0;"/><polygon fill="#181818" points="392.8,141.4429,396,134.2429,392.8,137.4429,389.6,134.2429,392.8,141.4429" style="stroke:#181818;stroke-width:0.8000000000000002;"/></g><!--link ConsultAssignedTasksController to Repositories--><g id="link_ConsultAssignedTasksController_Repositories"><path codeLine="199" d="M440.328,209.8269 C501.024,252.4989 603.0171,324.2106 676.0251,375.5306 " fill="none" id="ConsultAssignedTasksController-to-Repositories" style="stroke:#181818;stroke-width:0.8000000000000002;stroke-dasharray:7.0,7.0;"/><polygon fill="#181818" points="679.952,378.2909,675.9019,371.5325,676.6796,375.9906,672.2214,376.7683,679.952,378.2909" style="stroke:#181818;stroke-width:0.8000000000000002;"/><text fill="#000000" font-family="sans-serif" font-size="10.4" lengthAdjust="spacing" textLength="53.6" x="532.8" y="272.0336">repositories</text></g><!--link ConsultAssignedTasksController to ApplicationSession--><g id="link_ConsultAssignedTasksController_ApplicationSession"><path codeLine="200" d="M392.8,209.8269 C392.8,259.2429 392.8,346.4749 392.8,395.8589 " fill="none" id="ConsultAssignedTasksController-to-ApplicationSession" style="stroke:#181818;stroke-width:0.8000000000000002;stroke-dasharray:7.0,7.0;"/><polygon fill="#181818" points="392.8,400.6589,396,393.4589,392.8,396.6589,389.6,393.4589,392.8,400.6589" style="stroke:#181818;stroke-width:0.8000000000000002;"/></g><!--link ConsultAssignedTasksController to UserSession--><g id="link_ConsultAssignedTasksController_UserSession"><path codeLine="201" d="M292.88,209.7149 C283.08,216.6909 274.416,225.0989 268,235.2109 C197.728,346.0029 195.616,420.9869 268,530.4109 C283.544,553.9069 307.9636,565.1905 333.3076,571.8065 " fill="none" id="ConsultAssignedTasksController-to-UserSession" style="stroke:#181818;stroke-width:0.8000000000000002;stroke-dasharray:7.0,7.0;"/><polygon fill="#181818" points="337.952,573.0189,331.7937,568.1041,334.0817,572.0086,330.1772,574.2966,337.952,573.0189" style="stroke:#181818;stroke-width:0.8000000000000002;"/></g><!--link ConsultAssignedTasksController to CollaboratorRepository--><g id="link_ConsultAssignedTasksController_CollaboratorRepository"><path codeLine="202" d="M241.968,192.8989 C204.696,205.8349 175.2,228.2589 175.2,266.8109 C175.2,266.8109 175.2,266.8109 175.2,582.0109 C175.2,660.3709 420.8343,678.773 557.7863,683.053 " fill="none" id="ConsultAssignedTasksController-to-CollaboratorRepository" style="stroke:#181818;stroke-width:0.8000000000000002;stroke-dasharray:7.0,7.0;"/><polygon fill="#181818" points="562.584,683.2029,555.4875,679.7796,558.586,683.078,555.2876,686.1765,562.584,683.2029" style="stroke:#181818;stroke-width:0.8000000000000002;"/></g><!--link ConsultAssignedTasksController to TeamRepository--><g id="link_ConsultAssignedTasksController_TeamRepository"><path codeLine="203" d="M369.464,209.7149 C324.248,278.6509 236.088,438.2589 318.4,530.4109 C349.984,565.7709 483.52,547.3149 530.4,554.4109 C540.92,556.0029 547.136,556.9905 558.048,558.9025 " fill="none" id="ConsultAssignedTasksController-to-TeamRepository" style="stroke:#181818;stroke-width:0.8000000000000002;stroke-dasharray:7.0,7.0;"/><polygon fill="#181818" points="562.776,559.7309,556.2363,555.3363,558.836,559.0406,555.1318,561.6403,562.776,559.7309" style="stroke:#181818;stroke-width:0.8000000000000002;"/></g><!--link ConsultAssignedTasksController to ICollaborator--><g id="link_ConsultAssignedTasksController_ICollaborator"><path codeLine="204" d="M241.952,200.5469 C178.192,215.1549 118.4,236.8429 118.4,266.8109 C118.4,266.8109 118.4,266.8109 118.4,686.0109 C118.4,805.2829 273.2427,860.1773 363.2747,882.3053 " fill="none" id="ConsultAssignedTasksController-to-ICollaborator" style="stroke:#181818;stroke-width:0.8000000000000002;stroke-dasharray:7.0,7.0;"/><polygon fill="#181818" points="367.936,883.4509,361.7078,878.625,364.0516,882.4962,360.1803,884.84,367.936,883.4509" style="stroke:#181818;stroke-width:0.8000000000000002;"/></g><!--link ConsultAssignedTasksController to GreenSpace--><g id="link_ConsultAssignedTasksController_GreenSpace"><path codeLine="205" d="M543.696,180.3229 C756.728,187.9069 1120,209.2669 1120,266.8109 C1120,266.8109 1120,266.8109 1120,1332.0109 C1120,1382.1149 1093.008,1391.0349 1056,1424.8109 C1010.208,1466.6109 950.3606,1497.1318 907.7046,1515.9238 " fill="none" id="ConsultAssignedTasksController-to-GreenSpace" style="stroke:#181818;stroke-width:0.8000000000000002;stroke-dasharray:7.0,7.0;"/><polygon fill="#181818" points="903.312,1517.8589,911.191,1517.8846,906.9725,1516.2463,908.6108,1512.0278,903.312,1517.8589" style="stroke:#181818;stroke-width:0.8000000000000002;"/></g><!--link ConsultAssignedTasksController to Task--><g id="link_ConsultAssignedTasksController_Task"><path codeLine="206" d="M241.976,190.7709 C154.56,203.4269 61.6,226.3949 61.6,266.8109 C61.6,266.8109 61.6,266.8109 61.6,1111.2109 C61.6,1209.7549 168.2885,1272.2699 242.7205,1304.3739 " fill="none" id="ConsultAssignedTasksController-to-Task" style="stroke:#181818;stroke-width:0.8000000000000002;stroke-dasharray:7.0,7.0;"/><polygon fill="#181818" points="247.128,1306.2749,241.7841,1300.485,243.4551,1304.6907,239.2494,1306.3617,247.128,1306.2749" style="stroke:#181818;stroke-width:0.8000000000000002;"/></g><!--link ConsultAssignedTasksController to TaskAgenda--><g id="link_ConsultAssignedTasksController_TaskAgenda"><path codeLine="207" d="M543.672,182.0189 C741.36,191.4269 1063.2,214.7309 1063.2,266.8109 C1063.2,266.8109 1063.2,266.8109 1063.2,1111.2109 C1063.2,1160.7549 1038.3492,1200.1019 1002.4532,1234.2619 " fill="none" id="ConsultAssignedTasksController-to-TaskAgenda" style="stroke:#181818;stroke-width:0.8000000000000002;stroke-dasharray:7.0,7.0;"/><polygon fill="#181818" points="998.976,1237.5709,1006.3977,1234.9256,1001.8736,1234.8134,1001.9857,1230.2894,998.976,1237.5709" style="stroke:#181818;stroke-width:0.8000000000000002;"/></g><!--link ConsultAssignedTasksController to Agenda--><g id="link_ConsultAssignedTasksController_Agenda"><path codeLine="208" d="M543.688,184.0189 C725.368,195.2589 1006.4,220.1709 1006.4,266.8109 C1006.4,266.8109 1006.4,266.8109 1006.4,897.2109 C1006.4,955.9149 970.1644,1004.99 929.8124,1043.038 " fill="none" id="ConsultAssignedTasksController-to-Agenda" style="stroke:#181818;stroke-width:0.8000000000000002;stroke-dasharray:7.0,7.0;"/><polygon fill="#181818" points="926.32,1046.3309,933.7538,1043.7198,929.2303,1043.5868,929.3632,1039.0633,926.32,1046.3309" style="stroke:#181818;stroke-width:0.8000000000000002;"/></g><!--link ConsultAssignedTasksController to Team--><g id="link_ConsultAssignedTasksController_Team"><path codeLine="209" d="M241.952,183.9469 C132.952,193.6749 4.8,215.9309 4.8,266.8109 C4.8,266.8109 4.8,266.8109 4.8,1537.6109 C4.8,1619.9469 88.0254,1665.9721 163.1054,1691.6041 " fill="none" id="ConsultAssignedTasksController-to-Team" style="stroke:#181818;stroke-width:0.8000000000000002;stroke-dasharray:7.0,7.0;"/><polygon fill="#181818" points="167.648,1693.1549,161.868,1687.8003,163.8625,1691.8626,159.8003,1693.8571,167.648,1693.1549" style="stroke:#181818;stroke-width:0.8000000000000002;"/></g><!--link ConsultAssignedTasksController to Address--><g id="link_ConsultAssignedTasksController_Address"><path codeLine="210" d="M543.728,178.8749 C771.512,184.6429 1176.8,203.7629 1176.8,266.8109 C1176.8,266.8109 1176.8,266.8109 1176.8,1332.0109 C1176.8,1385.8749 1166.8134,1442.1004 1157.7094,1483.2284 " fill="none" id="ConsultAssignedTasksController-to-Address" style="stroke:#181818;stroke-width:0.8000000000000002;stroke-dasharray:7.0,7.0;"/><polygon fill="#181818" points="1156.672,1487.9149,1161.3525,1481.5767,1157.5365,1484.0095,1155.1037,1480.1935,1156.672,1487.9149" style="stroke:#181818;stroke-width:0.8000000000000002;"/></g><!--link ConsultAssignedTasksController to PostCode--><g id="link_ConsultAssignedTasksController_PostCode"><path codeLine="211" d="M543.608,182.8589 C816.624,195.5469 1364.8,226.0829 1364.8,266.8109 C1364.8,266.8109 1364.8,266.8109 1364.8,1537.6109 C1364.8,1582.9149 1367.4695,1629.7035 1370.1175,1666.2875 " fill="none" id="ConsultAssignedTasksController-to-PostCode" style="stroke:#181818;stroke-width:0.8000000000000002;stroke-dasharray:7.0,7.0;"/><polygon fill="#181818" points="1370.464,1671.0749,1373.1359,1663.6627,1370.1752,1667.0854,1366.7526,1664.1247,1370.464,1671.0749" style="stroke:#181818;stroke-width:0.8000000000000002;"/></g><!--link ApplicationSession to UserSession--><g id="link_ApplicationSession_UserSession"><path codeLine="214" d="M391.152,468.8349 C389.856,494.7949 388.3267,525.5929 387.1347,549.5369 " fill="none" id="ApplicationSession-to-UserSession" style="stroke:#181818;stroke-width:0.8000000000000002;"/><polygon fill="#181818" points="386.896,554.3309,390.45,547.299,387.0949,550.3359,384.058,546.9807,386.896,554.3309" style="stroke:#181818;stroke-width:0.8000000000000002;"/><text fill="#000000" font-family="sans-serif" font-size="10.4" lengthAdjust="spacing" textLength="57.6" x="388.8" y="527.2336">userSession</text><text fill="#000000" font-family="sans-serif" font-size="10.4" lengthAdjust="spacing" textLength="5.6" x="380.9999" y="545.3756">1</text></g><!--link Repositories to CollaboratorRepository--><g id="link_Repositories_CollaboratorRepository"><path codeLine="217" d="M786.032,491.2349 C801.608,532.3229 813.248,587.7469 785.6,627.2109 C773.696,644.2029 760.1019,654.2297 741.0699,662.6457 " fill="none" id="Repositories-to-CollaboratorRepository" style="stroke:#181818;stroke-width:0.8000000000000002;"/><polygon fill="#181818" points="736.68,664.5869,744.5591,664.6017,740.3383,662.9692,741.9707,658.7484,736.68,664.5869" style="stroke:#181818;stroke-width:0.8000000000000002;"/><text fill="#000000" font-family="sans-serif" font-size="10.4" lengthAdjust="spacing" textLength="104.8" x="802.4" y="585.6336">CollaboratorRepository</text><text fill="#000000" font-family="sans-serif" font-size="10.4" lengthAdjust="spacing" textLength="5.6" x="742.7188" y="660.385">1</text></g><!--link Repositories to Agenda--><g id="link_Repositories_Agenda"><path codeLine="218" d="M840,476.8189 C868.992,496.1309 898.432,522.0829 914.4,554.4109 C956.552,639.7629 893.2449,914.8906 860.6209,1041.5946 " fill="none" id="Repositories-to-Agenda" style="stroke:#181818;stroke-width:0.8000000000000002;"/><polygon fill="#181818" points="859.424,1046.2429,864.3182,1040.0683,860.4214,1042.3693,858.1204,1038.4724,859.424,1046.2429" style="stroke:#181818;stroke-width:0.8000000000000002;"/><text fill="#000000" font-family="sans-serif" font-size="10.4" lengthAdjust="spacing" textLength="35.2" x="928" y="689.6336">Agenda</text><text fill="#000000" font-family="sans-serif" font-size="10.4" lengthAdjust="spacing" textLength="5.6" x="855.1353" y="1037.344">1</text></g><!--link Repositories to TeamRepository--><g id="link_Repositories_TeamRepository"><path codeLine="219" d="M723.76,491.3869 C709.992,513.0589 697.4607,532.7746 686.3327,550.3026 " fill="none" id="Repositories-to-TeamRepository" style="stroke:#181818;stroke-width:0.8000000000000002;"/><polygon fill="#181818" points="683.76,554.3549,690.3206,549.9916,685.9039,550.978,684.9175,546.5613,683.76,554.3549" style="stroke:#181818;stroke-width:0.8000000000000002;"/><text fill="#000000" font-family="sans-serif" font-size="10.4" lengthAdjust="spacing" textLength="75.2" x="708" y="527.2336">TeamRepository</text><text fill="#000000" font-family="sans-serif" font-size="10.4" lengthAdjust="spacing" textLength="5.6" x="680.869" y="545.4043">1</text></g><!--link CollaboratorRepository to ICollaborator--><g id="link_CollaboratorRepository_ICollaborator"><path codeLine="222" d="M591.024,712.0669 C567.576,724.2589 541.312,740.2909 520.8,759.2109 C509.112,769.9869 501.0696,778.7077 491.0376,791.6997 " fill="none" id="CollaboratorRepository-to-ICollaborator" style="stroke:#181818;stroke-width:0.8000000000000002;"/><polygon fill="#181818" points="488.104,795.4989,495.0372,791.7559,490.5487,792.3329,489.9716,787.8444,488.104,795.4989" style="stroke:#181818;stroke-width:0.8000000000000002;"/><text fill="#000000" font-family="sans-serif" font-size="10.4" lengthAdjust="spacing" textLength="70.4" x="546.4" y="749.6336">collaboratorList</text><text fill="#000000" font-family="sans-serif" font-size="10.4" lengthAdjust="spacing" textLength="5.6" x="574.4914" y="729.3323">1</text><text fill="#000000" font-family="sans-serif" font-size="10.4" lengthAdjust="spacing" textLength="4" x="492.0825" y="786.2331">*</text></g><!--link TeamRepository to Team--><g id="link_TeamRepository_Team"><path codeLine="225" d="M594.624,608.0509 C574.04,614.8749 551.48,621.8189 530.4,627.2109 C462.104,644.6669 218.4,613.9229 218.4,684.4109 C218.4,684.4109 218.4,684.4109 218.4,1537.6109 C218.4,1595.0429 241.6574,1654.2019 257.7454,1688.8259 " fill="none" id="TeamRepository-to-Team" style="stroke:#181818;stroke-width:0.8000000000000002;"/><polygon fill="#181818" points="259.768,1693.1789,259.6361,1685.301,258.0825,1689.5514,253.832,1687.9978,259.768,1693.1789" style="stroke:#181818;stroke-width:0.8000000000000002;"/><text fill="#000000" font-family="sans-serif" font-size="10.4" lengthAdjust="spacing" textLength="40" x="219.2" y="1114.8336">teamList</text><text fill="#000000" font-family="sans-serif" font-size="10.4" lengthAdjust="spacing" textLength="5.6" x="575.5977" y="625.3135">1</text><text fill="#000000" font-family="sans-serif" font-size="10.4" lengthAdjust="spacing" textLength="4" x="252.8086" y="1684.2331">*</text></g><!--reverse link Address to PostCode--><g id="link_Address_PostCode"><path codeLine="228" d="M1213.2581,1591.7576 C1246.6021,1618.1256 1280.264,1644.7549 1313.592,1671.1149 " fill="none" id="Address-backto-PostCode" style="stroke:#181818;stroke-width:0.8000000000000002;"/><polygon fill="#181818" points="1205.728,1585.8029,1207.5081,1591.2903,1213.2581,1591.7576,1211.4779,1586.2703,1205.728,1585.8029" style="stroke:#181818;stroke-width:0.8000000000000002;"/><text fill="#000000" font-family="sans-serif" font-size="10.4" lengthAdjust="spacing" textLength="44" x="1252.8" y="1621.6336">postCode</text><text fill="#000000" font-family="sans-serif" font-size="10.4" lengthAdjust="spacing" textLength="16" x="1195.8478" y="1603.4676">1..*</text><text fill="#000000" font-family="sans-serif" font-size="10.4" lengthAdjust="spacing" textLength="5.6" x="1300.6373" y="1662.2888">1</text></g><!--reverse link ICollaborator to Address--><g id="link_ICollaborator_Address"><path codeLine="229" d="M443.7088,1007.2438 C465.8448,1127.2918 518.944,1315.9949 648.8,1424.8109 C655.784,1430.6589 860.12,1475.2269 1004.304,1506.1309 " fill="none" id="ICollaborator-backto-Address" style="stroke:#181818;stroke-width:0.8000000000000002;"/><polygon fill="#181818" points="441.968,997.8029,439.6915,1003.1036,443.7088,1007.2438,445.9854,1001.9431,441.968,997.8029" style="stroke:#181818;stroke-width:0.8000000000000002;"/><text fill="#000000" font-family="sans-serif" font-size="10.4" lengthAdjust="spacing" textLength="36.8" x="504" y="1210.4336">address</text><text fill="#000000" font-family="sans-serif" font-size="10.4" lengthAdjust="spacing" textLength="16" x="426.2944" y="1014.9524">1..*</text><text fill="#000000" font-family="sans-serif" font-size="10.4" lengthAdjust="spacing" textLength="5.6" x="992.2109" y="1502.0518">1</text></g><!--link ICollaborator to Document--><g id="link_ICollaborator_Document"><path codeLine="232" d="M488.224,896.4109 C503.184,896.4109 514.448,896.4109 529.52,896.4109 " fill="none" id="ICollaborator-to-Document" style="stroke:#181818;stroke-width:0.8000000000000002;"/><polygon fill="#181818" points="534.32,896.4109,527.12,893.2109,530.32,896.4109,527.12,899.6109,534.32,896.4109" style="stroke:#181818;stroke-width:0.8000000000000002;"/><text fill="#000000" font-family="sans-serif" font-size="10.4" lengthAdjust="spacing" textLength="16.8" x="502.8" y="890.8336">has</text><text fill="#000000" font-family="sans-serif" font-size="10.4" lengthAdjust="spacing" textLength="5.6" x="494.4279" y="893.3823">1</text><text fill="#000000" font-family="sans-serif" font-size="10.4" lengthAdjust="spacing" textLength="5.6" x="522.498" y="893.411">1</text></g><!--link Document to DocumentType--><g id="link_Document_DocumentType"><path codeLine="233" d="M659.432,896.4109 C674.304,896.4109 685.4,896.4109 700.352,896.4109 " fill="none" id="Document-to-DocumentType" style="stroke:#181818;stroke-width:0.8000000000000002;"/><polygon fill="#181818" points="705.152,896.4109,697.952,893.2109,701.152,896.4109,697.952,899.6109,705.152,896.4109" style="stroke:#181818;stroke-width:0.8000000000000002;"/><text fill="#000000" font-family="sans-serif" font-size="10.4" lengthAdjust="spacing" textLength="16.8" x="673.8" y="890.8336">has</text><text fill="#000000" font-family="sans-serif" font-size="10.4" lengthAdjust="spacing" textLength="16" x="665.5019" y="908.241">1..*</text><text fill="#000000" font-family="sans-serif" font-size="10.4" lengthAdjust="spacing" textLength="5.6" x="693.1424" y="893.411">1</text></g><!--reverse link GreenSpace to Address--><g id="link_GreenSpace_Address"><path codeLine="236" d="M913.064,1536.8109 C940.552,1536.8109 967.736,1536.8109 1004.288,1536.8109 " fill="none" id="GreenSpace-backto-Address" style="stroke:#181818;stroke-width:0.8000000000000002;"/><polygon fill="#181818" points="903.464,1536.8109,908.264,1540.0109,913.064,1536.8109,908.264,1533.6109,903.464,1536.8109" style="stroke:#181818;stroke-width:0.8000000000000002;"/><text fill="#000000" font-family="sans-serif" font-size="10.4" lengthAdjust="spacing" textLength="56" x="925.8" y="1531.2336">is located in</text><text fill="#000000" font-family="sans-serif" font-size="10.4" lengthAdjust="spacing" textLength="5.6" x="909.5966" y="1533.5843">1</text><text fill="#000000" font-family="sans-serif" font-size="10.4" lengthAdjust="spacing" textLength="5.6" x="992.1942" y="1534.122">1</text></g><!--link Agenda to TaskAgenda--><g id="link_Agenda_TaskAgenda"><path codeLine="239" d="M845.176,1174.6109 C846.04,1194.2749 846.7984,1211.5675 847.7264,1232.7995 " fill="none" id="Agenda-to-TaskAgenda" style="stroke:#181818;stroke-width:0.8000000000000002;"/><polygon fill="#181818" points="847.936,1237.5949,850.8186,1230.2621,847.7613,1233.5988,844.4247,1230.5415,847.936,1237.5949" style="stroke:#181818;stroke-width:0.8000000000000002;"/><text fill="#000000" font-family="sans-serif" font-size="10.4" lengthAdjust="spacing" textLength="55.2" x="847.2" y="1210.4336">taskAgenda</text><text fill="#000000" font-family="sans-serif" font-size="10.4" lengthAdjust="spacing" textLength="5.6" x="839.574" y="1191.732">1</text><text fill="#000000" font-family="sans-serif" font-size="10.4" lengthAdjust="spacing" textLength="4" x="843.5286" y="1228.473">*</text></g><!--link TaskAgenda to GreenSpace--><g id="link_TaskAgenda_GreenSpace"><path codeLine="242" d="M854.92,1425.0589 C855.688,1449.6429 856.3281,1470.1413 856.9681,1490.3493 " fill="none" id="TaskAgenda-to-GreenSpace" style="stroke:#181818;stroke-width:0.8000000000000002;"/><polygon fill="#181818" points="857.12,1495.1469,860.0905,1487.8493,856.9934,1491.1489,853.6937,1488.0518,857.12,1495.1469" style="stroke:#181818;stroke-width:0.8000000000000002;"/><text fill="#000000" font-family="sans-serif" font-size="10.4" lengthAdjust="spacing" textLength="55.2" x="856" y="1460.8336">greenSpace</text><text fill="#000000" font-family="sans-serif" font-size="10.4" lengthAdjust="spacing" textLength="4" x="850.9789" y="1442.7314">*</text><text fill="#000000" font-family="sans-serif" font-size="10.4" lengthAdjust="spacing" textLength="5.6" x="850.9718" y="1486.2802">1</text></g><!--link TaskAgenda to Task--><g id="link_TaskAgenda_Task"><path codeLine="243" d="M662.176,1331.2109 C563.384,1331.2109 453.68,1331.2109 383.448,1331.2109 " fill="none" id="TaskAgenda-to-Task" style="stroke:#181818;stroke-width:0.8000000000000002;"/><polygon fill="#181818" points="378.648,1331.2109,385.848,1334.4109,382.648,1331.2109,385.848,1328.0109,378.648,1331.2109" style="stroke:#181818;stroke-width:0.8000000000000002;"/><text fill="#000000" font-family="sans-serif" font-size="10.4" lengthAdjust="spacing" textLength="20" x="510.4" y="1325.6336">task</text><text fill="#000000" font-family="sans-serif" font-size="10.4" lengthAdjust="spacing" textLength="16" x="640.3031" y="1328.6327">1..*</text><text fill="#000000" font-family="sans-serif" font-size="10.4" lengthAdjust="spacing" textLength="5.6" x="384.762" y="1328.2297">1</text></g><!--link TaskAgenda to Team--><g id="link_TaskAgenda_Team"><path codeLine="244" d="M712.896,1425.0029 C581.36,1512.9389 396.4464,1636.5513 315.7424,1690.5033 " fill="none" id="TaskAgenda-to-Team" style="stroke:#181818;stroke-width:0.8000000000000002;"/><polygon fill="#181818" points="311.752,1693.1709,319.5161,1691.8297,315.0774,1690.9479,315.9592,1686.5091,311.752,1693.1709" style="stroke:#181818;stroke-width:0.8000000000000002;"/><text fill="#000000" font-family="sans-serif" font-size="10.4" lengthAdjust="spacing" textLength="23.2" x="611.2" y="1541.2336">team</text><text fill="#000000" font-family="sans-serif" font-size="10.4" lengthAdjust="spacing" textLength="4" x="699.8565" y="1442.6718">*</text><text fill="#000000" font-family="sans-serif" font-size="10.4" lengthAdjust="spacing" textLength="5.6" x="313.2694" y="1684.2235">1</text></g><!--link Team to Collaborator--><g id="link_Team_Collaborator"><path codeLine="247" d="M285.552,1746.9469 C298.832,1774.1789 318.0476,1813.5688 335.7836,1849.9288 " fill="none" id="Team-to-Collaborator" style="stroke:#181818;stroke-width:0.8000000000000002;"/><polygon fill="#181818" points="337.888,1854.2429,337.6075,1846.3688,336.1344,1850.6478,331.8554,1849.1747,337.888,1854.2429" style="stroke:#181818;stroke-width:0.8000000000000002;"/><text fill="#000000" font-family="sans-serif" font-size="10.4" lengthAdjust="spacing" textLength="70.4" x="324" y="1827.2336">collaboratorList</text><text fill="#000000" font-family="sans-serif" font-size="10.4" lengthAdjust="spacing" textLength="5.6" x="281.7247" y="1764.2266">1</text><text fill="#000000" font-family="sans-serif" font-size="10.4" lengthAdjust="spacing" textLength="16" x="318.3008" y="1845.344">1..*</text></g><!--SRC=[rLZDRjiu4BxhAGXVAgUsWLozHO2uQGelscwmJXw0aMYRi2HgIMfJD-Yxxr2aB8eUoMfH55WV35lpF_DnEACtwi2BaagQarmK8jbBaJEYPSMYbbBIv41tRAEF6IEI9PeMkyndK7kQYXTUxCYMPigdPBnW-bWo8gGMaKT8CghKhTQIFrUQhHDHRFWtHYRNaoXoziZaQJqXxzxTYonbykQ6l4O4FhKaUIyALMNwLYc-ArZwIDL1VU9AFwqTs_VeU-If0dujHPOn6QYyeBELSthDvotPCLsJLqo_C5OyleWxgfcAbQPIcvypmehK_e1dkbBJa_JSIBy7dVHPIAg5l8UaRnXO5KKyTSuRxzzaRAk95aJotLwJb9lS0rCRrPt8AI-mY0AMnMrPPZoXHXnZRvFWCJgVJWnj0cmIJ60yCT6i2_XT92oU1YmcqafALkXkW2x8hkadnUGbcw3Gi7s0eBAEBazZ6FjdaRAiBsfUQ2QtD67aeuHARahp4x7wXUPeUBUIKVHvcag8PIZUHqRpqDAUAlDuTVG14YVUdsdKh_4ZbIah2C_BZEMGTEK5rRKq9niuUt1Y2uWhe41A28MmWiSkeYZmsDgCZPwPaPef3JRhVCrAeG3fAPl-bdn-PYclyWSg3xyt0xya6ajgGnYRqBCiVA9on_xNIJX5y1CvQ8_psZz1Ft2WpIsoEV0imuX_YcViiMdqVsrNNEez7cZEwxPc-7ua4qQrI2fJGupsi1S5-rBbpqnYvB19UbVNrv8U4I7eFbQ8cU-XJjEuzOg09dKqwzbb7Oym8FJ0ClLO-XMvz94U9IrsK6U5T8u6oMYAua6FDDYp4hDC93JZt-hRSXee_nSeQKqPwbaFJc6FwrrxE8_lH1X3epx-vOwRyQSluHfeTqmbafUOKqOq3dWkMBhTmJX5- -nLq2-Av8XKbtqjOMPYwLqbRNvw068cj81cpYevpNCOqKruM7ZMttXtQhkpEYcpnjKPIPr7Ct8-C_PKX7cQGnOpDm1rTJJJGwpX2-7Or776uK3gqjKCitsJx429_5RhNpi3FNZevgcpcxOz5IDJlwVYckicXe12k_ON5ewh3_zKiC04urP_swbByNhMDx0AdLO6SxtqLkajsV8CBZ2xMnnjlUfBGpjH8zYi59UX0pCwB5ujR5R7MfarOZUSHca81vfso352lqVKnEUNHizK_ZU3diGXmyVXXUJ4nvaYGRBd7IgMydOp8SiECxAeU5LldKFh287w77yWDte8Wi4pqoeZhz6mPwjZvuOUN2ukgBsuQ8JRbTb9v-UV9iS8AUfKRtxJhUOIZgCLZSxNJiEDFFLaK6UUrfWR0wyB5ekR2vi_RgYbZpNelKjO6Aj1BgIFpZ7ooAe-HinViyVmuq0T9Te5uIYHpfKnIgBTRSRv10z7CzfZFAuQurbDMiRfTBlM6DvcrCFHUeuL3BNOAOHZEBcU-AW1h5OUXb1xFhOlzuN6I4zFNFPXCEmkHeSR5PTDGG9BbYdeZiiGgJqd7dC2F_re7CQoTU5gqWKwUE2tNjEQS1-wVcAsWz2CJMVHKC2G6Jlw3JZ8eUXmQzRaUh40TLVpUQsz0HweRhQCg1jSA-146arBCqROjmcOBys2Y3aJMfWqzM-4G3cClD7fhtDYVkCpcRtICQ8UjBq5yy5xOsYKNeN1SLKlPx1_mANLa-uQf6YsBOxho9e2jflGijud7CHnf9peA4fQLKPpSowyY9QatLuwx4qUxK4oQw1rvbodTzWSxlf1tGVbDW7MxgLJyny0]--></g></svg>