<?xml version="1.0" encoding="us-ascii" standalone="no"?><svg xmlns="http://www.w3.org/2000/svg" xmlns:xlink="http://www.w3.org/1999/xlink" contentStyleType="text/css" height="1741px" preserveAspectRatio="none" style="width:1985px;height:1741px;background:#FFFFFF;" version="1.1" viewBox="0 0 1985 1741" width="1985px" zoomAndPan="magnify"><defs/><g><text fill="#000000" font-family="sans-serif" font-size="14" font-weight="bold" lengthAdjust="spacing" textLength="389" x="799.5" y="30.1074">Sequence Diagram (SD) - US28 - Consult assigned tasks</text><rect fill="#FFFFFF" height="1516.0566" style="stroke:#181818;stroke-width:1.0;" width="10" x="42" y="133.2422"/><rect fill="#FFFFFF" height="31.291" style="stroke:#181818;stroke-width:1.0;" width="10" x="339" y="156.5332"/><rect fill="#FFFFFF" height="31.291" style="stroke:#181818;stroke-width:1.0;" width="10" x="339" y="219.1152"/><rect fill="#FFFFFF" height="1358.6016" style="stroke:#181818;stroke-width:1.0;" width="10" x="339" y="281.6973"/><rect fill="#FFFFFF" height="1336.3105" style="stroke:#181818;stroke-width:1.0;" width="10" x="700" y="312.9883"/><rect fill="#FFFFFF" height="90.543" style="stroke:#181818;stroke-width:1.0;" width="10" x="705" y="352.2793"/><rect fill="#FFFFFF" height="31.291" style="stroke:#181818;stroke-width:1.0;" width="10" x="907" y="481.1133"/><rect fill="#FFFFFF" height="31.291" style="stroke:#181818;stroke-width:1.0;" width="10" x="1014" y="543.6953"/><rect fill="#FFFFFF" height="31.291" style="stroke:#181818;stroke-width:1.0;" width="10" x="1014" y="860.6055"/><rect fill="#FFFFFF" height="223.0371" style="stroke:#181818;stroke-width:1.0;" width="10" x="1133.5" y="606.2773"/><rect fill="#FFFFFF" height="127.1641" style="stroke:#181818;stroke-width:1.0;" width="10" x="1393.5" y="663.8594"/><rect fill="#FFFFFF" height="31.291" style="stroke:#181818;stroke-width:1.0;" width="10" x="1565.5" y="721.4414"/><rect fill="#FFFFFF" height="249.0371" style="stroke:#181818;stroke-width:1.0;" width="10" x="1657" y="923.1875"/><rect fill="#FFFFFF" height="42.291" style="stroke:#181818;stroke-width:1.0;" width="10" x="1662" y="1077.6426"/><rect fill="#FFFFFF" height="311.6191" style="stroke:#181818;stroke-width:1.0;" width="10" x="1657" y="1203.5156"/><rect fill="#FFFFFF" height="42.291" style="stroke:#181818;stroke-width:1.0;" width="10" x="1662" y="1420.5527"/><rect fill="#FFFFFF" height="31.291" style="stroke:#181818;stroke-width:1.0;" width="10" x="1657" y="1546.4258"/><rect fill="#FFFFFF" height="31.291" style="stroke:#181818;stroke-width:1.0;" width="10" x="1915" y="980.7695"/><rect fill="#FFFFFF" height="31.291" style="stroke:#181818;stroke-width:1.0;" width="10" x="1915" y="1261.0977"/><rect fill="#FFFFFF" height="31.291" style="stroke:#181818;stroke-width:1.0;" width="10" x="1915" y="1323.6797"/><rect fill="none" height="177.7461" style="stroke:#000000;stroke-width:1.5;" width="674" x="1067.5" y="621.2773"/><rect fill="none" height="81.873" style="stroke:#000000;stroke-width:1.5;" width="370" x="1361.5" y="678.8594"/><rect fill="none" height="203.7461" style="stroke:#000000;stroke-width:1.5;" width="370.5" x="1608.5" y="938.1875"/><rect fill="none" height="107.873" style="stroke:#000000;stroke-width:1.5;" width="221" x="1618.5" y="1027.0605"/><rect fill="none" height="266.3281" style="stroke:#000000;stroke-width:1.5;" width="370.5" x="1608.5" y="1218.5156"/><rect fill="none" height="107.873" style="stroke:#000000;stroke-width:1.5;" width="338" x="1618.5" y="1369.9707"/><line style="stroke:#181818;stroke-width:0.5;stroke-dasharray:5.0,5.0;" x1="47" x2="47" y1="123.2422" y2="1658.2988"/><line style="stroke:#181818;stroke-width:0.5;stroke-dasharray:5.0,5.0;" x1="344" x2="344" y1="123.2422" y2="1658.2988"/><line style="stroke:#181818;stroke-width:0.5;stroke-dasharray:5.0,5.0;" x1="705" x2="705" y1="123.2422" y2="1658.2988"/><line style="stroke:#181818;stroke-width:0.5;stroke-dasharray:5.0,5.0;" x1="911.5" x2="911.5" y1="123.2422" y2="1658.2988"/><line style="stroke:#181818;stroke-width:0.5;stroke-dasharray:5.0,5.0;" x1="1018.5" x2="1018.5" y1="123.2422" y2="1658.2988"/><line style="stroke:#181818;stroke-width:0.5;stroke-dasharray:5.0,5.0;" x1="1138.5" x2="1138.5" y1="123.2422" y2="1658.2988"/><line style="stroke:#181818;stroke-width:0.5;stroke-dasharray:5.0,5.0;" x1="1398.5" x2="1398.5" y1="123.2422" y2="1658.2988"/><line style="stroke:#181818;stroke-width:0.5;stroke-dasharray:5.0,5.0;" x1="1570.5" x2="1570.5" y1="123.2422" y2="1658.2988"/><line style="stroke:#181818;stroke-width:0.5;stroke-dasharray:5.0,5.0;" x1="1661.5" x2="1661.5" y1="123.2422" y2="1658.2988"/><line style="stroke:#181818;stroke-width:0.5;stroke-dasharray:5.0,5.0;" x1="1920" x2="1920" y1="123.2422" y2="1658.2988"/><text fill="#000000" font-family="sans-serif" font-size="14" lengthAdjust="spacing" textLength="78" x="5" y="119.7285">Collaborator</text><ellipse cx="47" cy="53.1211" fill="#E3E3E3" rx="8" ry="8" style="stroke:#181818;stroke-width:0.5;"/><path d="M47,61.1211 L47,88.1211 M34,69.1211 L60,69.1211 M47,88.1211 L34,103.1211 M47,88.1211 L60,103.1211 " fill="none" style="stroke:#181818;stroke-width:0.5;"/><text fill="#000000" font-family="sans-serif" font-size="14" lengthAdjust="spacing" textLength="78" x="5" y="1672.4063">Collaborator</text><ellipse cx="47" cy="1684.4199" fill="#E3E3E3" rx="8" ry="8" style="stroke:#181818;stroke-width:0.5;"/><path d="M47,1692.4199 L47,1719.4199 M34,1700.4199 L60,1700.4199 M47,1719.4199 L34,1734.4199 M47,1719.4199 L60,1734.4199 " fill="none" style="stroke:#181818;stroke-width:0.5;"/><rect fill="#E3E3E3" height="32.6211" rx="2.5" ry="2.5" style="stroke:#181818;stroke-width:0.5;" width="170" x="259" y="89.6211"/><text fill="#000000" font-family="sans-serif" font-size="14" lengthAdjust="spacing" textLength="156" x="266" y="111.7285">ConsultAssignedTasksUI</text><rect fill="#E3E3E3" height="32.6211" rx="2.5" ry="2.5" style="stroke:#181818;stroke-width:0.5;" width="170" x="259" y="1657.2988"/><text fill="#000000" font-family="sans-serif" font-size="14" lengthAdjust="spacing" textLength="156" x="266" y="1679.4063">ConsultAssignedTasksUI</text><rect fill="#E3E3E3" height="32.6211" rx="2.5" ry="2.5" style="stroke:#181818;stroke-width:0.5;" width="220" x="595" y="89.6211"/><text fill="#000000" font-family="sans-serif" font-size="14" lengthAdjust="spacing" textLength="206" x="602" y="111.7285">ConsultAssignedTasksController</text><rect fill="#E3E3E3" height="32.6211" rx="2.5" ry="2.5" style="stroke:#181818;stroke-width:0.5;" width="220" x="595" y="1657.2988"/><text fill="#000000" font-family="sans-serif" font-size="14" lengthAdjust="spacing" textLength="206" x="602" y="1679.4063">ConsultAssignedTasksController</text><rect fill="#E3E3E3" height="32.6211" rx="2.5" ry="2.5" style="stroke:#181818;stroke-width:0.5;" width="97" x="863.5" y="89.6211"/><text fill="#000000" font-family="sans-serif" font-size="14" lengthAdjust="spacing" textLength="83" x="870.5" y="111.7285">:Repositories</text><rect fill="#E3E3E3" height="32.6211" rx="2.5" ry="2.5" style="stroke:#181818;stroke-width:0.5;" width="97" x="863.5" y="1657.2988"/><text fill="#000000" font-family="sans-serif" font-size="14" lengthAdjust="spacing" textLength="83" x="870.5" y="1679.4063">:Repositories</text><rect fill="#E3E3E3" height="51.2422" rx="2.5" ry="2.5" style="stroke:#181818;stroke-width:0.5;" width="97" x="970.5" y="71"/><text fill="#000000" font-family="sans-serif" font-size="14" lengthAdjust="spacing" textLength="74" x="982" y="93.1074">repositories</text><text fill="#000000" font-family="sans-serif" font-size="14" lengthAdjust="spacing" textLength="83" x="977.5" y="111.7285">:Repositories</text><rect fill="#E3E3E3" height="51.2422" rx="2.5" ry="2.5" style="stroke:#181818;stroke-width:0.5;" width="97" x="970.5" y="1657.2988"/><text fill="#000000" font-family="sans-serif" font-size="14" lengthAdjust="spacing" textLength="74" x="982" y="1679.4063">repositories</text><text fill="#000000" font-family="sans-serif" font-size="14" lengthAdjust="spacing" textLength="83" x="977.5" y="1698.0273">:Repositories</text><rect fill="#E3E3E3" height="51.2422" rx="2.5" ry="2.5" style="stroke:#181818;stroke-width:0.5;" width="122" x="1077.5" y="71"/><text fill="#000000" font-family="sans-serif" font-size="14" lengthAdjust="spacing" textLength="99" x="1089" y="93.1074">teamRepository</text><text fill="#000000" font-family="sans-serif" font-size="14" lengthAdjust="spacing" textLength="108" x="1084.5" y="111.7285">:TeamRepository</text><rect fill="#E3E3E3" height="51.2422" rx="2.5" ry="2.5" style="stroke:#181818;stroke-width:0.5;" width="122" x="1077.5" y="1657.2988"/><text fill="#000000" font-family="sans-serif" font-size="14" lengthAdjust="spacing" textLength="99" x="1089" y="1679.4063">teamRepository</text><text fill="#000000" font-family="sans-serif" font-size="14" lengthAdjust="spacing" textLength="108" x="1084.5" y="1698.0273">:TeamRepository</text><rect fill="#E3E3E3" height="51.2422" rx="2.5" ry="2.5" style="stroke:#181818;stroke-width:0.5;" width="54" x="1371.5" y="71"/><text fill="#000000" font-family="sans-serif" font-size="14" lengthAdjust="spacing" textLength="31" x="1383" y="93.1074">team</text><text fill="#000000" font-family="sans-serif" font-size="14" lengthAdjust="spacing" textLength="40" x="1378.5" y="111.7285">:Team</text><rect fill="#E3E3E3" height="51.2422" rx="2.5" ry="2.5" style="stroke:#181818;stroke-width:0.5;" width="54" x="1371.5" y="1657.2988"/><text fill="#000000" font-family="sans-serif" font-size="14" lengthAdjust="spacing" textLength="31" x="1383" y="1679.4063">team</text><text fill="#000000" font-family="sans-serif" font-size="14" lengthAdjust="spacing" textLength="40" x="1378.5" y="1698.0273">:Team</text><rect fill="#E3E3E3" height="51.2422" rx="2.5" ry="2.5" style="stroke:#181818;stroke-width:0.5;" width="96" x="1522.5" y="71"/><text fill="#000000" font-family="sans-serif" font-size="14" lengthAdjust="spacing" textLength="75" x="1533" y="93.1074">collaborator</text><text fill="#000000" font-family="sans-serif" font-size="14" lengthAdjust="spacing" textLength="82" x="1529.5" y="111.7285">:Collaborator</text><rect fill="#E3E3E3" height="51.2422" rx="2.5" ry="2.5" style="stroke:#181818;stroke-width:0.5;" width="96" x="1522.5" y="1657.2988"/><text fill="#000000" font-family="sans-serif" font-size="14" lengthAdjust="spacing" textLength="75" x="1533" y="1679.4063">collaborator</text><text fill="#000000" font-family="sans-serif" font-size="14" lengthAdjust="spacing" textLength="82" x="1529.5" y="1698.0273">:Collaborator</text><rect fill="#E3E3E3" height="51.2422" rx="2.5" ry="2.5" style="stroke:#181818;stroke-width:0.5;" width="67" x="1628.5" y="71"/><text fill="#000000" font-family="sans-serif" font-size="14" lengthAdjust="spacing" textLength="48" x="1638" y="93.1074">agenda</text><text fill="#000000" font-family="sans-serif" font-size="14" lengthAdjust="spacing" textLength="53" x="1635.5" y="111.7285">:Agenda</text><rect fill="#E3E3E3" height="51.2422" rx="2.5" ry="2.5" style="stroke:#181818;stroke-width:0.5;" width="67" x="1628.5" y="1657.2988"/><text fill="#000000" font-family="sans-serif" font-size="14" lengthAdjust="spacing" textLength="48" x="1638" y="1679.4063">agenda</text><text fill="#000000" font-family="sans-serif" font-size="14" lengthAdjust="spacing" textLength="53" x="1635.5" y="1698.0273">:Agenda</text><rect fill="#E3E3E3" height="51.2422" rx="2.5" ry="2.5" style="stroke:#181818;stroke-width:0.5;" width="98" x="1871" y="71"/><text fill="#000000" font-family="sans-serif" font-size="14" lengthAdjust="spacing" textLength="75" x="1882.5" y="93.1074">taskAgenda</text><text fill="#000000" font-family="sans-serif" font-size="14" lengthAdjust="spacing" textLength="84" x="1878" y="111.7285">:TaskAgenda</text><rect fill="#E3E3E3" height="51.2422" rx="2.5" ry="2.5" style="stroke:#181818;stroke-width:0.5;" width="98" x="1871" y="1657.2988"/><text fill="#000000" font-family="sans-serif" font-size="14" lengthAdjust="spacing" textLength="75" x="1882.5" y="1679.4063">taskAgenda</text><text fill="#000000" font-family="sans-serif" font-size="14" lengthAdjust="spacing" textLength="84" x="1878" y="1698.0273">:TaskAgenda</text><rect fill="#FFFFFF" height="1516.0566" style="stroke:#181818;stroke-width:1.0;" width="10" x="42" y="133.2422"/><rect fill="#FFFFFF" height="31.291" style="stroke:#181818;stroke-width:1.0;" width="10" x="339" y="156.5332"/><rect fill="#FFFFFF" height="31.291" style="stroke:#181818;stroke-width:1.0;" width="10" x="339" y="219.1152"/><rect fill="#FFFFFF" height="1358.6016" style="stroke:#181818;stroke-width:1.0;" width="10" x="339" y="281.6973"/><rect fill="#FFFFFF" height="1336.3105" style="stroke:#181818;stroke-width:1.0;" width="10" x="700" y="312.9883"/><rect fill="#FFFFFF" height="90.543" style="stroke:#181818;stroke-width:1.0;" width="10" x="705" y="352.2793"/><rect fill="#FFFFFF" height="31.291" style="stroke:#181818;stroke-width:1.0;" width="10" x="907" y="481.1133"/><rect fill="#FFFFFF" height="31.291" style="stroke:#181818;stroke-width:1.0;" width="10" x="1014" y="543.6953"/><rect fill="#FFFFFF" height="31.291" style="stroke:#181818;stroke-width:1.0;" width="10" x="1014" y="860.6055"/><rect fill="#FFFFFF" height="223.0371" style="stroke:#181818;stroke-width:1.0;" width="10" x="1133.5" y="606.2773"/><rect fill="#FFFFFF" height="127.1641" style="stroke:#181818;stroke-width:1.0;" width="10" x="1393.5" y="663.8594"/><rect fill="#FFFFFF" height="31.291" style="stroke:#181818;stroke-width:1.0;" width="10" x="1565.5" y="721.4414"/><rect fill="#FFFFFF" height="249.0371" style="stroke:#181818;stroke-width:1.0;" width="10" x="1657" y="923.1875"/><rect fill="#FFFFFF" height="42.291" style="stroke:#181818;stroke-width:1.0;" width="10" x="1662" y="1077.6426"/><rect fill="#FFFFFF" height="311.6191" style="stroke:#181818;stroke-width:1.0;" width="10" x="1657" y="1203.5156"/><rect fill="#FFFFFF" height="42.291" style="stroke:#181818;stroke-width:1.0;" width="10" x="1662" y="1420.5527"/><rect fill="#FFFFFF" height="31.291" style="stroke:#181818;stroke-width:1.0;" width="10" x="1657" y="1546.4258"/><rect fill="#FFFFFF" height="31.291" style="stroke:#181818;stroke-width:1.0;" width="10" x="1915" y="980.7695"/><rect fill="#FFFFFF" height="31.291" style="stroke:#181818;stroke-width:1.0;" width="10" x="1915" y="1261.0977"/><rect fill="#FFFFFF" height="31.291" style="stroke:#181818;stroke-width:1.0;" width="10" x="1915" y="1323.6797"/><polygon fill="#181818" points="327,152.5332,337,156.5332,327,160.5332,331,156.5332" style="stroke:#181818;stroke-width:1.0;"/><line style="stroke:#181818;stroke-width:1.0;" x1="52" x2="333" y1="156.5332" y2="156.5332"/><text fill="#000000" font-family="sans-serif" font-size="13" font-weight="bold" lengthAdjust="spacing" textLength="7" x="59" y="151.2705">1</text><text fill="#000000" font-family="sans-serif" font-size="13" lengthAdjust="spacing" textLength="181" x="70" y="151.2705">asks to consult assigned tasks</text><polygon fill="#181818" points="63,183.8242,53,187.8242,63,191.8242,59,187.8242" style="stroke:#181818;stroke-width:1.0;"/><line style="stroke:#181818;stroke-width:1.0;stroke-dasharray:2.0,2.0;" x1="57" x2="343" y1="187.8242" y2="187.8242"/><text fill="#000000" font-family="sans-serif" font-size="13" font-weight="bold" lengthAdjust="spacing" textLength="7" x="69" y="182.5615">2</text><text fill="#000000" font-family="sans-serif" font-size="13" lengthAdjust="spacing" textLength="240" x="80" y="182.5615">requests data(startDate, endDate, status)</text><polygon fill="#181818" points="327,215.1152,337,219.1152,327,223.1152,331,219.1152" style="stroke:#181818;stroke-width:1.0;"/><line style="stroke:#181818;stroke-width:1.0;" x1="52" x2="333" y1="219.1152" y2="219.1152"/><text fill="#000000" font-family="sans-serif" font-size="13" font-weight="bold" lengthAdjust="spacing" textLength="7" x="59" y="213.8525">3</text><text fill="#000000" font-family="sans-serif" font-size="13" lengthAdjust="spacing" textLength="61" x="70" y="213.8525">types data</text><polygon fill="#181818" points="63,246.4063,53,250.4063,63,254.4063,59,250.4063" style="stroke:#181818;stroke-width:1.0;"/><line style="stroke:#181818;stroke-width:1.0;stroke-dasharray:2.0,2.0;" x1="57" x2="343" y1="250.4063" y2="250.4063"/><text fill="#000000" font-family="sans-serif" font-size="13" font-weight="bold" lengthAdjust="spacing" textLength="7" x="69" y="245.1436">4</text><text fill="#000000" font-family="sans-serif" font-size="13" lengthAdjust="spacing" textLength="252" x="80" y="245.1436">displays the data and requests confirmation</text><polygon fill="#181818" points="327,277.6973,337,281.6973,327,285.6973,331,281.6973" style="stroke:#181818;stroke-width:1.0;"/><line style="stroke:#181818;stroke-width:1.0;" x1="52" x2="333" y1="281.6973" y2="281.6973"/><text fill="#000000" font-family="sans-serif" font-size="13" font-weight="bold" lengthAdjust="spacing" textLength="7" x="59" y="276.4346">5</text><text fill="#000000" font-family="sans-serif" font-size="13" lengthAdjust="spacing" textLength="78" x="70" y="276.4346">confirms data</text><polygon fill="#181818" points="688,308.9883,698,312.9883,688,316.9883,692,312.9883" style="stroke:#181818;stroke-width:1.0;"/><line style="stroke:#181818;stroke-width:1.0;" x1="349" x2="694" y1="312.9883" y2="312.9883"/><text fill="#000000" font-family="sans-serif" font-size="13" font-weight="bold" lengthAdjust="spacing" textLength="7" x="356" y="307.7256">6</text><text fill="#000000" font-family="sans-serif" font-size="13" lengthAdjust="spacing" textLength="321" x="367" y="307.7256">getTasksBetweenTwoDates(startDate, endDate, status)</text><line style="stroke:#181818;stroke-width:1.0;" x1="710" x2="757" y1="339.2793" y2="339.2793"/><line style="stroke:#181818;stroke-width:1.0;" x1="757" x2="757" y1="339.2793" y2="352.2793"/><line style="stroke:#181818;stroke-width:1.0;" x1="716" x2="757" y1="352.2793" y2="352.2793"/><polygon fill="#181818" points="726,348.2793,716,352.2793,726,356.2793,722,352.2793" style="stroke:#181818;stroke-width:1.0;"/><text fill="#000000" font-family="sans-serif" font-size="13" font-weight="bold" lengthAdjust="spacing" textLength="7" x="722" y="334.0166">7</text><text fill="#000000" font-family="sans-serif" font-size="13" lengthAdjust="spacing" textLength="172" x="733" y="334.0166">getCollaboratorFromSession()</text><rect fill="none" height="43.252" style="stroke:#000000;stroke-width:1.5;" width="226" x="592" y="365.2793"/><path d="M592,365.2793 L654,365.2793 L654,374.2793 L644,384.2793 L592,384.2793 L592,365.2793 " fill="#EEEEEE" style="stroke:#000000;stroke-width:2.0;"/><text fill="#000000" font-family="sans-serif" font-size="13" font-weight="bold" lengthAdjust="spacing" textLength="17" x="605" y="381.3076">ref</text><text fill="#000000" font-family="sans-serif" font-size="12" lengthAdjust="spacing" textLength="90" x="660" y="401.2285">Get Collaborator</text><line style="stroke:#181818;stroke-width:1.0;stroke-dasharray:2.0,2.0;" x1="715" x2="757" y1="441.8223" y2="441.8223"/><line style="stroke:#181818;stroke-width:1.0;stroke-dasharray:2.0,2.0;" x1="757" x2="757" y1="441.8223" y2="454.8223"/><line style="stroke:#181818;stroke-width:1.0;stroke-dasharray:2.0,2.0;" x1="710" x2="757" y1="454.8223" y2="454.8223"/><polygon fill="#181818" points="720,450.8223,710,454.8223,720,458.8223,716,454.8223" style="stroke:#181818;stroke-width:1.0;"/><text fill="#000000" font-family="sans-serif" font-size="13" font-weight="bold" lengthAdjust="spacing" textLength="7" x="722" y="436.5596">8</text><text fill="#000000" font-family="sans-serif" font-size="13" lengthAdjust="spacing" textLength="67" x="733" y="436.5596">collaborator</text><polygon fill="#181818" points="895,477.1133,905,481.1133,895,485.1133,899,481.1133" style="stroke:#181818;stroke-width:1.0;"/><line style="stroke:#181818;stroke-width:1.0;" x1="710" x2="901" y1="481.1133" y2="481.1133"/><text fill="#000000" font-family="sans-serif" font-size="13" font-weight="bold" lengthAdjust="spacing" textLength="7" x="717" y="475.8506">9</text><text fill="#000000" font-family="sans-serif" font-size="13" lengthAdjust="spacing" textLength="75" x="728" y="475.8506">getInstance()</text><polygon fill="#181818" points="721,508.4043,711,512.4043,721,516.4043,717,512.4043" style="stroke:#181818;stroke-width:1.0;"/><line style="stroke:#181818;stroke-width:1.0;stroke-dasharray:2.0,2.0;" x1="715" x2="911" y1="512.4043" y2="512.4043"/><text fill="#000000" font-family="sans-serif" font-size="13" font-weight="bold" lengthAdjust="spacing" textLength="14" x="727" y="507.1416">10</text><text fill="#000000" font-family="sans-serif" font-size="13" lengthAdjust="spacing" textLength="67" x="745" y="507.1416">repositories</text><polygon fill="#181818" points="1002,539.6953,1012,543.6953,1002,547.6953,1006,543.6953" style="stroke:#181818;stroke-width:1.0;"/><line style="stroke:#181818;stroke-width:1.0;" x1="710" x2="1008" y1="543.6953" y2="543.6953"/><text fill="#000000" font-family="sans-serif" font-size="13" font-weight="bold" lengthAdjust="spacing" textLength="14" x="717" y="538.4326">11</text><text fill="#000000" font-family="sans-serif" font-size="13" lengthAdjust="spacing" textLength="120" x="735" y="538.4326">getTeamRepository()</text><polygon fill="#181818" points="721,570.9863,711,574.9863,721,578.9863,717,574.9863" style="stroke:#181818;stroke-width:1.0;"/><line style="stroke:#181818;stroke-width:1.0;stroke-dasharray:2.0,2.0;" x1="715" x2="1018" y1="574.9863" y2="574.9863"/><text fill="#000000" font-family="sans-serif" font-size="13" font-weight="bold" lengthAdjust="spacing" textLength="14" x="727" y="569.7236">12</text><text fill="#000000" font-family="sans-serif" font-size="13" lengthAdjust="spacing" textLength="91" x="745" y="569.7236">teamRepository</text><polygon fill="#181818" points="1121.5,602.2773,1131.5,606.2773,1121.5,610.2773,1125.5,606.2773" style="stroke:#181818;stroke-width:1.0;"/><line style="stroke:#181818;stroke-width:1.0;" x1="710" x2="1127.5" y1="606.2773" y2="606.2773"/><text fill="#000000" font-family="sans-serif" font-size="13" font-weight="bold" lengthAdjust="spacing" textLength="14" x="717" y="601.0146">13</text><text fill="#000000" font-family="sans-serif" font-size="13" lengthAdjust="spacing" textLength="210" x="735" y="601.0146">getTeamByCollaborator(collaborator)</text><path d="M1067.5,621.2773 L1140.5,621.2773 L1140.5,630.5684 L1130.5,640.5684 L1067.5,640.5684 L1067.5,621.2773 " fill="#EEEEEE" style="stroke:#000000;stroke-width:1.5;"/><rect fill="none" height="177.7461" style="stroke:#000000;stroke-width:1.5;" width="674" x="1067.5" y="621.2773"/><text fill="#000000" font-family="sans-serif" font-size="13" font-weight="bold" lengthAdjust="spacing" textLength="28" x="1082.5" y="636.3057">loop</text><text fill="#000000" font-family="sans-serif" font-size="11" font-weight="bold" lengthAdjust="spacing" textLength="258" x="1155.5" y="635.1475">[for each team in teamList[in teamRepository]]</text><polygon fill="#181818" points="1381.5,659.8594,1391.5,663.8594,1381.5,667.8594,1385.5,663.8594" style="stroke:#181818;stroke-width:1.0;"/><line style="stroke:#181818;stroke-width:1.0;" x1="1143.5" x2="1387.5" y1="663.8594" y2="663.8594"/><text fill="#000000" font-family="sans-serif" font-size="13" font-weight="bold" lengthAdjust="spacing" textLength="14" x="1150.5" y="658.5967">14</text><text fill="#000000" font-family="sans-serif" font-size="13" lengthAdjust="spacing" textLength="213" x="1168.5" y="658.5967">hasTeamByCollaborator(collaborator)</text><path d="M1361.5,678.8594 L1434.5,678.8594 L1434.5,688.1504 L1424.5,698.1504 L1361.5,698.1504 L1361.5,678.8594 " fill="#EEEEEE" style="stroke:#000000;stroke-width:1.5;"/><rect fill="none" height="81.873" style="stroke:#000000;stroke-width:1.5;" width="370" x="1361.5" y="678.8594"/><text fill="#000000" font-family="sans-serif" font-size="13" font-weight="bold" lengthAdjust="spacing" textLength="28" x="1376.5" y="693.8877">loop</text><text fill="#000000" font-family="sans-serif" font-size="11" font-weight="bold" lengthAdjust="spacing" textLength="277" x="1449.5" y="692.7295">[for each collaborator in collaboratorList[in Team]]</text><polygon fill="#181818" points="1553.5,717.4414,1563.5,721.4414,1553.5,725.4414,1557.5,721.4414" style="stroke:#181818;stroke-width:1.0;"/><line style="stroke:#181818;stroke-width:1.0;" x1="1403.5" x2="1559.5" y1="721.4414" y2="721.4414"/><text fill="#000000" font-family="sans-serif" font-size="13" font-weight="bold" lengthAdjust="spacing" textLength="14" x="1410.5" y="716.1787">15</text><text fill="#000000" font-family="sans-serif" font-size="13" lengthAdjust="spacing" textLength="125" x="1428.5" y="716.1787">isEquals(collaborator)</text><polygon fill="#181818" points="1414.5,748.7324,1404.5,752.7324,1414.5,756.7324,1410.5,752.7324" style="stroke:#181818;stroke-width:1.0;"/><line style="stroke:#181818;stroke-width:1.0;stroke-dasharray:2.0,2.0;" x1="1408.5" x2="1569.5" y1="752.7324" y2="752.7324"/><text fill="#000000" font-family="sans-serif" font-size="13" font-weight="bold" lengthAdjust="spacing" textLength="14" x="1420.5" y="747.4697">16</text><text fill="#000000" font-family="sans-serif" font-size="13" lengthAdjust="spacing" textLength="53" x="1438.5" y="747.4697">true/false</text><polygon fill="#181818" points="1154.5,787.0234,1144.5,791.0234,1154.5,795.0234,1150.5,791.0234" style="stroke:#181818;stroke-width:1.0;"/><line style="stroke:#181818;stroke-width:1.0;stroke-dasharray:2.0,2.0;" x1="1148.5" x2="1397.5" y1="791.0234" y2="791.0234"/><text fill="#000000" font-family="sans-serif" font-size="13" font-weight="bold" lengthAdjust="spacing" textLength="14" x="1160.5" y="785.7607">17</text><text fill="#000000" font-family="sans-serif" font-size="13" lengthAdjust="spacing" textLength="53" x="1178.5" y="785.7607">true/false</text><polygon fill="#181818" points="721,825.3145,711,829.3145,721,833.3145,717,829.3145" style="stroke:#181818;stroke-width:1.0;"/><line style="stroke:#181818;stroke-width:1.0;stroke-dasharray:2.0,2.0;" x1="715" x2="1137.5" y1="829.3145" y2="829.3145"/><text fill="#000000" font-family="sans-serif" font-size="13" font-weight="bold" lengthAdjust="spacing" textLength="14" x="727" y="824.0518">18</text><text fill="#000000" font-family="sans-serif" font-size="13" lengthAdjust="spacing" textLength="29" x="745" y="824.0518">team</text><polygon fill="#181818" points="1002,856.6055,1012,860.6055,1002,864.6055,1006,860.6055" style="stroke:#181818;stroke-width:1.0;"/><line style="stroke:#181818;stroke-width:1.0;" x1="710" x2="1008" y1="860.6055" y2="860.6055"/><text fill="#000000" font-family="sans-serif" font-size="13" font-weight="bold" lengthAdjust="spacing" textLength="14" x="717" y="855.3428">19</text><text fill="#000000" font-family="sans-serif" font-size="13" lengthAdjust="spacing" textLength="70" x="735" y="855.3428">getAgenda()</text><polygon fill="#181818" points="721,887.8965,711,891.8965,721,895.8965,717,891.8965" style="stroke:#181818;stroke-width:1.0;"/><line style="stroke:#181818;stroke-width:1.0;stroke-dasharray:2.0,2.0;" x1="715" x2="1018" y1="891.8965" y2="891.8965"/><text fill="#000000" font-family="sans-serif" font-size="13" font-weight="bold" lengthAdjust="spacing" textLength="14" x="727" y="886.6338">20</text><text fill="#000000" font-family="sans-serif" font-size="13" lengthAdjust="spacing" textLength="42" x="745" y="886.6338">agenda</text><polygon fill="#181818" points="1645,919.1875,1655,923.1875,1645,927.1875,1649,923.1875" style="stroke:#181818;stroke-width:1.0;"/><line style="stroke:#181818;stroke-width:1.0;" x1="710" x2="1651" y1="923.1875" y2="923.1875"/><text fill="#000000" font-family="sans-serif" font-size="13" font-weight="bold" lengthAdjust="spacing" textLength="14" x="717" y="917.9248">21</text><text fill="#000000" font-family="sans-serif" font-size="13" lengthAdjust="spacing" textLength="152" x="735" y="917.9248">getTaskListByTeam(team)</text><path d="M1608.5,938.1875 L1681.5,938.1875 L1681.5,947.4785 L1671.5,957.4785 L1608.5,957.4785 L1608.5,938.1875 " fill="#EEEEEE" style="stroke:#000000;stroke-width:1.5;"/><rect fill="none" height="203.7461" style="stroke:#000000;stroke-width:1.5;" width="370.5" x="1608.5" y="938.1875"/><text fill="#000000" font-family="sans-serif" font-size="13" font-weight="bold" lengthAdjust="spacing" textLength="28" x="1623.5" y="953.2158">loop</text><text fill="#000000" font-family="sans-serif" font-size="11" font-weight="bold" lengthAdjust="spacing" textLength="165" x="1696.5" y="952.0576">[for each task in TaskAgenda]</text><polygon fill="#181818" points="1903,976.7695,1913,980.7695,1903,984.7695,1907,980.7695" style="stroke:#181818;stroke-width:1.0;"/><line style="stroke:#181818;stroke-width:1.0;" x1="1667" x2="1909" y1="980.7695" y2="980.7695"/><text fill="#000000" font-family="sans-serif" font-size="13" font-weight="bold" lengthAdjust="spacing" textLength="14" x="1674" y="975.5068">22</text><text fill="#000000" font-family="sans-serif" font-size="13" lengthAdjust="spacing" textLength="134" x="1692" y="975.5068">hasTaskByTeam(team)</text><polygon fill="#181818" points="1678,1008.0605,1668,1012.0605,1678,1016.0605,1674,1012.0605" style="stroke:#181818;stroke-width:1.0;"/><line style="stroke:#181818;stroke-width:1.0;stroke-dasharray:2.0,2.0;" x1="1672" x2="1919" y1="1012.0605" y2="1012.0605"/><text fill="#000000" font-family="sans-serif" font-size="13" font-weight="bold" lengthAdjust="spacing" textLength="14" x="1684" y="1006.7979">23</text><text fill="#000000" font-family="sans-serif" font-size="13" lengthAdjust="spacing" textLength="53" x="1702" y="1006.7979">true/false</text><path d="M1618.5,1027.0605 L1679.5,1027.0605 L1679.5,1036.3516 L1669.5,1046.3516 L1618.5,1046.3516 L1618.5,1027.0605 " fill="#EEEEEE" style="stroke:#000000;stroke-width:1.5;"/><rect fill="none" height="107.873" style="stroke:#000000;stroke-width:1.5;" width="221" x="1618.5" y="1027.0605"/><text fill="#000000" font-family="sans-serif" font-size="13" font-weight="bold" lengthAdjust="spacing" textLength="16" x="1633.5" y="1042.0889">alt</text><text fill="#000000" font-family="sans-serif" font-size="11" font-weight="bold" lengthAdjust="spacing" textLength="140" x="1694.5" y="1040.9307">[hasTaskByTeam == true]</text><line style="stroke:#181818;stroke-width:1.0;" x1="1667" x2="1714" y1="1064.6426" y2="1064.6426"/><line style="stroke:#181818;stroke-width:1.0;" x1="1714" x2="1714" y1="1064.6426" y2="1077.6426"/><line style="stroke:#181818;stroke-width:1.0;" x1="1673" x2="1714" y1="1077.6426" y2="1077.6426"/><polygon fill="#181818" points="1683,1073.6426,1673,1077.6426,1683,1081.6426,1679,1077.6426" style="stroke:#181818;stroke-width:1.0;"/><text fill="#000000" font-family="sans-serif" font-size="13" font-weight="bold" lengthAdjust="spacing" textLength="14" x="1679" y="1059.3799">24</text><text fill="#000000" font-family="sans-serif" font-size="13" lengthAdjust="spacing" textLength="110" x="1697" y="1059.3799">addTaskListTeam()</text><line style="stroke:#181818;stroke-width:1.0;stroke-dasharray:2.0,2.0;" x1="1672" x2="1714" y1="1118.9336" y2="1118.9336"/><line style="stroke:#181818;stroke-width:1.0;stroke-dasharray:2.0,2.0;" x1="1714" x2="1714" y1="1118.9336" y2="1131.9336"/><line style="stroke:#181818;stroke-width:1.0;stroke-dasharray:2.0,2.0;" x1="1667" x2="1714" y1="1131.9336" y2="1131.9336"/><polygon fill="#181818" points="1677,1127.9336,1667,1131.9336,1677,1135.9336,1673,1131.9336" style="stroke:#181818;stroke-width:1.0;"/><text fill="#000000" font-family="sans-serif" font-size="13" font-weight="bold" lengthAdjust="spacing" textLength="14" x="1679" y="1113.6709">25</text><text fill="#000000" font-family="sans-serif" font-size="13" lengthAdjust="spacing" textLength="53" x="1697" y="1113.6709">true/false</text><polygon fill="#181818" points="721,1168.2246,711,1172.2246,721,1176.2246,717,1172.2246" style="stroke:#181818;stroke-width:1.0;"/><line style="stroke:#181818;stroke-width:1.0;stroke-dasharray:2.0,2.0;" x1="715" x2="1661" y1="1172.2246" y2="1172.2246"/><text fill="#000000" font-family="sans-serif" font-size="13" font-weight="bold" lengthAdjust="spacing" textLength="14" x="727" y="1166.9619">26</text><text fill="#000000" font-family="sans-serif" font-size="13" lengthAdjust="spacing" textLength="78" x="745" y="1166.9619">taskListTeam</text><polygon fill="#181818" points="1645,1199.5156,1655,1203.5156,1645,1207.5156,1649,1203.5156" style="stroke:#181818;stroke-width:1.0;"/><line style="stroke:#181818;stroke-width:1.0;" x1="710" x2="1651" y1="1203.5156" y2="1203.5156"/><text fill="#000000" font-family="sans-serif" font-size="13" font-weight="bold" lengthAdjust="spacing" textLength="14" x="717" y="1198.2529">27</text><text fill="#000000" font-family="sans-serif" font-size="13" lengthAdjust="spacing" textLength="387" x="735" y="1198.2529">filterTasksByStatusDate(taskListTeam, status, startDate, endDate)</text><path d="M1608.5,1218.5156 L1681.5,1218.5156 L1681.5,1227.8066 L1671.5,1237.8066 L1608.5,1237.8066 L1608.5,1218.5156 " fill="#EEEEEE" style="stroke:#000000;stroke-width:1.5;"/><rect fill="none" height="266.3281" style="stroke:#000000;stroke-width:1.5;" width="370.5" x="1608.5" y="1218.5156"/><text fill="#000000" font-family="sans-serif" font-size="13" font-weight="bold" lengthAdjust="spacing" textLength="28" x="1623.5" y="1233.5439">loop</text><text fill="#000000" font-family="sans-serif" font-size="11" font-weight="bold" lengthAdjust="spacing" textLength="214" x="1696.5" y="1232.3857">[for each taskAgenda in taskListTeam]</text><polygon fill="#181818" points="1903,1257.0977,1913,1261.0977,1903,1265.0977,1907,1261.0977" style="stroke:#181818;stroke-width:1.0;"/><line style="stroke:#181818;stroke-width:1.0;" x1="1667" x2="1909" y1="1261.0977" y2="1261.0977"/><text fill="#000000" font-family="sans-serif" font-size="13" font-weight="bold" lengthAdjust="spacing" textLength="14" x="1674" y="1255.835">28</text><text fill="#000000" font-family="sans-serif" font-size="13" lengthAdjust="spacing" textLength="103" x="1692" y="1255.835">hasStatus(status)</text><polygon fill="#181818" points="1678,1288.3887,1668,1292.3887,1678,1296.3887,1674,1292.3887" style="stroke:#181818;stroke-width:1.0;"/><line style="stroke:#181818;stroke-width:1.0;stroke-dasharray:2.0,2.0;" x1="1672" x2="1919" y1="1292.3887" y2="1292.3887"/><text fill="#000000" font-family="sans-serif" font-size="13" font-weight="bold" lengthAdjust="spacing" textLength="14" x="1684" y="1287.126">29</text><text fill="#000000" font-family="sans-serif" font-size="13" lengthAdjust="spacing" textLength="53" x="1702" y="1287.126">true/false</text><polygon fill="#181818" points="1903,1319.6797,1913,1323.6797,1903,1327.6797,1907,1323.6797" style="stroke:#181818;stroke-width:1.0;"/><line style="stroke:#181818;stroke-width:1.0;" x1="1667" x2="1909" y1="1323.6797" y2="1323.6797"/><text fill="#000000" font-family="sans-serif" font-size="13" font-weight="bold" lengthAdjust="spacing" textLength="14" x="1674" y="1318.417">30</text><text fill="#000000" font-family="sans-serif" font-size="13" lengthAdjust="spacing" textLength="211" x="1692" y="1318.417">isBetweenDates(startDate, endDate)</text><polygon fill="#181818" points="1678,1350.9707,1668,1354.9707,1678,1358.9707,1674,1354.9707" style="stroke:#181818;stroke-width:1.0;"/><line style="stroke:#181818;stroke-width:1.0;stroke-dasharray:2.0,2.0;" x1="1672" x2="1919" y1="1354.9707" y2="1354.9707"/><text fill="#000000" font-family="sans-serif" font-size="13" font-weight="bold" lengthAdjust="spacing" textLength="14" x="1684" y="1349.708">31</text><text fill="#000000" font-family="sans-serif" font-size="13" lengthAdjust="spacing" textLength="53" x="1702" y="1349.708">true/false</text><path d="M1618.5,1369.9707 L1679.5,1369.9707 L1679.5,1379.2617 L1669.5,1389.2617 L1618.5,1389.2617 L1618.5,1369.9707 " fill="#EEEEEE" style="stroke:#000000;stroke-width:1.5;"/><rect fill="none" height="107.873" style="stroke:#000000;stroke-width:1.5;" width="338" x="1618.5" y="1369.9707"/><text fill="#000000" font-family="sans-serif" font-size="13" font-weight="bold" lengthAdjust="spacing" textLength="16" x="1633.5" y="1384.999">alt</text><text fill="#000000" font-family="sans-serif" font-size="11" font-weight="bold" lengthAdjust="spacing" textLength="257" x="1694.5" y="1383.8408">[hasStatus == true &amp;&amp; isBetweenDates == true]</text><line style="stroke:#181818;stroke-width:1.0;" x1="1667" x2="1714" y1="1407.5527" y2="1407.5527"/><line style="stroke:#181818;stroke-width:1.0;" x1="1714" x2="1714" y1="1407.5527" y2="1420.5527"/><line style="stroke:#181818;stroke-width:1.0;" x1="1673" x2="1714" y1="1420.5527" y2="1420.5527"/><polygon fill="#181818" points="1683,1416.5527,1673,1420.5527,1683,1424.5527,1679,1420.5527" style="stroke:#181818;stroke-width:1.0;"/><text fill="#000000" font-family="sans-serif" font-size="13" font-weight="bold" lengthAdjust="spacing" textLength="14" x="1679" y="1402.29">32</text><text fill="#000000" font-family="sans-serif" font-size="13" lengthAdjust="spacing" textLength="153" x="1697" y="1402.29">addFilteredTaskListTeam()</text><line style="stroke:#181818;stroke-width:1.0;stroke-dasharray:2.0,2.0;" x1="1672" x2="1714" y1="1461.8438" y2="1461.8438"/><line style="stroke:#181818;stroke-width:1.0;stroke-dasharray:2.0,2.0;" x1="1714" x2="1714" y1="1461.8438" y2="1474.8438"/><line style="stroke:#181818;stroke-width:1.0;stroke-dasharray:2.0,2.0;" x1="1667" x2="1714" y1="1474.8438" y2="1474.8438"/><polygon fill="#181818" points="1677,1470.8438,1667,1474.8438,1677,1478.8438,1673,1474.8438" style="stroke:#181818;stroke-width:1.0;"/><text fill="#000000" font-family="sans-serif" font-size="13" font-weight="bold" lengthAdjust="spacing" textLength="14" x="1679" y="1456.5811">33</text><text fill="#000000" font-family="sans-serif" font-size="13" lengthAdjust="spacing" textLength="53" x="1697" y="1456.5811">true/false</text><polygon fill="#181818" points="721,1511.1348,711,1515.1348,721,1519.1348,717,1515.1348" style="stroke:#181818;stroke-width:1.0;"/><line style="stroke:#181818;stroke-width:1.0;stroke-dasharray:2.0,2.0;" x1="715" x2="1661" y1="1515.1348" y2="1515.1348"/><text fill="#000000" font-family="sans-serif" font-size="13" font-weight="bold" lengthAdjust="spacing" textLength="14" x="727" y="1509.8721">34</text><text fill="#000000" font-family="sans-serif" font-size="13" lengthAdjust="spacing" textLength="119" x="745" y="1509.8721">filteredTaskListTeam</text><polygon fill="#181818" points="1645,1542.4258,1655,1546.4258,1645,1550.4258,1649,1546.4258" style="stroke:#181818;stroke-width:1.0;"/><line style="stroke:#181818;stroke-width:1.0;" x1="710" x2="1651" y1="1546.4258" y2="1546.4258"/><text fill="#000000" font-family="sans-serif" font-size="13" font-weight="bold" lengthAdjust="spacing" textLength="14" x="717" y="1541.1631">35</text><text fill="#000000" font-family="sans-serif" font-size="13" lengthAdjust="spacing" textLength="264" x="735" y="1541.1631">sortTaskAgendaByDate(filteredTaskListTeam)</text><polygon fill="#181818" points="721,1573.7168,711,1577.7168,721,1581.7168,717,1577.7168" style="stroke:#181818;stroke-width:1.0;"/><line style="stroke:#181818;stroke-width:1.0;stroke-dasharray:2.0,2.0;" x1="715" x2="1661" y1="1577.7168" y2="1577.7168"/><text fill="#000000" font-family="sans-serif" font-size="13" font-weight="bold" lengthAdjust="spacing" textLength="14" x="727" y="1572.4541">36</text><text fill="#000000" font-family="sans-serif" font-size="13" lengthAdjust="spacing" textLength="117" x="745" y="1572.4541">sortedTaskListTeam</text><polygon fill="#181818" points="360,1605.0078,350,1609.0078,360,1613.0078,356,1609.0078" style="stroke:#181818;stroke-width:1.0;"/><line style="stroke:#181818;stroke-width:1.0;stroke-dasharray:2.0,2.0;" x1="354" x2="699" y1="1609.0078" y2="1609.0078"/><text fill="#000000" font-family="sans-serif" font-size="13" font-weight="bold" lengthAdjust="spacing" textLength="14" x="366" y="1603.7451">37</text><text fill="#000000" font-family="sans-serif" font-size="13" lengthAdjust="spacing" textLength="117" x="384" y="1603.7451">sortedTaskListTeam</text><polygon fill="#181818" points="63,1636.2988,53,1640.2988,63,1644.2988,59,1640.2988" style="stroke:#181818;stroke-width:1.0;"/><line style="stroke:#181818;stroke-width:1.0;stroke-dasharray:2.0,2.0;" x1="57" x2="343" y1="1640.2988" y2="1640.2988"/><text fill="#000000" font-family="sans-serif" font-size="13" font-weight="bold" lengthAdjust="spacing" textLength="14" x="69" y="1635.0361">38</text><text fill="#000000" font-family="sans-serif" font-size="13" lengthAdjust="spacing" textLength="164" x="87" y="1635.0361">shows list of assigned tasks</text><!--SRC=[lLTDRzim3BtxLmWx52wmOC1EGu0MI9gs2DODGvsSjXvKMqw4Eb9gAGtyxqTH_f1ikGc6Ohb4aSd79_9HTDGB5tjQqXtPII7JRIbtZEZom2BLFjdJz8LkMAAhWf6IfPgAJU4Qg2tDv96B3SbfeLWKQQx1D66l1oPIHXQSRenTd2mkoOIiaw_VuEj62dKeDA5AyOrW6T5KlQWeeWSjnM7tp4fOfrgMvDEDB0hwB4iAlpw10_WM4SJMFELxAhInGB1PZRKoKEibsgwNfqrXJvSGXDNmgyS7tsdwoFPISOZFcKARTgDAkCa7aFPTIiVZZnW2_7gOhNmFpUYkWmMVbRU1NitMqBEsjrQtin- -HUga42n36OKDtmUABZ8ArZDSeDti_lRdOjQB3YcSDRQhzeTbCak-rpwccloDQeRbYmXyO44crr0YCYMc3aHBaePrOSnR0AWfRe3Z1FmDp1Ia2NfJMf6CQXeh3HGNOFoP01cxW3rzK9Vech416i1ChjVBAT7LdbcOCy9cNEqBMW7tBKCVGaNMaO7ZvBpSKSr18EE1spJKzk-7Dy51es2-OHeLF6Vwo9XO7QKvgZfv_AuMHkkuXKmCgeVkAkKEheU4GLsaY2zRdn4eyobPJkGRA-qZqllSCqrSUC-0OHBpFhMEMnhoT9BRiMaE5MXPFE9IG6RWeefxgGcrE5e47hJCZ0wxJkzNV1IouMXkXRgiNlFtkU7jWLleuUJ5lqNw13g_9c8Jfuiwhzogn6wYUopQswWjG27bdkHmQKF8BN8XNE3t0rVwTxtk-3tvWcd9669mYG6fBLLdaHh84Iz1xv5FpeKm9DtV3LaJ-MaWN6HcBm3m08vStRuUOFQzGyll57lR3Wngm4bz-YcEuYzsglPjNQa7uA1_HdZxDJyl0kRIXOw65VCb66f9Nowkv55xTcoSgNGO66X-Mk1s_BHNfIdjl39KOiEp5wsPLG4jWw-HIJVWh9NrGC6siywg5Wp70xc3qQjHkuz7RV16okGcTmIGmYprs92hA_kArwztTv9w1JdEiYPdU91tD1sAxQAwiEU9haRigpho5WwybOLs-4PXnC6uQxASyqApqWxKAi5nQKPdx68sSnI_UpCsC1G3XmXhoseARyl-2SPaPcz7opDsf_j9fGLL5YxC2OcDyEBD6ydOwyX_9-hqWirOqmVaug97z-mEmGQvGz6mZs-K3-sJOA_a0UhHU8JHlb6orDszEA-mQKBWumqoJjA0_ol5vgqwW35yarTRULIa00CYyz3_3__L_Iy0]--></g></svg>