<?xml version="1.0" encoding="us-ascii" standalone="no"?><svg xmlns="http://www.w3.org/2000/svg" xmlns:xlink="http://www.w3.org/1999/xlink" contentStyleType="text/css" height="431px" preserveAspectRatio="none" style="width:708px;height:431px;background:#FFFFFF;" version="1.1" viewBox="0 0 708 431" width="708px" zoomAndPan="magnify"><defs/><g><text fill="#000000" font-family="sans-serif" font-size="14" font-weight="bold" lengthAdjust="spacing" textLength="408" x="149" y="30.1074">System Sequence Diagram (SSD) - US06 Register a vehicle</text><rect fill="#FFFFFF" height="197.0371" style="stroke:#181818;stroke-width:1.0;" width="10" x="145" y="133.2422"/><rect fill="#FFFFFF" height="48.582" style="stroke:#181818;stroke-width:1.0;" width="10" x="665" y="156.5332"/><rect fill="#FFFFFF" height="31.291" style="stroke:#181818;stroke-width:1.0;" width="10" x="665" y="236.4063"/><rect fill="#FFFFFF" height="31.291" style="stroke:#181818;stroke-width:1.0;" width="10" x="665" y="298.9883"/><line style="stroke:#181818;stroke-width:0.5;stroke-dasharray:5.0,5.0;" x1="150" x2="150" y1="123.2422" y2="348.2793"/><line style="stroke:#181818;stroke-width:0.5;stroke-dasharray:5.0,5.0;" x1="670" x2="670" y1="123.2422" y2="348.2793"/><text fill="#000000" font-family="sans-serif" font-size="14" lengthAdjust="spacing" textLength="284" x="5" y="119.7285">Vehicle and Equipment Fleet Manager (VFM)</text><ellipse cx="150" cy="53.1211" fill="#E3E3E3" rx="8" ry="8" style="stroke:#181818;stroke-width:0.5;"/><path d="M150,61.1211 L150,88.1211 M137,69.1211 L163,69.1211 M150,88.1211 L137,103.1211 M150,88.1211 L163,103.1211 " fill="none" style="stroke:#181818;stroke-width:0.5;"/><text fill="#000000" font-family="sans-serif" font-size="14" lengthAdjust="spacing" textLength="284" x="5" y="362.3867">Vehicle and Equipment Fleet Manager (VFM)</text><ellipse cx="150" cy="374.4004" fill="#E3E3E3" rx="8" ry="8" style="stroke:#181818;stroke-width:0.5;"/><path d="M150,382.4004 L150,409.4004 M137,390.4004 L163,390.4004 M150,409.4004 L137,424.4004 M150,409.4004 L163,424.4004 " fill="none" style="stroke:#181818;stroke-width:0.5;"/><rect fill="#E3E3E3" height="32.6211" rx="2.5" ry="2.5" style="stroke:#181818;stroke-width:0.5;" width="64" x="638" y="89.6211"/><text fill="#000000" font-family="sans-serif" font-size="14" lengthAdjust="spacing" textLength="50" x="645" y="111.7285">:System</text><rect fill="#E3E3E3" height="32.6211" rx="2.5" ry="2.5" style="stroke:#181818;stroke-width:0.5;" width="64" x="638" y="347.2793"/><text fill="#000000" font-family="sans-serif" font-size="14" lengthAdjust="spacing" textLength="50" x="645" y="369.3867">:System</text><rect fill="#FFFFFF" height="197.0371" style="stroke:#181818;stroke-width:1.0;" width="10" x="145" y="133.2422"/><rect fill="#FFFFFF" height="48.582" style="stroke:#181818;stroke-width:1.0;" width="10" x="665" y="156.5332"/><rect fill="#FFFFFF" height="31.291" style="stroke:#181818;stroke-width:1.0;" width="10" x="665" y="236.4063"/><rect fill="#FFFFFF" height="31.291" style="stroke:#181818;stroke-width:1.0;" width="10" x="665" y="298.9883"/><polygon fill="#181818" points="653,152.5332,663,156.5332,653,160.5332,657,156.5332" style="stroke:#181818;stroke-width:1.0;"/><line style="stroke:#181818;stroke-width:1.0;" x1="155" x2="659" y1="156.5332" y2="156.5332"/><text fill="#000000" font-family="sans-serif" font-size="13" font-weight="bold" lengthAdjust="spacing" textLength="7" x="162" y="151.2705">1</text><text fill="#000000" font-family="sans-serif" font-size="13" lengthAdjust="spacing" textLength="144" x="173" y="151.2705">asks to register a vehicle</text><polygon fill="#181818" points="166,201.1152,156,205.1152,166,209.1152,162,205.1152" style="stroke:#181818;stroke-width:1.0;"/><line style="stroke:#181818;stroke-width:1.0;stroke-dasharray:2.0,2.0;" x1="160" x2="669" y1="205.1152" y2="205.1152"/><text fill="#000000" font-family="sans-serif" font-size="13" font-weight="bold" lengthAdjust="spacing" textLength="7" x="172" y="191.207">2</text><text fill="#000000" font-family="sans-serif" font-size="13" lengthAdjust="spacing" textLength="399" x="183" y="182.5615">requests data (Brand, Model, Type, Tare, Gross Weight, Current Km,</text><text fill="#000000" font-family="sans-serif" font-size="13" lengthAdjust="spacing" textLength="475" x="183" y="199.8525">Register Date, Acquisition Date, Maintenance/Checkup Frequency, License Plate)</text><polygon fill="#181818" points="653,232.4063,663,236.4063,653,240.4063,657,236.4063" style="stroke:#181818;stroke-width:1.0;"/><line style="stroke:#181818;stroke-width:1.0;" x1="155" x2="659" y1="236.4063" y2="236.4063"/><text fill="#000000" font-family="sans-serif" font-size="13" font-weight="bold" lengthAdjust="spacing" textLength="7" x="162" y="231.1436">3</text><text fill="#000000" font-family="sans-serif" font-size="13" lengthAdjust="spacing" textLength="122" x="173" y="231.1436">types requested data</text><polygon fill="#181818" points="166,263.6973,156,267.6973,166,271.6973,162,267.6973" style="stroke:#181818;stroke-width:1.0;"/><line style="stroke:#181818;stroke-width:1.0;stroke-dasharray:2.0,2.0;" x1="160" x2="669" y1="267.6973" y2="267.6973"/><text fill="#000000" font-family="sans-serif" font-size="13" font-weight="bold" lengthAdjust="spacing" textLength="7" x="172" y="262.4346">4</text><text fill="#000000" font-family="sans-serif" font-size="13" lengthAdjust="spacing" textLength="232" x="183" y="262.4346">shows all data and asks for confirmation</text><polygon fill="#181818" points="653,294.9883,663,298.9883,653,302.9883,657,298.9883" style="stroke:#181818;stroke-width:1.0;"/><line style="stroke:#181818;stroke-width:1.0;" x1="155" x2="659" y1="298.9883" y2="298.9883"/><text fill="#000000" font-family="sans-serif" font-size="13" font-weight="bold" lengthAdjust="spacing" textLength="7" x="162" y="293.7256">5</text><text fill="#000000" font-family="sans-serif" font-size="13" lengthAdjust="spacing" textLength="78" x="173" y="293.7256">confirms data</text><polygon fill="#181818" points="161,326.2793,151,330.2793,161,334.2793,157,330.2793" style="stroke:#181818;stroke-width:1.0;"/><line style="stroke:#181818;stroke-width:1.0;stroke-dasharray:2.0,2.0;" x1="155" x2="669" y1="330.2793" y2="330.2793"/><text fill="#000000" font-family="sans-serif" font-size="13" font-weight="bold" lengthAdjust="spacing" textLength="7" x="167" y="325.0166">6</text><text fill="#000000" font-family="sans-serif" font-size="13" lengthAdjust="spacing" textLength="158" x="178" y="325.0166">displays operation success</text><!--SRC=[bL6nZjD04Etz5K-f4iaHL1GfaE12A20Imd0qDCDwOg-otlNjZE_alsTivqx0XU9Sh4SpRzw-zrREFlQKgKENOd9jJXr3yy25F4rwScTgkD8nC38xfTY4Fm7IKfqUV6nmeY1S5EhLeDKeoXqglXiuEiRUKpF1rrMrts2BxzNhD_ZAZJTO1k6UM- -CkA11KnowNvojTfeoLhVB31HhVBWRVDznL1m2i-98qUHbh6yFnyqA9B2YC6dgdU_9SAlTecKUBcK1-upStvFol30rx8_jsqVbEuEV1PhCzJELV-rVE8kvUzdU6j74jxDjIq1KK9CIrk-pkIXnJ3M74j_6dksaREV7d4JmWttJQecR8UV9vQUknC_u5DJUBYpnpbaAujMdUEaSoKVbI1RrgvkMtNdeSSXB-6E9pzvn5CQNOEZDBBJcPmQkXQ2cK1vDS3sxk6x_gdjfquE0GbZiJoyuntgoTtKfddpkQBBn4acNFNcfbjfB7sWKf9xpV2jaS8v5_dFxrFrtP5I_0G00]--></g></svg>