<?xml version="1.0" encoding="us-ascii" standalone="no"?><svg xmlns="http://www.w3.org/2000/svg" xmlns:xlink="http://www.w3.org/1999/xlink" contentStyleType="text/css" height="476px" preserveAspectRatio="none" style="width:484px;height:476px;background:#FFFFFF;" version="1.1" viewBox="0 0 484 476" width="484px" zoomAndPan="magnify"><defs/><g><text fill="#000000" font-family="sans-serif" font-size="14" font-weight="bold" lengthAdjust="spacing" textLength="456" x="10" y="30.1074">System Sequence Diagram (SSD) - US20 - Register a Green Space</text><rect fill="#FFFFFF" height="251.3281" style="stroke:#181818;stroke-width:1.0;" width="10" x="108.75" y="133.2422"/><rect fill="#FFFFFF" height="31.291" style="stroke:#181818;stroke-width:1.0;" width="10" x="423.75" y="156.5332"/><rect fill="#FFFFFF" height="31.291" style="stroke:#181818;stroke-width:1.0;" width="10" x="423.75" y="219.1152"/><rect fill="#FFFFFF" height="31.291" style="stroke:#181818;stroke-width:1.0;" width="10" x="423.75" y="281.6973"/><rect fill="#FFFFFF" height="31.291" style="stroke:#181818;stroke-width:1.0;" width="10" x="423.75" y="344.2793"/><line style="stroke:#181818;stroke-width:0.5;stroke-dasharray:5.0,5.0;" x1="113.25" x2="113.25" y1="123.2422" y2="393.5703"/><line style="stroke:#181818;stroke-width:0.5;stroke-dasharray:5.0,5.0;" x1="428.75" x2="428.75" y1="123.2422" y2="393.5703"/><text fill="#000000" font-family="sans-serif" font-size="14" lengthAdjust="spacing" textLength="189" x="16.25" y="119.7285">Green Space Manager (GSM)</text><ellipse cx="113.75" cy="53.1211" fill="#E3E3E3" rx="8" ry="8" style="stroke:#181818;stroke-width:0.5;"/><path d="M113.75,61.1211 L113.75,88.1211 M100.75,69.1211 L126.75,69.1211 M113.75,88.1211 L100.75,103.1211 M113.75,88.1211 L126.75,103.1211 " fill="none" style="stroke:#181818;stroke-width:0.5;"/><text fill="#000000" font-family="sans-serif" font-size="14" lengthAdjust="spacing" textLength="189" x="16.25" y="407.6777">Green Space Manager (GSM)</text><ellipse cx="113.75" cy="419.6914" fill="#E3E3E3" rx="8" ry="8" style="stroke:#181818;stroke-width:0.5;"/><path d="M113.75,427.6914 L113.75,454.6914 M100.75,435.6914 L126.75,435.6914 M113.75,454.6914 L100.75,469.6914 M113.75,454.6914 L126.75,469.6914 " fill="none" style="stroke:#181818;stroke-width:0.5;"/><rect fill="#E3E3E3" height="32.6211" rx="2.5" ry="2.5" style="stroke:#181818;stroke-width:0.5;" width="64" x="396.75" y="89.6211"/><text fill="#000000" font-family="sans-serif" font-size="14" lengthAdjust="spacing" textLength="50" x="403.75" y="111.7285">:System</text><rect fill="#E3E3E3" height="32.6211" rx="2.5" ry="2.5" style="stroke:#181818;stroke-width:0.5;" width="64" x="396.75" y="392.5703"/><text fill="#000000" font-family="sans-serif" font-size="14" lengthAdjust="spacing" textLength="50" x="403.75" y="414.6777">:System</text><rect fill="#FFFFFF" height="251.3281" style="stroke:#181818;stroke-width:1.0;" width="10" x="108.75" y="133.2422"/><rect fill="#FFFFFF" height="31.291" style="stroke:#181818;stroke-width:1.0;" width="10" x="423.75" y="156.5332"/><rect fill="#FFFFFF" height="31.291" style="stroke:#181818;stroke-width:1.0;" width="10" x="423.75" y="219.1152"/><rect fill="#FFFFFF" height="31.291" style="stroke:#181818;stroke-width:1.0;" width="10" x="423.75" y="281.6973"/><rect fill="#FFFFFF" height="31.291" style="stroke:#181818;stroke-width:1.0;" width="10" x="423.75" y="344.2793"/><polygon fill="#181818" points="411.75,152.5332,421.75,156.5332,411.75,160.5332,415.75,156.5332" style="stroke:#181818;stroke-width:1.0;"/><line style="stroke:#181818;stroke-width:1.0;" x1="118.75" x2="417.75" y1="156.5332" y2="156.5332"/><text fill="#000000" font-family="sans-serif" font-size="13" font-weight="bold" lengthAdjust="spacing" textLength="7" x="125.75" y="151.2705">1</text><text fill="#000000" font-family="sans-serif" font-size="13" lengthAdjust="spacing" textLength="181" x="136.75" y="151.2705">asks to register a Green Space</text><polygon fill="#181818" points="129.75,183.8242,119.75,187.8242,129.75,191.8242,125.75,187.8242" style="stroke:#181818;stroke-width:1.0;"/><line style="stroke:#181818;stroke-width:1.0;stroke-dasharray:2.0,2.0;" x1="123.75" x2="427.75" y1="187.8242" y2="187.8242"/><text fill="#000000" font-family="sans-serif" font-size="13" font-weight="bold" lengthAdjust="spacing" textLength="7" x="135.75" y="182.5615">2</text><text fill="#000000" font-family="sans-serif" font-size="13" lengthAdjust="spacing" textLength="270" x="146.75" y="182.5615">shows type green space and ask to select one</text><polygon fill="#181818" points="411.75,215.1152,421.75,219.1152,411.75,223.1152,415.75,219.1152" style="stroke:#181818;stroke-width:1.0;"/><line style="stroke:#181818;stroke-width:1.0;" x1="118.75" x2="417.75" y1="219.1152" y2="219.1152"/><text fill="#000000" font-family="sans-serif" font-size="13" font-weight="bold" lengthAdjust="spacing" textLength="7" x="125.75" y="213.8525">3</text><text fill="#000000" font-family="sans-serif" font-size="13" lengthAdjust="spacing" textLength="82" x="136.75" y="213.8525">selects a type</text><polygon fill="#181818" points="129.75,246.4063,119.75,250.4063,129.75,254.4063,125.75,250.4063" style="stroke:#181818;stroke-width:1.0;"/><line style="stroke:#181818;stroke-width:1.0;stroke-dasharray:2.0,2.0;" x1="123.75" x2="427.75" y1="250.4063" y2="250.4063"/><text fill="#000000" font-family="sans-serif" font-size="13" font-weight="bold" lengthAdjust="spacing" textLength="7" x="135.75" y="245.1436">4</text><text fill="#000000" font-family="sans-serif" font-size="13" lengthAdjust="spacing" textLength="232" x="146.75" y="245.1436">request data(i.e name, localName, area)</text><polygon fill="#181818" points="411.75,277.6973,421.75,281.6973,411.75,285.6973,415.75,281.6973" style="stroke:#181818;stroke-width:1.0;"/><line style="stroke:#181818;stroke-width:1.0;" x1="118.75" x2="417.75" y1="281.6973" y2="281.6973"/><text fill="#000000" font-family="sans-serif" font-size="13" font-weight="bold" lengthAdjust="spacing" textLength="7" x="125.75" y="276.4346">5</text><text fill="#000000" font-family="sans-serif" font-size="13" lengthAdjust="spacing" textLength="108" x="136.75" y="276.4346">types request data</text><polygon fill="#181818" points="129.75,308.9883,119.75,312.9883,129.75,316.9883,125.75,312.9883" style="stroke:#181818;stroke-width:1.0;"/><line style="stroke:#181818;stroke-width:1.0;stroke-dasharray:2.0,2.0;" x1="123.75" x2="427.75" y1="312.9883" y2="312.9883"/><text fill="#000000" font-family="sans-serif" font-size="13" font-weight="bold" lengthAdjust="spacing" textLength="7" x="135.75" y="307.7256">6</text><text fill="#000000" font-family="sans-serif" font-size="13" lengthAdjust="spacing" textLength="236" x="146.75" y="307.7256">shows all data and requests confirmation</text><polygon fill="#181818" points="411.75,340.2793,421.75,344.2793,411.75,348.2793,415.75,344.2793" style="stroke:#181818;stroke-width:1.0;"/><line style="stroke:#181818;stroke-width:1.0;" x1="118.75" x2="417.75" y1="344.2793" y2="344.2793"/><text fill="#000000" font-family="sans-serif" font-size="13" font-weight="bold" lengthAdjust="spacing" textLength="7" x="125.75" y="339.0166">7</text><text fill="#000000" font-family="sans-serif" font-size="13" lengthAdjust="spacing" textLength="78" x="136.75" y="339.0166">confirms data</text><polygon fill="#181818" points="129.75,371.5703,119.75,375.5703,129.75,379.5703,125.75,375.5703" style="stroke:#181818;stroke-width:1.0;"/><line style="stroke:#181818;stroke-width:1.0;stroke-dasharray:2.0,2.0;" x1="123.75" x2="427.75" y1="375.5703" y2="375.5703"/><text fill="#000000" font-family="sans-serif" font-size="13" font-weight="bold" lengthAdjust="spacing" textLength="7" x="135.75" y="370.3076">8</text><text fill="#000000" font-family="sans-serif" font-size="13" lengthAdjust="spacing" textLength="151" x="146.75" y="370.3076">display operation success</text><!--SRC=[dP71Ri8m38RlVGgB4qZhDEtO0oSaJkomQ0_WfQP4f4aNfqDz-pbfGQ0LeIsNMetz-UjVFXhNOS0MMk-yFWJV4iJGKy6Ncmxr4HjISR04WNH4rzZh1ZvWxK_6DR17orGKqKHfLGD7Qa7HLqzE4smCDgbzgTHc1ILygDSNURnJOwGn0C8s43bGib0Ws4Vl-lQJWjGw-W2BgtlOeHEf0CkjsgqMW0nI528KZJOTkWYBQZJ8bsEPIUOR8-Nk0kH80UNwR5j9yv4XUldIMQyqSe6SgJ2T2L8ABs4hYSQVX3Pq14s6S9P7LwSzQGsJbKZ1kn5TqonSQELwV55D8onY2Vn7ev1-1qUeCUBIF1CuREa9hDTettA9WN1LtBEPpInvy0twNpcXjNauvpFH6BHtUnDQZCQx1ndTI4rp_C3dbqjjkBCuWEyevAN0lTR4V6Vv3m00]--></g></svg>