<?xml version="1.0" encoding="us-ascii" standalone="no"?><svg xmlns="http://www.w3.org/2000/svg" xmlns:xlink="http://www.w3.org/1999/xlink" contentStyleType="text/css" height="1288px" preserveAspectRatio="none" style="width:671px;height:1288px;background:#FFFFFF;" version="1.1" viewBox="0 0 671 1288" width="671px" zoomAndPan="magnify"><defs/><g><text fill="#000000" font-family="sans-serif" font-size="14" font-weight="bold" lengthAdjust="spacing" textLength="127" x="265" y="25.1074">Use Case Diagram</text><!--cluster System--><g id="cluster_System"><rect fill="none" height="1236" rx="2.5" ry="2.5" style="stroke:#181818;stroke-width:1.0;" width="334" x="331" y="46.6211"/><text fill="#000000" font-family="sans-serif" font-size="14" font-weight="bold" lengthAdjust="spacing" textLength="50" x="473" y="63.7285">System</text></g><g id="elem_UC01"><ellipse cx="498.1522" cy="103.8515" fill="#F1F1F1" rx="89.1522" ry="20.2304" style="stroke:#181818;stroke-width:0.5;"/><text fill="#000000" font-family="sans-serif" font-size="14" lengthAdjust="spacing" textLength="132" x="429.1522" y="108.6553">UC01: Register Skills</text></g><g id="elem_UC02"><ellipse cx="498.2022" cy="178.5615" fill="#F1F1F1" rx="85.2022" ry="19.4404" style="stroke:#181818;stroke-width:0.5;"/><text fill="#000000" font-family="sans-serif" font-size="14" lengthAdjust="spacing" textLength="122" x="434.2022" y="183.3653">UC02: Register Job</text></g><g id="elem_UC03"><ellipse cx="498.0839" cy="263.7379" fill="#F1F1F1" rx="141.0839" ry="30.6168" style="stroke:#181818;stroke-width:0.5;"/><text fill="#000000" font-family="sans-serif" font-size="14" lengthAdjust="spacing" textLength="248" x="374.0839" y="267.5347">UC03: Register a Collaborator With Job</text></g><g id="elem_UC04"><ellipse cx="498.1469" cy="355.5505" fill="#F1F1F1" rx="120.1469" ry="26.4294" style="stroke:#181818;stroke-width:0.5;"/><text fill="#000000" font-family="sans-serif" font-size="14" lengthAdjust="spacing" textLength="203" x="396.6469" y="359.3474">UC04: Assign Skills Collaborator</text></g><g id="elem_UC05"><ellipse cx="498.0275" cy="438.8266" fill="#F1F1F1" rx="96.5275" ry="21.7055" style="stroke:#181818;stroke-width:0.5;"/><text fill="#000000" font-family="sans-serif" font-size="14" lengthAdjust="spacing" textLength="150" x="420.8422" y="443.3839">UC05: Generate a team</text></g><g id="elem_UC06"><ellipse cx="498.0796" cy="517.837" fill="#F1F1F1" rx="99.0796" ry="22.2159" style="stroke:#181818;stroke-width:0.5;"/><text fill="#000000" font-family="sans-serif" font-size="14" lengthAdjust="spacing" textLength="156" x="418.6977" y="522.1326">UC06: Register a vehicle</text></g><g id="elem_UC07"><ellipse cx="498.1463" cy="603.5503" fill="#F1F1F1" rx="132.6463" ry="28.9293" style="stroke:#181818;stroke-width:0.5;"/><text fill="#000000" font-family="sans-serif" font-size="14" lengthAdjust="spacing" textLength="230" x="383.1463" y="607.3472">UC07: Register a vehicle&#180;s check-up</text></g><g id="elem_UC08"><ellipse cx="498.0926" cy="692.6396" fill="#F1F1F1" rx="110.5926" ry="24.5185" style="stroke:#181818;stroke-width:0.5;"/><text fill="#000000" font-family="sans-serif" font-size="14" lengthAdjust="spacing" textLength="182" x="407.0926" y="696.4365">UC08: List vehicles check-up</text></g><g id="elem_UC20"><ellipse cx="497.9437" cy="778.4098" fill="#F1F1F1" rx="116.9437" ry="25.7887" style="stroke:#181818;stroke-width:0.5;"/><text fill="#000000" font-family="sans-serif" font-size="14" lengthAdjust="spacing" textLength="196" x="399.9437" y="782.2067">UC20: Register a Green Space</text></g><g id="elem_UC21"><ellipse cx="498.2026" cy="869.8616" fill="#F1F1F1" rx="139.2026" ry="30.2405" style="stroke:#181818;stroke-width:0.5;"/><text fill="#000000" font-family="sans-serif" font-size="14" lengthAdjust="spacing" textLength="244" x="376.2026" y="873.6585">UC21: Add new entry to the To-Do-List</text></g><g id="elem_UC22"><ellipse cx="497.7817" cy="963.6774" fill="#F1F1F1" rx="130.7817" ry="28.5563" style="stroke:#181818;stroke-width:0.5;"/><text fill="#000000" font-family="sans-serif" font-size="14" lengthAdjust="spacing" textLength="226" x="384.7817" y="967.4743">UC22: Add new entry to the Agenda</text></g><g id="elem_UC23"><ellipse cx="498.0115" cy="1059.7234" fill="#F1F1F1" rx="151.0115" ry="32.6023" style="stroke:#181818;stroke-width:0.5;"/><text fill="#000000" font-family="sans-serif" font-size="14" lengthAdjust="spacing" textLength="269" x="363.5115" y="1063.5203">UC23: Assign Team to entry in the Agenda</text></g><g id="elem_UC27"><ellipse cx="497.793" cy="1151.7797" fill="#F1F1F1" rx="108.793" ry="24.1586" style="stroke:#181818;stroke-width:0.5;"/><text fill="#000000" font-family="sans-serif" font-size="14" lengthAdjust="spacing" textLength="178" x="408.793" y="1155.5766">UC27: List all Green Spaces</text></g><g id="elem_UC28"><ellipse cx="497.7514" cy="1238.4714" fill="#F1F1F1" rx="124.7514" ry="27.3503" style="stroke:#181818;stroke-width:0.5;"/><text fill="#000000" font-family="sans-serif" font-size="14" lengthAdjust="spacing" textLength="213" x="391.2514" y="1242.2683">UC28: Consult the assigned tasks</text></g><!--entity HumanResourcesManager--><g id="elem_HumanResourcesManager"><ellipse cx="146.5" cy="232.6211" fill="#F1F1F1" rx="8" ry="8" style="stroke:#181818;stroke-width:0.5;"/><path d="M146.5,240.6211 L146.5,267.6211 M133.5,248.6211 L159.5,248.6211 M146.5,267.6211 L133.5,282.6211 M146.5,267.6211 L159.5,282.6211 " fill="none" style="stroke:#181818;stroke-width:0.5;"/><text fill="#000000" font-family="sans-serif" font-size="14" lengthAdjust="spacing" textLength="220" x="36.5" y="299.2285">Human Resources Manager (HRM)</text></g><!--entity VehicleAndEquipmentFleetManager--><g id="elem_VehicleAndEquipmentFleetManager"><ellipse cx="146.5" cy="572.6211" fill="#F1F1F1" rx="8" ry="8" style="stroke:#181818;stroke-width:0.5;"/><path d="M146.5,580.6211 L146.5,607.6211 M133.5,588.6211 L159.5,588.6211 M146.5,607.6211 L133.5,622.6211 M146.5,607.6211 L159.5,622.6211 " fill="none" style="stroke:#181818;stroke-width:0.5;"/><text fill="#000000" font-family="sans-serif" font-size="14" lengthAdjust="spacing" textLength="281" x="6" y="639.2285">Vehicle And Equipment FleetManager (VFM)</text></g><!--entity GreenSpacesManager--><g id="elem_GreenSpacesManager"><ellipse cx="146.5" cy="932.6211" fill="#F1F1F1" rx="8" ry="8" style="stroke:#181818;stroke-width:0.5;"/><path d="M146.5,940.6211 L146.5,967.6211 M133.5,948.6211 L159.5,948.6211 M146.5,967.6211 L133.5,982.6211 M146.5,967.6211 L159.5,982.6211 " fill="none" style="stroke:#181818;stroke-width:0.5;"/><text fill="#000000" font-family="sans-serif" font-size="14" lengthAdjust="spacing" textLength="196" x="48.5" y="999.2285">Green Spaces Manager (GSM)</text></g><!--entity Collaborator--><g id="elem_Collaborator"><ellipse cx="146.5" cy="1207.6211" fill="#F1F1F1" rx="8" ry="8" style="stroke:#181818;stroke-width:0.5;"/><path d="M146.5,1215.6211 L146.5,1242.6211 M133.5,1223.6211 L159.5,1223.6211 M146.5,1242.6211 L133.5,1257.6211 M146.5,1242.6211 L159.5,1257.6211 " fill="none" style="stroke:#181818;stroke-width:0.5;"/><text fill="#000000" font-family="sans-serif" font-size="14" lengthAdjust="spacing" textLength="78" x="107.5" y="1274.2285">Collaborator</text></g><!--link HumanResourcesManager to UC01--><g id="link_HumanResourcesManager_UC01"><path d="M193.61,223.9611 C227.36,196.9311 275.38,162.3911 323,141.6211 C353.61,128.2711 383.4606,120.5153 414.5706,114.7453 " fill="none" id="HumanResourcesManager-to-UC01" style="stroke:#181818;stroke-width:1.0;"/><polygon fill="#181818" points="420.47,113.6511,410.8915,111.3594,415.5538,114.5629,412.3504,119.2253,420.47,113.6511" style="stroke:#181818;stroke-width:1.0;"/></g><!--link HumanResourcesManager to UC02--><g id="link_HumanResourcesManager_UC02"><path d="M256.78,232.6911 C278.66,226.7911 301.51,220.8411 323,215.6211 C359.31,206.8011 394.2924,199.2569 427.2924,192.4869 " fill="none" id="HumanResourcesManager-to-UC02" style="stroke:#181818;stroke-width:1.0;"/><polygon fill="#181818" points="433.17,191.2811,423.5498,189.1714,428.272,192.2859,425.1575,197.0082,433.17,191.2811" style="stroke:#181818;stroke-width:1.0;"/></g><!--link HumanResourcesManager to UC03--><g id="link_HumanResourcesManager_UC03"><path d="M256.65,263.6211 C288.39,263.6211 317.52,263.6211 350.89,263.6211 " fill="none" id="HumanResourcesManager-to-UC03" style="stroke:#181818;stroke-width:1.0;"/><polygon fill="#181818" points="356.89,263.6211,347.89,259.6211,351.89,263.6211,347.89,267.6211,356.89,263.6211" style="stroke:#181818;stroke-width:1.0;"/></g><!--link HumanResourcesManager to UC04--><g id="link_HumanResourcesManager_UC04"><path d="M256.95,293.9011 C278.81,299.8511 301.62,305.9911 323,311.6211 C353.89,319.7511 382.1113,326.9571 411.8413,334.4371 " fill="none" id="HumanResourcesManager-to-UC04" style="stroke:#181818;stroke-width:1.0;"/><polygon fill="#181818" points="417.66,335.9011,409.908,329.826,412.8111,334.6811,407.956,337.5843,417.66,335.9011" style="stroke:#181818;stroke-width:1.0;"/></g><!--link HumanResourcesManager to UC05--><g id="link_HumanResourcesManager_UC05"><path d="M187.63,303.1511 C221.13,333.9511 271.56,375.4111 323,399.6211 C351.43,413.0011 378.7834,420.74 408.5434,426.61 " fill="none" id="HumanResourcesManager-to-UC05" style="stroke:#181818;stroke-width:1.0;"/><polygon fill="#181818" points="414.43,427.7711,406.3742,422.1051,409.5245,426.8035,404.8261,429.9538,414.43,427.7711" style="stroke:#181818;stroke-width:1.0;"/></g><!--link VehicleAndEquipmentFleetManager to UC06--><g id="link_VehicleAndEquipmentFleetManager_UC06"><path d="M287.23,565.6411 C299.31,562.5311 311.36,559.4811 323,556.6211 C356.82,548.3011 388.6602,541.0605 420.2902,534.1005 " fill="none" id="VehicleAndEquipmentFleetManager-to-UC06" style="stroke:#181818;stroke-width:1.0;"/><polygon fill="#181818" points="426.15,532.8111,416.5007,530.8387,421.2668,533.8856,418.2199,538.6518,426.15,532.8111" style="stroke:#181818;stroke-width:1.0;"/></g><!--link VehicleAndEquipmentFleetManager to UC07--><g id="link_VehicleAndEquipmentFleetManager_UC07"><path d="M287.14,603.6211 C312.9,603.6211 333.73,603.6211 359.25,603.6211 " fill="none" id="VehicleAndEquipmentFleetManager-to-UC07" style="stroke:#181818;stroke-width:1.0;"/><polygon fill="#181818" points="365.25,603.6211,356.25,599.6211,360.25,603.6211,356.25,607.6211,365.25,603.6211" style="stroke:#181818;stroke-width:1.0;"/></g><!--link VehicleAndEquipmentFleetManager to UC08--><g id="link_VehicleAndEquipmentFleetManager_UC08"><path d="M287.31,640.4611 C299.38,643.5811 311.4,646.6711 323,649.6211 C355.72,657.9511 386.1336,665.5081 417.0336,673.1081 " fill="none" id="VehicleAndEquipmentFleetManager-to-UC08" style="stroke:#181818;stroke-width:1.0;"/><polygon fill="#181818" points="422.86,674.5411,415.0758,668.5073,418.0047,673.3469,413.1651,676.2758,422.86,674.5411" style="stroke:#181818;stroke-width:1.0;"/></g><!--link GreenSpacesManager to UC20--><g id="link_GreenSpacesManager_UC20"><path d="M186.11,923.8811 C219.49,891.7511 270.53,847.7011 323,821.6211 C347.8,809.2911 370.5563,801.7439 397.2963,795.3139 " fill="none" id="GreenSpacesManager-to-UC20" style="stroke:#181818;stroke-width:1.0;"/><polygon fill="#181818" points="403.13,793.9111,393.4442,792.1261,398.2686,795.0801,395.3146,799.9044,403.13,793.9111" style="stroke:#181818;stroke-width:1.0;"/></g><!--link GreenSpacesManager to UC21--><g id="link_GreenSpacesManager_UC21"><path d="M244.86,937.4411 C296.76,923.4711 354.2959,907.9993 404.4959,894.4993 " fill="none" id="GreenSpacesManager-to-UC21" style="stroke:#181818;stroke-width:1.0;"/><polygon fill="#181818" points="410.29,892.9411,400.56,891.4156,405.4615,894.2396,402.6376,899.1411,410.29,892.9411" style="stroke:#181818;stroke-width:1.0;"/></g><!--link GreenSpacesManager to UC22--><g id="link_GreenSpacesManager_UC22"><path d="M244.86,963.6211 C282.63,963.6211 320.44,963.6211 360.85,963.6211 " fill="none" id="GreenSpacesManager-to-UC22" style="stroke:#181818;stroke-width:1.0;"/><polygon fill="#181818" points="366.85,963.6211,357.85,959.6211,361.85,963.6211,357.85,967.6211,366.85,963.6211" style="stroke:#181818;stroke-width:1.0;"/></g><!--link GreenSpacesManager to UC23--><g id="link_GreenSpacesManager_UC23"><path d="M244.86,990.3611 C294.64,1004.0411 349.1544,1019.0116 398.2944,1032.5116 " fill="none" id="GreenSpacesManager-to-UC23" style="stroke:#181818;stroke-width:1.0;"/><polygon fill="#181818" points="404.08,1034.1011,396.4612,1027.8598,399.2586,1032.7765,394.3419,1035.574,404.08,1034.1011" style="stroke:#181818;stroke-width:1.0;"/></g><!--link GreenSpacesManager to UC27--><g id="link_GreenSpacesManager_UC27"><path d="M184.53,1003.2711 C217.73,1036.4911 269.34,1082.6711 323,1109.6211 C349.1,1122.7311 373.6476,1130.5485 401.6576,1136.8785 " fill="none" id="GreenSpacesManager-to-UC27" style="stroke:#181818;stroke-width:1.0;"/><polygon fill="#181818" points="407.51,1138.2011,399.6131,1132.3156,402.633,1137.0989,397.8497,1140.1188,407.51,1138.2011" style="stroke:#181818;stroke-width:1.0;"/></g><!--link Collaborator to UC28--><g id="link_Collaborator_UC28"><path d="M185.57,1238.6211 C230.33,1238.6211 300.9,1238.6211 366.91,1238.6211 " fill="none" id="Collaborator-to-UC28" style="stroke:#181818;stroke-width:1.0;"/><polygon fill="#181818" points="372.91,1238.6211,363.91,1234.6211,367.91,1238.6211,363.91,1242.6211,372.91,1238.6211" style="stroke:#181818;stroke-width:1.0;"/></g><!--SRC=[bTJTRjiW50VmUvxYA3VTBYAbE5_AnQGeNLDDwqtJTjVKFhMHCMI0LqNJtcfFi2SRTen3HYQhkR0KyVVlm35mPKekzqop2YebLLfeLI5ONICvZUnPMh8ST_OW43IcbibS8Baw9Kp1ClN6PGwlJ1Wan7Bhiay6OSFSuuQptEK84VXgmIhGF2yiPBpHk9A4WFknr2eDexkwOX8UqAXQfsZWdabNNSE7kuVxZoDW1jf47-Z6G-8P2vww2Qnb1f-_rtnVeRHmAn1jhptVTbeNTja-6YP3TwiH9UnSGy9vRNUTr0uVH-ENDqe8zg8qSty8wTi8kuEnMC7FDbeRJ9k6ZPusa-kLQqBEtQY6NSc5C6sHPgJDNkm2ZCUVJf6Gem7tHRruYmvRDBAIm69dAuDlt1QXdmpxIUHFLx0sXkUoM_XP2IzFX-Lf9CzMi4M93a8tSukiyjnic9j5tFoi4J-EEycBypO-iBsyFO_inINxpsy3QO5fEQxtlixYFNKMKPtb2hwwAhv2x2_Vuo__zUdaR1t14UfyEcbVYGzFIvu2eUdEnZhBGE8Rk7deGtEds0BXKOrlrBXPZiUlX_3ef53w7toTeyoOX-aG71qRclJR-j5jl8Oz-bnUy9CXFpesTD5zIIP4s6T_Rz3541bj3kesnqP9KmlRJf6rqySCB3Dbxnw_-TaruCKb8R_8Nm00]--></g></svg>