<?xml version="1.0" encoding="us-ascii" standalone="no"?><svg xmlns="http://www.w3.org/2000/svg" xmlns:xlink="http://www.w3.org/1999/xlink" contentStyleType="text/css" height="1682px" preserveAspectRatio="none" style="width:706px;height:1682px;background:#FFFFFF;" version="1.1" viewBox="0 0 706 1682" width="706px" zoomAndPan="magnify"><defs/><g><text fill="#000000" font-family="sans-serif" font-size="14" font-weight="bold" lengthAdjust="spacing" textLength="127" x="282.5" y="25.1074">Use Case Diagram</text><!--cluster System--><g id="cluster_System"><rect fill="none" height="1630" rx="2.5" ry="2.5" style="stroke:#181818;stroke-width:1.0;" width="369" x="331" y="46.6211"/><text fill="#000000" font-family="sans-serif" font-size="14" font-weight="bold" lengthAdjust="spacing" textLength="50" x="490.5" y="63.7285">System</text></g><g id="elem_UC01"><ellipse cx="515.6522" cy="103.8515" fill="#F1F1F1" rx="89.1522" ry="20.2304" style="stroke:#181818;stroke-width:0.5;"/><text fill="#000000" font-family="sans-serif" font-size="14" lengthAdjust="spacing" textLength="132" x="446.6522" y="108.6553">UC01: Register Skills</text></g><g id="elem_UC02"><ellipse cx="515.7022" cy="178.5615" fill="#F1F1F1" rx="85.2022" ry="19.4404" style="stroke:#181818;stroke-width:0.5;"/><text fill="#000000" font-family="sans-serif" font-size="14" lengthAdjust="spacing" textLength="122" x="451.7022" y="183.3653">UC02: Register Job</text></g><g id="elem_UC03"><ellipse cx="515.5839" cy="263.7379" fill="#F1F1F1" rx="141.0839" ry="30.6168" style="stroke:#181818;stroke-width:0.5;"/><text fill="#000000" font-family="sans-serif" font-size="14" lengthAdjust="spacing" textLength="248" x="391.5839" y="267.5347">UC03: Register a Collaborator With Job</text></g><g id="elem_UC04"><ellipse cx="515.6469" cy="355.5505" fill="#F1F1F1" rx="120.1469" ry="26.4294" style="stroke:#181818;stroke-width:0.5;"/><text fill="#000000" font-family="sans-serif" font-size="14" lengthAdjust="spacing" textLength="203" x="414.1469" y="359.3474">UC04: Assign Skills Collaborator</text></g><g id="elem_UC05"><ellipse cx="515.5275" cy="438.8266" fill="#F1F1F1" rx="96.5275" ry="21.7055" style="stroke:#181818;stroke-width:0.5;"/><text fill="#000000" font-family="sans-serif" font-size="14" lengthAdjust="spacing" textLength="150" x="438.3422" y="443.3839">UC05: Generate a team</text></g><g id="elem_UC06"><ellipse cx="515.5796" cy="517.837" fill="#F1F1F1" rx="99.0796" ry="22.2159" style="stroke:#181818;stroke-width:0.5;"/><text fill="#000000" font-family="sans-serif" font-size="14" lengthAdjust="spacing" textLength="156" x="436.1977" y="522.1326">UC06: Register a vehicle</text></g><g id="elem_UC07"><ellipse cx="515.6463" cy="603.5503" fill="#F1F1F1" rx="132.6463" ry="28.9293" style="stroke:#181818;stroke-width:0.5;"/><text fill="#000000" font-family="sans-serif" font-size="14" lengthAdjust="spacing" textLength="230" x="400.6463" y="607.3472">UC07: Register a vehicle&#180;s check-up</text></g><g id="elem_UC08"><ellipse cx="515.5926" cy="692.6396" fill="#F1F1F1" rx="110.5926" ry="24.5185" style="stroke:#181818;stroke-width:0.5;"/><text fill="#000000" font-family="sans-serif" font-size="14" lengthAdjust="spacing" textLength="182" x="424.5926" y="696.4365">UC08: List vehicles check-up</text></g><g id="elem_UC20"><ellipse cx="515.4437" cy="778.4098" fill="#F1F1F1" rx="116.9437" ry="25.7887" style="stroke:#181818;stroke-width:0.5;"/><text fill="#000000" font-family="sans-serif" font-size="14" lengthAdjust="spacing" textLength="196" x="417.4437" y="782.2067">UC20: Register a Green Space</text></g><g id="elem_UC21"><ellipse cx="515.7026" cy="869.8616" fill="#F1F1F1" rx="139.2026" ry="30.2405" style="stroke:#181818;stroke-width:0.5;"/><text fill="#000000" font-family="sans-serif" font-size="14" lengthAdjust="spacing" textLength="244" x="393.7026" y="873.6585">UC21: Add new entry to the To-Do-List</text></g><g id="elem_UC22"><ellipse cx="515.2817" cy="963.6774" fill="#F1F1F1" rx="130.7817" ry="28.5563" style="stroke:#181818;stroke-width:0.5;"/><text fill="#000000" font-family="sans-serif" font-size="14" lengthAdjust="spacing" textLength="226" x="402.2817" y="967.4743">UC22: Add new entry to the Agenda</text></g><g id="elem_UC23"><ellipse cx="515.5115" cy="1059.7234" fill="#F1F1F1" rx="151.0115" ry="32.6023" style="stroke:#181818;stroke-width:0.5;"/><text fill="#000000" font-family="sans-serif" font-size="14" lengthAdjust="spacing" textLength="269" x="381.0115" y="1063.5203">UC23: Assign Team to entry in the Agenda</text></g><g id="elem_UC24"><ellipse cx="515.497" cy="1158.5205" fill="#F1F1F1" rx="142.497" ry="30.8994" style="stroke:#181818;stroke-width:0.5;"/><text fill="#000000" font-family="sans-serif" font-size="14" lengthAdjust="spacing" textLength="251" x="389.997" y="1162.3174">UC24: Postpone an entry in the Agenda</text></g><g id="elem_UC25"><ellipse cx="515.4826" cy="1254.5176" fill="#F1F1F1" rx="134.9826" ry="29.3965" style="stroke:#181818;stroke-width:0.5;"/><text fill="#000000" font-family="sans-serif" font-size="14" lengthAdjust="spacing" textLength="235" x="397.9826" y="1258.3145">UC25: Cancel an entry in the Agenda</text></g><g id="elem_UC26"><ellipse cx="515.6749" cy="1355.7561" fill="#F1F1F1" rx="168.6749" ry="36.135" style="stroke:#181818;stroke-width:0.5;"/><text fill="#000000" font-family="sans-serif" font-size="14" lengthAdjust="spacing" textLength="306" x="362.6749" y="1359.5529">UC26: Assign Vehicles to an entry in the Agenda</text></g><g id="elem_UC27"><ellipse cx="515.293" cy="1450.7797" fill="#F1F1F1" rx="108.793" ry="24.1586" style="stroke:#181818;stroke-width:0.5;"/><text fill="#000000" font-family="sans-serif" font-size="14" lengthAdjust="spacing" textLength="178" x="426.293" y="1454.5766">UC27: List all Green Spaces</text></g><g id="elem_UC28"><ellipse cx="515.2514" cy="1537.4714" fill="#F1F1F1" rx="124.7514" ry="27.3503" style="stroke:#181818;stroke-width:0.5;"/><text fill="#000000" font-family="sans-serif" font-size="14" lengthAdjust="spacing" textLength="213" x="408.7514" y="1541.2683">UC28: Consult the assigned tasks</text></g><g id="elem_UC29"><ellipse cx="515.7329" cy="1630.7677" fill="#F1F1F1" rx="138.7329" ry="30.1466" style="stroke:#181818;stroke-width:0.5;"/><text fill="#000000" font-family="sans-serif" font-size="14" lengthAdjust="spacing" textLength="243" x="394.2329" y="1634.5645">UC29: Record the completion of a task</text></g><!--entity HumanResourcesManager--><g id="elem_HumanResourcesManager"><ellipse cx="146.5" cy="232.6211" fill="#F1F1F1" rx="8" ry="8" style="stroke:#181818;stroke-width:0.5;"/><path d="M146.5,240.6211 L146.5,267.6211 M133.5,248.6211 L159.5,248.6211 M146.5,267.6211 L133.5,282.6211 M146.5,267.6211 L159.5,282.6211 " fill="none" style="stroke:#181818;stroke-width:0.5;"/><text fill="#000000" font-family="sans-serif" font-size="14" lengthAdjust="spacing" textLength="220" x="36.5" y="299.2285">Human Resources Manager (HRM)</text></g><!--entity VehicleAndEquipmentFleetManager--><g id="elem_VehicleAndEquipmentFleetManager"><ellipse cx="146.5" cy="572.6211" fill="#F1F1F1" rx="8" ry="8" style="stroke:#181818;stroke-width:0.5;"/><path d="M146.5,580.6211 L146.5,607.6211 M133.5,588.6211 L159.5,588.6211 M146.5,607.6211 L133.5,622.6211 M146.5,607.6211 L159.5,622.6211 " fill="none" style="stroke:#181818;stroke-width:0.5;"/><text fill="#000000" font-family="sans-serif" font-size="14" lengthAdjust="spacing" textLength="281" x="6" y="639.2285">Vehicle And Equipment FleetManager (VFM)</text></g><!--entity GreenSpacesUser--><g id="elem_GreenSpacesUser"><ellipse cx="146.5" cy="118.6211" fill="#F1F1F1" rx="8" ry="8" style="stroke:#181818;stroke-width:0.5;"/><path d="M146.5,126.6211 L146.5,153.6211 M133.5,134.6211 L159.5,134.6211 M146.5,153.6211 L133.5,168.6211 M146.5,153.6211 L159.5,168.6211 " fill="none" style="stroke:#181818;stroke-width:0.5;"/><text fill="#000000" font-family="sans-serif" font-size="14" lengthAdjust="spacing" textLength="167" x="63" y="185.2285">Green Spaces User (GSU)</text></g><!--entity GreenSpacesManager--><g id="elem_GreenSpacesManager"><ellipse cx="146.5" cy="1078.6211" fill="#F1F1F1" rx="8" ry="8" style="stroke:#181818;stroke-width:0.5;"/><path d="M146.5,1086.6211 L146.5,1113.6211 M133.5,1094.6211 L159.5,1094.6211 M146.5,1113.6211 L133.5,1128.6211 M146.5,1113.6211 L159.5,1128.6211 " fill="none" style="stroke:#181818;stroke-width:0.5;"/><text fill="#000000" font-family="sans-serif" font-size="14" lengthAdjust="spacing" textLength="196" x="48.5" y="1145.2285">Green Spaces Manager (GSM)</text></g><!--entity Collaborator--><g id="elem_Collaborator"><ellipse cx="146.5" cy="1552.6211" fill="#F1F1F1" rx="8" ry="8" style="stroke:#181818;stroke-width:0.5;"/><path d="M146.5,1560.6211 L146.5,1587.6211 M133.5,1568.6211 L159.5,1568.6211 M146.5,1587.6211 L133.5,1602.6211 M146.5,1587.6211 L159.5,1602.6211 " fill="none" style="stroke:#181818;stroke-width:0.5;"/><text fill="#000000" font-family="sans-serif" font-size="14" lengthAdjust="spacing" textLength="78" x="107.5" y="1619.2285">Collaborator</text></g><!--link HumanResourcesManager to UC01--><g id="link_HumanResourcesManager_UC01"><path d="M256.59,227.8111 C267.51,221.7311 277.91,214.7011 287,206.6211 C311.69,184.6811 296.32,161.0911 323,141.6211 C352.71,119.9411 385.6784,110.5714 420.6684,106.1014 " fill="none" id="HumanResourcesManager-to-UC01" style="stroke:#181818;stroke-width:1.0;"/><polygon fill="#181818" points="426.62,105.3411,417.1857,102.5138,421.6603,105.9747,418.1994,110.4493,426.62,105.3411" style="stroke:#181818;stroke-width:1.0;"/></g><!--link HumanResourcesManager to UC02--><g id="link_HumanResourcesManager_UC02"><path d="M256.71,232.3711 C278.59,226.5011 301.47,220.6411 323,215.6211 C364.06,206.0511 404.5676,198.1191 441.4176,191.3891 " fill="none" id="HumanResourcesManager-to-UC02" style="stroke:#181818;stroke-width:1.0;"/><polygon fill="#181818" points="447.32,190.3111,437.7478,187.9931,442.4014,191.2094,439.1851,195.863,447.32,190.3111" style="stroke:#181818;stroke-width:1.0;"/></g><!--link HumanResourcesManager to UC03--><g id="link_HumanResourcesManager_UC03"><path d="M256.62,263.6211 C293.59,263.6211 329.42,263.6211 368.46,263.6211 " fill="none" id="HumanResourcesManager-to-UC03" style="stroke:#181818;stroke-width:1.0;"/><polygon fill="#181818" points="374.46,263.6211,365.46,259.6211,369.46,263.6211,365.46,267.6211,374.46,263.6211" style="stroke:#181818;stroke-width:1.0;"/></g><!--link HumanResourcesManager to UC04--><g id="link_HumanResourcesManager_UC04"><path d="M256.85,294.2711 C278.72,300.1911 301.56,306.2311 323,311.6211 C357.9,320.4011 390.7085,328.0845 424.0985,335.6545 " fill="none" id="HumanResourcesManager-to-UC04" style="stroke:#181818;stroke-width:1.0;"/><polygon fill="#181818" points="429.95,336.9811,422.0572,331.0902,425.0737,335.8756,420.2883,338.8922,429.95,336.9811" style="stroke:#181818;stroke-width:1.0;"/></g><!--link HumanResourcesManager to UC05--><g id="link_HumanResourcesManager_UC05"><path d="M187.5,303.4311 C220.93,334.3811 271.32,375.9111 323,399.6211 C355.54,414.5411 387.8645,422.7876 421.5845,428.5076 " fill="none" id="HumanResourcesManager-to-UC05" style="stroke:#181818;stroke-width:1.0;"/><polygon fill="#181818" points="427.5,429.5111,419.2957,424.0622,422.5704,428.6749,417.9578,431.9496,427.5,429.5111" style="stroke:#181818;stroke-width:1.0;"/></g><!--link VehicleAndEquipmentFleetManager to UC06--><g id="link_VehicleAndEquipmentFleetManager_UC06"><path d="M287.17,565.4011 C299.26,562.3411 311.33,559.3711 323,556.6211 C361.14,547.6411 397.9631,539.9805 433.3531,533.0105 " fill="none" id="VehicleAndEquipmentFleetManager-to-UC06" style="stroke:#181818;stroke-width:1.0;"/><polygon fill="#181818" points="439.24,531.8511,429.6367,529.6656,434.3342,532.8173,431.1826,537.5148,439.24,531.8511" style="stroke:#181818;stroke-width:1.0;"/></g><!--link VehicleAndEquipmentFleetManager to UC07--><g id="link_VehicleAndEquipmentFleetManager_UC07"><path d="M287.03,603.6211 C318.45,603.6211 345.69,603.6211 376.77,603.6211 " fill="none" id="VehicleAndEquipmentFleetManager-to-UC07" style="stroke:#181818;stroke-width:1.0;"/><polygon fill="#181818" points="382.77,603.6211,373.77,599.6211,377.77,603.6211,373.77,607.6211,382.77,603.6211" style="stroke:#181818;stroke-width:1.0;"/></g><!--link VehicleAndEquipmentFleetManager to UC08--><g id="link_VehicleAndEquipmentFleetManager_UC08"><path d="M287.25,640.7311 C299.33,643.7911 311.37,646.7911 323,649.6211 C359.92,658.6011 395.1417,666.6149 429.7617,674.2749 " fill="none" id="VehicleAndEquipmentFleetManager-to-UC08" style="stroke:#181818;stroke-width:1.0;"/><polygon fill="#181818" points="435.62,675.5711,427.6967,669.7212,430.7381,674.4909,425.9684,677.5323,435.62,675.5711" style="stroke:#181818;stroke-width:1.0;"/></g><!--link GreenSpacesManager to UC20--><g id="link_GreenSpacesManager_UC20"><path d="M160.2,1070.0211 C182.52,1007.0411 234.98,884.7511 323,821.6211 C346.95,804.4411 370.7209,795.2536 399.4609,788.9136 " fill="none" id="GreenSpacesManager-to-UC20" style="stroke:#181818;stroke-width:1.0;"/><polygon fill="#181818" points="405.32,787.6211,395.6696,785.6538,400.4374,788.6982,397.393,793.466,405.32,787.6211" style="stroke:#181818;stroke-width:1.0;"/></g><!--link GreenSpacesManager to UC21--><g id="link_GreenSpacesManager_UC21"><path d="M173.18,1069.7511 C203.61,1025.7811 258.43,956.1511 323,917.6211 C346.47,903.6211 368.1097,895.2161 394.7497,888.1661 " fill="none" id="GreenSpacesManager-to-UC21" style="stroke:#181818;stroke-width:1.0;"/><polygon fill="#181818" points="400.55,886.6311,390.8262,885.0667,395.7164,887.9103,392.8728,892.8005,400.55,886.6311" style="stroke:#181818;stroke-width:1.0;"/></g><!--link GreenSpacesManager to UC22--><g id="link_GreenSpacesManager_UC22"><path d="M207.11,1070.0411 C240.13,1049.5811 282.57,1025.6211 323,1009.6211 C352.09,998.1111 379.0069,990.3143 409.0969,983.2943 " fill="none" id="GreenSpacesManager-to-UC22" style="stroke:#181818;stroke-width:1.0;"/><polygon fill="#181818" points="414.94,981.9311,405.2666,980.0805,410.0708,983.0671,407.0842,987.8713,414.94,981.9311" style="stroke:#181818;stroke-width:1.0;"/></g><!--link GreenSpacesManager to UC23--><g id="link_GreenSpacesManager_UC23"><path d="M244.89,1096.3511 C288.63,1090.3911 334.8749,1084.091 381.6349,1077.721 " fill="none" id="GreenSpacesManager-to-UC23" style="stroke:#181818;stroke-width:1.0;"/><polygon fill="#181818" points="387.58,1076.9111,378.1224,1074.1625,382.6258,1077.586,379.2023,1082.0893,387.58,1076.9111" style="stroke:#181818;stroke-width:1.0;"/></g><!--link GreenSpacesManager to UC24--><g id="link_GreenSpacesManager_UC24"><path d="M244.89,1122.6211 C290.54,1128.7211 339.4529,1135.2464 387.7229,1141.6964 " fill="none" id="GreenSpacesManager-to-UC24" style="stroke:#181818;stroke-width:1.0;"/><polygon fill="#181818" points="393.67,1142.4911,385.2791,1137.3343,388.714,1141.8289,384.2195,1145.2638,393.67,1142.4911" style="stroke:#181818;stroke-width:1.0;"/></g><!--link GreenSpacesManager to UC25--><g id="link_GreenSpacesManager_UC25"><path d="M209.74,1149.2111 C242.46,1168.6711 283.81,1191.1811 323,1206.6211 C352.18,1218.1111 379.1314,1226.0974 409.2214,1233.4474 " fill="none" id="GreenSpacesManager-to-UC25" style="stroke:#181818;stroke-width:1.0;"/><polygon fill="#181818" points="415.05,1234.8711,407.2562,1228.8497,410.1928,1233.6846,405.3579,1236.6212,415.05,1234.8711" style="stroke:#181818;stroke-width:1.0;"/></g><!--link GreenSpacesManager to UC26--><g id="link_GreenSpacesManager_UC26"><path d="M173.39,1149.1411 C204.01,1192.8111 259,1262.1511 323,1301.6211 C343.43,1314.2211 361.1779,1322.1248 384.5079,1329.6248 " fill="none" id="GreenSpacesManager-to-UC26" style="stroke:#181818;stroke-width:1.0;"/><polygon fill="#181818" points="390.22,1331.4611,382.8761,1324.8986,385.4599,1329.9308,380.4277,1332.5147,390.22,1331.4611" style="stroke:#181818;stroke-width:1.0;"/></g><!--link GreenSpacesManager to UC27--><g id="link_GreenSpacesManager_UC27"><path d="M159.2,1149.1811 C180.53,1214.1211 232.16,1342.6711 323,1408.6211 C348.34,1427.0211 374.3141,1436.4563 404.7341,1442.4763 " fill="none" id="GreenSpacesManager-to-UC27" style="stroke:#181818;stroke-width:1.0;"/><polygon fill="#181818" points="410.62,1443.6411,402.5677,1437.97,405.7151,1442.6704,401.0147,1445.8178,410.62,1443.6411" style="stroke:#181818;stroke-width:1.0;"/></g><!--link Collaborator to UC28--><g id="link_Collaborator_UC28"><path d="M185.74,1578.8311 C237.51,1572.3411 326.0266,1561.2473 400.4666,1551.9173 " fill="none" id="Collaborator-to-UC28" style="stroke:#181818;stroke-width:1.0;"/><polygon fill="#181818" points="406.42,1551.1711,396.9924,1548.3214,401.4588,1551.7929,397.9873,1556.2593,406.42,1551.1711" style="stroke:#181818;stroke-width:1.0;"/></g><!--link Collaborator to UC29--><g id="link_Collaborator_UC29"><path d="M185.74,1588.5211 C235.12,1594.8411 317.4086,1605.3791 390.0486,1614.6791 " fill="none" id="Collaborator-to-UC29" style="stroke:#181818;stroke-width:1.0;"/><polygon fill="#181818" points="396,1615.4411,387.5808,1610.3306,391.0405,1614.8061,386.5649,1618.2658,396,1615.4411" style="stroke:#181818;stroke-width:1.0;"/></g><!--SRC=[bPNFRXen4CRl-nIZND8Ua1BpBt2eX4X3L1Mf2abwTdQ7NGklJMrlewZgM_K9-cITNV2or25ME22X-VpxngFvpBdT2BNbXfTGQgNJmkWImPaAaqDbozCDpt7bNYI2mTHnbKjCpWyAM_1CFmkLmvfBYqdYX2FjWqMOS_gw5ZmdNP98N3jm6ep82mUPg6b2goG1-l3KQGDdjrN95ToXrPL9qSAIAt8tyE7sRldn3BY5Hj4AzlKkuX4BaL83CvN1vn-Ls9Qe7Dn8HDVI7c_sjBsOjAsqg-no5mPHmOe6GdtHxGYpM3tiC4rjLweh9u-r3InMo-1aw3dNKl8dRJZzI99s-h1wiGvB-DL8AujfFUUpX_d5vPHcbmkg6bXjX9IsCQahZVRLuK6lz-aWwU9O1_T5FtaMYxDOmEftMFpePl1TkABBxyVv_O0_cCBCMf6h_SMFB3nv42SF0l9m2WjKI22apXtoqkE6STmmm8sE1l5pju2UE6haaQtqx5707h_6_ll7GbfWkkbLM-ypVe_FEF2vci9NSl4E8V_gFVoh__diukWUdGZj-UoYEHA6fq4U15qcPMEMPQ3m6QWFyr8_HQv0kDUzQzshh-FXbp5ua1J6Ji1dEQgCUp2BWOFOi7wxrlUqU3LsnnVg5Nu_nWzYmoWstxHrMwrekTLRy44C7YI7KNBcNAKe8-XX31saY8tQkJpw7QJPl6qpYja4WMBZ_Q9pARjhw9zLDeuXW-mmoivSArj9rxJ8crjW1exRJSlTHUBebVJ4C2sJEYsfDba3J7MvbLZ_iu9UrmyMSJrsSXexINud_m00]--></g></svg>