<?xml version="1.0" encoding="us-ascii" standalone="no"?><svg xmlns="http://www.w3.org/2000/svg" xmlns:xlink="http://www.w3.org/1999/xlink" contentStyleType="text/css" height="952px" preserveAspectRatio="none" style="width:651px;height:952px;background:#FFFFFF;" version="1.1" viewBox="0 0 651 952" width="651px" zoomAndPan="magnify"><defs/><g><text fill="#000000" font-family="sans-serif" font-size="14" font-weight="bold" lengthAdjust="spacing" textLength="127" x="255" y="25.1074">Use Case Diagram</text><!--cluster System--><g id="cluster_System"><rect fill="none" height="689" rx="2.5" ry="2.5" style="stroke:#181818;stroke-width:1.0;" width="314" x="331" y="46.6211"/><text fill="#000000" font-family="sans-serif" font-size="14" font-weight="bold" lengthAdjust="spacing" textLength="50" x="463" y="63.7285">System</text></g><g id="elem_UC01"><ellipse cx="488.1522" cy="103.8515" fill="#F1F1F1" rx="89.1522" ry="20.2304" style="stroke:#181818;stroke-width:0.5;"/><text fill="#000000" font-family="sans-serif" font-size="14" lengthAdjust="spacing" textLength="132" x="419.1522" y="108.6553">UC01: Register Skills</text></g><g id="elem_UC02"><ellipse cx="488.2022" cy="178.5615" fill="#F1F1F1" rx="85.2022" ry="19.4404" style="stroke:#181818;stroke-width:0.5;"/><text fill="#000000" font-family="sans-serif" font-size="14" lengthAdjust="spacing" textLength="122" x="424.2022" y="183.3653">UC02: Register Job</text></g><g id="elem_UC03"><ellipse cx="488.0839" cy="263.7379" fill="#F1F1F1" rx="141.0839" ry="30.6168" style="stroke:#181818;stroke-width:0.5;"/><text fill="#000000" font-family="sans-serif" font-size="14" lengthAdjust="spacing" textLength="248" x="364.0839" y="267.5347">UC03: Register a Collaborator With Job</text></g><g id="elem_UC04"><ellipse cx="488.1469" cy="355.5505" fill="#F1F1F1" rx="120.1469" ry="26.4294" style="stroke:#181818;stroke-width:0.5;"/><text fill="#000000" font-family="sans-serif" font-size="14" lengthAdjust="spacing" textLength="203" x="386.6469" y="359.3474">UC04: Assign Skills Collaborator</text></g><g id="elem_UC05"><ellipse cx="488.0275" cy="438.8266" fill="#F1F1F1" rx="96.5275" ry="21.7055" style="stroke:#181818;stroke-width:0.5;"/><text fill="#000000" font-family="sans-serif" font-size="14" lengthAdjust="spacing" textLength="150" x="410.8422" y="443.3839">UC05: Generate a team</text></g><g id="elem_UC06"><ellipse cx="488.0796" cy="517.837" fill="#F1F1F1" rx="99.0796" ry="22.2159" style="stroke:#181818;stroke-width:0.5;"/><text fill="#000000" font-family="sans-serif" font-size="14" lengthAdjust="spacing" textLength="156" x="408.6977" y="522.1326">UC06: Register a vehicle</text></g><g id="elem_UC07"><ellipse cx="488.0149" cy="604.4241" fill="#F1F1F1" rx="134.5149" ry="29.303" style="stroke:#181818;stroke-width:0.5;"/><text fill="#000000" font-family="sans-serif" font-size="14" lengthAdjust="spacing" textLength="234" x="371.0149" y="608.2209">UC07: Register a vehicle&#180;s check-up.</text></g><g id="elem_UC08"><ellipse cx="487.8991" cy="694.5009" fill="#F1F1F1" rx="112.3991" ry="24.8798" style="stroke:#181818;stroke-width:0.5;"/><text fill="#000000" font-family="sans-serif" font-size="14" lengthAdjust="spacing" textLength="186" x="394.8991" y="698.2978">UC08: List vehicles check-up.</text></g><!--entity HumanResourcesManager--><g id="elem_HumanResourcesManager"><ellipse cx="146.5" cy="232.6211" fill="#F1F1F1" rx="8" ry="8" style="stroke:#181818;stroke-width:0.5;"/><path d="M146.5,240.6211 L146.5,267.6211 M133.5,248.6211 L159.5,248.6211 M146.5,267.6211 L133.5,282.6211 M146.5,267.6211 L159.5,282.6211 " fill="none" style="stroke:#181818;stroke-width:0.5;"/><text fill="#000000" font-family="sans-serif" font-size="14" lengthAdjust="spacing" textLength="220" x="36.5" y="299.2285">Human Resources Manager (HRM)</text></g><!--entity VehicleAndEquipmentFleetManager--><g id="elem_VehicleAndEquipmentFleetManager"><ellipse cx="146.5" cy="573.6211" fill="#F1F1F1" rx="8" ry="8" style="stroke:#181818;stroke-width:0.5;"/><path d="M146.5,581.6211 L146.5,608.6211 M133.5,589.6211 L159.5,589.6211 M146.5,608.6211 L133.5,623.6211 M146.5,608.6211 L159.5,623.6211 " fill="none" style="stroke:#181818;stroke-width:0.5;"/><text fill="#000000" font-family="sans-serif" font-size="14" lengthAdjust="spacing" textLength="281" x="6" y="640.2285">Vehicle And Equipment FleetManager (VFM)</text></g><!--entity Collaborator--><g id="elem_Collaborator"><ellipse cx="146.5" cy="763.6211" fill="#F1F1F1" rx="8" ry="8" style="stroke:#181818;stroke-width:0.5;"/><path d="M146.5,771.6211 L146.5,798.6211 M133.5,779.6211 L159.5,779.6211 M146.5,798.6211 L133.5,813.6211 M146.5,798.6211 L159.5,813.6211 " fill="none" style="stroke:#181818;stroke-width:0.5;"/><text fill="#000000" font-family="sans-serif" font-size="14" lengthAdjust="spacing" textLength="78" x="107.5" y="830.2285">Collaborator</text></g><!--entity GreenSpacesUser--><g id="elem_GreenSpacesUser"><ellipse cx="146.5" cy="877.6211" fill="#F1F1F1" rx="8" ry="8" style="stroke:#181818;stroke-width:0.5;"/><path d="M146.5,885.6211 L146.5,912.6211 M133.5,893.6211 L159.5,893.6211 M146.5,912.6211 L133.5,927.6211 M146.5,912.6211 L159.5,927.6211 " fill="none" style="stroke:#181818;stroke-width:0.5;"/><text fill="#000000" font-family="sans-serif" font-size="14" lengthAdjust="spacing" textLength="167" x="63" y="944.2285">Green Spaces User (GSU)</text></g><!--entity GreenSpacesManager--><g id="elem_GreenSpacesManager"><ellipse cx="488" cy="763.6211" fill="#F1F1F1" rx="8" ry="8" style="stroke:#181818;stroke-width:0.5;"/><path d="M488,771.6211 L488,798.6211 M475,779.6211 L501,779.6211 M488,798.6211 L475,813.6211 M488,798.6211 L501,813.6211 " fill="none" style="stroke:#181818;stroke-width:0.5;"/><text fill="#000000" font-family="sans-serif" font-size="14" lengthAdjust="spacing" textLength="196" x="390" y="830.2285">Green Spaces Manager (GSM)</text></g><!--link HumanResourcesManager to UC01--><g id="link_HumanResourcesManager_UC01"><path d="M194.06,223.8611 C227.82,196.9511 275.68,162.6111 323,141.6211 C351.32,129.0611 378.419,121.5703 407.349,115.7203 " fill="none" id="HumanResourcesManager-to-UC01" style="stroke:#181818;stroke-width:1.0;"/><polygon fill="#181818" points="413.23,114.5311,403.6157,112.3943,408.3292,115.5221,405.2013,120.2355,413.23,114.5311" style="stroke:#181818;stroke-width:1.0;"/></g><!--link HumanResourcesManager to UC02--><g id="link_HumanResourcesManager_UC02"><path d="M256.83,232.9011 C278.7,226.9811 301.55,220.9711 323,215.6211 C356.7,207.2111 388.6502,199.9206 419.4602,193.1406 " fill="none" id="HumanResourcesManager-to-UC02" style="stroke:#181818;stroke-width:1.0;"/><polygon fill="#181818" points="425.32,191.8511,415.6706,189.8788,420.4368,192.9257,417.39,197.6919,425.32,191.8511" style="stroke:#181818;stroke-width:1.0;"/></g><!--link HumanResourcesManager to UC03--><g id="link_HumanResourcesManager_UC03"><path d="M256.79,263.6211 C285.48,263.6211 310.82,263.6211 340.88,263.6211 " fill="none" id="HumanResourcesManager-to-UC03" style="stroke:#181818;stroke-width:1.0;"/><polygon fill="#181818" points="346.88,263.6211,337.88,259.6211,341.88,263.6211,337.88,267.6211,346.88,263.6211" style="stroke:#181818;stroke-width:1.0;"/></g><!--link HumanResourcesManager to UC04--><g id="link_HumanResourcesManager_UC04"><path d="M256.54,293.5311 C278.54,299.5411 301.51,305.8011 323,311.6211 C351.6,319.3711 377.2144,326.2583 404.8344,333.6583 " fill="none" id="HumanResourcesManager-to-UC04" style="stroke:#181818;stroke-width:1.0;"/><polygon fill="#181818" points="410.63,335.2111,402.9718,329.0182,405.8003,333.9171,400.9014,336.7457,410.63,335.2111" style="stroke:#181818;stroke-width:1.0;"/></g><!--link HumanResourcesManager to UC05--><g id="link_HumanResourcesManager_UC05"><path d="M188.06,303.2911 C221.61,333.9511 271.89,375.1611 323,399.6211 C349.13,412.1311 373.7146,419.5272 401.2346,425.4572 " fill="none" id="HumanResourcesManager-to-UC05" style="stroke:#181818;stroke-width:1.0;"/><polygon fill="#181818" points="407.1,426.7211,399.1445,420.915,402.2122,425.6679,397.4594,428.7355,407.1,426.7211" style="stroke:#181818;stroke-width:1.0;"/></g><!--link VehicleAndEquipmentFleetManager to UC06--><g id="link_VehicleAndEquipmentFleetManager_UC06"><path d="M287.29,566.8811 C299.36,563.7111 311.39,560.5911 323,557.6211 C354.8,549.4911 384.3378,542.2201 414.0578,535.0401 " fill="none" id="VehicleAndEquipmentFleetManager-to-UC06" style="stroke:#181818;stroke-width:1.0;"/><polygon fill="#181818" points="419.89,533.6311,410.2023,531.8564,415.0298,534.8053,412.081,539.6327,419.89,533.6311" style="stroke:#181818;stroke-width:1.0;"/></g><!--link VehicleAndEquipmentFleetManager to UC07--><g id="link_VehicleAndEquipmentFleetManager_UC07"><path d="M287.06,604.6211 C309,604.6211 325.65,604.6211 347.45,604.6211 " fill="none" id="VehicleAndEquipmentFleetManager-to-UC07" style="stroke:#181818;stroke-width:1.0;"/><polygon fill="#181818" points="353.45,604.6211,344.45,600.6211,348.45,604.6211,344.45,608.6211,353.45,604.6211" style="stroke:#181818;stroke-width:1.0;"/></g><!--link VehicleAndEquipmentFleetManager to UC08--><g id="link_VehicleAndEquipmentFleetManager_UC08"><path d="M287.34,642.1411 C299.4,645.3611 311.41,648.5511 323,651.6211 C352.88,659.5411 380.0257,666.6713 408.5157,674.1313 " fill="none" id="VehicleAndEquipmentFleetManager-to-UC08" style="stroke:#181818;stroke-width:1.0;"/><polygon fill="#181818" points="414.32,675.6511,406.6268,669.5018,409.4831,674.3846,404.6003,677.2409,414.32,675.6511" style="stroke:#181818;stroke-width:1.0;"/></g><!--SRC=[bTBFIiD040Rm-px5q8jwg6Z_quCWLIjYBuRgUToEoTBDRjtTA2A-bK_WapbDcpGbbM0EWJ1VVjzco95VAhD2XocarbYPE9iI19UHs4rMA9SOKnG-D84Z6T34ciJHBk4JNDXtPM9uGUr9YA02P-UUO89ykr8OSqu8JIy1WWMduYJ0GgqrPOqGm1VAO1sqRhCK3JoGjvcJv666XjiT7Dy-p4vQW1xoH1dOpgl48oLAyW4kpGAkNpErIia4kD54eTGURxRQDipPCbfDLjo9rHgVhKD-gDPD7P61YFV4n-MFPdqQpJTwFjkCrfC_NolFDOrcjJUBeuXo-n1z-40fVEPWvackzzoQJyxEnxoxMF7KGRHKMljSMq_oxC7bGRjziOjKkKw5kxFFXTLfjZergrknS6-RyAH2KlMxpNwtvlV6SEczYitsm_Sg2hdNBFTgSdyCKpB44F790s5QSFrchb_Z1dkBUDlyW8KuoECDVsLX3shsy93zy-r19YINxMnrMXGD_rCqh1MDnd3FDKN5WOBHVmf6uai8yGi0]--></g></svg>