<?xml version="1.0" encoding="us-ascii" standalone="no"?><svg xmlns="http://www.w3.org/2000/svg" xmlns:xlink="http://www.w3.org/1999/xlink" contentStyleType="text/css" height="720px" preserveAspectRatio="none" style="width:1219px;height:720px;background:#FFFFFF;" version="1.1" viewBox="0 0 1219 720" width="1219px" zoomAndPan="magnify"><defs/><g><rect fill="#FFFFFF" height="530.0254" style="stroke:#181818;stroke-width:1.0;" width="10" x="387" y="125.1152"/><rect fill="#FFFFFF" height="130.873" style="stroke:#181818;stroke-width:1.0;" width="10" x="392" y="469.9766"/><rect fill="#FFFFFF" height="42.291" style="stroke:#181818;stroke-width:1.0;" width="10" x="397" y="514.2676"/><rect fill="#FFFFFF" height="203.4063" style="stroke:#181818;stroke-width:1.0;" width="10" x="762.5" y="227.2793"/><rect fill="#FFFFFF" height="96.5332" style="stroke:#181818;stroke-width:1.0;" width="10" x="1004.5" y="258.5703"/><rect fill="none" height="475.7344" style="stroke:#000000;stroke-width:1.5;" width="912" x="301.5" y="140.1152"/><line style="stroke:#181818;stroke-width:0.5;stroke-dasharray:5.0,5.0;" x1="391.5" x2="391.5" y1="57.2422" y2="664.1406"/><line style="stroke:#181818;stroke-width:0.5;stroke-dasharray:5.0,5.0;" x1="767" x2="767" y1="202.3428" y2="664.1406"/><line style="stroke:#181818;stroke-width:0.5;stroke-dasharray:5.0,5.0;" x1="1009.5" x2="1009.5" y1="266.4004" y2="664.1406"/><rect fill="#E3E3E3" height="51.2422" rx="2.5" ry="2.5" style="stroke:#181818;stroke-width:0.5;" width="161" x="311.5" y="5"/><text fill="#000000" font-family="sans-serif" font-size="14" lengthAdjust="spacing" textLength="147" x="318.5" y="27.1074">collaboratorRepository:</text><text fill="#000000" font-family="sans-serif" font-size="14" lengthAdjust="spacing" textLength="146" x="319" y="45.7285">CollaboratorRepository</text><rect fill="#E3E3E3" height="51.2422" rx="2.5" ry="2.5" style="stroke:#181818;stroke-width:0.5;" width="161" x="311.5" y="663.1406"/><text fill="#000000" font-family="sans-serif" font-size="14" lengthAdjust="spacing" textLength="147" x="318.5" y="685.248">collaboratorRepository:</text><text fill="#000000" font-family="sans-serif" font-size="14" lengthAdjust="spacing" textLength="146" x="319" y="703.8691">CollaboratorRepository</text><rect fill="#E3E3E3" height="51.2422" rx="2.5" ry="2.5" style="stroke:#181818;stroke-width:0.5;" width="93" x="721" y="663.1406"/><text fill="#000000" font-family="sans-serif" font-size="14" lengthAdjust="spacing" textLength="79" x="728" y="685.248">collaborator:</text><text fill="#000000" font-family="sans-serif" font-size="14" lengthAdjust="spacing" textLength="78" x="728.5" y="703.8691">Collaborator</text><rect fill="#E3E3E3" height="51.2422" rx="2.5" ry="2.5" style="stroke:#181818;stroke-width:0.5;" width="80" x="969.5" y="663.1406"/><text fill="#000000" font-family="sans-serif" font-size="14" lengthAdjust="spacing" textLength="66" x="976.5" y="685.248">document:</text><text fill="#000000" font-family="sans-serif" font-size="14" lengthAdjust="spacing" textLength="64" x="977.5" y="703.8691">Document</text><rect fill="#FFFFFF" height="530.0254" style="stroke:#181818;stroke-width:1.0;" width="10" x="387" y="125.1152"/><rect fill="#FFFFFF" height="130.873" style="stroke:#181818;stroke-width:1.0;" width="10" x="392" y="469.9766"/><rect fill="#FFFFFF" height="42.291" style="stroke:#181818;stroke-width:1.0;" width="10" x="397" y="514.2676"/><rect fill="#FFFFFF" height="203.4063" style="stroke:#181818;stroke-width:1.0;" width="10" x="762.5" y="227.2793"/><rect fill="#FFFFFF" height="96.5332" style="stroke:#181818;stroke-width:1.0;" width="10" x="1004.5" y="258.5703"/><polygon fill="#181818" points="375,121.1152,385,125.1152,375,129.1152,379,125.1152" style="stroke:#181818;stroke-width:1.0;"/><line style="stroke:#181818;stroke-width:1.0;" x1="0" x2="381" y1="125.1152" y2="125.1152"/><text fill="#000000" font-family="sans-serif" font-size="13" font-weight="bold" lengthAdjust="spacing" textLength="14" x="7" y="102.5615">19</text><text fill="#000000" font-family="sans-serif" font-size="13" lengthAdjust="spacing" textLength="210" x="25" y="85.2705">registerCollaborator(name, birthdate,</text><text fill="#000000" font-family="sans-serif" font-size="13" lengthAdjust="spacing" textLength="192" x="25" y="102.5615">admission date, address, mobile,</text><text fill="#000000" font-family="sans-serif" font-size="13" lengthAdjust="spacing" textLength="350" x="25" y="119.8525">email, taxpayerNumber, ID doc type, respective number, job)</text><path d="M301.5,140.1152 L471.5,140.1152 L471.5,149.4063 L461.5,159.4063 L301.5,159.4063 L301.5,140.1152 " fill="#EEEEEE" style="stroke:#000000;stroke-width:1.5;"/><rect fill="none" height="475.7344" style="stroke:#000000;stroke-width:1.5;" width="912" x="301.5" y="140.1152"/><text fill="#000000" font-family="sans-serif" font-size="13" font-weight="bold" lengthAdjust="spacing" textLength="125" x="316.5" y="155.1436">Create Collaborator</text><polygon fill="#181818" points="709,213.2793,719,217.2793,709,221.2793,713,217.2793" style="stroke:#181818;stroke-width:1.0;"/><line style="stroke:#181818;stroke-width:1.0;" x1="397" x2="715" y1="217.2793" y2="217.2793"/><text fill="#000000" font-family="sans-serif" font-size="13" font-weight="bold" lengthAdjust="spacing" textLength="25" x="404" y="194.7256">19.1</text><text fill="#000000" font-family="sans-serif" font-size="13" lengthAdjust="spacing" textLength="134" x="433" y="177.4346">create(name, birthdate,</text><text fill="#000000" font-family="sans-serif" font-size="13" lengthAdjust="spacing" textLength="192" x="433" y="194.7256">admission date, address, mobile,</text><text fill="#000000" font-family="sans-serif" font-size="13" lengthAdjust="spacing" textLength="271" x="433" y="212.0166">email, taxpayerNumber, docType, number, job)</text><rect fill="#E3E3E3" height="51.2422" rx="2.5" ry="2.5" style="stroke:#181818;stroke-width:0.5;" width="93" x="721" y="163.0371"/><text fill="#000000" font-family="sans-serif" font-size="14" lengthAdjust="spacing" textLength="79" x="728" y="185.1445">collaborator:</text><text fill="#000000" font-family="sans-serif" font-size="14" lengthAdjust="spacing" textLength="78" x="728.5" y="203.7656">Collaborator</text><polygon fill="#181818" points="957.5,244.5703,967.5,248.5703,957.5,252.5703,961.5,248.5703" style="stroke:#181818;stroke-width:1.0;"/><line style="stroke:#181818;stroke-width:1.0;" x1="772.5" x2="963.5" y1="248.5703" y2="248.5703"/><text fill="#000000" font-family="sans-serif" font-size="13" font-weight="bold" lengthAdjust="spacing" textLength="25" x="779.5" y="243.3076">19.2</text><text fill="#000000" font-family="sans-serif" font-size="13" lengthAdjust="spacing" textLength="144" x="808.5" y="243.3076">create(docType, number)</text><rect fill="#E3E3E3" height="51.2422" rx="2.5" ry="2.5" style="stroke:#181818;stroke-width:0.5;" width="80" x="969.5" y="225.2793"/><text fill="#000000" font-family="sans-serif" font-size="14" lengthAdjust="spacing" textLength="66" x="976.5" y="247.3867">document:</text><text fill="#000000" font-family="sans-serif" font-size="14" lengthAdjust="spacing" textLength="64" x="977.5" y="266.0078">Document</text><line style="stroke:#181818;stroke-width:1.0;" x1="1014.5" x2="1056.5" y1="310.8125" y2="310.8125"/><line style="stroke:#181818;stroke-width:1.0;" x1="1056.5" x2="1056.5" y1="310.8125" y2="323.8125"/><line style="stroke:#181818;stroke-width:1.0;" x1="1015.5" x2="1056.5" y1="323.8125" y2="323.8125"/><polygon fill="#181818" points="1025.5,319.8125,1015.5,323.8125,1025.5,327.8125,1021.5,323.8125" style="stroke:#181818;stroke-width:1.0;"/><text fill="#000000" font-family="sans-serif" font-size="13" font-weight="bold" lengthAdjust="spacing" textLength="25" x="1021.5" y="305.5498">19.3</text><text fill="#000000" font-family="sans-serif" font-size="13" lengthAdjust="spacing" textLength="151" x="1050.5" y="305.5498">validate(docType, number)</text><polygon fill="#181818" points="783.5,351.1035,773.5,355.1035,783.5,359.1035,779.5,355.1035" style="stroke:#181818;stroke-width:1.0;"/><line style="stroke:#181818;stroke-width:1.0;" x1="777.5" x2="1008.5" y1="355.1035" y2="355.1035"/><text fill="#000000" font-family="sans-serif" font-size="13" font-weight="bold" lengthAdjust="spacing" textLength="25" x="789.5" y="349.8408">19.4</text><text fill="#000000" font-family="sans-serif" font-size="13" lengthAdjust="spacing" textLength="57" x="818.5" y="349.8408">document</text><line style="stroke:#181818;stroke-width:1.0;" x1="772.5" x2="814.5" y1="386.3945" y2="386.3945"/><line style="stroke:#181818;stroke-width:1.0;" x1="814.5" x2="814.5" y1="386.3945" y2="399.3945"/><line style="stroke:#181818;stroke-width:1.0;" x1="773.5" x2="814.5" y1="399.3945" y2="399.3945"/><polygon fill="#181818" points="783.5,395.3945,773.5,399.3945,783.5,403.3945,779.5,399.3945" style="stroke:#181818;stroke-width:1.0;"/><text fill="#000000" font-family="sans-serif" font-size="13" font-weight="bold" lengthAdjust="spacing" textLength="25" x="779.5" y="381.1318">19.5</text><text fill="#000000" font-family="sans-serif" font-size="13" lengthAdjust="spacing" textLength="187" x="808.5" y="381.1318">validateCollaborator(collaborator)</text><polygon fill="#181818" points="408,426.6855,398,430.6855,408,434.6855,404,430.6855" style="stroke:#181818;stroke-width:1.0;"/><line style="stroke:#181818;stroke-width:1.0;stroke-dasharray:2.0,2.0;" x1="402" x2="766.5" y1="430.6855" y2="430.6855"/><text fill="#000000" font-family="sans-serif" font-size="13" font-weight="bold" lengthAdjust="spacing" textLength="25" x="414" y="425.4229">19.6</text><text fill="#000000" font-family="sans-serif" font-size="13" lengthAdjust="spacing" textLength="67" x="443" y="425.4229">collaborator</text><line style="stroke:#181818;stroke-width:1.0;" x1="397" x2="444" y1="456.9766" y2="456.9766"/><line style="stroke:#181818;stroke-width:1.0;" x1="444" x2="444" y1="456.9766" y2="469.9766"/><line style="stroke:#181818;stroke-width:1.0;" x1="403" x2="444" y1="469.9766" y2="469.9766"/><polygon fill="#181818" points="413,465.9766,403,469.9766,413,473.9766,409,469.9766" style="stroke:#181818;stroke-width:1.0;"/><text fill="#000000" font-family="sans-serif" font-size="13" font-weight="bold" lengthAdjust="spacing" textLength="25" x="409" y="451.7139">19.7</text><text fill="#000000" font-family="sans-serif" font-size="13" lengthAdjust="spacing" textLength="165" x="438" y="451.7139">addCollaborator(collaborator)</text><line style="stroke:#181818;stroke-width:1.0;" x1="402" x2="449" y1="501.2676" y2="501.2676"/><line style="stroke:#181818;stroke-width:1.0;" x1="449" x2="449" y1="501.2676" y2="514.2676"/><line style="stroke:#181818;stroke-width:1.0;" x1="408" x2="449" y1="514.2676" y2="514.2676"/><polygon fill="#181818" points="418,510.2676,408,514.2676,418,518.2676,414,514.2676" style="stroke:#181818;stroke-width:1.0;"/><text fill="#000000" font-family="sans-serif" font-size="13" font-weight="bold" lengthAdjust="spacing" textLength="25" x="414" y="496.0049">19.8</text><text fill="#000000" font-family="sans-serif" font-size="13" lengthAdjust="spacing" textLength="187" x="443" y="496.0049">validateCollaborator(collaborator)</text><line style="stroke:#181818;stroke-width:1.0;stroke-dasharray:2.0,2.0;" x1="407" x2="449" y1="555.5586" y2="555.5586"/><line style="stroke:#181818;stroke-width:1.0;stroke-dasharray:2.0,2.0;" x1="449" x2="449" y1="555.5586" y2="568.5586"/><line style="stroke:#181818;stroke-width:1.0;stroke-dasharray:2.0,2.0;" x1="402" x2="449" y1="568.5586" y2="568.5586"/><polygon fill="#181818" points="412,564.5586,402,568.5586,412,572.5586,408,568.5586" style="stroke:#181818;stroke-width:1.0;"/><text fill="#000000" font-family="sans-serif" font-size="13" font-weight="bold" lengthAdjust="spacing" textLength="25" x="414" y="550.2959">19.9</text><text fill="#000000" font-family="sans-serif" font-size="13" lengthAdjust="spacing" textLength="53" x="443" y="550.2959">true/false</text><line style="stroke:#181818;stroke-width:1.0;stroke-dasharray:2.0,2.0;" x1="402" x2="444" y1="599.8496" y2="599.8496"/><line style="stroke:#181818;stroke-width:1.0;stroke-dasharray:2.0,2.0;" x1="444" x2="444" y1="599.8496" y2="612.8496"/><line style="stroke:#181818;stroke-width:1.0;stroke-dasharray:2.0,2.0;" x1="397" x2="444" y1="612.8496" y2="612.8496"/><polygon fill="#181818" points="407,608.8496,397,612.8496,407,616.8496,403,612.8496" style="stroke:#181818;stroke-width:1.0;"/><text fill="#000000" font-family="sans-serif" font-size="13" font-weight="bold" lengthAdjust="spacing" textLength="32" x="409" y="594.5869">19.10</text><text fill="#000000" font-family="sans-serif" font-size="13" lengthAdjust="spacing" textLength="53" x="445" y="594.5869">true/false</text><polygon fill="#181818" points="11,642.1406,1,646.1406,11,650.1406,7,646.1406" style="stroke:#181818;stroke-width:1.0;"/><line style="stroke:#181818;stroke-width:1.0;stroke-dasharray:2.0,2.0;" x1="5" x2="386" y1="646.1406" y2="646.1406"/><text fill="#000000" font-family="sans-serif" font-size="13" font-weight="bold" lengthAdjust="spacing" textLength="14" x="17" y="640.8779">20</text><text fill="#000000" font-family="sans-serif" font-size="13" lengthAdjust="spacing" textLength="67" x="35" y="640.8779">collaborator</text><!--SRC=[hLInKiCm3Dtz5RfEjDS2PQF7iRGB2mCmTb5YaPecTivs2lrxbBGK9oHfED1aMq_Ia_nijrKwHuiPP4QRU6DDHk1jGSATF3d6MqpesUzJ0aknHvsa8S1jK9ftfHDunTIH48BFlOfLZjh3A3PfYf6nw8rzejmunOlzOgsNhOuHe8DsLtVUHhOVEUgHqiH5HjfprEguh29u8mGMtkWYYyZ2_5RCxZkum89daIZdoOQ02uqPJI5IrcyaUbwkDSfCEQUCXiC9Icd9kIdFF59f1Q4CLJe5Znyvxia-LlMdyB02vWf-dpEAOtAUljeHwAF_pKHZqQ1yEHTOehXKrnXB0xR4cYA7fQKcblqTNJVcCPai8AxY_xTnxlgbQhhUAGJMsYH3mcr9bozrCe4JpKRciQZbgXHGdl3Y6CoXEqoLR0qEiRN22_WIMGMHzBD4Q4tIuVwxVareeVp7PnBsgJYkZo-mWFIo5JHC8y6RBnNGquJelTj0m5sT3YFnot6UVKrzimyPzTr2-UTU7RxF0LVGLVsFbSNmiYMAj3ny8OV0u1UwkHPtizb0pNq2]--></g></svg>