<?xml version="1.0" encoding="us-ascii" standalone="no"?><svg xmlns="http://www.w3.org/2000/svg" xmlns:xlink="http://www.w3.org/1999/xlink" contentStyleType="text/css" height="713px" preserveAspectRatio="none" style="width:1294px;height:713px;background:#FFFFFF;" version="1.1" viewBox="0 0 1294 713" width="1294px" zoomAndPan="magnify"><defs/><g><rect fill="#FFFFFF" height="548.6953" style="stroke:#181818;stroke-width:1.0;" width="10" x="344" y="90.5332"/><rect fill="#FFFFFF" height="31.291" style="stroke:#181818;stroke-width:1.0;" width="10" x="508" y="148.1152"/><rect fill="#FFFFFF" height="31.291" style="stroke:#181818;stroke-width:1.0;" width="10" x="615" y="210.6973"/><rect fill="#FFFFFF" height="327.6582" style="stroke:#181818;stroke-width:1.0;" width="10" x="742" y="273.2793"/><rect fill="#FFFFFF" height="130.873" style="stroke:#181818;stroke-width:1.0;" width="10" x="747" y="431.7734"/><rect fill="#FFFFFF" height="42.291" style="stroke:#181818;stroke-width:1.0;" width="10" x="752" y="476.0645"/><rect fill="#FFFFFF" height="77.9121" style="stroke:#181818;stroke-width:1.0;" width="10" x="1085" y="314.5703"/><rect fill="none" height="503.4043" style="stroke:#000000;stroke-width:1.5;" width="1054.5" x="233.5" y="105.5332"/><line style="stroke:#181818;stroke-width:0.5;stroke-dasharray:5.0,5.0;" x1="348.5" x2="348.5" y1="57.2422" y2="657.2285"/><line style="stroke:#181818;stroke-width:0.5;stroke-dasharray:5.0,5.0;" x1="512.5" x2="512.5" y1="57.2422" y2="657.2285"/><line style="stroke:#181818;stroke-width:0.5;stroke-dasharray:5.0,5.0;" x1="619.5" x2="619.5" y1="57.2422" y2="657.2285"/><line style="stroke:#181818;stroke-width:0.5;stroke-dasharray:5.0,5.0;" x1="746.5" x2="746.5" y1="57.2422" y2="657.2285"/><line style="stroke:#181818;stroke-width:0.5;stroke-dasharray:5.0,5.0;" x1="1090" x2="1090" y1="313.0898" y2="657.2285"/><rect fill="#E2E2F0" height="32.6211" rx="2.5" ry="2.5" style="stroke:#181818;stroke-width:0.5;" width="211" x="243.5" y="23.6211"/><text fill="#000000" font-family="sans-serif" font-size="14" lengthAdjust="spacing" textLength="197" x="250.5" y="45.7285">:RegisterCollaboratorController</text><rect fill="#E2E2F0" height="32.6211" rx="2.5" ry="2.5" style="stroke:#181818;stroke-width:0.5;" width="211" x="243.5" y="656.2285"/><text fill="#000000" font-family="sans-serif" font-size="14" lengthAdjust="spacing" textLength="197" x="250.5" y="678.3359">:RegisterCollaboratorController</text><rect fill="#E2E2F0" height="32.6211" rx="2.5" ry="2.5" style="stroke:#181818;stroke-width:0.5;" width="97" x="464.5" y="23.6211"/><text fill="#000000" font-family="sans-serif" font-size="14" lengthAdjust="spacing" textLength="83" x="471.5" y="45.7285">:Repositories</text><rect fill="#E2E2F0" height="32.6211" rx="2.5" ry="2.5" style="stroke:#181818;stroke-width:0.5;" width="97" x="464.5" y="656.2285"/><text fill="#000000" font-family="sans-serif" font-size="14" lengthAdjust="spacing" textLength="83" x="471.5" y="678.3359">:Repositories</text><rect fill="#E2E2F0" height="51.2422" rx="2.5" ry="2.5" style="stroke:#181818;stroke-width:0.5;" width="97" x="571.5" y="5"/><text fill="#000000" font-family="sans-serif" font-size="14" lengthAdjust="spacing" textLength="74" x="583" y="27.1074">repositories</text><text fill="#000000" font-family="sans-serif" font-size="14" lengthAdjust="spacing" textLength="83" x="578.5" y="45.7285">:Repositories</text><rect fill="#E2E2F0" height="51.2422" rx="2.5" ry="2.5" style="stroke:#181818;stroke-width:0.5;" width="97" x="571.5" y="656.2285"/><text fill="#000000" font-family="sans-serif" font-size="14" lengthAdjust="spacing" textLength="74" x="583" y="678.3359">repositories</text><text fill="#000000" font-family="sans-serif" font-size="14" lengthAdjust="spacing" textLength="83" x="578.5" y="696.957">:Repositories</text><rect fill="#E2E2F0" height="51.2422" rx="2.5" ry="2.5" style="stroke:#181818;stroke-width:0.5;" width="137" x="678.5" y="5"/><text fill="#000000" font-family="sans-serif" font-size="14" lengthAdjust="spacing" textLength="123" x="685.5" y="27.1074">addressRepository:</text><text fill="#000000" font-family="sans-serif" font-size="14" lengthAdjust="spacing" textLength="120" x="687" y="45.7285">AddressRepository</text><rect fill="#E2E2F0" height="51.2422" rx="2.5" ry="2.5" style="stroke:#181818;stroke-width:0.5;" width="137" x="678.5" y="656.2285"/><text fill="#000000" font-family="sans-serif" font-size="14" lengthAdjust="spacing" textLength="123" x="685.5" y="678.3359">addressRepository:</text><text fill="#000000" font-family="sans-serif" font-size="14" lengthAdjust="spacing" textLength="120" x="687" y="696.957">AddressRepository</text><rect fill="#E2E2F0" height="32.6211" rx="2.5" ry="2.5" style="stroke:#181818;stroke-width:0.5;" width="66" x="1057" y="656.2285"/><text fill="#000000" font-family="sans-serif" font-size="14" lengthAdjust="spacing" textLength="52" x="1064" y="678.3359">Address</text><rect fill="#FFFFFF" height="548.6953" style="stroke:#181818;stroke-width:1.0;" width="10" x="344" y="90.5332"/><rect fill="#FFFFFF" height="31.291" style="stroke:#181818;stroke-width:1.0;" width="10" x="508" y="148.1152"/><rect fill="#FFFFFF" height="31.291" style="stroke:#181818;stroke-width:1.0;" width="10" x="615" y="210.6973"/><rect fill="#FFFFFF" height="327.6582" style="stroke:#181818;stroke-width:1.0;" width="10" x="742" y="273.2793"/><rect fill="#FFFFFF" height="130.873" style="stroke:#181818;stroke-width:1.0;" width="10" x="747" y="431.7734"/><rect fill="#FFFFFF" height="42.291" style="stroke:#181818;stroke-width:1.0;" width="10" x="752" y="476.0645"/><rect fill="#FFFFFF" height="77.9121" style="stroke:#181818;stroke-width:1.0;" width="10" x="1085" y="314.5703"/><polygon fill="#181818" points="332,86.5332,342,90.5332,332,94.5332,336,90.5332" style="stroke:#181818;stroke-width:1.0;"/><line style="stroke:#181818;stroke-width:1.0;" x1="0" x2="338" y1="90.5332" y2="90.5332"/><text fill="#000000" font-family="sans-serif" font-size="13" font-weight="bold" lengthAdjust="spacing" textLength="14" x="7" y="85.2705">13</text><text fill="#000000" font-family="sans-serif" font-size="13" lengthAdjust="spacing" textLength="307" x="25" y="85.2705">registerAddress(streetName, postCode, doorNumber)</text><path d="M233.5,105.5332 L384.5,105.5332 L384.5,114.8242 L374.5,124.8242 L233.5,124.8242 L233.5,105.5332 " fill="#EEEEEE" style="stroke:#000000;stroke-width:1.5;"/><rect fill="none" height="503.4043" style="stroke:#000000;stroke-width:1.5;" width="1054.5" x="233.5" y="105.5332"/><text fill="#000000" font-family="sans-serif" font-size="13" font-weight="bold" lengthAdjust="spacing" textLength="106" x="248.5" y="120.5615">Register Address</text><polygon fill="#181818" points="496,144.1152,506,148.1152,496,152.1152,500,148.1152" style="stroke:#181818;stroke-width:1.0;"/><line style="stroke:#181818;stroke-width:1.0;" x1="354" x2="502" y1="148.1152" y2="148.1152"/><text fill="#000000" font-family="sans-serif" font-size="13" font-weight="bold" lengthAdjust="spacing" textLength="25" x="361" y="142.8525">13.1</text><text fill="#000000" font-family="sans-serif" font-size="13" lengthAdjust="spacing" textLength="75" x="390" y="142.8525">getInstance()</text><polygon fill="#181818" points="365,175.4063,355,179.4063,365,183.4063,361,179.4063" style="stroke:#181818;stroke-width:1.0;"/><line style="stroke:#181818;stroke-width:1.0;" x1="359" x2="512" y1="179.4063" y2="179.4063"/><text fill="#000000" font-family="sans-serif" font-size="13" font-weight="bold" lengthAdjust="spacing" textLength="25" x="371" y="174.1436">13.2</text><text fill="#000000" font-family="sans-serif" font-size="13" lengthAdjust="spacing" textLength="67" x="400" y="174.1436">repositories</text><polygon fill="#181818" points="603,206.6973,613,210.6973,603,214.6973,607,210.6973" style="stroke:#181818;stroke-width:1.0;"/><line style="stroke:#181818;stroke-width:1.0;" x1="354" x2="609" y1="210.6973" y2="210.6973"/><text fill="#000000" font-family="sans-serif" font-size="13" font-weight="bold" lengthAdjust="spacing" textLength="25" x="361" y="205.4346">13.3</text><text fill="#000000" font-family="sans-serif" font-size="13" lengthAdjust="spacing" textLength="136" x="390" y="205.4346">getAddressRepository()</text><polygon fill="#181818" points="365,237.9883,355,241.9883,365,245.9883,361,241.9883" style="stroke:#181818;stroke-width:1.0;"/><line style="stroke:#181818;stroke-width:1.0;" x1="359" x2="619" y1="241.9883" y2="241.9883"/><text fill="#000000" font-family="sans-serif" font-size="13" font-weight="bold" lengthAdjust="spacing" textLength="25" x="371" y="236.7256">13.4</text><text fill="#000000" font-family="sans-serif" font-size="13" lengthAdjust="spacing" textLength="108" x="400" y="236.7256">addressRepository</text><polygon fill="#181818" points="730,269.2793,740,273.2793,730,277.2793,734,273.2793" style="stroke:#181818;stroke-width:1.0;"/><line style="stroke:#181818;stroke-width:1.0;" x1="354" x2="736" y1="273.2793" y2="273.2793"/><text fill="#000000" font-family="sans-serif" font-size="13" font-weight="bold" lengthAdjust="spacing" textLength="25" x="361" y="268.0166">13.5</text><text fill="#000000" font-family="sans-serif" font-size="13" lengthAdjust="spacing" textLength="307" x="390" y="268.0166">registerAddress(streetName, postCode, doorNumber)</text><polygon fill="#181818" points="1045,300.5703,1055,304.5703,1045,308.5703,1049,304.5703" style="stroke:#181818;stroke-width:1.0;"/><line style="stroke:#181818;stroke-width:1.0;" x1="752" x2="1051" y1="304.5703" y2="304.5703"/><text fill="#000000" font-family="sans-serif" font-size="13" font-weight="bold" lengthAdjust="spacing" textLength="25" x="759" y="299.3076">13.6</text><text fill="#000000" font-family="sans-serif" font-size="13" lengthAdjust="spacing" textLength="252" x="788" y="299.3076">create(streetName, postCode, doorNumber)</text><rect fill="#E2E2F0" height="32.6211" rx="2.5" ry="2.5" style="stroke:#181818;stroke-width:0.5;" width="66" x="1057" y="281.2793"/><text fill="#000000" font-family="sans-serif" font-size="14" lengthAdjust="spacing" textLength="52" x="1064" y="303.3867">Address</text><line style="stroke:#181818;stroke-width:1.0;" x1="1095" x2="1137" y1="348.1914" y2="348.1914"/><line style="stroke:#181818;stroke-width:1.0;" x1="1137" x2="1137" y1="348.1914" y2="361.1914"/><line style="stroke:#181818;stroke-width:1.0;" x1="1096" x2="1137" y1="361.1914" y2="361.1914"/><polygon fill="#181818" points="1106,357.1914,1096,361.1914,1106,365.1914,1102,361.1914" style="stroke:#181818;stroke-width:1.0;"/><text fill="#000000" font-family="sans-serif" font-size="13" font-weight="bold" lengthAdjust="spacing" textLength="25" x="1102" y="342.9287">13.7</text><text fill="#000000" font-family="sans-serif" font-size="13" lengthAdjust="spacing" textLength="145" x="1131" y="342.9287">validateAddress(address)</text><polygon fill="#181818" points="763,388.4824,753,392.4824,763,396.4824,759,392.4824" style="stroke:#181818;stroke-width:1.0;"/><line style="stroke:#181818;stroke-width:1.0;stroke-dasharray:2.0,2.0;" x1="757" x2="1089" y1="392.4824" y2="392.4824"/><text fill="#000000" font-family="sans-serif" font-size="13" font-weight="bold" lengthAdjust="spacing" textLength="25" x="769" y="387.2197">13.8</text><text fill="#000000" font-family="sans-serif" font-size="13" lengthAdjust="spacing" textLength="46" x="798" y="387.2197">address</text><line style="stroke:#181818;stroke-width:1.0;" x1="752" x2="799" y1="418.7734" y2="418.7734"/><line style="stroke:#181818;stroke-width:1.0;" x1="799" x2="799" y1="418.7734" y2="431.7734"/><line style="stroke:#181818;stroke-width:1.0;" x1="758" x2="799" y1="431.7734" y2="431.7734"/><polygon fill="#181818" points="768,427.7734,758,431.7734,768,435.7734,764,431.7734" style="stroke:#181818;stroke-width:1.0;"/><text fill="#000000" font-family="sans-serif" font-size="13" font-weight="bold" lengthAdjust="spacing" textLength="25" x="764" y="413.5107">13.9</text><text fill="#000000" font-family="sans-serif" font-size="13" lengthAdjust="spacing" textLength="123" x="793" y="413.5107">addAddress(address)</text><line style="stroke:#181818;stroke-width:1.0;" x1="757" x2="804" y1="463.0645" y2="463.0645"/><line style="stroke:#181818;stroke-width:1.0;" x1="804" x2="804" y1="463.0645" y2="476.0645"/><line style="stroke:#181818;stroke-width:1.0;" x1="763" x2="804" y1="476.0645" y2="476.0645"/><polygon fill="#181818" points="773,472.0645,763,476.0645,773,480.0645,769,476.0645" style="stroke:#181818;stroke-width:1.0;"/><text fill="#000000" font-family="sans-serif" font-size="13" font-weight="bold" lengthAdjust="spacing" textLength="32" x="769" y="457.8018">13.10</text><text fill="#000000" font-family="sans-serif" font-size="13" lengthAdjust="spacing" textLength="145" x="805" y="457.8018">validateAddress(address)</text><line style="stroke:#181818;stroke-width:1.0;stroke-dasharray:2.0,2.0;" x1="762" x2="804" y1="517.3555" y2="517.3555"/><line style="stroke:#181818;stroke-width:1.0;stroke-dasharray:2.0,2.0;" x1="804" x2="804" y1="517.3555" y2="530.3555"/><line style="stroke:#181818;stroke-width:1.0;stroke-dasharray:2.0,2.0;" x1="757" x2="804" y1="530.3555" y2="530.3555"/><polygon fill="#181818" points="767,526.3555,757,530.3555,767,534.3555,763,530.3555" style="stroke:#181818;stroke-width:1.0;"/><text fill="#000000" font-family="sans-serif" font-size="13" font-weight="bold" lengthAdjust="spacing" textLength="32" x="769" y="512.0928">13.11</text><text fill="#000000" font-family="sans-serif" font-size="13" lengthAdjust="spacing" textLength="53" x="805" y="512.0928">true/false</text><line style="stroke:#181818;stroke-width:1.0;stroke-dasharray:2.0,2.0;" x1="757" x2="799" y1="561.6465" y2="561.6465"/><line style="stroke:#181818;stroke-width:1.0;stroke-dasharray:2.0,2.0;" x1="799" x2="799" y1="561.6465" y2="574.6465"/><line style="stroke:#181818;stroke-width:1.0;stroke-dasharray:2.0,2.0;" x1="752" x2="799" y1="574.6465" y2="574.6465"/><polygon fill="#181818" points="762,570.6465,752,574.6465,762,578.6465,758,574.6465" style="stroke:#181818;stroke-width:1.0;"/><text fill="#000000" font-family="sans-serif" font-size="13" font-weight="bold" lengthAdjust="spacing" textLength="32" x="764" y="556.3838">13.12</text><text fill="#000000" font-family="sans-serif" font-size="13" lengthAdjust="spacing" textLength="53" x="800" y="556.3838">true/false</text><polygon fill="#181818" points="365,596.9375,355,600.9375,365,604.9375,361,600.9375" style="stroke:#181818;stroke-width:1.0;"/><line style="stroke:#181818;stroke-width:1.0;stroke-dasharray:2.0,2.0;" x1="359" x2="746" y1="600.9375" y2="600.9375"/><text fill="#000000" font-family="sans-serif" font-size="13" font-weight="bold" lengthAdjust="spacing" textLength="32" x="371" y="595.6748">13.13</text><text fill="#000000" font-family="sans-serif" font-size="13" lengthAdjust="spacing" textLength="46" x="407" y="595.6748">address</text><polygon fill="#181818" points="11,635.2285,1,639.2285,11,643.2285,7,639.2285" style="stroke:#181818;stroke-width:1.0;"/><line style="stroke:#181818;stroke-width:1.0;stroke-dasharray:2.0,2.0;" x1="5" x2="348" y1="639.2285" y2="639.2285"/><text fill="#000000" font-family="sans-serif" font-size="13" font-weight="bold" lengthAdjust="spacing" textLength="14" x="17" y="633.9658">14</text><text fill="#000000" font-family="sans-serif" font-size="13" lengthAdjust="spacing" textLength="46" x="35" y="633.9658">address</text><!--SRC=[dLJFRy8W5Bxtho1UfcQrCTkfMPOOJqkCMPn7BrZUEf8MEdWrsNy_HDjImLd7YJxuVl0zoiCNOgNJ9AaAAh0kYracoqJ3TmqYWvXncYjQHb555VACLsOJ6QKRoBb6K4jP57Gl5KLfvWAL-GOr8bIJvNQpyb2LrDnivQ3jdhRmyy55NW1AqOSe1x4JFi7xQh7j8oXZ2hJkcDETM5pMBDQhHX6jZOEwt8CYywSeVhM782bHv-EU8MED2W3Nj8H7Oj2ubCpCc9HgRT6JFjDi7j4C-O4Yd68XPkHArXLfWcpSH7RjEAoqiH38o3ZA0T-4HcfwD9wqc5Ob56oxAyJedhNBk8Km64RTc3xsvUJIIpbarxQnBLjmPyZhQCXLdw6nuOd_gvUUtS3D8SxmLJihqsbACWM6PO1mZ_LIlR_gw3fgAJdGWZE3Qavx3dDo7NmbDXfITHhWkVeh1UVlF19xveP4FZHnLsjG6aFRV4NuIdweQaW-QQ7XHe9ttAhRKj5zEc6D_dzu9oK8vhJJUHMVs-fB70_Gi0_dBm00]--></g></svg>