<?xml version="1.0" encoding="us-ascii" standalone="no"?><svg xmlns="http://www.w3.org/2000/svg" xmlns:xlink="http://www.w3.org/1999/xlink" contentStyleType="text/css" height="582px" preserveAspectRatio="none" style="width:886px;height:582px;background:#FFFFFF;" version="1.1" viewBox="0 0 886 582" width="886px" zoomAndPan="magnify"><defs/><g><rect fill="#FFFFFF" height="392.2012" style="stroke:#181818;stroke-width:1.0;" width="10" x="284" y="125.1152"/><rect fill="#FFFFFF" height="130.873" style="stroke:#181818;stroke-width:1.0;" width="10" x="289" y="332.1523"/><rect fill="#FFFFFF" height="42.291" style="stroke:#181818;stroke-width:1.0;" width="10" x="294" y="376.4434"/><rect fill="#FFFFFF" height="65.582" style="stroke:#181818;stroke-width:1.0;" width="10" x="635.5" y="227.2793"/><rect fill="none" height="337.9102" style="stroke:#000000;stroke-width:1.5;" width="682" x="198.5" y="140.1152"/><line style="stroke:#181818;stroke-width:0.5;stroke-dasharray:5.0,5.0;" x1="288.5" x2="288.5" y1="57.2422" y2="526.3164"/><line style="stroke:#181818;stroke-width:0.5;stroke-dasharray:5.0,5.0;" x1="640" x2="640" y1="202.3428" y2="526.3164"/><rect fill="#E3E3E3" height="51.2422" rx="2.5" ry="2.5" style="stroke:#181818;stroke-width:0.5;" width="161" x="208.5" y="5"/><text fill="#000000" font-family="sans-serif" font-size="14" lengthAdjust="spacing" textLength="147" x="215.5" y="27.1074">collaboratorRepository:</text><text fill="#000000" font-family="sans-serif" font-size="14" lengthAdjust="spacing" textLength="146" x="216" y="45.7285">CollaboratorRepository</text><rect fill="#E3E3E3" height="51.2422" rx="2.5" ry="2.5" style="stroke:#181818;stroke-width:0.5;" width="161" x="208.5" y="525.3164"/><text fill="#000000" font-family="sans-serif" font-size="14" lengthAdjust="spacing" textLength="147" x="215.5" y="547.4238">collaboratorRepository:</text><text fill="#000000" font-family="sans-serif" font-size="14" lengthAdjust="spacing" textLength="146" x="216" y="566.0449">CollaboratorRepository</text><rect fill="#E3E3E3" height="51.2422" rx="2.5" ry="2.5" style="stroke:#181818;stroke-width:0.5;" width="93" x="594" y="525.3164"/><text fill="#000000" font-family="sans-serif" font-size="14" lengthAdjust="spacing" textLength="79" x="601" y="547.4238">collaborator:</text><text fill="#000000" font-family="sans-serif" font-size="14" lengthAdjust="spacing" textLength="78" x="601.5" y="566.0449">Collaborator</text><rect fill="#FFFFFF" height="392.2012" style="stroke:#181818;stroke-width:1.0;" width="10" x="284" y="125.1152"/><rect fill="#FFFFFF" height="130.873" style="stroke:#181818;stroke-width:1.0;" width="10" x="289" y="332.1523"/><rect fill="#FFFFFF" height="42.291" style="stroke:#181818;stroke-width:1.0;" width="10" x="294" y="376.4434"/><rect fill="#FFFFFF" height="65.582" style="stroke:#181818;stroke-width:1.0;" width="10" x="635.5" y="227.2793"/><polygon fill="#181818" points="272,121.1152,282,125.1152,272,129.1152,276,125.1152" style="stroke:#181818;stroke-width:1.0;"/><line style="stroke:#181818;stroke-width:1.0;" x1="0" x2="278" y1="125.1152" y2="125.1152"/><text fill="#000000" font-family="sans-serif" font-size="13" font-weight="bold" lengthAdjust="spacing" textLength="14" x="7" y="102.5615">19</text><text fill="#000000" font-family="sans-serif" font-size="13" lengthAdjust="spacing" textLength="210" x="25" y="85.2705">registerCollaborator(name, birthdate,</text><text fill="#000000" font-family="sans-serif" font-size="13" lengthAdjust="spacing" textLength="192" x="25" y="102.5615">admission date, address, mobile,</text><text fill="#000000" font-family="sans-serif" font-size="13" lengthAdjust="spacing" textLength="247" x="25" y="119.8525">email, ID doc type, respective number, job)</text><path d="M198.5,140.1152 L368.5,140.1152 L368.5,149.4063 L358.5,159.4063 L198.5,159.4063 L198.5,140.1152 " fill="#EEEEEE" style="stroke:#000000;stroke-width:1.5;"/><rect fill="none" height="337.9102" style="stroke:#000000;stroke-width:1.5;" width="682" x="198.5" y="140.1152"/><text fill="#000000" font-family="sans-serif" font-size="13" font-weight="bold" lengthAdjust="spacing" textLength="125" x="213.5" y="155.1436">Create Collaborator</text><polygon fill="#181818" points="582,213.2793,592,217.2793,582,221.2793,586,217.2793" style="stroke:#181818;stroke-width:1.0;"/><line style="stroke:#181818;stroke-width:1.0;" x1="294" x2="588" y1="217.2793" y2="217.2793"/><text fill="#000000" font-family="sans-serif" font-size="13" font-weight="bold" lengthAdjust="spacing" textLength="25" x="301" y="194.7256">19.1</text><text fill="#000000" font-family="sans-serif" font-size="13" lengthAdjust="spacing" textLength="134" x="330" y="177.4346">create(name, birthdate,</text><text fill="#000000" font-family="sans-serif" font-size="13" lengthAdjust="spacing" textLength="192" x="330" y="194.7256">admission date, address, mobile,</text><text fill="#000000" font-family="sans-serif" font-size="13" lengthAdjust="spacing" textLength="247" x="330" y="212.0166">email, ID doc type, respective number, job)</text><rect fill="#E3E3E3" height="51.2422" rx="2.5" ry="2.5" style="stroke:#181818;stroke-width:0.5;" width="93" x="594" y="163.0371"/><text fill="#000000" font-family="sans-serif" font-size="14" lengthAdjust="spacing" textLength="79" x="601" y="185.1445">collaborator:</text><text fill="#000000" font-family="sans-serif" font-size="14" lengthAdjust="spacing" textLength="78" x="601.5" y="203.7656">Collaborator</text><line style="stroke:#181818;stroke-width:1.0;" x1="645.5" x2="687.5" y1="248.5703" y2="248.5703"/><line style="stroke:#181818;stroke-width:1.0;" x1="687.5" x2="687.5" y1="248.5703" y2="261.5703"/><line style="stroke:#181818;stroke-width:1.0;" x1="646.5" x2="687.5" y1="261.5703" y2="261.5703"/><polygon fill="#181818" points="656.5,257.5703,646.5,261.5703,656.5,265.5703,652.5,261.5703" style="stroke:#181818;stroke-width:1.0;"/><text fill="#000000" font-family="sans-serif" font-size="13" font-weight="bold" lengthAdjust="spacing" textLength="25" x="652.5" y="243.3076">19.2</text><text fill="#000000" font-family="sans-serif" font-size="13" lengthAdjust="spacing" textLength="187" x="681.5" y="243.3076">validateCollaborator(collaborator)</text><polygon fill="#181818" points="305,288.8613,295,292.8613,305,296.8613,301,292.8613" style="stroke:#181818;stroke-width:1.0;"/><line style="stroke:#181818;stroke-width:1.0;stroke-dasharray:2.0,2.0;" x1="299" x2="639.5" y1="292.8613" y2="292.8613"/><text fill="#000000" font-family="sans-serif" font-size="13" font-weight="bold" lengthAdjust="spacing" textLength="25" x="311" y="287.5986">19.3</text><text fill="#000000" font-family="sans-serif" font-size="13" lengthAdjust="spacing" textLength="67" x="340" y="287.5986">collaborator</text><line style="stroke:#181818;stroke-width:1.0;" x1="294" x2="341" y1="319.1523" y2="319.1523"/><line style="stroke:#181818;stroke-width:1.0;" x1="341" x2="341" y1="319.1523" y2="332.1523"/><line style="stroke:#181818;stroke-width:1.0;" x1="300" x2="341" y1="332.1523" y2="332.1523"/><polygon fill="#181818" points="310,328.1523,300,332.1523,310,336.1523,306,332.1523" style="stroke:#181818;stroke-width:1.0;"/><text fill="#000000" font-family="sans-serif" font-size="13" font-weight="bold" lengthAdjust="spacing" textLength="25" x="306" y="313.8896">19.4</text><text fill="#000000" font-family="sans-serif" font-size="13" lengthAdjust="spacing" textLength="165" x="335" y="313.8896">addCollaborator(collaborator)</text><line style="stroke:#181818;stroke-width:1.0;" x1="299" x2="346" y1="363.4434" y2="363.4434"/><line style="stroke:#181818;stroke-width:1.0;" x1="346" x2="346" y1="363.4434" y2="376.4434"/><line style="stroke:#181818;stroke-width:1.0;" x1="305" x2="346" y1="376.4434" y2="376.4434"/><polygon fill="#181818" points="315,372.4434,305,376.4434,315,380.4434,311,376.4434" style="stroke:#181818;stroke-width:1.0;"/><text fill="#000000" font-family="sans-serif" font-size="13" font-weight="bold" lengthAdjust="spacing" textLength="25" x="311" y="358.1807">19.5</text><text fill="#000000" font-family="sans-serif" font-size="13" lengthAdjust="spacing" textLength="187" x="340" y="358.1807">validateCollaborator(collaborator)</text><line style="stroke:#181818;stroke-width:1.0;stroke-dasharray:2.0,2.0;" x1="304" x2="346" y1="417.7344" y2="417.7344"/><line style="stroke:#181818;stroke-width:1.0;stroke-dasharray:2.0,2.0;" x1="346" x2="346" y1="417.7344" y2="430.7344"/><line style="stroke:#181818;stroke-width:1.0;stroke-dasharray:2.0,2.0;" x1="299" x2="346" y1="430.7344" y2="430.7344"/><polygon fill="#181818" points="309,426.7344,299,430.7344,309,434.7344,305,430.7344" style="stroke:#181818;stroke-width:1.0;"/><text fill="#000000" font-family="sans-serif" font-size="13" font-weight="bold" lengthAdjust="spacing" textLength="25" x="311" y="412.4717">19.6</text><text fill="#000000" font-family="sans-serif" font-size="13" lengthAdjust="spacing" textLength="53" x="340" y="412.4717">true/false</text><line style="stroke:#181818;stroke-width:1.0;stroke-dasharray:2.0,2.0;" x1="299" x2="341" y1="462.0254" y2="462.0254"/><line style="stroke:#181818;stroke-width:1.0;stroke-dasharray:2.0,2.0;" x1="341" x2="341" y1="462.0254" y2="475.0254"/><line style="stroke:#181818;stroke-width:1.0;stroke-dasharray:2.0,2.0;" x1="294" x2="341" y1="475.0254" y2="475.0254"/><polygon fill="#181818" points="304,471.0254,294,475.0254,304,479.0254,300,475.0254" style="stroke:#181818;stroke-width:1.0;"/><text fill="#000000" font-family="sans-serif" font-size="13" font-weight="bold" lengthAdjust="spacing" textLength="25" x="306" y="456.7627">19.7</text><text fill="#000000" font-family="sans-serif" font-size="13" lengthAdjust="spacing" textLength="53" x="335" y="456.7627">true/false</text><polygon fill="#181818" points="11,504.3164,1,508.3164,11,512.3164,7,508.3164" style="stroke:#181818;stroke-width:1.0;"/><line style="stroke:#181818;stroke-width:1.0;stroke-dasharray:2.0,2.0;" x1="5" x2="283" y1="508.3164" y2="508.3164"/><text fill="#000000" font-family="sans-serif" font-size="13" font-weight="bold" lengthAdjust="spacing" textLength="14" x="17" y="503.0537">20</text><text fill="#000000" font-family="sans-serif" font-size="13" lengthAdjust="spacing" textLength="67" x="35" y="503.0537">collaborator</text><!--SRC=[lLHDJyCm3BtdLrWxiQa3neqASHaNhd3TnKrC5vOl9UdG_ZtfAg6ih5q12PyY-yL-VdOITj8uzAX1MsFvrbjD47r3B7n57F8TrlGQ3uh04uzeQfK3mXQ5_P2cXZTKWHXZoHybbmvDX1ctIc5bFKRhNyZP8DFXK6xC-cnW1XZWV6WuRo_RjnoCOHEjQNH57bRtRFauK0BAr68jGoIV0wuCQYgWaZvk1SPqt1WKMeOWhO7EWq9u2g58KbPI7I6aKQe2dfz0M0xnu98tOLmIKUu9EZu5lDjgpdeKhrV9qS9IxY4v85djRUDWxQcFOmCDzbfVB4hWnzl_qIDaThQxKqXhURHFleGzAjbIEnbMlXdp2md7De4F4XDqWVqqyRFdq4exqWGRLQst4xydyKCvBv4PrJvdD3Q5zZkwwNwM2ICOglx7ocnwsHP5HdGlixkOlUoxM_QmN4xTEVO9]--></g></svg>