<?xml version="1.0" encoding="us-ascii" standalone="no"?><svg xmlns="http://www.w3.org/2000/svg" xmlns:xlink="http://www.w3.org/1999/xlink" contentStyleType="text/css" height="1294px" preserveAspectRatio="none" style="width:1564px;height:1294px;background:#FFFFFF;" version="1.1" viewBox="0 0 1564 1294" width="1564px" zoomAndPan="magnify"><defs/><g><!--class RegisterCollaboratorController--><g id="elem_RegisterCollaboratorController"><rect codeLine="12" fill="#F1F1F1" height="159.7266" id="RegisterCollaboratorController" rx="2.5" ry="2.5" style="stroke:#181818;stroke-width:0.5;" width="420" x="842.5" y="7"/><ellipse cx="951.75" cy="23" fill="#ADD1B2" rx="11" ry="11" style="stroke:#181818;stroke-width:1.0;"/><path d="M954.5156,18.875 Q954.6719,18.6563 954.8594,18.5469 Q955.0469,18.4375 955.2656,18.4375 Q955.6406,18.4375 955.875,18.7031 Q956.1094,18.9531 956.1094,19.5625 L956.1094,21.0156 Q956.1094,21.625 955.875,21.8906 Q955.6406,22.1563 955.2656,22.1563 Q954.9219,22.1563 954.7188,21.9531 Q954.5156,21.7656 954.4063,21.25 Q954.3594,20.8906 954.1719,20.7031 Q953.8438,20.3281 953.2344,20.1094 Q952.625,19.8906 952,19.8906 Q951.2344,19.8906 950.5938,20.2188 Q949.9688,20.5469 949.4688,21.2969 Q948.9844,22.0469 948.9844,23.0781 L948.9844,24.1719 Q948.9844,25.4063 949.875,26.2344 Q950.7656,27.0469 952.3594,27.0469 Q953.2969,27.0469 953.9531,26.7969 Q954.3438,26.6406 954.7656,26.2031 Q955.0313,25.9375 955.1719,25.8594 Q955.3281,25.7813 955.5313,25.7813 Q955.8594,25.7813 956.1094,26.0469 Q956.375,26.2969 956.375,26.6406 Q956.375,26.9844 956.0313,27.3906 Q955.5313,27.9688 954.7344,28.2969 Q953.6563,28.75 952.3594,28.75 Q950.8438,28.75 949.6406,28.125 Q948.6563,27.625 947.9688,26.5625 Q947.2813,25.4844 947.2813,24.2031 L947.2813,23.0469 Q947.2813,21.7188 947.8906,20.5781 Q948.5156,19.4219 949.6094,18.8125 Q950.7031,18.1875 951.9375,18.1875 Q952.6719,18.1875 953.3125,18.3594 Q953.9688,18.5156 954.5156,18.875 Z " fill="#000000"/><text fill="#000000" font-family="sans-serif" font-size="14" lengthAdjust="spacing" textLength="193" x="972.25" y="28.7969">RegisterCollaboratorController</text><line style="stroke:#181818;stroke-width:0.5;" x1="843.5" x2="1261.5" y1="39" y2="39"/><line style="stroke:#181818;stroke-width:0.5;" x1="843.5" x2="1261.5" y1="47" y2="47"/><text fill="#000000" font-family="sans-serif" font-size="14" lengthAdjust="spacing" textLength="211" x="848.5" y="66.1074">+RegisterCollaboratorController()</text><text fill="#000000" font-family="sans-serif" font-size="14" lengthAdjust="spacing" textLength="404" x="848.5" y="84.7285">+registerCollaborator(name, birthdate, admission date, address,</text><text fill="#000000" font-family="sans-serif" font-size="14" lengthAdjust="spacing" textLength="357" x="848.5" y="103.3496">mobile, email, ID doc type, respective number, job name)</text><text fill="#000000" font-family="sans-serif" font-size="14" lengthAdjust="spacing" textLength="345" x="848.5" y="121.9707">+registerAddress(streetName, postCode, doorNumber)</text><text fill="#000000" font-family="sans-serif" font-size="14" lengthAdjust="spacing" textLength="82" x="848.5" y="140.5918">+getJobList()</text><text fill="#000000" font-family="sans-serif" font-size="14" lengthAdjust="spacing" textLength="167" x="848.5" y="159.2129">+getJobByName(jobName)</text></g><!--class RegisterCollaboratorUI--><g id="elem_RegisterCollaboratorUI"><rect codeLine="21" fill="#F1F1F1" height="48" id="RegisterCollaboratorUI" rx="2.5" ry="2.5" style="stroke:#181818;stroke-width:0.5;" width="175" x="632" y="63"/><ellipse cx="647" cy="79" fill="#ADD1B2" rx="11" ry="11" style="stroke:#181818;stroke-width:1.0;"/><path d="M649.7656,74.875 Q649.9219,74.6563 650.1094,74.5469 Q650.2969,74.4375 650.5156,74.4375 Q650.8906,74.4375 651.125,74.7031 Q651.3594,74.9531 651.3594,75.5625 L651.3594,77.0156 Q651.3594,77.625 651.125,77.8906 Q650.8906,78.1563 650.5156,78.1563 Q650.1719,78.1563 649.9688,77.9531 Q649.7656,77.7656 649.6563,77.25 Q649.6094,76.8906 649.4219,76.7031 Q649.0938,76.3281 648.4844,76.1094 Q647.875,75.8906 647.25,75.8906 Q646.4844,75.8906 645.8438,76.2188 Q645.2188,76.5469 644.7188,77.2969 Q644.2344,78.0469 644.2344,79.0781 L644.2344,80.1719 Q644.2344,81.4063 645.125,82.2344 Q646.0156,83.0469 647.6094,83.0469 Q648.5469,83.0469 649.2031,82.7969 Q649.5938,82.6406 650.0156,82.2031 Q650.2813,81.9375 650.4219,81.8594 Q650.5781,81.7813 650.7813,81.7813 Q651.1094,81.7813 651.3594,82.0469 Q651.625,82.2969 651.625,82.6406 Q651.625,82.9844 651.2813,83.3906 Q650.7813,83.9688 649.9844,84.2969 Q648.9063,84.75 647.6094,84.75 Q646.0938,84.75 644.8906,84.125 Q643.9063,83.625 643.2188,82.5625 Q642.5313,81.4844 642.5313,80.2031 L642.5313,79.0469 Q642.5313,77.7188 643.1406,76.5781 Q643.7656,75.4219 644.8594,74.8125 Q645.9531,74.1875 647.1875,74.1875 Q647.9219,74.1875 648.5625,74.3594 Q649.2188,74.5156 649.7656,74.875 Z " fill="#000000"/><text fill="#000000" font-family="sans-serif" font-size="14" lengthAdjust="spacing" textLength="143" x="661" y="84.7969">RegisterCollaboratorUI</text><line style="stroke:#181818;stroke-width:0.5;" x1="633" x2="806" y1="95" y2="95"/><line style="stroke:#181818;stroke-width:0.5;" x1="633" x2="806" y1="103" y2="103"/></g><!--class Collaborator--><g id="elem_Collaborator"><rect codeLine="24" fill="#F1F1F1" height="252.832" id="Collaborator" rx="2.5" ry="2.5" style="stroke:#181818;stroke-width:0.5;" width="618" x="269.5" y="705"/><ellipse cx="535.25" cy="721" fill="#ADD1B2" rx="11" ry="11" style="stroke:#181818;stroke-width:1.0;"/><path d="M538.0156,716.875 Q538.1719,716.6563 538.3594,716.5469 Q538.5469,716.4375 538.7656,716.4375 Q539.1406,716.4375 539.375,716.7031 Q539.6094,716.9531 539.6094,717.5625 L539.6094,719.0156 Q539.6094,719.625 539.375,719.8906 Q539.1406,720.1563 538.7656,720.1563 Q538.4219,720.1563 538.2188,719.9531 Q538.0156,719.7656 537.9063,719.25 Q537.8594,718.8906 537.6719,718.7031 Q537.3438,718.3281 536.7344,718.1094 Q536.125,717.8906 535.5,717.8906 Q534.7344,717.8906 534.0938,718.2188 Q533.4688,718.5469 532.9688,719.2969 Q532.4844,720.0469 532.4844,721.0781 L532.4844,722.1719 Q532.4844,723.4063 533.375,724.2344 Q534.2656,725.0469 535.8594,725.0469 Q536.7969,725.0469 537.4531,724.7969 Q537.8438,724.6406 538.2656,724.2031 Q538.5313,723.9375 538.6719,723.8594 Q538.8281,723.7813 539.0313,723.7813 Q539.3594,723.7813 539.6094,724.0469 Q539.875,724.2969 539.875,724.6406 Q539.875,724.9844 539.5313,725.3906 Q539.0313,725.9688 538.2344,726.2969 Q537.1563,726.75 535.8594,726.75 Q534.3438,726.75 533.1406,726.125 Q532.1563,725.625 531.4688,724.5625 Q530.7813,723.4844 530.7813,722.2031 L530.7813,721.0469 Q530.7813,719.7188 531.3906,718.5781 Q532.0156,717.4219 533.1094,716.8125 Q534.2031,716.1875 535.4375,716.1875 Q536.1719,716.1875 536.8125,716.3594 Q537.4688,716.5156 538.0156,716.875 Z " fill="#000000"/><text fill="#000000" font-family="sans-serif" font-size="14" lengthAdjust="spacing" textLength="78" x="555.75" y="726.7969">Collaborator</text><line style="stroke:#181818;stroke-width:0.5;" x1="270.5" x2="886.5" y1="737" y2="737"/><text fill="#000000" font-family="sans-serif" font-size="14" lengthAdjust="spacing" textLength="81" x="275.5" y="756.1074">-String name</text><text fill="#000000" font-family="sans-serif" font-size="14" lengthAdjust="spacing" textLength="95" x="275.5" y="774.7285">-List&lt;Skill&gt; skill</text><text fill="#000000" font-family="sans-serif" font-size="14" lengthAdjust="spacing" textLength="50" x="275.5" y="793.3496">-Job job</text><text fill="#000000" font-family="sans-serif" font-size="14" lengthAdjust="spacing" textLength="111" x="275.5" y="811.9707">-Date dateOfBirth</text><text fill="#000000" font-family="sans-serif" font-size="14" lengthAdjust="spacing" textLength="132" x="275.5" y="830.5918">-Date admissionDate</text><text fill="#000000" font-family="sans-serif" font-size="14" lengthAdjust="spacing" textLength="112" x="275.5" y="849.2129">-Address address</text><text fill="#000000" font-family="sans-serif" font-size="14" lengthAdjust="spacing" textLength="135" x="275.5" y="867.834">-String phoneNumber</text><text fill="#000000" font-family="sans-serif" font-size="14" lengthAdjust="spacing" textLength="79" x="275.5" y="886.4551">-String email</text><text fill="#000000" font-family="sans-serif" font-size="14" lengthAdjust="spacing" textLength="135" x="275.5" y="905.0762">-Document document</text><line style="stroke:#181818;stroke-width:0.5;" x1="270.5" x2="886.5" y1="912.5898" y2="912.5898"/><text fill="#000000" font-family="sans-serif" font-size="14" lengthAdjust="spacing" textLength="217" x="275.5" y="931.6973">-validateCollaborator(collaborator)</text><text fill="#000000" font-family="sans-serif" font-size="14" lengthAdjust="spacing" textLength="606" x="275.5" y="950.3184">+Collaborator(name, job, dateOfBirth, admissionDate, address, phoneNumber, email, document)</text></g><!--class Address--><g id="elem_Address"><rect codeLine="39" fill="#F1F1F1" height="141.1055" id="Address" rx="2.5" ry="2.5" style="stroke:#181818;stroke-width:0.5;" width="309" x="1170" y="1037"/><ellipse cx="1294.25" cy="1053" fill="#ADD1B2" rx="11" ry="11" style="stroke:#181818;stroke-width:1.0;"/><path d="M1297.0156,1048.875 Q1297.1719,1048.6563 1297.3594,1048.5469 Q1297.5469,1048.4375 1297.7656,1048.4375 Q1298.1406,1048.4375 1298.375,1048.7031 Q1298.6094,1048.9531 1298.6094,1049.5625 L1298.6094,1051.0156 Q1298.6094,1051.625 1298.375,1051.8906 Q1298.1406,1052.1563 1297.7656,1052.1563 Q1297.4219,1052.1563 1297.2188,1051.9531 Q1297.0156,1051.7656 1296.9063,1051.25 Q1296.8594,1050.8906 1296.6719,1050.7031 Q1296.3438,1050.3281 1295.7344,1050.1094 Q1295.125,1049.8906 1294.5,1049.8906 Q1293.7344,1049.8906 1293.0938,1050.2188 Q1292.4688,1050.5469 1291.9688,1051.2969 Q1291.4844,1052.0469 1291.4844,1053.0781 L1291.4844,1054.1719 Q1291.4844,1055.4063 1292.375,1056.2344 Q1293.2656,1057.0469 1294.8594,1057.0469 Q1295.7969,1057.0469 1296.4531,1056.7969 Q1296.8438,1056.6406 1297.2656,1056.2031 Q1297.5313,1055.9375 1297.6719,1055.8594 Q1297.8281,1055.7813 1298.0313,1055.7813 Q1298.3594,1055.7813 1298.6094,1056.0469 Q1298.875,1056.2969 1298.875,1056.6406 Q1298.875,1056.9844 1298.5313,1057.3906 Q1298.0313,1057.9688 1297.2344,1058.2969 Q1296.1563,1058.75 1294.8594,1058.75 Q1293.3438,1058.75 1292.1406,1058.125 Q1291.1563,1057.625 1290.4688,1056.5625 Q1289.7813,1055.4844 1289.7813,1054.2031 L1289.7813,1053.0469 Q1289.7813,1051.7188 1290.3906,1050.5781 Q1291.0156,1049.4219 1292.1094,1048.8125 Q1293.2031,1048.1875 1294.4375,1048.1875 Q1295.1719,1048.1875 1295.8125,1048.3594 Q1296.4688,1048.5156 1297.0156,1048.875 Z " fill="#000000"/><text fill="#000000" font-family="sans-serif" font-size="14" lengthAdjust="spacing" textLength="52" x="1314.75" y="1058.7969">Address</text><line style="stroke:#181818;stroke-width:0.5;" x1="1171" x2="1478" y1="1069" y2="1069"/><text fill="#000000" font-family="sans-serif" font-size="14" lengthAdjust="spacing" textLength="118" x="1176" y="1088.1074">-String streetName</text><text fill="#000000" font-family="sans-serif" font-size="14" lengthAdjust="spacing" textLength="85" x="1176" y="1106.7285">-int postCode</text><text fill="#000000" font-family="sans-serif" font-size="14" lengthAdjust="spacing" textLength="102" x="1176" y="1125.3496">-int doorNumber</text><line style="stroke:#181818;stroke-width:0.5;" x1="1171" x2="1478" y1="1132.8633" y2="1132.8633"/><text fill="#000000" font-family="sans-serif" font-size="14" lengthAdjust="spacing" textLength="297" x="1176" y="1151.9707">+Address(streetName, postCode, doorNumber)</text><text fill="#000000" font-family="sans-serif" font-size="14" lengthAdjust="spacing" textLength="167" x="1176" y="1170.5918">-validateAddress(address)</text></g><!--class HumanResourcesManager--><g id="elem_HumanResourcesManager"><rect codeLine="48" fill="#F1F1F1" height="48" id="HumanResourcesManager" rx="2.5" ry="2.5" style="stroke:#181818;stroke-width:0.5;" width="200" x="478.5" y="1239"/><ellipse cx="493.5" cy="1255" fill="#ADD1B2" rx="11" ry="11" style="stroke:#181818;stroke-width:1.0;"/><path d="M496.2656,1250.875 Q496.4219,1250.6563 496.6094,1250.5469 Q496.7969,1250.4375 497.0156,1250.4375 Q497.3906,1250.4375 497.625,1250.7031 Q497.8594,1250.9531 497.8594,1251.5625 L497.8594,1253.0156 Q497.8594,1253.625 497.625,1253.8906 Q497.3906,1254.1563 497.0156,1254.1563 Q496.6719,1254.1563 496.4688,1253.9531 Q496.2656,1253.7656 496.1563,1253.25 Q496.1094,1252.8906 495.9219,1252.7031 Q495.5938,1252.3281 494.9844,1252.1094 Q494.375,1251.8906 493.75,1251.8906 Q492.9844,1251.8906 492.3438,1252.2188 Q491.7188,1252.5469 491.2188,1253.2969 Q490.7344,1254.0469 490.7344,1255.0781 L490.7344,1256.1719 Q490.7344,1257.4063 491.625,1258.2344 Q492.5156,1259.0469 494.1094,1259.0469 Q495.0469,1259.0469 495.7031,1258.7969 Q496.0938,1258.6406 496.5156,1258.2031 Q496.7813,1257.9375 496.9219,1257.8594 Q497.0781,1257.7813 497.2813,1257.7813 Q497.6094,1257.7813 497.8594,1258.0469 Q498.125,1258.2969 498.125,1258.6406 Q498.125,1258.9844 497.7813,1259.3906 Q497.2813,1259.9688 496.4844,1260.2969 Q495.4063,1260.75 494.1094,1260.75 Q492.5938,1260.75 491.3906,1260.125 Q490.4063,1259.625 489.7188,1258.5625 Q489.0313,1257.4844 489.0313,1256.2031 L489.0313,1255.0469 Q489.0313,1253.7188 489.6406,1252.5781 Q490.2656,1251.4219 491.3594,1250.8125 Q492.4531,1250.1875 493.6875,1250.1875 Q494.4219,1250.1875 495.0625,1250.3594 Q495.7188,1250.5156 496.2656,1250.875 Z " fill="#000000"/><text fill="#000000" font-family="sans-serif" font-size="14" lengthAdjust="spacing" textLength="168" x="507.5" y="1260.7969">HumanResourcesManager</text><line style="stroke:#181818;stroke-width:0.5;" x1="479.5" x2="677.5" y1="1271" y2="1271"/><line style="stroke:#181818;stroke-width:0.5;" x1="479.5" x2="677.5" y1="1279" y2="1279"/></g><!--class Repositories--><g id="elem_Repositories"><rect codeLine="51" fill="#F1F1F1" height="141.1055" id="Repositories" rx="2.5" ry="2.5" style="stroke:#181818;stroke-width:0.5;" width="196" x="782.5" y="246"/><ellipse cx="836.75" cy="262" fill="#ADD1B2" rx="11" ry="11" style="stroke:#181818;stroke-width:1.0;"/><path d="M839.5156,257.875 Q839.6719,257.6563 839.8594,257.5469 Q840.0469,257.4375 840.2656,257.4375 Q840.6406,257.4375 840.875,257.7031 Q841.1094,257.9531 841.1094,258.5625 L841.1094,260.0156 Q841.1094,260.625 840.875,260.8906 Q840.6406,261.1563 840.2656,261.1563 Q839.9219,261.1563 839.7188,260.9531 Q839.5156,260.7656 839.4063,260.25 Q839.3594,259.8906 839.1719,259.7031 Q838.8438,259.3281 838.2344,259.1094 Q837.625,258.8906 837,258.8906 Q836.2344,258.8906 835.5938,259.2188 Q834.9688,259.5469 834.4688,260.2969 Q833.9844,261.0469 833.9844,262.0781 L833.9844,263.1719 Q833.9844,264.4063 834.875,265.2344 Q835.7656,266.0469 837.3594,266.0469 Q838.2969,266.0469 838.9531,265.7969 Q839.3438,265.6406 839.7656,265.2031 Q840.0313,264.9375 840.1719,264.8594 Q840.3281,264.7813 840.5313,264.7813 Q840.8594,264.7813 841.1094,265.0469 Q841.375,265.2969 841.375,265.6406 Q841.375,265.9844 841.0313,266.3906 Q840.5313,266.9688 839.7344,267.2969 Q838.6563,267.75 837.3594,267.75 Q835.8438,267.75 834.6406,267.125 Q833.6563,266.625 832.9688,265.5625 Q832.2813,264.4844 832.2813,263.2031 L832.2813,262.0469 Q832.2813,260.7188 832.8906,259.5781 Q833.5156,258.4219 834.6094,257.8125 Q835.7031,257.1875 836.9375,257.1875 Q837.6719,257.1875 838.3125,257.3594 Q838.9688,257.5156 839.5156,257.875 Z " fill="#000000"/><text fill="#000000" font-family="sans-serif" font-size="14" lengthAdjust="spacing" textLength="79" x="857.25" y="267.7969">Repositories</text><line style="stroke:#181818;stroke-width:0.5;" x1="783.5" x2="977.5" y1="278" y2="278"/><line style="stroke:#181818;stroke-width:0.5;" x1="783.5" x2="977.5" y1="286" y2="286"/><text fill="#000000" font-family="sans-serif" font-size="14" lengthAdjust="spacing" textLength="94" x="788.5" y="305.1074">-Repositories()</text><text fill="#000000" font-family="sans-serif" font-size="14" lengthAdjust="spacing" textLength="182" x="788.5" y="323.7285">+getInstance() : Repositories</text><text fill="#000000" font-family="sans-serif" font-size="14" lengthAdjust="spacing" textLength="128" x="788.5" y="342.3496">+getJobRepository()</text><text fill="#000000" font-family="sans-serif" font-size="14" lengthAdjust="spacing" textLength="184" x="788.5" y="360.9707">+getCollaboratorRepository()</text><text fill="#000000" font-family="sans-serif" font-size="14" lengthAdjust="spacing" textLength="158" x="788.5" y="379.5918">+getAddressRepository()</text></g><!--class JobRepository--><g id="elem_JobRepository"><rect codeLine="60" fill="#F1F1F1" height="103.8633" id="JobRepository" rx="2.5" ry="2.5" style="stroke:#181818;stroke-width:0.5;" width="179" x="1092" y="779.5"/><ellipse cx="1132.65" cy="795.5" fill="#ADD1B2" rx="11" ry="11" style="stroke:#181818;stroke-width:1.0;"/><path d="M1135.4156,791.375 Q1135.5719,791.1563 1135.7594,791.0469 Q1135.9469,790.9375 1136.1656,790.9375 Q1136.5406,790.9375 1136.775,791.2031 Q1137.0094,791.4531 1137.0094,792.0625 L1137.0094,793.5156 Q1137.0094,794.125 1136.775,794.3906 Q1136.5406,794.6563 1136.1656,794.6563 Q1135.8219,794.6563 1135.6188,794.4531 Q1135.4156,794.2656 1135.3063,793.75 Q1135.2594,793.3906 1135.0719,793.2031 Q1134.7438,792.8281 1134.1344,792.6094 Q1133.525,792.3906 1132.9,792.3906 Q1132.1344,792.3906 1131.4938,792.7188 Q1130.8688,793.0469 1130.3688,793.7969 Q1129.8844,794.5469 1129.8844,795.5781 L1129.8844,796.6719 Q1129.8844,797.9063 1130.775,798.7344 Q1131.6656,799.5469 1133.2594,799.5469 Q1134.1969,799.5469 1134.8531,799.2969 Q1135.2438,799.1406 1135.6656,798.7031 Q1135.9313,798.4375 1136.0719,798.3594 Q1136.2281,798.2813 1136.4313,798.2813 Q1136.7594,798.2813 1137.0094,798.5469 Q1137.275,798.7969 1137.275,799.1406 Q1137.275,799.4844 1136.9313,799.8906 Q1136.4313,800.4688 1135.6344,800.7969 Q1134.5563,801.25 1133.2594,801.25 Q1131.7438,801.25 1130.5406,800.625 Q1129.5563,800.125 1128.8688,799.0625 Q1128.1813,797.9844 1128.1813,796.7031 L1128.1813,795.5469 Q1128.1813,794.2188 1128.7906,793.0781 Q1129.4156,791.9219 1130.5094,791.3125 Q1131.6031,790.6875 1132.8375,790.6875 Q1133.5719,790.6875 1134.2125,790.8594 Q1134.8688,791.0156 1135.4156,791.375 Z " fill="#000000"/><text fill="#000000" font-family="sans-serif" font-size="14" lengthAdjust="spacing" textLength="90" x="1152.35" y="801.2969">JobRepository</text><line style="stroke:#181818;stroke-width:0.5;" x1="1093" x2="1270" y1="811.5" y2="811.5"/><text fill="#000000" font-family="sans-serif" font-size="14" lengthAdjust="spacing" textLength="92" x="1098" y="830.6074">-List &lt;Job&gt; job</text><line style="stroke:#181818;stroke-width:0.5;" x1="1093" x2="1270" y1="838.1211" y2="838.1211"/><text fill="#000000" font-family="sans-serif" font-size="14" lengthAdjust="spacing" textLength="82" x="1098" y="857.2285">+getJobList()</text><text fill="#000000" font-family="sans-serif" font-size="14" lengthAdjust="spacing" textLength="167" x="1098" y="875.8496">+getJobByName(jobName)</text></g><!--class AddressRepository--><g id="elem_AddressRepository"><rect codeLine="67" fill="#F1F1F1" height="141.1055" id="AddressRepository" rx="2.5" ry="2.5" style="stroke:#181818;stroke-width:0.5;" width="179" x="1378" y="246"/><ellipse cx="1405.15" cy="262" fill="#ADD1B2" rx="11" ry="11" style="stroke:#181818;stroke-width:1.0;"/><path d="M1407.9156,257.875 Q1408.0719,257.6563 1408.2594,257.5469 Q1408.4469,257.4375 1408.6656,257.4375 Q1409.0406,257.4375 1409.275,257.7031 Q1409.5094,257.9531 1409.5094,258.5625 L1409.5094,260.0156 Q1409.5094,260.625 1409.275,260.8906 Q1409.0406,261.1563 1408.6656,261.1563 Q1408.3219,261.1563 1408.1188,260.9531 Q1407.9156,260.7656 1407.8063,260.25 Q1407.7594,259.8906 1407.5719,259.7031 Q1407.2438,259.3281 1406.6344,259.1094 Q1406.025,258.8906 1405.4,258.8906 Q1404.6344,258.8906 1403.9938,259.2188 Q1403.3688,259.5469 1402.8688,260.2969 Q1402.3844,261.0469 1402.3844,262.0781 L1402.3844,263.1719 Q1402.3844,264.4063 1403.275,265.2344 Q1404.1656,266.0469 1405.7594,266.0469 Q1406.6969,266.0469 1407.3531,265.7969 Q1407.7438,265.6406 1408.1656,265.2031 Q1408.4313,264.9375 1408.5719,264.8594 Q1408.7281,264.7813 1408.9313,264.7813 Q1409.2594,264.7813 1409.5094,265.0469 Q1409.775,265.2969 1409.775,265.6406 Q1409.775,265.9844 1409.4313,266.3906 Q1408.9313,266.9688 1408.1344,267.2969 Q1407.0563,267.75 1405.7594,267.75 Q1404.2438,267.75 1403.0406,267.125 Q1402.0563,266.625 1401.3688,265.5625 Q1400.6813,264.4844 1400.6813,263.2031 L1400.6813,262.0469 Q1400.6813,260.7188 1401.2906,259.5781 Q1401.9156,258.4219 1403.0094,257.8125 Q1404.1031,257.1875 1405.3375,257.1875 Q1406.0719,257.1875 1406.7125,257.3594 Q1407.3688,257.5156 1407.9156,257.875 Z " fill="#000000"/><text fill="#000000" font-family="sans-serif" font-size="14" lengthAdjust="spacing" textLength="120" x="1421.85" y="267.7969">AddressRepository</text><line style="stroke:#181818;stroke-width:0.5;" x1="1379" x2="1556" y1="278" y2="278"/><text fill="#000000" font-family="sans-serif" font-size="14" lengthAdjust="spacing" textLength="92" x="1384" y="297.1074">-List &lt;Job&gt; job</text><line style="stroke:#181818;stroke-width:0.5;" x1="1379" x2="1556" y1="304.6211" y2="304.6211"/><text fill="#000000" font-family="sans-serif" font-size="14" lengthAdjust="spacing" textLength="82" x="1384" y="323.7285">+getJobList()</text><text fill="#000000" font-family="sans-serif" font-size="14" lengthAdjust="spacing" textLength="167" x="1384" y="342.3496">+getJobByName(jobName)</text><text fill="#000000" font-family="sans-serif" font-size="14" lengthAdjust="spacing" textLength="142" x="1384" y="360.9707">-addAddress(address)</text><text fill="#000000" font-family="sans-serif" font-size="14" lengthAdjust="spacing" textLength="167" x="1384" y="379.5918">-validateAddress(address)</text></g><!--class CollaboratorRepository--><g id="elem_CollaboratorRepository"><rect codeLine="76" fill="#F1F1F1" height="159.7266" id="CollaboratorRepository" rx="2.5" ry="2.5" style="stroke:#181818;stroke-width:0.5;" width="420" x="256.5" y="466"/><ellipse cx="389.25" cy="482" fill="#ADD1B2" rx="11" ry="11" style="stroke:#181818;stroke-width:1.0;"/><path d="M392.0156,477.875 Q392.1719,477.6563 392.3594,477.5469 Q392.5469,477.4375 392.7656,477.4375 Q393.1406,477.4375 393.375,477.7031 Q393.6094,477.9531 393.6094,478.5625 L393.6094,480.0156 Q393.6094,480.625 393.375,480.8906 Q393.1406,481.1563 392.7656,481.1563 Q392.4219,481.1563 392.2188,480.9531 Q392.0156,480.7656 391.9063,480.25 Q391.8594,479.8906 391.6719,479.7031 Q391.3438,479.3281 390.7344,479.1094 Q390.125,478.8906 389.5,478.8906 Q388.7344,478.8906 388.0938,479.2188 Q387.4688,479.5469 386.9688,480.2969 Q386.4844,481.0469 386.4844,482.0781 L386.4844,483.1719 Q386.4844,484.4063 387.375,485.2344 Q388.2656,486.0469 389.8594,486.0469 Q390.7969,486.0469 391.4531,485.7969 Q391.8438,485.6406 392.2656,485.2031 Q392.5313,484.9375 392.6719,484.8594 Q392.8281,484.7813 393.0313,484.7813 Q393.3594,484.7813 393.6094,485.0469 Q393.875,485.2969 393.875,485.6406 Q393.875,485.9844 393.5313,486.3906 Q393.0313,486.9688 392.2344,487.2969 Q391.1563,487.75 389.8594,487.75 Q388.3438,487.75 387.1406,487.125 Q386.1563,486.625 385.4688,485.5625 Q384.7813,484.4844 384.7813,483.2031 L384.7813,482.0469 Q384.7813,480.7188 385.3906,479.5781 Q386.0156,478.4219 387.1094,477.8125 Q388.2031,477.1875 389.4375,477.1875 Q390.1719,477.1875 390.8125,477.3594 Q391.4688,477.5156 392.0156,477.875 Z " fill="#000000"/><text fill="#000000" font-family="sans-serif" font-size="14" lengthAdjust="spacing" textLength="146" x="409.75" y="487.7969">CollaboratorRepository</text><line style="stroke:#181818;stroke-width:0.5;" x1="257.5" x2="675.5" y1="498" y2="498"/><text fill="#000000" font-family="sans-serif" font-size="14" lengthAdjust="spacing" textLength="204" x="262.5" y="517.1074">-List &lt;Collaborator&gt; collaborator</text><line style="stroke:#181818;stroke-width:0.5;" x1="257.5" x2="675.5" y1="524.6211" y2="524.6211"/><text fill="#000000" font-family="sans-serif" font-size="14" lengthAdjust="spacing" textLength="192" x="262.5" y="543.7285">-addCollaborator(collaborator)</text><text fill="#000000" font-family="sans-serif" font-size="14" lengthAdjust="spacing" textLength="217" x="262.5" y="562.3496">-validateCollaborator(collaborator)</text><text fill="#000000" font-family="sans-serif" font-size="14" lengthAdjust="spacing" textLength="404" x="262.5" y="580.9707">+registerCollaborator(name, birthdate, admission date, address,</text><text fill="#000000" font-family="sans-serif" font-size="14" lengthAdjust="spacing" textLength="318" x="262.5" y="599.5918">mobile, email, ID doc type, respective number, job)</text><text fill="#000000" font-family="sans-serif" font-size="14" lengthAdjust="spacing" textLength="238" x="262.5" y="618.2129">-registerDocument(docType, number)</text></g><!--class Job--><g id="elem_Job"><rect codeLine="85" fill="#F1F1F1" height="66.6211" id="Job" rx="2.5" ry="2.5" style="stroke:#181818;stroke-width:0.5;" width="93" x="945" y="798"/><ellipse cx="977.55" cy="814" fill="#ADD1B2" rx="11" ry="11" style="stroke:#181818;stroke-width:1.0;"/><path d="M980.3156,809.875 Q980.4719,809.6563 980.6594,809.5469 Q980.8469,809.4375 981.0656,809.4375 Q981.4406,809.4375 981.675,809.7031 Q981.9094,809.9531 981.9094,810.5625 L981.9094,812.0156 Q981.9094,812.625 981.675,812.8906 Q981.4406,813.1563 981.0656,813.1563 Q980.7219,813.1563 980.5188,812.9531 Q980.3156,812.7656 980.2063,812.25 Q980.1594,811.8906 979.9719,811.7031 Q979.6438,811.3281 979.0344,811.1094 Q978.425,810.8906 977.8,810.8906 Q977.0344,810.8906 976.3938,811.2188 Q975.7688,811.5469 975.2688,812.2969 Q974.7844,813.0469 974.7844,814.0781 L974.7844,815.1719 Q974.7844,816.4063 975.675,817.2344 Q976.5656,818.0469 978.1594,818.0469 Q979.0969,818.0469 979.7531,817.7969 Q980.1438,817.6406 980.5656,817.2031 Q980.8313,816.9375 980.9719,816.8594 Q981.1281,816.7813 981.3313,816.7813 Q981.6594,816.7813 981.9094,817.0469 Q982.175,817.2969 982.175,817.6406 Q982.175,817.9844 981.8313,818.3906 Q981.3313,818.9688 980.5344,819.2969 Q979.4563,819.75 978.1594,819.75 Q976.6438,819.75 975.4406,819.125 Q974.4563,818.625 973.7688,817.5625 Q973.0813,816.4844 973.0813,815.2031 L973.0813,814.0469 Q973.0813,812.7188 973.6906,811.5781 Q974.3156,810.4219 975.4094,809.8125 Q976.5031,809.1875 977.7375,809.1875 Q978.4719,809.1875 979.1125,809.3594 Q979.7688,809.5156 980.3156,809.875 Z " fill="#000000"/><text fill="#000000" font-family="sans-serif" font-size="14" lengthAdjust="spacing" textLength="22" x="995.45" y="819.7969">Job</text><line style="stroke:#181818;stroke-width:0.5;" x1="946" x2="1037" y1="830" y2="830"/><text fill="#000000" font-family="sans-serif" font-size="14" lengthAdjust="spacing" textLength="81" x="951" y="849.1074">-String name</text><line style="stroke:#181818;stroke-width:0.5;" x1="946" x2="1037" y1="856.6211" y2="856.6211"/></g><!--class Document--><g id="elem_Document"><rect codeLine="89" fill="#F1F1F1" height="122.4844" id="Document" rx="2.5" ry="2.5" style="stroke:#181818;stroke-width:0.5;" width="205" x="7" y="770.5"/><ellipse cx="73.25" cy="786.5" fill="#ADD1B2" rx="11" ry="11" style="stroke:#181818;stroke-width:1.0;"/><path d="M76.0156,782.375 Q76.1719,782.1563 76.3594,782.0469 Q76.5469,781.9375 76.7656,781.9375 Q77.1406,781.9375 77.375,782.2031 Q77.6094,782.4531 77.6094,783.0625 L77.6094,784.5156 Q77.6094,785.125 77.375,785.3906 Q77.1406,785.6563 76.7656,785.6563 Q76.4219,785.6563 76.2188,785.4531 Q76.0156,785.2656 75.9063,784.75 Q75.8594,784.3906 75.6719,784.2031 Q75.3438,783.8281 74.7344,783.6094 Q74.125,783.3906 73.5,783.3906 Q72.7344,783.3906 72.0938,783.7188 Q71.4688,784.0469 70.9688,784.7969 Q70.4844,785.5469 70.4844,786.5781 L70.4844,787.6719 Q70.4844,788.9063 71.375,789.7344 Q72.2656,790.5469 73.8594,790.5469 Q74.7969,790.5469 75.4531,790.2969 Q75.8438,790.1406 76.2656,789.7031 Q76.5313,789.4375 76.6719,789.3594 Q76.8281,789.2813 77.0313,789.2813 Q77.3594,789.2813 77.6094,789.5469 Q77.875,789.7969 77.875,790.1406 Q77.875,790.4844 77.5313,790.8906 Q77.0313,791.4688 76.2344,791.7969 Q75.1563,792.25 73.8594,792.25 Q72.3438,792.25 71.1406,791.625 Q70.1563,791.125 69.4688,790.0625 Q68.7813,788.9844 68.7813,787.7031 L68.7813,786.5469 Q68.7813,785.2188 69.3906,784.0781 Q70.0156,782.9219 71.1094,782.3125 Q72.2031,781.6875 73.4375,781.6875 Q74.1719,781.6875 74.8125,781.8594 Q75.4688,782.0156 76.0156,782.375 Z " fill="#000000"/><text fill="#000000" font-family="sans-serif" font-size="14" lengthAdjust="spacing" textLength="64" x="93.75" y="792.2969">Document</text><line style="stroke:#181818;stroke-width:0.5;" x1="8" x2="211" y1="802.5" y2="802.5"/><text fill="#000000" font-family="sans-serif" font-size="14" lengthAdjust="spacing" textLength="101" x="13" y="821.6074">-String docType</text><text fill="#000000" font-family="sans-serif" font-size="14" lengthAdjust="spacing" textLength="72" x="13" y="840.2285">-int number</text><line style="stroke:#181818;stroke-width:0.5;" x1="8" x2="211" y1="847.7422" y2="847.7422"/><text fill="#000000" font-family="sans-serif" font-size="14" lengthAdjust="spacing" textLength="193" x="13" y="866.8496">+Document(docType, number)</text><text fill="#000000" font-family="sans-serif" font-size="14" lengthAdjust="spacing" textLength="175" x="13" y="885.4707">-validate(docType, number)</text></g><!--reverse link Collaborator to HumanResourcesManager--><g id="link_Collaborator_HumanResourcesManager"><path codeLine="97" d="M578.5,976.17 C578.5,1075.2 578.5,1186.94 578.5,1238.96 " fill="none" id="Collaborator-backto-HumanResourcesManager" style="stroke:#181818;stroke-width:1.0;"/><polygon fill="none" points="578.5,958.17,572.5,976.17,584.5,976.17,578.5,958.17" style="stroke:#181818;stroke-width:1.0;"/></g><!--reverse link HumanResourcesManager to Collaborator--><g id="link_HumanResourcesManager_Collaborator"><path codeLine="101" d="M590.3878,1233.3674 C596.3078,1219.0874 600.5,1209 600.5,1209 C600.5,1209 600.5,988 600.5,988 C600.5,988 598.76,975.7 596.26,958.02 " fill="none" id="HumanResourcesManager-backto-Collaborator" style="stroke:#181818;stroke-width:1.0;"/><polygon fill="#181818" points="588.09,1238.91,595.2317,1232.128,590.0048,1234.2912,587.8416,1229.0643,588.09,1238.91" style="stroke:#181818;stroke-width:1.0;"/><text fill="#000000" font-family="sans-serif" font-size="13" lengthAdjust="spacing" textLength="59" x="601.5" y="1113.0283">createdBy</text></g><!--link Collaborator to Job--><g id="link_Collaborator_Job"><path codeLine="98" d="M887.55,831.5 C909.09,831.5 922.64,831.5 938.82,831.5 " fill="none" id="Collaborator-to-Job" style="stroke:#181818;stroke-width:1.0;"/><polygon fill="#181818" points="944.82,831.5,935.82,827.5,939.82,831.5,935.82,835.5,944.82,831.5" style="stroke:#181818;stroke-width:1.0;"/><text fill="#000000" font-family="sans-serif" font-size="13" lengthAdjust="spacing" textLength="21" x="905.75" y="824.5283">has</text></g><!--link Collaborator to Address--><g id="link_Collaborator_Address"><path codeLine="99" d="M887.58,946.02 C984.85,981.75 1082.4679,1017.6012 1164.1679,1047.6112 " fill="none" id="Collaborator-to-Address" style="stroke:#181818;stroke-width:1.0;"/><polygon fill="#181818" points="1169.8,1049.68,1162.7311,1042.8221,1165.1066,1047.956,1159.9727,1050.3316,1169.8,1049.68" style="stroke:#181818;stroke-width:1.0;"/><text fill="#000000" font-family="sans-serif" font-size="13" lengthAdjust="spacing" textLength="25" x="1040.5" y="1003.0283">lives</text><text fill="#000000" font-family="sans-serif" font-size="13" lengthAdjust="spacing" textLength="5" x="895.8563" y="945.8706">*</text><text fill="#000000" font-family="sans-serif" font-size="13" lengthAdjust="spacing" textLength="7" x="1155.1372" y="1043.5004">1</text></g><!--link RegisterCollaboratorController to Repositories--><g id="link_RegisterCollaboratorController_Repositories"><path codeLine="103" d="M992.58,167.25 C973.29,192.77 955.6782,216.0637 936.9382,240.8537 " fill="none" id="RegisterCollaboratorController-to-Repositories" style="stroke:#181818;stroke-width:1.0;stroke-dasharray:7.0,7.0;"/><polygon fill="#181818" points="933.32,245.64,941.9382,240.8727,936.3352,241.6514,935.5564,236.0484,933.32,245.64" style="stroke:#181818;stroke-width:1.0;"/><text fill="#000000" font-family="sans-serif" font-size="13" lengthAdjust="spacing" textLength="67" x="967.5" y="212.0283">repositories</text></g><!--link RegisterCollaboratorController to JobRepository--><g id="link_RegisterCollaboratorController_JobRepository"><path codeLine="104" d="M1083.75,167.22 C1090.42,184.12 1095.5,197 1095.5,197 C1095.5,197 1105.5,246 1105.5,246 C1105.5,246 1155.5663,631.0301 1174.0863,773.4501 " fill="none" id="RegisterCollaboratorController-to-JobRepository" style="stroke:#181818;stroke-width:1.0;stroke-dasharray:7.0,7.0;"/><polygon fill="#181818" points="1174.86,779.4,1177.666,769.9593,1174.2152,774.4417,1169.7328,770.991,1174.86,779.4" style="stroke:#181818;stroke-width:1.0;"/><text fill="#000000" font-family="sans-serif" font-size="13" lengthAdjust="spacing" textLength="7" x="1166.4974" y="768.3139">1</text></g><!--link RegisterCollaboratorController to CollaboratorRepository--><g id="link_RegisterCollaboratorController_CollaboratorRepository"><path codeLine="105" d="M842.39,160.8 C831.24,164.67 824.5,167 824.5,167 C824.5,167 703.5,197 703.5,197 C703.5,197 593.8971,357.9306 523.9571,460.6406 " fill="none" id="RegisterCollaboratorController-to-CollaboratorRepository" style="stroke:#181818;stroke-width:1.0;stroke-dasharray:7.0,7.0;"/><polygon fill="#181818" points="520.58,465.6,528.9519,460.4123,523.3942,461.4672,522.3394,455.9096,520.58,465.6" style="stroke:#181818;stroke-width:1.0;"/><text fill="#000000" font-family="sans-serif" font-size="13" lengthAdjust="spacing" textLength="7" x="518.0848" y="454.7358">1</text></g><!--link RegisterCollaboratorController to AddressRepository--><g id="link_RegisterCollaboratorController_AddressRepository"><path codeLine="106" d="M1262.7,164.89 C1312.01,182.92 1350.5,197 1350.5,197 C1350.5,197 1369.0848,215.8201 1394.5448,241.6101 " fill="none" id="RegisterCollaboratorController-to-AddressRepository" style="stroke:#181818;stroke-width:1.0;stroke-dasharray:7.0,7.0;"/><polygon fill="#181818" points="1398.76,245.88,1395.2837,236.665,1395.2473,242.3218,1389.5906,242.2854,1398.76,245.88" style="stroke:#181818;stroke-width:1.0;"/><text fill="#000000" font-family="sans-serif" font-size="13" lengthAdjust="spacing" textLength="7" x="1384.3103" y="234.7586">1</text></g><!--link RegisterCollaboratorController to Collaborator--><g id="link_RegisterCollaboratorController_Collaborator"><path codeLine="107" d="M908.58,167.23 C836.97,206.65 765.5,246 765.5,246 C765.5,246 694.5,626 694.5,626 C694.5,626 676.7206,657.3513 652.7806,699.5513 " fill="none" id="RegisterCollaboratorController-to-Collaborator" style="stroke:#181818;stroke-width:1.0;stroke-dasharray:7.0,7.0;"/><polygon fill="#181818" points="649.82,704.77,657.74,698.9156,652.2871,700.4211,650.7817,694.9682,649.82,704.77" style="stroke:#181818;stroke-width:1.0;"/></g><!--link RegisterCollaboratorController to Job--><g id="link_RegisterCollaboratorController_Job"><path codeLine="108" d="M1064.07,167.46 C1069.79,206.81 1075.5,246 1075.5,246 C1075.5,246 1088.5,466 1088.5,466 C1088.5,466 1088.5,626 1088.5,626 C1088.5,626 1037.0717,734.4191 1009.6517,792.2191 " fill="none" id="RegisterCollaboratorController-to-Job" style="stroke:#181818;stroke-width:1.0;stroke-dasharray:7.0,7.0;"/><polygon fill="#181818" points="1007.08,797.64,1014.5515,791.223,1009.2231,793.1226,1007.3235,787.7942,1007.08,797.64" style="stroke:#181818;stroke-width:1.0;"/></g><!--link RegisterCollaboratorController to Address--><g id="link_RegisterCollaboratorController_Address"><path codeLine="109" d="M1147.25,167.25 C1225.75,232.91 1324.5,315.5 1324.5,315.5 C1324.5,315.5 1324.5,315.5 1324.5,832.5 C1324.5,832.5 1324.5,949.47 1324.5,1030.65 " fill="none" id="RegisterCollaboratorController-to-Address" style="stroke:#181818;stroke-width:1.0;stroke-dasharray:7.0,7.0;"/><polygon fill="#181818" points="1324.5,1036.65,1328.5,1027.65,1324.5,1031.65,1320.5,1027.65,1324.5,1036.65" style="stroke:#181818;stroke-width:1.0;"/></g><!--link RegisterCollaboratorController to Document--><g id="link_RegisterCollaboratorController_Document"><path codeLine="110" d="M842.39,160.8 C831.24,164.67 824.5,167 824.5,167 C824.5,167 683.5,197 683.5,197 C683.5,197 569.5,246 569.5,246 C569.5,246 238.5,466 238.5,466 C238.5,466 169.4418,661.1238 132.8018,764.6538 " fill="none" id="RegisterCollaboratorController-to-Document" style="stroke:#181818;stroke-width:1.0;stroke-dasharray:7.0,7.0;"/><polygon fill="#181818" points="130.8,770.31,137.5735,763.1602,132.4681,765.5965,130.0319,760.4911,130.8,770.31" style="stroke:#181818;stroke-width:1.0;"/></g><!--link RegisterCollaboratorUI to RegisterCollaboratorController--><g id="link_RegisterCollaboratorUI_RegisterCollaboratorController"><path codeLine="112" d="M807.23,87 C820.85,87 830.5,87 830.5,87 C830.5,87 829.08,87 836.38,87 " fill="none" id="RegisterCollaboratorUI-to-RegisterCollaboratorController" style="stroke:#181818;stroke-width:1.0;stroke-dasharray:7.0,7.0;"/><polygon fill="#181818" points="842.38,87,833.38,83,837.38,87,833.38,91,842.38,87" style="stroke:#181818;stroke-width:1.0;"/></g><!--link Repositories to Repositories--><g id="link_Repositories_Repositories"><path codeLine="114" d="M978.52,296.6 C998.87,298.69 1013.5,305.33 1013.5,316.5 C1013.5,327.67 1004.8386,333.697 984.4886,335.787 " fill="none" id="Repositories-to-Repositories" style="stroke:#181818;stroke-width:1.0;"/><polygon fill="#181818" points="978.52,336.4,987.8816,339.4596,983.4938,335.8892,987.0642,331.5014,978.52,336.4" style="stroke:#181818;stroke-width:1.0;"/><text fill="#000000" font-family="sans-serif" font-size="13" lengthAdjust="spacing" textLength="49" x="1019.5" y="322.0283">instance</text></g><!--link Repositories to JobRepository--><g id="link_Repositories_JobRepository"><path codeLine="115" d="M921.41,387.22 C982.73,491.73 1094.0337,681.4349 1148.3337,773.9849 " fill="none" id="Repositories-to-JobRepository" style="stroke:#181818;stroke-width:1.0;"/><polygon fill="#181818" points="1151.37,779.16,1150.2657,769.3733,1148.8398,774.8475,1143.3656,773.4216,1151.37,779.16" style="stroke:#181818;stroke-width:1.0;"/><text fill="#000000" font-family="sans-serif" font-size="13" lengthAdjust="spacing" textLength="79" x="1061.5" y="551.5283">jobRepository</text></g><!--link Repositories to AddressRepository--><g id="link_Repositories_AddressRepository"><path codeLine="116" d="M978.75,316.5 C1090.04,316.5 1263.89,316.5 1371.61,316.5 " fill="none" id="Repositories-to-AddressRepository" style="stroke:#181818;stroke-width:1.0;"/><polygon fill="#181818" points="1377.61,316.5,1368.61,312.5,1372.61,316.5,1368.61,320.5,1377.61,316.5" style="stroke:#181818;stroke-width:1.0;"/><text fill="#000000" font-family="sans-serif" font-size="13" lengthAdjust="spacing" textLength="108" x="1124.25" y="309.5283">addressRepository</text></g><!--link Repositories to CollaboratorRepository--><g id="link_Repositories_CollaboratorRepository"><path codeLine="117" d="M782.39,371.41 C731.1,399.6 672.5984,431.7405 615.8184,462.9405 " fill="none" id="Repositories-to-CollaboratorRepository" style="stroke:#181818;stroke-width:1.0;"/><polygon fill="#181818" points="610.56,465.83,620.3739,465.0014,614.942,463.4221,616.5213,457.9902,610.56,465.83" style="stroke:#181818;stroke-width:1.0;"/><text fill="#000000" font-family="sans-serif" font-size="13" lengthAdjust="spacing" textLength="129" x="698.5" y="432.0283">collaboratorRepository</text></g><!--link CollaboratorRepository to Collaborator--><g id="link_CollaboratorRepository_Collaborator"><path codeLine="119" d="M497.85,626.35 C507.49,650.75 516.1458,672.6695 526.6958,699.3795 " fill="none" id="CollaboratorRepository-to-Collaborator" style="stroke:#181818;stroke-width:1.0;"/><polygon fill="#181818" points="528.9,704.96,529.314,695.1198,527.0632,700.3096,521.8734,698.0588,528.9,704.96" style="stroke:#181818;stroke-width:1.0;"/></g><!--link CollaboratorRepository to Document--><g id="link_CollaboratorRepository_Document"><path codeLine="120" d="M358.69,626.23 C305.04,665.65 251.5,705 251.5,705 C251.5,705 218.5255,734.1363 182.0855,766.3463 " fill="none" id="CollaboratorRepository-to-Document" style="stroke:#181818;stroke-width:1.0;"/><polygon fill="#181818" points="177.59,770.32,186.9824,767.3565,181.3363,767.0086,181.6842,761.3624,177.59,770.32" style="stroke:#181818;stroke-width:1.0;"/></g><!--reverse link Job to JobRepository--><g id="link_Job_JobRepository"><path codeLine="122" d="M1044.47,831.5 C1060.62,831.5 1073.29,831.5 1091.7,831.5 " fill="none" id="Job-backto-JobRepository" style="stroke:#181818;stroke-width:1.0;"/><polygon fill="#181818" points="1038.47,831.5,1047.47,835.5,1043.47,831.5,1047.47,827.5,1038.47,831.5" style="stroke:#181818;stroke-width:1.0;"/><text fill="#000000" font-family="sans-serif" font-size="13" lengthAdjust="spacing" textLength="17" x="1056.5" y="824.5283">job</text></g><!--link AddressRepository to Address--><g id="link_AddressRepository_Address"><path codeLine="124" d="M1455.69,387.09 C1425.98,562.16 1350.5,1007 1350.5,1007 C1350.5,1007 1348.5872,1014.325 1344.2172,1031.045 " fill="none" id="AddressRepository-to-Address" style="stroke:#181818;stroke-width:1.0;"/><polygon fill="#181818" points="1342.7,1036.85,1348.8458,1029.154,1343.9643,1032.0125,1341.1058,1027.131,1342.7,1036.85" style="stroke:#181818;stroke-width:1.0;"/><text fill="#000000" font-family="sans-serif" font-size="13" lengthAdjust="spacing" textLength="46" x="1409.5" y="671.0283">address</text></g><!--reverse link Document to Collaborator--><g id="link_Document_Collaborator"><path codeLine="126" d="M218.13,831.5 C235.93,831.5 249.22,831.5 269.33,831.5 " fill="none" id="Document-backto-Collaborator" style="stroke:#181818;stroke-width:1.0;"/><polygon fill="#181818" points="212.13,831.5,221.13,835.5,217.13,831.5,221.13,827.5,212.13,831.5" style="stroke:#181818;stroke-width:1.0;"/><text fill="#000000" font-family="sans-serif" font-size="13" lengthAdjust="spacing" textLength="21" x="230.25" y="824.5283">has</text><text fill="#000000" font-family="sans-serif" font-size="13" lengthAdjust="spacing" textLength="7" x="219.9239" y="827.897">1</text><text fill="#000000" font-family="sans-serif" font-size="13" lengthAdjust="spacing" textLength="7" x="254.0247" y="828.3086">1</text></g><!--SRC=[nLN9Rjim4BtpAmQ-n6cjeBqAXe4iXxfeKo1kRxrGqiHc8v46IQTmbt_lK18bqfQN50NgYwLPtonlT66UX5nppIkeb5JvIgiAmUeDibwpvlaJN-B2Rai4ZRdbSbc61cR52_LTo2KyyjA4cb98jDirmbgLM_V2BWQKIbl50g-yvCPSMwj5jh4upvLSY1y8RnYxAF7HWbMWnN9beH0EZb2ICLOxmGCkXR6eRrLPyanfRXKzIwlf7JNyP0pez_g4tVYoDTC3PcF9Avn09hHT5TpI8oygOGp10FzUQ3Hc0bzbfJ9HaWWhBie9pE-WK3cugYSKtAmT_6S4kQaor1FufZ9muNVpNpSHnyPgH7jV0rWhOszLGK-5Klg-Zk3zbcZVg-m3-OvZqStMEOyfptsTvlUnndsPKyCwYr13SXSrMT2CQEmESYDmAQUB9r6MCp3khn5JPbTRyt97JQexzUdnnZKna7QTT6-Dl2tTDpNAkrufYKtbaRpkTXjMvPiAfNLzhn-Q3KZWcPV2WOX6cmSlld43iwTI9c45anXui041mcu9F9AW-xx8kAtzj1kne3Byr7j9F_rskL-sB8blX7ThiGVetcqgBX_Gg8tEqNpaagw13bVZ0Ic-eFu8D9vZIIGDrt0k3PsG7CUNa4P6qQPsYcte6mvZsA8j8r9sGAEuljlWbXQcf9lLI_hN7DfB_Qyor45eBdiZEdE0mrtRGHSQpI1aWXye1Jx1bXVGwZ-SLe_Hf_QtOKoEdsi_sH8ZN9YXMzVfk_CI6xK1UvBAaA27yqRp78GLNM6O_agI18O9kcEQpEfYKbXn4wj6hqQGa7hqTjGTefI-pi_4I3RC_QdB6WP98TT8c8kRBMCdFi9Ni_XWf3IGu0YSyhvga4PKFktKUWqpuToSUmG_np5KdMDFXPrZrc8vn_Ik-_GT-ChN4paMnda64qls9YZQcxvd5r_SrD4mQbzilNz1Kq_vWrx9xD1zIwCh5WHW1nnsOnspwvlgQ3LDXYfbRB-Wlig-DiQwE-BMZ8BjxchBspy0]--></g></svg>