<?xml version="1.0" encoding="us-ascii" standalone="no"?><svg xmlns="http://www.w3.org/2000/svg" xmlns:xlink="http://www.w3.org/1999/xlink" contentStyleType="text/css" height="1293px" preserveAspectRatio="none" style="width:1311px;height:1293px;background:#FFFFFF;" version="1.1" viewBox="0 0 1311 1293" width="1311px" zoomAndPan="magnify"><defs/><g><!--class RegisterCollaboratorController--><g id="elem_RegisterCollaboratorController"><rect codeLine="12" fill="#F1F1F1" height="159.7266" id="RegisterCollaboratorController" rx="2.5" ry="2.5" style="stroke:#181818;stroke-width:0.5;" width="420" x="720" y="7"/><ellipse cx="829.25" cy="23" fill="#ADD1B2" rx="11" ry="11" style="stroke:#181818;stroke-width:1.0;"/><path d="M832.0156,18.875 Q832.1719,18.6563 832.3594,18.5469 Q832.5469,18.4375 832.7656,18.4375 Q833.1406,18.4375 833.375,18.7031 Q833.6094,18.9531 833.6094,19.5625 L833.6094,21.0156 Q833.6094,21.625 833.375,21.8906 Q833.1406,22.1563 832.7656,22.1563 Q832.4219,22.1563 832.2188,21.9531 Q832.0156,21.7656 831.9063,21.25 Q831.8594,20.8906 831.6719,20.7031 Q831.3438,20.3281 830.7344,20.1094 Q830.125,19.8906 829.5,19.8906 Q828.7344,19.8906 828.0938,20.2188 Q827.4688,20.5469 826.9688,21.2969 Q826.4844,22.0469 826.4844,23.0781 L826.4844,24.1719 Q826.4844,25.4063 827.375,26.2344 Q828.2656,27.0469 829.8594,27.0469 Q830.7969,27.0469 831.4531,26.7969 Q831.8438,26.6406 832.2656,26.2031 Q832.5313,25.9375 832.6719,25.8594 Q832.8281,25.7813 833.0313,25.7813 Q833.3594,25.7813 833.6094,26.0469 Q833.875,26.2969 833.875,26.6406 Q833.875,26.9844 833.5313,27.3906 Q833.0313,27.9688 832.2344,28.2969 Q831.1563,28.75 829.8594,28.75 Q828.3438,28.75 827.1406,28.125 Q826.1563,27.625 825.4688,26.5625 Q824.7813,25.4844 824.7813,24.2031 L824.7813,23.0469 Q824.7813,21.7188 825.3906,20.5781 Q826.0156,19.4219 827.1094,18.8125 Q828.2031,18.1875 829.4375,18.1875 Q830.1719,18.1875 830.8125,18.3594 Q831.4688,18.5156 832.0156,18.875 Z " fill="#000000"/><text fill="#000000" font-family="sans-serif" font-size="14" lengthAdjust="spacing" textLength="193" x="849.75" y="28.7969">RegisterCollaboratorController</text><line style="stroke:#181818;stroke-width:0.5;" x1="721" x2="1139" y1="39" y2="39"/><line style="stroke:#181818;stroke-width:0.5;" x1="721" x2="1139" y1="47" y2="47"/><text fill="#000000" font-family="sans-serif" font-size="14" lengthAdjust="spacing" textLength="211" x="726" y="66.1074">+RegisterCollaboratorController()</text><text fill="#000000" font-family="sans-serif" font-size="14" lengthAdjust="spacing" textLength="404" x="726" y="84.7285">+registerCollaborator(name, birthdate, admission date, address,</text><text fill="#000000" font-family="sans-serif" font-size="14" lengthAdjust="spacing" textLength="357" x="726" y="103.3496">mobile, email, ID doc type, respective number, job name)</text><text fill="#000000" font-family="sans-serif" font-size="14" lengthAdjust="spacing" textLength="345" x="726" y="121.9707">+registerAddress(streetName, postCode, doorNumber)</text><text fill="#000000" font-family="sans-serif" font-size="14" lengthAdjust="spacing" textLength="82" x="726" y="140.5918">+getJobList()</text><text fill="#000000" font-family="sans-serif" font-size="14" lengthAdjust="spacing" textLength="167" x="726" y="159.2129">+getJobByName(jobName)</text></g><!--class RegisterCollaboratorUI--><g id="elem_RegisterCollaboratorUI"><rect codeLine="21" fill="#F1F1F1" height="48" id="RegisterCollaboratorUI" rx="2.5" ry="2.5" style="stroke:#181818;stroke-width:0.5;" width="175" x="509.5" y="63"/><ellipse cx="524.5" cy="79" fill="#ADD1B2" rx="11" ry="11" style="stroke:#181818;stroke-width:1.0;"/><path d="M527.2656,74.875 Q527.4219,74.6563 527.6094,74.5469 Q527.7969,74.4375 528.0156,74.4375 Q528.3906,74.4375 528.625,74.7031 Q528.8594,74.9531 528.8594,75.5625 L528.8594,77.0156 Q528.8594,77.625 528.625,77.8906 Q528.3906,78.1563 528.0156,78.1563 Q527.6719,78.1563 527.4688,77.9531 Q527.2656,77.7656 527.1563,77.25 Q527.1094,76.8906 526.9219,76.7031 Q526.5938,76.3281 525.9844,76.1094 Q525.375,75.8906 524.75,75.8906 Q523.9844,75.8906 523.3438,76.2188 Q522.7188,76.5469 522.2188,77.2969 Q521.7344,78.0469 521.7344,79.0781 L521.7344,80.1719 Q521.7344,81.4063 522.625,82.2344 Q523.5156,83.0469 525.1094,83.0469 Q526.0469,83.0469 526.7031,82.7969 Q527.0938,82.6406 527.5156,82.2031 Q527.7813,81.9375 527.9219,81.8594 Q528.0781,81.7813 528.2813,81.7813 Q528.6094,81.7813 528.8594,82.0469 Q529.125,82.2969 529.125,82.6406 Q529.125,82.9844 528.7813,83.3906 Q528.2813,83.9688 527.4844,84.2969 Q526.4063,84.75 525.1094,84.75 Q523.5938,84.75 522.3906,84.125 Q521.4063,83.625 520.7188,82.5625 Q520.0313,81.4844 520.0313,80.2031 L520.0313,79.0469 Q520.0313,77.7188 520.6406,76.5781 Q521.2656,75.4219 522.3594,74.8125 Q523.4531,74.1875 524.6875,74.1875 Q525.4219,74.1875 526.0625,74.3594 Q526.7188,74.5156 527.2656,74.875 Z " fill="#000000"/><text fill="#000000" font-family="sans-serif" font-size="14" lengthAdjust="spacing" textLength="143" x="538.5" y="84.7969">RegisterCollaboratorUI</text><line style="stroke:#181818;stroke-width:0.5;" x1="510.5" x2="683.5" y1="95" y2="95"/><line style="stroke:#181818;stroke-width:0.5;" x1="510.5" x2="683.5" y1="103" y2="103"/></g><!--class Collaborator--><g id="elem_Collaborator"><rect codeLine="24" fill="#F1F1F1" height="271.4531" id="Collaborator" rx="2.5" ry="2.5" style="stroke:#181818;stroke-width:0.5;" width="628" x="7" y="686"/><ellipse cx="277.75" cy="702" fill="#ADD1B2" rx="11" ry="11" style="stroke:#181818;stroke-width:1.0;"/><path d="M280.5156,697.875 Q280.6719,697.6563 280.8594,697.5469 Q281.0469,697.4375 281.2656,697.4375 Q281.6406,697.4375 281.875,697.7031 Q282.1094,697.9531 282.1094,698.5625 L282.1094,700.0156 Q282.1094,700.625 281.875,700.8906 Q281.6406,701.1563 281.2656,701.1563 Q280.9219,701.1563 280.7188,700.9531 Q280.5156,700.7656 280.4063,700.25 Q280.3594,699.8906 280.1719,699.7031 Q279.8438,699.3281 279.2344,699.1094 Q278.625,698.8906 278,698.8906 Q277.2344,698.8906 276.5938,699.2188 Q275.9688,699.5469 275.4688,700.2969 Q274.9844,701.0469 274.9844,702.0781 L274.9844,703.1719 Q274.9844,704.4063 275.875,705.2344 Q276.7656,706.0469 278.3594,706.0469 Q279.2969,706.0469 279.9531,705.7969 Q280.3438,705.6406 280.7656,705.2031 Q281.0313,704.9375 281.1719,704.8594 Q281.3281,704.7813 281.5313,704.7813 Q281.8594,704.7813 282.1094,705.0469 Q282.375,705.2969 282.375,705.6406 Q282.375,705.9844 282.0313,706.3906 Q281.5313,706.9688 280.7344,707.2969 Q279.6563,707.75 278.3594,707.75 Q276.8438,707.75 275.6406,707.125 Q274.6563,706.625 273.9688,705.5625 Q273.2813,704.4844 273.2813,703.2031 L273.2813,702.0469 Q273.2813,700.7188 273.8906,699.5781 Q274.5156,698.4219 275.6094,697.8125 Q276.7031,697.1875 277.9375,697.1875 Q278.6719,697.1875 279.3125,697.3594 Q279.9688,697.5156 280.5156,697.875 Z " fill="#000000"/><text fill="#000000" font-family="sans-serif" font-size="14" lengthAdjust="spacing" textLength="78" x="298.25" y="707.7969">Collaborator</text><line style="stroke:#181818;stroke-width:0.5;" x1="8" x2="634" y1="718" y2="718"/><text fill="#000000" font-family="sans-serif" font-size="14" lengthAdjust="spacing" textLength="81" x="13" y="737.1074">-String name</text><text fill="#000000" font-family="sans-serif" font-size="14" lengthAdjust="spacing" textLength="95" x="13" y="755.7285">-List&lt;Skill&gt; skill</text><text fill="#000000" font-family="sans-serif" font-size="14" lengthAdjust="spacing" textLength="50" x="13" y="774.3496">-Job job</text><text fill="#000000" font-family="sans-serif" font-size="14" lengthAdjust="spacing" textLength="111" x="13" y="792.9707">-Date dateOfBirth</text><text fill="#000000" font-family="sans-serif" font-size="14" lengthAdjust="spacing" textLength="132" x="13" y="811.5918">-Date admissionDate</text><text fill="#000000" font-family="sans-serif" font-size="14" lengthAdjust="spacing" textLength="112" x="13" y="830.2129">-Address address</text><text fill="#000000" font-family="sans-serif" font-size="14" lengthAdjust="spacing" textLength="113" x="13" y="848.834">-int phoneNumber</text><text fill="#000000" font-family="sans-serif" font-size="14" lengthAdjust="spacing" textLength="79" x="13" y="867.4551">-String email</text><text fill="#000000" font-family="sans-serif" font-size="14" lengthAdjust="spacing" textLength="38" x="13" y="886.0762">-int cc</text><text fill="#000000" font-family="sans-serif" font-size="14" lengthAdjust="spacing" textLength="101" x="13" y="904.6973">-int cardNumber</text><line style="stroke:#181818;stroke-width:0.5;" x1="8" x2="634" y1="912.2109" y2="912.2109"/><text fill="#000000" font-family="sans-serif" font-size="14" lengthAdjust="spacing" textLength="217" x="13" y="931.3184">-validateCollaborator(collaborator)</text><text fill="#000000" font-family="sans-serif" font-size="14" lengthAdjust="spacing" textLength="616" x="13" y="949.9395">+Collaborator(name, dateOfBirth, admissionDate, address, phoneNumber, email, cc, cardNumber)</text></g><!--class Address--><g id="elem_Address"><rect codeLine="40" fill="#F1F1F1" height="141.1055" id="Address" rx="2.5" ry="2.5" style="stroke:#181818;stroke-width:0.5;" width="309" x="917.5" y="1036"/><ellipse cx="1041.75" cy="1052" fill="#ADD1B2" rx="11" ry="11" style="stroke:#181818;stroke-width:1.0;"/><path d="M1044.5156,1047.875 Q1044.6719,1047.6563 1044.8594,1047.5469 Q1045.0469,1047.4375 1045.2656,1047.4375 Q1045.6406,1047.4375 1045.875,1047.7031 Q1046.1094,1047.9531 1046.1094,1048.5625 L1046.1094,1050.0156 Q1046.1094,1050.625 1045.875,1050.8906 Q1045.6406,1051.1563 1045.2656,1051.1563 Q1044.9219,1051.1563 1044.7188,1050.9531 Q1044.5156,1050.7656 1044.4063,1050.25 Q1044.3594,1049.8906 1044.1719,1049.7031 Q1043.8438,1049.3281 1043.2344,1049.1094 Q1042.625,1048.8906 1042,1048.8906 Q1041.2344,1048.8906 1040.5938,1049.2188 Q1039.9688,1049.5469 1039.4688,1050.2969 Q1038.9844,1051.0469 1038.9844,1052.0781 L1038.9844,1053.1719 Q1038.9844,1054.4063 1039.875,1055.2344 Q1040.7656,1056.0469 1042.3594,1056.0469 Q1043.2969,1056.0469 1043.9531,1055.7969 Q1044.3438,1055.6406 1044.7656,1055.2031 Q1045.0313,1054.9375 1045.1719,1054.8594 Q1045.3281,1054.7813 1045.5313,1054.7813 Q1045.8594,1054.7813 1046.1094,1055.0469 Q1046.375,1055.2969 1046.375,1055.6406 Q1046.375,1055.9844 1046.0313,1056.3906 Q1045.5313,1056.9688 1044.7344,1057.2969 Q1043.6563,1057.75 1042.3594,1057.75 Q1040.8438,1057.75 1039.6406,1057.125 Q1038.6563,1056.625 1037.9688,1055.5625 Q1037.2813,1054.4844 1037.2813,1053.2031 L1037.2813,1052.0469 Q1037.2813,1050.7188 1037.8906,1049.5781 Q1038.5156,1048.4219 1039.6094,1047.8125 Q1040.7031,1047.1875 1041.9375,1047.1875 Q1042.6719,1047.1875 1043.3125,1047.3594 Q1043.9688,1047.5156 1044.5156,1047.875 Z " fill="#000000"/><text fill="#000000" font-family="sans-serif" font-size="14" lengthAdjust="spacing" textLength="52" x="1062.25" y="1057.7969">Address</text><line style="stroke:#181818;stroke-width:0.5;" x1="918.5" x2="1225.5" y1="1068" y2="1068"/><text fill="#000000" font-family="sans-serif" font-size="14" lengthAdjust="spacing" textLength="118" x="923.5" y="1087.1074">-String streetName</text><text fill="#000000" font-family="sans-serif" font-size="14" lengthAdjust="spacing" textLength="85" x="923.5" y="1105.7285">-int postCode</text><text fill="#000000" font-family="sans-serif" font-size="14" lengthAdjust="spacing" textLength="102" x="923.5" y="1124.3496">-int doorNumber</text><line style="stroke:#181818;stroke-width:0.5;" x1="918.5" x2="1225.5" y1="1131.8633" y2="1131.8633"/><text fill="#000000" font-family="sans-serif" font-size="14" lengthAdjust="spacing" textLength="297" x="923.5" y="1150.9707">+Address(streetName, postCode, doorNumber)</text><text fill="#000000" font-family="sans-serif" font-size="14" lengthAdjust="spacing" textLength="167" x="923.5" y="1169.5918">-validateAddress(address)</text></g><!--class HumanResourcesManager--><g id="elem_HumanResourcesManager"><rect codeLine="49" fill="#F1F1F1" height="48" id="HumanResourcesManager" rx="2.5" ry="2.5" style="stroke:#181818;stroke-width:0.5;" width="200" x="221" y="1238"/><ellipse cx="236" cy="1254" fill="#ADD1B2" rx="11" ry="11" style="stroke:#181818;stroke-width:1.0;"/><path d="M238.7656,1249.875 Q238.9219,1249.6563 239.1094,1249.5469 Q239.2969,1249.4375 239.5156,1249.4375 Q239.8906,1249.4375 240.125,1249.7031 Q240.3594,1249.9531 240.3594,1250.5625 L240.3594,1252.0156 Q240.3594,1252.625 240.125,1252.8906 Q239.8906,1253.1563 239.5156,1253.1563 Q239.1719,1253.1563 238.9688,1252.9531 Q238.7656,1252.7656 238.6563,1252.25 Q238.6094,1251.8906 238.4219,1251.7031 Q238.0938,1251.3281 237.4844,1251.1094 Q236.875,1250.8906 236.25,1250.8906 Q235.4844,1250.8906 234.8438,1251.2188 Q234.2188,1251.5469 233.7188,1252.2969 Q233.2344,1253.0469 233.2344,1254.0781 L233.2344,1255.1719 Q233.2344,1256.4063 234.125,1257.2344 Q235.0156,1258.0469 236.6094,1258.0469 Q237.5469,1258.0469 238.2031,1257.7969 Q238.5938,1257.6406 239.0156,1257.2031 Q239.2813,1256.9375 239.4219,1256.8594 Q239.5781,1256.7813 239.7813,1256.7813 Q240.1094,1256.7813 240.3594,1257.0469 Q240.625,1257.2969 240.625,1257.6406 Q240.625,1257.9844 240.2813,1258.3906 Q239.7813,1258.9688 238.9844,1259.2969 Q237.9063,1259.75 236.6094,1259.75 Q235.0938,1259.75 233.8906,1259.125 Q232.9063,1258.625 232.2188,1257.5625 Q231.5313,1256.4844 231.5313,1255.2031 L231.5313,1254.0469 Q231.5313,1252.7188 232.1406,1251.5781 Q232.7656,1250.4219 233.8594,1249.8125 Q234.9531,1249.1875 236.1875,1249.1875 Q236.9219,1249.1875 237.5625,1249.3594 Q238.2188,1249.5156 238.7656,1249.875 Z " fill="#000000"/><text fill="#000000" font-family="sans-serif" font-size="14" lengthAdjust="spacing" textLength="168" x="250" y="1259.7969">HumanResourcesManager</text><line style="stroke:#181818;stroke-width:0.5;" x1="222" x2="420" y1="1270" y2="1270"/><line style="stroke:#181818;stroke-width:0.5;" x1="222" x2="420" y1="1278" y2="1278"/></g><!--class Repositories--><g id="elem_Repositories"><rect codeLine="52" fill="#F1F1F1" height="141.1055" id="Repositories" rx="2.5" ry="2.5" style="stroke:#181818;stroke-width:0.5;" width="196" x="602" y="246"/><ellipse cx="656.25" cy="262" fill="#ADD1B2" rx="11" ry="11" style="stroke:#181818;stroke-width:1.0;"/><path d="M659.0156,257.875 Q659.1719,257.6563 659.3594,257.5469 Q659.5469,257.4375 659.7656,257.4375 Q660.1406,257.4375 660.375,257.7031 Q660.6094,257.9531 660.6094,258.5625 L660.6094,260.0156 Q660.6094,260.625 660.375,260.8906 Q660.1406,261.1563 659.7656,261.1563 Q659.4219,261.1563 659.2188,260.9531 Q659.0156,260.7656 658.9063,260.25 Q658.8594,259.8906 658.6719,259.7031 Q658.3438,259.3281 657.7344,259.1094 Q657.125,258.8906 656.5,258.8906 Q655.7344,258.8906 655.0938,259.2188 Q654.4688,259.5469 653.9688,260.2969 Q653.4844,261.0469 653.4844,262.0781 L653.4844,263.1719 Q653.4844,264.4063 654.375,265.2344 Q655.2656,266.0469 656.8594,266.0469 Q657.7969,266.0469 658.4531,265.7969 Q658.8438,265.6406 659.2656,265.2031 Q659.5313,264.9375 659.6719,264.8594 Q659.8281,264.7813 660.0313,264.7813 Q660.3594,264.7813 660.6094,265.0469 Q660.875,265.2969 660.875,265.6406 Q660.875,265.9844 660.5313,266.3906 Q660.0313,266.9688 659.2344,267.2969 Q658.1563,267.75 656.8594,267.75 Q655.3438,267.75 654.1406,267.125 Q653.1563,266.625 652.4688,265.5625 Q651.7813,264.4844 651.7813,263.2031 L651.7813,262.0469 Q651.7813,260.7188 652.3906,259.5781 Q653.0156,258.4219 654.1094,257.8125 Q655.2031,257.1875 656.4375,257.1875 Q657.1719,257.1875 657.8125,257.3594 Q658.4688,257.5156 659.0156,257.875 Z " fill="#000000"/><text fill="#000000" font-family="sans-serif" font-size="14" lengthAdjust="spacing" textLength="79" x="676.75" y="267.7969">Repositories</text><line style="stroke:#181818;stroke-width:0.5;" x1="603" x2="797" y1="278" y2="278"/><line style="stroke:#181818;stroke-width:0.5;" x1="603" x2="797" y1="286" y2="286"/><text fill="#000000" font-family="sans-serif" font-size="14" lengthAdjust="spacing" textLength="94" x="608" y="305.1074">-Repositories()</text><text fill="#000000" font-family="sans-serif" font-size="14" lengthAdjust="spacing" textLength="182" x="608" y="323.7285">+getInstance() : Repositories</text><text fill="#000000" font-family="sans-serif" font-size="14" lengthAdjust="spacing" textLength="128" x="608" y="342.3496">+getJobRepository()</text><text fill="#000000" font-family="sans-serif" font-size="14" lengthAdjust="spacing" textLength="184" x="608" y="360.9707">+getCollaboratorRepository()</text><text fill="#000000" font-family="sans-serif" font-size="14" lengthAdjust="spacing" textLength="158" x="608" y="379.5918">+getAddressRepository()</text></g><!--class JobRepository--><g id="elem_JobRepository"><rect codeLine="61" fill="#F1F1F1" height="103.8633" id="JobRepository" rx="2.5" ry="2.5" style="stroke:#181818;stroke-width:0.5;" width="179" x="839.5" y="769.5"/><ellipse cx="880.15" cy="785.5" fill="#ADD1B2" rx="11" ry="11" style="stroke:#181818;stroke-width:1.0;"/><path d="M882.9156,781.375 Q883.0719,781.1563 883.2594,781.0469 Q883.4469,780.9375 883.6656,780.9375 Q884.0406,780.9375 884.275,781.2031 Q884.5094,781.4531 884.5094,782.0625 L884.5094,783.5156 Q884.5094,784.125 884.275,784.3906 Q884.0406,784.6563 883.6656,784.6563 Q883.3219,784.6563 883.1188,784.4531 Q882.9156,784.2656 882.8063,783.75 Q882.7594,783.3906 882.5719,783.2031 Q882.2438,782.8281 881.6344,782.6094 Q881.025,782.3906 880.4,782.3906 Q879.6344,782.3906 878.9938,782.7188 Q878.3688,783.0469 877.8688,783.7969 Q877.3844,784.5469 877.3844,785.5781 L877.3844,786.6719 Q877.3844,787.9063 878.275,788.7344 Q879.1656,789.5469 880.7594,789.5469 Q881.6969,789.5469 882.3531,789.2969 Q882.7438,789.1406 883.1656,788.7031 Q883.4313,788.4375 883.5719,788.3594 Q883.7281,788.2813 883.9313,788.2813 Q884.2594,788.2813 884.5094,788.5469 Q884.775,788.7969 884.775,789.1406 Q884.775,789.4844 884.4313,789.8906 Q883.9313,790.4688 883.1344,790.7969 Q882.0563,791.25 880.7594,791.25 Q879.2438,791.25 878.0406,790.625 Q877.0563,790.125 876.3688,789.0625 Q875.6813,787.9844 875.6813,786.7031 L875.6813,785.5469 Q875.6813,784.2188 876.2906,783.0781 Q876.9156,781.9219 878.0094,781.3125 Q879.1031,780.6875 880.3375,780.6875 Q881.0719,780.6875 881.7125,780.8594 Q882.3688,781.0156 882.9156,781.375 Z " fill="#000000"/><text fill="#000000" font-family="sans-serif" font-size="14" lengthAdjust="spacing" textLength="90" x="899.85" y="791.2969">JobRepository</text><line style="stroke:#181818;stroke-width:0.5;" x1="840.5" x2="1017.5" y1="801.5" y2="801.5"/><text fill="#000000" font-family="sans-serif" font-size="14" lengthAdjust="spacing" textLength="92" x="845.5" y="820.6074">-List &lt;Job&gt; job</text><line style="stroke:#181818;stroke-width:0.5;" x1="840.5" x2="1017.5" y1="828.1211" y2="828.1211"/><text fill="#000000" font-family="sans-serif" font-size="14" lengthAdjust="spacing" textLength="82" x="845.5" y="847.2285">+getJobList()</text><text fill="#000000" font-family="sans-serif" font-size="14" lengthAdjust="spacing" textLength="167" x="845.5" y="865.8496">+getJobByName(jobName)</text></g><!--class AddressRepository--><g id="elem_AddressRepository"><rect codeLine="68" fill="#F1F1F1" height="141.1055" id="AddressRepository" rx="2.5" ry="2.5" style="stroke:#181818;stroke-width:0.5;" width="179" x="1125.5" y="246"/><ellipse cx="1152.65" cy="262" fill="#ADD1B2" rx="11" ry="11" style="stroke:#181818;stroke-width:1.0;"/><path d="M1155.4156,257.875 Q1155.5719,257.6563 1155.7594,257.5469 Q1155.9469,257.4375 1156.1656,257.4375 Q1156.5406,257.4375 1156.775,257.7031 Q1157.0094,257.9531 1157.0094,258.5625 L1157.0094,260.0156 Q1157.0094,260.625 1156.775,260.8906 Q1156.5406,261.1563 1156.1656,261.1563 Q1155.8219,261.1563 1155.6188,260.9531 Q1155.4156,260.7656 1155.3063,260.25 Q1155.2594,259.8906 1155.0719,259.7031 Q1154.7438,259.3281 1154.1344,259.1094 Q1153.525,258.8906 1152.9,258.8906 Q1152.1344,258.8906 1151.4938,259.2188 Q1150.8688,259.5469 1150.3688,260.2969 Q1149.8844,261.0469 1149.8844,262.0781 L1149.8844,263.1719 Q1149.8844,264.4063 1150.775,265.2344 Q1151.6656,266.0469 1153.2594,266.0469 Q1154.1969,266.0469 1154.8531,265.7969 Q1155.2438,265.6406 1155.6656,265.2031 Q1155.9313,264.9375 1156.0719,264.8594 Q1156.2281,264.7813 1156.4313,264.7813 Q1156.7594,264.7813 1157.0094,265.0469 Q1157.275,265.2969 1157.275,265.6406 Q1157.275,265.9844 1156.9313,266.3906 Q1156.4313,266.9688 1155.6344,267.2969 Q1154.5563,267.75 1153.2594,267.75 Q1151.7438,267.75 1150.5406,267.125 Q1149.5563,266.625 1148.8688,265.5625 Q1148.1813,264.4844 1148.1813,263.2031 L1148.1813,262.0469 Q1148.1813,260.7188 1148.7906,259.5781 Q1149.4156,258.4219 1150.5094,257.8125 Q1151.6031,257.1875 1152.8375,257.1875 Q1153.5719,257.1875 1154.2125,257.3594 Q1154.8688,257.5156 1155.4156,257.875 Z " fill="#000000"/><text fill="#000000" font-family="sans-serif" font-size="14" lengthAdjust="spacing" textLength="120" x="1169.35" y="267.7969">AddressRepository</text><line style="stroke:#181818;stroke-width:0.5;" x1="1126.5" x2="1303.5" y1="278" y2="278"/><text fill="#000000" font-family="sans-serif" font-size="14" lengthAdjust="spacing" textLength="92" x="1131.5" y="297.1074">-List &lt;Job&gt; job</text><line style="stroke:#181818;stroke-width:0.5;" x1="1126.5" x2="1303.5" y1="304.6211" y2="304.6211"/><text fill="#000000" font-family="sans-serif" font-size="14" lengthAdjust="spacing" textLength="82" x="1131.5" y="323.7285">+getJobList()</text><text fill="#000000" font-family="sans-serif" font-size="14" lengthAdjust="spacing" textLength="167" x="1131.5" y="342.3496">+getJobByName(jobName)</text><text fill="#000000" font-family="sans-serif" font-size="14" lengthAdjust="spacing" textLength="142" x="1131.5" y="360.9707">-addAddress(address)</text><text fill="#000000" font-family="sans-serif" font-size="14" lengthAdjust="spacing" textLength="167" x="1131.5" y="379.5918">-validateAddress(address)</text></g><!--class CollaboratorRepository--><g id="elem_CollaboratorRepository"><rect codeLine="77" fill="#F1F1F1" height="141.1055" id="CollaboratorRepository" rx="2.5" ry="2.5" style="stroke:#181818;stroke-width:0.5;" width="420" x="76" y="466"/><ellipse cx="208.75" cy="482" fill="#ADD1B2" rx="11" ry="11" style="stroke:#181818;stroke-width:1.0;"/><path d="M211.5156,477.875 Q211.6719,477.6563 211.8594,477.5469 Q212.0469,477.4375 212.2656,477.4375 Q212.6406,477.4375 212.875,477.7031 Q213.1094,477.9531 213.1094,478.5625 L213.1094,480.0156 Q213.1094,480.625 212.875,480.8906 Q212.6406,481.1563 212.2656,481.1563 Q211.9219,481.1563 211.7188,480.9531 Q211.5156,480.7656 211.4063,480.25 Q211.3594,479.8906 211.1719,479.7031 Q210.8438,479.3281 210.2344,479.1094 Q209.625,478.8906 209,478.8906 Q208.2344,478.8906 207.5938,479.2188 Q206.9688,479.5469 206.4688,480.2969 Q205.9844,481.0469 205.9844,482.0781 L205.9844,483.1719 Q205.9844,484.4063 206.875,485.2344 Q207.7656,486.0469 209.3594,486.0469 Q210.2969,486.0469 210.9531,485.7969 Q211.3438,485.6406 211.7656,485.2031 Q212.0313,484.9375 212.1719,484.8594 Q212.3281,484.7813 212.5313,484.7813 Q212.8594,484.7813 213.1094,485.0469 Q213.375,485.2969 213.375,485.6406 Q213.375,485.9844 213.0313,486.3906 Q212.5313,486.9688 211.7344,487.2969 Q210.6563,487.75 209.3594,487.75 Q207.8438,487.75 206.6406,487.125 Q205.6563,486.625 204.9688,485.5625 Q204.2813,484.4844 204.2813,483.2031 L204.2813,482.0469 Q204.2813,480.7188 204.8906,479.5781 Q205.5156,478.4219 206.6094,477.8125 Q207.7031,477.1875 208.9375,477.1875 Q209.6719,477.1875 210.3125,477.3594 Q210.9688,477.5156 211.5156,477.875 Z " fill="#000000"/><text fill="#000000" font-family="sans-serif" font-size="14" lengthAdjust="spacing" textLength="146" x="229.25" y="487.7969">CollaboratorRepository</text><line style="stroke:#181818;stroke-width:0.5;" x1="77" x2="495" y1="498" y2="498"/><text fill="#000000" font-family="sans-serif" font-size="14" lengthAdjust="spacing" textLength="204" x="82" y="517.1074">-List &lt;Collaborator&gt; collaborator</text><line style="stroke:#181818;stroke-width:0.5;" x1="77" x2="495" y1="524.6211" y2="524.6211"/><text fill="#000000" font-family="sans-serif" font-size="14" lengthAdjust="spacing" textLength="192" x="82" y="543.7285">-addCollaborator(collaborator)</text><text fill="#000000" font-family="sans-serif" font-size="14" lengthAdjust="spacing" textLength="217" x="82" y="562.3496">-validateCollaborator(collaborator)</text><text fill="#000000" font-family="sans-serif" font-size="14" lengthAdjust="spacing" textLength="404" x="82" y="580.9707">+registerCollaborator(name, birthdate, admission date, address,</text><text fill="#000000" font-family="sans-serif" font-size="14" lengthAdjust="spacing" textLength="318" x="82" y="599.5918">mobile, email, ID doc type, respective number, job)</text></g><!--class Job--><g id="elem_Job"><rect codeLine="85" fill="#F1F1F1" height="66.6211" id="Job" rx="2.5" ry="2.5" style="stroke:#181818;stroke-width:0.5;" width="93" x="692.5" y="788"/><ellipse cx="725.05" cy="804" fill="#ADD1B2" rx="11" ry="11" style="stroke:#181818;stroke-width:1.0;"/><path d="M727.8156,799.875 Q727.9719,799.6563 728.1594,799.5469 Q728.3469,799.4375 728.5656,799.4375 Q728.9406,799.4375 729.175,799.7031 Q729.4094,799.9531 729.4094,800.5625 L729.4094,802.0156 Q729.4094,802.625 729.175,802.8906 Q728.9406,803.1563 728.5656,803.1563 Q728.2219,803.1563 728.0188,802.9531 Q727.8156,802.7656 727.7063,802.25 Q727.6594,801.8906 727.4719,801.7031 Q727.1438,801.3281 726.5344,801.1094 Q725.925,800.8906 725.3,800.8906 Q724.5344,800.8906 723.8938,801.2188 Q723.2688,801.5469 722.7688,802.2969 Q722.2844,803.0469 722.2844,804.0781 L722.2844,805.1719 Q722.2844,806.4063 723.175,807.2344 Q724.0656,808.0469 725.6594,808.0469 Q726.5969,808.0469 727.2531,807.7969 Q727.6438,807.6406 728.0656,807.2031 Q728.3313,806.9375 728.4719,806.8594 Q728.6281,806.7813 728.8313,806.7813 Q729.1594,806.7813 729.4094,807.0469 Q729.675,807.2969 729.675,807.6406 Q729.675,807.9844 729.3313,808.3906 Q728.8313,808.9688 728.0344,809.2969 Q726.9563,809.75 725.6594,809.75 Q724.1438,809.75 722.9406,809.125 Q721.9563,808.625 721.2688,807.5625 Q720.5813,806.4844 720.5813,805.2031 L720.5813,804.0469 Q720.5813,802.7188 721.1906,801.5781 Q721.8156,800.4219 722.9094,799.8125 Q724.0031,799.1875 725.2375,799.1875 Q725.9719,799.1875 726.6125,799.3594 Q727.2688,799.5156 727.8156,799.875 Z " fill="#000000"/><text fill="#000000" font-family="sans-serif" font-size="14" lengthAdjust="spacing" textLength="22" x="742.95" y="809.7969">Job</text><line style="stroke:#181818;stroke-width:0.5;" x1="693.5" x2="784.5" y1="820" y2="820"/><text fill="#000000" font-family="sans-serif" font-size="14" lengthAdjust="spacing" textLength="81" x="698.5" y="839.1074">-String name</text><line style="stroke:#181818;stroke-width:0.5;" x1="693.5" x2="784.5" y1="846.6211" y2="846.6211"/></g><!--reverse link Collaborator to HumanResourcesManager--><g id="link_Collaborator_HumanResourcesManager"><path codeLine="89" d="M321,975.04 C321,1075.5 321,1185.98 321,1237.8 " fill="none" id="Collaborator-backto-HumanResourcesManager" style="stroke:#181818;stroke-width:1.0;"/><polygon fill="none" points="321,957.04,315,975.04,327,975.04,321,957.04" style="stroke:#181818;stroke-width:1.0;"/></g><!--reverse link HumanResourcesManager to Collaborator--><g id="link_HumanResourcesManager_Collaborator"><path codeLine="93" d="M332.8878,1232.3674 C338.8078,1218.0874 343,1208 343,1208 C343,1208 343,987 343,987 C343,987 341.38,974.88 339.02,957.21 " fill="none" id="HumanResourcesManager-backto-Collaborator" style="stroke:#181818;stroke-width:1.0;"/><polygon fill="#181818" points="330.59,1237.91,337.7317,1231.128,332.5048,1233.2912,330.3416,1228.0643,330.59,1237.91" style="stroke:#181818;stroke-width:1.0;"/><text fill="#000000" font-family="sans-serif" font-size="13" lengthAdjust="spacing" textLength="59" x="344" y="1112.0283">createdBy</text></g><!--link Collaborator to Job--><g id="link_Collaborator_Job"><path codeLine="90" d="M635.14,821.5 C656.69,821.5 670.23,821.5 686.4,821.5 " fill="none" id="Collaborator-to-Job" style="stroke:#181818;stroke-width:1.0;"/><polygon fill="#181818" points="692.4,821.5,683.4,817.5,687.4,821.5,683.4,825.5,692.4,821.5" style="stroke:#181818;stroke-width:1.0;"/><text fill="#000000" font-family="sans-serif" font-size="13" lengthAdjust="spacing" textLength="21" x="653.25" y="814.5283">has</text></g><!--link Collaborator to Address--><g id="link_Collaborator_Address"><path codeLine="91" d="M635.08,941.83 C659.54,951.13 675,957 675,957 C675,957 800.2803,1003.8577 911.7503,1045.5577 " fill="none" id="Collaborator-to-Address" style="stroke:#181818;stroke-width:1.0;"/><polygon fill="#181818" points="917.37,1047.66,910.342,1040.7602,912.687,1045.9081,907.539,1048.253,917.37,1047.66" style="stroke:#181818;stroke-width:1.0;"/><text fill="#000000" font-family="sans-serif" font-size="13" lengthAdjust="spacing" textLength="25" x="804" y="1002.0283">lives</text><text fill="#000000" font-family="sans-serif" font-size="13" lengthAdjust="spacing" textLength="5" x="643.4892" y="941.8267">*</text><text fill="#000000" font-family="sans-serif" font-size="13" lengthAdjust="spacing" textLength="7" x="902.7106" y="1041.431">1</text></g><!--link RegisterCollaboratorController to Repositories--><g id="link_RegisterCollaboratorController_Repositories"><path codeLine="95" d="M849.88,167.25 C824.08,192.77 799.9556,216.6304 774.8956,241.4204 " fill="none" id="RegisterCollaboratorController-to-Repositories" style="stroke:#181818;stroke-width:1.0;stroke-dasharray:7.0,7.0;"/><polygon fill="#181818" points="770.63,245.64,779.8414,242.1543,774.1846,242.1237,774.2153,236.4669,770.63,245.64" style="stroke:#181818;stroke-width:1.0;"/><text fill="#000000" font-family="sans-serif" font-size="13" lengthAdjust="spacing" textLength="67" x="816" y="212.0283">repositories</text></g><!--link RegisterCollaboratorController to JobRepository--><g id="link_RegisterCollaboratorController_JobRepository"><path codeLine="96" d="M948.9,167.22 C952.93,184.12 956,197 956,197 C956,197 956,656 956,656 C956,656 946.2923,715.1393 938.3623,763.4293 " fill="none" id="RegisterCollaboratorController-to-JobRepository" style="stroke:#181818;stroke-width:1.0;stroke-dasharray:7.0,7.0;"/><polygon fill="#181818" points="937.39,769.35,942.7955,761.1171,938.2002,764.4161,934.9013,759.8208,937.39,769.35" style="stroke:#181818;stroke-width:1.0;"/><text fill="#000000" font-family="sans-serif" font-size="13" lengthAdjust="spacing" textLength="7" x="931.0471" y="758.2572">1</text></g><!--link RegisterCollaboratorController to CollaboratorRepository--><g id="link_RegisterCollaboratorController_CollaboratorRepository"><path codeLine="97" d="M719.89,160.8 C708.74,164.67 702,167 702,167 C702,167 523,197 523,197 C523,197 407.6413,361.765 338.2613,460.855 " fill="none" id="RegisterCollaboratorController-to-CollaboratorRepository" style="stroke:#181818;stroke-width:1.0;stroke-dasharray:7.0,7.0;"/><polygon fill="#181818" points="334.82,465.77,343.2587,460.6917,337.6878,461.6742,336.7053,456.1033,334.82,465.77" style="stroke:#181818;stroke-width:1.0;"/><text fill="#000000" font-family="sans-serif" font-size="13" lengthAdjust="spacing" textLength="7" x="332.4936" y="454.6373">1</text></g><!--link RegisterCollaboratorController to AddressRepository--><g id="link_RegisterCollaboratorController_AddressRepository"><path codeLine="98" d="M1052.09,167.22 C1078.15,184.12 1098,197 1098,197 C1098,197 1116.5848,215.8201 1142.0448,241.6101 " fill="none" id="RegisterCollaboratorController-to-AddressRepository" style="stroke:#181818;stroke-width:1.0;stroke-dasharray:7.0,7.0;"/><polygon fill="#181818" points="1146.26,245.88,1142.7837,236.665,1142.7473,242.3218,1137.0906,242.2854,1146.26,245.88" style="stroke:#181818;stroke-width:1.0;"/><text fill="#000000" font-family="sans-serif" font-size="13" lengthAdjust="spacing" textLength="7" x="1131.8103" y="234.7586">1</text></g><!--link RegisterCollaboratorController to Collaborator--><g id="link_RegisterCollaboratorController_Collaborator"><path codeLine="99" d="M757.25,167.12 C671.08,206.58 585,246 585,246 C585,246 514,607 514,607 C514,607 485.2438,638.8092 446.7038,681.4392 " fill="none" id="RegisterCollaboratorController-to-Collaborator" style="stroke:#181818;stroke-width:1.0;stroke-dasharray:7.0,7.0;"/><polygon fill="#181818" points="442.68,685.89,451.6828,681.8963,446.0331,682.181,445.7485,676.5313,442.68,685.89" style="stroke:#181818;stroke-width:1.0;"/></g><!--link RegisterCollaboratorController to Job--><g id="link_RegisterCollaboratorController_Job"><path codeLine="100" d="M926.65,167.11 C920.49,312.4 908,607 908,607 C908,607 822,686 822,686 C822,686 786.8118,743.0345 762.2418,782.8345 " fill="none" id="RegisterCollaboratorController-to-Job" style="stroke:#181818;stroke-width:1.0;stroke-dasharray:7.0,7.0;"/><polygon fill="#181818" points="759.09,787.94,767.2214,782.383,761.7165,783.6854,760.4141,778.1805,759.09,787.94" style="stroke:#181818;stroke-width:1.0;"/></g><!--link RegisterCollaboratorController to Address--><g id="link_RegisterCollaboratorController_Address"><path codeLine="101" d="M979.47,167.25 C1020.45,232.91 1072,315.5 1072,315.5 C1072,315.5 1072,315.5 1072,822.5 C1072,822.5 1072,946.11 1072,1029.91 " fill="none" id="RegisterCollaboratorController-to-Address" style="stroke:#181818;stroke-width:1.0;stroke-dasharray:7.0,7.0;"/><polygon fill="#181818" points="1072,1035.91,1076,1026.91,1072,1030.91,1068,1026.91,1072,1035.91" style="stroke:#181818;stroke-width:1.0;"/></g><!--link RegisterCollaboratorUI to RegisterCollaboratorController--><g id="link_RegisterCollaboratorUI_RegisterCollaboratorController"><path codeLine="103" d="M684.73,87 C698.35,87 708,87 708,87 C708,87 706.58,87 713.88,87 " fill="none" id="RegisterCollaboratorUI-to-RegisterCollaboratorController" style="stroke:#181818;stroke-width:1.0;stroke-dasharray:7.0,7.0;"/><polygon fill="#181818" points="719.88,87,710.88,83,714.88,87,710.88,91,719.88,87" style="stroke:#181818;stroke-width:1.0;"/></g><!--link Repositories to Repositories--><g id="link_Repositories_Repositories"><path codeLine="105" d="M798.02,296.6 C818.37,298.69 833,305.33 833,316.5 C833,327.67 824.3386,333.697 803.9886,335.787 " fill="none" id="Repositories-to-Repositories" style="stroke:#181818;stroke-width:1.0;"/><polygon fill="#181818" points="798.02,336.4,807.3816,339.4596,802.9938,335.8892,806.5642,331.5014,798.02,336.4" style="stroke:#181818;stroke-width:1.0;"/><text fill="#000000" font-family="sans-serif" font-size="13" lengthAdjust="spacing" textLength="49" x="839" y="322.0283">instance</text></g><!--link Repositories to JobRepository--><g id="link_Repositories_JobRepository"><path codeLine="106" d="M731.72,387.18 C778.38,489.67 861.9636,673.2594 903.2436,763.9194 " fill="none" id="Repositories-to-JobRepository" style="stroke:#181818;stroke-width:1.0;"/><polygon fill="#181818" points="905.73,769.38,905.6409,759.5315,903.658,764.8295,898.3601,762.8467,905.73,769.38" style="stroke:#181818;stroke-width:1.0;"/><text fill="#000000" font-family="sans-serif" font-size="13" lengthAdjust="spacing" textLength="79" x="830" y="542.0283">jobRepository</text></g><!--link Repositories to AddressRepository--><g id="link_Repositories_AddressRepository"><path codeLine="107" d="M798.08,316.5 C892.49,316.5 1028.04,316.5 1119.47,316.5 " fill="none" id="Repositories-to-AddressRepository" style="stroke:#181818;stroke-width:1.0;"/><polygon fill="#181818" points="1125.47,316.5,1116.47,312.5,1120.47,316.5,1116.47,320.5,1125.47,316.5" style="stroke:#181818;stroke-width:1.0;"/><text fill="#000000" font-family="sans-serif" font-size="13" lengthAdjust="spacing" textLength="108" x="907.75" y="309.5283">addressRepository</text></g><!--link Repositories to CollaboratorRepository--><g id="link_Repositories_CollaboratorRepository"><path codeLine="108" d="M601.89,369.16 C547.01,398.06 483.1691,431.6747 423.5691,463.0547 " fill="none" id="Repositories-to-CollaboratorRepository" style="stroke:#181818;stroke-width:1.0;"/><polygon fill="#181818" points="418.26,465.85,428.0872,465.1965,422.6842,463.5206,424.3601,458.1177,418.26,465.85" style="stroke:#181818;stroke-width:1.0;"/><text fill="#000000" font-family="sans-serif" font-size="13" lengthAdjust="spacing" textLength="129" x="506" y="432.0283">collaboratorRepository</text></g><!--link CollaboratorRepository to Collaborator--><g id="link_CollaboratorRepository_Collaborator"><path codeLine="110" d="M294.61,607.09 C297.56,630.99 300.2441,652.6553 303.6141,679.9253 " fill="none" id="CollaboratorRepository-to-Collaborator" style="stroke:#181818;stroke-width:1.0;"/><polygon fill="#181818" points="304.35,685.88,307.216,676.4574,303.7368,680.9177,299.2764,677.4385,304.35,685.88" style="stroke:#181818;stroke-width:1.0;"/></g><!--reverse link Job to JobRepository--><g id="link_Job_JobRepository"><path codeLine="112" d="M791.97,821.5 C808.12,821.5 820.79,821.5 839.2,821.5 " fill="none" id="Job-backto-JobRepository" style="stroke:#181818;stroke-width:1.0;"/><polygon fill="#181818" points="785.97,821.5,794.97,825.5,790.97,821.5,794.97,817.5,785.97,821.5" style="stroke:#181818;stroke-width:1.0;"/><text fill="#000000" font-family="sans-serif" font-size="13" lengthAdjust="spacing" textLength="17" x="804" y="814.5283">job</text></g><!--link AddressRepository to Address--><g id="link_AddressRepository_Address"><path codeLine="114" d="M1203.14,387.31 C1173.39,562.34 1098,1006 1098,1006 C1098,1006 1096.0872,1013.325 1091.7172,1030.045 " fill="none" id="AddressRepository-to-Address" style="stroke:#181818;stroke-width:1.0;"/><polygon fill="#181818" points="1090.2,1035.85,1096.3458,1028.154,1091.4643,1031.0125,1088.6058,1026.131,1090.2,1035.85" style="stroke:#181818;stroke-width:1.0;"/><text fill="#000000" font-family="sans-serif" font-size="13" lengthAdjust="spacing" textLength="46" x="1161" y="652.0283">address</text></g><!--SRC=[nLN9Rjim4BtpAmQ-n6cieBqAXe4iXxfeKo16RxrGrCHc8v42IQTmbt_lK8j5Mahi50NgYydP-ERDeZFxA5N53I-Xr4gBZT4bWZDRPBscukAHht7bTWM2GU6uMXUXWTtmN7-NQWqFlB2Xff0AtQv2g7InynTsDgBKncaMU8c2Mtlbd97Prk5IQBMIFn3UCdPMu8C3fy78zSP1BZqSgHLZh7Q2UrnBwz3SwABWcJRSQJehP-YE1duo1lIxE68tFM_Dp8ZPLF4IPv19upOvTtJaUIcj9HZGtNE3rixWgofr9WiIOSbbCOFbBUHQWCzwHi5jvU4_8QXjcQ6PmJUTWGz_-FvL4t5gdK5qTpM0IbjtetCwvLgRkpf2vxT6zq5d7ybt6ekkTzvvIk_SrS_yVecuBqiYR6yHQaZkeoOhgX6LtKDk1Fx9-UfH5iK2hFzhnFIopwsvt199DLEV7wuzYO5qpwI_DV8szOxKHYYLWsgZ5JPfHs1ggdip8O8pDtdhqGZXYHVIGuaAB89BHzz81mGfp6BaGGi4AFTT8CGiW18KeSirPhSlUf1yM_nUqZT1s-ElwvcaOw9pQpC8qBtVbbpTezLR8z1-uegMWWaxv1uflYI29Dfkr9986dRZKbdQ90Advv16Hb73xXMxq3UinhX5cqQat0EDudPiW-zTc9DkKVVgNu_IuEb_zK8TXEeoAD691HndxG1TQBI0S1IwWbBW8-FoYhdw3nisReInLKRwQDl1_5UI930-0GUcoQAEciA6srWrUJE1XDIJTvFzfAVq5NoYbcVZmpNthuP1KX06YOByUiVOaO_TvIAUo9Ju2ARicFTbWpIQbUDEhTTugvtwvc22Jd4CLQVOKsAdcBLOnjccBsJDyajHl6TGXMHG5Takme5TlAPItxiH9R7rSEsatPmywvKidbiAQJJwGG3sZCDXBCRy6CoJiImO6uBjC-Xnipy0]--></g></svg>