<?xml version="1.0" encoding="us-ascii" standalone="no"?><svg xmlns="http://www.w3.org/2000/svg" xmlns:xlink="http://www.w3.org/1999/xlink" contentStyleType="text/css" height="896px" preserveAspectRatio="none" style="width:1190px;height:896px;background:#FFFFFF;" version="1.1" viewBox="0 0 1190 896" width="1190px" zoomAndPan="magnify"><defs/><g><!--class RegisterCollaboratorController--><g id="elem_RegisterCollaboratorController"><rect codeLine="12" fill="#F1F1F1" height="141.1055" id="RegisterCollaboratorController" rx="2.5" ry="2.5" style="stroke:#181818;stroke-width:0.5;" width="420" x="367" y="7"/><ellipse cx="476.25" cy="23" fill="#ADD1B2" rx="11" ry="11" style="stroke:#181818;stroke-width:1.0;"/><path d="M479.0156,18.875 Q479.1719,18.6563 479.3594,18.5469 Q479.5469,18.4375 479.7656,18.4375 Q480.1406,18.4375 480.375,18.7031 Q480.6094,18.9531 480.6094,19.5625 L480.6094,21.0156 Q480.6094,21.625 480.375,21.8906 Q480.1406,22.1563 479.7656,22.1563 Q479.4219,22.1563 479.2188,21.9531 Q479.0156,21.7656 478.9063,21.25 Q478.8594,20.8906 478.6719,20.7031 Q478.3438,20.3281 477.7344,20.1094 Q477.125,19.8906 476.5,19.8906 Q475.7344,19.8906 475.0938,20.2188 Q474.4688,20.5469 473.9688,21.2969 Q473.4844,22.0469 473.4844,23.0781 L473.4844,24.1719 Q473.4844,25.4063 474.375,26.2344 Q475.2656,27.0469 476.8594,27.0469 Q477.7969,27.0469 478.4531,26.7969 Q478.8438,26.6406 479.2656,26.2031 Q479.5313,25.9375 479.6719,25.8594 Q479.8281,25.7813 480.0313,25.7813 Q480.3594,25.7813 480.6094,26.0469 Q480.875,26.2969 480.875,26.6406 Q480.875,26.9844 480.5313,27.3906 Q480.0313,27.9688 479.2344,28.2969 Q478.1563,28.75 476.8594,28.75 Q475.3438,28.75 474.1406,28.125 Q473.1563,27.625 472.4688,26.5625 Q471.7813,25.4844 471.7813,24.2031 L471.7813,23.0469 Q471.7813,21.7188 472.3906,20.5781 Q473.0156,19.4219 474.1094,18.8125 Q475.2031,18.1875 476.4375,18.1875 Q477.1719,18.1875 477.8125,18.3594 Q478.4688,18.5156 479.0156,18.875 Z " fill="#000000"/><text fill="#000000" font-family="sans-serif" font-size="14" lengthAdjust="spacing" textLength="193" x="496.75" y="28.7969">RegisterCollaboratorController</text><line style="stroke:#181818;stroke-width:0.5;" x1="368" x2="786" y1="39" y2="39"/><line style="stroke:#181818;stroke-width:0.5;" x1="368" x2="786" y1="47" y2="47"/><text fill="#000000" font-family="sans-serif" font-size="14" lengthAdjust="spacing" textLength="211" x="373" y="66.1074">+RegisterCollaboratorController()</text><text fill="#000000" font-family="sans-serif" font-size="14" lengthAdjust="spacing" textLength="404" x="373" y="84.7285">+registerCollaborator(name, birthdate, admission date, address,</text><text fill="#000000" font-family="sans-serif" font-size="14" lengthAdjust="spacing" textLength="357" x="373" y="103.3496">mobile, email, ID doc type, respective number, job name)</text><text fill="#000000" font-family="sans-serif" font-size="14" lengthAdjust="spacing" textLength="82" x="373" y="121.9707">+getJobList()</text><text fill="#000000" font-family="sans-serif" font-size="14" lengthAdjust="spacing" textLength="167" x="373" y="140.5918">+getJobByName(jobName)</text></g><!--class RegisterCollaboratorUI--><g id="elem_RegisterCollaboratorUI"><rect codeLine="20" fill="#F1F1F1" height="48" id="RegisterCollaboratorUI" rx="2.5" ry="2.5" style="stroke:#181818;stroke-width:0.5;" width="175" x="156.5" y="53.5"/><ellipse cx="171.5" cy="69.5" fill="#ADD1B2" rx="11" ry="11" style="stroke:#181818;stroke-width:1.0;"/><path d="M174.2656,65.375 Q174.4219,65.1563 174.6094,65.0469 Q174.7969,64.9375 175.0156,64.9375 Q175.3906,64.9375 175.625,65.2031 Q175.8594,65.4531 175.8594,66.0625 L175.8594,67.5156 Q175.8594,68.125 175.625,68.3906 Q175.3906,68.6563 175.0156,68.6563 Q174.6719,68.6563 174.4688,68.4531 Q174.2656,68.2656 174.1563,67.75 Q174.1094,67.3906 173.9219,67.2031 Q173.5938,66.8281 172.9844,66.6094 Q172.375,66.3906 171.75,66.3906 Q170.9844,66.3906 170.3438,66.7188 Q169.7188,67.0469 169.2188,67.7969 Q168.7344,68.5469 168.7344,69.5781 L168.7344,70.6719 Q168.7344,71.9063 169.625,72.7344 Q170.5156,73.5469 172.1094,73.5469 Q173.0469,73.5469 173.7031,73.2969 Q174.0938,73.1406 174.5156,72.7031 Q174.7813,72.4375 174.9219,72.3594 Q175.0781,72.2813 175.2813,72.2813 Q175.6094,72.2813 175.8594,72.5469 Q176.125,72.7969 176.125,73.1406 Q176.125,73.4844 175.7813,73.8906 Q175.2813,74.4688 174.4844,74.7969 Q173.4063,75.25 172.1094,75.25 Q170.5938,75.25 169.3906,74.625 Q168.4063,74.125 167.7188,73.0625 Q167.0313,71.9844 167.0313,70.7031 L167.0313,69.5469 Q167.0313,68.2188 167.6406,67.0781 Q168.2656,65.9219 169.3594,65.3125 Q170.4531,64.6875 171.6875,64.6875 Q172.4219,64.6875 173.0625,64.8594 Q173.7188,65.0156 174.2656,65.375 Z " fill="#000000"/><text fill="#000000" font-family="sans-serif" font-size="14" lengthAdjust="spacing" textLength="143" x="185.5" y="75.2969">RegisterCollaboratorUI</text><line style="stroke:#181818;stroke-width:0.5;" x1="157.5" x2="330.5" y1="85.5" y2="85.5"/><line style="stroke:#181818;stroke-width:0.5;" x1="157.5" x2="330.5" y1="93.5" y2="93.5"/></g><!--class Collaborator--><g id="elem_Collaborator"><rect codeLine="23" fill="#F1F1F1" height="271.4531" id="Collaborator" rx="2.5" ry="2.5" style="stroke:#181818;stroke-width:0.5;" width="628" x="7" y="429"/><ellipse cx="277.75" cy="445" fill="#ADD1B2" rx="11" ry="11" style="stroke:#181818;stroke-width:1.0;"/><path d="M280.5156,440.875 Q280.6719,440.6563 280.8594,440.5469 Q281.0469,440.4375 281.2656,440.4375 Q281.6406,440.4375 281.875,440.7031 Q282.1094,440.9531 282.1094,441.5625 L282.1094,443.0156 Q282.1094,443.625 281.875,443.8906 Q281.6406,444.1563 281.2656,444.1563 Q280.9219,444.1563 280.7188,443.9531 Q280.5156,443.7656 280.4063,443.25 Q280.3594,442.8906 280.1719,442.7031 Q279.8438,442.3281 279.2344,442.1094 Q278.625,441.8906 278,441.8906 Q277.2344,441.8906 276.5938,442.2188 Q275.9688,442.5469 275.4688,443.2969 Q274.9844,444.0469 274.9844,445.0781 L274.9844,446.1719 Q274.9844,447.4063 275.875,448.2344 Q276.7656,449.0469 278.3594,449.0469 Q279.2969,449.0469 279.9531,448.7969 Q280.3438,448.6406 280.7656,448.2031 Q281.0313,447.9375 281.1719,447.8594 Q281.3281,447.7813 281.5313,447.7813 Q281.8594,447.7813 282.1094,448.0469 Q282.375,448.2969 282.375,448.6406 Q282.375,448.9844 282.0313,449.3906 Q281.5313,449.9688 280.7344,450.2969 Q279.6563,450.75 278.3594,450.75 Q276.8438,450.75 275.6406,450.125 Q274.6563,449.625 273.9688,448.5625 Q273.2813,447.4844 273.2813,446.2031 L273.2813,445.0469 Q273.2813,443.7188 273.8906,442.5781 Q274.5156,441.4219 275.6094,440.8125 Q276.7031,440.1875 277.9375,440.1875 Q278.6719,440.1875 279.3125,440.3594 Q279.9688,440.5156 280.5156,440.875 Z " fill="#000000"/><text fill="#000000" font-family="sans-serif" font-size="14" lengthAdjust="spacing" textLength="78" x="298.25" y="450.7969">Collaborator</text><line style="stroke:#181818;stroke-width:0.5;" x1="8" x2="634" y1="461" y2="461"/><text fill="#000000" font-family="sans-serif" font-size="14" lengthAdjust="spacing" textLength="81" x="13" y="480.1074">-String name</text><text fill="#000000" font-family="sans-serif" font-size="14" lengthAdjust="spacing" textLength="95" x="13" y="498.7285">-List&lt;Skill&gt; skill</text><text fill="#000000" font-family="sans-serif" font-size="14" lengthAdjust="spacing" textLength="50" x="13" y="517.3496">-Job job</text><text fill="#000000" font-family="sans-serif" font-size="14" lengthAdjust="spacing" textLength="111" x="13" y="535.9707">-Date dateOfBirth</text><text fill="#000000" font-family="sans-serif" font-size="14" lengthAdjust="spacing" textLength="132" x="13" y="554.5918">-Date admissionDate</text><text fill="#000000" font-family="sans-serif" font-size="14" lengthAdjust="spacing" textLength="112" x="13" y="573.2129">-Address address</text><text fill="#000000" font-family="sans-serif" font-size="14" lengthAdjust="spacing" textLength="113" x="13" y="591.834">-int phoneNumber</text><text fill="#000000" font-family="sans-serif" font-size="14" lengthAdjust="spacing" textLength="79" x="13" y="610.4551">-String email</text><text fill="#000000" font-family="sans-serif" font-size="14" lengthAdjust="spacing" textLength="38" x="13" y="629.0762">-int cc</text><text fill="#000000" font-family="sans-serif" font-size="14" lengthAdjust="spacing" textLength="101" x="13" y="647.6973">-int cardNumber</text><line style="stroke:#181818;stroke-width:0.5;" x1="8" x2="634" y1="655.2109" y2="655.2109"/><text fill="#000000" font-family="sans-serif" font-size="14" lengthAdjust="spacing" textLength="217" x="13" y="674.3184">-validateCollaborator(collaborator)</text><text fill="#000000" font-family="sans-serif" font-size="14" lengthAdjust="spacing" textLength="616" x="13" y="692.9395">+Collaborator(name, dateOfBirth, admissionDate, address, phoneNumber, email, cc, cardNumber)</text></g><!--class HumanResourcesManager--><g id="elem_HumanResourcesManager"><rect codeLine="39" fill="#F1F1F1" height="48" id="HumanResourcesManager" rx="2.5" ry="2.5" style="stroke:#181818;stroke-width:0.5;" width="200" x="221" y="841"/><ellipse cx="236" cy="857" fill="#ADD1B2" rx="11" ry="11" style="stroke:#181818;stroke-width:1.0;"/><path d="M238.7656,852.875 Q238.9219,852.6563 239.1094,852.5469 Q239.2969,852.4375 239.5156,852.4375 Q239.8906,852.4375 240.125,852.7031 Q240.3594,852.9531 240.3594,853.5625 L240.3594,855.0156 Q240.3594,855.625 240.125,855.8906 Q239.8906,856.1563 239.5156,856.1563 Q239.1719,856.1563 238.9688,855.9531 Q238.7656,855.7656 238.6563,855.25 Q238.6094,854.8906 238.4219,854.7031 Q238.0938,854.3281 237.4844,854.1094 Q236.875,853.8906 236.25,853.8906 Q235.4844,853.8906 234.8438,854.2188 Q234.2188,854.5469 233.7188,855.2969 Q233.2344,856.0469 233.2344,857.0781 L233.2344,858.1719 Q233.2344,859.4063 234.125,860.2344 Q235.0156,861.0469 236.6094,861.0469 Q237.5469,861.0469 238.2031,860.7969 Q238.5938,860.6406 239.0156,860.2031 Q239.2813,859.9375 239.4219,859.8594 Q239.5781,859.7813 239.7813,859.7813 Q240.1094,859.7813 240.3594,860.0469 Q240.625,860.2969 240.625,860.6406 Q240.625,860.9844 240.2813,861.3906 Q239.7813,861.9688 238.9844,862.2969 Q237.9063,862.75 236.6094,862.75 Q235.0938,862.75 233.8906,862.125 Q232.9063,861.625 232.2188,860.5625 Q231.5313,859.4844 231.5313,858.2031 L231.5313,857.0469 Q231.5313,855.7188 232.1406,854.5781 Q232.7656,853.4219 233.8594,852.8125 Q234.9531,852.1875 236.1875,852.1875 Q236.9219,852.1875 237.5625,852.3594 Q238.2188,852.5156 238.7656,852.875 Z " fill="#000000"/><text fill="#000000" font-family="sans-serif" font-size="14" lengthAdjust="spacing" textLength="168" x="250" y="862.7969">HumanResourcesManager</text><line style="stroke:#181818;stroke-width:0.5;" x1="222" x2="420" y1="873" y2="873"/><line style="stroke:#181818;stroke-width:0.5;" x1="222" x2="420" y1="881" y2="881"/></g><!--class Repositories--><g id="elem_Repositories"><rect codeLine="42" fill="#F1F1F1" height="122.4844" id="Repositories" rx="2.5" ry="2.5" style="stroke:#181818;stroke-width:0.5;" width="196" x="891" y="16.5"/><ellipse cx="945.25" cy="32.5" fill="#ADD1B2" rx="11" ry="11" style="stroke:#181818;stroke-width:1.0;"/><path d="M948.0156,28.375 Q948.1719,28.1563 948.3594,28.0469 Q948.5469,27.9375 948.7656,27.9375 Q949.1406,27.9375 949.375,28.2031 Q949.6094,28.4531 949.6094,29.0625 L949.6094,30.5156 Q949.6094,31.125 949.375,31.3906 Q949.1406,31.6563 948.7656,31.6563 Q948.4219,31.6563 948.2188,31.4531 Q948.0156,31.2656 947.9063,30.75 Q947.8594,30.3906 947.6719,30.2031 Q947.3438,29.8281 946.7344,29.6094 Q946.125,29.3906 945.5,29.3906 Q944.7344,29.3906 944.0938,29.7188 Q943.4688,30.0469 942.9688,30.7969 Q942.4844,31.5469 942.4844,32.5781 L942.4844,33.6719 Q942.4844,34.9063 943.375,35.7344 Q944.2656,36.5469 945.8594,36.5469 Q946.7969,36.5469 947.4531,36.2969 Q947.8438,36.1406 948.2656,35.7031 Q948.5313,35.4375 948.6719,35.3594 Q948.8281,35.2813 949.0313,35.2813 Q949.3594,35.2813 949.6094,35.5469 Q949.875,35.7969 949.875,36.1406 Q949.875,36.4844 949.5313,36.8906 Q949.0313,37.4688 948.2344,37.7969 Q947.1563,38.25 945.8594,38.25 Q944.3438,38.25 943.1406,37.625 Q942.1563,37.125 941.4688,36.0625 Q940.7813,34.9844 940.7813,33.7031 L940.7813,32.5469 Q940.7813,31.2188 941.3906,30.0781 Q942.0156,28.9219 943.1094,28.3125 Q944.2031,27.6875 945.4375,27.6875 Q946.1719,27.6875 946.8125,27.8594 Q947.4688,28.0156 948.0156,28.375 Z " fill="#000000"/><text fill="#000000" font-family="sans-serif" font-size="14" lengthAdjust="spacing" textLength="79" x="965.75" y="38.2969">Repositories</text><line style="stroke:#181818;stroke-width:0.5;" x1="892" x2="1086" y1="48.5" y2="48.5"/><line style="stroke:#181818;stroke-width:0.5;" x1="892" x2="1086" y1="56.5" y2="56.5"/><text fill="#000000" font-family="sans-serif" font-size="14" lengthAdjust="spacing" textLength="94" x="897" y="75.6074">-Repositories()</text><text fill="#000000" font-family="sans-serif" font-size="14" lengthAdjust="spacing" textLength="182" x="897" y="94.2285">+getInstance() : Repositories</text><text fill="#000000" font-family="sans-serif" font-size="14" lengthAdjust="spacing" textLength="128" x="897" y="112.8496">+getJobRepository()</text><text fill="#000000" font-family="sans-serif" font-size="14" lengthAdjust="spacing" textLength="184" x="897" y="131.4707">+getCollaboratorRepository()</text></g><!--class JobRepository--><g id="elem_JobRepository"><rect codeLine="50" fill="#F1F1F1" height="103.8633" id="JobRepository" rx="2.5" ry="2.5" style="stroke:#181818;stroke-width:0.5;" width="179" x="839.5" y="512.5"/><ellipse cx="880.15" cy="528.5" fill="#ADD1B2" rx="11" ry="11" style="stroke:#181818;stroke-width:1.0;"/><path d="M882.9156,524.375 Q883.0719,524.1563 883.2594,524.0469 Q883.4469,523.9375 883.6656,523.9375 Q884.0406,523.9375 884.275,524.2031 Q884.5094,524.4531 884.5094,525.0625 L884.5094,526.5156 Q884.5094,527.125 884.275,527.3906 Q884.0406,527.6563 883.6656,527.6563 Q883.3219,527.6563 883.1188,527.4531 Q882.9156,527.2656 882.8063,526.75 Q882.7594,526.3906 882.5719,526.2031 Q882.2438,525.8281 881.6344,525.6094 Q881.025,525.3906 880.4,525.3906 Q879.6344,525.3906 878.9938,525.7188 Q878.3688,526.0469 877.8688,526.7969 Q877.3844,527.5469 877.3844,528.5781 L877.3844,529.6719 Q877.3844,530.9063 878.275,531.7344 Q879.1656,532.5469 880.7594,532.5469 Q881.6969,532.5469 882.3531,532.2969 Q882.7438,532.1406 883.1656,531.7031 Q883.4313,531.4375 883.5719,531.3594 Q883.7281,531.2813 883.9313,531.2813 Q884.2594,531.2813 884.5094,531.5469 Q884.775,531.7969 884.775,532.1406 Q884.775,532.4844 884.4313,532.8906 Q883.9313,533.4688 883.1344,533.7969 Q882.0563,534.25 880.7594,534.25 Q879.2438,534.25 878.0406,533.625 Q877.0563,533.125 876.3688,532.0625 Q875.6813,530.9844 875.6813,529.7031 L875.6813,528.5469 Q875.6813,527.2188 876.2906,526.0781 Q876.9156,524.9219 878.0094,524.3125 Q879.1031,523.6875 880.3375,523.6875 Q881.0719,523.6875 881.7125,523.8594 Q882.3688,524.0156 882.9156,524.375 Z " fill="#000000"/><text fill="#000000" font-family="sans-serif" font-size="14" lengthAdjust="spacing" textLength="90" x="899.85" y="534.2969">JobRepository</text><line style="stroke:#181818;stroke-width:0.5;" x1="840.5" x2="1017.5" y1="544.5" y2="544.5"/><text fill="#000000" font-family="sans-serif" font-size="14" lengthAdjust="spacing" textLength="92" x="845.5" y="563.6074">-List &lt;Job&gt; job</text><line style="stroke:#181818;stroke-width:0.5;" x1="840.5" x2="1017.5" y1="571.1211" y2="571.1211"/><text fill="#000000" font-family="sans-serif" font-size="14" lengthAdjust="spacing" textLength="82" x="845.5" y="590.2285">+getJobList()</text><text fill="#000000" font-family="sans-serif" font-size="14" lengthAdjust="spacing" textLength="167" x="845.5" y="608.8496">+getJobByName(jobName)</text></g><!--class CollaboratorRepository--><g id="elem_CollaboratorRepository"><rect codeLine="57" fill="#F1F1F1" height="141.1055" id="CollaboratorRepository" rx="2.5" ry="2.5" style="stroke:#181818;stroke-width:0.5;" width="420" x="266" y="227"/><ellipse cx="398.75" cy="243" fill="#ADD1B2" rx="11" ry="11" style="stroke:#181818;stroke-width:1.0;"/><path d="M401.5156,238.875 Q401.6719,238.6563 401.8594,238.5469 Q402.0469,238.4375 402.2656,238.4375 Q402.6406,238.4375 402.875,238.7031 Q403.1094,238.9531 403.1094,239.5625 L403.1094,241.0156 Q403.1094,241.625 402.875,241.8906 Q402.6406,242.1563 402.2656,242.1563 Q401.9219,242.1563 401.7188,241.9531 Q401.5156,241.7656 401.4063,241.25 Q401.3594,240.8906 401.1719,240.7031 Q400.8438,240.3281 400.2344,240.1094 Q399.625,239.8906 399,239.8906 Q398.2344,239.8906 397.5938,240.2188 Q396.9688,240.5469 396.4688,241.2969 Q395.9844,242.0469 395.9844,243.0781 L395.9844,244.1719 Q395.9844,245.4063 396.875,246.2344 Q397.7656,247.0469 399.3594,247.0469 Q400.2969,247.0469 400.9531,246.7969 Q401.3438,246.6406 401.7656,246.2031 Q402.0313,245.9375 402.1719,245.8594 Q402.3281,245.7813 402.5313,245.7813 Q402.8594,245.7813 403.1094,246.0469 Q403.375,246.2969 403.375,246.6406 Q403.375,246.9844 403.0313,247.3906 Q402.5313,247.9688 401.7344,248.2969 Q400.6563,248.75 399.3594,248.75 Q397.8438,248.75 396.6406,248.125 Q395.6563,247.625 394.9688,246.5625 Q394.2813,245.4844 394.2813,244.2031 L394.2813,243.0469 Q394.2813,241.7188 394.8906,240.5781 Q395.5156,239.4219 396.6094,238.8125 Q397.7031,238.1875 398.9375,238.1875 Q399.6719,238.1875 400.3125,238.3594 Q400.9688,238.5156 401.5156,238.875 Z " fill="#000000"/><text fill="#000000" font-family="sans-serif" font-size="14" lengthAdjust="spacing" textLength="146" x="419.25" y="248.7969">CollaboratorRepository</text><line style="stroke:#181818;stroke-width:0.5;" x1="267" x2="685" y1="259" y2="259"/><text fill="#000000" font-family="sans-serif" font-size="14" lengthAdjust="spacing" textLength="204" x="272" y="278.1074">-List &lt;Collaborator&gt; collaborator</text><line style="stroke:#181818;stroke-width:0.5;" x1="267" x2="685" y1="285.6211" y2="285.6211"/><text fill="#000000" font-family="sans-serif" font-size="14" lengthAdjust="spacing" textLength="192" x="272" y="304.7285">-addCollaborator(collaborator)</text><text fill="#000000" font-family="sans-serif" font-size="14" lengthAdjust="spacing" textLength="217" x="272" y="323.3496">-validateCollaborator(collaborator)</text><text fill="#000000" font-family="sans-serif" font-size="14" lengthAdjust="spacing" textLength="404" x="272" y="341.9707">+registerCollaborator(name, birthdate, admission date, address,</text><text fill="#000000" font-family="sans-serif" font-size="14" lengthAdjust="spacing" textLength="318" x="272" y="360.5918">mobile, email, ID doc type, respective number, job)</text></g><!--class Job--><g id="elem_Job"><rect codeLine="65" fill="#F1F1F1" height="66.6211" id="Job" rx="2.5" ry="2.5" style="stroke:#181818;stroke-width:0.5;" width="93" x="692.5" y="531"/><ellipse cx="725.05" cy="547" fill="#ADD1B2" rx="11" ry="11" style="stroke:#181818;stroke-width:1.0;"/><path d="M727.8156,542.875 Q727.9719,542.6563 728.1594,542.5469 Q728.3469,542.4375 728.5656,542.4375 Q728.9406,542.4375 729.175,542.7031 Q729.4094,542.9531 729.4094,543.5625 L729.4094,545.0156 Q729.4094,545.625 729.175,545.8906 Q728.9406,546.1563 728.5656,546.1563 Q728.2219,546.1563 728.0188,545.9531 Q727.8156,545.7656 727.7063,545.25 Q727.6594,544.8906 727.4719,544.7031 Q727.1438,544.3281 726.5344,544.1094 Q725.925,543.8906 725.3,543.8906 Q724.5344,543.8906 723.8938,544.2188 Q723.2688,544.5469 722.7688,545.2969 Q722.2844,546.0469 722.2844,547.0781 L722.2844,548.1719 Q722.2844,549.4063 723.175,550.2344 Q724.0656,551.0469 725.6594,551.0469 Q726.5969,551.0469 727.2531,550.7969 Q727.6438,550.6406 728.0656,550.2031 Q728.3313,549.9375 728.4719,549.8594 Q728.6281,549.7813 728.8313,549.7813 Q729.1594,549.7813 729.4094,550.0469 Q729.675,550.2969 729.675,550.6406 Q729.675,550.9844 729.3313,551.3906 Q728.8313,551.9688 728.0344,552.2969 Q726.9563,552.75 725.6594,552.75 Q724.1438,552.75 722.9406,552.125 Q721.9563,551.625 721.2688,550.5625 Q720.5813,549.4844 720.5813,548.2031 L720.5813,547.0469 Q720.5813,545.7188 721.1906,544.5781 Q721.8156,543.4219 722.9094,542.8125 Q724.0031,542.1875 725.2375,542.1875 Q725.9719,542.1875 726.6125,542.3594 Q727.2688,542.5156 727.8156,542.875 Z " fill="#000000"/><text fill="#000000" font-family="sans-serif" font-size="14" lengthAdjust="spacing" textLength="22" x="742.95" y="552.7969">Job</text><line style="stroke:#181818;stroke-width:0.5;" x1="693.5" x2="784.5" y1="563" y2="563"/><text fill="#000000" font-family="sans-serif" font-size="14" lengthAdjust="spacing" textLength="81" x="698.5" y="582.1074">-String name</text><line style="stroke:#181818;stroke-width:0.5;" x1="693.5" x2="784.5" y1="589.6211" y2="589.6211"/></g><!--reverse link Collaborator to HumanResourcesManager--><g id="link_Collaborator_HumanResourcesManager"><path codeLine="69" d="M321,718.34 C321,772.11 321,810.39 321,840.93 " fill="none" id="Collaborator-backto-HumanResourcesManager" style="stroke:#181818;stroke-width:1.0;"/><polygon fill="none" points="321,700.34,315,718.34,327,718.34,321,700.34" style="stroke:#181818;stroke-width:1.0;"/></g><!--reverse link HumanResourcesManager to Collaborator--><g id="link_HumanResourcesManager_Collaborator"><path codeLine="72" d="M332.8878,835.3674 C338.8078,821.0874 343,811 343,811 C343,811 343,730 343,730 C343,730 341.38,717.88 339.02,700.21 " fill="none" id="HumanResourcesManager-backto-Collaborator" style="stroke:#181818;stroke-width:1.0;"/><polygon fill="#181818" points="330.59,840.91,337.7317,834.128,332.5048,836.2912,330.3416,831.0643,330.59,840.91" style="stroke:#181818;stroke-width:1.0;"/><text fill="#000000" font-family="sans-serif" font-size="13" lengthAdjust="spacing" textLength="59" x="344" y="776.0283">createdBy</text></g><!--link Collaborator to Job--><g id="link_Collaborator_Job"><path codeLine="70" d="M635.14,564.5 C656.69,564.5 670.23,564.5 686.4,564.5 " fill="none" id="Collaborator-to-Job" style="stroke:#181818;stroke-width:1.0;"/><polygon fill="#181818" points="692.4,564.5,683.4,560.5,687.4,564.5,683.4,568.5,692.4,564.5" style="stroke:#181818;stroke-width:1.0;"/><text fill="#000000" font-family="sans-serif" font-size="13" lengthAdjust="spacing" textLength="21" x="653.25" y="557.5283">has</text></g><!--link RegisterCollaboratorController to Repositories--><g id="link_RegisterCollaboratorController_Repositories"><path codeLine="74" d="M787.22,77.5 C823.43,77.5 853.46,77.5 884.84,77.5 " fill="none" id="RegisterCollaboratorController-to-Repositories" style="stroke:#181818;stroke-width:1.0;stroke-dasharray:7.0,7.0;"/><polygon fill="#181818" points="890.84,77.5,881.84,73.5,885.84,77.5,881.84,81.5,890.84,77.5" style="stroke:#181818;stroke-width:1.0;"/><text fill="#000000" font-family="sans-serif" font-size="13" lengthAdjust="spacing" textLength="67" x="805.5" y="70.5283">repositories</text></g><!--link RegisterCollaboratorController to JobRepository--><g id="link_RegisterCollaboratorController_JobRepository"><path codeLine="75" d="M660.3,148.15 C680.3,164.87 696,178 696,178 C696,178 737,227 737,227 C737,227 843.1564,413.0487 896.8664,507.1787 " fill="none" id="RegisterCollaboratorController-to-JobRepository" style="stroke:#181818;stroke-width:1.0;stroke-dasharray:7.0,7.0;"/><polygon fill="#181818" points="899.84,512.39,898.8539,502.5906,897.362,508.0472,891.9054,506.5554,899.84,512.39" style="stroke:#181818;stroke-width:1.0;"/><text fill="#000000" font-family="sans-serif" font-size="13" lengthAdjust="spacing" textLength="7" x="888.4513" y="501.3026">1</text></g><!--link RegisterCollaboratorController to CollaboratorRepository--><g id="link_RegisterCollaboratorController_CollaboratorRepository"><path codeLine="76" d="M544.77,148.08 C533.1,173.25 522.463,196.2162 510.793,221.3962 " fill="none" id="RegisterCollaboratorController-to-CollaboratorRepository" style="stroke:#181818;stroke-width:1.0;stroke-dasharray:7.0,7.0;"/><polygon fill="#181818" points="508.27,226.84,515.6837,220.3563,510.3725,222.3035,508.4253,216.9924,508.27,226.84" style="stroke:#181818;stroke-width:1.0;"/><text fill="#000000" font-family="sans-serif" font-size="13" lengthAdjust="spacing" textLength="7" x="504.2369" y="215.7145">1</text></g><!--link RegisterCollaboratorController to Collaborator--><g id="link_RegisterCollaboratorController_Collaborator"><path codeLine="77" d="M422.61,148.18 C337.14,186.77 248,227 248,227 C248,227 248,368 248,368 C248,368 255.9507,389.2992 268.6007,423.1692 " fill="none" id="RegisterCollaboratorController-to-Collaborator" style="stroke:#181818;stroke-width:1.0;stroke-dasharray:7.0,7.0;"/><polygon fill="#181818" points="270.7,428.79,271.2983,418.9593,268.9506,424.106,263.8039,421.7584,270.7,428.79" style="stroke:#181818;stroke-width:1.0;"/></g><!--link RegisterCollaboratorController to Job--><g id="link_RegisterCollaboratorController_Job"><path codeLine="78" d="M636.78,148.4 C669.72,186.92 704,227 704,227 C704,227 726.2095,440.5122 734.9895,524.9622 " fill="none" id="RegisterCollaboratorController-to-Job" style="stroke:#181818;stroke-width:1.0;stroke-dasharray:7.0,7.0;"/><polygon fill="#181818" points="735.61,530.93,738.6579,521.5646,735.093,525.9568,730.7008,522.3919,735.61,530.93" style="stroke:#181818;stroke-width:1.0;"/></g><!--link RegisterCollaboratorUI to RegisterCollaboratorController--><g id="link_RegisterCollaboratorUI_RegisterCollaboratorController"><path codeLine="80" d="M331.73,77.5 C345.35,77.5 355,77.5 355,77.5 C355,77.5 353.58,77.5 360.88,77.5 " fill="none" id="RegisterCollaboratorUI-to-RegisterCollaboratorController" style="stroke:#181818;stroke-width:1.0;stroke-dasharray:7.0,7.0;"/><polygon fill="#181818" points="366.88,77.5,357.88,73.5,361.88,77.5,357.88,81.5,366.88,77.5" style="stroke:#181818;stroke-width:1.0;"/></g><!--link Repositories to Repositories--><g id="link_Repositories_Repositories"><path codeLine="82" d="M1087.02,57.6 C1107.37,59.69 1122,66.33 1122,77.5 C1122,88.67 1113.3386,94.697 1092.9886,96.787 " fill="none" id="Repositories-to-Repositories" style="stroke:#181818;stroke-width:1.0;"/><polygon fill="#181818" points="1087.02,97.4,1096.3816,100.4596,1091.9938,96.8892,1095.5642,92.5014,1087.02,97.4" style="stroke:#181818;stroke-width:1.0;"/><text fill="#000000" font-family="sans-serif" font-size="13" lengthAdjust="spacing" textLength="49" x="1128" y="83.0283">instance</text></g><!--link Repositories to JobRepository--><g id="link_Repositories_JobRepository"><path codeLine="83" d="M981.52,138.94 C969.6,235.31 947.2367,416.1154 936.0767,506.3254 " fill="none" id="Repositories-to-JobRepository" style="stroke:#181818;stroke-width:1.0;"/><polygon fill="#181818" points="935.34,512.28,940.4147,503.8392,935.9539,507.3178,932.4752,502.857,935.34,512.28" style="stroke:#181818;stroke-width:1.0;"/><text fill="#000000" font-family="sans-serif" font-size="13" lengthAdjust="spacing" textLength="79" x="971" y="303.0283">jobRepository</text></g><!--link Repositories to CollaboratorRepository--><g id="link_Repositories_CollaboratorRepository"><path codeLine="84" d="M891,120.15 C820.04,150.3 727.9823,189.4238 645.2723,224.5638 " fill="none" id="Repositories-to-CollaboratorRepository" style="stroke:#181818;stroke-width:1.0;"/><polygon fill="#181818" points="639.75,226.91,649.5975,227.0722,644.3519,224.9549,646.4693,219.7092,639.75,226.91" style="stroke:#181818;stroke-width:1.0;"/><text fill="#000000" font-family="sans-serif" font-size="13" lengthAdjust="spacing" textLength="129" x="748" y="193.0283">collaboratorRepository</text></g><!--link CollaboratorRepository to Collaborator--><g id="link_CollaboratorRepository_Collaborator"><path codeLine="86" d="M435.28,368.13 C424.29,386.91 415.0507,402.7117 402.7307,423.7617 " fill="none" id="CollaboratorRepository-to-Collaborator" style="stroke:#181818;stroke-width:1.0;"/><polygon fill="#181818" points="399.7,428.94,407.6983,423.193,402.2256,424.6248,400.7939,419.1521,399.7,428.94" style="stroke:#181818;stroke-width:1.0;"/></g><!--reverse link Job to JobRepository--><g id="link_Job_JobRepository"><path codeLine="88" d="M791.97,564.5 C808.12,564.5 820.79,564.5 839.2,564.5 " fill="none" id="Job-backto-JobRepository" style="stroke:#181818;stroke-width:1.0;"/><polygon fill="#181818" points="785.97,564.5,794.97,568.5,790.97,564.5,794.97,560.5,785.97,564.5" style="stroke:#181818;stroke-width:1.0;"/><text fill="#000000" font-family="sans-serif" font-size="13" lengthAdjust="spacing" textLength="17" x="804" y="557.5283">job</text></g><!--SRC=[nLHDZzem4BtxLups0gicLNj526dPFPHLIoLGRxqupW0kZXtPPYlwyTyxJWXhis6XlPGBzioRySoRDncuhTGrjxo2ocWZDjPK2Dxka3rxQYwsV8rBlrS85eNdUgrYWDlmqdoNUWqhhbpiKLAZtzS8jL7xS6637gUnth0eIYZkt9ttLXOxZpDXz5B-G7Z7s43XoeCtOELwuw6KeHnfD6Ei2O85hgNpQE-DKhmmbdj3P-qjtT72JyQ0Vcyku8Qt1vZjWGqrhp23Gbg_ARcd8oyhwHoL0TszjEXS1bzrPGgfo8GLbog3sGEKHa3eEgFahWxbFo7eNLMWpU2RAI2axzvVetyqnKUgOPYQflivmOQ4dpVmtwyHy6L6ZHyHiOVi8Mk-9AvfVE7frX2U72-tKga9kF3NckdbK6DxUQ1ccuu_hwQ1ZCXwP2JSMljTIqf7JckKsaEzCHhd3G59CGrbpp0XeZEtvI6YDS8JLpAKaWnAH9UElfv9HYraQUNHAACgZzCK8ejAYORmOLTnlK1dTbQW-yGrhO-DPx30sZX99KXqdIZpn1hFUwOTxPp0uIsC4b0YYQDZ7yV6_IQ8Oor9Q2S820A0CVacpS3_MO_zxvyy4uCc48-jeuRcS66qVw61_x3LATzzQqV-P3DX_2lFS-ZNqWaqdpHPHx3XZh5-zOr3iZXi1C8YTLPEzunT-6w-dQII7L6RaGmlHLFupVkRL6dN1lKBw9hes7KD_Z7e_Cptio7WjGmXCY8eVq6OF2pn2rowVwEWbgJF69rFpYtKA5cRA04x4t2QYx4WeN7ULm_x0m00]--></g></svg>