<?xml version="1.0" encoding="us-ascii" standalone="no"?><svg xmlns="http://www.w3.org/2000/svg" xmlns:xlink="http://www.w3.org/1999/xlink" contentStyleType="text/css" height="1293px" preserveAspectRatio="none" style="width:1626px;height:1293px;background:#FFFFFF;" version="1.1" viewBox="0 0 1626 1293" width="1626px" zoomAndPan="magnify"><defs/><g><!--class RegisterCollaboratorController--><g id="elem_RegisterCollaboratorController"><rect codeLine="12" fill="#F1F1F1" height="159.7266" id="RegisterCollaboratorController" rx="2.5" ry="2.5" style="stroke:#181818;stroke-width:0.5;" width="427" x="901" y="7"/><ellipse cx="1013.75" cy="23" fill="#ADD1B2" rx="11" ry="11" style="stroke:#181818;stroke-width:1.0;"/><path d="M1016.5156,18.875 Q1016.6719,18.6563 1016.8594,18.5469 Q1017.0469,18.4375 1017.2656,18.4375 Q1017.6406,18.4375 1017.875,18.7031 Q1018.1094,18.9531 1018.1094,19.5625 L1018.1094,21.0156 Q1018.1094,21.625 1017.875,21.8906 Q1017.6406,22.1563 1017.2656,22.1563 Q1016.9219,22.1563 1016.7188,21.9531 Q1016.5156,21.7656 1016.4063,21.25 Q1016.3594,20.8906 1016.1719,20.7031 Q1015.8438,20.3281 1015.2344,20.1094 Q1014.625,19.8906 1014,19.8906 Q1013.2344,19.8906 1012.5938,20.2188 Q1011.9688,20.5469 1011.4688,21.2969 Q1010.9844,22.0469 1010.9844,23.0781 L1010.9844,24.1719 Q1010.9844,25.4063 1011.875,26.2344 Q1012.7656,27.0469 1014.3594,27.0469 Q1015.2969,27.0469 1015.9531,26.7969 Q1016.3438,26.6406 1016.7656,26.2031 Q1017.0313,25.9375 1017.1719,25.8594 Q1017.3281,25.7813 1017.5313,25.7813 Q1017.8594,25.7813 1018.1094,26.0469 Q1018.375,26.2969 1018.375,26.6406 Q1018.375,26.9844 1018.0313,27.3906 Q1017.5313,27.9688 1016.7344,28.2969 Q1015.6563,28.75 1014.3594,28.75 Q1012.8438,28.75 1011.6406,28.125 Q1010.6563,27.625 1009.9688,26.5625 Q1009.2813,25.4844 1009.2813,24.2031 L1009.2813,23.0469 Q1009.2813,21.7188 1009.8906,20.5781 Q1010.5156,19.4219 1011.6094,18.8125 Q1012.7031,18.1875 1013.9375,18.1875 Q1014.6719,18.1875 1015.3125,18.3594 Q1015.9688,18.5156 1016.5156,18.875 Z " fill="#000000"/><text fill="#000000" font-family="sans-serif" font-size="14" lengthAdjust="spacing" textLength="193" x="1034.25" y="28.7969">RegisterCollaboratorController</text><line style="stroke:#181818;stroke-width:0.5;" x1="902" x2="1327" y1="39" y2="39"/><line style="stroke:#181818;stroke-width:0.5;" x1="902" x2="1327" y1="47" y2="47"/><text fill="#000000" font-family="sans-serif" font-size="14" lengthAdjust="spacing" textLength="211" x="907" y="66.1074">+RegisterCollaboratorController()</text><text fill="#000000" font-family="sans-serif" font-size="14" lengthAdjust="spacing" textLength="404" x="907" y="84.7285">+registerCollaborator(name, birthdate, admission date, address,</text><text fill="#000000" font-family="sans-serif" font-size="14" lengthAdjust="spacing" textLength="415" x="907" y="103.3496">mobile, email, taxpayer,ID doc type, respective number, job name)</text><text fill="#000000" font-family="sans-serif" font-size="14" lengthAdjust="spacing" textLength="342" x="907" y="121.9707">-registerAddress(streetName, postCode, doorNumber)</text><text fill="#000000" font-family="sans-serif" font-size="14" lengthAdjust="spacing" textLength="164" x="907" y="140.5918">-getJobByName(jobName)</text><text fill="#000000" font-family="sans-serif" font-size="14" lengthAdjust="spacing" textLength="82" x="907" y="159.2129">+getJobList()</text></g><!--class RegisterCollaboratorUI--><g id="elem_RegisterCollaboratorUI"><rect codeLine="21" fill="#F1F1F1" height="48" id="RegisterCollaboratorUI" rx="2.5" ry="2.5" style="stroke:#181818;stroke-width:0.5;" width="175" x="691" y="63"/><ellipse cx="706" cy="79" fill="#ADD1B2" rx="11" ry="11" style="stroke:#181818;stroke-width:1.0;"/><path d="M708.7656,74.875 Q708.9219,74.6563 709.1094,74.5469 Q709.2969,74.4375 709.5156,74.4375 Q709.8906,74.4375 710.125,74.7031 Q710.3594,74.9531 710.3594,75.5625 L710.3594,77.0156 Q710.3594,77.625 710.125,77.8906 Q709.8906,78.1563 709.5156,78.1563 Q709.1719,78.1563 708.9688,77.9531 Q708.7656,77.7656 708.6563,77.25 Q708.6094,76.8906 708.4219,76.7031 Q708.0938,76.3281 707.4844,76.1094 Q706.875,75.8906 706.25,75.8906 Q705.4844,75.8906 704.8438,76.2188 Q704.2188,76.5469 703.7188,77.2969 Q703.2344,78.0469 703.2344,79.0781 L703.2344,80.1719 Q703.2344,81.4063 704.125,82.2344 Q705.0156,83.0469 706.6094,83.0469 Q707.5469,83.0469 708.2031,82.7969 Q708.5938,82.6406 709.0156,82.2031 Q709.2813,81.9375 709.4219,81.8594 Q709.5781,81.7813 709.7813,81.7813 Q710.1094,81.7813 710.3594,82.0469 Q710.625,82.2969 710.625,82.6406 Q710.625,82.9844 710.2813,83.3906 Q709.7813,83.9688 708.9844,84.2969 Q707.9063,84.75 706.6094,84.75 Q705.0938,84.75 703.8906,84.125 Q702.9063,83.625 702.2188,82.5625 Q701.5313,81.4844 701.5313,80.2031 L701.5313,79.0469 Q701.5313,77.7188 702.1406,76.5781 Q702.7656,75.4219 703.8594,74.8125 Q704.9531,74.1875 706.1875,74.1875 Q706.9219,74.1875 707.5625,74.3594 Q708.2188,74.5156 708.7656,74.875 Z " fill="#000000"/><text fill="#000000" font-family="sans-serif" font-size="14" lengthAdjust="spacing" textLength="143" x="720" y="84.7969">RegisterCollaboratorUI</text><line style="stroke:#181818;stroke-width:0.5;" x1="692" x2="865" y1="95" y2="95"/><line style="stroke:#181818;stroke-width:0.5;" x1="692" x2="865" y1="103" y2="103"/></g><!--class Collaborator--><g id="elem_Collaborator"><rect codeLine="24" fill="#F1F1F1" height="271.4531" id="Collaborator" rx="2.5" ry="2.5" style="stroke:#181818;stroke-width:0.5;" width="680" x="269.5" y="686"/><ellipse cx="566.25" cy="702" fill="#ADD1B2" rx="11" ry="11" style="stroke:#181818;stroke-width:1.0;"/><path d="M569.0156,697.875 Q569.1719,697.6563 569.3594,697.5469 Q569.5469,697.4375 569.7656,697.4375 Q570.1406,697.4375 570.375,697.7031 Q570.6094,697.9531 570.6094,698.5625 L570.6094,700.0156 Q570.6094,700.625 570.375,700.8906 Q570.1406,701.1563 569.7656,701.1563 Q569.4219,701.1563 569.2188,700.9531 Q569.0156,700.7656 568.9063,700.25 Q568.8594,699.8906 568.6719,699.7031 Q568.3438,699.3281 567.7344,699.1094 Q567.125,698.8906 566.5,698.8906 Q565.7344,698.8906 565.0938,699.2188 Q564.4688,699.5469 563.9688,700.2969 Q563.4844,701.0469 563.4844,702.0781 L563.4844,703.1719 Q563.4844,704.4063 564.375,705.2344 Q565.2656,706.0469 566.8594,706.0469 Q567.7969,706.0469 568.4531,705.7969 Q568.8438,705.6406 569.2656,705.2031 Q569.5313,704.9375 569.6719,704.8594 Q569.8281,704.7813 570.0313,704.7813 Q570.3594,704.7813 570.6094,705.0469 Q570.875,705.2969 570.875,705.6406 Q570.875,705.9844 570.5313,706.3906 Q570.0313,706.9688 569.2344,707.2969 Q568.1563,707.75 566.8594,707.75 Q565.3438,707.75 564.1406,707.125 Q563.1563,706.625 562.4688,705.5625 Q561.7813,704.4844 561.7813,703.2031 L561.7813,702.0469 Q561.7813,700.7188 562.3906,699.5781 Q563.0156,698.4219 564.1094,697.8125 Q565.2031,697.1875 566.4375,697.1875 Q567.1719,697.1875 567.8125,697.3594 Q568.4688,697.5156 569.0156,697.875 Z " fill="#000000"/><text fill="#000000" font-family="sans-serif" font-size="14" lengthAdjust="spacing" textLength="78" x="586.75" y="707.7969">Collaborator</text><line style="stroke:#181818;stroke-width:0.5;" x1="270.5" x2="948.5" y1="718" y2="718"/><text fill="#000000" font-family="sans-serif" font-size="14" lengthAdjust="spacing" textLength="81" x="275.5" y="737.1074">-String name</text><text fill="#000000" font-family="sans-serif" font-size="14" lengthAdjust="spacing" textLength="95" x="275.5" y="755.7285">-List&lt;Skill&gt; skill</text><text fill="#000000" font-family="sans-serif" font-size="14" lengthAdjust="spacing" textLength="50" x="275.5" y="774.3496">-Job job</text><text fill="#000000" font-family="sans-serif" font-size="14" lengthAdjust="spacing" textLength="111" x="275.5" y="792.9707">-Date dateOfBirth</text><text fill="#000000" font-family="sans-serif" font-size="14" lengthAdjust="spacing" textLength="132" x="275.5" y="811.5918">-Date admissionDate</text><text fill="#000000" font-family="sans-serif" font-size="14" lengthAdjust="spacing" textLength="112" x="275.5" y="830.2129">-Address address</text><text fill="#000000" font-family="sans-serif" font-size="14" lengthAdjust="spacing" textLength="135" x="275.5" y="848.834">-Document document</text><text fill="#000000" font-family="sans-serif" font-size="14" lengthAdjust="spacing" textLength="135" x="275.5" y="867.4551">-String phoneNumber</text><text fill="#000000" font-family="sans-serif" font-size="14" lengthAdjust="spacing" textLength="79" x="275.5" y="886.0762">-String email</text><text fill="#000000" font-family="sans-serif" font-size="14" lengthAdjust="spacing" textLength="78" x="275.5" y="904.6973">-int taxpayer</text><line style="stroke:#181818;stroke-width:0.5;" x1="270.5" x2="948.5" y1="912.2109" y2="912.2109"/><text fill="#000000" font-family="sans-serif" font-size="14" lengthAdjust="spacing" textLength="217" x="275.5" y="931.3184">-validateCollaborator(collaborator)</text><text fill="#000000" font-family="sans-serif" font-size="14" lengthAdjust="spacing" textLength="668" x="275.5" y="949.9395">+Collaborator(name, job, dateOfBirth, admissionDate, address, document, phoneNumber, email, taxpayer)</text></g><!--class Address--><g id="elem_Address"><rect codeLine="41" fill="#F1F1F1" height="141.1055" id="Address" rx="2.5" ry="2.5" style="stroke:#181818;stroke-width:0.5;" width="309" x="1232" y="1036"/><ellipse cx="1356.25" cy="1052" fill="#ADD1B2" rx="11" ry="11" style="stroke:#181818;stroke-width:1.0;"/><path d="M1359.0156,1047.875 Q1359.1719,1047.6563 1359.3594,1047.5469 Q1359.5469,1047.4375 1359.7656,1047.4375 Q1360.1406,1047.4375 1360.375,1047.7031 Q1360.6094,1047.9531 1360.6094,1048.5625 L1360.6094,1050.0156 Q1360.6094,1050.625 1360.375,1050.8906 Q1360.1406,1051.1563 1359.7656,1051.1563 Q1359.4219,1051.1563 1359.2188,1050.9531 Q1359.0156,1050.7656 1358.9063,1050.25 Q1358.8594,1049.8906 1358.6719,1049.7031 Q1358.3438,1049.3281 1357.7344,1049.1094 Q1357.125,1048.8906 1356.5,1048.8906 Q1355.7344,1048.8906 1355.0938,1049.2188 Q1354.4688,1049.5469 1353.9688,1050.2969 Q1353.4844,1051.0469 1353.4844,1052.0781 L1353.4844,1053.1719 Q1353.4844,1054.4063 1354.375,1055.2344 Q1355.2656,1056.0469 1356.8594,1056.0469 Q1357.7969,1056.0469 1358.4531,1055.7969 Q1358.8438,1055.6406 1359.2656,1055.2031 Q1359.5313,1054.9375 1359.6719,1054.8594 Q1359.8281,1054.7813 1360.0313,1054.7813 Q1360.3594,1054.7813 1360.6094,1055.0469 Q1360.875,1055.2969 1360.875,1055.6406 Q1360.875,1055.9844 1360.5313,1056.3906 Q1360.0313,1056.9688 1359.2344,1057.2969 Q1358.1563,1057.75 1356.8594,1057.75 Q1355.3438,1057.75 1354.1406,1057.125 Q1353.1563,1056.625 1352.4688,1055.5625 Q1351.7813,1054.4844 1351.7813,1053.2031 L1351.7813,1052.0469 Q1351.7813,1050.7188 1352.3906,1049.5781 Q1353.0156,1048.4219 1354.1094,1047.8125 Q1355.2031,1047.1875 1356.4375,1047.1875 Q1357.1719,1047.1875 1357.8125,1047.3594 Q1358.4688,1047.5156 1359.0156,1047.875 Z " fill="#000000"/><text fill="#000000" font-family="sans-serif" font-size="14" lengthAdjust="spacing" textLength="52" x="1376.75" y="1057.7969">Address</text><line style="stroke:#181818;stroke-width:0.5;" x1="1233" x2="1540" y1="1068" y2="1068"/><text fill="#000000" font-family="sans-serif" font-size="14" lengthAdjust="spacing" textLength="118" x="1238" y="1087.1074">-String streetName</text><text fill="#000000" font-family="sans-serif" font-size="14" lengthAdjust="spacing" textLength="85" x="1238" y="1105.7285">-int postCode</text><text fill="#000000" font-family="sans-serif" font-size="14" lengthAdjust="spacing" textLength="102" x="1238" y="1124.3496">-int doorNumber</text><line style="stroke:#181818;stroke-width:0.5;" x1="1233" x2="1540" y1="1131.8633" y2="1131.8633"/><text fill="#000000" font-family="sans-serif" font-size="14" lengthAdjust="spacing" textLength="297" x="1238" y="1150.9707">+Address(streetName, postCode, doorNumber)</text><text fill="#000000" font-family="sans-serif" font-size="14" lengthAdjust="spacing" textLength="167" x="1238" y="1169.5918">-validateAddress(address)</text></g><!--class HumanResourcesManager--><g id="elem_HumanResourcesManager"><rect codeLine="50" fill="#F1F1F1" height="48" id="HumanResourcesManager" rx="2.5" ry="2.5" style="stroke:#181818;stroke-width:0.5;" width="200" x="509.5" y="1238"/><ellipse cx="524.5" cy="1254" fill="#ADD1B2" rx="11" ry="11" style="stroke:#181818;stroke-width:1.0;"/><path d="M527.2656,1249.875 Q527.4219,1249.6563 527.6094,1249.5469 Q527.7969,1249.4375 528.0156,1249.4375 Q528.3906,1249.4375 528.625,1249.7031 Q528.8594,1249.9531 528.8594,1250.5625 L528.8594,1252.0156 Q528.8594,1252.625 528.625,1252.8906 Q528.3906,1253.1563 528.0156,1253.1563 Q527.6719,1253.1563 527.4688,1252.9531 Q527.2656,1252.7656 527.1563,1252.25 Q527.1094,1251.8906 526.9219,1251.7031 Q526.5938,1251.3281 525.9844,1251.1094 Q525.375,1250.8906 524.75,1250.8906 Q523.9844,1250.8906 523.3438,1251.2188 Q522.7188,1251.5469 522.2188,1252.2969 Q521.7344,1253.0469 521.7344,1254.0781 L521.7344,1255.1719 Q521.7344,1256.4063 522.625,1257.2344 Q523.5156,1258.0469 525.1094,1258.0469 Q526.0469,1258.0469 526.7031,1257.7969 Q527.0938,1257.6406 527.5156,1257.2031 Q527.7813,1256.9375 527.9219,1256.8594 Q528.0781,1256.7813 528.2813,1256.7813 Q528.6094,1256.7813 528.8594,1257.0469 Q529.125,1257.2969 529.125,1257.6406 Q529.125,1257.9844 528.7813,1258.3906 Q528.2813,1258.9688 527.4844,1259.2969 Q526.4063,1259.75 525.1094,1259.75 Q523.5938,1259.75 522.3906,1259.125 Q521.4063,1258.625 520.7188,1257.5625 Q520.0313,1256.4844 520.0313,1255.2031 L520.0313,1254.0469 Q520.0313,1252.7188 520.6406,1251.5781 Q521.2656,1250.4219 522.3594,1249.8125 Q523.4531,1249.1875 524.6875,1249.1875 Q525.4219,1249.1875 526.0625,1249.3594 Q526.7188,1249.5156 527.2656,1249.875 Z " fill="#000000"/><text fill="#000000" font-family="sans-serif" font-size="14" lengthAdjust="spacing" textLength="168" x="538.5" y="1259.7969">HumanResourcesManager</text><line style="stroke:#181818;stroke-width:0.5;" x1="510.5" x2="708.5" y1="1270" y2="1270"/><line style="stroke:#181818;stroke-width:0.5;" x1="510.5" x2="708.5" y1="1278" y2="1278"/></g><!--class Repositories--><g id="elem_Repositories"><rect codeLine="53" fill="#F1F1F1" height="141.1055" id="Repositories" rx="2.5" ry="2.5" style="stroke:#181818;stroke-width:0.5;" width="196" x="844.5" y="246"/><ellipse cx="898.75" cy="262" fill="#ADD1B2" rx="11" ry="11" style="stroke:#181818;stroke-width:1.0;"/><path d="M901.5156,257.875 Q901.6719,257.6563 901.8594,257.5469 Q902.0469,257.4375 902.2656,257.4375 Q902.6406,257.4375 902.875,257.7031 Q903.1094,257.9531 903.1094,258.5625 L903.1094,260.0156 Q903.1094,260.625 902.875,260.8906 Q902.6406,261.1563 902.2656,261.1563 Q901.9219,261.1563 901.7188,260.9531 Q901.5156,260.7656 901.4063,260.25 Q901.3594,259.8906 901.1719,259.7031 Q900.8438,259.3281 900.2344,259.1094 Q899.625,258.8906 899,258.8906 Q898.2344,258.8906 897.5938,259.2188 Q896.9688,259.5469 896.4688,260.2969 Q895.9844,261.0469 895.9844,262.0781 L895.9844,263.1719 Q895.9844,264.4063 896.875,265.2344 Q897.7656,266.0469 899.3594,266.0469 Q900.2969,266.0469 900.9531,265.7969 Q901.3438,265.6406 901.7656,265.2031 Q902.0313,264.9375 902.1719,264.8594 Q902.3281,264.7813 902.5313,264.7813 Q902.8594,264.7813 903.1094,265.0469 Q903.375,265.2969 903.375,265.6406 Q903.375,265.9844 903.0313,266.3906 Q902.5313,266.9688 901.7344,267.2969 Q900.6563,267.75 899.3594,267.75 Q897.8438,267.75 896.6406,267.125 Q895.6563,266.625 894.9688,265.5625 Q894.2813,264.4844 894.2813,263.2031 L894.2813,262.0469 Q894.2813,260.7188 894.8906,259.5781 Q895.5156,258.4219 896.6094,257.8125 Q897.7031,257.1875 898.9375,257.1875 Q899.6719,257.1875 900.3125,257.3594 Q900.9688,257.5156 901.5156,257.875 Z " fill="#000000"/><text fill="#000000" font-family="sans-serif" font-size="14" lengthAdjust="spacing" textLength="79" x="919.25" y="267.7969">Repositories</text><line style="stroke:#181818;stroke-width:0.5;" x1="845.5" x2="1039.5" y1="278" y2="278"/><line style="stroke:#181818;stroke-width:0.5;" x1="845.5" x2="1039.5" y1="286" y2="286"/><text fill="#000000" font-family="sans-serif" font-size="14" lengthAdjust="spacing" textLength="94" x="850.5" y="305.1074">-Repositories()</text><text fill="#000000" font-family="sans-serif" font-size="14" lengthAdjust="spacing" textLength="182" x="850.5" y="323.7285">+getInstance() : Repositories</text><text fill="#000000" font-family="sans-serif" font-size="14" lengthAdjust="spacing" textLength="128" x="850.5" y="342.3496">+getJobRepository()</text><text fill="#000000" font-family="sans-serif" font-size="14" lengthAdjust="spacing" textLength="184" x="850.5" y="360.9707">+getCollaboratorRepository()</text><text fill="#000000" font-family="sans-serif" font-size="14" lengthAdjust="spacing" textLength="158" x="850.5" y="379.5918">+getAddressRepository()</text></g><!--class JobRepository--><g id="elem_JobRepository"><rect codeLine="62" fill="#F1F1F1" height="103.8633" id="JobRepository" rx="2.5" ry="2.5" style="stroke:#181818;stroke-width:0.5;" width="179" x="1154" y="769.5"/><ellipse cx="1194.65" cy="785.5" fill="#ADD1B2" rx="11" ry="11" style="stroke:#181818;stroke-width:1.0;"/><path d="M1197.4156,781.375 Q1197.5719,781.1563 1197.7594,781.0469 Q1197.9469,780.9375 1198.1656,780.9375 Q1198.5406,780.9375 1198.775,781.2031 Q1199.0094,781.4531 1199.0094,782.0625 L1199.0094,783.5156 Q1199.0094,784.125 1198.775,784.3906 Q1198.5406,784.6563 1198.1656,784.6563 Q1197.8219,784.6563 1197.6188,784.4531 Q1197.4156,784.2656 1197.3063,783.75 Q1197.2594,783.3906 1197.0719,783.2031 Q1196.7438,782.8281 1196.1344,782.6094 Q1195.525,782.3906 1194.9,782.3906 Q1194.1344,782.3906 1193.4938,782.7188 Q1192.8688,783.0469 1192.3688,783.7969 Q1191.8844,784.5469 1191.8844,785.5781 L1191.8844,786.6719 Q1191.8844,787.9063 1192.775,788.7344 Q1193.6656,789.5469 1195.2594,789.5469 Q1196.1969,789.5469 1196.8531,789.2969 Q1197.2438,789.1406 1197.6656,788.7031 Q1197.9313,788.4375 1198.0719,788.3594 Q1198.2281,788.2813 1198.4313,788.2813 Q1198.7594,788.2813 1199.0094,788.5469 Q1199.275,788.7969 1199.275,789.1406 Q1199.275,789.4844 1198.9313,789.8906 Q1198.4313,790.4688 1197.6344,790.7969 Q1196.5563,791.25 1195.2594,791.25 Q1193.7438,791.25 1192.5406,790.625 Q1191.5563,790.125 1190.8688,789.0625 Q1190.1813,787.9844 1190.1813,786.7031 L1190.1813,785.5469 Q1190.1813,784.2188 1190.7906,783.0781 Q1191.4156,781.9219 1192.5094,781.3125 Q1193.6031,780.6875 1194.8375,780.6875 Q1195.5719,780.6875 1196.2125,780.8594 Q1196.8688,781.0156 1197.4156,781.375 Z " fill="#000000"/><text fill="#000000" font-family="sans-serif" font-size="14" lengthAdjust="spacing" textLength="90" x="1214.35" y="791.2969">JobRepository</text><line style="stroke:#181818;stroke-width:0.5;" x1="1155" x2="1332" y1="801.5" y2="801.5"/><text fill="#000000" font-family="sans-serif" font-size="14" lengthAdjust="spacing" textLength="92" x="1160" y="820.6074">-List &lt;Job&gt; job</text><line style="stroke:#181818;stroke-width:0.5;" x1="1155" x2="1332" y1="828.1211" y2="828.1211"/><text fill="#000000" font-family="sans-serif" font-size="14" lengthAdjust="spacing" textLength="82" x="1160" y="847.2285">+getJobList()</text><text fill="#000000" font-family="sans-serif" font-size="14" lengthAdjust="spacing" textLength="167" x="1160" y="865.8496">+getJobByName(jobName)</text></g><!--class AddressRepository--><g id="elem_AddressRepository"><rect codeLine="69" fill="#F1F1F1" height="141.1055" id="AddressRepository" rx="2.5" ry="2.5" style="stroke:#181818;stroke-width:0.5;" width="179" x="1440" y="246"/><ellipse cx="1467.15" cy="262" fill="#ADD1B2" rx="11" ry="11" style="stroke:#181818;stroke-width:1.0;"/><path d="M1469.9156,257.875 Q1470.0719,257.6563 1470.2594,257.5469 Q1470.4469,257.4375 1470.6656,257.4375 Q1471.0406,257.4375 1471.275,257.7031 Q1471.5094,257.9531 1471.5094,258.5625 L1471.5094,260.0156 Q1471.5094,260.625 1471.275,260.8906 Q1471.0406,261.1563 1470.6656,261.1563 Q1470.3219,261.1563 1470.1188,260.9531 Q1469.9156,260.7656 1469.8063,260.25 Q1469.7594,259.8906 1469.5719,259.7031 Q1469.2438,259.3281 1468.6344,259.1094 Q1468.025,258.8906 1467.4,258.8906 Q1466.6344,258.8906 1465.9938,259.2188 Q1465.3688,259.5469 1464.8688,260.2969 Q1464.3844,261.0469 1464.3844,262.0781 L1464.3844,263.1719 Q1464.3844,264.4063 1465.275,265.2344 Q1466.1656,266.0469 1467.7594,266.0469 Q1468.6969,266.0469 1469.3531,265.7969 Q1469.7438,265.6406 1470.1656,265.2031 Q1470.4313,264.9375 1470.5719,264.8594 Q1470.7281,264.7813 1470.9313,264.7813 Q1471.2594,264.7813 1471.5094,265.0469 Q1471.775,265.2969 1471.775,265.6406 Q1471.775,265.9844 1471.4313,266.3906 Q1470.9313,266.9688 1470.1344,267.2969 Q1469.0563,267.75 1467.7594,267.75 Q1466.2438,267.75 1465.0406,267.125 Q1464.0563,266.625 1463.3688,265.5625 Q1462.6813,264.4844 1462.6813,263.2031 L1462.6813,262.0469 Q1462.6813,260.7188 1463.2906,259.5781 Q1463.9156,258.4219 1465.0094,257.8125 Q1466.1031,257.1875 1467.3375,257.1875 Q1468.0719,257.1875 1468.7125,257.3594 Q1469.3688,257.5156 1469.9156,257.875 Z " fill="#000000"/><text fill="#000000" font-family="sans-serif" font-size="14" lengthAdjust="spacing" textLength="120" x="1483.85" y="267.7969">AddressRepository</text><line style="stroke:#181818;stroke-width:0.5;" x1="1441" x2="1618" y1="278" y2="278"/><text fill="#000000" font-family="sans-serif" font-size="14" lengthAdjust="spacing" textLength="92" x="1446" y="297.1074">-List &lt;Job&gt; job</text><line style="stroke:#181818;stroke-width:0.5;" x1="1441" x2="1618" y1="304.6211" y2="304.6211"/><text fill="#000000" font-family="sans-serif" font-size="14" lengthAdjust="spacing" textLength="82" x="1446" y="323.7285">+getJobList()</text><text fill="#000000" font-family="sans-serif" font-size="14" lengthAdjust="spacing" textLength="167" x="1446" y="342.3496">+getJobByName(jobName)</text><text fill="#000000" font-family="sans-serif" font-size="14" lengthAdjust="spacing" textLength="142" x="1446" y="360.9707">-addAddress(address)</text><text fill="#000000" font-family="sans-serif" font-size="14" lengthAdjust="spacing" textLength="167" x="1446" y="379.5918">-validateAddress(address)</text></g><!--class CollaboratorRepository--><g id="elem_CollaboratorRepository"><rect codeLine="78" fill="#F1F1F1" height="141.1055" id="CollaboratorRepository" rx="2.5" ry="2.5" style="stroke:#181818;stroke-width:0.5;" width="420" x="318.5" y="466"/><ellipse cx="451.25" cy="482" fill="#ADD1B2" rx="11" ry="11" style="stroke:#181818;stroke-width:1.0;"/><path d="M454.0156,477.875 Q454.1719,477.6563 454.3594,477.5469 Q454.5469,477.4375 454.7656,477.4375 Q455.1406,477.4375 455.375,477.7031 Q455.6094,477.9531 455.6094,478.5625 L455.6094,480.0156 Q455.6094,480.625 455.375,480.8906 Q455.1406,481.1563 454.7656,481.1563 Q454.4219,481.1563 454.2188,480.9531 Q454.0156,480.7656 453.9063,480.25 Q453.8594,479.8906 453.6719,479.7031 Q453.3438,479.3281 452.7344,479.1094 Q452.125,478.8906 451.5,478.8906 Q450.7344,478.8906 450.0938,479.2188 Q449.4688,479.5469 448.9688,480.2969 Q448.4844,481.0469 448.4844,482.0781 L448.4844,483.1719 Q448.4844,484.4063 449.375,485.2344 Q450.2656,486.0469 451.8594,486.0469 Q452.7969,486.0469 453.4531,485.7969 Q453.8438,485.6406 454.2656,485.2031 Q454.5313,484.9375 454.6719,484.8594 Q454.8281,484.7813 455.0313,484.7813 Q455.3594,484.7813 455.6094,485.0469 Q455.875,485.2969 455.875,485.6406 Q455.875,485.9844 455.5313,486.3906 Q455.0313,486.9688 454.2344,487.2969 Q453.1563,487.75 451.8594,487.75 Q450.3438,487.75 449.1406,487.125 Q448.1563,486.625 447.4688,485.5625 Q446.7813,484.4844 446.7813,483.2031 L446.7813,482.0469 Q446.7813,480.7188 447.3906,479.5781 Q448.0156,478.4219 449.1094,477.8125 Q450.2031,477.1875 451.4375,477.1875 Q452.1719,477.1875 452.8125,477.3594 Q453.4688,477.5156 454.0156,477.875 Z " fill="#000000"/><text fill="#000000" font-family="sans-serif" font-size="14" lengthAdjust="spacing" textLength="146" x="471.75" y="487.7969">CollaboratorRepository</text><line style="stroke:#181818;stroke-width:0.5;" x1="319.5" x2="737.5" y1="498" y2="498"/><text fill="#000000" font-family="sans-serif" font-size="14" lengthAdjust="spacing" textLength="204" x="324.5" y="517.1074">-List &lt;Collaborator&gt; collaborator</text><line style="stroke:#181818;stroke-width:0.5;" x1="319.5" x2="737.5" y1="524.6211" y2="524.6211"/><text fill="#000000" font-family="sans-serif" font-size="14" lengthAdjust="spacing" textLength="192" x="324.5" y="543.7285">-addCollaborator(collaborator)</text><text fill="#000000" font-family="sans-serif" font-size="14" lengthAdjust="spacing" textLength="217" x="324.5" y="562.3496">-validateCollaborator(collaborator)</text><text fill="#000000" font-family="sans-serif" font-size="14" lengthAdjust="spacing" textLength="404" x="324.5" y="580.9707">+registerCollaborator(name, birthdate, admission date, address,</text><text fill="#000000" font-family="sans-serif" font-size="14" lengthAdjust="spacing" textLength="376" x="324.5" y="599.5918">mobile, email, taxpayer,ID doc type, respective number, job)</text></g><!--class Job--><g id="elem_Job"><rect codeLine="86" fill="#F1F1F1" height="66.6211" id="Job" rx="2.5" ry="2.5" style="stroke:#181818;stroke-width:0.5;" width="93" x="1007" y="788"/><ellipse cx="1039.55" cy="804" fill="#ADD1B2" rx="11" ry="11" style="stroke:#181818;stroke-width:1.0;"/><path d="M1042.3156,799.875 Q1042.4719,799.6563 1042.6594,799.5469 Q1042.8469,799.4375 1043.0656,799.4375 Q1043.4406,799.4375 1043.675,799.7031 Q1043.9094,799.9531 1043.9094,800.5625 L1043.9094,802.0156 Q1043.9094,802.625 1043.675,802.8906 Q1043.4406,803.1563 1043.0656,803.1563 Q1042.7219,803.1563 1042.5188,802.9531 Q1042.3156,802.7656 1042.2063,802.25 Q1042.1594,801.8906 1041.9719,801.7031 Q1041.6438,801.3281 1041.0344,801.1094 Q1040.425,800.8906 1039.8,800.8906 Q1039.0344,800.8906 1038.3938,801.2188 Q1037.7688,801.5469 1037.2688,802.2969 Q1036.7844,803.0469 1036.7844,804.0781 L1036.7844,805.1719 Q1036.7844,806.4063 1037.675,807.2344 Q1038.5656,808.0469 1040.1594,808.0469 Q1041.0969,808.0469 1041.7531,807.7969 Q1042.1438,807.6406 1042.5656,807.2031 Q1042.8313,806.9375 1042.9719,806.8594 Q1043.1281,806.7813 1043.3313,806.7813 Q1043.6594,806.7813 1043.9094,807.0469 Q1044.175,807.2969 1044.175,807.6406 Q1044.175,807.9844 1043.8313,808.3906 Q1043.3313,808.9688 1042.5344,809.2969 Q1041.4563,809.75 1040.1594,809.75 Q1038.6438,809.75 1037.4406,809.125 Q1036.4563,808.625 1035.7688,807.5625 Q1035.0813,806.4844 1035.0813,805.2031 L1035.0813,804.0469 Q1035.0813,802.7188 1035.6906,801.5781 Q1036.3156,800.4219 1037.4094,799.8125 Q1038.5031,799.1875 1039.7375,799.1875 Q1040.4719,799.1875 1041.1125,799.3594 Q1041.7688,799.5156 1042.3156,799.875 Z " fill="#000000"/><text fill="#000000" font-family="sans-serif" font-size="14" lengthAdjust="spacing" textLength="22" x="1057.45" y="809.7969">Job</text><line style="stroke:#181818;stroke-width:0.5;" x1="1008" x2="1099" y1="820" y2="820"/><text fill="#000000" font-family="sans-serif" font-size="14" lengthAdjust="spacing" textLength="81" x="1013" y="839.1074">-String name</text><line style="stroke:#181818;stroke-width:0.5;" x1="1008" x2="1099" y1="846.6211" y2="846.6211"/></g><!--class Document--><g id="elem_Document"><rect codeLine="90" fill="#F1F1F1" height="122.4844" id="Document" rx="2.5" ry="2.5" style="stroke:#181818;stroke-width:0.5;" width="205" x="7" y="760.5"/><ellipse cx="73.25" cy="776.5" fill="#ADD1B2" rx="11" ry="11" style="stroke:#181818;stroke-width:1.0;"/><path d="M76.0156,772.375 Q76.1719,772.1563 76.3594,772.0469 Q76.5469,771.9375 76.7656,771.9375 Q77.1406,771.9375 77.375,772.2031 Q77.6094,772.4531 77.6094,773.0625 L77.6094,774.5156 Q77.6094,775.125 77.375,775.3906 Q77.1406,775.6563 76.7656,775.6563 Q76.4219,775.6563 76.2188,775.4531 Q76.0156,775.2656 75.9063,774.75 Q75.8594,774.3906 75.6719,774.2031 Q75.3438,773.8281 74.7344,773.6094 Q74.125,773.3906 73.5,773.3906 Q72.7344,773.3906 72.0938,773.7188 Q71.4688,774.0469 70.9688,774.7969 Q70.4844,775.5469 70.4844,776.5781 L70.4844,777.6719 Q70.4844,778.9063 71.375,779.7344 Q72.2656,780.5469 73.8594,780.5469 Q74.7969,780.5469 75.4531,780.2969 Q75.8438,780.1406 76.2656,779.7031 Q76.5313,779.4375 76.6719,779.3594 Q76.8281,779.2813 77.0313,779.2813 Q77.3594,779.2813 77.6094,779.5469 Q77.875,779.7969 77.875,780.1406 Q77.875,780.4844 77.5313,780.8906 Q77.0313,781.4688 76.2344,781.7969 Q75.1563,782.25 73.8594,782.25 Q72.3438,782.25 71.1406,781.625 Q70.1563,781.125 69.4688,780.0625 Q68.7813,778.9844 68.7813,777.7031 L68.7813,776.5469 Q68.7813,775.2188 69.3906,774.0781 Q70.0156,772.9219 71.1094,772.3125 Q72.2031,771.6875 73.4375,771.6875 Q74.1719,771.6875 74.8125,771.8594 Q75.4688,772.0156 76.0156,772.375 Z " fill="#000000"/><text fill="#000000" font-family="sans-serif" font-size="14" lengthAdjust="spacing" textLength="64" x="93.75" y="782.2969">Document</text><line style="stroke:#181818;stroke-width:0.5;" x1="8" x2="211" y1="792.5" y2="792.5"/><text fill="#000000" font-family="sans-serif" font-size="14" lengthAdjust="spacing" textLength="101" x="13" y="811.6074">-String docType</text><text fill="#000000" font-family="sans-serif" font-size="14" lengthAdjust="spacing" textLength="72" x="13" y="830.2285">-int number</text><line style="stroke:#181818;stroke-width:0.5;" x1="8" x2="211" y1="837.7422" y2="837.7422"/><text fill="#000000" font-family="sans-serif" font-size="14" lengthAdjust="spacing" textLength="193" x="13" y="856.8496">+Document(docType, number)</text><text fill="#000000" font-family="sans-serif" font-size="14" lengthAdjust="spacing" textLength="175" x="13" y="875.4707">-validate(docType, number)</text></g><!--reverse link Collaborator to HumanResourcesManager--><g id="link_Collaborator_HumanResourcesManager"><path codeLine="98" d="M609.5,975.04 C609.5,1075.5 609.5,1185.98 609.5,1237.8 " fill="none" id="Collaborator-backto-HumanResourcesManager" style="stroke:#181818;stroke-width:1.0;"/><polygon fill="none" points="609.5,957.04,603.5,975.04,615.5,975.04,609.5,957.04" style="stroke:#181818;stroke-width:1.0;"/></g><!--reverse link HumanResourcesManager to Collaborator--><g id="link_HumanResourcesManager_Collaborator"><path codeLine="102" d="M621.3878,1232.3674 C627.3078,1218.0874 631.5,1208 631.5,1208 C631.5,1208 631.5,987 631.5,987 C631.5,987 629.88,974.88 627.52,957.21 " fill="none" id="HumanResourcesManager-backto-Collaborator" style="stroke:#181818;stroke-width:1.0;"/><polygon fill="#181818" points="619.09,1237.91,626.2317,1231.128,621.0048,1233.2912,618.8416,1228.0643,619.09,1237.91" style="stroke:#181818;stroke-width:1.0;"/><text fill="#000000" font-family="sans-serif" font-size="13" lengthAdjust="spacing" textLength="59" x="632.5" y="1112.0283">createdBy</text></g><!--link Collaborator to Job--><g id="link_Collaborator_Job"><path codeLine="99" d="M949.68,821.5 C971.26,821.5 984.74,821.5 1000.84,821.5 " fill="none" id="Collaborator-to-Job" style="stroke:#181818;stroke-width:1.0;"/><polygon fill="#181818" points="1006.84,821.5,997.84,817.5,1001.84,821.5,997.84,825.5,1006.84,821.5" style="stroke:#181818;stroke-width:1.0;"/><text fill="#000000" font-family="sans-serif" font-size="13" lengthAdjust="spacing" textLength="21" x="967.75" y="814.5283">has</text></g><!--link Collaborator to Address--><g id="link_Collaborator_Address"><path codeLine="100" d="M949.74,946.42 C1048.18,982.28 1145.1822,1017.6068 1226.2122,1047.1168 " fill="none" id="Collaborator-to-Address" style="stroke:#181818;stroke-width:1.0;"/><polygon fill="#181818" points="1231.85,1049.17,1224.7622,1042.3317,1227.1519,1047.459,1222.0246,1049.8487,1231.85,1049.17" style="stroke:#181818;stroke-width:1.0;"/><text fill="#000000" font-family="sans-serif" font-size="13" lengthAdjust="spacing" textLength="25" x="1113.5" y="1002.0283">lives</text><text fill="#000000" font-family="sans-serif" font-size="13" lengthAdjust="spacing" textLength="5" x="957.773" y="946.175">*</text><text fill="#000000" font-family="sans-serif" font-size="13" lengthAdjust="spacing" textLength="7" x="1217.1896" y="1043.0142">1</text></g><!--link RegisterCollaboratorController to Repositories--><g id="link_RegisterCollaboratorController_Repositories"><path codeLine="104" d="M1054.58,167.25 C1035.29,192.77 1017.6782,216.0637 998.9382,240.8537 " fill="none" id="RegisterCollaboratorController-to-Repositories" style="stroke:#181818;stroke-width:1.0;stroke-dasharray:7.0,7.0;"/><polygon fill="#181818" points="995.32,245.64,1003.9382,240.8727,998.3352,241.6514,997.5564,236.0484,995.32,245.64" style="stroke:#181818;stroke-width:1.0;"/><text fill="#000000" font-family="sans-serif" font-size="13" lengthAdjust="spacing" textLength="67" x="1029.5" y="212.0283">repositories</text></g><!--link RegisterCollaboratorController to JobRepository--><g id="link_RegisterCollaboratorController_JobRepository"><path codeLine="105" d="M1145.75,167.22 C1152.42,184.12 1157.5,197 1157.5,197 C1157.5,197 1167.5,246 1167.5,246 C1167.5,246 1217.303,622.5118 1235.933,763.3118 " fill="none" id="RegisterCollaboratorController-to-JobRepository" style="stroke:#181818;stroke-width:1.0;stroke-dasharray:7.0,7.0;"/><polygon fill="#181818" points="1236.72,769.26,1239.5049,759.8131,1236.0641,764.3032,1231.574,760.8625,1236.72,769.26" style="stroke:#181818;stroke-width:1.0;"/><text fill="#000000" font-family="sans-serif" font-size="13" lengthAdjust="spacing" textLength="7" x="1228.3386" y="758.1551">1</text></g><!--link RegisterCollaboratorController to CollaboratorRepository--><g id="link_RegisterCollaboratorController_CollaboratorRepository"><path codeLine="106" d="M900.86,161.06 C890.02,164.77 883.5,167 883.5,167 C883.5,167 765.5,197 765.5,197 C765.5,197 650.1413,361.765 580.7613,460.855 " fill="none" id="RegisterCollaboratorController-to-CollaboratorRepository" style="stroke:#181818;stroke-width:1.0;stroke-dasharray:7.0,7.0;"/><polygon fill="#181818" points="577.32,465.77,585.7587,460.6917,580.1878,461.6742,579.2053,456.1033,577.32,465.77" style="stroke:#181818;stroke-width:1.0;"/><text fill="#000000" font-family="sans-serif" font-size="13" lengthAdjust="spacing" textLength="7" x="574.9936" y="454.6373">1</text></g><!--link RegisterCollaboratorController to AddressRepository--><g id="link_RegisterCollaboratorController_AddressRepository"><path codeLine="107" d="M1328.3,166.2 C1375.87,183.6 1412.5,197 1412.5,197 C1412.5,197 1431.0848,215.8201 1456.5448,241.6101 " fill="none" id="RegisterCollaboratorController-to-AddressRepository" style="stroke:#181818;stroke-width:1.0;stroke-dasharray:7.0,7.0;"/><polygon fill="#181818" points="1460.76,245.88,1457.2837,236.665,1457.2473,242.3218,1451.5906,242.2854,1460.76,245.88" style="stroke:#181818;stroke-width:1.0;"/><text fill="#000000" font-family="sans-serif" font-size="13" lengthAdjust="spacing" textLength="7" x="1446.3103" y="234.7586">1</text></g><!--link RegisterCollaboratorController to Collaborator--><g id="link_RegisterCollaboratorController_Collaborator"><path codeLine="108" d="M970.58,167.23 C898.97,206.65 827.5,246 827.5,246 C827.5,246 756.5,607 756.5,607 C756.5,607 734.9325,638.318 705.5825,680.948 " fill="none" id="RegisterCollaboratorController-to-Collaborator" style="stroke:#181818;stroke-width:1.0;stroke-dasharray:7.0,7.0;"/><polygon fill="#181818" points="702.18,685.89,710.5784,680.7453,705.0154,681.7717,703.989,676.2087,702.18,685.89" style="stroke:#181818;stroke-width:1.0;"/></g><!--link RegisterCollaboratorController to Job--><g id="link_RegisterCollaboratorController_Job"><path codeLine="109" d="M1126.07,167.46 C1131.79,206.81 1137.5,246 1137.5,246 C1137.5,246 1150.5,466 1150.5,466 C1150.5,466 1150.5,607 1150.5,607 C1150.5,607 1098.1319,722.2574 1070.9219,782.1474 " fill="none" id="RegisterCollaboratorController-to-Job" style="stroke:#181818;stroke-width:1.0;stroke-dasharray:7.0,7.0;"/><polygon fill="#181818" points="1068.44,787.61,1075.8045,781.0706,1070.5082,783.0578,1068.521,777.7615,1068.44,787.61" style="stroke:#181818;stroke-width:1.0;"/></g><!--link RegisterCollaboratorController to Address--><g id="link_RegisterCollaboratorController_Address"><path codeLine="110" d="M1209.25,167.25 C1287.75,232.91 1386.5,315.5 1386.5,315.5 C1386.5,315.5 1386.5,315.5 1386.5,822.5 C1386.5,822.5 1386.5,946.11 1386.5,1029.91 " fill="none" id="RegisterCollaboratorController-to-Address" style="stroke:#181818;stroke-width:1.0;stroke-dasharray:7.0,7.0;"/><polygon fill="#181818" points="1386.5,1035.91,1390.5,1026.91,1386.5,1030.91,1382.5,1026.91,1386.5,1035.91" style="stroke:#181818;stroke-width:1.0;"/></g><!--link RegisterCollaboratorController to Document--><g id="link_RegisterCollaboratorController_Document"><path codeLine="111" d="M900.86,161.06 C890.02,164.77 883.5,167 883.5,167 C883.5,167 745.5,197 745.5,197 C745.5,197 627.5,246 627.5,246 C627.5,246 300.5,466 300.5,466 C300.5,466 199.2358,653.9378 144.7458,755.0778 " fill="none" id="RegisterCollaboratorController-to-Document" style="stroke:#181818;stroke-width:1.0;stroke-dasharray:7.0,7.0;"/><polygon fill="#181818" points="141.9,760.36,149.6902,754.334,144.2715,755.9582,142.6473,750.5395,141.9,760.36" style="stroke:#181818;stroke-width:1.0;"/></g><!--link RegisterCollaboratorUI to RegisterCollaboratorController--><g id="link_RegisterCollaboratorUI_RegisterCollaboratorController"><path codeLine="113" d="M866.2,87 C880.37,87 890.5,87 890.5,87 C890.5,87 888.44,87 894.84,87 " fill="none" id="RegisterCollaboratorUI-to-RegisterCollaboratorController" style="stroke:#181818;stroke-width:1.0;stroke-dasharray:7.0,7.0;"/><polygon fill="#181818" points="900.84,87,891.84,83,895.84,87,891.84,91,900.84,87" style="stroke:#181818;stroke-width:1.0;"/></g><!--link Repositories to Repositories--><g id="link_Repositories_Repositories"><path codeLine="115" d="M1040.52,296.6 C1060.87,298.69 1075.5,305.33 1075.5,316.5 C1075.5,327.67 1066.8386,333.697 1046.4886,335.787 " fill="none" id="Repositories-to-Repositories" style="stroke:#181818;stroke-width:1.0;"/><polygon fill="#181818" points="1040.52,336.4,1049.8816,339.4596,1045.4938,335.8892,1049.0642,331.5014,1040.52,336.4" style="stroke:#181818;stroke-width:1.0;"/><text fill="#000000" font-family="sans-serif" font-size="13" lengthAdjust="spacing" textLength="49" x="1081.5" y="322.0283">instance</text></g><!--link Repositories to JobRepository--><g id="link_Repositories_JobRepository"><path codeLine="116" d="M984.19,387.18 C1045.53,489.67 1155.5791,673.5714 1209.8291,764.2314 " fill="none" id="Repositories-to-JobRepository" style="stroke:#181818;stroke-width:1.0;"/><polygon fill="#181818" points="1212.91,769.38,1211.7211,759.6032,1210.3426,765.0895,1204.8563,763.711,1212.91,769.38" style="stroke:#181818;stroke-width:1.0;"/><text fill="#000000" font-family="sans-serif" font-size="13" lengthAdjust="spacing" textLength="79" x="1113.5" y="542.0283">jobRepository</text></g><!--link Repositories to AddressRepository--><g id="link_Repositories_AddressRepository"><path codeLine="117" d="M1040.75,316.5 C1152.04,316.5 1325.89,316.5 1433.61,316.5 " fill="none" id="Repositories-to-AddressRepository" style="stroke:#181818;stroke-width:1.0;"/><polygon fill="#181818" points="1439.61,316.5,1430.61,312.5,1434.61,316.5,1430.61,320.5,1439.61,316.5" style="stroke:#181818;stroke-width:1.0;"/><text fill="#000000" font-family="sans-serif" font-size="13" lengthAdjust="spacing" textLength="108" x="1186.25" y="309.5283">addressRepository</text></g><!--link Repositories to CollaboratorRepository--><g id="link_Repositories_CollaboratorRepository"><path codeLine="118" d="M844.39,369.16 C789.51,398.06 725.6691,431.6747 666.0691,463.0547 " fill="none" id="Repositories-to-CollaboratorRepository" style="stroke:#181818;stroke-width:1.0;"/><polygon fill="#181818" points="660.76,465.85,670.5872,465.1965,665.1842,463.5206,666.8601,458.1177,660.76,465.85" style="stroke:#181818;stroke-width:1.0;"/><text fill="#000000" font-family="sans-serif" font-size="13" lengthAdjust="spacing" textLength="129" x="748.5" y="432.0283">collaboratorRepository</text></g><!--link CollaboratorRepository to Collaborator--><g id="link_CollaboratorRepository_Collaborator"><path codeLine="120" d="M548.42,607.09 C555.26,630.99 561.508,652.8419 569.318,680.1119 " fill="none" id="CollaboratorRepository-to-Collaborator" style="stroke:#181818;stroke-width:1.0;"/><polygon fill="#181818" points="570.97,685.88,572.3375,676.1265,569.5934,681.0732,564.6467,678.3291,570.97,685.88" style="stroke:#181818;stroke-width:1.0;"/></g><!--link CollaboratorRepository to Document--><g id="link_CollaboratorRepository_Document"><path codeLine="121" d="M398.52,607.18 C326.55,645.77 251.5,686 251.5,686 C251.5,686 215.1863,720.3941 177.3763,756.2041 " fill="none" id="CollaboratorRepository-to-Document" style="stroke:#181818;stroke-width:1.0;"/><polygon fill="#181818" points="173.02,760.33,182.305,757.0454,176.6502,756.8918,176.8039,751.237,173.02,760.33" style="stroke:#181818;stroke-width:1.0;"/></g><!--reverse link Job to JobRepository--><g id="link_Job_JobRepository"><path codeLine="123" d="M1106.47,821.5 C1122.62,821.5 1135.29,821.5 1153.7,821.5 " fill="none" id="Job-backto-JobRepository" style="stroke:#181818;stroke-width:1.0;"/><polygon fill="#181818" points="1100.47,821.5,1109.47,825.5,1105.47,821.5,1109.47,817.5,1100.47,821.5" style="stroke:#181818;stroke-width:1.0;"/><text fill="#000000" font-family="sans-serif" font-size="13" lengthAdjust="spacing" textLength="17" x="1118.5" y="814.5283">job</text></g><!--link AddressRepository to Address--><g id="link_AddressRepository_Address"><path codeLine="125" d="M1517.64,387.31 C1487.89,562.34 1412.5,1006 1412.5,1006 C1412.5,1006 1410.5872,1013.325 1406.2172,1030.045 " fill="none" id="AddressRepository-to-Address" style="stroke:#181818;stroke-width:1.0;"/><polygon fill="#181818" points="1404.7,1035.85,1410.8458,1028.154,1405.9643,1031.0125,1403.1058,1026.131,1404.7,1035.85" style="stroke:#181818;stroke-width:1.0;"/><text fill="#000000" font-family="sans-serif" font-size="13" lengthAdjust="spacing" textLength="46" x="1475.5" y="652.0283">address</text></g><!--reverse link Document to Collaborator--><g id="link_Document_Collaborator"><path codeLine="127" d="M218.19,821.5 C235.91,821.5 249.16,821.5 269.32,821.5 " fill="none" id="Document-backto-Collaborator" style="stroke:#181818;stroke-width:1.0;"/><polygon fill="#181818" points="212.19,821.5,221.19,825.5,217.19,821.5,221.19,817.5,212.19,821.5" style="stroke:#181818;stroke-width:1.0;"/><text fill="#000000" font-family="sans-serif" font-size="13" lengthAdjust="spacing" textLength="21" x="230.25" y="814.5283">has</text><text fill="#000000" font-family="sans-serif" font-size="13" lengthAdjust="spacing" textLength="7" x="219.9883" y="817.897">1</text><text fill="#000000" font-family="sans-serif" font-size="13" lengthAdjust="spacing" textLength="7" x="254.265" y="818.3272">1</text></g><!--SRC=[nLKxRzim4DxvAmvUeZHIqAw2OI19XxfeKo1kjowKnDXi958WwRJkux_tA8aIAIcn0nHebeZtlk_kEv_f1ovggcW5bHGotobPCJ1gpyYWgMd-GBTiOmub0yLoGyMsz0tqZXRoEnTRkAUbzZKb5ymSQWQrB0_sGSvcb58PIJollAHQNncZUBOtR9rBiU4_6RmcvAnazmQC1CMtEmC5j-LmAGWXZHFSiItNXgaRMPOqaueQYT_2A7mp1Ry80VoxE68NdNTcQiOi4hHYCMHScLr13NxIek9QOndWteLYMiVmLLGouoMAM4Lv6OEXFsfwO2fUluL2vc3RZp6BhcqVZmp4lifG3Tza1ZPFMqZI5tBLXewqKOoPswQIMcfp8mlyAgHKjqq4vxTbvhtChW_MCiAWjttCYqxt0UDYlt-UG_3B6f7hBNmDofj46nmMpj-Mt0fisENcWPVb2hJzrueneUsjVRn5j1h8FjrVMpGzQG-fVRNohdM7RcSiytt5XB5eDXz1EVLE2jO24iYRQRGIZhvkAeHqg3tIajkwWh7dtiD1EBCNs5tiDnM7lNZRuKgE_Jedg-ADnY4GOZwimj2HMub1Cgn6Hu4NRfA3nBbrNNZLlTjNLDmnBVSgP_eZ5NWpbBytTmpZSqIAC-sOc0JIo5lDjT1uQ78MdKCQ60NRsoiElgy_bdcBher0sHSQn7LeWzreMA9krMpm78byqPXpuod- -mnD49pBP4Gd3d0UjL5rlj4AV4wuWMBW8xnv0S7-vm4EDsBkqlNw_Wo5HfZXCoOOM2Xy1Zgdg3EBE_LeO5CrfWrkC2n_9qa2ymmScIQhffaKTbI7giMh1IIeNhnPz9ScnH_fHwGScIVtqcRrWwIGAuOr5zS7Gexy5b-kmekGuXWybX_plcmh3RXwtAdpcb_rKtDE67oAewywnHuREyMig-KKKxTlyvF1t_Xc8i-5iPxUn9B917btj2TsuKbDBRq2-4BhwObC7QUVz4fMJnsmD3XJNW3oXCCurdDs0wYMLijahbD2fWqDNGwz4TBV4Rjc66oygnrl_m80]--></g></svg>