<?xml version="1.0" encoding="us-ascii" standalone="no"?><svg xmlns="http://www.w3.org/2000/svg" xmlns:xlink="http://www.w3.org/1999/xlink" contentStyleType="text/css" height="1103px" preserveAspectRatio="none" style="width:1292px;height:1103px;background:#FFFFFF;" version="1.1" viewBox="0 0 1292 1103" width="1292px" zoomAndPan="magnify"><defs/><g><rect fill="#FFFFFF" height="917.2832" style="stroke:#181818;stroke-width:1.0;" width="10" x="109.5" y="93.6211"/><rect fill="#FFFFFF" height="158.0859" style="stroke:#181818;stroke-width:1.0;" width="10" x="489.5" y="116.9121"/><rect fill="#FFFFFF" height="48.582" style="stroke:#181818;stroke-width:1.0;" width="10" x="489.5" y="306.2891"/><rect fill="#FFFFFF" height="31.291" style="stroke:#181818;stroke-width:1.0;" width="10" x="489.5" y="386.1621"/><rect fill="#FFFFFF" height="553.1602" style="stroke:#181818;stroke-width:1.0;" width="10" x="489.5" y="448.7441"/><rect fill="#FFFFFF" height="95.5039" style="stroke:#181818;stroke-width:1.0;" width="10" x="762.5" y="148.2031"/><rect fill="#FFFFFF" height="438.7051" style="stroke:#181818;stroke-width:1.0;" width="10" x="762.5" y="531.9082"/><rect fill="#FFFFFF" height="90.543" style="stroke:#181818;stroke-width:1.0;" width="10" x="767.5" y="571.1992"/><rect fill="#FFFFFF" height="31.291" style="stroke:#181818;stroke-width:1.0;" width="10" x="951.5" y="700.0332"/><rect fill="#FFFFFF" height="31.291" style="stroke:#181818;stroke-width:1.0;" width="10" x="1058.5" y="762.6152"/><rect fill="#FFFFFF" height="79.543" style="stroke:#181818;stroke-width:1.0;" width="10" x="1197.5" y="859.7793"/><line style="stroke:#181818;stroke-width:0.5;stroke-dasharray:5.0,5.0;" x1="114" x2="114" y1="83.6211" y2="1019.9043"/><line style="stroke:#181818;stroke-width:0.5;stroke-dasharray:5.0,5.0;" x1="494.5" x2="494.5" y1="83.6211" y2="1019.9043"/><line style="stroke:#181818;stroke-width:0.5;stroke-dasharray:5.0,5.0;" x1="767" x2="767" y1="83.6211" y2="1019.9043"/><line style="stroke:#181818;stroke-width:0.5;stroke-dasharray:5.0,5.0;" x1="956" x2="956" y1="83.6211" y2="1019.9043"/><line style="stroke:#181818;stroke-width:0.5;stroke-dasharray:5.0,5.0;" x1="1063" x2="1063" y1="83.6211" y2="1019.9043"/><line style="stroke:#181818;stroke-width:0.5;stroke-dasharray:5.0,5.0;" x1="1202" x2="1202" y1="83.6211" y2="1019.9043"/><text fill="#000000" font-family="sans-serif" font-size="14" lengthAdjust="spacing" textLength="213" x="5" y="80.1074">Human Resource Manager (HRM)</text><ellipse cx="114.5" cy="13.5" fill="#E3E3E3" rx="8" ry="8" style="stroke:#181818;stroke-width:0.5;"/><path d="M114.5,21.5 L114.5,48.5 M101.5,29.5 L127.5,29.5 M114.5,48.5 L101.5,63.5 M114.5,48.5 L127.5,63.5 " fill="none" style="stroke:#181818;stroke-width:0.5;"/><text fill="#000000" font-family="sans-serif" font-size="14" lengthAdjust="spacing" textLength="213" x="5" y="1034.0117">Human Resource Manager (HRM)</text><ellipse cx="114.5" cy="1046.0254" fill="#E3E3E3" rx="8" ry="8" style="stroke:#181818;stroke-width:0.5;"/><path d="M114.5,1054.0254 L114.5,1081.0254 M101.5,1062.0254 L127.5,1062.0254 M114.5,1081.0254 L101.5,1096.0254 M114.5,1081.0254 L127.5,1096.0254 " fill="none" style="stroke:#181818;stroke-width:0.5;"/><rect fill="#E3E3E3" height="32.6211" rx="2.5" ry="2.5" style="stroke:#181818;stroke-width:0.5;" width="164" x="412.5" y="50"/><text fill="#000000" font-family="sans-serif" font-size="14" lengthAdjust="spacing" textLength="150" x="419.5" y="72.1074">:RegisterColllaboratorUI</text><rect fill="#E3E3E3" height="32.6211" rx="2.5" ry="2.5" style="stroke:#181818;stroke-width:0.5;" width="164" x="412.5" y="1018.9043"/><text fill="#000000" font-family="sans-serif" font-size="14" lengthAdjust="spacing" textLength="150" x="419.5" y="1041.0117">:RegisterColllaboratorUI</text><rect fill="#E3E3E3" height="32.6211" rx="2.5" ry="2.5" style="stroke:#181818;stroke-width:0.5;" width="211" x="662" y="50"/><text fill="#000000" font-family="sans-serif" font-size="14" lengthAdjust="spacing" textLength="197" x="669" y="72.1074">:RegisterCollaboratorController</text><rect fill="#E3E3E3" height="32.6211" rx="2.5" ry="2.5" style="stroke:#181818;stroke-width:0.5;" width="211" x="662" y="1018.9043"/><text fill="#000000" font-family="sans-serif" font-size="14" lengthAdjust="spacing" textLength="197" x="669" y="1041.0117">:RegisterCollaboratorController</text><rect fill="#E3E3E3" height="32.6211" rx="2.5" ry="2.5" style="stroke:#181818;stroke-width:0.5;" width="97" x="908" y="50"/><text fill="#000000" font-family="sans-serif" font-size="14" lengthAdjust="spacing" textLength="83" x="915" y="72.1074">:Repositories</text><rect fill="#E3E3E3" height="32.6211" rx="2.5" ry="2.5" style="stroke:#181818;stroke-width:0.5;" width="97" x="908" y="1018.9043"/><text fill="#000000" font-family="sans-serif" font-size="14" lengthAdjust="spacing" textLength="83" x="915" y="1041.0117">:Repositories</text><rect fill="#E3E3E3" height="51.2422" rx="2.5" ry="2.5" style="stroke:#181818;stroke-width:0.5;" width="97" x="1015" y="31.3789"/><text fill="#000000" font-family="sans-serif" font-size="14" lengthAdjust="spacing" textLength="74" x="1026.5" y="53.4863">repositories</text><text fill="#000000" font-family="sans-serif" font-size="14" lengthAdjust="spacing" textLength="83" x="1022" y="72.1074">:Repositories</text><rect fill="#E3E3E3" height="51.2422" rx="2.5" ry="2.5" style="stroke:#181818;stroke-width:0.5;" width="97" x="1015" y="1018.9043"/><text fill="#000000" font-family="sans-serif" font-size="14" lengthAdjust="spacing" textLength="74" x="1026.5" y="1041.0117">repositories</text><text fill="#000000" font-family="sans-serif" font-size="14" lengthAdjust="spacing" textLength="83" x="1022" y="1059.6328">:Repositories</text><rect fill="#E3E3E3" height="51.2422" rx="2.5" ry="2.5" style="stroke:#181818;stroke-width:0.5;" width="161" x="1122" y="31.3789"/><text fill="#000000" font-family="sans-serif" font-size="14" lengthAdjust="spacing" textLength="147" x="1129" y="53.4863">collaboratorRepository:</text><text fill="#000000" font-family="sans-serif" font-size="14" lengthAdjust="spacing" textLength="146" x="1129.5" y="72.1074">CollaboratorRepository</text><rect fill="#E3E3E3" height="51.2422" rx="2.5" ry="2.5" style="stroke:#181818;stroke-width:0.5;" width="161" x="1122" y="1018.9043"/><text fill="#000000" font-family="sans-serif" font-size="14" lengthAdjust="spacing" textLength="147" x="1129" y="1041.0117">collaboratorRepository:</text><text fill="#000000" font-family="sans-serif" font-size="14" lengthAdjust="spacing" textLength="146" x="1129.5" y="1059.6328">CollaboratorRepository</text><rect fill="#FFFFFF" height="917.2832" style="stroke:#181818;stroke-width:1.0;" width="10" x="109.5" y="93.6211"/><rect fill="#FFFFFF" height="158.0859" style="stroke:#181818;stroke-width:1.0;" width="10" x="489.5" y="116.9121"/><rect fill="#FFFFFF" height="48.582" style="stroke:#181818;stroke-width:1.0;" width="10" x="489.5" y="306.2891"/><rect fill="#FFFFFF" height="31.291" style="stroke:#181818;stroke-width:1.0;" width="10" x="489.5" y="386.1621"/><rect fill="#FFFFFF" height="553.1602" style="stroke:#181818;stroke-width:1.0;" width="10" x="489.5" y="448.7441"/><rect fill="#FFFFFF" height="95.5039" style="stroke:#181818;stroke-width:1.0;" width="10" x="762.5" y="148.2031"/><rect fill="#FFFFFF" height="438.7051" style="stroke:#181818;stroke-width:1.0;" width="10" x="762.5" y="531.9082"/><rect fill="#FFFFFF" height="90.543" style="stroke:#181818;stroke-width:1.0;" width="10" x="767.5" y="571.1992"/><rect fill="#FFFFFF" height="31.291" style="stroke:#181818;stroke-width:1.0;" width="10" x="951.5" y="700.0332"/><rect fill="#FFFFFF" height="31.291" style="stroke:#181818;stroke-width:1.0;" width="10" x="1058.5" y="762.6152"/><rect fill="#FFFFFF" height="79.543" style="stroke:#181818;stroke-width:1.0;" width="10" x="1197.5" y="859.7793"/><polygon fill="#181818" points="477.5,112.9121,487.5,116.9121,477.5,120.9121,481.5,116.9121" style="stroke:#181818;stroke-width:1.0;"/><line style="stroke:#181818;stroke-width:1.0;" x1="119.5" x2="483.5" y1="116.9121" y2="116.9121"/><text fill="#000000" font-family="sans-serif" font-size="13" font-weight="bold" lengthAdjust="spacing" textLength="7" x="126.5" y="111.6494">1</text><text fill="#000000" font-family="sans-serif" font-size="13" lengthAdjust="spacing" textLength="199" x="137.5" y="111.6494">asks to register a new collaborator</text><polygon fill="#181818" points="750.5,144.2031,760.5,148.2031,750.5,152.2031,754.5,148.2031" style="stroke:#181818;stroke-width:1.0;"/><line style="stroke:#181818;stroke-width:1.0;" x1="499.5" x2="756.5" y1="148.2031" y2="148.2031"/><text fill="#000000" font-family="sans-serif" font-size="13" font-weight="bold" lengthAdjust="spacing" textLength="7" x="506.5" y="142.9404">2</text><text fill="#000000" font-family="sans-serif" font-size="13" lengthAdjust="spacing" textLength="67" x="517.5" y="142.9404">getJobList()</text><rect fill="none" height="59.2129" style="stroke:#000000;stroke-width:1.5;" width="217" x="659" y="156.2031"/><path d="M659,156.2031 L721,156.2031 L721,165.2031 L711,175.2031 L659,175.2031 L659,156.2031 " fill="#EEEEEE" style="stroke:#000000;stroke-width:2.0;"/><text fill="#000000" font-family="sans-serif" font-size="13" font-weight="bold" lengthAdjust="spacing" textLength="17" x="672" y="172.2314">ref</text><text fill="#000000" font-family="sans-serif" font-size="12" lengthAdjust="spacing" textLength="65" x="735" y="192.1523">Get Job List</text><text fill="#000000" font-family="sans-serif" font-size="12" lengthAdjust="spacing" textLength="3" x="766" y="208.1133">&#160;</text><polygon fill="#181818" points="510.5,239.707,500.5,243.707,510.5,247.707,506.5,243.707" style="stroke:#181818;stroke-width:1.0;"/><line style="stroke:#181818;stroke-width:1.0;stroke-dasharray:2.0,2.0;" x1="504.5" x2="766.5" y1="243.707" y2="243.707"/><text fill="#000000" font-family="sans-serif" font-size="13" font-weight="bold" lengthAdjust="spacing" textLength="7" x="516.5" y="238.4443">3</text><text fill="#000000" font-family="sans-serif" font-size="13" lengthAdjust="spacing" textLength="38" x="527.5" y="238.4443">jobList</text><polygon fill="#181818" points="130.5,270.998,120.5,274.998,130.5,278.998,126.5,274.998" style="stroke:#181818;stroke-width:1.0;"/><line style="stroke:#181818;stroke-width:1.0;stroke-dasharray:2.0,2.0;" x1="124.5" x2="493.5" y1="274.998" y2="274.998"/><text fill="#000000" font-family="sans-serif" font-size="13" font-weight="bold" lengthAdjust="spacing" textLength="7" x="136.5" y="269.7354">4</text><text fill="#000000" font-family="sans-serif" font-size="13" lengthAdjust="spacing" textLength="222" x="147.5" y="269.7354">shows jobs list and asks to select one</text><polygon fill="#181818" points="477.5,302.2891,487.5,306.2891,477.5,310.2891,481.5,306.2891" style="stroke:#181818;stroke-width:1.0;"/><line style="stroke:#181818;stroke-width:1.0;" x1="119.5" x2="483.5" y1="306.2891" y2="306.2891"/><text fill="#000000" font-family="sans-serif" font-size="13" font-weight="bold" lengthAdjust="spacing" textLength="7" x="126.5" y="301.0264">5</text><text fill="#000000" font-family="sans-serif" font-size="13" lengthAdjust="spacing" textLength="64" x="137.5" y="301.0264">types a job</text><polygon fill="#181818" points="130.5,350.8711,120.5,354.8711,130.5,358.8711,126.5,354.8711" style="stroke:#181818;stroke-width:1.0;"/><line style="stroke:#181818;stroke-width:1.0;stroke-dasharray:2.0,2.0;" x1="124.5" x2="493.5" y1="354.8711" y2="354.8711"/><text fill="#000000" font-family="sans-serif" font-size="13" font-weight="bold" lengthAdjust="spacing" textLength="7" x="136.5" y="340.9629">6</text><text fill="#000000" font-family="sans-serif" font-size="13" lengthAdjust="spacing" textLength="331" x="147.5" y="332.3174">requests data (name, birthdate, admission date, address,</text><text fill="#000000" font-family="sans-serif" font-size="13" lengthAdjust="spacing" textLength="289" x="147.5" y="349.6084">mobile, email, ID doc type and respective number)</text><polygon fill="#181818" points="477.5,382.1621,487.5,386.1621,477.5,390.1621,481.5,386.1621" style="stroke:#181818;stroke-width:1.0;"/><line style="stroke:#181818;stroke-width:1.0;" x1="119.5" x2="483.5" y1="386.1621" y2="386.1621"/><text fill="#000000" font-family="sans-serif" font-size="13" font-weight="bold" lengthAdjust="spacing" textLength="7" x="126.5" y="380.8994">7</text><text fill="#000000" font-family="sans-serif" font-size="13" lengthAdjust="spacing" textLength="122" x="137.5" y="380.8994">types requested data</text><polygon fill="#181818" points="130.5,413.4531,120.5,417.4531,130.5,421.4531,126.5,417.4531" style="stroke:#181818;stroke-width:1.0;"/><line style="stroke:#181818;stroke-width:1.0;stroke-dasharray:2.0,2.0;" x1="124.5" x2="493.5" y1="417.4531" y2="417.4531"/><text fill="#000000" font-family="sans-serif" font-size="13" font-weight="bold" lengthAdjust="spacing" textLength="7" x="136.5" y="412.1904">8</text><text fill="#000000" font-family="sans-serif" font-size="13" lengthAdjust="spacing" textLength="219" x="147.5" y="412.1904">shows data and requests confirmation</text><polygon fill="#181818" points="477.5,444.7441,487.5,448.7441,477.5,452.7441,481.5,448.7441" style="stroke:#181818;stroke-width:1.0;"/><line style="stroke:#181818;stroke-width:1.0;" x1="119.5" x2="483.5" y1="448.7441" y2="448.7441"/><text fill="#000000" font-family="sans-serif" font-size="13" font-weight="bold" lengthAdjust="spacing" textLength="7" x="126.5" y="443.4814">9</text><text fill="#000000" font-family="sans-serif" font-size="13" lengthAdjust="spacing" textLength="78" x="137.5" y="443.4814">confirms data</text><polygon fill="#181818" points="750.5,527.9082,760.5,531.9082,750.5,535.9082,754.5,531.9082" style="stroke:#181818;stroke-width:1.0;"/><line style="stroke:#181818;stroke-width:1.0;" x1="499.5" x2="756.5" y1="531.9082" y2="531.9082"/><text fill="#000000" font-family="sans-serif" font-size="13" font-weight="bold" lengthAdjust="spacing" textLength="14" x="506.5" y="500.709">10</text><text fill="#000000" font-family="sans-serif" font-size="13" lengthAdjust="spacing" textLength="210" x="524.5" y="474.7725">registerCollaborator(name, birthdate,</text><text fill="#000000" font-family="sans-serif" font-size="13" lengthAdjust="spacing" textLength="192" x="524.5" y="492.0635">admission date, address, mobile,</text><text fill="#000000" font-family="sans-serif" font-size="13" lengthAdjust="spacing" textLength="222" x="524.5" y="509.3545">email, ID doc type, respective number,</text><text fill="#000000" font-family="sans-serif" font-size="13" lengthAdjust="spacing" textLength="57" x="524.5" y="526.6455">job name)</text><line style="stroke:#181818;stroke-width:1.0;" x1="772.5" x2="819.5" y1="558.1992" y2="558.1992"/><line style="stroke:#181818;stroke-width:1.0;" x1="819.5" x2="819.5" y1="558.1992" y2="571.1992"/><line style="stroke:#181818;stroke-width:1.0;" x1="778.5" x2="819.5" y1="571.1992" y2="571.1992"/><polygon fill="#181818" points="788.5,567.1992,778.5,571.1992,788.5,575.1992,784.5,571.1992" style="stroke:#181818;stroke-width:1.0;"/><text fill="#000000" font-family="sans-serif" font-size="13" font-weight="bold" lengthAdjust="spacing" textLength="14" x="784.5" y="552.9365">11</text><text fill="#000000" font-family="sans-serif" font-size="13" lengthAdjust="spacing" textLength="147" x="802.5" y="552.9365">getJobByName(jobName)</text><rect fill="none" height="43.252" style="stroke:#000000;stroke-width:1.5;" width="217" x="659" y="584.1992"/><path d="M659,584.1992 L721,584.1992 L721,593.1992 L711,603.1992 L659,603.1992 L659,584.1992 " fill="#EEEEEE" style="stroke:#000000;stroke-width:2.0;"/><text fill="#000000" font-family="sans-serif" font-size="13" font-weight="bold" lengthAdjust="spacing" textLength="17" x="672" y="600.2275">ref</text><text fill="#000000" font-family="sans-serif" font-size="12" lengthAdjust="spacing" textLength="80" x="727.5" y="620.1484">Get Job Object</text><line style="stroke:#181818;stroke-width:1.0;stroke-dasharray:2.0,2.0;" x1="777.5" x2="819.5" y1="660.7422" y2="660.7422"/><line style="stroke:#181818;stroke-width:1.0;stroke-dasharray:2.0,2.0;" x1="819.5" x2="819.5" y1="660.7422" y2="673.7422"/><line style="stroke:#181818;stroke-width:1.0;stroke-dasharray:2.0,2.0;" x1="772.5" x2="819.5" y1="673.7422" y2="673.7422"/><polygon fill="#181818" points="782.5,669.7422,772.5,673.7422,782.5,677.7422,778.5,673.7422" style="stroke:#181818;stroke-width:1.0;"/><text fill="#000000" font-family="sans-serif" font-size="13" font-weight="bold" lengthAdjust="spacing" textLength="14" x="784.5" y="655.4795">12</text><text fill="#000000" font-family="sans-serif" font-size="13" lengthAdjust="spacing" textLength="17" x="802.5" y="655.4795">job</text><polygon fill="#181818" points="939.5,696.0332,949.5,700.0332,939.5,704.0332,943.5,700.0332" style="stroke:#181818;stroke-width:1.0;"/><line style="stroke:#181818;stroke-width:1.0;" x1="772.5" x2="945.5" y1="700.0332" y2="700.0332"/><text fill="#000000" font-family="sans-serif" font-size="13" font-weight="bold" lengthAdjust="spacing" textLength="14" x="779.5" y="694.7705">13</text><text fill="#000000" font-family="sans-serif" font-size="13" lengthAdjust="spacing" textLength="75" x="797.5" y="694.7705">getInstance()</text><polygon fill="#181818" points="783.5,727.3242,773.5,731.3242,783.5,735.3242,779.5,731.3242" style="stroke:#181818;stroke-width:1.0;"/><line style="stroke:#181818;stroke-width:1.0;stroke-dasharray:2.0,2.0;" x1="777.5" x2="955.5" y1="731.3242" y2="731.3242"/><text fill="#000000" font-family="sans-serif" font-size="13" font-weight="bold" lengthAdjust="spacing" textLength="14" x="789.5" y="726.0615">14</text><text fill="#000000" font-family="sans-serif" font-size="13" lengthAdjust="spacing" textLength="67" x="807.5" y="726.0615">repositories</text><polygon fill="#181818" points="1046.5,758.6152,1056.5,762.6152,1046.5,766.6152,1050.5,762.6152" style="stroke:#181818;stroke-width:1.0;"/><line style="stroke:#181818;stroke-width:1.0;" x1="772.5" x2="1052.5" y1="762.6152" y2="762.6152"/><text fill="#000000" font-family="sans-serif" font-size="13" font-weight="bold" lengthAdjust="spacing" textLength="14" x="779.5" y="757.3525">15</text><text fill="#000000" font-family="sans-serif" font-size="13" lengthAdjust="spacing" textLength="157" x="797.5" y="757.3525">getCollaboratorRepository()</text><polygon fill="#181818" points="783.5,789.9063,773.5,793.9063,783.5,797.9063,779.5,793.9063" style="stroke:#181818;stroke-width:1.0;"/><line style="stroke:#181818;stroke-width:1.0;" x1="777.5" x2="1062.5" y1="793.9063" y2="793.9063"/><text fill="#000000" font-family="sans-serif" font-size="13" font-weight="bold" lengthAdjust="spacing" textLength="14" x="789.5" y="788.6436">16</text><text fill="#000000" font-family="sans-serif" font-size="13" lengthAdjust="spacing" textLength="129" x="807.5" y="788.6436">collaboratorRepository</text><polygon fill="#181818" points="1185.5,855.7793,1195.5,859.7793,1185.5,863.7793,1189.5,859.7793" style="stroke:#181818;stroke-width:1.0;"/><line style="stroke:#181818;stroke-width:1.0;" x1="772.5" x2="1191.5" y1="859.7793" y2="859.7793"/><text fill="#000000" font-family="sans-serif" font-size="13" font-weight="bold" lengthAdjust="spacing" textLength="14" x="779.5" y="837.2256">17</text><text fill="#000000" font-family="sans-serif" font-size="13" lengthAdjust="spacing" textLength="210" x="797.5" y="819.9346">registerCollaborator(name, birthdate,</text><text fill="#000000" font-family="sans-serif" font-size="13" lengthAdjust="spacing" textLength="192" x="797.5" y="837.2256">admission date, address, mobile,</text><text fill="#000000" font-family="sans-serif" font-size="13" lengthAdjust="spacing" textLength="247" x="797.5" y="854.5166">email, ID doc type, respective number, job)</text><rect fill="none" height="43.252" style="stroke:#000000;stroke-width:1.5;" width="167" x="1119" y="867.7793"/><path d="M1119,867.7793 L1181,867.7793 L1181,876.7793 L1171,886.7793 L1119,886.7793 L1119,867.7793 " fill="#EEEEEE" style="stroke:#000000;stroke-width:2.0;"/><text fill="#000000" font-family="sans-serif" font-size="13" font-weight="bold" lengthAdjust="spacing" textLength="17" x="1132" y="883.8076">ref</text><text fill="#000000" font-family="sans-serif" font-size="12" lengthAdjust="spacing" textLength="108" x="1148.5" y="903.7285">Create Collaborator</text><polygon fill="#181818" points="783.5,935.3223,773.5,939.3223,783.5,943.3223,779.5,939.3223" style="stroke:#181818;stroke-width:1.0;"/><line style="stroke:#181818;stroke-width:1.0;stroke-dasharray:2.0,2.0;" x1="777.5" x2="1201.5" y1="939.3223" y2="939.3223"/><text fill="#000000" font-family="sans-serif" font-size="13" font-weight="bold" lengthAdjust="spacing" textLength="14" x="789.5" y="934.0596">18</text><text fill="#000000" font-family="sans-serif" font-size="13" lengthAdjust="spacing" textLength="67" x="807.5" y="934.0596">collaborator</text><polygon fill="#181818" points="510.5,966.6133,500.5,970.6133,510.5,974.6133,506.5,970.6133" style="stroke:#181818;stroke-width:1.0;"/><line style="stroke:#181818;stroke-width:1.0;stroke-dasharray:2.0,2.0;" x1="504.5" x2="766.5" y1="970.6133" y2="970.6133"/><text fill="#000000" font-family="sans-serif" font-size="13" font-weight="bold" lengthAdjust="spacing" textLength="14" x="516.5" y="965.3506">19</text><text fill="#000000" font-family="sans-serif" font-size="13" lengthAdjust="spacing" textLength="67" x="534.5" y="965.3506">collaborator</text><polygon fill="#181818" points="130.5,997.9043,120.5,1001.9043,130.5,1005.9043,126.5,1001.9043" style="stroke:#181818;stroke-width:1.0;"/><line style="stroke:#181818;stroke-width:1.0;stroke-dasharray:2.0,2.0;" x1="124.5" x2="493.5" y1="1001.9043" y2="1001.9043"/><text fill="#000000" font-family="sans-serif" font-size="13" font-weight="bold" lengthAdjust="spacing" textLength="14" x="136.5" y="996.6416">20</text><text fill="#000000" font-family="sans-serif" font-size="13" lengthAdjust="spacing" textLength="158" x="154.5" y="996.6416">displays operation success</text><!--SRC=[nLLDRzim3BtxLn2vB06IFv33W2q3rWnjDwJjBHVPPXArjkI9Shly-r5oxFX3STDJTR8byf7lYQJeHQf26953hfLE3aRd2DQK655pKeZaHUpnmHup18E95MgVjGte85Bz9jKUTY8ZZ29HMgtAF4OJHLyECaNOQMrZ_IyIYTK69ZTbBXHia7Hf4eGxeJY0WUdDvcus0K707n63Mvd8GYWBa-K6zv8icfNEiap4sWX6UbfxwwVrY75jkzBA6lv7utrMZvlRWLUXIRAfHF8spSRnGJhEpAhhObeUMpK4-7FxxR7haRGoEiCljseLFAXI3Hv5JapvAYnwjIBWnH-m-Cfwm98TNmYivXkhj0012j-WdO3tQL1OHR_X5YCmZjE8aVPeV-dubb6ciyQYSVD2Djjk6To1VkM8_WXwwoTQO3XmU5q_LAdpRVPy-4NDvxbAeJbDyK8ABdTsSbeikJRr6pbVWeozGN2CMXd2ZAiPjC8GQ5kEjgvWZmKIgycWGpNw8ZQ96FnR8bc2L5W1KoLod4CiZJtm1d-AD9T4KYke_rE3H7FOgbp7CkCjp8NCvh3-0QbEV1gU3fiLwE8ZL4qt-mYTYiqfEqnzUX-WLUdhELMvd5WcMksaoOLbHXz9v-H7L-RHrAW9TFnGvAswA7CjybODPPuFDNQ6N03WGbniYavrLzNSQwhlnti6c3BIVGVedGvxlylQdVOxVkRS1oRzTXkqtIdJTfsFDbwVQM1yLiJNYlWHIN0w6_WsqA7PEx0EHQWpTpLn7iS3rnQBgqBLfDn8hrY4n_8O9_yS1A_Aevub3xyIOnp2q4tD1V4-fMsucaOKklJKNIx-wvJoOXZiXxZO4qCbmmekmdSsTbFNKko-VbUZ1pkoCx9JIKKcZWIwGEC7D52P97oTOy0yUVy3]--></g></svg>