<?xml version="1.0" encoding="us-ascii" standalone="no"?><svg xmlns="http://www.w3.org/2000/svg" xmlns:xlink="http://www.w3.org/1999/xlink" contentStyleType="text/css" height="1239px" preserveAspectRatio="none" style="width:1854px;height:1239px;background:#FFFFFF;" version="1.1" viewBox="0 0 1854 1239" width="1854px" zoomAndPan="magnify"><defs/><g><rect fill="#FFFFFF" height="1054.1172" style="stroke:#181818;stroke-width:1.0;" width="10" x="109.5" y="93.6211"/><rect fill="#FFFFFF" height="158.0859" style="stroke:#181818;stroke-width:1.0;" width="10" x="705.5" y="116.9121"/><rect fill="#FFFFFF" height="48.582" style="stroke:#181818;stroke-width:1.0;" width="10" x="705.5" y="306.2891"/><rect fill="#FFFFFF" height="31.291" style="stroke:#181818;stroke-width:1.0;" width="10" x="705.5" y="386.1621"/><rect fill="#FFFFFF" height="689.9941" style="stroke:#181818;stroke-width:1.0;" width="10" x="705.5" y="448.7441"/><rect fill="#FFFFFF" height="95.5039" style="stroke:#181818;stroke-width:1.0;" width="10" x="1164.5" y="148.2031"/><rect fill="#FFFFFF" height="575.5391" style="stroke:#181818;stroke-width:1.0;" width="10" x="1164.5" y="531.9082"/><rect fill="#FFFFFF" height="90.543" style="stroke:#181818;stroke-width:1.0;" width="10" x="1169.5" y="571.1992"/><rect fill="#FFFFFF" height="90.543" style="stroke:#181818;stroke-width:1.0;" width="10" x="1169.5" y="708.0332"/><rect fill="#FFFFFF" height="31.291" style="stroke:#181818;stroke-width:1.0;" width="10" x="1513.5" y="836.8672"/><rect fill="#FFFFFF" height="31.291" style="stroke:#181818;stroke-width:1.0;" width="10" x="1620.5" y="899.4492"/><rect fill="#FFFFFF" height="79.543" style="stroke:#181818;stroke-width:1.0;" width="10" x="1759.5" y="996.6133"/><line style="stroke:#181818;stroke-width:0.5;stroke-dasharray:5.0,5.0;" x1="114" x2="114" y1="83.6211" y2="1156.7383"/><line style="stroke:#181818;stroke-width:0.5;stroke-dasharray:5.0,5.0;" x1="710.5" x2="710.5" y1="83.6211" y2="1156.7383"/><line style="stroke:#181818;stroke-width:0.5;stroke-dasharray:5.0,5.0;" x1="1169" x2="1169" y1="83.6211" y2="1156.7383"/><line style="stroke:#181818;stroke-width:0.5;stroke-dasharray:5.0,5.0;" x1="1518" x2="1518" y1="83.6211" y2="1156.7383"/><line style="stroke:#181818;stroke-width:0.5;stroke-dasharray:5.0,5.0;" x1="1625" x2="1625" y1="83.6211" y2="1156.7383"/><line style="stroke:#181818;stroke-width:0.5;stroke-dasharray:5.0,5.0;" x1="1764" x2="1764" y1="83.6211" y2="1156.7383"/><text fill="#000000" font-family="sans-serif" font-size="14" lengthAdjust="spacing" textLength="213" x="5" y="80.1074">Human Resource Manager (HRM)</text><ellipse cx="114.5" cy="13.5" fill="#E3E3E3" rx="8" ry="8" style="stroke:#181818;stroke-width:0.5;"/><path d="M114.5,21.5 L114.5,48.5 M101.5,29.5 L127.5,29.5 M114.5,48.5 L101.5,63.5 M114.5,48.5 L127.5,63.5 " fill="none" style="stroke:#181818;stroke-width:0.5;"/><text fill="#000000" font-family="sans-serif" font-size="14" lengthAdjust="spacing" textLength="213" x="5" y="1170.8457">Human Resource Manager (HRM)</text><ellipse cx="114.5" cy="1182.8594" fill="#E3E3E3" rx="8" ry="8" style="stroke:#181818;stroke-width:0.5;"/><path d="M114.5,1190.8594 L114.5,1217.8594 M101.5,1198.8594 L127.5,1198.8594 M114.5,1217.8594 L101.5,1232.8594 M114.5,1217.8594 L127.5,1232.8594 " fill="none" style="stroke:#181818;stroke-width:0.5;"/><rect fill="#E3E3E3" height="32.6211" rx="2.5" ry="2.5" style="stroke:#181818;stroke-width:0.5;" width="164" x="628.5" y="50"/><text fill="#000000" font-family="sans-serif" font-size="14" lengthAdjust="spacing" textLength="150" x="635.5" y="72.1074">:RegisterColllaboratorUI</text><rect fill="#E3E3E3" height="32.6211" rx="2.5" ry="2.5" style="stroke:#181818;stroke-width:0.5;" width="164" x="628.5" y="1155.7383"/><text fill="#000000" font-family="sans-serif" font-size="14" lengthAdjust="spacing" textLength="150" x="635.5" y="1177.8457">:RegisterColllaboratorUI</text><rect fill="#E3E3E3" height="32.6211" rx="2.5" ry="2.5" style="stroke:#181818;stroke-width:0.5;" width="211" x="1064" y="50"/><text fill="#000000" font-family="sans-serif" font-size="14" lengthAdjust="spacing" textLength="197" x="1071" y="72.1074">:RegisterCollaboratorController</text><rect fill="#E3E3E3" height="32.6211" rx="2.5" ry="2.5" style="stroke:#181818;stroke-width:0.5;" width="211" x="1064" y="1155.7383"/><text fill="#000000" font-family="sans-serif" font-size="14" lengthAdjust="spacing" textLength="197" x="1071" y="1177.8457">:RegisterCollaboratorController</text><rect fill="#E3E3E3" height="32.6211" rx="2.5" ry="2.5" style="stroke:#181818;stroke-width:0.5;" width="97" x="1470" y="50"/><text fill="#000000" font-family="sans-serif" font-size="14" lengthAdjust="spacing" textLength="83" x="1477" y="72.1074">:Repositories</text><rect fill="#E3E3E3" height="32.6211" rx="2.5" ry="2.5" style="stroke:#181818;stroke-width:0.5;" width="97" x="1470" y="1155.7383"/><text fill="#000000" font-family="sans-serif" font-size="14" lengthAdjust="spacing" textLength="83" x="1477" y="1177.8457">:Repositories</text><rect fill="#E3E3E3" height="51.2422" rx="2.5" ry="2.5" style="stroke:#181818;stroke-width:0.5;" width="97" x="1577" y="31.3789"/><text fill="#000000" font-family="sans-serif" font-size="14" lengthAdjust="spacing" textLength="74" x="1588.5" y="53.4863">repositories</text><text fill="#000000" font-family="sans-serif" font-size="14" lengthAdjust="spacing" textLength="83" x="1584" y="72.1074">:Repositories</text><rect fill="#E3E3E3" height="51.2422" rx="2.5" ry="2.5" style="stroke:#181818;stroke-width:0.5;" width="97" x="1577" y="1155.7383"/><text fill="#000000" font-family="sans-serif" font-size="14" lengthAdjust="spacing" textLength="74" x="1588.5" y="1177.8457">repositories</text><text fill="#000000" font-family="sans-serif" font-size="14" lengthAdjust="spacing" textLength="83" x="1584" y="1196.4668">:Repositories</text><rect fill="#E3E3E3" height="51.2422" rx="2.5" ry="2.5" style="stroke:#181818;stroke-width:0.5;" width="161" x="1684" y="31.3789"/><text fill="#000000" font-family="sans-serif" font-size="14" lengthAdjust="spacing" textLength="147" x="1691" y="53.4863">collaboratorRepository:</text><text fill="#000000" font-family="sans-serif" font-size="14" lengthAdjust="spacing" textLength="146" x="1691.5" y="72.1074">CollaboratorRepository</text><rect fill="#E3E3E3" height="51.2422" rx="2.5" ry="2.5" style="stroke:#181818;stroke-width:0.5;" width="161" x="1684" y="1155.7383"/><text fill="#000000" font-family="sans-serif" font-size="14" lengthAdjust="spacing" textLength="147" x="1691" y="1177.8457">collaboratorRepository:</text><text fill="#000000" font-family="sans-serif" font-size="14" lengthAdjust="spacing" textLength="146" x="1691.5" y="1196.4668">CollaboratorRepository</text><rect fill="#FFFFFF" height="1054.1172" style="stroke:#181818;stroke-width:1.0;" width="10" x="109.5" y="93.6211"/><rect fill="#FFFFFF" height="158.0859" style="stroke:#181818;stroke-width:1.0;" width="10" x="705.5" y="116.9121"/><rect fill="#FFFFFF" height="48.582" style="stroke:#181818;stroke-width:1.0;" width="10" x="705.5" y="306.2891"/><rect fill="#FFFFFF" height="31.291" style="stroke:#181818;stroke-width:1.0;" width="10" x="705.5" y="386.1621"/><rect fill="#FFFFFF" height="689.9941" style="stroke:#181818;stroke-width:1.0;" width="10" x="705.5" y="448.7441"/><rect fill="#FFFFFF" height="95.5039" style="stroke:#181818;stroke-width:1.0;" width="10" x="1164.5" y="148.2031"/><rect fill="#FFFFFF" height="575.5391" style="stroke:#181818;stroke-width:1.0;" width="10" x="1164.5" y="531.9082"/><rect fill="#FFFFFF" height="90.543" style="stroke:#181818;stroke-width:1.0;" width="10" x="1169.5" y="571.1992"/><rect fill="#FFFFFF" height="90.543" style="stroke:#181818;stroke-width:1.0;" width="10" x="1169.5" y="708.0332"/><rect fill="#FFFFFF" height="31.291" style="stroke:#181818;stroke-width:1.0;" width="10" x="1513.5" y="836.8672"/><rect fill="#FFFFFF" height="31.291" style="stroke:#181818;stroke-width:1.0;" width="10" x="1620.5" y="899.4492"/><rect fill="#FFFFFF" height="79.543" style="stroke:#181818;stroke-width:1.0;" width="10" x="1759.5" y="996.6133"/><polygon fill="#181818" points="693.5,112.9121,703.5,116.9121,693.5,120.9121,697.5,116.9121" style="stroke:#181818;stroke-width:1.0;"/><line style="stroke:#181818;stroke-width:1.0;" x1="119.5" x2="699.5" y1="116.9121" y2="116.9121"/><text fill="#000000" font-family="sans-serif" font-size="13" font-weight="bold" lengthAdjust="spacing" textLength="7" x="126.5" y="111.6494">1</text><text fill="#000000" font-family="sans-serif" font-size="13" lengthAdjust="spacing" textLength="199" x="137.5" y="111.6494">asks to register a new collaborator</text><polygon fill="#181818" points="1152.5,144.2031,1162.5,148.2031,1152.5,152.2031,1156.5,148.2031" style="stroke:#181818;stroke-width:1.0;"/><line style="stroke:#181818;stroke-width:1.0;" x1="715.5" x2="1158.5" y1="148.2031" y2="148.2031"/><text fill="#000000" font-family="sans-serif" font-size="13" font-weight="bold" lengthAdjust="spacing" textLength="7" x="722.5" y="142.9404">2</text><text fill="#000000" font-family="sans-serif" font-size="13" lengthAdjust="spacing" textLength="67" x="733.5" y="142.9404">getJobList()</text><rect fill="none" height="59.2129" style="stroke:#000000;stroke-width:1.5;" width="217" x="1061" y="156.2031"/><path d="M1061,156.2031 L1123,156.2031 L1123,165.2031 L1113,175.2031 L1061,175.2031 L1061,156.2031 " fill="#EEEEEE" style="stroke:#000000;stroke-width:2.0;"/><text fill="#000000" font-family="sans-serif" font-size="13" font-weight="bold" lengthAdjust="spacing" textLength="17" x="1074" y="172.2314">ref</text><text fill="#000000" font-family="sans-serif" font-size="12" lengthAdjust="spacing" textLength="65" x="1137" y="192.1523">Get Job List</text><text fill="#000000" font-family="sans-serif" font-size="12" lengthAdjust="spacing" textLength="3" x="1168" y="208.1133">&#160;</text><polygon fill="#181818" points="726.5,239.707,716.5,243.707,726.5,247.707,722.5,243.707" style="stroke:#181818;stroke-width:1.0;"/><line style="stroke:#181818;stroke-width:1.0;stroke-dasharray:2.0,2.0;" x1="720.5" x2="1168.5" y1="243.707" y2="243.707"/><text fill="#000000" font-family="sans-serif" font-size="13" font-weight="bold" lengthAdjust="spacing" textLength="7" x="732.5" y="238.4443">3</text><text fill="#000000" font-family="sans-serif" font-size="13" lengthAdjust="spacing" textLength="38" x="743.5" y="238.4443">jobList</text><polygon fill="#181818" points="130.5,270.998,120.5,274.998,130.5,278.998,126.5,274.998" style="stroke:#181818;stroke-width:1.0;"/><line style="stroke:#181818;stroke-width:1.0;stroke-dasharray:2.0,2.0;" x1="124.5" x2="709.5" y1="274.998" y2="274.998"/><text fill="#000000" font-family="sans-serif" font-size="13" font-weight="bold" lengthAdjust="spacing" textLength="7" x="136.5" y="269.7354">4</text><text fill="#000000" font-family="sans-serif" font-size="13" lengthAdjust="spacing" textLength="222" x="147.5" y="269.7354">shows jobs list and asks to select one</text><polygon fill="#181818" points="693.5,302.2891,703.5,306.2891,693.5,310.2891,697.5,306.2891" style="stroke:#181818;stroke-width:1.0;"/><line style="stroke:#181818;stroke-width:1.0;" x1="119.5" x2="699.5" y1="306.2891" y2="306.2891"/><text fill="#000000" font-family="sans-serif" font-size="13" font-weight="bold" lengthAdjust="spacing" textLength="7" x="126.5" y="301.0264">5</text><text fill="#000000" font-family="sans-serif" font-size="13" lengthAdjust="spacing" textLength="64" x="137.5" y="301.0264">types a job</text><polygon fill="#181818" points="130.5,350.8711,120.5,354.8711,130.5,358.8711,126.5,354.8711" style="stroke:#181818;stroke-width:1.0;"/><line style="stroke:#181818;stroke-width:1.0;stroke-dasharray:2.0,2.0;" x1="124.5" x2="709.5" y1="354.8711" y2="354.8711"/><text fill="#000000" font-family="sans-serif" font-size="13" font-weight="bold" lengthAdjust="spacing" textLength="7" x="136.5" y="340.9629">6</text><text fill="#000000" font-family="sans-serif" font-size="13" lengthAdjust="spacing" textLength="547" x="147.5" y="332.3174">requests data (name, birthdate, admission date, address(streetName, postCode, doorNumber),</text><text fill="#000000" font-family="sans-serif" font-size="13" lengthAdjust="spacing" textLength="289" x="147.5" y="349.6084">mobile, email, ID doc type and respective number)</text><polygon fill="#181818" points="693.5,382.1621,703.5,386.1621,693.5,390.1621,697.5,386.1621" style="stroke:#181818;stroke-width:1.0;"/><line style="stroke:#181818;stroke-width:1.0;" x1="119.5" x2="699.5" y1="386.1621" y2="386.1621"/><text fill="#000000" font-family="sans-serif" font-size="13" font-weight="bold" lengthAdjust="spacing" textLength="7" x="126.5" y="380.8994">7</text><text fill="#000000" font-family="sans-serif" font-size="13" lengthAdjust="spacing" textLength="122" x="137.5" y="380.8994">types requested data</text><polygon fill="#181818" points="130.5,413.4531,120.5,417.4531,130.5,421.4531,126.5,417.4531" style="stroke:#181818;stroke-width:1.0;"/><line style="stroke:#181818;stroke-width:1.0;stroke-dasharray:2.0,2.0;" x1="124.5" x2="709.5" y1="417.4531" y2="417.4531"/><text fill="#000000" font-family="sans-serif" font-size="13" font-weight="bold" lengthAdjust="spacing" textLength="7" x="136.5" y="412.1904">8</text><text fill="#000000" font-family="sans-serif" font-size="13" lengthAdjust="spacing" textLength="219" x="147.5" y="412.1904">shows data and requests confirmation</text><polygon fill="#181818" points="693.5,444.7441,703.5,448.7441,693.5,452.7441,697.5,448.7441" style="stroke:#181818;stroke-width:1.0;"/><line style="stroke:#181818;stroke-width:1.0;" x1="119.5" x2="699.5" y1="448.7441" y2="448.7441"/><text fill="#000000" font-family="sans-serif" font-size="13" font-weight="bold" lengthAdjust="spacing" textLength="7" x="126.5" y="443.4814">9</text><text fill="#000000" font-family="sans-serif" font-size="13" lengthAdjust="spacing" textLength="78" x="137.5" y="443.4814">confirms data</text><polygon fill="#181818" points="1152.5,527.9082,1162.5,531.9082,1152.5,535.9082,1156.5,531.9082" style="stroke:#181818;stroke-width:1.0;"/><line style="stroke:#181818;stroke-width:1.0;" x1="715.5" x2="1158.5" y1="531.9082" y2="531.9082"/><text fill="#000000" font-family="sans-serif" font-size="13" font-weight="bold" lengthAdjust="spacing" textLength="14" x="722.5" y="500.709">10</text><text fill="#000000" font-family="sans-serif" font-size="13" lengthAdjust="spacing" textLength="210" x="740.5" y="474.7725">registerCollaborator(name, birthdate,</text><text fill="#000000" font-family="sans-serif" font-size="13" lengthAdjust="spacing" textLength="408" x="740.5" y="492.0635">admission date, address(streetName, postCode, doorNumber), mobile,</text><text fill="#000000" font-family="sans-serif" font-size="13" lengthAdjust="spacing" textLength="222" x="740.5" y="509.3545">email, ID doc type, respective number,</text><text fill="#000000" font-family="sans-serif" font-size="13" lengthAdjust="spacing" textLength="57" x="740.5" y="526.6455">job name)</text><line style="stroke:#181818;stroke-width:1.0;" x1="1174.5" x2="1221.5" y1="558.1992" y2="558.1992"/><line style="stroke:#181818;stroke-width:1.0;" x1="1221.5" x2="1221.5" y1="558.1992" y2="571.1992"/><line style="stroke:#181818;stroke-width:1.0;" x1="1180.5" x2="1221.5" y1="571.1992" y2="571.1992"/><polygon fill="#181818" points="1190.5,567.1992,1180.5,571.1992,1190.5,575.1992,1186.5,571.1992" style="stroke:#181818;stroke-width:1.0;"/><text fill="#000000" font-family="sans-serif" font-size="13" font-weight="bold" lengthAdjust="spacing" textLength="14" x="1186.5" y="552.9365">11</text><text fill="#000000" font-family="sans-serif" font-size="13" lengthAdjust="spacing" textLength="147" x="1204.5" y="552.9365">getJobByName(jobName)</text><rect fill="none" height="43.252" style="stroke:#000000;stroke-width:1.5;" width="217" x="1061" y="584.1992"/><path d="M1061,584.1992 L1123,584.1992 L1123,593.1992 L1113,603.1992 L1061,603.1992 L1061,584.1992 " fill="#EEEEEE" style="stroke:#000000;stroke-width:2.0;"/><text fill="#000000" font-family="sans-serif" font-size="13" font-weight="bold" lengthAdjust="spacing" textLength="17" x="1074" y="600.2275">ref</text><text fill="#000000" font-family="sans-serif" font-size="12" lengthAdjust="spacing" textLength="80" x="1129.5" y="620.1484">Get Job Object</text><line style="stroke:#181818;stroke-width:1.0;stroke-dasharray:2.0,2.0;" x1="1179.5" x2="1221.5" y1="660.7422" y2="660.7422"/><line style="stroke:#181818;stroke-width:1.0;stroke-dasharray:2.0,2.0;" x1="1221.5" x2="1221.5" y1="660.7422" y2="673.7422"/><line style="stroke:#181818;stroke-width:1.0;stroke-dasharray:2.0,2.0;" x1="1174.5" x2="1221.5" y1="673.7422" y2="673.7422"/><polygon fill="#181818" points="1184.5,669.7422,1174.5,673.7422,1184.5,677.7422,1180.5,673.7422" style="stroke:#181818;stroke-width:1.0;"/><text fill="#000000" font-family="sans-serif" font-size="13" font-weight="bold" lengthAdjust="spacing" textLength="14" x="1186.5" y="655.4795">12</text><text fill="#000000" font-family="sans-serif" font-size="13" lengthAdjust="spacing" textLength="17" x="1204.5" y="655.4795">job</text><line style="stroke:#181818;stroke-width:1.0;" x1="1174.5" x2="1221.5" y1="695.0332" y2="695.0332"/><line style="stroke:#181818;stroke-width:1.0;" x1="1221.5" x2="1221.5" y1="695.0332" y2="708.0332"/><line style="stroke:#181818;stroke-width:1.0;" x1="1180.5" x2="1221.5" y1="708.0332" y2="708.0332"/><polygon fill="#181818" points="1190.5,704.0332,1180.5,708.0332,1190.5,712.0332,1186.5,708.0332" style="stroke:#181818;stroke-width:1.0;"/><text fill="#000000" font-family="sans-serif" font-size="13" font-weight="bold" lengthAdjust="spacing" textLength="14" x="1186.5" y="689.7705">13</text><text fill="#000000" font-family="sans-serif" font-size="13" lengthAdjust="spacing" textLength="307" x="1204.5" y="689.7705">registerAddress(streetName, postCode, doorNumber)</text><rect fill="none" height="43.252" style="stroke:#000000;stroke-width:1.5;" width="217" x="1061" y="721.0332"/><path d="M1061,721.0332 L1123,721.0332 L1123,730.0332 L1113,740.0332 L1061,740.0332 L1061,721.0332 " fill="#EEEEEE" style="stroke:#000000;stroke-width:2.0;"/><text fill="#000000" font-family="sans-serif" font-size="13" font-weight="bold" lengthAdjust="spacing" textLength="17" x="1074" y="737.0615">ref</text><text fill="#000000" font-family="sans-serif" font-size="12" lengthAdjust="spacing" textLength="96" x="1121.5" y="756.9824">Register Address</text><line style="stroke:#181818;stroke-width:1.0;stroke-dasharray:2.0,2.0;" x1="1179.5" x2="1221.5" y1="797.5762" y2="797.5762"/><line style="stroke:#181818;stroke-width:1.0;stroke-dasharray:2.0,2.0;" x1="1221.5" x2="1221.5" y1="797.5762" y2="810.5762"/><line style="stroke:#181818;stroke-width:1.0;stroke-dasharray:2.0,2.0;" x1="1174.5" x2="1221.5" y1="810.5762" y2="810.5762"/><polygon fill="#181818" points="1184.5,806.5762,1174.5,810.5762,1184.5,814.5762,1180.5,810.5762" style="stroke:#181818;stroke-width:1.0;"/><text fill="#000000" font-family="sans-serif" font-size="13" font-weight="bold" lengthAdjust="spacing" textLength="14" x="1186.5" y="792.3135">14</text><text fill="#000000" font-family="sans-serif" font-size="13" lengthAdjust="spacing" textLength="46" x="1204.5" y="792.3135">address</text><polygon fill="#181818" points="1501.5,832.8672,1511.5,836.8672,1501.5,840.8672,1505.5,836.8672" style="stroke:#181818;stroke-width:1.0;"/><line style="stroke:#181818;stroke-width:1.0;" x1="1174.5" x2="1507.5" y1="836.8672" y2="836.8672"/><text fill="#000000" font-family="sans-serif" font-size="13" font-weight="bold" lengthAdjust="spacing" textLength="14" x="1181.5" y="831.6045">15</text><text fill="#000000" font-family="sans-serif" font-size="13" lengthAdjust="spacing" textLength="75" x="1199.5" y="831.6045">getInstance()</text><polygon fill="#181818" points="1185.5,864.1582,1175.5,868.1582,1185.5,872.1582,1181.5,868.1582" style="stroke:#181818;stroke-width:1.0;"/><line style="stroke:#181818;stroke-width:1.0;stroke-dasharray:2.0,2.0;" x1="1179.5" x2="1517.5" y1="868.1582" y2="868.1582"/><text fill="#000000" font-family="sans-serif" font-size="13" font-weight="bold" lengthAdjust="spacing" textLength="14" x="1191.5" y="862.8955">16</text><text fill="#000000" font-family="sans-serif" font-size="13" lengthAdjust="spacing" textLength="67" x="1209.5" y="862.8955">repositories</text><polygon fill="#181818" points="1608.5,895.4492,1618.5,899.4492,1608.5,903.4492,1612.5,899.4492" style="stroke:#181818;stroke-width:1.0;"/><line style="stroke:#181818;stroke-width:1.0;" x1="1174.5" x2="1614.5" y1="899.4492" y2="899.4492"/><text fill="#000000" font-family="sans-serif" font-size="13" font-weight="bold" lengthAdjust="spacing" textLength="14" x="1181.5" y="894.1865">17</text><text fill="#000000" font-family="sans-serif" font-size="13" lengthAdjust="spacing" textLength="157" x="1199.5" y="894.1865">getCollaboratorRepository()</text><polygon fill="#181818" points="1185.5,926.7402,1175.5,930.7402,1185.5,934.7402,1181.5,930.7402" style="stroke:#181818;stroke-width:1.0;"/><line style="stroke:#181818;stroke-width:1.0;" x1="1179.5" x2="1624.5" y1="930.7402" y2="930.7402"/><text fill="#000000" font-family="sans-serif" font-size="13" font-weight="bold" lengthAdjust="spacing" textLength="14" x="1191.5" y="925.4775">18</text><text fill="#000000" font-family="sans-serif" font-size="13" lengthAdjust="spacing" textLength="129" x="1209.5" y="925.4775">collaboratorRepository</text><polygon fill="#181818" points="1747.5,992.6133,1757.5,996.6133,1747.5,1000.6133,1751.5,996.6133" style="stroke:#181818;stroke-width:1.0;"/><line style="stroke:#181818;stroke-width:1.0;" x1="1174.5" x2="1753.5" y1="996.6133" y2="996.6133"/><text fill="#000000" font-family="sans-serif" font-size="13" font-weight="bold" lengthAdjust="spacing" textLength="14" x="1181.5" y="974.0596">19</text><text fill="#000000" font-family="sans-serif" font-size="13" lengthAdjust="spacing" textLength="210" x="1199.5" y="956.7686">registerCollaborator(name, birthdate,</text><text fill="#000000" font-family="sans-serif" font-size="13" lengthAdjust="spacing" textLength="192" x="1199.5" y="974.0596">admission date, address, mobile,</text><text fill="#000000" font-family="sans-serif" font-size="13" lengthAdjust="spacing" textLength="247" x="1199.5" y="991.3506">email, ID doc type, respective number, job)</text><rect fill="none" height="43.252" style="stroke:#000000;stroke-width:1.5;" width="167" x="1681" y="1004.6133"/><path d="M1681,1004.6133 L1743,1004.6133 L1743,1013.6133 L1733,1023.6133 L1681,1023.6133 L1681,1004.6133 " fill="#EEEEEE" style="stroke:#000000;stroke-width:2.0;"/><text fill="#000000" font-family="sans-serif" font-size="13" font-weight="bold" lengthAdjust="spacing" textLength="17" x="1694" y="1020.6416">ref</text><text fill="#000000" font-family="sans-serif" font-size="12" lengthAdjust="spacing" textLength="108" x="1710.5" y="1040.5625">Create Collaborator</text><polygon fill="#181818" points="1185.5,1072.1563,1175.5,1076.1563,1185.5,1080.1563,1181.5,1076.1563" style="stroke:#181818;stroke-width:1.0;"/><line style="stroke:#181818;stroke-width:1.0;stroke-dasharray:2.0,2.0;" x1="1179.5" x2="1763.5" y1="1076.1563" y2="1076.1563"/><text fill="#000000" font-family="sans-serif" font-size="13" font-weight="bold" lengthAdjust="spacing" textLength="14" x="1191.5" y="1070.8936">20</text><text fill="#000000" font-family="sans-serif" font-size="13" lengthAdjust="spacing" textLength="67" x="1209.5" y="1070.8936">collaborator</text><polygon fill="#181818" points="726.5,1103.4473,716.5,1107.4473,726.5,1111.4473,722.5,1107.4473" style="stroke:#181818;stroke-width:1.0;"/><line style="stroke:#181818;stroke-width:1.0;stroke-dasharray:2.0,2.0;" x1="720.5" x2="1168.5" y1="1107.4473" y2="1107.4473"/><text fill="#000000" font-family="sans-serif" font-size="13" font-weight="bold" lengthAdjust="spacing" textLength="14" x="732.5" y="1102.1846">21</text><text fill="#000000" font-family="sans-serif" font-size="13" lengthAdjust="spacing" textLength="67" x="750.5" y="1102.1846">collaborator</text><polygon fill="#181818" points="130.5,1134.7383,120.5,1138.7383,130.5,1142.7383,126.5,1138.7383" style="stroke:#181818;stroke-width:1.0;"/><line style="stroke:#181818;stroke-width:1.0;stroke-dasharray:2.0,2.0;" x1="124.5" x2="709.5" y1="1138.7383" y2="1138.7383"/><text fill="#000000" font-family="sans-serif" font-size="13" font-weight="bold" lengthAdjust="spacing" textLength="14" x="136.5" y="1133.4756">22</text><text fill="#000000" font-family="sans-serif" font-size="13" lengthAdjust="spacing" textLength="158" x="154.5" y="1133.4756">displays operation success</text><!--SRC=[fLR1Sfim4Btp5Jkvr9wnVy27pgJkJEDEadQSvEQBWBMj12Ig5Kdzzrq9Gy3813USiBJxzDvRBMjwaQeGHkIGQwMJlT4vWZKbHjJi529v4Jjyi8SCmM1YXTfbxG3QYrI_IRM3hSW8eqYKLgioZz54qPUzJ16sMjjO_ur4OhM1gvio5mhMIBeq2SATK7o0WSdD-cvw1OA0No86jpAHXL0MhXPht4coQ9Owop8HQoCOwMdbevzM0y5rx58hQ_Wt6f-pV5pVzh8AJP939PAFQHOE3z9fPbNT5DFAsAW-mE_RwyTkHj9Yz0w_sAXbSAEY6joAd9doLLZqRaN03x_0_2lx0GjEV26mcYjMUG425Bv1cu3FQL3OHR_W7aPW7ESH8-tG_jJnBQDCfar4a-QDR9RTOt0B-fLFz5jmyln02mm73g-RXofrkSsQFtvUwtckA3IxAPwXuBXpalDYmNTJlv7B9SWu6mIVKJj3cF5j1gqm1Dgse-qhs4E1n6uoQD-DKnCR8WR_b4YM81LMm4I976SGIsFtlC2l8iqbaTGAwj-fGQ89MODextqubzukTSflgTRctdVOT0ORbUjOPhoCkP3P35RVEI3nHBrW1YhGCKIesd9wYU1Axv4_fbx01SAh2dZL5PUZ3ubMMsboOLdp9NIEUJIIHtEBJU2Rq2_3HdsY47KPDgfVY5c_2YwGBn4u4gCQgsg8axxyTd2S9Wnqty7v0ElZHcqtww_ucQdtGauxjjUvHwRjLXditJDAwzfTZwr53x1x7bpkH3rIuCYX7pJM3746OBGfWR5KtOQL8XxE2Ku6z8TcMjGNsp-XLk2gyJxcXbICEgeMvKPbfI8yxeOq-J4Rh9f7VRS-F7s7D8IXc-iPnFlyn-O_FYNSOaEt_inVYFDzCCufRuR1qoFEVYZwJeOTd8ThDjWp8oLs_rMCHWzsP6VGfPAAJ1m8T876ZpMWCaa-Q7MUL_y0]--></g></svg>