<?xml version="1.0" encoding="us-ascii" standalone="no"?><svg xmlns="http://www.w3.org/2000/svg" xmlns:xlink="http://www.w3.org/1999/xlink" contentStyleType="text/css" height="414px" preserveAspectRatio="none" style="width:456px;height:414px;background:#FFFFFF;" version="1.1" viewBox="0 0 456 414" width="456px" zoomAndPan="magnify"><defs/><g><text fill="#000000" font-family="sans-serif" font-size="14" font-weight="bold" lengthAdjust="spacing" textLength="428" x="10" y="30.1074">System Sequence Diagram (SSD) - Register Vehicle Check-up</text><rect fill="#FFFFFF" height="31.291" style="stroke:#181818;stroke-width:1.0;" width="10" x="385.25" y="156.5332"/><rect fill="#FFFFFF" height="31.291" style="stroke:#181818;stroke-width:1.0;" width="10" x="385.25" y="219.1152"/><rect fill="#FFFFFF" height="31.291" style="stroke:#181818;stroke-width:1.0;" width="10" x="385.25" y="281.6973"/><line style="stroke:#181818;stroke-width:0.5;stroke-dasharray:5.0,5.0;" x1="43.75" x2="43.75" y1="123.2422" y2="330.9883"/><line style="stroke:#181818;stroke-width:0.5;stroke-dasharray:5.0,5.0;" x1="390.25" x2="390.25" y1="123.2422" y2="330.9883"/><text fill="#000000" font-family="sans-serif" font-size="14" lengthAdjust="spacing" textLength="29" x="26.75" y="119.7285">VFM</text><ellipse cx="44.25" cy="53.1211" fill="#E3E3E3" rx="8" ry="8" style="stroke:#181818;stroke-width:0.5;"/><path d="M44.25,61.1211 L44.25,88.1211 M31.25,69.1211 L57.25,69.1211 M44.25,88.1211 L31.25,103.1211 M44.25,88.1211 L57.25,103.1211 " fill="none" style="stroke:#181818;stroke-width:0.5;"/><text fill="#000000" font-family="sans-serif" font-size="14" lengthAdjust="spacing" textLength="29" x="26.75" y="345.0957">VFM</text><ellipse cx="44.25" cy="357.1094" fill="#E3E3E3" rx="8" ry="8" style="stroke:#181818;stroke-width:0.5;"/><path d="M44.25,365.1094 L44.25,392.1094 M31.25,373.1094 L57.25,373.1094 M44.25,392.1094 L31.25,407.1094 M44.25,392.1094 L57.25,407.1094 " fill="none" style="stroke:#181818;stroke-width:0.5;"/><rect fill="#E3E3E3" height="32.6211" rx="2.5" ry="2.5" style="stroke:#181818;stroke-width:0.5;" width="64" x="358.25" y="89.6211"/><text fill="#000000" font-family="sans-serif" font-size="14" lengthAdjust="spacing" textLength="50" x="365.25" y="111.7285">:System</text><rect fill="#E3E3E3" height="32.6211" rx="2.5" ry="2.5" style="stroke:#181818;stroke-width:0.5;" width="64" x="358.25" y="329.9883"/><text fill="#000000" font-family="sans-serif" font-size="14" lengthAdjust="spacing" textLength="50" x="365.25" y="352.0957">:System</text><rect fill="#FFFFFF" height="31.291" style="stroke:#181818;stroke-width:1.0;" width="10" x="385.25" y="156.5332"/><rect fill="#FFFFFF" height="31.291" style="stroke:#181818;stroke-width:1.0;" width="10" x="385.25" y="219.1152"/><rect fill="#FFFFFF" height="31.291" style="stroke:#181818;stroke-width:1.0;" width="10" x="385.25" y="281.6973"/><polygon fill="#181818" points="373.25,152.5332,383.25,156.5332,373.25,160.5332,377.25,156.5332" style="stroke:#181818;stroke-width:1.0;"/><line style="stroke:#181818;stroke-width:1.0;" x1="44.25" x2="379.25" y1="156.5332" y2="156.5332"/><text fill="#000000" font-family="sans-serif" font-size="13" font-weight="bold" lengthAdjust="spacing" textLength="7" x="51.25" y="151.2705">1</text><text fill="#000000" font-family="sans-serif" font-size="13" lengthAdjust="spacing" textLength="201" x="62.25" y="151.2705">asks to register a vehicle check-up</text><polygon fill="#181818" points="55.25,183.8242,45.25,187.8242,55.25,191.8242,51.25,187.8242" style="stroke:#181818;stroke-width:1.0;"/><line style="stroke:#181818;stroke-width:1.0;stroke-dasharray:2.0,2.0;" x1="49.25" x2="389.25" y1="187.8242" y2="187.8242"/><text fill="#000000" font-family="sans-serif" font-size="13" font-weight="bold" lengthAdjust="spacing" textLength="7" x="61.25" y="182.5615">2</text><text fill="#000000" font-family="sans-serif" font-size="13" lengthAdjust="spacing" textLength="306" x="72.25" y="182.5615">requests data (Plate number, date, kms at checkup.)</text><polygon fill="#181818" points="373.25,215.1152,383.25,219.1152,373.25,223.1152,377.25,219.1152" style="stroke:#181818;stroke-width:1.0;"/><line style="stroke:#181818;stroke-width:1.0;" x1="44.25" x2="379.25" y1="219.1152" y2="219.1152"/><text fill="#000000" font-family="sans-serif" font-size="13" font-weight="bold" lengthAdjust="spacing" textLength="7" x="51.25" y="213.8525">3</text><text fill="#000000" font-family="sans-serif" font-size="13" lengthAdjust="spacing" textLength="122" x="62.25" y="213.8525">types requested data</text><polygon fill="#181818" points="55.25,246.4063,45.25,250.4063,55.25,254.4063,51.25,250.4063" style="stroke:#181818;stroke-width:1.0;"/><line style="stroke:#181818;stroke-width:1.0;stroke-dasharray:2.0,2.0;" x1="49.25" x2="389.25" y1="250.4063" y2="250.4063"/><text fill="#000000" font-family="sans-serif" font-size="13" font-weight="bold" lengthAdjust="spacing" textLength="7" x="61.25" y="245.1436">4</text><text fill="#000000" font-family="sans-serif" font-size="13" lengthAdjust="spacing" textLength="236" x="72.25" y="245.1436">shows all data and requests confirmation</text><polygon fill="#181818" points="373.25,277.6973,383.25,281.6973,373.25,285.6973,377.25,281.6973" style="stroke:#181818;stroke-width:1.0;"/><line style="stroke:#181818;stroke-width:1.0;" x1="44.25" x2="379.25" y1="281.6973" y2="281.6973"/><text fill="#000000" font-family="sans-serif" font-size="13" font-weight="bold" lengthAdjust="spacing" textLength="7" x="51.25" y="276.4346">5</text><text fill="#000000" font-family="sans-serif" font-size="13" lengthAdjust="spacing" textLength="78" x="62.25" y="276.4346">confirms data</text><polygon fill="#181818" points="55.25,308.9883,45.25,312.9883,55.25,316.9883,51.25,312.9883" style="stroke:#181818;stroke-width:1.0;"/><line style="stroke:#181818;stroke-width:1.0;stroke-dasharray:2.0,2.0;" x1="49.25" x2="389.25" y1="312.9883" y2="312.9883"/><text fill="#000000" font-family="sans-serif" font-size="13" font-weight="bold" lengthAdjust="spacing" textLength="7" x="61.25" y="307.7256">6</text><text fill="#000000" font-family="sans-serif" font-size="13" lengthAdjust="spacing" textLength="158" x="72.25" y="307.7256">displays operation success</text><!--SRC=[bO-xRiCm34LtVGNHAG7YVa26BWsw5IXge3ihCxPWML95Ae7_ldJiz9K-K4s2U7dF4VSk9Cmum113j5sE0u7aGeRV9WbjZotLCdg2J5OmjFvZW3jiuj655lRecOmH9ngjHnOQeAQNGi4Ix1osKtnLrxirLF18hTD4XYVgdDM5suviNvLa31Q9eGpFbFLk9MhcxjueJPnr2OF0rNQklmBaXMGCwD4WL3Td-5R7FOD45Lze28U5Py-yQKynxe12dygcipHLMZfrRxL9FyJ2qA0Wh1xyj3NRRgOtsa0_CA3CW9AkrwUoXhvbV1MMCH6V8TISAByQNWXo5u_AztusnD2yEziOzYuFA2w6_rWjU_otpgLFupXv71bYedmY0nThYVa7WrS0]--></g></svg>