<?xml version="1.0" encoding="us-ascii" standalone="no"?><svg xmlns="http://www.w3.org/2000/svg" xmlns:xlink="http://www.w3.org/1999/xlink" contentStyleType="text/css" height="706px" preserveAspectRatio="none" style="width:1804px;height:706px;background:#FFFFFF;" version="1.1" viewBox="0 0 1804 706" width="1804px" zoomAndPan="magnify"><defs/><g><!--class Document--><g id="elem_Document"><rect codeLine="11" fill="#F1F1F1" height="85.2422" id="Document" rx="2.5" ry="2.5" style="stroke:#181818;stroke-width:0.5;" width="96" x="273.5" y="493.3784"/><ellipse cx="288.5" cy="509.3784" fill="#ADD1B2" rx="11" ry="11" style="stroke:#181818;stroke-width:1.0;"/><path d="M291.2656,505.2534 Q291.4219,505.0347 291.6094,504.9253 Q291.7969,504.8159 292.0156,504.8159 Q292.3906,504.8159 292.625,505.0816 Q292.8594,505.3316 292.8594,505.9409 L292.8594,507.3941 Q292.8594,508.0034 292.625,508.2691 Q292.3906,508.5347 292.0156,508.5347 Q291.6719,508.5347 291.4688,508.3316 Q291.2656,508.1441 291.1563,507.6284 Q291.1094,507.2691 290.9219,507.0816 Q290.5938,506.7066 289.9844,506.4878 Q289.375,506.2691 288.75,506.2691 Q287.9844,506.2691 287.3438,506.5972 Q286.7188,506.9253 286.2188,507.6753 Q285.7344,508.4253 285.7344,509.4566 L285.7344,510.5503 Q285.7344,511.7847 286.625,512.6128 Q287.5156,513.4253 289.1094,513.4253 Q290.0469,513.4253 290.7031,513.1753 Q291.0938,513.0191 291.5156,512.5816 Q291.7813,512.3159 291.9219,512.2378 Q292.0781,512.1597 292.2813,512.1597 Q292.6094,512.1597 292.8594,512.4253 Q293.125,512.6753 293.125,513.0191 Q293.125,513.3628 292.7813,513.7691 Q292.2813,514.3472 291.4844,514.6753 Q290.4063,515.1284 289.1094,515.1284 Q287.5938,515.1284 286.3906,514.5034 Q285.4063,514.0034 284.7188,512.9409 Q284.0313,511.8628 284.0313,510.5816 L284.0313,509.4253 Q284.0313,508.0972 284.6406,506.9566 Q285.2656,505.8003 286.3594,505.1909 Q287.4531,504.5659 288.6875,504.5659 Q289.4219,504.5659 290.0625,504.7378 Q290.7188,504.8941 291.2656,505.2534 Z " fill="#000000"/><text fill="#000000" font-family="sans-serif" font-size="14" lengthAdjust="spacing" textLength="64" x="302.5" y="515.1753">Document</text><line style="stroke:#181818;stroke-width:0.5;" x1="274.5" x2="368.5" y1="525.3784" y2="525.3784"/><text fill="#000000" font-family="sans-serif" font-size="14" lengthAdjust="spacing" textLength="55" x="279.5" y="544.4859">docType</text><text fill="#000000" font-family="sans-serif" font-size="14" lengthAdjust="spacing" textLength="48" x="279.5" y="563.1069">number</text><line style="stroke:#181818;stroke-width:0.5;" x1="274.5" x2="368.5" y1="570.6206" y2="570.6206"/></g><!--class Collaborator--><g id="elem_Collaborator"><rect codeLine="15" fill="#F1F1F1" height="271.4531" id="Collaborator" rx="2.5" ry="2.5" style="stroke:#181818;stroke-width:0.5;" width="629" x="7" y="22.3784"/><ellipse cx="278.25" cy="38.3784" fill="#ADD1B2" rx="11" ry="11" style="stroke:#181818;stroke-width:1.0;"/><path d="M281.0156,34.2534 Q281.1719,34.0347 281.3594,33.9253 Q281.5469,33.8159 281.7656,33.8159 Q282.1406,33.8159 282.375,34.0816 Q282.6094,34.3316 282.6094,34.9409 L282.6094,36.3941 Q282.6094,37.0034 282.375,37.2691 Q282.1406,37.5347 281.7656,37.5347 Q281.4219,37.5347 281.2188,37.3316 Q281.0156,37.1441 280.9063,36.6284 Q280.8594,36.2691 280.6719,36.0816 Q280.3438,35.7066 279.7344,35.4878 Q279.125,35.2691 278.5,35.2691 Q277.7344,35.2691 277.0938,35.5972 Q276.4688,35.9253 275.9688,36.6753 Q275.4844,37.4253 275.4844,38.4566 L275.4844,39.5503 Q275.4844,40.7847 276.375,41.6128 Q277.2656,42.4253 278.8594,42.4253 Q279.7969,42.4253 280.4531,42.1753 Q280.8438,42.0191 281.2656,41.5816 Q281.5313,41.3159 281.6719,41.2378 Q281.8281,41.1597 282.0313,41.1597 Q282.3594,41.1597 282.6094,41.4253 Q282.875,41.6753 282.875,42.0191 Q282.875,42.3628 282.5313,42.7691 Q282.0313,43.3472 281.2344,43.6753 Q280.1563,44.1284 278.8594,44.1284 Q277.3438,44.1284 276.1406,43.5034 Q275.1563,43.0034 274.4688,41.9409 Q273.7813,40.8628 273.7813,39.5816 L273.7813,38.4253 Q273.7813,37.0972 274.3906,35.9566 Q275.0156,34.8003 276.1094,34.1909 Q277.2031,33.5659 278.4375,33.5659 Q279.1719,33.5659 279.8125,33.7378 Q280.4688,33.8941 281.0156,34.2534 Z " fill="#000000"/><text fill="#000000" font-family="sans-serif" font-size="14" lengthAdjust="spacing" textLength="78" x="298.75" y="44.1753">Collaborator</text><line style="stroke:#181818;stroke-width:0.5;" x1="8" x2="635" y1="54.3784" y2="54.3784"/><text fill="#000000" font-family="sans-serif" font-size="14" lengthAdjust="spacing" textLength="81" x="13" y="73.4859">-String name</text><text fill="#000000" font-family="sans-serif" font-size="14" lengthAdjust="spacing" textLength="117" x="13" y="92.1069">-List&lt;Skill&gt; skillList</text><text fill="#000000" font-family="sans-serif" font-size="14" lengthAdjust="spacing" textLength="50" x="13" y="110.728">-Job job</text><text fill="#000000" font-family="sans-serif" font-size="14" lengthAdjust="spacing" textLength="111" x="13" y="129.3491">-Date dateOfBirth</text><text fill="#000000" font-family="sans-serif" font-size="14" lengthAdjust="spacing" textLength="132" x="13" y="147.9702">-Date admissionDate</text><text fill="#000000" font-family="sans-serif" font-size="14" lengthAdjust="spacing" textLength="135" x="13" y="166.5913">-String phoneNumber</text><text fill="#000000" font-family="sans-serif" font-size="14" lengthAdjust="spacing" textLength="79" x="13" y="185.2124">-String email</text><text fill="#000000" font-family="sans-serif" font-size="14" lengthAdjust="spacing" textLength="78" x="13" y="203.8335">-int taxpayer</text><text fill="#000000" font-family="sans-serif" font-size="14" lengthAdjust="spacing" textLength="135" x="13" y="222.4546">-Document document</text><text fill="#000000" font-family="sans-serif" font-size="14" lengthAdjust="spacing" textLength="96" x="13" y="241.0757">-Adress adress</text><line style="stroke:#181818;stroke-width:0.5;" x1="8" x2="635" y1="248.5894" y2="248.5894"/><text fill="#000000" font-family="sans-serif" font-size="14" lengthAdjust="spacing" textLength="617" x="13" y="267.6968">+Collaborator(name,adress,document,dateOfBirth, admissionDate,phoneNumber, email, taxpayer)</text><text fill="#000000" font-family="sans-serif" font-size="14" lengthAdjust="spacing" textLength="113" x="13" y="286.3179">+skillListAdd(Skill)</text></g><!--class VehicleFleetManager--><g id="elem_VehicleFleetManager"><rect codeLine="31" fill="#F1F1F1" height="48" id="VehicleFleetManager" rx="2.5" ry="2.5" style="stroke:#181818;stroke-width:0.5;" width="166" x="1631.5" y="133.8784"/><ellipse cx="1646.5" cy="149.8784" fill="#ADD1B2" rx="11" ry="11" style="stroke:#181818;stroke-width:1.0;"/><path d="M1649.2656,145.7534 Q1649.4219,145.5347 1649.6094,145.4253 Q1649.7969,145.3159 1650.0156,145.3159 Q1650.3906,145.3159 1650.625,145.5816 Q1650.8594,145.8316 1650.8594,146.4409 L1650.8594,147.8941 Q1650.8594,148.5034 1650.625,148.7691 Q1650.3906,149.0347 1650.0156,149.0347 Q1649.6719,149.0347 1649.4688,148.8316 Q1649.2656,148.6441 1649.1563,148.1284 Q1649.1094,147.7691 1648.9219,147.5816 Q1648.5938,147.2066 1647.9844,146.9878 Q1647.375,146.7691 1646.75,146.7691 Q1645.9844,146.7691 1645.3438,147.0972 Q1644.7188,147.4253 1644.2188,148.1753 Q1643.7344,148.9253 1643.7344,149.9566 L1643.7344,151.0503 Q1643.7344,152.2847 1644.625,153.1128 Q1645.5156,153.9253 1647.1094,153.9253 Q1648.0469,153.9253 1648.7031,153.6753 Q1649.0938,153.5191 1649.5156,153.0816 Q1649.7813,152.8159 1649.9219,152.7378 Q1650.0781,152.6597 1650.2813,152.6597 Q1650.6094,152.6597 1650.8594,152.9253 Q1651.125,153.1753 1651.125,153.5191 Q1651.125,153.8628 1650.7813,154.2691 Q1650.2813,154.8472 1649.4844,155.1753 Q1648.4063,155.6284 1647.1094,155.6284 Q1645.5938,155.6284 1644.3906,155.0034 Q1643.4063,154.5034 1642.7188,153.4409 Q1642.0313,152.3628 1642.0313,151.0816 L1642.0313,149.9253 Q1642.0313,148.5972 1642.6406,147.4566 Q1643.2656,146.3003 1644.3594,145.6909 Q1645.4531,145.0659 1646.6875,145.0659 Q1647.4219,145.0659 1648.0625,145.2378 Q1648.7188,145.3941 1649.2656,145.7534 Z " fill="#000000"/><text fill="#000000" font-family="sans-serif" font-size="14" lengthAdjust="spacing" textLength="134" x="1660.5" y="155.6753">VehicleFleetManager</text><line style="stroke:#181818;stroke-width:0.5;" x1="1632.5" x2="1796.5" y1="165.8784" y2="165.8784"/><line style="stroke:#181818;stroke-width:0.5;" x1="1632.5" x2="1796.5" y1="173.8784" y2="173.8784"/></g><!--class Vehicle--><g id="elem_Vehicle"><rect codeLine="34" fill="#F1F1F1" height="327.3164" id="Vehicle" rx="2.5" ry="2.5" style="stroke:#181818;stroke-width:0.5;" width="755" x="792" y="372.3784"/><ellipse cx="1142.25" cy="388.3784" fill="#ADD1B2" rx="11" ry="11" style="stroke:#181818;stroke-width:1.0;"/><path d="M1145.0156,384.2534 Q1145.1719,384.0347 1145.3594,383.9253 Q1145.5469,383.8159 1145.7656,383.8159 Q1146.1406,383.8159 1146.375,384.0816 Q1146.6094,384.3316 1146.6094,384.9409 L1146.6094,386.3941 Q1146.6094,387.0034 1146.375,387.2691 Q1146.1406,387.5347 1145.7656,387.5347 Q1145.4219,387.5347 1145.2188,387.3316 Q1145.0156,387.1441 1144.9063,386.6284 Q1144.8594,386.2691 1144.6719,386.0816 Q1144.3438,385.7066 1143.7344,385.4878 Q1143.125,385.2691 1142.5,385.2691 Q1141.7344,385.2691 1141.0938,385.5972 Q1140.4688,385.9253 1139.9688,386.6753 Q1139.4844,387.4253 1139.4844,388.4566 L1139.4844,389.5503 Q1139.4844,390.7847 1140.375,391.6128 Q1141.2656,392.4253 1142.8594,392.4253 Q1143.7969,392.4253 1144.4531,392.1753 Q1144.8438,392.0191 1145.2656,391.5816 Q1145.5313,391.3159 1145.6719,391.2378 Q1145.8281,391.1597 1146.0313,391.1597 Q1146.3594,391.1597 1146.6094,391.4253 Q1146.875,391.6753 1146.875,392.0191 Q1146.875,392.3628 1146.5313,392.7691 Q1146.0313,393.3472 1145.2344,393.6753 Q1144.1563,394.1284 1142.8594,394.1284 Q1141.3438,394.1284 1140.1406,393.5034 Q1139.1563,393.0034 1138.4688,391.9409 Q1137.7813,390.8628 1137.7813,389.5816 L1137.7813,388.4253 Q1137.7813,387.0972 1138.3906,385.9566 Q1139.0156,384.8003 1140.1094,384.1909 Q1141.2031,383.5659 1142.4375,383.5659 Q1143.1719,383.5659 1143.8125,383.7378 Q1144.4688,383.8941 1145.0156,384.2534 Z " fill="#000000"/><text fill="#000000" font-family="sans-serif" font-size="14" lengthAdjust="spacing" textLength="46" x="1162.75" y="394.1753">Vehicle</text><line style="stroke:#181818;stroke-width:0.5;" x1="793" x2="1546" y1="404.3784" y2="404.3784"/><text fill="#000000" font-family="sans-serif" font-size="14" lengthAdjust="spacing" textLength="191" x="798" y="423.4859">-List &lt;CheckUp&gt; checkUpsList</text><text fill="#000000" font-family="sans-serif" font-size="14" lengthAdjust="spacing" textLength="84" x="798" y="442.1069">-Brand brand</text><text fill="#000000" font-family="sans-serif" font-size="14" lengthAdjust="spacing" textLength="85" x="798" y="460.728">-Model model</text><text fill="#000000" font-family="sans-serif" font-size="14" lengthAdjust="spacing" textLength="73" x="798" y="479.3491">-String type</text><text fill="#000000" font-family="sans-serif" font-size="14" lengthAdjust="spacing" textLength="61" x="798" y="497.9702">-float tare</text><text fill="#000000" font-family="sans-serif" font-size="14" lengthAdjust="spacing" textLength="115" x="798" y="516.5913">-float grossWeight</text><text fill="#000000" font-family="sans-serif" font-size="14" lengthAdjust="spacing" textLength="89" x="798" y="535.2124">-int currentKm</text><text fill="#000000" font-family="sans-serif" font-size="14" lengthAdjust="spacing" textLength="117" x="798" y="553.8335">-Date registerDate</text><text fill="#000000" font-family="sans-serif" font-size="14" lengthAdjust="spacing" textLength="136" x="798" y="572.4546">-Date acquisitionDate</text><text fill="#000000" font-family="sans-serif" font-size="14" lengthAdjust="spacing" textLength="145" x="798" y="591.0757">-int checkupFrequency</text><text fill="#000000" font-family="sans-serif" font-size="14" lengthAdjust="spacing" textLength="122" x="798" y="609.6968">-String licensePlate</text><line style="stroke:#181818;stroke-width:0.5;" x1="793" x2="1546" y1="617.2105" y2="617.2105"/><text fill="#000000" font-family="sans-serif" font-size="14" lengthAdjust="spacing" textLength="743" x="798" y="636.3179">+Vehicle(brand,model,type,tare,grossWeight,currentKm,registerDate,acquisitionDate,checkupFrequency,licensePlate)</text><text fill="#000000" font-family="sans-serif" font-size="14" lengthAdjust="spacing" textLength="198" x="798" y="654.939">+CheckUpByVehicle(date, kms)</text><text fill="#000000" font-family="sans-serif" font-size="14" lengthAdjust="spacing" textLength="170" x="798" y="673.5601">-vehicleCheckUp(checkUp)</text><text fill="#000000" font-family="sans-serif" font-size="14" lengthAdjust="spacing" textLength="129" x="798" y="692.1812">-validation(checkUp)</text></g><!--class CheckUp--><g id="elem_CheckUp"><rect codeLine="53" fill="#F1F1F1" height="141.1055" id="CheckUp" rx="2.5" ry="2.5" style="stroke:#181818;stroke-width:0.5;" width="145" x="1642" y="465.3784"/><ellipse cx="1682.2" cy="481.3784" fill="#ADD1B2" rx="11" ry="11" style="stroke:#181818;stroke-width:1.0;"/><path d="M1684.9656,477.2534 Q1685.1219,477.0347 1685.3094,476.9253 Q1685.4969,476.8159 1685.7156,476.8159 Q1686.0906,476.8159 1686.325,477.0816 Q1686.5594,477.3316 1686.5594,477.9409 L1686.5594,479.3941 Q1686.5594,480.0034 1686.325,480.2691 Q1686.0906,480.5347 1685.7156,480.5347 Q1685.3719,480.5347 1685.1688,480.3316 Q1684.9656,480.1441 1684.8563,479.6284 Q1684.8094,479.2691 1684.6219,479.0816 Q1684.2938,478.7066 1683.6844,478.4878 Q1683.075,478.2691 1682.45,478.2691 Q1681.6844,478.2691 1681.0438,478.5972 Q1680.4188,478.9253 1679.9188,479.6753 Q1679.4344,480.4253 1679.4344,481.4566 L1679.4344,482.5503 Q1679.4344,483.7847 1680.325,484.6128 Q1681.2156,485.4253 1682.8094,485.4253 Q1683.7469,485.4253 1684.4031,485.1753 Q1684.7938,485.0191 1685.2156,484.5816 Q1685.4813,484.3159 1685.6219,484.2378 Q1685.7781,484.1597 1685.9813,484.1597 Q1686.3094,484.1597 1686.5594,484.4253 Q1686.825,484.6753 1686.825,485.0191 Q1686.825,485.3628 1686.4813,485.7691 Q1685.9813,486.3472 1685.1844,486.6753 Q1684.1063,487.1284 1682.8094,487.1284 Q1681.2938,487.1284 1680.0906,486.5034 Q1679.1063,486.0034 1678.4188,484.9409 Q1677.7313,483.8628 1677.7313,482.5816 L1677.7313,481.4253 Q1677.7313,480.0972 1678.3406,478.9566 Q1678.9656,477.8003 1680.0594,477.1909 Q1681.1531,476.5659 1682.3875,476.5659 Q1683.1219,476.5659 1683.7625,476.7378 Q1684.4188,476.8941 1684.9656,477.2534 Z " fill="#000000"/><text fill="#000000" font-family="sans-serif" font-size="14" lengthAdjust="spacing" textLength="57" x="1701.8" y="487.1753">CheckUp</text><line style="stroke:#181818;stroke-width:0.5;" x1="1643" x2="1786" y1="497.3784" y2="497.3784"/><text fill="#000000" font-family="sans-serif" font-size="14" lengthAdjust="spacing" textLength="122" x="1648" y="516.4859">-String licensePlate</text><text fill="#000000" font-family="sans-serif" font-size="14" lengthAdjust="spacing" textLength="67" x="1648" y="535.1069">-Date date</text><text fill="#000000" font-family="sans-serif" font-size="14" lengthAdjust="spacing" textLength="49" x="1648" y="553.728">-int kms</text><line style="stroke:#181818;stroke-width:0.5;" x1="1643" x2="1786" y1="561.2417" y2="561.2417"/><text fill="#000000" font-family="sans-serif" font-size="14" lengthAdjust="spacing" textLength="133" x="1648" y="580.3491">+checkUp(date, kms)</text><text fill="#000000" font-family="sans-serif" font-size="14" lengthAdjust="spacing" textLength="129" x="1648" y="598.9702">-validation(checkUp)</text></g><!--class VehicleRepository--><g id="elem_VehicleRepository"><rect codeLine="62" fill="#F1F1F1" height="85.2422" id="VehicleRepository" rx="2.5" ry="2.5" style="stroke:#181818;stroke-width:0.5;" width="220" x="496.5" y="493.3784"/><ellipse cx="545.25" cy="509.3784" fill="#ADD1B2" rx="11" ry="11" style="stroke:#181818;stroke-width:1.0;"/><path d="M548.0156,505.2534 Q548.1719,505.0347 548.3594,504.9253 Q548.5469,504.8159 548.7656,504.8159 Q549.1406,504.8159 549.375,505.0816 Q549.6094,505.3316 549.6094,505.9409 L549.6094,507.3941 Q549.6094,508.0034 549.375,508.2691 Q549.1406,508.5347 548.7656,508.5347 Q548.4219,508.5347 548.2188,508.3316 Q548.0156,508.1441 547.9063,507.6284 Q547.8594,507.2691 547.6719,507.0816 Q547.3438,506.7066 546.7344,506.4878 Q546.125,506.2691 545.5,506.2691 Q544.7344,506.2691 544.0938,506.5972 Q543.4688,506.9253 542.9688,507.6753 Q542.4844,508.4253 542.4844,509.4566 L542.4844,510.5503 Q542.4844,511.7847 543.375,512.6128 Q544.2656,513.4253 545.8594,513.4253 Q546.7969,513.4253 547.4531,513.1753 Q547.8438,513.0191 548.2656,512.5816 Q548.5313,512.3159 548.6719,512.2378 Q548.8281,512.1597 549.0313,512.1597 Q549.3594,512.1597 549.6094,512.4253 Q549.875,512.6753 549.875,513.0191 Q549.875,513.3628 549.5313,513.7691 Q549.0313,514.3472 548.2344,514.6753 Q547.1563,515.1284 545.8594,515.1284 Q544.3438,515.1284 543.1406,514.5034 Q542.1563,514.0034 541.4688,512.9409 Q540.7813,511.8628 540.7813,510.5816 L540.7813,509.4253 Q540.7813,508.0972 541.3906,506.9566 Q542.0156,505.8003 543.1094,505.1909 Q544.2031,504.5659 545.4375,504.5659 Q546.1719,504.5659 546.8125,504.7378 Q547.4688,504.8941 548.0156,505.2534 Z " fill="#000000"/><text fill="#000000" font-family="sans-serif" font-size="14" lengthAdjust="spacing" textLength="114" x="565.75" y="515.1753">VehicleRepository</text><line style="stroke:#181818;stroke-width:0.5;" x1="497.5" x2="715.5" y1="525.3784" y2="525.3784"/><text fill="#000000" font-family="sans-serif" font-size="14" lengthAdjust="spacing" textLength="163" x="502.5" y="544.4859">-List &lt;Vehicle&gt; vehicleList</text><line style="stroke:#181818;stroke-width:0.5;" x1="497.5" x2="715.5" y1="551.9995" y2="551.9995"/><text fill="#000000" font-family="sans-serif" font-size="14" lengthAdjust="spacing" textLength="208" x="502.5" y="571.1069">+getVehicleByPlate(licensePlate)</text></g><!--class Repositories--><g id="elem_Repositories"><rect codeLine="67" fill="#F1F1F1" height="103.8633" id="Repositories" rx="2.5" ry="2.5" style="stroke:#181818;stroke-width:0.5;" width="194" x="1323.5" y="105.8784"/><ellipse cx="1376.75" cy="121.8784" fill="#ADD1B2" rx="11" ry="11" style="stroke:#181818;stroke-width:1.0;"/><path d="M1379.5156,117.7534 Q1379.6719,117.5347 1379.8594,117.4253 Q1380.0469,117.3159 1380.2656,117.3159 Q1380.6406,117.3159 1380.875,117.5816 Q1381.1094,117.8316 1381.1094,118.4409 L1381.1094,119.8941 Q1381.1094,120.5034 1380.875,120.7691 Q1380.6406,121.0347 1380.2656,121.0347 Q1379.9219,121.0347 1379.7188,120.8316 Q1379.5156,120.6441 1379.4063,120.1284 Q1379.3594,119.7691 1379.1719,119.5816 Q1378.8438,119.2066 1378.2344,118.9878 Q1377.625,118.7691 1377,118.7691 Q1376.2344,118.7691 1375.5938,119.0972 Q1374.9688,119.4253 1374.4688,120.1753 Q1373.9844,120.9253 1373.9844,121.9566 L1373.9844,123.0503 Q1373.9844,124.2847 1374.875,125.1128 Q1375.7656,125.9253 1377.3594,125.9253 Q1378.2969,125.9253 1378.9531,125.6753 Q1379.3438,125.5191 1379.7656,125.0816 Q1380.0313,124.8159 1380.1719,124.7378 Q1380.3281,124.6597 1380.5313,124.6597 Q1380.8594,124.6597 1381.1094,124.9253 Q1381.375,125.1753 1381.375,125.5191 Q1381.375,125.8628 1381.0313,126.2691 Q1380.5313,126.8472 1379.7344,127.1753 Q1378.6563,127.6284 1377.3594,127.6284 Q1375.8438,127.6284 1374.6406,127.0034 Q1373.6563,126.5034 1372.9688,125.4409 Q1372.2813,124.3628 1372.2813,123.0816 L1372.2813,121.9253 Q1372.2813,120.5972 1372.8906,119.4566 Q1373.5156,118.3003 1374.6094,117.6909 Q1375.7031,117.0659 1376.9375,117.0659 Q1377.6719,117.0659 1378.3125,117.2378 Q1378.9688,117.3941 1379.5156,117.7534 Z " fill="#000000"/><text fill="#000000" font-family="sans-serif" font-size="14" lengthAdjust="spacing" textLength="79" x="1397.25" y="127.6753">Repositories</text><line style="stroke:#181818;stroke-width:0.5;" x1="1324.5" x2="1516.5" y1="137.8784" y2="137.8784"/><line style="stroke:#181818;stroke-width:0.5;" x1="1324.5" x2="1516.5" y1="145.8784" y2="145.8784"/><text fill="#000000" font-family="sans-serif" font-size="14" lengthAdjust="spacing" textLength="94" x="1329.5" y="164.9859">-Repositories()</text><text fill="#000000" font-family="sans-serif" font-size="14" lengthAdjust="spacing" textLength="182" x="1329.5" y="183.6069">+getInstance() : Repositories</text><text fill="#000000" font-family="sans-serif" font-size="14" lengthAdjust="spacing" textLength="152" x="1329.5" y="202.228">+getVehicleRepository()</text></g><!--class ListVehiclesNeedingCheckUpController--><g id="elem_ListVehiclesNeedingCheckUpController"><rect codeLine="73" fill="#F1F1F1" height="85.2422" id="ListVehiclesNeedingCheckUpController" rx="2.5" ry="2.5" style="stroke:#181818;stroke-width:0.5;" width="354" x="934.5" y="115.3784"/><ellipse cx="984.25" cy="131.3784" fill="#ADD1B2" rx="11" ry="11" style="stroke:#181818;stroke-width:1.0;"/><path d="M987.0156,127.2534 Q987.1719,127.0347 987.3594,126.9253 Q987.5469,126.8159 987.7656,126.8159 Q988.1406,126.8159 988.375,127.0816 Q988.6094,127.3316 988.6094,127.9409 L988.6094,129.3941 Q988.6094,130.0034 988.375,130.2691 Q988.1406,130.5347 987.7656,130.5347 Q987.4219,130.5347 987.2188,130.3316 Q987.0156,130.1441 986.9063,129.6284 Q986.8594,129.2691 986.6719,129.0816 Q986.3438,128.7066 985.7344,128.4878 Q985.125,128.2691 984.5,128.2691 Q983.7344,128.2691 983.0938,128.5972 Q982.4688,128.9253 981.9688,129.6753 Q981.4844,130.4253 981.4844,131.4566 L981.4844,132.5503 Q981.4844,133.7847 982.375,134.6128 Q983.2656,135.4253 984.8594,135.4253 Q985.7969,135.4253 986.4531,135.1753 Q986.8438,135.0191 987.2656,134.5816 Q987.5313,134.3159 987.6719,134.2378 Q987.8281,134.1597 988.0313,134.1597 Q988.3594,134.1597 988.6094,134.4253 Q988.875,134.6753 988.875,135.0191 Q988.875,135.3628 988.5313,135.7691 Q988.0313,136.3472 987.2344,136.6753 Q986.1563,137.1284 984.8594,137.1284 Q983.3438,137.1284 982.1406,136.5034 Q981.1563,136.0034 980.4688,134.9409 Q979.7813,133.8628 979.7813,132.5816 L979.7813,131.4253 Q979.7813,130.0972 980.3906,128.9566 Q981.0156,127.8003 982.1094,127.1909 Q983.2031,126.5659 984.4375,126.5659 Q985.1719,126.5659 985.8125,126.7378 Q986.4688,126.8941 987.0156,127.2534 Z " fill="#000000"/><text fill="#000000" font-family="sans-serif" font-size="14" lengthAdjust="spacing" textLength="246" x="1004.75" y="137.1753">ListVehiclesNeedingCheckUpController</text><line style="stroke:#181818;stroke-width:0.5;" x1="935.5" x2="1287.5" y1="147.3784" y2="147.3784"/><line style="stroke:#181818;stroke-width:0.5;" x1="935.5" x2="1287.5" y1="155.3784" y2="155.3784"/><text fill="#000000" font-family="sans-serif" font-size="14" lengthAdjust="spacing" textLength="264" x="940.5" y="174.4859">+ListVehiclesNeedingCheckUpController()</text><text fill="#000000" font-family="sans-serif" font-size="14" lengthAdjust="spacing" textLength="342" x="940.5" y="193.1069">+listVehiclesNeedingCheckUp(licensePlate, date, kms)</text></g><!--class ListVehiclesNeedingCheckUpUI--><g id="elem_ListVehiclesNeedingCheckUpUI"><rect codeLine="78" fill="#F1F1F1" height="48" id="ListVehiclesNeedingCheckUpUI" rx="2.5" ry="2.5" style="stroke:#181818;stroke-width:0.5;" width="228" x="671.5" y="133.8784"/><ellipse cx="686.5" cy="149.8784" fill="#ADD1B2" rx="11" ry="11" style="stroke:#181818;stroke-width:1.0;"/><path d="M689.2656,145.7534 Q689.4219,145.5347 689.6094,145.4253 Q689.7969,145.3159 690.0156,145.3159 Q690.3906,145.3159 690.625,145.5816 Q690.8594,145.8316 690.8594,146.4409 L690.8594,147.8941 Q690.8594,148.5034 690.625,148.7691 Q690.3906,149.0347 690.0156,149.0347 Q689.6719,149.0347 689.4688,148.8316 Q689.2656,148.6441 689.1563,148.1284 Q689.1094,147.7691 688.9219,147.5816 Q688.5938,147.2066 687.9844,146.9878 Q687.375,146.7691 686.75,146.7691 Q685.9844,146.7691 685.3438,147.0972 Q684.7188,147.4253 684.2188,148.1753 Q683.7344,148.9253 683.7344,149.9566 L683.7344,151.0503 Q683.7344,152.2847 684.625,153.1128 Q685.5156,153.9253 687.1094,153.9253 Q688.0469,153.9253 688.7031,153.6753 Q689.0938,153.5191 689.5156,153.0816 Q689.7813,152.8159 689.9219,152.7378 Q690.0781,152.6597 690.2813,152.6597 Q690.6094,152.6597 690.8594,152.9253 Q691.125,153.1753 691.125,153.5191 Q691.125,153.8628 690.7813,154.2691 Q690.2813,154.8472 689.4844,155.1753 Q688.4063,155.6284 687.1094,155.6284 Q685.5938,155.6284 684.3906,155.0034 Q683.4063,154.5034 682.7188,153.4409 Q682.0313,152.3628 682.0313,151.0816 L682.0313,149.9253 Q682.0313,148.5972 682.6406,147.4566 Q683.2656,146.3003 684.3594,145.6909 Q685.4531,145.0659 686.6875,145.0659 Q687.4219,145.0659 688.0625,145.2378 Q688.7188,145.3941 689.2656,145.7534 Z " fill="#000000"/><text fill="#000000" font-family="sans-serif" font-size="14" lengthAdjust="spacing" textLength="196" x="700.5" y="155.6753">ListVehiclesNeedingCheckUpUI</text><line style="stroke:#181818;stroke-width:0.5;" x1="672.5" x2="898.5" y1="165.8784" y2="165.8784"/><line style="stroke:#181818;stroke-width:0.5;" x1="672.5" x2="898.5" y1="173.8784" y2="173.8784"/></g><!--reverse link Collaborator to VehicleFleetManager--><g id="link_Collaborator_VehicleFleetManager"><path codeLine="81" d="M652.7426,15.24 C674.2026,6 671,7.3784 671,7.3784 C671,7.3784 1597,7.3784 1597,7.3784 C1597,7.3784 1614.5,22.3784 1614.5,22.3784 C1614.5,22.3784 1667.86,94.6784 1696.62,133.6584 " fill="none" id="Collaborator-backto-VehicleFleetManager" style="stroke:#181818;stroke-width:1.0;"/><polygon fill="none" points="636.21,22.3584,655.1154,20.7509,650.3698,9.7291,636.21,22.3584" style="stroke:#181818;stroke-width:1.0;"/></g><!--link Collaborator to Document--><g id="link_Collaborator_Document"><path codeLine="82" d="M321.5,293.5584 C321.5,363.9384 321.5,439.1884 321.5,487.1784 " fill="none" id="Collaborator-to-Document" style="stroke:#181818;stroke-width:1.0;"/><polygon fill="#181818" points="321.5,493.1784,325.5,484.1784,321.5,488.1784,317.5,484.1784,321.5,493.1784" style="stroke:#181818;stroke-width:1.0;"/><text fill="#000000" font-family="sans-serif" font-size="13" lengthAdjust="spacing" textLength="21" x="322.5" y="338.4068">has</text><text fill="#000000" font-family="sans-serif" font-size="13" lengthAdjust="spacing" textLength="7" x="314.2977" y="315.9175">1</text><text fill="#000000" font-family="sans-serif" font-size="13" lengthAdjust="spacing" textLength="7" x="313.9422" y="482.0506">1</text></g><!--link ListVehiclesNeedingCheckUpUI to ListVehiclesNeedingCheckUpController--><g id="link_ListVehiclesNeedingCheckUpUI_ListVehiclesNeedingCheckUpController"><path codeLine="84" d="M899.7,157.8784 C906.8,157.8784 913.93,157.8784 928.5,157.8784 " fill="none" id="ListVehiclesNeedingCheckUpUI-to-ListVehiclesNeedingCheckUpController" style="stroke:#181818;stroke-width:1.0;stroke-dasharray:7.0,7.0;"/><polygon fill="#181818" points="934.5,157.8784,925.5,153.8784,929.5,157.8784,925.5,161.8784,934.5,157.8784" style="stroke:#181818;stroke-width:1.0;"/></g><!--link ListVehiclesNeedingCheckUpController to Repositories--><g id="link_ListVehiclesNeedingCheckUpController_Repositories"><path codeLine="86" d="M1288.53,157.8784 C1304.91,157.8784 1317.5,157.8784 1317.5,157.8784 C1317.5,157.8784 1313.65,157.8784 1317.33,157.8784 " fill="none" id="ListVehiclesNeedingCheckUpController-to-Repositories" style="stroke:#181818;stroke-width:1.0;stroke-dasharray:7.0,7.0;"/><polygon fill="#181818" points="1323.33,157.8784,1314.33,153.8784,1318.33,157.8784,1314.33,161.8784,1323.33,157.8784" style="stroke:#181818;stroke-width:1.0;"/></g><!--link ListVehiclesNeedingCheckUpController to VehicleRepository--><g id="link_ListVehiclesNeedingCheckUpController_VehicleRepository"><path codeLine="87" d="M1051.14,200.5184 C993.87,240.0184 916.5,293.3784 916.5,293.3784 C916.5,293.3784 774.5,372.3784 774.5,372.3784 C774.5,372.3784 703.8527,440.707 654.0727,488.857 " fill="none" id="ListVehiclesNeedingCheckUpController-to-VehicleRepository" style="stroke:#181818;stroke-width:1.0;stroke-dasharray:7.0,7.0;"/><polygon fill="#181818" points="649.76,493.0284,659.01,489.6464,653.3539,489.5522,653.448,483.8962,649.76,493.0284" style="stroke:#181818;stroke-width:1.0;"/></g><!--link ListVehiclesNeedingCheckUpController to Vehicle--><g id="link_ListVehiclesNeedingCheckUpController_Vehicle"><path codeLine="88" d="M1117.93,200.5584 C1124.36,242.2384 1133.7447,303.0987 1143.4647,366.0687 " fill="none" id="ListVehiclesNeedingCheckUpController-to-Vehicle" style="stroke:#181818;stroke-width:1.0;stroke-dasharray:7.0,7.0;"/><polygon fill="#181818" points="1144.38,371.9984,1146.9602,362.4936,1143.6172,367.057,1139.0538,363.714,1144.38,371.9984" style="stroke:#181818;stroke-width:1.0;"/></g><!--link ListVehiclesNeedingCheckUpController to CheckUp--><g id="link_ListVehiclesNeedingCheckUpController_CheckUp"><path codeLine="89" d="M1154.61,200.5184 C1210.67,254.6584 1301.5,342.3784 1301.5,342.3784 C1301.5,342.3784 1564.5,372.3784 1564.5,372.3784 C1564.5,372.3784 1605.2899,416.57 1645.9499,460.61 " fill="none" id="ListVehiclesNeedingCheckUpController-to-CheckUp" style="stroke:#181818;stroke-width:1.0;stroke-dasharray:7.0,7.0;"/><polygon fill="#181818" points="1650.02,465.0184,1646.8538,455.6924,1646.6283,461.3447,1640.9759,461.1192,1650.02,465.0184" style="stroke:#181818;stroke-width:1.0;"/></g><!--link Repositories to Repositories--><g id="link_Repositories_Repositories"><path codeLine="92" d="M1517.78,126.3984 C1537.98,129.7184 1552.5,140.2084 1552.5,157.8784 C1552.5,175.5484 1543.9006,185.0653 1523.7006,188.3853 " fill="none" id="Repositories-to-Repositories" style="stroke:#181818;stroke-width:1.0;"/><polygon fill="#181818" points="1517.78,189.3584,1527.3096,191.8459,1522.7138,188.5475,1526.0121,183.9518,1517.78,189.3584" style="stroke:#181818;stroke-width:1.0;"/><text fill="#000000" font-family="sans-serif" font-size="13" lengthAdjust="spacing" textLength="49" x="1558.5" y="163.4068">instance</text></g><!--link Repositories to VehicleRepository--><g id="link_Repositories_VehicleRepository"><path codeLine="93" d="M1377.08,210.1084 C1344.86,248.1184 1306.5,293.3784 1306.5,293.3784 C1306.5,293.3784 774.5,372.3784 774.5,372.3784 C774.5,372.3784 703.8527,440.707 654.0727,488.857 " fill="none" id="Repositories-to-VehicleRepository" style="stroke:#181818;stroke-width:1.0;"/><polygon fill="#181818" points="649.76,493.0284,659.01,489.6464,653.3539,489.5522,653.448,483.8962,649.76,493.0284" style="stroke:#181818;stroke-width:1.0;"/><text fill="#000000" font-family="sans-serif" font-size="13" lengthAdjust="spacing" textLength="101" x="1105.5" y="338.4068">vehicleRepository</text></g><!--link VehicleRepository to Vehicle--><g id="link_VehicleRepository_Vehicle"><path codeLine="95" d="M716.72,535.8784 C739.69,535.8784 759.12,535.8784 785.85,535.8784 " fill="none" id="VehicleRepository-to-Vehicle" style="stroke:#181818;stroke-width:1.0;"/><polygon fill="#181818" points="791.85,535.8784,782.85,531.8784,786.85,535.8784,782.85,539.8784,791.85,535.8784" style="stroke:#181818;stroke-width:1.0;"/><text fill="#000000" font-family="sans-serif" font-size="13" lengthAdjust="spacing" textLength="39" x="734.75" y="528.9068">vehicle</text></g><!--link Vehicle to CheckUp--><g id="link_Vehicle_CheckUp"><path codeLine="97" d="M1547.28,535.8784 C1582.47,535.8784 1608.89,535.8784 1635.63,535.8784 " fill="none" id="Vehicle-to-CheckUp" style="stroke:#181818;stroke-width:1.0;"/><polygon fill="#181818" points="1641.63,535.8784,1632.63,531.8784,1636.63,535.8784,1632.63,539.8784,1641.63,535.8784" style="stroke:#181818;stroke-width:1.0;"/><text fill="#000000" font-family="sans-serif" font-size="13" lengthAdjust="spacing" textLength="58" x="1565.5" y="528.9068">checkUps</text><text fill="#000000" font-family="sans-serif" font-size="13" lengthAdjust="spacing" textLength="7" x="1555.0248" y="532.7338">1</text><text fill="#000000" font-family="sans-serif" font-size="13" lengthAdjust="spacing" textLength="5" x="1628.8575" y="532.0398">*</text></g><!--link VehicleFleetManager to CheckUp--><g id="link_VehicleFleetManager_CheckUp"><path codeLine="99" d="M1714.5,182.1184 C1714.5,237.5084 1714.5,373.1384 1714.5,459.1484 " fill="none" id="VehicleFleetManager-to-CheckUp" style="stroke:#181818;stroke-width:1.0;"/><polygon fill="#181818" points="1714.5,465.1484,1718.5,456.1484,1714.5,460.1484,1710.5,456.1484,1714.5,465.1484" style="stroke:#181818;stroke-width:1.0;"/><text fill="#000000" font-family="sans-serif" font-size="13" lengthAdjust="spacing" textLength="28" x="1715.5" y="338.4068">does</text></g><!--SRC=[bLLDSzCm4BtxLsXwgKDb1gwTJcQQTZfJe8KX5CwAl8b5PCcLv8A1_dSaovQb97H23lxOVRlxzkrQETLR9XgYI8rgAIIjbAm16TL2DdaQGhTa0qlJSK0Ag25YmsE0haWfVp2nGMl2TUpXJ83f6a2Dv9rxoKuFEAKoCekYA2TQNngZsAerS4kbMB9VWDvasIc7jK568iKsbK4bStIO55dMnw1hITiQXFcT8Vih9VrYy_VFegrNeBBd0NWbEIShgOYH2dbqiRG5RG-2r3wa-C2qkLXk6UTpfDtD6RphdLoXxtBbNww90LJQoyVrWYbJHLPIranhoz2z9MMQIWguzwnYEzI4SMzXmlPAVZQa6p5ZVwwr_i6RBqi5jYdItthJMT9Xxdh2tet7K1mnnYbH7973dX4EJ6Q-G13aiYppNgIPLNSSn5Ue6ELmmm7C7H5sVPpCpplkKNcN1brSLK2t3yqSKV-W9xaNYeWIhTpL6-va2TpkhBqcwfbntiMQI-BaKydxHacjlu7RdabZsYfb1NbVHuDJiB7LGKrpy_EaZotJp2GJxNCupcrpe-2n1K6xX1Ld58I6Jzo53FCP9CZxfd3V2NRiiQEC8vuuqCCnARn31Uyom77LsRWLNjf5DvPtIu3HjjOUKQ0dxnY0-J2Bu2MSsH1RS_A4gGunEzzJqdpwlKpoMGAZC4FU0ynUgZtqynaQQJMHgXjP8BzSWty-zXTswmnjm0pUHTUpp5FbGesGd84EwMDZFfjItWfj3qeA-GoT9w2zgXFdF2hc20u0VGzGMYa7VQ-aCCf-tJ2UN6T7WGCv_azmqZX6qGIEeFLmwx_mv6Yz-5CSEWjIqCdR4rGKy_uUJhXpL16x4o_MUpq_glENiaHYscp9d8uBib5xS_plqEC31gizQ9DjB5BkLZqsxDyEhZX0rwAVzbh8zc5Jx1GHS7wATeYlJi91S1wEyW1B_X4ScmbRIYlwNm00]--></g></svg>