<?xml version="1.0" encoding="UTF-8" standalone="no"?><svg xmlns="http://www.w3.org/2000/svg" xmlns:xlink="http://www.w3.org/1999/xlink" contentStyleType="text/css" height="646px" preserveAspectRatio="none" style="width:1727px;height:646px;background:#FFFFFF;" version="1.1" viewBox="0 0 1727 646" width="1727px" zoomAndPan="magnify"><defs/><g><!--MD5=[f483d6e5de34a60207b28a5563be5e8b]
class Collaborator--><g id="elem_Collaborator"><rect codeLine="12" fill="#F1F1F1" height="241.7031" id="Collaborator" rx="2.5" ry="2.5" style="stroke:#181818;stroke-width:0.5;" width="628" x="891" y="7"/><ellipse cx="1161.75" cy="23" fill="#ADD1B2" rx="11" ry="11" style="stroke:#181818;stroke-width:1.0;"/><path d="M1163.75,19.5 Q1163.9531,19 1164.1875,18.75 Q1164.4219,18.5 1164.6875,18.5 Q1165.1563,18.5 1165.4531,18.7813 Q1165.75,19.0625 1165.75,19.7188 L1165.75,21.2813 Q1165.75,21.9375 1165.4688,22.2188 Q1165.1875,22.5 1164.75,22.5 Q1164.3594,22.5 1164.1094,22.3281 Q1163.8594,22.1563 1163.75,21.7031 Q1163.7031,21.3906 1163.5313,21.2188 Q1163.2188,20.8906 1162.6563,20.7031 Q1162.0938,20.5 1161.5313,20.5 Q1160.8281,20.5 1160.2344,20.7813 Q1159.6563,21.0625 1159.2031,21.6875 Q1158.75,22.3125 1158.75,23.1719 L1158.75,24.0938 Q1158.75,25.125 1159.5938,25.8125 Q1160.4375,26.5 1161.9375,26.5 Q1162.8281,26.5 1163.4531,26.2969 Q1163.8125,26.1875 1164.2188,25.8281 Q1164.4844,25.625 1164.625,25.5625 Q1164.7656,25.5 1164.9375,25.5 Q1165.2656,25.5 1165.5,25.7656 Q1165.75,26.0156 1165.75,26.375 Q1165.75,26.7188 1165.4063,27.125 Q1164.9063,27.7188 1164.1094,28.0469 Q1163.0625,28.5 1161.7813,28.5 Q1160.2813,28.5 1159.0781,27.9063 Q1158.1094,27.4375 1157.4219,26.4219 Q1156.75,25.4063 1156.75,24.2031 L1156.75,23.1094 Q1156.75,21.8594 1157.3438,20.7656 Q1157.9531,19.6719 1159,19.0938 Q1160.0625,18.5 1161.25,18.5 Q1161.9688,18.5 1162.5938,18.75 Q1163.2188,19 1163.75,19.5 Z " fill="#000000"/><text fill="#000000" font-family="sans-serif" font-size="14" lengthAdjust="spacing" textLength="78" x="1182.25" y="28.7285">Collaborator</text><line style="stroke:#181818;stroke-width:0.5;" x1="892" x2="1518" y1="39" y2="39"/><text fill="#000000" font-family="sans-serif" font-size="14" lengthAdjust="spacing" textLength="81" x="897" y="57.5332">-String name</text><text fill="#000000" font-family="sans-serif" font-size="14" lengthAdjust="spacing" textLength="95" x="897" y="75.1426">-List&lt;Skill&gt; skill</text><text fill="#000000" font-family="sans-serif" font-size="14" lengthAdjust="spacing" textLength="50" x="897" y="92.752">-Job job</text><text fill="#000000" font-family="sans-serif" font-size="14" lengthAdjust="spacing" textLength="111" x="897" y="110.3613">-Date dateOfBirth</text><text fill="#000000" font-family="sans-serif" font-size="14" lengthAdjust="spacing" textLength="132" x="897" y="127.9707">-Date admissionDate</text><text fill="#000000" font-family="sans-serif" font-size="14" lengthAdjust="spacing" textLength="112" x="897" y="145.5801">-Address address</text><text fill="#000000" font-family="sans-serif" font-size="14" lengthAdjust="spacing" textLength="113" x="897" y="163.1895">-int phoneNumber</text><text fill="#000000" font-family="sans-serif" font-size="14" lengthAdjust="spacing" textLength="79" x="897" y="180.7988">-String email</text><text fill="#000000" font-family="sans-serif" font-size="14" lengthAdjust="spacing" textLength="38" x="897" y="198.4082">-int cc</text><text fill="#000000" font-family="sans-serif" font-size="14" lengthAdjust="spacing" textLength="101" x="897" y="216.0176">-int cardNumber</text><line style="stroke:#181818;stroke-width:0.5;" x1="892" x2="1518" y1="223.0938" y2="223.0938"/><text fill="#000000" font-family="sans-serif" font-size="14" lengthAdjust="spacing" textLength="616" x="897" y="241.627">+Collaborator(name, dateOfBirth, admissionDate, address, phoneNumber, email, cc, cardNumber)</text></g><!--MD5=[be4bfa4b0fbe7a929bf3cce18a4ae18e]
class VehicleFleetManager--><g id="elem_VehicleFleetManager"><rect codeLine="27" fill="#F1F1F1" height="48" id="VehicleFleetManager" rx="2.5" ry="2.5" style="stroke:#181818;stroke-width:0.5;" width="166" x="1554" y="104"/><ellipse cx="1569" cy="120" fill="#ADD1B2" rx="11" ry="11" style="stroke:#181818;stroke-width:1.0;"/><path d="M1571,116.5 Q1571.2031,116 1571.4375,115.75 Q1571.6719,115.5 1571.9375,115.5 Q1572.4063,115.5 1572.7031,115.7813 Q1573,116.0625 1573,116.7188 L1573,118.2813 Q1573,118.9375 1572.7188,119.2188 Q1572.4375,119.5 1572,119.5 Q1571.6094,119.5 1571.3594,119.3281 Q1571.1094,119.1563 1571,118.7031 Q1570.9531,118.3906 1570.7813,118.2188 Q1570.4688,117.8906 1569.9063,117.7031 Q1569.3438,117.5 1568.7813,117.5 Q1568.0781,117.5 1567.4844,117.7813 Q1566.9063,118.0625 1566.4531,118.6875 Q1566,119.3125 1566,120.1719 L1566,121.0938 Q1566,122.125 1566.8438,122.8125 Q1567.6875,123.5 1569.1875,123.5 Q1570.0781,123.5 1570.7031,123.2969 Q1571.0625,123.1875 1571.4688,122.8281 Q1571.7344,122.625 1571.875,122.5625 Q1572.0156,122.5 1572.1875,122.5 Q1572.5156,122.5 1572.75,122.7656 Q1573,123.0156 1573,123.375 Q1573,123.7188 1572.6563,124.125 Q1572.1563,124.7188 1571.3594,125.0469 Q1570.3125,125.5 1569.0313,125.5 Q1567.5313,125.5 1566.3281,124.9063 Q1565.3594,124.4375 1564.6719,123.4219 Q1564,122.4063 1564,121.2031 L1564,120.1094 Q1564,118.8594 1564.5938,117.7656 Q1565.2031,116.6719 1566.25,116.0938 Q1567.3125,115.5 1568.5,115.5 Q1569.2188,115.5 1569.8438,115.75 Q1570.4688,116 1571,116.5 Z " fill="#000000"/><text fill="#000000" font-family="sans-serif" font-size="14" lengthAdjust="spacing" textLength="134" x="1583" y="125.7285">VehicleFleetManager</text><line style="stroke:#181818;stroke-width:0.5;" x1="1555" x2="1719" y1="136" y2="136"/><line style="stroke:#181818;stroke-width:0.5;" x1="1555" x2="1719" y1="144" y2="144"/></g><!--MD5=[3aa0d89c6bfdcbf7f32042cedac57549]
class Vehicle--><g id="elem_Vehicle"><rect codeLine="30" fill="#F1F1F1" height="312.1406" id="Vehicle" rx="2.5" ry="2.5" style="stroke:#181818;stroke-width:0.5;" width="755" x="594.5" y="327"/><ellipse cx="944.75" cy="343" fill="#ADD1B2" rx="11" ry="11" style="stroke:#181818;stroke-width:1.0;"/><path d="M946.75,339.5 Q946.9531,339 947.1875,338.75 Q947.4219,338.5 947.6875,338.5 Q948.1563,338.5 948.4531,338.7813 Q948.75,339.0625 948.75,339.7188 L948.75,341.2813 Q948.75,341.9375 948.4688,342.2188 Q948.1875,342.5 947.75,342.5 Q947.3594,342.5 947.1094,342.3281 Q946.8594,342.1563 946.75,341.7031 Q946.7031,341.3906 946.5313,341.2188 Q946.2188,340.8906 945.6563,340.7031 Q945.0938,340.5 944.5313,340.5 Q943.8281,340.5 943.2344,340.7813 Q942.6563,341.0625 942.2031,341.6875 Q941.75,342.3125 941.75,343.1719 L941.75,344.0938 Q941.75,345.125 942.5938,345.8125 Q943.4375,346.5 944.9375,346.5 Q945.8281,346.5 946.4531,346.2969 Q946.8125,346.1875 947.2188,345.8281 Q947.4844,345.625 947.625,345.5625 Q947.7656,345.5 947.9375,345.5 Q948.2656,345.5 948.5,345.7656 Q948.75,346.0156 948.75,346.375 Q948.75,346.7188 948.4063,347.125 Q947.9063,347.7188 947.1094,348.0469 Q946.0625,348.5 944.7813,348.5 Q943.2813,348.5 942.0781,347.9063 Q941.1094,347.4375 940.4219,346.4219 Q939.75,345.4063 939.75,344.2031 L939.75,343.1094 Q939.75,341.8594 940.3438,340.7656 Q940.9531,339.6719 942,339.0938 Q943.0625,338.5 944.25,338.5 Q944.9688,338.5 945.5938,338.75 Q946.2188,339 946.75,339.5 Z " fill="#000000"/><text fill="#000000" font-family="sans-serif" font-size="14" lengthAdjust="spacing" textLength="46" x="965.25" y="348.7285">Vehicle</text><line style="stroke:#181818;stroke-width:0.5;" x1="595.5" x2="1348.5" y1="359" y2="359"/><text fill="#000000" font-family="sans-serif" font-size="14" lengthAdjust="spacing" textLength="191" x="600.5" y="377.5332">-List &lt;CheckUp&gt; checkUpsList</text><text fill="#000000" font-family="sans-serif" font-size="14" lengthAdjust="spacing" textLength="84" x="600.5" y="395.1426">-Brand brand</text><text fill="#000000" font-family="sans-serif" font-size="14" lengthAdjust="spacing" textLength="85" x="600.5" y="412.752">-Model model</text><text fill="#000000" font-family="sans-serif" font-size="14" lengthAdjust="spacing" textLength="73" x="600.5" y="430.3613">-String type</text><text fill="#000000" font-family="sans-serif" font-size="14" lengthAdjust="spacing" textLength="61" x="600.5" y="447.9707">-float tare</text><text fill="#000000" font-family="sans-serif" font-size="14" lengthAdjust="spacing" textLength="115" x="600.5" y="465.5801">-float grossWeight</text><text fill="#000000" font-family="sans-serif" font-size="14" lengthAdjust="spacing" textLength="89" x="600.5" y="483.1895">-int currentKm</text><text fill="#000000" font-family="sans-serif" font-size="14" lengthAdjust="spacing" textLength="117" x="600.5" y="500.7988">-Date registerDate</text><text fill="#000000" font-family="sans-serif" font-size="14" lengthAdjust="spacing" textLength="136" x="600.5" y="518.4082">-Date acquisitionDate</text><text fill="#000000" font-family="sans-serif" font-size="14" lengthAdjust="spacing" textLength="145" x="600.5" y="536.0176">-int checkupFrequency</text><text fill="#000000" font-family="sans-serif" font-size="14" lengthAdjust="spacing" textLength="122" x="600.5" y="553.627">-String licensePlate</text><line style="stroke:#181818;stroke-width:0.5;" x1="595.5" x2="1348.5" y1="560.7031" y2="560.7031"/><text fill="#000000" font-family="sans-serif" font-size="14" lengthAdjust="spacing" textLength="743" x="600.5" y="579.2363">+Vehicle(brand,model,type,tare,grossWeight,currentKm,registerDate,acquisitionDate,checkupFrequency,licensePlate)</text><text fill="#000000" font-family="sans-serif" font-size="14" lengthAdjust="spacing" textLength="198" x="600.5" y="596.8457">+CheckUpByVehicle(date, kms)</text><text fill="#000000" font-family="sans-serif" font-size="14" lengthAdjust="spacing" textLength="170" x="600.5" y="614.4551">-vehicleCheckUp(checkUp)</text><text fill="#000000" font-family="sans-serif" font-size="14" lengthAdjust="spacing" textLength="129" x="600.5" y="632.0645">-validation(checkUp)</text></g><!--MD5=[718766fa6104d7616cd6c26a3d35ce0a]
class CheckUp--><g id="elem_CheckUp"><rect codeLine="49" fill="#F1F1F1" height="136.0469" id="CheckUp" rx="2.5" ry="2.5" style="stroke:#181818;stroke-width:0.5;" width="145" x="1444.5" y="415"/><ellipse cx="1484.7" cy="431" fill="#ADD1B2" rx="11" ry="11" style="stroke:#181818;stroke-width:1.0;"/><path d="M1486.7,427.5 Q1486.9031,427 1487.1375,426.75 Q1487.3719,426.5 1487.6375,426.5 Q1488.1063,426.5 1488.4031,426.7813 Q1488.7,427.0625 1488.7,427.7188 L1488.7,429.2813 Q1488.7,429.9375 1488.4188,430.2188 Q1488.1375,430.5 1487.7,430.5 Q1487.3094,430.5 1487.0594,430.3281 Q1486.8094,430.1563 1486.7,429.7031 Q1486.6531,429.3906 1486.4813,429.2188 Q1486.1688,428.8906 1485.6063,428.7031 Q1485.0438,428.5 1484.4813,428.5 Q1483.7781,428.5 1483.1844,428.7813 Q1482.6063,429.0625 1482.1531,429.6875 Q1481.7,430.3125 1481.7,431.1719 L1481.7,432.0938 Q1481.7,433.125 1482.5438,433.8125 Q1483.3875,434.5 1484.8875,434.5 Q1485.7781,434.5 1486.4031,434.2969 Q1486.7625,434.1875 1487.1688,433.8281 Q1487.4344,433.625 1487.575,433.5625 Q1487.7156,433.5 1487.8875,433.5 Q1488.2156,433.5 1488.45,433.7656 Q1488.7,434.0156 1488.7,434.375 Q1488.7,434.7188 1488.3563,435.125 Q1487.8563,435.7188 1487.0594,436.0469 Q1486.0125,436.5 1484.7313,436.5 Q1483.2313,436.5 1482.0281,435.9063 Q1481.0594,435.4375 1480.3719,434.4219 Q1479.7,433.4063 1479.7,432.2031 L1479.7,431.1094 Q1479.7,429.8594 1480.2938,428.7656 Q1480.9031,427.6719 1481.95,427.0938 Q1483.0125,426.5 1484.2,426.5 Q1484.9188,426.5 1485.5438,426.75 Q1486.1688,427 1486.7,427.5 Z " fill="#000000"/><text fill="#000000" font-family="sans-serif" font-size="14" lengthAdjust="spacing" textLength="57" x="1504.3" y="436.7285">CheckUp</text><line style="stroke:#181818;stroke-width:0.5;" x1="1445.5" x2="1588.5" y1="447" y2="447"/><text fill="#000000" font-family="sans-serif" font-size="14" lengthAdjust="spacing" textLength="122" x="1450.5" y="465.5332">-String licensePlate</text><text fill="#000000" font-family="sans-serif" font-size="14" lengthAdjust="spacing" textLength="67" x="1450.5" y="483.1426">-Date date</text><text fill="#000000" font-family="sans-serif" font-size="14" lengthAdjust="spacing" textLength="49" x="1450.5" y="500.752">-int kms</text><line style="stroke:#181818;stroke-width:0.5;" x1="1445.5" x2="1588.5" y1="507.8281" y2="507.8281"/><text fill="#000000" font-family="sans-serif" font-size="14" lengthAdjust="spacing" textLength="133" x="1450.5" y="526.3613">+checkUp(date, kms)</text><text fill="#000000" font-family="sans-serif" font-size="14" lengthAdjust="spacing" textLength="129" x="1450.5" y="543.9707">-validation(checkUp)</text></g><!--MD5=[718a3e69214afb15d2ac53cb830c52b8]
class VehicleRepository--><g id="elem_VehicleRepository"><rect codeLine="58" fill="#F1F1F1" height="83.2188" id="VehicleRepository" rx="2.5" ry="2.5" style="stroke:#181818;stroke-width:0.5;" width="220" x="299" y="441.5"/><ellipse cx="347.75" cy="457.5" fill="#ADD1B2" rx="11" ry="11" style="stroke:#181818;stroke-width:1.0;"/><path d="M349.75,454 Q349.9531,453.5 350.1875,453.25 Q350.4219,453 350.6875,453 Q351.1563,453 351.4531,453.2813 Q351.75,453.5625 351.75,454.2188 L351.75,455.7813 Q351.75,456.4375 351.4688,456.7188 Q351.1875,457 350.75,457 Q350.3594,457 350.1094,456.8281 Q349.8594,456.6563 349.75,456.2031 Q349.7031,455.8906 349.5313,455.7188 Q349.2188,455.3906 348.6563,455.2031 Q348.0938,455 347.5313,455 Q346.8281,455 346.2344,455.2813 Q345.6563,455.5625 345.2031,456.1875 Q344.75,456.8125 344.75,457.6719 L344.75,458.5938 Q344.75,459.625 345.5938,460.3125 Q346.4375,461 347.9375,461 Q348.8281,461 349.4531,460.7969 Q349.8125,460.6875 350.2188,460.3281 Q350.4844,460.125 350.625,460.0625 Q350.7656,460 350.9375,460 Q351.2656,460 351.5,460.2656 Q351.75,460.5156 351.75,460.875 Q351.75,461.2188 351.4063,461.625 Q350.9063,462.2188 350.1094,462.5469 Q349.0625,463 347.7813,463 Q346.2813,463 345.0781,462.4063 Q344.1094,461.9375 343.4219,460.9219 Q342.75,459.9063 342.75,458.7031 L342.75,457.6094 Q342.75,456.3594 343.3438,455.2656 Q343.9531,454.1719 345,453.5938 Q346.0625,453 347.25,453 Q347.9688,453 348.5938,453.25 Q349.2188,453.5 349.75,454 Z " fill="#000000"/><text fill="#000000" font-family="sans-serif" font-size="14" lengthAdjust="spacing" textLength="114" x="368.25" y="463.2285">VehicleRepository</text><line style="stroke:#181818;stroke-width:0.5;" x1="300" x2="518" y1="473.5" y2="473.5"/><text fill="#000000" font-family="sans-serif" font-size="14" lengthAdjust="spacing" textLength="163" x="305" y="492.0332">-List &lt;Vehicle&gt; vehicleList</text><line style="stroke:#181818;stroke-width:0.5;" x1="300" x2="518" y1="499.1094" y2="499.1094"/><text fill="#000000" font-family="sans-serif" font-size="14" lengthAdjust="spacing" textLength="208" x="305" y="517.6426">+getVehicleByPlate(licensePlate)</text></g><!--MD5=[35ae6afabc28cfceb76ccc01ee55d1fe]
class Repositories--><g id="elem_Repositories"><rect codeLine="63" fill="#F1F1F1" height="100.8281" id="Repositories" rx="2.5" ry="2.5" style="stroke:#181818;stroke-width:0.5;" width="194" x="583" y="77.5"/><ellipse cx="636.25" cy="93.5" fill="#ADD1B2" rx="11" ry="11" style="stroke:#181818;stroke-width:1.0;"/><path d="M638.25,90 Q638.4531,89.5 638.6875,89.25 Q638.9219,89 639.1875,89 Q639.6563,89 639.9531,89.2813 Q640.25,89.5625 640.25,90.2188 L640.25,91.7813 Q640.25,92.4375 639.9688,92.7188 Q639.6875,93 639.25,93 Q638.8594,93 638.6094,92.8281 Q638.3594,92.6563 638.25,92.2031 Q638.2031,91.8906 638.0313,91.7188 Q637.7188,91.3906 637.1563,91.2031 Q636.5938,91 636.0313,91 Q635.3281,91 634.7344,91.2813 Q634.1563,91.5625 633.7031,92.1875 Q633.25,92.8125 633.25,93.6719 L633.25,94.5938 Q633.25,95.625 634.0938,96.3125 Q634.9375,97 636.4375,97 Q637.3281,97 637.9531,96.7969 Q638.3125,96.6875 638.7188,96.3281 Q638.9844,96.125 639.125,96.0625 Q639.2656,96 639.4375,96 Q639.7656,96 640,96.2656 Q640.25,96.5156 640.25,96.875 Q640.25,97.2188 639.9063,97.625 Q639.4063,98.2188 638.6094,98.5469 Q637.5625,99 636.2813,99 Q634.7813,99 633.5781,98.4063 Q632.6094,97.9375 631.9219,96.9219 Q631.25,95.9063 631.25,94.7031 L631.25,93.6094 Q631.25,92.3594 631.8438,91.2656 Q632.4531,90.1719 633.5,89.5938 Q634.5625,89 635.75,89 Q636.4688,89 637.0938,89.25 Q637.7188,89.5 638.25,90 Z " fill="#000000"/><text fill="#000000" font-family="sans-serif" font-size="14" lengthAdjust="spacing" textLength="79" x="656.75" y="99.2285">Repositories</text><line style="stroke:#181818;stroke-width:0.5;" x1="584" x2="776" y1="109.5" y2="109.5"/><line style="stroke:#181818;stroke-width:0.5;" x1="584" x2="776" y1="117.5" y2="117.5"/><text fill="#000000" font-family="sans-serif" font-size="14" lengthAdjust="spacing" textLength="94" x="589" y="136.0332">-Repositories()</text><text fill="#000000" font-family="sans-serif" font-size="14" lengthAdjust="spacing" textLength="182" x="589" y="153.6426">+getInstance() : Repositories</text><text fill="#000000" font-family="sans-serif" font-size="14" lengthAdjust="spacing" textLength="152" x="589" y="171.252">+getVehicleRepository()</text></g><!--MD5=[ea7e457a300594441d7353a486dd39cf]
class ListVehiclesNeedingCheckUpController--><g id="elem_ListVehiclesNeedingCheckUpController"><rect codeLine="69" fill="#F1F1F1" height="83.2188" id="ListVehiclesNeedingCheckUpController" rx="2.5" ry="2.5" style="stroke:#181818;stroke-width:0.5;" width="278" x="270" y="86.5"/><ellipse cx="285" cy="102.5" fill="#ADD1B2" rx="11" ry="11" style="stroke:#181818;stroke-width:1.0;"/><path d="M287,99 Q287.2031,98.5 287.4375,98.25 Q287.6719,98 287.9375,98 Q288.4063,98 288.7031,98.2813 Q289,98.5625 289,99.2188 L289,100.7813 Q289,101.4375 288.7188,101.7188 Q288.4375,102 288,102 Q287.6094,102 287.3594,101.8281 Q287.1094,101.6563 287,101.2031 Q286.9531,100.8906 286.7813,100.7188 Q286.4688,100.3906 285.9063,100.2031 Q285.3438,100 284.7813,100 Q284.0781,100 283.4844,100.2813 Q282.9063,100.5625 282.4531,101.1875 Q282,101.8125 282,102.6719 L282,103.5938 Q282,104.625 282.8438,105.3125 Q283.6875,106 285.1875,106 Q286.0781,106 286.7031,105.7969 Q287.0625,105.6875 287.4688,105.3281 Q287.7344,105.125 287.875,105.0625 Q288.0156,105 288.1875,105 Q288.5156,105 288.75,105.2656 Q289,105.5156 289,105.875 Q289,106.2188 288.6563,106.625 Q288.1563,107.2188 287.3594,107.5469 Q286.3125,108 285.0313,108 Q283.5313,108 282.3281,107.4063 Q281.3594,106.9375 280.6719,105.9219 Q280,104.9063 280,103.7031 L280,102.6094 Q280,101.3594 280.5938,100.2656 Q281.2031,99.1719 282.25,98.5938 Q283.3125,98 284.5,98 Q285.2188,98 285.8438,98.25 Q286.4688,98.5 287,99 Z " fill="#000000"/><text fill="#000000" font-family="sans-serif" font-size="14" lengthAdjust="spacing" textLength="246" x="299" y="108.2285">ListVehiclesNeedingCheckUpController</text><line style="stroke:#181818;stroke-width:0.5;" x1="271" x2="547" y1="118.5" y2="118.5"/><line style="stroke:#181818;stroke-width:0.5;" x1="271" x2="547" y1="126.5" y2="126.5"/><text fill="#000000" font-family="sans-serif" font-size="14" lengthAdjust="spacing" textLength="264" x="276" y="145.0332">+ListVehiclesNeedingCheckUpController()</text><text fill="#000000" font-family="sans-serif" font-size="14" lengthAdjust="spacing" textLength="264" x="276" y="162.6426">+vehicleCheckUp(licensePlate, date, kms)</text></g><!--MD5=[301ec82c6db151c06bf6136dc295ad5b]
class ListVehiclesNeedingCheckUpUI--><g id="elem_ListVehiclesNeedingCheckUpUI"><rect codeLine="74" fill="#F1F1F1" height="48" id="ListVehiclesNeedingCheckUpUI" rx="2.5" ry="2.5" style="stroke:#181818;stroke-width:0.5;" width="228" x="7" y="104"/><ellipse cx="22" cy="120" fill="#ADD1B2" rx="11" ry="11" style="stroke:#181818;stroke-width:1.0;"/><path d="M24,116.5 Q24.2031,116 24.4375,115.75 Q24.6719,115.5 24.9375,115.5 Q25.4063,115.5 25.7031,115.7813 Q26,116.0625 26,116.7188 L26,118.2813 Q26,118.9375 25.7188,119.2188 Q25.4375,119.5 25,119.5 Q24.6094,119.5 24.3594,119.3281 Q24.1094,119.1563 24,118.7031 Q23.9531,118.3906 23.7813,118.2188 Q23.4688,117.8906 22.9063,117.7031 Q22.3438,117.5 21.7813,117.5 Q21.0781,117.5 20.4844,117.7813 Q19.9063,118.0625 19.4531,118.6875 Q19,119.3125 19,120.1719 L19,121.0938 Q19,122.125 19.8438,122.8125 Q20.6875,123.5 22.1875,123.5 Q23.0781,123.5 23.7031,123.2969 Q24.0625,123.1875 24.4688,122.8281 Q24.7344,122.625 24.875,122.5625 Q25.0156,122.5 25.1875,122.5 Q25.5156,122.5 25.75,122.7656 Q26,123.0156 26,123.375 Q26,123.7188 25.6563,124.125 Q25.1563,124.7188 24.3594,125.0469 Q23.3125,125.5 22.0313,125.5 Q20.5313,125.5 19.3281,124.9063 Q18.3594,124.4375 17.6719,123.4219 Q17,122.4063 17,121.2031 L17,120.1094 Q17,118.8594 17.5938,117.7656 Q18.2031,116.6719 19.25,116.0938 Q20.3125,115.5 21.5,115.5 Q22.2188,115.5 22.8438,115.75 Q23.4688,116 24,116.5 Z " fill="#000000"/><text fill="#000000" font-family="sans-serif" font-size="14" lengthAdjust="spacing" textLength="196" x="36" y="125.7285">ListVehiclesNeedingCheckUpUI</text><line style="stroke:#181818;stroke-width:0.5;" x1="8" x2="234" y1="136" y2="136"/><line style="stroke:#181818;stroke-width:0.5;" x1="8" x2="234" y1="144" y2="144"/></g><!--MD5=[394877cc495fd3ea5d2aba0ed5587f96]
reverse link Collaborator to VehicleFleetManager--><g id="link_Collaborator_VehicleFleetManager"><path codeLine="77" d="M1539.09,128 C1543.85,128 1548.79,128 1553.79,128 " fill="none" id="Collaborator-backto-VehicleFleetManager" style="stroke:#181818;stroke-width:1.0;"/><polygon fill="none" points="1539.08,135,1519.08,128,1539.08,121,1539.08,135" style="stroke:#181818;stroke-width:1.0;"/></g><!--MD5=[b10c042fd3b0434e9d1043ddf8547b6a]
link ListVehiclesNeedingCheckUpUI to ListVehiclesNeedingCheckUpController--><g id="link_ListVehiclesNeedingCheckUpUI_ListVehiclesNeedingCheckUpController"><path codeLine="79" d="M235.06,128 C243.55,128 254.13,128 264.73,128 " fill="none" id="ListVehiclesNeedingCheckUpUI-to-ListVehiclesNeedingCheckUpController" style="stroke:#181818;stroke-width:1.0;stroke-dasharray:7.0,7.0;"/><polygon fill="#181818" points="269.92,128,260.92,124,264.92,128,260.92,132,269.92,128" style="stroke:#181818;stroke-width:1.0;"/></g><!--MD5=[7cf9a35d932357438230dd2a51e08a84]
link ListVehiclesNeedingCheckUpController to Repositories--><g id="link_ListVehiclesNeedingCheckUpController_Repositories"><path codeLine="81" d="M548.2,128 C559.07,128 569.65,128 577.4,128 " fill="none" id="ListVehiclesNeedingCheckUpController-to-Repositories" style="stroke:#181818;stroke-width:1.0;stroke-dasharray:7.0,7.0;"/><polygon fill="#181818" points="582.73,128,573.73,124,577.73,128,573.73,132,582.73,128" style="stroke:#181818;stroke-width:1.0;"/></g><!--MD5=[31161566874163344091c4b5a445d2a7]
link ListVehiclesNeedingCheckUpController to VehicleRepository--><g id="link_ListVehiclesNeedingCheckUpController_VehicleRepository"><path codeLine="82" d="M409,169.84 C409,236.08 409,366.51 409,435.96 " fill="none" id="ListVehiclesNeedingCheckUpController-to-VehicleRepository" style="stroke:#181818;stroke-width:1.0;stroke-dasharray:7.0,7.0;"/><polygon fill="#181818" points="409,441.26,413,432.26,409,436.26,405,432.26,409,441.26" style="stroke:#181818;stroke-width:1.0;"/></g><!--MD5=[c980b8968b2bbba82ac7b4670117fc84]
link ListVehiclesNeedingCheckUpController to Vehicle--><g id="link_ListVehiclesNeedingCheckUpController_Vehicle"><path codeLine="83" d="M434.66,169.67 C466.03,219.39 515,297 515,297 C515,297 545.03,309.16 589.69,327.24 " fill="none" id="ListVehiclesNeedingCheckUpController-to-Vehicle" style="stroke:#181818;stroke-width:1.0;stroke-dasharray:7.0,7.0;"/><polygon fill="#181818" points="594.34,329.12,587.4956,322.0381,589.7046,327.2458,584.4968,329.4548,594.34,329.12" style="stroke:#181818;stroke-width:1.0;"/></g><!--MD5=[83352c7b2787fd208550ccb8a404b9c4]
link ListVehiclesNeedingCheckUpController to CheckUp--><g id="link_ListVehiclesNeedingCheckUpController_CheckUp"><path codeLine="84" d="M446.28,169.67 C491.86,219.39 563,297 563,297 C563,297 1367,327 1367,327 C1367,327 1408.8,370.19 1448.27,410.98 " fill="none" id="ListVehiclesNeedingCheckUpController-to-CheckUp" style="stroke:#181818;stroke-width:1.0;stroke-dasharray:7.0,7.0;"/><polygon fill="#181818" points="1452.08,414.92,1448.6938,405.6716,1448.6022,411.3277,1442.9461,411.2361,1452.08,414.92" style="stroke:#181818;stroke-width:1.0;"/></g><!--MD5=[fff48e9c385a875a0ec7f6b68c295159]
link Repositories to Repositories--><g id="link_Repositories_Repositories"><path codeLine="87" d="M777.28,99.05 C797.48,102.1 812,111.75 812,128 C812,142.85 799.87,152.19 782.36,156.01 " fill="none" id="Repositories-to-Repositories" style="stroke:#181818;stroke-width:1.0;"/><polygon fill="#181818" points="777.28,156.95,786.8533,159.2633,782.1982,156.0493,785.4122,151.3941,777.28,156.95" style="stroke:#181818;stroke-width:1.0;"/><text fill="#000000" font-family="sans-serif" font-size="13" lengthAdjust="spacing" textLength="49" x="818" y="133.4951">instance</text></g><!--MD5=[1be80ae5ecf7a30a0735e0c3289e5e59]
link Repositories to VehicleRepository--><g id="link_Repositories_VehicleRepository"><path codeLine="88" d="M641.75,178.83 C588.85,247.73 494.17,371.06 443.4,437.19 " fill="none" id="Repositories-to-VehicleRepository" style="stroke:#181818;stroke-width:1.0;"/><polygon fill="#181818" points="440.12,441.47,448.7877,436.7933,443.1768,437.5133,442.4569,431.9024,440.12,441.47" style="stroke:#181818;stroke-width:1.0;"/><text fill="#000000" font-family="sans-serif" font-size="13" lengthAdjust="spacing" textLength="101" x="562" y="293.4951">vehicleRepository</text></g><!--MD5=[1efcca93908697ef112e268ff8faeddf]
link VehicleRepository to Vehicle--><g id="link_VehicleRepository_Vehicle"><path codeLine="90" d="M519.22,483 C540.67,483 564.25,483 589.04,483 " fill="none" id="VehicleRepository-to-Vehicle" style="stroke:#181818;stroke-width:1.0;"/><polygon fill="#181818" points="594.35,483,585.35,479,589.35,483,585.35,487,594.35,483" style="stroke:#181818;stroke-width:1.0;"/><text fill="#000000" font-family="sans-serif" font-size="13" lengthAdjust="spacing" textLength="39" x="537.25" y="476.4951">vehicle</text></g><!--MD5=[d7e5e19117c92518ee44d38286921e70]
link Vehicle to CheckUp--><g id="link_Vehicle_CheckUp"><path codeLine="92" d="M1349.78,483 C1382.77,483 1413.32,483 1439.05,483 " fill="none" id="Vehicle-to-CheckUp" style="stroke:#181818;stroke-width:1.0;"/><polygon fill="#181818" points="1444.13,483,1435.13,479,1439.13,483,1435.13,487,1444.13,483" style="stroke:#181818;stroke-width:1.0;"/><text fill="#000000" font-family="sans-serif" font-size="13" lengthAdjust="spacing" textLength="58" x="1368" y="476.4951">checkUps</text><text fill="#000000" font-family="sans-serif" font-size="13" lengthAdjust="spacing" textLength="7" x="1357.5248" y="480.3348">1</text><text fill="#000000" font-family="sans-serif" font-size="13" lengthAdjust="spacing" textLength="5" x="1431.3575" y="479.6858">*</text></g><!--MD5=[93c335b1b019cb21d0fe86ed743ae4f4]
link VehicleFleetManager to CheckUp--><g id="link_VehicleFleetManager_CheckUp"><path codeLine="94" d="M1629.13,152.16 C1611.62,203.67 1568.84,329.5 1541.47,410 " fill="none" id="VehicleFleetManager-to-CheckUp" style="stroke:#181818;stroke-width:1.0;"/><polygon fill="#181818" points="1539.86,414.76,1546.5532,407.535,1541.4754,410.0281,1538.9822,404.9503,1539.86,414.76" style="stroke:#181818;stroke-width:1.0;"/><text fill="#000000" font-family="sans-serif" font-size="13" lengthAdjust="spacing" textLength="28" x="1585" y="293.4951">does</text></g><!--MD5=[1a95f516a61bd3a620be4ea1f427cdd3]
@startuml
'skinparam monochrome true
skinparam packageStyle rectangle
skinparam shadowing false
skinparam linetype polyline
'skinparam linetype orto

skinparam classAttributeIconSize 0

'left to right direction


class Collaborator {
    -String name
    -List<Skill> skill
    -Job job
    -Date dateOfBirth
    -Date admissionDate
    -Address address
    -int phoneNumber
    -String email
    -int cc
    -int cardNumber

    + Collaborator(name, dateOfBirth, admissionDate, address, phoneNumber, email, cc, cardNumber)
}

class VehicleFleetManager {
}

class Vehicle {
    -List <CheckUp> checkUpsList
    -Brand brand
    -Model model
    -String type
    -float tare
    -float grossWeight
    -int currentKm
    -Date registerDate
    -Date acquisitionDate
    -int checkupFrequency
    -String licensePlate

    + Vehicle(brand,model,type,tare,grossWeight,currentKm,registerDate,acquisitionDate,checkupFrequency,licensePlate)
    + CheckUpByVehicle(date, kms)
    - vehicleCheckUp(checkUp)
    - validation(checkUp)
}

class CheckUp {
    -String licensePlate
    -Date date
    -int kms

    + checkUp(date, kms)
    - validation(checkUp)
}

class VehicleRepository {
    - List <Vehicle> vehicleList
    + getVehicleByPlate(licensePlate)
}

class Repositories {
    - Repositories()
    + getInstance() : Repositories
    + getVehicleRepository()
}

class ListVehiclesNeedingCheckUpController {
    + ListVehiclesNeedingCheckUpController()
    + vehicleCheckUp(licensePlate, date, kms)
}

class ListVehiclesNeedingCheckUpUI {
}

Collaborator <|- VehicleFleetManager

ListVehiclesNeedingCheckUpUI .> ListVehiclesNeedingCheckUpController

ListVehiclesNeedingCheckUpController .> Repositories
ListVehiclesNeedingCheckUpController ..> VehicleRepository
ListVehiclesNeedingCheckUpController ..> Vehicle
ListVehiclesNeedingCheckUpController ..> CheckUp


Repositories -> Repositories : instance
Repositories - -> VehicleRepository : vehicleRepository

VehicleRepository -> Vehicle : vehicle

Vehicle "1" -> "*" CheckUp : checkUps

VehicleFleetManager - -> CheckUp : does

@enduml

@startuml
skinparam packageStyle rectangle
skinparam shadowing false
skinparam linetype polyline

skinparam classAttributeIconSize 0



class Collaborator {
    -String name
    -List<Skill> skill
    -Job job
    -Date dateOfBirth
    -Date admissionDate
    -Address address
    -int phoneNumber
    -String email
    -int cc
    -int cardNumber

    + Collaborator(name, dateOfBirth, admissionDate, address, phoneNumber, email, cc, cardNumber)
}

class VehicleFleetManager {
}

class Vehicle {
    -List <CheckUp> checkUpsList
    -Brand brand
    -Model model
    -String type
    -float tare
    -float grossWeight
    -int currentKm
    -Date registerDate
    -Date acquisitionDate
    -int checkupFrequency
    -String licensePlate

    + Vehicle(brand,model,type,tare,grossWeight,currentKm,registerDate,acquisitionDate,checkupFrequency,licensePlate)
    + CheckUpByVehicle(date, kms)
    - vehicleCheckUp(checkUp)
    - validation(checkUp)
}

class CheckUp {
    -String licensePlate
    -Date date
    -int kms

    + checkUp(date, kms)
    - validation(checkUp)
}

class VehicleRepository {
    - List <Vehicle> vehicleList
    + getVehicleByPlate(licensePlate)
}

class Repositories {
    - Repositories()
    + getInstance() : Repositories
    + getVehicleRepository()
}

class ListVehiclesNeedingCheckUpController {
    + ListVehiclesNeedingCheckUpController()
    + vehicleCheckUp(licensePlate, date, kms)
}

class ListVehiclesNeedingCheckUpUI {
}

Collaborator <|- VehicleFleetManager

ListVehiclesNeedingCheckUpUI .> ListVehiclesNeedingCheckUpController

ListVehiclesNeedingCheckUpController .> Repositories
ListVehiclesNeedingCheckUpController ..> VehicleRepository
ListVehiclesNeedingCheckUpController ..> Vehicle
ListVehiclesNeedingCheckUpController ..> CheckUp


Repositories -> Repositories : instance
Repositories - -> VehicleRepository : vehicleRepository

VehicleRepository -> Vehicle : vehicle

Vehicle "1" -> "*" CheckUp : checkUps

VehicleFleetManager - -> CheckUp : does

@enduml

PlantUML version 1.2022.12(Sun Oct 23 19:12:26 BST 2022)
(GPL source distribution)
Java Runtime: OpenJDK Runtime Environment
JVM: OpenJDK 64-Bit Server VM
Default Encoding: Cp1252
Language: pt
Country: PT
--></g></svg>