<?xml version="1.0" encoding="us-ascii" standalone="no"?><svg xmlns="http://www.w3.org/2000/svg" xmlns:xlink="http://www.w3.org/1999/xlink" contentStyleType="text/css" height="578px" preserveAspectRatio="none" style="width:918px;height:578px;background:#FFFFFF;" version="1.1" viewBox="0 0 918 578" width="918px" zoomAndPan="magnify"><defs/><g><text fill="#000000" font-family="sans-serif" font-size="14" font-weight="bold" lengthAdjust="spacing" textLength="393" x="264" y="30.1074">System Sequence Diagram (SSD) - US05 - Generate team</text><rect fill="#FFFFFF" height="353.2012" style="stroke:#181818;stroke-width:1.0;" width="10" x="387" y="133.2422"/><rect fill="#FFFFFF" height="31.291" style="stroke:#181818;stroke-width:1.0;" width="10" x="865" y="156.5332"/><rect fill="#FFFFFF" height="60.582" style="stroke:#181818;stroke-width:1.0;" width="10" x="865" y="222.1152"/><rect fill="#FFFFFF" height="38.291" style="stroke:#181818;stroke-width:1.0;" width="10" x="865" y="313.9883"/><rect fill="#FFFFFF" height="31.291" style="stroke:#181818;stroke-width:1.0;" width="10" x="865" y="383.5703"/><rect fill="#FFFFFF" height="31.291" style="stroke:#181818;stroke-width:1.0;" width="10" x="865" y="446.1523"/><rect fill="none" height="81.873" style="stroke:#000000;stroke-width:1.5;" width="643" x="269" y="240.1152"/><line style="stroke:#181818;stroke-width:0.5;stroke-dasharray:5.0,5.0;" x1="392" x2="392" y1="123.2422" y2="495.4434"/><line style="stroke:#181818;stroke-width:0.5;stroke-dasharray:5.0,5.0;" x1="870" x2="870" y1="123.2422" y2="495.4434"/><text fill="#000000" font-family="sans-serif" font-size="14" lengthAdjust="spacing" textLength="220" x="279" y="119.7285">Human Resources Manager (HRM)</text><ellipse cx="392" cy="53.1211" fill="#E3E3E3" rx="8" ry="8" style="stroke:#181818;stroke-width:0.5;"/><path d="M392,61.1211 L392,88.1211 M379,69.1211 L405,69.1211 M392,88.1211 L379,103.1211 M392,88.1211 L405,103.1211 " fill="none" style="stroke:#181818;stroke-width:0.5;"/><text fill="#000000" font-family="sans-serif" font-size="14" lengthAdjust="spacing" textLength="220" x="279" y="509.5508">Human Resources Manager (HRM)</text><ellipse cx="392" cy="521.5645" fill="#E3E3E3" rx="8" ry="8" style="stroke:#181818;stroke-width:0.5;"/><path d="M392,529.5645 L392,556.5645 M379,537.5645 L405,537.5645 M392,556.5645 L379,571.5645 M392,556.5645 L405,571.5645 " fill="none" style="stroke:#181818;stroke-width:0.5;"/><rect fill="#E3E3E3" height="32.6211" rx="2.5" ry="2.5" style="stroke:#181818;stroke-width:0.5;" width="64" x="838" y="89.6211"/><text fill="#000000" font-family="sans-serif" font-size="14" lengthAdjust="spacing" textLength="50" x="845" y="111.7285">:System</text><rect fill="#E3E3E3" height="32.6211" rx="2.5" ry="2.5" style="stroke:#181818;stroke-width:0.5;" width="64" x="838" y="494.4434"/><text fill="#000000" font-family="sans-serif" font-size="14" lengthAdjust="spacing" textLength="50" x="845" y="516.5508">:System</text><rect fill="#FFFFFF" height="353.2012" style="stroke:#181818;stroke-width:1.0;" width="10" x="387" y="133.2422"/><rect fill="#FFFFFF" height="31.291" style="stroke:#181818;stroke-width:1.0;" width="10" x="865" y="156.5332"/><rect fill="#FFFFFF" height="60.582" style="stroke:#181818;stroke-width:1.0;" width="10" x="865" y="222.1152"/><rect fill="#FFFFFF" height="38.291" style="stroke:#181818;stroke-width:1.0;" width="10" x="865" y="313.9883"/><rect fill="#FFFFFF" height="31.291" style="stroke:#181818;stroke-width:1.0;" width="10" x="865" y="383.5703"/><rect fill="#FFFFFF" height="31.291" style="stroke:#181818;stroke-width:1.0;" width="10" x="865" y="446.1523"/><polygon fill="#181818" points="853,152.5332,863,156.5332,853,160.5332,857,156.5332" style="stroke:#181818;stroke-width:1.0;"/><line style="stroke:#181818;stroke-width:1.0;" x1="397" x2="859" y1="156.5332" y2="156.5332"/><text fill="#000000" font-family="sans-serif" font-size="13" font-weight="bold" lengthAdjust="spacing" textLength="7" x="404" y="151.2705">1</text><text fill="#000000" font-family="sans-serif" font-size="13" lengthAdjust="spacing" textLength="235" x="415" y="151.2705">asks to generate a new proposals teams</text><polygon fill="#181818" points="408,183.8242,398,187.8242,408,191.8242,404,187.8242" style="stroke:#181818;stroke-width:1.0;"/><line style="stroke:#181818;stroke-width:1.0;stroke-dasharray:2.0,2.0;" x1="402" x2="869" y1="187.8242" y2="187.8242"/><text fill="#000000" font-family="sans-serif" font-size="13" font-weight="bold" lengthAdjust="spacing" textLength="7" x="414" y="182.5615">2</text><text fill="#000000" font-family="sans-serif" font-size="13" lengthAdjust="spacing" textLength="398" x="425" y="182.5615">requests data (i.e. team max size,team min size, skills number size)</text><polygon fill="#181818" points="853,218.1152,863,222.1152,853,226.1152,857,222.1152" style="stroke:#181818;stroke-width:1.0;"/><line style="stroke:#181818;stroke-width:1.0;" x1="397" x2="859" y1="222.1152" y2="222.1152"/><text fill="#000000" font-family="sans-serif" font-size="13" font-weight="bold" lengthAdjust="spacing" textLength="7" x="404" y="216.8525">3</text><text fill="#000000" font-family="sans-serif" font-size="13" lengthAdjust="spacing" textLength="122" x="415" y="216.8525">types requested data</text><path d="M5,200.8242 L5,227.8242 L382,227.8242 L382,210.8242 L372,200.8242 L5,200.8242 " fill="#FAFAFA" style="stroke:#181818;stroke-width:0.5;"/><path d="M372,200.8242 L372,210.8242 L382,210.8242 L372,200.8242 " fill="#FAFAFA" style="stroke:#181818;stroke-width:0.5;"/><text fill="#000000" font-family="sans-serif" font-size="13" lengthAdjust="spacing" textLength="356" x="11" y="219.8525">This loop is needed to decrement the skillNumberSize to zero</text><path d="M269,240.1152 L342,240.1152 L342,249.4063 L332,259.4063 L269,259.4063 L269,240.1152 " fill="#EEEEEE" style="stroke:#000000;stroke-width:1.5;"/><rect fill="none" height="81.873" style="stroke:#000000;stroke-width:1.5;" width="643" x="269" y="240.1152"/><text fill="#000000" font-family="sans-serif" font-size="13" font-weight="bold" lengthAdjust="spacing" textLength="28" x="284" y="255.1436">loop</text><text fill="#000000" font-family="sans-serif" font-size="11" font-weight="bold" lengthAdjust="spacing" textLength="122" x="357" y="253.9854">[skill number size &gt; 0]</text><polygon fill="#181818" points="408,278.6973,398,282.6973,408,286.6973,404,282.6973" style="stroke:#181818;stroke-width:1.0;"/><line style="stroke:#181818;stroke-width:1.0;stroke-dasharray:2.0,2.0;" x1="402" x2="869" y1="282.6973" y2="282.6973"/><text fill="#000000" font-family="sans-serif" font-size="13" font-weight="bold" lengthAdjust="spacing" textLength="7" x="414" y="277.4346">4</text><text fill="#000000" font-family="sans-serif" font-size="13" lengthAdjust="spacing" textLength="214" x="425" y="277.4346">show skill list and asks to select one</text><polygon fill="#181818" points="853,309.9883,863,313.9883,853,317.9883,857,313.9883" style="stroke:#181818;stroke-width:1.0;"/><line style="stroke:#181818;stroke-width:1.0;" x1="397" x2="859" y1="313.9883" y2="313.9883"/><text fill="#000000" font-family="sans-serif" font-size="13" font-weight="bold" lengthAdjust="spacing" textLength="7" x="404" y="308.7256">5</text><text fill="#000000" font-family="sans-serif" font-size="13" lengthAdjust="spacing" textLength="62" x="415" y="308.7256">select skill</text><polygon fill="#181818" points="408,348.2793,398,352.2793,408,356.2793,404,352.2793" style="stroke:#181818;stroke-width:1.0;"/><line style="stroke:#181818;stroke-width:1.0;stroke-dasharray:2.0,2.0;" x1="402" x2="869" y1="352.2793" y2="352.2793"/><text fill="#000000" font-family="sans-serif" font-size="13" font-weight="bold" lengthAdjust="spacing" textLength="7" x="414" y="347.0166">6</text><text fill="#000000" font-family="sans-serif" font-size="13" lengthAdjust="spacing" textLength="236" x="425" y="347.0166">shows all data and requests confirmation</text><polygon fill="#181818" points="853,379.5703,863,383.5703,853,387.5703,857,383.5703" style="stroke:#181818;stroke-width:1.0;"/><line style="stroke:#181818;stroke-width:1.0;" x1="397" x2="859" y1="383.5703" y2="383.5703"/><text fill="#000000" font-family="sans-serif" font-size="13" font-weight="bold" lengthAdjust="spacing" textLength="7" x="404" y="378.3076">7</text><text fill="#000000" font-family="sans-serif" font-size="13" lengthAdjust="spacing" textLength="78" x="415" y="378.3076">confirms data</text><polygon fill="#181818" points="408,410.8613,398,414.8613,408,418.8613,404,414.8613" style="stroke:#181818;stroke-width:1.0;"/><line style="stroke:#181818;stroke-width:1.0;stroke-dasharray:2.0,2.0;" x1="402" x2="869" y1="414.8613" y2="414.8613"/><text fill="#000000" font-family="sans-serif" font-size="13" font-weight="bold" lengthAdjust="spacing" textLength="7" x="414" y="409.5986">8</text><text fill="#000000" font-family="sans-serif" font-size="13" lengthAdjust="spacing" textLength="433" x="425" y="409.5986">shows the list of the team's proposals and asks you to choose one of them</text><polygon fill="#181818" points="853,442.1523,863,446.1523,853,450.1523,857,446.1523" style="stroke:#181818;stroke-width:1.0;"/><line style="stroke:#181818;stroke-width:1.0;" x1="397" x2="859" y1="446.1523" y2="446.1523"/><text fill="#000000" font-family="sans-serif" font-size="13" font-weight="bold" lengthAdjust="spacing" textLength="7" x="404" y="440.8896">9</text><text fill="#000000" font-family="sans-serif" font-size="13" lengthAdjust="spacing" textLength="241" x="415" y="440.8896">choose one of the proposals and confirms</text><polygon fill="#181818" points="408,473.4434,398,477.4434,408,481.4434,404,477.4434" style="stroke:#181818;stroke-width:1.0;"/><line style="stroke:#181818;stroke-width:1.0;stroke-dasharray:2.0,2.0;" x1="402" x2="869" y1="477.4434" y2="477.4434"/><text fill="#000000" font-family="sans-serif" font-size="13" font-weight="bold" lengthAdjust="spacing" textLength="14" x="414" y="472.1807">10</text><text fill="#000000" font-family="sans-serif" font-size="13" lengthAdjust="spacing" textLength="158" x="432" y="472.1807">displays operation success</text><!--SRC=[dLHDRzim3BtxLn2vB06MefTUSkYfm7hf3lNw0rYPiOLOeYVAoznVNqh-W16iNH5VHCdaUu-FikLaVOS17JZsR9h0ZY26dWfPtdHeJbXJ6OUM8929wEjsdI0DLdosleOZja954MtKr7AGI0vA-jsJDmGF5kkKlYtBXntiuQMylTFb1taA69MMq1K5zf5zxrufQ6mY1zWyzWuzF9Dm7mm9FA5NFG6sZyzFkmsWW0Q5QedMs0vzXCrX9Cylnp2ZsJ-9A6KNi7hq0FRti-235fq48aCzIqFmT8OkSCUYBMQfaY4Mq9bbZJi1xXKxKHpKFVL2ea254M5hR-WcOu73lo3sZRwFE-l77QZ9hVADXkIpNMQew5FYouRYqAbl4pjLcVwVycU0bhaRoTVSS0-tIufdBMlf60_mgx4obkZgYIgbKFigCe4SwJnYGoFQpmnM9YnDUAF0_t5C6ZvFGbeh4T1NotY4MhsDm9wAAqoPgZFsfrwGKgRclg1K05Le7cuIkepRi3_Qu31QzjVCRwgNZmVt5Mrf2jb4FkOutRLlihhMYxa3zybWqp0B9OEd4bTSfVuIve9oxkwAnYehNOk307VfIrLxGNgZFmdvGEax]--></g></svg>