<?xml version="1.0" encoding="us-ascii" standalone="no"?><svg xmlns="http://www.w3.org/2000/svg" xmlns:xlink="http://www.w3.org/1999/xlink" contentStyleType="text/css" height="1092px" preserveAspectRatio="none" style="width:812px;height:1092px;background:#FFFFFF;" version="1.1" viewBox="0 0 812 1092" width="812px" zoomAndPan="magnify"><defs/><g><text fill="#000000" font-family="sans-serif" font-size="14" font-weight="bold" lengthAdjust="spacing" textLength="127" x="335.5" y="25.1074">Use Case Diagram</text><!--cluster System--><g id="cluster_System"><rect fill="none" height="829" rx="2.5" ry="2.5" style="stroke:#181818;stroke-width:1.0;" width="518" x="288" y="46.6211"/><text fill="#000000" font-family="sans-serif" font-size="14" font-weight="bold" lengthAdjust="spacing" textLength="50" x="522" y="63.7285">System</text></g><g id="elem_UC01"><ellipse cx="546.8726" cy="127.4956" fill="#F1F1F1" rx="207.3726" ry="43.8745" style="stroke:#181818;stroke-width:0.5;"/><text fill="#000000" font-family="sans-serif" font-size="14" lengthAdjust="spacing" textLength="386" x="353.8726" y="131.2925">UC01: Register skills that may be appointed to a collaborator.</text></g><g id="elem_UC02"><ellipse cx="546.9552" cy="227.5121" fill="#F1F1F1" rx="89.9552" ry="20.391" style="stroke:#181818;stroke-width:0.5;"/><text fill="#000000" font-family="sans-serif" font-size="14" lengthAdjust="spacing" textLength="134" x="476.9552" y="232.3158">UC02: Register a Job</text></g><g id="elem_UC03"><ellipse cx="547.0571" cy="334.6325" fill="#F1F1F1" rx="243.0571" ry="51.0114" style="stroke:#181818;stroke-width:0.5;"/><text fill="#000000" font-family="sans-serif" font-size="14" lengthAdjust="spacing" textLength="459" x="317.5571" y="338.4294">UC03: Register a collaborator with a job and fundamental characteristics.</text></g><g id="elem_UC04"><ellipse cx="547.0149" cy="450.4241" fill="#F1F1F1" rx="134.5149" ry="29.303" style="stroke:#181818;stroke-width:0.5;"/><text fill="#000000" font-family="sans-serif" font-size="14" lengthAdjust="spacing" textLength="234" x="430.0149" y="454.2209">UC04: Assign skills to a collaborator .</text></g><g id="elem_UC05"><ellipse cx="547.2358" cy="551.4683" fill="#F1F1F1" rx="167.2358" ry="35.8472" style="stroke:#181818;stroke-width:0.5;"/><text fill="#000000" font-family="sans-serif" font-size="14" lengthAdjust="spacing" textLength="303" x="395.7358" y="555.2651">UC05: Generate a team proposal automatically .</text></g><g id="elem_UC06"><ellipse cx="546.8085" cy="645.6828" fill="#F1F1F1" rx="100.8085" ry="22.5617" style="stroke:#181818;stroke-width:0.5;"/><text fill="#000000" font-family="sans-serif" font-size="14" lengthAdjust="spacing" textLength="160" x="465.9387" y="649.801">UC06: Register a vehicle.</text></g><g id="elem_UC07"><ellipse cx="547.0149" cy="732.4241" fill="#F1F1F1" rx="134.5149" ry="29.303" style="stroke:#181818;stroke-width:0.5;"/><text fill="#000000" font-family="sans-serif" font-size="14" lengthAdjust="spacing" textLength="234" x="430.0149" y="736.2209">UC07: Register a vehicle&#180;s check-up.</text></g><g id="elem_UC08"><ellipse cx="547.0257" cy="828.4262" fill="#F1F1F1" rx="142.0257" ry="30.8051" style="stroke:#181818;stroke-width:0.5;"/><text fill="#000000" font-family="sans-serif" font-size="14" lengthAdjust="spacing" textLength="250" x="422.0257" y="832.2231">UC08: List vehicles that need check-up.</text></g><!--entity HumanResourcesManager--><g id="elem_HumanResourcesManager"><ellipse cx="125" cy="303.6211" fill="#F1F1F1" rx="8" ry="8" style="stroke:#181818;stroke-width:0.5;"/><path d="M125,311.6211 L125,338.6211 M112,319.6211 L138,319.6211 M125,338.6211 L112,353.6211 M125,338.6211 L138,353.6211 " fill="none" style="stroke:#181818;stroke-width:0.5;"/><text fill="#000000" font-family="sans-serif" font-size="14" lengthAdjust="spacing" textLength="176" x="37" y="370.2285">Human Resources Manager</text></g><!--entity VehicleAndEquipmentFleetManager--><g id="elem_VehicleAndEquipmentFleetManager"><ellipse cx="125" cy="701.6211" fill="#F1F1F1" rx="8" ry="8" style="stroke:#181818;stroke-width:0.5;"/><path d="M125,709.6211 L125,736.6211 M112,717.6211 L138,717.6211 M125,736.6211 L112,751.6211 M125,736.6211 L138,751.6211 " fill="none" style="stroke:#181818;stroke-width:0.5;"/><text fill="#000000" font-family="sans-serif" font-size="14" lengthAdjust="spacing" textLength="238" x="6" y="768.2285">Vehicle And Equipment FleetManager</text></g><!--entity Collaborator--><g id="elem_Collaborator"><ellipse cx="125" cy="903.6211" fill="#F1F1F1" rx="8" ry="8" style="stroke:#181818;stroke-width:0.5;"/><path d="M125,911.6211 L125,938.6211 M112,919.6211 L138,919.6211 M125,938.6211 L112,953.6211 M125,938.6211 L138,953.6211 " fill="none" style="stroke:#181818;stroke-width:0.5;"/><text fill="#000000" font-family="sans-serif" font-size="14" lengthAdjust="spacing" textLength="78" x="86" y="970.2285">Collaborator</text></g><!--entity GreenSpacesUser--><g id="elem_GreenSpacesUser"><ellipse cx="125" cy="1017.6211" fill="#F1F1F1" rx="8" ry="8" style="stroke:#181818;stroke-width:0.5;"/><path d="M125,1025.6211 L125,1052.6211 M112,1033.6211 L138,1033.6211 M125,1052.6211 L112,1067.6211 M125,1052.6211 L138,1067.6211 " fill="none" style="stroke:#181818;stroke-width:0.5;"/><text fill="#000000" font-family="sans-serif" font-size="14" lengthAdjust="spacing" textLength="124" x="63" y="1084.2285">Green Spaces User</text></g><!--entity GreenSpacesManager--><g id="elem_GreenSpacesManager"><ellipse cx="547" cy="903.6211" fill="#F1F1F1" rx="8" ry="8" style="stroke:#181818;stroke-width:0.5;"/><path d="M547,911.6211 L547,938.6211 M534,919.6211 L560,919.6211 M547,938.6211 L534,953.6211 M547,938.6211 L560,953.6211 " fill="none" style="stroke:#181818;stroke-width:0.5;"/><text fill="#000000" font-family="sans-serif" font-size="14" lengthAdjust="spacing" textLength="151" x="471.5" y="970.2285">Green Spaces Manager</text></g><!--link HumanResourcesManager to UC01--><g id="link_HumanResourcesManager_UC01"><path d="M157.52,295.0011 C186.04,261.8611 230.97,215.9111 280,189.6211 C309.78,173.6611 337.7805,163.3094 371.0705,154.4794 " fill="none" id="HumanResourcesManager-to-UC01" style="stroke:#181818;stroke-width:1.0;"/><polygon fill="#181818" points="376.87,152.9411,367.1453,151.3822,372.0371,154.223,369.1963,159.1148,376.87,152.9411" style="stroke:#181818;stroke-width:1.0;"/></g><!--link HumanResourcesManager to UC02--><g id="link_HumanResourcesManager_UC02"><path d="M203.14,294.9911 C227.23,284.0111 254.25,273.0711 280,265.6211 C339.15,248.5111 402.0594,239.5343 454.8994,234.2843 " fill="none" id="HumanResourcesManager-to-UC02" style="stroke:#181818;stroke-width:1.0;"/><polygon fill="#181818" points="460.87,233.6911,451.5186,230.6005,455.8945,234.1854,452.3096,238.5613,460.87,233.6911" style="stroke:#181818;stroke-width:1.0;"/></g><!--link HumanResourcesManager to UC03--><g id="link_HumanResourcesManager_UC03"><path d="M213.02,334.6211 C240.18,334.6211 265.56,334.6211 297.99,334.6211 " fill="none" id="HumanResourcesManager-to-UC03" style="stroke:#181818;stroke-width:1.0;"/><polygon fill="#181818" points="303.99,334.6211,294.99,330.6211,298.99,334.6211,294.99,338.6211,303.99,334.6211" style="stroke:#181818;stroke-width:1.0;"/></g><!--link HumanResourcesManager to UC04--><g id="link_HumanResourcesManager_UC04"><path d="M205.75,374.1311 C229.23,384.5811 255.27,395.0511 280,402.6211 C328.35,417.4311 377.1962,427.3177 424.4162,434.9177 " fill="none" id="HumanResourcesManager-to-UC04" style="stroke:#181818;stroke-width:1.0;"/><polygon fill="#181818" points="430.34,435.8711,422.09,430.4918,425.4035,435.0766,420.8187,438.3901,430.34,435.8711" style="stroke:#181818;stroke-width:1.0;"/></g><!--link HumanResourcesManager to UC05--><g id="link_HumanResourcesManager_UC05"><path d="M152.27,374.1511 C179.59,411.9611 225.89,467.5611 280,497.6211 C314.5,516.7811 349.0243,527.9762 387.7643,535.9862 " fill="none" id="HumanResourcesManager-to-UC05" style="stroke:#181818;stroke-width:1.0;"/><polygon fill="#181818" points="393.64,537.2011,385.6363,531.4616,388.7436,536.1887,384.0165,539.2959,393.64,537.2011" style="stroke:#181818;stroke-width:1.0;"/></g><!--link VehicleAndEquipmentFleetManager to UC06--><g id="link_VehicleAndEquipmentFleetManager_UC06"><path d="M244.08,694.6711 C256.15,691.3611 268.28,688.2811 280,685.6211 C338.3,672.4211 398.8493,663.189 450.7693,656.489 " fill="none" id="VehicleAndEquipmentFleetManager-to-UC06" style="stroke:#181818;stroke-width:1.0;"/><polygon fill="#181818" points="456.72,655.7211,447.2821,652.9058,451.7611,656.361,448.3059,660.8401,456.72,655.7211" style="stroke:#181818;stroke-width:1.0;"/></g><!--link VehicleAndEquipmentFleetManager to UC07--><g id="link_VehicleAndEquipmentFleetManager_UC07"><path d="M244.11,732.6211 C296.4,732.6211 352.15,732.6211 406.14,732.6211 " fill="none" id="VehicleAndEquipmentFleetManager-to-UC07" style="stroke:#181818;stroke-width:1.0;"/><polygon fill="#181818" points="412.14,732.6211,403.14,728.6211,407.14,732.6211,403.14,736.6211,412.14,732.6211" style="stroke:#181818;stroke-width:1.0;"/></g><!--link VehicleAndEquipmentFleetManager to UC08--><g id="link_VehicleAndEquipmentFleetManager_UC08"><path d="M244.17,770.1711 C256.22,773.5611 268.32,776.7711 280,779.6211 C329.27,791.6411 378.3995,801.1986 425.5695,809.4386 " fill="none" id="VehicleAndEquipmentFleetManager-to-UC08" style="stroke:#181818;stroke-width:1.0;"/><polygon fill="#181818" points="431.48,810.4711,423.3026,804.982,426.5546,809.6107,421.9259,812.8627,431.48,810.4711" style="stroke:#181818;stroke-width:1.0;"/></g><!--SRC=[bPDBZjD048RtVOfIDhCAWhoL1T8em2046w9XNsbNx2RjRjDTPXGXRiK9E1bb9t5wneEiiHHBgSV_rSityM1SXG5BABtpkWY-9E1GaxfwAjG7p6dBHqiGI3Ewt9AwkKR40ZF_O5mEUxIHb6B34diV2JOehtS6SubJojAUWJq4anSCcMdKZ7TAWJoesGSOVQnBTF2Leg-3fWXVq0azZ00ZjBxETVQaoT-eC5hGjow3zpzgKvNa63vO8avrpc4IrGMbCOdYnbkBEnzG_gIWkq3aO2kpaHAbqPDkQpqP6zj_4z9QafmBNdLJXkqnCfNmgvMg8-bcdgFxpUitQvbHRiGRG3PXRGGkaA748-m8iAgySKnPCsu4dRJngiKs4gteipE5yVZjDIJbJX8kmYU_kwXDXjKcFRNf8xMqIdWmN8Zjkzy1oZRtjSkmMHHQq8MSdPOSIJGwTWrDXqkOzagOhU4sHfExRenF1mOTO3OCcFK0ypNSaIEHahK0K_D91L_vA9rWpRv4QGAjFLuvys7ElCTPF9hbpzE9TvABDdxWy2_YYvxuyZdnlt-Yx8BqOLnN7MZv4j2o1rgjuRDWBeZpLJkII-wXLYz1hPHIl-Nt3m00]--></g></svg>