<?xml version="1.0" encoding="UTF-8" standalone="no"?><svg xmlns="http://www.w3.org/2000/svg" xmlns:xlink="http://www.w3.org/1999/xlink" contentStyleType="text/css" height="1082px" preserveAspectRatio="none" style="width:799px;height:1082px;background:#FFFFFF;" version="1.1" viewBox="0 0 799 1082" width="799px" zoomAndPan="magnify"><defs/><g><rect fill="none" height="27.6094" id="_title" style="stroke:none;stroke-width:1.0;" width="137" x="324" y="5"/><text fill="#000000" font-family="sans-serif" font-size="14" font-weight="bold" lengthAdjust="spacing" textLength="127" x="329" y="24.5332">Use Case Diagram</text><!--MD5=[99b31deea5d7419a569cd5090bf83263]
cluster System--><g id="cluster_System"><rect fill="none" height="822" rx="2.5" ry="2.5" style="stroke:#181818;stroke-width:1.0;" width="517" x="276" y="45.6094"/><text fill="#000000" font-family="sans-serif" font-size="14" font-weight="bold" lengthAdjust="spacing" textLength="50" x="509.5" y="62.1426">System</text></g><g id="elem_UC01"><ellipse cx="534.3113" cy="125.3716" fill="#F1F1F1" rx="206.8113" ry="43.7623" style="stroke:#181818;stroke-width:0.5;"/><text fill="#000000" font-family="sans-serif" font-size="14" lengthAdjust="spacing" textLength="386" x="341.3113" y="129.1002">UC01: Register skills that may be appointed to a collaborator.</text></g><g id="elem_UC02"><ellipse cx="534.7471" cy="224.6588" fill="#F1F1F1" rx="88.2471" ry="20.0494" style="stroke:#181818;stroke-width:0.5;"/><text fill="#000000" font-family="sans-serif" font-size="14" lengthAdjust="spacing" textLength="134" x="467.7471" y="228.3873">UC02: Register a Job</text></g><g id="elem_UC03"><ellipse cx="534.5795" cy="330.5253" fill="#F1F1F1" rx="242.5795" ry="50.9159" style="stroke:#181818;stroke-width:0.5;"/><text fill="#000000" font-family="sans-serif" font-size="14" lengthAdjust="spacing" textLength="459" x="305.0795" y="334.2538">UC03: Register a collaborator with a job and fundamental characteristics.</text></g><g id="elem_UC04"><ellipse cx="534.641" cy="445.7376" fill="#F1F1F1" rx="133.641" ry="29.1282" style="stroke:#181818;stroke-width:0.5;"/><text fill="#000000" font-family="sans-serif" font-size="14" lengthAdjust="spacing" textLength="234" x="417.641" y="449.4661">UC04: Assign skills to a collaborator .</text></g><g id="elem_UC05"><ellipse cx="534.5369" cy="545.8168" fill="#F1F1F1" rx="166.5369" ry="35.7074" style="stroke:#181818;stroke-width:0.5;"/><text fill="#000000" font-family="sans-serif" font-size="14" lengthAdjust="spacing" textLength="303" x="383.0369" y="549.5453">UC05: Generate a team proposal automatically .</text></g><g id="elem_UC06"><ellipse cx="534.613" cy="638.432" fill="#F1F1F1" rx="99.613" ry="22.3226" style="stroke:#181818;stroke-width:0.5;"/><text fill="#000000" font-family="sans-serif" font-size="14" lengthAdjust="spacing" textLength="160" x="454.613" y="642.1605">UC06: Register a vehicle.</text></g><g id="elem_UC07"><ellipse cx="534.641" cy="725.7376" fill="#F1F1F1" rx="133.641" ry="29.1282" style="stroke:#181818;stroke-width:0.5;"/><text fill="#000000" font-family="sans-serif" font-size="14" lengthAdjust="spacing" textLength="234" x="417.641" y="729.4661">UC07: Register a vehicle´s check-up.</text></g><g id="elem_UC08"><ellipse cx="534.6994" cy="820.7492" fill="#F1F1F1" rx="141.1994" ry="30.6399" style="stroke:#181818;stroke-width:0.5;"/><text fill="#000000" font-family="sans-serif" font-size="14" lengthAdjust="spacing" textLength="250" x="409.6994" y="824.4778">UC08: List vehicles that need check-up.</text></g><!--MD5=[4e12f11bc1b49ef762be0804cf29784a]
entity HumanResourcesManager--><g id="elem_HumanResourcesManager"><ellipse cx="119" cy="300.1094" fill="#F1F1F1" rx="8" ry="8" style="stroke:#181818;stroke-width:0.5;"/><path d="M119,308.1094 L119,335.1094 M106,316.1094 L132,316.1094 M119,335.1094 L106,350.1094 M119,335.1094 L132,350.1094 " fill="none" style="stroke:#181818;stroke-width:0.5;"/><text fill="#000000" font-family="sans-serif" font-size="14" lengthAdjust="spacing" textLength="168" x="35" y="366.1426">HumanResourcesManager</text></g><!--MD5=[b3e8b92eb32c2cfbd70e71f9fc642254]
entity VehicleAndEquipmentFleetManager--><g id="elem_VehicleAndEquipmentFleetManager"><ellipse cx="119" cy="695.1094" fill="#F1F1F1" rx="8" ry="8" style="stroke:#181818;stroke-width:0.5;"/><path d="M119,703.1094 L119,730.1094 M106,711.1094 L132,711.1094 M119,730.1094 L106,745.1094 M119,730.1094 L132,745.1094 " fill="none" style="stroke:#181818;stroke-width:0.5;"/><text fill="#000000" font-family="sans-serif" font-size="14" lengthAdjust="spacing" textLength="226" x="6" y="761.1426">VehicleAndEquipmentFleetManager</text></g><!--MD5=[4d2c5091a9949f13552f19c89f5df0dc]
entity Collaborator--><g id="elem_Collaborator"><ellipse cx="119" cy="895.1094" fill="#F1F1F1" rx="8" ry="8" style="stroke:#181818;stroke-width:0.5;"/><path d="M119,903.1094 L119,930.1094 M106,911.1094 L132,911.1094 M119,930.1094 L106,945.1094 M119,930.1094 L132,945.1094 " fill="none" style="stroke:#181818;stroke-width:0.5;"/><text fill="#000000" font-family="sans-serif" font-size="14" lengthAdjust="spacing" textLength="78" x="80" y="961.1426">Collaborator</text></g><!--MD5=[42c14d5a3e21d7d0785b0fbc91b3ee0b]
entity GreenSpacesUser--><g id="elem_GreenSpacesUser"><ellipse cx="119" cy="1008.1094" fill="#F1F1F1" rx="8" ry="8" style="stroke:#181818;stroke-width:0.5;"/><path d="M119,1016.1094 L119,1043.1094 M106,1024.1094 L132,1024.1094 M119,1043.1094 L106,1058.1094 M119,1043.1094 L132,1058.1094 " fill="none" style="stroke:#181818;stroke-width:0.5;"/><text fill="#000000" font-family="sans-serif" font-size="14" lengthAdjust="spacing" textLength="116" x="61" y="1074.1426">GreenSpacesUser</text></g><!--MD5=[833533faa99274fcd902cfc59d4c0944]
entity GreenSpacesManager--><g id="elem_GreenSpacesManager"><ellipse cx="534.5" cy="895.1094" fill="#F1F1F1" rx="8" ry="8" style="stroke:#181818;stroke-width:0.5;"/><path d="M534.5,903.1094 L534.5,930.1094 M521.5,911.1094 L547.5,911.1094 M534.5,930.1094 L521.5,945.1094 M534.5,930.1094 L547.5,945.1094 " fill="none" style="stroke:#181818;stroke-width:0.5;"/><text fill="#000000" font-family="sans-serif" font-size="14" lengthAdjust="spacing" textLength="143" x="463" y="961.1426">GreenSpacesManager</text></g><!--MD5=[bacb8234caec60d841bd47018bdbca7e]
link HumanResourcesManager to UC01--><g id="link_HumanResourcesManager_UC01"><path d="M149.74,291.5294 C176.94,258.5494 220.15,212.6794 268,186.6094 C295.6,171.5794 326.75,160.2394 357.76,151.6894 " fill="none" id="HumanResourcesManager-to-UC01" style="stroke:#181818;stroke-width:1.0;"/><polygon fill="#181818" points="362.74,150.3394,353.0096,148.8167,357.9119,151.6392,355.0894,156.5416,362.74,150.3394" style="stroke:#181818;stroke-width:1.0;"/></g><!--MD5=[0d3edf1c9852f31da9931ce13d24912d]
link HumanResourcesManager to UC02--><g id="link_HumanResourcesManager_UC02"><path d="M192.47,291.5794 C215.99,280.3494 242.58,269.1194 268,261.6094 C325.4,244.6494 392.13,235.3894 444.33,230.3794 " fill="none" id="HumanResourcesManager-to-UC02" style="stroke:#181818;stroke-width:1.0;"/><polygon fill="#181818" points="449.33,229.8994,439.9934,226.7644,444.3522,230.3701,440.7465,234.7288,449.33,229.8994" style="stroke:#181818;stroke-width:1.0;"/></g><!--MD5=[3891cd7a93fb2aa7b1765e23458c8c51]
link HumanResourcesManager to UC03--><g id="link_HumanResourcesManager_UC03"><path d="M203.18,330.6094 C228.04,330.6094 256.66,330.6094 286.44,330.6094 " fill="none" id="HumanResourcesManager-to-UC03" style="stroke:#181818;stroke-width:1.0;"/><polygon fill="#181818" points="291.62,330.6094,282.62,326.6094,286.62,330.6094,282.62,334.6094,291.62,330.6094" style="stroke:#181818;stroke-width:1.0;"/></g><!--MD5=[56486b6fb82ab53f1ea01964edc45ec4]
link HumanResourcesManager to UC04--><g id="link_HumanResourcesManager_UC04"><path d="M195.35,369.7294 C218.21,380.3594 243.71,391.0194 268,398.6094 C314.23,413.0594 366.47,423.5094 412.3,430.8294 " fill="none" id="HumanResourcesManager-to-UC04" style="stroke:#181818;stroke-width:1.0;"/><polygon fill="#181818" points="417.29,431.6194,409.0168,426.2757,412.3501,430.8462,407.7797,434.1795,417.29,431.6194" style="stroke:#181818;stroke-width:1.0;"/></g><!--MD5=[cfc6404bb4a8acfdb93cc015dc6c47d3]
link HumanResourcesManager to UC05--><g id="link_HumanResourcesManager_UC05"><path d="M145,369.6494 C171.07,407.0094 215.43,461.9294 268,491.6094 C300.93,510.1994 339.36,522.4394 376.58,530.4894 " fill="none" id="HumanResourcesManager-to-UC05" style="stroke:#181818;stroke-width:1.0;"/><polygon fill="#181818" points="381.59,531.5494,373.6071,525.7811,376.6973,530.5193,371.959,533.6095,381.59,531.5494" style="stroke:#181818;stroke-width:1.0;"/></g><!--MD5=[870d3d821505dc2d999218104b0521d2]
link VehicleAndEquipmentFleetManager to UC06--><g id="link_VehicleAndEquipmentFleetManager_UC06"><path d="M232.21,687.9394 C244.22,684.5194 256.32,681.3294 268,678.6094 C324.29,665.5194 388.34,655.7194 439.42,649.0994 " fill="none" id="VehicleAndEquipmentFleetManager-to-UC06" style="stroke:#181818;stroke-width:1.0;"/><polygon fill="#181818" points="444.64,648.4294,435.2083,645.5933,439.6797,649.0583,436.2147,653.5297,444.64,648.4294" style="stroke:#181818;stroke-width:1.0;"/></g><!--MD5=[3807968175451871ba2242f06dcdb4ee]
link VehicleAndEquipmentFleetManager to UC07--><g id="link_VehicleAndEquipmentFleetManager_UC07"><path d="M232.17,725.6094 C282.56,725.6094 342.51,725.6094 395.62,725.6094 " fill="none" id="VehicleAndEquipmentFleetManager-to-UC07" style="stroke:#181818;stroke-width:1.0;"/><polygon fill="#181818" points="400.74,725.6094,391.74,721.6094,395.74,725.6094,391.74,729.6094,400.74,725.6094" style="stroke:#181818;stroke-width:1.0;"/></g><!--MD5=[c2e517f738e770415ba6daabaa691493]
link VehicleAndEquipmentFleetManager to UC08--><g id="link_VehicleAndEquipmentFleetManager_UC08"><path d="M232.33,762.0494 C244.32,765.4794 256.38,768.7394 268,771.6094 C315.75,783.3894 368.96,793.7494 415.13,801.8694 " fill="none" id="VehicleAndEquipmentFleetManager-to-UC08" style="stroke:#181818;stroke-width:1.0;"/><polygon fill="#181818" points="420.15,802.7494,411.9839,797.2435,415.2264,801.8788,410.591,805.1213,420.15,802.7494" style="stroke:#181818;stroke-width:1.0;"/></g><!--MD5=[a09fe0452a554bd7b4a696b12f1cee51]
@startuml
'skinparam monochrome true
skinparam packageStyle rectangle
'skinparam shadowing false

title Use Case Diagram

left to right direction

    actor HumanResourcesManager
    actor VehicleAndEquipmentFleetManager
    actor Collaborator
    actor GreenSpacesUser
    actor GreenSpacesManager

rectangle System {
    usecase "UC01: Register skills that may be appointed to a collaborator." as UC01
    HumanResourcesManager - -> UC01
    usecase "UC02: Register a Job" as UC02
    HumanResourcesManager - -> UC02
    usecase "UC03: Register a collaborator with a job and fundamental characteristics." as UC03
    HumanResourcesManager - -> UC03
    usecase "UC04: Assign skills to a collaborator ." as UC04
    HumanResourcesManager - -> UC04
    usecase "UC05: Generate a team proposal automatically ." as UC05
    HumanResourcesManager - -> UC05
    usecase "UC06: Register a vehicle." as UC06
    VehicleAndEquipmentFleetManager - -> UC06
    usecase "UC07: Register a vehicle´s check-up." as UC07
    VehicleAndEquipmentFleetManager - -> UC07
    usecase "UC08: List vehicles that need check-up." as UC08
    VehicleAndEquipmentFleetManager - -> UC08


}



@enduml

@startuml
skinparam packageStyle rectangle

title Use Case Diagram

left to right direction

    actor HumanResourcesManager
    actor VehicleAndEquipmentFleetManager
    actor Collaborator
    actor GreenSpacesUser
    actor GreenSpacesManager

rectangle System {
    usecase "UC01: Register skills that may be appointed to a collaborator." as UC01
    HumanResourcesManager - -> UC01
    usecase "UC02: Register a Job" as UC02
    HumanResourcesManager - -> UC02
    usecase "UC03: Register a collaborator with a job and fundamental characteristics." as UC03
    HumanResourcesManager - -> UC03
    usecase "UC04: Assign skills to a collaborator ." as UC04
    HumanResourcesManager - -> UC04
    usecase "UC05: Generate a team proposal automatically ." as UC05
    HumanResourcesManager - -> UC05
    usecase "UC06: Register a vehicle." as UC06
    VehicleAndEquipmentFleetManager - -> UC06
    usecase "UC07: Register a vehicle´s check-up." as UC07
    VehicleAndEquipmentFleetManager - -> UC07
    usecase "UC08: List vehicles that need check-up." as UC08
    VehicleAndEquipmentFleetManager - -> UC08


}



@enduml

PlantUML version 1.2022.12(Sun Oct 23 19:12:26 BST 2022)
(GPL source distribution)
Java Runtime: OpenJDK Runtime Environment
JVM: OpenJDK 64-Bit Server VM
Default Encoding: Cp1252
Language: pt
Country: PT
--></g></svg>