<?xml version="1.0" encoding="us-ascii" standalone="no"?><svg xmlns="http://www.w3.org/2000/svg" xmlns:xlink="http://www.w3.org/1999/xlink" contentStyleType="text/css" height="1088px" preserveAspectRatio="none" style="width:811px;height:1088px;background:#FFFFFF;" version="1.1" viewBox="0 0 811 1088" width="811px" zoomAndPan="magnify"><defs/><g><text fill="#000000" font-family="sans-serif" font-size="14" font-weight="bold" lengthAdjust="spacing" textLength="100" x="348.75" y="25.1074">Domain Model</text><!--class Collaborator--><g id="elem_Collaborator"><rect codeLine="10" fill="#F1F1F1" height="148.3477" id="Collaborator" rx="2.5" ry="2.5" style="stroke:#181818;stroke-width:0.5;" width="115" x="376" y="180.6211"/><text fill="#000000" font-family="sans-serif" font-size="14" lengthAdjust="spacing" textLength="78" x="394.5" y="200.7285">Collaborator</text><line style="stroke:#181818;stroke-width:0.5;" x1="377" x2="490" y1="209.2422" y2="209.2422"/><text fill="#000000" font-family="sans-serif" font-size="14" lengthAdjust="spacing" textLength="35" x="382" y="228.3496">name</text><text fill="#000000" font-family="sans-serif" font-size="14" lengthAdjust="spacing" textLength="72" x="382" y="246.9707">dateOfBirth</text><text fill="#000000" font-family="sans-serif" font-size="14" lengthAdjust="spacing" textLength="93" x="382" y="265.5918">admissionDate</text><text fill="#000000" font-family="sans-serif" font-size="14" lengthAdjust="spacing" textLength="89" x="382" y="284.2129">phoneNumber</text><text fill="#000000" font-family="sans-serif" font-size="14" lengthAdjust="spacing" textLength="103" x="382" y="302.834">taxpayerNumber</text><text fill="#000000" font-family="sans-serif" font-size="14" lengthAdjust="spacing" textLength="33" x="382" y="321.4551">email</text></g><!--class Document--><g id="elem_Document"><rect codeLine="19" fill="#F1F1F1" height="55.2422" id="Document" rx="2.5" ry="2.5" style="stroke:#181818;stroke-width:0.5;" width="70" x="561.5" y="227.1211"/><text fill="#000000" font-family="sans-serif" font-size="14" lengthAdjust="spacing" textLength="64" x="564.5" y="247.2285">Document</text><line style="stroke:#181818;stroke-width:0.5;" x1="562.5" x2="630.5" y1="255.7422" y2="255.7422"/><text fill="#000000" font-family="sans-serif" font-size="14" lengthAdjust="spacing" textLength="48" x="567.5" y="274.8496">number</text></g><!--class DocumentType--><g id="elem_DocumentType"><rect codeLine="23" fill="#F1F1F1" height="55.2422" id="DocumentType" rx="2.5" ry="2.5" style="stroke:#181818;stroke-width:0.5;" width="102" x="702.5" y="227.1211"/><text fill="#000000" font-family="sans-serif" font-size="14" lengthAdjust="spacing" textLength="96" x="705.5" y="247.2285">DocumentType</text><line style="stroke:#181818;stroke-width:0.5;" x1="703.5" x2="803.5" y1="255.7422" y2="255.7422"/><text fill="#000000" font-family="sans-serif" font-size="14" lengthAdjust="spacing" textLength="27" x="708.5" y="274.8496">type</text></g><!--class Address--><g id="elem_Address"><rect codeLine="27" fill="#F1F1F1" height="73.8633" id="Address" rx="2.5" ry="2.5" style="stroke:#181818;stroke-width:0.5;" width="90" x="527.5" y="854.6211"/><text fill="#000000" font-family="sans-serif" font-size="14" lengthAdjust="spacing" textLength="52" x="546.5" y="874.7285">Address</text><line style="stroke:#181818;stroke-width:0.5;" x1="528.5" x2="616.5" y1="883.2422" y2="883.2422"/><text fill="#000000" font-family="sans-serif" font-size="14" lengthAdjust="spacing" textLength="36" x="533.5" y="902.3496">street</text><text fill="#000000" font-family="sans-serif" font-size="14" lengthAdjust="spacing" textLength="78" x="533.5" y="920.9707">doorNumber</text></g><!--class PostCode--><g id="elem_PostCode"><rect codeLine="32" fill="#F1F1F1" height="73.8633" id="PostCode" rx="2.5" ry="2.5" style="stroke:#181818;stroke-width:0.5;" width="122" x="546.5" y="1007.6211"/><text fill="#000000" font-family="sans-serif" font-size="14" lengthAdjust="spacing" textLength="62" x="576.5" y="1027.7285">PostCode</text><line style="stroke:#181818;stroke-width:0.5;" x1="547.5" x2="667.5" y1="1036.2422" y2="1036.2422"/><text fill="#000000" font-family="sans-serif" font-size="14" lengthAdjust="spacing" textLength="110" x="552.5" y="1055.3496">postCodeNumber</text><text fill="#000000" font-family="sans-serif" font-size="14" lengthAdjust="spacing" textLength="69" x="552.5" y="1073.9707">localization</text></g><!--class Skill--><g id="elem_Skill"><rect codeLine="37" fill="#F1F1F1" height="55.2422" id="Skill" rx="2.5" ry="2.5" style="stroke:#181818;stroke-width:0.5;" width="47" x="410" y="46.6211"/><text fill="#000000" font-family="sans-serif" font-size="14" lengthAdjust="spacing" textLength="25" x="421" y="66.7285">Skill</text><line style="stroke:#181818;stroke-width:0.5;" x1="411" x2="456" y1="75.2422" y2="75.2422"/><text fill="#000000" font-family="sans-serif" font-size="14" lengthAdjust="spacing" textLength="35" x="416" y="94.3496">name</text></g><!--class Job--><g id="elem_Job"><rect codeLine="41" fill="#F1F1F1" height="55.2422" id="Job" rx="2.5" ry="2.5" style="stroke:#181818;stroke-width:0.5;" width="47" x="316" y="505.6211"/><text fill="#000000" font-family="sans-serif" font-size="14" lengthAdjust="spacing" textLength="22" x="328.5" y="525.7285">Job</text><line style="stroke:#181818;stroke-width:0.5;" x1="317" x2="362" y1="534.2422" y2="534.2422"/><text fill="#000000" font-family="sans-serif" font-size="14" lengthAdjust="spacing" textLength="35" x="322" y="553.3496">name</text></g><!--class Team--><g id="elem_Team"><rect codeLine="45" fill="#F1F1F1" height="36.6211" id="Team" rx="2.5" ry="2.5" style="stroke:#181818;stroke-width:0.5;" width="42" x="412.5" y="407.6211"/><text fill="#000000" font-family="sans-serif" font-size="14" lengthAdjust="spacing" textLength="36" x="415.5" y="427.7285">Team</text><line style="stroke:#181818;stroke-width:0.5;" x1="413.5" x2="453.5" y1="436.2422" y2="436.2422"/></g><!--class GreenSpace--><g id="elem_GreenSpace"><rect codeLine="48" fill="#F1F1F1" height="73.8633" id="GreenSpace" rx="2.5" ry="2.5" style="stroke:#181818;stroke-width:0.5;" width="86" x="287.5" y="854.6211"/><text fill="#000000" font-family="sans-serif" font-size="14" lengthAdjust="spacing" textLength="80" x="290.5" y="874.7285">GreenSpace</text><line style="stroke:#181818;stroke-width:0.5;" x1="288.5" x2="372.5" y1="883.2422" y2="883.2422"/><text fill="#000000" font-family="sans-serif" font-size="14" lengthAdjust="spacing" textLength="35" x="293.5" y="902.3496">name</text><text fill="#000000" font-family="sans-serif" font-size="14" lengthAdjust="spacing" textLength="29" x="293.5" y="920.9707">area</text></g><!--class TaskAgenda--><g id="elem_TaskAgenda"><rect codeLine="53" fill="#F1F1F1" height="73.8633" id="TaskAgenda" rx="2.5" ry="2.5" style="stroke:#181818;stroke-width:0.5;" width="86" x="287.5" y="639.6211"/><text fill="#000000" font-family="sans-serif" font-size="14" lengthAdjust="spacing" textLength="80" x="290.5" y="659.7285">TaskAgenda</text><line style="stroke:#181818;stroke-width:0.5;" x1="288.5" x2="372.5" y1="668.2422" y2="668.2422"/><text fill="#000000" font-family="sans-serif" font-size="14" lengthAdjust="spacing" textLength="58" x="293.5" y="687.3496">startDate</text><text fill="#000000" font-family="sans-serif" font-size="14" lengthAdjust="spacing" textLength="54" x="293.5" y="705.9707">endDate</text></g><!--class Task--><g id="elem_Task"><rect codeLine="58" fill="#F1F1F1" height="55.2422" id="Task" rx="2.5" ry="2.5" style="stroke:#181818;stroke-width:0.5;" width="81" x="200" y="505.6211"/><text fill="#000000" font-family="sans-serif" font-size="14" lengthAdjust="spacing" textLength="31" x="225" y="525.7285">Task</text><line style="stroke:#181818;stroke-width:0.5;" x1="201" x2="280" y1="534.2422" y2="534.2422"/><text fill="#000000" font-family="sans-serif" font-size="14" lengthAdjust="spacing" textLength="69" x="206" y="553.3496">description</text></g><!--class Agenda--><g id="elem_Agenda"><rect codeLine="62" fill="#F1F1F1" height="36.6211" id="Agenda" rx="2.5" ry="2.5" style="stroke:#181818;stroke-width:0.5;" width="55" x="7" y="514.6211"/><text fill="#000000" font-family="sans-serif" font-size="14" lengthAdjust="spacing" textLength="49" x="10" y="534.7285">Agenda</text><line style="stroke:#181818;stroke-width:0.5;" x1="8" x2="61" y1="543.2422" y2="543.2422"/></g><!--class Garden--><g id="elem_Garden"><rect fill="#F1F1F1" height="36.6211" id="Garden" rx="2.5" ry="2.5" style="stroke:#181818;stroke-width:0.5;" width="54" x="86.5" y="1026.1211"/><text fill="#000000" font-family="sans-serif" font-size="14" lengthAdjust="spacing" textLength="48" x="89.5" y="1046.2285">Garden</text><line style="stroke:#181818;stroke-width:0.5;" x1="87.5" x2="139.5" y1="1054.7422" y2="1054.7422"/></g><!--class MediumPark--><g id="elem_MediumPark"><rect fill="#F1F1F1" height="36.6211" id="MediumPark" rx="2.5" ry="2.5" style="stroke:#181818;stroke-width:0.5;" width="84" x="175.5" y="1026.1211"/><text fill="#000000" font-family="sans-serif" font-size="14" lengthAdjust="spacing" textLength="78" x="178.5" y="1046.2285">MediumPark</text><line style="stroke:#181818;stroke-width:0.5;" x1="176.5" x2="258.5" y1="1054.7422" y2="1054.7422"/></g><!--class LargePark--><g id="elem_LargePark"><rect fill="#F1F1F1" height="36.6211" id="LargePark" rx="2.5" ry="2.5" style="stroke:#181818;stroke-width:0.5;" width="72" x="294.5" y="1026.1211"/><text fill="#000000" font-family="sans-serif" font-size="14" lengthAdjust="spacing" textLength="66" x="297.5" y="1046.2285">LargePark</text><line style="stroke:#181818;stroke-width:0.5;" x1="295.5" x2="365.5" y1="1054.7422" y2="1054.7422"/></g><!--class SortingAlgorithm--><g id="elem_SortingAlgorithm"><rect fill="#F1F1F1" height="36.6211" id="SortingAlgorithm" rx="2.5" ry="2.5" style="stroke:#181818;stroke-width:0.5;" width="110" x="401.5" y="1026.1211"/><text fill="#000000" font-family="sans-serif" font-size="14" lengthAdjust="spacing" textLength="104" x="404.5" y="1046.2285">SortingAlgorithm</text><line style="stroke:#181818;stroke-width:0.5;" x1="402.5" x2="510.5" y1="1054.7422" y2="1054.7422"/></g><ellipse cx="162.5" cy="533.1211" fill="#181818" rx="2" ry="2" style="stroke:#181818;stroke-width:1.0;"/><!--link Address to PostCode--><g id="link_Address_PostCode"><path codeLine="65" d="M580.88,928.7911 C586.4,952.6111 593.61,983.6711 599.12,1007.4911 " fill="none" id="Address-PostCode" style="stroke:#181818;stroke-width:1.0;"/><polygon fill="#000000" points="597.6289,973.1375,598.4497,963.6624,592.7237,964.9895,597.6289,973.1375" style="stroke:#000000;stroke-width:1.0;"/><text fill="#000000" font-family="sans-serif" font-size="13" lengthAdjust="spacing" textLength="21" x="605.5" y="973.6494">has</text><text fill="#000000" font-family="sans-serif" font-size="13" lengthAdjust="spacing" textLength="20" x="560.6117" y="950.4189">1..*</text><text fill="#000000" font-family="sans-serif" font-size="13" lengthAdjust="spacing" textLength="7" x="590.0039" y="996.4297">1</text></g><!--link Document to DocumentType--><g id="link_Document_DocumentType"><path codeLine="67" d="M631.73,254.6211 C652.53,254.6211 679.21,254.6211 702.3,254.6211 " fill="none" id="Document-DocumentType" style="stroke:#181818;stroke-width:1.0;"/><polygon fill="#000000" points="659,242.2666,649.9549,239.3277,649.9549,245.2055,659,242.2666" style="stroke:#000000;stroke-width:1.0;"/><text fill="#000000" font-family="sans-serif" font-size="13" lengthAdjust="spacing" textLength="21" x="663" y="247.6494">has</text><text fill="#000000" font-family="sans-serif" font-size="13" lengthAdjust="spacing" textLength="20" x="639.5039" y="270.1145">1..*</text><text fill="#000000" font-family="sans-serif" font-size="13" lengthAdjust="spacing" textLength="7" x="687.6078" y="250.4575">1</text></g><!--link Collaborator to Document--><g id="link_Collaborator_Document"><path codeLine="70" d="M491.43,254.6211 C514.67,254.6211 540.71,254.6211 561.05,254.6211 " fill="none" id="Collaborator-Document" style="stroke:#181818;stroke-width:1.0;"/><polygon fill="#000000" points="518.25,242.2666,509.2049,239.3277,509.2049,245.2055,518.25,242.2666" style="stroke:#000000;stroke-width:1.0;"/><text fill="#000000" font-family="sans-serif" font-size="13" lengthAdjust="spacing" textLength="21" x="522.25" y="247.6494">has</text><text fill="#000000" font-family="sans-serif" font-size="13" lengthAdjust="spacing" textLength="7" x="498.9168" y="250.61">1</text><text fill="#000000" font-family="sans-serif" font-size="13" lengthAdjust="spacing" textLength="7" x="546.3817" y="249.9808">1</text></g><!--link Collaborator to Job--><g id="link_Collaborator_Job"><path codeLine="71" d="M392.48,328.8111 C380.26,353.2511 367.9,381.0311 359.5,407.6211 C349.14,440.3911 343.97,479.7911 341.51,505.3711 " fill="none" id="Collaborator-Job" style="stroke:#181818;stroke-width:1.0;"/><polygon fill="#000000" points="363.1132,431.0704,368.4456,423.1954,362.7983,421.5651,363.1132,431.0704" style="stroke:#000000;stroke-width:1.0;"/><text fill="#000000" font-family="sans-serif" font-size="13" lengthAdjust="spacing" textLength="21" x="373.5" y="431.6494">has</text><text fill="#000000" font-family="sans-serif" font-size="13" lengthAdjust="spacing" textLength="20" x="367.4577" y="350.9764">1..*</text><text fill="#000000" font-family="sans-serif" font-size="13" lengthAdjust="spacing" textLength="7" x="334.1841" y="494.4751">1</text></g><!--link Address to Collaborator--><g id="link_Address_Collaborator"><path codeLine="72" d="M572.5,854.4911 C572.5,834.1211 572.5,808.2011 572.5,785.1211 C572.5,425.1211 572.5,425.1211 572.5,425.1211 C572.5,370.8911 529.43,324.5111 491.24,294.0511 " fill="none" id="Address-Collaborator" style="stroke:#181818;stroke-width:1.0;"/><polygon fill="#000000" points="578.2175,605.2149,579.8281,595.8417,574.011,596.6851,578.2175,605.2149" style="stroke:#000000;stroke-width:1.0;"/><text fill="#000000" font-family="sans-serif" font-size="13" lengthAdjust="spacing" textLength="25" x="586.5" y="605.6494">lives</text><text fill="#000000" font-family="sans-serif" font-size="13" lengthAdjust="spacing" textLength="7" x="564.8766" y="843.4297">1</text><text fill="#000000" font-family="sans-serif" font-size="13" lengthAdjust="spacing" textLength="20" x="499.0724" y="294.6524">1..*</text></g><!--link Skill to Collaborator--><g id="link_Skill_Collaborator"><path codeLine="73" d="M433.5,101.8411 C433.5,122.6611 433.5,152.5911 433.5,180.3811 " fill="none" id="Skill-Collaborator" style="stroke:#181818;stroke-width:1.0;"/><polygon fill="#000000" points="438.5,136.2666,435.5611,145.3117,441.4389,145.3117,438.5,136.2666" style="stroke:#000000;stroke-width:1.0;"/><text fill="#000000" font-family="sans-serif" font-size="13" lengthAdjust="spacing" textLength="21" x="447.5" y="146.6494">has</text><text fill="#000000" font-family="sans-serif" font-size="13" lengthAdjust="spacing" textLength="5" x="427.9531" y="123.7979">*</text><text fill="#000000" font-family="sans-serif" font-size="13" lengthAdjust="spacing" textLength="5" x="428.2539" y="169.2619">*</text></g><!--link Collaborator to Team--><g id="link_Collaborator_Team"><path codeLine="74" d="M433.5,328.9811 C433.5,357.9711 433.5,388.7711 433.5,407.4811 " fill="none" id="Collaborator-Team" style="stroke:#181818;stroke-width:1.0;"/><polygon fill="#000000" points="438.5,363.2666,435.5611,372.3117,441.4389,372.3117,438.5,363.2666" style="stroke:#000000;stroke-width:1.0;"/><text fill="#000000" font-family="sans-serif" font-size="13" lengthAdjust="spacing" textLength="51" x="447.5" y="373.6494">Contains</text><text fill="#000000" font-family="sans-serif" font-size="13" lengthAdjust="spacing" textLength="20" x="412.5469" y="350.9043">1..*</text><text fill="#000000" font-family="sans-serif" font-size="13" lengthAdjust="spacing" textLength="7" x="425.4281" y="396.3004">1</text></g><!--link GreenSpace to Address--><g id="link_GreenSpace_Address"><path codeLine="77" d="M373.76,891.6211 C417,891.6211 483.19,891.6211 527.15,891.6211 " fill="none" id="GreenSpace-Address" style="stroke:#181818;stroke-width:1.0;"/><polygon fill="#000000" points="418,879.2666,408.9549,876.3277,408.9549,882.2055,418,879.2666" style="stroke:#000000;stroke-width:1.0;"/><text fill="#000000" font-family="sans-serif" font-size="13" lengthAdjust="spacing" textLength="70" x="422" y="884.6494">is located in</text><text fill="#000000" font-family="sans-serif" font-size="13" lengthAdjust="spacing" textLength="7" x="381.5046" y="887.277">1</text><text fill="#000000" font-family="sans-serif" font-size="13" lengthAdjust="spacing" textLength="7" x="512.3645" y="887.3288">1</text></g><!--reverse link GreenSpace to Garden--><g id="link_GreenSpace_Garden"><path codeLine="78" d="M272.2078,929.2607 C236.7078,951.8707 200.58,975.8011 157.5,1007.6211 C149.72,1013.3711 141.45,1019.9911 134.2,1025.9811 " fill="none" id="GreenSpace-backto-Garden" style="stroke:#181818;stroke-width:1.0;"/><polygon fill="none" points="287.39,919.5911,268.9846,924.1999,275.431,934.3214,287.39,919.5911" style="stroke:#181818;stroke-width:1.0;"/></g><!--reverse link GreenSpace to MediumPark--><g id="link_GreenSpace_MediumPark"><path codeLine="79" d="M292.6458,943.2029 C269.6658,973.9129 248.45,1002.2611 230.7,1025.9811 " fill="none" id="GreenSpace-backto-MediumPark" style="stroke:#181818;stroke-width:1.0;"/><polygon fill="none" points="303.43,928.7911,287.8418,939.6082,297.4497,946.7977,303.43,928.7911" style="stroke:#181818;stroke-width:1.0;"/></g><!--reverse link GreenSpace to LargePark--><g id="link_GreenSpace_LargePark"><path codeLine="80" d="M330.5,946.7911 C330.5,977.5011 330.5,1002.2611 330.5,1025.9811 " fill="none" id="GreenSpace-backto-LargePark" style="stroke:#181818;stroke-width:1.0;"/><polygon fill="none" points="330.5,928.7911,324.5,946.7911,336.5,946.7911,330.5,928.7911" style="stroke:#181818;stroke-width:1.0;"/></g><!--link GreenSpace to SortingAlgorithm--><g id="link_GreenSpace_SortingAlgorithm"><path codeLine="81" d="M360.68,928.7911 C386.31,959.5011 421.99,1002.2611 441.78,1025.9811 " fill="none" id="GreenSpace-SortingAlgorithm" style="stroke:#181818;stroke-width:1.0;"/><polygon fill="#000000" points="408.7034,972.1056,405.1649,963.2778,400.6518,967.0437,408.7034,972.1056" style="stroke:#000000;stroke-width:1.0;"/><text fill="#000000" font-family="sans-serif" font-size="13" lengthAdjust="spacing" textLength="78" x="414.5" y="973.6494">makes use of</text><text fill="#000000" font-family="sans-serif" font-size="13" lengthAdjust="spacing" textLength="5" x="360.2645" y="950.4189">*</text><text fill="#000000" font-family="sans-serif" font-size="13" lengthAdjust="spacing" textLength="7" x="429.2001" y="1014.8004">1</text></g><!--link TaskAgenda to GreenSpace--><g id="link_TaskAgenda_GreenSpace"><path codeLine="84" d="M330.5,713.7511 C330.5,752.9211 330.5,815.0711 330.5,854.3111 " fill="none" id="TaskAgenda-GreenSpace" style="stroke:#181818;stroke-width:1.0;"/><polygon fill="#000000" points="335.5,789.2666,338.4389,780.2215,332.5611,780.2215,335.5,789.2666" style="stroke:#000000;stroke-width:1.0;"/><text fill="#000000" font-family="sans-serif" font-size="13" lengthAdjust="spacing" textLength="77" x="344.5" y="789.6494">Carried out in</text><text fill="#000000" font-family="sans-serif" font-size="13" lengthAdjust="spacing" textLength="20" x="308.8438" y="735.3723">1..*</text><text fill="#000000" font-family="sans-serif" font-size="13" lengthAdjust="spacing" textLength="7" x="322.8766" y="843.2176">1</text></g><!--link Team to TaskAgenda--><g id="link_Team_TaskAgenda"><path codeLine="86" d="M426.65,444.9011 C416.72,470.5611 397.64,519.4011 380.5,560.6211 C369.47,587.1611 356.52,616.9011 346.56,639.4911 " fill="none" id="Team-TaskAgenda" style="stroke:#181818;stroke-width:1.0;"/><polygon fill="#000000" points="409.403,528.6429,403.2427,535.8887,408.6781,538.1258,409.403,528.6429" style="stroke:#000000;stroke-width:1.0;"/><text fill="#000000" font-family="sans-serif" font-size="13" lengthAdjust="spacing" textLength="71" x="416.5" y="538.6494">executes by</text><text fill="#000000" font-family="sans-serif" font-size="13" lengthAdjust="spacing" textLength="7" x="416.8684" y="466.3509">1</text><text fill="#000000" font-family="sans-serif" font-size="13" lengthAdjust="spacing" textLength="5" x="343.9754" y="628.4297">*</text></g><!--link Agenda to apoint33--><g id="link_Agenda_apoint33"><path d="M62.27,533.1211 C95.8,533.1211 149.11,533.1211 160.37,533.1211 " fill="none" id="Agenda-apoint33" style="stroke:#181818;stroke-width:1.0;"/><polygon fill="#000000" points="89.25,520.7666,80.2049,517.8277,80.2049,523.7055,89.25,520.7666" style="stroke:#000000;stroke-width:1.0;"/><text fill="#000000" font-family="sans-serif" font-size="13" lengthAdjust="spacing" textLength="49" x="93.25" y="526.1494">contains</text><text fill="#000000" font-family="sans-serif" font-size="13" lengthAdjust="spacing" textLength="7" x="69.8921" y="528.1592">1</text></g><!--link apoint33 to Task--><g id="link_apoint33_Task"><path d="M164.63,533.1211 C176.39,533.1211 188.14,533.1211 199.9,533.1211 " fill="none" id="apoint33-Task" style="stroke:#181818;stroke-width:1.0;"/><text fill="#000000" font-family="sans-serif" font-size="13" lengthAdjust="spacing" textLength="5" x="186.9534" y="528.5867">*</text></g><!--link apoint33 to TaskAgenda--><g id="link_apoint33_TaskAgenda"><path d="M163.17,535.2111 C165.53,538.9811 173.76,551.7511 182.5,560.6211 C214.71,593.2911 256.34,624.8611 287.24,646.6311 " fill="none" id="apoint33-TaskAgenda" style="stroke:#181818;stroke-width:1.0;stroke-dasharray:7.0,7.0;"/></g><!--SRC=[TLJBZjim3BpxAuXS-a0JjDSWM21DW4MBRhj0zWSOYx65o98XqUrcj_ttql9BJbfVB96Z8MSeEvorhT5Z1PMpBY-zgmZODvI5CLDZViQ23dmn19voHbkO511ALEwNjWMSq8GqaniCOSlizR5X-f8xUz0l11-pKYk2NFjSYEAw8YwT2bd6cgNCtbMeBJmuHIRB8Wtid35uT1xPUNZDG1wB5SM5GgOVfy_QSndtg2eTWdPsBuaOgKjdwNjJ7Sd7FUDpZHVoIOYafid-3FNsBcygijoNwd0tsQTBJHs2PJNbjqfvadUN2-o9k6lLkQ7e27vqWNUYjGFN_IvfpRWSZNv15adJiSDP6vCuCIQ-kkE_ma-4rUkqlPUUx476IzTseYTCZc4uRmko2WSnw7aqLk9nFOFtX8f2xdKzxtgWai1WqkBJQlL-0Skbh1QZ6x264WFSPTbWzWYCk7G44_RDCdtIIpDBPBFhrDBDIKV2ArpVQ0SMdqVSfAMZYi3PuJKO_PC2RB8uE5ZqacznBUFcFvLZWNQIWjivo_ATjE0htTDivwgJcK-QXzRNe4EyQamAvFExI-6RtrBx7hqYUnD-8AMRwX7z-IRr3Nr1rvd5fEJWFCklOsiAvpMNhQeAp-9I4mZSwNQYxVMQQvhkv_Lyaf9hW1rwhqMPQxXLrr977wCH_I0IhZNGC-Notmfml8Z3OubeMuyLL3uCGVZUjh4F7V8Th5O9try0]--></g></svg>