<?xml version="1.0" encoding="us-ascii" standalone="no"?><svg xmlns="http://www.w3.org/2000/svg" xmlns:xlink="http://www.w3.org/1999/xlink" contentStyleType="text/css" height="1078px" preserveAspectRatio="none" style="width:394px;height:1078px;background:#FFFFFF;" version="1.1" viewBox="0 0 394 1078" width="394px" zoomAndPan="magnify"><defs/><g><text fill="#000000" font-family="sans-serif" font-size="14" font-weight="bold" lengthAdjust="spacing" textLength="100" x="140" y="25.1074">Domain Model</text><!--class Collaborator--><g id="elem_Collaborator"><rect codeLine="10" fill="#F1F1F1" height="148.3477" id="Collaborator" rx="2.5" ry="2.5" style="stroke:#181818;stroke-width:0.5;" width="115" x="11" y="46.6211"/><text fill="#000000" font-family="sans-serif" font-size="14" lengthAdjust="spacing" textLength="78" x="29.5" y="66.7285">Collaborator</text><line style="stroke:#181818;stroke-width:0.5;" x1="12" x2="125" y1="75.2422" y2="75.2422"/><text fill="#000000" font-family="sans-serif" font-size="14" lengthAdjust="spacing" textLength="35" x="17" y="94.3496">name</text><text fill="#000000" font-family="sans-serif" font-size="14" lengthAdjust="spacing" textLength="72" x="17" y="112.9707">dateOfBirth</text><text fill="#000000" font-family="sans-serif" font-size="14" lengthAdjust="spacing" textLength="93" x="17" y="131.5918">admissionDate</text><text fill="#000000" font-family="sans-serif" font-size="14" lengthAdjust="spacing" textLength="89" x="17" y="150.2129">phoneNumber</text><text fill="#000000" font-family="sans-serif" font-size="14" lengthAdjust="spacing" textLength="103" x="17" y="168.834">taxpayerNumber</text><text fill="#000000" font-family="sans-serif" font-size="14" lengthAdjust="spacing" textLength="33" x="17" y="187.4551">email</text></g><!--class Team--><g id="elem_Team"><rect codeLine="19" fill="#F1F1F1" height="55.2422" id="Team" rx="2.5" ry="2.5" style="stroke:#181818;stroke-width:0.5;" width="42" x="47.5" y="273.6211"/><text fill="#000000" font-family="sans-serif" font-size="14" lengthAdjust="spacing" textLength="36" x="50.5" y="293.7285">Team</text><line style="stroke:#181818;stroke-width:0.5;" x1="48.5" x2="88.5" y1="302.2422" y2="302.2422"/><text fill="#000000" font-family="sans-serif" font-size="14" lengthAdjust="spacing" textLength="11" x="53.5" y="321.3496">id</text></g><!--class GreenSpace--><g id="elem_GreenSpace"><rect codeLine="23" fill="#F1F1F1" height="73.8633" id="GreenSpace" rx="2.5" ry="2.5" style="stroke:#181818;stroke-width:0.5;" width="86" x="109.5" y="899.6211"/><text fill="#000000" font-family="sans-serif" font-size="14" lengthAdjust="spacing" textLength="80" x="112.5" y="919.7285">GreenSpace</text><line style="stroke:#181818;stroke-width:0.5;" x1="110.5" x2="194.5" y1="928.2422" y2="928.2422"/><text fill="#000000" font-family="sans-serif" font-size="14" lengthAdjust="spacing" textLength="35" x="115.5" y="947.3496">name</text><text fill="#000000" font-family="sans-serif" font-size="14" lengthAdjust="spacing" textLength="29" x="115.5" y="965.9707">area</text></g><!--class TaskAgenda--><g id="elem_TaskAgenda"><rect codeLine="28" fill="#F1F1F1" height="73.8633" id="TaskAgenda" rx="2.5" ry="2.5" style="stroke:#181818;stroke-width:0.5;" width="123" x="7" y="488.1211"/><text fill="#000000" font-family="sans-serif" font-size="14" lengthAdjust="spacing" textLength="80" x="28.5" y="508.2285">TaskAgenda</text><line style="stroke:#181818;stroke-width:0.5;" x1="8" x2="129" y1="516.7422" y2="516.7422"/><text fill="#000000" font-family="sans-serif" font-size="14" lengthAdjust="spacing" textLength="58" x="13" y="535.8496">startDate</text><text fill="#000000" font-family="sans-serif" font-size="14" lengthAdjust="spacing" textLength="111" x="13" y="554.4707">expectedDuration</text></g><!--class Agenda--><g id="elem_Agenda"><rect codeLine="33" fill="#F1F1F1" height="36.6211" id="Agenda" rx="2.5" ry="2.5" style="stroke:#181818;stroke-width:0.5;" width="55" x="122" y="659.6211"/><text fill="#000000" font-family="sans-serif" font-size="14" lengthAdjust="spacing" textLength="49" x="125" y="679.7285">Agenda</text><line style="stroke:#181818;stroke-width:0.5;" x1="123" x2="176" y1="688.2422" y2="688.2422"/></g><!--class TaskToDoList--><g id="elem_TaskToDoList"><rect codeLine="36" fill="#F1F1F1" height="111.1055" id="TaskToDoList" rx="2.5" ry="2.5" style="stroke:#181818;stroke-width:0.5;" width="159" x="228" y="469.6211"/><text fill="#000000" font-family="sans-serif" font-size="14" lengthAdjust="spacing" textLength="88" x="263.5" y="489.7285">TaskToDoList</text><line style="stroke:#181818;stroke-width:0.5;" x1="229" x2="386" y1="498.2422" y2="498.2422"/><text fill="#000000" font-family="sans-serif" font-size="14" lengthAdjust="spacing" textLength="92" x="234" y="517.3496">taskReference</text><text fill="#000000" font-family="sans-serif" font-size="14" lengthAdjust="spacing" textLength="38" x="234" y="535.9707">status</text><text fill="#000000" font-family="sans-serif" font-size="14" lengthAdjust="spacing" textLength="51" x="234" y="554.5918">urgency</text><text fill="#000000" font-family="sans-serif" font-size="14" lengthAdjust="spacing" textLength="147" x="234" y="573.2129">aproxExpectedDuration</text></g><!--class Garden--><g id="elem_Garden"><rect fill="#F1F1F1" height="36.6211" id="Garden" rx="2.5" ry="2.5" style="stroke:#181818;stroke-width:0.5;" width="54" x="21.5" y="1034.6211"/><text fill="#000000" font-family="sans-serif" font-size="14" lengthAdjust="spacing" textLength="48" x="24.5" y="1054.7285">Garden</text><line style="stroke:#181818;stroke-width:0.5;" x1="22.5" x2="74.5" y1="1063.2422" y2="1063.2422"/></g><!--class MediumPark--><g id="elem_MediumPark"><rect fill="#F1F1F1" height="36.6211" id="MediumPark" rx="2.5" ry="2.5" style="stroke:#181818;stroke-width:0.5;" width="84" x="110.5" y="1034.6211"/><text fill="#000000" font-family="sans-serif" font-size="14" lengthAdjust="spacing" textLength="78" x="113.5" y="1054.7285">MediumPark</text><line style="stroke:#181818;stroke-width:0.5;" x1="111.5" x2="193.5" y1="1063.2422" y2="1063.2422"/></g><!--class LargePark--><g id="elem_LargePark"><rect fill="#F1F1F1" height="36.6211" id="LargePark" rx="2.5" ry="2.5" style="stroke:#181818;stroke-width:0.5;" width="72" x="229.5" y="1034.6211"/><text fill="#000000" font-family="sans-serif" font-size="14" lengthAdjust="spacing" textLength="66" x="232.5" y="1054.7285">LargePark</text><line style="stroke:#181818;stroke-width:0.5;" x1="230.5" x2="300.5" y1="1063.2422" y2="1063.2422"/></g><!--link Collaborator to Team--><g id="link_Collaborator_Team"><path codeLine="44" d="M68.5,194.7411 C68.5,222.6611 68.5,252.7611 68.5,273.6111 " fill="none" id="Collaborator-Team" style="stroke:#181818;stroke-width:1.0;"/><polygon fill="#000000" points="73.5,229.2666,70.5611,238.3117,76.4389,238.3117,73.5,229.2666" style="stroke:#000000;stroke-width:1.0;"/><text fill="#000000" font-family="sans-serif" font-size="13" lengthAdjust="spacing" textLength="51" x="82.5" y="239.6494">Contains</text><text fill="#000000" font-family="sans-serif" font-size="13" lengthAdjust="spacing" textLength="20" x="47.5156" y="216.8995">1..*</text><text fill="#000000" font-family="sans-serif" font-size="13" lengthAdjust="spacing" textLength="7" x="60.6906" y="262.3177">1</text></g><!--reverse link GreenSpace to Garden--><g id="link_GreenSpace_Garden"><path codeLine="47" d="M107.4875,987.1751 C89.1575,1007.3551 79.26,1018.2511 64.64,1034.3611 " fill="none" id="GreenSpace-backto-Garden" style="stroke:#181818;stroke-width:1.0;"/><polygon fill="none" points="119.59,973.8511,103.0461,983.1409,111.9288,991.2093,119.59,973.8511" style="stroke:#181818;stroke-width:1.0;"/></g><!--reverse link GreenSpace to MediumPark--><g id="link_GreenSpace_MediumPark"><path codeLine="48" d="M152.5,991.8511 C152.5,1012.0311 152.5,1018.2511 152.5,1034.3611 " fill="none" id="GreenSpace-backto-MediumPark" style="stroke:#181818;stroke-width:1.0;"/><polygon fill="none" points="152.5,973.8511,146.5,991.8511,158.5,991.8511,152.5,973.8511" style="stroke:#181818;stroke-width:1.0;"/></g><!--reverse link GreenSpace to LargePark--><g id="link_GreenSpace_LargePark"><path codeLine="49" d="M200.8951,986.6613 C220.8151,1006.8413 232.08,1018.2511 247.97,1034.3611 " fill="none" id="GreenSpace-backto-LargePark" style="stroke:#181818;stroke-width:1.0;"/><polygon fill="none" points="188.25,973.8511,196.6251,990.8763,205.1652,982.4462,188.25,973.8511" style="stroke:#181818;stroke-width:1.0;"/></g><!--link TaskAgenda to GreenSpace--><g id="link_TaskAgenda_GreenSpace"><path codeLine="52" d="M68.5,562.1211 C68.5,592.7111 68.5,637.8011 68.5,677.1211 C68.5,677.1211 68.5,677.1211 68.5,838.6211 C68.5,866.4711 88.53,890.2511 109.02,907.2911 " fill="none" id="TaskAgenda-GreenSpace" style="stroke:#181818;stroke-width:1.0;"/><polygon fill="#000000" points="74.083,772.2325,75.9473,762.9065,70.1095,763.5918,74.083,772.2325" style="stroke:#000000;stroke-width:1.0;"/><text fill="#000000" font-family="sans-serif" font-size="13" lengthAdjust="spacing" textLength="77" x="82.5" y="772.6494">Carried out in</text><text fill="#000000" font-family="sans-serif" font-size="13" lengthAdjust="spacing" textLength="20" x="46.7813" y="584.0065">1..*</text><text fill="#000000" font-family="sans-serif" font-size="13" lengthAdjust="spacing" textLength="7" x="94.5326" y="898.3243">1</text></g><!--link Team to TaskAgenda--><g id="link_Team_TaskAgenda"><path codeLine="53" d="M68.5,328.9011 C68.5,368.6811 68.5,443.4911 68.5,488.0611 " fill="none" id="Team-TaskAgenda" style="stroke:#181818;stroke-width:1.0;"/><polygon fill="#000000" points="73.5,394.2666,70.5611,403.3117,76.4389,403.3117,73.5,394.2666" style="stroke:#000000;stroke-width:1.0;"/><text fill="#000000" font-family="sans-serif" font-size="13" lengthAdjust="spacing" textLength="71" x="82.5" y="404.6494">executed by</text><text fill="#000000" font-family="sans-serif" font-size="13" lengthAdjust="spacing" textLength="7" x="60.7344" y="350.871">1</text><text fill="#000000" font-family="sans-serif" font-size="13" lengthAdjust="spacing" textLength="5" x="63.0391" y="476.7287">*</text></g><!--link TaskToDoList to GreenSpace--><g id="link_TaskToDoList_GreenSpace"><path codeLine="54" d="M287.92,580.9511 C279.48,609.2911 271.5,644.6511 271.5,677.1211 C271.5,677.1211 271.5,677.1211 271.5,838.6211 C271.5,879.0011 229.82,905.5611 195.8,920.5111 " fill="none" id="TaskToDoList-GreenSpace" style="stroke:#181818;stroke-width:1.0;"/><polygon fill="#000000" points="275.1909,772.0922,280.3955,764.1321,274.7227,762.5931,275.1909,772.0922" style="stroke:#000000;stroke-width:1.0;"/><text fill="#000000" font-family="sans-serif" font-size="13" lengthAdjust="spacing" textLength="77" x="285.5" y="772.6494">Carried out in</text><text fill="#000000" font-family="sans-serif" font-size="13" lengthAdjust="spacing" textLength="20" x="264.3149" y="602.8309">1..*</text><text fill="#000000" font-family="sans-serif" font-size="13" lengthAdjust="spacing" textLength="7" x="203.5513" y="913.4988">1</text></g><!--link TaskAgenda to Agenda--><g id="link_TaskAgenda_Agenda"><path codeLine="55" d="M87.9,562.2911 C104.38,593.0011 127.31,635.7611 140.04,659.4811 " fill="none" id="TaskAgenda-Agenda" style="stroke:#181818;stroke-width:1.0;"/><polygon fill="#000000" points="126.1363,615.8606,127.8225,625.2205,133.0021,622.4418,126.1363,615.8606" style="stroke:#000000;stroke-width:1.0;"/><text fill="#000000" font-family="sans-serif" font-size="13" lengthAdjust="spacing" textLength="49" x="137.5" y="625.6494">contains</text><text fill="#000000" font-family="sans-serif" font-size="13" lengthAdjust="spacing" textLength="5" x="85.6991" y="583.9189">*</text><text fill="#000000" font-family="sans-serif" font-size="13" lengthAdjust="spacing" textLength="7" x="129.071" y="648.3004">1</text></g><!--link TaskAgenda to TaskToDoList--><g id="link_TaskAgenda_TaskToDoList"><path codeLine="56" d="M130.05,525.1211 C159.78,525.1211 195.84,525.1211 227.66,525.1211 " fill="none" id="TaskAgenda-TaskToDoList" style="stroke:#181818;stroke-width:1.0;"/><polygon fill="#000000" points="157.5,512.7666,148.4549,509.8277,148.4549,515.7055,157.5,512.7666" style="stroke:#000000;stroke-width:1.0;"/><text fill="#000000" font-family="sans-serif" font-size="13" lengthAdjust="spacing" textLength="48" x="161.5" y="518.1494">includes</text><text fill="#000000" font-family="sans-serif" font-size="13" lengthAdjust="spacing" textLength="7" x="137.978" y="521.1395">1</text><text fill="#000000" font-family="sans-serif" font-size="13" lengthAdjust="spacing" textLength="7" x="212.9771" y="521.3744">1</text></g><!--SRC=[ZL9DQnin4BthLmXV0W67vcf288rBA2HDgFC7njBOAtObBQCHjPFsltUihRrQ9uVg9Ct7Us_UABKkz43WjOyXceQYHysKKQLJfWVJmXPNlEzG4ng6iEtgWjI0ZRzSsEeDTAdEc0vIkcCcjywCtqqCA_U6-ejgd4Lj71a1AdUFt4IRb6B7GhEC7bpGJz5YfrI1qVUnws0T2JYIVbTQJW2FvMA1yNdprH4tvGtMkvHS34j9b4ZVn80_ibyZbJV3heSzKXL2uUpKdoFVAu8VQ9mTem-465RY2Pvh04AekY6rTriC5eQon41yKeExNen4kymoZiWS-uuz4w3Nk8oFBl7xF-cf_OaR90m6Z-2SKxbc4W2p7nJr57VVFg6wcDUdDdQIK1FBPzTNLvSpFP_BRLRSqGjPIc3PLD8tvwYZKLFCoi2RtmBs06GnV0W_eNNPlm2r7rAF83EMp1dbmQefsRY5KVwWlm9TQ7qFH0wjZfcr_3jzgyfyXyBI88qLr4BsXqP-jDNhlKnUhwZY-K-capvfofzmcQF5jzDnf7pOHCs-453JPOk7yhy0]--></g></svg>