<?xml version="1.0" encoding="us-ascii" standalone="no"?><svg xmlns="http://www.w3.org/2000/svg" xmlns:xlink="http://www.w3.org/1999/xlink" contentStyleType="text/css" height="1373px" preserveAspectRatio="none" style="width:1211px;height:1373px;background:#FFFFFF;" version="1.1" viewBox="0 0 1211 1373" width="1211px" zoomAndPan="magnify"><defs/><g><!--class GenerateTeamController--><g id="elem_GenerateTeamController"><rect codeLine="11" fill="#F1F1F1" height="178.3477" id="GenerateTeamController" rx="2.5" ry="2.5" style="stroke:#181818;stroke-width:0.5;" width="451" x="182.5" y="7"/><ellipse cx="324.75" cy="23" fill="#ADD1B2" rx="11" ry="11" style="stroke:#181818;stroke-width:1.0;"/><path d="M327.5156,18.875 Q327.6719,18.6563 327.8594,18.5469 Q328.0469,18.4375 328.2656,18.4375 Q328.6406,18.4375 328.875,18.7031 Q329.1094,18.9531 329.1094,19.5625 L329.1094,21.0156 Q329.1094,21.625 328.875,21.8906 Q328.6406,22.1563 328.2656,22.1563 Q327.9219,22.1563 327.7188,21.9531 Q327.5156,21.7656 327.4063,21.25 Q327.3594,20.8906 327.1719,20.7031 Q326.8438,20.3281 326.2344,20.1094 Q325.625,19.8906 325,19.8906 Q324.2344,19.8906 323.5938,20.2188 Q322.9688,20.5469 322.4688,21.2969 Q321.9844,22.0469 321.9844,23.0781 L321.9844,24.1719 Q321.9844,25.4063 322.875,26.2344 Q323.7656,27.0469 325.3594,27.0469 Q326.2969,27.0469 326.9531,26.7969 Q327.3438,26.6406 327.7656,26.2031 Q328.0313,25.9375 328.1719,25.8594 Q328.3281,25.7813 328.5313,25.7813 Q328.8594,25.7813 329.1094,26.0469 Q329.375,26.2969 329.375,26.6406 Q329.375,26.9844 329.0313,27.3906 Q328.5313,27.9688 327.7344,28.2969 Q326.6563,28.75 325.3594,28.75 Q323.8438,28.75 322.6406,28.125 Q321.6563,27.625 320.9688,26.5625 Q320.2813,25.4844 320.2813,24.2031 L320.2813,23.0469 Q320.2813,21.7188 320.8906,20.5781 Q321.5156,19.4219 322.6094,18.8125 Q323.7031,18.1875 324.9375,18.1875 Q325.6719,18.1875 326.3125,18.3594 Q326.9688,18.5156 327.5156,18.875 Z " fill="#000000"/><text fill="#000000" font-family="sans-serif" font-size="14" lengthAdjust="spacing" textLength="158" x="345.25" y="28.7969">GenerateTeamController</text><line style="stroke:#181818;stroke-width:0.5;" x1="183.5" x2="632.5" y1="39" y2="39"/><line style="stroke:#181818;stroke-width:0.5;" x1="183.5" x2="632.5" y1="47" y2="47"/><text fill="#000000" font-family="sans-serif" font-size="14" lengthAdjust="spacing" textLength="176" x="188.5" y="66.1074">+GenerateTeamController()</text><text fill="#000000" font-family="sans-serif" font-size="14" lengthAdjust="spacing" textLength="222" x="188.5" y="84.7285">-getAllSkillsByName(skillListNames)</text><text fill="#000000" font-family="sans-serif" font-size="14" lengthAdjust="spacing" textLength="199" x="188.5" y="103.3496">-getCollaboratorBySkill(skillList)</text><text fill="#000000" font-family="sans-serif" font-size="14" lengthAdjust="spacing" textLength="439" x="188.5" y="121.9707">-generateProposalTeamList(minSize,maxSize,skillList,collaboratorList)</text><text fill="#000000" font-family="sans-serif" font-size="14" lengthAdjust="spacing" textLength="85" x="188.5" y="140.5918">+getSkillList()</text><text fill="#000000" font-family="sans-serif" font-size="14" lengthAdjust="spacing" textLength="326" x="188.5" y="159.2129">+generateProposalTeams(minSize,maxSize,skillList)</text><text fill="#000000" font-family="sans-serif" font-size="14" lengthAdjust="spacing" textLength="189" x="188.5" y="177.834">+registerProposalTeam(team)</text></g><!--class Team--><g id="elem_Team"><rect codeLine="21" fill="#F1F1F1" height="103.8633" id="Team" rx="2.5" ry="2.5" style="stroke:#181818;stroke-width:0.5;" width="237" x="381.5" y="1263"/><ellipse cx="477.75" cy="1279" fill="#ADD1B2" rx="11" ry="11" style="stroke:#181818;stroke-width:1.0;"/><path d="M480.5156,1274.875 Q480.6719,1274.6563 480.8594,1274.5469 Q481.0469,1274.4375 481.2656,1274.4375 Q481.6406,1274.4375 481.875,1274.7031 Q482.1094,1274.9531 482.1094,1275.5625 L482.1094,1277.0156 Q482.1094,1277.625 481.875,1277.8906 Q481.6406,1278.1563 481.2656,1278.1563 Q480.9219,1278.1563 480.7188,1277.9531 Q480.5156,1277.7656 480.4063,1277.25 Q480.3594,1276.8906 480.1719,1276.7031 Q479.8438,1276.3281 479.2344,1276.1094 Q478.625,1275.8906 478,1275.8906 Q477.2344,1275.8906 476.5938,1276.2188 Q475.9688,1276.5469 475.4688,1277.2969 Q474.9844,1278.0469 474.9844,1279.0781 L474.9844,1280.1719 Q474.9844,1281.4063 475.875,1282.2344 Q476.7656,1283.0469 478.3594,1283.0469 Q479.2969,1283.0469 479.9531,1282.7969 Q480.3438,1282.6406 480.7656,1282.2031 Q481.0313,1281.9375 481.1719,1281.8594 Q481.3281,1281.7813 481.5313,1281.7813 Q481.8594,1281.7813 482.1094,1282.0469 Q482.375,1282.2969 482.375,1282.6406 Q482.375,1282.9844 482.0313,1283.3906 Q481.5313,1283.9688 480.7344,1284.2969 Q479.6563,1284.75 478.3594,1284.75 Q476.8438,1284.75 475.6406,1284.125 Q474.6563,1283.625 473.9688,1282.5625 Q473.2813,1281.4844 473.2813,1280.2031 L473.2813,1279.0469 Q473.2813,1277.7188 473.8906,1276.5781 Q474.5156,1275.4219 475.6094,1274.8125 Q476.7031,1274.1875 477.9375,1274.1875 Q478.6719,1274.1875 479.3125,1274.3594 Q479.9688,1274.5156 480.5156,1274.875 Z " fill="#000000"/><text fill="#000000" font-family="sans-serif" font-size="14" lengthAdjust="spacing" textLength="36" x="498.25" y="1284.7969">Team</text><line style="stroke:#181818;stroke-width:0.5;" x1="382.5" x2="617.5" y1="1295" y2="1295"/><text fill="#000000" font-family="sans-serif" font-size="14" lengthAdjust="spacing" textLength="222" x="387.5" y="1314.1074">-List&lt;Collaborator&gt; collaboratorList</text><line style="stroke:#181818;stroke-width:0.5;" x1="382.5" x2="617.5" y1="1321.6211" y2="1321.6211"/><text fill="#000000" font-family="sans-serif" font-size="14" lengthAdjust="spacing" textLength="225" x="387.5" y="1340.7285">-collaboratorHasTeam(collaborator)</text><text fill="#000000" font-family="sans-serif" font-size="14" lengthAdjust="spacing" textLength="151" x="387.5" y="1359.3496">+Team(collaboratorList)</text></g><!--class GenerateTeamUI--><g id="elem_GenerateTeamUI"><rect codeLine="28" fill="#F1F1F1" height="48" id="GenerateTeamUI" rx="2.5" ry="2.5" style="stroke:#181818;stroke-width:0.5;" width="140" x="7" y="72"/><ellipse cx="22" cy="88" fill="#ADD1B2" rx="11" ry="11" style="stroke:#181818;stroke-width:1.0;"/><path d="M24.7656,83.875 Q24.9219,83.6563 25.1094,83.5469 Q25.2969,83.4375 25.5156,83.4375 Q25.8906,83.4375 26.125,83.7031 Q26.3594,83.9531 26.3594,84.5625 L26.3594,86.0156 Q26.3594,86.625 26.125,86.8906 Q25.8906,87.1563 25.5156,87.1563 Q25.1719,87.1563 24.9688,86.9531 Q24.7656,86.7656 24.6563,86.25 Q24.6094,85.8906 24.4219,85.7031 Q24.0938,85.3281 23.4844,85.1094 Q22.875,84.8906 22.25,84.8906 Q21.4844,84.8906 20.8438,85.2188 Q20.2188,85.5469 19.7188,86.2969 Q19.2344,87.0469 19.2344,88.0781 L19.2344,89.1719 Q19.2344,90.4063 20.125,91.2344 Q21.0156,92.0469 22.6094,92.0469 Q23.5469,92.0469 24.2031,91.7969 Q24.5938,91.6406 25.0156,91.2031 Q25.2813,90.9375 25.4219,90.8594 Q25.5781,90.7813 25.7813,90.7813 Q26.1094,90.7813 26.3594,91.0469 Q26.625,91.2969 26.625,91.6406 Q26.625,91.9844 26.2813,92.3906 Q25.7813,92.9688 24.9844,93.2969 Q23.9063,93.75 22.6094,93.75 Q21.0938,93.75 19.8906,93.125 Q18.9063,92.625 18.2188,91.5625 Q17.5313,90.4844 17.5313,89.2031 L17.5313,88.0469 Q17.5313,86.7188 18.1406,85.5781 Q18.7656,84.4219 19.8594,83.8125 Q20.9531,83.1875 22.1875,83.1875 Q22.9219,83.1875 23.5625,83.3594 Q24.2188,83.5156 24.7656,83.875 Z " fill="#000000"/><text fill="#000000" font-family="sans-serif" font-size="14" lengthAdjust="spacing" textLength="108" x="36" y="93.7969">GenerateTeamUI</text><line style="stroke:#181818;stroke-width:0.5;" x1="8" x2="146" y1="104" y2="104"/><line style="stroke:#181818;stroke-width:0.5;" x1="8" x2="146" y1="112" y2="112"/></g><!--class Collaborator--><g id="elem_Collaborator"><rect codeLine="31" fill="#F1F1F1" height="271.4531" id="Collaborator" rx="2.5" ry="2.5" style="stroke:#181818;stroke-width:0.5;" width="653" x="169.5" y="804"/><ellipse cx="452.75" cy="820" fill="#ADD1B2" rx="11" ry="11" style="stroke:#181818;stroke-width:1.0;"/><path d="M455.5156,815.875 Q455.6719,815.6563 455.8594,815.5469 Q456.0469,815.4375 456.2656,815.4375 Q456.6406,815.4375 456.875,815.7031 Q457.1094,815.9531 457.1094,816.5625 L457.1094,818.0156 Q457.1094,818.625 456.875,818.8906 Q456.6406,819.1563 456.2656,819.1563 Q455.9219,819.1563 455.7188,818.9531 Q455.5156,818.7656 455.4063,818.25 Q455.3594,817.8906 455.1719,817.7031 Q454.8438,817.3281 454.2344,817.1094 Q453.625,816.8906 453,816.8906 Q452.2344,816.8906 451.5938,817.2188 Q450.9688,817.5469 450.4688,818.2969 Q449.9844,819.0469 449.9844,820.0781 L449.9844,821.1719 Q449.9844,822.4063 450.875,823.2344 Q451.7656,824.0469 453.3594,824.0469 Q454.2969,824.0469 454.9531,823.7969 Q455.3438,823.6406 455.7656,823.2031 Q456.0313,822.9375 456.1719,822.8594 Q456.3281,822.7813 456.5313,822.7813 Q456.8594,822.7813 457.1094,823.0469 Q457.375,823.2969 457.375,823.6406 Q457.375,823.9844 457.0313,824.3906 Q456.5313,824.9688 455.7344,825.2969 Q454.6563,825.75 453.3594,825.75 Q451.8438,825.75 450.6406,825.125 Q449.6563,824.625 448.9688,823.5625 Q448.2813,822.4844 448.2813,821.2031 L448.2813,820.0469 Q448.2813,818.7188 448.8906,817.5781 Q449.5156,816.4219 450.6094,815.8125 Q451.7031,815.1875 452.9375,815.1875 Q453.6719,815.1875 454.3125,815.3594 Q454.9688,815.5156 455.5156,815.875 Z " fill="#000000"/><text fill="#000000" font-family="sans-serif" font-size="14" lengthAdjust="spacing" textLength="78" x="473.25" y="825.7969">Collaborator</text><line style="stroke:#181818;stroke-width:0.5;" x1="170.5" x2="821.5" y1="836" y2="836"/><text fill="#000000" font-family="sans-serif" font-size="14" lengthAdjust="spacing" textLength="81" x="175.5" y="855.1074">-String name</text><text fill="#000000" font-family="sans-serif" font-size="14" lengthAdjust="spacing" textLength="117" x="175.5" y="873.7285">-List&lt;Skill&gt; skillList</text><text fill="#000000" font-family="sans-serif" font-size="14" lengthAdjust="spacing" textLength="50" x="175.5" y="892.3496">-Job job</text><text fill="#000000" font-family="sans-serif" font-size="14" lengthAdjust="spacing" textLength="111" x="175.5" y="910.9707">-Date dateOfBirth</text><text fill="#000000" font-family="sans-serif" font-size="14" lengthAdjust="spacing" textLength="132" x="175.5" y="929.5918">-Date admissionDate</text><text fill="#000000" font-family="sans-serif" font-size="14" lengthAdjust="spacing" textLength="112" x="175.5" y="948.2129">-Address address</text><text fill="#000000" font-family="sans-serif" font-size="14" lengthAdjust="spacing" textLength="135" x="175.5" y="966.834">-Document document</text><text fill="#000000" font-family="sans-serif" font-size="14" lengthAdjust="spacing" textLength="135" x="175.5" y="985.4551">-String phoneNumber</text><text fill="#000000" font-family="sans-serif" font-size="14" lengthAdjust="spacing" textLength="79" x="175.5" y="1004.0762">-String email</text><text fill="#000000" font-family="sans-serif" font-size="14" lengthAdjust="spacing" textLength="78" x="175.5" y="1022.6973">-int taxpayer</text><line style="stroke:#181818;stroke-width:0.5;" x1="170.5" x2="821.5" y1="1030.2109" y2="1030.2109"/><text fill="#000000" font-family="sans-serif" font-size="14" lengthAdjust="spacing" textLength="641" x="175.5" y="1049.3184">+Collaborator(name, dateOfBirth, admissionDate, address, document, phoneNumber, email, taxpayer)</text><text fill="#000000" font-family="sans-serif" font-size="14" lengthAdjust="spacing" textLength="167" x="175.5" y="1067.9395">+hasCollaboratorSkill(skill)</text></g><!--class HumanResourcesManager--><g id="elem_HumanResourcesManager"><rect codeLine="82" fill="#F1F1F1" height="48" id="HumanResourcesManager" rx="2.5" ry="2.5" style="stroke:#181818;stroke-width:0.5;" width="200" x="525" y="1136"/><ellipse cx="540" cy="1152" fill="#ADD1B2" rx="11" ry="11" style="stroke:#181818;stroke-width:1.0;"/><path d="M542.7656,1147.875 Q542.9219,1147.6563 543.1094,1147.5469 Q543.2969,1147.4375 543.5156,1147.4375 Q543.8906,1147.4375 544.125,1147.7031 Q544.3594,1147.9531 544.3594,1148.5625 L544.3594,1150.0156 Q544.3594,1150.625 544.125,1150.8906 Q543.8906,1151.1563 543.5156,1151.1563 Q543.1719,1151.1563 542.9688,1150.9531 Q542.7656,1150.7656 542.6563,1150.25 Q542.6094,1149.8906 542.4219,1149.7031 Q542.0938,1149.3281 541.4844,1149.1094 Q540.875,1148.8906 540.25,1148.8906 Q539.4844,1148.8906 538.8438,1149.2188 Q538.2188,1149.5469 537.7188,1150.2969 Q537.2344,1151.0469 537.2344,1152.0781 L537.2344,1153.1719 Q537.2344,1154.4063 538.125,1155.2344 Q539.0156,1156.0469 540.6094,1156.0469 Q541.5469,1156.0469 542.2031,1155.7969 Q542.5938,1155.6406 543.0156,1155.2031 Q543.2813,1154.9375 543.4219,1154.8594 Q543.5781,1154.7813 543.7813,1154.7813 Q544.1094,1154.7813 544.3594,1155.0469 Q544.625,1155.2969 544.625,1155.6406 Q544.625,1155.9844 544.2813,1156.3906 Q543.7813,1156.9688 542.9844,1157.2969 Q541.9063,1157.75 540.6094,1157.75 Q539.0938,1157.75 537.8906,1157.125 Q536.9063,1156.625 536.2188,1155.5625 Q535.5313,1154.4844 535.5313,1153.2031 L535.5313,1152.0469 Q535.5313,1150.7188 536.1406,1149.5781 Q536.7656,1148.4219 537.8594,1147.8125 Q538.9531,1147.1875 540.1875,1147.1875 Q540.9219,1147.1875 541.5625,1147.3594 Q542.2188,1147.5156 542.7656,1147.875 Z " fill="#000000"/><text fill="#000000" font-family="sans-serif" font-size="14" lengthAdjust="spacing" textLength="168" x="554" y="1157.7969">HumanResourcesManager</text><line style="stroke:#181818;stroke-width:0.5;" x1="526" x2="724" y1="1168" y2="1168"/><line style="stroke:#181818;stroke-width:0.5;" x1="526" x2="724" y1="1176" y2="1176"/></g><!--class Repositories--><g id="elem_Repositories"><rect codeLine="51" fill="#F1F1F1" height="141.1055" id="Repositories" rx="2.5" ry="2.5" style="stroke:#181818;stroke-width:0.5;" width="196" x="409" y="264"/><ellipse cx="463.25" cy="280" fill="#ADD1B2" rx="11" ry="11" style="stroke:#181818;stroke-width:1.0;"/><path d="M466.0156,275.875 Q466.1719,275.6563 466.3594,275.5469 Q466.5469,275.4375 466.7656,275.4375 Q467.1406,275.4375 467.375,275.7031 Q467.6094,275.9531 467.6094,276.5625 L467.6094,278.0156 Q467.6094,278.625 467.375,278.8906 Q467.1406,279.1563 466.7656,279.1563 Q466.4219,279.1563 466.2188,278.9531 Q466.0156,278.7656 465.9063,278.25 Q465.8594,277.8906 465.6719,277.7031 Q465.3438,277.3281 464.7344,277.1094 Q464.125,276.8906 463.5,276.8906 Q462.7344,276.8906 462.0938,277.2188 Q461.4688,277.5469 460.9688,278.2969 Q460.4844,279.0469 460.4844,280.0781 L460.4844,281.1719 Q460.4844,282.4063 461.375,283.2344 Q462.2656,284.0469 463.8594,284.0469 Q464.7969,284.0469 465.4531,283.7969 Q465.8438,283.6406 466.2656,283.2031 Q466.5313,282.9375 466.6719,282.8594 Q466.8281,282.7813 467.0313,282.7813 Q467.3594,282.7813 467.6094,283.0469 Q467.875,283.2969 467.875,283.6406 Q467.875,283.9844 467.5313,284.3906 Q467.0313,284.9688 466.2344,285.2969 Q465.1563,285.75 463.8594,285.75 Q462.3438,285.75 461.1406,285.125 Q460.1563,284.625 459.4688,283.5625 Q458.7813,282.4844 458.7813,281.2031 L458.7813,280.0469 Q458.7813,278.7188 459.3906,277.5781 Q460.0156,276.4219 461.1094,275.8125 Q462.2031,275.1875 463.4375,275.1875 Q464.1719,275.1875 464.8125,275.3594 Q465.4688,275.5156 466.0156,275.875 Z " fill="#000000"/><text fill="#000000" font-family="sans-serif" font-size="14" lengthAdjust="spacing" textLength="79" x="483.75" y="285.7969">Repositories</text><line style="stroke:#181818;stroke-width:0.5;" x1="410" x2="604" y1="296" y2="296"/><line style="stroke:#181818;stroke-width:0.5;" x1="410" x2="604" y1="304" y2="304"/><text fill="#000000" font-family="sans-serif" font-size="14" lengthAdjust="spacing" textLength="94" x="415" y="323.1074">-Repositories()</text><text fill="#000000" font-family="sans-serif" font-size="14" lengthAdjust="spacing" textLength="182" x="415" y="341.7285">+getInstance() : Repositories</text><text fill="#000000" font-family="sans-serif" font-size="14" lengthAdjust="spacing" textLength="142" x="415" y="360.3496">+getTeamRepository()</text><text fill="#000000" font-family="sans-serif" font-size="14" lengthAdjust="spacing" textLength="184" x="415" y="378.9707">+getCollaboratorRepository()</text><text fill="#000000" font-family="sans-serif" font-size="14" lengthAdjust="spacing" textLength="131" x="415" y="397.5918">+getSkillRepository()</text></g><!--class TeamRepository--><g id="elem_TeamRepository"><rect codeLine="60" fill="#F1F1F1" height="196.9688" id="TeamRepository" rx="2.5" ry="2.5" style="stroke:#181818;stroke-width:0.5;" width="402" x="802" y="466"/><ellipse cx="946.75" cy="482" fill="#ADD1B2" rx="11" ry="11" style="stroke:#181818;stroke-width:1.0;"/><path d="M949.5156,477.875 Q949.6719,477.6563 949.8594,477.5469 Q950.0469,477.4375 950.2656,477.4375 Q950.6406,477.4375 950.875,477.7031 Q951.1094,477.9531 951.1094,478.5625 L951.1094,480.0156 Q951.1094,480.625 950.875,480.8906 Q950.6406,481.1563 950.2656,481.1563 Q949.9219,481.1563 949.7188,480.9531 Q949.5156,480.7656 949.4063,480.25 Q949.3594,479.8906 949.1719,479.7031 Q948.8438,479.3281 948.2344,479.1094 Q947.625,478.8906 947,478.8906 Q946.2344,478.8906 945.5938,479.2188 Q944.9688,479.5469 944.4688,480.2969 Q943.9844,481.0469 943.9844,482.0781 L943.9844,483.1719 Q943.9844,484.4063 944.875,485.2344 Q945.7656,486.0469 947.3594,486.0469 Q948.2969,486.0469 948.9531,485.7969 Q949.3438,485.6406 949.7656,485.2031 Q950.0313,484.9375 950.1719,484.8594 Q950.3281,484.7813 950.5313,484.7813 Q950.8594,484.7813 951.1094,485.0469 Q951.375,485.2969 951.375,485.6406 Q951.375,485.9844 951.0313,486.3906 Q950.5313,486.9688 949.7344,487.2969 Q948.6563,487.75 947.3594,487.75 Q945.8438,487.75 944.6406,487.125 Q943.6563,486.625 942.9688,485.5625 Q942.2813,484.4844 942.2813,483.2031 L942.2813,482.0469 Q942.2813,480.7188 942.8906,479.5781 Q943.5156,478.4219 944.6094,477.8125 Q945.7031,477.1875 946.9375,477.1875 Q947.6719,477.1875 948.3125,477.3594 Q948.9688,477.5156 949.5156,477.875 Z " fill="#000000"/><text fill="#000000" font-family="sans-serif" font-size="14" lengthAdjust="spacing" textLength="104" x="967.25" y="487.7969">TeamRepository</text><line style="stroke:#181818;stroke-width:0.5;" x1="803" x2="1203" y1="498" y2="498"/><text fill="#000000" font-family="sans-serif" font-size="14" lengthAdjust="spacing" textLength="140" x="808" y="517.1074">-List &lt;Team&gt; teamList</text><line style="stroke:#181818;stroke-width:0.5;" x1="803" x2="1203" y1="524.6211" y2="524.6211"/><text fill="#000000" font-family="sans-serif" font-size="14" lengthAdjust="spacing" textLength="106" x="808" y="543.7285">-addTeam(team)</text><text fill="#000000" font-family="sans-serif" font-size="14" lengthAdjust="spacing" textLength="297" x="808" y="562.3496">-addListTeamProposal(teamListProposal,team)</text><text fill="#000000" font-family="sans-serif" font-size="14" lengthAdjust="spacing" textLength="294" x="808" y="580.9707">-removeCollaboratorList(collaboratorList,team)</text><text fill="#000000" font-family="sans-serif" font-size="14" lengthAdjust="spacing" textLength="382" x="808" y="599.5918">-addIdealCollaboratorList(idealCollaboratorList, collaborator)</text><text fill="#000000" font-family="sans-serif" font-size="14" lengthAdjust="spacing" textLength="304" x="808" y="618.2129">-removeCollaboratorsHasTeam(collaboratorList)</text><text fill="#000000" font-family="sans-serif" font-size="14" lengthAdjust="spacing" textLength="189" x="808" y="636.834">+registerProposalTeam(team)</text><text fill="#000000" font-family="sans-serif" font-size="14" lengthAdjust="spacing" textLength="390" x="808" y="655.4551">+generateProposalTeamList(maxSize,skillList,collaboratorList)</text></g><!--class SkillRepository--><g id="elem_SkillRepository"><rect codeLine="71" fill="#F1F1F1" height="103.8633" id="SkillRepository" rx="2.5" ry="2.5" style="stroke:#181818;stroke-width:0.5;" width="186" x="581" y="512.5"/><ellipse cx="623.45" cy="528.5" fill="#ADD1B2" rx="11" ry="11" style="stroke:#181818;stroke-width:1.0;"/><path d="M626.2156,524.375 Q626.3719,524.1563 626.5594,524.0469 Q626.7469,523.9375 626.9656,523.9375 Q627.3406,523.9375 627.575,524.2031 Q627.8094,524.4531 627.8094,525.0625 L627.8094,526.5156 Q627.8094,527.125 627.575,527.3906 Q627.3406,527.6563 626.9656,527.6563 Q626.6219,527.6563 626.4188,527.4531 Q626.2156,527.2656 626.1063,526.75 Q626.0594,526.3906 625.8719,526.2031 Q625.5438,525.8281 624.9344,525.6094 Q624.325,525.3906 623.7,525.3906 Q622.9344,525.3906 622.2938,525.7188 Q621.6688,526.0469 621.1688,526.7969 Q620.6844,527.5469 620.6844,528.5781 L620.6844,529.6719 Q620.6844,530.9063 621.575,531.7344 Q622.4656,532.5469 624.0594,532.5469 Q624.9969,532.5469 625.6531,532.2969 Q626.0438,532.1406 626.4656,531.7031 Q626.7313,531.4375 626.8719,531.3594 Q627.0281,531.2813 627.2313,531.2813 Q627.5594,531.2813 627.8094,531.5469 Q628.075,531.7969 628.075,532.1406 Q628.075,532.4844 627.7313,532.8906 Q627.2313,533.4688 626.4344,533.7969 Q625.3563,534.25 624.0594,534.25 Q622.5438,534.25 621.3406,533.625 Q620.3563,533.125 619.6688,532.0625 Q618.9813,530.9844 618.9813,529.7031 L618.9813,528.5469 Q618.9813,527.2188 619.5906,526.0781 Q620.2156,524.9219 621.3094,524.3125 Q622.4031,523.6875 623.6375,523.6875 Q624.3719,523.6875 625.0125,523.8594 Q625.6688,524.0156 626.2156,524.375 Z " fill="#000000"/><text fill="#000000" font-family="sans-serif" font-size="14" lengthAdjust="spacing" textLength="93" x="643.55" y="534.2969">SkillRepository</text><line style="stroke:#181818;stroke-width:0.5;" x1="582" x2="766" y1="544.5" y2="544.5"/><text fill="#000000" font-family="sans-serif" font-size="14" lengthAdjust="spacing" textLength="121" x="587" y="563.6074">-List &lt;Skill&gt; skillList</text><line style="stroke:#181818;stroke-width:0.5;" x1="582" x2="766" y1="571.1211" y2="571.1211"/><text fill="#000000" font-family="sans-serif" font-size="14" lengthAdjust="spacing" textLength="85" x="587" y="590.2285">+getSkillList()</text><text fill="#000000" font-family="sans-serif" font-size="14" lengthAdjust="spacing" textLength="174" x="587" y="608.8496">+getSkillByName(skillName)</text></g><!--class CollaboratorRepository--><g id="elem_CollaboratorRepository"><rect codeLine="77" fill="#F1F1F1" height="85.2422" id="CollaboratorRepository" rx="2.5" ry="2.5" style="stroke:#181818;stroke-width:0.5;" width="238" x="308" y="522"/><ellipse cx="350" cy="538" fill="#ADD1B2" rx="11" ry="11" style="stroke:#181818;stroke-width:1.0;"/><path d="M352.7656,533.875 Q352.9219,533.6563 353.1094,533.5469 Q353.2969,533.4375 353.5156,533.4375 Q353.8906,533.4375 354.125,533.7031 Q354.3594,533.9531 354.3594,534.5625 L354.3594,536.0156 Q354.3594,536.625 354.125,536.8906 Q353.8906,537.1563 353.5156,537.1563 Q353.1719,537.1563 352.9688,536.9531 Q352.7656,536.7656 352.6563,536.25 Q352.6094,535.8906 352.4219,535.7031 Q352.0938,535.3281 351.4844,535.1094 Q350.875,534.8906 350.25,534.8906 Q349.4844,534.8906 348.8438,535.2188 Q348.2188,535.5469 347.7188,536.2969 Q347.2344,537.0469 347.2344,538.0781 L347.2344,539.1719 Q347.2344,540.4063 348.125,541.2344 Q349.0156,542.0469 350.6094,542.0469 Q351.5469,542.0469 352.2031,541.7969 Q352.5938,541.6406 353.0156,541.2031 Q353.2813,540.9375 353.4219,540.8594 Q353.5781,540.7813 353.7813,540.7813 Q354.1094,540.7813 354.3594,541.0469 Q354.625,541.2969 354.625,541.6406 Q354.625,541.9844 354.2813,542.3906 Q353.7813,542.9688 352.9844,543.2969 Q351.9063,543.75 350.6094,543.75 Q349.0938,543.75 347.8906,543.125 Q346.9063,542.625 346.2188,541.5625 Q345.5313,540.4844 345.5313,539.2031 L345.5313,538.0469 Q345.5313,536.7188 346.1406,535.5781 Q346.7656,534.4219 347.8594,533.8125 Q348.9531,533.1875 350.1875,533.1875 Q350.9219,533.1875 351.5625,533.3594 Q352.2188,533.5156 352.7656,533.875 Z " fill="#000000"/><text fill="#000000" font-family="sans-serif" font-size="14" lengthAdjust="spacing" textLength="146" x="370" y="543.7969">CollaboratorRepository</text><line style="stroke:#181818;stroke-width:0.5;" x1="309" x2="545" y1="554" y2="554"/><text fill="#000000" font-family="sans-serif" font-size="14" lengthAdjust="spacing" textLength="226" x="314" y="573.1074">-List &lt;Collaborator&gt; collaboratorList</text><line style="stroke:#181818;stroke-width:0.5;" x1="309" x2="545" y1="580.6211" y2="580.6211"/><text fill="#000000" font-family="sans-serif" font-size="14" lengthAdjust="spacing" textLength="209" x="314" y="599.7285">+getCollaboratorsBySkill(skillList)</text></g><!--link GenerateTeamController to Repositories--><g id="link_GenerateTeamController_Repositories"><path codeLine="84" d="M444.86,185.06 C455.75,211.07 465.1926,233.6256 475.5226,258.2956 " fill="none" id="GenerateTeamController-to-Repositories" style="stroke:#181818;stroke-width:1.0;stroke-dasharray:7.0,7.0;"/><polygon fill="#181818" points="477.84,263.83,478.0535,253.9835,475.9088,259.218,470.6743,257.0733,477.84,263.83" style="stroke:#181818;stroke-width:1.0;"/><text fill="#000000" font-family="sans-serif" font-size="13" lengthAdjust="spacing" textLength="67" x="465" y="230.0283">repositories</text></g><!--link GenerateTeamUI to GenerateTeamController--><g id="link_GenerateTeamUI_GenerateTeamController"><path codeLine="86" d="M147.19,96 C162.15,96 169.51,96 176.41,96 " fill="none" id="GenerateTeamUI-to-GenerateTeamController" style="stroke:#181818;stroke-width:1.0;stroke-dasharray:7.0,7.0;"/><polygon fill="#181818" points="182.41,96,173.41,92,177.41,96,173.41,100,182.41,96" style="stroke:#181818;stroke-width:1.0;"/></g><!--link Repositories to Repositories--><g id="link_Repositories_Repositories"><path codeLine="87" d="M605.02,316.41 C625.37,318.31 640,324.34 640,334.5 C640,344.66 631.344,350.1322 610.994,352.0322 " fill="none" id="Repositories-to-Repositories" style="stroke:#181818;stroke-width:1.0;"/><polygon fill="#181818" points="605.02,352.59,614.3529,355.736,609.9983,352.1252,613.6092,347.7707,605.02,352.59" style="stroke:#181818;stroke-width:1.0;"/><text fill="#000000" font-family="sans-serif" font-size="13" lengthAdjust="spacing" textLength="49" x="646" y="340.0283">instance</text></g><!--link Repositories to TeamRepository--><g id="link_Repositories_TeamRepository"><path codeLine="89" d="M605.29,380.68 C661.49,406.52 728.6383,437.3842 796.3883,468.5242 " fill="none" id="Repositories-to-TeamRepository" style="stroke:#181818;stroke-width:1.0;"/><polygon fill="#181818" points="801.84,471.03,795.333,463.6369,797.2969,468.9419,791.9919,470.9058,801.84,471.03" style="stroke:#181818;stroke-width:1.0;"/><text fill="#000000" font-family="sans-serif" font-size="13" lengthAdjust="spacing" textLength="7" x="786.8455" y="464.0814">1</text></g><!--link Repositories to SkillRepository--><g id="link_Repositories_SkillRepository"><path codeLine="90" d="M558.01,405.15 C583.34,439.72 609.8343,475.8997 633.0043,507.5297 " fill="none" id="Repositories-to-SkillRepository" style="stroke:#181818;stroke-width:1.0;"/><polygon fill="#181818" points="636.55,512.37,634.4584,502.7458,633.5953,508.3364,628.0047,507.4734,636.55,512.37" style="stroke:#181818;stroke-width:1.0;"/><text fill="#000000" font-family="sans-serif" font-size="13" lengthAdjust="spacing" textLength="7" x="624.0473" y="501.2799">1</text></g><!--link Repositories to CollaboratorRepository--><g id="link_Repositories_CollaboratorRepository"><path codeLine="91" d="M482.56,405.15 C469.19,443.26 455.0558,483.5382 443.6358,516.0982 " fill="none" id="Repositories-to-CollaboratorRepository" style="stroke:#181818;stroke-width:1.0;"/><polygon fill="#181818" points="441.65,521.76,448.4033,514.5911,443.3049,517.0418,440.8542,511.9433,441.65,521.76" style="stroke:#181818;stroke-width:1.0;"/><text fill="#000000" font-family="sans-serif" font-size="13" lengthAdjust="spacing" textLength="7" x="436.427" y="510.6258">1</text></g><!--link TeamRepository to Team--><g id="link_TeamRepository_Team"><path codeLine="93" d="M970.85,663.13 C958.81,699.67 948,732.5 948,732.5 C948,732.5 948,732.5 948,1161 C948,1161 756.988,1226.2307 624.268,1271.5607 " fill="none" id="TeamRepository-to-Team" style="stroke:#181818;stroke-width:1.0;"/><polygon fill="#181818" points="618.59,1273.5,628.3998,1274.3764,623.3216,1271.8839,625.8141,1266.8058,618.59,1273.5" style="stroke:#181818;stroke-width:1.0;"/><text fill="#000000" font-family="sans-serif" font-size="13" lengthAdjust="spacing" textLength="29" x="949" y="945.0283">team</text><text fill="#000000" font-family="sans-serif" font-size="13" lengthAdjust="spacing" textLength="5" x="626.3473" y="1267.3389">*</text></g><!--link CollaboratorRepository to Collaborator--><g id="link_CollaboratorRepository_Collaborator"><path codeLine="94" d="M434.71,607.2 C443.49,654.63 457.1682,728.6102 470.0182,798.0502 " fill="none" id="CollaboratorRepository-to-Collaborator" style="stroke:#181818;stroke-width:1.0;"/><polygon fill="#181818" points="471.11,803.95,473.4056,794.3724,470.2002,799.0335,465.5391,795.8281,471.11,803.95" style="stroke:#181818;stroke-width:1.0;"/><text fill="#000000" font-family="sans-serif" font-size="13" lengthAdjust="spacing" textLength="67" x="461" y="739.0283">collaborator</text><text fill="#000000" font-family="sans-serif" font-size="13" lengthAdjust="spacing" textLength="5" x="464.5265" y="792.6457">*</text></g><!--link GenerateTeamController to TeamRepository--><g id="link_GenerateTeamController_TeamRepository"><path codeLine="96" d="M594.59,185.07 C630.92,202.22 658,215 658,215 C658,215 727,264 727,264 C727,264 828.4041,374.0377 908.9441,461.4377 " fill="none" id="GenerateTeamController-to-TeamRepository" style="stroke:#181818;stroke-width:1.0;stroke-dasharray:7.0,7.0;"/><polygon fill="#181818" points="913.01,465.85,909.8526,456.521,909.6217,462.1731,903.9696,461.9422,913.01,465.85" style="stroke:#181818;stroke-width:1.0;"/></g><!--link GenerateTeamController to SkillRepository--><g id="link_GenerateTeamController_SkillRepository"><path codeLine="97" d="M562.65,185.15 C633.09,225.29 701,264 701,264 C701,264 701,405 701,405 C701,405 691.5871,460.2251 683.6971,506.5651 " fill="none" id="GenerateTeamController-to-SkillRepository" style="stroke:#181818;stroke-width:1.0;stroke-dasharray:7.0,7.0;"/><polygon fill="#181818" points="682.69,512.48,688.1439,504.2791,683.5292,507.5509,680.2574,502.9363,682.69,512.48" style="stroke:#181818;stroke-width:1.0;"/></g><!--link GenerateTeamController to CollaboratorRepository--><g id="link_GenerateTeamController_CollaboratorRepository"><path codeLine="98" d="M399,185.39 C394.92,225.45 391,264 391,264 C391,264 391,405 391,405 C391,405 405.5518,469.0489 416.2118,516.0089 " fill="none" id="GenerateTeamController-to-CollaboratorRepository" style="stroke:#181818;stroke-width:1.0;stroke-dasharray:7.0,7.0;"/><polygon fill="#181818" points="417.54,521.86,419.4484,512.1978,416.4332,516.9841,411.6469,513.9688,417.54,521.86" style="stroke:#181818;stroke-width:1.0;"/></g><!--link GenerateTeamController to Collaborator--><g id="link_GenerateTeamController_Collaborator"><path codeLine="99" d="M351.03,185.06 C307.53,252.3 255,333.5 255,333.5 C255,333.5 255,333.5 255,734.5 C255,734.5 287.3806,761.9033 332.3506,799.9733 " fill="none" id="GenerateTeamController-to-Collaborator" style="stroke:#181818;stroke-width:1.0;stroke-dasharray:7.0,7.0;"/><polygon fill="#181818" points="336.93,803.85,332.6454,794.9819,333.1138,800.6194,327.4764,801.0878,336.93,803.85" style="stroke:#181818;stroke-width:1.0;"/></g><!--link GenerateTeamController to Team--><g id="link_GenerateTeamController_Team"><path codeLine="100" d="M299.27,185.06 C216.25,252.3 116,333.5 116,333.5 C116,333.5 116,333.5 116,1161 C116,1161 263.0161,1219.5793 375.8161,1264.5193 " fill="none" id="GenerateTeamController-to-Team" style="stroke:#181818;stroke-width:1.0;stroke-dasharray:7.0,7.0;"/><polygon fill="#181818" points="381.39,1266.74,374.5096,1259.693,376.7451,1264.8894,371.5487,1267.1249,381.39,1266.74" style="stroke:#181818;stroke-width:1.0;"/></g><!--reverse link Collaborator to HumanResourcesManager--><g id="link_Collaborator_HumanResourcesManager"><path codeLine="102" d="M584.6453,1090.6477 C598.4453,1114.0077 602.11,1120.23 611.25,1135.71 " fill="none" id="Collaborator-backto-HumanResourcesManager" style="stroke:#181818;stroke-width:1.0;"/><polygon fill="none" points="575.49,1075.15,579.4794,1093.6995,589.8113,1087.596,575.49,1075.15" style="stroke:#181818;stroke-width:1.0;"/></g><!--link HumanResourcesManager to Team--><g id="link_HumanResourcesManager_Team"><path codeLine="104" d="M606.02,1184.24 C589.01,1205.05 567.2654,1231.663 545.5154,1258.293 " fill="none" id="HumanResourcesManager-to-Team" style="stroke:#181818;stroke-width:1.0;"/><polygon fill="#181818" points="541.72,1262.94,550.5112,1258.4998,544.8829,1259.0675,544.3151,1253.4392,541.72,1262.94" style="stroke:#181818;stroke-width:1.0;"/><text fill="#000000" font-family="sans-serif" font-size="13" lengthAdjust="spacing" textLength="41" x="582" y="1229.0283">defines</text><text fill="#000000" font-family="sans-serif" font-size="13" lengthAdjust="spacing" textLength="7" x="593.8215" y="1205.8731">1</text><text fill="#000000" font-family="sans-serif" font-size="13" lengthAdjust="spacing" textLength="20" x="525.9824" y="1251.8593">1..*</text></g><!--link Collaborator to Team--><g id="link_Collaborator_Team"><path codeLine="105" d="M468.44,1075.21 C461.51,1109.08 456,1136 456,1136 C456,1136 456,1184 456,1184 C456,1184 468.486,1220.8869 480.816,1257.3069 " fill="none" id="Collaborator-to-Team" style="stroke:#181818;stroke-width:1.0;"/><polygon fill="#181818" points="482.74,1262.99,483.6427,1253.1826,481.1366,1258.254,476.0652,1255.748,482.74,1262.99" style="stroke:#181818;stroke-width:1.0;"/><text fill="#000000" font-family="sans-serif" font-size="13" lengthAdjust="spacing" textLength="49" x="457" y="1165.5283">contains</text><text fill="#000000" font-family="sans-serif" font-size="13" lengthAdjust="spacing" textLength="20" x="446.2686" y="1097.5708">1..*</text><text fill="#000000" font-family="sans-serif" font-size="13" lengthAdjust="spacing" textLength="7" x="472.9504" y="1251.916">1</text></g><!--SRC=[ZLRRRjim37tNLmXzYRCwmVPQ507Q3bWpRDtGR1-Ws4oYLPOCITcQTVttKRxIjw1vI2poy2BoaCxCFKcT2oiodXbjaeCr6N1lZy1QJIwI9x67ZJyfu1OIB_HUKO0xYDJyaNhFTq8vgb5IWp_bm7EZJk70PYDAOxrXn2fHmhaRxwtS7Zsi4wCtyY_mzupD5EmyzuPRkJzudigGZZIQiSA6Vm8DLdZu0IAxCzfRenHO_i8uVYudrD6yK2_u7loDKfidgPIxFJs8328N3b-ay-7a2F0EJSNMe3TZRq-5JGjkSMMyxzRanWaLuWPzbCdYId4cdelVnZ9EYD_MrMK8kQb1KIiS-dVJpcip2tiyWQLcaSUlENkjAnbaLTqMF1XVqnklU3_F2ad5zy8LdgciJc6WAFDhuzDM_LnZ9es6vb5dk46k8FqqDgaK51aN1LlnvlwbwhFPybzcMnu-OWYUujUttQsq_a2a8isaSqYkS2hbDsbg0LCGvMy5Dian0urih1uwAUK7e-7Xc6t1TkIG2QbAYKHRBvvpSK9CLHzwoIXSAwPPnjtauZgXkCaXfe7ZCbhSHAcxS12E1Y8iBfXG5Vp-c0dz2CuSRGBkgz2u32pjo2CWZIGwaE1GNb61IWbZ_Lext209H7D-rG6raD3qHdEYnZJTSKHnYOwgm-bMqs4tlmxA5VVLX5Ogh2iPZaOM445U3r1KczM2c1fOoCnlkEkHVS3-k1TadO9G0oiv9etvSCR6uhgnaNpZPfZUEEL6UyCcQnhHwr6l4wDZExa1Io5Tr-5fFhul9cE-ORaD-ET6zlxhsQ5vGVN4AsgvwexH5VQ2Z0RhxKE4ZpjY7I-BWLTPJH_h0H5vyU6YDoBZc5xtna7ZLMUiDuEB0l-k38pf1QwnYOursCuRuAhJhUdwBh5alTkTW_OlUGuxSTVfJbE3Cx0WOPrgS7xzRx4O9nTZuuiwTAFiodBP5Zg57VxzSbtl5OIIeQYlzW9vWo-4_m00]--></g></svg>