<?xml version="1.0" encoding="us-ascii" standalone="no"?><svg xmlns="http://www.w3.org/2000/svg" xmlns:xlink="http://www.w3.org/1999/xlink" contentStyleType="text/css" height="788px" preserveAspectRatio="none" style="width:877px;height:788px;background:#FFFFFF;" version="1.1" viewBox="0 0 877 788" width="877px" zoomAndPan="magnify"><defs/><g><!--class Job--><g id="elem_Job"><rect codeLine="11" fill="#F1F1F1" height="85.2422" id="Job" rx="2.5" ry="2.5" style="stroke:#181818;stroke-width:0.5;" width="93" x="432.5" y="696"/><ellipse cx="465.05" cy="712" fill="#ADD1B2" rx="11" ry="11" style="stroke:#181818;stroke-width:1.0;"/><path d="M467.8156,707.875 Q467.9719,707.6563 468.1594,707.5469 Q468.3469,707.4375 468.5656,707.4375 Q468.9406,707.4375 469.175,707.7031 Q469.4094,707.9531 469.4094,708.5625 L469.4094,710.0156 Q469.4094,710.625 469.175,710.8906 Q468.9406,711.1563 468.5656,711.1563 Q468.2219,711.1563 468.0188,710.9531 Q467.8156,710.7656 467.7063,710.25 Q467.6594,709.8906 467.4719,709.7031 Q467.1438,709.3281 466.5344,709.1094 Q465.925,708.8906 465.3,708.8906 Q464.5344,708.8906 463.8938,709.2188 Q463.2688,709.5469 462.7688,710.2969 Q462.2844,711.0469 462.2844,712.0781 L462.2844,713.1719 Q462.2844,714.4063 463.175,715.2344 Q464.0656,716.0469 465.6594,716.0469 Q466.5969,716.0469 467.2531,715.7969 Q467.6438,715.6406 468.0656,715.2031 Q468.3313,714.9375 468.4719,714.8594 Q468.6281,714.7813 468.8313,714.7813 Q469.1594,714.7813 469.4094,715.0469 Q469.675,715.2969 469.675,715.6406 Q469.675,715.9844 469.3313,716.3906 Q468.8313,716.9688 468.0344,717.2969 Q466.9563,717.75 465.6594,717.75 Q464.1438,717.75 462.9406,717.125 Q461.9563,716.625 461.2688,715.5625 Q460.5813,714.4844 460.5813,713.2031 L460.5813,712.0469 Q460.5813,710.7188 461.1906,709.5781 Q461.8156,708.4219 462.9094,707.8125 Q464.0031,707.1875 465.2375,707.1875 Q465.9719,707.1875 466.6125,707.3594 Q467.2688,707.5156 467.8156,707.875 Z " fill="#000000"/><text fill="#000000" font-family="sans-serif" font-size="14" lengthAdjust="spacing" textLength="22" x="482.95" y="717.7969">Job</text><line style="stroke:#181818;stroke-width:0.5;" x1="433.5" x2="524.5" y1="728" y2="728"/><text fill="#000000" font-family="sans-serif" font-size="14" lengthAdjust="spacing" textLength="81" x="438.5" y="747.1074">-String name</text><line style="stroke:#181818;stroke-width:0.5;" x1="433.5" x2="524.5" y1="754.6211" y2="754.6211"/><text fill="#000000" font-family="sans-serif" font-size="14" lengthAdjust="spacing" textLength="75" x="438.5" y="773.7285">+Job(name)</text></g><!--class Collaborator--><g id="elem_Collaborator"><rect codeLine="17" fill="#F1F1F1" height="271.4531" id="Collaborator" rx="2.5" ry="2.5" style="stroke:#181818;stroke-width:0.5;" width="628" x="7" y="219"/><ellipse cx="277.75" cy="235" fill="#ADD1B2" rx="11" ry="11" style="stroke:#181818;stroke-width:1.0;"/><path d="M280.5156,230.875 Q280.6719,230.6563 280.8594,230.5469 Q281.0469,230.4375 281.2656,230.4375 Q281.6406,230.4375 281.875,230.7031 Q282.1094,230.9531 282.1094,231.5625 L282.1094,233.0156 Q282.1094,233.625 281.875,233.8906 Q281.6406,234.1563 281.2656,234.1563 Q280.9219,234.1563 280.7188,233.9531 Q280.5156,233.7656 280.4063,233.25 Q280.3594,232.8906 280.1719,232.7031 Q279.8438,232.3281 279.2344,232.1094 Q278.625,231.8906 278,231.8906 Q277.2344,231.8906 276.5938,232.2188 Q275.9688,232.5469 275.4688,233.2969 Q274.9844,234.0469 274.9844,235.0781 L274.9844,236.1719 Q274.9844,237.4063 275.875,238.2344 Q276.7656,239.0469 278.3594,239.0469 Q279.2969,239.0469 279.9531,238.7969 Q280.3438,238.6406 280.7656,238.2031 Q281.0313,237.9375 281.1719,237.8594 Q281.3281,237.7813 281.5313,237.7813 Q281.8594,237.7813 282.1094,238.0469 Q282.375,238.2969 282.375,238.6406 Q282.375,238.9844 282.0313,239.3906 Q281.5313,239.9688 280.7344,240.2969 Q279.6563,240.75 278.3594,240.75 Q276.8438,240.75 275.6406,240.125 Q274.6563,239.625 273.9688,238.5625 Q273.2813,237.4844 273.2813,236.2031 L273.2813,235.0469 Q273.2813,233.7188 273.8906,232.5781 Q274.5156,231.4219 275.6094,230.8125 Q276.7031,230.1875 277.9375,230.1875 Q278.6719,230.1875 279.3125,230.3594 Q279.9688,230.5156 280.5156,230.875 Z " fill="#000000"/><text fill="#000000" font-family="sans-serif" font-size="14" lengthAdjust="spacing" textLength="78" x="298.25" y="240.7969">Collaborator</text><line style="stroke:#181818;stroke-width:0.5;" x1="8" x2="634" y1="251" y2="251"/><text fill="#000000" font-family="sans-serif" font-size="14" lengthAdjust="spacing" textLength="81" x="13" y="270.1074">-String name</text><text fill="#000000" font-family="sans-serif" font-size="14" lengthAdjust="spacing" textLength="111" x="13" y="288.7285">-Date dateOfBirth</text><text fill="#000000" font-family="sans-serif" font-size="14" lengthAdjust="spacing" textLength="132" x="13" y="307.3496">-Date admissionDate</text><text fill="#000000" font-family="sans-serif" font-size="14" lengthAdjust="spacing" textLength="97" x="13" y="325.9707">-String address</text><text fill="#000000" font-family="sans-serif" font-size="14" lengthAdjust="spacing" textLength="113" x="13" y="344.5918">-int phoneNumber</text><text fill="#000000" font-family="sans-serif" font-size="14" lengthAdjust="spacing" textLength="79" x="13" y="363.2129">-String email</text><text fill="#000000" font-family="sans-serif" font-size="14" lengthAdjust="spacing" textLength="38" x="13" y="381.834">-int cc</text><text fill="#000000" font-family="sans-serif" font-size="14" lengthAdjust="spacing" textLength="101" x="13" y="400.4551">-int cardNumber</text><line style="stroke:#181818;stroke-width:0.5;" x1="8" x2="634" y1="407.9688" y2="407.9688"/><text fill="#000000" font-family="sans-serif" font-size="14" lengthAdjust="spacing" textLength="80" x="13" y="427.0762">-addJob(job)</text><text fill="#000000" font-family="sans-serif" font-size="14" lengthAdjust="spacing" textLength="105" x="13" y="445.6973">-validateJob(job)</text><text fill="#000000" font-family="sans-serif" font-size="14" lengthAdjust="spacing" textLength="616" x="13" y="464.3184">+Collaborator(name, dateOfBirth, admissionDate, address, phoneNumber, email, cc, cardNumber)</text><text fill="#000000" font-family="sans-serif" font-size="14" lengthAdjust="spacing" textLength="123" x="13" y="482.9395">+registerJob(name)</text></g><!--class RegisterJobController--><g id="elem_RegisterJobController"><rect codeLine="33" fill="#F1F1F1" height="85.2422" id="RegisterJobController" rx="2.5" ry="2.5" style="stroke:#181818;stroke-width:0.5;" width="170" x="286" y="16.5"/><ellipse cx="301.45" cy="32.5" fill="#ADD1B2" rx="11" ry="11" style="stroke:#181818;stroke-width:1.0;"/><path d="M304.2156,28.375 Q304.3719,28.1563 304.5594,28.0469 Q304.7469,27.9375 304.9656,27.9375 Q305.3406,27.9375 305.575,28.2031 Q305.8094,28.4531 305.8094,29.0625 L305.8094,30.5156 Q305.8094,31.125 305.575,31.3906 Q305.3406,31.6563 304.9656,31.6563 Q304.6219,31.6563 304.4188,31.4531 Q304.2156,31.2656 304.1063,30.75 Q304.0594,30.3906 303.8719,30.2031 Q303.5438,29.8281 302.9344,29.6094 Q302.325,29.3906 301.7,29.3906 Q300.9344,29.3906 300.2938,29.7188 Q299.6688,30.0469 299.1688,30.7969 Q298.6844,31.5469 298.6844,32.5781 L298.6844,33.6719 Q298.6844,34.9063 299.575,35.7344 Q300.4656,36.5469 302.0594,36.5469 Q302.9969,36.5469 303.6531,36.2969 Q304.0438,36.1406 304.4656,35.7031 Q304.7313,35.4375 304.8719,35.3594 Q305.0281,35.2813 305.2313,35.2813 Q305.5594,35.2813 305.8094,35.5469 Q306.075,35.7969 306.075,36.1406 Q306.075,36.4844 305.7313,36.8906 Q305.2313,37.4688 304.4344,37.7969 Q303.3563,38.25 302.0594,38.25 Q300.5438,38.25 299.3406,37.625 Q298.3563,37.125 297.6688,36.0625 Q296.9813,34.9844 296.9813,33.7031 L296.9813,32.5469 Q296.9813,31.2188 297.5906,30.0781 Q298.2156,28.9219 299.3094,28.3125 Q300.4031,27.6875 301.6375,27.6875 Q302.3719,27.6875 303.0125,27.8594 Q303.6688,28.0156 304.2156,28.375 Z " fill="#000000"/><text fill="#000000" font-family="sans-serif" font-size="14" lengthAdjust="spacing" textLength="137" x="315.55" y="38.2969">RegisterJobController</text><line style="stroke:#181818;stroke-width:0.5;" x1="287" x2="455" y1="48.5" y2="48.5"/><line style="stroke:#181818;stroke-width:0.5;" x1="287" x2="455" y1="56.5" y2="56.5"/><text fill="#000000" font-family="sans-serif" font-size="14" lengthAdjust="spacing" textLength="158" x="292" y="75.6074">+RegisterSkillController()</text><text fill="#000000" font-family="sans-serif" font-size="14" lengthAdjust="spacing" textLength="126" x="292" y="94.2285">+registerSkill(name)</text></g><!--class RegisterJobUI--><g id="elem_RegisterJobUI"><rect codeLine="38" fill="#F1F1F1" height="48" id="RegisterJobUI" rx="2.5" ry="2.5" style="stroke:#181818;stroke-width:0.5;" width="119" x="131.5" y="35"/><ellipse cx="146.5" cy="51" fill="#ADD1B2" rx="11" ry="11" style="stroke:#181818;stroke-width:1.0;"/><path d="M149.2656,46.875 Q149.4219,46.6563 149.6094,46.5469 Q149.7969,46.4375 150.0156,46.4375 Q150.3906,46.4375 150.625,46.7031 Q150.8594,46.9531 150.8594,47.5625 L150.8594,49.0156 Q150.8594,49.625 150.625,49.8906 Q150.3906,50.1563 150.0156,50.1563 Q149.6719,50.1563 149.4688,49.9531 Q149.2656,49.7656 149.1563,49.25 Q149.1094,48.8906 148.9219,48.7031 Q148.5938,48.3281 147.9844,48.1094 Q147.375,47.8906 146.75,47.8906 Q145.9844,47.8906 145.3438,48.2188 Q144.7188,48.5469 144.2188,49.2969 Q143.7344,50.0469 143.7344,51.0781 L143.7344,52.1719 Q143.7344,53.4063 144.625,54.2344 Q145.5156,55.0469 147.1094,55.0469 Q148.0469,55.0469 148.7031,54.7969 Q149.0938,54.6406 149.5156,54.2031 Q149.7813,53.9375 149.9219,53.8594 Q150.0781,53.7813 150.2813,53.7813 Q150.6094,53.7813 150.8594,54.0469 Q151.125,54.2969 151.125,54.6406 Q151.125,54.9844 150.7813,55.3906 Q150.2813,55.9688 149.4844,56.2969 Q148.4063,56.75 147.1094,56.75 Q145.5938,56.75 144.3906,56.125 Q143.4063,55.625 142.7188,54.5625 Q142.0313,53.4844 142.0313,52.2031 L142.0313,51.0469 Q142.0313,49.7188 142.6406,48.5781 Q143.2656,47.4219 144.3594,46.8125 Q145.4531,46.1875 146.6875,46.1875 Q147.4219,46.1875 148.0625,46.3594 Q148.7188,46.5156 149.2656,46.875 Z " fill="#000000"/><text fill="#000000" font-family="sans-serif" font-size="14" lengthAdjust="spacing" textLength="87" x="160.5" y="56.7969">RegisterJobUI</text><line style="stroke:#181818;stroke-width:0.5;" x1="132.5" x2="249.5" y1="67" y2="67"/><line style="stroke:#181818;stroke-width:0.5;" x1="132.5" x2="249.5" y1="75" y2="75"/></g><!--class Repositories--><g id="elem_Repositories"><rect codeLine="41" fill="#F1F1F1" height="103.8633" id="Repositories" rx="2.5" ry="2.5" style="stroke:#181818;stroke-width:0.5;" width="194" x="580" y="7"/><ellipse cx="633.25" cy="23" fill="#ADD1B2" rx="11" ry="11" style="stroke:#181818;stroke-width:1.0;"/><path d="M636.0156,18.875 Q636.1719,18.6563 636.3594,18.5469 Q636.5469,18.4375 636.7656,18.4375 Q637.1406,18.4375 637.375,18.7031 Q637.6094,18.9531 637.6094,19.5625 L637.6094,21.0156 Q637.6094,21.625 637.375,21.8906 Q637.1406,22.1563 636.7656,22.1563 Q636.4219,22.1563 636.2188,21.9531 Q636.0156,21.7656 635.9063,21.25 Q635.8594,20.8906 635.6719,20.7031 Q635.3438,20.3281 634.7344,20.1094 Q634.125,19.8906 633.5,19.8906 Q632.7344,19.8906 632.0938,20.2188 Q631.4688,20.5469 630.9688,21.2969 Q630.4844,22.0469 630.4844,23.0781 L630.4844,24.1719 Q630.4844,25.4063 631.375,26.2344 Q632.2656,27.0469 633.8594,27.0469 Q634.7969,27.0469 635.4531,26.7969 Q635.8438,26.6406 636.2656,26.2031 Q636.5313,25.9375 636.6719,25.8594 Q636.8281,25.7813 637.0313,25.7813 Q637.3594,25.7813 637.6094,26.0469 Q637.875,26.2969 637.875,26.6406 Q637.875,26.9844 637.5313,27.3906 Q637.0313,27.9688 636.2344,28.2969 Q635.1563,28.75 633.8594,28.75 Q632.3438,28.75 631.1406,28.125 Q630.1563,27.625 629.4688,26.5625 Q628.7813,25.4844 628.7813,24.2031 L628.7813,23.0469 Q628.7813,21.7188 629.3906,20.5781 Q630.0156,19.4219 631.1094,18.8125 Q632.2031,18.1875 633.4375,18.1875 Q634.1719,18.1875 634.8125,18.3594 Q635.4688,18.5156 636.0156,18.875 Z " fill="#000000"/><text fill="#000000" font-family="sans-serif" font-size="14" lengthAdjust="spacing" textLength="79" x="653.75" y="28.7969">Repositories</text><line style="stroke:#181818;stroke-width:0.5;" x1="581" x2="773" y1="39" y2="39"/><text fill="#000000" font-family="sans-serif" font-size="14" lengthAdjust="spacing" textLength="84" x="586" y="58.1074">-Repositories</text><text fill="#000000" font-family="sans-serif" font-size="14" lengthAdjust="spacing" textLength="118" x="586" y="76.7285">+getJobRepository</text><line style="stroke:#181818;stroke-width:0.5;" x1="581" x2="773" y1="84.2422" y2="84.2422"/><text fill="#000000" font-family="sans-serif" font-size="14" lengthAdjust="spacing" textLength="182" x="586" y="103.3496">+getInstance() : Repositories</text></g><!--class jobRepository--><g id="elem_jobRepository"><rect codeLine="47" fill="#F1F1F1" height="48" id="jobRepository" rx="2.5" ry="2.5" style="stroke:#181818;stroke-width:0.5;" width="119" x="622.5" y="141"/><ellipse cx="637.5" cy="157" fill="#ADD1B2" rx="11" ry="11" style="stroke:#181818;stroke-width:1.0;"/><path d="M640.2656,152.875 Q640.4219,152.6563 640.6094,152.5469 Q640.7969,152.4375 641.0156,152.4375 Q641.3906,152.4375 641.625,152.7031 Q641.8594,152.9531 641.8594,153.5625 L641.8594,155.0156 Q641.8594,155.625 641.625,155.8906 Q641.3906,156.1563 641.0156,156.1563 Q640.6719,156.1563 640.4688,155.9531 Q640.2656,155.7656 640.1563,155.25 Q640.1094,154.8906 639.9219,154.7031 Q639.5938,154.3281 638.9844,154.1094 Q638.375,153.8906 637.75,153.8906 Q636.9844,153.8906 636.3438,154.2188 Q635.7188,154.5469 635.2188,155.2969 Q634.7344,156.0469 634.7344,157.0781 L634.7344,158.1719 Q634.7344,159.4063 635.625,160.2344 Q636.5156,161.0469 638.1094,161.0469 Q639.0469,161.0469 639.7031,160.7969 Q640.0938,160.6406 640.5156,160.2031 Q640.7813,159.9375 640.9219,159.8594 Q641.0781,159.7813 641.2813,159.7813 Q641.6094,159.7813 641.8594,160.0469 Q642.125,160.2969 642.125,160.6406 Q642.125,160.9844 641.7813,161.3906 Q641.2813,161.9688 640.4844,162.2969 Q639.4063,162.75 638.1094,162.75 Q636.5938,162.75 635.3906,162.125 Q634.4063,161.625 633.7188,160.5625 Q633.0313,159.4844 633.0313,158.2031 L633.0313,157.0469 Q633.0313,155.7188 633.6406,154.5781 Q634.2656,153.4219 635.3594,152.8125 Q636.4531,152.1875 637.6875,152.1875 Q638.4219,152.1875 639.0625,152.3594 Q639.7188,152.5156 640.2656,152.875 Z " fill="#000000"/><text fill="#000000" font-family="sans-serif" font-size="14" lengthAdjust="spacing" textLength="87" x="651.5" y="162.7969">jobRepository</text><line style="stroke:#181818;stroke-width:0.5;" x1="623.5" x2="740.5" y1="173" y2="173"/><line style="stroke:#181818;stroke-width:0.5;" x1="623.5" x2="740.5" y1="181" y2="181"/></g><!--class HumanResourceManager--><g id="elem_HumanResourceManager"><rect fill="#F1F1F1" height="48" id="HumanResourceManager" rx="2.5" ry="2.5" style="stroke:#181818;stroke-width:0.5;" width="193" x="382.5" y="569"/><ellipse cx="397.5" cy="585" fill="#ADD1B2" rx="11" ry="11" style="stroke:#181818;stroke-width:1.0;"/><path d="M400.2656,580.875 Q400.4219,580.6563 400.6094,580.5469 Q400.7969,580.4375 401.0156,580.4375 Q401.3906,580.4375 401.625,580.7031 Q401.8594,580.9531 401.8594,581.5625 L401.8594,583.0156 Q401.8594,583.625 401.625,583.8906 Q401.3906,584.1563 401.0156,584.1563 Q400.6719,584.1563 400.4688,583.9531 Q400.2656,583.7656 400.1563,583.25 Q400.1094,582.8906 399.9219,582.7031 Q399.5938,582.3281 398.9844,582.1094 Q398.375,581.8906 397.75,581.8906 Q396.9844,581.8906 396.3438,582.2188 Q395.7188,582.5469 395.2188,583.2969 Q394.7344,584.0469 394.7344,585.0781 L394.7344,586.1719 Q394.7344,587.4063 395.625,588.2344 Q396.5156,589.0469 398.1094,589.0469 Q399.0469,589.0469 399.7031,588.7969 Q400.0938,588.6406 400.5156,588.2031 Q400.7813,587.9375 400.9219,587.8594 Q401.0781,587.7813 401.2813,587.7813 Q401.6094,587.7813 401.8594,588.0469 Q402.125,588.2969 402.125,588.6406 Q402.125,588.9844 401.7813,589.3906 Q401.2813,589.9688 400.4844,590.2969 Q399.4063,590.75 398.1094,590.75 Q396.5938,590.75 395.3906,590.125 Q394.4063,589.625 393.7188,588.5625 Q393.0313,587.4844 393.0313,586.2031 L393.0313,585.0469 Q393.0313,583.7188 393.6406,582.5781 Q394.2656,581.4219 395.3594,580.8125 Q396.4531,580.1875 397.6875,580.1875 Q398.4219,580.1875 399.0625,580.3594 Q399.7188,580.5156 400.2656,580.875 Z " fill="#000000"/><text fill="#000000" font-family="sans-serif" font-size="14" lengthAdjust="spacing" textLength="161" x="411.5" y="590.7969">HumanResourceManager</text><line style="stroke:#181818;stroke-width:0.5;" x1="383.5" x2="574.5" y1="601" y2="601"/><line style="stroke:#181818;stroke-width:0.5;" x1="383.5" x2="574.5" y1="609" y2="609"/></g><!--link RegisterJobController to Repositories--><g id="link_RegisterJobController_Repositories"><path codeLine="50" d="M456.24,59 C494.61,59 534.11,59 573.81,59 " fill="none" id="RegisterJobController-to-Repositories" style="stroke:#181818;stroke-width:1.0;stroke-dasharray:7.0,7.0;"/><polygon fill="#181818" points="579.81,59,570.81,55,574.81,59,570.81,63,579.81,59" style="stroke:#181818;stroke-width:1.0;"/><text fill="#000000" font-family="sans-serif" font-size="13" lengthAdjust="spacing" textLength="67" x="484.5" y="52.0283">repositories</text></g><!--link RegisterJobUI to RegisterJobController--><g id="link_RegisterJobUI_RegisterJobController"><path codeLine="51" d="M250.62,59 C250.87,59 251,59 251,59 C251,59 263.46,59 279.9,59 " fill="none" id="RegisterJobUI-to-RegisterJobController" style="stroke:#181818;stroke-width:1.0;stroke-dasharray:7.0,7.0;"/><polygon fill="#181818" points="285.9,59,276.9,55,280.9,59,276.9,63,285.9,59" style="stroke:#181818;stroke-width:1.0;"/></g><!--link Repositories to Repositories--><g id="link_Repositories_Repositories"><path codeLine="52" d="M774.28,39.82 C794.48,41.84 809,48.23 809,59 C809,69.77 800.4502,75.563 780.2502,77.583 " fill="none" id="Repositories-to-Repositories" style="stroke:#181818;stroke-width:1.0;"/><polygon fill="#181818" points="774.28,78.18,783.6333,81.2646,779.2552,77.6825,782.8373,73.3043,774.28,78.18" style="stroke:#181818;stroke-width:1.0;"/><text fill="#000000" font-family="sans-serif" font-size="13" lengthAdjust="spacing" textLength="49" x="815" y="64.5283">instance</text></g><!--link Repositories to jobRepository--><g id="link_Repositories_jobRepository"><path codeLine="53" d="M679.46,111.09 C679.96,121.57 680.1865,126.0967 680.6065,134.9767 " fill="none" id="Repositories-to-jobRepository" style="stroke:#181818;stroke-width:1.0;"/><polygon fill="#181818" points="680.89,140.97,684.4603,131.7911,680.6538,135.9756,676.4693,132.169,680.89,140.97" style="stroke:#181818;stroke-width:1.0;"/><text fill="#000000" font-family="sans-serif" font-size="13" lengthAdjust="spacing" textLength="7" x="672.7087" y="129.6998">1</text></g><!--link jobRepository to Job--><g id="link_jobRepository_Job"><path codeLine="55" d="M679.94,189.04 C673.31,263.06 653,490 653,490 C653,490 593,617 593,617 C593,617 548,666 548,666 C548,666 538.4865,675.8626 523.3065,691.5926 " fill="none" id="jobRepository-to-Job" style="stroke:#181818;stroke-width:1.0;"/><polygon fill="#181818" points="519.14,695.91,528.268,692.2115,522.6121,692.3121,522.5114,686.6562,519.14,695.91" style="stroke:#181818;stroke-width:1.0;"/><text fill="#000000" font-family="sans-serif" font-size="13" lengthAdjust="spacing" textLength="17" x="639" y="535.0283">job</text><text fill="#000000" font-family="sans-serif" font-size="13" lengthAdjust="spacing" textLength="7" x="671.5848" y="211.0354">1</text><text fill="#000000" font-family="sans-serif" font-size="13" lengthAdjust="spacing" textLength="5" x="520.1389" y="684.7997">*</text></g><!--link RegisterJobController to Collaborator--><g id="link_RegisterJobController_Collaborator"><path codeLine="56" d="M363.89,101.74 C358.63,132.6 352.1676,170.5552 344.9276,213.0552 " fill="none" id="RegisterJobController-to-Collaborator" style="stroke:#181818;stroke-width:1.0;stroke-dasharray:7.0,7.0;"/><polygon fill="#181818" points="343.92,218.97,349.3746,210.7695,344.7597,214.041,341.4882,209.4261,343.92,218.97" style="stroke:#181818;stroke-width:1.0;"/><text fill="#000000" font-family="sans-serif" font-size="13" lengthAdjust="spacing" textLength="67" x="358" y="170.5283">collaborator</text><text fill="#000000" font-family="sans-serif" font-size="13" lengthAdjust="spacing" textLength="7" x="338.0427" y="207.6669">1</text></g><!--link Collaborator to Job--><g id="link_Collaborator_Job"><path codeLine="57" d="M330.26,490.08 C334.67,554.15 339,617 339,617 C339,617 387.1131,658.4051 427.8331,693.4651 " fill="none" id="Collaborator-to-Job" style="stroke:#181818;stroke-width:1.0;"/><polygon fill="#181818" points="432.38,697.38,428.1696,688.4765,428.591,694.1176,422.9498,694.539,432.38,697.38" style="stroke:#181818;stroke-width:1.0;"/><text fill="#000000" font-family="sans-serif" font-size="13" lengthAdjust="spacing" textLength="24" x="340" y="598.5283">jobs</text><text fill="#000000" font-family="sans-serif" font-size="13" lengthAdjust="spacing" textLength="7" x="323.593" y="512.4333">1</text><text fill="#000000" font-family="sans-serif" font-size="13" lengthAdjust="spacing" textLength="7" x="417.3921" y="686.504">1</text></g><!--reverse link Collaborator to HumanResourceManager--><g id="link_Collaborator_HumanResourceManager"><path codeLine="58" d="M421.0771,505.2986 C441.4471,535.7986 450.82,549.82 463.63,568.99 " fill="none" id="Collaborator-backto-HumanResourceManager" style="stroke:#181818;stroke-width:1.0;"/><polygon fill="none" points="411.08,490.33,416.0875,508.6309,426.0666,501.9662,411.08,490.33" style="stroke:#181818;stroke-width:1.0;"/></g><!--reverse link HumanResourceManager to Job--><g id="link_HumanResourceManager_Job"><path codeLine="60" d="M479,623.06 C479,644.29 479,670.29 479,695.98 " fill="none" id="HumanResourceManager-backto-Job" style="stroke:#181818;stroke-width:1.0;"/><polygon fill="#181818" points="479,617.06,475,626.06,479,622.06,483,626.06,479,617.06" style="stroke:#181818;stroke-width:1.0;"/><text fill="#000000" font-family="sans-serif" font-size="13" lengthAdjust="spacing" textLength="59" x="480" y="662.0283">createdBy</text></g><!--SRC=[VLJHRfim57ttLrpb9Sa2rVeQLPFMzg6Pj5Lgj0ymvWRS65zacqrfkt-VJI3OAnqF29zpxl4voB2qHwbRRdW33MaIjQ46mPaEsSIqN1nvXNjtKWW6XUEwKh70rhoatr9NSE3AneoI6jsfHMX9dSA2BMT8CevOD2KKj_QhSqOMdSET8BsNBmYV6LigF3Xm14PMjODIXZYID6Fz37oZ0buP-2k7lP_taJHlaFLGk3P1iWhOclqPf-v8ALwGuOxCE1vFzy0zTmYblpqURgLnTOJoif7M-XXXbOppiZHexHcJsa5RayOVNLEWIOJOSAaccH3HCpVbC34qywwXnJCLwm7vnPKCsH9uanJhIsTnWomDderfipXbTewM-KXP56NSmM0bhKCpyrQV9kgEj3C-2uwlTtDXzqUfrCIl_ZNk-VzO_znvouXeoKhVLgAz78GO7DmhT3jj_K4Mk5h3zWE9jxyGfscJvnW-xpxVzUfB6cZhMqNxf2rwyOmBIopoTvPowF5EjxXUf54PIvC7GHw4dnRzXxCDye-gN9qDaqzb2o9QieIxc5z7vZRLmCrRdWCyT0tNJsYfCmA_S-t_DVwepw5m4_JUpkziq9_PyjQt-Wi0]--></g></svg>