<?xml version="1.0" encoding="us-ascii" standalone="no"?><svg xmlns="http://www.w3.org/2000/svg" xmlns:xlink="http://www.w3.org/1999/xlink" contentStyleType="text/css" height="668px" preserveAspectRatio="none" style="width:1436px;height:668px;background:#FFFFFF;" version="1.1" viewBox="0 0 1436 668" width="1436px" zoomAndPan="magnify"><defs/><g><!--class Job--><g id="elem_Job"><rect codeLine="11" fill="#F1F1F1" height="103.8633" id="Job" rx="2.5" ry="2.5" style="stroke:#181818;stroke-width:0.5;" width="117" x="691" y="558"/><ellipse cx="734.35" cy="574" fill="#ADD1B2" rx="11" ry="11" style="stroke:#181818;stroke-width:1.0;"/><path d="M737.1156,569.875 Q737.2719,569.6563 737.4594,569.5469 Q737.6469,569.4375 737.8656,569.4375 Q738.2406,569.4375 738.475,569.7031 Q738.7094,569.9531 738.7094,570.5625 L738.7094,572.0156 Q738.7094,572.625 738.475,572.8906 Q738.2406,573.1563 737.8656,573.1563 Q737.5219,573.1563 737.3188,572.9531 Q737.1156,572.7656 737.0063,572.25 Q736.9594,571.8906 736.7719,571.7031 Q736.4438,571.3281 735.8344,571.1094 Q735.225,570.8906 734.6,570.8906 Q733.8344,570.8906 733.1938,571.2188 Q732.5688,571.5469 732.0688,572.2969 Q731.5844,573.0469 731.5844,574.0781 L731.5844,575.1719 Q731.5844,576.4063 732.475,577.2344 Q733.3656,578.0469 734.9594,578.0469 Q735.8969,578.0469 736.5531,577.7969 Q736.9438,577.6406 737.3656,577.2031 Q737.6313,576.9375 737.7719,576.8594 Q737.9281,576.7813 738.1313,576.7813 Q738.4594,576.7813 738.7094,577.0469 Q738.975,577.2969 738.975,577.6406 Q738.975,577.9844 738.6313,578.3906 Q738.1313,578.9688 737.3344,579.2969 Q736.2563,579.75 734.9594,579.75 Q733.4438,579.75 732.2406,579.125 Q731.2563,578.625 730.5688,577.5625 Q729.8813,576.4844 729.8813,575.2031 L729.8813,574.0469 Q729.8813,572.7188 730.4906,571.5781 Q731.1156,570.4219 732.2094,569.8125 Q733.3031,569.1875 734.5375,569.1875 Q735.2719,569.1875 735.9125,569.3594 Q736.5688,569.5156 737.1156,569.875 Z " fill="#000000"/><text fill="#000000" font-family="sans-serif" font-size="14" lengthAdjust="spacing" textLength="22" x="754.65" y="579.7969">Job</text><line style="stroke:#181818;stroke-width:0.5;" x1="692" x2="807" y1="590" y2="590"/><text fill="#000000" font-family="sans-serif" font-size="14" lengthAdjust="spacing" textLength="81" x="697" y="609.1074">-String name</text><line style="stroke:#181818;stroke-width:0.5;" x1="692" x2="807" y1="616.6211" y2="616.6211"/><text fill="#000000" font-family="sans-serif" font-size="14" lengthAdjust="spacing" textLength="75" x="697" y="635.7285">+Job(name)</text><text fill="#000000" font-family="sans-serif" font-size="14" lengthAdjust="spacing" textLength="105" x="697" y="654.3496">-validateJob(job)</text></g><!--class RegisterJobController--><g id="elem_RegisterJobController"><rect codeLine="18" fill="#F1F1F1" height="85.2422" id="RegisterJobController" rx="2.5" ry="2.5" style="stroke:#181818;stroke-width:0.5;" width="169" x="867" y="100"/><ellipse cx="882" cy="116" fill="#ADD1B2" rx="11" ry="11" style="stroke:#181818;stroke-width:1.0;"/><path d="M884.7656,111.875 Q884.9219,111.6563 885.1094,111.5469 Q885.2969,111.4375 885.5156,111.4375 Q885.8906,111.4375 886.125,111.7031 Q886.3594,111.9531 886.3594,112.5625 L886.3594,114.0156 Q886.3594,114.625 886.125,114.8906 Q885.8906,115.1563 885.5156,115.1563 Q885.1719,115.1563 884.9688,114.9531 Q884.7656,114.7656 884.6563,114.25 Q884.6094,113.8906 884.4219,113.7031 Q884.0938,113.3281 883.4844,113.1094 Q882.875,112.8906 882.25,112.8906 Q881.4844,112.8906 880.8438,113.2188 Q880.2188,113.5469 879.7188,114.2969 Q879.2344,115.0469 879.2344,116.0781 L879.2344,117.1719 Q879.2344,118.4063 880.125,119.2344 Q881.0156,120.0469 882.6094,120.0469 Q883.5469,120.0469 884.2031,119.7969 Q884.5938,119.6406 885.0156,119.2031 Q885.2813,118.9375 885.4219,118.8594 Q885.5781,118.7813 885.7813,118.7813 Q886.1094,118.7813 886.3594,119.0469 Q886.625,119.2969 886.625,119.6406 Q886.625,119.9844 886.2813,120.3906 Q885.7813,120.9688 884.9844,121.2969 Q883.9063,121.75 882.6094,121.75 Q881.0938,121.75 879.8906,121.125 Q878.9063,120.625 878.2188,119.5625 Q877.5313,118.4844 877.5313,117.2031 L877.5313,116.0469 Q877.5313,114.7188 878.1406,113.5781 Q878.7656,112.4219 879.8594,111.8125 Q880.9531,111.1875 882.1875,111.1875 Q882.9219,111.1875 883.5625,111.3594 Q884.2188,111.5156 884.7656,111.875 Z " fill="#000000"/><text fill="#000000" font-family="sans-serif" font-size="14" lengthAdjust="spacing" textLength="137" x="896" y="121.7969">RegisterJobController</text><line style="stroke:#181818;stroke-width:0.5;" x1="868" x2="1035" y1="132" y2="132"/><line style="stroke:#181818;stroke-width:0.5;" x1="868" x2="1035" y1="140" y2="140"/><text fill="#000000" font-family="sans-serif" font-size="14" lengthAdjust="spacing" textLength="155" x="873" y="159.1074">+RegisterJobController()</text><text fill="#000000" font-family="sans-serif" font-size="14" lengthAdjust="spacing" textLength="123" x="873" y="177.7285">+registerJob(name)</text></g><!--class RegisterJobUI--><g id="elem_RegisterJobUI"><rect codeLine="24" fill="#F1F1F1" height="48" id="RegisterJobUI" rx="2.5" ry="2.5" style="stroke:#181818;stroke-width:0.5;" width="119" x="713" y="118.5"/><ellipse cx="728" cy="134.5" fill="#ADD1B2" rx="11" ry="11" style="stroke:#181818;stroke-width:1.0;"/><path d="M730.7656,130.375 Q730.9219,130.1563 731.1094,130.0469 Q731.2969,129.9375 731.5156,129.9375 Q731.8906,129.9375 732.125,130.2031 Q732.3594,130.4531 732.3594,131.0625 L732.3594,132.5156 Q732.3594,133.125 732.125,133.3906 Q731.8906,133.6563 731.5156,133.6563 Q731.1719,133.6563 730.9688,133.4531 Q730.7656,133.2656 730.6563,132.75 Q730.6094,132.3906 730.4219,132.2031 Q730.0938,131.8281 729.4844,131.6094 Q728.875,131.3906 728.25,131.3906 Q727.4844,131.3906 726.8438,131.7188 Q726.2188,132.0469 725.7188,132.7969 Q725.2344,133.5469 725.2344,134.5781 L725.2344,135.6719 Q725.2344,136.9063 726.125,137.7344 Q727.0156,138.5469 728.6094,138.5469 Q729.5469,138.5469 730.2031,138.2969 Q730.5938,138.1406 731.0156,137.7031 Q731.2813,137.4375 731.4219,137.3594 Q731.5781,137.2813 731.7813,137.2813 Q732.1094,137.2813 732.3594,137.5469 Q732.625,137.7969 732.625,138.1406 Q732.625,138.4844 732.2813,138.8906 Q731.7813,139.4688 730.9844,139.7969 Q729.9063,140.25 728.6094,140.25 Q727.0938,140.25 725.8906,139.625 Q724.9063,139.125 724.2188,138.0625 Q723.5313,136.9844 723.5313,135.7031 L723.5313,134.5469 Q723.5313,133.2188 724.1406,132.0781 Q724.7656,130.9219 725.8594,130.3125 Q726.9531,129.6875 728.1875,129.6875 Q728.9219,129.6875 729.5625,129.8594 Q730.2188,130.0156 730.7656,130.375 Z " fill="#000000"/><text fill="#000000" font-family="sans-serif" font-size="14" lengthAdjust="spacing" textLength="87" x="742" y="140.2969">RegisterJobUI</text><line style="stroke:#181818;stroke-width:0.5;" x1="714" x2="831" y1="150.5" y2="150.5"/><line style="stroke:#181818;stroke-width:0.5;" x1="714" x2="831" y1="158.5" y2="158.5"/></g><!--class Collaborator--><g id="elem_Collaborator"><rect codeLine="27" fill="#F1F1F1" height="271.4531" id="Collaborator" rx="2.5" ry="2.5" style="stroke:#181818;stroke-width:0.5;" width="671" x="7" y="7"/><ellipse cx="299.25" cy="23" fill="#ADD1B2" rx="11" ry="11" style="stroke:#181818;stroke-width:1.0;"/><path d="M302.0156,18.875 Q302.1719,18.6563 302.3594,18.5469 Q302.5469,18.4375 302.7656,18.4375 Q303.1406,18.4375 303.375,18.7031 Q303.6094,18.9531 303.6094,19.5625 L303.6094,21.0156 Q303.6094,21.625 303.375,21.8906 Q303.1406,22.1563 302.7656,22.1563 Q302.4219,22.1563 302.2188,21.9531 Q302.0156,21.7656 301.9063,21.25 Q301.8594,20.8906 301.6719,20.7031 Q301.3438,20.3281 300.7344,20.1094 Q300.125,19.8906 299.5,19.8906 Q298.7344,19.8906 298.0938,20.2188 Q297.4688,20.5469 296.9688,21.2969 Q296.4844,22.0469 296.4844,23.0781 L296.4844,24.1719 Q296.4844,25.4063 297.375,26.2344 Q298.2656,27.0469 299.8594,27.0469 Q300.7969,27.0469 301.4531,26.7969 Q301.8438,26.6406 302.2656,26.2031 Q302.5313,25.9375 302.6719,25.8594 Q302.8281,25.7813 303.0313,25.7813 Q303.3594,25.7813 303.6094,26.0469 Q303.875,26.2969 303.875,26.6406 Q303.875,26.9844 303.5313,27.3906 Q303.0313,27.9688 302.2344,28.2969 Q301.1563,28.75 299.8594,28.75 Q298.3438,28.75 297.1406,28.125 Q296.1563,27.625 295.4688,26.5625 Q294.7813,25.4844 294.7813,24.2031 L294.7813,23.0469 Q294.7813,21.7188 295.3906,20.5781 Q296.0156,19.4219 297.1094,18.8125 Q298.2031,18.1875 299.4375,18.1875 Q300.1719,18.1875 300.8125,18.3594 Q301.4688,18.5156 302.0156,18.875 Z " fill="#000000"/><text fill="#000000" font-family="sans-serif" font-size="14" lengthAdjust="spacing" textLength="78" x="319.75" y="28.7969">Collaborator</text><line style="stroke:#181818;stroke-width:0.5;" x1="8" x2="677" y1="39" y2="39"/><text fill="#000000" font-family="sans-serif" font-size="14" lengthAdjust="spacing" textLength="81" x="13" y="58.1074">-String name</text><text fill="#000000" font-family="sans-serif" font-size="14" lengthAdjust="spacing" textLength="117" x="13" y="76.7285">-List&lt;Skill&gt; skillList</text><text fill="#000000" font-family="sans-serif" font-size="14" lengthAdjust="spacing" textLength="50" x="13" y="95.3496">-Job job</text><text fill="#000000" font-family="sans-serif" font-size="14" lengthAdjust="spacing" textLength="111" x="13" y="113.9707">-Date dateOfBirth</text><text fill="#000000" font-family="sans-serif" font-size="14" lengthAdjust="spacing" textLength="132" x="13" y="132.5918">-Date admissionDate</text><text fill="#000000" font-family="sans-serif" font-size="14" lengthAdjust="spacing" textLength="112" x="13" y="151.2129">-Address address</text><text fill="#000000" font-family="sans-serif" font-size="14" lengthAdjust="spacing" textLength="135" x="13" y="169.834">-Document document</text><text fill="#000000" font-family="sans-serif" font-size="14" lengthAdjust="spacing" textLength="135" x="13" y="188.4551">-String phoneNumber</text><text fill="#000000" font-family="sans-serif" font-size="14" lengthAdjust="spacing" textLength="79" x="13" y="207.0762">-String email</text><text fill="#000000" font-family="sans-serif" font-size="14" lengthAdjust="spacing" textLength="38" x="13" y="225.6973">-int cc</text><text fill="#000000" font-family="sans-serif" font-size="14" lengthAdjust="spacing" textLength="78" x="13" y="244.3184">-int taxpayer</text><line style="stroke:#181818;stroke-width:0.5;" x1="8" x2="677" y1="251.832" y2="251.832"/><text fill="#000000" font-family="sans-serif" font-size="14" lengthAdjust="spacing" textLength="659" x="13" y="270.9395">+Collaborator(name, dateOfBirth, admissionDate, address,document, phoneNumber, email, cc, taxpayer)</text></g><!--class HumanResourcesManager--><g id="elem_HumanResourcesManager"><rect codeLine="43" fill="#F1F1F1" height="48" id="HumanResourcesManager" rx="2.5" ry="2.5" style="stroke:#181818;stroke-width:0.5;" width="200" x="379.5" y="394"/><ellipse cx="394.5" cy="410" fill="#ADD1B2" rx="11" ry="11" style="stroke:#181818;stroke-width:1.0;"/><path d="M397.2656,405.875 Q397.4219,405.6563 397.6094,405.5469 Q397.7969,405.4375 398.0156,405.4375 Q398.3906,405.4375 398.625,405.7031 Q398.8594,405.9531 398.8594,406.5625 L398.8594,408.0156 Q398.8594,408.625 398.625,408.8906 Q398.3906,409.1563 398.0156,409.1563 Q397.6719,409.1563 397.4688,408.9531 Q397.2656,408.7656 397.1563,408.25 Q397.1094,407.8906 396.9219,407.7031 Q396.5938,407.3281 395.9844,407.1094 Q395.375,406.8906 394.75,406.8906 Q393.9844,406.8906 393.3438,407.2188 Q392.7188,407.5469 392.2188,408.2969 Q391.7344,409.0469 391.7344,410.0781 L391.7344,411.1719 Q391.7344,412.4063 392.625,413.2344 Q393.5156,414.0469 395.1094,414.0469 Q396.0469,414.0469 396.7031,413.7969 Q397.0938,413.6406 397.5156,413.2031 Q397.7813,412.9375 397.9219,412.8594 Q398.0781,412.7813 398.2813,412.7813 Q398.6094,412.7813 398.8594,413.0469 Q399.125,413.2969 399.125,413.6406 Q399.125,413.9844 398.7813,414.3906 Q398.2813,414.9688 397.4844,415.2969 Q396.4063,415.75 395.1094,415.75 Q393.5938,415.75 392.3906,415.125 Q391.4063,414.625 390.7188,413.5625 Q390.0313,412.4844 390.0313,411.2031 L390.0313,410.0469 Q390.0313,408.7188 390.6406,407.5781 Q391.2656,406.4219 392.3594,405.8125 Q393.4531,405.1875 394.6875,405.1875 Q395.4219,405.1875 396.0625,405.3594 Q396.7188,405.5156 397.2656,405.875 Z " fill="#000000"/><text fill="#000000" font-family="sans-serif" font-size="14" lengthAdjust="spacing" textLength="168" x="408.5" y="415.7969">HumanResourcesManager</text><line style="stroke:#181818;stroke-width:0.5;" x1="380.5" x2="578.5" y1="426" y2="426"/><line style="stroke:#181818;stroke-width:0.5;" x1="380.5" x2="578.5" y1="434" y2="434"/></g><!--class Repositories--><g id="elem_Repositories"><rect codeLine="46" fill="#F1F1F1" height="103.8633" id="Repositories" rx="2.5" ry="2.5" style="stroke:#181818;stroke-width:0.5;" width="194" x="1139.5" y="90.5"/><ellipse cx="1192.75" cy="106.5" fill="#ADD1B2" rx="11" ry="11" style="stroke:#181818;stroke-width:1.0;"/><path d="M1195.5156,102.375 Q1195.6719,102.1563 1195.8594,102.0469 Q1196.0469,101.9375 1196.2656,101.9375 Q1196.6406,101.9375 1196.875,102.2031 Q1197.1094,102.4531 1197.1094,103.0625 L1197.1094,104.5156 Q1197.1094,105.125 1196.875,105.3906 Q1196.6406,105.6563 1196.2656,105.6563 Q1195.9219,105.6563 1195.7188,105.4531 Q1195.5156,105.2656 1195.4063,104.75 Q1195.3594,104.3906 1195.1719,104.2031 Q1194.8438,103.8281 1194.2344,103.6094 Q1193.625,103.3906 1193,103.3906 Q1192.2344,103.3906 1191.5938,103.7188 Q1190.9688,104.0469 1190.4688,104.7969 Q1189.9844,105.5469 1189.9844,106.5781 L1189.9844,107.6719 Q1189.9844,108.9063 1190.875,109.7344 Q1191.7656,110.5469 1193.3594,110.5469 Q1194.2969,110.5469 1194.9531,110.2969 Q1195.3438,110.1406 1195.7656,109.7031 Q1196.0313,109.4375 1196.1719,109.3594 Q1196.3281,109.2813 1196.5313,109.2813 Q1196.8594,109.2813 1197.1094,109.5469 Q1197.375,109.7969 1197.375,110.1406 Q1197.375,110.4844 1197.0313,110.8906 Q1196.5313,111.4688 1195.7344,111.7969 Q1194.6563,112.25 1193.3594,112.25 Q1191.8438,112.25 1190.6406,111.625 Q1189.6563,111.125 1188.9688,110.0625 Q1188.2813,108.9844 1188.2813,107.7031 L1188.2813,106.5469 Q1188.2813,105.2188 1188.8906,104.0781 Q1189.5156,102.9219 1190.6094,102.3125 Q1191.7031,101.6875 1192.9375,101.6875 Q1193.6719,101.6875 1194.3125,101.8594 Q1194.9688,102.0156 1195.5156,102.375 Z " fill="#000000"/><text fill="#000000" font-family="sans-serif" font-size="14" lengthAdjust="spacing" textLength="79" x="1213.25" y="112.2969">Repositories</text><line style="stroke:#181818;stroke-width:0.5;" x1="1140.5" x2="1332.5" y1="122.5" y2="122.5"/><line style="stroke:#181818;stroke-width:0.5;" x1="1140.5" x2="1332.5" y1="130.5" y2="130.5"/><text fill="#000000" font-family="sans-serif" font-size="14" lengthAdjust="spacing" textLength="94" x="1145.5" y="149.6074">-Repositories()</text><text fill="#000000" font-family="sans-serif" font-size="14" lengthAdjust="spacing" textLength="182" x="1145.5" y="168.2285">+getInstance() : Repositories</text><text fill="#000000" font-family="sans-serif" font-size="14" lengthAdjust="spacing" textLength="128" x="1145.5" y="186.8496">+getJobRepository()</text></g><!--class JobRepository--><g id="elem_JobRepository"><rect codeLine="53" fill="#F1F1F1" height="122.4844" id="JobRepository" rx="2.5" ry="2.5" style="stroke:#181818;stroke-width:0.5;" width="127" x="888" y="357"/><ellipse cx="905.25" cy="373" fill="#ADD1B2" rx="11" ry="11" style="stroke:#181818;stroke-width:1.0;"/><path d="M908.0156,368.875 Q908.1719,368.6563 908.3594,368.5469 Q908.5469,368.4375 908.7656,368.4375 Q909.1406,368.4375 909.375,368.7031 Q909.6094,368.9531 909.6094,369.5625 L909.6094,371.0156 Q909.6094,371.625 909.375,371.8906 Q909.1406,372.1563 908.7656,372.1563 Q908.4219,372.1563 908.2188,371.9531 Q908.0156,371.7656 907.9063,371.25 Q907.8594,370.8906 907.6719,370.7031 Q907.3438,370.3281 906.7344,370.1094 Q906.125,369.8906 905.5,369.8906 Q904.7344,369.8906 904.0938,370.2188 Q903.4688,370.5469 902.9688,371.2969 Q902.4844,372.0469 902.4844,373.0781 L902.4844,374.1719 Q902.4844,375.4063 903.375,376.2344 Q904.2656,377.0469 905.8594,377.0469 Q906.7969,377.0469 907.4531,376.7969 Q907.8438,376.6406 908.2656,376.2031 Q908.5313,375.9375 908.6719,375.8594 Q908.8281,375.7813 909.0313,375.7813 Q909.3594,375.7813 909.6094,376.0469 Q909.875,376.2969 909.875,376.6406 Q909.875,376.9844 909.5313,377.3906 Q909.0313,377.9688 908.2344,378.2969 Q907.1563,378.75 905.8594,378.75 Q904.3438,378.75 903.1406,378.125 Q902.1563,377.625 901.4688,376.5625 Q900.7813,375.4844 900.7813,374.2031 L900.7813,373.0469 Q900.7813,371.7188 901.3906,370.5781 Q902.0156,369.4219 903.1094,368.8125 Q904.2031,368.1875 905.4375,368.1875 Q906.1719,368.1875 906.8125,368.3594 Q907.4688,368.5156 908.0156,368.875 Z " fill="#000000"/><text fill="#000000" font-family="sans-serif" font-size="14" lengthAdjust="spacing" textLength="90" x="919.75" y="378.7969">JobRepository</text><line style="stroke:#181818;stroke-width:0.5;" x1="889" x2="1014" y1="389" y2="389"/><text fill="#000000" font-family="sans-serif" font-size="14" lengthAdjust="spacing" textLength="88" x="894" y="408.1074">-List&lt;Job&gt; job</text><line style="stroke:#181818;stroke-width:0.5;" x1="889" x2="1014" y1="415.6211" y2="415.6211"/><text fill="#000000" font-family="sans-serif" font-size="14" lengthAdjust="spacing" textLength="80" x="894" y="434.7285">-addJob(job)</text><text fill="#000000" font-family="sans-serif" font-size="14" lengthAdjust="spacing" textLength="105" x="894" y="453.3496">-validateJob(job)</text><text fill="#000000" font-family="sans-serif" font-size="14" lengthAdjust="spacing" textLength="115" x="894" y="471.9707">+createJob(name)</text></g><!--link RegisterJobController to Repositories--><g id="link_RegisterJobController_Repositories"><path codeLine="61" d="M1036.24,142.5 C1068.64,142.5 1099.85,142.5 1133.33,142.5 " fill="none" id="RegisterJobController-to-Repositories" style="stroke:#181818;stroke-width:1.0;stroke-dasharray:7.0,7.0;"/><polygon fill="#181818" points="1139.33,142.5,1130.33,138.5,1134.33,142.5,1130.33,146.5,1139.33,142.5" style="stroke:#181818;stroke-width:1.0;"/><text fill="#000000" font-family="sans-serif" font-size="13" lengthAdjust="spacing" textLength="67" x="1054.25" y="135.5283">repositories</text></g><!--link RegisterJobController to Job--><g id="link_RegisterJobController_Job"><path codeLine="62" d="M933.4,185.22 C896.36,270.58 814.4086,459.416 774.1186,552.256 " fill="none" id="RegisterJobController-to-Job" style="stroke:#181818;stroke-width:1.0;stroke-dasharray:7.0,7.0;"/><polygon fill="#181818" points="771.73,557.76,778.9823,551.0963,773.7205,553.1733,771.6435,547.9115,771.73,557.76" style="stroke:#181818;stroke-width:1.0;"/><text fill="#000000" font-family="sans-serif" font-size="13" lengthAdjust="spacing" textLength="7" x="767.2468" y="546.6551">1</text></g><!--link RegisterJobController to JobRepository--><g id="link_RegisterJobController_JobRepository"><path codeLine="63" d="M951.5,185.04 C951.5,230.77 951.5,298.69 951.5,350.77 " fill="none" id="RegisterJobController-to-JobRepository" style="stroke:#181818;stroke-width:1.0;stroke-dasharray:7.0,7.0;"/><polygon fill="#181818" points="951.5,356.77,955.5,347.77,951.5,351.77,947.5,347.77,951.5,356.77" style="stroke:#181818;stroke-width:1.0;"/><text fill="#000000" font-family="sans-serif" font-size="13" lengthAdjust="spacing" textLength="7" x="944.0953" y="345.7246">1</text></g><!--link RegisterJobUI to RegisterJobController--><g id="link_RegisterJobUI_RegisterJobController"><path codeLine="65" d="M832,142.5 C832.11,142.5 832.17,142.5 832.17,142.5 C832.17,142.5 844.52,142.5 860.88,142.5 " fill="none" id="RegisterJobUI-to-RegisterJobController" style="stroke:#181818;stroke-width:1.0;stroke-dasharray:7.0,7.0;"/><polygon fill="#181818" points="866.88,142.5,857.88,138.5,861.88,142.5,857.88,146.5,866.88,142.5" style="stroke:#181818;stroke-width:1.0;"/></g><!--link Repositories to Repositories--><g id="link_Repositories_Repositories"><path codeLine="67" d="M1333.78,111.02 C1353.98,114.34 1368.5,124.83 1368.5,142.5 C1368.5,160.17 1359.9006,169.6869 1339.7006,173.0069 " fill="none" id="Repositories-to-Repositories" style="stroke:#181818;stroke-width:1.0;"/><polygon fill="#181818" points="1333.78,173.98,1343.3096,176.4674,1338.7138,173.1691,1342.0121,168.5733,1333.78,173.98" style="stroke:#181818;stroke-width:1.0;"/><text fill="#000000" font-family="sans-serif" font-size="13" lengthAdjust="spacing" textLength="49" x="1374.5" y="148.0283">instance</text></g><!--link Repositories to JobRepository--><g id="link_Repositories_JobRepository"><path codeLine="68" d="M1183.23,194.62 C1135.3,240.62 1069.159,304.0855 1018.529,352.6755 " fill="none" id="Repositories-to-JobRepository" style="stroke:#181818;stroke-width:1.0;"/><polygon fill="#181818" points="1014.2,356.83,1023.4631,353.4842,1017.8075,353.3679,1017.9237,347.7122,1014.2,356.83" style="stroke:#181818;stroke-width:1.0;"/><text fill="#000000" font-family="sans-serif" font-size="13" lengthAdjust="spacing" textLength="79" x="1061.5" y="323.0283">jobRepository</text><text fill="#000000" font-family="sans-serif" font-size="13" lengthAdjust="spacing" textLength="7" x="1014.045" y="345.7915">1</text></g><!--link JobRepository to Job--><g id="link_JobRepository_Job"><path codeLine="70" d="M892.92,479.24 C868.4,504.45 845.5,528 845.5,528 C845.5,528 832.6854,538.8103 812.6954,555.6803 " fill="none" id="JobRepository-to-Job" style="stroke:#181818;stroke-width:1.0;"/><polygon fill="#181818" points="808.11,559.55,817.5678,556.8024,811.9311,556.3253,812.4082,550.6886,808.11,559.55" style="stroke:#181818;stroke-width:1.0;"/><text fill="#000000" font-family="sans-serif" font-size="13" lengthAdjust="spacing" textLength="17" x="864.5" y="524.0283">job</text><text fill="#000000" font-family="sans-serif" font-size="13" lengthAdjust="spacing" textLength="5" x="815.9397" y="549.0528">*</text></g><!--reverse link Collaborator to HumanResourcesManager--><g id="link_Collaborator_HumanResourcesManager"><path codeLine="72" d="M418.0629,294.3432 C440.3529,338.8332 454.72,367.52 467.85,393.73 " fill="none" id="Collaborator-backto-HumanResourcesManager" style="stroke:#181818;stroke-width:1.0;"/><polygon fill="none" points="410,278.25,412.6985,297.0308,423.4273,291.6556,410,278.25" style="stroke:#181818;stroke-width:1.0;"/></g><!--link Collaborator to Job--><g id="link_Collaborator_Job"><path codeLine="73" d="M502.64,278.11 C553.36,320.74 596.5,357 596.5,357 C596.5,357 670.5063,478.8911 715.2363,552.5711 " fill="none" id="Collaborator-to-Job" style="stroke:#181818;stroke-width:1.0;"/><polygon fill="#181818" points="718.35,557.7,717.0988,547.9309,715.7553,553.426,710.2603,552.0825,718.35,557.7" style="stroke:#181818;stroke-width:1.0;"/><text fill="#000000" font-family="sans-serif" font-size="13" lengthAdjust="spacing" textLength="24" x="671.5" y="423.5283">jobs</text><text fill="#000000" font-family="sans-serif" font-size="13" lengthAdjust="spacing" textLength="20" x="491.32" y="300.465">1..*</text><text fill="#000000" font-family="sans-serif" font-size="13" lengthAdjust="spacing" textLength="7" x="706.6939" y="546.5871">1</text></g><!--reverse link HumanResourcesManager to Job--><g id="link_HumanResourcesManager_Job"><path codeLine="75" d="M514.8243,445.7408 C557.0943,477.7308 623.5,528 623.5,528 C623.5,528 658.02,550.19 690.93,571.35 " fill="none" id="HumanResourcesManager-backto-Job" style="stroke:#181818;stroke-width:1.0;"/><polygon fill="#181818" points="510.04,442.12,514.8026,450.7407,514.0269,445.1373,519.6304,444.3616,510.04,442.12" style="stroke:#181818;stroke-width:1.0;"/><text fill="#000000" font-family="sans-serif" font-size="13" lengthAdjust="spacing" textLength="59" x="624.5" y="524.0283">createdBy</text></g><!--SRC=[XLFBhfim4DtxAwnialH2rBkDeaZtiRYf-f0IzGECcO1lZ8riqvO-_hrZ78ZTKfKD-9mpCsV6mz9UX6gPOGrjjDAyDhe1wam7vCQqZ5zO1IVNIw06k6Egah70rgpKNuMgw9b96pDIA71z2xJLilS7ifmXjN6QH55SCciVd3EYw1mSk5OdyHteMqAM4iwEEasDg6f7I-7j2Aq86MBeErtG7uJYavym71qfrW0Pa3iaL_wu3e8lJ8gIEV3mgoxMvDUOvGYLi0uCCazQEQEb18DvGvfPTXMItfaRUQqrb_Np0RDDn1DcO8Ksp6apvtu0tcFixdGHKkwfzIyF1CetZGs4mpDsH7rRdywFmhWwGbdP26jnMluKy8UoD80MM7XVnPft3IWSx_KZiTJMMi77hYd093WqJCY028pb_FRjsBUMzQWFCqeQ7gQKnOwpr6Wscij6Erdi8Gk5CooOJOMYgRzq3LD7iBep7Em7fd2JJJpz8xJQ2dGYm8vtdCVWUBKLk8EokFmSLckwJG8d1Tx5XFUho4T2ZBSyN2eo- -7-0eRTJXivlwT3BMxWYarhDh-scttQuXP_uSZuFu8mQd6_yAx_hxZrbNZ09HzgpqHxNMGf_ykYk0xw3rq-KnFLhwc7b1w2tWn1GKf8yiFHtSyyf_DxaYeNzviD9efSX8IMaFajs_d4ADlIS5lbOqz-0m00]--></g></svg>