<?xml version="1.0" encoding="us-ascii" standalone="no"?><svg xmlns="http://www.w3.org/2000/svg" xmlns:xlink="http://www.w3.org/1999/xlink" contentStyleType="text/css" height="650px" preserveAspectRatio="none" style="width:1394px;height:650px;background:#FFFFFF;" version="1.1" viewBox="0 0 1394 650" width="1394px" zoomAndPan="magnify"><defs/><g><!--class Job--><g id="elem_Job"><rect codeLine="11" fill="#F1F1F1" height="103.8633" id="Job" rx="2.5" ry="2.5" style="stroke:#181818;stroke-width:0.5;" width="117" x="651.5" y="540"/><ellipse cx="694.85" cy="556" fill="#ADD1B2" rx="11" ry="11" style="stroke:#181818;stroke-width:1.0;"/><path d="M697.6156,551.875 Q697.7719,551.6563 697.9594,551.5469 Q698.1469,551.4375 698.3656,551.4375 Q698.7406,551.4375 698.975,551.7031 Q699.2094,551.9531 699.2094,552.5625 L699.2094,554.0156 Q699.2094,554.625 698.975,554.8906 Q698.7406,555.1563 698.3656,555.1563 Q698.0219,555.1563 697.8188,554.9531 Q697.6156,554.7656 697.5063,554.25 Q697.4594,553.8906 697.2719,553.7031 Q696.9438,553.3281 696.3344,553.1094 Q695.725,552.8906 695.1,552.8906 Q694.3344,552.8906 693.6938,553.2188 Q693.0688,553.5469 692.5688,554.2969 Q692.0844,555.0469 692.0844,556.0781 L692.0844,557.1719 Q692.0844,558.4063 692.975,559.2344 Q693.8656,560.0469 695.4594,560.0469 Q696.3969,560.0469 697.0531,559.7969 Q697.4438,559.6406 697.8656,559.2031 Q698.1313,558.9375 698.2719,558.8594 Q698.4281,558.7813 698.6313,558.7813 Q698.9594,558.7813 699.2094,559.0469 Q699.475,559.2969 699.475,559.6406 Q699.475,559.9844 699.1313,560.3906 Q698.6313,560.9688 697.8344,561.2969 Q696.7563,561.75 695.4594,561.75 Q693.9438,561.75 692.7406,561.125 Q691.7563,560.625 691.0688,559.5625 Q690.3813,558.4844 690.3813,557.2031 L690.3813,556.0469 Q690.3813,554.7188 690.9906,553.5781 Q691.6156,552.4219 692.7094,551.8125 Q693.8031,551.1875 695.0375,551.1875 Q695.7719,551.1875 696.4125,551.3594 Q697.0688,551.5156 697.6156,551.875 Z " fill="#000000"/><text fill="#000000" font-family="sans-serif" font-size="14" lengthAdjust="spacing" textLength="22" x="715.15" y="561.7969">Job</text><line style="stroke:#181818;stroke-width:0.5;" x1="652.5" x2="767.5" y1="572" y2="572"/><text fill="#000000" font-family="sans-serif" font-size="14" lengthAdjust="spacing" textLength="81" x="657.5" y="591.1074">-String name</text><line style="stroke:#181818;stroke-width:0.5;" x1="652.5" x2="767.5" y1="598.6211" y2="598.6211"/><text fill="#000000" font-family="sans-serif" font-size="14" lengthAdjust="spacing" textLength="75" x="657.5" y="617.7285">+Job(name)</text><text fill="#000000" font-family="sans-serif" font-size="14" lengthAdjust="spacing" textLength="105" x="657.5" y="636.3496">-validateJob(job)</text></g><!--class RegisterJobController--><g id="elem_RegisterJobController"><rect codeLine="18" fill="#F1F1F1" height="85.2422" id="RegisterJobController" rx="2.5" ry="2.5" style="stroke:#181818;stroke-width:0.5;" width="169" x="824.5" y="91"/><ellipse cx="839.5" cy="107" fill="#ADD1B2" rx="11" ry="11" style="stroke:#181818;stroke-width:1.0;"/><path d="M842.2656,102.875 Q842.4219,102.6563 842.6094,102.5469 Q842.7969,102.4375 843.0156,102.4375 Q843.3906,102.4375 843.625,102.7031 Q843.8594,102.9531 843.8594,103.5625 L843.8594,105.0156 Q843.8594,105.625 843.625,105.8906 Q843.3906,106.1563 843.0156,106.1563 Q842.6719,106.1563 842.4688,105.9531 Q842.2656,105.7656 842.1563,105.25 Q842.1094,104.8906 841.9219,104.7031 Q841.5938,104.3281 840.9844,104.1094 Q840.375,103.8906 839.75,103.8906 Q838.9844,103.8906 838.3438,104.2188 Q837.7188,104.5469 837.2188,105.2969 Q836.7344,106.0469 836.7344,107.0781 L836.7344,108.1719 Q836.7344,109.4063 837.625,110.2344 Q838.5156,111.0469 840.1094,111.0469 Q841.0469,111.0469 841.7031,110.7969 Q842.0938,110.6406 842.5156,110.2031 Q842.7813,109.9375 842.9219,109.8594 Q843.0781,109.7813 843.2813,109.7813 Q843.6094,109.7813 843.8594,110.0469 Q844.125,110.2969 844.125,110.6406 Q844.125,110.9844 843.7813,111.3906 Q843.2813,111.9688 842.4844,112.2969 Q841.4063,112.75 840.1094,112.75 Q838.5938,112.75 837.3906,112.125 Q836.4063,111.625 835.7188,110.5625 Q835.0313,109.4844 835.0313,108.2031 L835.0313,107.0469 Q835.0313,105.7188 835.6406,104.5781 Q836.2656,103.4219 837.3594,102.8125 Q838.4531,102.1875 839.6875,102.1875 Q840.4219,102.1875 841.0625,102.3594 Q841.7188,102.5156 842.2656,102.875 Z " fill="#000000"/><text fill="#000000" font-family="sans-serif" font-size="14" lengthAdjust="spacing" textLength="137" x="853.5" y="112.7969">RegisterJobController</text><line style="stroke:#181818;stroke-width:0.5;" x1="825.5" x2="992.5" y1="123" y2="123"/><line style="stroke:#181818;stroke-width:0.5;" x1="825.5" x2="992.5" y1="131" y2="131"/><text fill="#000000" font-family="sans-serif" font-size="14" lengthAdjust="spacing" textLength="155" x="830.5" y="150.1074">+RegisterJobController()</text><text fill="#000000" font-family="sans-serif" font-size="14" lengthAdjust="spacing" textLength="123" x="830.5" y="168.7285">+registerJob(name)</text></g><!--class RegisterJobUI--><g id="elem_RegisterJobUI"><rect codeLine="24" fill="#F1F1F1" height="48" id="RegisterJobUI" rx="2.5" ry="2.5" style="stroke:#181818;stroke-width:0.5;" width="119" x="670.5" y="109.5"/><ellipse cx="685.5" cy="125.5" fill="#ADD1B2" rx="11" ry="11" style="stroke:#181818;stroke-width:1.0;"/><path d="M688.2656,121.375 Q688.4219,121.1563 688.6094,121.0469 Q688.7969,120.9375 689.0156,120.9375 Q689.3906,120.9375 689.625,121.2031 Q689.8594,121.4531 689.8594,122.0625 L689.8594,123.5156 Q689.8594,124.125 689.625,124.3906 Q689.3906,124.6563 689.0156,124.6563 Q688.6719,124.6563 688.4688,124.4531 Q688.2656,124.2656 688.1563,123.75 Q688.1094,123.3906 687.9219,123.2031 Q687.5938,122.8281 686.9844,122.6094 Q686.375,122.3906 685.75,122.3906 Q684.9844,122.3906 684.3438,122.7188 Q683.7188,123.0469 683.2188,123.7969 Q682.7344,124.5469 682.7344,125.5781 L682.7344,126.6719 Q682.7344,127.9063 683.625,128.7344 Q684.5156,129.5469 686.1094,129.5469 Q687.0469,129.5469 687.7031,129.2969 Q688.0938,129.1406 688.5156,128.7031 Q688.7813,128.4375 688.9219,128.3594 Q689.0781,128.2813 689.2813,128.2813 Q689.6094,128.2813 689.8594,128.5469 Q690.125,128.7969 690.125,129.1406 Q690.125,129.4844 689.7813,129.8906 Q689.2813,130.4688 688.4844,130.7969 Q687.4063,131.25 686.1094,131.25 Q684.5938,131.25 683.3906,130.625 Q682.4063,130.125 681.7188,129.0625 Q681.0313,127.9844 681.0313,126.7031 L681.0313,125.5469 Q681.0313,124.2188 681.6406,123.0781 Q682.2656,121.9219 683.3594,121.3125 Q684.4531,120.6875 685.6875,120.6875 Q686.4219,120.6875 687.0625,120.8594 Q687.7188,121.0156 688.2656,121.375 Z " fill="#000000"/><text fill="#000000" font-family="sans-serif" font-size="14" lengthAdjust="spacing" textLength="87" x="699.5" y="131.2969">RegisterJobUI</text><line style="stroke:#181818;stroke-width:0.5;" x1="671.5" x2="788.5" y1="141.5" y2="141.5"/><line style="stroke:#181818;stroke-width:0.5;" x1="671.5" x2="788.5" y1="149.5" y2="149.5"/></g><!--class Collaborator--><g id="elem_Collaborator"><rect codeLine="27" fill="#F1F1F1" height="252.832" id="Collaborator" rx="2.5" ry="2.5" style="stroke:#181818;stroke-width:0.5;" width="628" x="7" y="7"/><ellipse cx="277.75" cy="23" fill="#ADD1B2" rx="11" ry="11" style="stroke:#181818;stroke-width:1.0;"/><path d="M280.5156,18.875 Q280.6719,18.6563 280.8594,18.5469 Q281.0469,18.4375 281.2656,18.4375 Q281.6406,18.4375 281.875,18.7031 Q282.1094,18.9531 282.1094,19.5625 L282.1094,21.0156 Q282.1094,21.625 281.875,21.8906 Q281.6406,22.1563 281.2656,22.1563 Q280.9219,22.1563 280.7188,21.9531 Q280.5156,21.7656 280.4063,21.25 Q280.3594,20.8906 280.1719,20.7031 Q279.8438,20.3281 279.2344,20.1094 Q278.625,19.8906 278,19.8906 Q277.2344,19.8906 276.5938,20.2188 Q275.9688,20.5469 275.4688,21.2969 Q274.9844,22.0469 274.9844,23.0781 L274.9844,24.1719 Q274.9844,25.4063 275.875,26.2344 Q276.7656,27.0469 278.3594,27.0469 Q279.2969,27.0469 279.9531,26.7969 Q280.3438,26.6406 280.7656,26.2031 Q281.0313,25.9375 281.1719,25.8594 Q281.3281,25.7813 281.5313,25.7813 Q281.8594,25.7813 282.1094,26.0469 Q282.375,26.2969 282.375,26.6406 Q282.375,26.9844 282.0313,27.3906 Q281.5313,27.9688 280.7344,28.2969 Q279.6563,28.75 278.3594,28.75 Q276.8438,28.75 275.6406,28.125 Q274.6563,27.625 273.9688,26.5625 Q273.2813,25.4844 273.2813,24.2031 L273.2813,23.0469 Q273.2813,21.7188 273.8906,20.5781 Q274.5156,19.4219 275.6094,18.8125 Q276.7031,18.1875 277.9375,18.1875 Q278.6719,18.1875 279.3125,18.3594 Q279.9688,18.5156 280.5156,18.875 Z " fill="#000000"/><text fill="#000000" font-family="sans-serif" font-size="14" lengthAdjust="spacing" textLength="78" x="298.25" y="28.7969">Collaborator</text><line style="stroke:#181818;stroke-width:0.5;" x1="8" x2="634" y1="39" y2="39"/><text fill="#000000" font-family="sans-serif" font-size="14" lengthAdjust="spacing" textLength="81" x="13" y="58.1074">-String name</text><text fill="#000000" font-family="sans-serif" font-size="14" lengthAdjust="spacing" textLength="95" x="13" y="76.7285">-List&lt;Skill&gt; skill</text><text fill="#000000" font-family="sans-serif" font-size="14" lengthAdjust="spacing" textLength="50" x="13" y="95.3496">-Job job</text><text fill="#000000" font-family="sans-serif" font-size="14" lengthAdjust="spacing" textLength="111" x="13" y="113.9707">-Date dateOfBirth</text><text fill="#000000" font-family="sans-serif" font-size="14" lengthAdjust="spacing" textLength="132" x="13" y="132.5918">-Date admissionDate</text><text fill="#000000" font-family="sans-serif" font-size="14" lengthAdjust="spacing" textLength="112" x="13" y="151.2129">-Address address</text><text fill="#000000" font-family="sans-serif" font-size="14" lengthAdjust="spacing" textLength="113" x="13" y="169.834">-int phoneNumber</text><text fill="#000000" font-family="sans-serif" font-size="14" lengthAdjust="spacing" textLength="79" x="13" y="188.4551">-String email</text><text fill="#000000" font-family="sans-serif" font-size="14" lengthAdjust="spacing" textLength="38" x="13" y="207.0762">-int cc</text><text fill="#000000" font-family="sans-serif" font-size="14" lengthAdjust="spacing" textLength="101" x="13" y="225.6973">-int cardNumber</text><line style="stroke:#181818;stroke-width:0.5;" x1="8" x2="634" y1="233.2109" y2="233.2109"/><text fill="#000000" font-family="sans-serif" font-size="14" lengthAdjust="spacing" textLength="616" x="13" y="252.3184">+Collaborator(name, dateOfBirth, admissionDate, address, phoneNumber, email, cc, cardNumber)</text></g><!--class HumanResourcesManager--><g id="elem_HumanResourcesManager"><rect codeLine="42" fill="#F1F1F1" height="48" id="HumanResourcesManager" rx="2.5" ry="2.5" style="stroke:#181818;stroke-width:0.5;" width="200" x="346" y="376"/><ellipse cx="361" cy="392" fill="#ADD1B2" rx="11" ry="11" style="stroke:#181818;stroke-width:1.0;"/><path d="M363.7656,387.875 Q363.9219,387.6563 364.1094,387.5469 Q364.2969,387.4375 364.5156,387.4375 Q364.8906,387.4375 365.125,387.7031 Q365.3594,387.9531 365.3594,388.5625 L365.3594,390.0156 Q365.3594,390.625 365.125,390.8906 Q364.8906,391.1563 364.5156,391.1563 Q364.1719,391.1563 363.9688,390.9531 Q363.7656,390.7656 363.6563,390.25 Q363.6094,389.8906 363.4219,389.7031 Q363.0938,389.3281 362.4844,389.1094 Q361.875,388.8906 361.25,388.8906 Q360.4844,388.8906 359.8438,389.2188 Q359.2188,389.5469 358.7188,390.2969 Q358.2344,391.0469 358.2344,392.0781 L358.2344,393.1719 Q358.2344,394.4063 359.125,395.2344 Q360.0156,396.0469 361.6094,396.0469 Q362.5469,396.0469 363.2031,395.7969 Q363.5938,395.6406 364.0156,395.2031 Q364.2813,394.9375 364.4219,394.8594 Q364.5781,394.7813 364.7813,394.7813 Q365.1094,394.7813 365.3594,395.0469 Q365.625,395.2969 365.625,395.6406 Q365.625,395.9844 365.2813,396.3906 Q364.7813,396.9688 363.9844,397.2969 Q362.9063,397.75 361.6094,397.75 Q360.0938,397.75 358.8906,397.125 Q357.9063,396.625 357.2188,395.5625 Q356.5313,394.4844 356.5313,393.2031 L356.5313,392.0469 Q356.5313,390.7188 357.1406,389.5781 Q357.7656,388.4219 358.8594,387.8125 Q359.9531,387.1875 361.1875,387.1875 Q361.9219,387.1875 362.5625,387.3594 Q363.2188,387.5156 363.7656,387.875 Z " fill="#000000"/><text fill="#000000" font-family="sans-serif" font-size="14" lengthAdjust="spacing" textLength="168" x="375" y="397.7969">HumanResourcesManager</text><line style="stroke:#181818;stroke-width:0.5;" x1="347" x2="545" y1="408" y2="408"/><line style="stroke:#181818;stroke-width:0.5;" x1="347" x2="545" y1="416" y2="416"/></g><!--class Repositories--><g id="elem_Repositories"><rect codeLine="45" fill="#F1F1F1" height="103.8633" id="Repositories" rx="2.5" ry="2.5" style="stroke:#181818;stroke-width:0.5;" width="194" x="1097" y="81.5"/><ellipse cx="1150.25" cy="97.5" fill="#ADD1B2" rx="11" ry="11" style="stroke:#181818;stroke-width:1.0;"/><path d="M1153.0156,93.375 Q1153.1719,93.1563 1153.3594,93.0469 Q1153.5469,92.9375 1153.7656,92.9375 Q1154.1406,92.9375 1154.375,93.2031 Q1154.6094,93.4531 1154.6094,94.0625 L1154.6094,95.5156 Q1154.6094,96.125 1154.375,96.3906 Q1154.1406,96.6563 1153.7656,96.6563 Q1153.4219,96.6563 1153.2188,96.4531 Q1153.0156,96.2656 1152.9063,95.75 Q1152.8594,95.3906 1152.6719,95.2031 Q1152.3438,94.8281 1151.7344,94.6094 Q1151.125,94.3906 1150.5,94.3906 Q1149.7344,94.3906 1149.0938,94.7188 Q1148.4688,95.0469 1147.9688,95.7969 Q1147.4844,96.5469 1147.4844,97.5781 L1147.4844,98.6719 Q1147.4844,99.9063 1148.375,100.7344 Q1149.2656,101.5469 1150.8594,101.5469 Q1151.7969,101.5469 1152.4531,101.2969 Q1152.8438,101.1406 1153.2656,100.7031 Q1153.5313,100.4375 1153.6719,100.3594 Q1153.8281,100.2813 1154.0313,100.2813 Q1154.3594,100.2813 1154.6094,100.5469 Q1154.875,100.7969 1154.875,101.1406 Q1154.875,101.4844 1154.5313,101.8906 Q1154.0313,102.4688 1153.2344,102.7969 Q1152.1563,103.25 1150.8594,103.25 Q1149.3438,103.25 1148.1406,102.625 Q1147.1563,102.125 1146.4688,101.0625 Q1145.7813,99.9844 1145.7813,98.7031 L1145.7813,97.5469 Q1145.7813,96.2188 1146.3906,95.0781 Q1147.0156,93.9219 1148.1094,93.3125 Q1149.2031,92.6875 1150.4375,92.6875 Q1151.1719,92.6875 1151.8125,92.8594 Q1152.4688,93.0156 1153.0156,93.375 Z " fill="#000000"/><text fill="#000000" font-family="sans-serif" font-size="14" lengthAdjust="spacing" textLength="79" x="1170.75" y="103.2969">Repositories</text><line style="stroke:#181818;stroke-width:0.5;" x1="1098" x2="1290" y1="113.5" y2="113.5"/><line style="stroke:#181818;stroke-width:0.5;" x1="1098" x2="1290" y1="121.5" y2="121.5"/><text fill="#000000" font-family="sans-serif" font-size="14" lengthAdjust="spacing" textLength="94" x="1103" y="140.6074">-Repositories()</text><text fill="#000000" font-family="sans-serif" font-size="14" lengthAdjust="spacing" textLength="182" x="1103" y="159.2285">+getInstance() : Repositories</text><text fill="#000000" font-family="sans-serif" font-size="14" lengthAdjust="spacing" textLength="128" x="1103" y="177.8496">+getJobRepository()</text></g><!--class JobRepository--><g id="elem_JobRepository"><rect codeLine="52" fill="#F1F1F1" height="122.4844" id="JobRepository" rx="2.5" ry="2.5" style="stroke:#181818;stroke-width:0.5;" width="127" x="845.5" y="339"/><ellipse cx="862.75" cy="355" fill="#ADD1B2" rx="11" ry="11" style="stroke:#181818;stroke-width:1.0;"/><path d="M865.5156,350.875 Q865.6719,350.6563 865.8594,350.5469 Q866.0469,350.4375 866.2656,350.4375 Q866.6406,350.4375 866.875,350.7031 Q867.1094,350.9531 867.1094,351.5625 L867.1094,353.0156 Q867.1094,353.625 866.875,353.8906 Q866.6406,354.1563 866.2656,354.1563 Q865.9219,354.1563 865.7188,353.9531 Q865.5156,353.7656 865.4063,353.25 Q865.3594,352.8906 865.1719,352.7031 Q864.8438,352.3281 864.2344,352.1094 Q863.625,351.8906 863,351.8906 Q862.2344,351.8906 861.5938,352.2188 Q860.9688,352.5469 860.4688,353.2969 Q859.9844,354.0469 859.9844,355.0781 L859.9844,356.1719 Q859.9844,357.4063 860.875,358.2344 Q861.7656,359.0469 863.3594,359.0469 Q864.2969,359.0469 864.9531,358.7969 Q865.3438,358.6406 865.7656,358.2031 Q866.0313,357.9375 866.1719,357.8594 Q866.3281,357.7813 866.5313,357.7813 Q866.8594,357.7813 867.1094,358.0469 Q867.375,358.2969 867.375,358.6406 Q867.375,358.9844 867.0313,359.3906 Q866.5313,359.9688 865.7344,360.2969 Q864.6563,360.75 863.3594,360.75 Q861.8438,360.75 860.6406,360.125 Q859.6563,359.625 858.9688,358.5625 Q858.2813,357.4844 858.2813,356.2031 L858.2813,355.0469 Q858.2813,353.7188 858.8906,352.5781 Q859.5156,351.4219 860.6094,350.8125 Q861.7031,350.1875 862.9375,350.1875 Q863.6719,350.1875 864.3125,350.3594 Q864.9688,350.5156 865.5156,350.875 Z " fill="#000000"/><text fill="#000000" font-family="sans-serif" font-size="14" lengthAdjust="spacing" textLength="90" x="877.25" y="360.7969">JobRepository</text><line style="stroke:#181818;stroke-width:0.5;" x1="846.5" x2="971.5" y1="371" y2="371"/><text fill="#000000" font-family="sans-serif" font-size="14" lengthAdjust="spacing" textLength="88" x="851.5" y="390.1074">-List&lt;Job&gt; job</text><line style="stroke:#181818;stroke-width:0.5;" x1="846.5" x2="971.5" y1="397.6211" y2="397.6211"/><text fill="#000000" font-family="sans-serif" font-size="14" lengthAdjust="spacing" textLength="80" x="851.5" y="416.7285">-addJob(job)</text><text fill="#000000" font-family="sans-serif" font-size="14" lengthAdjust="spacing" textLength="105" x="851.5" y="435.3496">-validateJob(job)</text><text fill="#000000" font-family="sans-serif" font-size="14" lengthAdjust="spacing" textLength="115" x="851.5" y="453.9707">+createJob(name)</text></g><!--link RegisterJobController to Repositories--><g id="link_RegisterJobController_Repositories"><path codeLine="60" d="M993.74,133.5 C1026.14,133.5 1057.35,133.5 1090.83,133.5 " fill="none" id="RegisterJobController-to-Repositories" style="stroke:#181818;stroke-width:1.0;stroke-dasharray:7.0,7.0;"/><polygon fill="#181818" points="1096.83,133.5,1087.83,129.5,1091.83,133.5,1087.83,137.5,1096.83,133.5" style="stroke:#181818;stroke-width:1.0;"/><text fill="#000000" font-family="sans-serif" font-size="13" lengthAdjust="spacing" textLength="67" x="1011.75" y="126.5283">repositories</text></g><!--link RegisterJobController to Job--><g id="link_RegisterJobController_Job"><path codeLine="61" d="M890.81,176.22 C854.26,260.08 774.3779,443.32 734.6679,534.4 " fill="none" id="RegisterJobController-to-Job" style="stroke:#181818;stroke-width:1.0;stroke-dasharray:7.0,7.0;"/><polygon fill="#181818" points="732.27,539.9,739.5336,533.2486,734.2683,535.3167,732.2003,530.0514,732.27,539.9" style="stroke:#181818;stroke-width:1.0;"/><text fill="#000000" font-family="sans-serif" font-size="13" lengthAdjust="spacing" textLength="7" x="727.7922" y="528.8139">1</text></g><!--link RegisterJobController to JobRepository--><g id="link_RegisterJobController_JobRepository"><path codeLine="62" d="M909,176.12 C909,219.91 909,283.24 909,332.95 " fill="none" id="RegisterJobController-to-JobRepository" style="stroke:#181818;stroke-width:1.0;stroke-dasharray:7.0,7.0;"/><polygon fill="#181818" points="909,338.95,913,329.95,909,333.95,905,329.95,909,338.95" style="stroke:#181818;stroke-width:1.0;"/><text fill="#000000" font-family="sans-serif" font-size="13" lengthAdjust="spacing" textLength="7" x="901.5953" y="327.9254">1</text></g><!--link RegisterJobUI to RegisterJobController--><g id="link_RegisterJobUI_RegisterJobController"><path codeLine="64" d="M789.5,133.5 C789.61,133.5 789.67,133.5 789.67,133.5 C789.67,133.5 802.02,133.5 818.38,133.5 " fill="none" id="RegisterJobUI-to-RegisterJobController" style="stroke:#181818;stroke-width:1.0;stroke-dasharray:7.0,7.0;"/><polygon fill="#181818" points="824.38,133.5,815.38,129.5,819.38,133.5,815.38,137.5,824.38,133.5" style="stroke:#181818;stroke-width:1.0;"/></g><!--link Repositories to Repositories--><g id="link_Repositories_Repositories"><path codeLine="66" d="M1291.28,103.47 C1311.48,106.63 1326,116.64 1326,133.5 C1326,150.36 1317.4079,159.4427 1297.2079,162.6027 " fill="none" id="Repositories-to-Repositories" style="stroke:#181818;stroke-width:1.0;"/><polygon fill="#181818" points="1291.28,163.53,1300.7901,166.0909,1296.2199,162.7572,1299.5536,158.1871,1291.28,163.53" style="stroke:#181818;stroke-width:1.0;"/><text fill="#000000" font-family="sans-serif" font-size="13" lengthAdjust="spacing" textLength="49" x="1332" y="139.0283">instance</text></g><!--link Repositories to JobRepository--><g id="link_Repositories_JobRepository"><path codeLine="67" d="M1138.71,185.81 C1091.12,229.98 1026.8376,289.6382 976.9876,335.9082 " fill="none" id="Repositories-to-JobRepository" style="stroke:#181818;stroke-width:1.0;"/><polygon fill="#181818" points="972.59,339.99,981.9076,336.7991,976.2547,336.5885,976.4652,330.9356,972.59,339.99" style="stroke:#181818;stroke-width:1.0;"/><text fill="#000000" font-family="sans-serif" font-size="13" lengthAdjust="spacing" textLength="79" x="1027" y="305.0283">jobRepository</text><text fill="#000000" font-family="sans-serif" font-size="13" lengthAdjust="spacing" textLength="7" x="980.3473" y="329.0857">1</text></g><!--link JobRepository to Job--><g id="link_JobRepository_Job"><path codeLine="69" d="M850.97,461.24 C826.69,486.45 804,510 804,510 C804,510 792.2756,520.1036 773.2756,536.4736 " fill="none" id="JobRepository-to-Job" style="stroke:#181818;stroke-width:1.0;"/><polygon fill="#181818" points="768.73,540.39,778.1592,537.5458,772.518,537.1264,772.9374,531.4851,768.73,540.39" style="stroke:#181818;stroke-width:1.0;"/><text fill="#000000" font-family="sans-serif" font-size="13" lengthAdjust="spacing" textLength="17" x="823" y="506.0283">job</text><text fill="#000000" font-family="sans-serif" font-size="13" lengthAdjust="spacing" textLength="5" x="776.5751" y="529.7441">*</text></g><!--reverse link Collaborator to HumanResourcesManager--><g id="link_Collaborator_HumanResourcesManager"><path codeLine="71" d="M388.0804,276.4445 C408.9904,320.6945 422.68,349.66 435.13,376 " fill="none" id="Collaborator-backto-HumanResourcesManager" style="stroke:#181818;stroke-width:1.0;"/><polygon fill="none" points="380.39,260.17,382.6556,279.0079,393.5052,273.881,380.39,260.17" style="stroke:#181818;stroke-width:1.0;"/></g><!--link Collaborator to Job--><g id="link_Collaborator_Job"><path codeLine="72" d="M469.78,260.23 C519.73,302.43 563,339 563,339 C563,339 634.0662,460.8376 677.0562,534.5176 " fill="none" id="Collaborator-to-Job" style="stroke:#181818;stroke-width:1.0;"/><polygon fill="#181818" points="680.08,539.7,678.9993,529.9106,677.5602,535.3814,672.0895,533.9423,680.08,539.7" style="stroke:#181818;stroke-width:1.0;"/><text fill="#000000" font-family="sans-serif" font-size="13" lengthAdjust="spacing" textLength="24" x="636" y="405.5283">jobs</text><text fill="#000000" font-family="sans-serif" font-size="13" lengthAdjust="spacing" textLength="20" x="457.3695" y="281.6663">1..*</text><text fill="#000000" font-family="sans-serif" font-size="13" lengthAdjust="spacing" textLength="7" x="668.5892" y="528.5871">1</text></g><!--reverse link HumanResourcesManager to Job--><g id="link_HumanResourcesManager_Job"><path codeLine="74" d="M479.9784,427.839 C520.4784,459.829 584,510 584,510 C584,510 618.52,532.19 651.43,553.35 " fill="none" id="HumanResourcesManager-backto-Job" style="stroke:#181818;stroke-width:1.0;"/><polygon fill="#181818" points="475.27,424.12,479.8532,432.8375,479.1936,427.2192,484.8119,426.5596,475.27,424.12" style="stroke:#181818;stroke-width:1.0;"/><text fill="#000000" font-family="sans-serif" font-size="13" lengthAdjust="spacing" textLength="59" x="585" y="506.0283">createdBy</text></g><!--SRC=[XLFRZfim47ttLrXvITA5gFiQHP7syj1KlKY9-W76JC0ROoFRjAANV-_O3iHigPONy9bpPiwCXwMz2DKomnhQQALvRNG3r9aEo2tICdvX5PnSBu4Qu8wfIgO4MxDI_n2gecScRHgHGe7hMw2jbhq_aELCK1kdIQBYabdxu9mHHUVWmBKwYPz0tnEob71sr6bgH5KxMWflHsX5ID3GZxgWlmZ59p-X71qfrW09o1q6L_wuZeJlJ8gIEV3mYoxMvC-GvGYLi0uCHfwqSaPB2GRpnZIpqLLCUcTkmMkjkQpV3fXj33nX1bPemvmsS-u3y0crkzD5IBcdrhyYx1j6y_7mZDrGtzBNywCmhavGLZR2MfoKFqNyeImDO7aMtn4Koj6srWg-T4q1Pc866YRaZSPvyirCULN4EQGzXK5agR5iwYSRF6HfxImMpB1GbXH89lgXQvWwWjMTuM0_CuLRQjB97g7LLg050NQulpm5Xskhm1sKnSNci5hJxKGuCd3M8zwl4X-Jm723uS8miW_t4p5iSzos-HqCjRY1ApQkqFnARlRJ5hVuUoR6_oD2rU9-uLs_pRZrDV602nngpwWzBx6K_sDHN0VzYfVFr4JsozJ3D1n4xu8eKWcP_4nqzplFwVoUJ9cB-yq64oKkOa9BoFoMxNnYf6rflAtoiIT_0G00]--></g></svg>