<?xml version="1.0" encoding="us-ascii" standalone="no"?><svg xmlns="http://www.w3.org/2000/svg" xmlns:xlink="http://www.w3.org/1999/xlink" contentStyleType="text/css" height="814px" preserveAspectRatio="none" style="width:1394px;height:814px;background:#FFFFFF;" version="1.1" viewBox="0 0 1394 814" width="1394px" zoomAndPan="magnify"><defs/><g><!--class Job--><g id="elem_Job"><rect codeLine="11" fill="#F1F1F1" height="103.8633" id="Job" rx="2.5" ry="2.5" style="stroke:#181818;stroke-width:0.5;" width="117" x="743.5" y="704"/><ellipse cx="786.85" cy="720" fill="#ADD1B2" rx="11" ry="11" style="stroke:#181818;stroke-width:1.0;"/><path d="M789.6156,715.875 Q789.7719,715.6563 789.9594,715.5469 Q790.1469,715.4375 790.3656,715.4375 Q790.7406,715.4375 790.975,715.7031 Q791.2094,715.9531 791.2094,716.5625 L791.2094,718.0156 Q791.2094,718.625 790.975,718.8906 Q790.7406,719.1563 790.3656,719.1563 Q790.0219,719.1563 789.8188,718.9531 Q789.6156,718.7656 789.5063,718.25 Q789.4594,717.8906 789.2719,717.7031 Q788.9438,717.3281 788.3344,717.1094 Q787.725,716.8906 787.1,716.8906 Q786.3344,716.8906 785.6938,717.2188 Q785.0688,717.5469 784.5688,718.2969 Q784.0844,719.0469 784.0844,720.0781 L784.0844,721.1719 Q784.0844,722.4063 784.975,723.2344 Q785.8656,724.0469 787.4594,724.0469 Q788.3969,724.0469 789.0531,723.7969 Q789.4438,723.6406 789.8656,723.2031 Q790.1313,722.9375 790.2719,722.8594 Q790.4281,722.7813 790.6313,722.7813 Q790.9594,722.7813 791.2094,723.0469 Q791.475,723.2969 791.475,723.6406 Q791.475,723.9844 791.1313,724.3906 Q790.6313,724.9688 789.8344,725.2969 Q788.7563,725.75 787.4594,725.75 Q785.9438,725.75 784.7406,725.125 Q783.7563,724.625 783.0688,723.5625 Q782.3813,722.4844 782.3813,721.2031 L782.3813,720.0469 Q782.3813,718.7188 782.9906,717.5781 Q783.6156,716.4219 784.7094,715.8125 Q785.8031,715.1875 787.0375,715.1875 Q787.7719,715.1875 788.4125,715.3594 Q789.0688,715.5156 789.6156,715.875 Z " fill="#000000"/><text fill="#000000" font-family="sans-serif" font-size="14" lengthAdjust="spacing" textLength="22" x="807.15" y="725.7969">Job</text><line style="stroke:#181818;stroke-width:0.5;" x1="744.5" x2="859.5" y1="736" y2="736"/><text fill="#000000" font-family="sans-serif" font-size="14" lengthAdjust="spacing" textLength="81" x="749.5" y="755.1074">-String name</text><line style="stroke:#181818;stroke-width:0.5;" x1="744.5" x2="859.5" y1="762.6211" y2="762.6211"/><text fill="#000000" font-family="sans-serif" font-size="14" lengthAdjust="spacing" textLength="75" x="749.5" y="781.7285">+Job(name)</text><text fill="#000000" font-family="sans-serif" font-size="14" lengthAdjust="spacing" textLength="105" x="749.5" y="800.3496">-validateJob(job)</text></g><!--class RegisterJobController--><g id="elem_RegisterJobController"><rect codeLine="18" fill="#F1F1F1" height="85.2422" id="RegisterJobController" rx="2.5" ry="2.5" style="stroke:#181818;stroke-width:0.5;" width="169" x="824.5" y="273.5"/><ellipse cx="839.5" cy="289.5" fill="#ADD1B2" rx="11" ry="11" style="stroke:#181818;stroke-width:1.0;"/><path d="M842.2656,285.375 Q842.4219,285.1563 842.6094,285.0469 Q842.7969,284.9375 843.0156,284.9375 Q843.3906,284.9375 843.625,285.2031 Q843.8594,285.4531 843.8594,286.0625 L843.8594,287.5156 Q843.8594,288.125 843.625,288.3906 Q843.3906,288.6563 843.0156,288.6563 Q842.6719,288.6563 842.4688,288.4531 Q842.2656,288.2656 842.1563,287.75 Q842.1094,287.3906 841.9219,287.2031 Q841.5938,286.8281 840.9844,286.6094 Q840.375,286.3906 839.75,286.3906 Q838.9844,286.3906 838.3438,286.7188 Q837.7188,287.0469 837.2188,287.7969 Q836.7344,288.5469 836.7344,289.5781 L836.7344,290.6719 Q836.7344,291.9063 837.625,292.7344 Q838.5156,293.5469 840.1094,293.5469 Q841.0469,293.5469 841.7031,293.2969 Q842.0938,293.1406 842.5156,292.7031 Q842.7813,292.4375 842.9219,292.3594 Q843.0781,292.2813 843.2813,292.2813 Q843.6094,292.2813 843.8594,292.5469 Q844.125,292.7969 844.125,293.1406 Q844.125,293.4844 843.7813,293.8906 Q843.2813,294.4688 842.4844,294.7969 Q841.4063,295.25 840.1094,295.25 Q838.5938,295.25 837.3906,294.625 Q836.4063,294.125 835.7188,293.0625 Q835.0313,291.9844 835.0313,290.7031 L835.0313,289.5469 Q835.0313,288.2188 835.6406,287.0781 Q836.2656,285.9219 837.3594,285.3125 Q838.4531,284.6875 839.6875,284.6875 Q840.4219,284.6875 841.0625,284.8594 Q841.7188,285.0156 842.2656,285.375 Z " fill="#000000"/><text fill="#000000" font-family="sans-serif" font-size="14" lengthAdjust="spacing" textLength="137" x="853.5" y="295.2969">RegisterJobController</text><line style="stroke:#181818;stroke-width:0.5;" x1="825.5" x2="992.5" y1="305.5" y2="305.5"/><line style="stroke:#181818;stroke-width:0.5;" x1="825.5" x2="992.5" y1="313.5" y2="313.5"/><text fill="#000000" font-family="sans-serif" font-size="14" lengthAdjust="spacing" textLength="155" x="830.5" y="332.6074">+RegisterJobController()</text><text fill="#000000" font-family="sans-serif" font-size="14" lengthAdjust="spacing" textLength="123" x="830.5" y="351.2285">+registerJob(name)</text></g><!--class RegisterJobUI--><g id="elem_RegisterJobUI"><rect codeLine="24" fill="#F1F1F1" height="48" id="RegisterJobUI" rx="2.5" ry="2.5" style="stroke:#181818;stroke-width:0.5;" width="119" x="670.5" y="292"/><ellipse cx="685.5" cy="308" fill="#ADD1B2" rx="11" ry="11" style="stroke:#181818;stroke-width:1.0;"/><path d="M688.2656,303.875 Q688.4219,303.6563 688.6094,303.5469 Q688.7969,303.4375 689.0156,303.4375 Q689.3906,303.4375 689.625,303.7031 Q689.8594,303.9531 689.8594,304.5625 L689.8594,306.0156 Q689.8594,306.625 689.625,306.8906 Q689.3906,307.1563 689.0156,307.1563 Q688.6719,307.1563 688.4688,306.9531 Q688.2656,306.7656 688.1563,306.25 Q688.1094,305.8906 687.9219,305.7031 Q687.5938,305.3281 686.9844,305.1094 Q686.375,304.8906 685.75,304.8906 Q684.9844,304.8906 684.3438,305.2188 Q683.7188,305.5469 683.2188,306.2969 Q682.7344,307.0469 682.7344,308.0781 L682.7344,309.1719 Q682.7344,310.4063 683.625,311.2344 Q684.5156,312.0469 686.1094,312.0469 Q687.0469,312.0469 687.7031,311.7969 Q688.0938,311.6406 688.5156,311.2031 Q688.7813,310.9375 688.9219,310.8594 Q689.0781,310.7813 689.2813,310.7813 Q689.6094,310.7813 689.8594,311.0469 Q690.125,311.2969 690.125,311.6406 Q690.125,311.9844 689.7813,312.3906 Q689.2813,312.9688 688.4844,313.2969 Q687.4063,313.75 686.1094,313.75 Q684.5938,313.75 683.3906,313.125 Q682.4063,312.625 681.7188,311.5625 Q681.0313,310.4844 681.0313,309.2031 L681.0313,308.0469 Q681.0313,306.7188 681.6406,305.5781 Q682.2656,304.4219 683.3594,303.8125 Q684.4531,303.1875 685.6875,303.1875 Q686.4219,303.1875 687.0625,303.3594 Q687.7188,303.5156 688.2656,303.875 Z " fill="#000000"/><text fill="#000000" font-family="sans-serif" font-size="14" lengthAdjust="spacing" textLength="87" x="699.5" y="313.7969">RegisterJobUI</text><line style="stroke:#181818;stroke-width:0.5;" x1="671.5" x2="788.5" y1="324" y2="324"/><line style="stroke:#181818;stroke-width:0.5;" x1="671.5" x2="788.5" y1="332" y2="332"/></g><!--class Collaborator--><g id="elem_Collaborator"><rect codeLine="27" fill="#F1F1F1" height="215.5898" id="Collaborator" rx="2.5" ry="2.5" style="stroke:#181818;stroke-width:0.5;" width="628" x="7" y="208"/><ellipse cx="277.75" cy="224" fill="#ADD1B2" rx="11" ry="11" style="stroke:#181818;stroke-width:1.0;"/><path d="M280.5156,219.875 Q280.6719,219.6563 280.8594,219.5469 Q281.0469,219.4375 281.2656,219.4375 Q281.6406,219.4375 281.875,219.7031 Q282.1094,219.9531 282.1094,220.5625 L282.1094,222.0156 Q282.1094,222.625 281.875,222.8906 Q281.6406,223.1563 281.2656,223.1563 Q280.9219,223.1563 280.7188,222.9531 Q280.5156,222.7656 280.4063,222.25 Q280.3594,221.8906 280.1719,221.7031 Q279.8438,221.3281 279.2344,221.1094 Q278.625,220.8906 278,220.8906 Q277.2344,220.8906 276.5938,221.2188 Q275.9688,221.5469 275.4688,222.2969 Q274.9844,223.0469 274.9844,224.0781 L274.9844,225.1719 Q274.9844,226.4063 275.875,227.2344 Q276.7656,228.0469 278.3594,228.0469 Q279.2969,228.0469 279.9531,227.7969 Q280.3438,227.6406 280.7656,227.2031 Q281.0313,226.9375 281.1719,226.8594 Q281.3281,226.7813 281.5313,226.7813 Q281.8594,226.7813 282.1094,227.0469 Q282.375,227.2969 282.375,227.6406 Q282.375,227.9844 282.0313,228.3906 Q281.5313,228.9688 280.7344,229.2969 Q279.6563,229.75 278.3594,229.75 Q276.8438,229.75 275.6406,229.125 Q274.6563,228.625 273.9688,227.5625 Q273.2813,226.4844 273.2813,225.2031 L273.2813,224.0469 Q273.2813,222.7188 273.8906,221.5781 Q274.5156,220.4219 275.6094,219.8125 Q276.7031,219.1875 277.9375,219.1875 Q278.6719,219.1875 279.3125,219.3594 Q279.9688,219.5156 280.5156,219.875 Z " fill="#000000"/><text fill="#000000" font-family="sans-serif" font-size="14" lengthAdjust="spacing" textLength="78" x="298.25" y="229.7969">Collaborator</text><line style="stroke:#181818;stroke-width:0.5;" x1="8" x2="634" y1="240" y2="240"/><text fill="#000000" font-family="sans-serif" font-size="14" lengthAdjust="spacing" textLength="81" x="13" y="259.1074">-String name</text><text fill="#000000" font-family="sans-serif" font-size="14" lengthAdjust="spacing" textLength="111" x="13" y="277.7285">-Date dateOfBirth</text><text fill="#000000" font-family="sans-serif" font-size="14" lengthAdjust="spacing" textLength="132" x="13" y="296.3496">-Date admissionDate</text><text fill="#000000" font-family="sans-serif" font-size="14" lengthAdjust="spacing" textLength="112" x="13" y="314.9707">-Address address</text><text fill="#000000" font-family="sans-serif" font-size="14" lengthAdjust="spacing" textLength="113" x="13" y="333.5918">-int phoneNumber</text><text fill="#000000" font-family="sans-serif" font-size="14" lengthAdjust="spacing" textLength="79" x="13" y="352.2129">-String email</text><text fill="#000000" font-family="sans-serif" font-size="14" lengthAdjust="spacing" textLength="38" x="13" y="370.834">-int cc</text><text fill="#000000" font-family="sans-serif" font-size="14" lengthAdjust="spacing" textLength="101" x="13" y="389.4551">-int cardNumber</text><line style="stroke:#181818;stroke-width:0.5;" x1="8" x2="634" y1="396.9688" y2="396.9688"/><text fill="#000000" font-family="sans-serif" font-size="14" lengthAdjust="spacing" textLength="616" x="13" y="416.0762">+Collaborator(name, dateOfBirth, admissionDate, address, phoneNumber, email, cc, cardNumber)</text></g><!--class Address--><g id="elem_Address"><rect codeLine="40" fill="#F1F1F1" height="122.4844" id="Address" rx="2.5" ry="2.5" style="stroke:#181818;stroke-width:0.5;" width="309" x="166.5" y="7"/><ellipse cx="290.75" cy="23" fill="#ADD1B2" rx="11" ry="11" style="stroke:#181818;stroke-width:1.0;"/><path d="M293.5156,18.875 Q293.6719,18.6563 293.8594,18.5469 Q294.0469,18.4375 294.2656,18.4375 Q294.6406,18.4375 294.875,18.7031 Q295.1094,18.9531 295.1094,19.5625 L295.1094,21.0156 Q295.1094,21.625 294.875,21.8906 Q294.6406,22.1563 294.2656,22.1563 Q293.9219,22.1563 293.7188,21.9531 Q293.5156,21.7656 293.4063,21.25 Q293.3594,20.8906 293.1719,20.7031 Q292.8438,20.3281 292.2344,20.1094 Q291.625,19.8906 291,19.8906 Q290.2344,19.8906 289.5938,20.2188 Q288.9688,20.5469 288.4688,21.2969 Q287.9844,22.0469 287.9844,23.0781 L287.9844,24.1719 Q287.9844,25.4063 288.875,26.2344 Q289.7656,27.0469 291.3594,27.0469 Q292.2969,27.0469 292.9531,26.7969 Q293.3438,26.6406 293.7656,26.2031 Q294.0313,25.9375 294.1719,25.8594 Q294.3281,25.7813 294.5313,25.7813 Q294.8594,25.7813 295.1094,26.0469 Q295.375,26.2969 295.375,26.6406 Q295.375,26.9844 295.0313,27.3906 Q294.5313,27.9688 293.7344,28.2969 Q292.6563,28.75 291.3594,28.75 Q289.8438,28.75 288.6406,28.125 Q287.6563,27.625 286.9688,26.5625 Q286.2813,25.4844 286.2813,24.2031 L286.2813,23.0469 Q286.2813,21.7188 286.8906,20.5781 Q287.5156,19.4219 288.6094,18.8125 Q289.7031,18.1875 290.9375,18.1875 Q291.6719,18.1875 292.3125,18.3594 Q292.9688,18.5156 293.5156,18.875 Z " fill="#000000"/><text fill="#000000" font-family="sans-serif" font-size="14" lengthAdjust="spacing" textLength="52" x="311.25" y="28.7969">Address</text><line style="stroke:#181818;stroke-width:0.5;" x1="167.5" x2="474.5" y1="39" y2="39"/><text fill="#000000" font-family="sans-serif" font-size="14" lengthAdjust="spacing" textLength="118" x="172.5" y="58.1074">-String streetName</text><text fill="#000000" font-family="sans-serif" font-size="14" lengthAdjust="spacing" textLength="107" x="172.5" y="76.7285">-String postCode</text><text fill="#000000" font-family="sans-serif" font-size="14" lengthAdjust="spacing" textLength="102" x="172.5" y="95.3496">-int doorNumber</text><line style="stroke:#181818;stroke-width:0.5;" x1="167.5" x2="474.5" y1="102.8633" y2="102.8633"/><text fill="#000000" font-family="sans-serif" font-size="14" lengthAdjust="spacing" textLength="297" x="172.5" y="121.9707">+Address(streetName, postCode, doorNumber)</text></g><!--class HumanResourcesManager--><g id="elem_HumanResourcesManager"><rect codeLine="48" fill="#F1F1F1" height="48" id="HumanResourcesManager" rx="2.5" ry="2.5" style="stroke:#181818;stroke-width:0.5;" width="200" x="702" y="540"/><ellipse cx="717" cy="556" fill="#ADD1B2" rx="11" ry="11" style="stroke:#181818;stroke-width:1.0;"/><path d="M719.7656,551.875 Q719.9219,551.6563 720.1094,551.5469 Q720.2969,551.4375 720.5156,551.4375 Q720.8906,551.4375 721.125,551.7031 Q721.3594,551.9531 721.3594,552.5625 L721.3594,554.0156 Q721.3594,554.625 721.125,554.8906 Q720.8906,555.1563 720.5156,555.1563 Q720.1719,555.1563 719.9688,554.9531 Q719.7656,554.7656 719.6563,554.25 Q719.6094,553.8906 719.4219,553.7031 Q719.0938,553.3281 718.4844,553.1094 Q717.875,552.8906 717.25,552.8906 Q716.4844,552.8906 715.8438,553.2188 Q715.2188,553.5469 714.7188,554.2969 Q714.2344,555.0469 714.2344,556.0781 L714.2344,557.1719 Q714.2344,558.4063 715.125,559.2344 Q716.0156,560.0469 717.6094,560.0469 Q718.5469,560.0469 719.2031,559.7969 Q719.5938,559.6406 720.0156,559.2031 Q720.2813,558.9375 720.4219,558.8594 Q720.5781,558.7813 720.7813,558.7813 Q721.1094,558.7813 721.3594,559.0469 Q721.625,559.2969 721.625,559.6406 Q721.625,559.9844 721.2813,560.3906 Q720.7813,560.9688 719.9844,561.2969 Q718.9063,561.75 717.6094,561.75 Q716.0938,561.75 714.8906,561.125 Q713.9063,560.625 713.2188,559.5625 Q712.5313,558.4844 712.5313,557.2031 L712.5313,556.0469 Q712.5313,554.7188 713.1406,553.5781 Q713.7656,552.4219 714.8594,551.8125 Q715.9531,551.1875 717.1875,551.1875 Q717.9219,551.1875 718.5625,551.3594 Q719.2188,551.5156 719.7656,551.875 Z " fill="#000000"/><text fill="#000000" font-family="sans-serif" font-size="14" lengthAdjust="spacing" textLength="168" x="731" y="561.7969">HumanResourcesManager</text><line style="stroke:#181818;stroke-width:0.5;" x1="703" x2="901" y1="572" y2="572"/><line style="stroke:#181818;stroke-width:0.5;" x1="703" x2="901" y1="580" y2="580"/></g><!--class Repositories--><g id="elem_Repositories"><rect codeLine="51" fill="#F1F1F1" height="103.8633" id="Repositories" rx="2.5" ry="2.5" style="stroke:#181818;stroke-width:0.5;" width="194" x="1097" y="264"/><ellipse cx="1150.25" cy="280" fill="#ADD1B2" rx="11" ry="11" style="stroke:#181818;stroke-width:1.0;"/><path d="M1153.0156,275.875 Q1153.1719,275.6563 1153.3594,275.5469 Q1153.5469,275.4375 1153.7656,275.4375 Q1154.1406,275.4375 1154.375,275.7031 Q1154.6094,275.9531 1154.6094,276.5625 L1154.6094,278.0156 Q1154.6094,278.625 1154.375,278.8906 Q1154.1406,279.1563 1153.7656,279.1563 Q1153.4219,279.1563 1153.2188,278.9531 Q1153.0156,278.7656 1152.9063,278.25 Q1152.8594,277.8906 1152.6719,277.7031 Q1152.3438,277.3281 1151.7344,277.1094 Q1151.125,276.8906 1150.5,276.8906 Q1149.7344,276.8906 1149.0938,277.2188 Q1148.4688,277.5469 1147.9688,278.2969 Q1147.4844,279.0469 1147.4844,280.0781 L1147.4844,281.1719 Q1147.4844,282.4063 1148.375,283.2344 Q1149.2656,284.0469 1150.8594,284.0469 Q1151.7969,284.0469 1152.4531,283.7969 Q1152.8438,283.6406 1153.2656,283.2031 Q1153.5313,282.9375 1153.6719,282.8594 Q1153.8281,282.7813 1154.0313,282.7813 Q1154.3594,282.7813 1154.6094,283.0469 Q1154.875,283.2969 1154.875,283.6406 Q1154.875,283.9844 1154.5313,284.3906 Q1154.0313,284.9688 1153.2344,285.2969 Q1152.1563,285.75 1150.8594,285.75 Q1149.3438,285.75 1148.1406,285.125 Q1147.1563,284.625 1146.4688,283.5625 Q1145.7813,282.4844 1145.7813,281.2031 L1145.7813,280.0469 Q1145.7813,278.7188 1146.3906,277.5781 Q1147.0156,276.4219 1148.1094,275.8125 Q1149.2031,275.1875 1150.4375,275.1875 Q1151.1719,275.1875 1151.8125,275.3594 Q1152.4688,275.5156 1153.0156,275.875 Z " fill="#000000"/><text fill="#000000" font-family="sans-serif" font-size="14" lengthAdjust="spacing" textLength="79" x="1170.75" y="285.7969">Repositories</text><line style="stroke:#181818;stroke-width:0.5;" x1="1098" x2="1290" y1="296" y2="296"/><line style="stroke:#181818;stroke-width:0.5;" x1="1098" x2="1290" y1="304" y2="304"/><text fill="#000000" font-family="sans-serif" font-size="14" lengthAdjust="spacing" textLength="94" x="1103" y="323.1074">-Repositories()</text><text fill="#000000" font-family="sans-serif" font-size="14" lengthAdjust="spacing" textLength="182" x="1103" y="341.7285">+getInstance() : Repositories</text><text fill="#000000" font-family="sans-serif" font-size="14" lengthAdjust="spacing" textLength="128" x="1103" y="360.3496">+getJobRepository()</text></g><!--class jobRepository--><g id="elem_jobRepository"><rect codeLine="58" fill="#F1F1F1" height="122.4844" id="jobRepository" rx="2.5" ry="2.5" style="stroke:#181818;stroke-width:0.5;" width="127" x="1033.5" y="503"/><ellipse cx="1052.1" cy="519" fill="#ADD1B2" rx="11" ry="11" style="stroke:#181818;stroke-width:1.0;"/><path d="M1054.8656,514.875 Q1055.0219,514.6563 1055.2094,514.5469 Q1055.3969,514.4375 1055.6156,514.4375 Q1055.9906,514.4375 1056.225,514.7031 Q1056.4594,514.9531 1056.4594,515.5625 L1056.4594,517.0156 Q1056.4594,517.625 1056.225,517.8906 Q1055.9906,518.1563 1055.6156,518.1563 Q1055.2719,518.1563 1055.0688,517.9531 Q1054.8656,517.7656 1054.7563,517.25 Q1054.7094,516.8906 1054.5219,516.7031 Q1054.1938,516.3281 1053.5844,516.1094 Q1052.975,515.8906 1052.35,515.8906 Q1051.5844,515.8906 1050.9438,516.2188 Q1050.3188,516.5469 1049.8188,517.2969 Q1049.3344,518.0469 1049.3344,519.0781 L1049.3344,520.1719 Q1049.3344,521.4063 1050.225,522.2344 Q1051.1156,523.0469 1052.7094,523.0469 Q1053.6469,523.0469 1054.3031,522.7969 Q1054.6938,522.6406 1055.1156,522.2031 Q1055.3813,521.9375 1055.5219,521.8594 Q1055.6781,521.7813 1055.8813,521.7813 Q1056.2094,521.7813 1056.4594,522.0469 Q1056.725,522.2969 1056.725,522.6406 Q1056.725,522.9844 1056.3813,523.3906 Q1055.8813,523.9688 1055.0844,524.2969 Q1054.0063,524.75 1052.7094,524.75 Q1051.1938,524.75 1049.9906,524.125 Q1049.0063,523.625 1048.3188,522.5625 Q1047.6313,521.4844 1047.6313,520.2031 L1047.6313,519.0469 Q1047.6313,517.7188 1048.2406,516.5781 Q1048.8656,515.4219 1049.9594,514.8125 Q1051.0531,514.1875 1052.2875,514.1875 Q1053.0219,514.1875 1053.6625,514.3594 Q1054.3188,514.5156 1054.8656,514.875 Z " fill="#000000"/><text fill="#000000" font-family="sans-serif" font-size="14" lengthAdjust="spacing" textLength="87" x="1066.9" y="524.7969">jobRepository</text><line style="stroke:#181818;stroke-width:0.5;" x1="1034.5" x2="1159.5" y1="535" y2="535"/><text fill="#000000" font-family="sans-serif" font-size="14" lengthAdjust="spacing" textLength="110" x="1039.5" y="554.1074">-ArrayList Job job</text><line style="stroke:#181818;stroke-width:0.5;" x1="1034.5" x2="1159.5" y1="561.6211" y2="561.6211"/><text fill="#000000" font-family="sans-serif" font-size="14" lengthAdjust="spacing" textLength="80" x="1039.5" y="580.7285">-addJob(job)</text><text fill="#000000" font-family="sans-serif" font-size="14" lengthAdjust="spacing" textLength="105" x="1039.5" y="599.3496">-validateJob(job)</text><text fill="#000000" font-family="sans-serif" font-size="14" lengthAdjust="spacing" textLength="115" x="1039.5" y="617.9707">+createJob(name)</text></g><!--link RegisterJobController to Repositories--><g id="link_RegisterJobController_Repositories"><path codeLine="66" d="M993.74,316 C1026.14,316 1057.35,316 1090.83,316 " fill="none" id="RegisterJobController-to-Repositories" style="stroke:#181818;stroke-width:1.0;stroke-dasharray:7.0,7.0;"/><polygon fill="#181818" points="1096.83,316,1087.83,312,1091.83,316,1087.83,320,1096.83,316" style="stroke:#181818;stroke-width:1.0;"/><text fill="#000000" font-family="sans-serif" font-size="13" lengthAdjust="spacing" textLength="67" x="1011.75" y="309.0283">repositories</text></g><!--link RegisterJobUI to RegisterJobController--><g id="link_RegisterJobUI_RegisterJobController"><path codeLine="67" d="M789.5,316 C789.61,316 789.67,316 789.67,316 C789.67,316 802.02,316 818.38,316 " fill="none" id="RegisterJobUI-to-RegisterJobController" style="stroke:#181818;stroke-width:1.0;stroke-dasharray:7.0,7.0;"/><polygon fill="#181818" points="824.38,316,815.38,312,819.38,316,815.38,320,824.38,316" style="stroke:#181818;stroke-width:1.0;"/></g><!--link Repositories to Repositories--><g id="link_Repositories_Repositories"><path codeLine="68" d="M1291.28,289.59 C1311.48,292.37 1326,301.17 1326,316 C1326,330.83 1317.424,338.812 1297.224,341.592 " fill="none" id="Repositories-to-Repositories" style="stroke:#181818;stroke-width:1.0;"/><polygon fill="#181818" points="1291.28,342.41,1300.7413,345.1456,1296.2333,341.7283,1299.6506,337.2203,1291.28,342.41" style="stroke:#181818;stroke-width:1.0;"/><text fill="#000000" font-family="sans-serif" font-size="13" lengthAdjust="spacing" textLength="49" x="1332" y="321.5283">instance</text></g><!--link Repositories to jobRepository--><g id="link_Repositories_jobRepository"><path codeLine="69" d="M1173.78,368.27 C1158.35,407.42 1139.2412,455.8784 1122.9812,497.1084 " fill="none" id="Repositories-to-jobRepository" style="stroke:#181818;stroke-width:1.0;"/><polygon fill="#181818" points="1120.78,502.69,1127.8029,495.7851,1122.6144,498.0386,1120.3608,492.8501,1120.78,502.69" style="stroke:#181818;stroke-width:1.0;"/><text fill="#000000" font-family="sans-serif" font-size="13" lengthAdjust="spacing" textLength="79" x="1141" y="469.0283">jobRepository</text><text fill="#000000" font-family="sans-serif" font-size="13" lengthAdjust="spacing" textLength="7" x="1116.1249" y="491.6354">1</text></g><!--link jobRepository to Job--><g id="link_jobRepository_Job"><path codeLine="70" d="M1033.35,605.99 C982.03,639.05 915.4741,681.9108 865.5641,714.0608 " fill="none" id="jobRepository-to-Job" style="stroke:#181818;stroke-width:1.0;"/><polygon fill="#181818" points="860.52,717.31,870.2522,715.7989,864.7234,714.6023,865.92,709.0735,860.52,717.31" style="stroke:#181818;stroke-width:1.0;"/><text fill="#000000" font-family="sans-serif" font-size="13" lengthAdjust="spacing" textLength="17" x="951" y="670.0283">job</text><text fill="#000000" font-family="sans-serif" font-size="13" lengthAdjust="spacing" textLength="5" x="868.3382" y="708.3195">*</text></g><!--reverse link Collaborator to HumanResourcesManager--><g id="link_Collaborator_HumanResourcesManager"><path codeLine="71" d="M546.2455,432.1965 C630.8655,475.4765 704.72,513.25 756.98,539.97 " fill="none" id="Collaborator-backto-HumanResourcesManager" style="stroke:#181818;stroke-width:1.0;"/><polygon fill="none" points="530.22,424,543.5134,437.5383,548.9777,426.8546,530.22,424" style="stroke:#181818;stroke-width:1.0;"/></g><!--link RegisterJobController to HumanResourcesManager--><g id="link_RegisterJobController_HumanResourcesManager"><path codeLine="72" d="M890.85,358.73 C868.13,410.96 832.413,493.0679 814.403,534.4779 " fill="none" id="RegisterJobController-to-HumanResourcesManager" style="stroke:#181818;stroke-width:1.0;stroke-dasharray:7.0,7.0;"/><polygon fill="#181818" points="812.01,539.98,819.2676,533.3221,814.0042,535.3949,811.9314,530.1315,812.01,539.98" style="stroke:#181818;stroke-width:1.0;"/><text fill="#000000" font-family="sans-serif" font-size="13" lengthAdjust="spacing" textLength="153" x="851" y="469.0283">HumanResourcesManager</text><text fill="#000000" font-family="sans-serif" font-size="13" lengthAdjust="spacing" textLength="7" x="806.6782" y="528.7124">1</text></g><!--reverse link HumanResourcesManager to Job--><g id="link_HumanResourcesManager_Job"><path codeLine="73" d="M802,594.3 C802,622.94 802,666.36 802,703.97 " fill="none" id="HumanResourcesManager-backto-Job" style="stroke:#181818;stroke-width:1.0;"/><polygon fill="#181818" points="802,588.3,798,597.3,802,593.3,806,597.3,802,588.3" style="stroke:#181818;stroke-width:1.0;"/><text fill="#000000" font-family="sans-serif" font-size="13" lengthAdjust="spacing" textLength="59" x="803" y="670.0283">createdBy</text></g><!--link Collaborator to Job--><g id="link_Collaborator_Job"><path codeLine="74" d="M438.39,424.29 C535.65,513.18 658,625 658,625 C658,625 700.7065,663.5493 741.0465,699.9693 " fill="none" id="Collaborator-to-Job" style="stroke:#181818;stroke-width:1.0;"/><polygon fill="#181818" points="745.5,703.99,741.5002,694.9899,741.7887,700.6394,736.1393,700.9279,745.5,703.99" style="stroke:#181818;stroke-width:1.0;"/><text fill="#000000" font-family="sans-serif" font-size="13" lengthAdjust="spacing" textLength="24" x="659" y="569.5283">jobs</text><text fill="#000000" font-family="sans-serif" font-size="13" lengthAdjust="spacing" textLength="20" x="424.9341" y="445.4566">1..*</text><text fill="#000000" font-family="sans-serif" font-size="13" lengthAdjust="spacing" textLength="7" x="730.4375" y="692.916">1</text></g><!--link Address to Collaborator--><g id="link_Address_Collaborator"><path codeLine="75" d="M321,129.18 C321,152.93 321,174.96 321,201.95 " fill="none" id="Address-to-Collaborator" style="stroke:#181818;stroke-width:1.0;"/><polygon fill="#181818" points="321,207.95,325,198.95,321,202.95,317,198.95,321,207.95" style="stroke:#181818;stroke-width:1.0;"/><text fill="#000000" font-family="sans-serif" font-size="13" lengthAdjust="spacing" textLength="46" x="322" y="174.0283">address</text><text fill="#000000" font-family="sans-serif" font-size="13" lengthAdjust="spacing" textLength="7" x="313.5734" y="151.6888">1</text><text fill="#000000" font-family="sans-serif" font-size="13" lengthAdjust="spacing" textLength="5" x="315.8242" y="196.808">*</text></g><!--SRC=[TLDDZvim4BtxLrYv96b9rBsYrKhPzD1KxLRAgZ_0WGdnBdZGs6b5F_vx1p1WRmaNyBoPDs-6vwLzrQPMf2fPeS7iGbY1T7G5CI6robvL0S-kAK4IP4wPeWmJx4Nb-5ERGfvLQKEar0PSKuEiiMpQWrZEW4WEHL2LbShQdNEaJrS7XmpDi_u5yeCGonBEJZgKf8kBaxbkvMWqGdGryZEUv6yX-Td8PwvdIKPL8BhG-nPUjUUrJ_cXIfqh1sty1KzhyNSWEaAXhGDYP8_64POb45DxebbujVOeJQXlDyVx_S1y8x1d2dL2KWvf626Se0jyPAso5Vpj_AZ9NOAeoYjjBQ-YFVNnNPuJCBNgttrG6oVh2nfukbOdeAWHL4gNKrgM1T-ASb_XXmm5TrCceR8a5fGC8fAmUT9tJBXJ4dG8rkL7YFTX7G6uft4hFboZTNlCOHAT8r8asjEj9ePaB4k2z431fskbp14iNYa3-rKPlWaK_hWZC8Fc9MYmWq4sKNJqHG7kO2nVdmnMQvb6ILCAMsC4cbKWvIK4HfllY5JpXKtLcPzp1WcyyT7ND-pUzym8V70qwxpzjm_nj2axFPWWzdQNFCCY8ehDVvJQR-XD7YSkxXPlTf36Pn6ZNSsxHRUNBbD4bqpU_zbivFmFlhM0RQzYtXJf3QxvxFksETEdVl_vOnFhMznjjwn-c7oSmehXOhVXOSYeD1tllFW7]--></g></svg>