<?xml version="1.0" encoding="us-ascii" standalone="no"?><svg xmlns="http://www.w3.org/2000/svg" xmlns:xlink="http://www.w3.org/1999/xlink" contentStyleType="text/css" height="1251px" preserveAspectRatio="none" style="width:650px;height:1251px;background:#FFFFFF;" version="1.1" viewBox="0 0 650 1251" width="650px" zoomAndPan="magnify"><defs/><g><text fill="#000000" font-family="sans-serif" font-size="14" font-weight="bold" lengthAdjust="spacing" textLength="372" x="132" y="25.1074">Domain Model - US21 Add new entry to the To-Do-List</text><!--class Collaborator--><g id="elem_Collaborator"><rect codeLine="10" fill="#F1F1F1" height="148.3477" id="Collaborator" rx="2.5" ry="2.5" style="stroke:#181818;stroke-width:0.5;" width="105" x="254.5" y="46.6211"/><text fill="#000000" font-family="sans-serif" font-size="14" lengthAdjust="spacing" textLength="78" x="268" y="66.7285">Collaborator</text><line style="stroke:#181818;stroke-width:0.5;" x1="255.5" x2="358.5" y1="75.2422" y2="75.2422"/><text fill="#000000" font-family="sans-serif" font-size="14" lengthAdjust="spacing" textLength="35" x="260.5" y="94.3496">name</text><text fill="#000000" font-family="sans-serif" font-size="14" lengthAdjust="spacing" textLength="72" x="260.5" y="112.9707">dateOfBirth</text><text fill="#000000" font-family="sans-serif" font-size="14" lengthAdjust="spacing" textLength="93" x="260.5" y="131.5918">admissionDate</text><text fill="#000000" font-family="sans-serif" font-size="14" lengthAdjust="spacing" textLength="89" x="260.5" y="150.2129">phoneNumber</text><text fill="#000000" font-family="sans-serif" font-size="14" lengthAdjust="spacing" textLength="54" x="260.5" y="168.834">taxpayer</text><text fill="#000000" font-family="sans-serif" font-size="14" lengthAdjust="spacing" textLength="33" x="260.5" y="187.4551">email</text></g><!--class Address--><g id="elem_Address"><rect codeLine="19" fill="#F1F1F1" height="73.8633" id="Address" rx="2.5" ry="2.5" style="stroke:#181818;stroke-width:0.5;" width="90" x="329" y="1017.6211"/><text fill="#000000" font-family="sans-serif" font-size="14" lengthAdjust="spacing" textLength="52" x="348" y="1037.7285">Address</text><line style="stroke:#181818;stroke-width:0.5;" x1="330" x2="418" y1="1046.2422" y2="1046.2422"/><text fill="#000000" font-family="sans-serif" font-size="14" lengthAdjust="spacing" textLength="36" x="335" y="1065.3496">street</text><text fill="#000000" font-family="sans-serif" font-size="14" lengthAdjust="spacing" textLength="78" x="335" y="1083.9707">doorNumber</text></g><!--class PostCode--><g id="elem_PostCode"><rect codeLine="24" fill="#F1F1F1" height="73.8633" id="PostCode" rx="2.5" ry="2.5" style="stroke:#181818;stroke-width:0.5;" width="122" x="322" y="1170.6211"/><text fill="#000000" font-family="sans-serif" font-size="14" lengthAdjust="spacing" textLength="62" x="352" y="1190.7285">PostCode</text><line style="stroke:#181818;stroke-width:0.5;" x1="323" x2="443" y1="1199.2422" y2="1199.2422"/><text fill="#000000" font-family="sans-serif" font-size="14" lengthAdjust="spacing" textLength="110" x="328" y="1218.3496">postCodeNumber</text><text fill="#000000" font-family="sans-serif" font-size="14" lengthAdjust="spacing" textLength="69" x="328" y="1236.9707">localization</text></g><!--class GreenSpaceManager--><g id="elem_GreenSpaceManager"><rect codeLine="29" fill="#F1F1F1" height="36.6211" id="GreenSpaceManager" rx="2.5" ry="2.5" style="stroke:#181818;stroke-width:0.5;" width="142" x="236" y="255.6211"/><text fill="#000000" font-family="sans-serif" font-size="14" lengthAdjust="spacing" textLength="136" x="239" y="275.7285">GreenSpaceManager</text><line style="stroke:#181818;stroke-width:0.5;" x1="237" x2="377" y1="284.2422" y2="284.2422"/></g><!--class ToDoList--><g id="elem_ToDoList"><rect codeLine="32" fill="#F1F1F1" height="36.6211" id="ToDoList" rx="2.5" ry="2.5" style="stroke:#181818;stroke-width:0.5;" width="63" x="341.5" y="588.6211"/><text fill="#000000" font-family="sans-serif" font-size="14" lengthAdjust="spacing" textLength="57" x="344.5" y="608.7285">ToDoList</text><line style="stroke:#181818;stroke-width:0.5;" x1="342.5" x2="403.5" y1="617.2422" y2="617.2422"/></g><!--class Task--><g id="elem_Task"><rect codeLine="35" fill="#F1F1F1" height="55.2422" id="Task" rx="2.5" ry="2.5" style="stroke:#181818;stroke-width:0.5;" width="81" x="266.5" y="371.6211"/><text fill="#000000" font-family="sans-serif" font-size="14" lengthAdjust="spacing" textLength="31" x="291.5" y="391.7285">Task</text><line style="stroke:#181818;stroke-width:0.5;" x1="267.5" x2="346.5" y1="400.2422" y2="400.2422"/><text fill="#000000" font-family="sans-serif" font-size="14" lengthAdjust="spacing" textLength="69" x="272.5" y="419.3496">description</text></g><!--class TaskToDoList--><g id="elem_TaskToDoList"><rect codeLine="39" fill="#F1F1F1" height="92.4844" id="TaskToDoList" rx="2.5" ry="2.5" style="stroke:#181818;stroke-width:0.5;" width="94" x="295" y="784.6211"/><text fill="#000000" font-family="sans-serif" font-size="14" lengthAdjust="spacing" textLength="88" x="298" y="804.7285">TaskToDoList</text><line style="stroke:#181818;stroke-width:0.5;" x1="296" x2="388" y1="813.2422" y2="813.2422"/><text fill="#000000" font-family="sans-serif" font-size="14" lengthAdjust="spacing" textLength="38" x="301" y="832.3496">status</text><text fill="#000000" font-family="sans-serif" font-size="14" lengthAdjust="spacing" textLength="51" x="301" y="850.9707">urgency</text><text fill="#000000" font-family="sans-serif" font-size="14" lengthAdjust="spacing" textLength="52" x="301" y="869.5918">duration</text></g><!--class GreenSpace--><g id="elem_GreenSpace"><rect codeLine="45" fill="#F1F1F1" height="73.8633" id="GreenSpace" rx="2.5" ry="2.5" style="stroke:#181818;stroke-width:0.5;" width="86" x="105" y="1017.6211"/><text fill="#000000" font-family="sans-serif" font-size="14" lengthAdjust="spacing" textLength="80" x="108" y="1037.7285">GreenSpace</text><line style="stroke:#181818;stroke-width:0.5;" x1="106" x2="190" y1="1046.2422" y2="1046.2422"/><text fill="#000000" font-family="sans-serif" font-size="14" lengthAdjust="spacing" textLength="35" x="111" y="1065.3496">name</text><text fill="#000000" font-family="sans-serif" font-size="14" lengthAdjust="spacing" textLength="29" x="111" y="1083.9707">area</text></g><!--class Garden--><g id="elem_Garden"><rect codeLine="50" fill="#F1F1F1" height="36.6211" id="Garden" rx="2.5" ry="2.5" style="stroke:#181818;stroke-width:0.5;" width="54" x="7" y="1189.1211"/><text fill="#000000" font-family="sans-serif" font-size="14" lengthAdjust="spacing" textLength="48" x="10" y="1209.2285">Garden</text><line style="stroke:#181818;stroke-width:0.5;" x1="8" x2="60" y1="1217.7422" y2="1217.7422"/></g><!--class MediumPark--><g id="elem_MediumPark"><rect codeLine="53" fill="#F1F1F1" height="36.6211" id="MediumPark" rx="2.5" ry="2.5" style="stroke:#181818;stroke-width:0.5;" width="84" x="96" y="1189.1211"/><text fill="#000000" font-family="sans-serif" font-size="14" lengthAdjust="spacing" textLength="78" x="99" y="1209.2285">MediumPark</text><line style="stroke:#181818;stroke-width:0.5;" x1="97" x2="179" y1="1217.7422" y2="1217.7422"/></g><!--class LargePark--><g id="elem_LargePark"><rect codeLine="56" fill="#F1F1F1" height="36.6211" id="LargePark" rx="2.5" ry="2.5" style="stroke:#181818;stroke-width:0.5;" width="72" x="215" y="1189.1211"/><text fill="#000000" font-family="sans-serif" font-size="14" lengthAdjust="spacing" textLength="66" x="218" y="1209.2285">LargePark</text><line style="stroke:#181818;stroke-width:0.5;" x1="216" x2="286" y1="1217.7422" y2="1217.7422"/></g><ellipse cx="373" cy="507.6211" fill="#181818" rx="2" ry="2" style="stroke:#181818;stroke-width:1.0;"/><!--reverse link Collaborator to GreenSpaceManager--><g id="link_Collaborator_GreenSpaceManager"><path codeLine="59" d="M307,212.7111 C307,235.4111 307,240.4311 307,255.6011 " fill="none" id="Collaborator-backto-GreenSpaceManager" style="stroke:#181818;stroke-width:1.0;"/><polygon fill="none" points="307,194.7111,301,212.7111,313,212.7111,307,194.7111" style="stroke:#181818;stroke-width:1.0;"/></g><!--link GreenSpaceManager to Task--><g id="link_GreenSpaceManager_Task"><path codeLine="61" d="M307,292.7411 C307,313.3411 307,347.6211 307,371.4711 " fill="none" id="GreenSpaceManager-Task" style="stroke:#181818;stroke-width:1.0;"/><polygon fill="#000000" points="312,337.2666,314.9389,328.2215,309.0611,328.2215,312,337.2666" style="stroke:#000000;stroke-width:1.0;"/><text fill="#000000" font-family="sans-serif" font-size="13" lengthAdjust="spacing" textLength="43" x="321" y="337.6494">creates</text><text fill="#000000" font-family="sans-serif" font-size="13" lengthAdjust="spacing" textLength="20" x="284.3125" y="314.1479">1..*</text><text fill="#000000" font-family="sans-serif" font-size="13" lengthAdjust="spacing" textLength="20" x="284.6875" y="360.1454">1..*</text></g><!--link GreenSpaceManager to TaskToDoList--><g id="link_GreenSpaceManager_TaskToDoList"><path codeLine="62" d="M378.16,284.4811 C443.09,297.4811 529,327.9511 529,398.1211 C529,398.1211 529,398.1211 529,715.1211 C529,780.6011 444.59,809.7811 389.19,821.8811 " fill="none" id="GreenSpaceManager-TaskToDoList" style="stroke:#181818;stroke-width:1.0;"/><polygon fill="#000000" points="534.1026,554.2655,536.8553,545.1621,530.9787,545.2827,534.1026,554.2655" style="stroke:#000000;stroke-width:1.0;"/><text fill="#000000" font-family="sans-serif" font-size="13" lengthAdjust="spacing" textLength="99" x="543" y="554.6494">inserts new entry</text><text fill="#000000" font-family="sans-serif" font-size="13" lengthAdjust="spacing" textLength="20" x="385.8956" y="281.7186">1..*</text><text fill="#000000" font-family="sans-serif" font-size="13" lengthAdjust="spacing" textLength="20" x="396.8749" y="816.5798">1..*</text></g><!--link GreenSpaceManager to GreenSpace--><g id="link_GreenSpaceManager_GreenSpace"><path codeLine="63" d="M235.72,287.9911 C177.22,303.1411 104,334.7611 104,398.1211 C104,398.1211 104,398.1211 104,948.1211 C104,972.5311 114.16,997.8411 124.71,1017.5511 " fill="none" id="GreenSpaceManager-GreenSpace" style="stroke:#181818;stroke-width:1.0;"/><polygon fill="#000000" points="108.2479,670.2097,112.514,661.7096,106.703,660.8254,108.2479,670.2097" style="stroke:#000000;stroke-width:1.0;"/><text fill="#000000" font-family="sans-serif" font-size="13" lengthAdjust="spacing" textLength="100" x="118" y="670.6494">register/manages</text><text fill="#000000" font-family="sans-serif" font-size="13" lengthAdjust="spacing" textLength="7" x="221.0083" y="285.6077">1</text><text fill="#000000" font-family="sans-serif" font-size="13" lengthAdjust="spacing" textLength="5" x="114.955" y="1006.2169">*</text></g><!--reverse link GreenSpace to Garden--><g id="link_GreenSpace_Garden"><path codeLine="65" d="M109.8459,1106.1579 C86.6659,1136.8679 65.23,1165.2611 47.31,1188.9811 " fill="none" id="GreenSpace-backto-Garden" style="stroke:#181818;stroke-width:1.0;"/><polygon fill="none" points="120.69,1091.7911,105.057,1102.5432,114.6348,1109.7726,120.69,1091.7911" style="stroke:#181818;stroke-width:1.0;"/></g><!--reverse link GreenSpace to MediumPark--><g id="link_GreenSpace_MediumPark"><path codeLine="66" d="M144.4128,1109.7519 C142.3828,1140.4619 140.74,1165.2611 139.17,1188.9811 " fill="none" id="GreenSpace-backto-MediumPark" style="stroke:#181818;stroke-width:1.0;"/><polygon fill="none" points="145.6,1091.7911,138.4258,1109.3561,150.3997,1110.1476,145.6,1091.7911" style="stroke:#181818;stroke-width:1.0;"/></g><!--reverse link GreenSpace to LargePark--><g id="link_GreenSpace_LargePark"><path codeLine="67" d="M182.8138,1106.6606 C203.7638,1137.3706 222.79,1165.2611 238.97,1188.9811 " fill="none" id="GreenSpace-backto-LargePark" style="stroke:#181818;stroke-width:1.0;"/><polygon fill="none" points="172.67,1091.7911,177.8573,1110.0419,187.7703,1103.2794,172.67,1091.7911" style="stroke:#181818;stroke-width:1.0;"/></g><!--link GreenSpace to Address--><g id="link_GreenSpace_Address"><path codeLine="68" d="M191.04,1054.6211 C230.49,1054.6211 288.68,1054.6211 328.8,1054.6211 " fill="none" id="GreenSpace-Address" style="stroke:#181818;stroke-width:1.0;"/><polygon fill="#000000" points="227.5,1042.2666,218.4549,1039.3277,218.4549,1045.2055,227.5,1042.2666" style="stroke:#000000;stroke-width:1.0;"/><text fill="#000000" font-family="sans-serif" font-size="13" lengthAdjust="spacing" textLength="70" x="231.5" y="1047.6494">is located in</text><text fill="#000000" font-family="sans-serif" font-size="13" lengthAdjust="spacing" textLength="7" x="199.0391" y="1050.2252">1</text><text fill="#000000" font-family="sans-serif" font-size="13" lengthAdjust="spacing" textLength="7" x="314.0384" y="1050.3288">1</text></g><!--link Address to PostCode--><g id="link_Address_PostCode"><path codeLine="70" d="M376.16,1091.7911 C377.58,1115.6111 379.43,1146.6711 380.85,1170.4911 " fill="none" id="Address-PostCode" style="stroke:#181818;stroke-width:1.0;"/><polygon fill="#000000" points="384.2974,1136.2577,386.6931,1127.0538,380.8256,1127.4035,384.2974,1136.2577" style="stroke:#000000;stroke-width:1.0;"/><text fill="#000000" font-family="sans-serif" font-size="13" lengthAdjust="spacing" textLength="21" x="393" y="1136.6494">has</text><text fill="#000000" font-family="sans-serif" font-size="13" lengthAdjust="spacing" textLength="20" x="354.8615" y="1113.4189">1..*</text><text fill="#000000" font-family="sans-serif" font-size="13" lengthAdjust="spacing" textLength="7" x="372.8436" y="1159.4297">1</text></g><!--link Task to TaskToDoList--><g id="link_Task_TaskToDoList"><path codeLine="73" d="M279.43,426.8011 C261.72,446.8711 242,476.0811 242,506.6211 C242,506.6211 242,506.6211 242,715.1211 C242,750.2211 268.99,779.7611 294.93,800.0311 " fill="none" id="Task-TaskToDoList" style="stroke:#181818;stroke-width:1.0;"/><polygon fill="#000000" points="246.7925,602.2709,244.2314,611.4301,250.1042,611.1863,246.7925,602.2709" style="stroke:#000000;stroke-width:1.0;"/><text fill="#000000" font-family="sans-serif" font-size="13" lengthAdjust="spacing" textLength="49" x="256" y="612.6494">contains</text><text fill="#000000" font-family="sans-serif" font-size="13" lengthAdjust="spacing" textLength="7" x="265.6334" y="448.7491">1</text><text fill="#000000" font-family="sans-serif" font-size="13" lengthAdjust="spacing" textLength="5" x="282.0298" y="790.814">*</text></g><!--link Task to apoint24--><g id="link_Task_apoint24"><path d="M323.48,426.7211 C341.2,455.3111 367.47,497.7011 372.24,505.4011 " fill="none" id="Task-apoint24" style="stroke:#181818;stroke-width:1.0;"/><polygon fill="#000000" points="356.3661,462.0166,358.6327,471.2531,363.6289,468.1568,356.3661,462.0166" style="stroke:#000000;stroke-width:1.0;"/><text fill="#000000" font-family="sans-serif" font-size="13" lengthAdjust="spacing" textLength="48" x="368" y="471.6494">includes</text><text fill="#000000" font-family="sans-serif" font-size="13" lengthAdjust="spacing" textLength="5" x="321.7129" y="449.1032">*</text></g><!--link apoint24 to ToDoList--><g id="link_apoint24_ToDoList"><path d="M373,509.7111 C373,517.3311 373,562.8411 373,588.5211 " fill="none" id="apoint24-ToDoList" style="stroke:#181818;stroke-width:1.0;"/><text fill="#000000" font-family="sans-serif" font-size="13" lengthAdjust="spacing" textLength="7" x="364.9281" y="577.3526">1</text></g><!--link apoint24 to TaskToDoList--><g id="link_apoint24_TaskToDoList"><path d="M374.11,509.7211 C377.94,513.5511 390.83,526.8311 399,539.6211 C411.95,559.9011 415.86,565.3611 422,588.6211 C437.35,646.7611 451.58,667.1211 431,723.6211 C422.33,747.4411 405.69,769.6311 389.12,787.4911 " fill="none" id="apoint24-TaskToDoList" style="stroke:#181818;stroke-width:1.0;stroke-dasharray:7.0,7.0;"/></g><!--link TaskToDoList to GreenSpace--><g id="link_TaskToDoList_GreenSpace"><path codeLine="76" d="M302.51,876.8111 C266.28,918.2711 213.3,978.8911 179.75,1017.2911 " fill="none" id="TaskToDoList-GreenSpace" style="stroke:#181818;stroke-width:1.0;"/><polygon fill="#000000" points="251.7099,951.0316,259.8748,946.1545,255.4487,942.2868,251.7099,951.0316" style="stroke:#000000;stroke-width:1.0;"/><text fill="#000000" font-family="sans-serif" font-size="13" lengthAdjust="spacing" textLength="77" x="264" y="952.6494">Carried out in</text><text fill="#000000" font-family="sans-serif" font-size="13" lengthAdjust="spacing" textLength="20" x="274.9318" y="899.199">1..*</text><text fill="#000000" font-family="sans-serif" font-size="13" lengthAdjust="spacing" textLength="7" x="177.6055" y="1006.4791">1</text></g><!--link ToDoList to TaskToDoList--><g id="link_ToDoList_TaskToDoList"><path codeLine="78" d="M370.52,625.8711 C365.75,659.9511 355.17,735.5111 348.33,784.4211 " fill="none" id="ToDoList-TaskToDoList" style="stroke:#181818;stroke-width:1.0;"/><polygon fill="#000000" points="364.307,719.2183,368.4712,710.6679,362.6501,709.8532,364.307,719.2183" style="stroke:#000000;stroke-width:1.0;"/><text fill="#000000" font-family="sans-serif" font-size="13" lengthAdjust="spacing" textLength="48" x="374" y="719.6494">includes</text><text fill="#000000" font-family="sans-serif" font-size="13" lengthAdjust="spacing" textLength="7" x="361.9129" y="647.3129">1</text><text fill="#000000" font-family="sans-serif" font-size="13" lengthAdjust="spacing" textLength="20" x="327.791" y="773.4012">1..*</text></g><!--SRC=[VLFRRjim37ttLn1vseObM_PO50Mw11W6D5k1T1_0I6min9O2YaQNRlltqV8bSjCj3uuadaCU7b7nuFmH6MkeWm-cv50J23TKn35oH7F0FMtbL14m6K6_ht90BD669-Vty8XLp2EcmXXlHTZj6g6l9lYjUoRuM9JE4XZ7HXEbTKrI1XkBGfnecNMeqNdO14iLpE77zjCIRgq5Jqz0NlW44a1AWeSmNuVvdOjI5AaQh49LuIumIc3uLO3-FDQK5XQ5lZz-TYnbsgEjNOmk-BK6qicn39w-DVMEEEq5Vnxnr6z8HLN5dw6I2cBI_wv852QIham8tESOmVSXoahRwS37VfTLgeB1oZsZg9mpxOiczLkz0jgWrrjeMng33s4TsjOdPnWFlI9BqR0xJXEsyO4t24TfObesl2TlJXsxuNzgUUahCc66GxRaSr4Rigwfxv4F-UaTQhdpuUJYuFhtV0wNxHV5fIEpvMBnRWQAxrV9Woimgaeemir_E3bbjFCAd8_44hDvUpr9og3qp9ehVIDxpKByeKwuLa16xZhhFBeuFXjr4HhToYEz0lqEmwZQOveb8QjjjBM7KExJR1n8PPIOD2RRPcV4n0zJDJfFSDsZbXtgqZbzuw9FjqM-QKFlXzXRM2mcuAxWI1tLTSKdZi8AcPqs51ffcqfgpyI1zVfDziflYhy0]--></g></svg>