<?xml version="1.0" encoding="us-ascii" standalone="no"?><svg xmlns="http://www.w3.org/2000/svg" xmlns:xlink="http://www.w3.org/1999/xlink" contentStyleType="text/css" height="990px" preserveAspectRatio="none" style="width:706px;height:990px;background:#FFFFFF;" version="1.1" viewBox="0 0 706 990" width="706px" zoomAndPan="magnify"><defs/><g><text fill="#000000" font-family="sans-serif" font-size="14" font-weight="bold" lengthAdjust="spacing" textLength="372" x="160.1095" y="25.1074">Domain Model - US21 Add new entry to the To-Do-List</text><!--class Collaborator--><g id="elem_Collaborator"><rect codeLine="10" fill="#F1F1F1" height="148.3477" id="Collaborator" rx="2.5" ry="2.5" style="stroke:#181818;stroke-width:0.5;" width="105" x="280.7189" y="46.6211"/><text fill="#000000" font-family="sans-serif" font-size="14" lengthAdjust="spacing" textLength="78" x="294.2189" y="66.7285">Collaborator</text><line style="stroke:#181818;stroke-width:0.5;" x1="281.7189" x2="384.7189" y1="75.2422" y2="75.2422"/><text fill="#000000" font-family="sans-serif" font-size="14" lengthAdjust="spacing" textLength="35" x="286.7189" y="94.3496">name</text><text fill="#000000" font-family="sans-serif" font-size="14" lengthAdjust="spacing" textLength="72" x="286.7189" y="112.9707">dateOfBirth</text><text fill="#000000" font-family="sans-serif" font-size="14" lengthAdjust="spacing" textLength="93" x="286.7189" y="131.5918">admissionDate</text><text fill="#000000" font-family="sans-serif" font-size="14" lengthAdjust="spacing" textLength="89" x="286.7189" y="150.2129">phoneNumber</text><text fill="#000000" font-family="sans-serif" font-size="14" lengthAdjust="spacing" textLength="54" x="286.7189" y="168.834">taxpayer</text><text fill="#000000" font-family="sans-serif" font-size="14" lengthAdjust="spacing" textLength="33" x="286.7189" y="187.4551">email</text></g><!--class Document--><g id="elem_Document"><rect codeLine="19" fill="#F1F1F1" height="55.2422" id="Document" rx="2.5" ry="2.5" style="stroke:#181818;stroke-width:0.5;" width="70" x="456.2189" y="93.1211"/><text fill="#000000" font-family="sans-serif" font-size="14" lengthAdjust="spacing" textLength="64" x="459.2189" y="113.2285">Document</text><line style="stroke:#181818;stroke-width:0.5;" x1="457.2189" x2="525.2189" y1="121.7422" y2="121.7422"/><text fill="#000000" font-family="sans-serif" font-size="14" lengthAdjust="spacing" textLength="48" x="462.2189" y="140.8496">number</text></g><!--class DocumentType--><g id="elem_DocumentType"><rect codeLine="23" fill="#F1F1F1" height="55.2422" id="DocumentType" rx="2.5" ry="2.5" style="stroke:#181818;stroke-width:0.5;" width="102" x="597.2189" y="93.1211"/><text fill="#000000" font-family="sans-serif" font-size="14" lengthAdjust="spacing" textLength="96" x="600.2189" y="113.2285">DocumentType</text><line style="stroke:#181818;stroke-width:0.5;" x1="598.2189" x2="698.2189" y1="121.7422" y2="121.7422"/><text fill="#000000" font-family="sans-serif" font-size="14" lengthAdjust="spacing" textLength="27" x="603.2189" y="140.8496">type</text></g><!--class Address--><g id="elem_Address"><rect codeLine="27" fill="#F1F1F1" height="73.8633" id="Address" rx="2.5" ry="2.5" style="stroke:#181818;stroke-width:0.5;" width="90" x="372.2189" y="756.6211"/><text fill="#000000" font-family="sans-serif" font-size="14" lengthAdjust="spacing" textLength="52" x="391.2189" y="776.7285">Address</text><line style="stroke:#181818;stroke-width:0.5;" x1="373.2189" x2="461.2189" y1="785.2422" y2="785.2422"/><text fill="#000000" font-family="sans-serif" font-size="14" lengthAdjust="spacing" textLength="36" x="378.2189" y="804.3496">street</text><text fill="#000000" font-family="sans-serif" font-size="14" lengthAdjust="spacing" textLength="78" x="378.2189" y="822.9707">doorNumber</text></g><!--class PostCode--><g id="elem_PostCode"><rect codeLine="32" fill="#F1F1F1" height="73.8633" id="PostCode" rx="2.5" ry="2.5" style="stroke:#181818;stroke-width:0.5;" width="122" x="359.2189" y="909.6211"/><text fill="#000000" font-family="sans-serif" font-size="14" lengthAdjust="spacing" textLength="62" x="389.2189" y="929.7285">PostCode</text><line style="stroke:#181818;stroke-width:0.5;" x1="360.2189" x2="480.2189" y1="938.2422" y2="938.2422"/><text fill="#000000" font-family="sans-serif" font-size="14" lengthAdjust="spacing" textLength="110" x="365.2189" y="957.3496">postCodeNumber</text><text fill="#000000" font-family="sans-serif" font-size="14" lengthAdjust="spacing" textLength="69" x="365.2189" y="975.9707">localization</text></g><!--class GreenSpaceManager--><g id="elem_GreenSpaceManager"><rect codeLine="37" fill="#F1F1F1" height="36.6211" id="GreenSpaceManager" rx="2.5" ry="2.5" style="stroke:#181818;stroke-width:0.5;" width="142" x="124.2189" y="255.6211"/><text fill="#000000" font-family="sans-serif" font-size="14" lengthAdjust="spacing" textLength="136" x="127.2189" y="275.7285">GreenSpaceManager</text><line style="stroke:#181818;stroke-width:0.5;" x1="125.2189" x2="265.2189" y1="284.2422" y2="284.2422"/></g><!--class ToDoList--><g id="elem_ToDoList"><rect codeLine="40" fill="#F1F1F1" height="36.6211" id="ToDoList" rx="2.5" ry="2.5" style="stroke:#181818;stroke-width:0.5;" width="63" x="116.7189" y="658.6211"/><text fill="#000000" font-family="sans-serif" font-size="14" lengthAdjust="spacing" textLength="57" x="119.7189" y="678.7285">ToDoList</text><line style="stroke:#181818;stroke-width:0.5;" x1="117.7189" x2="178.7189" y1="687.2422" y2="687.2422"/></g><!--class Task--><g id="elem_Task"><rect codeLine="43" fill="#F1F1F1" height="55.2422" id="Task" rx="2.5" ry="2.5" style="stroke:#181818;stroke-width:0.5;" width="81" x="98.7189" y="371.6211"/><text fill="#000000" font-family="sans-serif" font-size="14" lengthAdjust="spacing" textLength="31" x="123.7189" y="391.7285">Task</text><line style="stroke:#181818;stroke-width:0.5;" x1="99.7189" x2="178.7189" y1="400.2422" y2="400.2422"/><text fill="#000000" font-family="sans-serif" font-size="14" lengthAdjust="spacing" textLength="69" x="104.7189" y="419.3496">description</text></g><!--class TaskToDoList--><g id="elem_TaskToDoList"><rect codeLine="47" fill="#F1F1F1" height="92.4844" id="TaskToDoList" rx="2.5" ry="2.5" style="stroke:#181818;stroke-width:0.5;" width="94" x="203.2189" y="505.6211"/><text fill="#000000" font-family="sans-serif" font-size="14" lengthAdjust="spacing" textLength="88" x="206.2189" y="525.7285">TaskToDoList</text><line style="stroke:#181818;stroke-width:0.5;" x1="204.2189" x2="296.2189" y1="534.2422" y2="534.2422"/><text fill="#000000" font-family="sans-serif" font-size="14" lengthAdjust="spacing" textLength="38" x="209.2189" y="553.3496">status</text><text fill="#000000" font-family="sans-serif" font-size="14" lengthAdjust="spacing" textLength="51" x="209.2189" y="571.9707">urgency</text><text fill="#000000" font-family="sans-serif" font-size="14" lengthAdjust="spacing" textLength="52" x="209.2189" y="590.5918">duration</text></g><!--class GreenSpace--><g id="elem_GreenSpace"><rect codeLine="53" fill="#F1F1F1" height="73.8633" id="GreenSpace" rx="2.5" ry="2.5" style="stroke:#181818;stroke-width:0.5;" width="86" x="160.2189" y="756.6211"/><text fill="#000000" font-family="sans-serif" font-size="14" lengthAdjust="spacing" textLength="80" x="163.2189" y="776.7285">GreenSpace</text><line style="stroke:#181818;stroke-width:0.5;" x1="161.2189" x2="245.2189" y1="785.2422" y2="785.2422"/><text fill="#000000" font-family="sans-serif" font-size="14" lengthAdjust="spacing" textLength="35" x="166.2189" y="804.3496">name</text><text fill="#000000" font-family="sans-serif" font-size="14" lengthAdjust="spacing" textLength="29" x="166.2189" y="822.9707">area</text></g><!--class Garden--><g id="elem_Garden"><rect codeLine="58" fill="#F1F1F1" height="36.6211" id="Garden" rx="2.5" ry="2.5" style="stroke:#181818;stroke-width:0.5;" width="54" x="270.2189" y="928.1211"/><text fill="#000000" font-family="sans-serif" font-size="14" lengthAdjust="spacing" textLength="48" x="273.2189" y="948.2285">Garden</text><line style="stroke:#181818;stroke-width:0.5;" x1="271.2189" x2="323.2189" y1="956.7422" y2="956.7422"/></g><!--class MediumPark--><g id="elem_MediumPark"><rect codeLine="61" fill="#F1F1F1" height="36.6211" id="MediumPark" rx="2.5" ry="2.5" style="stroke:#181818;stroke-width:0.5;" width="84" x="44.2189" y="928.1211"/><text fill="#000000" font-family="sans-serif" font-size="14" lengthAdjust="spacing" textLength="78" x="47.2189" y="948.2285">MediumPark</text><line style="stroke:#181818;stroke-width:0.5;" x1="45.2189" x2="127.2189" y1="956.7422" y2="956.7422"/></g><!--class LargePark--><g id="elem_LargePark"><rect codeLine="64" fill="#F1F1F1" height="36.6211" id="LargePark" rx="2.5" ry="2.5" style="stroke:#181818;stroke-width:0.5;" width="72" x="163.2189" y="928.1211"/><text fill="#000000" font-family="sans-serif" font-size="14" lengthAdjust="spacing" textLength="66" x="166.2189" y="948.2285">LargePark</text><line style="stroke:#181818;stroke-width:0.5;" x1="164.2189" x2="234.2189" y1="956.7422" y2="956.7422"/></g><ellipse cx="166.2189" cy="551.6211" fill="#181818" rx="2" ry="2" style="stroke:#181818;stroke-width:1.0;"/><!--link Collaborator to Document--><g id="link_Collaborator_Document"><path codeLine="67" d="M385.8289,120.6211 C408.8089,120.6211 435.1589,120.6211 455.7589,120.6211 " fill="none" id="Collaborator-Document" style="stroke:#181818;stroke-width:1.0;"/><polygon fill="#000000" points="412.9689,108.2666,403.9238,105.3277,403.9238,111.2055,412.9689,108.2666" style="stroke:#000000;stroke-width:1.0;"/><text fill="#000000" font-family="sans-serif" font-size="13" lengthAdjust="spacing" textLength="21" x="416.9689" y="113.6494">has</text><text fill="#000000" font-family="sans-serif" font-size="13" lengthAdjust="spacing" textLength="7" x="393.7194" y="116.4501">1</text><text fill="#000000" font-family="sans-serif" font-size="13" lengthAdjust="spacing" textLength="7" x="441.3322" y="116.0338">1</text></g><!--link Collaborator to Address--><g id="link_Collaborator_Address"><path codeLine="68" d="M385.9389,183.8711 C402.8189,209.7911 417.2189,241.2411 417.2189,273.1211 C417.2189,273.1211 417.2189,273.1211 417.2189,678.1211 C417.2189,704.3611 417.2189,733.9811 417.2189,756.5211 " fill="none" id="Collaborator-Address" style="stroke:#181818;stroke-width:1.0;"/><polygon fill="#000000" points="422.4916,471.2592,424.9328,462.0672,419.0637,462.3878,422.4916,471.2592" style="stroke:#000000;stroke-width:1.0;"/><text fill="#000000" font-family="sans-serif" font-size="13" lengthAdjust="spacing" textLength="25" x="431.2189" y="471.6494">lives</text><text fill="#000000" font-family="sans-serif" font-size="13" lengthAdjust="spacing" textLength="20" x="393.5829" y="187.5686">1..*</text><text fill="#000000" font-family="sans-serif" font-size="13" lengthAdjust="spacing" textLength="7" x="409.5955" y="745.465">1</text></g><!--reverse link Collaborator to GreenSpaceManager--><g id="link_Collaborator_GreenSpaceManager"><path codeLine="69" d="M268.5293,192.6396 C243.8593,219.7296 228.3189,236.7811 211.3389,255.4311 " fill="none" id="Collaborator-backto-GreenSpaceManager" style="stroke:#181818;stroke-width:1.0;"/><polygon fill="none" points="280.6489,179.3311,264.0932,188.5997,272.9655,196.6794,280.6489,179.3311" style="stroke:#181818;stroke-width:1.0;"/></g><!--link GreenSpaceManager to Task--><g id="link_GreenSpaceManager_Task"><path codeLine="71" d="M183.3089,292.6811 C177.6789,301.4411 171.1389,312.3311 166.2189,322.6211 C158.7189,338.3211 152.0989,356.6911 147.2989,371.3811 " fill="none" id="GreenSpaceManager-Task" style="stroke:#181818;stroke-width:1.0;"/><polygon fill="#000000" points="169.1386,336.8133,175.5744,329.8111,170.2295,327.3655,169.1386,336.8133" style="stroke:#000000;stroke-width:1.0;"/><text fill="#000000" font-family="sans-serif" font-size="13" lengthAdjust="spacing" textLength="43" x="180.2189" y="337.6494">creates</text><text fill="#000000" font-family="sans-serif" font-size="13" lengthAdjust="spacing" textLength="20" x="157.1467" y="314.4142">1..*</text><text fill="#000000" font-family="sans-serif" font-size="13" lengthAdjust="spacing" textLength="20" x="126.8789" y="360.4873">1..*</text></g><!--link GreenSpaceManager to TaskToDoList--><g id="link_GreenSpaceManager_TaskToDoList"><path codeLine="72" d="M210.7789,292.8311 C217.2989,301.2811 224.2789,311.8711 228.2189,322.6211 C250.4089,383.1011 253.3289,458.3411 252.4789,505.4411 " fill="none" id="GreenSpaceManager-TaskToDoList" style="stroke:#181818;stroke-width:1.0;"/><polygon fill="#000000" points="255.1813,404.1731,256.3244,394.7315,250.5564,395.8628,255.1813,404.1731" style="stroke:#000000;stroke-width:1.0;"/><text fill="#000000" font-family="sans-serif" font-size="13" lengthAdjust="spacing" textLength="99" x="263.2189" y="404.6494">inserts new entry</text><text fill="#000000" font-family="sans-serif" font-size="13" lengthAdjust="spacing" textLength="20" x="192.2732" y="314.2621">1..*</text><text fill="#000000" font-family="sans-serif" font-size="13" lengthAdjust="spacing" textLength="20" x="231.3421" y="494.4241">1..*</text></g><!--link GreenSpaceManager to GreenSpace--><g id="link_GreenSpaceManager_GreenSpace"><path codeLine="73" d="M124.7189,292.6511 C73.8989,310.0011 14.2189,342.2711 14.2189,398.1211 C14.2189,398.1211 14.2189,398.1211 14.2189,678.1211 C14.2189,745.8311 104.0589,774.6011 159.8589,785.9411 " fill="none" id="GreenSpaceManager-GreenSpace" style="stroke:#181818;stroke-width:1.0;"/><polygon fill="#000000" points="19.5742,556.754,21.863,547.5229,16,547.9406,19.5742,556.754" style="stroke:#000000;stroke-width:1.0;"/><text fill="#000000" font-family="sans-serif" font-size="13" lengthAdjust="spacing" textLength="100" x="28.2189" y="557.1494">register/manages</text><text fill="#000000" font-family="sans-serif" font-size="13" lengthAdjust="spacing" textLength="7" x="109.1627" y="309.8435">1</text><text fill="#000000" font-family="sans-serif" font-size="13" lengthAdjust="spacing" textLength="5" x="147.2634" y="780.325">*</text></g><!--reverse link GreenSpace to Garden--><g id="link_GreenSpace_Garden"><path codeLine="75" d="M235.2489,846.0738 C254.3589,876.7838 271.4689,904.2611 286.2389,927.9811 " fill="none" id="GreenSpace-backto-Garden" style="stroke:#181818;stroke-width:1.0;"/><polygon fill="none" points="225.7389,830.7911,230.1547,849.2438,240.3431,842.9038,225.7389,830.7911" style="stroke:#181818;stroke-width:1.0;"/></g><!--reverse link GreenSpace to MediumPark--><g id="link_GreenSpace_MediumPark"><path codeLine="76" d="M164.1727,845.0186 C140.3727,875.7286 118.2689,904.2611 99.8789,927.9811 " fill="none" id="GreenSpace-backto-MediumPark" style="stroke:#181818;stroke-width:1.0;"/><polygon fill="none" points="175.1989,830.7911,159.4302,841.3432,168.9152,848.694,175.1989,830.7911" style="stroke:#181818;stroke-width:1.0;"/></g><!--reverse link GreenSpace to LargePark--><g id="link_GreenSpace_LargePark"><path codeLine="77" d="M201.7843,848.7848 C200.9743,879.4948 200.3189,904.2611 199.6889,927.9811 " fill="none" id="GreenSpace-backto-LargePark" style="stroke:#181818;stroke-width:1.0;"/><polygon fill="none" points="202.2589,830.7911,195.7864,848.6266,207.7822,848.943,202.2589,830.7911" style="stroke:#181818;stroke-width:1.0;"/></g><!--link GreenSpace to Address--><g id="link_GreenSpace_Address"><path codeLine="78" d="M246.2689,793.6211 C282.7589,793.6211 334.9289,793.6211 372.0289,793.6211 " fill="none" id="GreenSpace-Address" style="stroke:#181818;stroke-width:1.0;"/><polygon fill="#000000" points="276.7189,781.2666,267.6738,778.3277,267.6738,784.2055,276.7189,781.2666" style="stroke:#000000;stroke-width:1.0;"/><text fill="#000000" font-family="sans-serif" font-size="13" lengthAdjust="spacing" textLength="70" x="280.7189" y="786.6494">is located in</text><text fill="#000000" font-family="sans-serif" font-size="13" lengthAdjust="spacing" textLength="7" x="254.2697" y="789.2252">1</text><text fill="#000000" font-family="sans-serif" font-size="13" lengthAdjust="spacing" textLength="7" x="357.269" y="789.3288">1</text></g><!--link Address to PostCode--><g id="link_Address_PostCode"><path codeLine="80" d="M417.9389,830.7911 C418.4089,854.6111 419.0289,885.6711 419.4989,909.4911 " fill="none" id="Address-PostCode" style="stroke:#181818;stroke-width:1.0;"/><polygon fill="#000000" points="423.318,875.2656,426.0771,866.1641,420.2004,866.2806,423.318,875.2656" style="stroke:#000000;stroke-width:1.0;"/><text fill="#000000" font-family="sans-serif" font-size="13" lengthAdjust="spacing" textLength="21" x="432.2189" y="875.6494">has</text><text fill="#000000" font-family="sans-serif" font-size="13" lengthAdjust="spacing" textLength="20" x="396.4019" y="852.4189">1..*</text><text fill="#000000" font-family="sans-serif" font-size="13" lengthAdjust="spacing" textLength="7" x="411.7472" y="898.4297">1</text></g><!--link Document to DocumentType--><g id="link_Document_DocumentType"><path codeLine="82" d="M526.4489,120.6211 C547.2489,120.6211 573.9289,120.6211 597.0189,120.6211 " fill="none" id="Document-DocumentType" style="stroke:#181818;stroke-width:1.0;"/><polygon fill="#000000" points="553.7189,108.2666,544.6738,105.3277,544.6738,111.2055,553.7189,108.2666" style="stroke:#000000;stroke-width:1.0;"/><text fill="#000000" font-family="sans-serif" font-size="13" lengthAdjust="spacing" textLength="21" x="557.7189" y="113.6494">has</text><text fill="#000000" font-family="sans-serif" font-size="13" lengthAdjust="spacing" textLength="20" x="534.2228" y="136.1145">1..*</text><text fill="#000000" font-family="sans-serif" font-size="13" lengthAdjust="spacing" textLength="7" x="582.3267" y="116.4575">1</text></g><!--link Task to apoint28--><g id="link_Task_apoint28"><path d="M143.9789,426.6811 C151.1889,466.8511 164.2189,539.4511 166.0089,549.4611 " fill="none" id="Task-apoint28" style="stroke:#181818;stroke-width:1.0;"/><polygon fill="#000000" points="156.3359,461.3452,155.0406,470.7671,160.826,469.7291,156.3359,461.3452" style="stroke:#000000;stroke-width:1.0;"/><text fill="#000000" font-family="sans-serif" font-size="13" lengthAdjust="spacing" textLength="48" x="166.2189" y="471.6494">includes</text><text fill="#000000" font-family="sans-serif" font-size="13" lengthAdjust="spacing" textLength="5" x="139.5015" y="449.0539">*</text></g><!--link apoint28 to ToDoList--><g id="link_apoint28_ToDoList"><path d="M166.0189,554.0111 C164.5389,564.1311 155.3589,627.1211 150.7889,658.4611 " fill="none" id="apoint28-ToDoList" style="stroke:#181818;stroke-width:1.0;"/><text fill="#000000" font-family="sans-serif" font-size="13" lengthAdjust="spacing" textLength="7" x="143.5041" y="647.2742">1</text></g><!--link apoint28 to TaskToDoList--><g id="link_apoint28_TaskToDoList"><path d="M168.5189,551.6211 C180.0089,551.6211 191.4989,551.6211 202.9889,551.6211 " fill="none" id="apoint28-TaskToDoList" style="stroke:#181818;stroke-width:1.0;stroke-dasharray:7.0,7.0;"/></g><!--link TaskToDoList to GreenSpace--><g id="link_TaskToDoList_GreenSpace"><path codeLine="87" d="M241.3789,597.7611 C232.3889,643.6611 218.6389,713.8811 210.3289,756.3011 " fill="none" id="TaskToDoList-GreenSpace" style="stroke:#181818;stroke-width:1.0;"/><polygon fill="#000000" points="233.2579,682.1734,237.8805,673.8618,232.1122,672.7321,233.2579,682.1734" style="stroke:#000000;stroke-width:1.0;"/><text fill="#000000" font-family="sans-serif" font-size="13" lengthAdjust="spacing" textLength="77" x="243.2189" y="682.6494">Carried out in</text><text fill="#000000" font-family="sans-serif" font-size="13" lengthAdjust="spacing" textLength="20" x="218.494" y="620.1414">1..*</text><text fill="#000000" font-family="sans-serif" font-size="13" lengthAdjust="spacing" textLength="7" x="203.9494" y="745.4909">1</text></g><!--SRC=[TLF1Rjim3BtxAuYSjc79rXs3Oa2N0CE0fYkGx0COYOs5o98XqUlIRVy-MevjELbpS2IznqVoKOf7useCM47bdLTby1K1XuQAE20rgYCUQCidIn18CRg3pGcnHEsVZJl04zgO8yfYZ7VCmUmRfc_Akwrv8VXOb4OJA1EK2ALrHLnw7Ok23KkQjQ_GEDXuJHRcy6FxwGRkj0P7pq2EmmdO0vS4EpzV-_czYLmKAHkilBMuzm7P1_XTWFmSLfGM6fc-FtqnWSkqHrsP68rtQm7IILrwHmzDjQUGzeo_QZoTDoH5sU9ldsdjLLD9DUSaNT0LkZlLr35OLYCkxGII_mwB78YuAzBxy70XzkWZhyICZboVTrcTrYkqvWLPcXd3legesye0QODEPjWQCe0xl_QjSPCpZCTpHPgY2gQU2hPu7zSNZjp4j6p2WPmwTT5DUBMMowbW8Cnu63IvlAWDQTDKZnYE-UazIhhnS3BssSrCRatxxQS0IoWnmkTBtcBnJgWTjv_84gpvILTakFqZn6jFY-BQvbmuhPAnIr3IAYVfrsFoa656Ip0kKk2OFO7_YoG52S_yNigpFOWAXGzLuhK5PC5TPvtnLyUZ-rVGC88S6RqV_JGnNL0cBMsqkNjeEe3-bW_3AeRnPURC9azhv2QBPwFQn3jb6xdGS5kyQMdlU-mjB1OJepkP8NIehvESU0eh3C58IxxXjYsfuHy0]--></g></svg>