<?xml version="1.0" encoding="us-ascii" standalone="no"?><svg xmlns="http://www.w3.org/2000/svg" xmlns:xlink="http://www.w3.org/1999/xlink" contentStyleType="text/css" height="1251px" preserveAspectRatio="none" style="width:878px;height:1251px;background:#FFFFFF;" version="1.1" viewBox="0 0 878 1251" width="878px" zoomAndPan="magnify"><defs/><g><text fill="#000000" font-family="sans-serif" font-size="14" font-weight="bold" lengthAdjust="spacing" textLength="372" x="246.3043" y="25.1074">Domain Model - US21 Add new entry to the To-Do-List</text><!--class Collaborator--><g id="elem_Collaborator"><rect codeLine="10" fill="#F1F1F1" height="148.3477" id="Collaborator" rx="2.5" ry="2.5" style="stroke:#181818;stroke-width:0.5;" width="105" x="453.1087" y="46.6211"/><text fill="#000000" font-family="sans-serif" font-size="14" lengthAdjust="spacing" textLength="78" x="466.6087" y="66.7285">Collaborator</text><line style="stroke:#181818;stroke-width:0.5;" x1="454.1087" x2="557.1087" y1="75.2422" y2="75.2422"/><text fill="#000000" font-family="sans-serif" font-size="14" lengthAdjust="spacing" textLength="35" x="459.1087" y="94.3496">name</text><text fill="#000000" font-family="sans-serif" font-size="14" lengthAdjust="spacing" textLength="72" x="459.1087" y="112.9707">dateOfBirth</text><text fill="#000000" font-family="sans-serif" font-size="14" lengthAdjust="spacing" textLength="93" x="459.1087" y="131.5918">admissionDate</text><text fill="#000000" font-family="sans-serif" font-size="14" lengthAdjust="spacing" textLength="89" x="459.1087" y="150.2129">phoneNumber</text><text fill="#000000" font-family="sans-serif" font-size="14" lengthAdjust="spacing" textLength="54" x="459.1087" y="168.834">taxpayer</text><text fill="#000000" font-family="sans-serif" font-size="14" lengthAdjust="spacing" textLength="33" x="459.1087" y="187.4551">email</text></g><!--class Document--><g id="elem_Document"><rect codeLine="19" fill="#F1F1F1" height="55.2422" id="Document" rx="2.5" ry="2.5" style="stroke:#181818;stroke-width:0.5;" width="70" x="628.6087" y="93.1211"/><text fill="#000000" font-family="sans-serif" font-size="14" lengthAdjust="spacing" textLength="64" x="631.6087" y="113.2285">Document</text><line style="stroke:#181818;stroke-width:0.5;" x1="629.6087" x2="697.6087" y1="121.7422" y2="121.7422"/><text fill="#000000" font-family="sans-serif" font-size="14" lengthAdjust="spacing" textLength="48" x="634.6087" y="140.8496">number</text></g><!--class DocumentType--><g id="elem_DocumentType"><rect codeLine="23" fill="#F1F1F1" height="55.2422" id="DocumentType" rx="2.5" ry="2.5" style="stroke:#181818;stroke-width:0.5;" width="102" x="769.6087" y="93.1211"/><text fill="#000000" font-family="sans-serif" font-size="14" lengthAdjust="spacing" textLength="96" x="772.6087" y="113.2285">DocumentType</text><line style="stroke:#181818;stroke-width:0.5;" x1="770.6087" x2="870.6087" y1="121.7422" y2="121.7422"/><text fill="#000000" font-family="sans-serif" font-size="14" lengthAdjust="spacing" textLength="27" x="775.6087" y="140.8496">type</text></g><!--class Address--><g id="elem_Address"><rect codeLine="27" fill="#F1F1F1" height="73.8633" id="Address" rx="2.5" ry="2.5" style="stroke:#181818;stroke-width:0.5;" width="90" x="503.6087" y="1017.6211"/><text fill="#000000" font-family="sans-serif" font-size="14" lengthAdjust="spacing" textLength="52" x="522.6087" y="1037.7285">Address</text><line style="stroke:#181818;stroke-width:0.5;" x1="504.6087" x2="592.6087" y1="1046.2422" y2="1046.2422"/><text fill="#000000" font-family="sans-serif" font-size="14" lengthAdjust="spacing" textLength="36" x="509.6087" y="1065.3496">street</text><text fill="#000000" font-family="sans-serif" font-size="14" lengthAdjust="spacing" textLength="78" x="509.6087" y="1083.9707">doorNumber</text></g><!--class PostCode--><g id="elem_PostCode"><rect codeLine="32" fill="#F1F1F1" height="73.8633" id="PostCode" rx="2.5" ry="2.5" style="stroke:#181818;stroke-width:0.5;" width="122" x="487.6087" y="1170.6211"/><text fill="#000000" font-family="sans-serif" font-size="14" lengthAdjust="spacing" textLength="62" x="517.6087" y="1190.7285">PostCode</text><line style="stroke:#181818;stroke-width:0.5;" x1="488.6087" x2="608.6087" y1="1199.2422" y2="1199.2422"/><text fill="#000000" font-family="sans-serif" font-size="14" lengthAdjust="spacing" textLength="110" x="493.6087" y="1218.3496">postCodeNumber</text><text fill="#000000" font-family="sans-serif" font-size="14" lengthAdjust="spacing" textLength="69" x="493.6087" y="1236.9707">localization</text></g><!--class GreenSpaceManager--><g id="elem_GreenSpaceManager"><rect codeLine="37" fill="#F1F1F1" height="36.6211" id="GreenSpaceManager" rx="2.5" ry="2.5" style="stroke:#181818;stroke-width:0.5;" width="142" x="319.6087" y="255.6211"/><text fill="#000000" font-family="sans-serif" font-size="14" lengthAdjust="spacing" textLength="136" x="322.6087" y="275.7285">GreenSpaceManager</text><line style="stroke:#181818;stroke-width:0.5;" x1="320.6087" x2="460.6087" y1="284.2422" y2="284.2422"/></g><!--class ToDoList--><g id="elem_ToDoList"><rect codeLine="40" fill="#F1F1F1" height="36.6211" id="ToDoList" rx="2.5" ry="2.5" style="stroke:#181818;stroke-width:0.5;" width="63" x="250.1087" y="588.6211"/><text fill="#000000" font-family="sans-serif" font-size="14" lengthAdjust="spacing" textLength="57" x="253.1087" y="608.7285">ToDoList</text><line style="stroke:#181818;stroke-width:0.5;" x1="251.1087" x2="312.1087" y1="617.2422" y2="617.2422"/></g><!--class Task--><g id="elem_Task"><rect codeLine="43" fill="#F1F1F1" height="55.2422" id="Task" rx="2.5" ry="2.5" style="stroke:#181818;stroke-width:0.5;" width="81" x="272.1087" y="371.6211"/><text fill="#000000" font-family="sans-serif" font-size="14" lengthAdjust="spacing" textLength="31" x="297.1087" y="391.7285">Task</text><line style="stroke:#181818;stroke-width:0.5;" x1="273.1087" x2="352.1087" y1="400.2422" y2="400.2422"/><text fill="#000000" font-family="sans-serif" font-size="14" lengthAdjust="spacing" textLength="69" x="278.1087" y="419.3496">description</text></g><!--class TaskToDoList--><g id="elem_TaskToDoList"><rect codeLine="47" fill="#F1F1F1" height="92.4844" id="TaskToDoList" rx="2.5" ry="2.5" style="stroke:#181818;stroke-width:0.5;" width="94" x="254.6087" y="784.6211"/><text fill="#000000" font-family="sans-serif" font-size="14" lengthAdjust="spacing" textLength="88" x="257.6087" y="804.7285">TaskToDoList</text><line style="stroke:#181818;stroke-width:0.5;" x1="255.6087" x2="347.6087" y1="813.2422" y2="813.2422"/><text fill="#000000" font-family="sans-serif" font-size="14" lengthAdjust="spacing" textLength="38" x="260.6087" y="832.3496">status</text><text fill="#000000" font-family="sans-serif" font-size="14" lengthAdjust="spacing" textLength="51" x="260.6087" y="850.9707">urgency</text><text fill="#000000" font-family="sans-serif" font-size="14" lengthAdjust="spacing" textLength="52" x="260.6087" y="869.5918">duration</text></g><!--class GreenSpace--><g id="elem_GreenSpace"><rect codeLine="53" fill="#F1F1F1" height="73.8633" id="GreenSpace" rx="2.5" ry="2.5" style="stroke:#181818;stroke-width:0.5;" width="86" x="258.6087" y="1017.6211"/><text fill="#000000" font-family="sans-serif" font-size="14" lengthAdjust="spacing" textLength="80" x="261.6087" y="1037.7285">GreenSpace</text><line style="stroke:#181818;stroke-width:0.5;" x1="259.6087" x2="343.6087" y1="1046.2422" y2="1046.2422"/><text fill="#000000" font-family="sans-serif" font-size="14" lengthAdjust="spacing" textLength="35" x="264.6087" y="1065.3496">name</text><text fill="#000000" font-family="sans-serif" font-size="14" lengthAdjust="spacing" textLength="29" x="264.6087" y="1083.9707">area</text></g><!--class Garden--><g id="elem_Garden"><rect codeLine="58" fill="#F1F1F1" height="36.6211" id="Garden" rx="2.5" ry="2.5" style="stroke:#181818;stroke-width:0.5;" width="54" x="372.6087" y="1189.1211"/><text fill="#000000" font-family="sans-serif" font-size="14" lengthAdjust="spacing" textLength="48" x="375.6087" y="1209.2285">Garden</text><line style="stroke:#181818;stroke-width:0.5;" x1="373.6087" x2="425.6087" y1="1217.7422" y2="1217.7422"/></g><!--class MediumPark--><g id="elem_MediumPark"><rect codeLine="61" fill="#F1F1F1" height="36.6211" id="MediumPark" rx="2.5" ry="2.5" style="stroke:#181818;stroke-width:0.5;" width="84" x="146.6087" y="1189.1211"/><text fill="#000000" font-family="sans-serif" font-size="14" lengthAdjust="spacing" textLength="78" x="149.6087" y="1209.2285">MediumPark</text><line style="stroke:#181818;stroke-width:0.5;" x1="147.6087" x2="229.6087" y1="1217.7422" y2="1217.7422"/></g><!--class LargePark--><g id="elem_LargePark"><rect codeLine="64" fill="#F1F1F1" height="36.6211" id="LargePark" rx="2.5" ry="2.5" style="stroke:#181818;stroke-width:0.5;" width="72" x="265.6087" y="1189.1211"/><text fill="#000000" font-family="sans-serif" font-size="14" lengthAdjust="spacing" textLength="66" x="268.6087" y="1209.2285">LargePark</text><line style="stroke:#181818;stroke-width:0.5;" x1="266.6087" x2="336.6087" y1="1217.7422" y2="1217.7422"/></g><ellipse cx="312.6087" cy="507.6211" fill="#181818" rx="2" ry="2" style="stroke:#181818;stroke-width:1.0;"/><!--link Collaborator to Document--><g id="link_Collaborator_Document"><path codeLine="67" d="M558.2187,120.6211 C581.1987,120.6211 607.5487,120.6211 628.1487,120.6211 " fill="none" id="Collaborator-Document" style="stroke:#181818;stroke-width:1.0;"/><polygon fill="#000000" points="585.3587,108.2666,576.3136,105.3277,576.3136,111.2055,585.3587,108.2666" style="stroke:#000000;stroke-width:1.0;"/><text fill="#000000" font-family="sans-serif" font-size="13" lengthAdjust="spacing" textLength="21" x="589.3587" y="113.6494">has</text><text fill="#000000" font-family="sans-serif" font-size="13" lengthAdjust="spacing" textLength="7" x="566.1091" y="116.4501">1</text><text fill="#000000" font-family="sans-serif" font-size="13" lengthAdjust="spacing" textLength="7" x="613.7219" y="116.0338">1</text></g><!--link Collaborator to Address--><g id="link_Collaborator_Address"><path codeLine="68" d="M553.9087,194.9711 C565.4987,218.9011 574.6087,246.2411 574.6087,273.1211 C574.6087,273.1211 574.6087,273.1211 574.6087,948.1211 C574.6087,971.7011 568.4087,997.4111 562.0687,1017.5411 " fill="none" id="Collaborator-Address" style="stroke:#181818;stroke-width:1.0;"/><polygon fill="#000000" points="579.6583,612.2664,582.5073,603.1926,576.6298,603.2509,579.6583,612.2664" style="stroke:#000000;stroke-width:1.0;"/><text fill="#000000" font-family="sans-serif" font-size="13" lengthAdjust="spacing" textLength="25" x="588.6087" y="612.6494">lives</text><text fill="#000000" font-family="sans-serif" font-size="13" lengthAdjust="spacing" textLength="20" x="537.5591" y="216.8934">1..*</text><text fill="#000000" font-family="sans-serif" font-size="13" lengthAdjust="spacing" textLength="7" x="556.8428" y="1006.4886">1</text></g><!--reverse link Collaborator to GreenSpaceManager--><g id="link_Collaborator_GreenSpaceManager"><path codeLine="69" d="M441.937,205.4994 C423.867,229.3094 416.0587,239.5911 403.9387,255.5511 " fill="none" id="Collaborator-backto-GreenSpaceManager" style="stroke:#181818;stroke-width:1.0;"/><polygon fill="none" points="452.8187,191.1611,437.1575,201.8722,446.7164,209.1267,452.8187,191.1611" style="stroke:#181818;stroke-width:1.0;"/></g><!--link GreenSpaceManager to Task--><g id="link_GreenSpaceManager_Task"><path codeLine="71" d="M375.8387,292.6511 C368.7487,301.4011 360.3687,312.3011 353.6087,322.6211 C343.3987,338.2211 333.3787,356.5911 325.8087,371.3011 " fill="none" id="GreenSpaceManager-Task" style="stroke:#181818;stroke-width:1.0;"/><polygon fill="#000000" points="355.9251,336.4854,363.2595,330.4309,358.3,327.2761,355.9251,336.4854" style="stroke:#000000;stroke-width:1.0;"/><text fill="#000000" font-family="sans-serif" font-size="13" lengthAdjust="spacing" textLength="43" x="367.6087" y="337.6494">creates</text><text fill="#000000" font-family="sans-serif" font-size="13" lengthAdjust="spacing" textLength="20" x="348.8721" y="314.3758">1..*</text><text fill="#000000" font-family="sans-serif" font-size="13" lengthAdjust="spacing" textLength="20" x="306.5087" y="360.3898">1..*</text></g><!--link GreenSpaceManager to TaskToDoList--><g id="link_GreenSpaceManager_TaskToDoList"><path codeLine="72" d="M401.9887,292.6511 C415.8987,315.8211 437.6087,358.3411 437.6087,398.1211 C437.6087,398.1211 437.6087,398.1211 437.6087,715.1211 C437.6087,762.8111 388.0687,794.6411 348.7887,812.3811 " fill="none" id="GreenSpaceManager-TaskToDoList" style="stroke:#181818;stroke-width:1.0;"/><polygon fill="#000000" points="442.0995,554.2406,445.9442,545.5418,440.0969,544.9433,442.0995,554.2406" style="stroke:#000000;stroke-width:1.0;"/><text fill="#000000" font-family="sans-serif" font-size="13" lengthAdjust="spacing" textLength="99" x="451.6087" y="554.6494">inserts new entry</text><text fill="#000000" font-family="sans-serif" font-size="13" lengthAdjust="spacing" textLength="20" x="382.3768" y="314.3758">1..*</text><text fill="#000000" font-family="sans-serif" font-size="13" lengthAdjust="spacing" textLength="20" x="356.4722" y="805.8032">1..*</text></g><!--link GreenSpaceManager to GreenSpace--><g id="link_GreenSpaceManager_GreenSpace"><path codeLine="73" d="M319.2587,283.6211 C209.9587,298.6611 13.6087,334.5211 13.6087,398.1211 C13.6087,398.1211 13.6087,398.1211 13.6087,948.1211 C13.6087,999.6411 178.1487,1033.5511 258.4887,1047.0411 " fill="none" id="GreenSpaceManager-GreenSpace" style="stroke:#181818;stroke-width:1.0;"/><polygon fill="#000000" points="18.2119,670.2508,21.8593,661.4675,16,661.0011,18.2119,670.2508" style="stroke:#000000;stroke-width:1.0;"/><text fill="#000000" font-family="sans-serif" font-size="13" lengthAdjust="spacing" textLength="100" x="27.6087" y="670.6494">register/manages</text><text fill="#000000" font-family="sans-serif" font-size="13" lengthAdjust="spacing" textLength="7" x="304.5398" y="280.7871">1</text><text fill="#000000" font-family="sans-serif" font-size="13" lengthAdjust="spacing" textLength="5" x="245.6477" y="1041.3424">*</text></g><!--reverse link GreenSpace to Garden--><g id="link_GreenSpace_Garden"><path codeLine="75" d="M334.881,1106.8879 C354.821,1137.5979 372.7687,1165.2611 388.1587,1188.9811 " fill="none" id="GreenSpace-backto-Garden" style="stroke:#181818;stroke-width:1.0;"/><polygon fill="none" points="325.0787,1091.7911,329.8488,1110.1554,339.9133,1103.6205,325.0787,1091.7911" style="stroke:#181818;stroke-width:1.0;"/></g><!--reverse link GreenSpace to MediumPark--><g id="link_GreenSpace_MediumPark"><path codeLine="76" d="M263.7545,1106.2029 C240.7745,1136.9129 219.5587,1165.2611 201.8087,1188.9811 " fill="none" id="GreenSpace-backto-MediumPark" style="stroke:#181818;stroke-width:1.0;"/><polygon fill="none" points="274.5387,1091.7911,258.9505,1102.6082,268.5584,1109.7977,274.5387,1091.7911" style="stroke:#181818;stroke-width:1.0;"/></g><!--reverse link GreenSpace to LargePark--><g id="link_GreenSpace_LargePark"><path codeLine="77" d="M301.6087,1109.7911 C301.6087,1140.5011 301.6087,1165.2611 301.6087,1188.9811 " fill="none" id="GreenSpace-backto-LargePark" style="stroke:#181818;stroke-width:1.0;"/><polygon fill="none" points="301.6087,1091.7911,295.6087,1109.7911,307.6087,1109.7911,301.6087,1091.7911" style="stroke:#181818;stroke-width:1.0;"/></g><!--link GreenSpace to Address--><g id="link_GreenSpace_Address"><path codeLine="78" d="M344.6287,1054.6211 C389.1387,1054.6211 458.3387,1054.6211 503.5787,1054.6211 " fill="none" id="GreenSpace-Address" style="stroke:#181818;stroke-width:1.0;"/><polygon fill="#000000" points="391.6087,1042.2666,382.5636,1039.3277,382.5636,1045.2055,391.6087,1042.2666" style="stroke:#000000;stroke-width:1.0;"/><text fill="#000000" font-family="sans-serif" font-size="13" lengthAdjust="spacing" textLength="70" x="395.6087" y="1047.6494">is located in</text><text fill="#000000" font-family="sans-serif" font-size="13" lengthAdjust="spacing" textLength="7" x="352.6243" y="1050.2252">1</text><text fill="#000000" font-family="sans-serif" font-size="13" lengthAdjust="spacing" textLength="7" x="488.5409" y="1050.277">1</text></g><!--link Address to PostCode--><g id="link_Address_PostCode"><path codeLine="80" d="M548.6087,1091.7911 C548.6087,1115.6111 548.6087,1146.6711 548.6087,1170.4911 " fill="none" id="Address-PostCode" style="stroke:#181818;stroke-width:1.0;"/><polygon fill="#000000" points="553.6087,1136.2666,556.5476,1127.2215,550.6697,1127.2215,553.6087,1136.2666" style="stroke:#000000;stroke-width:1.0;"/><text fill="#000000" font-family="sans-serif" font-size="13" lengthAdjust="spacing" textLength="21" x="562.6087" y="1136.6494">has</text><text fill="#000000" font-family="sans-serif" font-size="13" lengthAdjust="spacing" textLength="20" x="526.9524" y="1113.4189">1..*</text><text fill="#000000" font-family="sans-serif" font-size="13" lengthAdjust="spacing" textLength="7" x="540.9852" y="1159.4297">1</text></g><!--link Document to DocumentType--><g id="link_Document_DocumentType"><path codeLine="82" d="M698.8387,120.6211 C719.6387,120.6211 746.3187,120.6211 769.4087,120.6211 " fill="none" id="Document-DocumentType" style="stroke:#181818;stroke-width:1.0;"/><polygon fill="#000000" points="726.1087,108.2666,717.0636,105.3277,717.0636,111.2055,726.1087,108.2666" style="stroke:#000000;stroke-width:1.0;"/><text fill="#000000" font-family="sans-serif" font-size="13" lengthAdjust="spacing" textLength="21" x="730.1087" y="113.6494">has</text><text fill="#000000" font-family="sans-serif" font-size="13" lengthAdjust="spacing" textLength="20" x="706.6126" y="136.1145">1..*</text><text fill="#000000" font-family="sans-serif" font-size="13" lengthAdjust="spacing" textLength="7" x="754.7165" y="116.4575">1</text></g><!--link Task to TaskToDoList--><g id="link_Task_TaskToDoList"><path codeLine="85" d="M271.9787,408.3811 C224.2887,420.7211 151.6087,448.9811 151.6087,506.6211 C151.6087,506.6211 151.6087,506.6211 151.6087,715.1211 C151.6087,767.7011 210.5687,799.3611 254.5587,815.6611 " fill="none" id="Task-TaskToDoList" style="stroke:#181818;stroke-width:1.0;"/><polygon fill="#000000" points="156.8223,602.2712,153.4996,611.1824,159.3721,611.4336,156.8223,602.2712" style="stroke:#000000;stroke-width:1.0;"/><text fill="#000000" font-family="sans-serif" font-size="13" lengthAdjust="spacing" textLength="48" x="165.6087" y="612.6494">includes</text><text fill="#000000" font-family="sans-serif" font-size="13" lengthAdjust="spacing" textLength="7" x="257.118" y="405.5491">1</text><text fill="#000000" font-family="sans-serif" font-size="13" lengthAdjust="spacing" textLength="5" x="241.6616" y="808.9351">*</text></g><!--link Task to apoint29--><g id="link_Task_apoint29"><path d="M312.6087,426.7211 C312.6087,455.3111 312.6087,497.7011 312.6087,505.4011 " fill="none" id="Task-apoint29" style="stroke:#181818;stroke-width:1.0;"/><polygon fill="#000000" points="317.6087,461.2666,314.6697,470.3117,320.5476,470.3117,317.6087,461.2666" style="stroke:#000000;stroke-width:1.0;"/><text fill="#000000" font-family="sans-serif" font-size="13" lengthAdjust="spacing" textLength="48" x="326.6087" y="471.6494">includes</text><text fill="#000000" font-family="sans-serif" font-size="13" lengthAdjust="spacing" textLength="5" x="307.0306" y="449.1032">*</text></g><!--link apoint29 to ToDoList--><g id="link_apoint29_ToDoList"><path d="M312.2587,509.7111 C309.8387,517.3311 295.3687,562.8411 287.2087,588.5211 " fill="none" id="apoint29-ToDoList" style="stroke:#181818;stroke-width:1.0;"/><text fill="#000000" font-family="sans-serif" font-size="13" lengthAdjust="spacing" textLength="7" x="280.8518" y="577.3526">1</text></g><!--link apoint29 to TaskToDoList--><g id="link_apoint29_TaskToDoList"><path d="M313.2287,509.7611 C315.3587,513.7411 322.4187,527.4211 325.6087,539.6211 C346.4187,619.1611 360.3487,642.9311 344.6087,723.6211 C340.5787,744.2811 332.5087,766.0111 324.4487,784.3711 " fill="none" id="apoint29-TaskToDoList" style="stroke:#181818;stroke-width:1.0;stroke-dasharray:7.0,7.0;"/></g><!--link TaskToDoList to GreenSpace--><g id="link_TaskToDoList_GreenSpace"><path codeLine="88" d="M301.6087,876.8111 C301.6087,918.2711 301.6087,978.8911 301.6087,1017.2911 " fill="none" id="TaskToDoList-GreenSpace" style="stroke:#181818;stroke-width:1.0;"/><polygon fill="#000000" points="306.6087,952.2666,309.5476,943.2215,303.6697,943.2215,306.6087,952.2666" style="stroke:#000000;stroke-width:1.0;"/><text fill="#000000" font-family="sans-serif" font-size="13" lengthAdjust="spacing" textLength="77" x="315.6087" y="952.6494">Carried out in</text><text fill="#000000" font-family="sans-serif" font-size="13" lengthAdjust="spacing" textLength="20" x="280.0774" y="899.199">1..*</text><text fill="#000000" font-family="sans-serif" font-size="13" lengthAdjust="spacing" textLength="7" x="294.0071" y="1006.4791">1</text></g><!--link ToDoList to TaskToDoList--><g id="link_ToDoList_TaskToDoList"><path codeLine="90" d="M280.6487,625.9011 C279.6587,645.2611 278.1787,677.1311 277.6087,704.6211 C277.4387,713.0611 276.6687,715.2311 277.6087,723.6211 C279.8687,743.8711 284.4987,765.9011 289.0887,784.6111 " fill="none" id="ToDoList-TaskToDoList" style="stroke:#181818;stroke-width:1.0;"/><polygon fill="#000000" points="282.8742,719.2595,285.3286,710.0712,279.4591,710.3833,282.8742,719.2595" style="stroke:#000000;stroke-width:1.0;"/><text fill="#000000" font-family="sans-serif" font-size="13" lengthAdjust="spacing" textLength="48" x="291.6087" y="719.6494">includes</text><text fill="#000000" font-family="sans-serif" font-size="13" lengthAdjust="spacing" textLength="7" x="272.4501" y="647.3509">1</text><text fill="#000000" font-family="sans-serif" font-size="13" lengthAdjust="spacing" textLength="20" x="265.6403" y="773.2778">1..*</text></g><!--SRC=[TLFBRjim4BphAnO-jKNjrZqQGO3K1ee2SHh0wGUioOr5M285SjNKQVllNL6MH5cE3pB9cNtDaE5eR8KUIoYTTIhthYHWNrCMUgH2TSG3xVXK47XIZFPGf8IGetOlnXxW6OkG8gh04EwOlTdNJD-LiplpIl0vouqcKCOhIHJN9N7kTCWoDYnbDgv4Os7hD1KmXv-xBqkuqneilG1PzYTW1vmJFBdvnitlJU0iYzLWxOe2zyuZEmz_Cf2VnPBYGYFJZ-UlndCUzwXB4u9nTYD0FAboP-cXBlVauvxnTuMdyuQagIBxrrNQE5MNqisvI1iqGPzE5RKCbjM0opYUvB_50diYRfjqpZzS97jqWTSYHakkphkapy8fBCmhiWmpX7sJf7Od1j8MhNZO2DA3JsxZ6k56PnYEvuuq1ULDDKxOu5rSrpXo7UAozWUowjH6r_xDNYvTGK-OyD1hicbJMzAcBX_H7zFJUvHom-78zjbo9hUc-NOkm0fo371xoLiiFWYrvNQEhA0mlsX2Xfk_GfngccLJcTF4SHM5NO6IKJccVZic3UazMe6nWJo7v0bSJn8pI7YYzqgUxK6oaFzKHbxJG1BSJjOAFpaUr9z0lGKfCcW_w6b2lA1CMiPeQdVGs83kblTcPRrzYJYpqTCQk57YsP1jf9qgQhdGS7DcBLlMDPLxvhi6-jXXxs6n697RWdreFqbRVAG-hD5x8yExcXi1OhT3O1TrtVLpFxVPVm00]--></g></svg>