<?xml version="1.0" encoding="us-ascii" standalone="no"?><svg xmlns="http://www.w3.org/2000/svg" xmlns:xlink="http://www.w3.org/1999/xlink" contentStyleType="text/css" height="605px" preserveAspectRatio="none" style="width:596px;height:605px;background:#FFFFFF;" version="1.1" viewBox="0 0 596 605" width="596px" zoomAndPan="magnify"><defs/><g><text fill="#000000" font-family="sans-serif" font-size="14" font-weight="bold" lengthAdjust="spacing" textLength="300" x="141" y="25.1074">Domain Model - US27 List all Green Spaces</text><!--class Collaborator--><g id="elem_Collaborator"><rect codeLine="10" fill="#F1F1F1" height="148.3477" id="Collaborator" rx="2.5" ry="2.5" style="stroke:#181818;stroke-width:0.5;" width="105" x="354.5" y="46.6211"/><text fill="#000000" font-family="sans-serif" font-size="14" lengthAdjust="spacing" textLength="78" x="368" y="66.7285">Collaborator</text><line style="stroke:#181818;stroke-width:0.5;" x1="355.5" x2="458.5" y1="75.2422" y2="75.2422"/><text fill="#000000" font-family="sans-serif" font-size="14" lengthAdjust="spacing" textLength="35" x="360.5" y="94.3496">name</text><text fill="#000000" font-family="sans-serif" font-size="14" lengthAdjust="spacing" textLength="72" x="360.5" y="112.9707">dateOfBirth</text><text fill="#000000" font-family="sans-serif" font-size="14" lengthAdjust="spacing" textLength="93" x="360.5" y="131.5918">admissionDate</text><text fill="#000000" font-family="sans-serif" font-size="14" lengthAdjust="spacing" textLength="89" x="360.5" y="150.2129">phoneNumber</text><text fill="#000000" font-family="sans-serif" font-size="14" lengthAdjust="spacing" textLength="54" x="360.5" y="168.834">taxpayer</text><text fill="#000000" font-family="sans-serif" font-size="14" lengthAdjust="spacing" textLength="33" x="360.5" y="187.4551">email</text></g><!--class Address--><g id="elem_Address"><rect codeLine="19" fill="#F1F1F1" height="73.8633" id="Address" rx="2.5" ry="2.5" style="stroke:#181818;stroke-width:0.5;" width="90" x="446" y="371.6211"/><text fill="#000000" font-family="sans-serif" font-size="14" lengthAdjust="spacing" textLength="52" x="465" y="391.7285">Address</text><line style="stroke:#181818;stroke-width:0.5;" x1="447" x2="535" y1="400.2422" y2="400.2422"/><text fill="#000000" font-family="sans-serif" font-size="14" lengthAdjust="spacing" textLength="36" x="452" y="419.3496">street</text><text fill="#000000" font-family="sans-serif" font-size="14" lengthAdjust="spacing" textLength="78" x="452" y="437.9707">doorNumber</text></g><!--class PostCode--><g id="elem_PostCode"><rect codeLine="24" fill="#F1F1F1" height="73.8633" id="PostCode" rx="2.5" ry="2.5" style="stroke:#181818;stroke-width:0.5;" width="122" x="467" y="524.6211"/><text fill="#000000" font-family="sans-serif" font-size="14" lengthAdjust="spacing" textLength="62" x="497" y="544.7285">PostCode</text><line style="stroke:#181818;stroke-width:0.5;" x1="468" x2="588" y1="553.2422" y2="553.2422"/><text fill="#000000" font-family="sans-serif" font-size="14" lengthAdjust="spacing" textLength="110" x="473" y="572.3496">postCodeNumber</text><text fill="#000000" font-family="sans-serif" font-size="14" lengthAdjust="spacing" textLength="69" x="473" y="590.9707">localization</text></g><!--class GreenSpaceManager--><g id="elem_GreenSpaceManager"><rect codeLine="29" fill="#F1F1F1" height="36.6211" id="GreenSpaceManager" rx="2.5" ry="2.5" style="stroke:#181818;stroke-width:0.5;" width="142" x="262" y="255.6211"/><text fill="#000000" font-family="sans-serif" font-size="14" lengthAdjust="spacing" textLength="136" x="265" y="275.7285">GreenSpaceManager</text><line style="stroke:#181818;stroke-width:0.5;" x1="263" x2="403" y1="284.2422" y2="284.2422"/></g><!--class GreenSpace--><g id="elem_GreenSpace"><rect codeLine="32" fill="#F1F1F1" height="73.8633" id="GreenSpace" rx="2.5" ry="2.5" style="stroke:#181818;stroke-width:0.5;" width="86" x="240" y="371.6211"/><text fill="#000000" font-family="sans-serif" font-size="14" lengthAdjust="spacing" textLength="80" x="243" y="391.7285">GreenSpace</text><line style="stroke:#181818;stroke-width:0.5;" x1="241" x2="325" y1="400.2422" y2="400.2422"/><text fill="#000000" font-family="sans-serif" font-size="14" lengthAdjust="spacing" textLength="35" x="246" y="419.3496">name</text><text fill="#000000" font-family="sans-serif" font-size="14" lengthAdjust="spacing" textLength="29" x="246" y="437.9707">area</text></g><!--class SortingAlgorithm--><g id="elem_SortingAlgorithm"><rect codeLine="37" fill="#F1F1F1" height="36.6211" id="SortingAlgorithm" rx="2.5" ry="2.5" style="stroke:#181818;stroke-width:0.5;" width="110" x="7" y="543.1211"/><text fill="#000000" font-family="sans-serif" font-size="14" lengthAdjust="spacing" textLength="104" x="10" y="563.2285">SortingAlgorithm</text><line style="stroke:#181818;stroke-width:0.5;" x1="8" x2="116" y1="571.7422" y2="571.7422"/></g><!--class Garden--><g id="elem_Garden"><rect codeLine="40" fill="#F1F1F1" height="36.6211" id="Garden" rx="2.5" ry="2.5" style="stroke:#181818;stroke-width:0.5;" width="54" x="152" y="543.1211"/><text fill="#000000" font-family="sans-serif" font-size="14" lengthAdjust="spacing" textLength="48" x="155" y="563.2285">Garden</text><line style="stroke:#181818;stroke-width:0.5;" x1="153" x2="205" y1="571.7422" y2="571.7422"/></g><!--class MediumPark--><g id="elem_MediumPark"><rect codeLine="43" fill="#F1F1F1" height="36.6211" id="MediumPark" rx="2.5" ry="2.5" style="stroke:#181818;stroke-width:0.5;" width="84" x="241" y="543.1211"/><text fill="#000000" font-family="sans-serif" font-size="14" lengthAdjust="spacing" textLength="78" x="244" y="563.2285">MediumPark</text><line style="stroke:#181818;stroke-width:0.5;" x1="242" x2="324" y1="571.7422" y2="571.7422"/></g><!--class LargePark--><g id="elem_LargePark"><rect codeLine="46" fill="#F1F1F1" height="36.6211" id="LargePark" rx="2.5" ry="2.5" style="stroke:#181818;stroke-width:0.5;" width="72" x="360" y="543.1211"/><text fill="#000000" font-family="sans-serif" font-size="14" lengthAdjust="spacing" textLength="66" x="363" y="563.2285">LargePark</text><line style="stroke:#181818;stroke-width:0.5;" x1="361" x2="431" y1="571.7422" y2="571.7422"/></g><!--link Collaborator to Address--><g id="link_Collaborator_Address"><path codeLine="49" d="M428.52,194.9011 C445.15,251.5011 467.44,327.4011 480.41,371.5611 " fill="none" id="Collaborator-Address" style="stroke:#181818;stroke-width:1.0;"/><polygon fill="#000000" points="464.4091,279.0639,464.6798,269.5572,459.0402,271.2137,464.4091,279.0639" style="stroke:#000000;stroke-width:1.0;"/><text fill="#000000" font-family="sans-serif" font-size="13" lengthAdjust="spacing" textLength="25" x="472" y="279.6494">lives</text><text fill="#000000" font-family="sans-serif" font-size="13" lengthAdjust="spacing" textLength="20" x="409.654" y="217.0753">1..*</text><text fill="#000000" font-family="sans-serif" font-size="13" lengthAdjust="spacing" textLength="7" x="470.8122" y="360.2287">1</text></g><!--reverse link Collaborator to GreenSpaceManager--><g id="link_Collaborator_GreenSpaceManager"><path codeLine="50" d="M363.3987,210.8842 C352.3087,233.5842 348.97,240.4311 341.56,255.6011 " fill="none" id="Collaborator-backto-GreenSpaceManager" style="stroke:#181818;stroke-width:1.0;"/><polygon fill="none" points="371.3,194.7111,358.0077,208.2504,368.7897,213.518,371.3,194.7111" style="stroke:#181818;stroke-width:1.0;"/></g><!--link Address to PostCode--><g id="link_Address_PostCode"><path codeLine="52" d="M499.86,445.7911 C505.7,469.6111 511.8813,494.8437 517.7213,518.6637 " fill="none" id="Address-to-PostCode" style="stroke:#181818;stroke-width:1.0;"/><polygon fill="#181818" points="519.15,524.4911,520.8919,514.7975,517.9594,519.6349,513.122,516.7025,519.15,524.4911" style="stroke:#181818;stroke-width:1.0;"/><text fill="#000000" font-family="sans-serif" font-size="13" lengthAdjust="spacing" textLength="21" x="512" y="490.6494">has</text><text fill="#000000" font-family="sans-serif" font-size="13" lengthAdjust="spacing" textLength="20" x="479.6712" y="467.4189">1..*</text><text fill="#000000" font-family="sans-serif" font-size="13" lengthAdjust="spacing" textLength="7" x="509.9502" y="513.4297">1</text></g><!--link GreenSpaceManager to GreenSpace--><g id="link_GreenSpaceManager_GreenSpace"><path codeLine="54" d="M326.36,292.7111 C318.82,312.7111 306.3,345.8711 296.65,371.4511 " fill="none" id="GreenSpaceManager-GreenSpace" style="stroke:#181818;stroke-width:1.0;"/><polygon fill="#000000" points="317.2349,336.9447,323.1777,329.5195,317.6783,327.4445,317.2349,336.9447" style="stroke:#000000;stroke-width:1.0;"/><text fill="#000000" font-family="sans-serif" font-size="13" lengthAdjust="spacing" textLength="53" x="328" y="337.6494">manages</text><text fill="#000000" font-family="sans-serif" font-size="13" lengthAdjust="spacing" textLength="7" x="316.6349" y="314.1099">1</text><text fill="#000000" font-family="sans-serif" font-size="13" lengthAdjust="spacing" textLength="20" x="277.3002" y="360.3825">1..*</text></g><!--link GreenSpace to Address--><g id="link_GreenSpace_Address"><path codeLine="56" d="M326.1,408.6211 C361.08,408.6211 410.26,408.6211 445.8,408.6211 " fill="none" id="GreenSpace-Address" style="stroke:#181818;stroke-width:1.0;"/><polygon fill="#000000" points="353.5,396.2666,344.4549,393.3277,344.4549,399.2055,353.5,396.2666" style="stroke:#000000;stroke-width:1.0;"/><text fill="#000000" font-family="sans-serif" font-size="13" lengthAdjust="spacing" textLength="70" x="357.5" y="401.6494">is located in</text><text fill="#000000" font-family="sans-serif" font-size="13" lengthAdjust="spacing" textLength="7" x="334.1094" y="404.2252">1</text><text fill="#000000" font-family="sans-serif" font-size="13" lengthAdjust="spacing" textLength="7" x="431.0384" y="404.3288">1</text></g><!--link GreenSpace to SortingAlgorithm--><g id="link_GreenSpace_SortingAlgorithm"><path codeLine="57" d="M239.84,420.5411 C205.82,430.7111 158.52,448.4411 124,475.6211 C100.32,494.2711 81.41,524.1911 70.96,543.1011 " fill="none" id="GreenSpace-SortingAlgorithm" style="stroke:#181818;stroke-width:1.0;"/><polygon fill="#000000" points="124.9533,488.2034,134,485.2693,130.5476,480.5121,124.9533,488.2034" style="stroke:#000000;stroke-width:1.0;"/><text fill="#000000" font-family="sans-serif" font-size="13" lengthAdjust="spacing" textLength="78" x="138" y="490.6494">makes use of</text><text fill="#000000" font-family="sans-serif" font-size="13" lengthAdjust="spacing" textLength="5" x="226.9922" y="418.194">*</text><text fill="#000000" font-family="sans-serif" font-size="13" lengthAdjust="spacing" textLength="7" x="65.6321" y="531.9571">1</text></g><!--reverse link GreenSpace to Garden--><g id="link_GreenSpace_Garden"><path codeLine="58" d="M247.8804,460.6155 C226.7304,491.3255 207.49,519.2611 191.15,542.9811 " fill="none" id="GreenSpace-backto-Garden" style="stroke:#181818;stroke-width:1.0;"/><polygon fill="none" points="258.09,445.7911,242.9389,457.2123,252.8219,464.0187,258.09,445.7911" style="stroke:#181818;stroke-width:1.0;"/></g><!--reverse link GreenSpace to MediumPark--><g id="link_GreenSpace_MediumPark"><path codeLine="59" d="M283,463.7911 C283,494.5011 283,519.2611 283,542.9811 " fill="none" id="GreenSpace-backto-MediumPark" style="stroke:#181818;stroke-width:1.0;"/><polygon fill="none" points="283,445.7911,277,463.7911,289,463.7911,283,445.7911" style="stroke:#181818;stroke-width:1.0;"/></g><!--reverse link GreenSpace to LargePark--><g id="link_GreenSpace_LargePark"><path codeLine="60" d="M320.8542,460.2029 C343.8342,490.9129 365.05,519.2611 382.8,542.9811 " fill="none" id="GreenSpace-backto-LargePark" style="stroke:#181818;stroke-width:1.0;"/><polygon fill="none" points="310.07,445.7911,316.0503,463.7977,325.6582,456.6082,310.07,445.7911" style="stroke:#181818;stroke-width:1.0;"/></g><!--SRC=[RL9TYnin37pVNo7oMCZHzgLmb41w1wLmQGz2Vu2oLdPDR6kHjMtlslxtAavkFswRbxMb6Orcd7pogKF1294Jrwrm953fgSf3fyFwX0tjzIaG2DMAgGbJG6xHyK-V6ZXYoDDE7J3dhQhuGw_qfUQqzyy4RwlMEuBQIss3oZcIjknoLQbNaxddY3x1ZXq5MCFt_ViFyE2p0eO0duKemTxs8YCK3RZZ4F30Wie2lokmNy98vU1GwTlnanTjonrTz3bxJlVMA9MkvKHV-tWWANV5Nnq-NIzaguJgxulIrZaX-rv4ijeoUf5XbkkC0Vp8MU_Cn1NTNQyJgS0r1l-CQlkCl6AnEDnXil3FdlxJV6KKXN24xLdK7cKR6XQlRPoDG76MuQIo8-Vx-8XocbOVK1eQYxEKL-zkRjwiOBssqsg8vHQ2_q4PDdCmVFnZmAMlgdeX3kCsPTwGt2sqQC-yJEICAkA5D_QD4GlalCI4To6yMjRdyW9A3kp_jfd1HtEBACyI9nFeCm4VvxpYz1BmeZocl6WDKLV_0000]--></g></svg>