<?xml version="1.0" encoding="us-ascii" standalone="no"?><svg xmlns="http://www.w3.org/2000/svg" xmlns:xlink="http://www.w3.org/1999/xlink" contentStyleType="text/css" height="605px" preserveAspectRatio="none" style="width:784px;height:605px;background:#FFFFFF;" version="1.1" viewBox="0 0 784 605" width="784px" zoomAndPan="magnify"><defs/><g><text fill="#000000" font-family="sans-serif" font-size="14" font-weight="bold" lengthAdjust="spacing" textLength="300" x="235" y="25.1074">Domain Model - US27 List all Green Spaces</text><!--class Collaborator--><g id="elem_Collaborator"><rect codeLine="10" fill="#F1F1F1" height="148.3477" id="Collaborator" rx="2.5" ry="2.5" style="stroke:#181818;stroke-width:0.5;" width="105" x="358.5" y="46.6211"/><text fill="#000000" font-family="sans-serif" font-size="14" lengthAdjust="spacing" textLength="78" x="372" y="66.7285">Collaborator</text><line style="stroke:#181818;stroke-width:0.5;" x1="359.5" x2="462.5" y1="75.2422" y2="75.2422"/><text fill="#000000" font-family="sans-serif" font-size="14" lengthAdjust="spacing" textLength="35" x="364.5" y="94.3496">name</text><text fill="#000000" font-family="sans-serif" font-size="14" lengthAdjust="spacing" textLength="72" x="364.5" y="112.9707">dateOfBirth</text><text fill="#000000" font-family="sans-serif" font-size="14" lengthAdjust="spacing" textLength="93" x="364.5" y="131.5918">admissionDate</text><text fill="#000000" font-family="sans-serif" font-size="14" lengthAdjust="spacing" textLength="89" x="364.5" y="150.2129">phoneNumber</text><text fill="#000000" font-family="sans-serif" font-size="14" lengthAdjust="spacing" textLength="54" x="364.5" y="168.834">taxpayer</text><text fill="#000000" font-family="sans-serif" font-size="14" lengthAdjust="spacing" textLength="33" x="364.5" y="187.4551">email</text></g><!--class Document--><g id="elem_Document"><rect codeLine="19" fill="#F1F1F1" height="55.2422" id="Document" rx="2.5" ry="2.5" style="stroke:#181818;stroke-width:0.5;" width="70" x="534" y="93.1211"/><text fill="#000000" font-family="sans-serif" font-size="14" lengthAdjust="spacing" textLength="64" x="537" y="113.2285">Document</text><line style="stroke:#181818;stroke-width:0.5;" x1="535" x2="603" y1="121.7422" y2="121.7422"/><text fill="#000000" font-family="sans-serif" font-size="14" lengthAdjust="spacing" textLength="48" x="540" y="140.8496">number</text></g><!--class DocumentType--><g id="elem_DocumentType"><rect codeLine="23" fill="#F1F1F1" height="55.2422" id="DocumentType" rx="2.5" ry="2.5" style="stroke:#181818;stroke-width:0.5;" width="102" x="675" y="93.1211"/><text fill="#000000" font-family="sans-serif" font-size="14" lengthAdjust="spacing" textLength="96" x="678" y="113.2285">DocumentType</text><line style="stroke:#181818;stroke-width:0.5;" x1="676" x2="776" y1="121.7422" y2="121.7422"/><text fill="#000000" font-family="sans-serif" font-size="14" lengthAdjust="spacing" textLength="27" x="681" y="140.8496">type</text></g><!--class Address--><g id="elem_Address"><rect codeLine="27" fill="#F1F1F1" height="73.8633" id="Address" rx="2.5" ry="2.5" style="stroke:#181818;stroke-width:0.5;" width="90" x="446" y="371.6211"/><text fill="#000000" font-family="sans-serif" font-size="14" lengthAdjust="spacing" textLength="52" x="465" y="391.7285">Address</text><line style="stroke:#181818;stroke-width:0.5;" x1="447" x2="535" y1="400.2422" y2="400.2422"/><text fill="#000000" font-family="sans-serif" font-size="14" lengthAdjust="spacing" textLength="36" x="452" y="419.3496">street</text><text fill="#000000" font-family="sans-serif" font-size="14" lengthAdjust="spacing" textLength="78" x="452" y="437.9707">doorNumber</text></g><!--class PostCode--><g id="elem_PostCode"><rect codeLine="32" fill="#F1F1F1" height="73.8633" id="PostCode" rx="2.5" ry="2.5" style="stroke:#181818;stroke-width:0.5;" width="122" x="467" y="524.6211"/><text fill="#000000" font-family="sans-serif" font-size="14" lengthAdjust="spacing" textLength="62" x="497" y="544.7285">PostCode</text><line style="stroke:#181818;stroke-width:0.5;" x1="468" x2="588" y1="553.2422" y2="553.2422"/><text fill="#000000" font-family="sans-serif" font-size="14" lengthAdjust="spacing" textLength="110" x="473" y="572.3496">postCodeNumber</text><text fill="#000000" font-family="sans-serif" font-size="14" lengthAdjust="spacing" textLength="69" x="473" y="590.9707">localization</text></g><!--class GreenSpaceManager--><g id="elem_GreenSpaceManager"><rect codeLine="37" fill="#F1F1F1" height="36.6211" id="GreenSpaceManager" rx="2.5" ry="2.5" style="stroke:#181818;stroke-width:0.5;" width="142" x="262" y="255.6211"/><text fill="#000000" font-family="sans-serif" font-size="14" lengthAdjust="spacing" textLength="136" x="265" y="275.7285">GreenSpaceManager</text><line style="stroke:#181818;stroke-width:0.5;" x1="263" x2="403" y1="284.2422" y2="284.2422"/></g><!--class GreenSpace--><g id="elem_GreenSpace"><rect codeLine="40" fill="#F1F1F1" height="73.8633" id="GreenSpace" rx="2.5" ry="2.5" style="stroke:#181818;stroke-width:0.5;" width="86" x="240" y="371.6211"/><text fill="#000000" font-family="sans-serif" font-size="14" lengthAdjust="spacing" textLength="80" x="243" y="391.7285">GreenSpace</text><line style="stroke:#181818;stroke-width:0.5;" x1="241" x2="325" y1="400.2422" y2="400.2422"/><text fill="#000000" font-family="sans-serif" font-size="14" lengthAdjust="spacing" textLength="35" x="246" y="419.3496">name</text><text fill="#000000" font-family="sans-serif" font-size="14" lengthAdjust="spacing" textLength="29" x="246" y="437.9707">area</text></g><!--class SortingAlgorithm--><g id="elem_SortingAlgorithm"><rect codeLine="45" fill="#F1F1F1" height="36.6211" id="SortingAlgorithm" rx="2.5" ry="2.5" style="stroke:#181818;stroke-width:0.5;" width="110" x="7" y="543.1211"/><text fill="#000000" font-family="sans-serif" font-size="14" lengthAdjust="spacing" textLength="104" x="10" y="563.2285">SortingAlgorithm</text><line style="stroke:#181818;stroke-width:0.5;" x1="8" x2="116" y1="571.7422" y2="571.7422"/></g><!--class Garden--><g id="elem_Garden"><rect codeLine="48" fill="#F1F1F1" height="36.6211" id="Garden" rx="2.5" ry="2.5" style="stroke:#181818;stroke-width:0.5;" width="54" x="152" y="543.1211"/><text fill="#000000" font-family="sans-serif" font-size="14" lengthAdjust="spacing" textLength="48" x="155" y="563.2285">Garden</text><line style="stroke:#181818;stroke-width:0.5;" x1="153" x2="205" y1="571.7422" y2="571.7422"/></g><!--class MediumPark--><g id="elem_MediumPark"><rect codeLine="51" fill="#F1F1F1" height="36.6211" id="MediumPark" rx="2.5" ry="2.5" style="stroke:#181818;stroke-width:0.5;" width="84" x="241" y="543.1211"/><text fill="#000000" font-family="sans-serif" font-size="14" lengthAdjust="spacing" textLength="78" x="244" y="563.2285">MediumPark</text><line style="stroke:#181818;stroke-width:0.5;" x1="242" x2="324" y1="571.7422" y2="571.7422"/></g><!--class LargePark--><g id="elem_LargePark"><rect codeLine="54" fill="#F1F1F1" height="36.6211" id="LargePark" rx="2.5" ry="2.5" style="stroke:#181818;stroke-width:0.5;" width="72" x="360" y="543.1211"/><text fill="#000000" font-family="sans-serif" font-size="14" lengthAdjust="spacing" textLength="66" x="363" y="563.2285">LargePark</text><line style="stroke:#181818;stroke-width:0.5;" x1="361" x2="431" y1="571.7422" y2="571.7422"/></g><!--link Collaborator to Address--><g id="link_Collaborator_Address"><path codeLine="57" d="M431.5,194.9011 C447.33,251.5011 468.56,327.4011 480.91,371.5611 " fill="none" id="Collaborator-Address" style="stroke:#181818;stroke-width:1.0;"/><polygon fill="#000000" points="465.3468,279.0818,465.7408,269.5794,460.0801,271.1626,465.3468,279.0818" style="stroke:#000000;stroke-width:1.0;"/><text fill="#000000" font-family="sans-serif" font-size="13" lengthAdjust="spacing" textLength="25" x="473" y="279.6494">lives</text><text fill="#000000" font-family="sans-serif" font-size="13" lengthAdjust="spacing" textLength="20" x="412.5336" y="217.0753">1..*</text><text fill="#000000" font-family="sans-serif" font-size="13" lengthAdjust="spacing" textLength="7" x="471.4043" y="360.2287">1</text></g><!--reverse link Collaborator to GreenSpaceManager--><g id="link_Collaborator_GreenSpaceManager"><path codeLine="58" d="M365.129,210.7138 C353.439,233.4138 349.83,240.4311 342.02,255.6011 " fill="none" id="Collaborator-backto-GreenSpaceManager" style="stroke:#181818;stroke-width:1.0;"/><polygon fill="none" points="373.37,194.7111,359.7948,207.9668,370.4632,213.4608,373.37,194.7111" style="stroke:#181818;stroke-width:1.0;"/></g><!--link Collaborator to Document--><g id="link_Collaborator_Document"><path codeLine="59" d="M463.61,120.6211 C486.59,120.6211 512.94,120.6211 533.54,120.6211 " fill="none" id="Collaborator-Document" style="stroke:#181818;stroke-width:1.0;"/><polygon fill="#000000" points="490.75,108.2666,481.7049,105.3277,481.7049,111.2055,490.75,108.2666" style="stroke:#000000;stroke-width:1.0;"/><text fill="#000000" font-family="sans-serif" font-size="13" lengthAdjust="spacing" textLength="21" x="494.75" y="113.6494">has</text><text fill="#000000" font-family="sans-serif" font-size="13" lengthAdjust="spacing" textLength="7" x="471.5005" y="116.4501">1</text><text fill="#000000" font-family="sans-serif" font-size="13" lengthAdjust="spacing" textLength="7" x="519.1133" y="116.0338">1</text></g><!--link Address to PostCode--><g id="link_Address_PostCode"><path codeLine="61" d="M499.86,445.7911 C505.7,469.6111 511.8813,494.8437 517.7213,518.6637 " fill="none" id="Address-to-PostCode" style="stroke:#181818;stroke-width:1.0;"/><polygon fill="#181818" points="519.15,524.4911,520.8919,514.7975,517.9594,519.6349,513.122,516.7025,519.15,524.4911" style="stroke:#181818;stroke-width:1.0;"/><text fill="#000000" font-family="sans-serif" font-size="13" lengthAdjust="spacing" textLength="21" x="513" y="490.6494">has</text><text fill="#000000" font-family="sans-serif" font-size="13" lengthAdjust="spacing" textLength="20" x="479.6712" y="467.4189">1..*</text><text fill="#000000" font-family="sans-serif" font-size="13" lengthAdjust="spacing" textLength="7" x="509.9502" y="513.4297">1</text></g><!--link Document to DocumentType--><g id="link_Document_DocumentType"><path codeLine="63" d="M604.23,120.6211 C625.03,120.6211 651.71,120.6211 674.8,120.6211 " fill="none" id="Document-DocumentType" style="stroke:#181818;stroke-width:1.0;"/><polygon fill="#000000" points="631.5,108.2666,622.4549,105.3277,622.4549,111.2055,631.5,108.2666" style="stroke:#000000;stroke-width:1.0;"/><text fill="#000000" font-family="sans-serif" font-size="13" lengthAdjust="spacing" textLength="21" x="635.5" y="113.6494">has</text><text fill="#000000" font-family="sans-serif" font-size="13" lengthAdjust="spacing" textLength="20" x="612.0039" y="136.1145">1..*</text><text fill="#000000" font-family="sans-serif" font-size="13" lengthAdjust="spacing" textLength="7" x="660.1078" y="116.4575">1</text></g><!--link GreenSpaceManager to GreenSpace--><g id="link_GreenSpaceManager_GreenSpace"><path codeLine="65" d="M326.36,292.7111 C318.82,312.7111 306.3,345.8711 296.65,371.4511 " fill="none" id="GreenSpaceManager-GreenSpace" style="stroke:#181818;stroke-width:1.0;"/><polygon fill="#000000" points="317.2349,336.9447,323.1777,329.5195,317.6783,327.4445,317.2349,336.9447" style="stroke:#000000;stroke-width:1.0;"/><text fill="#000000" font-family="sans-serif" font-size="13" lengthAdjust="spacing" textLength="53" x="328" y="337.6494">manages</text><text fill="#000000" font-family="sans-serif" font-size="13" lengthAdjust="spacing" textLength="7" x="316.6349" y="314.1099">1</text><text fill="#000000" font-family="sans-serif" font-size="13" lengthAdjust="spacing" textLength="20" x="277.3002" y="360.3825">1..*</text></g><!--link GreenSpace to Address--><g id="link_GreenSpace_Address"><path codeLine="67" d="M326.1,408.6211 C361.08,408.6211 410.26,408.6211 445.8,408.6211 " fill="none" id="GreenSpace-Address" style="stroke:#181818;stroke-width:1.0;"/><polygon fill="#000000" points="353.5,396.2666,344.4549,393.3277,344.4549,399.2055,353.5,396.2666" style="stroke:#000000;stroke-width:1.0;"/><text fill="#000000" font-family="sans-serif" font-size="13" lengthAdjust="spacing" textLength="70" x="357.5" y="401.6494">is located in</text><text fill="#000000" font-family="sans-serif" font-size="13" lengthAdjust="spacing" textLength="7" x="334.1094" y="404.2252">1</text><text fill="#000000" font-family="sans-serif" font-size="13" lengthAdjust="spacing" textLength="7" x="431.0384" y="404.3288">1</text></g><!--link GreenSpace to SortingAlgorithm--><g id="link_GreenSpace_SortingAlgorithm"><path codeLine="68" d="M239.84,420.5411 C205.82,430.7111 158.52,448.4411 124,475.6211 C100.32,494.2711 81.41,524.1911 70.96,543.1011 " fill="none" id="GreenSpace-SortingAlgorithm" style="stroke:#181818;stroke-width:1.0;"/><polygon fill="#000000" points="124.9533,488.2034,134,485.2693,130.5476,480.5121,124.9533,488.2034" style="stroke:#000000;stroke-width:1.0;"/><text fill="#000000" font-family="sans-serif" font-size="13" lengthAdjust="spacing" textLength="78" x="138" y="490.6494">makes use of</text><text fill="#000000" font-family="sans-serif" font-size="13" lengthAdjust="spacing" textLength="5" x="226.9922" y="418.194">*</text><text fill="#000000" font-family="sans-serif" font-size="13" lengthAdjust="spacing" textLength="7" x="65.6321" y="531.9571">1</text></g><!--reverse link GreenSpace to Garden--><g id="link_GreenSpace_Garden"><path codeLine="69" d="M247.8804,460.6155 C226.7304,491.3255 207.49,519.2611 191.15,542.9811 " fill="none" id="GreenSpace-backto-Garden" style="stroke:#181818;stroke-width:1.0;"/><polygon fill="none" points="258.09,445.7911,242.9389,457.2123,252.8219,464.0187,258.09,445.7911" style="stroke:#181818;stroke-width:1.0;"/></g><!--reverse link GreenSpace to MediumPark--><g id="link_GreenSpace_MediumPark"><path codeLine="70" d="M283,463.7911 C283,494.5011 283,519.2611 283,542.9811 " fill="none" id="GreenSpace-backto-MediumPark" style="stroke:#181818;stroke-width:1.0;"/><polygon fill="none" points="283,445.7911,277,463.7911,289,463.7911,283,445.7911" style="stroke:#181818;stroke-width:1.0;"/></g><!--reverse link GreenSpace to LargePark--><g id="link_GreenSpace_LargePark"><path codeLine="71" d="M320.8542,460.2029 C343.8342,490.9129 365.05,519.2611 382.8,542.9811 " fill="none" id="GreenSpace-backto-LargePark" style="stroke:#181818;stroke-width:1.0;"/><polygon fill="none" points="310.07,445.7911,316.0503,463.7977,325.6582,456.6082,310.07,445.7911" style="stroke:#181818;stroke-width:1.0;"/></g><!--SRC=[RLDTYnin37pVNo7oMCZHtakXb41wWN9mkHwa_G7AMjariQt5rhRDjVtlLPpiL_RoaDYQqKYU8UbeGuCHFNWENDQHFO74behK8msMHwne9oT74AaK39KR4rADXd_PKC41NHeZfSEKrYBHxbkXnvB3phuIl2zgQmXA6qiLocTFKhD9HI5MTCo6FTe0MpRaO0a_TlSVuSac0NGElaQY03lTYxGXpu07TWxt754umfy2z1FGKpuO5Ffs-6AZrFcEnjkKB8UD0hdIr1pekVLxYlak-Bl1q_L2keeh_dMJDbosde9SXroQPkZtKqCNXkXfmDV6HDBV2vP4doAN9PdZyutO2oTvK0kkxEPw7Itgk4HdNr7qDKDVDYZxiyMWqPqTUGEyiGaZuK3RSHIDTEqgZbPgFv70Q3I1KMLBnhR-1UDnN7t2MD5Gd6Iq-71tzsu1owMU5hqjdy3PdvHWDIN3vxzAdB_hLbBrydUNWkhLU5OhkW7zs5KczWvdOb7qZHrl8dSETP2SkvmNM7Qz0wuzFbDk-aOR3mROb5CLCg3_WDM4FXWsY-SyugW3saJ0XsbVTkyIsgmy93U3-lYA_m00]--></g></svg>