<?xml version="1.0" encoding="us-ascii" standalone="no"?><svg xmlns="http://www.w3.org/2000/svg" xmlns:xlink="http://www.w3.org/1999/xlink" contentStyleType="text/css" height="568px" preserveAspectRatio="none" style="width:439px;height:568px;background:#FFFFFF;" version="1.1" viewBox="0 0 439 568" width="439px" zoomAndPan="magnify"><defs/><g><text fill="#000000" font-family="sans-serif" font-size="14" font-weight="bold" lengthAdjust="spacing" textLength="300" x="62.5" y="25.1074">Domain Model - US27 List all Green Spaces</text><!--class Collaborator--><g id="elem_Collaborator"><rect codeLine="10" fill="#F1F1F1" height="148.3477" id="Collaborator" rx="2.5" ry="2.5" style="stroke:#181818;stroke-width:0.5;" width="105" x="178.5" y="46.6211"/><text fill="#000000" font-family="sans-serif" font-size="14" lengthAdjust="spacing" textLength="78" x="192" y="66.7285">Collaborator</text><line style="stroke:#181818;stroke-width:0.5;" x1="179.5" x2="282.5" y1="75.2422" y2="75.2422"/><text fill="#000000" font-family="sans-serif" font-size="14" lengthAdjust="spacing" textLength="35" x="184.5" y="94.3496">name</text><text fill="#000000" font-family="sans-serif" font-size="14" lengthAdjust="spacing" textLength="72" x="184.5" y="112.9707">dateOfBirth</text><text fill="#000000" font-family="sans-serif" font-size="14" lengthAdjust="spacing" textLength="93" x="184.5" y="131.5918">admissionDate</text><text fill="#000000" font-family="sans-serif" font-size="14" lengthAdjust="spacing" textLength="89" x="184.5" y="150.2129">phoneNumber</text><text fill="#000000" font-family="sans-serif" font-size="14" lengthAdjust="spacing" textLength="54" x="184.5" y="168.834">taxpayer</text><text fill="#000000" font-family="sans-serif" font-size="14" lengthAdjust="spacing" textLength="33" x="184.5" y="187.4551">email</text></g><!--class GreenSpaceManager--><g id="elem_GreenSpaceManager"><rect codeLine="19" fill="#F1F1F1" height="36.6211" id="GreenSpaceManager" rx="2.5" ry="2.5" style="stroke:#181818;stroke-width:0.5;" width="142" x="160" y="255.6211"/><text fill="#000000" font-family="sans-serif" font-size="14" lengthAdjust="spacing" textLength="136" x="163" y="275.7285">GreenSpaceManager</text><line style="stroke:#181818;stroke-width:0.5;" x1="161" x2="301" y1="284.2422" y2="284.2422"/></g><!--class GreenSpace--><g id="elem_GreenSpace"><rect codeLine="22" fill="#F1F1F1" height="73.8633" id="GreenSpace" rx="2.5" ry="2.5" style="stroke:#181818;stroke-width:0.5;" width="86" x="188" y="371.6211"/><text fill="#000000" font-family="sans-serif" font-size="14" lengthAdjust="spacing" textLength="80" x="191" y="391.7285">GreenSpace</text><line style="stroke:#181818;stroke-width:0.5;" x1="189" x2="273" y1="400.2422" y2="400.2422"/><text fill="#000000" font-family="sans-serif" font-size="14" lengthAdjust="spacing" textLength="35" x="194" y="419.3496">name</text><text fill="#000000" font-family="sans-serif" font-size="14" lengthAdjust="spacing" textLength="29" x="194" y="437.9707">area</text></g><!--class SortingAlgorithm--><g id="elem_SortingAlgorithm"><rect codeLine="27" fill="#F1F1F1" height="36.6211" id="SortingAlgorithm" rx="2.5" ry="2.5" style="stroke:#181818;stroke-width:0.5;" width="110" x="7" y="524.6211"/><text fill="#000000" font-family="sans-serif" font-size="14" lengthAdjust="spacing" textLength="104" x="10" y="544.7285">SortingAlgorithm</text><line style="stroke:#181818;stroke-width:0.5;" x1="8" x2="116" y1="553.2422" y2="553.2422"/></g><!--class Garden--><g id="elem_Garden"><rect codeLine="30" fill="#F1F1F1" height="36.6211" id="Garden" rx="2.5" ry="2.5" style="stroke:#181818;stroke-width:0.5;" width="54" x="152" y="524.6211"/><text fill="#000000" font-family="sans-serif" font-size="14" lengthAdjust="spacing" textLength="48" x="155" y="544.7285">Garden</text><line style="stroke:#181818;stroke-width:0.5;" x1="153" x2="205" y1="553.2422" y2="553.2422"/></g><!--class MediumPark--><g id="elem_MediumPark"><rect codeLine="33" fill="#F1F1F1" height="36.6211" id="MediumPark" rx="2.5" ry="2.5" style="stroke:#181818;stroke-width:0.5;" width="84" x="241" y="524.6211"/><text fill="#000000" font-family="sans-serif" font-size="14" lengthAdjust="spacing" textLength="78" x="244" y="544.7285">MediumPark</text><line style="stroke:#181818;stroke-width:0.5;" x1="242" x2="324" y1="553.2422" y2="553.2422"/></g><!--class LargePark--><g id="elem_LargePark"><rect codeLine="36" fill="#F1F1F1" height="36.6211" id="LargePark" rx="2.5" ry="2.5" style="stroke:#181818;stroke-width:0.5;" width="72" x="360" y="524.6211"/><text fill="#000000" font-family="sans-serif" font-size="14" lengthAdjust="spacing" textLength="66" x="363" y="544.7285">LargePark</text><line style="stroke:#181818;stroke-width:0.5;" x1="361" x2="431" y1="553.2422" y2="553.2422"/></g><!--reverse link Collaborator to GreenSpaceManager--><g id="link_Collaborator_GreenSpaceManager"><path codeLine="39" d="M231,212.7111 C231,235.4111 231,240.4311 231,255.6011 " fill="none" id="Collaborator-backto-GreenSpaceManager" style="stroke:#181818;stroke-width:1.0;"/><polygon fill="none" points="231,194.7111,225,212.7111,237,212.7111,231,194.7111" style="stroke:#181818;stroke-width:1.0;"/></g><!--link GreenSpaceManager to GreenSpace--><g id="link_GreenSpaceManager_GreenSpace"><path codeLine="41" d="M231,292.7111 C231,312.7111 231,345.8711 231,371.4511 " fill="none" id="GreenSpaceManager-GreenSpace" style="stroke:#181818;stroke-width:1.0;"/><polygon fill="#000000" points="236,337.2666,238.9389,328.2215,233.0611,328.2215,236,337.2666" style="stroke:#000000;stroke-width:1.0;"/><text fill="#000000" font-family="sans-serif" font-size="13" lengthAdjust="spacing" textLength="53" x="245" y="337.6494">manages</text><text fill="#000000" font-family="sans-serif" font-size="13" lengthAdjust="spacing" textLength="7" x="223.0594" y="314.1099">1</text><text fill="#000000" font-family="sans-serif" font-size="13" lengthAdjust="spacing" textLength="20" x="209.2188" y="360.3825">1..*</text></g><!--link GreenSpace to SortingAlgorithm--><g id="link_GreenSpace_SortingAlgorithm"><path codeLine="43" d="M187.87,422.9611 C159.31,433.5511 122.55,450.7511 97,475.6211 C82.98,489.2711 73.37,509.7611 67.82,524.3811 " fill="none" id="GreenSpace-SortingAlgorithm" style="stroke:#181818;stroke-width:1.0;"/><polygon fill="#000000" points="98.1805,488.4933,106.9866,484.9011,103.1934,480.4111,98.1805,488.4933" style="stroke:#000000;stroke-width:1.0;"/><text fill="#000000" font-family="sans-serif" font-size="13" lengthAdjust="spacing" textLength="78" x="111" y="490.6494">makes use of</text><text fill="#000000" font-family="sans-serif" font-size="13" lengthAdjust="spacing" textLength="5" x="175.0273" y="421.0299">*</text><text fill="#000000" font-family="sans-serif" font-size="13" lengthAdjust="spacing" textLength="7" x="61.5015" y="513.5061">1</text></g><!--reverse link GreenSpace to Garden--><g id="link_GreenSpace_Garden"><path codeLine="44" d="M210.2158,462.5876 C200.1758,488.1776 193.73,504.6011 185.89,524.5811 " fill="none" id="GreenSpace-backto-Garden" style="stroke:#181818;stroke-width:1.0;"/><polygon fill="none" points="216.79,445.8311,204.6303,460.3961,215.8012,464.779,216.79,445.8311" style="stroke:#181818;stroke-width:1.0;"/></g><!--reverse link GreenSpace to MediumPark--><g id="link_GreenSpace_MediumPark"><path codeLine="45" d="M251.7842,462.5876 C261.8242,488.1776 268.27,504.6011 276.11,524.5811 " fill="none" id="GreenSpace-backto-MediumPark" style="stroke:#181818;stroke-width:1.0;"/><polygon fill="none" points="245.21,445.8311,246.1988,464.779,257.3697,460.3961,245.21,445.8311" style="stroke:#181818;stroke-width:1.0;"/></g><!--reverse link GreenSpace to LargePark--><g id="link_GreenSpace_LargePark"><path codeLine="46" d="M288.383,455.7039 C320.463,481.4739 348.8,504.2211 374.13,524.5611 " fill="none" id="GreenSpace-backto-LargePark" style="stroke:#181818;stroke-width:1.0;"/><polygon fill="none" points="274.35,444.4311,284.6254,460.3815,292.1406,451.0262,274.35,444.4311" style="stroke:#181818;stroke-width:1.0;"/></g><!--SRC=[RL1TImCn47pFhrZkiT1YVH54X6f1X5Q5mn-mlMplmYNPOvD3wyT_DusrFJtpb9tPsPdTq1hVeQ03nvwhHjWHHEb9XIFJOTLYJMNSMGAXAgAlxR0XDAZvnVWQjcZ3aAaiXh28KSocZtHViI_D6y6PQemcg8nKQL3-EueDww1KD37PBDcXyR1cJHQcy5oUNy3AX0XeBTm9aOSovQ8ao1vmozRYXWKZ2xmhIC-Ze_pH6EbnUsCaDhb6xKm8Xlqo4Hdf6lRqqBiDIQuZldQuEnIKebZr-UEKtRFv6dswozxk7_9F1XJ2Krl94jEz5hPcCR5nlqQWwBJU05cJDhrxGcc7w0gbfXFuwm1mzJ6TmZYgKkFqnRo0r5pCPxD9CP309RZS4k1wg8DYSX0KuptscZOf-a30soGSw7Acx-r6y6d54NNSKtq1]--></g></svg>