<?xml version="1.0" encoding="us-ascii" standalone="no"?><svg xmlns="http://www.w3.org/2000/svg" xmlns:xlink="http://www.w3.org/1999/xlink" contentStyleType="text/css" height="1392px" preserveAspectRatio="none" style="width:1211px;height:1392px;background:#FFFFFF;" version="1.1" viewBox="0 0 1211 1392" width="1211px" zoomAndPan="magnify"><defs/><g><!--class GenerateTeamController--><g id="elem_GenerateTeamController"><rect codeLine="11" fill="#F1F1F1" height="178.3477" id="GenerateTeamController" rx="2.5" ry="2.5" style="stroke:#181818;stroke-width:0.5;" width="451" x="182.5" y="7"/><ellipse cx="324.75" cy="23" fill="#ADD1B2" rx="11" ry="11" style="stroke:#181818;stroke-width:1.0;"/><path d="M327.5156,18.875 Q327.6719,18.6563 327.8594,18.5469 Q328.0469,18.4375 328.2656,18.4375 Q328.6406,18.4375 328.875,18.7031 Q329.1094,18.9531 329.1094,19.5625 L329.1094,21.0156 Q329.1094,21.625 328.875,21.8906 Q328.6406,22.1563 328.2656,22.1563 Q327.9219,22.1563 327.7188,21.9531 Q327.5156,21.7656 327.4063,21.25 Q327.3594,20.8906 327.1719,20.7031 Q326.8438,20.3281 326.2344,20.1094 Q325.625,19.8906 325,19.8906 Q324.2344,19.8906 323.5938,20.2188 Q322.9688,20.5469 322.4688,21.2969 Q321.9844,22.0469 321.9844,23.0781 L321.9844,24.1719 Q321.9844,25.4063 322.875,26.2344 Q323.7656,27.0469 325.3594,27.0469 Q326.2969,27.0469 326.9531,26.7969 Q327.3438,26.6406 327.7656,26.2031 Q328.0313,25.9375 328.1719,25.8594 Q328.3281,25.7813 328.5313,25.7813 Q328.8594,25.7813 329.1094,26.0469 Q329.375,26.2969 329.375,26.6406 Q329.375,26.9844 329.0313,27.3906 Q328.5313,27.9688 327.7344,28.2969 Q326.6563,28.75 325.3594,28.75 Q323.8438,28.75 322.6406,28.125 Q321.6563,27.625 320.9688,26.5625 Q320.2813,25.4844 320.2813,24.2031 L320.2813,23.0469 Q320.2813,21.7188 320.8906,20.5781 Q321.5156,19.4219 322.6094,18.8125 Q323.7031,18.1875 324.9375,18.1875 Q325.6719,18.1875 326.3125,18.3594 Q326.9688,18.5156 327.5156,18.875 Z " fill="#000000"/><text fill="#000000" font-family="sans-serif" font-size="14" lengthAdjust="spacing" textLength="158" x="345.25" y="28.7969">GenerateTeamController</text><line style="stroke:#181818;stroke-width:0.5;" x1="183.5" x2="632.5" y1="39" y2="39"/><line style="stroke:#181818;stroke-width:0.5;" x1="183.5" x2="632.5" y1="47" y2="47"/><text fill="#000000" font-family="sans-serif" font-size="14" lengthAdjust="spacing" textLength="176" x="188.5" y="66.1074">+GenerateTeamController()</text><text fill="#000000" font-family="sans-serif" font-size="14" lengthAdjust="spacing" textLength="222" x="188.5" y="84.7285">-getAllSkillsByName(skillListNames)</text><text fill="#000000" font-family="sans-serif" font-size="14" lengthAdjust="spacing" textLength="199" x="188.5" y="103.3496">-getCollaboratorBySkill(skillList)</text><text fill="#000000" font-family="sans-serif" font-size="14" lengthAdjust="spacing" textLength="439" x="188.5" y="121.9707">-generateProposalTeamList(minSize,maxSize,skillList,collaboratorList)</text><text fill="#000000" font-family="sans-serif" font-size="14" lengthAdjust="spacing" textLength="85" x="188.5" y="140.5918">+getSkillList()</text><text fill="#000000" font-family="sans-serif" font-size="14" lengthAdjust="spacing" textLength="326" x="188.5" y="159.2129">+generateProposalTeams(minSize,maxSize,skillList)</text><text fill="#000000" font-family="sans-serif" font-size="14" lengthAdjust="spacing" textLength="189" x="188.5" y="177.834">+registerProposalTeam(team)</text></g><!--class Team--><g id="elem_Team"><rect codeLine="21" fill="#F1F1F1" height="103.8633" id="Team" rx="2.5" ry="2.5" style="stroke:#181818;stroke-width:0.5;" width="237" x="385.5" y="1282"/><ellipse cx="481.75" cy="1298" fill="#ADD1B2" rx="11" ry="11" style="stroke:#181818;stroke-width:1.0;"/><path d="M484.5156,1293.875 Q484.6719,1293.6563 484.8594,1293.5469 Q485.0469,1293.4375 485.2656,1293.4375 Q485.6406,1293.4375 485.875,1293.7031 Q486.1094,1293.9531 486.1094,1294.5625 L486.1094,1296.0156 Q486.1094,1296.625 485.875,1296.8906 Q485.6406,1297.1563 485.2656,1297.1563 Q484.9219,1297.1563 484.7188,1296.9531 Q484.5156,1296.7656 484.4063,1296.25 Q484.3594,1295.8906 484.1719,1295.7031 Q483.8438,1295.3281 483.2344,1295.1094 Q482.625,1294.8906 482,1294.8906 Q481.2344,1294.8906 480.5938,1295.2188 Q479.9688,1295.5469 479.4688,1296.2969 Q478.9844,1297.0469 478.9844,1298.0781 L478.9844,1299.1719 Q478.9844,1300.4063 479.875,1301.2344 Q480.7656,1302.0469 482.3594,1302.0469 Q483.2969,1302.0469 483.9531,1301.7969 Q484.3438,1301.6406 484.7656,1301.2031 Q485.0313,1300.9375 485.1719,1300.8594 Q485.3281,1300.7813 485.5313,1300.7813 Q485.8594,1300.7813 486.1094,1301.0469 Q486.375,1301.2969 486.375,1301.6406 Q486.375,1301.9844 486.0313,1302.3906 Q485.5313,1302.9688 484.7344,1303.2969 Q483.6563,1303.75 482.3594,1303.75 Q480.8438,1303.75 479.6406,1303.125 Q478.6563,1302.625 477.9688,1301.5625 Q477.2813,1300.4844 477.2813,1299.2031 L477.2813,1298.0469 Q477.2813,1296.7188 477.8906,1295.5781 Q478.5156,1294.4219 479.6094,1293.8125 Q480.7031,1293.1875 481.9375,1293.1875 Q482.6719,1293.1875 483.3125,1293.3594 Q483.9688,1293.5156 484.5156,1293.875 Z " fill="#000000"/><text fill="#000000" font-family="sans-serif" font-size="14" lengthAdjust="spacing" textLength="36" x="502.25" y="1303.7969">Team</text><line style="stroke:#181818;stroke-width:0.5;" x1="386.5" x2="621.5" y1="1314" y2="1314"/><text fill="#000000" font-family="sans-serif" font-size="14" lengthAdjust="spacing" textLength="222" x="391.5" y="1333.1074">-List&lt;Collaborator&gt; collaboratorList</text><line style="stroke:#181818;stroke-width:0.5;" x1="386.5" x2="621.5" y1="1340.6211" y2="1340.6211"/><text fill="#000000" font-family="sans-serif" font-size="14" lengthAdjust="spacing" textLength="225" x="391.5" y="1359.7285">-collaboratorHasTeam(collaborator)</text><text fill="#000000" font-family="sans-serif" font-size="14" lengthAdjust="spacing" textLength="151" x="391.5" y="1378.3496">+Team(collaboratorList)</text></g><!--class GenerateTeamUI--><g id="elem_GenerateTeamUI"><rect codeLine="28" fill="#F1F1F1" height="48" id="GenerateTeamUI" rx="2.5" ry="2.5" style="stroke:#181818;stroke-width:0.5;" width="140" x="7" y="72"/><ellipse cx="22" cy="88" fill="#ADD1B2" rx="11" ry="11" style="stroke:#181818;stroke-width:1.0;"/><path d="M24.7656,83.875 Q24.9219,83.6563 25.1094,83.5469 Q25.2969,83.4375 25.5156,83.4375 Q25.8906,83.4375 26.125,83.7031 Q26.3594,83.9531 26.3594,84.5625 L26.3594,86.0156 Q26.3594,86.625 26.125,86.8906 Q25.8906,87.1563 25.5156,87.1563 Q25.1719,87.1563 24.9688,86.9531 Q24.7656,86.7656 24.6563,86.25 Q24.6094,85.8906 24.4219,85.7031 Q24.0938,85.3281 23.4844,85.1094 Q22.875,84.8906 22.25,84.8906 Q21.4844,84.8906 20.8438,85.2188 Q20.2188,85.5469 19.7188,86.2969 Q19.2344,87.0469 19.2344,88.0781 L19.2344,89.1719 Q19.2344,90.4063 20.125,91.2344 Q21.0156,92.0469 22.6094,92.0469 Q23.5469,92.0469 24.2031,91.7969 Q24.5938,91.6406 25.0156,91.2031 Q25.2813,90.9375 25.4219,90.8594 Q25.5781,90.7813 25.7813,90.7813 Q26.1094,90.7813 26.3594,91.0469 Q26.625,91.2969 26.625,91.6406 Q26.625,91.9844 26.2813,92.3906 Q25.7813,92.9688 24.9844,93.2969 Q23.9063,93.75 22.6094,93.75 Q21.0938,93.75 19.8906,93.125 Q18.9063,92.625 18.2188,91.5625 Q17.5313,90.4844 17.5313,89.2031 L17.5313,88.0469 Q17.5313,86.7188 18.1406,85.5781 Q18.7656,84.4219 19.8594,83.8125 Q20.9531,83.1875 22.1875,83.1875 Q22.9219,83.1875 23.5625,83.3594 Q24.2188,83.5156 24.7656,83.875 Z " fill="#000000"/><text fill="#000000" font-family="sans-serif" font-size="14" lengthAdjust="spacing" textLength="108" x="36" y="93.7969">GenerateTeamUI</text><line style="stroke:#181818;stroke-width:0.5;" x1="8" x2="146" y1="104" y2="104"/><line style="stroke:#181818;stroke-width:0.5;" x1="8" x2="146" y1="112" y2="112"/></g><!--class Collaborator--><g id="elem_Collaborator"><rect codeLine="31" fill="#F1F1F1" height="290.0742" id="Collaborator" rx="2.5" ry="2.5" style="stroke:#181818;stroke-width:0.5;" width="671" x="164.5" y="804"/><ellipse cx="456.75" cy="820" fill="#ADD1B2" rx="11" ry="11" style="stroke:#181818;stroke-width:1.0;"/><path d="M459.5156,815.875 Q459.6719,815.6563 459.8594,815.5469 Q460.0469,815.4375 460.2656,815.4375 Q460.6406,815.4375 460.875,815.7031 Q461.1094,815.9531 461.1094,816.5625 L461.1094,818.0156 Q461.1094,818.625 460.875,818.8906 Q460.6406,819.1563 460.2656,819.1563 Q459.9219,819.1563 459.7188,818.9531 Q459.5156,818.7656 459.4063,818.25 Q459.3594,817.8906 459.1719,817.7031 Q458.8438,817.3281 458.2344,817.1094 Q457.625,816.8906 457,816.8906 Q456.2344,816.8906 455.5938,817.2188 Q454.9688,817.5469 454.4688,818.2969 Q453.9844,819.0469 453.9844,820.0781 L453.9844,821.1719 Q453.9844,822.4063 454.875,823.2344 Q455.7656,824.0469 457.3594,824.0469 Q458.2969,824.0469 458.9531,823.7969 Q459.3438,823.6406 459.7656,823.2031 Q460.0313,822.9375 460.1719,822.8594 Q460.3281,822.7813 460.5313,822.7813 Q460.8594,822.7813 461.1094,823.0469 Q461.375,823.2969 461.375,823.6406 Q461.375,823.9844 461.0313,824.3906 Q460.5313,824.9688 459.7344,825.2969 Q458.6563,825.75 457.3594,825.75 Q455.8438,825.75 454.6406,825.125 Q453.6563,824.625 452.9688,823.5625 Q452.2813,822.4844 452.2813,821.2031 L452.2813,820.0469 Q452.2813,818.7188 452.8906,817.5781 Q453.5156,816.4219 454.6094,815.8125 Q455.7031,815.1875 456.9375,815.1875 Q457.6719,815.1875 458.3125,815.3594 Q458.9688,815.5156 459.5156,815.875 Z " fill="#000000"/><text fill="#000000" font-family="sans-serif" font-size="14" lengthAdjust="spacing" textLength="78" x="477.25" y="825.7969">Collaborator</text><line style="stroke:#181818;stroke-width:0.5;" x1="165.5" x2="834.5" y1="836" y2="836"/><text fill="#000000" font-family="sans-serif" font-size="14" lengthAdjust="spacing" textLength="81" x="170.5" y="855.1074">-String name</text><text fill="#000000" font-family="sans-serif" font-size="14" lengthAdjust="spacing" textLength="117" x="170.5" y="873.7285">-List&lt;Skill&gt; skillList</text><text fill="#000000" font-family="sans-serif" font-size="14" lengthAdjust="spacing" textLength="50" x="170.5" y="892.3496">-Job job</text><text fill="#000000" font-family="sans-serif" font-size="14" lengthAdjust="spacing" textLength="111" x="170.5" y="910.9707">-Date dateOfBirth</text><text fill="#000000" font-family="sans-serif" font-size="14" lengthAdjust="spacing" textLength="132" x="170.5" y="929.5918">-Date admissionDate</text><text fill="#000000" font-family="sans-serif" font-size="14" lengthAdjust="spacing" textLength="112" x="170.5" y="948.2129">-Address address</text><text fill="#000000" font-family="sans-serif" font-size="14" lengthAdjust="spacing" textLength="135" x="170.5" y="966.834">-Document document</text><text fill="#000000" font-family="sans-serif" font-size="14" lengthAdjust="spacing" textLength="135" x="170.5" y="985.4551">-String phoneNumber</text><text fill="#000000" font-family="sans-serif" font-size="14" lengthAdjust="spacing" textLength="79" x="170.5" y="1004.0762">-String email</text><text fill="#000000" font-family="sans-serif" font-size="14" lengthAdjust="spacing" textLength="38" x="170.5" y="1022.6973">-int cc</text><text fill="#000000" font-family="sans-serif" font-size="14" lengthAdjust="spacing" textLength="78" x="170.5" y="1041.3184">-int taxpayer</text><line style="stroke:#181818;stroke-width:0.5;" x1="165.5" x2="834.5" y1="1048.832" y2="1048.832"/><text fill="#000000" font-family="sans-serif" font-size="14" lengthAdjust="spacing" textLength="659" x="170.5" y="1067.9395">+Collaborator(name, dateOfBirth, admissionDate, address,document, phoneNumber, email, cc, taxpayer)</text><text fill="#000000" font-family="sans-serif" font-size="14" lengthAdjust="spacing" textLength="167" x="170.5" y="1086.5605">+hasCollaboratorSkill(skill)</text></g><!--class HumanResourcesManager--><g id="elem_HumanResourcesManager"><rect codeLine="83" fill="#F1F1F1" height="48" id="HumanResourcesManager" rx="2.5" ry="2.5" style="stroke:#181818;stroke-width:0.5;" width="200" x="529" y="1155"/><ellipse cx="544" cy="1171" fill="#ADD1B2" rx="11" ry="11" style="stroke:#181818;stroke-width:1.0;"/><path d="M546.7656,1166.875 Q546.9219,1166.6563 547.1094,1166.5469 Q547.2969,1166.4375 547.5156,1166.4375 Q547.8906,1166.4375 548.125,1166.7031 Q548.3594,1166.9531 548.3594,1167.5625 L548.3594,1169.0156 Q548.3594,1169.625 548.125,1169.8906 Q547.8906,1170.1563 547.5156,1170.1563 Q547.1719,1170.1563 546.9688,1169.9531 Q546.7656,1169.7656 546.6563,1169.25 Q546.6094,1168.8906 546.4219,1168.7031 Q546.0938,1168.3281 545.4844,1168.1094 Q544.875,1167.8906 544.25,1167.8906 Q543.4844,1167.8906 542.8438,1168.2188 Q542.2188,1168.5469 541.7188,1169.2969 Q541.2344,1170.0469 541.2344,1171.0781 L541.2344,1172.1719 Q541.2344,1173.4063 542.125,1174.2344 Q543.0156,1175.0469 544.6094,1175.0469 Q545.5469,1175.0469 546.2031,1174.7969 Q546.5938,1174.6406 547.0156,1174.2031 Q547.2813,1173.9375 547.4219,1173.8594 Q547.5781,1173.7813 547.7813,1173.7813 Q548.1094,1173.7813 548.3594,1174.0469 Q548.625,1174.2969 548.625,1174.6406 Q548.625,1174.9844 548.2813,1175.3906 Q547.7813,1175.9688 546.9844,1176.2969 Q545.9063,1176.75 544.6094,1176.75 Q543.0938,1176.75 541.8906,1176.125 Q540.9063,1175.625 540.2188,1174.5625 Q539.5313,1173.4844 539.5313,1172.2031 L539.5313,1171.0469 Q539.5313,1169.7188 540.1406,1168.5781 Q540.7656,1167.4219 541.8594,1166.8125 Q542.9531,1166.1875 544.1875,1166.1875 Q544.9219,1166.1875 545.5625,1166.3594 Q546.2188,1166.5156 546.7656,1166.875 Z " fill="#000000"/><text fill="#000000" font-family="sans-serif" font-size="14" lengthAdjust="spacing" textLength="168" x="558" y="1176.7969">HumanResourcesManager</text><line style="stroke:#181818;stroke-width:0.5;" x1="530" x2="728" y1="1187" y2="1187"/><line style="stroke:#181818;stroke-width:0.5;" x1="530" x2="728" y1="1195" y2="1195"/></g><!--class Repositories--><g id="elem_Repositories"><rect codeLine="52" fill="#F1F1F1" height="141.1055" id="Repositories" rx="2.5" ry="2.5" style="stroke:#181818;stroke-width:0.5;" width="196" x="409" y="264"/><ellipse cx="463.25" cy="280" fill="#ADD1B2" rx="11" ry="11" style="stroke:#181818;stroke-width:1.0;"/><path d="M466.0156,275.875 Q466.1719,275.6563 466.3594,275.5469 Q466.5469,275.4375 466.7656,275.4375 Q467.1406,275.4375 467.375,275.7031 Q467.6094,275.9531 467.6094,276.5625 L467.6094,278.0156 Q467.6094,278.625 467.375,278.8906 Q467.1406,279.1563 466.7656,279.1563 Q466.4219,279.1563 466.2188,278.9531 Q466.0156,278.7656 465.9063,278.25 Q465.8594,277.8906 465.6719,277.7031 Q465.3438,277.3281 464.7344,277.1094 Q464.125,276.8906 463.5,276.8906 Q462.7344,276.8906 462.0938,277.2188 Q461.4688,277.5469 460.9688,278.2969 Q460.4844,279.0469 460.4844,280.0781 L460.4844,281.1719 Q460.4844,282.4063 461.375,283.2344 Q462.2656,284.0469 463.8594,284.0469 Q464.7969,284.0469 465.4531,283.7969 Q465.8438,283.6406 466.2656,283.2031 Q466.5313,282.9375 466.6719,282.8594 Q466.8281,282.7813 467.0313,282.7813 Q467.3594,282.7813 467.6094,283.0469 Q467.875,283.2969 467.875,283.6406 Q467.875,283.9844 467.5313,284.3906 Q467.0313,284.9688 466.2344,285.2969 Q465.1563,285.75 463.8594,285.75 Q462.3438,285.75 461.1406,285.125 Q460.1563,284.625 459.4688,283.5625 Q458.7813,282.4844 458.7813,281.2031 L458.7813,280.0469 Q458.7813,278.7188 459.3906,277.5781 Q460.0156,276.4219 461.1094,275.8125 Q462.2031,275.1875 463.4375,275.1875 Q464.1719,275.1875 464.8125,275.3594 Q465.4688,275.5156 466.0156,275.875 Z " fill="#000000"/><text fill="#000000" font-family="sans-serif" font-size="14" lengthAdjust="spacing" textLength="79" x="483.75" y="285.7969">Repositories</text><line style="stroke:#181818;stroke-width:0.5;" x1="410" x2="604" y1="296" y2="296"/><line style="stroke:#181818;stroke-width:0.5;" x1="410" x2="604" y1="304" y2="304"/><text fill="#000000" font-family="sans-serif" font-size="14" lengthAdjust="spacing" textLength="94" x="415" y="323.1074">-Repositories()</text><text fill="#000000" font-family="sans-serif" font-size="14" lengthAdjust="spacing" textLength="182" x="415" y="341.7285">+getInstance() : Repositories</text><text fill="#000000" font-family="sans-serif" font-size="14" lengthAdjust="spacing" textLength="142" x="415" y="360.3496">+getTeamRepository()</text><text fill="#000000" font-family="sans-serif" font-size="14" lengthAdjust="spacing" textLength="184" x="415" y="378.9707">+getCollaboratorRepository()</text><text fill="#000000" font-family="sans-serif" font-size="14" lengthAdjust="spacing" textLength="131" x="415" y="397.5918">+getSkillRepository()</text></g><!--class TeamRepository--><g id="elem_TeamRepository"><rect codeLine="61" fill="#F1F1F1" height="196.9688" id="TeamRepository" rx="2.5" ry="2.5" style="stroke:#181818;stroke-width:0.5;" width="402" x="802" y="466"/><ellipse cx="946.75" cy="482" fill="#ADD1B2" rx="11" ry="11" style="stroke:#181818;stroke-width:1.0;"/><path d="M949.5156,477.875 Q949.6719,477.6563 949.8594,477.5469 Q950.0469,477.4375 950.2656,477.4375 Q950.6406,477.4375 950.875,477.7031 Q951.1094,477.9531 951.1094,478.5625 L951.1094,480.0156 Q951.1094,480.625 950.875,480.8906 Q950.6406,481.1563 950.2656,481.1563 Q949.9219,481.1563 949.7188,480.9531 Q949.5156,480.7656 949.4063,480.25 Q949.3594,479.8906 949.1719,479.7031 Q948.8438,479.3281 948.2344,479.1094 Q947.625,478.8906 947,478.8906 Q946.2344,478.8906 945.5938,479.2188 Q944.9688,479.5469 944.4688,480.2969 Q943.9844,481.0469 943.9844,482.0781 L943.9844,483.1719 Q943.9844,484.4063 944.875,485.2344 Q945.7656,486.0469 947.3594,486.0469 Q948.2969,486.0469 948.9531,485.7969 Q949.3438,485.6406 949.7656,485.2031 Q950.0313,484.9375 950.1719,484.8594 Q950.3281,484.7813 950.5313,484.7813 Q950.8594,484.7813 951.1094,485.0469 Q951.375,485.2969 951.375,485.6406 Q951.375,485.9844 951.0313,486.3906 Q950.5313,486.9688 949.7344,487.2969 Q948.6563,487.75 947.3594,487.75 Q945.8438,487.75 944.6406,487.125 Q943.6563,486.625 942.9688,485.5625 Q942.2813,484.4844 942.2813,483.2031 L942.2813,482.0469 Q942.2813,480.7188 942.8906,479.5781 Q943.5156,478.4219 944.6094,477.8125 Q945.7031,477.1875 946.9375,477.1875 Q947.6719,477.1875 948.3125,477.3594 Q948.9688,477.5156 949.5156,477.875 Z " fill="#000000"/><text fill="#000000" font-family="sans-serif" font-size="14" lengthAdjust="spacing" textLength="104" x="967.25" y="487.7969">TeamRepository</text><line style="stroke:#181818;stroke-width:0.5;" x1="803" x2="1203" y1="498" y2="498"/><text fill="#000000" font-family="sans-serif" font-size="14" lengthAdjust="spacing" textLength="140" x="808" y="517.1074">-List &lt;Team&gt; teamList</text><line style="stroke:#181818;stroke-width:0.5;" x1="803" x2="1203" y1="524.6211" y2="524.6211"/><text fill="#000000" font-family="sans-serif" font-size="14" lengthAdjust="spacing" textLength="106" x="808" y="543.7285">-addTeam(team)</text><text fill="#000000" font-family="sans-serif" font-size="14" lengthAdjust="spacing" textLength="297" x="808" y="562.3496">-addListTeamProposal(teamListProposal,team)</text><text fill="#000000" font-family="sans-serif" font-size="14" lengthAdjust="spacing" textLength="294" x="808" y="580.9707">-removeCollaboratorList(collaboratorList,team)</text><text fill="#000000" font-family="sans-serif" font-size="14" lengthAdjust="spacing" textLength="382" x="808" y="599.5918">-addIdealCollaboratorList(idealCollaboratorList, collaborator)</text><text fill="#000000" font-family="sans-serif" font-size="14" lengthAdjust="spacing" textLength="304" x="808" y="618.2129">-removeCollaboratorsHasTeam(collaboratorList)</text><text fill="#000000" font-family="sans-serif" font-size="14" lengthAdjust="spacing" textLength="189" x="808" y="636.834">+registerProposalTeam(team)</text><text fill="#000000" font-family="sans-serif" font-size="14" lengthAdjust="spacing" textLength="390" x="808" y="655.4551">+generateProposalTeamList(maxSize,skillList,collaboratorList)</text></g><!--class SkillRepository--><g id="elem_SkillRepository"><rect codeLine="72" fill="#F1F1F1" height="103.8633" id="SkillRepository" rx="2.5" ry="2.5" style="stroke:#181818;stroke-width:0.5;" width="186" x="581" y="512.5"/><ellipse cx="623.45" cy="528.5" fill="#ADD1B2" rx="11" ry="11" style="stroke:#181818;stroke-width:1.0;"/><path d="M626.2156,524.375 Q626.3719,524.1563 626.5594,524.0469 Q626.7469,523.9375 626.9656,523.9375 Q627.3406,523.9375 627.575,524.2031 Q627.8094,524.4531 627.8094,525.0625 L627.8094,526.5156 Q627.8094,527.125 627.575,527.3906 Q627.3406,527.6563 626.9656,527.6563 Q626.6219,527.6563 626.4188,527.4531 Q626.2156,527.2656 626.1063,526.75 Q626.0594,526.3906 625.8719,526.2031 Q625.5438,525.8281 624.9344,525.6094 Q624.325,525.3906 623.7,525.3906 Q622.9344,525.3906 622.2938,525.7188 Q621.6688,526.0469 621.1688,526.7969 Q620.6844,527.5469 620.6844,528.5781 L620.6844,529.6719 Q620.6844,530.9063 621.575,531.7344 Q622.4656,532.5469 624.0594,532.5469 Q624.9969,532.5469 625.6531,532.2969 Q626.0438,532.1406 626.4656,531.7031 Q626.7313,531.4375 626.8719,531.3594 Q627.0281,531.2813 627.2313,531.2813 Q627.5594,531.2813 627.8094,531.5469 Q628.075,531.7969 628.075,532.1406 Q628.075,532.4844 627.7313,532.8906 Q627.2313,533.4688 626.4344,533.7969 Q625.3563,534.25 624.0594,534.25 Q622.5438,534.25 621.3406,533.625 Q620.3563,533.125 619.6688,532.0625 Q618.9813,530.9844 618.9813,529.7031 L618.9813,528.5469 Q618.9813,527.2188 619.5906,526.0781 Q620.2156,524.9219 621.3094,524.3125 Q622.4031,523.6875 623.6375,523.6875 Q624.3719,523.6875 625.0125,523.8594 Q625.6688,524.0156 626.2156,524.375 Z " fill="#000000"/><text fill="#000000" font-family="sans-serif" font-size="14" lengthAdjust="spacing" textLength="93" x="643.55" y="534.2969">SkillRepository</text><line style="stroke:#181818;stroke-width:0.5;" x1="582" x2="766" y1="544.5" y2="544.5"/><text fill="#000000" font-family="sans-serif" font-size="14" lengthAdjust="spacing" textLength="121" x="587" y="563.6074">-List &lt;Skill&gt; skillList</text><line style="stroke:#181818;stroke-width:0.5;" x1="582" x2="766" y1="571.1211" y2="571.1211"/><text fill="#000000" font-family="sans-serif" font-size="14" lengthAdjust="spacing" textLength="85" x="587" y="590.2285">+getSkillList()</text><text fill="#000000" font-family="sans-serif" font-size="14" lengthAdjust="spacing" textLength="174" x="587" y="608.8496">+getSkillByName(skillName)</text></g><!--class CollaboratorRepository--><g id="elem_CollaboratorRepository"><rect codeLine="78" fill="#F1F1F1" height="85.2422" id="CollaboratorRepository" rx="2.5" ry="2.5" style="stroke:#181818;stroke-width:0.5;" width="238" x="308" y="522"/><ellipse cx="350" cy="538" fill="#ADD1B2" rx="11" ry="11" style="stroke:#181818;stroke-width:1.0;"/><path d="M352.7656,533.875 Q352.9219,533.6563 353.1094,533.5469 Q353.2969,533.4375 353.5156,533.4375 Q353.8906,533.4375 354.125,533.7031 Q354.3594,533.9531 354.3594,534.5625 L354.3594,536.0156 Q354.3594,536.625 354.125,536.8906 Q353.8906,537.1563 353.5156,537.1563 Q353.1719,537.1563 352.9688,536.9531 Q352.7656,536.7656 352.6563,536.25 Q352.6094,535.8906 352.4219,535.7031 Q352.0938,535.3281 351.4844,535.1094 Q350.875,534.8906 350.25,534.8906 Q349.4844,534.8906 348.8438,535.2188 Q348.2188,535.5469 347.7188,536.2969 Q347.2344,537.0469 347.2344,538.0781 L347.2344,539.1719 Q347.2344,540.4063 348.125,541.2344 Q349.0156,542.0469 350.6094,542.0469 Q351.5469,542.0469 352.2031,541.7969 Q352.5938,541.6406 353.0156,541.2031 Q353.2813,540.9375 353.4219,540.8594 Q353.5781,540.7813 353.7813,540.7813 Q354.1094,540.7813 354.3594,541.0469 Q354.625,541.2969 354.625,541.6406 Q354.625,541.9844 354.2813,542.3906 Q353.7813,542.9688 352.9844,543.2969 Q351.9063,543.75 350.6094,543.75 Q349.0938,543.75 347.8906,543.125 Q346.9063,542.625 346.2188,541.5625 Q345.5313,540.4844 345.5313,539.2031 L345.5313,538.0469 Q345.5313,536.7188 346.1406,535.5781 Q346.7656,534.4219 347.8594,533.8125 Q348.9531,533.1875 350.1875,533.1875 Q350.9219,533.1875 351.5625,533.3594 Q352.2188,533.5156 352.7656,533.875 Z " fill="#000000"/><text fill="#000000" font-family="sans-serif" font-size="14" lengthAdjust="spacing" textLength="146" x="370" y="543.7969">CollaboratorRepository</text><line style="stroke:#181818;stroke-width:0.5;" x1="309" x2="545" y1="554" y2="554"/><text fill="#000000" font-family="sans-serif" font-size="14" lengthAdjust="spacing" textLength="226" x="314" y="573.1074">-List &lt;Collaborator&gt; collaboratorList</text><line style="stroke:#181818;stroke-width:0.5;" x1="309" x2="545" y1="580.6211" y2="580.6211"/><text fill="#000000" font-family="sans-serif" font-size="14" lengthAdjust="spacing" textLength="209" x="314" y="599.7285">+getCollaboratorsBySkill(skillList)</text></g><!--link GenerateTeamController to Repositories--><g id="link_GenerateTeamController_Repositories"><path codeLine="85" d="M444.86,185.06 C455.75,211.07 465.1926,233.6256 475.5226,258.2956 " fill="none" id="GenerateTeamController-to-Repositories" style="stroke:#181818;stroke-width:1.0;stroke-dasharray:7.0,7.0;"/><polygon fill="#181818" points="477.84,263.83,478.0535,253.9835,475.9088,259.218,470.6743,257.0733,477.84,263.83" style="stroke:#181818;stroke-width:1.0;"/><text fill="#000000" font-family="sans-serif" font-size="13" lengthAdjust="spacing" textLength="67" x="465" y="230.0283">repositories</text></g><!--link GenerateTeamUI to GenerateTeamController--><g id="link_GenerateTeamUI_GenerateTeamController"><path codeLine="87" d="M147.19,96 C162.15,96 169.51,96 176.41,96 " fill="none" id="GenerateTeamUI-to-GenerateTeamController" style="stroke:#181818;stroke-width:1.0;stroke-dasharray:7.0,7.0;"/><polygon fill="#181818" points="182.41,96,173.41,92,177.41,96,173.41,100,182.41,96" style="stroke:#181818;stroke-width:1.0;"/></g><!--link Repositories to Repositories--><g id="link_Repositories_Repositories"><path codeLine="88" d="M605.02,316.41 C625.37,318.31 640,324.34 640,334.5 C640,344.66 631.344,350.1322 610.994,352.0322 " fill="none" id="Repositories-to-Repositories" style="stroke:#181818;stroke-width:1.0;"/><polygon fill="#181818" points="605.02,352.59,614.3529,355.736,609.9983,352.1252,613.6092,347.7707,605.02,352.59" style="stroke:#181818;stroke-width:1.0;"/><text fill="#000000" font-family="sans-serif" font-size="13" lengthAdjust="spacing" textLength="49" x="646" y="340.0283">instance</text></g><!--link Repositories to TeamRepository--><g id="link_Repositories_TeamRepository"><path codeLine="90" d="M605.29,380.68 C661.49,406.52 728.6383,437.3842 796.3883,468.5242 " fill="none" id="Repositories-to-TeamRepository" style="stroke:#181818;stroke-width:1.0;"/><polygon fill="#181818" points="801.84,471.03,795.333,463.6369,797.2969,468.9419,791.9919,470.9058,801.84,471.03" style="stroke:#181818;stroke-width:1.0;"/><text fill="#000000" font-family="sans-serif" font-size="13" lengthAdjust="spacing" textLength="7" x="786.8455" y="464.0814">1</text></g><!--link Repositories to SkillRepository--><g id="link_Repositories_SkillRepository"><path codeLine="91" d="M558.01,405.15 C583.34,439.72 609.8343,475.8997 633.0043,507.5297 " fill="none" id="Repositories-to-SkillRepository" style="stroke:#181818;stroke-width:1.0;"/><polygon fill="#181818" points="636.55,512.37,634.4584,502.7458,633.5953,508.3364,628.0047,507.4734,636.55,512.37" style="stroke:#181818;stroke-width:1.0;"/><text fill="#000000" font-family="sans-serif" font-size="13" lengthAdjust="spacing" textLength="7" x="624.0473" y="501.2799">1</text></g><!--link Repositories to CollaboratorRepository--><g id="link_Repositories_CollaboratorRepository"><path codeLine="92" d="M482.56,405.15 C469.19,443.26 455.0558,483.5382 443.6358,516.0982 " fill="none" id="Repositories-to-CollaboratorRepository" style="stroke:#181818;stroke-width:1.0;"/><polygon fill="#181818" points="441.65,521.76,448.4033,514.5911,443.3049,517.0418,440.8542,511.9433,441.65,521.76" style="stroke:#181818;stroke-width:1.0;"/><text fill="#000000" font-family="sans-serif" font-size="13" lengthAdjust="spacing" textLength="7" x="436.427" y="510.6258">1</text></g><!--link TeamRepository to Team--><g id="link_TeamRepository_Team"><path codeLine="94" d="M974.35,663.13 C963.63,699.67 954,732.5 954,732.5 C954,732.5 954,732.5 954,1180 C954,1180 761.5306,1245.4385 628.2106,1290.7685 " fill="none" id="TeamRepository-to-Team" style="stroke:#181818;stroke-width:1.0;"/><polygon fill="#181818" points="622.53,1292.7,632.3386,1293.5899,627.2639,1291.0904,629.7633,1286.0157,622.53,1292.7" style="stroke:#181818;stroke-width:1.0;"/><text fill="#000000" font-family="sans-serif" font-size="13" lengthAdjust="spacing" textLength="29" x="955" y="954.5283">team</text><text fill="#000000" font-family="sans-serif" font-size="13" lengthAdjust="spacing" textLength="5" x="630.6617" y="1286.3968">*</text></g><!--link CollaboratorRepository to Collaborator--><g id="link_CollaboratorRepository_Collaborator"><path codeLine="95" d="M434.95,607.16 C443.93,654.21 457.9149,727.4864 471.3149,797.6764 " fill="none" id="CollaboratorRepository-to-Collaborator" style="stroke:#181818;stroke-width:1.0;"/><polygon fill="#181818" points="472.44,803.57,474.6813,793.9796,471.5024,798.6587,466.8232,795.4798,472.44,803.57" style="stroke:#181818;stroke-width:1.0;"/><text fill="#000000" font-family="sans-serif" font-size="13" lengthAdjust="spacing" textLength="67" x="462" y="739.0283">collaborator</text><text fill="#000000" font-family="sans-serif" font-size="13" lengthAdjust="spacing" textLength="5" x="465.89" y="792.6669">*</text></g><!--link GenerateTeamController to TeamRepository--><g id="link_GenerateTeamController_TeamRepository"><path codeLine="97" d="M594.59,185.07 C630.92,202.22 658,215 658,215 C658,215 727,264 727,264 C727,264 828.4041,374.0377 908.9441,461.4377 " fill="none" id="GenerateTeamController-to-TeamRepository" style="stroke:#181818;stroke-width:1.0;stroke-dasharray:7.0,7.0;"/><polygon fill="#181818" points="913.01,465.85,909.8526,456.521,909.6217,462.1731,903.9696,461.9422,913.01,465.85" style="stroke:#181818;stroke-width:1.0;"/></g><!--link GenerateTeamController to SkillRepository--><g id="link_GenerateTeamController_SkillRepository"><path codeLine="98" d="M562.65,185.15 C633.09,225.29 701,264 701,264 C701,264 701,405 701,405 C701,405 691.5871,460.2251 683.6971,506.5651 " fill="none" id="GenerateTeamController-to-SkillRepository" style="stroke:#181818;stroke-width:1.0;stroke-dasharray:7.0,7.0;"/><polygon fill="#181818" points="682.69,512.48,688.1439,504.2791,683.5292,507.5509,680.2574,502.9363,682.69,512.48" style="stroke:#181818;stroke-width:1.0;"/></g><!--link GenerateTeamController to CollaboratorRepository--><g id="link_GenerateTeamController_CollaboratorRepository"><path codeLine="99" d="M399,185.39 C394.92,225.45 391,264 391,264 C391,264 391,405 391,405 C391,405 405.5518,469.0489 416.2118,516.0089 " fill="none" id="GenerateTeamController-to-CollaboratorRepository" style="stroke:#181818;stroke-width:1.0;stroke-dasharray:7.0,7.0;"/><polygon fill="#181818" points="417.54,521.86,419.4484,512.1978,416.4332,516.9841,411.6469,513.9688,417.54,521.86" style="stroke:#181818;stroke-width:1.0;"/></g><!--link GenerateTeamController to Collaborator--><g id="link_GenerateTeamController_Collaborator"><path codeLine="100" d="M351.03,185.06 C307.53,252.3 255,333.5 255,333.5 C255,333.5 255,333.5 255,734.5 C255,734.5 286.0169,761.5277 330.0169,799.8777 " fill="none" id="GenerateTeamController-to-Collaborator" style="stroke:#181818;stroke-width:1.0;stroke-dasharray:7.0,7.0;"/><polygon fill="#181818" points="334.54,803.82,330.3836,794.8912,330.7708,800.5348,325.1272,800.922,334.54,803.82" style="stroke:#181818;stroke-width:1.0;"/></g><!--link GenerateTeamController to Team--><g id="link_GenerateTeamController_Team"><path codeLine="101" d="M297.41,185.06 C212.97,252.3 111,333.5 111,333.5 C111,333.5 111,333.5 111,1180 C111,1180 263.9987,1239.5634 379.6987,1284.6034 " fill="none" id="GenerateTeamController-to-Team" style="stroke:#181818;stroke-width:1.0;stroke-dasharray:7.0,7.0;"/><polygon fill="#181818" points="385.29,1286.78,378.3541,1279.7876,380.6306,1284.9662,375.452,1287.2426,385.29,1286.78" style="stroke:#181818;stroke-width:1.0;"/></g><!--reverse link Collaborator to HumanResourcesManager--><g id="link_Collaborator_HumanResourcesManager"><path codeLine="103" d="M590.3782,1109.7338 C603.7282,1133.3138 607.15,1139.39 615.89,1154.82 " fill="none" id="Collaborator-backto-HumanResourcesManager" style="stroke:#181818;stroke-width:1.0;"/><polygon fill="none" points="581.51,1094.07,585.1569,1112.6899,595.5995,1106.7778,581.51,1094.07" style="stroke:#181818;stroke-width:1.0;"/></g><!--link HumanResourcesManager to Team--><g id="link_HumanResourcesManager_Team"><path codeLine="105" d="M610.02,1203.24 C593.01,1224.05 571.2654,1250.663 549.5154,1277.293 " fill="none" id="HumanResourcesManager-to-Team" style="stroke:#181818;stroke-width:1.0;"/><polygon fill="#181818" points="545.72,1281.94,554.5112,1277.4998,548.8829,1278.0675,548.3151,1272.4392,545.72,1281.94" style="stroke:#181818;stroke-width:1.0;"/><text fill="#000000" font-family="sans-serif" font-size="13" lengthAdjust="spacing" textLength="41" x="586" y="1248.0283">defines</text><text fill="#000000" font-family="sans-serif" font-size="13" lengthAdjust="spacing" textLength="7" x="597.8215" y="1224.8731">1</text><text fill="#000000" font-family="sans-serif" font-size="13" lengthAdjust="spacing" textLength="20" x="529.9824" y="1270.8593">1..*</text></g><!--link Collaborator to Team--><g id="link_Collaborator_Team"><path codeLine="106" d="M471.89,1094.05 C465.22,1128.24 460,1155 460,1155 C460,1155 460,1203 460,1203 C460,1203 472.486,1239.8869 484.816,1276.3069 " fill="none" id="Collaborator-to-Team" style="stroke:#181818;stroke-width:1.0;"/><polygon fill="#181818" points="486.74,1281.99,487.6427,1272.1826,485.1366,1277.254,480.0652,1274.748,486.74,1281.99" style="stroke:#181818;stroke-width:1.0;"/><text fill="#000000" font-family="sans-serif" font-size="13" lengthAdjust="spacing" textLength="49" x="461" y="1184.5283">contains</text><text fill="#000000" font-family="sans-serif" font-size="13" lengthAdjust="spacing" textLength="20" x="449.925" y="1116.0013">1..*</text><text fill="#000000" font-family="sans-serif" font-size="13" lengthAdjust="spacing" textLength="7" x="476.9504" y="1270.916">1</text></g><!--SRC=[ZLRRRjim37tNLmXzYRCwmVPQ507Q3bWpRDtGR1-Ws4oYLPOCITcQTVttKRxIjw1vI2poy2BoaCxCFKcT2oiodXbjaeCr6N1lZy1QJIwI9x67ZJyfu1OIB_HUKO0xYDJyaNhFTq8vgb5IWp_bm7EZJk70PYDAOxrXn2fHmhaRxwtS7Zsi4wCtyY_mzupD5EmyzuPRkJzudigGZZIQiSA6Vm8DLdZu0IAxCzfRenHO_i8uVYudrD6yK2_u7loDKfidgPIxFJs8328N3b-ay-7a2F0EJSNMe3TZRq-5JGjkSMMyxzRanWaLuWPzbCdYId4cdelVnZ9EYD_MrMK8kQb1KIiS-dVJpcip2tiyWQLcaSUlENkjAnbaLTqMF1XVqnklU3_F2ad5zy8LdgciJc6WAFDhuzDM_LnZ9es6vb5dk46k8FqqDgaK51aN1LlnvlwbwhFPybzcMnu-OWYUujUttQsq_a2a8isaSqYkS2hbDsbg0LCGvMy5Dian0urih1uwAUK7e-7Xc6t1TkIG2QbAYKJR96cVlNZEnGdnLQteXQDmnPXc77SJZUlauZgTcEOGbu5Z31WtWUgc78IZiGYf2s9KzRy_Pa8_WZD7cu3xAZJk1aiRz0Z8AeaE93YKLyoWKa9WlzOE5qe2qPnVTK0j972WqPoeCKrt755SegFgKBpLTCZEhuDonNqri9KAIqjcfP45H93NynJLPhKWfWOMClCRxdhS7mn3t0koJa6eWPKSayPyE79ZSTtOXBvnKKmle7B1lM6nDOtezQZNYT4fdbo8fP1kx_0q7ryVap7ViEi6_7CZhu7NiqFpWkg9DzPorHsZA-m56GtMMuy87tV4EbuM0w-ocZxM0oBouiD5RqJ6CRtkZOF6gyvORmON1VvT6HZJ2rnZ4nrhi9qNmbMdMzFrNMB9UhSx1-rVyXnsugxJdQO6Ps11mZhLuFpwts8nJYx6nXTrw4RPbUMoBNGAE_mtvhhUAmWbGr5VxGNo1by8_m40]--></g></svg>