<?xml version="1.0" encoding="us-ascii" standalone="no"?><svg xmlns="http://www.w3.org/2000/svg" xmlns:xlink="http://www.w3.org/1999/xlink" contentStyleType="text/css" height="842px" preserveAspectRatio="none" style="width:1394px;height:842px;background:#FFFFFF;" version="1.1" viewBox="0 0 1394 842" width="1394px" zoomAndPan="magnify"><defs/><g><rect fill="#FFFFFF" height="678.1895" style="stroke:#181818;stroke-width:1.0;" width="10" x="505" y="90.5332"/><rect fill="#FFFFFF" height="31.291" style="stroke:#181818;stroke-width:1.0;" width="10" x="651.5" y="148.1152"/><rect fill="#FFFFFF" height="31.291" style="stroke:#181818;stroke-width:1.0;" width="10" x="758.5" y="210.6973"/><rect fill="#FFFFFF" height="457.1523" style="stroke:#181818;stroke-width:1.0;" width="10" x="952" y="273.2793"/><rect fill="#FFFFFF" height="42.291" style="stroke:#181818;stroke-width:1.0;" width="10" x="957" y="365.1523"/><rect fill="#FFFFFF" height="42.291" style="stroke:#181818;stroke-width:1.0;" width="10" x="957" y="554.2676"/><rect fill="#FFFFFF" height="42.291" style="stroke:#181818;stroke-width:1.0;" width="10" x="957" y="642.8496"/><rect fill="#FFFFFF" height="52.2422" style="stroke:#181818;stroke-width:1.0;" width="10" x="1336" y="462.7344"/><rect fill="none" height="632.8984" style="stroke:#000000;stroke-width:1.5;" width="976" x="412" y="105.5332"/><rect fill="none" height="411.8613" style="stroke:#000000;stroke-width:1.5;" width="500" x="878" y="288.2793"/><rect fill="none" height="107.873" style="stroke:#000000;stroke-width:1.5;" width="458" x="888" y="314.5703"/><line style="stroke:#181818;stroke-width:0.5;stroke-dasharray:5.0,5.0;" x1="510" x2="510" y1="57.2422" y2="786.7227"/><line style="stroke:#181818;stroke-width:0.5;stroke-dasharray:5.0,5.0;" x1="656" x2="656" y1="57.2422" y2="786.7227"/><line style="stroke:#181818;stroke-width:0.5;stroke-dasharray:5.0,5.0;" x1="763" x2="763" y1="57.2422" y2="786.7227"/><line style="stroke:#181818;stroke-width:0.5;stroke-dasharray:5.0,5.0;" x1="957" x2="957" y1="57.2422" y2="786.7227"/><line style="stroke:#181818;stroke-width:0.5;stroke-dasharray:5.0,5.0;" x1="1341" x2="1341" y1="470.5645" y2="786.7227"/><rect fill="#E3E3E3" height="32.6211" rx="2.5" ry="2.5" style="stroke:#181818;stroke-width:0.5;" width="176" x="422" y="23.6211"/><text fill="#000000" font-family="sans-serif" font-size="14" lengthAdjust="spacing" textLength="162" x="429" y="45.7285">:GenerateTeamController</text><rect fill="#E3E3E3" height="32.6211" rx="2.5" ry="2.5" style="stroke:#181818;stroke-width:0.5;" width="176" x="422" y="785.7227"/><text fill="#000000" font-family="sans-serif" font-size="14" lengthAdjust="spacing" textLength="162" x="429" y="807.8301">:GenerateTeamController</text><rect fill="#E3E3E3" height="32.6211" rx="2.5" ry="2.5" style="stroke:#181818;stroke-width:0.5;" width="97" x="608" y="23.6211"/><text fill="#000000" font-family="sans-serif" font-size="14" lengthAdjust="spacing" textLength="83" x="615" y="45.7285">:Repositories</text><rect fill="#E3E3E3" height="32.6211" rx="2.5" ry="2.5" style="stroke:#181818;stroke-width:0.5;" width="97" x="608" y="785.7227"/><text fill="#000000" font-family="sans-serif" font-size="14" lengthAdjust="spacing" textLength="83" x="615" y="807.8301">:Repositories</text><rect fill="#E3E3E3" height="51.2422" rx="2.5" ry="2.5" style="stroke:#181818;stroke-width:0.5;" width="97" x="715" y="5"/><text fill="#000000" font-family="sans-serif" font-size="14" lengthAdjust="spacing" textLength="74" x="726.5" y="27.1074">repositories</text><text fill="#000000" font-family="sans-serif" font-size="14" lengthAdjust="spacing" textLength="83" x="722" y="45.7285">:Repositories</text><rect fill="#E3E3E3" height="51.2422" rx="2.5" ry="2.5" style="stroke:#181818;stroke-width:0.5;" width="97" x="715" y="785.7227"/><text fill="#000000" font-family="sans-serif" font-size="14" lengthAdjust="spacing" textLength="74" x="726.5" y="807.8301">repositories</text><text fill="#000000" font-family="sans-serif" font-size="14" lengthAdjust="spacing" textLength="83" x="722" y="826.4512">:Repositories</text><rect fill="#E3E3E3" height="51.2422" rx="2.5" ry="2.5" style="stroke:#181818;stroke-width:0.5;" width="118" x="898" y="5"/><text fill="#000000" font-family="sans-serif" font-size="14" lengthAdjust="spacing" textLength="103" x="905.5" y="27.1074">teamRepository:</text><text fill="#000000" font-family="sans-serif" font-size="14" lengthAdjust="spacing" textLength="104" x="905" y="45.7285">TeamRepository</text><rect fill="#E3E3E3" height="51.2422" rx="2.5" ry="2.5" style="stroke:#181818;stroke-width:0.5;" width="118" x="898" y="785.7227"/><text fill="#000000" font-family="sans-serif" font-size="14" lengthAdjust="spacing" textLength="103" x="905.5" y="807.8301">teamRepository:</text><text fill="#000000" font-family="sans-serif" font-size="14" lengthAdjust="spacing" textLength="104" x="905" y="826.4512">TeamRepository</text><rect fill="#E3E3E3" height="51.2422" rx="2.5" ry="2.5" style="stroke:#181818;stroke-width:0.5;" width="54" x="1314" y="785.7227"/><text fill="#000000" font-family="sans-serif" font-size="14" lengthAdjust="spacing" textLength="31" x="1325.5" y="807.8301">team</text><text fill="#000000" font-family="sans-serif" font-size="14" lengthAdjust="spacing" textLength="40" x="1321" y="826.4512">:Team</text><rect fill="#FFFFFF" height="678.1895" style="stroke:#181818;stroke-width:1.0;" width="10" x="505" y="90.5332"/><rect fill="#FFFFFF" height="31.291" style="stroke:#181818;stroke-width:1.0;" width="10" x="651.5" y="148.1152"/><rect fill="#FFFFFF" height="31.291" style="stroke:#181818;stroke-width:1.0;" width="10" x="758.5" y="210.6973"/><rect fill="#FFFFFF" height="457.1523" style="stroke:#181818;stroke-width:1.0;" width="10" x="952" y="273.2793"/><rect fill="#FFFFFF" height="42.291" style="stroke:#181818;stroke-width:1.0;" width="10" x="957" y="365.1523"/><rect fill="#FFFFFF" height="42.291" style="stroke:#181818;stroke-width:1.0;" width="10" x="957" y="554.2676"/><rect fill="#FFFFFF" height="42.291" style="stroke:#181818;stroke-width:1.0;" width="10" x="957" y="642.8496"/><rect fill="#FFFFFF" height="52.2422" style="stroke:#181818;stroke-width:1.0;" width="10" x="1336" y="462.7344"/><polygon fill="#181818" points="493,86.5332,503,90.5332,493,94.5332,497,90.5332" style="stroke:#181818;stroke-width:1.0;"/><line style="stroke:#181818;stroke-width:1.0;stroke-dasharray:2.0,2.0;" x1="0" x2="499" y1="90.5332" y2="90.5332"/><text fill="#000000" font-family="sans-serif" font-size="13" font-weight="bold" lengthAdjust="spacing" textLength="14" x="7" y="85.2705">15</text><text fill="#000000" font-family="sans-serif" font-size="13" lengthAdjust="spacing" textLength="468" x="25" y="85.2705">generateProposalTeamList(minSizeTeam,maxSizeTeam,skillList,collaboratorList)</text><path d="M412,105.5332 L642,105.5332 L642,114.8242 L632,124.8242 L412,124.8242 L412,105.5332 " fill="#EEEEEE" style="stroke:#000000;stroke-width:1.5;"/><rect fill="none" height="632.8984" style="stroke:#000000;stroke-width:1.5;" width="976" x="412" y="105.5332"/><text fill="#000000" font-family="sans-serif" font-size="13" font-weight="bold" lengthAdjust="spacing" textLength="185" x="427" y="120.5615">Generate Team Proposal List</text><polygon fill="#181818" points="639.5,144.1152,649.5,148.1152,639.5,152.1152,643.5,148.1152" style="stroke:#181818;stroke-width:1.0;"/><line style="stroke:#181818;stroke-width:1.0;" x1="515" x2="645.5" y1="148.1152" y2="148.1152"/><text fill="#000000" font-family="sans-serif" font-size="13" font-weight="bold" lengthAdjust="spacing" textLength="25" x="522" y="142.8525">15.1</text><text fill="#000000" font-family="sans-serif" font-size="13" lengthAdjust="spacing" textLength="75" x="551" y="142.8525">getInstance()</text><polygon fill="#181818" points="526,175.4063,516,179.4063,526,183.4063,522,179.4063" style="stroke:#181818;stroke-width:1.0;"/><line style="stroke:#181818;stroke-width:1.0;stroke-dasharray:2.0,2.0;" x1="520" x2="655.5" y1="179.4063" y2="179.4063"/><text fill="#000000" font-family="sans-serif" font-size="13" font-weight="bold" lengthAdjust="spacing" textLength="25" x="532" y="174.1436">15.2</text><text fill="#000000" font-family="sans-serif" font-size="13" lengthAdjust="spacing" textLength="67" x="561" y="174.1436">repositories</text><polygon fill="#181818" points="746.5,206.6973,756.5,210.6973,746.5,214.6973,750.5,210.6973" style="stroke:#181818;stroke-width:1.0;"/><line style="stroke:#181818;stroke-width:1.0;" x1="515" x2="752.5" y1="210.6973" y2="210.6973"/><text fill="#000000" font-family="sans-serif" font-size="13" font-weight="bold" lengthAdjust="spacing" textLength="25" x="522" y="205.4346">15.3</text><text fill="#000000" font-family="sans-serif" font-size="13" lengthAdjust="spacing" textLength="120" x="551" y="205.4346">getTeamRepository()</text><polygon fill="#181818" points="526,237.9883,516,241.9883,526,245.9883,522,241.9883" style="stroke:#181818;stroke-width:1.0;"/><line style="stroke:#181818;stroke-width:1.0;stroke-dasharray:2.0,2.0;" x1="520" x2="762.5" y1="241.9883" y2="241.9883"/><text fill="#000000" font-family="sans-serif" font-size="13" font-weight="bold" lengthAdjust="spacing" textLength="25" x="532" y="236.7256">15.4</text><text fill="#000000" font-family="sans-serif" font-size="13" lengthAdjust="spacing" textLength="91" x="561" y="236.7256">teamRepository</text><polygon fill="#181818" points="940,269.2793,950,273.2793,940,277.2793,944,273.2793" style="stroke:#181818;stroke-width:1.0;"/><line style="stroke:#181818;stroke-width:1.0;" x1="515" x2="946" y1="273.2793" y2="273.2793"/><text fill="#000000" font-family="sans-serif" font-size="13" font-weight="bold" lengthAdjust="spacing" textLength="25" x="522" y="268.0166">15.5</text><text fill="#000000" font-family="sans-serif" font-size="13" lengthAdjust="spacing" textLength="389" x="551" y="268.0166">generateProposalTeamList (maxSizeTeam,skillList,collaboratorList)</text><path d="M878,288.2793 L951,288.2793 L951,297.5703 L941,307.5703 L878,307.5703 L878,288.2793 " fill="#EEEEEE" style="stroke:#000000;stroke-width:1.5;"/><rect fill="none" height="411.8613" style="stroke:#000000;stroke-width:1.5;" width="500" x="878" y="288.2793"/><text fill="#000000" font-family="sans-serif" font-size="13" font-weight="bold" lengthAdjust="spacing" textLength="28" x="893" y="303.3076">loop</text><text fill="#000000" font-family="sans-serif" font-size="11" font-weight="bold" lengthAdjust="spacing" textLength="193" x="966" y="302.1494">[CollaboratorList.size() &gt;= minSize]</text><path d="M888,314.5703 L961,314.5703 L961,323.8613 L951,333.8613 L888,333.8613 L888,314.5703 " fill="#EEEEEE" style="stroke:#000000;stroke-width:1.5;"/><rect fill="none" height="107.873" style="stroke:#000000;stroke-width:1.5;" width="458" x="888" y="314.5703"/><text fill="#000000" font-family="sans-serif" font-size="13" font-weight="bold" lengthAdjust="spacing" textLength="28" x="903" y="329.5986">loop</text><text fill="#000000" font-family="sans-serif" font-size="11" font-weight="bold" lengthAdjust="spacing" textLength="215" x="976" y="328.4404">[idealCollaboratorList.size() &lt; maxSize]</text><line style="stroke:#181818;stroke-width:1.0;" x1="962" x2="1009" y1="352.1523" y2="352.1523"/><line style="stroke:#181818;stroke-width:1.0;" x1="1009" x2="1009" y1="352.1523" y2="365.1523"/><line style="stroke:#181818;stroke-width:1.0;" x1="968" x2="1009" y1="365.1523" y2="365.1523"/><polygon fill="#181818" points="978,361.1523,968,365.1523,978,369.1523,974,365.1523" style="stroke:#181818;stroke-width:1.0;"/><text fill="#000000" font-family="sans-serif" font-size="13" font-weight="bold" lengthAdjust="spacing" textLength="25" x="974" y="346.8896">15.6</text><text fill="#000000" font-family="sans-serif" font-size="13" lengthAdjust="spacing" textLength="331" x="1003" y="346.8896">addIdealCollaboratorList(idealCollaboratorList,colaborator)</text><line style="stroke:#181818;stroke-width:1.0;stroke-dasharray:2.0,2.0;" x1="967" x2="1009" y1="406.4434" y2="406.4434"/><line style="stroke:#181818;stroke-width:1.0;stroke-dasharray:2.0,2.0;" x1="1009" x2="1009" y1="406.4434" y2="419.4434"/><line style="stroke:#181818;stroke-width:1.0;stroke-dasharray:2.0,2.0;" x1="962" x2="1009" y1="419.4434" y2="419.4434"/><polygon fill="#181818" points="972,415.4434,962,419.4434,972,423.4434,968,419.4434" style="stroke:#181818;stroke-width:1.0;"/><text fill="#000000" font-family="sans-serif" font-size="13" font-weight="bold" lengthAdjust="spacing" textLength="25" x="974" y="401.1807">15.7</text><text fill="#000000" font-family="sans-serif" font-size="13" lengthAdjust="spacing" textLength="53" x="1003" y="401.1807">true/false</text><polygon fill="#181818" points="1302,448.7344,1312,452.7344,1302,456.7344,1306,452.7344" style="stroke:#181818;stroke-width:1.0;"/><line style="stroke:#181818;stroke-width:1.0;" x1="962" x2="1308" y1="452.7344" y2="452.7344"/><text fill="#000000" font-family="sans-serif" font-size="13" font-weight="bold" lengthAdjust="spacing" textLength="25" x="969" y="447.4717">15.8</text><text fill="#000000" font-family="sans-serif" font-size="13" lengthAdjust="spacing" textLength="161" x="998" y="447.4717">create(idealCollaboratorList)</text><rect fill="#E3E3E3" height="51.2422" rx="2.5" ry="2.5" style="stroke:#181818;stroke-width:0.5;" width="54" x="1314" y="429.4434"/><text fill="#000000" font-family="sans-serif" font-size="14" lengthAdjust="spacing" textLength="31" x="1325.5" y="451.5508">team</text><text fill="#000000" font-family="sans-serif" font-size="14" lengthAdjust="spacing" textLength="40" x="1321" y="470.1719">:Team</text><polygon fill="#181818" points="973,510.9766,963,514.9766,973,518.9766,969,514.9766" style="stroke:#181818;stroke-width:1.0;"/><line style="stroke:#181818;stroke-width:1.0;stroke-dasharray:2.0,2.0;" x1="967" x2="1340" y1="514.9766" y2="514.9766"/><text fill="#000000" font-family="sans-serif" font-size="13" font-weight="bold" lengthAdjust="spacing" textLength="25" x="979" y="509.7139">15.9</text><text fill="#000000" font-family="sans-serif" font-size="13" lengthAdjust="spacing" textLength="29" x="1008" y="509.7139">team</text><line style="stroke:#181818;stroke-width:1.0;" x1="962" x2="1009" y1="541.2676" y2="541.2676"/><line style="stroke:#181818;stroke-width:1.0;" x1="1009" x2="1009" y1="541.2676" y2="554.2676"/><line style="stroke:#181818;stroke-width:1.0;" x1="968" x2="1009" y1="554.2676" y2="554.2676"/><polygon fill="#181818" points="978,550.2676,968,554.2676,978,558.2676,974,554.2676" style="stroke:#181818;stroke-width:1.0;"/><text fill="#000000" font-family="sans-serif" font-size="13" font-weight="bold" lengthAdjust="spacing" textLength="32" x="974" y="536.0049">15.10</text><text fill="#000000" font-family="sans-serif" font-size="13" lengthAdjust="spacing" textLength="267" x="1010" y="536.0049">addListTeamProposal(teamListProposal,team)</text><line style="stroke:#181818;stroke-width:1.0;stroke-dasharray:2.0,2.0;" x1="967" x2="1009" y1="595.5586" y2="595.5586"/><line style="stroke:#181818;stroke-width:1.0;stroke-dasharray:2.0,2.0;" x1="1009" x2="1009" y1="595.5586" y2="608.5586"/><line style="stroke:#181818;stroke-width:1.0;stroke-dasharray:2.0,2.0;" x1="962" x2="1009" y1="608.5586" y2="608.5586"/><polygon fill="#181818" points="972,604.5586,962,608.5586,972,612.5586,968,608.5586" style="stroke:#181818;stroke-width:1.0;"/><text fill="#000000" font-family="sans-serif" font-size="13" font-weight="bold" lengthAdjust="spacing" textLength="32" x="974" y="590.2959">15.11</text><text fill="#000000" font-family="sans-serif" font-size="13" lengthAdjust="spacing" textLength="53" x="1010" y="590.2959">true/false</text><line style="stroke:#181818;stroke-width:1.0;" x1="962" x2="1009" y1="629.8496" y2="629.8496"/><line style="stroke:#181818;stroke-width:1.0;" x1="1009" x2="1009" y1="629.8496" y2="642.8496"/><line style="stroke:#181818;stroke-width:1.0;" x1="968" x2="1009" y1="642.8496" y2="642.8496"/><polygon fill="#181818" points="978,638.8496,968,642.8496,978,646.8496,974,642.8496" style="stroke:#181818;stroke-width:1.0;"/><text fill="#000000" font-family="sans-serif" font-size="13" font-weight="bold" lengthAdjust="spacing" textLength="32" x="974" y="624.5869">15.12</text><text fill="#000000" font-family="sans-serif" font-size="13" lengthAdjust="spacing" textLength="260" x="1010" y="624.5869">removeCollaboratorList(collaboratorList,team)</text><line style="stroke:#181818;stroke-width:1.0;stroke-dasharray:2.0,2.0;" x1="967" x2="1009" y1="684.1406" y2="684.1406"/><line style="stroke:#181818;stroke-width:1.0;stroke-dasharray:2.0,2.0;" x1="1009" x2="1009" y1="684.1406" y2="697.1406"/><line style="stroke:#181818;stroke-width:1.0;stroke-dasharray:2.0,2.0;" x1="962" x2="1009" y1="697.1406" y2="697.1406"/><polygon fill="#181818" points="972,693.1406,962,697.1406,972,701.1406,968,697.1406" style="stroke:#181818;stroke-width:1.0;"/><text fill="#000000" font-family="sans-serif" font-size="13" font-weight="bold" lengthAdjust="spacing" textLength="32" x="974" y="678.8779">15.13</text><text fill="#000000" font-family="sans-serif" font-size="13" lengthAdjust="spacing" textLength="53" x="1010" y="678.8779">true/false</text><polygon fill="#181818" points="526,726.4316,516,730.4316,526,734.4316,522,730.4316" style="stroke:#181818;stroke-width:1.0;"/><line style="stroke:#181818;stroke-width:1.0;stroke-dasharray:2.0,2.0;" x1="520" x2="956" y1="730.4316" y2="730.4316"/><text fill="#000000" font-family="sans-serif" font-size="13" font-weight="bold" lengthAdjust="spacing" textLength="32" x="532" y="725.1689">15.14</text><text fill="#000000" font-family="sans-serif" font-size="13" lengthAdjust="spacing" textLength="50" x="568" y="725.1689">teamList</text><polygon fill="#181818" points="11,764.7227,1,768.7227,11,772.7227,7,768.7227" style="stroke:#181818;stroke-width:1.0;"/><line style="stroke:#181818;stroke-width:1.0;stroke-dasharray:2.0,2.0;" x1="5" x2="509" y1="768.7227" y2="768.7227"/><text fill="#000000" font-family="sans-serif" font-size="13" font-weight="bold" lengthAdjust="spacing" textLength="14" x="17" y="763.46">16</text><text fill="#000000" font-family="sans-serif" font-size="13" lengthAdjust="spacing" textLength="101" x="35" y="763.46">teamListProposal</text><!--SRC=[hLJ1JkCm4BtFLumufQW5STWzL824AhH2Ab9LUkHYajbWuTYHxRBBVlrwdAJ4QRBR0vUgdRvvxyqRs-vDwbfOKM5bjCbVhQa8lTqJkCC_jSZVH4bF_aCHMigzqANg0zohACmlgKlyAPGZW53sCfUrq1xFbZz8anMUTYIgbT7U6gN8dg5mkDgk1-0jrSP9Rwma5o7R-qqAiJt4ipvksAplTcc73y87sCVoMU-IGknAIyVzGOaX3VR-xX40nDuRlQzUoEBLDrWiRdcS9PRjk1jh0frGtBQMpcULr4_oJunXNedVX-yXIAKOCSz3CkB5X6vZkJ0RY5nSXKBkvNkWZzcLrknhx0AEGs2dYym0460Oh8KOaRtv1-t20dFAPfzKd34meXqY8Fif0nIKObjIZhfXJUFhSyTrG4H-igSRIVWRVAUGyk9qkfYT6kb1QR1oKCRKk1hWBrpWp6PuUuFj_XgS39RL5FWQMpC0Wm76HX95yJ36bergy4JTxnbCJpCK7bFcYtxPtDdU1ePCGBeudeClmVdv4dDBeMdSQ-8lNXh-dF0I2eaBnf-M7ajnlJiJcMyFHLUOSs5wyryNrGb-BLNcdOvsFJod_x7yTPx7bflSq-OP-TVvY1pzX-exmFLYaL9qk-WpyHFs5m00]--></g></svg>