<?xml version="1.0" encoding="us-ascii" standalone="no"?><svg xmlns="http://www.w3.org/2000/svg" xmlns:xlink="http://www.w3.org/1999/xlink" contentStyleType="text/css" height="1164px" preserveAspectRatio="none" style="width:1432px;height:1164px;background:#FFFFFF;" version="1.1" viewBox="0 0 1432 1164" width="1432px" zoomAndPan="magnify"><defs/><g><text fill="#000000" font-family="sans-serif" font-size="14" font-weight="bold" lengthAdjust="spacing" textLength="393" x="521" y="30.1074">System Sequence Diagram (SSD) - US05 - Generate team</text><rect fill="#FFFFFF" height="939.4004" style="stroke:#181818;stroke-width:1.0;" width="10" x="128" y="133.2422"/><rect fill="#FFFFFF" height="31.291" style="stroke:#181818;stroke-width:1.0;" width="10" x="613" y="156.5332"/><rect fill="#FFFFFF" height="57.582" style="stroke:#181818;stroke-width:1.0;" width="10" x="613" y="219.1152"/><rect fill="#FFFFFF" height="149.125" style="stroke:#181818;stroke-width:1.0;" width="10" x="613" y="307.9883"/><rect fill="#FFFFFF" height="401.8223" style="stroke:#181818;stroke-width:1.0;" width="10" x="613" y="488.4043"/><rect fill="#FFFFFF" height="142.125" style="stroke:#181818;stroke-width:1.0;" width="10" x="613" y="921.5176"/><rect fill="#FFFFFF" height="79.543" style="stroke:#181818;stroke-width:1.0;" width="10" x="907" y="339.2793"/><rect fill="#FFFFFF" height="339.2402" style="stroke:#181818;stroke-width:1.0;" width="10" x="907" y="519.6953"/><rect fill="#FFFFFF" height="90.543" style="stroke:#181818;stroke-width:1.0;" width="10" x="912" y="558.9863"/><rect fill="#FFFFFF" height="79.543" style="stroke:#181818;stroke-width:1.0;" width="10" x="907" y="952.8086"/><rect fill="#FFFFFF" height="96.5332" style="stroke:#181818;stroke-width:1.0;" width="10" x="1267" y="724.1113"/><rect fill="none" height="192.707" style="stroke:#000000;stroke-width:1.5;" width="1000" x="10" y="234.1152"/><rect fill="none" height="157.1152" style="stroke:#000000;stroke-width:1.5;" width="612" x="814" y="671.5293"/><line style="stroke:#181818;stroke-width:0.5;stroke-dasharray:5.0,5.0;" x1="133" x2="133" y1="123.2422" y2="1081.6426"/><line style="stroke:#181818;stroke-width:0.5;stroke-dasharray:5.0,5.0;" x1="618" x2="618" y1="123.2422" y2="1081.6426"/><line style="stroke:#181818;stroke-width:0.5;stroke-dasharray:5.0,5.0;" x1="912" x2="912" y1="123.2422" y2="1081.6426"/><line style="stroke:#181818;stroke-width:0.5;stroke-dasharray:5.0,5.0;" x1="1272" x2="1272" y1="731.9414" y2="1081.6426"/><text fill="#000000" font-family="sans-serif" font-size="14" lengthAdjust="spacing" textLength="220" x="20" y="119.7285">Human Resources Manager (HRM)</text><ellipse cx="133" cy="53.1211" fill="#E3E3E3" rx="8" ry="8" style="stroke:#181818;stroke-width:0.5;"/><path d="M133,61.1211 L133,88.1211 M120,69.1211 L146,69.1211 M133,88.1211 L120,103.1211 M133,88.1211 L146,103.1211 " fill="none" style="stroke:#181818;stroke-width:0.5;"/><text fill="#000000" font-family="sans-serif" font-size="14" lengthAdjust="spacing" textLength="220" x="20" y="1095.75">Human Resources Manager (HRM)</text><ellipse cx="133" cy="1107.7637" fill="#E3E3E3" rx="8" ry="8" style="stroke:#181818;stroke-width:0.5;"/><path d="M133,1115.7637 L133,1142.7637 M120,1123.7637 L146,1123.7637 M133,1142.7637 L120,1157.7637 M133,1142.7637 L146,1157.7637 " fill="none" style="stroke:#181818;stroke-width:0.5;"/><rect fill="#E3E3E3" height="32.6211" rx="2.5" ry="2.5" style="stroke:#181818;stroke-width:0.5;" width="126" x="555" y="89.6211"/><text fill="#000000" font-family="sans-serif" font-size="14" lengthAdjust="spacing" textLength="112" x="562" y="111.7285">:GenerateTeamUI</text><rect fill="#E3E3E3" height="32.6211" rx="2.5" ry="2.5" style="stroke:#181818;stroke-width:0.5;" width="126" x="555" y="1080.6426"/><text fill="#000000" font-family="sans-serif" font-size="14" lengthAdjust="spacing" textLength="112" x="562" y="1102.75">:GenerateTeamUI</text><rect fill="#E3E3E3" height="32.6211" rx="2.5" ry="2.5" style="stroke:#181818;stroke-width:0.5;" width="176" x="824" y="89.6211"/><text fill="#000000" font-family="sans-serif" font-size="14" lengthAdjust="spacing" textLength="162" x="831" y="111.7285">:GenerateTeamController</text><rect fill="#E3E3E3" height="32.6211" rx="2.5" ry="2.5" style="stroke:#181818;stroke-width:0.5;" width="176" x="824" y="1080.6426"/><text fill="#000000" font-family="sans-serif" font-size="14" lengthAdjust="spacing" textLength="162" x="831" y="1102.75">:GenerateTeamController</text><rect fill="#E3E3E3" height="51.2422" rx="2.5" ry="2.5" style="stroke:#181818;stroke-width:0.5;" width="54" x="1245" y="1080.6426"/><text fill="#000000" font-family="sans-serif" font-size="14" lengthAdjust="spacing" textLength="31" x="1256.5" y="1102.75">team</text><text fill="#000000" font-family="sans-serif" font-size="14" lengthAdjust="spacing" textLength="40" x="1252" y="1121.3711">:Team</text><rect fill="#FFFFFF" height="939.4004" style="stroke:#181818;stroke-width:1.0;" width="10" x="128" y="133.2422"/><rect fill="#FFFFFF" height="31.291" style="stroke:#181818;stroke-width:1.0;" width="10" x="613" y="156.5332"/><rect fill="#FFFFFF" height="57.582" style="stroke:#181818;stroke-width:1.0;" width="10" x="613" y="219.1152"/><rect fill="#FFFFFF" height="149.125" style="stroke:#181818;stroke-width:1.0;" width="10" x="613" y="307.9883"/><rect fill="#FFFFFF" height="401.8223" style="stroke:#181818;stroke-width:1.0;" width="10" x="613" y="488.4043"/><rect fill="#FFFFFF" height="142.125" style="stroke:#181818;stroke-width:1.0;" width="10" x="613" y="921.5176"/><rect fill="#FFFFFF" height="79.543" style="stroke:#181818;stroke-width:1.0;" width="10" x="907" y="339.2793"/><rect fill="#FFFFFF" height="339.2402" style="stroke:#181818;stroke-width:1.0;" width="10" x="907" y="519.6953"/><rect fill="#FFFFFF" height="90.543" style="stroke:#181818;stroke-width:1.0;" width="10" x="912" y="558.9863"/><rect fill="#FFFFFF" height="79.543" style="stroke:#181818;stroke-width:1.0;" width="10" x="907" y="952.8086"/><rect fill="#FFFFFF" height="96.5332" style="stroke:#181818;stroke-width:1.0;" width="10" x="1267" y="724.1113"/><polygon fill="#181818" points="601,152.5332,611,156.5332,601,160.5332,605,156.5332" style="stroke:#181818;stroke-width:1.0;"/><line style="stroke:#181818;stroke-width:1.0;" x1="138" x2="607" y1="156.5332" y2="156.5332"/><text fill="#000000" font-family="sans-serif" font-size="13" font-weight="bold" lengthAdjust="spacing" textLength="7" x="145" y="151.2705">1</text><text fill="#000000" font-family="sans-serif" font-size="13" lengthAdjust="spacing" textLength="235" x="156" y="151.2705">asks to generate a new proposals teams</text><polygon fill="#181818" points="149,183.8242,139,187.8242,149,191.8242,145,187.8242" style="stroke:#181818;stroke-width:1.0;"/><line style="stroke:#181818;stroke-width:1.0;stroke-dasharray:2.0,2.0;" x1="143" x2="617" y1="187.8242" y2="187.8242"/><text fill="#000000" font-family="sans-serif" font-size="13" font-weight="bold" lengthAdjust="spacing" textLength="7" x="155" y="182.5615">2</text><text fill="#000000" font-family="sans-serif" font-size="13" lengthAdjust="spacing" textLength="376" x="166" y="182.5615">requests data (team max size,team min size, skills number size)</text><polygon fill="#181818" points="601,215.1152,611,219.1152,601,223.1152,605,219.1152" style="stroke:#181818;stroke-width:1.0;"/><line style="stroke:#181818;stroke-width:1.0;" x1="138" x2="607" y1="219.1152" y2="219.1152"/><text fill="#000000" font-family="sans-serif" font-size="13" font-weight="bold" lengthAdjust="spacing" textLength="7" x="145" y="213.8525">3</text><text fill="#000000" font-family="sans-serif" font-size="13" lengthAdjust="spacing" textLength="122" x="156" y="213.8525">types requested data</text><path d="M10,234.1152 L83,234.1152 L83,243.4063 L73,253.4063 L10,253.4063 L10,234.1152 " fill="#EEEEEE" style="stroke:#000000;stroke-width:1.5;"/><rect fill="none" height="192.707" style="stroke:#000000;stroke-width:1.5;" width="1000" x="10" y="234.1152"/><text fill="#000000" font-family="sans-serif" font-size="13" font-weight="bold" lengthAdjust="spacing" textLength="28" x="25" y="249.1436">loop</text><text fill="#000000" font-family="sans-serif" font-size="11" font-weight="bold" lengthAdjust="spacing" textLength="104" x="98" y="247.9854">[skill number size]</text><polygon fill="#181818" points="149,272.6973,139,276.6973,149,280.6973,145,276.6973" style="stroke:#181818;stroke-width:1.0;"/><line style="stroke:#181818;stroke-width:1.0;stroke-dasharray:2.0,2.0;" x1="143" x2="617" y1="276.6973" y2="276.6973"/><text fill="#000000" font-family="sans-serif" font-size="13" font-weight="bold" lengthAdjust="spacing" textLength="7" x="155" y="271.4346">4</text><text fill="#000000" font-family="sans-serif" font-size="13" lengthAdjust="spacing" textLength="148" x="166" y="271.4346">requests data (skillName)</text><polygon fill="#181818" points="601,303.9883,611,307.9883,601,311.9883,605,307.9883" style="stroke:#181818;stroke-width:1.0;"/><line style="stroke:#181818;stroke-width:1.0;" x1="138" x2="607" y1="307.9883" y2="307.9883"/><text fill="#000000" font-family="sans-serif" font-size="13" font-weight="bold" lengthAdjust="spacing" textLength="7" x="145" y="302.7256">5</text><text fill="#000000" font-family="sans-serif" font-size="13" lengthAdjust="spacing" textLength="106" x="156" y="302.7256">insert a skill name</text><polygon fill="#181818" points="895,335.2793,905,339.2793,895,343.2793,899,339.2793" style="stroke:#181818;stroke-width:1.0;"/><line style="stroke:#181818;stroke-width:1.0;" x1="623" x2="901" y1="339.2793" y2="339.2793"/><text fill="#000000" font-family="sans-serif" font-size="13" font-weight="bold" lengthAdjust="spacing" textLength="7" x="630" y="334.0166">6</text><text fill="#000000" font-family="sans-serif" font-size="13" lengthAdjust="spacing" textLength="161" x="641" y="334.0166">hasSkillByName(skillName)</text><rect fill="none" height="43.252" style="stroke:#000000;stroke-width:1.5;" width="182" x="821" y="347.2793"/><path d="M821,347.2793 L883,347.2793 L883,356.2793 L873,366.2793 L821,366.2793 L821,347.2793 " fill="#EEEEEE" style="stroke:#000000;stroke-width:2.0;"/><text fill="#000000" font-family="sans-serif" font-size="13" font-weight="bold" lengthAdjust="spacing" textLength="17" x="834" y="363.3076">ref</text><text fill="#000000" font-family="sans-serif" font-size="12" lengthAdjust="spacing" textLength="100" x="862" y="383.2285">has Skill By Name</text><polygon fill="#181818" points="634,414.8223,624,418.8223,634,422.8223,630,418.8223" style="stroke:#181818;stroke-width:1.0;"/><line style="stroke:#181818;stroke-width:1.0;stroke-dasharray:2.0,2.0;" x1="628" x2="911" y1="418.8223" y2="418.8223"/><text fill="#000000" font-family="sans-serif" font-size="13" font-weight="bold" lengthAdjust="spacing" textLength="7" x="640" y="413.5596">7</text><text fill="#000000" font-family="sans-serif" font-size="13" lengthAdjust="spacing" textLength="53" x="651" y="413.5596">true/false</text><polygon fill="#181818" points="149,453.1133,139,457.1133,149,461.1133,145,457.1133" style="stroke:#181818;stroke-width:1.0;"/><line style="stroke:#181818;stroke-width:1.0;stroke-dasharray:2.0,2.0;" x1="143" x2="617" y1="457.1133" y2="457.1133"/><text fill="#000000" font-family="sans-serif" font-size="13" font-weight="bold" lengthAdjust="spacing" textLength="7" x="155" y="451.8506">8</text><text fill="#000000" font-family="sans-serif" font-size="13" lengthAdjust="spacing" textLength="236" x="166" y="451.8506">shows all data and requests confirmation</text><polygon fill="#181818" points="601,484.4043,611,488.4043,601,492.4043,605,488.4043" style="stroke:#181818;stroke-width:1.0;"/><line style="stroke:#181818;stroke-width:1.0;" x1="138" x2="607" y1="488.4043" y2="488.4043"/><text fill="#000000" font-family="sans-serif" font-size="13" font-weight="bold" lengthAdjust="spacing" textLength="7" x="145" y="483.1416">9</text><text fill="#000000" font-family="sans-serif" font-size="13" lengthAdjust="spacing" textLength="78" x="156" y="483.1416">confirms data</text><polygon fill="#181818" points="895,515.6953,905,519.6953,895,523.6953,899,519.6953" style="stroke:#181818;stroke-width:1.0;"/><line style="stroke:#181818;stroke-width:1.0;" x1="623" x2="901" y1="519.6953" y2="519.6953"/><text fill="#000000" font-family="sans-serif" font-size="13" font-weight="bold" lengthAdjust="spacing" textLength="14" x="630" y="514.4326">10</text><text fill="#000000" font-family="sans-serif" font-size="13" lengthAdjust="spacing" textLength="247" x="648" y="514.4326">generateTeams(minSize,maxSize,skillList)</text><line style="stroke:#181818;stroke-width:1.0;" x1="917" x2="964" y1="545.9863" y2="545.9863"/><line style="stroke:#181818;stroke-width:1.0;" x1="964" x2="964" y1="545.9863" y2="558.9863"/><line style="stroke:#181818;stroke-width:1.0;" x1="923" x2="964" y1="558.9863" y2="558.9863"/><polygon fill="#181818" points="933,554.9863,923,558.9863,933,562.9863,929,558.9863" style="stroke:#181818;stroke-width:1.0;"/><text fill="#000000" font-family="sans-serif" font-size="13" font-weight="bold" lengthAdjust="spacing" textLength="14" x="929" y="540.7236">11</text><text fill="#000000" font-family="sans-serif" font-size="13" lengthAdjust="spacing" textLength="180" x="947" y="540.7236">getCollaboratorBySkill(skillList)</text><rect fill="none" height="43.252" style="stroke:#000000;stroke-width:1.5;" width="182" x="821" y="571.9863"/><path d="M821,571.9863 L883,571.9863 L883,580.9863 L873,590.9863 L821,590.9863 L821,571.9863 " fill="#EEEEEE" style="stroke:#000000;stroke-width:2.0;"/><text fill="#000000" font-family="sans-serif" font-size="13" font-weight="bold" lengthAdjust="spacing" textLength="17" x="834" y="588.0146">ref</text><text fill="#000000" font-family="sans-serif" font-size="12" lengthAdjust="spacing" textLength="132" x="846" y="607.9355">Get Collaborator By Skill</text><line style="stroke:#181818;stroke-width:1.0;stroke-dasharray:2.0,2.0;" x1="922" x2="964" y1="648.5293" y2="648.5293"/><line style="stroke:#181818;stroke-width:1.0;stroke-dasharray:2.0,2.0;" x1="964" x2="964" y1="648.5293" y2="661.5293"/><line style="stroke:#181818;stroke-width:1.0;stroke-dasharray:2.0,2.0;" x1="917" x2="964" y1="661.5293" y2="661.5293"/><polygon fill="#181818" points="927,657.5293,917,661.5293,927,665.5293,923,661.5293" style="stroke:#181818;stroke-width:1.0;"/><text fill="#000000" font-family="sans-serif" font-size="13" font-weight="bold" lengthAdjust="spacing" textLength="14" x="929" y="643.2666">12</text><text fill="#000000" font-family="sans-serif" font-size="13" lengthAdjust="spacing" textLength="88" x="947" y="643.2666">collaboratorList</text><path d="M814,671.5293 L887,671.5293 L887,680.8203 L877,690.8203 L814,690.8203 L814,671.5293 " fill="#EEEEEE" style="stroke:#000000;stroke-width:1.5;"/><rect fill="none" height="157.1152" style="stroke:#000000;stroke-width:1.5;" width="612" x="814" y="671.5293"/><text fill="#000000" font-family="sans-serif" font-size="13" font-weight="bold" lengthAdjust="spacing" textLength="28" x="829" y="686.5576">loop</text><text fill="#000000" font-family="sans-serif" font-size="11" font-weight="bold" lengthAdjust="spacing" textLength="115" x="902" y="685.3994">[Proposal Team List]</text><polygon fill="#181818" points="1233,710.1113,1243,714.1113,1233,718.1113,1237,714.1113" style="stroke:#181818;stroke-width:1.0;"/><line style="stroke:#181818;stroke-width:1.0;" x1="917" x2="1239" y1="714.1113" y2="714.1113"/><text fill="#000000" font-family="sans-serif" font-size="13" font-weight="bold" lengthAdjust="spacing" textLength="14" x="924" y="708.8486">13</text><text fill="#000000" font-family="sans-serif" font-size="13" lengthAdjust="spacing" textLength="286" x="942" y="708.8486">create(minSize,maxSize,collaboratorList,skillList)</text><rect fill="#E3E3E3" height="51.2422" rx="2.5" ry="2.5" style="stroke:#181818;stroke-width:0.5;" width="54" x="1245" y="690.8203"/><text fill="#000000" font-family="sans-serif" font-size="14" lengthAdjust="spacing" textLength="31" x="1256.5" y="712.9277">team</text><text fill="#000000" font-family="sans-serif" font-size="14" lengthAdjust="spacing" textLength="40" x="1252" y="731.5488">:Team</text><line style="stroke:#181818;stroke-width:1.0;" x1="1277" x2="1319" y1="776.3535" y2="776.3535"/><line style="stroke:#181818;stroke-width:1.0;" x1="1319" x2="1319" y1="776.3535" y2="789.3535"/><line style="stroke:#181818;stroke-width:1.0;" x1="1278" x2="1319" y1="789.3535" y2="789.3535"/><polygon fill="#181818" points="1288,785.3535,1278,789.3535,1288,793.3535,1284,789.3535" style="stroke:#181818;stroke-width:1.0;"/><text fill="#000000" font-family="sans-serif" font-size="13" font-weight="bold" lengthAdjust="spacing" textLength="14" x="1284" y="771.0908">14</text><text fill="#000000" font-family="sans-serif" font-size="13" lengthAdjust="spacing" textLength="112" x="1302" y="771.0908">validateTeam(team)</text><polygon fill="#181818" points="928,816.6445,918,820.6445,928,824.6445,924,820.6445" style="stroke:#181818;stroke-width:1.0;"/><line style="stroke:#181818;stroke-width:1.0;stroke-dasharray:2.0,2.0;" x1="922" x2="1271" y1="820.6445" y2="820.6445"/><text fill="#000000" font-family="sans-serif" font-size="13" font-weight="bold" lengthAdjust="spacing" textLength="14" x="934" y="815.3818">15</text><text fill="#000000" font-family="sans-serif" font-size="13" lengthAdjust="spacing" textLength="29" x="952" y="815.3818">team</text><polygon fill="#181818" points="634,854.9355,624,858.9355,634,862.9355,630,858.9355" style="stroke:#181818;stroke-width:1.0;"/><line style="stroke:#181818;stroke-width:1.0;stroke-dasharray:2.0,2.0;" x1="628" x2="911" y1="858.9355" y2="858.9355"/><text fill="#000000" font-family="sans-serif" font-size="13" font-weight="bold" lengthAdjust="spacing" textLength="14" x="640" y="853.6729">16</text><text fill="#000000" font-family="sans-serif" font-size="13" lengthAdjust="spacing" textLength="57" x="658" y="853.6729">teamsList</text><polygon fill="#181818" points="149,886.2266,139,890.2266,149,894.2266,145,890.2266" style="stroke:#181818;stroke-width:1.0;"/><line style="stroke:#181818;stroke-width:1.0;stroke-dasharray:2.0,2.0;" x1="143" x2="617" y1="890.2266" y2="890.2266"/><text fill="#000000" font-family="sans-serif" font-size="13" font-weight="bold" lengthAdjust="spacing" textLength="14" x="155" y="884.9639">17</text><text fill="#000000" font-family="sans-serif" font-size="13" lengthAdjust="spacing" textLength="433" x="173" y="884.9639">shows the list of the team's proposals and asks you to choose one of them</text><polygon fill="#181818" points="601,917.5176,611,921.5176,601,925.5176,605,921.5176" style="stroke:#181818;stroke-width:1.0;"/><line style="stroke:#181818;stroke-width:1.0;" x1="138" x2="607" y1="921.5176" y2="921.5176"/><text fill="#000000" font-family="sans-serif" font-size="13" font-weight="bold" lengthAdjust="spacing" textLength="14" x="145" y="916.2549">18</text><text fill="#000000" font-family="sans-serif" font-size="13" lengthAdjust="spacing" textLength="241" x="163" y="916.2549">choose one of the proposals and confirms</text><polygon fill="#181818" points="895,948.8086,905,952.8086,895,956.8086,899,952.8086" style="stroke:#181818;stroke-width:1.0;"/><line style="stroke:#181818;stroke-width:1.0;" x1="623" x2="901" y1="952.8086" y2="952.8086"/><text fill="#000000" font-family="sans-serif" font-size="13" font-weight="bold" lengthAdjust="spacing" textLength="14" x="630" y="947.5459">19</text><text fill="#000000" font-family="sans-serif" font-size="13" lengthAdjust="spacing" textLength="163" x="648" y="947.5459">registerProposalTeam(team)</text><rect fill="none" height="43.252" style="stroke:#000000;stroke-width:1.5;" width="182" x="821" y="960.8086"/><path d="M821,960.8086 L883,960.8086 L883,969.8086 L873,979.8086 L821,979.8086 L821,960.8086 " fill="#EEEEEE" style="stroke:#000000;stroke-width:2.0;"/><text fill="#000000" font-family="sans-serif" font-size="13" font-weight="bold" lengthAdjust="spacing" textLength="17" x="834" y="976.8369">ref</text><text fill="#000000" font-family="sans-serif" font-size="12" lengthAdjust="spacing" textLength="135" x="844.5" y="996.7578">Register Proposal Team</text><polygon fill="#181818" points="634,1028.3516,624,1032.3516,634,1036.3516,630,1032.3516" style="stroke:#181818;stroke-width:1.0;"/><line style="stroke:#181818;stroke-width:1.0;stroke-dasharray:2.0,2.0;" x1="628" x2="911" y1="1032.3516" y2="1032.3516"/><text fill="#000000" font-family="sans-serif" font-size="13" font-weight="bold" lengthAdjust="spacing" textLength="14" x="640" y="1027.0889">20</text><text fill="#000000" font-family="sans-serif" font-size="13" lengthAdjust="spacing" textLength="29" x="658" y="1027.0889">team</text><polygon fill="#181818" points="149,1059.6426,139,1063.6426,149,1067.6426,145,1063.6426" style="stroke:#181818;stroke-width:1.0;"/><line style="stroke:#181818;stroke-width:1.0;stroke-dasharray:2.0,2.0;" x1="143" x2="617" y1="1063.6426" y2="1063.6426"/><text fill="#000000" font-family="sans-serif" font-size="13" font-weight="bold" lengthAdjust="spacing" textLength="14" x="155" y="1058.3799">21</text><text fill="#000000" font-family="sans-serif" font-size="13" lengthAdjust="spacing" textLength="158" x="173" y="1058.3799">displays operation success</text><!--SRC=[dLRDRjim3BxhAOXUcWmBjiikEHHOsw4jq0n3tDvsKMt65cfBdYItyrveJx0dw8kDbEtC-RKpNUmavCUF_2WoxbdfKbfPG66qYJDh2WHlAnHk_KifusUPOkJh7C5YxALEyxw1osHYNfLEOILpXq9uvSaqgft70YByKQ6E4QwLJDby4aNNKvZ1O_Jn4prkKAELdiAYB8IGbJUwAfxGqdliZOMpswgG6fReJ6LZTB2GclXOcDmk5zCpa0xeHH0Nhs9LIktXRDwXFX3eurqmUhmxOdDbjBScpz46swlb_QOna_kkvsmQ31w-V5w8m52zC7bc07JExxGdqBVVRt-8QMmA3WkzGuOmkw1lOKuupmwyWRGhWGIDhr1QKnf7fGmbSS5z7OZWDl08Q4Pu33idTQZMpZj8f9SmONSev4zmwXU-RpuftNm2qY-d44sjmtVJ09pWmLXzxhukAS4s82OXuWxJpZ4tfcm2zkEDJoIuVfK5KJo5ez8EhQUgjg49G0nNyuBL9-zCkeZzBckEtEVGzx2u0lD26N7BmDOX20WOS5a3-svOe4xOVPF1cXhZYHr4EinkjfQ1xkg7zjhrZNeL2a1TF5P2276az2uphmuaSGwrbu5agqPiz4hPGdfbz2b2j7vkVvSSL23jNL0teTQDk7EfeSCp27Ald9yUg-3UwlqBuA_eqiidGs6ClQo3M9D3o8Dwyxb13trGbZx0xbXt-iF0EPxGeVPeCenxJ3YZOVzzdNFidAy7U9095kWpampwXP7mhPrqmHL6yMlru_dxxXqdQ95YxpJ7TjxzRXbRxZ3ZOVYm7N4AZpcyo5mbRTE62JmLuq7MkZNBSBnKOxXIlutkdcQuiA33gcntZ1ZRJdlcZiyGSee8PXNUcSAvwwr4daTXRzQcujqPPyOu1AEnTIbEMX4xxbkXkiabJbWS5bFA06tNtOSwuUWeMROWctVavFsnR_vjwFj_OYNAbRci7PYIxpwj0t1LJ7_Et9xg_mK0]--></g></svg>