<?xml version="1.0" encoding="us-ascii" standalone="no"?><svg xmlns="http://www.w3.org/2000/svg" xmlns:xlink="http://www.w3.org/1999/xlink" contentStyleType="text/css" height="1244px" preserveAspectRatio="none" style="width:954px;height:1244px;background:#FFFFFF;" version="1.1" viewBox="0 0 954 1244" width="954px" zoomAndPan="magnify"><defs/><g><!--class GenerateTeamController--><g id="elem_GenerateTeamController"><rect codeLine="11" fill="#F1F1F1" height="159.7266" id="GenerateTeamController" rx="2.5" ry="2.5" style="stroke:#181818;stroke-width:0.5;" width="356" x="182" y="7"/><ellipse cx="276.75" cy="23" fill="#ADD1B2" rx="11" ry="11" style="stroke:#181818;stroke-width:1.0;"/><path d="M279.5156,18.875 Q279.6719,18.6563 279.8594,18.5469 Q280.0469,18.4375 280.2656,18.4375 Q280.6406,18.4375 280.875,18.7031 Q281.1094,18.9531 281.1094,19.5625 L281.1094,21.0156 Q281.1094,21.625 280.875,21.8906 Q280.6406,22.1563 280.2656,22.1563 Q279.9219,22.1563 279.7188,21.9531 Q279.5156,21.7656 279.4063,21.25 Q279.3594,20.8906 279.1719,20.7031 Q278.8438,20.3281 278.2344,20.1094 Q277.625,19.8906 277,19.8906 Q276.2344,19.8906 275.5938,20.2188 Q274.9688,20.5469 274.4688,21.2969 Q273.9844,22.0469 273.9844,23.0781 L273.9844,24.1719 Q273.9844,25.4063 274.875,26.2344 Q275.7656,27.0469 277.3594,27.0469 Q278.2969,27.0469 278.9531,26.7969 Q279.3438,26.6406 279.7656,26.2031 Q280.0313,25.9375 280.1719,25.8594 Q280.3281,25.7813 280.5313,25.7813 Q280.8594,25.7813 281.1094,26.0469 Q281.375,26.2969 281.375,26.6406 Q281.375,26.9844 281.0313,27.3906 Q280.5313,27.9688 279.7344,28.2969 Q278.6563,28.75 277.3594,28.75 Q275.8438,28.75 274.6406,28.125 Q273.6563,27.625 272.9688,26.5625 Q272.2813,25.4844 272.2813,24.2031 L272.2813,23.0469 Q272.2813,21.7188 272.8906,20.5781 Q273.5156,19.4219 274.6094,18.8125 Q275.7031,18.1875 276.9375,18.1875 Q277.6719,18.1875 278.3125,18.3594 Q278.9688,18.5156 279.5156,18.875 Z " fill="#000000"/><text fill="#000000" font-family="sans-serif" font-size="14" lengthAdjust="spacing" textLength="158" x="297.25" y="28.7969">GenerateTeamController</text><line style="stroke:#181818;stroke-width:0.5;" x1="183" x2="537" y1="39" y2="39"/><line style="stroke:#181818;stroke-width:0.5;" x1="183" x2="537" y1="47" y2="47"/><text fill="#000000" font-family="sans-serif" font-size="14" lengthAdjust="spacing" textLength="199" x="188" y="66.1074">-getCollaboratorBySkill(skillList)</text><text fill="#000000" font-family="sans-serif" font-size="14" lengthAdjust="spacing" textLength="344" x="188" y="84.7285">-createTeam(minSize,maxSize,collaboratorList,skillList)</text><text fill="#000000" font-family="sans-serif" font-size="14" lengthAdjust="spacing" textLength="176" x="188" y="103.3496">+GenerateTeamController()</text><text fill="#000000" font-family="sans-serif" font-size="14" lengthAdjust="spacing" textLength="177" x="188" y="121.9707">+hasSkillByName(skillName)</text><text fill="#000000" font-family="sans-serif" font-size="14" lengthAdjust="spacing" textLength="270" x="188" y="140.5918">+generateTeams(minSize,maxSize,skillList)</text><text fill="#000000" font-family="sans-serif" font-size="14" lengthAdjust="spacing" textLength="189" x="188" y="159.2129">+registerProposalTeam(team)</text></g><!--class Team--><g id="elem_Team"><rect codeLine="20" fill="#F1F1F1" height="103.8633" id="Team" rx="2.5" ry="2.5" style="stroke:#181818;stroke-width:0.5;" width="215" x="305.5" y="1134"/><ellipse cx="390.75" cy="1150" fill="#ADD1B2" rx="11" ry="11" style="stroke:#181818;stroke-width:1.0;"/><path d="M393.5156,1145.875 Q393.6719,1145.6563 393.8594,1145.5469 Q394.0469,1145.4375 394.2656,1145.4375 Q394.6406,1145.4375 394.875,1145.7031 Q395.1094,1145.9531 395.1094,1146.5625 L395.1094,1148.0156 Q395.1094,1148.625 394.875,1148.8906 Q394.6406,1149.1563 394.2656,1149.1563 Q393.9219,1149.1563 393.7188,1148.9531 Q393.5156,1148.7656 393.4063,1148.25 Q393.3594,1147.8906 393.1719,1147.7031 Q392.8438,1147.3281 392.2344,1147.1094 Q391.625,1146.8906 391,1146.8906 Q390.2344,1146.8906 389.5938,1147.2188 Q388.9688,1147.5469 388.4688,1148.2969 Q387.9844,1149.0469 387.9844,1150.0781 L387.9844,1151.1719 Q387.9844,1152.4063 388.875,1153.2344 Q389.7656,1154.0469 391.3594,1154.0469 Q392.2969,1154.0469 392.9531,1153.7969 Q393.3438,1153.6406 393.7656,1153.2031 Q394.0313,1152.9375 394.1719,1152.8594 Q394.3281,1152.7813 394.5313,1152.7813 Q394.8594,1152.7813 395.1094,1153.0469 Q395.375,1153.2969 395.375,1153.6406 Q395.375,1153.9844 395.0313,1154.3906 Q394.5313,1154.9688 393.7344,1155.2969 Q392.6563,1155.75 391.3594,1155.75 Q389.8438,1155.75 388.6406,1155.125 Q387.6563,1154.625 386.9688,1153.5625 Q386.2813,1152.4844 386.2813,1151.2031 L386.2813,1150.0469 Q386.2813,1148.7188 386.8906,1147.5781 Q387.5156,1146.4219 388.6094,1145.8125 Q389.7031,1145.1875 390.9375,1145.1875 Q391.6719,1145.1875 392.3125,1145.3594 Q392.9688,1145.5156 393.5156,1145.875 Z " fill="#000000"/><text fill="#000000" font-family="sans-serif" font-size="14" lengthAdjust="spacing" textLength="36" x="411.25" y="1155.7969">Team</text><line style="stroke:#181818;stroke-width:0.5;" x1="306.5" x2="519.5" y1="1166" y2="1166"/><text fill="#000000" font-family="sans-serif" font-size="14" lengthAdjust="spacing" textLength="203" x="311.5" y="1185.1074">-List&lt;Collaborator&gt; Collaborator</text><line style="stroke:#181818;stroke-width:0.5;" x1="306.5" x2="519.5" y1="1192.6211" y2="1192.6211"/><text fill="#000000" font-family="sans-serif" font-size="14" lengthAdjust="spacing" textLength="170" x="311.5" y="1211.7285">+Team(List&lt;Collaborator&gt;)</text><text fill="#000000" font-family="sans-serif" font-size="14" lengthAdjust="spacing" textLength="154" x="311.5" y="1230.3496">-validateVehicle(vehicle)</text></g><!--class GenerateTeamUI--><g id="elem_GenerateTeamUI"><rect codeLine="26" fill="#F1F1F1" height="48" id="GenerateTeamUI" rx="2.5" ry="2.5" style="stroke:#181818;stroke-width:0.5;" width="140" x="7" y="63"/><ellipse cx="22" cy="79" fill="#ADD1B2" rx="11" ry="11" style="stroke:#181818;stroke-width:1.0;"/><path d="M24.7656,74.875 Q24.9219,74.6563 25.1094,74.5469 Q25.2969,74.4375 25.5156,74.4375 Q25.8906,74.4375 26.125,74.7031 Q26.3594,74.9531 26.3594,75.5625 L26.3594,77.0156 Q26.3594,77.625 26.125,77.8906 Q25.8906,78.1563 25.5156,78.1563 Q25.1719,78.1563 24.9688,77.9531 Q24.7656,77.7656 24.6563,77.25 Q24.6094,76.8906 24.4219,76.7031 Q24.0938,76.3281 23.4844,76.1094 Q22.875,75.8906 22.25,75.8906 Q21.4844,75.8906 20.8438,76.2188 Q20.2188,76.5469 19.7188,77.2969 Q19.2344,78.0469 19.2344,79.0781 L19.2344,80.1719 Q19.2344,81.4063 20.125,82.2344 Q21.0156,83.0469 22.6094,83.0469 Q23.5469,83.0469 24.2031,82.7969 Q24.5938,82.6406 25.0156,82.2031 Q25.2813,81.9375 25.4219,81.8594 Q25.5781,81.7813 25.7813,81.7813 Q26.1094,81.7813 26.3594,82.0469 Q26.625,82.2969 26.625,82.6406 Q26.625,82.9844 26.2813,83.3906 Q25.7813,83.9688 24.9844,84.2969 Q23.9063,84.75 22.6094,84.75 Q21.0938,84.75 19.8906,84.125 Q18.9063,83.625 18.2188,82.5625 Q17.5313,81.4844 17.5313,80.2031 L17.5313,79.0469 Q17.5313,77.7188 18.1406,76.5781 Q18.7656,75.4219 19.8594,74.8125 Q20.9531,74.1875 22.1875,74.1875 Q22.9219,74.1875 23.5625,74.3594 Q24.2188,74.5156 24.7656,74.875 Z " fill="#000000"/><text fill="#000000" font-family="sans-serif" font-size="14" lengthAdjust="spacing" textLength="108" x="36" y="84.7969">GenerateTeamUI</text><line style="stroke:#181818;stroke-width:0.5;" x1="8" x2="146" y1="95" y2="95"/><line style="stroke:#181818;stroke-width:0.5;" x1="8" x2="146" y1="103" y2="103"/></g><!--class Collaborator--><g id="elem_Collaborator"><rect codeLine="29" fill="#F1F1F1" height="252.832" id="Collaborator" rx="2.5" ry="2.5" style="stroke:#181818;stroke-width:0.5;" width="628" x="95" y="693"/><ellipse cx="365.75" cy="709" fill="#ADD1B2" rx="11" ry="11" style="stroke:#181818;stroke-width:1.0;"/><path d="M368.5156,704.875 Q368.6719,704.6563 368.8594,704.5469 Q369.0469,704.4375 369.2656,704.4375 Q369.6406,704.4375 369.875,704.7031 Q370.1094,704.9531 370.1094,705.5625 L370.1094,707.0156 Q370.1094,707.625 369.875,707.8906 Q369.6406,708.1563 369.2656,708.1563 Q368.9219,708.1563 368.7188,707.9531 Q368.5156,707.7656 368.4063,707.25 Q368.3594,706.8906 368.1719,706.7031 Q367.8438,706.3281 367.2344,706.1094 Q366.625,705.8906 366,705.8906 Q365.2344,705.8906 364.5938,706.2188 Q363.9688,706.5469 363.4688,707.2969 Q362.9844,708.0469 362.9844,709.0781 L362.9844,710.1719 Q362.9844,711.4063 363.875,712.2344 Q364.7656,713.0469 366.3594,713.0469 Q367.2969,713.0469 367.9531,712.7969 Q368.3438,712.6406 368.7656,712.2031 Q369.0313,711.9375 369.1719,711.8594 Q369.3281,711.7813 369.5313,711.7813 Q369.8594,711.7813 370.1094,712.0469 Q370.375,712.2969 370.375,712.6406 Q370.375,712.9844 370.0313,713.3906 Q369.5313,713.9688 368.7344,714.2969 Q367.6563,714.75 366.3594,714.75 Q364.8438,714.75 363.6406,714.125 Q362.6563,713.625 361.9688,712.5625 Q361.2813,711.4844 361.2813,710.2031 L361.2813,709.0469 Q361.2813,707.7188 361.8906,706.5781 Q362.5156,705.4219 363.6094,704.8125 Q364.7031,704.1875 365.9375,704.1875 Q366.6719,704.1875 367.3125,704.3594 Q367.9688,704.5156 368.5156,704.875 Z " fill="#000000"/><text fill="#000000" font-family="sans-serif" font-size="14" lengthAdjust="spacing" textLength="78" x="386.25" y="714.7969">Collaborator</text><line style="stroke:#181818;stroke-width:0.5;" x1="96" x2="722" y1="725" y2="725"/><text fill="#000000" font-family="sans-serif" font-size="14" lengthAdjust="spacing" textLength="81" x="101" y="744.1074">-String name</text><text fill="#000000" font-family="sans-serif" font-size="14" lengthAdjust="spacing" textLength="99" x="101" y="762.7285">-List &lt;Skill&gt; skill</text><text fill="#000000" font-family="sans-serif" font-size="14" lengthAdjust="spacing" textLength="50" x="101" y="781.3496">-Job job</text><text fill="#000000" font-family="sans-serif" font-size="14" lengthAdjust="spacing" textLength="111" x="101" y="799.9707">-Date dateOfBirth</text><text fill="#000000" font-family="sans-serif" font-size="14" lengthAdjust="spacing" textLength="132" x="101" y="818.5918">-Date admissionDate</text><text fill="#000000" font-family="sans-serif" font-size="14" lengthAdjust="spacing" textLength="112" x="101" y="837.2129">-Address address</text><text fill="#000000" font-family="sans-serif" font-size="14" lengthAdjust="spacing" textLength="113" x="101" y="855.834">-int phoneNumber</text><text fill="#000000" font-family="sans-serif" font-size="14" lengthAdjust="spacing" textLength="79" x="101" y="874.4551">-String email</text><text fill="#000000" font-family="sans-serif" font-size="14" lengthAdjust="spacing" textLength="38" x="101" y="893.0762">-int cc</text><text fill="#000000" font-family="sans-serif" font-size="14" lengthAdjust="spacing" textLength="101" x="101" y="911.6973">-int cardNumber</text><line style="stroke:#181818;stroke-width:0.5;" x1="96" x2="722" y1="919.2109" y2="919.2109"/><text fill="#000000" font-family="sans-serif" font-size="14" lengthAdjust="spacing" textLength="616" x="101" y="938.3184">+Collaborator(name, dateOfBirth, admissionDate, address, phoneNumber, email, cc, cardNumber)</text></g><!--class HumanResourcesManager--><g id="elem_HumanResourcesManager"><rect codeLine="72" fill="#F1F1F1" height="48" id="HumanResourcesManager" rx="2.5" ry="2.5" style="stroke:#181818;stroke-width:0.5;" width="200" x="438" y="1007"/><ellipse cx="453" cy="1023" fill="#ADD1B2" rx="11" ry="11" style="stroke:#181818;stroke-width:1.0;"/><path d="M455.7656,1018.875 Q455.9219,1018.6563 456.1094,1018.5469 Q456.2969,1018.4375 456.5156,1018.4375 Q456.8906,1018.4375 457.125,1018.7031 Q457.3594,1018.9531 457.3594,1019.5625 L457.3594,1021.0156 Q457.3594,1021.625 457.125,1021.8906 Q456.8906,1022.1563 456.5156,1022.1563 Q456.1719,1022.1563 455.9688,1021.9531 Q455.7656,1021.7656 455.6563,1021.25 Q455.6094,1020.8906 455.4219,1020.7031 Q455.0938,1020.3281 454.4844,1020.1094 Q453.875,1019.8906 453.25,1019.8906 Q452.4844,1019.8906 451.8438,1020.2188 Q451.2188,1020.5469 450.7188,1021.2969 Q450.2344,1022.0469 450.2344,1023.0781 L450.2344,1024.1719 Q450.2344,1025.4063 451.125,1026.2344 Q452.0156,1027.0469 453.6094,1027.0469 Q454.5469,1027.0469 455.2031,1026.7969 Q455.5938,1026.6406 456.0156,1026.2031 Q456.2813,1025.9375 456.4219,1025.8594 Q456.5781,1025.7813 456.7813,1025.7813 Q457.1094,1025.7813 457.3594,1026.0469 Q457.625,1026.2969 457.625,1026.6406 Q457.625,1026.9844 457.2813,1027.3906 Q456.7813,1027.9688 455.9844,1028.2969 Q454.9063,1028.75 453.6094,1028.75 Q452.0938,1028.75 450.8906,1028.125 Q449.9063,1027.625 449.2188,1026.5625 Q448.5313,1025.4844 448.5313,1024.2031 L448.5313,1023.0469 Q448.5313,1021.7188 449.1406,1020.5781 Q449.7656,1019.4219 450.8594,1018.8125 Q451.9531,1018.1875 453.1875,1018.1875 Q453.9219,1018.1875 454.5625,1018.3594 Q455.2188,1018.5156 455.7656,1018.875 Z " fill="#000000"/><text fill="#000000" font-family="sans-serif" font-size="14" lengthAdjust="spacing" textLength="168" x="467" y="1028.7969">HumanResourcesManager</text><line style="stroke:#181818;stroke-width:0.5;" x1="439" x2="637" y1="1039" y2="1039"/><line style="stroke:#181818;stroke-width:0.5;" x1="439" x2="637" y1="1047" y2="1047"/></g><!--class Repositories--><g id="elem_Repositories"><rect codeLine="47" fill="#F1F1F1" height="141.1055" id="Repositories" rx="2.5" ry="2.5" style="stroke:#181818;stroke-width:0.5;" width="196" x="361" y="246"/><ellipse cx="415.25" cy="262" fill="#ADD1B2" rx="11" ry="11" style="stroke:#181818;stroke-width:1.0;"/><path d="M418.0156,257.875 Q418.1719,257.6563 418.3594,257.5469 Q418.5469,257.4375 418.7656,257.4375 Q419.1406,257.4375 419.375,257.7031 Q419.6094,257.9531 419.6094,258.5625 L419.6094,260.0156 Q419.6094,260.625 419.375,260.8906 Q419.1406,261.1563 418.7656,261.1563 Q418.4219,261.1563 418.2188,260.9531 Q418.0156,260.7656 417.9063,260.25 Q417.8594,259.8906 417.6719,259.7031 Q417.3438,259.3281 416.7344,259.1094 Q416.125,258.8906 415.5,258.8906 Q414.7344,258.8906 414.0938,259.2188 Q413.4688,259.5469 412.9688,260.2969 Q412.4844,261.0469 412.4844,262.0781 L412.4844,263.1719 Q412.4844,264.4063 413.375,265.2344 Q414.2656,266.0469 415.8594,266.0469 Q416.7969,266.0469 417.4531,265.7969 Q417.8438,265.6406 418.2656,265.2031 Q418.5313,264.9375 418.6719,264.8594 Q418.8281,264.7813 419.0313,264.7813 Q419.3594,264.7813 419.6094,265.0469 Q419.875,265.2969 419.875,265.6406 Q419.875,265.9844 419.5313,266.3906 Q419.0313,266.9688 418.2344,267.2969 Q417.1563,267.75 415.8594,267.75 Q414.3438,267.75 413.1406,267.125 Q412.1563,266.625 411.4688,265.5625 Q410.7813,264.4844 410.7813,263.2031 L410.7813,262.0469 Q410.7813,260.7188 411.3906,259.5781 Q412.0156,258.4219 413.1094,257.8125 Q414.2031,257.1875 415.4375,257.1875 Q416.1719,257.1875 416.8125,257.3594 Q417.4688,257.5156 418.0156,257.875 Z " fill="#000000"/><text fill="#000000" font-family="sans-serif" font-size="14" lengthAdjust="spacing" textLength="79" x="435.75" y="267.7969">Repositories</text><line style="stroke:#181818;stroke-width:0.5;" x1="362" x2="556" y1="278" y2="278"/><line style="stroke:#181818;stroke-width:0.5;" x1="362" x2="556" y1="286" y2="286"/><text fill="#000000" font-family="sans-serif" font-size="14" lengthAdjust="spacing" textLength="94" x="367" y="305.1074">-Repositories()</text><text fill="#000000" font-family="sans-serif" font-size="14" lengthAdjust="spacing" textLength="182" x="367" y="323.7285">+getInstance() : Repositories</text><text fill="#000000" font-family="sans-serif" font-size="14" lengthAdjust="spacing" textLength="142" x="367" y="342.3496">+getTeamRepository()</text><text fill="#000000" font-family="sans-serif" font-size="14" lengthAdjust="spacing" textLength="184" x="367" y="360.9707">+getCollaboratorRepository()</text><text fill="#000000" font-family="sans-serif" font-size="14" lengthAdjust="spacing" textLength="131" x="367" y="379.5918">+getSkillRepository()</text></g><!--class TeamRepository--><g id="elem_TeamRepository"><rect codeLine="56" fill="#F1F1F1" height="103.8633" id="TeamRepository" rx="2.5" ry="2.5" style="stroke:#181818;stroke-width:0.5;" width="201" x="746.5" y="448"/><ellipse cx="790.75" cy="464" fill="#ADD1B2" rx="11" ry="11" style="stroke:#181818;stroke-width:1.0;"/><path d="M793.5156,459.875 Q793.6719,459.6563 793.8594,459.5469 Q794.0469,459.4375 794.2656,459.4375 Q794.6406,459.4375 794.875,459.7031 Q795.1094,459.9531 795.1094,460.5625 L795.1094,462.0156 Q795.1094,462.625 794.875,462.8906 Q794.6406,463.1563 794.2656,463.1563 Q793.9219,463.1563 793.7188,462.9531 Q793.5156,462.7656 793.4063,462.25 Q793.3594,461.8906 793.1719,461.7031 Q792.8438,461.3281 792.2344,461.1094 Q791.625,460.8906 791,460.8906 Q790.2344,460.8906 789.5938,461.2188 Q788.9688,461.5469 788.4688,462.2969 Q787.9844,463.0469 787.9844,464.0781 L787.9844,465.1719 Q787.9844,466.4063 788.875,467.2344 Q789.7656,468.0469 791.3594,468.0469 Q792.2969,468.0469 792.9531,467.7969 Q793.3438,467.6406 793.7656,467.2031 Q794.0313,466.9375 794.1719,466.8594 Q794.3281,466.7813 794.5313,466.7813 Q794.8594,466.7813 795.1094,467.0469 Q795.375,467.2969 795.375,467.6406 Q795.375,467.9844 795.0313,468.3906 Q794.5313,468.9688 793.7344,469.2969 Q792.6563,469.75 791.3594,469.75 Q789.8438,469.75 788.6406,469.125 Q787.6563,468.625 786.9688,467.5625 Q786.2813,466.4844 786.2813,465.2031 L786.2813,464.0469 Q786.2813,462.7188 786.8906,461.5781 Q787.5156,460.4219 788.6094,459.8125 Q789.7031,459.1875 790.9375,459.1875 Q791.6719,459.1875 792.3125,459.3594 Q792.9688,459.5156 793.5156,459.875 Z " fill="#000000"/><text fill="#000000" font-family="sans-serif" font-size="14" lengthAdjust="spacing" textLength="104" x="811.25" y="469.7969">TeamRepository</text><line style="stroke:#181818;stroke-width:0.5;" x1="747.5" x2="946.5" y1="480" y2="480"/><text fill="#000000" font-family="sans-serif" font-size="14" lengthAdjust="spacing" textLength="118" x="752.5" y="499.1074">-List &lt;Team&gt; team</text><line style="stroke:#181818;stroke-width:0.5;" x1="747.5" x2="946.5" y1="506.6211" y2="506.6211"/><text fill="#000000" font-family="sans-serif" font-size="14" lengthAdjust="spacing" textLength="106" x="752.5" y="525.7285">-addTeam(team)</text><text fill="#000000" font-family="sans-serif" font-size="14" lengthAdjust="spacing" textLength="189" x="752.5" y="544.3496">+registerProposalTeam(team)</text></g><!--class SkillRepository--><g id="elem_SkillRepository"><rect codeLine="62" fill="#F1F1F1" height="85.2422" id="SkillRepository" rx="2.5" ry="2.5" style="stroke:#181818;stroke-width:0.5;" width="189" x="522.5" y="457.5"/><ellipse cx="566.3" cy="473.5" fill="#ADD1B2" rx="11" ry="11" style="stroke:#181818;stroke-width:1.0;"/><path d="M569.0656,469.375 Q569.2219,469.1563 569.4094,469.0469 Q569.5969,468.9375 569.8156,468.9375 Q570.1906,468.9375 570.425,469.2031 Q570.6594,469.4531 570.6594,470.0625 L570.6594,471.5156 Q570.6594,472.125 570.425,472.3906 Q570.1906,472.6563 569.8156,472.6563 Q569.4719,472.6563 569.2688,472.4531 Q569.0656,472.2656 568.9563,471.75 Q568.9094,471.3906 568.7219,471.2031 Q568.3938,470.8281 567.7844,470.6094 Q567.175,470.3906 566.55,470.3906 Q565.7844,470.3906 565.1438,470.7188 Q564.5188,471.0469 564.0188,471.7969 Q563.5344,472.5469 563.5344,473.5781 L563.5344,474.6719 Q563.5344,475.9063 564.425,476.7344 Q565.3156,477.5469 566.9094,477.5469 Q567.8469,477.5469 568.5031,477.2969 Q568.8938,477.1406 569.3156,476.7031 Q569.5813,476.4375 569.7219,476.3594 Q569.8781,476.2813 570.0813,476.2813 Q570.4094,476.2813 570.6594,476.5469 Q570.925,476.7969 570.925,477.1406 Q570.925,477.4844 570.5813,477.8906 Q570.0813,478.4688 569.2844,478.7969 Q568.2063,479.25 566.9094,479.25 Q565.3938,479.25 564.1906,478.625 Q563.2063,478.125 562.5188,477.0625 Q561.8313,475.9844 561.8313,474.7031 L561.8313,473.5469 Q561.8313,472.2188 562.4406,471.0781 Q563.0656,469.9219 564.1594,469.3125 Q565.2531,468.6875 566.4875,468.6875 Q567.2219,468.6875 567.8625,468.8594 Q568.5188,469.0156 569.0656,469.375 Z " fill="#000000"/><text fill="#000000" font-family="sans-serif" font-size="14" lengthAdjust="spacing" textLength="93" x="586.7" y="479.2969">SkillRepository</text><line style="stroke:#181818;stroke-width:0.5;" x1="523.5" x2="710.5" y1="489.5" y2="489.5"/><text fill="#000000" font-family="sans-serif" font-size="14" lengthAdjust="spacing" textLength="106" x="528.5" y="508.6074">-List &lt;Skill&gt; skills</text><line style="stroke:#181818;stroke-width:0.5;" x1="523.5" x2="710.5" y1="516.1211" y2="516.1211"/><text fill="#000000" font-family="sans-serif" font-size="14" lengthAdjust="spacing" textLength="177" x="528.5" y="535.2285">+hasSkillByName(skillName)</text></g><!--class CollaboratorRepository--><g id="elem_CollaboratorRepository"><rect codeLine="67" fill="#F1F1F1" height="85.2422" id="CollaboratorRepository" rx="2.5" ry="2.5" style="stroke:#181818;stroke-width:0.5;" width="223" x="264.5" y="457.5"/><ellipse cx="299.75" cy="473.5" fill="#ADD1B2" rx="11" ry="11" style="stroke:#181818;stroke-width:1.0;"/><path d="M302.5156,469.375 Q302.6719,469.1563 302.8594,469.0469 Q303.0469,468.9375 303.2656,468.9375 Q303.6406,468.9375 303.875,469.2031 Q304.1094,469.4531 304.1094,470.0625 L304.1094,471.5156 Q304.1094,472.125 303.875,472.3906 Q303.6406,472.6563 303.2656,472.6563 Q302.9219,472.6563 302.7188,472.4531 Q302.5156,472.2656 302.4063,471.75 Q302.3594,471.3906 302.1719,471.2031 Q301.8438,470.8281 301.2344,470.6094 Q300.625,470.3906 300,470.3906 Q299.2344,470.3906 298.5938,470.7188 Q297.9688,471.0469 297.4688,471.7969 Q296.9844,472.5469 296.9844,473.5781 L296.9844,474.6719 Q296.9844,475.9063 297.875,476.7344 Q298.7656,477.5469 300.3594,477.5469 Q301.2969,477.5469 301.9531,477.2969 Q302.3438,477.1406 302.7656,476.7031 Q303.0313,476.4375 303.1719,476.3594 Q303.3281,476.2813 303.5313,476.2813 Q303.8594,476.2813 304.1094,476.5469 Q304.375,476.7969 304.375,477.1406 Q304.375,477.4844 304.0313,477.8906 Q303.5313,478.4688 302.7344,478.7969 Q301.6563,479.25 300.3594,479.25 Q298.8438,479.25 297.6406,478.625 Q296.6563,478.125 295.9688,477.0625 Q295.2813,475.9844 295.2813,474.7031 L295.2813,473.5469 Q295.2813,472.2188 295.8906,471.0781 Q296.5156,469.9219 297.6094,469.3125 Q298.7031,468.6875 299.9375,468.6875 Q300.6719,468.6875 301.3125,468.8594 Q301.9688,469.0156 302.5156,469.375 Z " fill="#000000"/><text fill="#000000" font-family="sans-serif" font-size="14" lengthAdjust="spacing" textLength="146" x="318.25" y="479.2969">CollaboratorRepository</text><line style="stroke:#181818;stroke-width:0.5;" x1="265.5" x2="486.5" y1="489.5" y2="489.5"/><text fill="#000000" font-family="sans-serif" font-size="14" lengthAdjust="spacing" textLength="211" x="270.5" y="508.6074">-List &lt;Collaborator&gt; collaborators</text><line style="stroke:#181818;stroke-width:0.5;" x1="265.5" x2="486.5" y1="516.1211" y2="516.1211"/><text fill="#000000" font-family="sans-serif" font-size="14" lengthAdjust="spacing" textLength="202" x="270.5" y="535.2285">+getCollaboratorBySkill(skillList)</text></g><!--link GenerateTeamController to Repositories--><g id="link_GenerateTeamController_Repositories"><path codeLine="74" d="M394.49,167.25 C405.59,192.77 415.4155,215.3485 426.2055,240.1385 " fill="none" id="GenerateTeamController-to-Repositories" style="stroke:#181818;stroke-width:1.0;stroke-dasharray:7.0,7.0;"/><polygon fill="#181818" points="428.6,245.64,428.6758,235.7914,426.6045,241.0554,421.3405,238.9842,428.6,245.64" style="stroke:#181818;stroke-width:1.0;"/><text fill="#000000" font-family="sans-serif" font-size="13" lengthAdjust="spacing" textLength="67" x="417" y="212.0283">repositories</text></g><!--link GenerateTeamUI to GenerateTeamController--><g id="link_GenerateTeamUI_GenerateTeamController"><path codeLine="76" d="M147.04,87 C160.93,87 171.33,87 171.33,87 C171.33,87 169.38,87 175.79,87 " fill="none" id="GenerateTeamUI-to-GenerateTeamController" style="stroke:#181818;stroke-width:1.0;stroke-dasharray:7.0,7.0;"/><polygon fill="#181818" points="181.79,87,172.79,83,176.79,87,172.79,91,181.79,87" style="stroke:#181818;stroke-width:1.0;"/></g><!--link Repositories to Repositories--><g id="link_Repositories_Repositories"><path codeLine="77" d="M557.02,298.41 C577.37,300.31 592,306.34 592,316.5 C592,326.66 583.344,332.1322 562.994,334.0322 " fill="none" id="Repositories-to-Repositories" style="stroke:#181818;stroke-width:1.0;"/><polygon fill="#181818" points="557.02,334.59,566.3529,337.736,561.9983,334.1252,565.6092,329.7707,557.02,334.59" style="stroke:#181818;stroke-width:1.0;"/><text fill="#000000" font-family="sans-serif" font-size="13" lengthAdjust="spacing" textLength="49" x="598" y="322.0283">instance</text></g><!--link Repositories to TeamRepository--><g id="link_Repositories_TeamRepository"><path codeLine="79" d="M557.16,363.42 C614.97,390.46 682.5051,422.0579 740.7651,449.3079 " fill="none" id="Repositories-to-TeamRepository" style="stroke:#181818;stroke-width:1.0;"/><polygon fill="#181818" points="746.2,451.85,739.7424,444.4137,741.6709,449.7316,736.353,451.6602,746.2,451.85" style="stroke:#181818;stroke-width:1.0;"/><text fill="#000000" font-family="sans-serif" font-size="13" lengthAdjust="spacing" textLength="7" x="731.5405" y="444.7338">1</text></g><!--link Repositories to SkillRepository--><g id="link_Repositories_SkillRepository"><path codeLine="80" d="M519.64,387.15 C540.26,410.85 558.7101,432.0449 576.8201,452.8449 " fill="none" id="Repositories-to-SkillRepository" style="stroke:#181818;stroke-width:1.0;"/><polygon fill="#181818" points="580.76,457.37,577.8669,447.9557,577.4767,453.599,571.8333,453.2089,580.76,457.37" style="stroke:#181818;stroke-width:1.0;"/><text fill="#000000" font-family="sans-serif" font-size="13" lengthAdjust="spacing" textLength="7" x="567.4264" y="446.2534">1</text></g><!--link Repositories to CollaboratorRepository--><g id="link_Repositories_CollaboratorRepository"><path codeLine="81" d="M427.15,387.15 C416.31,410.85 407.0449,431.1133 397.5349,451.9133 " fill="none" id="Repositories-to-CollaboratorRepository" style="stroke:#181818;stroke-width:1.0;"/><polygon fill="#181818" points="395.04,457.37,402.4201,450.8482,397.1191,452.8227,395.1445,447.5217,395.04,457.37" style="stroke:#181818;stroke-width:1.0;"/><text fill="#000000" font-family="sans-serif" font-size="13" lengthAdjust="spacing" textLength="7" x="390.5167" y="446.2534">1</text></g><!--link TeamRepository to Team--><g id="link_TeamRepository_Team"><path codeLine="83" d="M842.34,552.1 C839.34,584.95 836,621.5 836,621.5 C836,621.5 836,621.5 836,1032 C836,1032 651.5224,1098.7295 526.2024,1144.0495 " fill="none" id="TeamRepository-to-Team" style="stroke:#181818;stroke-width:1.0;"/><polygon fill="#181818" points="520.56,1146.09,530.3839,1146.7909,525.262,1144.3896,527.6633,1139.2677,520.56,1146.09" style="stroke:#181818;stroke-width:1.0;"/><text fill="#000000" font-family="sans-serif" font-size="13" lengthAdjust="spacing" textLength="29" x="837" y="825.0283">team</text><text fill="#000000" font-family="sans-serif" font-size="13" lengthAdjust="spacing" textLength="5" x="528.6425" y="1139.5789">*</text></g><!--link CollaboratorRepository to Collaborator--><g id="link_CollaboratorRepository_Collaborator"><path codeLine="84" d="M380.31,542.51 C384.29,580.75 389.7696,633.5322 395.3296,687.0122 " fill="none" id="CollaboratorRepository-to-Collaborator" style="stroke:#181818;stroke-width:1.0;"/><polygon fill="#181818" points="395.95,692.98,398.9979,683.6146,395.433,688.0068,391.0408,684.4419,395.95,692.98" style="stroke:#181818;stroke-width:1.0;"/><text fill="#000000" font-family="sans-serif" font-size="13" lengthAdjust="spacing" textLength="67" x="391" y="628.0283">collaborator</text><text fill="#000000" font-family="sans-serif" font-size="13" lengthAdjust="spacing" textLength="5" x="390.0024" y="681.7945">*</text></g><!--link GenerateTeamController to TeamRepository--><g id="link_GenerateTeamController_TeamRepository"><path codeLine="86" d="M537.73,167.07 C575.89,184.05 605,197 605,197 C605,197 679,246 679,246 C679,246 760.591,368.8716 809.681,442.8016 " fill="none" id="GenerateTeamController-to-TeamRepository" style="stroke:#181818;stroke-width:1.0;stroke-dasharray:7.0,7.0;"/><polygon fill="#181818" points="813,447.8,811.3538,438.0897,810.2342,443.6346,804.6892,442.515,813,447.8" style="stroke:#181818;stroke-width:1.0;"/></g><!--link GenerateTeamController to SkillRepository--><g id="link_GenerateTeamController_SkillRepository"><path codeLine="87" d="M506.93,167.23 C580.04,206.65 653,246 653,246 C653,246 653,387 653,387 C653,387 642.4748,419.7374 632.2448,451.5874 " fill="none" id="GenerateTeamController-to-SkillRepository" style="stroke:#181818;stroke-width:1.0;stroke-dasharray:7.0,7.0;"/><polygon fill="#181818" points="630.41,457.3,636.9706,449.9544,631.939,452.5395,629.3539,447.5079,630.41,457.3" style="stroke:#181818;stroke-width:1.0;"/></g><!--link GenerateTeamController to CollaboratorRepository--><g id="link_GenerateTeamController_CollaboratorRepository"><path codeLine="88" d="M351.45,167.46 C347.22,206.81 343,246 343,246 C343,246 343,387 343,387 C343,387 352.6349,419.6944 362.0149,451.5444 " fill="none" id="GenerateTeamController-to-CollaboratorRepository" style="stroke:#181818;stroke-width:1.0;stroke-dasharray:7.0,7.0;"/><polygon fill="#181818" points="363.71,457.3,365.0045,447.5366,362.2975,452.5037,357.3304,449.7967,363.71,457.3" style="stroke:#181818;stroke-width:1.0;"/></g><!--link GenerateTeamController to Collaborator--><g id="link_GenerateTeamController_Collaborator"><path codeLine="89" d="M308.1,167.25 C265.09,232.91 211,315.5 211,315.5 C211,315.5 211,315.5 211,623.5 C211,623.5 238.7751,650.8598 277.0851,688.5898 " fill="none" id="GenerateTeamController-to-Collaborator" style="stroke:#181818;stroke-width:1.0;stroke-dasharray:7.0,7.0;"/><polygon fill="#181818" points="281.36,692.8,277.7545,683.6348,277.7976,689.2915,272.1409,689.3347,281.36,692.8" style="stroke:#181818;stroke-width:1.0;"/></g><!--link GenerateTeamController to Team--><g id="link_GenerateTeamController_Team"><path codeLine="90" d="M249.23,167.25 C157.45,232.91 42,315.5 42,315.5 C42,315.5 42,315.5 42,1032 C42,1032 190.1031,1093.0827 299.6431,1138.2527 " fill="none" id="GenerateTeamController-to-Team" style="stroke:#181818;stroke-width:1.0;stroke-dasharray:7.0,7.0;"/><polygon fill="#181818" points="305.19,1140.54,298.3945,1133.4111,300.5676,1138.6339,295.3448,1140.8069,305.19,1140.54" style="stroke:#181818;stroke-width:1.0;"/></g><!--reverse link Collaborator to HumanResourcesManager--><g id="link_Collaborator_HumanResourcesManager"><path codeLine="92" d="M495.8974,961.6276 C510.2374,984.9176 514.25,991.43 523.81,1006.96 " fill="none" id="Collaborator-backto-HumanResourcesManager" style="stroke:#181818;stroke-width:1.0;"/><polygon fill="none" points="486.46,946.3,490.7882,964.7734,501.0066,958.4818,486.46,946.3" style="stroke:#181818;stroke-width:1.0;"/></g><!--link HumanResourcesManager to Team--><g id="link_HumanResourcesManager_Team"><path codeLine="94" d="M519.02,1055.24 C502.01,1076.05 480.2654,1102.663 458.5154,1129.293 " fill="none" id="HumanResourcesManager-to-Team" style="stroke:#181818;stroke-width:1.0;"/><polygon fill="#181818" points="454.72,1133.94,463.5112,1129.4998,457.8829,1130.0675,457.3151,1124.4392,454.72,1133.94" style="stroke:#181818;stroke-width:1.0;"/><text fill="#000000" font-family="sans-serif" font-size="13" lengthAdjust="spacing" textLength="41" x="495" y="1100.0283">defines</text><text fill="#000000" font-family="sans-serif" font-size="13" lengthAdjust="spacing" textLength="7" x="506.8215" y="1076.8731">1</text><text fill="#000000" font-family="sans-serif" font-size="13" lengthAdjust="spacing" textLength="20" x="438.9824" y="1122.8593">1..*</text></g><!--link Collaborator to Team--><g id="link_Collaborator_Team"><path codeLine="95" d="M382.04,946.19 C374.83,979.81 369,1007 369,1007 C369,1007 369,1055 369,1055 C369,1055 381.486,1091.8869 393.816,1128.3069 " fill="none" id="Collaborator-to-Team" style="stroke:#181818;stroke-width:1.0;"/><polygon fill="#181818" points="395.74,1133.99,396.6427,1124.1826,394.1366,1129.254,389.0652,1126.748,395.74,1133.99" style="stroke:#181818;stroke-width:1.0;"/><text fill="#000000" font-family="sans-serif" font-size="13" lengthAdjust="spacing" textLength="49" x="370" y="1036.5283">contains</text><text fill="#000000" font-family="sans-serif" font-size="13" lengthAdjust="spacing" textLength="20" x="359.9033" y="968.0473">1..*</text><text fill="#000000" font-family="sans-serif" font-size="13" lengthAdjust="spacing" textLength="7" x="385.9504" y="1122.916">1</text></g><!--SRC=[ZLLDZzCm4BtxLrXxQGff1TTLLMcxI5042ze2TpUP9gQENTdkGbduxuoJj1sdIQ6799vvy-4tp-x8RQNU2IigNXbjijAQ2hYtUs1dpqvaMr70oXyKS0kP5xfG5E1AaPiVKXTy8vIZ7YKr-CCE-CweGrYmKO_JM6yOYSgKSExEUolNUm_BpEYL_0Ny5MCZ1HlFlU5M5gNdkGpjIACPgsFuMz1WXOSl8AfxexqrIe7bpupZRy8ByFTe4Mk386CNXzLMAfMuyFmWdH-tkCn2coIfP5qyhSJF-fsH-12ITe9V3lIG7DsbS7NLnU51LD3K3bz7Vq72tKNvYseM2bo1_MpDpZYXwgOzFiRipv6LO3jn489db8KvfwisRPtc4deaw4aecMEJtw2KcOBagNcJcfI5hqkiVlBGXCUkLZXhb8z67Xf3ACrdDL5pNc-wiRytQ_xTh9l56ypFGnkVDWjfVKci8g-aSwYCi6hiTtbk0UkBvjqOfVPyLneD3_jg3JRg1YeXrHcMPUHRsBoDQ0cZkqh2FbBQMHetb1wRI6dnjAcOOgMKL22aljjNGZ-2CtkRWVieD1vBIxbz11I1n1OaEBItqwBMvAmplzGEpt86oPZVHg0p98plv3dGOBhXVaGzlSWLAVBiYRJ9Py4vvq73hHd98hB-Vzrt6kYKeU9o_poSlV8Tp1sVBtfdk7u6UwwYwrD_HlV0RJUTnpguHRB8R5ddQ2AyFn6BiamkiifMFgm3HEJDwvlEZFindGdrW_ePPwmZeacDVz4KnlPg0GrCwuIDBgFRQ5B3_4wHiixkha6xcxo67TZhyAIZktiO5YmiOeFpsU_9f5zSZFNVD64QpLIcqpFHEMpmdzp5sLi85KFDh_O2TSCO-mi0]--></g></svg>