<?xml version="1.0" encoding="us-ascii" standalone="no"?><svg xmlns="http://www.w3.org/2000/svg" xmlns:xlink="http://www.w3.org/1999/xlink" contentStyleType="text/css" height="1244px" preserveAspectRatio="none" style="width:1005px;height:1244px;background:#FFFFFF;" version="1.1" viewBox="0 0 1005 1244" width="1005px" zoomAndPan="magnify"><defs/><g><!--class GenerateTeamController--><g id="elem_GenerateTeamController"><rect codeLine="11" fill="#F1F1F1" height="159.7266" id="GenerateTeamController" rx="2.5" ry="2.5" style="stroke:#181818;stroke-width:0.5;" width="356" x="182" y="7"/><ellipse cx="276.75" cy="23" fill="#ADD1B2" rx="11" ry="11" style="stroke:#181818;stroke-width:1.0;"/><path d="M279.5156,18.875 Q279.6719,18.6563 279.8594,18.5469 Q280.0469,18.4375 280.2656,18.4375 Q280.6406,18.4375 280.875,18.7031 Q281.1094,18.9531 281.1094,19.5625 L281.1094,21.0156 Q281.1094,21.625 280.875,21.8906 Q280.6406,22.1563 280.2656,22.1563 Q279.9219,22.1563 279.7188,21.9531 Q279.5156,21.7656 279.4063,21.25 Q279.3594,20.8906 279.1719,20.7031 Q278.8438,20.3281 278.2344,20.1094 Q277.625,19.8906 277,19.8906 Q276.2344,19.8906 275.5938,20.2188 Q274.9688,20.5469 274.4688,21.2969 Q273.9844,22.0469 273.9844,23.0781 L273.9844,24.1719 Q273.9844,25.4063 274.875,26.2344 Q275.7656,27.0469 277.3594,27.0469 Q278.2969,27.0469 278.9531,26.7969 Q279.3438,26.6406 279.7656,26.2031 Q280.0313,25.9375 280.1719,25.8594 Q280.3281,25.7813 280.5313,25.7813 Q280.8594,25.7813 281.1094,26.0469 Q281.375,26.2969 281.375,26.6406 Q281.375,26.9844 281.0313,27.3906 Q280.5313,27.9688 279.7344,28.2969 Q278.6563,28.75 277.3594,28.75 Q275.8438,28.75 274.6406,28.125 Q273.6563,27.625 272.9688,26.5625 Q272.2813,25.4844 272.2813,24.2031 L272.2813,23.0469 Q272.2813,21.7188 272.8906,20.5781 Q273.5156,19.4219 274.6094,18.8125 Q275.7031,18.1875 276.9375,18.1875 Q277.6719,18.1875 278.3125,18.3594 Q278.9688,18.5156 279.5156,18.875 Z " fill="#000000"/><text fill="#000000" font-family="sans-serif" font-size="14" lengthAdjust="spacing" textLength="158" x="297.25" y="28.7969">GenerateTeamController</text><line style="stroke:#181818;stroke-width:0.5;" x1="183" x2="537" y1="39" y2="39"/><line style="stroke:#181818;stroke-width:0.5;" x1="183" x2="537" y1="47" y2="47"/><text fill="#000000" font-family="sans-serif" font-size="14" lengthAdjust="spacing" textLength="199" x="188" y="66.1074">-getCollaboratorBySkill(skillList)</text><text fill="#000000" font-family="sans-serif" font-size="14" lengthAdjust="spacing" textLength="344" x="188" y="84.7285">-createTeam(minSize,maxSize,collaboratorList,skillList)</text><text fill="#000000" font-family="sans-serif" font-size="14" lengthAdjust="spacing" textLength="176" x="188" y="103.3496">+GenerateTeamController()</text><text fill="#000000" font-family="sans-serif" font-size="14" lengthAdjust="spacing" textLength="177" x="188" y="121.9707">+hasSkillByName(skillName)</text><text fill="#000000" font-family="sans-serif" font-size="14" lengthAdjust="spacing" textLength="270" x="188" y="140.5918">+generateTeams(minSize,maxSize,skillList)</text><text fill="#000000" font-family="sans-serif" font-size="14" lengthAdjust="spacing" textLength="189" x="188" y="159.2129">+registerProposalTeam(team)</text></g><!--class Team--><g id="elem_Team"><rect codeLine="20" fill="#F1F1F1" height="103.8633" id="Team" rx="2.5" ry="2.5" style="stroke:#181818;stroke-width:0.5;" width="215" x="354.5" y="1134"/><ellipse cx="439.75" cy="1150" fill="#ADD1B2" rx="11" ry="11" style="stroke:#181818;stroke-width:1.0;"/><path d="M442.5156,1145.875 Q442.6719,1145.6563 442.8594,1145.5469 Q443.0469,1145.4375 443.2656,1145.4375 Q443.6406,1145.4375 443.875,1145.7031 Q444.1094,1145.9531 444.1094,1146.5625 L444.1094,1148.0156 Q444.1094,1148.625 443.875,1148.8906 Q443.6406,1149.1563 443.2656,1149.1563 Q442.9219,1149.1563 442.7188,1148.9531 Q442.5156,1148.7656 442.4063,1148.25 Q442.3594,1147.8906 442.1719,1147.7031 Q441.8438,1147.3281 441.2344,1147.1094 Q440.625,1146.8906 440,1146.8906 Q439.2344,1146.8906 438.5938,1147.2188 Q437.9688,1147.5469 437.4688,1148.2969 Q436.9844,1149.0469 436.9844,1150.0781 L436.9844,1151.1719 Q436.9844,1152.4063 437.875,1153.2344 Q438.7656,1154.0469 440.3594,1154.0469 Q441.2969,1154.0469 441.9531,1153.7969 Q442.3438,1153.6406 442.7656,1153.2031 Q443.0313,1152.9375 443.1719,1152.8594 Q443.3281,1152.7813 443.5313,1152.7813 Q443.8594,1152.7813 444.1094,1153.0469 Q444.375,1153.2969 444.375,1153.6406 Q444.375,1153.9844 444.0313,1154.3906 Q443.5313,1154.9688 442.7344,1155.2969 Q441.6563,1155.75 440.3594,1155.75 Q438.8438,1155.75 437.6406,1155.125 Q436.6563,1154.625 435.9688,1153.5625 Q435.2813,1152.4844 435.2813,1151.2031 L435.2813,1150.0469 Q435.2813,1148.7188 435.8906,1147.5781 Q436.5156,1146.4219 437.6094,1145.8125 Q438.7031,1145.1875 439.9375,1145.1875 Q440.6719,1145.1875 441.3125,1145.3594 Q441.9688,1145.5156 442.5156,1145.875 Z " fill="#000000"/><text fill="#000000" font-family="sans-serif" font-size="14" lengthAdjust="spacing" textLength="36" x="460.25" y="1155.7969">Team</text><line style="stroke:#181818;stroke-width:0.5;" x1="355.5" x2="568.5" y1="1166" y2="1166"/><text fill="#000000" font-family="sans-serif" font-size="14" lengthAdjust="spacing" textLength="203" x="360.5" y="1185.1074">-List&lt;Collaborator&gt; Collaborator</text><line style="stroke:#181818;stroke-width:0.5;" x1="355.5" x2="568.5" y1="1192.6211" y2="1192.6211"/><text fill="#000000" font-family="sans-serif" font-size="14" lengthAdjust="spacing" textLength="170" x="360.5" y="1211.7285">+Team(List&lt;Collaborator&gt;)</text><text fill="#000000" font-family="sans-serif" font-size="14" lengthAdjust="spacing" textLength="154" x="360.5" y="1230.3496">-validateVehicle(vehicle)</text></g><!--class GenerateTeamUI--><g id="elem_GenerateTeamUI"><rect codeLine="26" fill="#F1F1F1" height="48" id="GenerateTeamUI" rx="2.5" ry="2.5" style="stroke:#181818;stroke-width:0.5;" width="140" x="7" y="63"/><ellipse cx="22" cy="79" fill="#ADD1B2" rx="11" ry="11" style="stroke:#181818;stroke-width:1.0;"/><path d="M24.7656,74.875 Q24.9219,74.6563 25.1094,74.5469 Q25.2969,74.4375 25.5156,74.4375 Q25.8906,74.4375 26.125,74.7031 Q26.3594,74.9531 26.3594,75.5625 L26.3594,77.0156 Q26.3594,77.625 26.125,77.8906 Q25.8906,78.1563 25.5156,78.1563 Q25.1719,78.1563 24.9688,77.9531 Q24.7656,77.7656 24.6563,77.25 Q24.6094,76.8906 24.4219,76.7031 Q24.0938,76.3281 23.4844,76.1094 Q22.875,75.8906 22.25,75.8906 Q21.4844,75.8906 20.8438,76.2188 Q20.2188,76.5469 19.7188,77.2969 Q19.2344,78.0469 19.2344,79.0781 L19.2344,80.1719 Q19.2344,81.4063 20.125,82.2344 Q21.0156,83.0469 22.6094,83.0469 Q23.5469,83.0469 24.2031,82.7969 Q24.5938,82.6406 25.0156,82.2031 Q25.2813,81.9375 25.4219,81.8594 Q25.5781,81.7813 25.7813,81.7813 Q26.1094,81.7813 26.3594,82.0469 Q26.625,82.2969 26.625,82.6406 Q26.625,82.9844 26.2813,83.3906 Q25.7813,83.9688 24.9844,84.2969 Q23.9063,84.75 22.6094,84.75 Q21.0938,84.75 19.8906,84.125 Q18.9063,83.625 18.2188,82.5625 Q17.5313,81.4844 17.5313,80.2031 L17.5313,79.0469 Q17.5313,77.7188 18.1406,76.5781 Q18.7656,75.4219 19.8594,74.8125 Q20.9531,74.1875 22.1875,74.1875 Q22.9219,74.1875 23.5625,74.3594 Q24.2188,74.5156 24.7656,74.875 Z " fill="#000000"/><text fill="#000000" font-family="sans-serif" font-size="14" lengthAdjust="spacing" textLength="108" x="36" y="84.7969">GenerateTeamUI</text><line style="stroke:#181818;stroke-width:0.5;" x1="8" x2="146" y1="95" y2="95"/><line style="stroke:#181818;stroke-width:0.5;" x1="8" x2="146" y1="103" y2="103"/></g><!--class Collaborator--><g id="elem_Collaborator"><rect codeLine="29" fill="#F1F1F1" height="252.832" id="Collaborator" rx="2.5" ry="2.5" style="stroke:#181818;stroke-width:0.5;" width="628" x="144" y="693"/><ellipse cx="414.75" cy="709" fill="#ADD1B2" rx="11" ry="11" style="stroke:#181818;stroke-width:1.0;"/><path d="M417.5156,704.875 Q417.6719,704.6563 417.8594,704.5469 Q418.0469,704.4375 418.2656,704.4375 Q418.6406,704.4375 418.875,704.7031 Q419.1094,704.9531 419.1094,705.5625 L419.1094,707.0156 Q419.1094,707.625 418.875,707.8906 Q418.6406,708.1563 418.2656,708.1563 Q417.9219,708.1563 417.7188,707.9531 Q417.5156,707.7656 417.4063,707.25 Q417.3594,706.8906 417.1719,706.7031 Q416.8438,706.3281 416.2344,706.1094 Q415.625,705.8906 415,705.8906 Q414.2344,705.8906 413.5938,706.2188 Q412.9688,706.5469 412.4688,707.2969 Q411.9844,708.0469 411.9844,709.0781 L411.9844,710.1719 Q411.9844,711.4063 412.875,712.2344 Q413.7656,713.0469 415.3594,713.0469 Q416.2969,713.0469 416.9531,712.7969 Q417.3438,712.6406 417.7656,712.2031 Q418.0313,711.9375 418.1719,711.8594 Q418.3281,711.7813 418.5313,711.7813 Q418.8594,711.7813 419.1094,712.0469 Q419.375,712.2969 419.375,712.6406 Q419.375,712.9844 419.0313,713.3906 Q418.5313,713.9688 417.7344,714.2969 Q416.6563,714.75 415.3594,714.75 Q413.8438,714.75 412.6406,714.125 Q411.6563,713.625 410.9688,712.5625 Q410.2813,711.4844 410.2813,710.2031 L410.2813,709.0469 Q410.2813,707.7188 410.8906,706.5781 Q411.5156,705.4219 412.6094,704.8125 Q413.7031,704.1875 414.9375,704.1875 Q415.6719,704.1875 416.3125,704.3594 Q416.9688,704.5156 417.5156,704.875 Z " fill="#000000"/><text fill="#000000" font-family="sans-serif" font-size="14" lengthAdjust="spacing" textLength="78" x="435.25" y="714.7969">Collaborator</text><line style="stroke:#181818;stroke-width:0.5;" x1="145" x2="771" y1="725" y2="725"/><text fill="#000000" font-family="sans-serif" font-size="14" lengthAdjust="spacing" textLength="81" x="150" y="744.1074">-String name</text><text fill="#000000" font-family="sans-serif" font-size="14" lengthAdjust="spacing" textLength="99" x="150" y="762.7285">-List &lt;Skill&gt; skill</text><text fill="#000000" font-family="sans-serif" font-size="14" lengthAdjust="spacing" textLength="50" x="150" y="781.3496">-Job job</text><text fill="#000000" font-family="sans-serif" font-size="14" lengthAdjust="spacing" textLength="111" x="150" y="799.9707">-Date dateOfBirth</text><text fill="#000000" font-family="sans-serif" font-size="14" lengthAdjust="spacing" textLength="132" x="150" y="818.5918">-Date admissionDate</text><text fill="#000000" font-family="sans-serif" font-size="14" lengthAdjust="spacing" textLength="112" x="150" y="837.2129">-Address address</text><text fill="#000000" font-family="sans-serif" font-size="14" lengthAdjust="spacing" textLength="113" x="150" y="855.834">-int phoneNumber</text><text fill="#000000" font-family="sans-serif" font-size="14" lengthAdjust="spacing" textLength="79" x="150" y="874.4551">-String email</text><text fill="#000000" font-family="sans-serif" font-size="14" lengthAdjust="spacing" textLength="38" x="150" y="893.0762">-int cc</text><text fill="#000000" font-family="sans-serif" font-size="14" lengthAdjust="spacing" textLength="101" x="150" y="911.6973">-int cardNumber</text><line style="stroke:#181818;stroke-width:0.5;" x1="145" x2="771" y1="919.2109" y2="919.2109"/><text fill="#000000" font-family="sans-serif" font-size="14" lengthAdjust="spacing" textLength="616" x="150" y="938.3184">+Collaborator(name, dateOfBirth, admissionDate, address, phoneNumber, email, cc, cardNumber)</text></g><!--class HumanResourcesManager--><g id="elem_HumanResourcesManager"><rect codeLine="72" fill="#F1F1F1" height="48" id="HumanResourcesManager" rx="2.5" ry="2.5" style="stroke:#181818;stroke-width:0.5;" width="200" x="487" y="1007"/><ellipse cx="502" cy="1023" fill="#ADD1B2" rx="11" ry="11" style="stroke:#181818;stroke-width:1.0;"/><path d="M504.7656,1018.875 Q504.9219,1018.6563 505.1094,1018.5469 Q505.2969,1018.4375 505.5156,1018.4375 Q505.8906,1018.4375 506.125,1018.7031 Q506.3594,1018.9531 506.3594,1019.5625 L506.3594,1021.0156 Q506.3594,1021.625 506.125,1021.8906 Q505.8906,1022.1563 505.5156,1022.1563 Q505.1719,1022.1563 504.9688,1021.9531 Q504.7656,1021.7656 504.6563,1021.25 Q504.6094,1020.8906 504.4219,1020.7031 Q504.0938,1020.3281 503.4844,1020.1094 Q502.875,1019.8906 502.25,1019.8906 Q501.4844,1019.8906 500.8438,1020.2188 Q500.2188,1020.5469 499.7188,1021.2969 Q499.2344,1022.0469 499.2344,1023.0781 L499.2344,1024.1719 Q499.2344,1025.4063 500.125,1026.2344 Q501.0156,1027.0469 502.6094,1027.0469 Q503.5469,1027.0469 504.2031,1026.7969 Q504.5938,1026.6406 505.0156,1026.2031 Q505.2813,1025.9375 505.4219,1025.8594 Q505.5781,1025.7813 505.7813,1025.7813 Q506.1094,1025.7813 506.3594,1026.0469 Q506.625,1026.2969 506.625,1026.6406 Q506.625,1026.9844 506.2813,1027.3906 Q505.7813,1027.9688 504.9844,1028.2969 Q503.9063,1028.75 502.6094,1028.75 Q501.0938,1028.75 499.8906,1028.125 Q498.9063,1027.625 498.2188,1026.5625 Q497.5313,1025.4844 497.5313,1024.2031 L497.5313,1023.0469 Q497.5313,1021.7188 498.1406,1020.5781 Q498.7656,1019.4219 499.8594,1018.8125 Q500.9531,1018.1875 502.1875,1018.1875 Q502.9219,1018.1875 503.5625,1018.3594 Q504.2188,1018.5156 504.7656,1018.875 Z " fill="#000000"/><text fill="#000000" font-family="sans-serif" font-size="14" lengthAdjust="spacing" textLength="168" x="516" y="1028.7969">HumanResourcesManager</text><line style="stroke:#181818;stroke-width:0.5;" x1="488" x2="686" y1="1039" y2="1039"/><line style="stroke:#181818;stroke-width:0.5;" x1="488" x2="686" y1="1047" y2="1047"/></g><!--class Repositories--><g id="elem_Repositories"><rect codeLine="47" fill="#F1F1F1" height="141.1055" id="Repositories" rx="2.5" ry="2.5" style="stroke:#181818;stroke-width:0.5;" width="196" x="399" y="246"/><ellipse cx="453.25" cy="262" fill="#ADD1B2" rx="11" ry="11" style="stroke:#181818;stroke-width:1.0;"/><path d="M456.0156,257.875 Q456.1719,257.6563 456.3594,257.5469 Q456.5469,257.4375 456.7656,257.4375 Q457.1406,257.4375 457.375,257.7031 Q457.6094,257.9531 457.6094,258.5625 L457.6094,260.0156 Q457.6094,260.625 457.375,260.8906 Q457.1406,261.1563 456.7656,261.1563 Q456.4219,261.1563 456.2188,260.9531 Q456.0156,260.7656 455.9063,260.25 Q455.8594,259.8906 455.6719,259.7031 Q455.3438,259.3281 454.7344,259.1094 Q454.125,258.8906 453.5,258.8906 Q452.7344,258.8906 452.0938,259.2188 Q451.4688,259.5469 450.9688,260.2969 Q450.4844,261.0469 450.4844,262.0781 L450.4844,263.1719 Q450.4844,264.4063 451.375,265.2344 Q452.2656,266.0469 453.8594,266.0469 Q454.7969,266.0469 455.4531,265.7969 Q455.8438,265.6406 456.2656,265.2031 Q456.5313,264.9375 456.6719,264.8594 Q456.8281,264.7813 457.0313,264.7813 Q457.3594,264.7813 457.6094,265.0469 Q457.875,265.2969 457.875,265.6406 Q457.875,265.9844 457.5313,266.3906 Q457.0313,266.9688 456.2344,267.2969 Q455.1563,267.75 453.8594,267.75 Q452.3438,267.75 451.1406,267.125 Q450.1563,266.625 449.4688,265.5625 Q448.7813,264.4844 448.7813,263.2031 L448.7813,262.0469 Q448.7813,260.7188 449.3906,259.5781 Q450.0156,258.4219 451.1094,257.8125 Q452.2031,257.1875 453.4375,257.1875 Q454.1719,257.1875 454.8125,257.3594 Q455.4688,257.5156 456.0156,257.875 Z " fill="#000000"/><text fill="#000000" font-family="sans-serif" font-size="14" lengthAdjust="spacing" textLength="79" x="473.75" y="267.7969">Repositories</text><line style="stroke:#181818;stroke-width:0.5;" x1="400" x2="594" y1="278" y2="278"/><line style="stroke:#181818;stroke-width:0.5;" x1="400" x2="594" y1="286" y2="286"/><text fill="#000000" font-family="sans-serif" font-size="14" lengthAdjust="spacing" textLength="94" x="405" y="305.1074">-Repositories()</text><text fill="#000000" font-family="sans-serif" font-size="14" lengthAdjust="spacing" textLength="182" x="405" y="323.7285">+getInstance() : Repositories</text><text fill="#000000" font-family="sans-serif" font-size="14" lengthAdjust="spacing" textLength="142" x="405" y="342.3496">+getTeamRepository()</text><text fill="#000000" font-family="sans-serif" font-size="14" lengthAdjust="spacing" textLength="184" x="405" y="360.9707">+getCollaboratorRepository()</text><text fill="#000000" font-family="sans-serif" font-size="14" lengthAdjust="spacing" textLength="131" x="405" y="379.5918">+getSkillRepository()</text></g><!--class TeamRepository--><g id="elem_TeamRepository"><rect codeLine="56" fill="#F1F1F1" height="103.8633" id="TeamRepository" rx="2.5" ry="2.5" style="stroke:#181818;stroke-width:0.5;" width="201" x="797.5" y="448"/><ellipse cx="841.75" cy="464" fill="#ADD1B2" rx="11" ry="11" style="stroke:#181818;stroke-width:1.0;"/><path d="M844.5156,459.875 Q844.6719,459.6563 844.8594,459.5469 Q845.0469,459.4375 845.2656,459.4375 Q845.6406,459.4375 845.875,459.7031 Q846.1094,459.9531 846.1094,460.5625 L846.1094,462.0156 Q846.1094,462.625 845.875,462.8906 Q845.6406,463.1563 845.2656,463.1563 Q844.9219,463.1563 844.7188,462.9531 Q844.5156,462.7656 844.4063,462.25 Q844.3594,461.8906 844.1719,461.7031 Q843.8438,461.3281 843.2344,461.1094 Q842.625,460.8906 842,460.8906 Q841.2344,460.8906 840.5938,461.2188 Q839.9688,461.5469 839.4688,462.2969 Q838.9844,463.0469 838.9844,464.0781 L838.9844,465.1719 Q838.9844,466.4063 839.875,467.2344 Q840.7656,468.0469 842.3594,468.0469 Q843.2969,468.0469 843.9531,467.7969 Q844.3438,467.6406 844.7656,467.2031 Q845.0313,466.9375 845.1719,466.8594 Q845.3281,466.7813 845.5313,466.7813 Q845.8594,466.7813 846.1094,467.0469 Q846.375,467.2969 846.375,467.6406 Q846.375,467.9844 846.0313,468.3906 Q845.5313,468.9688 844.7344,469.2969 Q843.6563,469.75 842.3594,469.75 Q840.8438,469.75 839.6406,469.125 Q838.6563,468.625 837.9688,467.5625 Q837.2813,466.4844 837.2813,465.2031 L837.2813,464.0469 Q837.2813,462.7188 837.8906,461.5781 Q838.5156,460.4219 839.6094,459.8125 Q840.7031,459.1875 841.9375,459.1875 Q842.6719,459.1875 843.3125,459.3594 Q843.9688,459.5156 844.5156,459.875 Z " fill="#000000"/><text fill="#000000" font-family="sans-serif" font-size="14" lengthAdjust="spacing" textLength="104" x="862.25" y="469.7969">TeamRepository</text><line style="stroke:#181818;stroke-width:0.5;" x1="798.5" x2="997.5" y1="480" y2="480"/><text fill="#000000" font-family="sans-serif" font-size="14" lengthAdjust="spacing" textLength="118" x="803.5" y="499.1074">-List &lt;Team&gt; team</text><line style="stroke:#181818;stroke-width:0.5;" x1="798.5" x2="997.5" y1="506.6211" y2="506.6211"/><text fill="#000000" font-family="sans-serif" font-size="14" lengthAdjust="spacing" textLength="106" x="803.5" y="525.7285">-addTeam(team)</text><text fill="#000000" font-family="sans-serif" font-size="14" lengthAdjust="spacing" textLength="189" x="803.5" y="544.3496">+registerProposalTeam(team)</text></g><!--class SkillRepository--><g id="elem_SkillRepository"><rect codeLine="62" fill="#F1F1F1" height="85.2422" id="SkillRepository" rx="2.5" ry="2.5" style="stroke:#181818;stroke-width:0.5;" width="189" x="573.5" y="457.5"/><ellipse cx="617.3" cy="473.5" fill="#ADD1B2" rx="11" ry="11" style="stroke:#181818;stroke-width:1.0;"/><path d="M620.0656,469.375 Q620.2219,469.1563 620.4094,469.0469 Q620.5969,468.9375 620.8156,468.9375 Q621.1906,468.9375 621.425,469.2031 Q621.6594,469.4531 621.6594,470.0625 L621.6594,471.5156 Q621.6594,472.125 621.425,472.3906 Q621.1906,472.6563 620.8156,472.6563 Q620.4719,472.6563 620.2688,472.4531 Q620.0656,472.2656 619.9563,471.75 Q619.9094,471.3906 619.7219,471.2031 Q619.3938,470.8281 618.7844,470.6094 Q618.175,470.3906 617.55,470.3906 Q616.7844,470.3906 616.1438,470.7188 Q615.5188,471.0469 615.0188,471.7969 Q614.5344,472.5469 614.5344,473.5781 L614.5344,474.6719 Q614.5344,475.9063 615.425,476.7344 Q616.3156,477.5469 617.9094,477.5469 Q618.8469,477.5469 619.5031,477.2969 Q619.8938,477.1406 620.3156,476.7031 Q620.5813,476.4375 620.7219,476.3594 Q620.8781,476.2813 621.0813,476.2813 Q621.4094,476.2813 621.6594,476.5469 Q621.925,476.7969 621.925,477.1406 Q621.925,477.4844 621.5813,477.8906 Q621.0813,478.4688 620.2844,478.7969 Q619.2063,479.25 617.9094,479.25 Q616.3938,479.25 615.1906,478.625 Q614.2063,478.125 613.5188,477.0625 Q612.8313,475.9844 612.8313,474.7031 L612.8313,473.5469 Q612.8313,472.2188 613.4406,471.0781 Q614.0656,469.9219 615.1594,469.3125 Q616.2531,468.6875 617.4875,468.6875 Q618.2219,468.6875 618.8625,468.8594 Q619.5188,469.0156 620.0656,469.375 Z " fill="#000000"/><text fill="#000000" font-family="sans-serif" font-size="14" lengthAdjust="spacing" textLength="93" x="637.7" y="479.2969">SkillRepository</text><line style="stroke:#181818;stroke-width:0.5;" x1="574.5" x2="761.5" y1="489.5" y2="489.5"/><text fill="#000000" font-family="sans-serif" font-size="14" lengthAdjust="spacing" textLength="106" x="579.5" y="508.6074">-List &lt;Skill&gt; skills</text><line style="stroke:#181818;stroke-width:0.5;" x1="574.5" x2="761.5" y1="516.1211" y2="516.1211"/><text fill="#000000" font-family="sans-serif" font-size="14" lengthAdjust="spacing" textLength="177" x="579.5" y="535.2285">+hasSkillByName(skillName)</text></g><!--class CollaboratorRepository--><g id="elem_CollaboratorRepository"><rect codeLine="67" fill="#F1F1F1" height="85.2422" id="CollaboratorRepository" rx="2.5" ry="2.5" style="stroke:#181818;stroke-width:0.5;" width="223" x="315.5" y="457.5"/><ellipse cx="350.75" cy="473.5" fill="#ADD1B2" rx="11" ry="11" style="stroke:#181818;stroke-width:1.0;"/><path d="M353.5156,469.375 Q353.6719,469.1563 353.8594,469.0469 Q354.0469,468.9375 354.2656,468.9375 Q354.6406,468.9375 354.875,469.2031 Q355.1094,469.4531 355.1094,470.0625 L355.1094,471.5156 Q355.1094,472.125 354.875,472.3906 Q354.6406,472.6563 354.2656,472.6563 Q353.9219,472.6563 353.7188,472.4531 Q353.5156,472.2656 353.4063,471.75 Q353.3594,471.3906 353.1719,471.2031 Q352.8438,470.8281 352.2344,470.6094 Q351.625,470.3906 351,470.3906 Q350.2344,470.3906 349.5938,470.7188 Q348.9688,471.0469 348.4688,471.7969 Q347.9844,472.5469 347.9844,473.5781 L347.9844,474.6719 Q347.9844,475.9063 348.875,476.7344 Q349.7656,477.5469 351.3594,477.5469 Q352.2969,477.5469 352.9531,477.2969 Q353.3438,477.1406 353.7656,476.7031 Q354.0313,476.4375 354.1719,476.3594 Q354.3281,476.2813 354.5313,476.2813 Q354.8594,476.2813 355.1094,476.5469 Q355.375,476.7969 355.375,477.1406 Q355.375,477.4844 355.0313,477.8906 Q354.5313,478.4688 353.7344,478.7969 Q352.6563,479.25 351.3594,479.25 Q349.8438,479.25 348.6406,478.625 Q347.6563,478.125 346.9688,477.0625 Q346.2813,475.9844 346.2813,474.7031 L346.2813,473.5469 Q346.2813,472.2188 346.8906,471.0781 Q347.5156,469.9219 348.6094,469.3125 Q349.7031,468.6875 350.9375,468.6875 Q351.6719,468.6875 352.3125,468.8594 Q352.9688,469.0156 353.5156,469.375 Z " fill="#000000"/><text fill="#000000" font-family="sans-serif" font-size="14" lengthAdjust="spacing" textLength="146" x="369.25" y="479.2969">CollaboratorRepository</text><line style="stroke:#181818;stroke-width:0.5;" x1="316.5" x2="537.5" y1="489.5" y2="489.5"/><text fill="#000000" font-family="sans-serif" font-size="14" lengthAdjust="spacing" textLength="211" x="321.5" y="508.6074">-List &lt;Collaborator&gt; collaborators</text><line style="stroke:#181818;stroke-width:0.5;" x1="316.5" x2="537.5" y1="516.1211" y2="516.1211"/><text fill="#000000" font-family="sans-serif" font-size="14" lengthAdjust="spacing" textLength="202" x="321.5" y="535.2285">+getCollaboratorBySkill(skillList)</text></g><!--link GenerateTeamController to Repositories--><g id="link_GenerateTeamController_Repositories"><path codeLine="74" d="M407.72,167.25 C423.09,192.77 436.9045,215.7102 451.8345,240.5002 " fill="none" id="GenerateTeamController-to-Repositories" style="stroke:#181818;stroke-width:1.0;stroke-dasharray:7.0,7.0;"/><polygon fill="#181818" points="454.93,245.64,453.7133,235.8666,452.3504,241.3568,446.8602,239.9939,454.93,245.64" style="stroke:#181818;stroke-width:1.0;"/><text fill="#000000" font-family="sans-serif" font-size="13" lengthAdjust="spacing" textLength="67" x="438" y="212.0283">repositories</text></g><!--link GenerateTeamUI to GenerateTeamController--><g id="link_GenerateTeamUI_GenerateTeamController"><path codeLine="76" d="M147.04,87 C160.93,87 171.33,87 171.33,87 C171.33,87 169.38,87 175.79,87 " fill="none" id="GenerateTeamUI-to-GenerateTeamController" style="stroke:#181818;stroke-width:1.0;stroke-dasharray:7.0,7.0;"/><polygon fill="#181818" points="181.79,87,172.79,83,176.79,87,172.79,91,181.79,87" style="stroke:#181818;stroke-width:1.0;"/></g><!--link Repositories to Repositories--><g id="link_Repositories_Repositories"><path codeLine="77" d="M595.02,298.41 C615.37,300.31 630,306.34 630,316.5 C630,326.66 621.344,332.1322 600.994,334.0322 " fill="none" id="Repositories-to-Repositories" style="stroke:#181818;stroke-width:1.0;"/><polygon fill="#181818" points="595.02,334.59,604.3529,337.736,599.9983,334.1252,603.6092,329.7707,595.02,334.59" style="stroke:#181818;stroke-width:1.0;"/><text fill="#000000" font-family="sans-serif" font-size="13" lengthAdjust="spacing" textLength="49" x="636" y="322.0283">instance</text></g><!--link Repositories to TeamRepository--><g id="link_Repositories_TeamRepository"><path codeLine="79" d="M595.1,361.9 C656.54,389.71 730.0538,422.986 791.9638,451.006 " fill="none" id="Repositories-to-TeamRepository" style="stroke:#181818;stroke-width:1.0;"/><polygon fill="#181818" points="797.43,453.48,790.88,446.1249,792.8748,451.4184,787.5814,453.4132,797.43,453.48" style="stroke:#181818;stroke-width:1.0;"/><text fill="#000000" font-family="sans-serif" font-size="13" lengthAdjust="spacing" textLength="7" x="782.4621" y="446.3122">1</text></g><!--link Repositories to SkillRepository--><g id="link_Repositories_SkillRepository"><path codeLine="80" d="M562.62,387.15 C584.95,410.85 605.0652,432.2033 624.6652,453.0033 " fill="none" id="Repositories-to-SkillRepository" style="stroke:#181818;stroke-width:1.0;"/><polygon fill="#181818" points="628.78,457.37,625.5189,448.0767,625.351,453.7311,619.6966,453.5631,628.78,457.37" style="stroke:#181818;stroke-width:1.0;"/><text fill="#000000" font-family="sans-serif" font-size="13" lengthAdjust="spacing" textLength="7" x="614.9715" y="446.2534">1</text></g><!--link Repositories to CollaboratorRepository--><g id="link_Repositories_CollaboratorRepository"><path codeLine="81" d="M470.14,387.15 C461,410.85 453.2386,430.9717 445.2186,451.7717 " fill="none" id="Repositories-to-CollaboratorRepository" style="stroke:#181818;stroke-width:1.0;"/><polygon fill="#181818" points="443.06,457.37,450.03,450.4116,444.8588,452.7048,442.5657,447.5336,443.06,457.37" style="stroke:#181818;stroke-width:1.0;"/><text fill="#000000" font-family="sans-serif" font-size="13" lengthAdjust="spacing" textLength="7" x="438.0618" y="446.2534">1</text></g><!--link TeamRepository to Team--><g id="link_TeamRepository_Team"><path codeLine="83" d="M886.55,552.1 C879.19,584.95 871,621.5 871,621.5 C871,621.5 871,621.5 871,1032 C871,1032 696.5196,1097.2677 575.3496,1142.5977 " fill="none" id="TeamRepository-to-Team" style="stroke:#181818;stroke-width:1.0;"/><polygon fill="#181818" points="569.73,1144.7,579.561,1145.2929,574.413,1142.9481,576.7579,1137.8001,569.73,1144.7" style="stroke:#181818;stroke-width:1.0;"/><text fill="#000000" font-family="sans-serif" font-size="13" lengthAdjust="spacing" textLength="29" x="872" y="825.0283">team</text><text fill="#000000" font-family="sans-serif" font-size="13" lengthAdjust="spacing" textLength="5" x="577.4805" y="1138.2418">*</text></g><!--link CollaboratorRepository to Collaborator--><g id="link_CollaboratorRepository_Collaborator"><path codeLine="84" d="M431.05,542.51 C434.79,580.75 439.9371,633.5284 445.1571,687.0084 " fill="none" id="CollaboratorRepository-to-Collaborator" style="stroke:#181818;stroke-width:1.0;"/><polygon fill="#181818" points="445.74,692.98,448.8468,683.634,445.2543,688.0036,440.8846,684.4111,445.74,692.98" style="stroke:#181818;stroke-width:1.0;"/><text fill="#000000" font-family="sans-serif" font-size="13" lengthAdjust="spacing" textLength="67" x="441" y="628.0283">collaborator</text><text fill="#000000" font-family="sans-serif" font-size="13" lengthAdjust="spacing" textLength="5" x="439.8406" y="681.7945">*</text></g><!--link GenerateTeamController to TeamRepository--><g id="link_GenerateTeamController_TeamRepository"><path codeLine="86" d="M538.19,154.09 C654.93,197.39 786,246 786,246 C786,246 840.1811,368.3836 872.9111,442.3136 " fill="none" id="GenerateTeamController-to-TeamRepository" style="stroke:#181818;stroke-width:1.0;stroke-dasharray:7.0,7.0;"/><polygon fill="#181818" points="875.34,447.8,875.3542,437.9512,873.3159,443.228,868.039,441.1897,875.34,447.8" style="stroke:#181818;stroke-width:1.0;"/><text fill="#000000" font-family="sans-serif" font-size="13" lengthAdjust="spacing" textLength="91" x="848" y="322.0283">teamRepository</text></g><!--link GenerateTeamController to SkillRepository--><g id="link_GenerateTeamController_SkillRepository"><path codeLine="87" d="M525.98,167.23 C608.57,206.65 691,246 691,246 C691,246 691,387 691,387 C691,387 684.3068,419.5726 677.7668,451.4226 " fill="none" id="GenerateTeamController-to-SkillRepository" style="stroke:#181818;stroke-width:1.0;stroke-dasharray:7.0,7.0;"/><polygon fill="#181818" points="676.56,457.3,682.2885,449.2885,677.5657,452.4022,674.452,447.6794,676.56,457.3" style="stroke:#181818;stroke-width:1.0;"/><text fill="#000000" font-family="sans-serif" font-size="13" lengthAdjust="spacing" textLength="85" x="692" y="322.0283">skillRepository</text></g><!--link GenerateTeamController to CollaboratorRepository--><g id="link_GenerateTeamController_CollaboratorRepository"><path codeLine="88" d="M335.86,167.46 C323.91,206.81 312,246 312,246 C312,246 312,387 312,387 C312,387 347.1819,421.2636 379.8819,453.1136 " fill="none" id="GenerateTeamController-to-CollaboratorRepository" style="stroke:#181818;stroke-width:1.0;stroke-dasharray:7.0,7.0;"/><polygon fill="#181818" points="384.18,457.3,380.5237,448.155,380.5982,453.8113,374.9419,453.8858,384.18,457.3" style="stroke:#181818;stroke-width:1.0;"/><text fill="#000000" font-family="sans-serif" font-size="13" lengthAdjust="spacing" textLength="67" x="313" y="322.0283">collaborator</text></g><!--link GenerateTeamController to Collaborator--><g id="link_GenerateTeamController_Collaborator"><path codeLine="89" d="M306.7,167.25 C262.55,232.91 207,315.5 207,315.5 C207,315.5 207,315.5 207,623.5 C207,623.5 242.8917,651.3892 291.4617,689.1192 " fill="none" id="GenerateTeamController-to-Collaborator" style="stroke:#181818;stroke-width:1.0;stroke-dasharray:7.0,7.0;"/><polygon fill="#181818" points="296.2,692.8,291.5464,684.1199,292.2514,689.7327,286.6387,690.4377,296.2,692.8" style="stroke:#181818;stroke-width:1.0;"/><text fill="#000000" font-family="sans-serif" font-size="13" lengthAdjust="spacing" textLength="67" x="208" y="505.5283">collaborator</text></g><!--link GenerateTeamController to Team--><g id="link_GenerateTeamController_Team"><path codeLine="90" d="M266.29,167.25 C188.66,232.91 91,315.5 91,315.5 C91,315.5 91,315.5 91,1032 C91,1032 239.1031,1093.0827 348.6431,1138.2527 " fill="none" id="GenerateTeamController-to-Team" style="stroke:#181818;stroke-width:1.0;stroke-dasharray:7.0,7.0;"/><polygon fill="#181818" points="354.19,1140.54,347.3945,1133.4111,349.5676,1138.6339,344.3448,1140.8069,354.19,1140.54" style="stroke:#181818;stroke-width:1.0;"/><text fill="#000000" font-family="sans-serif" font-size="13" lengthAdjust="spacing" textLength="29" x="92" y="628.0283">team</text></g><!--reverse link Collaborator to HumanResourcesManager--><g id="link_Collaborator_HumanResourcesManager"><path codeLine="92" d="M544.8974,961.6276 C559.2374,984.9176 563.25,991.43 572.81,1006.96 " fill="none" id="Collaborator-backto-HumanResourcesManager" style="stroke:#181818;stroke-width:1.0;"/><polygon fill="none" points="535.46,946.3,539.7882,964.7734,550.0066,958.4818,535.46,946.3" style="stroke:#181818;stroke-width:1.0;"/></g><!--link HumanResourcesManager to Team--><g id="link_HumanResourcesManager_Team"><path codeLine="94" d="M568.02,1055.24 C551.01,1076.05 529.2654,1102.663 507.5154,1129.293 " fill="none" id="HumanResourcesManager-to-Team" style="stroke:#181818;stroke-width:1.0;"/><polygon fill="#181818" points="503.72,1133.94,512.5112,1129.4998,506.8829,1130.0675,506.3151,1124.4392,503.72,1133.94" style="stroke:#181818;stroke-width:1.0;"/><text fill="#000000" font-family="sans-serif" font-size="13" lengthAdjust="spacing" textLength="41" x="544" y="1100.0283">defines</text><text fill="#000000" font-family="sans-serif" font-size="13" lengthAdjust="spacing" textLength="7" x="555.8215" y="1076.8731">1</text><text fill="#000000" font-family="sans-serif" font-size="13" lengthAdjust="spacing" textLength="20" x="487.9824" y="1122.8593">1..*</text></g><!--link Collaborator to Team--><g id="link_Collaborator_Team"><path codeLine="95" d="M431.04,946.19 C423.83,979.81 418,1007 418,1007 C418,1007 418,1055 418,1055 C418,1055 430.486,1091.8869 442.816,1128.3069 " fill="none" id="Collaborator-to-Team" style="stroke:#181818;stroke-width:1.0;"/><polygon fill="#181818" points="444.74,1133.99,445.6427,1124.1826,443.1366,1129.254,438.0652,1126.748,444.74,1133.99" style="stroke:#181818;stroke-width:1.0;"/><text fill="#000000" font-family="sans-serif" font-size="13" lengthAdjust="spacing" textLength="49" x="419" y="1036.5283">contains</text><text fill="#000000" font-family="sans-serif" font-size="13" lengthAdjust="spacing" textLength="20" x="408.9033" y="968.0473">1..*</text><text fill="#000000" font-family="sans-serif" font-size="13" lengthAdjust="spacing" textLength="7" x="434.9504" y="1122.916">1</text></g><!--SRC=[ZLPTRzCm57tthx3siWpI2bwhgj8s91Y2WTR1kvlS9cQENTdke0p-EzTnsbwdoLWValX-dUjpZwsUkmUfDyAAXZT6cwAsfW7kxHROqRCHnOEeOEbt2hY5mWjTAHhWQb6Qdr9NV2sKenubDVZT1lZ6g5rOiFC1fx7UC99LAE7SfVTMhhOURWgZb_8ty3UCdIjOU-uDjxAgFIzbQ4SQpLYRmz-31Yiyt8DehetsrYW5bZynZhy9hy1VeqMi30OPUxLRFaYbCXUUdwJp5rrSOQ4haZMo1SyRyQjz5oG_fEIzvDSZFMHxTorSYtgrknKDHEpmjVTN9DsTm9-WMQXm1VQhDHlZX6gRzlYuO7_th0JRWOEGFASiB3XTTMNRCgUXUu8UXP8bDlaTQbaeo1xZcs1I5hxT8Fh1GmlkkrhYh54-6dc8XW3DvorH2zvkEje_cXN_OLPnyGxhyz36b_MLjBucLb4sqZbKHbX5-sLPMa1y4T_HABNdczfekDqsAx19Dz08gOvXHK6-XIsxZ8umkgiix2EddULfG_c-YPo2vn4nHwIS811IFsmReU_0cQqjm7qM6e-bfTpU0Of0OWiI7DgxQL5hTjIPlz4Ept81sGMV9K77a32-WsT7a-c6XoFQwIMkH957Jw9DFW_E1GyQxin85f7rotNVQw07GyNb_diu1-KxMZizN_JESCCC3bn5pq_z2TqZjzrqaUfWXcIHsRBUqSJmuK8igJ8vgIex-R1U84QUlJthpNWufZUXuQ1XnXdhYMZInh-AmDXUAw2HQHrYayjebangdDyfKjO3Zt2ak-To-xgSHH6-C7jaIxtcnxNnt9R7ioYf2QkSp_zC9iCYPMpunWfJZTETJey3As6D_mXSMhqBeQ9gczPUeFuOO_y0]--></g></svg>