<?xml version="1.0" encoding="us-ascii" standalone="no"?><svg xmlns="http://www.w3.org/2000/svg" xmlns:xlink="http://www.w3.org/1999/xlink" contentStyleType="text/css" height="1355px" preserveAspectRatio="none" style="width:1211px;height:1355px;background:#FFFFFF;" version="1.1" viewBox="0 0 1211 1355" width="1211px" zoomAndPan="magnify"><defs/><g><!--class GenerateTeamController--><g id="elem_GenerateTeamController"><rect codeLine="11" fill="#F1F1F1" height="178.3477" id="GenerateTeamController" rx="2.5" ry="2.5" style="stroke:#181818;stroke-width:0.5;" width="451" x="182.5" y="7"/><ellipse cx="324.75" cy="23" fill="#ADD1B2" rx="11" ry="11" style="stroke:#181818;stroke-width:1.0;"/><path d="M327.5156,18.875 Q327.6719,18.6563 327.8594,18.5469 Q328.0469,18.4375 328.2656,18.4375 Q328.6406,18.4375 328.875,18.7031 Q329.1094,18.9531 329.1094,19.5625 L329.1094,21.0156 Q329.1094,21.625 328.875,21.8906 Q328.6406,22.1563 328.2656,22.1563 Q327.9219,22.1563 327.7188,21.9531 Q327.5156,21.7656 327.4063,21.25 Q327.3594,20.8906 327.1719,20.7031 Q326.8438,20.3281 326.2344,20.1094 Q325.625,19.8906 325,19.8906 Q324.2344,19.8906 323.5938,20.2188 Q322.9688,20.5469 322.4688,21.2969 Q321.9844,22.0469 321.9844,23.0781 L321.9844,24.1719 Q321.9844,25.4063 322.875,26.2344 Q323.7656,27.0469 325.3594,27.0469 Q326.2969,27.0469 326.9531,26.7969 Q327.3438,26.6406 327.7656,26.2031 Q328.0313,25.9375 328.1719,25.8594 Q328.3281,25.7813 328.5313,25.7813 Q328.8594,25.7813 329.1094,26.0469 Q329.375,26.2969 329.375,26.6406 Q329.375,26.9844 329.0313,27.3906 Q328.5313,27.9688 327.7344,28.2969 Q326.6563,28.75 325.3594,28.75 Q323.8438,28.75 322.6406,28.125 Q321.6563,27.625 320.9688,26.5625 Q320.2813,25.4844 320.2813,24.2031 L320.2813,23.0469 Q320.2813,21.7188 320.8906,20.5781 Q321.5156,19.4219 322.6094,18.8125 Q323.7031,18.1875 324.9375,18.1875 Q325.6719,18.1875 326.3125,18.3594 Q326.9688,18.5156 327.5156,18.875 Z " fill="#000000"/><text fill="#000000" font-family="sans-serif" font-size="14" lengthAdjust="spacing" textLength="158" x="345.25" y="28.7969">GenerateTeamController</text><line style="stroke:#181818;stroke-width:0.5;" x1="183.5" x2="632.5" y1="39" y2="39"/><line style="stroke:#181818;stroke-width:0.5;" x1="183.5" x2="632.5" y1="47" y2="47"/><text fill="#000000" font-family="sans-serif" font-size="14" lengthAdjust="spacing" textLength="176" x="188.5" y="66.1074">+GenerateTeamController()</text><text fill="#000000" font-family="sans-serif" font-size="14" lengthAdjust="spacing" textLength="222" x="188.5" y="84.7285">-getAllSkillsByName(skillListNames)</text><text fill="#000000" font-family="sans-serif" font-size="14" lengthAdjust="spacing" textLength="199" x="188.5" y="103.3496">-getCollaboratorBySkill(skillList)</text><text fill="#000000" font-family="sans-serif" font-size="14" lengthAdjust="spacing" textLength="439" x="188.5" y="121.9707">-generateProposalTeamList(minSize,maxSize,skillList,collaboratorList)</text><text fill="#000000" font-family="sans-serif" font-size="14" lengthAdjust="spacing" textLength="85" x="188.5" y="140.5918">+getSkillList()</text><text fill="#000000" font-family="sans-serif" font-size="14" lengthAdjust="spacing" textLength="326" x="188.5" y="159.2129">+generateProposalTeams(minSize,maxSize,skillList)</text><text fill="#000000" font-family="sans-serif" font-size="14" lengthAdjust="spacing" textLength="189" x="188.5" y="177.834">+registerProposalTeam(team)</text></g><!--class Team--><g id="elem_Team"><rect codeLine="21" fill="#F1F1F1" height="103.8633" id="Team" rx="2.5" ry="2.5" style="stroke:#181818;stroke-width:0.5;" width="237" x="372.5" y="1245"/><ellipse cx="468.75" cy="1261" fill="#ADD1B2" rx="11" ry="11" style="stroke:#181818;stroke-width:1.0;"/><path d="M471.5156,1256.875 Q471.6719,1256.6563 471.8594,1256.5469 Q472.0469,1256.4375 472.2656,1256.4375 Q472.6406,1256.4375 472.875,1256.7031 Q473.1094,1256.9531 473.1094,1257.5625 L473.1094,1259.0156 Q473.1094,1259.625 472.875,1259.8906 Q472.6406,1260.1563 472.2656,1260.1563 Q471.9219,1260.1563 471.7188,1259.9531 Q471.5156,1259.7656 471.4063,1259.25 Q471.3594,1258.8906 471.1719,1258.7031 Q470.8438,1258.3281 470.2344,1258.1094 Q469.625,1257.8906 469,1257.8906 Q468.2344,1257.8906 467.5938,1258.2188 Q466.9688,1258.5469 466.4688,1259.2969 Q465.9844,1260.0469 465.9844,1261.0781 L465.9844,1262.1719 Q465.9844,1263.4063 466.875,1264.2344 Q467.7656,1265.0469 469.3594,1265.0469 Q470.2969,1265.0469 470.9531,1264.7969 Q471.3438,1264.6406 471.7656,1264.2031 Q472.0313,1263.9375 472.1719,1263.8594 Q472.3281,1263.7813 472.5313,1263.7813 Q472.8594,1263.7813 473.1094,1264.0469 Q473.375,1264.2969 473.375,1264.6406 Q473.375,1264.9844 473.0313,1265.3906 Q472.5313,1265.9688 471.7344,1266.2969 Q470.6563,1266.75 469.3594,1266.75 Q467.8438,1266.75 466.6406,1266.125 Q465.6563,1265.625 464.9688,1264.5625 Q464.2813,1263.4844 464.2813,1262.2031 L464.2813,1261.0469 Q464.2813,1259.7188 464.8906,1258.5781 Q465.5156,1257.4219 466.6094,1256.8125 Q467.7031,1256.1875 468.9375,1256.1875 Q469.6719,1256.1875 470.3125,1256.3594 Q470.9688,1256.5156 471.5156,1256.875 Z " fill="#000000"/><text fill="#000000" font-family="sans-serif" font-size="14" lengthAdjust="spacing" textLength="36" x="489.25" y="1266.7969">Team</text><line style="stroke:#181818;stroke-width:0.5;" x1="373.5" x2="608.5" y1="1277" y2="1277"/><text fill="#000000" font-family="sans-serif" font-size="14" lengthAdjust="spacing" textLength="222" x="378.5" y="1296.1074">-List&lt;Collaborator&gt; collaboratorList</text><line style="stroke:#181818;stroke-width:0.5;" x1="373.5" x2="608.5" y1="1303.6211" y2="1303.6211"/><text fill="#000000" font-family="sans-serif" font-size="14" lengthAdjust="spacing" textLength="225" x="378.5" y="1322.7285">-collaboratorHasTeam(collaborator)</text><text fill="#000000" font-family="sans-serif" font-size="14" lengthAdjust="spacing" textLength="151" x="378.5" y="1341.3496">+Team(collaboratorList)</text></g><!--class GenerateTeamUI--><g id="elem_GenerateTeamUI"><rect codeLine="28" fill="#F1F1F1" height="48" id="GenerateTeamUI" rx="2.5" ry="2.5" style="stroke:#181818;stroke-width:0.5;" width="140" x="7" y="72"/><ellipse cx="22" cy="88" fill="#ADD1B2" rx="11" ry="11" style="stroke:#181818;stroke-width:1.0;"/><path d="M24.7656,83.875 Q24.9219,83.6563 25.1094,83.5469 Q25.2969,83.4375 25.5156,83.4375 Q25.8906,83.4375 26.125,83.7031 Q26.3594,83.9531 26.3594,84.5625 L26.3594,86.0156 Q26.3594,86.625 26.125,86.8906 Q25.8906,87.1563 25.5156,87.1563 Q25.1719,87.1563 24.9688,86.9531 Q24.7656,86.7656 24.6563,86.25 Q24.6094,85.8906 24.4219,85.7031 Q24.0938,85.3281 23.4844,85.1094 Q22.875,84.8906 22.25,84.8906 Q21.4844,84.8906 20.8438,85.2188 Q20.2188,85.5469 19.7188,86.2969 Q19.2344,87.0469 19.2344,88.0781 L19.2344,89.1719 Q19.2344,90.4063 20.125,91.2344 Q21.0156,92.0469 22.6094,92.0469 Q23.5469,92.0469 24.2031,91.7969 Q24.5938,91.6406 25.0156,91.2031 Q25.2813,90.9375 25.4219,90.8594 Q25.5781,90.7813 25.7813,90.7813 Q26.1094,90.7813 26.3594,91.0469 Q26.625,91.2969 26.625,91.6406 Q26.625,91.9844 26.2813,92.3906 Q25.7813,92.9688 24.9844,93.2969 Q23.9063,93.75 22.6094,93.75 Q21.0938,93.75 19.8906,93.125 Q18.9063,92.625 18.2188,91.5625 Q17.5313,90.4844 17.5313,89.2031 L17.5313,88.0469 Q17.5313,86.7188 18.1406,85.5781 Q18.7656,84.4219 19.8594,83.8125 Q20.9531,83.1875 22.1875,83.1875 Q22.9219,83.1875 23.5625,83.3594 Q24.2188,83.5156 24.7656,83.875 Z " fill="#000000"/><text fill="#000000" font-family="sans-serif" font-size="14" lengthAdjust="spacing" textLength="108" x="36" y="93.7969">GenerateTeamUI</text><line style="stroke:#181818;stroke-width:0.5;" x1="8" x2="146" y1="104" y2="104"/><line style="stroke:#181818;stroke-width:0.5;" x1="8" x2="146" y1="112" y2="112"/></g><!--class Collaborator--><g id="elem_Collaborator"><rect codeLine="31" fill="#F1F1F1" height="252.832" id="Collaborator" rx="2.5" ry="2.5" style="stroke:#181818;stroke-width:0.5;" width="618" x="178" y="804"/><ellipse cx="443.75" cy="820" fill="#ADD1B2" rx="11" ry="11" style="stroke:#181818;stroke-width:1.0;"/><path d="M446.5156,815.875 Q446.6719,815.6563 446.8594,815.5469 Q447.0469,815.4375 447.2656,815.4375 Q447.6406,815.4375 447.875,815.7031 Q448.1094,815.9531 448.1094,816.5625 L448.1094,818.0156 Q448.1094,818.625 447.875,818.8906 Q447.6406,819.1563 447.2656,819.1563 Q446.9219,819.1563 446.7188,818.9531 Q446.5156,818.7656 446.4063,818.25 Q446.3594,817.8906 446.1719,817.7031 Q445.8438,817.3281 445.2344,817.1094 Q444.625,816.8906 444,816.8906 Q443.2344,816.8906 442.5938,817.2188 Q441.9688,817.5469 441.4688,818.2969 Q440.9844,819.0469 440.9844,820.0781 L440.9844,821.1719 Q440.9844,822.4063 441.875,823.2344 Q442.7656,824.0469 444.3594,824.0469 Q445.2969,824.0469 445.9531,823.7969 Q446.3438,823.6406 446.7656,823.2031 Q447.0313,822.9375 447.1719,822.8594 Q447.3281,822.7813 447.5313,822.7813 Q447.8594,822.7813 448.1094,823.0469 Q448.375,823.2969 448.375,823.6406 Q448.375,823.9844 448.0313,824.3906 Q447.5313,824.9688 446.7344,825.2969 Q445.6563,825.75 444.3594,825.75 Q442.8438,825.75 441.6406,825.125 Q440.6563,824.625 439.9688,823.5625 Q439.2813,822.4844 439.2813,821.2031 L439.2813,820.0469 Q439.2813,818.7188 439.8906,817.5781 Q440.5156,816.4219 441.6094,815.8125 Q442.7031,815.1875 443.9375,815.1875 Q444.6719,815.1875 445.3125,815.3594 Q445.9688,815.5156 446.5156,815.875 Z " fill="#000000"/><text fill="#000000" font-family="sans-serif" font-size="14" lengthAdjust="spacing" textLength="78" x="464.25" y="825.7969">Collaborator</text><line style="stroke:#181818;stroke-width:0.5;" x1="179" x2="795" y1="836" y2="836"/><text fill="#000000" font-family="sans-serif" font-size="14" lengthAdjust="spacing" textLength="81" x="184" y="855.1074">-String name</text><text fill="#000000" font-family="sans-serif" font-size="14" lengthAdjust="spacing" textLength="117" x="184" y="873.7285">-List&lt;Skill&gt; skillList</text><text fill="#000000" font-family="sans-serif" font-size="14" lengthAdjust="spacing" textLength="50" x="184" y="892.3496">-Job job</text><text fill="#000000" font-family="sans-serif" font-size="14" lengthAdjust="spacing" textLength="111" x="184" y="910.9707">-Date dateOfBirth</text><text fill="#000000" font-family="sans-serif" font-size="14" lengthAdjust="spacing" textLength="132" x="184" y="929.5918">-Date admissionDate</text><text fill="#000000" font-family="sans-serif" font-size="14" lengthAdjust="spacing" textLength="112" x="184" y="948.2129">-Address address</text><text fill="#000000" font-family="sans-serif" font-size="14" lengthAdjust="spacing" textLength="135" x="184" y="966.834">-String phoneNumber</text><text fill="#000000" font-family="sans-serif" font-size="14" lengthAdjust="spacing" textLength="79" x="184" y="985.4551">-String email</text><text fill="#000000" font-family="sans-serif" font-size="14" lengthAdjust="spacing" textLength="135" x="184" y="1004.0762">-Document document</text><line style="stroke:#181818;stroke-width:0.5;" x1="179" x2="795" y1="1011.5898" y2="1011.5898"/><text fill="#000000" font-family="sans-serif" font-size="14" lengthAdjust="spacing" textLength="606" x="184" y="1030.6973">+Collaborator(name, job, dateOfBirth, admissionDate, address, phoneNumber, email, document)</text><text fill="#000000" font-family="sans-serif" font-size="14" lengthAdjust="spacing" textLength="167" x="184" y="1049.3184">+hasCollaboratorSkill(skill)</text></g><!--class HumanResourcesManager--><g id="elem_HumanResourcesManager"><rect codeLine="81" fill="#F1F1F1" height="48" id="HumanResourcesManager" rx="2.5" ry="2.5" style="stroke:#181818;stroke-width:0.5;" width="200" x="516" y="1118"/><ellipse cx="531" cy="1134" fill="#ADD1B2" rx="11" ry="11" style="stroke:#181818;stroke-width:1.0;"/><path d="M533.7656,1129.875 Q533.9219,1129.6563 534.1094,1129.5469 Q534.2969,1129.4375 534.5156,1129.4375 Q534.8906,1129.4375 535.125,1129.7031 Q535.3594,1129.9531 535.3594,1130.5625 L535.3594,1132.0156 Q535.3594,1132.625 535.125,1132.8906 Q534.8906,1133.1563 534.5156,1133.1563 Q534.1719,1133.1563 533.9688,1132.9531 Q533.7656,1132.7656 533.6563,1132.25 Q533.6094,1131.8906 533.4219,1131.7031 Q533.0938,1131.3281 532.4844,1131.1094 Q531.875,1130.8906 531.25,1130.8906 Q530.4844,1130.8906 529.8438,1131.2188 Q529.2188,1131.5469 528.7188,1132.2969 Q528.2344,1133.0469 528.2344,1134.0781 L528.2344,1135.1719 Q528.2344,1136.4063 529.125,1137.2344 Q530.0156,1138.0469 531.6094,1138.0469 Q532.5469,1138.0469 533.2031,1137.7969 Q533.5938,1137.6406 534.0156,1137.2031 Q534.2813,1136.9375 534.4219,1136.8594 Q534.5781,1136.7813 534.7813,1136.7813 Q535.1094,1136.7813 535.3594,1137.0469 Q535.625,1137.2969 535.625,1137.6406 Q535.625,1137.9844 535.2813,1138.3906 Q534.7813,1138.9688 533.9844,1139.2969 Q532.9063,1139.75 531.6094,1139.75 Q530.0938,1139.75 528.8906,1139.125 Q527.9063,1138.625 527.2188,1137.5625 Q526.5313,1136.4844 526.5313,1135.2031 L526.5313,1134.0469 Q526.5313,1132.7188 527.1406,1131.5781 Q527.7656,1130.4219 528.8594,1129.8125 Q529.9531,1129.1875 531.1875,1129.1875 Q531.9219,1129.1875 532.5625,1129.3594 Q533.2188,1129.5156 533.7656,1129.875 Z " fill="#000000"/><text fill="#000000" font-family="sans-serif" font-size="14" lengthAdjust="spacing" textLength="168" x="545" y="1139.7969">HumanResourcesManager</text><line style="stroke:#181818;stroke-width:0.5;" x1="517" x2="715" y1="1150" y2="1150"/><line style="stroke:#181818;stroke-width:0.5;" x1="517" x2="715" y1="1158" y2="1158"/></g><!--class Repositories--><g id="elem_Repositories"><rect codeLine="50" fill="#F1F1F1" height="141.1055" id="Repositories" rx="2.5" ry="2.5" style="stroke:#181818;stroke-width:0.5;" width="196" x="409" y="264"/><ellipse cx="463.25" cy="280" fill="#ADD1B2" rx="11" ry="11" style="stroke:#181818;stroke-width:1.0;"/><path d="M466.0156,275.875 Q466.1719,275.6563 466.3594,275.5469 Q466.5469,275.4375 466.7656,275.4375 Q467.1406,275.4375 467.375,275.7031 Q467.6094,275.9531 467.6094,276.5625 L467.6094,278.0156 Q467.6094,278.625 467.375,278.8906 Q467.1406,279.1563 466.7656,279.1563 Q466.4219,279.1563 466.2188,278.9531 Q466.0156,278.7656 465.9063,278.25 Q465.8594,277.8906 465.6719,277.7031 Q465.3438,277.3281 464.7344,277.1094 Q464.125,276.8906 463.5,276.8906 Q462.7344,276.8906 462.0938,277.2188 Q461.4688,277.5469 460.9688,278.2969 Q460.4844,279.0469 460.4844,280.0781 L460.4844,281.1719 Q460.4844,282.4063 461.375,283.2344 Q462.2656,284.0469 463.8594,284.0469 Q464.7969,284.0469 465.4531,283.7969 Q465.8438,283.6406 466.2656,283.2031 Q466.5313,282.9375 466.6719,282.8594 Q466.8281,282.7813 467.0313,282.7813 Q467.3594,282.7813 467.6094,283.0469 Q467.875,283.2969 467.875,283.6406 Q467.875,283.9844 467.5313,284.3906 Q467.0313,284.9688 466.2344,285.2969 Q465.1563,285.75 463.8594,285.75 Q462.3438,285.75 461.1406,285.125 Q460.1563,284.625 459.4688,283.5625 Q458.7813,282.4844 458.7813,281.2031 L458.7813,280.0469 Q458.7813,278.7188 459.3906,277.5781 Q460.0156,276.4219 461.1094,275.8125 Q462.2031,275.1875 463.4375,275.1875 Q464.1719,275.1875 464.8125,275.3594 Q465.4688,275.5156 466.0156,275.875 Z " fill="#000000"/><text fill="#000000" font-family="sans-serif" font-size="14" lengthAdjust="spacing" textLength="79" x="483.75" y="285.7969">Repositories</text><line style="stroke:#181818;stroke-width:0.5;" x1="410" x2="604" y1="296" y2="296"/><line style="stroke:#181818;stroke-width:0.5;" x1="410" x2="604" y1="304" y2="304"/><text fill="#000000" font-family="sans-serif" font-size="14" lengthAdjust="spacing" textLength="94" x="415" y="323.1074">-Repositories()</text><text fill="#000000" font-family="sans-serif" font-size="14" lengthAdjust="spacing" textLength="182" x="415" y="341.7285">+getInstance() : Repositories</text><text fill="#000000" font-family="sans-serif" font-size="14" lengthAdjust="spacing" textLength="142" x="415" y="360.3496">+getTeamRepository()</text><text fill="#000000" font-family="sans-serif" font-size="14" lengthAdjust="spacing" textLength="184" x="415" y="378.9707">+getCollaboratorRepository()</text><text fill="#000000" font-family="sans-serif" font-size="14" lengthAdjust="spacing" textLength="131" x="415" y="397.5918">+getSkillRepository()</text></g><!--class TeamRepository--><g id="elem_TeamRepository"><rect codeLine="59" fill="#F1F1F1" height="196.9688" id="TeamRepository" rx="2.5" ry="2.5" style="stroke:#181818;stroke-width:0.5;" width="402" x="802" y="466"/><ellipse cx="946.75" cy="482" fill="#ADD1B2" rx="11" ry="11" style="stroke:#181818;stroke-width:1.0;"/><path d="M949.5156,477.875 Q949.6719,477.6563 949.8594,477.5469 Q950.0469,477.4375 950.2656,477.4375 Q950.6406,477.4375 950.875,477.7031 Q951.1094,477.9531 951.1094,478.5625 L951.1094,480.0156 Q951.1094,480.625 950.875,480.8906 Q950.6406,481.1563 950.2656,481.1563 Q949.9219,481.1563 949.7188,480.9531 Q949.5156,480.7656 949.4063,480.25 Q949.3594,479.8906 949.1719,479.7031 Q948.8438,479.3281 948.2344,479.1094 Q947.625,478.8906 947,478.8906 Q946.2344,478.8906 945.5938,479.2188 Q944.9688,479.5469 944.4688,480.2969 Q943.9844,481.0469 943.9844,482.0781 L943.9844,483.1719 Q943.9844,484.4063 944.875,485.2344 Q945.7656,486.0469 947.3594,486.0469 Q948.2969,486.0469 948.9531,485.7969 Q949.3438,485.6406 949.7656,485.2031 Q950.0313,484.9375 950.1719,484.8594 Q950.3281,484.7813 950.5313,484.7813 Q950.8594,484.7813 951.1094,485.0469 Q951.375,485.2969 951.375,485.6406 Q951.375,485.9844 951.0313,486.3906 Q950.5313,486.9688 949.7344,487.2969 Q948.6563,487.75 947.3594,487.75 Q945.8438,487.75 944.6406,487.125 Q943.6563,486.625 942.9688,485.5625 Q942.2813,484.4844 942.2813,483.2031 L942.2813,482.0469 Q942.2813,480.7188 942.8906,479.5781 Q943.5156,478.4219 944.6094,477.8125 Q945.7031,477.1875 946.9375,477.1875 Q947.6719,477.1875 948.3125,477.3594 Q948.9688,477.5156 949.5156,477.875 Z " fill="#000000"/><text fill="#000000" font-family="sans-serif" font-size="14" lengthAdjust="spacing" textLength="104" x="967.25" y="487.7969">TeamRepository</text><line style="stroke:#181818;stroke-width:0.5;" x1="803" x2="1203" y1="498" y2="498"/><text fill="#000000" font-family="sans-serif" font-size="14" lengthAdjust="spacing" textLength="140" x="808" y="517.1074">-List &lt;Team&gt; teamList</text><line style="stroke:#181818;stroke-width:0.5;" x1="803" x2="1203" y1="524.6211" y2="524.6211"/><text fill="#000000" font-family="sans-serif" font-size="14" lengthAdjust="spacing" textLength="106" x="808" y="543.7285">-addTeam(team)</text><text fill="#000000" font-family="sans-serif" font-size="14" lengthAdjust="spacing" textLength="297" x="808" y="562.3496">-addListTeamProposal(teamListProposal,team)</text><text fill="#000000" font-family="sans-serif" font-size="14" lengthAdjust="spacing" textLength="294" x="808" y="580.9707">-removeCollaboratorList(collaboratorList,team)</text><text fill="#000000" font-family="sans-serif" font-size="14" lengthAdjust="spacing" textLength="382" x="808" y="599.5918">-addIdealCollaboratorList(idealCollaboratorList, collaborator)</text><text fill="#000000" font-family="sans-serif" font-size="14" lengthAdjust="spacing" textLength="304" x="808" y="618.2129">-removeCollaboratorsHasTeam(collaboratorList)</text><text fill="#000000" font-family="sans-serif" font-size="14" lengthAdjust="spacing" textLength="189" x="808" y="636.834">+registerProposalTeam(team)</text><text fill="#000000" font-family="sans-serif" font-size="14" lengthAdjust="spacing" textLength="390" x="808" y="655.4551">+generateProposalTeamList(maxSize,skillList,collaboratorList)</text></g><!--class SkillRepository--><g id="elem_SkillRepository"><rect codeLine="70" fill="#F1F1F1" height="103.8633" id="SkillRepository" rx="2.5" ry="2.5" style="stroke:#181818;stroke-width:0.5;" width="186" x="581" y="512.5"/><ellipse cx="623.45" cy="528.5" fill="#ADD1B2" rx="11" ry="11" style="stroke:#181818;stroke-width:1.0;"/><path d="M626.2156,524.375 Q626.3719,524.1563 626.5594,524.0469 Q626.7469,523.9375 626.9656,523.9375 Q627.3406,523.9375 627.575,524.2031 Q627.8094,524.4531 627.8094,525.0625 L627.8094,526.5156 Q627.8094,527.125 627.575,527.3906 Q627.3406,527.6563 626.9656,527.6563 Q626.6219,527.6563 626.4188,527.4531 Q626.2156,527.2656 626.1063,526.75 Q626.0594,526.3906 625.8719,526.2031 Q625.5438,525.8281 624.9344,525.6094 Q624.325,525.3906 623.7,525.3906 Q622.9344,525.3906 622.2938,525.7188 Q621.6688,526.0469 621.1688,526.7969 Q620.6844,527.5469 620.6844,528.5781 L620.6844,529.6719 Q620.6844,530.9063 621.575,531.7344 Q622.4656,532.5469 624.0594,532.5469 Q624.9969,532.5469 625.6531,532.2969 Q626.0438,532.1406 626.4656,531.7031 Q626.7313,531.4375 626.8719,531.3594 Q627.0281,531.2813 627.2313,531.2813 Q627.5594,531.2813 627.8094,531.5469 Q628.075,531.7969 628.075,532.1406 Q628.075,532.4844 627.7313,532.8906 Q627.2313,533.4688 626.4344,533.7969 Q625.3563,534.25 624.0594,534.25 Q622.5438,534.25 621.3406,533.625 Q620.3563,533.125 619.6688,532.0625 Q618.9813,530.9844 618.9813,529.7031 L618.9813,528.5469 Q618.9813,527.2188 619.5906,526.0781 Q620.2156,524.9219 621.3094,524.3125 Q622.4031,523.6875 623.6375,523.6875 Q624.3719,523.6875 625.0125,523.8594 Q625.6688,524.0156 626.2156,524.375 Z " fill="#000000"/><text fill="#000000" font-family="sans-serif" font-size="14" lengthAdjust="spacing" textLength="93" x="643.55" y="534.2969">SkillRepository</text><line style="stroke:#181818;stroke-width:0.5;" x1="582" x2="766" y1="544.5" y2="544.5"/><text fill="#000000" font-family="sans-serif" font-size="14" lengthAdjust="spacing" textLength="121" x="587" y="563.6074">-List &lt;Skill&gt; skillList</text><line style="stroke:#181818;stroke-width:0.5;" x1="582" x2="766" y1="571.1211" y2="571.1211"/><text fill="#000000" font-family="sans-serif" font-size="14" lengthAdjust="spacing" textLength="85" x="587" y="590.2285">+getSkillList()</text><text fill="#000000" font-family="sans-serif" font-size="14" lengthAdjust="spacing" textLength="174" x="587" y="608.8496">+getSkillByName(skillName)</text></g><!--class CollaboratorRepository--><g id="elem_CollaboratorRepository"><rect codeLine="76" fill="#F1F1F1" height="85.2422" id="CollaboratorRepository" rx="2.5" ry="2.5" style="stroke:#181818;stroke-width:0.5;" width="238" x="308" y="522"/><ellipse cx="350" cy="538" fill="#ADD1B2" rx="11" ry="11" style="stroke:#181818;stroke-width:1.0;"/><path d="M352.7656,533.875 Q352.9219,533.6563 353.1094,533.5469 Q353.2969,533.4375 353.5156,533.4375 Q353.8906,533.4375 354.125,533.7031 Q354.3594,533.9531 354.3594,534.5625 L354.3594,536.0156 Q354.3594,536.625 354.125,536.8906 Q353.8906,537.1563 353.5156,537.1563 Q353.1719,537.1563 352.9688,536.9531 Q352.7656,536.7656 352.6563,536.25 Q352.6094,535.8906 352.4219,535.7031 Q352.0938,535.3281 351.4844,535.1094 Q350.875,534.8906 350.25,534.8906 Q349.4844,534.8906 348.8438,535.2188 Q348.2188,535.5469 347.7188,536.2969 Q347.2344,537.0469 347.2344,538.0781 L347.2344,539.1719 Q347.2344,540.4063 348.125,541.2344 Q349.0156,542.0469 350.6094,542.0469 Q351.5469,542.0469 352.2031,541.7969 Q352.5938,541.6406 353.0156,541.2031 Q353.2813,540.9375 353.4219,540.8594 Q353.5781,540.7813 353.7813,540.7813 Q354.1094,540.7813 354.3594,541.0469 Q354.625,541.2969 354.625,541.6406 Q354.625,541.9844 354.2813,542.3906 Q353.7813,542.9688 352.9844,543.2969 Q351.9063,543.75 350.6094,543.75 Q349.0938,543.75 347.8906,543.125 Q346.9063,542.625 346.2188,541.5625 Q345.5313,540.4844 345.5313,539.2031 L345.5313,538.0469 Q345.5313,536.7188 346.1406,535.5781 Q346.7656,534.4219 347.8594,533.8125 Q348.9531,533.1875 350.1875,533.1875 Q350.9219,533.1875 351.5625,533.3594 Q352.2188,533.5156 352.7656,533.875 Z " fill="#000000"/><text fill="#000000" font-family="sans-serif" font-size="14" lengthAdjust="spacing" textLength="146" x="370" y="543.7969">CollaboratorRepository</text><line style="stroke:#181818;stroke-width:0.5;" x1="309" x2="545" y1="554" y2="554"/><text fill="#000000" font-family="sans-serif" font-size="14" lengthAdjust="spacing" textLength="226" x="314" y="573.1074">-List &lt;Collaborator&gt; collaboratorList</text><line style="stroke:#181818;stroke-width:0.5;" x1="309" x2="545" y1="580.6211" y2="580.6211"/><text fill="#000000" font-family="sans-serif" font-size="14" lengthAdjust="spacing" textLength="209" x="314" y="599.7285">+getCollaboratorsBySkill(skillList)</text></g><!--link GenerateTeamController to Repositories--><g id="link_GenerateTeamController_Repositories"><path codeLine="83" d="M444.86,185.06 C455.75,211.07 465.1926,233.6256 475.5226,258.2956 " fill="none" id="GenerateTeamController-to-Repositories" style="stroke:#181818;stroke-width:1.0;stroke-dasharray:7.0,7.0;"/><polygon fill="#181818" points="477.84,263.83,478.0535,253.9835,475.9088,259.218,470.6743,257.0733,477.84,263.83" style="stroke:#181818;stroke-width:1.0;"/><text fill="#000000" font-family="sans-serif" font-size="13" lengthAdjust="spacing" textLength="67" x="465" y="230.0283">repositories</text></g><!--link GenerateTeamUI to GenerateTeamController--><g id="link_GenerateTeamUI_GenerateTeamController"><path codeLine="85" d="M147.19,96 C162.15,96 169.51,96 176.41,96 " fill="none" id="GenerateTeamUI-to-GenerateTeamController" style="stroke:#181818;stroke-width:1.0;stroke-dasharray:7.0,7.0;"/><polygon fill="#181818" points="182.41,96,173.41,92,177.41,96,173.41,100,182.41,96" style="stroke:#181818;stroke-width:1.0;"/></g><!--link Repositories to Repositories--><g id="link_Repositories_Repositories"><path codeLine="86" d="M605.02,316.41 C625.37,318.31 640,324.34 640,334.5 C640,344.66 631.344,350.1322 610.994,352.0322 " fill="none" id="Repositories-to-Repositories" style="stroke:#181818;stroke-width:1.0;"/><polygon fill="#181818" points="605.02,352.59,614.3529,355.736,609.9983,352.1252,613.6092,347.7707,605.02,352.59" style="stroke:#181818;stroke-width:1.0;"/><text fill="#000000" font-family="sans-serif" font-size="13" lengthAdjust="spacing" textLength="49" x="646" y="340.0283">instance</text></g><!--link Repositories to TeamRepository--><g id="link_Repositories_TeamRepository"><path codeLine="88" d="M605.29,380.68 C661.49,406.52 728.6383,437.3842 796.3883,468.5242 " fill="none" id="Repositories-to-TeamRepository" style="stroke:#181818;stroke-width:1.0;"/><polygon fill="#181818" points="801.84,471.03,795.333,463.6369,797.2969,468.9419,791.9919,470.9058,801.84,471.03" style="stroke:#181818;stroke-width:1.0;"/><text fill="#000000" font-family="sans-serif" font-size="13" lengthAdjust="spacing" textLength="7" x="786.8455" y="464.0814">1</text></g><!--link Repositories to SkillRepository--><g id="link_Repositories_SkillRepository"><path codeLine="89" d="M558.01,405.15 C583.34,439.72 609.8343,475.8997 633.0043,507.5297 " fill="none" id="Repositories-to-SkillRepository" style="stroke:#181818;stroke-width:1.0;"/><polygon fill="#181818" points="636.55,512.37,634.4584,502.7458,633.5953,508.3364,628.0047,507.4734,636.55,512.37" style="stroke:#181818;stroke-width:1.0;"/><text fill="#000000" font-family="sans-serif" font-size="13" lengthAdjust="spacing" textLength="7" x="624.0473" y="501.2799">1</text></g><!--link Repositories to CollaboratorRepository--><g id="link_Repositories_CollaboratorRepository"><path codeLine="90" d="M482.56,405.15 C469.19,443.26 455.0558,483.5382 443.6358,516.0982 " fill="none" id="Repositories-to-CollaboratorRepository" style="stroke:#181818;stroke-width:1.0;"/><polygon fill="#181818" points="441.65,521.76,448.4033,514.5911,443.3049,517.0418,440.8542,511.9433,441.65,521.76" style="stroke:#181818;stroke-width:1.0;"/><text fill="#000000" font-family="sans-serif" font-size="13" lengthAdjust="spacing" textLength="7" x="436.427" y="510.6258">1</text></g><!--link TeamRepository to Team--><g id="link_TeamRepository_Team"><path codeLine="92" d="M962.66,663.13 C947.56,699.67 934,732.5 934,732.5 C934,732.5 934,732.5 934,1143 C934,1143 746.6113,1207.7213 615.3913,1253.0413 " fill="none" id="TeamRepository-to-Team" style="stroke:#181818;stroke-width:1.0;"/><polygon fill="#181818" points="609.72,1255,619.5327,1255.8428,614.4461,1253.3677,616.9211,1248.2811,609.72,1255" style="stroke:#181818;stroke-width:1.0;"/><text fill="#000000" font-family="sans-serif" font-size="13" lengthAdjust="spacing" textLength="29" x="935" y="936.0283">team</text><text fill="#000000" font-family="sans-serif" font-size="13" lengthAdjust="spacing" textLength="5" x="617.4857" y="1248.8069">*</text></g><!--link CollaboratorRepository to Collaborator--><g id="link_CollaboratorRepository_Collaborator"><path codeLine="93" d="M433.88,607.26 C441.75,654.97 454.0137,729.39 465.3137,797.91 " fill="none" id="CollaboratorRepository-to-Collaborator" style="stroke:#181818;stroke-width:1.0;"/><polygon fill="#181818" points="466.29,803.83,468.7722,794.2991,465.4764,798.8966,460.8789,795.6008,466.29,803.83" style="stroke:#181818;stroke-width:1.0;"/><text fill="#000000" font-family="sans-serif" font-size="13" lengthAdjust="spacing" textLength="67" x="458" y="739.0283">collaborator</text><text fill="#000000" font-family="sans-serif" font-size="13" lengthAdjust="spacing" textLength="5" x="459.8756" y="792.6354">*</text></g><!--link GenerateTeamController to TeamRepository--><g id="link_GenerateTeamController_TeamRepository"><path codeLine="95" d="M594.59,185.07 C630.92,202.22 658,215 658,215 C658,215 727,264 727,264 C727,264 828.4041,374.0377 908.9441,461.4377 " fill="none" id="GenerateTeamController-to-TeamRepository" style="stroke:#181818;stroke-width:1.0;stroke-dasharray:7.0,7.0;"/><polygon fill="#181818" points="913.01,465.85,909.8526,456.521,909.6217,462.1731,903.9696,461.9422,913.01,465.85" style="stroke:#181818;stroke-width:1.0;"/></g><!--link GenerateTeamController to SkillRepository--><g id="link_GenerateTeamController_SkillRepository"><path codeLine="96" d="M562.65,185.15 C633.09,225.29 701,264 701,264 C701,264 701,405 701,405 C701,405 691.5871,460.2251 683.6971,506.5651 " fill="none" id="GenerateTeamController-to-SkillRepository" style="stroke:#181818;stroke-width:1.0;stroke-dasharray:7.0,7.0;"/><polygon fill="#181818" points="682.69,512.48,688.1439,504.2791,683.5292,507.5509,680.2574,502.9363,682.69,512.48" style="stroke:#181818;stroke-width:1.0;"/></g><!--link GenerateTeamController to CollaboratorRepository--><g id="link_GenerateTeamController_CollaboratorRepository"><path codeLine="97" d="M399,185.39 C394.92,225.45 391,264 391,264 C391,264 391,405 391,405 C391,405 405.5518,469.0489 416.2118,516.0089 " fill="none" id="GenerateTeamController-to-CollaboratorRepository" style="stroke:#181818;stroke-width:1.0;stroke-dasharray:7.0,7.0;"/><polygon fill="#181818" points="417.54,521.86,419.4484,512.1978,416.4332,516.9841,411.6469,513.9688,417.54,521.86" style="stroke:#181818;stroke-width:1.0;"/></g><!--link GenerateTeamController to Collaborator--><g id="link_GenerateTeamController_Collaborator"><path codeLine="98" d="M351.03,185.06 C307.53,252.3 255,333.5 255,333.5 C255,333.5 255,333.5 255,734.5 C255,734.5 287.9669,762.2095 332.8569,799.9395 " fill="none" id="GenerateTeamController-to-Collaborator" style="stroke:#181818;stroke-width:1.0;stroke-dasharray:7.0,7.0;"/><polygon fill="#181818" points="337.45,803.8,333.134,794.9472,333.6224,800.5829,327.9867,801.0713,337.45,803.8" style="stroke:#181818;stroke-width:1.0;"/></g><!--link GenerateTeamController to Team--><g id="link_GenerateTeamController_Team"><path codeLine="99" d="M302.62,185.06 C222.16,252.3 125,333.5 125,333.5 C125,333.5 125,333.5 125,1143 C125,1143 259.9843,1199.4258 366.8843,1244.1158 " fill="none" id="GenerateTeamController-to-Team" style="stroke:#181818;stroke-width:1.0;stroke-dasharray:7.0,7.0;"/><polygon fill="#181818" points="372.42,1246.43,365.6592,1239.2682,367.8069,1244.5015,362.5736,1246.6491,372.42,1246.43" style="stroke:#181818;stroke-width:1.0;"/></g><!--reverse link Collaborator to HumanResourcesManager--><g id="link_Collaborator_HumanResourcesManager"><path codeLine="101" d="M573.8974,1072.6276 C588.2374,1095.9176 592.25,1102.43 601.81,1117.96 " fill="none" id="Collaborator-backto-HumanResourcesManager" style="stroke:#181818;stroke-width:1.0;"/><polygon fill="none" points="564.46,1057.3,568.7882,1075.7734,579.0066,1069.4818,564.46,1057.3" style="stroke:#181818;stroke-width:1.0;"/></g><!--link HumanResourcesManager to Team--><g id="link_HumanResourcesManager_Team"><path codeLine="103" d="M597.02,1166.24 C580.01,1187.05 558.2654,1213.663 536.5154,1240.293 " fill="none" id="HumanResourcesManager-to-Team" style="stroke:#181818;stroke-width:1.0;"/><polygon fill="#181818" points="532.72,1244.94,541.5112,1240.4998,535.8829,1241.0675,535.3151,1235.4392,532.72,1244.94" style="stroke:#181818;stroke-width:1.0;"/><text fill="#000000" font-family="sans-serif" font-size="13" lengthAdjust="spacing" textLength="41" x="573" y="1211.0283">defines</text><text fill="#000000" font-family="sans-serif" font-size="13" lengthAdjust="spacing" textLength="7" x="584.8215" y="1187.8731">1</text><text fill="#000000" font-family="sans-serif" font-size="13" lengthAdjust="spacing" textLength="20" x="516.9824" y="1233.8593">1..*</text></g><!--link Collaborator to Team--><g id="link_Collaborator_Team"><path codeLine="104" d="M460.04,1057.19 C452.83,1090.81 447,1118 447,1118 C447,1118 447,1166 447,1166 C447,1166 459.486,1202.8869 471.816,1239.3069 " fill="none" id="Collaborator-to-Team" style="stroke:#181818;stroke-width:1.0;"/><polygon fill="#181818" points="473.74,1244.99,474.6427,1235.1826,472.1366,1240.254,467.0652,1237.748,473.74,1244.99" style="stroke:#181818;stroke-width:1.0;"/><text fill="#000000" font-family="sans-serif" font-size="13" lengthAdjust="spacing" textLength="49" x="448" y="1147.5283">contains</text><text fill="#000000" font-family="sans-serif" font-size="13" lengthAdjust="spacing" textLength="20" x="437.9033" y="1079.0473">1..*</text><text fill="#000000" font-family="sans-serif" font-size="13" lengthAdjust="spacing" textLength="7" x="463.9504" y="1233.916">1</text></g><!--SRC=[ZLPRRzCm57xthx1uMShI2bwdgT8s95O40wtm0zpaj3LpxCfsWJBstpdEzIHnglKXgR_pdOlFhRrmJr8VX1K5BumssTwQ0hYtHs2Tv22o9x63jJyfu1OoB_HEKOBRYzpybdh7jq8vAb5IWpyTW1-CEeK3kuW8ZVM64QrC2UTklBToS_ImoenUox_0tp5seM3hkJVSojtUyro6SAJHZ9Kw_2DeiCB3Tn35dT7U6gN0ycV6yNCv8KvcfNZET-1lb5e_IQNSxUb1592uSFWidGydHuXtg2es1gqPUtigTJfonwlyVRFcO9nGmM-G9uKihvGMua_vRZNJZDZjJ5q6b-k6b7JWsBwRDjweMTZX2InLIpm-PkoboMJ0whpDUL2-fZTUyc6SDPF2zyALbYdMX30ILF5r_ccfVgmmabP2usWYN6ElOFjfB585b16N2LlozlwLw9FPy9zcKnq-e0kUu-FhzbPQloUeo0lf73PNE5NuJPvRm114zUxvFkoDXeTZiG7Rmw4GKjLcJNOiG6FVrbzOdGrwfIHS8WqHfZImj1zFsiIGKiTfvIrj7JJftWj7VP1sBKjUP_R-M0Zz2CuSRGRkYz0uzPQc_X6mNoGQaE0GhsjEKTAQVgKTheeCaXc_wf4wIgXkApbHPHfkd55UeYVgDMydwRKnlmx29VVrADOYp2QPWXOBZ80tav8qQWsGKWKBXVa5TuEk7hLvEd2ooa6eaPQCeIaV3rFChulDtYjNmFHggLRNArPMMuX1ZGQLYCxdvAghGBgNmxTPV35C-dp55Xlrduii-9UpG_ECuedVeiMoFqPNM0io6com-90UDyHwLkOZgxAUFZOW8lFD-pU34Obp1jMBa-9PPsmmW_EI_xPoZE65NcCJ5MkvlLL_rQlMT7uNcBB1xSvHXvSynvsuwtIbgS8PMa1OBnkSN_-Rp-FDnLXyKOTgL5LPBBf4vx35_rckRxscq6OeywkzmBx17uJ_]--></g></svg>