<?xml version="1.0" encoding="us-ascii" standalone="no"?><svg xmlns="http://www.w3.org/2000/svg" xmlns:xlink="http://www.w3.org/1999/xlink" contentStyleType="text/css" height="556px" preserveAspectRatio="none" style="width:537px;height:556px;background:#FFFFFF;" version="1.1" viewBox="0 0 537 556" width="537px" zoomAndPan="magnify"><defs/><g><text fill="#000000" font-family="sans-serif" font-size="14" font-weight="bold" lengthAdjust="spacing" textLength="509" x="10" y="30.1074">System Sequence Diagram (SSD) - US21 - Add new entry to the To-Do-List</text><rect fill="#FFFFFF" height="331.2012" style="stroke:#181818;stroke-width:1.0;" width="10" x="132.25" y="133.2422"/><rect fill="#FFFFFF" height="48.582" style="stroke:#181818;stroke-width:1.0;" width="10" x="453.25" y="156.5332"/><rect fill="#FFFFFF" height="31.291" style="stroke:#181818;stroke-width:1.0;" width="10" x="453.25" y="236.4063"/><rect fill="#FFFFFF" height="31.291" style="stroke:#181818;stroke-width:1.0;" width="10" x="453.25" y="298.9883"/><rect fill="#FFFFFF" height="31.291" style="stroke:#181818;stroke-width:1.0;" width="10" x="453.25" y="361.5703"/><rect fill="#FFFFFF" height="31.291" style="stroke:#181818;stroke-width:1.0;" width="10" x="453.25" y="424.1523"/><line style="stroke:#181818;stroke-width:0.5;stroke-dasharray:5.0,5.0;" x1="136.75" x2="136.75" y1="123.2422" y2="473.4434"/><line style="stroke:#181818;stroke-width:0.5;stroke-dasharray:5.0,5.0;" x1="458.25" x2="458.25" y1="123.2422" y2="473.4434"/><text fill="#000000" font-family="sans-serif" font-size="14" lengthAdjust="spacing" textLength="189" x="39.75" y="119.7285">Green Space Manager (GSM)</text><ellipse cx="137.25" cy="53.1211" fill="#E3E3E3" rx="8" ry="8" style="stroke:#181818;stroke-width:0.5;"/><path d="M137.25,61.1211 L137.25,88.1211 M124.25,69.1211 L150.25,69.1211 M137.25,88.1211 L124.25,103.1211 M137.25,88.1211 L150.25,103.1211 " fill="none" style="stroke:#181818;stroke-width:0.5;"/><text fill="#000000" font-family="sans-serif" font-size="14" lengthAdjust="spacing" textLength="189" x="39.75" y="487.5508">Green Space Manager (GSM)</text><ellipse cx="137.25" cy="499.5645" fill="#E3E3E3" rx="8" ry="8" style="stroke:#181818;stroke-width:0.5;"/><path d="M137.25,507.5645 L137.25,534.5645 M124.25,515.5645 L150.25,515.5645 M137.25,534.5645 L124.25,549.5645 M137.25,534.5645 L150.25,549.5645 " fill="none" style="stroke:#181818;stroke-width:0.5;"/><rect fill="#E3E3E3" height="32.6211" rx="2.5" ry="2.5" style="stroke:#181818;stroke-width:0.5;" width="64" x="426.25" y="89.6211"/><text fill="#000000" font-family="sans-serif" font-size="14" lengthAdjust="spacing" textLength="50" x="433.25" y="111.7285">:System</text><rect fill="#E3E3E3" height="32.6211" rx="2.5" ry="2.5" style="stroke:#181818;stroke-width:0.5;" width="64" x="426.25" y="472.4434"/><text fill="#000000" font-family="sans-serif" font-size="14" lengthAdjust="spacing" textLength="50" x="433.25" y="494.5508">:System</text><rect fill="#FFFFFF" height="331.2012" style="stroke:#181818;stroke-width:1.0;" width="10" x="132.25" y="133.2422"/><rect fill="#FFFFFF" height="48.582" style="stroke:#181818;stroke-width:1.0;" width="10" x="453.25" y="156.5332"/><rect fill="#FFFFFF" height="31.291" style="stroke:#181818;stroke-width:1.0;" width="10" x="453.25" y="236.4063"/><rect fill="#FFFFFF" height="31.291" style="stroke:#181818;stroke-width:1.0;" width="10" x="453.25" y="298.9883"/><rect fill="#FFFFFF" height="31.291" style="stroke:#181818;stroke-width:1.0;" width="10" x="453.25" y="361.5703"/><rect fill="#FFFFFF" height="31.291" style="stroke:#181818;stroke-width:1.0;" width="10" x="453.25" y="424.1523"/><polygon fill="#181818" points="441.25,152.5332,451.25,156.5332,441.25,160.5332,445.25,156.5332" style="stroke:#181818;stroke-width:1.0;"/><line style="stroke:#181818;stroke-width:1.0;" x1="142.25" x2="447.25" y1="156.5332" y2="156.5332"/><text fill="#000000" font-family="sans-serif" font-size="13" font-weight="bold" lengthAdjust="spacing" textLength="7" x="149.25" y="151.2705">1</text><text fill="#000000" font-family="sans-serif" font-size="13" lengthAdjust="spacing" textLength="228" x="160.25" y="151.2705">asks to add new entry to the To-Do-List</text><polygon fill="#181818" points="153.25,201.1152,143.25,205.1152,153.25,209.1152,149.25,205.1152" style="stroke:#181818;stroke-width:1.0;"/><line style="stroke:#181818;stroke-width:1.0;stroke-dasharray:2.0,2.0;" x1="147.25" x2="457.25" y1="205.1152" y2="205.1152"/><text fill="#000000" font-family="sans-serif" font-size="13" font-weight="bold" lengthAdjust="spacing" textLength="7" x="159.25" y="191.207">2</text><text fill="#000000" font-family="sans-serif" font-size="13" lengthAdjust="spacing" textLength="261" x="170.25" y="182.5615">shows list of green spaces associated to him</text><text fill="#000000" font-family="sans-serif" font-size="13" lengthAdjust="spacing" textLength="132" x="174.25" y="199.8525">and asks to select one</text><polygon fill="#181818" points="441.25,232.4063,451.25,236.4063,441.25,240.4063,445.25,236.4063" style="stroke:#181818;stroke-width:1.0;"/><line style="stroke:#181818;stroke-width:1.0;" x1="142.25" x2="447.25" y1="236.4063" y2="236.4063"/><text fill="#000000" font-family="sans-serif" font-size="13" font-weight="bold" lengthAdjust="spacing" textLength="7" x="149.25" y="231.1436">3</text><text fill="#000000" font-family="sans-serif" font-size="13" lengthAdjust="spacing" textLength="74" x="160.25" y="231.1436">chooses one</text><polygon fill="#181818" points="153.25,263.6973,143.25,267.6973,153.25,271.6973,149.25,267.6973" style="stroke:#181818;stroke-width:1.0;"/><line style="stroke:#181818;stroke-width:1.0;stroke-dasharray:2.0,2.0;" x1="147.25" x2="457.25" y1="267.6973" y2="267.6973"/><text fill="#000000" font-family="sans-serif" font-size="13" font-weight="bold" lengthAdjust="spacing" textLength="7" x="159.25" y="262.4346">4</text><text fill="#000000" font-family="sans-serif" font-size="13" lengthAdjust="spacing" textLength="248" x="170.25" y="262.4346">shows all the tasks and asks to select one</text><polygon fill="#181818" points="441.25,294.9883,451.25,298.9883,441.25,302.9883,445.25,298.9883" style="stroke:#181818;stroke-width:1.0;"/><line style="stroke:#181818;stroke-width:1.0;" x1="142.25" x2="447.25" y1="298.9883" y2="298.9883"/><text fill="#000000" font-family="sans-serif" font-size="13" font-weight="bold" lengthAdjust="spacing" textLength="7" x="149.25" y="293.7256">5</text><text fill="#000000" font-family="sans-serif" font-size="13" lengthAdjust="spacing" textLength="74" x="160.25" y="293.7256">chooses one</text><polygon fill="#181818" points="153.25,326.2793,143.25,330.2793,153.25,334.2793,149.25,330.2793" style="stroke:#181818;stroke-width:1.0;"/><line style="stroke:#181818;stroke-width:1.0;stroke-dasharray:2.0,2.0;" x1="147.25" x2="457.25" y1="330.2793" y2="330.2793"/><text fill="#000000" font-family="sans-serif" font-size="13" font-weight="bold" lengthAdjust="spacing" textLength="7" x="159.25" y="325.0166">6</text><text fill="#000000" font-family="sans-serif" font-size="13" lengthAdjust="spacing" textLength="276" x="170.25" y="325.0166">requests data (urgency,aproxExpectedDuration)</text><polygon fill="#181818" points="441.25,357.5703,451.25,361.5703,441.25,365.5703,445.25,361.5703" style="stroke:#181818;stroke-width:1.0;"/><line style="stroke:#181818;stroke-width:1.0;" x1="142.25" x2="447.25" y1="361.5703" y2="361.5703"/><text fill="#000000" font-family="sans-serif" font-size="13" font-weight="bold" lengthAdjust="spacing" textLength="7" x="149.25" y="356.3076">7</text><text fill="#000000" font-family="sans-serif" font-size="13" lengthAdjust="spacing" textLength="61" x="160.25" y="356.3076">types data</text><polygon fill="#181818" points="153.25,388.8613,143.25,392.8613,153.25,396.8613,149.25,392.8613" style="stroke:#181818;stroke-width:1.0;"/><line style="stroke:#181818;stroke-width:1.0;stroke-dasharray:2.0,2.0;" x1="147.25" x2="457.25" y1="392.8613" y2="392.8613"/><text fill="#000000" font-family="sans-serif" font-size="13" font-weight="bold" lengthAdjust="spacing" textLength="7" x="159.25" y="387.5986">8</text><text fill="#000000" font-family="sans-serif" font-size="13" lengthAdjust="spacing" textLength="252" x="170.25" y="387.5986">displays the data and requests confirmation</text><polygon fill="#181818" points="441.25,420.1523,451.25,424.1523,441.25,428.1523,445.25,424.1523" style="stroke:#181818;stroke-width:1.0;"/><line style="stroke:#181818;stroke-width:1.0;" x1="142.25" x2="447.25" y1="424.1523" y2="424.1523"/><text fill="#000000" font-family="sans-serif" font-size="13" font-weight="bold" lengthAdjust="spacing" textLength="7" x="149.25" y="418.8896">9</text><text fill="#000000" font-family="sans-serif" font-size="13" lengthAdjust="spacing" textLength="78" x="160.25" y="418.8896">confirms data</text><polygon fill="#181818" points="153.25,451.4434,143.25,455.4434,153.25,459.4434,149.25,455.4434" style="stroke:#181818;stroke-width:1.0;"/><line style="stroke:#181818;stroke-width:1.0;stroke-dasharray:2.0,2.0;" x1="147.25" x2="457.25" y1="455.4434" y2="455.4434"/><text fill="#000000" font-family="sans-serif" font-size="13" font-weight="bold" lengthAdjust="spacing" textLength="14" x="159.25" y="450.1807">10</text><text fill="#000000" font-family="sans-serif" font-size="13" lengthAdjust="spacing" textLength="158" x="177.25" y="450.1807">displays operation success</text><!--SRC=[nPAnJiD038RtF8NLgPN806C79AGY5fW26ukvSvDJatCuEvIyFSwbhK02LPsu9TQT_V-V7Sikn1uJTj1nPDSaxWWq3LJ8wQL7jyEQAXrRWaHECTRjzmHfqFC-n1gss0eLXGQrr6eKfGugUXyeEe9Dm7fANrRLPWKbl5Gtr_QvynuYxO6YfX6KGHk2PoutN3u6qQB0GJaEtHibYvroWiL38efG6Hd14qQZIx1yg9vM2q012meZq-12Zr5XiPvHykCSPgNmWKevkm0x5a1vUyHUM_9E9Xuy0pZLdjIEyd0u1xNIX2VzjGsBzmAj5G9leSwDoDI8cA6m2wRY9vScTAyHCFeJY51hqmUEbEKz_UfgDkNjVB46rp2BIHzhBkN4jitjQcRuDvWqxP2eW4T5M0wfjeqQhx1F_7d_sHi8-SsGK0F7rHcU7_zOnvvcrGk9V92-nL7oT3BLD9mJf-Eu3QdBG9Vm7EhE8VsDmptDOm0Pd2sL_E7-1G00]--></g></svg>