<?xml version="1.0" encoding="us-ascii" standalone="no"?><svg xmlns="http://www.w3.org/2000/svg" xmlns:xlink="http://www.w3.org/1999/xlink" contentStyleType="text/css" height="556px" preserveAspectRatio="none" style="width:537px;height:556px;background:#FFFFFF;" version="1.1" viewBox="0 0 537 556" width="537px" zoomAndPan="magnify"><defs/><g><text fill="#000000" font-family="sans-serif" font-size="14" font-weight="bold" lengthAdjust="spacing" textLength="509" x="10" y="30.1074">System Sequence Diagram (SSD) - US21 - Add new entry to the To-Do-List</text><rect fill="#FFFFFF" height="331.2012" style="stroke:#181818;stroke-width:1.0;" width="10" x="139.75" y="133.2422"/><rect fill="#FFFFFF" height="48.582" style="stroke:#181818;stroke-width:1.0;" width="10" x="445.75" y="156.5332"/><rect fill="#FFFFFF" height="31.291" style="stroke:#181818;stroke-width:1.0;" width="10" x="445.75" y="236.4063"/><rect fill="#FFFFFF" height="31.291" style="stroke:#181818;stroke-width:1.0;" width="10" x="445.75" y="298.9883"/><rect fill="#FFFFFF" height="31.291" style="stroke:#181818;stroke-width:1.0;" width="10" x="445.75" y="361.5703"/><rect fill="#FFFFFF" height="31.291" style="stroke:#181818;stroke-width:1.0;" width="10" x="445.75" y="424.1523"/><line style="stroke:#181818;stroke-width:0.5;stroke-dasharray:5.0,5.0;" x1="144.25" x2="144.25" y1="123.2422" y2="473.4434"/><line style="stroke:#181818;stroke-width:0.5;stroke-dasharray:5.0,5.0;" x1="450.75" x2="450.75" y1="123.2422" y2="473.4434"/><text fill="#000000" font-family="sans-serif" font-size="14" lengthAdjust="spacing" textLength="189" x="47.25" y="119.7285">Green Space Manager (GSM)</text><ellipse cx="144.75" cy="53.1211" fill="#E3E3E3" rx="8" ry="8" style="stroke:#181818;stroke-width:0.5;"/><path d="M144.75,61.1211 L144.75,88.1211 M131.75,69.1211 L157.75,69.1211 M144.75,88.1211 L131.75,103.1211 M144.75,88.1211 L157.75,103.1211 " fill="none" style="stroke:#181818;stroke-width:0.5;"/><text fill="#000000" font-family="sans-serif" font-size="14" lengthAdjust="spacing" textLength="189" x="47.25" y="487.5508">Green Space Manager (GSM)</text><ellipse cx="144.75" cy="499.5645" fill="#E3E3E3" rx="8" ry="8" style="stroke:#181818;stroke-width:0.5;"/><path d="M144.75,507.5645 L144.75,534.5645 M131.75,515.5645 L157.75,515.5645 M144.75,534.5645 L131.75,549.5645 M144.75,534.5645 L157.75,549.5645 " fill="none" style="stroke:#181818;stroke-width:0.5;"/><rect fill="#E3E3E3" height="32.6211" rx="2.5" ry="2.5" style="stroke:#181818;stroke-width:0.5;" width="64" x="418.75" y="89.6211"/><text fill="#000000" font-family="sans-serif" font-size="14" lengthAdjust="spacing" textLength="50" x="425.75" y="111.7285">:System</text><rect fill="#E3E3E3" height="32.6211" rx="2.5" ry="2.5" style="stroke:#181818;stroke-width:0.5;" width="64" x="418.75" y="472.4434"/><text fill="#000000" font-family="sans-serif" font-size="14" lengthAdjust="spacing" textLength="50" x="425.75" y="494.5508">:System</text><rect fill="#FFFFFF" height="331.2012" style="stroke:#181818;stroke-width:1.0;" width="10" x="139.75" y="133.2422"/><rect fill="#FFFFFF" height="48.582" style="stroke:#181818;stroke-width:1.0;" width="10" x="445.75" y="156.5332"/><rect fill="#FFFFFF" height="31.291" style="stroke:#181818;stroke-width:1.0;" width="10" x="445.75" y="236.4063"/><rect fill="#FFFFFF" height="31.291" style="stroke:#181818;stroke-width:1.0;" width="10" x="445.75" y="298.9883"/><rect fill="#FFFFFF" height="31.291" style="stroke:#181818;stroke-width:1.0;" width="10" x="445.75" y="361.5703"/><rect fill="#FFFFFF" height="31.291" style="stroke:#181818;stroke-width:1.0;" width="10" x="445.75" y="424.1523"/><polygon fill="#181818" points="433.75,152.5332,443.75,156.5332,433.75,160.5332,437.75,156.5332" style="stroke:#181818;stroke-width:1.0;"/><line style="stroke:#181818;stroke-width:1.0;" x1="149.75" x2="439.75" y1="156.5332" y2="156.5332"/><text fill="#000000" font-family="sans-serif" font-size="13" font-weight="bold" lengthAdjust="spacing" textLength="7" x="156.75" y="151.2705">1</text><text fill="#000000" font-family="sans-serif" font-size="13" lengthAdjust="spacing" textLength="228" x="167.75" y="151.2705">asks to add new entry to the To-Do-List</text><polygon fill="#181818" points="160.75,201.1152,150.75,205.1152,160.75,209.1152,156.75,205.1152" style="stroke:#181818;stroke-width:1.0;"/><line style="stroke:#181818;stroke-width:1.0;stroke-dasharray:2.0,2.0;" x1="154.75" x2="449.75" y1="205.1152" y2="205.1152"/><text fill="#000000" font-family="sans-serif" font-size="13" font-weight="bold" lengthAdjust="spacing" textLength="7" x="166.75" y="191.207">2</text><text fill="#000000" font-family="sans-serif" font-size="13" lengthAdjust="spacing" textLength="261" x="177.75" y="182.5615">shows list of green spaces associated to him</text><text fill="#000000" font-family="sans-serif" font-size="13" lengthAdjust="spacing" textLength="132" x="181.75" y="199.8525">and asks to select one</text><polygon fill="#181818" points="433.75,232.4063,443.75,236.4063,433.75,240.4063,437.75,236.4063" style="stroke:#181818;stroke-width:1.0;"/><line style="stroke:#181818;stroke-width:1.0;" x1="149.75" x2="439.75" y1="236.4063" y2="236.4063"/><text fill="#000000" font-family="sans-serif" font-size="13" font-weight="bold" lengthAdjust="spacing" textLength="7" x="156.75" y="231.1436">3</text><text fill="#000000" font-family="sans-serif" font-size="13" lengthAdjust="spacing" textLength="74" x="167.75" y="231.1436">chooses one</text><polygon fill="#181818" points="160.75,263.6973,150.75,267.6973,160.75,271.6973,156.75,267.6973" style="stroke:#181818;stroke-width:1.0;"/><line style="stroke:#181818;stroke-width:1.0;stroke-dasharray:2.0,2.0;" x1="154.75" x2="449.75" y1="267.6973" y2="267.6973"/><text fill="#000000" font-family="sans-serif" font-size="13" font-weight="bold" lengthAdjust="spacing" textLength="7" x="166.75" y="262.4346">4</text><text fill="#000000" font-family="sans-serif" font-size="13" lengthAdjust="spacing" textLength="248" x="177.75" y="262.4346">shows all the tasks and asks to select one</text><polygon fill="#181818" points="433.75,294.9883,443.75,298.9883,433.75,302.9883,437.75,298.9883" style="stroke:#181818;stroke-width:1.0;"/><line style="stroke:#181818;stroke-width:1.0;" x1="149.75" x2="439.75" y1="298.9883" y2="298.9883"/><text fill="#000000" font-family="sans-serif" font-size="13" font-weight="bold" lengthAdjust="spacing" textLength="7" x="156.75" y="293.7256">5</text><text fill="#000000" font-family="sans-serif" font-size="13" lengthAdjust="spacing" textLength="74" x="167.75" y="293.7256">chooses one</text><polygon fill="#181818" points="160.75,326.2793,150.75,330.2793,160.75,334.2793,156.75,330.2793" style="stroke:#181818;stroke-width:1.0;"/><line style="stroke:#181818;stroke-width:1.0;stroke-dasharray:2.0,2.0;" x1="154.75" x2="449.75" y1="330.2793" y2="330.2793"/><text fill="#000000" font-family="sans-serif" font-size="13" font-weight="bold" lengthAdjust="spacing" textLength="7" x="166.75" y="325.0166">6</text><text fill="#000000" font-family="sans-serif" font-size="13" lengthAdjust="spacing" textLength="187" x="177.75" y="325.0166">requests data (urgency,duration)</text><polygon fill="#181818" points="433.75,357.5703,443.75,361.5703,433.75,365.5703,437.75,361.5703" style="stroke:#181818;stroke-width:1.0;"/><line style="stroke:#181818;stroke-width:1.0;" x1="149.75" x2="439.75" y1="361.5703" y2="361.5703"/><text fill="#000000" font-family="sans-serif" font-size="13" font-weight="bold" lengthAdjust="spacing" textLength="7" x="156.75" y="356.3076">7</text><text fill="#000000" font-family="sans-serif" font-size="13" lengthAdjust="spacing" textLength="61" x="167.75" y="356.3076">types data</text><polygon fill="#181818" points="160.75,388.8613,150.75,392.8613,160.75,396.8613,156.75,392.8613" style="stroke:#181818;stroke-width:1.0;"/><line style="stroke:#181818;stroke-width:1.0;stroke-dasharray:2.0,2.0;" x1="154.75" x2="449.75" y1="392.8613" y2="392.8613"/><text fill="#000000" font-family="sans-serif" font-size="13" font-weight="bold" lengthAdjust="spacing" textLength="7" x="166.75" y="387.5986">8</text><text fill="#000000" font-family="sans-serif" font-size="13" lengthAdjust="spacing" textLength="252" x="177.75" y="387.5986">displays the data and requests confirmation</text><polygon fill="#181818" points="433.75,420.1523,443.75,424.1523,433.75,428.1523,437.75,424.1523" style="stroke:#181818;stroke-width:1.0;"/><line style="stroke:#181818;stroke-width:1.0;" x1="149.75" x2="439.75" y1="424.1523" y2="424.1523"/><text fill="#000000" font-family="sans-serif" font-size="13" font-weight="bold" lengthAdjust="spacing" textLength="7" x="156.75" y="418.8896">9</text><text fill="#000000" font-family="sans-serif" font-size="13" lengthAdjust="spacing" textLength="78" x="167.75" y="418.8896">confirms data</text><polygon fill="#181818" points="160.75,451.4434,150.75,455.4434,160.75,459.4434,156.75,455.4434" style="stroke:#181818;stroke-width:1.0;"/><line style="stroke:#181818;stroke-width:1.0;stroke-dasharray:2.0,2.0;" x1="154.75" x2="449.75" y1="455.4434" y2="455.4434"/><text fill="#000000" font-family="sans-serif" font-size="13" font-weight="bold" lengthAdjust="spacing" textLength="14" x="166.75" y="450.1807">10</text><text fill="#000000" font-family="sans-serif" font-size="13" lengthAdjust="spacing" textLength="158" x="184.75" y="450.1807">displays operation success</text><!--SRC=[nPAnJiD038RtF8NLgPN806C79AHANM0AR2pcparEJSxXx53bxN4kRGKILTM9MsBTsV__sR7iG-mnOGSTHtPDuev0qq25d5zwT7kigTAn9KZa56FT_aoG1ZqVGgnXXwrGKMXGIwr6KUgWei-1eYFO1Aodz6LLRLPGmblrS6-V9-yXqW4eQXf16RGXUELom-Lp42qA79JZq7rGijWf9rXi4r64oiW8NZ0QNOBbjdfPBG05B2YCJ8CBFKQ5nNf6oOzpc9N25ohbx0BiM03bumbxRSbxcNZm2k1KUrOxoSFn7DLA4vxqrpOiFWYqLWYyWpet8bCZOeR2BfYAdroQqBr7mEZF84AjJHyuKfRtzAUhsPIFyyKQNCCi9dsgkPKJspQtgvdXts3Ij4EY0XuLOJcasZPglFD3GWqSLrSGVlrM7NkQXMw4y47w5aV90yaWqppEQ8xZBgGk0zt2SwoxXdGPXtkQnm0oEDiZkU3-3G00]--></g></svg>