<?xml version="1.0" encoding="us-ascii" standalone="no"?><svg xmlns="http://www.w3.org/2000/svg" xmlns:xlink="http://www.w3.org/1999/xlink" contentStyleType="text/css" height="493px" preserveAspectRatio="none" style="width:537px;height:493px;background:#FFFFFF;" version="1.1" viewBox="0 0 537 493" width="537px" zoomAndPan="magnify"><defs/><g><text fill="#000000" font-family="sans-serif" font-size="14" font-weight="bold" lengthAdjust="spacing" textLength="509" x="10" y="30.1074">System Sequence Diagram (SSD) - US21 - Add new entry to the To-Do-List</text><rect fill="#FFFFFF" height="268.6191" style="stroke:#181818;stroke-width:1.0;" width="10" x="129.75" y="133.2422"/><rect fill="#FFFFFF" height="48.582" style="stroke:#181818;stroke-width:1.0;" width="10" x="455.75" y="156.5332"/><rect fill="#FFFFFF" height="31.291" style="stroke:#181818;stroke-width:1.0;" width="10" x="455.75" y="236.4063"/><rect fill="#FFFFFF" height="31.291" style="stroke:#181818;stroke-width:1.0;" width="10" x="455.75" y="298.9883"/><rect fill="#FFFFFF" height="31.291" style="stroke:#181818;stroke-width:1.0;" width="10" x="455.75" y="361.5703"/><line style="stroke:#181818;stroke-width:0.5;stroke-dasharray:5.0,5.0;" x1="134.25" x2="134.25" y1="123.2422" y2="410.8613"/><line style="stroke:#181818;stroke-width:0.5;stroke-dasharray:5.0,5.0;" x1="460.75" x2="460.75" y1="123.2422" y2="410.8613"/><text fill="#000000" font-family="sans-serif" font-size="14" lengthAdjust="spacing" textLength="189" x="37.25" y="119.7285">Green Space Manager (GSM)</text><ellipse cx="134.75" cy="53.1211" fill="#E3E3E3" rx="8" ry="8" style="stroke:#181818;stroke-width:0.5;"/><path d="M134.75,61.1211 L134.75,88.1211 M121.75,69.1211 L147.75,69.1211 M134.75,88.1211 L121.75,103.1211 M134.75,88.1211 L147.75,103.1211 " fill="none" style="stroke:#181818;stroke-width:0.5;"/><text fill="#000000" font-family="sans-serif" font-size="14" lengthAdjust="spacing" textLength="189" x="37.25" y="424.9688">Green Space Manager (GSM)</text><ellipse cx="134.75" cy="436.9824" fill="#E3E3E3" rx="8" ry="8" style="stroke:#181818;stroke-width:0.5;"/><path d="M134.75,444.9824 L134.75,471.9824 M121.75,452.9824 L147.75,452.9824 M134.75,471.9824 L121.75,486.9824 M134.75,471.9824 L147.75,486.9824 " fill="none" style="stroke:#181818;stroke-width:0.5;"/><rect fill="#E3E3E3" height="32.6211" rx="2.5" ry="2.5" style="stroke:#181818;stroke-width:0.5;" width="64" x="428.75" y="89.6211"/><text fill="#000000" font-family="sans-serif" font-size="14" lengthAdjust="spacing" textLength="50" x="435.75" y="111.7285">:System</text><rect fill="#E3E3E3" height="32.6211" rx="2.5" ry="2.5" style="stroke:#181818;stroke-width:0.5;" width="64" x="428.75" y="409.8613"/><text fill="#000000" font-family="sans-serif" font-size="14" lengthAdjust="spacing" textLength="50" x="435.75" y="431.9688">:System</text><rect fill="#FFFFFF" height="268.6191" style="stroke:#181818;stroke-width:1.0;" width="10" x="129.75" y="133.2422"/><rect fill="#FFFFFF" height="48.582" style="stroke:#181818;stroke-width:1.0;" width="10" x="455.75" y="156.5332"/><rect fill="#FFFFFF" height="31.291" style="stroke:#181818;stroke-width:1.0;" width="10" x="455.75" y="236.4063"/><rect fill="#FFFFFF" height="31.291" style="stroke:#181818;stroke-width:1.0;" width="10" x="455.75" y="298.9883"/><rect fill="#FFFFFF" height="31.291" style="stroke:#181818;stroke-width:1.0;" width="10" x="455.75" y="361.5703"/><polygon fill="#181818" points="443.75,152.5332,453.75,156.5332,443.75,160.5332,447.75,156.5332" style="stroke:#181818;stroke-width:1.0;"/><line style="stroke:#181818;stroke-width:1.0;" x1="139.75" x2="449.75" y1="156.5332" y2="156.5332"/><text fill="#000000" font-family="sans-serif" font-size="13" font-weight="bold" lengthAdjust="spacing" textLength="7" x="146.75" y="151.2705">1</text><text fill="#000000" font-family="sans-serif" font-size="13" lengthAdjust="spacing" textLength="228" x="157.75" y="151.2705">asks to add new entry to the To-Do-List</text><polygon fill="#181818" points="150.75,201.1152,140.75,205.1152,150.75,209.1152,146.75,205.1152" style="stroke:#181818;stroke-width:1.0;"/><line style="stroke:#181818;stroke-width:1.0;stroke-dasharray:2.0,2.0;" x1="144.75" x2="459.75" y1="205.1152" y2="205.1152"/><text fill="#000000" font-family="sans-serif" font-size="13" font-weight="bold" lengthAdjust="spacing" textLength="7" x="156.75" y="191.207">2</text><text fill="#000000" font-family="sans-serif" font-size="13" lengthAdjust="spacing" textLength="261" x="167.75" y="182.5615">shows list of green spaces associated to him</text><text fill="#000000" font-family="sans-serif" font-size="13" lengthAdjust="spacing" textLength="132" x="171.75" y="199.8525">and asks to select one</text><polygon fill="#181818" points="443.75,232.4063,453.75,236.4063,443.75,240.4063,447.75,236.4063" style="stroke:#181818;stroke-width:1.0;"/><line style="stroke:#181818;stroke-width:1.0;" x1="139.75" x2="449.75" y1="236.4063" y2="236.4063"/><text fill="#000000" font-family="sans-serif" font-size="13" font-weight="bold" lengthAdjust="spacing" textLength="7" x="146.75" y="231.1436">3</text><text fill="#000000" font-family="sans-serif" font-size="13" lengthAdjust="spacing" textLength="74" x="157.75" y="231.1436">chooses one</text><polygon fill="#181818" points="150.75,263.6973,140.75,267.6973,150.75,271.6973,146.75,267.6973" style="stroke:#181818;stroke-width:1.0;"/><line style="stroke:#181818;stroke-width:1.0;stroke-dasharray:2.0,2.0;" x1="144.75" x2="459.75" y1="267.6973" y2="267.6973"/><text fill="#000000" font-family="sans-serif" font-size="13" font-weight="bold" lengthAdjust="spacing" textLength="7" x="156.75" y="262.4346">4</text><text fill="#000000" font-family="sans-serif" font-size="13" lengthAdjust="spacing" textLength="281" x="167.75" y="262.4346">requests data (taskDescription,urgency,duration)</text><polygon fill="#181818" points="443.75,294.9883,453.75,298.9883,443.75,302.9883,447.75,298.9883" style="stroke:#181818;stroke-width:1.0;"/><line style="stroke:#181818;stroke-width:1.0;" x1="139.75" x2="449.75" y1="298.9883" y2="298.9883"/><text fill="#000000" font-family="sans-serif" font-size="13" font-weight="bold" lengthAdjust="spacing" textLength="7" x="146.75" y="293.7256">5</text><text fill="#000000" font-family="sans-serif" font-size="13" lengthAdjust="spacing" textLength="263" x="157.75" y="293.7256">types data (taskDescription,urgency,duration)</text><polygon fill="#181818" points="150.75,326.2793,140.75,330.2793,150.75,334.2793,146.75,330.2793" style="stroke:#181818;stroke-width:1.0;"/><line style="stroke:#181818;stroke-width:1.0;stroke-dasharray:2.0,2.0;" x1="144.75" x2="459.75" y1="330.2793" y2="330.2793"/><text fill="#000000" font-family="sans-serif" font-size="13" font-weight="bold" lengthAdjust="spacing" textLength="7" x="156.75" y="325.0166">6</text><text fill="#000000" font-family="sans-serif" font-size="13" lengthAdjust="spacing" textLength="252" x="167.75" y="325.0166">displays the data and requests confirmation</text><polygon fill="#181818" points="443.75,357.5703,453.75,361.5703,443.75,365.5703,447.75,361.5703" style="stroke:#181818;stroke-width:1.0;"/><line style="stroke:#181818;stroke-width:1.0;" x1="139.75" x2="449.75" y1="361.5703" y2="361.5703"/><text fill="#000000" font-family="sans-serif" font-size="13" font-weight="bold" lengthAdjust="spacing" textLength="7" x="146.75" y="356.3076">7</text><text fill="#000000" font-family="sans-serif" font-size="13" lengthAdjust="spacing" textLength="78" x="157.75" y="356.3076">confirms data</text><polygon fill="#181818" points="150.75,388.8613,140.75,392.8613,150.75,396.8613,146.75,392.8613" style="stroke:#181818;stroke-width:1.0;"/><line style="stroke:#181818;stroke-width:1.0;stroke-dasharray:2.0,2.0;" x1="144.75" x2="459.75" y1="392.8613" y2="392.8613"/><text fill="#000000" font-family="sans-serif" font-size="13" font-weight="bold" lengthAdjust="spacing" textLength="7" x="156.75" y="387.5986">8</text><text fill="#000000" font-family="sans-serif" font-size="13" lengthAdjust="spacing" textLength="158" x="167.75" y="387.5986">displays operation success</text><!--SRC=[bP6nJiD038RtF8NLgPMQ0SOEbP0giT0fiB6OEpSvDJc7iqELjyUNj1L8LC0jPztP___PbcE8FIRieEF8hadS4MWQg93hJu_kY3LLEhO4YPnYhDkl2TAWvrE8DHom5IeA3MgfrIXA7LJqFb1q1Bk0TKvVLjLk1IMyLFTtTZru3v5EG57J2CgW3S4pbpikdu9eKU2W78VkZPB5JZd1uZ4HHQYCZ62FqUWIB1-h_Me1A611OMGQNEWnAYmsCyhqEOUJKlX0fIcx03iMGBczO6yi-IYP1ty1pBLNjOiydCzPhJJXhB-nOV59eBL2u0FKKoEI6n4p57R1L7nsQKBt6W6Zlu88jJPzu4YJlASVNSsctCuF6t0DivZqfURld2clJLJ0eo8irI1s92w5NWF7zP1gM-guzaF2_B3w1UdRP7NiwN_2V-VsGVeMHvcsD5da4LwxSHmF8NMJz7-GptKpzMsaspZSqzmGoE1istB3_HC0]--></g></svg>