<?xml version="1.0" encoding="us-ascii" standalone="no"?><svg xmlns="http://www.w3.org/2000/svg" xmlns:xlink="http://www.w3.org/1999/xlink" contentStyleType="text/css" height="758px" preserveAspectRatio="none" style="width:455px;height:758px;background:#FFFFFF;" version="1.1" viewBox="0 0 455 758" width="455px" zoomAndPan="magnify"><defs/><g><text fill="#000000" font-family="sans-serif" font-size="14" font-weight="bold" lengthAdjust="spacing" textLength="319" x="61.25" y="25.1074">Domain Model - US20 Register a Green Space</text><!--class PostCode--><g id="elem_PostCode"><rect codeLine="12" fill="#F1F1F1" height="73.8633" id="PostCode" rx="2.5" ry="2.5" style="stroke:#181818;stroke-width:0.5;" width="122" x="12.5" y="677.6211"/><text fill="#000000" font-family="sans-serif" font-size="14" lengthAdjust="spacing" textLength="62" x="42.5" y="697.7285">PostCode</text><line style="stroke:#181818;stroke-width:0.5;" x1="13.5" x2="133.5" y1="706.2422" y2="706.2422"/><text fill="#000000" font-family="sans-serif" font-size="14" lengthAdjust="spacing" textLength="110" x="18.5" y="725.3496">postCodeNumber</text><text fill="#000000" font-family="sans-serif" font-size="14" lengthAdjust="spacing" textLength="69" x="18.5" y="743.9707">localization</text></g><!--class Collaborator--><g id="elem_Collaborator"><rect codeLine="16" fill="#F1F1F1" height="148.3477" id="Collaborator" rx="2.5" ry="2.5" style="stroke:#181818;stroke-width:0.5;" width="115" x="7" y="46.6211"/><text fill="#000000" font-family="sans-serif" font-size="14" lengthAdjust="spacing" textLength="78" x="25.5" y="66.7285">Collaborator</text><line style="stroke:#181818;stroke-width:0.5;" x1="8" x2="121" y1="75.2422" y2="75.2422"/><text fill="#000000" font-family="sans-serif" font-size="14" lengthAdjust="spacing" textLength="35" x="13" y="94.3496">name</text><text fill="#000000" font-family="sans-serif" font-size="14" lengthAdjust="spacing" textLength="72" x="13" y="112.9707">dateOfBirth</text><text fill="#000000" font-family="sans-serif" font-size="14" lengthAdjust="spacing" textLength="93" x="13" y="131.5918">admissionDate</text><text fill="#000000" font-family="sans-serif" font-size="14" lengthAdjust="spacing" textLength="89" x="13" y="150.2129">phoneNumber</text><text fill="#000000" font-family="sans-serif" font-size="14" lengthAdjust="spacing" textLength="103" x="13" y="168.834">taxpayerNumber</text><text fill="#000000" font-family="sans-serif" font-size="14" lengthAdjust="spacing" textLength="33" x="13" y="187.4551">email</text></g><!--class GreenSpace--><g id="elem_GreenSpace"><rect codeLine="25" fill="#F1F1F1" height="73.8633" id="GreenSpace" rx="2.5" ry="2.5" style="stroke:#181818;stroke-width:0.5;" width="86" x="167.5" y="371.6211"/><text fill="#000000" font-family="sans-serif" font-size="14" lengthAdjust="spacing" textLength="80" x="170.5" y="391.7285">GreenSpace</text><line style="stroke:#181818;stroke-width:0.5;" x1="168.5" x2="252.5" y1="400.2422" y2="400.2422"/><text fill="#000000" font-family="sans-serif" font-size="14" lengthAdjust="spacing" textLength="35" x="173.5" y="419.3496">name</text><text fill="#000000" font-family="sans-serif" font-size="14" lengthAdjust="spacing" textLength="29" x="173.5" y="437.9707">area</text></g><!--class Document--><g id="elem_Document"><rect codeLine="30" fill="#F1F1F1" height="55.2422" id="Document" rx="2.5" ry="2.5" style="stroke:#181818;stroke-width:0.5;" width="70" x="192.5" y="93.1211"/><text fill="#000000" font-family="sans-serif" font-size="14" lengthAdjust="spacing" textLength="64" x="195.5" y="113.2285">Document</text><line style="stroke:#181818;stroke-width:0.5;" x1="193.5" x2="261.5" y1="121.7422" y2="121.7422"/><text fill="#000000" font-family="sans-serif" font-size="14" lengthAdjust="spacing" textLength="48" x="198.5" y="140.8496">number</text></g><!--class DocumentType--><g id="elem_DocumentType"><rect codeLine="34" fill="#F1F1F1" height="55.2422" id="DocumentType" rx="2.5" ry="2.5" style="stroke:#181818;stroke-width:0.5;" width="102" x="333.5" y="93.1211"/><text fill="#000000" font-family="sans-serif" font-size="14" lengthAdjust="spacing" textLength="96" x="336.5" y="113.2285">DocumentType</text><line style="stroke:#181818;stroke-width:0.5;" x1="334.5" x2="434.5" y1="121.7422" y2="121.7422"/><text fill="#000000" font-family="sans-serif" font-size="14" lengthAdjust="spacing" textLength="27" x="339.5" y="140.8496">type</text></g><!--class Address--><g id="elem_Address"><rect codeLine="38" fill="#F1F1F1" height="73.8633" id="Address" rx="2.5" ry="2.5" style="stroke:#181818;stroke-width:0.5;" width="90" x="28.5" y="524.6211"/><text fill="#000000" font-family="sans-serif" font-size="14" lengthAdjust="spacing" textLength="52" x="47.5" y="544.7285">Address</text><line style="stroke:#181818;stroke-width:0.5;" x1="29.5" x2="117.5" y1="553.2422" y2="553.2422"/><text fill="#000000" font-family="sans-serif" font-size="14" lengthAdjust="spacing" textLength="36" x="34.5" y="572.3496">street</text><text fill="#000000" font-family="sans-serif" font-size="14" lengthAdjust="spacing" textLength="78" x="34.5" y="590.9707">doorNumber</text></g><!--class GreenSpacesManager--><g id="elem_GreenSpacesManager"><rect codeLine="43" fill="#F1F1F1" height="36.6211" id="GreenSpacesManager" rx="2.5" ry="2.5" style="stroke:#181818;stroke-width:0.5;" width="149" x="108" y="255.6211"/><text fill="#000000" font-family="sans-serif" font-size="14" lengthAdjust="spacing" textLength="143" x="111" y="275.7285">GreenSpacesManager</text><line style="stroke:#181818;stroke-width:0.5;" x1="109" x2="256" y1="284.2422" y2="284.2422"/></g><!--class Garden--><g id="elem_Garden"><rect codeLine="46" fill="#F1F1F1" height="36.6211" id="Garden" rx="2.5" ry="2.5" style="stroke:#181818;stroke-width:0.5;" width="54" x="168.5" y="543.1211"/><text fill="#000000" font-family="sans-serif" font-size="14" lengthAdjust="spacing" textLength="48" x="171.5" y="563.2285">Garden</text><line style="stroke:#181818;stroke-width:0.5;" x1="169.5" x2="221.5" y1="571.7422" y2="571.7422"/></g><!--class MediumPark--><g id="elem_MediumPark"><rect codeLine="49" fill="#F1F1F1" height="36.6211" id="MediumPark" rx="2.5" ry="2.5" style="stroke:#181818;stroke-width:0.5;" width="84" x="257.5" y="543.1211"/><text fill="#000000" font-family="sans-serif" font-size="14" lengthAdjust="spacing" textLength="78" x="260.5" y="563.2285">MediumPark</text><line style="stroke:#181818;stroke-width:0.5;" x1="258.5" x2="340.5" y1="571.7422" y2="571.7422"/></g><!--class LargePark--><g id="elem_LargePark"><rect codeLine="52" fill="#F1F1F1" height="36.6211" id="LargePark" rx="2.5" ry="2.5" style="stroke:#181818;stroke-width:0.5;" width="72" x="376.5" y="543.1211"/><text fill="#000000" font-family="sans-serif" font-size="14" lengthAdjust="spacing" textLength="66" x="379.5" y="563.2285">LargePark</text><line style="stroke:#181818;stroke-width:0.5;" x1="377.5" x2="447.5" y1="571.7422" y2="571.7422"/></g><!--link Collaborator to Document--><g id="link_Collaborator_Document"><path codeLine="56" d="M122.43,120.6211 C145.67,120.6211 171.71,120.6211 192.05,120.6211 " fill="none" id="Collaborator-Document" style="stroke:#181818;stroke-width:1.0;"/><polygon fill="#000000" points="149.25,108.2666,140.2049,105.3277,140.2049,111.2055,149.25,108.2666" style="stroke:#000000;stroke-width:1.0;"/><text fill="#000000" font-family="sans-serif" font-size="13" lengthAdjust="spacing" textLength="21" x="153.25" y="113.6494">has</text><text fill="#000000" font-family="sans-serif" font-size="13" lengthAdjust="spacing" textLength="7" x="129.9168" y="116.61">1</text><text fill="#000000" font-family="sans-serif" font-size="13" lengthAdjust="spacing" textLength="7" x="177.3817" y="115.9808">1</text></g><!--link Collaborator to Address--><g id="link_Collaborator_Address"><path codeLine="58" d="M66.01,195.1011 C67.96,290.2911 71.28,452.5511 72.76,524.4611 " fill="none" id="Collaborator-Address" style="stroke:#181818;stroke-width:1.0;"/><polygon fill="#000000" points="74.6024,337.2656,77.3554,328.1621,71.4788,328.2826,74.6024,337.2656" style="stroke:#000000;stroke-width:1.0;"/><text fill="#000000" font-family="sans-serif" font-size="13" lengthAdjust="spacing" textLength="25" x="83.5" y="337.6494">lives</text><text fill="#000000" font-family="sans-serif" font-size="13" lengthAdjust="spacing" textLength="20" x="45.2008" y="217.0357">1..*</text><text fill="#000000" font-family="sans-serif" font-size="13" lengthAdjust="spacing" textLength="7" x="65.0048" y="513.3943">1</text></g><!--reverse link Collaborator to GreenSpacesManager--><g id="link_Collaborator_GreenSpacesManager"><path codeLine="60" d="M132.4905,208.912 C150.1705,231.612 157.04,240.4311 168.85,255.6011 " fill="none" id="Collaborator-backto-GreenSpacesManager" style="stroke:#181818;stroke-width:1.0;"/><polygon fill="none" points="121.43,194.7111,127.7568,212.5988,137.2241,205.2252,121.43,194.7111" style="stroke:#181818;stroke-width:1.0;"/></g><!--link GreenSpacesManager to GreenSpace--><g id="link_GreenSpacesManager_GreenSpace"><path codeLine="62" d="M186.22,292.7111 C190.44,312.7111 197.45,345.8711 202.86,371.4511 " fill="none" id="GreenSpacesManager-GreenSpace" style="stroke:#181818;stroke-width:1.0;"/><polygon fill="#000000" points="202.5338,337.1586,203.5391,327.7013,197.7882,328.9166,202.5338,337.1586" style="stroke:#000000;stroke-width:1.0;"/><text fill="#000000" font-family="sans-serif" font-size="13" lengthAdjust="spacing" textLength="100" x="210.5" y="337.6494">register/manages</text><text fill="#000000" font-family="sans-serif" font-size="13" lengthAdjust="spacing" textLength="7" x="179.2791" y="314.1099">1</text><text fill="#000000" font-family="sans-serif" font-size="13" lengthAdjust="spacing" textLength="5" x="196.0538" y="360.3825">*</text></g><!--link GreenSpace to Address--><g id="link_GreenSpace_Address"><path codeLine="63" d="M167.41,429.7911 C147.32,440.9611 124.41,456.4811 108.5,475.6211 C96.77,489.7311 88.51,508.3211 82.98,524.5111 " fill="none" id="GreenSpace-Address" style="stroke:#181818;stroke-width:1.0;"/><polygon fill="#000000" points="110.173,488.9991,118.3855,484.2025,113.9977,480.2914,110.173,488.9991" style="stroke:#000000;stroke-width:1.0;"/><text fill="#000000" font-family="sans-serif" font-size="13" lengthAdjust="spacing" textLength="70" x="122.5" y="490.6494">is located in</text><text fill="#000000" font-family="sans-serif" font-size="13" lengthAdjust="spacing" textLength="7" x="152.4023" y="429.0338">1</text><text fill="#000000" font-family="sans-serif" font-size="13" lengthAdjust="spacing" textLength="7" x="77.0452" y="513.4532">1</text></g><!--reverse link GreenSpace to Garden--><g id="link_GreenSpace_Garden"><path codeLine="65" d="M205.1311,463.703 C202.0811,494.413 199.61,519.2611 197.25,542.9811 " fill="none" id="GreenSpace-backto-Garden" style="stroke:#181818;stroke-width:1.0;"/><polygon fill="none" points="206.91,445.7911,199.1604,463.11,211.1017,464.296,206.91,445.7911" style="stroke:#181818;stroke-width:1.0;"/></g><!--reverse link GreenSpace to MediumPark--><g id="link_GreenSpace_MediumPark"><path codeLine="66" d="M240.9596,461.2981 C259.0596,492.0081 275.12,519.2611 289.11,542.9811 " fill="none" id="GreenSpace-backto-MediumPark" style="stroke:#181818;stroke-width:1.0;"/><polygon fill="none" points="231.82,445.7911,235.7906,464.3446,246.1286,458.2516,231.82,445.7911" style="stroke:#181818;stroke-width:1.0;"/></g><!--reverse link GreenSpace to LargePark--><g id="link_GreenSpace_LargePark"><path codeLine="67" d="M268.2471,452.7882 C309.6371,483.7282 356.03,518.4111 389.06,543.1011 " fill="none" id="GreenSpace-backto-LargePark" style="stroke:#181818;stroke-width:1.0;"/><polygon fill="none" points="253.83,442.0111,264.6547,457.5939,271.8395,447.9825,253.83,442.0111" style="stroke:#181818;stroke-width:1.0;"/></g><!--link Address to PostCode--><g id="link_Address_PostCode"><path codeLine="69" d="M73.5,598.7911 C73.5,622.6111 73.5,653.6711 73.5,677.4911 " fill="none" id="Address-PostCode" style="stroke:#181818;stroke-width:1.0;"/><polygon fill="#000000" points="78.5,643.2666,81.4389,634.2215,75.5611,634.2215,78.5,643.2666" style="stroke:#000000;stroke-width:1.0;"/><text fill="#000000" font-family="sans-serif" font-size="13" lengthAdjust="spacing" textLength="21" x="87.5" y="643.6494">has</text><text fill="#000000" font-family="sans-serif" font-size="13" lengthAdjust="spacing" textLength="20" x="51.8438" y="620.4189">1..*</text><text fill="#000000" font-family="sans-serif" font-size="13" lengthAdjust="spacing" textLength="7" x="65.8766" y="666.4297">1</text></g><!--link Document to DocumentType--><g id="link_Document_DocumentType"><path codeLine="71" d="M262.73,120.6211 C283.53,120.6211 310.21,120.6211 333.3,120.6211 " fill="none" id="Document-DocumentType" style="stroke:#181818;stroke-width:1.0;"/><polygon fill="#000000" points="290,108.2666,280.9549,105.3277,280.9549,111.2055,290,108.2666" style="stroke:#000000;stroke-width:1.0;"/><text fill="#000000" font-family="sans-serif" font-size="13" lengthAdjust="spacing" textLength="21" x="294" y="113.6494">has</text><text fill="#000000" font-family="sans-serif" font-size="13" lengthAdjust="spacing" textLength="20" x="270.5039" y="136.1145">1..*</text><text fill="#000000" font-family="sans-serif" font-size="13" lengthAdjust="spacing" textLength="7" x="318.6078" y="116.4575">1</text></g><!--SRC=[RLBRRjim37tNLn1z7B2kssCm5EWQe2YmRCMoVG1ZiROGNGo9tfPk-_SnaXqhTVHWIpo7EkGHqzxu7YCwSC67fel14N0SIAKJqcEpnvQsVB04aHf6tzgQa3hKuPVnBJoZJJNIM4pfZZcQtS3qs0I_DIy4Dwepcg0niP6ByjuHTq4dfTYmoAo3G-DX4pHPU0i_jXzku1kr9Z55G7Y8H1wsKXafMLa6daBYUqdueq1MFvw-36v7COTiQD2Q5sGJlFetPjq7Qt4N8dA8K58zEieRZKnVdp-Po5q-etOc9SbU2r1Kkk1h2SRVFHueLY6IJgp8ZNgvz5pvQpMCX3Dl7Ph1aUUHLEvReDyF_TWlosx6xxIE9F-29HPHBYs5C1LteQIqGIzFVJHYHZ5gCRkAR4YRmJrXtDVHpnXRceFgpDYhzrVoZCVlL3cieCC4jmlYzVKRuHRorCOAhFb9IpPy_2lC2mqeTQ6fN8HSBFTNhx2IcIw3zSvbub6cmgUiit9CojF4f476zBQMApKLrnRXsRe5TF9FgKddt8nflcVdJbvEn3E7ZxCnS_y3]--></g></svg>