<?xml version="1.0" encoding="us-ascii" standalone="no"?><svg xmlns="http://www.w3.org/2000/svg" xmlns:xlink="http://www.w3.org/1999/xlink" contentStyleType="text/css" height="624px" preserveAspectRatio="none" style="width:450px;height:624px;background:#FFFFFF;" version="1.1" viewBox="0 0 450 624" width="450px" zoomAndPan="magnify"><defs/><g><text fill="#000000" font-family="sans-serif" font-size="14" font-weight="bold" lengthAdjust="spacing" textLength="319" x="58.75" y="25.1074">Domain Model - US20 Register a Green Space</text><!--class Collaborator--><g id="elem_Collaborator"><rect codeLine="11" fill="#F1F1F1" height="148.3477" id="Collaborator" rx="2.5" ry="2.5" style="stroke:#181818;stroke-width:0.5;" width="105" x="7" y="46.6211"/><text fill="#000000" font-family="sans-serif" font-size="14" lengthAdjust="spacing" textLength="78" x="20.5" y="66.7285">Collaborator</text><line style="stroke:#181818;stroke-width:0.5;" x1="8" x2="111" y1="75.2422" y2="75.2422"/><text fill="#000000" font-family="sans-serif" font-size="14" lengthAdjust="spacing" textLength="35" x="13" y="94.3496">name</text><text fill="#000000" font-family="sans-serif" font-size="14" lengthAdjust="spacing" textLength="72" x="13" y="112.9707">dateOfBirth</text><text fill="#000000" font-family="sans-serif" font-size="14" lengthAdjust="spacing" textLength="93" x="13" y="131.5918">admissionDate</text><text fill="#000000" font-family="sans-serif" font-size="14" lengthAdjust="spacing" textLength="89" x="13" y="150.2129">phoneNumber</text><text fill="#000000" font-family="sans-serif" font-size="14" lengthAdjust="spacing" textLength="54" x="13" y="168.834">taxpayer</text><text fill="#000000" font-family="sans-serif" font-size="14" lengthAdjust="spacing" textLength="33" x="13" y="187.4551">email</text></g><!--class GreenSpace--><g id="elem_GreenSpace"><rect codeLine="20" fill="#F1F1F1" height="73.8633" id="GreenSpace" rx="2.5" ry="2.5" style="stroke:#181818;stroke-width:0.5;" width="86" x="162.5" y="371.6211"/><text fill="#000000" font-family="sans-serif" font-size="14" lengthAdjust="spacing" textLength="80" x="165.5" y="391.7285">GreenSpace</text><line style="stroke:#181818;stroke-width:0.5;" x1="163.5" x2="247.5" y1="400.2422" y2="400.2422"/><text fill="#000000" font-family="sans-serif" font-size="14" lengthAdjust="spacing" textLength="35" x="168.5" y="419.3496">name</text><text fill="#000000" font-family="sans-serif" font-size="14" lengthAdjust="spacing" textLength="29" x="168.5" y="437.9707">area</text></g><!--class Document--><g id="elem_Document"><rect codeLine="25" fill="#F1F1F1" height="73.8633" id="Document" rx="2.5" ry="2.5" style="stroke:#181818;stroke-width:0.5;" width="70" x="182.5" y="83.6211"/><text fill="#000000" font-family="sans-serif" font-size="14" lengthAdjust="spacing" textLength="64" x="185.5" y="103.7285">Document</text><line style="stroke:#181818;stroke-width:0.5;" x1="183.5" x2="251.5" y1="112.2422" y2="112.2422"/><text fill="#000000" font-family="sans-serif" font-size="14" lengthAdjust="spacing" textLength="55" x="188.5" y="131.3496">docType</text><text fill="#000000" font-family="sans-serif" font-size="14" lengthAdjust="spacing" textLength="48" x="188.5" y="149.9707">number</text></g><!--class Address--><g id="elem_Address"><rect codeLine="30" fill="#F1F1F1" height="92.4844" id="Address" rx="2.5" ry="2.5" style="stroke:#181818;stroke-width:0.5;" width="90" x="23.5" y="524.6211"/><text fill="#000000" font-family="sans-serif" font-size="14" lengthAdjust="spacing" textLength="52" x="42.5" y="544.7285">Address</text><line style="stroke:#181818;stroke-width:0.5;" x1="24.5" x2="112.5" y1="553.2422" y2="553.2422"/><text fill="#000000" font-family="sans-serif" font-size="14" lengthAdjust="spacing" textLength="72" x="29.5" y="572.3496">streetName</text><text fill="#000000" font-family="sans-serif" font-size="14" lengthAdjust="spacing" textLength="61" x="29.5" y="590.9707">postCode</text><text fill="#000000" font-family="sans-serif" font-size="14" lengthAdjust="spacing" textLength="78" x="29.5" y="609.5918">doorNumber</text></g><!--class GreenSpacesManager--><g id="elem_GreenSpacesManager"><rect codeLine="37" fill="#F1F1F1" height="36.6211" id="GreenSpacesManager" rx="2.5" ry="2.5" style="stroke:#181818;stroke-width:0.5;" width="149" x="103" y="255.6211"/><text fill="#000000" font-family="sans-serif" font-size="14" lengthAdjust="spacing" textLength="143" x="106" y="275.7285">GreenSpacesManager</text><line style="stroke:#181818;stroke-width:0.5;" x1="104" x2="251" y1="284.2422" y2="284.2422"/></g><!--class Garden--><g id="elem_Garden"><rect codeLine="40" fill="#F1F1F1" height="36.6211" id="Garden" rx="2.5" ry="2.5" style="stroke:#181818;stroke-width:0.5;" width="54" x="163.5" y="552.1211"/><text fill="#000000" font-family="sans-serif" font-size="14" lengthAdjust="spacing" textLength="48" x="166.5" y="572.2285">Garden</text><line style="stroke:#181818;stroke-width:0.5;" x1="164.5" x2="216.5" y1="580.7422" y2="580.7422"/></g><!--class MediumPark--><g id="elem_MediumPark"><rect codeLine="43" fill="#F1F1F1" height="36.6211" id="MediumPark" rx="2.5" ry="2.5" style="stroke:#181818;stroke-width:0.5;" width="84" x="252.5" y="552.1211"/><text fill="#000000" font-family="sans-serif" font-size="14" lengthAdjust="spacing" textLength="78" x="255.5" y="572.2285">MediumPark</text><line style="stroke:#181818;stroke-width:0.5;" x1="253.5" x2="335.5" y1="580.7422" y2="580.7422"/></g><!--class LargePark--><g id="elem_LargePark"><rect codeLine="46" fill="#F1F1F1" height="36.6211" id="LargePark" rx="2.5" ry="2.5" style="stroke:#181818;stroke-width:0.5;" width="72" x="371.5" y="552.1211"/><text fill="#000000" font-family="sans-serif" font-size="14" lengthAdjust="spacing" textLength="66" x="374.5" y="572.2285">LargePark</text><line style="stroke:#181818;stroke-width:0.5;" x1="372.5" x2="442.5" y1="580.7422" y2="580.7422"/></g><!--link Collaborator to Document--><g id="link_Collaborator_Document"><path codeLine="50" d="M112.11,120.6211 C135.09,120.6211 161.44,120.6211 182.04,120.6211 " fill="none" id="Collaborator-Document" style="stroke:#181818;stroke-width:1.0;"/><polygon fill="#000000" points="139.25,108.2666,130.2049,105.3277,130.2049,111.2055,139.25,108.2666" style="stroke:#000000;stroke-width:1.0;"/><text fill="#000000" font-family="sans-serif" font-size="13" lengthAdjust="spacing" textLength="21" x="143.25" y="113.6494">has</text><text fill="#000000" font-family="sans-serif" font-size="13" lengthAdjust="spacing" textLength="7" x="120.0005" y="116.4501">1</text><text fill="#000000" font-family="sans-serif" font-size="13" lengthAdjust="spacing" textLength="7" x="167.6133" y="116.0699">1</text></g><!--link Collaborator to Address--><g id="link_Collaborator_Address"><path codeLine="52" d="M60.97,194.8511 C62.85,288.2511 66.04,446.9411 67.59,524.3911 " fill="none" id="Collaborator-Address" style="stroke:#181818;stroke-width:1.0;"/><polygon fill="#000000" points="69.6004,337.2656,72.3571,328.1633,66.4804,328.2814,69.6004,337.2656" style="stroke:#000000;stroke-width:1.0;"/><text fill="#000000" font-family="sans-serif" font-size="13" lengthAdjust="spacing" textLength="25" x="78.5" y="337.6494">lives</text><text fill="#000000" font-family="sans-serif" font-size="13" lengthAdjust="spacing" textLength="20" x="40.1303" y="217.0204">1..*</text><text fill="#000000" font-family="sans-serif" font-size="13" lengthAdjust="spacing" textLength="7" x="59.9423" y="513.3667">1</text></g><!--reverse link Collaborator to GreenSpacesManager--><g id="link_Collaborator_GreenSpacesManager"><path codeLine="54" d="M123.3494,203.5928 C142.2494,227.8628 150.95,239.0311 163.69,255.3911 " fill="none" id="Collaborator-backto-GreenSpacesManager" style="stroke:#181818;stroke-width:1.0;"/><polygon fill="none" points="112.29,189.3911,118.6155,207.2793,128.0833,199.9063,112.29,189.3911" style="stroke:#181818;stroke-width:1.0;"/></g><!--link GreenSpacesManager to GreenSpace--><g id="link_GreenSpacesManager_GreenSpace"><path codeLine="56" d="M181.22,292.7111 C185.44,312.7111 192.45,345.8711 197.86,371.4511 " fill="none" id="GreenSpacesManager-GreenSpace" style="stroke:#181818;stroke-width:1.0;"/><polygon fill="#000000" points="197.5338,337.1586,198.5391,327.7013,192.7882,328.9166,197.5338,337.1586" style="stroke:#000000;stroke-width:1.0;"/><text fill="#000000" font-family="sans-serif" font-size="13" lengthAdjust="spacing" textLength="100" x="205.5" y="337.6494">register/manages</text><text fill="#000000" font-family="sans-serif" font-size="13" lengthAdjust="spacing" textLength="7" x="174.2791" y="314.1099">1</text><text fill="#000000" font-family="sans-serif" font-size="13" lengthAdjust="spacing" textLength="5" x="191.0538" y="360.3825">*</text></g><!--link GreenSpace to Address--><g id="link_GreenSpace_Address"><path codeLine="57" d="M162.37,429.8511 C142.5,440.9911 119.95,456.4611 104.5,475.6211 C93.09,489.7611 85.01,507.9311 79.43,524.5211 " fill="none" id="GreenSpace-Address" style="stroke:#181818;stroke-width:1.0;"/><polygon fill="#000000" points="106.2051,489.0274,114.3762,484.1607,109.955,480.2873,106.2051,489.0274" style="stroke:#000000;stroke-width:1.0;"/><text fill="#000000" font-family="sans-serif" font-size="13" lengthAdjust="spacing" textLength="70" x="118.5" y="490.6494">is located in</text><text fill="#000000" font-family="sans-serif" font-size="13" lengthAdjust="spacing" textLength="7" x="147.3555" y="429.1041">1</text><text fill="#000000" font-family="sans-serif" font-size="13" lengthAdjust="spacing" textLength="7" x="73.5213" y="513.5158">1</text></g><!--reverse link GreenSpace to Garden--><g id="link_GreenSpace_Garden"><path codeLine="59" d="M200.4165,463.8522 C197.3165,496.8522 194.57,526.2611 192.18,551.7411 " fill="none" id="GreenSpace-backto-Garden" style="stroke:#181818;stroke-width:1.0;"/><polygon fill="none" points="202.1,445.9311,194.4428,463.291,206.3902,464.4134,202.1,445.9311" style="stroke:#181818;stroke-width:1.0;"/></g><!--reverse link GreenSpace to MediumPark--><g id="link_GreenSpace_MediumPark"><path codeLine="60" d="M234.4513,461.6605 C252.8113,494.6605 270.38,526.2611 284.55,551.7411 " fill="none" id="GreenSpace-backto-MediumPark" style="stroke:#181818;stroke-width:1.0;"/><polygon fill="none" points="225.7,445.9311,229.2081,464.5776,239.6944,458.7434,225.7,445.9311" style="stroke:#181818;stroke-width:1.0;"/></g><!--reverse link GreenSpace to LargePark--><g id="link_GreenSpace_LargePark"><path codeLine="61" d="M262.9566,452.9451 C292.9366,475.7051 319.33,496.1411 354.5,524.6211 C365.48,533.5111 377.49,543.6711 387.3,552.0911 " fill="none" id="GreenSpace-backto-LargePark" style="stroke:#181818;stroke-width:1.0;"/><polygon fill="none" points="248.62,442.0611,259.3286,457.724,266.5846,448.1662,248.62,442.0611" style="stroke:#181818;stroke-width:1.0;"/></g><!--SRC=[RLB1Rjim3BthAuWU1wphTWo60bq350EMR6ZQ3s0arXOYYGObRyss_diPkKxSkZx84ld4z_YelFEfGy48aHFRLZWI5Ed9v6EcGxl3XZPb7mY4RC7KX2aWj-ZuZqyDF638qumDcFDLAUAtVQ7lbjF6_oMuCArt1DQBrK9r7wcqxB8nnHUbMN94ds35ZW9yXFlDbmkufSRdGW88DqAKOAFAo1XJMU2QGy0j2nOM-6T0luIHwiPXePyFtxoKjfxHHP-pvxJKH8rqBITQzt5BKiy57plSlnn8nGJpD39Lzah-bWU5y8HRikqZfJA07DkxVJVWqa1qH5uv9wJ_0PcB4fJrMBJZNAxLY9SgBElZxPcWlCAaipeOS9ABujIjIMH5plVn5yfk6ls1qj0fQ5uPUlRvJETmMCUkO04jPhYS0S_FFoXs08-DBI3utpH7mzV_Ydod0MFUQQgAqC9QVpA3XJxAuMLyYXLue9danrklvFWCWQrEtu6-iyiftQ1fS6qMFbatIntzK- -U0G00]--></g></svg>