<?xml version="1.0" encoding="us-ascii" standalone="no"?><svg xmlns="http://www.w3.org/2000/svg" xmlns:xlink="http://www.w3.org/1999/xlink" contentStyleType="text/css" height="668px" preserveAspectRatio="none" style="width:1494px;height:668px;background:#FFFFFF;" version="1.1" viewBox="0 0 1494 668" width="1494px" zoomAndPan="magnify"><defs/><g><!--class Skill--><g id="elem_Skill"><rect codeLine="11" fill="#F1F1F1" height="103.8633" id="Skill" rx="2.5" ry="2.5" style="stroke:#181818;stroke-width:0.5;" width="126" x="568.5" y="558"/><ellipse cx="614.75" cy="574" fill="#ADD1B2" rx="11" ry="11" style="stroke:#181818;stroke-width:1.0;"/><path d="M617.5156,569.875 Q617.6719,569.6563 617.8594,569.5469 Q618.0469,569.4375 618.2656,569.4375 Q618.6406,569.4375 618.875,569.7031 Q619.1094,569.9531 619.1094,570.5625 L619.1094,572.0156 Q619.1094,572.625 618.875,572.8906 Q618.6406,573.1563 618.2656,573.1563 Q617.9219,573.1563 617.7188,572.9531 Q617.5156,572.7656 617.4063,572.25 Q617.3594,571.8906 617.1719,571.7031 Q616.8438,571.3281 616.2344,571.1094 Q615.625,570.8906 615,570.8906 Q614.2344,570.8906 613.5938,571.2188 Q612.9688,571.5469 612.4688,572.2969 Q611.9844,573.0469 611.9844,574.0781 L611.9844,575.1719 Q611.9844,576.4063 612.875,577.2344 Q613.7656,578.0469 615.3594,578.0469 Q616.2969,578.0469 616.9531,577.7969 Q617.3438,577.6406 617.7656,577.2031 Q618.0313,576.9375 618.1719,576.8594 Q618.3281,576.7813 618.5313,576.7813 Q618.8594,576.7813 619.1094,577.0469 Q619.375,577.2969 619.375,577.6406 Q619.375,577.9844 619.0313,578.3906 Q618.5313,578.9688 617.7344,579.2969 Q616.6563,579.75 615.3594,579.75 Q613.8438,579.75 612.6406,579.125 Q611.6563,578.625 610.9688,577.5625 Q610.2813,576.4844 610.2813,575.2031 L610.2813,574.0469 Q610.2813,572.7188 610.8906,571.5781 Q611.5156,570.4219 612.6094,569.8125 Q613.7031,569.1875 614.9375,569.1875 Q615.6719,569.1875 616.3125,569.3594 Q616.9688,569.5156 617.5156,569.875 Z " fill="#000000"/><text fill="#000000" font-family="sans-serif" font-size="14" lengthAdjust="spacing" textLength="25" x="635.25" y="579.7969">Skill</text><line style="stroke:#181818;stroke-width:0.5;" x1="569.5" x2="693.5" y1="590" y2="590"/><text fill="#000000" font-family="sans-serif" font-size="14" lengthAdjust="spacing" textLength="81" x="574.5" y="609.1074">-String name</text><line style="stroke:#181818;stroke-width:0.5;" x1="569.5" x2="693.5" y1="616.6211" y2="616.6211"/><text fill="#000000" font-family="sans-serif" font-size="14" lengthAdjust="spacing" textLength="114" x="574.5" y="635.7285">-validateSkill(Skill)</text><text fill="#000000" font-family="sans-serif" font-size="14" lengthAdjust="spacing" textLength="78" x="574.5" y="654.3496">+Skill(name)</text></g><!--class AssignSkillController--><g id="elem_AssignSkillController"><rect codeLine="17" fill="#F1F1F1" height="159.7266" id="AssignSkillController" rx="2.5" ry="2.5" style="stroke:#181818;stroke-width:0.5;" width="277" x="817" y="62.5"/><ellipse cx="886.75" cy="78.5" fill="#ADD1B2" rx="11" ry="11" style="stroke:#181818;stroke-width:1.0;"/><path d="M889.5156,74.375 Q889.6719,74.1563 889.8594,74.0469 Q890.0469,73.9375 890.2656,73.9375 Q890.6406,73.9375 890.875,74.2031 Q891.1094,74.4531 891.1094,75.0625 L891.1094,76.5156 Q891.1094,77.125 890.875,77.3906 Q890.6406,77.6563 890.2656,77.6563 Q889.9219,77.6563 889.7188,77.4531 Q889.5156,77.2656 889.4063,76.75 Q889.3594,76.3906 889.1719,76.2031 Q888.8438,75.8281 888.2344,75.6094 Q887.625,75.3906 887,75.3906 Q886.2344,75.3906 885.5938,75.7188 Q884.9688,76.0469 884.4688,76.7969 Q883.9844,77.5469 883.9844,78.5781 L883.9844,79.6719 Q883.9844,80.9063 884.875,81.7344 Q885.7656,82.5469 887.3594,82.5469 Q888.2969,82.5469 888.9531,82.2969 Q889.3438,82.1406 889.7656,81.7031 Q890.0313,81.4375 890.1719,81.3594 Q890.3281,81.2813 890.5313,81.2813 Q890.8594,81.2813 891.1094,81.5469 Q891.375,81.7969 891.375,82.1406 Q891.375,82.4844 891.0313,82.8906 Q890.5313,83.4688 889.7344,83.7969 Q888.6563,84.25 887.3594,84.25 Q885.8438,84.25 884.6406,83.625 Q883.6563,83.125 882.9688,82.0625 Q882.2813,80.9844 882.2813,79.7031 L882.2813,78.5469 Q882.2813,77.2188 882.8906,76.0781 Q883.5156,74.9219 884.6094,74.3125 Q885.7031,73.6875 886.9375,73.6875 Q887.6719,73.6875 888.3125,73.8594 Q888.9688,74.0156 889.5156,74.375 Z " fill="#000000"/><text fill="#000000" font-family="sans-serif" font-size="14" lengthAdjust="spacing" textLength="129" x="907.25" y="84.2969">AssignSkillController</text><line style="stroke:#181818;stroke-width:0.5;" x1="818" x2="1093" y1="94.5" y2="94.5"/><line style="stroke:#181818;stroke-width:0.5;" x1="818" x2="1093" y1="102.5" y2="102.5"/><text fill="#000000" font-family="sans-serif" font-size="14" lengthAdjust="spacing" textLength="147" x="823" y="121.6074">+AssignSkillController()</text><text fill="#000000" font-family="sans-serif" font-size="14" lengthAdjust="spacing" textLength="119" x="823" y="140.2285">+assignSkill(name)</text><text fill="#000000" font-family="sans-serif" font-size="14" lengthAdjust="spacing" textLength="265" x="823" y="158.8496">+AssignSkillCollaborator(collaborator,skill)</text><text fill="#000000" font-family="sans-serif" font-size="14" lengthAdjust="spacing" textLength="173" x="823" y="177.4707">+getCollaboratorList(name)</text><text fill="#000000" font-family="sans-serif" font-size="14" lengthAdjust="spacing" textLength="111" x="823" y="196.0918">+skillListAdd(skill)</text><text fill="#000000" font-family="sans-serif" font-size="14" lengthAdjust="spacing" textLength="166" x="823" y="214.7129">+getSkillList(skillListName)</text></g><!--class AssignSkillUI--><g id="elem_AssignSkillUI"><rect codeLine="27" fill="#F1F1F1" height="48" id="AssignSkillUI" rx="2.5" ry="2.5" style="stroke:#181818;stroke-width:0.5;" width="111" x="671" y="118.5"/><ellipse cx="686" cy="134.5" fill="#ADD1B2" rx="11" ry="11" style="stroke:#181818;stroke-width:1.0;"/><path d="M688.7656,130.375 Q688.9219,130.1563 689.1094,130.0469 Q689.2969,129.9375 689.5156,129.9375 Q689.8906,129.9375 690.125,130.2031 Q690.3594,130.4531 690.3594,131.0625 L690.3594,132.5156 Q690.3594,133.125 690.125,133.3906 Q689.8906,133.6563 689.5156,133.6563 Q689.1719,133.6563 688.9688,133.4531 Q688.7656,133.2656 688.6563,132.75 Q688.6094,132.3906 688.4219,132.2031 Q688.0938,131.8281 687.4844,131.6094 Q686.875,131.3906 686.25,131.3906 Q685.4844,131.3906 684.8438,131.7188 Q684.2188,132.0469 683.7188,132.7969 Q683.2344,133.5469 683.2344,134.5781 L683.2344,135.6719 Q683.2344,136.9063 684.125,137.7344 Q685.0156,138.5469 686.6094,138.5469 Q687.5469,138.5469 688.2031,138.2969 Q688.5938,138.1406 689.0156,137.7031 Q689.2813,137.4375 689.4219,137.3594 Q689.5781,137.2813 689.7813,137.2813 Q690.1094,137.2813 690.3594,137.5469 Q690.625,137.7969 690.625,138.1406 Q690.625,138.4844 690.2813,138.8906 Q689.7813,139.4688 688.9844,139.7969 Q687.9063,140.25 686.6094,140.25 Q685.0938,140.25 683.8906,139.625 Q682.9063,139.125 682.2188,138.0625 Q681.5313,136.9844 681.5313,135.7031 L681.5313,134.5469 Q681.5313,133.2188 682.1406,132.0781 Q682.7656,130.9219 683.8594,130.3125 Q684.9531,129.6875 686.1875,129.6875 Q686.9219,129.6875 687.5625,129.8594 Q688.2188,130.0156 688.7656,130.375 Z " fill="#000000"/><text fill="#000000" font-family="sans-serif" font-size="14" lengthAdjust="spacing" textLength="79" x="700" y="140.2969">AssignSkillUI</text><line style="stroke:#181818;stroke-width:0.5;" x1="672" x2="781" y1="150.5" y2="150.5"/><line style="stroke:#181818;stroke-width:0.5;" x1="672" x2="781" y1="158.5" y2="158.5"/></g><!--class Document--><g id="elem_Document"><rect codeLine="30" fill="#F1F1F1" height="85.2422" id="Document" rx="2.5" ry="2.5" style="stroke:#181818;stroke-width:0.5;" width="96" x="429.5" y="375.5"/><ellipse cx="444.5" cy="391.5" fill="#ADD1B2" rx="11" ry="11" style="stroke:#181818;stroke-width:1.0;"/><path d="M447.2656,387.375 Q447.4219,387.1563 447.6094,387.0469 Q447.7969,386.9375 448.0156,386.9375 Q448.3906,386.9375 448.625,387.2031 Q448.8594,387.4531 448.8594,388.0625 L448.8594,389.5156 Q448.8594,390.125 448.625,390.3906 Q448.3906,390.6563 448.0156,390.6563 Q447.6719,390.6563 447.4688,390.4531 Q447.2656,390.2656 447.1563,389.75 Q447.1094,389.3906 446.9219,389.2031 Q446.5938,388.8281 445.9844,388.6094 Q445.375,388.3906 444.75,388.3906 Q443.9844,388.3906 443.3438,388.7188 Q442.7188,389.0469 442.2188,389.7969 Q441.7344,390.5469 441.7344,391.5781 L441.7344,392.6719 Q441.7344,393.9063 442.625,394.7344 Q443.5156,395.5469 445.1094,395.5469 Q446.0469,395.5469 446.7031,395.2969 Q447.0938,395.1406 447.5156,394.7031 Q447.7813,394.4375 447.9219,394.3594 Q448.0781,394.2813 448.2813,394.2813 Q448.6094,394.2813 448.8594,394.5469 Q449.125,394.7969 449.125,395.1406 Q449.125,395.4844 448.7813,395.8906 Q448.2813,396.4688 447.4844,396.7969 Q446.4063,397.25 445.1094,397.25 Q443.5938,397.25 442.3906,396.625 Q441.4063,396.125 440.7188,395.0625 Q440.0313,393.9844 440.0313,392.7031 L440.0313,391.5469 Q440.0313,390.2188 440.6406,389.0781 Q441.2656,387.9219 442.3594,387.3125 Q443.4531,386.6875 444.6875,386.6875 Q445.4219,386.6875 446.0625,386.8594 Q446.7188,387.0156 447.2656,387.375 Z " fill="#000000"/><text fill="#000000" font-family="sans-serif" font-size="14" lengthAdjust="spacing" textLength="64" x="458.5" y="397.2969">Document</text><line style="stroke:#181818;stroke-width:0.5;" x1="430.5" x2="524.5" y1="407.5" y2="407.5"/><text fill="#000000" font-family="sans-serif" font-size="14" lengthAdjust="spacing" textLength="55" x="435.5" y="426.6074">docType</text><text fill="#000000" font-family="sans-serif" font-size="14" lengthAdjust="spacing" textLength="48" x="435.5" y="445.2285">number</text><line style="stroke:#181818;stroke-width:0.5;" x1="430.5" x2="524.5" y1="452.7422" y2="452.7422"/></g><!--class Collaborator--><g id="elem_Collaborator"><rect codeLine="35" fill="#F1F1F1" height="271.4531" id="Collaborator" rx="2.5" ry="2.5" style="stroke:#181818;stroke-width:0.5;" width="629" x="7" y="7"/><ellipse cx="278.25" cy="23" fill="#ADD1B2" rx="11" ry="11" style="stroke:#181818;stroke-width:1.0;"/><path d="M281.0156,18.875 Q281.1719,18.6563 281.3594,18.5469 Q281.5469,18.4375 281.7656,18.4375 Q282.1406,18.4375 282.375,18.7031 Q282.6094,18.9531 282.6094,19.5625 L282.6094,21.0156 Q282.6094,21.625 282.375,21.8906 Q282.1406,22.1563 281.7656,22.1563 Q281.4219,22.1563 281.2188,21.9531 Q281.0156,21.7656 280.9063,21.25 Q280.8594,20.8906 280.6719,20.7031 Q280.3438,20.3281 279.7344,20.1094 Q279.125,19.8906 278.5,19.8906 Q277.7344,19.8906 277.0938,20.2188 Q276.4688,20.5469 275.9688,21.2969 Q275.4844,22.0469 275.4844,23.0781 L275.4844,24.1719 Q275.4844,25.4063 276.375,26.2344 Q277.2656,27.0469 278.8594,27.0469 Q279.7969,27.0469 280.4531,26.7969 Q280.8438,26.6406 281.2656,26.2031 Q281.5313,25.9375 281.6719,25.8594 Q281.8281,25.7813 282.0313,25.7813 Q282.3594,25.7813 282.6094,26.0469 Q282.875,26.2969 282.875,26.6406 Q282.875,26.9844 282.5313,27.3906 Q282.0313,27.9688 281.2344,28.2969 Q280.1563,28.75 278.8594,28.75 Q277.3438,28.75 276.1406,28.125 Q275.1563,27.625 274.4688,26.5625 Q273.7813,25.4844 273.7813,24.2031 L273.7813,23.0469 Q273.7813,21.7188 274.3906,20.5781 Q275.0156,19.4219 276.1094,18.8125 Q277.2031,18.1875 278.4375,18.1875 Q279.1719,18.1875 279.8125,18.3594 Q280.4688,18.5156 281.0156,18.875 Z " fill="#000000"/><text fill="#000000" font-family="sans-serif" font-size="14" lengthAdjust="spacing" textLength="78" x="298.75" y="28.7969">Collaborator</text><line style="stroke:#181818;stroke-width:0.5;" x1="8" x2="635" y1="39" y2="39"/><text fill="#000000" font-family="sans-serif" font-size="14" lengthAdjust="spacing" textLength="81" x="13" y="58.1074">-String name</text><text fill="#000000" font-family="sans-serif" font-size="14" lengthAdjust="spacing" textLength="117" x="13" y="76.7285">-List&lt;Skill&gt; skillList</text><text fill="#000000" font-family="sans-serif" font-size="14" lengthAdjust="spacing" textLength="50" x="13" y="95.3496">-Job job</text><text fill="#000000" font-family="sans-serif" font-size="14" lengthAdjust="spacing" textLength="111" x="13" y="113.9707">-Date dateOfBirth</text><text fill="#000000" font-family="sans-serif" font-size="14" lengthAdjust="spacing" textLength="132" x="13" y="132.5918">-Date admissionDate</text><text fill="#000000" font-family="sans-serif" font-size="14" lengthAdjust="spacing" textLength="135" x="13" y="151.2129">-String phoneNumber</text><text fill="#000000" font-family="sans-serif" font-size="14" lengthAdjust="spacing" textLength="79" x="13" y="169.834">-String email</text><text fill="#000000" font-family="sans-serif" font-size="14" lengthAdjust="spacing" textLength="78" x="13" y="188.4551">-int taxpayer</text><text fill="#000000" font-family="sans-serif" font-size="14" lengthAdjust="spacing" textLength="135" x="13" y="207.0762">-Document document</text><text fill="#000000" font-family="sans-serif" font-size="14" lengthAdjust="spacing" textLength="96" x="13" y="225.6973">-Adress adress</text><line style="stroke:#181818;stroke-width:0.5;" x1="8" x2="635" y1="233.2109" y2="233.2109"/><text fill="#000000" font-family="sans-serif" font-size="14" lengthAdjust="spacing" textLength="617" x="13" y="252.3184">+Collaborator(name,adress,document,dateOfBirth, admissionDate,phoneNumber, email, taxpayer)</text><text fill="#000000" font-family="sans-serif" font-size="14" lengthAdjust="spacing" textLength="113" x="13" y="270.9395">+skillListAdd(Skill)</text></g><!--class HumanResourcesManager--><g id="elem_HumanResourcesManager"><rect codeLine="50" fill="#F1F1F1" height="48" id="HumanResourcesManager" rx="2.5" ry="2.5" style="stroke:#181818;stroke-width:0.5;" width="200" x="101.5" y="394"/><ellipse cx="116.5" cy="410" fill="#ADD1B2" rx="11" ry="11" style="stroke:#181818;stroke-width:1.0;"/><path d="M119.2656,405.875 Q119.4219,405.6563 119.6094,405.5469 Q119.7969,405.4375 120.0156,405.4375 Q120.3906,405.4375 120.625,405.7031 Q120.8594,405.9531 120.8594,406.5625 L120.8594,408.0156 Q120.8594,408.625 120.625,408.8906 Q120.3906,409.1563 120.0156,409.1563 Q119.6719,409.1563 119.4688,408.9531 Q119.2656,408.7656 119.1563,408.25 Q119.1094,407.8906 118.9219,407.7031 Q118.5938,407.3281 117.9844,407.1094 Q117.375,406.8906 116.75,406.8906 Q115.9844,406.8906 115.3438,407.2188 Q114.7188,407.5469 114.2188,408.2969 Q113.7344,409.0469 113.7344,410.0781 L113.7344,411.1719 Q113.7344,412.4063 114.625,413.2344 Q115.5156,414.0469 117.1094,414.0469 Q118.0469,414.0469 118.7031,413.7969 Q119.0938,413.6406 119.5156,413.2031 Q119.7813,412.9375 119.9219,412.8594 Q120.0781,412.7813 120.2813,412.7813 Q120.6094,412.7813 120.8594,413.0469 Q121.125,413.2969 121.125,413.6406 Q121.125,413.9844 120.7813,414.3906 Q120.2813,414.9688 119.4844,415.2969 Q118.4063,415.75 117.1094,415.75 Q115.5938,415.75 114.3906,415.125 Q113.4063,414.625 112.7188,413.5625 Q112.0313,412.4844 112.0313,411.2031 L112.0313,410.0469 Q112.0313,408.7188 112.6406,407.5781 Q113.2656,406.4219 114.3594,405.8125 Q115.4531,405.1875 116.6875,405.1875 Q117.4219,405.1875 118.0625,405.3594 Q118.7188,405.5156 119.2656,405.875 Z " fill="#000000"/><text fill="#000000" font-family="sans-serif" font-size="14" lengthAdjust="spacing" textLength="168" x="130.5" y="415.7969">HumanResourcesManager</text><line style="stroke:#181818;stroke-width:0.5;" x1="102.5" x2="300.5" y1="426" y2="426"/><line style="stroke:#181818;stroke-width:0.5;" x1="102.5" x2="300.5" y1="434" y2="434"/></g><!--class Repositories--><g id="elem_Repositories"><rect codeLine="53" fill="#F1F1F1" height="103.8633" id="Repositories" rx="2.5" ry="2.5" style="stroke:#181818;stroke-width:0.5;" width="194" x="1197.5" y="90.5"/><ellipse cx="1250.75" cy="106.5" fill="#ADD1B2" rx="11" ry="11" style="stroke:#181818;stroke-width:1.0;"/><path d="M1253.5156,102.375 Q1253.6719,102.1563 1253.8594,102.0469 Q1254.0469,101.9375 1254.2656,101.9375 Q1254.6406,101.9375 1254.875,102.2031 Q1255.1094,102.4531 1255.1094,103.0625 L1255.1094,104.5156 Q1255.1094,105.125 1254.875,105.3906 Q1254.6406,105.6563 1254.2656,105.6563 Q1253.9219,105.6563 1253.7188,105.4531 Q1253.5156,105.2656 1253.4063,104.75 Q1253.3594,104.3906 1253.1719,104.2031 Q1252.8438,103.8281 1252.2344,103.6094 Q1251.625,103.3906 1251,103.3906 Q1250.2344,103.3906 1249.5938,103.7188 Q1248.9688,104.0469 1248.4688,104.7969 Q1247.9844,105.5469 1247.9844,106.5781 L1247.9844,107.6719 Q1247.9844,108.9063 1248.875,109.7344 Q1249.7656,110.5469 1251.3594,110.5469 Q1252.2969,110.5469 1252.9531,110.2969 Q1253.3438,110.1406 1253.7656,109.7031 Q1254.0313,109.4375 1254.1719,109.3594 Q1254.3281,109.2813 1254.5313,109.2813 Q1254.8594,109.2813 1255.1094,109.5469 Q1255.375,109.7969 1255.375,110.1406 Q1255.375,110.4844 1255.0313,110.8906 Q1254.5313,111.4688 1253.7344,111.7969 Q1252.6563,112.25 1251.3594,112.25 Q1249.8438,112.25 1248.6406,111.625 Q1247.6563,111.125 1246.9688,110.0625 Q1246.2813,108.9844 1246.2813,107.7031 L1246.2813,106.5469 Q1246.2813,105.2188 1246.8906,104.0781 Q1247.5156,102.9219 1248.6094,102.3125 Q1249.7031,101.6875 1250.9375,101.6875 Q1251.6719,101.6875 1252.3125,101.8594 Q1252.9688,102.0156 1253.5156,102.375 Z " fill="#000000"/><text fill="#000000" font-family="sans-serif" font-size="14" lengthAdjust="spacing" textLength="79" x="1271.25" y="112.2969">Repositories</text><line style="stroke:#181818;stroke-width:0.5;" x1="1198.5" x2="1390.5" y1="122.5" y2="122.5"/><line style="stroke:#181818;stroke-width:0.5;" x1="1198.5" x2="1390.5" y1="130.5" y2="130.5"/><text fill="#000000" font-family="sans-serif" font-size="14" lengthAdjust="spacing" textLength="94" x="1203.5" y="149.6074">-Repositories()</text><text fill="#000000" font-family="sans-serif" font-size="14" lengthAdjust="spacing" textLength="182" x="1203.5" y="168.2285">+getInstance() : Repositories</text><text fill="#000000" font-family="sans-serif" font-size="14" lengthAdjust="spacing" textLength="131" x="1203.5" y="186.8496">+getSkillRepository()</text></g><!--class SkillRepository--><g id="elem_SkillRepository"><rect codeLine="60" fill="#F1F1F1" height="122.4844" id="SkillRepository" rx="2.5" ry="2.5" style="stroke:#181818;stroke-width:0.5;" width="175" x="945" y="357"/><ellipse cx="982.5" cy="373" fill="#ADD1B2" rx="11" ry="11" style="stroke:#181818;stroke-width:1.0;"/><path d="M985.2656,368.875 Q985.4219,368.6563 985.6094,368.5469 Q985.7969,368.4375 986.0156,368.4375 Q986.3906,368.4375 986.625,368.7031 Q986.8594,368.9531 986.8594,369.5625 L986.8594,371.0156 Q986.8594,371.625 986.625,371.8906 Q986.3906,372.1563 986.0156,372.1563 Q985.6719,372.1563 985.4688,371.9531 Q985.2656,371.7656 985.1563,371.25 Q985.1094,370.8906 984.9219,370.7031 Q984.5938,370.3281 983.9844,370.1094 Q983.375,369.8906 982.75,369.8906 Q981.9844,369.8906 981.3438,370.2188 Q980.7188,370.5469 980.2188,371.2969 Q979.7344,372.0469 979.7344,373.0781 L979.7344,374.1719 Q979.7344,375.4063 980.625,376.2344 Q981.5156,377.0469 983.1094,377.0469 Q984.0469,377.0469 984.7031,376.7969 Q985.0938,376.6406 985.5156,376.2031 Q985.7813,375.9375 985.9219,375.8594 Q986.0781,375.7813 986.2813,375.7813 Q986.6094,375.7813 986.8594,376.0469 Q987.125,376.2969 987.125,376.6406 Q987.125,376.9844 986.7813,377.3906 Q986.2813,377.9688 985.4844,378.2969 Q984.4063,378.75 983.1094,378.75 Q981.5938,378.75 980.3906,378.125 Q979.4063,377.625 978.7188,376.5625 Q978.0313,375.4844 978.0313,374.2031 L978.0313,373.0469 Q978.0313,371.7188 978.6406,370.5781 Q979.2656,369.4219 980.3594,368.8125 Q981.4531,368.1875 982.6875,368.1875 Q983.4219,368.1875 984.0625,368.3594 Q984.7188,368.5156 985.2656,368.875 Z " fill="#000000"/><text fill="#000000" font-family="sans-serif" font-size="14" lengthAdjust="spacing" textLength="93" x="1001.5" y="378.7969">SkillRepository</text><line style="stroke:#181818;stroke-width:0.5;" x1="946" x2="1119" y1="389" y2="389"/><text fill="#000000" font-family="sans-serif" font-size="14" lengthAdjust="spacing" textLength="99" x="951" y="408.1074">-List &lt;Skill&gt; skill</text><line style="stroke:#181818;stroke-width:0.5;" x1="946" x2="1119" y1="415.6211" y2="415.6211"/><text fill="#000000" font-family="sans-serif" font-size="14" lengthAdjust="spacing" textLength="114" x="951" y="434.7285">-validateSkill(Skill)</text><text fill="#000000" font-family="sans-serif" font-size="14" lengthAdjust="spacing" textLength="108" x="951" y="453.3496">-skillListAdd(skill)</text><text fill="#000000" font-family="sans-serif" font-size="14" lengthAdjust="spacing" textLength="163" x="951" y="471.9707">-getSkillList(skillListName)</text></g><!--class CollaboratorRepository--><g id="elem_CollaboratorRepository"><rect codeLine="68" fill="#F1F1F1" height="85.2422" id="CollaboratorRepository" rx="2.5" ry="2.5" style="stroke:#181818;stroke-width:0.5;" width="277" x="561" y="375.5"/><ellipse cx="622.25" cy="391.5" fill="#ADD1B2" rx="11" ry="11" style="stroke:#181818;stroke-width:1.0;"/><path d="M625.0156,387.375 Q625.1719,387.1563 625.3594,387.0469 Q625.5469,386.9375 625.7656,386.9375 Q626.1406,386.9375 626.375,387.2031 Q626.6094,387.4531 626.6094,388.0625 L626.6094,389.5156 Q626.6094,390.125 626.375,390.3906 Q626.1406,390.6563 625.7656,390.6563 Q625.4219,390.6563 625.2188,390.4531 Q625.0156,390.2656 624.9063,389.75 Q624.8594,389.3906 624.6719,389.2031 Q624.3438,388.8281 623.7344,388.6094 Q623.125,388.3906 622.5,388.3906 Q621.7344,388.3906 621.0938,388.7188 Q620.4688,389.0469 619.9688,389.7969 Q619.4844,390.5469 619.4844,391.5781 L619.4844,392.6719 Q619.4844,393.9063 620.375,394.7344 Q621.2656,395.5469 622.8594,395.5469 Q623.7969,395.5469 624.4531,395.2969 Q624.8438,395.1406 625.2656,394.7031 Q625.5313,394.4375 625.6719,394.3594 Q625.8281,394.2813 626.0313,394.2813 Q626.3594,394.2813 626.6094,394.5469 Q626.875,394.7969 626.875,395.1406 Q626.875,395.4844 626.5313,395.8906 Q626.0313,396.4688 625.2344,396.7969 Q624.1563,397.25 622.8594,397.25 Q621.3438,397.25 620.1406,396.625 Q619.1563,396.125 618.4688,395.0625 Q617.7813,393.9844 617.7813,392.7031 L617.7813,391.5469 Q617.7813,390.2188 618.3906,389.0781 Q619.0156,387.9219 620.1094,387.3125 Q621.2031,386.6875 622.4375,386.6875 Q623.1719,386.6875 623.8125,386.8594 Q624.4688,387.0156 625.0156,387.375 Z " fill="#000000"/><text fill="#000000" font-family="sans-serif" font-size="14" lengthAdjust="spacing" textLength="146" x="642.75" y="397.2969">CollaboratorRepository</text><line style="stroke:#181818;stroke-width:0.5;" x1="562" x2="837" y1="407.5" y2="407.5"/><line style="stroke:#181818;stroke-width:0.5;" x1="562" x2="837" y1="415.5" y2="415.5"/><text fill="#000000" font-family="sans-serif" font-size="14" lengthAdjust="spacing" textLength="173" x="567" y="434.6074">+getCollaboratorList(name)</text><text fill="#000000" font-family="sans-serif" font-size="14" lengthAdjust="spacing" textLength="265" x="567" y="453.2285">+AssignSkillCollaborator(collaborator,skill)</text></g><!--link AssignSkillController to Repositories--><g id="link_AssignSkillController_Repositories"><path codeLine="74" d="M1094.36,142.5 C1128.92,142.5 1159.24,142.5 1191.3,142.5 " fill="none" id="AssignSkillController-to-Repositories" style="stroke:#181818;stroke-width:1.0;stroke-dasharray:7.0,7.0;"/><polygon fill="#181818" points="1197.3,142.5,1188.3,138.5,1192.3,142.5,1188.3,146.5,1197.3,142.5" style="stroke:#181818;stroke-width:1.0;"/><text fill="#000000" font-family="sans-serif" font-size="13" lengthAdjust="spacing" textLength="67" x="1112.25" y="135.5283">repositories</text></g><!--link AssignSkillUI to AssignSkillController--><g id="link_AssignSkillUI_AssignSkillController"><path codeLine="75" d="M782.38,142.5 C794.02,142.5 802.83,142.5 802.83,142.5 C802.83,142.5 802.54,142.5 810.83,142.5 " fill="none" id="AssignSkillUI-to-AssignSkillController" style="stroke:#181818;stroke-width:1.0;stroke-dasharray:7.0,7.0;"/><polygon fill="#181818" points="816.83,142.5,807.83,138.5,811.83,142.5,807.83,146.5,816.83,142.5" style="stroke:#181818;stroke-width:1.0;"/></g><!--link Repositories to Repositories--><g id="link_Repositories_Repositories"><path codeLine="76" d="M1391.78,111.02 C1411.98,114.34 1426.5,124.83 1426.5,142.5 C1426.5,160.17 1417.9006,169.6869 1397.7006,173.0069 " fill="none" id="Repositories-to-Repositories" style="stroke:#181818;stroke-width:1.0;"/><polygon fill="#181818" points="1391.78,173.98,1401.3096,176.4674,1396.7138,173.1691,1400.0121,168.5733,1391.78,173.98" style="stroke:#181818;stroke-width:1.0;"/><text fill="#000000" font-family="sans-serif" font-size="13" lengthAdjust="spacing" textLength="49" x="1432.5" y="148.0283">instance</text></g><!--link Repositories to CollaboratorRepository--><g id="link_Repositories_CollaboratorRepository"><path codeLine="77" d="M1225.05,194.54 C1173.29,232.59 1111.5,278 1111.5,278 C1111.5,278 949.6453,332.6123 828.2453,373.5623 " fill="none" id="Repositories-to-CollaboratorRepository" style="stroke:#181818;stroke-width:1.0;"/><polygon fill="#181818" points="822.56,375.48,832.3664,376.3936,827.2977,373.8819,829.8094,368.8132,822.56,375.48" style="stroke:#181818;stroke-width:1.0;"/><text fill="#000000" font-family="sans-serif" font-size="13" lengthAdjust="spacing" textLength="131" x="1023.5" y="323.0283">CollaboratorRepository</text><text fill="#000000" font-family="sans-serif" font-size="13" lengthAdjust="spacing" textLength="7" x="834.6149" y="364.3809">1</text></g><!--link Repositories to SkillRepository--><g id="link_Repositories_SkillRepository"><path codeLine="78" d="M1274.17,194.61 C1252.57,248.91 1221.5,327 1221.5,327 C1221.5,327 1174.9373,349.1707 1125.4973,372.7107 " fill="none" id="Repositories-to-SkillRepository" style="stroke:#181818;stroke-width:1.0;"/><polygon fill="#181818" points="1120.08,375.29,1129.9255,375.0325,1124.5944,373.1405,1126.4864,367.8095,1120.08,375.29" style="stroke:#181818;stroke-width:1.0;"/><text fill="#000000" font-family="sans-serif" font-size="13" lengthAdjust="spacing" textLength="87" x="1228.5" y="323.0283">SkillRepository</text><text fill="#000000" font-family="sans-serif" font-size="13" lengthAdjust="spacing" textLength="7" x="1127.9072" y="367.9092">1</text></g><!--link SkillRepository to Skill--><g id="link_SkillRepository_Skill"><path codeLine="79" d="M968.95,479.24 C942.35,504.45 917.5,528 917.5,528 C917.5,528 784.613,565.6352 700.393,589.4852 " fill="none" id="SkillRepository-to-Skill" style="stroke:#181818;stroke-width:1.0;"/><polygon fill="#181818" points="694.62,591.12,704.3694,592.5164,699.4308,589.7576,702.1896,584.8191,694.62,591.12" style="stroke:#181818;stroke-width:1.0;"/><text fill="#000000" font-family="sans-serif" font-size="13" lengthAdjust="spacing" textLength="23" x="937.5" y="524.0283">skill</text><text fill="#000000" font-family="sans-serif" font-size="13" lengthAdjust="spacing" textLength="7" x="954.1973" y="501.3208">1</text><text fill="#000000" font-family="sans-serif" font-size="13" lengthAdjust="spacing" textLength="5" x="702.6174" y="584.8374">*</text></g><!--reverse link Collaborator to HumanResourcesManager--><g id="link_Collaborator_HumanResourcesManager"><path codeLine="80" d="M255.148,294.7333 C235.628,339.2233 223.21,367.52 211.71,393.73 " fill="none" id="Collaborator-backto-HumanResourcesManager" style="stroke:#181818;stroke-width:1.0;"/><polygon fill="none" points="262.38,278.25,249.6535,292.3226,260.6424,297.1439,262.38,278.25" style="stroke:#181818;stroke-width:1.0;"/></g><!--link AssignSkillController to Skill--><g id="link_AssignSkillController_Skill"><path codeLine="81" d="M931.93,222.58 C902.36,321.77 855.5,479 855.5,479 C855.5,479 766.2195,530.8185 699.9795,569.2585 " fill="none" id="AssignSkillController-to-Skill" style="stroke:#181818;stroke-width:1.0;stroke-dasharray:7.0,7.0;"/><polygon fill="#181818" points="694.79,572.27,704.5819,571.2124,699.1146,569.7604,700.5665,564.2931,694.79,572.27" style="stroke:#181818;stroke-width:1.0;"/></g><!--link AssignSkillController to SkillRepository--><g id="link_AssignSkillController_SkillRepository"><path codeLine="82" d="M977.77,222.61 C989.81,265.36 1002.8141,311.5445 1013.9141,350.9745 " fill="none" id="AssignSkillController-to-SkillRepository" style="stroke:#181818;stroke-width:1.0;stroke-dasharray:7.0,7.0;"/><polygon fill="#181818" points="1015.54,356.75,1016.9515,347.0028,1014.1851,351.9371,1009.2508,349.1706,1015.54,356.75" style="stroke:#181818;stroke-width:1.0;"/></g><!--reverse link HumanResourcesManager to Skill--><g id="link_HumanResourcesManager_Skill"><path codeLine="84" d="M223.4565,446.8304 C248.6965,478.8204 287.5,528 287.5,528 C287.5,528 469.1,570.76 568.41,594.14 " fill="none" id="HumanResourcesManager-backto-Skill" style="stroke:#181818;stroke-width:1.0;"/><polygon fill="#181818" points="219.74,442.12,222.1745,451.6632,222.8371,446.0453,228.455,446.7079,219.74,442.12" style="stroke:#181818;stroke-width:1.0;"/><text fill="#000000" font-family="sans-serif" font-size="13" lengthAdjust="spacing" textLength="56" x="288.5" y="524.0283">AssignBy</text></g><!--link Collaborator to Skill--><g id="link_Collaborator_Skill"><path codeLine="85" d="M348.77,278.03 C367.68,371.37 389.5,479 389.5,479 C389.5,479 491.2442,533.661 562.9442,572.171 " fill="none" id="Collaborator-to-Skill" style="stroke:#181818;stroke-width:1.0;"/><polygon fill="#181818" points="568.23,575.01,562.1939,567.2276,563.8251,572.6442,558.4086,574.2754,568.23,575.01" style="stroke:#181818;stroke-width:1.0;"/><text fill="#000000" font-family="sans-serif" font-size="13" lengthAdjust="spacing" textLength="21" x="390.5" y="423.5283">has</text><text fill="#000000" font-family="sans-serif" font-size="13" lengthAdjust="spacing" textLength="5" x="345.202" y="300.3804">*</text><text fill="#000000" font-family="sans-serif" font-size="13" lengthAdjust="spacing" textLength="5" x="555.6253" y="567.0345">*</text></g><!--link Collaborator to CollaboratorRepository--><g id="link_Collaborator_CollaboratorRepository"><path codeLine="86" d="M507.45,278.05 C556.33,313.41 600.6094,345.4423 636.9494,371.7423 " fill="none" id="Collaborator-to-CollaboratorRepository" style="stroke:#181818;stroke-width:1.0;stroke-dasharray:7.0,7.0;"/><polygon fill="#181818" points="641.81,375.26,636.8642,366.743,637.7595,372.3286,632.1739,373.2238,641.81,375.26" style="stroke:#181818;stroke-width:1.0;"/><text fill="#000000" font-family="sans-serif" font-size="13" lengthAdjust="spacing" textLength="129" x="566.5" y="323.0283">collaboratorRepository</text></g><!--link Collaborator to Document--><g id="link_Collaborator_Document"><path codeLine="87" d="M398.36,278.25 C418.51,313.57 435.7877,343.868 450.7577,370.118 " fill="none" id="Collaborator-to-Document" style="stroke:#181818;stroke-width:1.0;"/><polygon fill="#181818" points="453.73,375.33,452.7462,365.5304,451.253,370.9866,445.7968,369.4935,453.73,375.33" style="stroke:#181818;stroke-width:1.0;"/><text fill="#000000" font-family="sans-serif" font-size="13" lengthAdjust="spacing" textLength="21" x="423.5" y="323.0283">has</text><text fill="#000000" font-family="sans-serif" font-size="13" lengthAdjust="spacing" textLength="7" x="395.6011" y="300.6131">1</text><text fill="#000000" font-family="sans-serif" font-size="13" lengthAdjust="spacing" textLength="7" x="442.3838" y="364.207">1</text></g><!--SRC=[bLJRZjCm47ttLrZxqfGc25whQgKk-q0HBD8MFi1rfecfOqUs0uJBlsCxbzhPP5VqeKdcd9avdejN-i94JHIfS2M5fAMI5M2Z6a1Nf2RqGWeucfO3La0D4GKF2ReakVp1H87FXEiGuKo0QMl0jUIj-q2h6L0g8r7WHJdHUc-COgV6m85ASMI_0Bz1QCNXRB2HMB6YD3XdJWwJ0Y7lWuyNnZd-ZR3zPVXe8rXHWbJGMxuJpd9YmFCI_x_sqAPpJHntZVuEyVPQiq9uw9qKHadEGTdulSyid0mHoHNjuyvuSKvEKX4ZLKA3ZrI7sWem8VCZqoQAwCdEki_pPEfv7C1af3qidlBhmPvk1EubRIeGfYjeBkaNsox_Bfhg1EhA3EKDzNzIVfTwvzFSNYLtq0Tvmj_agVkujnt2hasVptTCcJAmahnYLgqKxYjAKvTIm4CdAxH3HHZlB4pOsI4_Qz8EdE60xcp-fJFlSmNsKCG_-af6hN9dIZiu7LpJG74Q2qq3SMcdA1sLzAsAUjXFvbZUzqr5n2DesIWA-XCHTXzLsAb7gALcLXe3FSnd5bcJO2GEGjibff2iyJOYJQPcXDea43E1ndLpud7KtvUsBbkStEpPoPsVkqWIsYmlpUP_Dj2cchy5Nj_6LT_Qkp6ePBnKbZmR1KKXiYSXMT-f2SyIRzxUB9r-km3C1vcsSpkre2d3UNdlLxstzUdw7Lq3UFSdo_3yx2xLrDR9srx20tLeVZbsBhVdRllItxMnFYT_UeoIw9Xa4ovMcSvNEKuorCe-nzkcouFGFm00]--></g></svg>