<?xml version="1.0" encoding="us-ascii" standalone="no"?><svg xmlns="http://www.w3.org/2000/svg" xmlns:xlink="http://www.w3.org/1999/xlink" contentStyleType="text/css" height="814.4px" preserveAspectRatio="none" style="width:771px;height:814px;background:#FFFFFF;" version="1.1" viewBox="0 0 771 814" width="771.2px" zoomAndPan="magnify"><defs/><g><text fill="#000000" font-family="sans-serif" font-size="22.4" font-weight="bold" lengthAdjust="spacing" textLength="595.2" x="90.4" y="48.1719">System Sequence Diagram (SSD) - US04 Assign Skills.</text><rect fill="#FFFFFF" height="455.3906" style="stroke:#181818;stroke-width:1.6000000000000003;" width="16" x="204.8" y="213.1875"/><rect fill="#FFFFFF" height="50.0656" style="stroke:#181818;stroke-width:1.6000000000000003;" width="16" x="686.4" y="250.4531"/><rect fill="#FFFFFF" height="92.1313" style="stroke:#181818;stroke-width:1.6000000000000003;" width="16" x="686.4" y="350.5844"/><rect fill="#FFFFFF" height="61.2656" style="stroke:#181818;stroke-width:1.6000000000000003;" width="16" x="686.4" y="492.7813"/><rect fill="#FFFFFF" height="50.0656" style="stroke:#181818;stroke-width:1.6000000000000003;" width="16" x="686.4" y="604.1125"/><rect fill="none" height="130.9969" style="stroke:#000000;stroke-width:2.4000000000000004;" width="745.6" x="16" y="374.5844"/><line style="stroke:#181818;stroke-width:0.8000000000000002;stroke-dasharray:5.0,5.0;" x1="212.8" x2="212.8" y1="197.1875" y2="682.9781"/><line style="stroke:#181818;stroke-width:0.8000000000000002;stroke-dasharray:5.0,5.0;" x1="694.4" x2="694.4" y1="197.1875" y2="682.9781"/><text fill="#000000" font-family="sans-serif" font-size="22.4" lengthAdjust="spacing" textLength="352" x="32" y="191.5656">Human Resources Manager (HRM)</text><ellipse cx="212.8" cy="84.9938" fill="#E3E3E3" rx="12.8" ry="12.8" style="stroke:#181818;stroke-width:0.8000000000000002;"/><path d="M212.8,97.7938 L212.8,140.9938 M192,110.5938 L233.6,110.5938 M212.8,140.9938 L192,164.9938 M212.8,140.9938 L233.6,164.9938 " fill="none" style="stroke:#181818;stroke-width:0.8000000000000002;"/><text fill="#000000" font-family="sans-serif" font-size="22.4" lengthAdjust="spacing" textLength="352" x="32" y="705.55">Human Resources Manager (HRM)</text><ellipse cx="212.8" cy="724.7719" fill="#E3E3E3" rx="12.8" ry="12.8" style="stroke:#181818;stroke-width:0.8000000000000002;"/><path d="M212.8,737.5719 L212.8,780.7719 M192,750.3719 L233.6,750.3719 M212.8,780.7719 L192,804.7719 M212.8,780.7719 L233.6,804.7719 " fill="none" style="stroke:#181818;stroke-width:0.8000000000000002;"/><rect fill="#E3E3E3" height="52.1938" rx="4" ry="4" style="stroke:#181818;stroke-width:0.8000000000000002;" width="102.4" x="643.2" y="143.3938"/><text fill="#000000" font-family="sans-serif" font-size="22.4" lengthAdjust="spacing" textLength="80" x="654.4" y="178.7656">:System</text><rect fill="#E3E3E3" height="52.1938" rx="4" ry="4" style="stroke:#181818;stroke-width:0.8000000000000002;" width="102.4" x="643.2" y="681.3781"/><text fill="#000000" font-family="sans-serif" font-size="22.4" lengthAdjust="spacing" textLength="80" x="654.4" y="716.75">:System</text><rect fill="#FFFFFF" height="455.3906" style="stroke:#181818;stroke-width:1.6000000000000003;" width="16" x="204.8" y="213.1875"/><rect fill="#FFFFFF" height="50.0656" style="stroke:#181818;stroke-width:1.6000000000000003;" width="16" x="686.4" y="250.4531"/><rect fill="#FFFFFF" height="92.1313" style="stroke:#181818;stroke-width:1.6000000000000003;" width="16" x="686.4" y="350.5844"/><rect fill="#FFFFFF" height="61.2656" style="stroke:#181818;stroke-width:1.6000000000000003;" width="16" x="686.4" y="492.7813"/><rect fill="#FFFFFF" height="50.0656" style="stroke:#181818;stroke-width:1.6000000000000003;" width="16" x="686.4" y="604.1125"/><polygon fill="#181818" points="667.2,244.0531,683.2,250.4531,667.2,256.8531,673.6,250.4531" style="stroke:#181818;stroke-width:1.6000000000000003;"/><line style="stroke:#181818;stroke-width:1.6000000000000003;" x1="220.8" x2="676.8" y1="250.4531" y2="250.4531"/><text fill="#000000" font-family="sans-serif" font-size="20.8" font-weight="bold" lengthAdjust="spacing" textLength="11.2" x="232" y="242.0328">1</text><text fill="#000000" font-family="sans-serif" font-size="20.8" lengthAdjust="spacing" textLength="240" x="249.6" y="242.0328">asks to create a new task</text><polygon fill="#181818" points="238.4,294.1188,222.4,300.5188,238.4,306.9188,232,300.5188" style="stroke:#181818;stroke-width:1.6000000000000003;"/><line style="stroke:#181818;stroke-width:1.6000000000000003;stroke-dasharray:2.0,2.0;" x1="228.8" x2="692.8" y1="300.5188" y2="300.5188"/><text fill="#000000" font-family="sans-serif" font-size="20.8" font-weight="bold" lengthAdjust="spacing" textLength="11.2" x="248" y="292.0984">2</text><text fill="#000000" font-family="sans-serif" font-size="20.8" lengthAdjust="spacing" textLength="409.6" x="265.6" y="292.0984">requests data (collaborator,skillNumberSize)</text><polygon fill="#181818" points="667.2,344.1844,683.2,350.5844,667.2,356.9844,673.6,350.5844" style="stroke:#181818;stroke-width:1.6000000000000003;"/><line style="stroke:#181818;stroke-width:1.6000000000000003;" x1="220.8" x2="676.8" y1="350.5844" y2="350.5844"/><text fill="#000000" font-family="sans-serif" font-size="20.8" font-weight="bold" lengthAdjust="spacing" textLength="11.2" x="232" y="342.1641">3</text><text fill="#000000" font-family="sans-serif" font-size="20.8" lengthAdjust="spacing" textLength="195.2" x="249.6" y="342.1641">types requested data</text><path d="M16,374.5844 L132.8,374.5844 L132.8,389.45 L116.8,405.45 L16,405.45 L16,374.5844 " fill="#EEEEEE" style="stroke:#000000;stroke-width:2.4000000000000004;"/><rect fill="none" height="130.9969" style="stroke:#000000;stroke-width:2.4000000000000004;" width="745.6" x="16" y="374.5844"/><text fill="#000000" font-family="sans-serif" font-size="20.8" font-weight="bold" lengthAdjust="spacing" textLength="44.8" x="40" y="398.6297">loop</text><text fill="#000000" font-family="sans-serif" font-size="17.6" font-weight="bold" lengthAdjust="spacing" textLength="185.6" x="156.8" y="396.7766">[skillNumberSize &gt; 0]</text><polygon fill="#181818" points="238.4,436.3156,222.4,442.7156,238.4,449.1156,232,442.7156" style="stroke:#181818;stroke-width:1.6000000000000003;"/><line style="stroke:#181818;stroke-width:1.6000000000000003;stroke-dasharray:2.0,2.0;" x1="228.8" x2="692.8" y1="442.7156" y2="442.7156"/><text fill="#000000" font-family="sans-serif" font-size="20.8" font-weight="bold" lengthAdjust="spacing" textLength="11.2" x="248" y="434.2953">4</text><text fill="#000000" font-family="sans-serif" font-size="20.8" lengthAdjust="spacing" textLength="225.6" x="265.6" y="434.2953">request data (skillName)</text><polygon fill="#181818" points="667.2,486.3813,683.2,492.7813,667.2,499.1813,673.6,492.7813" style="stroke:#181818;stroke-width:1.6000000000000003;"/><line style="stroke:#181818;stroke-width:1.6000000000000003;" x1="220.8" x2="676.8" y1="492.7813" y2="492.7813"/><text fill="#000000" font-family="sans-serif" font-size="20.8" font-weight="bold" lengthAdjust="spacing" textLength="11.2" x="232" y="484.3609">5</text><text fill="#000000" font-family="sans-serif" font-size="20.8" lengthAdjust="spacing" textLength="195.2" x="249.6" y="484.3609">types requested data</text><polygon fill="#181818" points="238.4,547.6469,222.4,554.0469,238.4,560.4469,232,554.0469" style="stroke:#181818;stroke-width:1.6000000000000003;"/><line style="stroke:#181818;stroke-width:1.6000000000000003;stroke-dasharray:2.0,2.0;" x1="228.8" x2="692.8" y1="554.0469" y2="554.0469"/><text fill="#000000" font-family="sans-serif" font-size="20.8" font-weight="bold" lengthAdjust="spacing" textLength="11.2" x="248" y="545.6266">6</text><text fill="#000000" font-family="sans-serif" font-size="20.8" lengthAdjust="spacing" textLength="377.6" x="265.6" y="545.6266">shows all data and requests confirmation</text><polygon fill="#181818" points="667.2,597.7125,683.2,604.1125,667.2,610.5125,673.6,604.1125" style="stroke:#181818;stroke-width:1.6000000000000003;"/><line style="stroke:#181818;stroke-width:1.6000000000000003;" x1="220.8" x2="676.8" y1="604.1125" y2="604.1125"/><text fill="#000000" font-family="sans-serif" font-size="20.8" font-weight="bold" lengthAdjust="spacing" textLength="11.2" x="232" y="595.6922">7</text><text fill="#000000" font-family="sans-serif" font-size="20.8" lengthAdjust="spacing" textLength="124.8" x="249.6" y="595.6922">confirms data</text><polygon fill="#181818" points="238.4,647.7781,222.4,654.1781,238.4,660.5781,232,654.1781" style="stroke:#181818;stroke-width:1.6000000000000003;"/><line style="stroke:#181818;stroke-width:1.6000000000000003;stroke-dasharray:2.0,2.0;" x1="228.8" x2="692.8" y1="654.1781" y2="654.1781"/><text fill="#000000" font-family="sans-serif" font-size="20.8" font-weight="bold" lengthAdjust="spacing" textLength="11.2" x="248" y="645.7578">8</text><text fill="#000000" font-family="sans-serif" font-size="20.8" lengthAdjust="spacing" textLength="252.8" x="265.6" y="645.7578">displays operation success</text><!--SRC=[fP8nRy8m48Nt_8ed9f1AnT290QaIGnSw4FK77CuHh3XswhiKqLzVOmAg4BIgwkbaltltlPEbiRwZI2tQu8FPnT0oDFPSoEMb8zDGpQKU72EoKVAr-owG7LLXRtsDBJdXeb2hILeUHBb5oUyzUyDOMggFyd5PBYUOugsSFU5PnDOUPMETayUYe5w3xziDnrGR3H6ZbxubZpLBwADXmOfymeaOlwnNan58a8eYeQWrjYEl6CrFi_FZgSnkzeEKixf0Egd0T77cd2Tn8z004_ce8tZUGzDjLb_wpuOOpj0_JLP7ntdQKKeiAgX82MCJdADDY9JIFCWnw6iEMDfFdcINYc-QN_FfeKln1tUkilrDDBWGEboDmWApNva7v5ChjNVv_eV7lig8F-nGTc4l8ETEH9GwBcirmMzjR4bjy7_Ptz0dzydkyrHMEaS7GUWuvicGtgJlA7S8lW00]--></g></svg>