<?xml version="1.0" encoding="us-ascii" standalone="no"?><svg xmlns="http://www.w3.org/2000/svg" xmlns:xlink="http://www.w3.org/1999/xlink" contentStyleType="text/css" height="1092px" preserveAspectRatio="none" style="width:855px;height:1092px;background:#FFFFFF;" version="1.1" viewBox="0 0 855 1092" width="855px" zoomAndPan="magnify"><defs/><g><text fill="#000000" font-family="sans-serif" font-size="14" font-weight="bold" lengthAdjust="spacing" textLength="127" x="357" y="25.1074">Use Case Diagram</text><!--cluster System--><g id="cluster_System"><rect fill="none" height="829" rx="2.5" ry="2.5" style="stroke:#181818;stroke-width:1.0;" width="518" x="331" y="46.6211"/><text fill="#000000" font-family="sans-serif" font-size="14" font-weight="bold" lengthAdjust="spacing" textLength="50" x="565" y="63.7285">System</text></g><g id="elem_UC01"><ellipse cx="589.8726" cy="127.4956" fill="#F1F1F1" rx="207.3726" ry="43.8745" style="stroke:#181818;stroke-width:0.5;"/><text fill="#000000" font-family="sans-serif" font-size="14" lengthAdjust="spacing" textLength="386" x="396.8726" y="131.2925">UC01: Register skills that may be appointed to a collaborator.</text></g><g id="elem_UC02"><ellipse cx="589.9552" cy="227.5121" fill="#F1F1F1" rx="89.9552" ry="20.391" style="stroke:#181818;stroke-width:0.5;"/><text fill="#000000" font-family="sans-serif" font-size="14" lengthAdjust="spacing" textLength="134" x="519.9552" y="232.3158">UC02: Register a Job</text></g><g id="elem_UC03"><ellipse cx="590.0571" cy="334.6325" fill="#F1F1F1" rx="243.0571" ry="51.0114" style="stroke:#181818;stroke-width:0.5;"/><text fill="#000000" font-family="sans-serif" font-size="14" lengthAdjust="spacing" textLength="459" x="360.5571" y="338.4294">UC03: Register a collaborator with a job and fundamental characteristics.</text></g><g id="elem_UC04"><ellipse cx="590.0149" cy="450.4241" fill="#F1F1F1" rx="134.5149" ry="29.303" style="stroke:#181818;stroke-width:0.5;"/><text fill="#000000" font-family="sans-serif" font-size="14" lengthAdjust="spacing" textLength="234" x="473.0149" y="454.2209">UC04: Assign skills to a collaborator .</text></g><g id="elem_UC05"><ellipse cx="590.2358" cy="551.4683" fill="#F1F1F1" rx="167.2358" ry="35.8472" style="stroke:#181818;stroke-width:0.5;"/><text fill="#000000" font-family="sans-serif" font-size="14" lengthAdjust="spacing" textLength="303" x="438.7358" y="555.2651">UC05: Generate a team proposal automatically .</text></g><g id="elem_UC06"><ellipse cx="589.8085" cy="645.6828" fill="#F1F1F1" rx="100.8085" ry="22.5617" style="stroke:#181818;stroke-width:0.5;"/><text fill="#000000" font-family="sans-serif" font-size="14" lengthAdjust="spacing" textLength="160" x="508.9387" y="649.801">UC06: Register a vehicle.</text></g><g id="elem_UC07"><ellipse cx="590.0149" cy="732.4241" fill="#F1F1F1" rx="134.5149" ry="29.303" style="stroke:#181818;stroke-width:0.5;"/><text fill="#000000" font-family="sans-serif" font-size="14" lengthAdjust="spacing" textLength="234" x="473.0149" y="736.2209">UC07: Register a vehicle&#180;s check-up.</text></g><g id="elem_UC08"><ellipse cx="590.0257" cy="828.4262" fill="#F1F1F1" rx="142.0257" ry="30.8051" style="stroke:#181818;stroke-width:0.5;"/><text fill="#000000" font-family="sans-serif" font-size="14" lengthAdjust="spacing" textLength="250" x="465.0257" y="832.2231">UC08: List vehicles that need check-up.</text></g><!--entity HumanResourcesManager--><g id="elem_HumanResourcesManager"><ellipse cx="146.5" cy="303.6211" fill="#F1F1F1" rx="8" ry="8" style="stroke:#181818;stroke-width:0.5;"/><path d="M146.5,311.6211 L146.5,338.6211 M133.5,319.6211 L159.5,319.6211 M146.5,338.6211 L133.5,353.6211 M146.5,338.6211 L159.5,353.6211 " fill="none" style="stroke:#181818;stroke-width:0.5;"/><text fill="#000000" font-family="sans-serif" font-size="14" lengthAdjust="spacing" textLength="220" x="36.5" y="370.2285">Human Resources Manager (HRM)</text></g><!--entity VehicleAndEquipmentFleetManager--><g id="elem_VehicleAndEquipmentFleetManager"><ellipse cx="146.5" cy="701.6211" fill="#F1F1F1" rx="8" ry="8" style="stroke:#181818;stroke-width:0.5;"/><path d="M146.5,709.6211 L146.5,736.6211 M133.5,717.6211 L159.5,717.6211 M146.5,736.6211 L133.5,751.6211 M146.5,736.6211 L159.5,751.6211 " fill="none" style="stroke:#181818;stroke-width:0.5;"/><text fill="#000000" font-family="sans-serif" font-size="14" lengthAdjust="spacing" textLength="281" x="6" y="768.2285">Vehicle And Equipment FleetManager (VFM)</text></g><!--entity Collaborator--><g id="elem_Collaborator"><ellipse cx="146.5" cy="903.6211" fill="#F1F1F1" rx="8" ry="8" style="stroke:#181818;stroke-width:0.5;"/><path d="M146.5,911.6211 L146.5,938.6211 M133.5,919.6211 L159.5,919.6211 M146.5,938.6211 L133.5,953.6211 M146.5,938.6211 L159.5,953.6211 " fill="none" style="stroke:#181818;stroke-width:0.5;"/><text fill="#000000" font-family="sans-serif" font-size="14" lengthAdjust="spacing" textLength="78" x="107.5" y="970.2285">Collaborator</text></g><!--entity GreenSpacesUser--><g id="elem_GreenSpacesUser"><ellipse cx="146.5" cy="1017.6211" fill="#F1F1F1" rx="8" ry="8" style="stroke:#181818;stroke-width:0.5;"/><path d="M146.5,1025.6211 L146.5,1052.6211 M133.5,1033.6211 L159.5,1033.6211 M146.5,1052.6211 L133.5,1067.6211 M146.5,1052.6211 L159.5,1067.6211 " fill="none" style="stroke:#181818;stroke-width:0.5;"/><text fill="#000000" font-family="sans-serif" font-size="14" lengthAdjust="spacing" textLength="167" x="63" y="1084.2285">Green Spaces User (GSU)</text></g><!--entity GreenSpacesManager--><g id="elem_GreenSpacesManager"><ellipse cx="590" cy="903.6211" fill="#F1F1F1" rx="8" ry="8" style="stroke:#181818;stroke-width:0.5;"/><path d="M590,911.6211 L590,938.6211 M577,919.6211 L603,919.6211 M590,938.6211 L577,953.6211 M590,938.6211 L603,953.6211 " fill="none" style="stroke:#181818;stroke-width:0.5;"/><text fill="#000000" font-family="sans-serif" font-size="14" lengthAdjust="spacing" textLength="196" x="492" y="970.2285">Green Spaces Manager (GSM)</text></g><!--link HumanResourcesManager to UC01--><g id="link_HumanResourcesManager_UC01"><path d="M184.86,294.8211 C218.07,261.7911 269.52,216.1011 323,189.6211 C354.02,174.2611 383.17,164.1191 417.3,155.3191 " fill="none" id="HumanResourcesManager-to-UC01" style="stroke:#181818;stroke-width:1.0;"/><polygon fill="#181818" points="423.11,153.8211,413.3963,152.1948,418.2683,155.0695,415.3937,159.9415,423.11,153.8211" style="stroke:#181818;stroke-width:1.0;"/></g><!--link HumanResourcesManager to UC02--><g id="link_HumanResourcesManager_UC02"><path d="M236.34,295.0611 C263.69,284.1511 294.2,273.2311 323,265.6211 C382.87,249.8011 446.2134,240.8033 499.0634,235.2033 " fill="none" id="HumanResourcesManager-to-UC02" style="stroke:#181818;stroke-width:1.0;"/><polygon fill="#181818" points="505.03,234.5711,495.6586,231.5417,500.0578,235.0979,496.5016,239.4972,505.03,234.5711" style="stroke:#181818;stroke-width:1.0;"/></g><!--link HumanResourcesManager to UC03--><g id="link_HumanResourcesManager_UC03"><path d="M256.63,334.6211 C284.34,334.6211 309.23,334.6211 340.71,334.6211 " fill="none" id="HumanResourcesManager-to-UC03" style="stroke:#181818;stroke-width:1.0;"/><polygon fill="#181818" points="346.71,334.6211,337.71,330.6211,341.71,334.6211,337.71,338.6211,346.71,334.6211" style="stroke:#181818;stroke-width:1.0;"/></g><!--link HumanResourcesManager to UC04--><g id="link_HumanResourcesManager_UC04"><path d="M239.73,374.1611 C266.26,384.4911 295.48,394.8811 323,402.6211 C372.35,416.5011 422.1087,426.3023 469.7187,434.0923 " fill="none" id="HumanResourcesManager-to-UC04" style="stroke:#181818;stroke-width:1.0;"/><polygon fill="#181818" points="475.64,435.0611,467.404,429.6603,470.7056,434.2537,466.1122,437.5553,475.64,435.0611" style="stroke:#181818;stroke-width:1.0;"/></g><!--link HumanResourcesManager to UC05--><g id="link_HumanResourcesManager_UC05"><path d="M178.97,374.4411 C211.06,412.2011 264.37,467.5111 323,497.6211 C358.63,515.9211 394.0508,526.8234 433.3208,534.8234 " fill="none" id="HumanResourcesManager-to-UC05" style="stroke:#181818;stroke-width:1.0;"/><polygon fill="#181818" points="439.2,536.0211,431.1796,530.305,434.3006,535.023,429.5827,538.144,439.2,536.0211" style="stroke:#181818;stroke-width:1.0;"/></g><!--link VehicleAndEquipmentFleetManager to UC06--><g id="link_VehicleAndEquipmentFleetManager_UC06"><path d="M287.02,693.7411 C299.15,690.8211 311.27,688.0711 323,685.6211 C381.98,673.3311 443.113,664.0665 495.153,657.1065 " fill="none" id="VehicleAndEquipmentFleetManager-to-UC06" style="stroke:#181818;stroke-width:1.0;"/><polygon fill="#181818" points="501.1,656.3111,491.6492,653.5395,496.1441,656.9739,492.7097,661.4689,501.1,656.3111" style="stroke:#181818;stroke-width:1.0;"/></g><!--link VehicleAndEquipmentFleetManager to UC07--><g id="link_VehicleAndEquipmentFleetManager_UC07"><path d="M287.19,732.6211 C341,732.6211 396.27,732.6211 449.49,732.6211 " fill="none" id="VehicleAndEquipmentFleetManager-to-UC07" style="stroke:#181818;stroke-width:1.0;"/><polygon fill="#181818" points="455.49,732.6211,446.49,728.6211,450.49,732.6211,446.49,736.6211,455.49,732.6211" style="stroke:#181818;stroke-width:1.0;"/></g><!--link VehicleAndEquipmentFleetManager to UC08--><g id="link_VehicleAndEquipmentFleetManager_UC08"><path d="M287.11,771.0811 C299.22,774.0911 311.31,776.9811 323,779.6211 C373.04,790.9111 422.9121,800.4438 470.4121,808.8638 " fill="none" id="VehicleAndEquipmentFleetManager-to-UC08" style="stroke:#181818;stroke-width:1.0;"/><polygon fill="#181818" points="476.32,809.9111,468.1563,804.4016,471.3968,809.0384,466.76,812.2788,476.32,809.9111" style="stroke:#181818;stroke-width:1.0;"/></g><!--SRC=[bPFDZjCm4CVlVefHBmk78kYtUa1Q5ROhH2yRTUzJPvgOEdQm7LOLugru0fwCITgwMR8esaY9bCpVl_zyvSOVb2dHOG65DLRcpXO4mLKahf4IvG4pIi9H4pYI0KscITnS5Jx7r3ufay4UjISXWWgitNg25VBZayACTK9esWS85fpAyW2fgcdA6Y60BvJ1EXZSLmKQU21lAoV9mmODkpjuS_-mUJi0zD0eek0SRoCUALUI4xWrANp-Ngco81FWJXE5I7kyEzFEOjP6QLlPugwirhYp3lcbRRTsH0OIxXEdoqKpVPriJ_GcTWhLaVyUYtcjaqtdv2KL4RiFoT47Ak1d0wmyoRhFW-tg_OSbzovJ77N04zBQGyWnG857s15WMLfb0gNr611agwHtZMsDQA0lTXc6muzNITjtrF95-69t5zgedpRgqCRFQEqiuKc5dBzzipj0dk- -CYdMGqCDCkTrb7o63ohfOq7Z_XJ6dHGcIxZrNcKcjl7VXa4qcFGRJ3e6qoMioH2ZU2mGgFxLd2sjvqgm2hP0BWArFbvzflq-quxFx5alVvpMFI9dZRxd9xZ0Pntu_2Nudz-UPq7oCApAQ3H_ZT6yOxHOmbUskLYSjzeGRtB7Ql4QguKGuXVVVm40]--></g></svg>