<?xml version="1.0" encoding="us-ascii" standalone="no"?><svg xmlns="http://www.w3.org/2000/svg" xmlns:xlink="http://www.w3.org/1999/xlink" contentStyleType="text/css" height="673px" preserveAspectRatio="none" style="width:1681px;height:673px;background:#FFFFFF;" version="1.1" viewBox="0 0 1681 673" width="1681px" zoomAndPan="magnify"><defs/><g><!--class Collaborator--><g id="elem_Collaborator"><rect codeLine="12" fill="#F1F1F1" height="252.832" id="Collaborator" rx="2.5" ry="2.5" style="stroke:#181818;stroke-width:0.5;" width="653" x="819.5" y="7"/><ellipse cx="1102.75" cy="23" fill="#ADD1B2" rx="11" ry="11" style="stroke:#181818;stroke-width:1.0;"/><path d="M1105.5156,18.875 Q1105.6719,18.6563 1105.8594,18.5469 Q1106.0469,18.4375 1106.2656,18.4375 Q1106.6406,18.4375 1106.875,18.7031 Q1107.1094,18.9531 1107.1094,19.5625 L1107.1094,21.0156 Q1107.1094,21.625 1106.875,21.8906 Q1106.6406,22.1563 1106.2656,22.1563 Q1105.9219,22.1563 1105.7188,21.9531 Q1105.5156,21.7656 1105.4063,21.25 Q1105.3594,20.8906 1105.1719,20.7031 Q1104.8438,20.3281 1104.2344,20.1094 Q1103.625,19.8906 1103,19.8906 Q1102.2344,19.8906 1101.5938,20.2188 Q1100.9688,20.5469 1100.4688,21.2969 Q1099.9844,22.0469 1099.9844,23.0781 L1099.9844,24.1719 Q1099.9844,25.4063 1100.875,26.2344 Q1101.7656,27.0469 1103.3594,27.0469 Q1104.2969,27.0469 1104.9531,26.7969 Q1105.3438,26.6406 1105.7656,26.2031 Q1106.0313,25.9375 1106.1719,25.8594 Q1106.3281,25.7813 1106.5313,25.7813 Q1106.8594,25.7813 1107.1094,26.0469 Q1107.375,26.2969 1107.375,26.6406 Q1107.375,26.9844 1107.0313,27.3906 Q1106.5313,27.9688 1105.7344,28.2969 Q1104.6563,28.75 1103.3594,28.75 Q1101.8438,28.75 1100.6406,28.125 Q1099.6563,27.625 1098.9688,26.5625 Q1098.2813,25.4844 1098.2813,24.2031 L1098.2813,23.0469 Q1098.2813,21.7188 1098.8906,20.5781 Q1099.5156,19.4219 1100.6094,18.8125 Q1101.7031,18.1875 1102.9375,18.1875 Q1103.6719,18.1875 1104.3125,18.3594 Q1104.9688,18.5156 1105.5156,18.875 Z " fill="#000000"/><text fill="#000000" font-family="sans-serif" font-size="14" lengthAdjust="spacing" textLength="78" x="1123.25" y="28.7969">Collaborator</text><line style="stroke:#181818;stroke-width:0.5;" x1="820.5" x2="1471.5" y1="39" y2="39"/><text fill="#000000" font-family="sans-serif" font-size="14" lengthAdjust="spacing" textLength="81" x="825.5" y="58.1074">-String name</text><text fill="#000000" font-family="sans-serif" font-size="14" lengthAdjust="spacing" textLength="117" x="825.5" y="76.7285">-List&lt;Skill&gt; skillList</text><text fill="#000000" font-family="sans-serif" font-size="14" lengthAdjust="spacing" textLength="50" x="825.5" y="95.3496">-Job job</text><text fill="#000000" font-family="sans-serif" font-size="14" lengthAdjust="spacing" textLength="111" x="825.5" y="113.9707">-Date dateOfBirth</text><text fill="#000000" font-family="sans-serif" font-size="14" lengthAdjust="spacing" textLength="132" x="825.5" y="132.5918">-Date admissionDate</text><text fill="#000000" font-family="sans-serif" font-size="14" lengthAdjust="spacing" textLength="112" x="825.5" y="151.2129">-Address address</text><text fill="#000000" font-family="sans-serif" font-size="14" lengthAdjust="spacing" textLength="135" x="825.5" y="169.834">-Document document</text><text fill="#000000" font-family="sans-serif" font-size="14" lengthAdjust="spacing" textLength="135" x="825.5" y="188.4551">-String phoneNumber</text><text fill="#000000" font-family="sans-serif" font-size="14" lengthAdjust="spacing" textLength="79" x="825.5" y="207.0762">-String email</text><text fill="#000000" font-family="sans-serif" font-size="14" lengthAdjust="spacing" textLength="78" x="825.5" y="225.6973">-int taxpayer</text><line style="stroke:#181818;stroke-width:0.5;" x1="820.5" x2="1471.5" y1="233.2109" y2="233.2109"/><text fill="#000000" font-family="sans-serif" font-size="14" lengthAdjust="spacing" textLength="641" x="825.5" y="252.3184">+Collaborator(name, dateOfBirth, admissionDate, address, document, phoneNumber, email, taxpayer)</text></g><!--class VehicleFleetManager--><g id="elem_VehicleFleetManager"><rect codeLine="27" fill="#F1F1F1" height="48" id="VehicleFleetManager" rx="2.5" ry="2.5" style="stroke:#181818;stroke-width:0.5;" width="166" x="1508" y="109.5"/><ellipse cx="1523" cy="125.5" fill="#ADD1B2" rx="11" ry="11" style="stroke:#181818;stroke-width:1.0;"/><path d="M1525.7656,121.375 Q1525.9219,121.1563 1526.1094,121.0469 Q1526.2969,120.9375 1526.5156,120.9375 Q1526.8906,120.9375 1527.125,121.2031 Q1527.3594,121.4531 1527.3594,122.0625 L1527.3594,123.5156 Q1527.3594,124.125 1527.125,124.3906 Q1526.8906,124.6563 1526.5156,124.6563 Q1526.1719,124.6563 1525.9688,124.4531 Q1525.7656,124.2656 1525.6563,123.75 Q1525.6094,123.3906 1525.4219,123.2031 Q1525.0938,122.8281 1524.4844,122.6094 Q1523.875,122.3906 1523.25,122.3906 Q1522.4844,122.3906 1521.8438,122.7188 Q1521.2188,123.0469 1520.7188,123.7969 Q1520.2344,124.5469 1520.2344,125.5781 L1520.2344,126.6719 Q1520.2344,127.9063 1521.125,128.7344 Q1522.0156,129.5469 1523.6094,129.5469 Q1524.5469,129.5469 1525.2031,129.2969 Q1525.5938,129.1406 1526.0156,128.7031 Q1526.2813,128.4375 1526.4219,128.3594 Q1526.5781,128.2813 1526.7813,128.2813 Q1527.1094,128.2813 1527.3594,128.5469 Q1527.625,128.7969 1527.625,129.1406 Q1527.625,129.4844 1527.2813,129.8906 Q1526.7813,130.4688 1525.9844,130.7969 Q1524.9063,131.25 1523.6094,131.25 Q1522.0938,131.25 1520.8906,130.625 Q1519.9063,130.125 1519.2188,129.0625 Q1518.5313,127.9844 1518.5313,126.7031 L1518.5313,125.5469 Q1518.5313,124.2188 1519.1406,123.0781 Q1519.7656,121.9219 1520.8594,121.3125 Q1521.9531,120.6875 1523.1875,120.6875 Q1523.9219,120.6875 1524.5625,120.8594 Q1525.2188,121.0156 1525.7656,121.375 Z " fill="#000000"/><text fill="#000000" font-family="sans-serif" font-size="14" lengthAdjust="spacing" textLength="134" x="1537" y="131.2969">VehicleFleetManager</text><line style="stroke:#181818;stroke-width:0.5;" x1="1509" x2="1673" y1="141.5" y2="141.5"/><line style="stroke:#181818;stroke-width:0.5;" x1="1509" x2="1673" y1="149.5" y2="149.5"/></g><!--class Vehicle--><g id="elem_Vehicle"><rect codeLine="30" fill="#F1F1F1" height="327.3164" id="Vehicle" rx="2.5" ry="2.5" style="stroke:#181818;stroke-width:0.5;" width="755" x="521.5" y="339"/><ellipse cx="871.75" cy="355" fill="#ADD1B2" rx="11" ry="11" style="stroke:#181818;stroke-width:1.0;"/><path d="M874.5156,350.875 Q874.6719,350.6563 874.8594,350.5469 Q875.0469,350.4375 875.2656,350.4375 Q875.6406,350.4375 875.875,350.7031 Q876.1094,350.9531 876.1094,351.5625 L876.1094,353.0156 Q876.1094,353.625 875.875,353.8906 Q875.6406,354.1563 875.2656,354.1563 Q874.9219,354.1563 874.7188,353.9531 Q874.5156,353.7656 874.4063,353.25 Q874.3594,352.8906 874.1719,352.7031 Q873.8438,352.3281 873.2344,352.1094 Q872.625,351.8906 872,351.8906 Q871.2344,351.8906 870.5938,352.2188 Q869.9688,352.5469 869.4688,353.2969 Q868.9844,354.0469 868.9844,355.0781 L868.9844,356.1719 Q868.9844,357.4063 869.875,358.2344 Q870.7656,359.0469 872.3594,359.0469 Q873.2969,359.0469 873.9531,358.7969 Q874.3438,358.6406 874.7656,358.2031 Q875.0313,357.9375 875.1719,357.8594 Q875.3281,357.7813 875.5313,357.7813 Q875.8594,357.7813 876.1094,358.0469 Q876.375,358.2969 876.375,358.6406 Q876.375,358.9844 876.0313,359.3906 Q875.5313,359.9688 874.7344,360.2969 Q873.6563,360.75 872.3594,360.75 Q870.8438,360.75 869.6406,360.125 Q868.6563,359.625 867.9688,358.5625 Q867.2813,357.4844 867.2813,356.2031 L867.2813,355.0469 Q867.2813,353.7188 867.8906,352.5781 Q868.5156,351.4219 869.6094,350.8125 Q870.7031,350.1875 871.9375,350.1875 Q872.6719,350.1875 873.3125,350.3594 Q873.9688,350.5156 874.5156,350.875 Z " fill="#000000"/><text fill="#000000" font-family="sans-serif" font-size="14" lengthAdjust="spacing" textLength="46" x="892.25" y="360.7969">Vehicle</text><line style="stroke:#181818;stroke-width:0.5;" x1="522.5" x2="1275.5" y1="371" y2="371"/><text fill="#000000" font-family="sans-serif" font-size="14" lengthAdjust="spacing" textLength="191" x="527.5" y="390.1074">-List &lt;CheckUp&gt; checkUpsList</text><text fill="#000000" font-family="sans-serif" font-size="14" lengthAdjust="spacing" textLength="84" x="527.5" y="408.7285">-Brand brand</text><text fill="#000000" font-family="sans-serif" font-size="14" lengthAdjust="spacing" textLength="85" x="527.5" y="427.3496">-Model model</text><text fill="#000000" font-family="sans-serif" font-size="14" lengthAdjust="spacing" textLength="73" x="527.5" y="445.9707">-String type</text><text fill="#000000" font-family="sans-serif" font-size="14" lengthAdjust="spacing" textLength="61" x="527.5" y="464.5918">-float tare</text><text fill="#000000" font-family="sans-serif" font-size="14" lengthAdjust="spacing" textLength="115" x="527.5" y="483.2129">-float grossWeight</text><text fill="#000000" font-family="sans-serif" font-size="14" lengthAdjust="spacing" textLength="89" x="527.5" y="501.834">-int currentKm</text><text fill="#000000" font-family="sans-serif" font-size="14" lengthAdjust="spacing" textLength="117" x="527.5" y="520.4551">-Date registerDate</text><text fill="#000000" font-family="sans-serif" font-size="14" lengthAdjust="spacing" textLength="136" x="527.5" y="539.0762">-Date acquisitionDate</text><text fill="#000000" font-family="sans-serif" font-size="14" lengthAdjust="spacing" textLength="145" x="527.5" y="557.6973">-int checkupFrequency</text><text fill="#000000" font-family="sans-serif" font-size="14" lengthAdjust="spacing" textLength="122" x="527.5" y="576.3184">-String licensePlate</text><line style="stroke:#181818;stroke-width:0.5;" x1="522.5" x2="1275.5" y1="583.832" y2="583.832"/><text fill="#000000" font-family="sans-serif" font-size="14" lengthAdjust="spacing" textLength="743" x="527.5" y="602.9395">+Vehicle(brand,model,type,tare,grossWeight,currentKm,registerDate,acquisitionDate,checkupFrequency,licensePlate)</text><text fill="#000000" font-family="sans-serif" font-size="14" lengthAdjust="spacing" textLength="246" x="527.5" y="621.5605">+registerCheckUpByVehicle(date, kms)</text><text fill="#000000" font-family="sans-serif" font-size="14" lengthAdjust="spacing" textLength="150" x="527.5" y="640.1816">-addCheckUp(checkUp)</text><text fill="#000000" font-family="sans-serif" font-size="14" lengthAdjust="spacing" textLength="129" x="527.5" y="658.8027">-validation(checkUp)</text></g><!--class CheckUp--><g id="elem_CheckUp"><rect codeLine="49" fill="#F1F1F1" height="141.1055" id="CheckUp" rx="2.5" ry="2.5" style="stroke:#181818;stroke-width:0.5;" width="145" x="1371.5" y="432"/><ellipse cx="1411.7" cy="448" fill="#ADD1B2" rx="11" ry="11" style="stroke:#181818;stroke-width:1.0;"/><path d="M1414.4656,443.875 Q1414.6219,443.6563 1414.8094,443.5469 Q1414.9969,443.4375 1415.2156,443.4375 Q1415.5906,443.4375 1415.825,443.7031 Q1416.0594,443.9531 1416.0594,444.5625 L1416.0594,446.0156 Q1416.0594,446.625 1415.825,446.8906 Q1415.5906,447.1563 1415.2156,447.1563 Q1414.8719,447.1563 1414.6688,446.9531 Q1414.4656,446.7656 1414.3563,446.25 Q1414.3094,445.8906 1414.1219,445.7031 Q1413.7938,445.3281 1413.1844,445.1094 Q1412.575,444.8906 1411.95,444.8906 Q1411.1844,444.8906 1410.5438,445.2188 Q1409.9188,445.5469 1409.4188,446.2969 Q1408.9344,447.0469 1408.9344,448.0781 L1408.9344,449.1719 Q1408.9344,450.4063 1409.825,451.2344 Q1410.7156,452.0469 1412.3094,452.0469 Q1413.2469,452.0469 1413.9031,451.7969 Q1414.2938,451.6406 1414.7156,451.2031 Q1414.9813,450.9375 1415.1219,450.8594 Q1415.2781,450.7813 1415.4813,450.7813 Q1415.8094,450.7813 1416.0594,451.0469 Q1416.325,451.2969 1416.325,451.6406 Q1416.325,451.9844 1415.9813,452.3906 Q1415.4813,452.9688 1414.6844,453.2969 Q1413.6063,453.75 1412.3094,453.75 Q1410.7938,453.75 1409.5906,453.125 Q1408.6063,452.625 1407.9188,451.5625 Q1407.2313,450.4844 1407.2313,449.2031 L1407.2313,448.0469 Q1407.2313,446.7188 1407.8406,445.5781 Q1408.4656,444.4219 1409.5594,443.8125 Q1410.6531,443.1875 1411.8875,443.1875 Q1412.6219,443.1875 1413.2625,443.3594 Q1413.9188,443.5156 1414.4656,443.875 Z " fill="#000000"/><text fill="#000000" font-family="sans-serif" font-size="14" lengthAdjust="spacing" textLength="57" x="1431.3" y="453.7969">CheckUp</text><line style="stroke:#181818;stroke-width:0.5;" x1="1372.5" x2="1515.5" y1="464" y2="464"/><text fill="#000000" font-family="sans-serif" font-size="14" lengthAdjust="spacing" textLength="122" x="1377.5" y="483.1074">-String licensePlate</text><text fill="#000000" font-family="sans-serif" font-size="14" lengthAdjust="spacing" textLength="67" x="1377.5" y="501.7285">-Date date</text><text fill="#000000" font-family="sans-serif" font-size="14" lengthAdjust="spacing" textLength="49" x="1377.5" y="520.3496">-int kms</text><line style="stroke:#181818;stroke-width:0.5;" x1="1372.5" x2="1515.5" y1="527.8633" y2="527.8633"/><text fill="#000000" font-family="sans-serif" font-size="14" lengthAdjust="spacing" textLength="133" x="1377.5" y="546.9707">+checkUp(date, kms)</text><text fill="#000000" font-family="sans-serif" font-size="14" lengthAdjust="spacing" textLength="129" x="1377.5" y="565.5918">-validation(checkUp)</text></g><!--class VehicleRepository--><g id="elem_VehicleRepository"><rect codeLine="58" fill="#F1F1F1" height="85.2422" id="VehicleRepository" rx="2.5" ry="2.5" style="stroke:#181818;stroke-width:0.5;" width="220" x="226" y="460"/><ellipse cx="274.75" cy="476" fill="#ADD1B2" rx="11" ry="11" style="stroke:#181818;stroke-width:1.0;"/><path d="M277.5156,471.875 Q277.6719,471.6563 277.8594,471.5469 Q278.0469,471.4375 278.2656,471.4375 Q278.6406,471.4375 278.875,471.7031 Q279.1094,471.9531 279.1094,472.5625 L279.1094,474.0156 Q279.1094,474.625 278.875,474.8906 Q278.6406,475.1563 278.2656,475.1563 Q277.9219,475.1563 277.7188,474.9531 Q277.5156,474.7656 277.4063,474.25 Q277.3594,473.8906 277.1719,473.7031 Q276.8438,473.3281 276.2344,473.1094 Q275.625,472.8906 275,472.8906 Q274.2344,472.8906 273.5938,473.2188 Q272.9688,473.5469 272.4688,474.2969 Q271.9844,475.0469 271.9844,476.0781 L271.9844,477.1719 Q271.9844,478.4063 272.875,479.2344 Q273.7656,480.0469 275.3594,480.0469 Q276.2969,480.0469 276.9531,479.7969 Q277.3438,479.6406 277.7656,479.2031 Q278.0313,478.9375 278.1719,478.8594 Q278.3281,478.7813 278.5313,478.7813 Q278.8594,478.7813 279.1094,479.0469 Q279.375,479.2969 279.375,479.6406 Q279.375,479.9844 279.0313,480.3906 Q278.5313,480.9688 277.7344,481.2969 Q276.6563,481.75 275.3594,481.75 Q273.8438,481.75 272.6406,481.125 Q271.6563,480.625 270.9688,479.5625 Q270.2813,478.4844 270.2813,477.2031 L270.2813,476.0469 Q270.2813,474.7188 270.8906,473.5781 Q271.5156,472.4219 272.6094,471.8125 Q273.7031,471.1875 274.9375,471.1875 Q275.6719,471.1875 276.3125,471.3594 Q276.9688,471.5156 277.5156,471.875 Z " fill="#000000"/><text fill="#000000" font-family="sans-serif" font-size="14" lengthAdjust="spacing" textLength="114" x="295.25" y="481.7969">VehicleRepository</text><line style="stroke:#181818;stroke-width:0.5;" x1="227" x2="445" y1="492" y2="492"/><text fill="#000000" font-family="sans-serif" font-size="14" lengthAdjust="spacing" textLength="163" x="232" y="511.1074">-List &lt;Vehicle&gt; vehicleList</text><line style="stroke:#181818;stroke-width:0.5;" x1="227" x2="445" y1="518.6211" y2="518.6211"/><text fill="#000000" font-family="sans-serif" font-size="14" lengthAdjust="spacing" textLength="208" x="232" y="537.7285">+getVehicleByPlate(licensePlate)</text></g><!--class Repositories--><g id="elem_Repositories"><rect codeLine="63" fill="#F1F1F1" height="103.8633" id="Repositories" rx="2.5" ry="2.5" style="stroke:#181818;stroke-width:0.5;" width="194" x="511" y="81.5"/><ellipse cx="564.25" cy="97.5" fill="#ADD1B2" rx="11" ry="11" style="stroke:#181818;stroke-width:1.0;"/><path d="M567.0156,93.375 Q567.1719,93.1563 567.3594,93.0469 Q567.5469,92.9375 567.7656,92.9375 Q568.1406,92.9375 568.375,93.2031 Q568.6094,93.4531 568.6094,94.0625 L568.6094,95.5156 Q568.6094,96.125 568.375,96.3906 Q568.1406,96.6563 567.7656,96.6563 Q567.4219,96.6563 567.2188,96.4531 Q567.0156,96.2656 566.9063,95.75 Q566.8594,95.3906 566.6719,95.2031 Q566.3438,94.8281 565.7344,94.6094 Q565.125,94.3906 564.5,94.3906 Q563.7344,94.3906 563.0938,94.7188 Q562.4688,95.0469 561.9688,95.7969 Q561.4844,96.5469 561.4844,97.5781 L561.4844,98.6719 Q561.4844,99.9063 562.375,100.7344 Q563.2656,101.5469 564.8594,101.5469 Q565.7969,101.5469 566.4531,101.2969 Q566.8438,101.1406 567.2656,100.7031 Q567.5313,100.4375 567.6719,100.3594 Q567.8281,100.2813 568.0313,100.2813 Q568.3594,100.2813 568.6094,100.5469 Q568.875,100.7969 568.875,101.1406 Q568.875,101.4844 568.5313,101.8906 Q568.0313,102.4688 567.2344,102.7969 Q566.1563,103.25 564.8594,103.25 Q563.3438,103.25 562.1406,102.625 Q561.1563,102.125 560.4688,101.0625 Q559.7813,99.9844 559.7813,98.7031 L559.7813,97.5469 Q559.7813,96.2188 560.3906,95.0781 Q561.0156,93.9219 562.1094,93.3125 Q563.2031,92.6875 564.4375,92.6875 Q565.1719,92.6875 565.8125,92.8594 Q566.4688,93.0156 567.0156,93.375 Z " fill="#000000"/><text fill="#000000" font-family="sans-serif" font-size="14" lengthAdjust="spacing" textLength="79" x="584.75" y="103.2969">Repositories</text><line style="stroke:#181818;stroke-width:0.5;" x1="512" x2="704" y1="113.5" y2="113.5"/><line style="stroke:#181818;stroke-width:0.5;" x1="512" x2="704" y1="121.5" y2="121.5"/><text fill="#000000" font-family="sans-serif" font-size="14" lengthAdjust="spacing" textLength="94" x="517" y="140.6074">-Repositories()</text><text fill="#000000" font-family="sans-serif" font-size="14" lengthAdjust="spacing" textLength="182" x="517" y="159.2285">+getInstance() : Repositories</text><text fill="#000000" font-family="sans-serif" font-size="14" lengthAdjust="spacing" textLength="152" x="517" y="177.8496">+getVehicleRepository()</text></g><!--class RegisterCheckUpController--><g id="elem_RegisterCheckUpController"><rect codeLine="69" fill="#F1F1F1" height="85.2422" id="RegisterCheckUpController" rx="2.5" ry="2.5" style="stroke:#181818;stroke-width:0.5;" width="280" x="196" y="91"/><ellipse cx="245.75" cy="107" fill="#ADD1B2" rx="11" ry="11" style="stroke:#181818;stroke-width:1.0;"/><path d="M248.5156,102.875 Q248.6719,102.6563 248.8594,102.5469 Q249.0469,102.4375 249.2656,102.4375 Q249.6406,102.4375 249.875,102.7031 Q250.1094,102.9531 250.1094,103.5625 L250.1094,105.0156 Q250.1094,105.625 249.875,105.8906 Q249.6406,106.1563 249.2656,106.1563 Q248.9219,106.1563 248.7188,105.9531 Q248.5156,105.7656 248.4063,105.25 Q248.3594,104.8906 248.1719,104.7031 Q247.8438,104.3281 247.2344,104.1094 Q246.625,103.8906 246,103.8906 Q245.2344,103.8906 244.5938,104.2188 Q243.9688,104.5469 243.4688,105.2969 Q242.9844,106.0469 242.9844,107.0781 L242.9844,108.1719 Q242.9844,109.4063 243.875,110.2344 Q244.7656,111.0469 246.3594,111.0469 Q247.2969,111.0469 247.9531,110.7969 Q248.3438,110.6406 248.7656,110.2031 Q249.0313,109.9375 249.1719,109.8594 Q249.3281,109.7813 249.5313,109.7813 Q249.8594,109.7813 250.1094,110.0469 Q250.375,110.2969 250.375,110.6406 Q250.375,110.9844 250.0313,111.3906 Q249.5313,111.9688 248.7344,112.2969 Q247.6563,112.75 246.3594,112.75 Q244.8438,112.75 243.6406,112.125 Q242.6563,111.625 241.9688,110.5625 Q241.2813,109.4844 241.2813,108.2031 L241.2813,107.0469 Q241.2813,105.7188 241.8906,104.5781 Q242.5156,103.4219 243.6094,102.8125 Q244.7031,102.1875 245.9375,102.1875 Q246.6719,102.1875 247.3125,102.3594 Q247.9688,102.5156 248.5156,102.875 Z " fill="#000000"/><text fill="#000000" font-family="sans-serif" font-size="14" lengthAdjust="spacing" textLength="172" x="266.25" y="112.7969">RegisterCheckUpController</text><line style="stroke:#181818;stroke-width:0.5;" x1="197" x2="475" y1="123" y2="123"/><line style="stroke:#181818;stroke-width:0.5;" x1="197" x2="475" y1="131" y2="131"/><text fill="#000000" font-family="sans-serif" font-size="14" lengthAdjust="spacing" textLength="190" x="202" y="150.1074">+RegisterCheckUpController()</text><text fill="#000000" font-family="sans-serif" font-size="14" lengthAdjust="spacing" textLength="268" x="202" y="168.7285">+registerCheckUp(licensePlate, date, kms)</text></g><!--class RegisterCheckUpUI--><g id="elem_RegisterCheckUpUI"><rect codeLine="74" fill="#F1F1F1" height="48" id="RegisterCheckUpUI" rx="2.5" ry="2.5" style="stroke:#181818;stroke-width:0.5;" width="154" x="7" y="109.5"/><ellipse cx="22" cy="125.5" fill="#ADD1B2" rx="11" ry="11" style="stroke:#181818;stroke-width:1.0;"/><path d="M24.7656,121.375 Q24.9219,121.1563 25.1094,121.0469 Q25.2969,120.9375 25.5156,120.9375 Q25.8906,120.9375 26.125,121.2031 Q26.3594,121.4531 26.3594,122.0625 L26.3594,123.5156 Q26.3594,124.125 26.125,124.3906 Q25.8906,124.6563 25.5156,124.6563 Q25.1719,124.6563 24.9688,124.4531 Q24.7656,124.2656 24.6563,123.75 Q24.6094,123.3906 24.4219,123.2031 Q24.0938,122.8281 23.4844,122.6094 Q22.875,122.3906 22.25,122.3906 Q21.4844,122.3906 20.8438,122.7188 Q20.2188,123.0469 19.7188,123.7969 Q19.2344,124.5469 19.2344,125.5781 L19.2344,126.6719 Q19.2344,127.9063 20.125,128.7344 Q21.0156,129.5469 22.6094,129.5469 Q23.5469,129.5469 24.2031,129.2969 Q24.5938,129.1406 25.0156,128.7031 Q25.2813,128.4375 25.4219,128.3594 Q25.5781,128.2813 25.7813,128.2813 Q26.1094,128.2813 26.3594,128.5469 Q26.625,128.7969 26.625,129.1406 Q26.625,129.4844 26.2813,129.8906 Q25.7813,130.4688 24.9844,130.7969 Q23.9063,131.25 22.6094,131.25 Q21.0938,131.25 19.8906,130.625 Q18.9063,130.125 18.2188,129.0625 Q17.5313,127.9844 17.5313,126.7031 L17.5313,125.5469 Q17.5313,124.2188 18.1406,123.0781 Q18.7656,121.9219 19.8594,121.3125 Q20.9531,120.6875 22.1875,120.6875 Q22.9219,120.6875 23.5625,120.8594 Q24.2188,121.0156 24.7656,121.375 Z " fill="#000000"/><text fill="#000000" font-family="sans-serif" font-size="14" lengthAdjust="spacing" textLength="122" x="36" y="131.2969">RegisterCheckUpUI</text><line style="stroke:#181818;stroke-width:0.5;" x1="8" x2="160" y1="141.5" y2="141.5"/><line style="stroke:#181818;stroke-width:0.5;" x1="8" x2="160" y1="149.5" y2="149.5"/></g><!--reverse link Collaborator to VehicleFleetManager--><g id="link_Collaborator_VehicleFleetManager"><path codeLine="77" d="M1490.68,133.5 C1501.1,133.5 1495.33,133.5 1507.92,133.5 " fill="none" id="Collaborator-backto-VehicleFleetManager" style="stroke:#181818;stroke-width:1.0;"/><polygon fill="none" points="1472.68,133.5,1490.68,139.5,1490.68,127.5,1472.68,133.5" style="stroke:#181818;stroke-width:1.0;"/></g><!--link RegisterCheckUpUI to RegisterCheckUpController--><g id="link_RegisterCheckUpUI_RegisterCheckUpController"><path codeLine="79" d="M161.13,133.5 C165.4,133.5 168,133.5 168,133.5 C168,133.5 174.56,133.5 189.97,133.5 " fill="none" id="RegisterCheckUpUI-to-RegisterCheckUpController" style="stroke:#181818;stroke-width:1.0;stroke-dasharray:7.0,7.0;"/><polygon fill="#181818" points="195.97,133.5,186.97,129.5,190.97,133.5,186.97,137.5,195.97,133.5" style="stroke:#181818;stroke-width:1.0;"/></g><!--link RegisterCheckUpController to Repositories--><g id="link_RegisterCheckUpController_Repositories"><path codeLine="81" d="M476.24,133.5 C489.97,133.5 497.17,133.5 504.76,133.5 " fill="none" id="RegisterCheckUpController-to-Repositories" style="stroke:#181818;stroke-width:1.0;stroke-dasharray:7.0,7.0;"/><polygon fill="#181818" points="510.76,133.5,501.76,129.5,505.76,133.5,501.76,137.5,510.76,133.5" style="stroke:#181818;stroke-width:1.0;"/></g><!--link RegisterCheckUpController to VehicleRepository--><g id="link_RegisterCheckUpController_VehicleRepository"><path codeLine="82" d="M336,176.24 C336,246.88 336,383.18 336,453.8 " fill="none" id="RegisterCheckUpController-to-VehicleRepository" style="stroke:#181818;stroke-width:1.0;stroke-dasharray:7.0,7.0;"/><polygon fill="#181818" points="336,459.8,340,450.8,336,454.8,332,450.8,336,459.8" style="stroke:#181818;stroke-width:1.0;"/></g><!--link RegisterCheckUpController to Vehicle--><g id="link_RegisterCheckUpController_Vehicle"><path codeLine="83" d="M361.39,176.3 C392.75,227.92 442,309 442,309 C442,309 468.6007,320.2005 515.8107,340.0905 " fill="none" id="RegisterCheckUpController-to-Vehicle" style="stroke:#181818;stroke-width:1.0;stroke-dasharray:7.0,7.0;"/><polygon fill="#181818" points="521.34,342.42,514.5991,335.2395,516.7322,340.4787,511.493,342.6119,521.34,342.42" style="stroke:#181818;stroke-width:1.0;"/></g><!--link RegisterCheckUpController to CheckUp--><g id="link_RegisterCheckUpController_CheckUp"><path codeLine="84" d="M372.89,176.3 C418.45,227.92 490,309 490,309 C490,309 1294,339 1294,339 C1294,339 1334.7899,383.1916 1375.4499,427.2316 " fill="none" id="RegisterCheckUpController-to-CheckUp" style="stroke:#181818;stroke-width:1.0;stroke-dasharray:7.0,7.0;"/><polygon fill="#181818" points="1379.52,431.64,1376.3538,422.3139,1376.1283,427.9663,1370.4759,427.7407,1379.52,431.64" style="stroke:#181818;stroke-width:1.0;"/></g><!--link Repositories to Repositories--><g id="link_Repositories_Repositories"><path codeLine="87" d="M705.28,103.47 C725.48,106.63 740,116.64 740,133.5 C740,150.36 731.4079,159.4427 711.2079,162.6027 " fill="none" id="Repositories-to-Repositories" style="stroke:#181818;stroke-width:1.0;"/><polygon fill="#181818" points="705.28,163.53,714.7901,166.0909,710.2199,162.7572,713.5536,158.1871,705.28,163.53" style="stroke:#181818;stroke-width:1.0;"/><text fill="#000000" font-family="sans-serif" font-size="13" lengthAdjust="spacing" textLength="49" x="746" y="139.0283">instance</text></g><!--link Repositories to VehicleRepository--><g id="link_Repositories_VehicleRepository"><path codeLine="88" d="M570.18,185.53 C515.88,258.8 420.4328,387.5797 370.3428,455.1597 " fill="none" id="Repositories-to-VehicleRepository" style="stroke:#181818;stroke-width:1.0;"/><polygon fill="#181818" points="366.77,459.98,375.3427,455.1314,369.7473,455.9631,368.9156,450.3677,366.77,459.98" style="stroke:#181818;stroke-width:1.0;"/><text fill="#000000" font-family="sans-serif" font-size="13" lengthAdjust="spacing" textLength="101" x="490" y="305.0283">vehicleRepository</text></g><!--link VehicleRepository to Vehicle--><g id="link_VehicleRepository_Vehicle"><path codeLine="90" d="M446.22,502.5 C469.19,502.5 488.62,502.5 515.35,502.5 " fill="none" id="VehicleRepository-to-Vehicle" style="stroke:#181818;stroke-width:1.0;"/><polygon fill="#181818" points="521.35,502.5,512.35,498.5,516.35,502.5,512.35,506.5,521.35,502.5" style="stroke:#181818;stroke-width:1.0;"/><text fill="#000000" font-family="sans-serif" font-size="13" lengthAdjust="spacing" textLength="39" x="464.25" y="495.5283">vehicle</text></g><!--link Vehicle to CheckUp--><g id="link_Vehicle_CheckUp"><path codeLine="92" d="M1276.78,502.5 C1311.97,502.5 1338.39,502.5 1365.13,502.5 " fill="none" id="Vehicle-to-CheckUp" style="stroke:#181818;stroke-width:1.0;"/><polygon fill="#181818" points="1371.13,502.5,1362.13,498.5,1366.13,502.5,1362.13,506.5,1371.13,502.5" style="stroke:#181818;stroke-width:1.0;"/><text fill="#000000" font-family="sans-serif" font-size="13" lengthAdjust="spacing" textLength="58" x="1295" y="495.5283">checkUps</text><text fill="#000000" font-family="sans-serif" font-size="13" lengthAdjust="spacing" textLength="7" x="1284.5248" y="499.3554">1</text><text fill="#000000" font-family="sans-serif" font-size="13" lengthAdjust="spacing" textLength="5" x="1358.3575" y="498.6613">*</text></g><!--link VehicleFleetManager to CheckUp--><g id="link_VehicleFleetManager_CheckUp"><path codeLine="94" d="M1581.69,157.74 C1560.01,211.86 1507.681,342.5202 1474.111,426.3302 " fill="none" id="VehicleFleetManager-to-CheckUp" style="stroke:#181818;stroke-width:1.0;"/><polygon fill="#181818" points="1471.88,431.9,1478.9397,425.0326,1473.7391,427.2585,1471.5133,422.058,1471.88,431.9" style="stroke:#181818;stroke-width:1.0;"/><text fill="#000000" font-family="sans-serif" font-size="13" lengthAdjust="spacing" textLength="28" x="1527" y="305.0283">does</text></g><!--SRC=[ZLHDRzmW4BtpAz1UuctOghr6qKhPL97IDctLLTepQy_QT34uWDEw7_-zOB0DwsnQ7smpyuPvyuRXJ1-OQAYYDQwba7cbP0tOg1RGv6beVg0bR4t70Il83HKbZm6weeNypaI9zvJhsCEP0DCrW1l9ExT0PqyufJ8IHL4vfrfV6QFOhZLmcqknPJy1lqBeZCFUO2EnOcLbSC4S7IO5GgWFmjUISxgJYXgfy2-4xRFQseqiDq5hy8RtJ9lBxO5nliRQVPp1kzxA7VucTtxnXXh0XNrzt6-OCbLafKNDjBQPtShRhuf2WQL0_JU0PTxM82pLy9DGQYefu4DRxq0bTgWfuzx2RAoXFnhQMKnlEa-Ap5nP96P9Kd9a84H63YHEJ7msCcPPeZ-3cb-WOZc76mvWxgYmXy29UkmUT7Oguilh2lB3VRF6kV_HaxWRHKM1T-xj3NUo06vFddqdzRjJuGrxBgaJG2NhKacjlu8x0vDAUQkKBUvT7RL9GMcpWvgwvBkNFxHCCvFqhz_3SMwR6mKFBOYyIrXnbeFGy8cxaD2A847M5qNwIeXZJnnb4l4a8pqIao97LCWn0n9dNOQimmv1wqqtq2ZwXXzgxP4hr_i0oa8_1iyZvSp2RTx9CtOsn1nDK290EY6JX3Rv84xOTyxgsToXbi_GIAkBLDt00li35lnh_EX_nlDrZaimmRlfUfPPgjwOOzoSWHwtZutPSjhoLcXxvUMGBV550ffbdJXdIRAaMzTI66Kd68OBwlmq8ZlHyQGkF_r1u5DPxs_zv2ONvENlrLCpZj0y-ENwDCiPFYgnZuiaUmPfeJCT_m__3rIm8iSpwligfMQRoqAdZt2h9uXPzEECB9h3fjWfOiJXnUk5GonUBCQHknWlpX6MtB-EpOGjfDNqBm00]--></g></svg>