<?xml version="1.0" encoding="us-ascii" standalone="no"?><svg xmlns="http://www.w3.org/2000/svg" xmlns:xlink="http://www.w3.org/1999/xlink" contentStyleType="text/css" height="1028px" preserveAspectRatio="none" style="width:1549px;height:1028px;background:#FFFFFF;" version="1.1" viewBox="0 0 1549 1028" width="1549px" zoomAndPan="magnify"><defs/><g><rect fill="#FFFFFF" height="833.3145" style="stroke:#181818;stroke-width:1.0;" width="10" x="88" y="93.6211"/><rect fill="#FFFFFF" height="31.291" style="stroke:#181818;stroke-width:1.0;" width="10" x="435" y="116.9121"/><rect fill="#FFFFFF" height="31.291" style="stroke:#181818;stroke-width:1.0;" width="10" x="435" y="179.4941"/><rect fill="#FFFFFF" height="684.8594" style="stroke:#181818;stroke-width:1.0;" width="10" x="435" y="242.0762"/><rect fill="#FFFFFF" height="622.2773" style="stroke:#181818;stroke-width:1.0;" width="10" x="716" y="273.3672"/><rect fill="#FFFFFF" height="31.291" style="stroke:#181818;stroke-width:1.0;" width="10" x="869.5" y="304.6582"/><rect fill="#FFFFFF" height="31.291" style="stroke:#181818;stroke-width:1.0;" width="10" x="976.5" y="367.2402"/><rect fill="#FFFFFF" height="31.291" style="stroke:#181818;stroke-width:1.0;" width="10" x="1100" y="429.8223"/><rect fill="#FFFFFF" height="371.9492" style="stroke:#181818;stroke-width:1.0;" width="10" x="1206" y="492.4043"/><rect fill="#FFFFFF" height="130.873" style="stroke:#181818;stroke-width:1.0;" width="10" x="1211" y="695.1895"/><rect fill="#FFFFFF" height="42.291" style="stroke:#181818;stroke-width:1.0;" width="10" x="1216" y="739.4805"/><rect fill="#FFFFFF" height="122.2031" style="stroke:#181818;stroke-width:1.0;" width="10" x="1390.5" y="533.6953"/><rect fill="#FFFFFF" height="42.291" style="stroke:#181818;stroke-width:1.0;" width="10" x="1395.5" y="575.3164"/><line style="stroke:#181818;stroke-width:0.5;stroke-dasharray:5.0,5.0;" x1="93" x2="93" y1="83.6211" y2="944.9355"/><line style="stroke:#181818;stroke-width:0.5;stroke-dasharray:5.0,5.0;" x1="440" x2="440" y1="83.6211" y2="944.9355"/><line style="stroke:#181818;stroke-width:0.5;stroke-dasharray:5.0,5.0;" x1="721" x2="721" y1="83.6211" y2="944.9355"/><line style="stroke:#181818;stroke-width:0.5;stroke-dasharray:5.0,5.0;" x1="874" x2="874" y1="83.6211" y2="944.9355"/><line style="stroke:#181818;stroke-width:0.5;stroke-dasharray:5.0,5.0;" x1="981" x2="981" y1="83.6211" y2="944.9355"/><line style="stroke:#181818;stroke-width:0.5;stroke-dasharray:5.0,5.0;" x1="1105" x2="1105" y1="83.6211" y2="944.9355"/><line style="stroke:#181818;stroke-width:0.5;stroke-dasharray:5.0,5.0;" x1="1211" x2="1211" y1="83.6211" y2="944.9355"/><line style="stroke:#181818;stroke-width:0.5;stroke-dasharray:5.0,5.0;" x1="1395" x2="1395" y1="532.2148" y2="944.9355"/><text fill="#000000" font-family="sans-serif" font-size="14" lengthAdjust="spacing" textLength="170" x="5" y="80.1074">Vehicle and Fleet Manager</text><ellipse cx="93" cy="13.5" fill="#E3E3E3" rx="8" ry="8" style="stroke:#181818;stroke-width:0.5;"/><path d="M93,21.5 L93,48.5 M80,29.5 L106,29.5 M93,48.5 L80,63.5 M93,48.5 L106,63.5 " fill="none" style="stroke:#181818;stroke-width:0.5;"/><text fill="#000000" font-family="sans-serif" font-size="14" lengthAdjust="spacing" textLength="170" x="5" y="959.043">Vehicle and Fleet Manager</text><ellipse cx="93" cy="971.0566" fill="#E3E3E3" rx="8" ry="8" style="stroke:#181818;stroke-width:0.5;"/><path d="M93,979.0566 L93,1006.0566 M80,987.0566 L106,987.0566 M93,1006.0566 L80,1021.0566 M93,1006.0566 L106,1021.0566 " fill="none" style="stroke:#181818;stroke-width:0.5;"/><rect fill="#E3E3E3" height="32.6211" rx="2.5" ry="2.5" style="stroke:#181818;stroke-width:0.5;" width="140" x="370" y="50"/><text fill="#000000" font-family="sans-serif" font-size="14" lengthAdjust="spacing" textLength="126" x="377" y="72.1074">:RegisterCheckUpUI</text><rect fill="#E3E3E3" height="32.6211" rx="2.5" ry="2.5" style="stroke:#181818;stroke-width:0.5;" width="140" x="370" y="943.9355"/><text fill="#000000" font-family="sans-serif" font-size="14" lengthAdjust="spacing" textLength="126" x="377" y="966.043">:RegisterCheckUpUI</text><rect fill="#E3E3E3" height="32.6211" rx="2.5" ry="2.5" style="stroke:#181818;stroke-width:0.5;" width="190" x="626" y="50"/><text fill="#000000" font-family="sans-serif" font-size="14" lengthAdjust="spacing" textLength="176" x="633" y="72.1074">:RegisterCheckUpController</text><rect fill="#E3E3E3" height="32.6211" rx="2.5" ry="2.5" style="stroke:#181818;stroke-width:0.5;" width="190" x="626" y="943.9355"/><text fill="#000000" font-family="sans-serif" font-size="14" lengthAdjust="spacing" textLength="176" x="633" y="966.043">:RegisterCheckUpController</text><rect fill="#E3E3E3" height="32.6211" rx="2.5" ry="2.5" style="stroke:#181818;stroke-width:0.5;" width="97" x="826" y="50"/><text fill="#000000" font-family="sans-serif" font-size="14" lengthAdjust="spacing" textLength="83" x="833" y="72.1074">:Repositories</text><rect fill="#E3E3E3" height="32.6211" rx="2.5" ry="2.5" style="stroke:#181818;stroke-width:0.5;" width="97" x="826" y="943.9355"/><text fill="#000000" font-family="sans-serif" font-size="14" lengthAdjust="spacing" textLength="83" x="833" y="966.043">:Repositories</text><rect fill="#E3E3E3" height="51.2422" rx="2.5" ry="2.5" style="stroke:#181818;stroke-width:0.5;" width="97" x="933" y="31.3789"/><text fill="#000000" font-family="sans-serif" font-size="14" lengthAdjust="spacing" textLength="74" x="944.5" y="53.4863">repositories</text><text fill="#000000" font-family="sans-serif" font-size="14" lengthAdjust="spacing" textLength="83" x="940" y="72.1074">:Repositories</text><rect fill="#E3E3E3" height="51.2422" rx="2.5" ry="2.5" style="stroke:#181818;stroke-width:0.5;" width="97" x="933" y="943.9355"/><text fill="#000000" font-family="sans-serif" font-size="14" lengthAdjust="spacing" textLength="74" x="944.5" y="966.043">repositories</text><text fill="#000000" font-family="sans-serif" font-size="14" lengthAdjust="spacing" textLength="83" x="940" y="984.6641">:Repositories</text><rect fill="#E3E3E3" height="51.2422" rx="2.5" ry="2.5" style="stroke:#181818;stroke-width:0.5;" width="130" x="1040" y="31.3789"/><text fill="#000000" font-family="sans-serif" font-size="14" lengthAdjust="spacing" textLength="116" x="1047" y="53.4863">vehicleRepository:</text><text fill="#000000" font-family="sans-serif" font-size="14" lengthAdjust="spacing" textLength="114" x="1048" y="72.1074">VehicleRepository</text><rect fill="#E3E3E3" height="51.2422" rx="2.5" ry="2.5" style="stroke:#181818;stroke-width:0.5;" width="130" x="1040" y="943.9355"/><text fill="#000000" font-family="sans-serif" font-size="14" lengthAdjust="spacing" textLength="116" x="1047" y="966.043">vehicleRepository:</text><text fill="#000000" font-family="sans-serif" font-size="14" lengthAdjust="spacing" textLength="114" x="1048" y="984.6641">VehicleRepository</text><rect fill="#E3E3E3" height="51.2422" rx="2.5" ry="2.5" style="stroke:#181818;stroke-width:0.5;" width="62" x="1180" y="31.3789"/><text fill="#000000" font-family="sans-serif" font-size="14" lengthAdjust="spacing" textLength="48" x="1187" y="53.4863">vehicle:</text><text fill="#000000" font-family="sans-serif" font-size="14" lengthAdjust="spacing" textLength="46" x="1188" y="72.1074">Vehicle</text><rect fill="#E3E3E3" height="51.2422" rx="2.5" ry="2.5" style="stroke:#181818;stroke-width:0.5;" width="62" x="1180" y="943.9355"/><text fill="#000000" font-family="sans-serif" font-size="14" lengthAdjust="spacing" textLength="48" x="1187" y="966.043">vehicle:</text><text fill="#000000" font-family="sans-serif" font-size="14" lengthAdjust="spacing" textLength="46" x="1188" y="984.6641">Vehicle</text><rect fill="#E3E3E3" height="32.6211" rx="2.5" ry="2.5" style="stroke:#181818;stroke-width:0.5;" width="71" x="1360" y="943.9355"/><text fill="#000000" font-family="sans-serif" font-size="14" lengthAdjust="spacing" textLength="57" x="1367" y="966.043">CheckUp</text><rect fill="#FFFFFF" height="833.3145" style="stroke:#181818;stroke-width:1.0;" width="10" x="88" y="93.6211"/><rect fill="#FFFFFF" height="31.291" style="stroke:#181818;stroke-width:1.0;" width="10" x="435" y="116.9121"/><rect fill="#FFFFFF" height="31.291" style="stroke:#181818;stroke-width:1.0;" width="10" x="435" y="179.4941"/><rect fill="#FFFFFF" height="684.8594" style="stroke:#181818;stroke-width:1.0;" width="10" x="435" y="242.0762"/><rect fill="#FFFFFF" height="622.2773" style="stroke:#181818;stroke-width:1.0;" width="10" x="716" y="273.3672"/><rect fill="#FFFFFF" height="31.291" style="stroke:#181818;stroke-width:1.0;" width="10" x="869.5" y="304.6582"/><rect fill="#FFFFFF" height="31.291" style="stroke:#181818;stroke-width:1.0;" width="10" x="976.5" y="367.2402"/><rect fill="#FFFFFF" height="31.291" style="stroke:#181818;stroke-width:1.0;" width="10" x="1100" y="429.8223"/><rect fill="#FFFFFF" height="371.9492" style="stroke:#181818;stroke-width:1.0;" width="10" x="1206" y="492.4043"/><rect fill="#FFFFFF" height="130.873" style="stroke:#181818;stroke-width:1.0;" width="10" x="1211" y="695.1895"/><rect fill="#FFFFFF" height="42.291" style="stroke:#181818;stroke-width:1.0;" width="10" x="1216" y="739.4805"/><rect fill="#FFFFFF" height="122.2031" style="stroke:#181818;stroke-width:1.0;" width="10" x="1390.5" y="533.6953"/><rect fill="#FFFFFF" height="42.291" style="stroke:#181818;stroke-width:1.0;" width="10" x="1395.5" y="575.3164"/><polygon fill="#181818" points="423,112.9121,433,116.9121,423,120.9121,427,116.9121" style="stroke:#181818;stroke-width:1.0;"/><line style="stroke:#181818;stroke-width:1.0;" x1="98" x2="429" y1="116.9121" y2="116.9121"/><text fill="#000000" font-family="sans-serif" font-size="13" font-weight="bold" lengthAdjust="spacing" textLength="7" x="105" y="111.6494">1</text><text fill="#000000" font-family="sans-serif" font-size="13" lengthAdjust="spacing" textLength="201" x="116" y="111.6494">asks to register a vehicle check-up</text><polygon fill="#181818" points="109,144.2031,99,148.2031,109,152.2031,105,148.2031" style="stroke:#181818;stroke-width:1.0;"/><line style="stroke:#181818;stroke-width:1.0;stroke-dasharray:2.0,2.0;" x1="103" x2="439" y1="148.2031" y2="148.2031"/><text fill="#000000" font-family="sans-serif" font-size="13" font-weight="bold" lengthAdjust="spacing" textLength="7" x="115" y="142.9404">2</text><text fill="#000000" font-family="sans-serif" font-size="13" lengthAdjust="spacing" textLength="302" x="126" y="142.9404">requests data (license plate, date, kms at checkup.)</text><polygon fill="#181818" points="423,175.4941,433,179.4941,423,183.4941,427,179.4941" style="stroke:#181818;stroke-width:1.0;"/><line style="stroke:#181818;stroke-width:1.0;" x1="98" x2="429" y1="179.4941" y2="179.4941"/><text fill="#000000" font-family="sans-serif" font-size="13" font-weight="bold" lengthAdjust="spacing" textLength="7" x="105" y="174.2314">3</text><text fill="#000000" font-family="sans-serif" font-size="13" lengthAdjust="spacing" textLength="122" x="116" y="174.2314">types requested data</text><polygon fill="#181818" points="109,206.7852,99,210.7852,109,214.7852,105,210.7852" style="stroke:#181818;stroke-width:1.0;"/><line style="stroke:#181818;stroke-width:1.0;stroke-dasharray:2.0,2.0;" x1="103" x2="439" y1="210.7852" y2="210.7852"/><text fill="#000000" font-family="sans-serif" font-size="13" font-weight="bold" lengthAdjust="spacing" textLength="7" x="115" y="205.5225">4</text><text fill="#000000" font-family="sans-serif" font-size="13" lengthAdjust="spacing" textLength="236" x="126" y="205.5225">shows all data and requests confirmation</text><polygon fill="#181818" points="423,238.0762,433,242.0762,423,246.0762,427,242.0762" style="stroke:#181818;stroke-width:1.0;"/><line style="stroke:#181818;stroke-width:1.0;" x1="98" x2="429" y1="242.0762" y2="242.0762"/><text fill="#000000" font-family="sans-serif" font-size="13" font-weight="bold" lengthAdjust="spacing" textLength="7" x="105" y="236.8135">5</text><text fill="#000000" font-family="sans-serif" font-size="13" lengthAdjust="spacing" textLength="78" x="116" y="236.8135">confirms data</text><polygon fill="#181818" points="704,269.3672,714,273.3672,704,277.3672,708,273.3672" style="stroke:#181818;stroke-width:1.0;"/><line style="stroke:#181818;stroke-width:1.0;" x1="445" x2="710" y1="273.3672" y2="273.3672"/><text fill="#000000" font-family="sans-serif" font-size="13" font-weight="bold" lengthAdjust="spacing" textLength="7" x="452" y="268.1045">6</text><text fill="#000000" font-family="sans-serif" font-size="13" lengthAdjust="spacing" textLength="241" x="463" y="268.1045">registerCheckUp(licensePlate, date, kms)</text><polygon fill="#181818" points="857.5,300.6582,867.5,304.6582,857.5,308.6582,861.5,304.6582" style="stroke:#181818;stroke-width:1.0;"/><line style="stroke:#181818;stroke-width:1.0;" x1="726" x2="863.5" y1="304.6582" y2="304.6582"/><text fill="#000000" font-family="sans-serif" font-size="13" font-weight="bold" lengthAdjust="spacing" textLength="7" x="733" y="299.3955">7</text><text fill="#000000" font-family="sans-serif" font-size="13" lengthAdjust="spacing" textLength="75" x="744" y="299.3955">getInstance()</text><polygon fill="#181818" points="737,331.9492,727,335.9492,737,339.9492,733,335.9492" style="stroke:#181818;stroke-width:1.0;"/><line style="stroke:#181818;stroke-width:1.0;stroke-dasharray:2.0,2.0;" x1="731" x2="873.5" y1="335.9492" y2="335.9492"/><text fill="#000000" font-family="sans-serif" font-size="13" font-weight="bold" lengthAdjust="spacing" textLength="7" x="743" y="330.6865">8</text><text fill="#000000" font-family="sans-serif" font-size="13" lengthAdjust="spacing" textLength="67" x="754" y="330.6865">repositories</text><polygon fill="#181818" points="964.5,363.2402,974.5,367.2402,964.5,371.2402,968.5,367.2402" style="stroke:#181818;stroke-width:1.0;"/><line style="stroke:#181818;stroke-width:1.0;" x1="726" x2="970.5" y1="367.2402" y2="367.2402"/><text fill="#000000" font-family="sans-serif" font-size="13" font-weight="bold" lengthAdjust="spacing" textLength="7" x="733" y="361.9775">9</text><text fill="#000000" font-family="sans-serif" font-size="13" lengthAdjust="spacing" textLength="131" x="744" y="361.9775">getVehicleRepository()</text><polygon fill="#181818" points="737,394.5313,727,398.5313,737,402.5313,733,398.5313" style="stroke:#181818;stroke-width:1.0;"/><line style="stroke:#181818;stroke-width:1.0;stroke-dasharray:2.0,2.0;" x1="731" x2="980.5" y1="398.5313" y2="398.5313"/><text fill="#000000" font-family="sans-serif" font-size="13" font-weight="bold" lengthAdjust="spacing" textLength="14" x="743" y="393.2686">10</text><text fill="#000000" font-family="sans-serif" font-size="13" lengthAdjust="spacing" textLength="101" x="761" y="393.2686">vehicleRepository</text><polygon fill="#181818" points="1088,425.8223,1098,429.8223,1088,433.8223,1092,429.8223" style="stroke:#181818;stroke-width:1.0;"/><line style="stroke:#181818;stroke-width:1.0;" x1="726" x2="1094" y1="429.8223" y2="429.8223"/><text fill="#000000" font-family="sans-serif" font-size="13" font-weight="bold" lengthAdjust="spacing" textLength="14" x="733" y="424.5596">11</text><text fill="#000000" font-family="sans-serif" font-size="13" lengthAdjust="spacing" textLength="186" x="751" y="424.5596">getVehicleByPlate(licensePlate)</text><polygon fill="#181818" points="737,457.1133,727,461.1133,737,465.1133,733,461.1133" style="stroke:#181818;stroke-width:1.0;"/><line style="stroke:#181818;stroke-width:1.0;stroke-dasharray:2.0,2.0;" x1="731" x2="1104" y1="461.1133" y2="461.1133"/><text fill="#000000" font-family="sans-serif" font-size="13" font-weight="bold" lengthAdjust="spacing" textLength="14" x="743" y="455.8506">12</text><text fill="#000000" font-family="sans-serif" font-size="13" lengthAdjust="spacing" textLength="39" x="761" y="455.8506">vehicle</text><polygon fill="#181818" points="1194,488.4043,1204,492.4043,1194,496.4043,1198,492.4043" style="stroke:#181818;stroke-width:1.0;"/><line style="stroke:#181818;stroke-width:1.0;" x1="726" x2="1200" y1="492.4043" y2="492.4043"/><text fill="#000000" font-family="sans-serif" font-size="13" font-weight="bold" lengthAdjust="spacing" textLength="14" x="733" y="487.1416">13</text><text fill="#000000" font-family="sans-serif" font-size="13" lengthAdjust="spacing" textLength="221" x="751" y="487.1416">registerCheckUpByVehicle(date, kms)</text><polygon fill="#181818" points="1348,519.6953,1358,523.6953,1348,527.6953,1352,523.6953" style="stroke:#181818;stroke-width:1.0;"/><line style="stroke:#181818;stroke-width:1.0;" x1="1216" x2="1354" y1="523.6953" y2="523.6953"/><text fill="#000000" font-family="sans-serif" font-size="13" font-weight="bold" lengthAdjust="spacing" textLength="14" x="1223" y="518.4326">14</text><text fill="#000000" font-family="sans-serif" font-size="13" lengthAdjust="spacing" textLength="102" x="1241" y="518.4326">create(date, kms)</text><rect fill="#E3E3E3" height="32.6211" rx="2.5" ry="2.5" style="stroke:#181818;stroke-width:0.5;" width="71" x="1360" y="500.4043"/><text fill="#000000" font-family="sans-serif" font-size="14" lengthAdjust="spacing" textLength="57" x="1367" y="522.5117">CheckUp</text><line style="stroke:#181818;stroke-width:1.0;" x1="1400.5" x2="1447.5" y1="562.3164" y2="562.3164"/><line style="stroke:#181818;stroke-width:1.0;" x1="1447.5" x2="1447.5" y1="562.3164" y2="575.3164"/><line style="stroke:#181818;stroke-width:1.0;" x1="1406.5" x2="1447.5" y1="575.3164" y2="575.3164"/><polygon fill="#181818" points="1416.5,571.3164,1406.5,575.3164,1416.5,579.3164,1412.5,575.3164" style="stroke:#181818;stroke-width:1.0;"/><text fill="#000000" font-family="sans-serif" font-size="13" font-weight="bold" lengthAdjust="spacing" textLength="14" x="1412.5" y="557.0537">15</text><text fill="#000000" font-family="sans-serif" font-size="13" lengthAdjust="spacing" textLength="112" x="1430.5" y="557.0537">validation(checkUp)</text><line style="stroke:#181818;stroke-width:1.0;stroke-dasharray:2.0,2.0;" x1="1405.5" x2="1447.5" y1="616.6074" y2="616.6074"/><line style="stroke:#181818;stroke-width:1.0;stroke-dasharray:2.0,2.0;" x1="1447.5" x2="1447.5" y1="616.6074" y2="629.6074"/><line style="stroke:#181818;stroke-width:1.0;stroke-dasharray:2.0,2.0;" x1="1400.5" x2="1447.5" y1="629.6074" y2="629.6074"/><polygon fill="#181818" points="1410.5,625.6074,1400.5,629.6074,1410.5,633.6074,1406.5,629.6074" style="stroke:#181818;stroke-width:1.0;"/><text fill="#000000" font-family="sans-serif" font-size="13" font-weight="bold" lengthAdjust="spacing" textLength="14" x="1412.5" y="611.3447">16</text><text fill="#000000" font-family="sans-serif" font-size="13" lengthAdjust="spacing" textLength="53" x="1430.5" y="611.3447">true/false</text><polygon fill="#181818" points="1227,651.8984,1217,655.8984,1227,659.8984,1223,655.8984" style="stroke:#181818;stroke-width:1.0;"/><line style="stroke:#181818;stroke-width:1.0;" x1="1221" x2="1394.5" y1="655.8984" y2="655.8984"/><text fill="#000000" font-family="sans-serif" font-size="13" font-weight="bold" lengthAdjust="spacing" textLength="14" x="1233" y="650.6357">17</text><text fill="#000000" font-family="sans-serif" font-size="13" lengthAdjust="spacing" textLength="51" x="1251" y="650.6357">checkUp</text><line style="stroke:#181818;stroke-width:1.0;" x1="1216" x2="1263" y1="682.1895" y2="682.1895"/><line style="stroke:#181818;stroke-width:1.0;" x1="1263" x2="1263" y1="682.1895" y2="695.1895"/><line style="stroke:#181818;stroke-width:1.0;" x1="1222" x2="1263" y1="695.1895" y2="695.1895"/><polygon fill="#181818" points="1232,691.1895,1222,695.1895,1232,699.1895,1228,695.1895" style="stroke:#181818;stroke-width:1.0;"/><text fill="#000000" font-family="sans-serif" font-size="13" font-weight="bold" lengthAdjust="spacing" textLength="14" x="1228" y="676.9268">18</text><text fill="#000000" font-family="sans-serif" font-size="13" lengthAdjust="spacing" textLength="133" x="1246" y="676.9268">addCheckUp(checkUp)</text><line style="stroke:#181818;stroke-width:1.0;" x1="1221" x2="1268" y1="726.4805" y2="726.4805"/><line style="stroke:#181818;stroke-width:1.0;" x1="1268" x2="1268" y1="726.4805" y2="739.4805"/><line style="stroke:#181818;stroke-width:1.0;" x1="1227" x2="1268" y1="739.4805" y2="739.4805"/><polygon fill="#181818" points="1237,735.4805,1227,739.4805,1237,743.4805,1233,739.4805" style="stroke:#181818;stroke-width:1.0;"/><text fill="#000000" font-family="sans-serif" font-size="13" font-weight="bold" lengthAdjust="spacing" textLength="14" x="1233" y="721.2178">19</text><text fill="#000000" font-family="sans-serif" font-size="13" lengthAdjust="spacing" textLength="112" x="1251" y="721.2178">validation(checkUp)</text><line style="stroke:#181818;stroke-width:1.0;stroke-dasharray:2.0,2.0;" x1="1226" x2="1268" y1="780.7715" y2="780.7715"/><line style="stroke:#181818;stroke-width:1.0;stroke-dasharray:2.0,2.0;" x1="1268" x2="1268" y1="780.7715" y2="793.7715"/><line style="stroke:#181818;stroke-width:1.0;stroke-dasharray:2.0,2.0;" x1="1221" x2="1268" y1="793.7715" y2="793.7715"/><polygon fill="#181818" points="1231,789.7715,1221,793.7715,1231,797.7715,1227,793.7715" style="stroke:#181818;stroke-width:1.0;"/><text fill="#000000" font-family="sans-serif" font-size="13" font-weight="bold" lengthAdjust="spacing" textLength="14" x="1233" y="775.5088">20</text><text fill="#000000" font-family="sans-serif" font-size="13" lengthAdjust="spacing" textLength="53" x="1251" y="775.5088">true/false</text><line style="stroke:#181818;stroke-width:1.0;stroke-dasharray:2.0,2.0;" x1="1221" x2="1263" y1="825.0625" y2="825.0625"/><line style="stroke:#181818;stroke-width:1.0;stroke-dasharray:2.0,2.0;" x1="1263" x2="1263" y1="825.0625" y2="838.0625"/><line style="stroke:#181818;stroke-width:1.0;stroke-dasharray:2.0,2.0;" x1="1216" x2="1263" y1="838.0625" y2="838.0625"/><polygon fill="#181818" points="1226,834.0625,1216,838.0625,1226,842.0625,1222,838.0625" style="stroke:#181818;stroke-width:1.0;"/><text fill="#000000" font-family="sans-serif" font-size="13" font-weight="bold" lengthAdjust="spacing" textLength="14" x="1228" y="819.7998">21</text><text fill="#000000" font-family="sans-serif" font-size="13" lengthAdjust="spacing" textLength="53" x="1246" y="819.7998">true/false</text><polygon fill="#181818" points="737,860.3535,727,864.3535,737,868.3535,733,864.3535" style="stroke:#181818;stroke-width:1.0;"/><line style="stroke:#181818;stroke-width:1.0;stroke-dasharray:2.0,2.0;" x1="731" x2="1210" y1="864.3535" y2="864.3535"/><text fill="#000000" font-family="sans-serif" font-size="13" font-weight="bold" lengthAdjust="spacing" textLength="14" x="743" y="859.0908">22</text><text fill="#000000" font-family="sans-serif" font-size="13" lengthAdjust="spacing" textLength="51" x="761" y="859.0908">checkUp</text><polygon fill="#181818" points="456,891.6445,446,895.6445,456,899.6445,452,895.6445" style="stroke:#181818;stroke-width:1.0;"/><line style="stroke:#181818;stroke-width:1.0;" x1="450" x2="720" y1="895.6445" y2="895.6445"/><text fill="#000000" font-family="sans-serif" font-size="13" font-weight="bold" lengthAdjust="spacing" textLength="14" x="462" y="890.3818">23</text><text fill="#000000" font-family="sans-serif" font-size="13" lengthAdjust="spacing" textLength="51" x="480" y="890.3818">checkUp</text><polygon fill="#181818" points="104,922.9355,94,926.9355,104,930.9355,100,926.9355" style="stroke:#181818;stroke-width:1.0;"/><line style="stroke:#181818;stroke-width:1.0;stroke-dasharray:2.0,2.0;" x1="98" x2="439" y1="926.9355" y2="926.9355"/><text fill="#000000" font-family="sans-serif" font-size="13" font-weight="bold" lengthAdjust="spacing" textLength="14" x="110" y="921.6729">24</text><text fill="#000000" font-family="sans-serif" font-size="13" lengthAdjust="spacing" textLength="158" x="128" y="921.6729">displays operation success</text><!--SRC=[nLPDR-8m4BtdLuouBAtAxfq3qXQf4b8hLMtXr8lh3CHAOcTjfzty-_L7GX8SGjeUbWD2jkUzUMyyOrJAU44aoI4NND14YXn1on8ZTTmf24t90PzrbI58f9hmGzOze18IYm_63x0dcS8e8gKMlCpVK4RHZuJ527iXz9lu6n6gXOJP3XD63HhXCTnbY1eU23SSSWP4mUxk8JB8cb5M4AvXjdp20rCQvJf1ccwBxSQTssx6Zwq5rr9aMGsxVdcw3m8AePX9YQ5oPuuBrJEpAesEVeZiHBpo4E3n_lTBF-BTQssHbwzyTxhcTP-k3WAruTsW_j7Q02_R_uwiz-oTQ7J-Hd3oCOkmM1bFOMcYKWLQc69xFu50JGxKeYtA8eW_efkg19lsOv0NXi3oB0todnALLX0JJM2UCOfS8HIPGRYnY-OxpHKGxHdBukTLW1hZA6bNaQuAL0qhnexsqn9w2bGYFan-MUObs9jy54K5tpEP4ytCzVb6rZME-aAwDjULk_BExLvVD7O_dhXzTPx2zKwmxU0DpK3NmFA0UiEL6HOKvoF8GnqNd1uYM7JrjLquvlSahaQKxMI3RMG4VJccnms0ODk1TJ8EXi9OsiEGJPv1ThsaRojNvLx9Hx8FHr1uGGE-KDUOcWaK9zB26tnRrLlpAPUt6P7dfBXEyS3NrxRj95hB9lL5Crm32NwZ0stT8HcBtLIOKx_uBUZ5geMsR_Ol__oEU3ybtTRqEiSl0NQiRG5973SZwBB-ALLheJzbxMNe7lOqR_yVQDrx4yfr5gxfEF_id2jgj_233qBlXOoPCkzvfK0KA5rfG9MKebANtiIecxBvi_8F]--></g></svg>