<?xml version="1.0" encoding="us-ascii" standalone="no"?><svg xmlns="http://www.w3.org/2000/svg" xmlns:xlink="http://www.w3.org/1999/xlink" contentStyleType="text/css" height="1222px" preserveAspectRatio="none" style="width:1854px;height:1222px;background:#FFFFFF;" version="1.1" viewBox="0 0 1854 1222" width="1854px" zoomAndPan="magnify"><defs/><g><rect fill="#FFFFFF" height="1036.8262" style="stroke:#181818;stroke-width:1.0;" width="10" x="109.5" y="93.6211"/><rect fill="#FFFFFF" height="158.0859" style="stroke:#181818;stroke-width:1.0;" width="10" x="705.5" y="116.9121"/><rect fill="#FFFFFF" height="48.582" style="stroke:#181818;stroke-width:1.0;" width="10" x="705.5" y="306.2891"/><rect fill="#FFFFFF" height="31.291" style="stroke:#181818;stroke-width:1.0;" width="10" x="705.5" y="386.1621"/><rect fill="#FFFFFF" height="672.7031" style="stroke:#181818;stroke-width:1.0;" width="10" x="705.5" y="448.7441"/><rect fill="#FFFFFF" height="95.5039" style="stroke:#181818;stroke-width:1.0;" width="10" x="1164.5" y="148.2031"/><rect fill="#FFFFFF" height="575.5391" style="stroke:#181818;stroke-width:1.0;" width="10" x="1164.5" y="514.6172"/><rect fill="#FFFFFF" height="90.543" style="stroke:#181818;stroke-width:1.0;" width="10" x="1169.5" y="553.9082"/><rect fill="#FFFFFF" height="90.543" style="stroke:#181818;stroke-width:1.0;" width="10" x="1169.5" y="690.7422"/><rect fill="#FFFFFF" height="31.291" style="stroke:#181818;stroke-width:1.0;" width="10" x="1513.5" y="819.5762"/><rect fill="#FFFFFF" height="31.291" style="stroke:#181818;stroke-width:1.0;" width="10" x="1620.5" y="882.1582"/><rect fill="#FFFFFF" height="79.543" style="stroke:#181818;stroke-width:1.0;" width="10" x="1759.5" y="979.3223"/><line style="stroke:#181818;stroke-width:0.5;stroke-dasharray:5.0,5.0;" x1="114" x2="114" y1="83.6211" y2="1139.4473"/><line style="stroke:#181818;stroke-width:0.5;stroke-dasharray:5.0,5.0;" x1="710.5" x2="710.5" y1="83.6211" y2="1139.4473"/><line style="stroke:#181818;stroke-width:0.5;stroke-dasharray:5.0,5.0;" x1="1169" x2="1169" y1="83.6211" y2="1139.4473"/><line style="stroke:#181818;stroke-width:0.5;stroke-dasharray:5.0,5.0;" x1="1518" x2="1518" y1="83.6211" y2="1139.4473"/><line style="stroke:#181818;stroke-width:0.5;stroke-dasharray:5.0,5.0;" x1="1625" x2="1625" y1="83.6211" y2="1139.4473"/><line style="stroke:#181818;stroke-width:0.5;stroke-dasharray:5.0,5.0;" x1="1764" x2="1764" y1="83.6211" y2="1139.4473"/><text fill="#000000" font-family="sans-serif" font-size="14" lengthAdjust="spacing" textLength="213" x="5" y="80.1074">Human Resource Manager (HRM)</text><ellipse cx="114.5" cy="13.5" fill="#E3E3E3" rx="8" ry="8" style="stroke:#181818;stroke-width:0.5;"/><path d="M114.5,21.5 L114.5,48.5 M101.5,29.5 L127.5,29.5 M114.5,48.5 L101.5,63.5 M114.5,48.5 L127.5,63.5 " fill="none" style="stroke:#181818;stroke-width:0.5;"/><text fill="#000000" font-family="sans-serif" font-size="14" lengthAdjust="spacing" textLength="213" x="5" y="1153.5547">Human Resource Manager (HRM)</text><ellipse cx="114.5" cy="1165.5684" fill="#E3E3E3" rx="8" ry="8" style="stroke:#181818;stroke-width:0.5;"/><path d="M114.5,1173.5684 L114.5,1200.5684 M101.5,1181.5684 L127.5,1181.5684 M114.5,1200.5684 L101.5,1215.5684 M114.5,1200.5684 L127.5,1215.5684 " fill="none" style="stroke:#181818;stroke-width:0.5;"/><rect fill="#E3E3E3" height="32.6211" rx="2.5" ry="2.5" style="stroke:#181818;stroke-width:0.5;" width="164" x="628.5" y="50"/><text fill="#000000" font-family="sans-serif" font-size="14" lengthAdjust="spacing" textLength="150" x="635.5" y="72.1074">:RegisterColllaboratorUI</text><rect fill="#E3E3E3" height="32.6211" rx="2.5" ry="2.5" style="stroke:#181818;stroke-width:0.5;" width="164" x="628.5" y="1138.4473"/><text fill="#000000" font-family="sans-serif" font-size="14" lengthAdjust="spacing" textLength="150" x="635.5" y="1160.5547">:RegisterColllaboratorUI</text><rect fill="#E3E3E3" height="32.6211" rx="2.5" ry="2.5" style="stroke:#181818;stroke-width:0.5;" width="211" x="1064" y="50"/><text fill="#000000" font-family="sans-serif" font-size="14" lengthAdjust="spacing" textLength="197" x="1071" y="72.1074">:RegisterCollaboratorController</text><rect fill="#E3E3E3" height="32.6211" rx="2.5" ry="2.5" style="stroke:#181818;stroke-width:0.5;" width="211" x="1064" y="1138.4473"/><text fill="#000000" font-family="sans-serif" font-size="14" lengthAdjust="spacing" textLength="197" x="1071" y="1160.5547">:RegisterCollaboratorController</text><rect fill="#E3E3E3" height="32.6211" rx="2.5" ry="2.5" style="stroke:#181818;stroke-width:0.5;" width="97" x="1470" y="50"/><text fill="#000000" font-family="sans-serif" font-size="14" lengthAdjust="spacing" textLength="83" x="1477" y="72.1074">:Repositories</text><rect fill="#E3E3E3" height="32.6211" rx="2.5" ry="2.5" style="stroke:#181818;stroke-width:0.5;" width="97" x="1470" y="1138.4473"/><text fill="#000000" font-family="sans-serif" font-size="14" lengthAdjust="spacing" textLength="83" x="1477" y="1160.5547">:Repositories</text><rect fill="#E3E3E3" height="51.2422" rx="2.5" ry="2.5" style="stroke:#181818;stroke-width:0.5;" width="97" x="1577" y="31.3789"/><text fill="#000000" font-family="sans-serif" font-size="14" lengthAdjust="spacing" textLength="74" x="1588.5" y="53.4863">repositories</text><text fill="#000000" font-family="sans-serif" font-size="14" lengthAdjust="spacing" textLength="83" x="1584" y="72.1074">:Repositories</text><rect fill="#E3E3E3" height="51.2422" rx="2.5" ry="2.5" style="stroke:#181818;stroke-width:0.5;" width="97" x="1577" y="1138.4473"/><text fill="#000000" font-family="sans-serif" font-size="14" lengthAdjust="spacing" textLength="74" x="1588.5" y="1160.5547">repositories</text><text fill="#000000" font-family="sans-serif" font-size="14" lengthAdjust="spacing" textLength="83" x="1584" y="1179.1758">:Repositories</text><rect fill="#E3E3E3" height="51.2422" rx="2.5" ry="2.5" style="stroke:#181818;stroke-width:0.5;" width="161" x="1684" y="31.3789"/><text fill="#000000" font-family="sans-serif" font-size="14" lengthAdjust="spacing" textLength="147" x="1691" y="53.4863">collaboratorRepository:</text><text fill="#000000" font-family="sans-serif" font-size="14" lengthAdjust="spacing" textLength="146" x="1691.5" y="72.1074">CollaboratorRepository</text><rect fill="#E3E3E3" height="51.2422" rx="2.5" ry="2.5" style="stroke:#181818;stroke-width:0.5;" width="161" x="1684" y="1138.4473"/><text fill="#000000" font-family="sans-serif" font-size="14" lengthAdjust="spacing" textLength="147" x="1691" y="1160.5547">collaboratorRepository:</text><text fill="#000000" font-family="sans-serif" font-size="14" lengthAdjust="spacing" textLength="146" x="1691.5" y="1179.1758">CollaboratorRepository</text><rect fill="#FFFFFF" height="1036.8262" style="stroke:#181818;stroke-width:1.0;" width="10" x="109.5" y="93.6211"/><rect fill="#FFFFFF" height="158.0859" style="stroke:#181818;stroke-width:1.0;" width="10" x="705.5" y="116.9121"/><rect fill="#FFFFFF" height="48.582" style="stroke:#181818;stroke-width:1.0;" width="10" x="705.5" y="306.2891"/><rect fill="#FFFFFF" height="31.291" style="stroke:#181818;stroke-width:1.0;" width="10" x="705.5" y="386.1621"/><rect fill="#FFFFFF" height="672.7031" style="stroke:#181818;stroke-width:1.0;" width="10" x="705.5" y="448.7441"/><rect fill="#FFFFFF" height="95.5039" style="stroke:#181818;stroke-width:1.0;" width="10" x="1164.5" y="148.2031"/><rect fill="#FFFFFF" height="575.5391" style="stroke:#181818;stroke-width:1.0;" width="10" x="1164.5" y="514.6172"/><rect fill="#FFFFFF" height="90.543" style="stroke:#181818;stroke-width:1.0;" width="10" x="1169.5" y="553.9082"/><rect fill="#FFFFFF" height="90.543" style="stroke:#181818;stroke-width:1.0;" width="10" x="1169.5" y="690.7422"/><rect fill="#FFFFFF" height="31.291" style="stroke:#181818;stroke-width:1.0;" width="10" x="1513.5" y="819.5762"/><rect fill="#FFFFFF" height="31.291" style="stroke:#181818;stroke-width:1.0;" width="10" x="1620.5" y="882.1582"/><rect fill="#FFFFFF" height="79.543" style="stroke:#181818;stroke-width:1.0;" width="10" x="1759.5" y="979.3223"/><polygon fill="#181818" points="693.5,112.9121,703.5,116.9121,693.5,120.9121,697.5,116.9121" style="stroke:#181818;stroke-width:1.0;"/><line style="stroke:#181818;stroke-width:1.0;" x1="119.5" x2="699.5" y1="116.9121" y2="116.9121"/><text fill="#000000" font-family="sans-serif" font-size="13" font-weight="bold" lengthAdjust="spacing" textLength="7" x="126.5" y="111.6494">1</text><text fill="#000000" font-family="sans-serif" font-size="13" lengthAdjust="spacing" textLength="199" x="137.5" y="111.6494">asks to register a new collaborator</text><polygon fill="#181818" points="1152.5,144.2031,1162.5,148.2031,1152.5,152.2031,1156.5,148.2031" style="stroke:#181818;stroke-width:1.0;"/><line style="stroke:#181818;stroke-width:1.0;" x1="715.5" x2="1158.5" y1="148.2031" y2="148.2031"/><text fill="#000000" font-family="sans-serif" font-size="13" font-weight="bold" lengthAdjust="spacing" textLength="7" x="722.5" y="142.9404">2</text><text fill="#000000" font-family="sans-serif" font-size="13" lengthAdjust="spacing" textLength="67" x="733.5" y="142.9404">getJobList()</text><rect fill="none" height="59.2129" style="stroke:#000000;stroke-width:1.5;" width="217" x="1061" y="156.2031"/><path d="M1061,156.2031 L1123,156.2031 L1123,165.2031 L1113,175.2031 L1061,175.2031 L1061,156.2031 " fill="#EEEEEE" style="stroke:#000000;stroke-width:2.0;"/><text fill="#000000" font-family="sans-serif" font-size="13" font-weight="bold" lengthAdjust="spacing" textLength="17" x="1074" y="172.2314">ref</text><text fill="#000000" font-family="sans-serif" font-size="12" lengthAdjust="spacing" textLength="65" x="1137" y="192.1523">Get Job List</text><text fill="#000000" font-family="sans-serif" font-size="12" lengthAdjust="spacing" textLength="3" x="1168" y="208.1133">&#160;</text><polygon fill="#181818" points="726.5,239.707,716.5,243.707,726.5,247.707,722.5,243.707" style="stroke:#181818;stroke-width:1.0;"/><line style="stroke:#181818;stroke-width:1.0;stroke-dasharray:2.0,2.0;" x1="720.5" x2="1168.5" y1="243.707" y2="243.707"/><text fill="#000000" font-family="sans-serif" font-size="13" font-weight="bold" lengthAdjust="spacing" textLength="7" x="732.5" y="238.4443">3</text><text fill="#000000" font-family="sans-serif" font-size="13" lengthAdjust="spacing" textLength="38" x="743.5" y="238.4443">jobList</text><polygon fill="#181818" points="130.5,270.998,120.5,274.998,130.5,278.998,126.5,274.998" style="stroke:#181818;stroke-width:1.0;"/><line style="stroke:#181818;stroke-width:1.0;stroke-dasharray:2.0,2.0;" x1="124.5" x2="709.5" y1="274.998" y2="274.998"/><text fill="#000000" font-family="sans-serif" font-size="13" font-weight="bold" lengthAdjust="spacing" textLength="7" x="136.5" y="269.7354">4</text><text fill="#000000" font-family="sans-serif" font-size="13" lengthAdjust="spacing" textLength="222" x="147.5" y="269.7354">shows jobs list and asks to select one</text><polygon fill="#181818" points="693.5,302.2891,703.5,306.2891,693.5,310.2891,697.5,306.2891" style="stroke:#181818;stroke-width:1.0;"/><line style="stroke:#181818;stroke-width:1.0;" x1="119.5" x2="699.5" y1="306.2891" y2="306.2891"/><text fill="#000000" font-family="sans-serif" font-size="13" font-weight="bold" lengthAdjust="spacing" textLength="7" x="126.5" y="301.0264">5</text><text fill="#000000" font-family="sans-serif" font-size="13" lengthAdjust="spacing" textLength="64" x="137.5" y="301.0264">types a job</text><polygon fill="#181818" points="130.5,350.8711,120.5,354.8711,130.5,358.8711,126.5,354.8711" style="stroke:#181818;stroke-width:1.0;"/><line style="stroke:#181818;stroke-width:1.0;stroke-dasharray:2.0,2.0;" x1="124.5" x2="709.5" y1="354.8711" y2="354.8711"/><text fill="#000000" font-family="sans-serif" font-size="13" font-weight="bold" lengthAdjust="spacing" textLength="7" x="136.5" y="340.9629">6</text><text fill="#000000" font-family="sans-serif" font-size="13" lengthAdjust="spacing" textLength="547" x="147.5" y="332.3174">requests data (name, birthdate, admission date, address(streetName, postCode, doorNumber),</text><text fill="#000000" font-family="sans-serif" font-size="13" lengthAdjust="spacing" textLength="357" x="147.5" y="349.6084">mobile, email, taxpayerNumber, document(docType, number))</text><polygon fill="#181818" points="693.5,382.1621,703.5,386.1621,693.5,390.1621,697.5,386.1621" style="stroke:#181818;stroke-width:1.0;"/><line style="stroke:#181818;stroke-width:1.0;" x1="119.5" x2="699.5" y1="386.1621" y2="386.1621"/><text fill="#000000" font-family="sans-serif" font-size="13" font-weight="bold" lengthAdjust="spacing" textLength="7" x="126.5" y="380.8994">7</text><text fill="#000000" font-family="sans-serif" font-size="13" lengthAdjust="spacing" textLength="122" x="137.5" y="380.8994">types requested data</text><polygon fill="#181818" points="130.5,413.4531,120.5,417.4531,130.5,421.4531,126.5,417.4531" style="stroke:#181818;stroke-width:1.0;"/><line style="stroke:#181818;stroke-width:1.0;stroke-dasharray:2.0,2.0;" x1="124.5" x2="709.5" y1="417.4531" y2="417.4531"/><text fill="#000000" font-family="sans-serif" font-size="13" font-weight="bold" lengthAdjust="spacing" textLength="7" x="136.5" y="412.1904">8</text><text fill="#000000" font-family="sans-serif" font-size="13" lengthAdjust="spacing" textLength="219" x="147.5" y="412.1904">shows data and requests confirmation</text><polygon fill="#181818" points="693.5,444.7441,703.5,448.7441,693.5,452.7441,697.5,448.7441" style="stroke:#181818;stroke-width:1.0;"/><line style="stroke:#181818;stroke-width:1.0;" x1="119.5" x2="699.5" y1="448.7441" y2="448.7441"/><text fill="#000000" font-family="sans-serif" font-size="13" font-weight="bold" lengthAdjust="spacing" textLength="7" x="126.5" y="443.4814">9</text><text fill="#000000" font-family="sans-serif" font-size="13" lengthAdjust="spacing" textLength="78" x="137.5" y="443.4814">confirms data</text><polygon fill="#181818" points="1152.5,510.6172,1162.5,514.6172,1152.5,518.6172,1156.5,514.6172" style="stroke:#181818;stroke-width:1.0;"/><line style="stroke:#181818;stroke-width:1.0;" x1="715.5" x2="1158.5" y1="514.6172" y2="514.6172"/><text fill="#000000" font-family="sans-serif" font-size="13" font-weight="bold" lengthAdjust="spacing" textLength="14" x="722.5" y="492.0635">10</text><text fill="#000000" font-family="sans-serif" font-size="13" lengthAdjust="spacing" textLength="210" x="740.5" y="474.7725">registerCollaborator(name, birthdate,</text><text fill="#000000" font-family="sans-serif" font-size="13" lengthAdjust="spacing" textLength="408" x="740.5" y="492.0635">admission date, address(streetName, postCode, doorNumber), mobile,</text><text fill="#000000" font-family="sans-serif" font-size="13" lengthAdjust="spacing" textLength="372" x="740.5" y="509.3545">email, taxpayerNumber, document(docType, number), job name)</text><line style="stroke:#181818;stroke-width:1.0;" x1="1174.5" x2="1221.5" y1="540.9082" y2="540.9082"/><line style="stroke:#181818;stroke-width:1.0;" x1="1221.5" x2="1221.5" y1="540.9082" y2="553.9082"/><line style="stroke:#181818;stroke-width:1.0;" x1="1180.5" x2="1221.5" y1="553.9082" y2="553.9082"/><polygon fill="#181818" points="1190.5,549.9082,1180.5,553.9082,1190.5,557.9082,1186.5,553.9082" style="stroke:#181818;stroke-width:1.0;"/><text fill="#000000" font-family="sans-serif" font-size="13" font-weight="bold" lengthAdjust="spacing" textLength="14" x="1186.5" y="535.6455">11</text><text fill="#000000" font-family="sans-serif" font-size="13" lengthAdjust="spacing" textLength="147" x="1204.5" y="535.6455">getJobByName(jobName)</text><rect fill="none" height="43.252" style="stroke:#000000;stroke-width:1.5;" width="217" x="1061" y="566.9082"/><path d="M1061,566.9082 L1123,566.9082 L1123,575.9082 L1113,585.9082 L1061,585.9082 L1061,566.9082 " fill="#EEEEEE" style="stroke:#000000;stroke-width:2.0;"/><text fill="#000000" font-family="sans-serif" font-size="13" font-weight="bold" lengthAdjust="spacing" textLength="17" x="1074" y="582.9365">ref</text><text fill="#000000" font-family="sans-serif" font-size="12" lengthAdjust="spacing" textLength="80" x="1129.5" y="602.8574">Get Job Object</text><line style="stroke:#181818;stroke-width:1.0;stroke-dasharray:2.0,2.0;" x1="1179.5" x2="1221.5" y1="643.4512" y2="643.4512"/><line style="stroke:#181818;stroke-width:1.0;stroke-dasharray:2.0,2.0;" x1="1221.5" x2="1221.5" y1="643.4512" y2="656.4512"/><line style="stroke:#181818;stroke-width:1.0;stroke-dasharray:2.0,2.0;" x1="1174.5" x2="1221.5" y1="656.4512" y2="656.4512"/><polygon fill="#181818" points="1184.5,652.4512,1174.5,656.4512,1184.5,660.4512,1180.5,656.4512" style="stroke:#181818;stroke-width:1.0;"/><text fill="#000000" font-family="sans-serif" font-size="13" font-weight="bold" lengthAdjust="spacing" textLength="14" x="1186.5" y="638.1885">12</text><text fill="#000000" font-family="sans-serif" font-size="13" lengthAdjust="spacing" textLength="17" x="1204.5" y="638.1885">job</text><line style="stroke:#181818;stroke-width:1.0;" x1="1174.5" x2="1221.5" y1="677.7422" y2="677.7422"/><line style="stroke:#181818;stroke-width:1.0;" x1="1221.5" x2="1221.5" y1="677.7422" y2="690.7422"/><line style="stroke:#181818;stroke-width:1.0;" x1="1180.5" x2="1221.5" y1="690.7422" y2="690.7422"/><polygon fill="#181818" points="1190.5,686.7422,1180.5,690.7422,1190.5,694.7422,1186.5,690.7422" style="stroke:#181818;stroke-width:1.0;"/><text fill="#000000" font-family="sans-serif" font-size="13" font-weight="bold" lengthAdjust="spacing" textLength="14" x="1186.5" y="672.4795">13</text><text fill="#000000" font-family="sans-serif" font-size="13" lengthAdjust="spacing" textLength="307" x="1204.5" y="672.4795">registerAddress(streetName, postCode, doorNumber)</text><rect fill="none" height="43.252" style="stroke:#000000;stroke-width:1.5;" width="217" x="1061" y="703.7422"/><path d="M1061,703.7422 L1123,703.7422 L1123,712.7422 L1113,722.7422 L1061,722.7422 L1061,703.7422 " fill="#EEEEEE" style="stroke:#000000;stroke-width:2.0;"/><text fill="#000000" font-family="sans-serif" font-size="13" font-weight="bold" lengthAdjust="spacing" textLength="17" x="1074" y="719.7705">ref</text><text fill="#000000" font-family="sans-serif" font-size="12" lengthAdjust="spacing" textLength="96" x="1121.5" y="739.6914">Register Address</text><line style="stroke:#181818;stroke-width:1.0;stroke-dasharray:2.0,2.0;" x1="1179.5" x2="1221.5" y1="780.2852" y2="780.2852"/><line style="stroke:#181818;stroke-width:1.0;stroke-dasharray:2.0,2.0;" x1="1221.5" x2="1221.5" y1="780.2852" y2="793.2852"/><line style="stroke:#181818;stroke-width:1.0;stroke-dasharray:2.0,2.0;" x1="1174.5" x2="1221.5" y1="793.2852" y2="793.2852"/><polygon fill="#181818" points="1184.5,789.2852,1174.5,793.2852,1184.5,797.2852,1180.5,793.2852" style="stroke:#181818;stroke-width:1.0;"/><text fill="#000000" font-family="sans-serif" font-size="13" font-weight="bold" lengthAdjust="spacing" textLength="14" x="1186.5" y="775.0225">14</text><text fill="#000000" font-family="sans-serif" font-size="13" lengthAdjust="spacing" textLength="46" x="1204.5" y="775.0225">address</text><polygon fill="#181818" points="1501.5,815.5762,1511.5,819.5762,1501.5,823.5762,1505.5,819.5762" style="stroke:#181818;stroke-width:1.0;"/><line style="stroke:#181818;stroke-width:1.0;" x1="1174.5" x2="1507.5" y1="819.5762" y2="819.5762"/><text fill="#000000" font-family="sans-serif" font-size="13" font-weight="bold" lengthAdjust="spacing" textLength="14" x="1181.5" y="814.3135">15</text><text fill="#000000" font-family="sans-serif" font-size="13" lengthAdjust="spacing" textLength="75" x="1199.5" y="814.3135">getInstance()</text><polygon fill="#181818" points="1185.5,846.8672,1175.5,850.8672,1185.5,854.8672,1181.5,850.8672" style="stroke:#181818;stroke-width:1.0;"/><line style="stroke:#181818;stroke-width:1.0;stroke-dasharray:2.0,2.0;" x1="1179.5" x2="1517.5" y1="850.8672" y2="850.8672"/><text fill="#000000" font-family="sans-serif" font-size="13" font-weight="bold" lengthAdjust="spacing" textLength="14" x="1191.5" y="845.6045">16</text><text fill="#000000" font-family="sans-serif" font-size="13" lengthAdjust="spacing" textLength="67" x="1209.5" y="845.6045">repositories</text><polygon fill="#181818" points="1608.5,878.1582,1618.5,882.1582,1608.5,886.1582,1612.5,882.1582" style="stroke:#181818;stroke-width:1.0;"/><line style="stroke:#181818;stroke-width:1.0;" x1="1174.5" x2="1614.5" y1="882.1582" y2="882.1582"/><text fill="#000000" font-family="sans-serif" font-size="13" font-weight="bold" lengthAdjust="spacing" textLength="14" x="1181.5" y="876.8955">17</text><text fill="#000000" font-family="sans-serif" font-size="13" lengthAdjust="spacing" textLength="157" x="1199.5" y="876.8955">getCollaboratorRepository()</text><polygon fill="#181818" points="1185.5,909.4492,1175.5,913.4492,1185.5,917.4492,1181.5,913.4492" style="stroke:#181818;stroke-width:1.0;"/><line style="stroke:#181818;stroke-width:1.0;" x1="1179.5" x2="1624.5" y1="913.4492" y2="913.4492"/><text fill="#000000" font-family="sans-serif" font-size="13" font-weight="bold" lengthAdjust="spacing" textLength="14" x="1191.5" y="908.1865">18</text><text fill="#000000" font-family="sans-serif" font-size="13" lengthAdjust="spacing" textLength="129" x="1209.5" y="908.1865">collaboratorRepository</text><polygon fill="#181818" points="1747.5,975.3223,1757.5,979.3223,1747.5,983.3223,1751.5,979.3223" style="stroke:#181818;stroke-width:1.0;"/><line style="stroke:#181818;stroke-width:1.0;" x1="1174.5" x2="1753.5" y1="979.3223" y2="979.3223"/><text fill="#000000" font-family="sans-serif" font-size="13" font-weight="bold" lengthAdjust="spacing" textLength="14" x="1181.5" y="956.7686">19</text><text fill="#000000" font-family="sans-serif" font-size="13" lengthAdjust="spacing" textLength="210" x="1199.5" y="939.4775">registerCollaborator(name, birthdate,</text><text fill="#000000" font-family="sans-serif" font-size="13" lengthAdjust="spacing" textLength="192" x="1199.5" y="956.7686">admission date, address, mobile,</text><text fill="#000000" font-family="sans-serif" font-size="13" lengthAdjust="spacing" textLength="228" x="1199.5" y="974.0596">email, taxpayerNumber, document, job)</text><rect fill="none" height="43.252" style="stroke:#000000;stroke-width:1.5;" width="167" x="1681" y="987.3223"/><path d="M1681,987.3223 L1743,987.3223 L1743,996.3223 L1733,1006.3223 L1681,1006.3223 L1681,987.3223 " fill="#EEEEEE" style="stroke:#000000;stroke-width:2.0;"/><text fill="#000000" font-family="sans-serif" font-size="13" font-weight="bold" lengthAdjust="spacing" textLength="17" x="1694" y="1003.3506">ref</text><text fill="#000000" font-family="sans-serif" font-size="12" lengthAdjust="spacing" textLength="108" x="1710.5" y="1023.2715">Create Collaborator</text><polygon fill="#181818" points="1185.5,1054.8652,1175.5,1058.8652,1185.5,1062.8652,1181.5,1058.8652" style="stroke:#181818;stroke-width:1.0;"/><line style="stroke:#181818;stroke-width:1.0;stroke-dasharray:2.0,2.0;" x1="1179.5" x2="1763.5" y1="1058.8652" y2="1058.8652"/><text fill="#000000" font-family="sans-serif" font-size="13" font-weight="bold" lengthAdjust="spacing" textLength="14" x="1191.5" y="1053.6025">20</text><text fill="#000000" font-family="sans-serif" font-size="13" lengthAdjust="spacing" textLength="67" x="1209.5" y="1053.6025">collaborator</text><polygon fill="#181818" points="726.5,1086.1563,716.5,1090.1563,726.5,1094.1563,722.5,1090.1563" style="stroke:#181818;stroke-width:1.0;"/><line style="stroke:#181818;stroke-width:1.0;stroke-dasharray:2.0,2.0;" x1="720.5" x2="1168.5" y1="1090.1563" y2="1090.1563"/><text fill="#000000" font-family="sans-serif" font-size="13" font-weight="bold" lengthAdjust="spacing" textLength="14" x="732.5" y="1084.8936">21</text><text fill="#000000" font-family="sans-serif" font-size="13" lengthAdjust="spacing" textLength="67" x="750.5" y="1084.8936">collaborator</text><polygon fill="#181818" points="130.5,1117.4473,120.5,1121.4473,130.5,1125.4473,126.5,1121.4473" style="stroke:#181818;stroke-width:1.0;"/><line style="stroke:#181818;stroke-width:1.0;stroke-dasharray:2.0,2.0;" x1="124.5" x2="709.5" y1="1121.4473" y2="1121.4473"/><text fill="#000000" font-family="sans-serif" font-size="13" font-weight="bold" lengthAdjust="spacing" textLength="14" x="136.5" y="1116.1846">22</text><text fill="#000000" font-family="sans-serif" font-size="13" lengthAdjust="spacing" textLength="158" x="154.5" y="1116.1846">displays operation success</text><!--SRC=[fLR1KkCm3BtdApHSDfqfFz33ph0zB330xXIuzQ8aQcj8xApj0FtxbPqc98qRqi4dnvQUzPuiA-PLo18r5b0egTATLWM1rHL5fjqfCNt5BJtQVKwWARKejtdNmEmmK-z2Rc63kQ4emiegMHK9wIZwiHCPmKOfcwYF25EhD5nSLmLAM95HbKu9xb7o0HhYwzNzx0BG04yY1hSY5ILA2nUB5Ms5iQINAizpJ9H6Hdg-yTRFDoF6ZUrIIQlvcxJtMJwjxWPUfJA2JGKPRzCkx1-5uyoi-Ywwux6MGu2_TrTFVO-q4z4d_68jby6DEjJWLkJ456zeoQiL0G-UmELFrWCMxFXgm2hEMAq584XwXsu0tgT5OHNzWXkCm3XE8qRQahrLoHsZnBFMedNpGhRBRcZQW7hZ4_qM78tVP87XmE7r_KXcphTTyyTVDdnUwX3QtOnEXE1YPoUdnOBlfdetpjT0pjw0V4QZZA6SRpCeII7GhXnTNS7kIpAi9eCErJWMiGr4qx-AZ3MGeKM89HOqXqHek-C5dc9M26E4aj1yPvgCYOtLHFR1ctFgxL9bFCkKqW- -mcPpMCj29IBdPIfGv7Em-57YdWuMpZgj2f8sviaJHp-7kZfditE8rxmFF2ZpHCuGeCw4Puy-qGSzKYKtGXTecVivuHpypCGusjki0s_3C1rh-Os4DEbOotCJCdUt2bmqaogjhf2ZGlsrTy753FJGm_a2w-lAxLRld-I5QsTWSbp2Wr8-HDgjdT5YFi6qIUBLrAGC0FldmVbAD3q63Z4CZQQAWIS09eiIw5FrRRYHXhjrIl48_r2JYuPaXoSq35msFllU68j9HpMaNE-iMOJxtnWdttU3MVEedzA7s_4OXp1qUps3UDz_TSvuK_mJCdRVJ_nDdAw0QHfv6JGT7t7oYHXg6DRkCfojqMgPIB7_Wp4PFLYBlLwN2LFck3UWIjA-iu6fqlIB8kUMzHy0]--></g></svg>