<?xml version="1.0" encoding="us-ascii" standalone="no"?><svg xmlns="http://www.w3.org/2000/svg" xmlns:xlink="http://www.w3.org/1999/xlink" contentStyleType="text/css" height="810px" preserveAspectRatio="none" style="width:737px;height:810px;background:#FFFFFF;" version="1.1" viewBox="0 0 737 810" width="737px" zoomAndPan="magnify"><defs/><g><text fill="#000000" font-family="sans-serif" font-size="14" font-weight="bold" lengthAdjust="spacing" textLength="100" x="311.5" y="25.1074">Domain Model</text><!--class Collaborator--><g id="elem_Collaborator"><rect codeLine="18" fill="#F1F1F1" height="185.5898" id="Collaborator" rx="2.5" ry="2.5" style="stroke:#181818;stroke-width:0.5;" width="105" x="372.5" y="46.6211"/><text fill="#000000" font-family="sans-serif" font-size="14" lengthAdjust="spacing" textLength="78" x="386" y="66.7285">Collaborator</text><line style="stroke:#181818;stroke-width:0.5;" x1="373.5" x2="476.5" y1="75.2422" y2="75.2422"/><text fill="#000000" font-family="sans-serif" font-size="14" lengthAdjust="spacing" textLength="35" x="378.5" y="94.3496">name</text><text fill="#000000" font-family="sans-serif" font-size="14" lengthAdjust="spacing" textLength="72" x="378.5" y="112.9707">dateOfBirth</text><text fill="#000000" font-family="sans-serif" font-size="14" lengthAdjust="spacing" textLength="93" x="378.5" y="131.5918">admissionDate</text><text fill="#000000" font-family="sans-serif" font-size="14" lengthAdjust="spacing" textLength="51" x="378.5" y="150.2129">address</text><text fill="#000000" font-family="sans-serif" font-size="14" lengthAdjust="spacing" textLength="89" x="378.5" y="168.834">phoneNumber</text><text fill="#000000" font-family="sans-serif" font-size="14" lengthAdjust="spacing" textLength="33" x="378.5" y="187.4551">email</text><text fill="#000000" font-family="sans-serif" font-size="14" lengthAdjust="spacing" textLength="14" x="378.5" y="206.0762">cc</text><text fill="#000000" font-family="sans-serif" font-size="14" lengthAdjust="spacing" textLength="77" x="378.5" y="224.6973">cardNumber</text></g><!--class VehicleFleetManager--><g id="elem_VehicleFleetManager"><rect codeLine="29" fill="#F1F1F1" height="36.6211" id="VehicleFleetManager" rx="2.5" ry="2.5" style="stroke:#181818;stroke-width:0.5;" width="140" x="7" y="311.6211"/><text fill="#000000" font-family="sans-serif" font-size="14" lengthAdjust="spacing" textLength="134" x="10" y="331.7285">VehicleFleetManager</text><line style="stroke:#181818;stroke-width:0.5;" x1="8" x2="146" y1="340.2422" y2="340.2422"/></g><!--class HumanResourceManager--><g id="elem_HumanResourceManager"><rect codeLine="32" fill="#F1F1F1" height="36.6211" id="HumanResourceManager" rx="2.5" ry="2.5" style="stroke:#181818;stroke-width:0.5;" width="167" x="496.5" y="311.6211"/><text fill="#000000" font-family="sans-serif" font-size="14" lengthAdjust="spacing" textLength="161" x="499.5" y="331.7285">HumanResourceManager</text><line style="stroke:#181818;stroke-width:0.5;" x1="497.5" x2="662.5" y1="340.2422" y2="340.2422"/></g><!--class Team--><g id="elem_Team"><rect codeLine="37" fill="#F1F1F1" height="36.6211" id="Team" rx="2.5" ry="2.5" style="stroke:#181818;stroke-width:0.5;" width="42" x="313" y="311.6211"/><text fill="#000000" font-family="sans-serif" font-size="14" lengthAdjust="spacing" textLength="36" x="316" y="331.7285">Team</text><line style="stroke:#181818;stroke-width:0.5;" x1="314" x2="354" y1="340.2422" y2="340.2422"/></g><!--class Vehicle--><g id="elem_Vehicle"><rect codeLine="41" fill="#F1F1F1" height="222.832" id="Vehicle" rx="2.5" ry="2.5" style="stroke:#181818;stroke-width:0.5;" width="133" x="107.5" y="427.6211"/><text fill="#000000" font-family="sans-serif" font-size="14" lengthAdjust="spacing" textLength="46" x="151" y="447.7285">Vehicle</text><line style="stroke:#181818;stroke-width:0.5;" x1="108.5" x2="239.5" y1="456.2422" y2="456.2422"/><text fill="#000000" font-family="sans-serif" font-size="14" lengthAdjust="spacing" textLength="37" x="113.5" y="475.3496">brand</text><text fill="#000000" font-family="sans-serif" font-size="14" lengthAdjust="spacing" textLength="38" x="113.5" y="493.9707">model</text><text fill="#000000" font-family="sans-serif" font-size="14" lengthAdjust="spacing" textLength="27" x="113.5" y="512.5918">type</text><text fill="#000000" font-family="sans-serif" font-size="14" lengthAdjust="spacing" textLength="25" x="113.5" y="531.2129">tare</text><text fill="#000000" font-family="sans-serif" font-size="14" lengthAdjust="spacing" textLength="79" x="113.5" y="549.834">grossWeight</text><text fill="#000000" font-family="sans-serif" font-size="14" lengthAdjust="spacing" textLength="65" x="113.5" y="568.4551">currentKm</text><text fill="#000000" font-family="sans-serif" font-size="14" lengthAdjust="spacing" textLength="78" x="113.5" y="587.0762">registerDate</text><text fill="#000000" font-family="sans-serif" font-size="14" lengthAdjust="spacing" textLength="97" x="113.5" y="605.6973">acquisitionDate</text><text fill="#000000" font-family="sans-serif" font-size="14" lengthAdjust="spacing" textLength="121" x="113.5" y="624.3184">checkupFrequency</text><text fill="#000000" font-family="sans-serif" font-size="14" lengthAdjust="spacing" textLength="76" x="113.5" y="642.9395">licensePlate</text></g><!--class CheckUp--><g id="elem_CheckUp"><rect codeLine="54" fill="#F1F1F1" height="73.8633" id="CheckUp" rx="2.5" ry="2.5" style="stroke:#181818;stroke-width:0.5;" width="63" x="142.5" y="729.6211"/><text fill="#000000" font-family="sans-serif" font-size="14" lengthAdjust="spacing" textLength="57" x="145.5" y="749.7285">CheckUp</text><line style="stroke:#181818;stroke-width:0.5;" x1="143.5" x2="204.5" y1="758.2422" y2="758.2422"/><text fill="#000000" font-family="sans-serif" font-size="14" lengthAdjust="spacing" textLength="28" x="148.5" y="777.3496">date</text><text fill="#000000" font-family="sans-serif" font-size="14" lengthAdjust="spacing" textLength="18" x="148.5" y="795.9707">km</text></g><!--class Skill--><g id="elem_Skill"><rect codeLine="59" fill="#F1F1F1" height="55.2422" id="Skill" rx="2.5" ry="2.5" style="stroke:#181818;stroke-width:0.5;" width="47" x="445.5" y="511.6211"/><text fill="#000000" font-family="sans-serif" font-size="14" lengthAdjust="spacing" textLength="25" x="456.5" y="531.7285">Skill</text><line style="stroke:#181818;stroke-width:0.5;" x1="446.5" x2="491.5" y1="540.2422" y2="540.2422"/><text fill="#000000" font-family="sans-serif" font-size="14" lengthAdjust="spacing" textLength="35" x="451.5" y="559.3496">name</text></g><!--class Job--><g id="elem_Job"><rect codeLine="63" fill="#F1F1F1" height="55.2422" id="Job" rx="2.5" ry="2.5" style="stroke:#181818;stroke-width:0.5;" width="47" x="659.5" y="511.6211"/><text fill="#000000" font-family="sans-serif" font-size="14" lengthAdjust="spacing" textLength="22" x="672" y="531.7285">Job</text><line style="stroke:#181818;stroke-width:0.5;" x1="660.5" x2="705.5" y1="540.2422" y2="540.2422"/><text fill="#000000" font-family="sans-serif" font-size="14" lengthAdjust="spacing" textLength="35" x="665.5" y="559.3496">name</text></g><!--reverse link Collaborator to HumanResourceManager--><g id="link_Collaborator_HumanResourceManager"><path codeLine="68" d="M491.3867,193.5818 C516.7267,215.4518 532.36,232.2911 553,262.6211 C563.31,277.7611 570.68,297.4411 575.09,311.4511 " fill="none" id="Collaborator-backto-HumanResourceManager" style="stroke:#181818;stroke-width:1.0;"/><polygon fill="none" points="477.76,181.8211,487.4665,198.124,495.3069,189.0395,477.76,181.8211" style="stroke:#181818;stroke-width:1.0;"/></g><!--link HumanResourceManager to Collaborator--><g id="link_HumanResourceManager_Collaborator"><path codeLine="70" d="M526.26,311.6111 C510.4,304.3511 494.07,294.5311 482,281.6211 C469.02,267.7311 458.83,250.5111 450.89,232.9111 " fill="none" id="HumanResourceManager-Collaborator" style="stroke:#181818;stroke-width:1.0;"/><polygon fill="#000000" points="483.5417,268.6555,487.6753,277.2208,491.9204,273.1553,483.5417,268.6555" style="stroke:#000000;stroke-width:1.0;"/><text fill="#000000" font-family="sans-serif" font-size="13" lengthAdjust="spacing" textLength="48" x="496" y="277.6494">Register</text><text fill="#000000" font-family="sans-serif" font-size="13" lengthAdjust="spacing" textLength="7" x="501.7303" y="300.4702">1</text><text fill="#000000" font-family="sans-serif" font-size="13" lengthAdjust="spacing" textLength="5" x="447.5346" y="254.1212">*</text></g><!--reverse link Collaborator to VehicleFleetManager--><g id="link_Collaborator_VehicleFleetManager"><path codeLine="69" d="M356.0659,175.4511 C308.3859,199.7011 252.57,228.6411 191,262.6211 C161.91,278.6711 129.2,297.8811 106.31,311.5111 " fill="none" id="Collaborator-backto-VehicleFleetManager" style="stroke:#181818;stroke-width:1.0;"/><polygon fill="none" points="372.11,167.2911,353.3459,170.1031,358.7859,180.7992,372.11,167.2911" style="stroke:#181818;stroke-width:1.0;"/></g><!--link Collaborator to Vehicle--><g id="link_Collaborator_Vehicle"><path codeLine="71" d="M372.25,174.7111 C328.86,205.4511 269,254.5111 234,311.6211 C212.64,346.4811 198.8,388.8811 189.88,427.5211 " fill="none" id="Collaborator-Vehicle" style="stroke:#181818;stroke-width:1.0;"/><polygon fill="#000000" points="236.0748,334.3216,243.75,328.7054,238.983,325.2666,236.0748,334.3216" style="stroke:#000000;stroke-width:1.0;"/><text fill="#000000" font-family="sans-serif" font-size="13" lengthAdjust="spacing" textLength="46" x="248" y="335.6494">can use</text><text fill="#000000" font-family="sans-serif" font-size="13" lengthAdjust="spacing" textLength="7" x="357.3398" y="175.5279">1</text><text fill="#000000" font-family="sans-serif" font-size="13" lengthAdjust="spacing" textLength="5" x="185.779" y="416.4956">*</text></g><!--link Collaborator to Team--><g id="link_Collaborator_Team"><path codeLine="72" d="M372.38,202.9711 C359.68,221.1511 347.6,241.7611 340,262.6211 C334.25,278.4111 333.09,297.6511 333.16,311.3611 " fill="none" id="Collaborator-Team" style="stroke:#181818;stroke-width:1.0;"/><polygon fill="#000000" points="346.7013,267.5649,340.8601,275.0704,346.3872,277.0703,346.7013,267.5649" style="stroke:#000000;stroke-width:1.0;"/><text fill="#000000" font-family="sans-serif" font-size="13" lengthAdjust="spacing" textLength="44" x="354" y="277.6494">Contain</text><text fill="#000000" font-family="sans-serif" font-size="13" lengthAdjust="spacing" textLength="5" x="359.6287" y="207.762">*</text><text fill="#000000" font-family="sans-serif" font-size="13" lengthAdjust="spacing" textLength="7" x="324.8851" y="300.4802">1</text></g><!--link Vehicle to CheckUp--><g id="link_Vehicle_CheckUp"><path codeLine="73" d="M174,650.8911 C174,679.2911 174,707.8611 174,729.3911 " fill="none" id="Vehicle-CheckUp" style="stroke:#181818;stroke-width:1.0;"/><polygon fill="#000000" points="179,685.2666,176.0611,694.3117,181.9389,694.3117,179,685.2666" style="stroke:#000000;stroke-width:1.0;"/><text fill="#000000" font-family="sans-serif" font-size="13" lengthAdjust="spacing" textLength="84" x="188" y="695.6494">Check Vehicle</text><text fill="#000000" font-family="sans-serif" font-size="13" lengthAdjust="spacing" textLength="7" x="166.7758" y="672.6389">1</text><text fill="#000000" font-family="sans-serif" font-size="13" lengthAdjust="spacing" textLength="5" x="168.5547" y="718.3119">*</text></g><!--link HumanResourceManager to Skill--><g id="link_HumanResourceManager_Skill"><path codeLine="74" d="M558.88,348.9911 C550.02,357.3111 540.13,367.7611 533,378.6211 C504.92,421.4011 485.74,478.4411 476.14,511.4411 " fill="none" id="HumanResourceManager-Skill" style="stroke:#181818;stroke-width:1.0;"/><polygon fill="#000000" points="535.7308,392.722,542.4547,385.9959,537.217,383.3283,535.7308,392.722" style="stroke:#000000;stroke-width:1.0;"/><text fill="#000000" font-family="sans-serif" font-size="13" lengthAdjust="spacing" textLength="48" x="547" y="393.6494">Register</text><text fill="#000000" font-family="sans-serif" font-size="13" lengthAdjust="spacing" textLength="5" x="547.8274" y="370.1188">*</text><text fill="#000000" font-family="sans-serif" font-size="13" lengthAdjust="spacing" textLength="5" x="472.155" y="500.5604">*</text></g><!--link Skill to Collaborator--><g id="link_Skill_Collaborator"><path codeLine="75" d="M464.92,511.5011 C459.4,474.8811 449.51,406.8711 443,348.6211 C438.77,310.8011 434.98,269.0111 431.99,232.8711 " fill="none" id="Skill-Collaborator" style="stroke:#181818;stroke-width:1.0;"/><polygon fill="#000000" points="448.5868,335.232,450.4438,325.9045,444.6066,326.5944,448.5868,335.232" style="stroke:#000000;stroke-width:1.0;"/><text fill="#000000" font-family="sans-serif" font-size="13" lengthAdjust="spacing" textLength="21" x="457" y="335.6494">has</text><text fill="#000000" font-family="sans-serif" font-size="13" lengthAdjust="spacing" textLength="5" x="458.3984" y="500.1823">*</text><text fill="#000000" font-family="sans-serif" font-size="13" lengthAdjust="spacing" textLength="5" x="427.3197" y="254.3974">*</text></g><!--link Job to Collaborator--><g id="link_Job_Collaborator"><path codeLine="76" d="M690.35,511.3711 C700.99,466.8711 715.86,376.1411 681,311.6211 C637.81,231.6811 539.09,182.5011 477.64,158.4811 " fill="none" id="Job-Collaborator" style="stroke:#181818;stroke-width:1.0;"/><polygon fill="#000000" points="701.5812,334.5488,699.4288,325.285,694.3947,328.3194,701.5812,334.5488" style="stroke:#000000;stroke-width:1.0;"/><text fill="#000000" font-family="sans-serif" font-size="13" lengthAdjust="spacing" textLength="21" x="708" y="335.6494">has</text><text fill="#000000" font-family="sans-serif" font-size="13" lengthAdjust="spacing" textLength="7" x="684.1922" y="500.4751">1</text><text fill="#000000" font-family="sans-serif" font-size="13" lengthAdjust="spacing" textLength="5" x="485.3941" y="157.0156">*</text></g><!--link HumanResourceManager to Job--><g id="link_HumanResourceManager_Job"><path codeLine="77" d="M588.78,348.7711 C606.88,385.1411 648.42,468.6211 669.78,511.5511 " fill="none" id="HumanResourceManager-Job" style="stroke:#181818;stroke-width:1.0;"/><polygon fill="#000000" points="617.2275,392.743,615.8291,383.3358,610.5668,385.9544,617.2275,392.743" style="stroke:#000000;stroke-width:1.0;"/><text fill="#000000" font-family="sans-serif" font-size="13" lengthAdjust="spacing" textLength="48" x="624" y="393.6494">Register</text><text fill="#000000" font-family="sans-serif" font-size="13" lengthAdjust="spacing" textLength="5" x="585.4677" y="370.186">*</text><text fill="#000000" font-family="sans-serif" font-size="13" lengthAdjust="spacing" textLength="5" x="661.1447" y="500.2439">*</text></g><!--link VehicleFleetManager to Vehicle--><g id="link_VehicleFleetManager_Vehicle"><path codeLine="78" d="M85.27,348.7711 C93.75,366.8611 107.68,396.5911 122.02,427.2011 " fill="none" id="VehicleFleetManager-Vehicle" style="stroke:#181818;stroke-width:1.0;"/><polygon fill="#000000" points="113.1215,392.7942,111.9449,383.3567,106.6224,385.8507,113.1215,392.7942" style="stroke:#000000;stroke-width:1.0;"/><text fill="#000000" font-family="sans-serif" font-size="13" lengthAdjust="spacing" textLength="48" x="120" y="393.6494">Register</text><text fill="#000000" font-family="sans-serif" font-size="13" lengthAdjust="spacing" textLength="7" x="79.5519" y="370.186">1</text><text fill="#000000" font-family="sans-serif" font-size="13" lengthAdjust="spacing" textLength="5" x="113.5299" y="416.5297">*</text></g><!--SRC=[XLBRZjCm47ttLupw4gbI9NX55H9qjUAY1RJbyZorfubLNx9ZHwYK_NSSEwG96y0lEVQSEJDp9k6aNOkC5gntNZRiBK7aZaGO8otA4zQqZsT3m2GZkjfC2Q51vRzhLyCHJI1HNKD6Euhdbi1pRBoe31qZH0-iwoQ2qhsSzcuY9Ws6y2f6reSkqblftLx_87Wc6gq8f6QPQcTiAKcg84JKCNLsuorg1tTUaH6YoZhmoM0yUhPm4HN0Hb6GhDjSideKwHJQpXk31yyOFISgfEFGKWOA8tqyljPfW7n7PNK8IU4c1OONnHH2nctZ7Ntex84utoarPJAIidoGrH0NZqFvhzJeDDQj8Oftw9BPVHTZ-4rdqTrJy1rBciGJOM1y9hINoNqGB9CS69tAo6PlUjJlf03a0chs8NoZVY-bpuwPN7nlyusfrY4INsUM3vqEEavza0t9KzVUCZrqvEGvFnejoGNg5q7N1dSzzKjx6HtEu6IlZFr96pDPnHXuvm_pPp7R7cn_RZQmwDcSc7aBpej5krVFLv3ug_Lg_hEyWFl16dWvrvza35KIMQA3Bj0JxhfmKqg_oaJSUHVxttahVYTFEoZk9Lg1Ou7jNvfVZwdPrddNvMd2-MF01aCIJhR_muJ2-L_nNcDMUkd7N_HjaZESNm00]--></g></svg>